<?xml version="1.0" encoding="UTF-8" standalone="no"?>
<!DOCTYPE svg PUBLIC "-//W3C//DTD SVG 1.1//EN"
 "http://www.w3.org/Graphics/SVG/1.1/DTD/svg11.dtd">
<!-- Generated by graphviz version 12.2.1 (20241206.2353)
 -->
<!-- Title: tdms/include/argument_parser.h Pages: 1 -->
<svg width="160pt" height="149pt"
 viewBox="0.00 0.00 160.00 149.00" xmlns="http://www.w3.org/2000/svg" xmlns:xlink="http://www.w3.org/1999/xlink">
<g id="graph0" class="graph" transform="scale(1 1) rotate(0) translate(4 145)">
<title>tdms/include/argument_parser.h</title>
<!-- Node1 -->
<g id="Node000001" class="node">
<title>Node1</title>
<g id="a_Node000001"><a xlink:title="Parse the command line options.">
<polygon fill="#999999" stroke="#666666" points="115,-141 0,-141 0,-110.5 115,-110.5 115,-141"/>
<text text-anchor="start" x="8" y="-127.5" font-family="Helvetica,sans-Serif" font-size="10.00">tdms/include/argument</text>
<text text-anchor="middle" x="57.5" y="-116.25" font-family="Helvetica,sans-Serif" font-size="10.00">_parser.h</text>
</a>
</g>
</g>
<!-- Node2 -->
<g id="Node000002" class="node">
<title>Node2</title>
<g id="a_Node000002"><a xlink:title=" ">
<polygon fill="#e0e0e0" stroke="#999999" points="54.5,-19.25 14.5,-19.25 14.5,0 54.5,0 54.5,-19.25"/>
<text text-anchor="middle" x="34.5" y="-5.75" font-family="Helvetica,sans-Serif" font-size="10.00">string</text>
</a>
</g>
</g>
<!-- Node1&#45;&gt;Node2 -->
<g id="edge1_Node000001_Node000002" class="edge">
<title>Node1&#45;&gt;Node2</title>
<g id="a_edge1_Node000001_Node000002"><a xlink:title=" ">
<path fill="none" stroke="#63b8ff" d="M45.64,-110.39C38.57,-100.86 30.25,-87.71 26.5,-74.5 22.39,-60 24.83,-43.04 28.06,-30.25"/>
<polygon fill="#63b8ff" stroke="#63b8ff" points="31.34,-31.5 30.79,-20.92 24.62,-29.54 31.34,-31.5"/>
</a>
</g>
</g>
<!-- Node3 -->
<g id="Node000003" class="node">
<title>Node3</title>
<g id="a_Node000003"><a xlink:title=" ">
<polygon fill="#e0e0e0" stroke="#999999" points="79,-74.5 36,-74.5 36,-55.25 79,-55.25 79,-74.5"/>
<text text-anchor="middle" x="57.5" y="-61" font-family="Helvetica,sans-Serif" font-size="10.00">vector</text>
</a>
</g>
</g>
<!-- Node1&#45;&gt;Node3 -->
<g id="edge2_Node000001_Node000003" class="edge">
<title>Node1&#45;&gt;Node3</title>
<g id="a_edge2_Node000001_Node000003"><a xlink:title=" ">
<path fill="none" stroke="#63b8ff" d="M57.5,-110.2C57.5,-102.96 57.5,-94.09 57.5,-86.19"/>
<polygon fill="#63b8ff" stroke="#63b8ff" points="61,-86.46 57.5,-76.46 54,-86.46 61,-86.46"/>
</a>
</g>
</g>
<!-- Node4 -->
<g id="Node000004" class="node">
<title>Node4</title>
<g id="a_Node000004"><a xlink:href="globals_8h.html" target="_top" xlink:title="Type definitions and global constants.">
<polygon fill="white" stroke="#666666" points="152,-74.5 97,-74.5 97,-55.25 152,-55.25 152,-74.5"/>
<text text-anchor="middle" x="124.5" y="-61" font-family="Helvetica,sans-Serif" font-size="10.00">globals.h</text>
</a>
</g>
</g>
<!-- Node1&#45;&gt;Node4 -->
<g id="edge3_Node000001_Node000004" class="edge">
<title>Node1&#45;&gt;Node4</title>
<g id="a_edge3_Node000001_Node000004"><a xlink:title=" ">
<path fill="none" stroke="#63b8ff" d="M74.06,-110.2C83.67,-101.75 95.81,-91.08 105.77,-82.33"/>
<polygon fill="#63b8ff" stroke="#63b8ff" points="107.83,-85.18 113.03,-75.95 103.21,-79.92 107.83,-85.18"/>
</a>
</g>
</g>
<!-- Node4&#45;&gt;Node2 -->
<g id="edge5_Node000004_Node000002" class="edge">
<title>Node4&#45;&gt;Node2</title>
<g id="a_edge5_Node000004_Node000002"><a xlink:title=" ">
<path fill="none" stroke="#63b8ff" d="M109.23,-54.84C95.66,-46.81 75.55,-34.91 59.6,-25.48"/>
<polygon fill="#63b8ff" stroke="#63b8ff" points="61.53,-22.55 51.14,-20.47 57.97,-28.58 61.53,-22.55"/>
</a>
</g>
</g>
<!-- Node5 -->
<g id="Node000005" class="node">
<title>Node5</title>
<g id="a_Node000005"><a xlink:title=" ">
<polygon fill="#e0e0e0" stroke="#999999" points="150.88,-19.25 98.12,-19.25 98.12,0 150.88,0 150.88,-19.25"/>
<text text-anchor="middle" x="124.5" y="-5.75" font-family="Helvetica,sans-Serif" font-size="10.00">complex</text>
</a>
</g>
</g>
<!-- Node4&#45;&gt;Node5 -->
<g id="edge4_Node000004_Node000005" class="edge">
<title>Node4&#45;&gt;Node5</title>
<g id="a_edge4_Node000004_Node000005"><a xlink:title=" ">
<path fill="none" stroke="#63b8ff" d="M124.5,-55.08C124.5,-48.57 124.5,-39.42 124.5,-31.12"/>
<polygon fill="#63b8ff" stroke="#63b8ff" points="128,-31.12 124.5,-21.12 121,-31.12 128,-31.12"/>
</a>
</g>
</g>
</g>
</svg>
