<?xml version="1.0" encoding="UTF-8" standalone="no"?>
<!DOCTYPE svg PUBLIC "-//W3C//DTD SVG 1.1//EN"
 "http://www.w3.org/Graphics/SVG/1.1/DTD/svg11.dtd">
<!-- Generated by graphviz version 8.0.2 (20230410.1723)
 -->
<!-- Title: tdms/include/argument_parser.h Pages: 1 -->
<svg width="238pt" height="104pt"
 viewBox="0.00 0.00 237.50 104.00" xmlns="http://www.w3.org/2000/svg" xmlns:xlink="http://www.w3.org/1999/xlink">
<g id="graph0" class="graph" transform="scale(1 1) rotate(0) translate(4 100)">
<title>tdms/include/argument_parser.h</title>
<!-- Node1 -->
<g id="node1" class="node">
<title>Node1</title>
<g id="a_node1"><a xlink:title="Parse the command line options.">
<polygon fill="#999999" stroke="#666666" points="169,-96 53,-96 53,-66 169,-66 169,-96"/>
<text text-anchor="start" x="61" y="-84" font-family="Helvetica,sans-Serif" font-size="10.00">tdms/include/argument</text>
<text text-anchor="middle" x="111" y="-73" font-family="Helvetica,sans-Serif" font-size="10.00">_parser.h</text>
</a>
</g>
</g>
<!-- Node2 -->
<g id="node2" class="node">
<title>Node2</title>
<g id="a_node2"><a xlink:href="main_8cpp.html" target="_top" xlink:title="The main function. Launches TDMS.">
<polygon fill="white" stroke="#666666" points="98,-24.5 0,-24.5 0,-5.5 98,-5.5 98,-24.5"/>
<text text-anchor="middle" x="49" y="-12.5" font-family="Helvetica,sans-Serif" font-size="10.00">tdms/src/main.cpp</text>
</a>
</g>
</g>
<!-- Node1&#45;&gt;Node2 -->
<g id="edge1" class="edge">
<title>Node1&#45;&gt;Node2</title>
<path fill="none" stroke="#63b8ff" d="M89.63,-57.94C78.62,-46.58 65.82,-33.36 57.57,-24.84"/>
<polygon fill="#63b8ff" stroke="#63b8ff" points="86.77,-60.05 96.24,-64.8 91.8,-55.18 86.77,-60.05"/>
</g>
<!-- Node3 -->
<g id="node3" class="node">
<title>Node3</title>
<g id="a_node3"><a xlink:href="test__argument__parser_8cpp.html" target="_top" xlink:title="Tests of the argument parsing and file I/O.">
<polygon fill="white" stroke="#666666" points="229.5,-30 116.5,-30 116.5,0 229.5,0 229.5,-30"/>
<text text-anchor="start" x="124.5" y="-18" font-family="Helvetica,sans-Serif" font-size="10.00">tdms/tests/unit/test</text>
<text text-anchor="middle" x="173" y="-7" font-family="Helvetica,sans-Serif" font-size="10.00">_argument_parser.cpp</text>
</a>
</g>
</g>
<!-- Node1&#45;&gt;Node3 -->
<g id="edge2" class="edge">
<title>Node1&#45;&gt;Node3</title>
<path fill="none" stroke="#63b8ff" d="M132.23,-58.09C141.18,-48.85 151.34,-38.36 159.28,-30.16"/>
<polygon fill="#63b8ff" stroke="#63b8ff" points="130.2,-55.18 125.76,-64.8 135.23,-60.05 130.2,-55.18"/>
</g>
</g>
</svg>
