<?xml version="1.0" encoding="UTF-8" standalone="no"?>
<!DOCTYPE svg PUBLIC "-//W3C//DTD SVG 1.1//EN"
 "http://www.w3.org/Graphics/SVG/1.1/DTD/svg11.dtd">
<!-- Generated by graphviz version 8.0.5 (20230430.1635)
 -->
<!-- Title: tdms/include/argument_parser.h Pages: 1 -->
<svg width="160pt" height="149pt"
 viewBox="0.00 0.00 160.00 149.00" xmlns="http://www.w3.org/2000/svg" xmlns:xlink="http://www.w3.org/1999/xlink">
<g id="graph0" class="graph" transform="scale(1 1) rotate(0) translate(4 145)">
<title>tdms/include/argument_parser.h</title>
<!-- Node1 -->
<g id="node1" class="node">
<title>Node1</title>
<g id="a_node1"><a xlink:title="Parse the command line options.">
<polygon fill="#999999" stroke="#666666" points="115,-141 0,-141 0,-110.5 115,-110.5 115,-141"/>
<text text-anchor="start" x="8" y="-127.5" font-family="Helvetica,sans-Serif" font-size="10.00">tdms/include/argument</text>
<text text-anchor="middle" x="57.5" y="-116.25" font-family="Helvetica,sans-Serif" font-size="10.00">_parser.h</text>
</a>
</g>
</g>
<!-- Node2 -->
<g id="node2" class="node">
<title>Node2</title>
<g id="a_node2"><a xlink:title=" ">
<polygon fill="#e0e0e0" stroke="#999999" points="54.5,-19.25 14.5,-19.25 14.5,0 54.5,0 54.5,-19.25"/>
<text text-anchor="middle" x="34.5" y="-5.75" font-family="Helvetica,sans-Serif" font-size="10.00">string</text>
</a>
</g>
</g>
<!-- Node1&#45;&gt;Node2 -->
<g id="edge1" class="edge">
<title>Node1&#45;&gt;Node2</title>
<path fill="none" stroke="#63b8ff" d="M45.64,-110.39C38.57,-100.86 30.25,-87.71 26.5,-74.5 22.34,-59.85 24.88,-42.69 28.16,-29.85"/>
<polygon fill="#63b8ff" stroke="#63b8ff" points="31.75,-31.05 31.21,-20.47 25.03,-29.08 31.75,-31.05"/>
</g>
<!-- Node3 -->
<g id="node3" class="node">
<title>Node3</title>
<g id="a_node3"><a xlink:title=" ">
<polygon fill="#e0e0e0" stroke="#999999" points="79,-74.5 36,-74.5 36,-55.25 79,-55.25 79,-74.5"/>
<text text-anchor="middle" x="57.5" y="-61" font-family="Helvetica,sans-Serif" font-size="10.00">vector</text>
</a>
</g>
</g>
<!-- Node1&#45;&gt;Node3 -->
<g id="edge2" class="edge">
<title>Node1&#45;&gt;Node3</title>
<path fill="none" stroke="#63b8ff" d="M57.5,-110.2C57.5,-102.87 57.5,-93.87 57.5,-85.91"/>
<polygon fill="#63b8ff" stroke="#63b8ff" points="61,-85.95 57.5,-75.95 54,-85.95 61,-85.95"/>
</g>
<!-- Node4 -->
<g id="node4" class="node">
<title>Node4</title>
<g id="a_node4"><a xlink:href="globals_8h.html" target="_top" xlink:title="Type definitions and global constants.">
<polygon fill="white" stroke="#666666" points="152,-74.5 97,-74.5 97,-55.25 152,-55.25 152,-74.5"/>
<text text-anchor="middle" x="124.5" y="-61" font-family="Helvetica,sans-Serif" font-size="10.00">globals.h</text>
</a>
</g>
</g>
<!-- Node1&#45;&gt;Node4 -->
<g id="edge3" class="edge">
<title>Node1&#45;&gt;Node4</title>
<path fill="none" stroke="#63b8ff" d="M74.06,-110.2C83.77,-101.66 96.06,-90.87 106.08,-82.06"/>
<polygon fill="#63b8ff" stroke="#63b8ff" points="107.97,-84.18 113.17,-74.95 103.35,-78.92 107.97,-84.18"/>
</g>
<!-- Node4&#45;&gt;Node2 -->
<g id="edge5" class="edge">
<title>Node4&#45;&gt;Node2</title>
<path fill="none" stroke="#63b8ff" d="M109.23,-54.84C95.53,-46.73 75.16,-34.68 59.15,-25.21"/>
<polygon fill="#63b8ff" stroke="#63b8ff" points="61.23,-21.78 50.84,-19.7 57.67,-27.81 61.23,-21.78"/>
</g>
<!-- Node5 -->
<g id="node5" class="node">
<title>Node5</title>
<g id="a_node5"><a xlink:title=" ">
<polygon fill="#e0e0e0" stroke="#999999" points="150.88,-19.25 98.12,-19.25 98.12,0 150.88,0 150.88,-19.25"/>
<text text-anchor="middle" x="124.5" y="-5.75" font-family="Helvetica,sans-Serif" font-size="10.00">complex</text>
</a>
</g>
</g>
<!-- Node4&#45;&gt;Node5 -->
<g id="edge4" class="edge">
<title>Node4&#45;&gt;Node5</title>
<path fill="none" stroke="#63b8ff" d="M124.5,-55.08C124.5,-48.42 124.5,-38.99 124.5,-30.53"/>
<polygon fill="#63b8ff" stroke="#63b8ff" points="128,-30.61 124.5,-20.61 121,-30.61 128,-30.61"/>
</g>
</g>
</svg>
