<?xml version="1.0" encoding="UTF-8" standalone="no"?>
<!DOCTYPE svg PUBLIC "-//W3C//DTD SVG 1.1//EN"
 "http://www.w3.org/Graphics/SVG/1.1/DTD/svg11.dtd">
<!-- Generated by graphviz version 8.0.5 (20230430.1635)
 -->
<!-- Title: tdms/include/argument_parser.h Pages: 1 -->
<svg width="236pt" height="105pt"
 viewBox="0.00 0.00 235.50 105.00" xmlns="http://www.w3.org/2000/svg" xmlns:xlink="http://www.w3.org/1999/xlink">
<g id="graph0" class="graph" transform="scale(1 1) rotate(0) translate(4 101)">
<title>tdms/include/argument_parser.h</title>
<!-- Node1 -->
<g id="node1" class="node">
<title>Node1</title>
<g id="a_node1"><a xlink:title="Parse the command line options.">
<polygon fill="#999999" stroke="#666666" points="167,-97 52,-97 52,-66.5 167,-66.5 167,-97"/>
<text text-anchor="start" x="60" y="-83.5" font-family="Helvetica,sans-Serif" font-size="10.00">tdms/include/argument</text>
<text text-anchor="middle" x="109.5" y="-72.25" font-family="Helvetica,sans-Serif" font-size="10.00">_parser.h</text>
</a>
</g>
</g>
<!-- Node2 -->
<g id="node2" class="node">
<title>Node2</title>
<g id="a_node2"><a xlink:href="main_8cpp.html" target="_top" xlink:title="The main function. Launches TDMS.">
<polygon fill="white" stroke="#666666" points="97,-24.88 0,-24.88 0,-5.63 97,-5.63 97,-24.88"/>
<text text-anchor="middle" x="48.5" y="-11.38" font-family="Helvetica,sans-Serif" font-size="10.00">tdms/src/main.cpp</text>
</a>
</g>
</g>
<!-- Node1&#45;&gt;Node2 -->
<g id="edge1" class="edge">
<title>Node1&#45;&gt;Node2</title>
<path fill="none" stroke="#63b8ff" d="M88.18,-58.21C77.38,-46.78 64.88,-33.57 56.84,-25.07"/>
<polygon fill="#63b8ff" stroke="#63b8ff" points="85.24,-60.25 94.66,-65.11 90.33,-55.44 85.24,-60.25"/>
</g>
<!-- Node3 -->
<g id="node3" class="node">
<title>Node3</title>
<g id="a_node3"><a xlink:href="test__argument__parser_8cpp.html" target="_top" xlink:title="Tests of the argument parsing and file I/O.">
<polygon fill="white" stroke="#666666" points="227.5,-30.5 115.5,-30.5 115.5,0 227.5,0 227.5,-30.5"/>
<text text-anchor="start" x="123.5" y="-17" font-family="Helvetica,sans-Serif" font-size="10.00">tdms/tests/unit/test</text>
<text text-anchor="middle" x="171.5" y="-5.75" font-family="Helvetica,sans-Serif" font-size="10.00">_argument_parser.cpp</text>
</a>
</g>
</g>
<!-- Node1&#45;&gt;Node3 -->
<g id="edge2" class="edge">
<title>Node1&#45;&gt;Node3</title>
<path fill="none" stroke="#63b8ff" d="M131.19,-58.19C139.92,-49.11 149.73,-38.9 157.49,-30.83"/>
<polygon fill="#63b8ff" stroke="#63b8ff" points="128.98,-55.48 124.57,-65.11 134.02,-60.33 128.98,-55.48"/>
</g>
</g>
</svg>
