<?xml version="1.0" encoding="UTF-8" standalone="no"?>
<!DOCTYPE svg PUBLIC "-//W3C//DTD SVG 1.1//EN"
 "http://www.w3.org/Graphics/SVG/1.1/DTD/svg11.dtd">
<!-- Generated by graphviz version 12.2.1 (20241206.2353)
 -->
<!-- Title: tdms/include/argument_parser.h Pages: 1 -->
<svg width="236pt" height="105pt"
 viewBox="0.00 0.00 235.50 105.00" xmlns="http://www.w3.org/2000/svg" xmlns:xlink="http://www.w3.org/1999/xlink">
<g id="graph0" class="graph" transform="scale(1 1) rotate(0) translate(4 101)">
<title>tdms/include/argument_parser.h</title>
<!-- Node1 -->
<g id="Node000001" class="node">
<title>Node1</title>
<g id="a_Node000001"><a xlink:title="Parse the command line options.">
<polygon fill="#999999" stroke="#666666" points="167,-97 52,-97 52,-66.5 167,-66.5 167,-97"/>
<text text-anchor="start" x="60" y="-83.5" font-family="Helvetica,sans-Serif" font-size="10.00">tdms/include/argument</text>
<text text-anchor="middle" x="109.5" y="-72.25" font-family="Helvetica,sans-Serif" font-size="10.00">_parser.h</text>
</a>
</g>
</g>
<!-- Node2 -->
<g id="Node000002" class="node">
<title>Node2</title>
<g id="a_Node000002"><a xlink:href="main_8cpp.html" target="_top" xlink:title="The main function. Launches TDMS.">
<polygon fill="white" stroke="#666666" points="97,-24.88 0,-24.88 0,-5.63 97,-5.63 97,-24.88"/>
<text text-anchor="middle" x="48.5" y="-11.38" font-family="Helvetica,sans-Serif" font-size="10.00">tdms/src/main.cpp</text>
</a>
</g>
</g>
<!-- Node1&#45;&gt;Node2 -->
<g id="edge1_Node000001_Node000002" class="edge">
<title>Node1&#45;&gt;Node2</title>
<g id="a_edge1_Node000001_Node000002"><a xlink:title=" ">
<path fill="none" stroke="#63b8ff" d="M87.86,-57.87C77.14,-46.53 64.8,-33.49 56.84,-25.07"/>
<polygon fill="#63b8ff" stroke="#63b8ff" points="85.2,-60.15 94.62,-65.01 90.29,-55.34 85.2,-60.15"/>
</a>
</g>
</g>
<!-- Node3 -->
<g id="Node000003" class="node">
<title>Node3</title>
<g id="a_Node000003"><a xlink:href="test__argument__parser_8cpp.html" target="_top" xlink:title="Tests of the argument parsing and file I/O.">
<polygon fill="white" stroke="#666666" points="227.5,-30.5 115.5,-30.5 115.5,0 227.5,0 227.5,-30.5"/>
<text text-anchor="start" x="123.5" y="-17" font-family="Helvetica,sans-Serif" font-size="10.00">tdms/tests/unit/test</text>
<text text-anchor="middle" x="171.5" y="-5.75" font-family="Helvetica,sans-Serif" font-size="10.00">_argument_parser.cpp</text>
</a>
</g>
</g>
<!-- Node1&#45;&gt;Node3 -->
<g id="edge2_Node000001_Node000003" class="edge">
<title>Node1&#45;&gt;Node3</title>
<g id="a_edge2_Node000001_Node000003"><a xlink:title=" ">
<path fill="none" stroke="#63b8ff" d="M131.46,-57.91C140.12,-48.9 149.81,-38.82 157.49,-30.83"/>
<polygon fill="#63b8ff" stroke="#63b8ff" points="129.02,-55.39 124.62,-65.02 134.07,-60.24 129.02,-55.39"/>
</a>
</g>
</g>
</g>
</svg>
