<?xml version="1.0" encoding="UTF-8" standalone="no"?>
<!DOCTYPE svg PUBLIC "-//W3C//DTD SVG 1.1//EN"
 "http://www.w3.org/Graphics/SVG/1.1/DTD/svg11.dtd">
<!-- Generated by graphviz version 8.0.2 (20230410.1723)
 -->
<!-- Title: tdms/include/argument_parser.h Pages: 1 -->
<svg width="186pt" height="148pt"
 viewBox="0.00 0.00 185.50 148.00" xmlns="http://www.w3.org/2000/svg" xmlns:xlink="http://www.w3.org/1999/xlink">
<g id="graph0" class="graph" transform="scale(1 1) rotate(0) translate(4 144)">
<title>tdms/include/argument_parser.h</title>
<!-- Node1 -->
<g id="node1" class="node">
<title>Node1</title>
<g id="a_node1"><a xlink:title="Parse the command line options.">
<polygon fill="#999999" stroke="#666666" points="139.5,-140 23.5,-140 23.5,-110 139.5,-110 139.5,-140"/>
<text text-anchor="start" x="31.5" y="-128" font-family="Helvetica,sans-Serif" font-size="10.00">tdms/include/argument</text>
<text text-anchor="middle" x="81.5" y="-117" font-family="Helvetica,sans-Serif" font-size="10.00">_parser.h</text>
</a>
</g>
</g>
<!-- Node2 -->
<g id="node2" class="node">
<title>Node2</title>
<g id="a_node2"><a xlink:title=" ">
<polygon fill="#e0e0e0" stroke="#999999" points="41,-74 0,-74 0,-55 41,-55 41,-74"/>
<text text-anchor="middle" x="20.5" y="-62" font-family="Helvetica,sans-Serif" font-size="10.00">string</text>
</a>
</g>
</g>
<!-- Node1&#45;&gt;Node2 -->
<g id="edge1" class="edge">
<title>Node1&#45;&gt;Node2</title>
<path fill="none" stroke="#63b8ff" d="M66.42,-109.54C57.56,-101.04 46.35,-90.29 37.22,-81.53"/>
<polygon fill="#63b8ff" stroke="#63b8ff" points="40.19,-79.57 30.55,-75.18 35.34,-84.62 40.19,-79.57"/>
</g>
<!-- Node3 -->
<g id="node3" class="node">
<title>Node3</title>
<g id="a_node3"><a xlink:title=" ">
<polygon fill="#e0e0e0" stroke="#999999" points="103.5,-74 59.5,-74 59.5,-55 103.5,-55 103.5,-74"/>
<text text-anchor="middle" x="81.5" y="-62" font-family="Helvetica,sans-Serif" font-size="10.00">vector</text>
</a>
</g>
</g>
<!-- Node1&#45;&gt;Node3 -->
<g id="edge2" class="edge">
<title>Node1&#45;&gt;Node3</title>
<path fill="none" stroke="#63b8ff" d="M81.5,-109.54C81.5,-102.17 81.5,-93.1 81.5,-85.11"/>
<polygon fill="#63b8ff" stroke="#63b8ff" points="85,-85.18 81.5,-75.18 78,-85.18 85,-85.18"/>
</g>
<!-- Node4 -->
<g id="node4" class="node">
<title>Node4</title>
<g id="a_node4"><a xlink:href="globals_8h.html" target="_top" xlink:title="Type definitions and global constants.">
<polygon fill="white" stroke="#666666" points="177.5,-74 121.5,-74 121.5,-55 177.5,-55 177.5,-74"/>
<text text-anchor="middle" x="149.5" y="-62" font-family="Helvetica,sans-Serif" font-size="10.00">globals.h</text>
</a>
</g>
</g>
<!-- Node1&#45;&gt;Node4 -->
<g id="edge3" class="edge">
<title>Node1&#45;&gt;Node4</title>
<path fill="none" stroke="#63b8ff" d="M98.31,-109.54C108.29,-100.96 120.94,-90.07 131.18,-81.26"/>
<polygon fill="#63b8ff" stroke="#63b8ff" points="133.12,-83.35 138.42,-74.18 128.55,-78.04 133.12,-83.35"/>
</g>
<!-- Node5 -->
<g id="node5" class="node">
<title>Node5</title>
<g id="a_node5"><a xlink:title=" ">
<polygon fill="#e0e0e0" stroke="#999999" points="176,-19 123,-19 123,0 176,0 176,-19"/>
<text text-anchor="middle" x="149.5" y="-7" font-family="Helvetica,sans-Serif" font-size="10.00">complex</text>
</a>
</g>
</g>
<!-- Node4&#45;&gt;Node5 -->
<g id="edge4" class="edge">
<title>Node4&#45;&gt;Node5</title>
<path fill="none" stroke="#63b8ff" d="M149.5,-54.75C149.5,-48.11 149.5,-38.73 149.5,-30.31"/>
<polygon fill="#63b8ff" stroke="#63b8ff" points="153,-30.44 149.5,-20.44 146,-30.44 153,-30.44"/>
</g>
</g>
</svg>
