<?xml version="1.0" encoding="UTF-8" standalone="no"?>
<!DOCTYPE svg PUBLIC "-//W3C//DTD SVG 1.1//EN"
 "http://www.w3.org/Graphics/SVG/1.1/DTD/svg11.dtd">
<!-- Generated by graphviz version 8.0.5 (20230430.1635)
 -->
<!-- Title: tdms/include/arrays.h Pages: 1 -->
<svg width="462pt" height="138pt"
 viewBox="0.00 0.00 461.88 137.75" xmlns="http://www.w3.org/2000/svg" xmlns:xlink="http://www.w3.org/1999/xlink">
<g id="graph0" class="graph" transform="scale(1 1) rotate(0) translate(4 133.75)">
<title>tdms/include/arrays.h</title>
<!-- Node1 -->
<g id="node1" class="node">
<title>Node1</title>
<g id="a_node1"><a xlink:title="Classes describing arrays, vertices etc.">
<polygon fill="#999999" stroke="#666666" points="242.25,-129.75 132.5,-129.75 132.5,-110.5 242.25,-110.5 242.25,-129.75"/>
<text text-anchor="middle" x="187.38" y="-116.25" font-family="Helvetica,sans-Serif" font-size="10.00">tdms/include/arrays.h</text>
</a>
</g>
</g>
<!-- Node2 -->
<g id="node2" class="node">
<title>Node2</title>
<g id="a_node2"><a xlink:title=" ">
<polygon fill="#e0e0e0" stroke="#999999" points="52.75,-19.25 0,-19.25 0,0 52.75,0 52.75,-19.25"/>
<text text-anchor="middle" x="26.38" y="-5.75" font-family="Helvetica,sans-Serif" font-size="10.00">complex</text>
</a>
</g>
</g>
<!-- Node1&#45;&gt;Node2 -->
<g id="edge1" class="edge">
<title>Node1&#45;&gt;Node2</title>
<path fill="none" stroke="#63b8ff" d="M132.01,-118.11C97.97,-114.34 56.41,-103.5 32.38,-74.5 22.37,-62.43 21.55,-44.32 22.85,-30.46"/>
<polygon fill="#63b8ff" stroke="#63b8ff" points="26.44,-31.02 24.35,-20.64 19.51,-30.06 26.44,-31.02"/>
</g>
<!-- Node3 -->
<g id="node3" class="node">
<title>Node3</title>
<g id="a_node3"><a xlink:title=" ">
<polygon fill="#e0e0e0" stroke="#999999" points="310.75,-74.5 252,-74.5 252,-55.25 310.75,-55.25 310.75,-74.5"/>
<text text-anchor="middle" x="281.38" y="-61" font-family="Helvetica,sans-Serif" font-size="10.00">stdexcept</text>
</a>
</g>
</g>
<!-- Node1&#45;&gt;Node3 -->
<g id="edge2" class="edge">
<title>Node1&#45;&gt;Node3</title>
<path fill="none" stroke="#63b8ff" d="M203.32,-110.09C217.77,-101.91 239.31,-89.71 256.1,-80.19"/>
<polygon fill="#63b8ff" stroke="#63b8ff" points="257.38,-82.93 264.35,-74.95 253.92,-76.84 257.38,-82.93"/>
</g>
<!-- Node4 -->
<g id="node4" class="node">
<title>Node4</title>
<g id="a_node4"><a xlink:title=" ">
<polygon fill="#e0e0e0" stroke="#999999" points="123.38,-19.25 83.38,-19.25 83.38,0 123.38,0 123.38,-19.25"/>
<text text-anchor="middle" x="103.38" y="-5.75" font-family="Helvetica,sans-Serif" font-size="10.00">string</text>
</a>
</g>
</g>
<!-- Node1&#45;&gt;Node4 -->
<g id="edge3" class="edge">
<title>Node1&#45;&gt;Node4</title>
<path fill="none" stroke="#63b8ff" d="M180.5,-110.25C166.66,-92.36 135.19,-51.72 117.02,-28.25"/>
<polygon fill="#63b8ff" stroke="#63b8ff" points="119.23,-26.39 110.34,-20.63 113.7,-30.68 119.23,-26.39"/>
</g>
<!-- Node5 -->
<g id="node5" class="node">
<title>Node5</title>
<g id="a_node5"><a xlink:title=" ">
<polygon fill="#e0e0e0" stroke="#999999" points="184.88,-19.25 141.88,-19.25 141.88,0 184.88,0 184.88,-19.25"/>
<text text-anchor="middle" x="163.38" y="-5.75" font-family="Helvetica,sans-Serif" font-size="10.00">vector</text>
</a>
</g>
</g>
<!-- Node1&#45;&gt;Node5 -->
<g id="edge4" class="edge">
<title>Node1&#45;&gt;Node5</title>
<path fill="none" stroke="#63b8ff" d="M185.41,-110.25C181.56,-92.84 172.94,-53.87 167.7,-30.16"/>
<polygon fill="#63b8ff" stroke="#63b8ff" points="170.94,-29.63 165.37,-20.63 164.11,-31.15 170.94,-29.63"/>
</g>
<!-- Node6 -->
<g id="node6" class="node">
<title>Node6</title>
<g id="a_node6"><a xlink:title=" ">
<polygon fill="#e0e0e0" stroke="#999999" points="374.38,-74.5 328.38,-74.5 328.38,-55.25 374.38,-55.25 374.38,-74.5"/>
<text text-anchor="middle" x="351.38" y="-61" font-family="Helvetica,sans-Serif" font-size="10.00">fftw3.h</text>
</a>
</g>
</g>
<!-- Node1&#45;&gt;Node6 -->
<g id="edge5" class="edge">
<title>Node1&#45;&gt;Node6</title>
<path fill="none" stroke="#63b8ff" d="M215.2,-110.09C243.56,-100.88 287.59,-86.59 317.86,-76.76"/>
<polygon fill="#63b8ff" stroke="#63b8ff" points="318.51,-79.9 326.94,-73.48 316.35,-73.24 318.51,-79.9"/>
</g>
<!-- Node7 -->
<g id="node7" class="node">
<title>Node7</title>
<g id="a_node7"><a xlink:href="globals_8h.html" target="_top" xlink:title="Type definitions and global constants.">
<polygon fill="white" stroke="#666666" points="96.88,-74.5 41.88,-74.5 41.88,-55.25 96.88,-55.25 96.88,-74.5"/>
<text text-anchor="middle" x="69.38" y="-61" font-family="Helvetica,sans-Serif" font-size="10.00">globals.h</text>
</a>
</g>
</g>
<!-- Node1&#45;&gt;Node7 -->
<g id="edge6" class="edge">
<title>Node1&#45;&gt;Node7</title>
<path fill="none" stroke="#63b8ff" d="M167.36,-110.09C148.71,-101.68 120.66,-89.02 99.34,-79.4"/>
<polygon fill="#63b8ff" stroke="#63b8ff" points="101.04,-75.88 90.49,-74.95 98.17,-82.26 101.04,-75.88"/>
</g>
<!-- Node8 -->
<g id="node8" class="node">
<title>Node8</title>
<g id="a_node8"><a xlink:title=" ">
<polygon fill="#e0e0e0" stroke="#999999" points="453.88,-74.5 392.88,-74.5 392.88,-55.25 453.88,-55.25 453.88,-74.5"/>
<text text-anchor="middle" x="423.38" y="-61" font-family="Helvetica,sans-Serif" font-size="10.00">matlabio.h</text>
</a>
</g>
</g>
<!-- Node1&#45;&gt;Node8 -->
<g id="edge9" class="edge">
<title>Node1&#45;&gt;Node8</title>
<path fill="none" stroke="#63b8ff" d="M227.68,-110.03C270.76,-100.31 338.72,-84.98 382.16,-75.18"/>
<polygon fill="#63b8ff" stroke="#63b8ff" points="382.66,-78.43 391.64,-72.81 381.11,-71.6 382.66,-78.43"/>
</g>
<!-- Node9 -->
<g id="node9" class="node">
<title>Node9</title>
<g id="a_node9"><a xlink:href="utils_8h.html" target="_top" xlink:title="Useful miscellaneous utility functions.">
<polygon fill="white" stroke="#666666" points="233.5,-74.5 191.25,-74.5 191.25,-55.25 233.5,-55.25 233.5,-74.5"/>
<text text-anchor="middle" x="212.38" y="-61" font-family="Helvetica,sans-Serif" font-size="10.00">utils.h</text>
</a>
</g>
</g>
<!-- Node1&#45;&gt;Node9 -->
<g id="edge10" class="edge">
<title>Node1&#45;&gt;Node9</title>
<path fill="none" stroke="#63b8ff" d="M191.5,-110.33C194.78,-103.36 199.47,-93.37 203.57,-84.62"/>
<polygon fill="#63b8ff" stroke="#63b8ff" points="207.08,-86.4 208.16,-75.86 200.74,-83.42 207.08,-86.4"/>
</g>
<!-- Node7&#45;&gt;Node2 -->
<g id="edge7" class="edge">
<title>Node7&#45;&gt;Node2</title>
<path fill="none" stroke="#63b8ff" d="M62.27,-55.08C56.33,-47.73 47.68,-37.01 40.36,-27.94"/>
<polygon fill="#63b8ff" stroke="#63b8ff" points="42.64,-26.19 33.63,-20.61 37.19,-30.59 42.64,-26.19"/>
</g>
<!-- Node7&#45;&gt;Node4 -->
<g id="edge8" class="edge">
<title>Node7&#45;&gt;Node4</title>
<path fill="none" stroke="#63b8ff" d="M74.99,-55.08C79.54,-47.96 86.1,-37.68 91.77,-28.8"/>
<polygon fill="#63b8ff" stroke="#63b8ff" points="95.21,-30.92 97.64,-20.61 89.31,-27.15 95.21,-30.92"/>
</g>
<!-- Node9&#45;&gt;Node4 -->
<g id="edge13" class="edge">
<title>Node9&#45;&gt;Node4</title>
<path fill="none" stroke="#63b8ff" d="M193.88,-54.84C176.82,-46.5 151.22,-34 131.6,-24.41"/>
<polygon fill="#63b8ff" stroke="#63b8ff" points="133.48,-20.95 122.96,-19.7 130.4,-27.24 133.48,-20.95"/>
</g>
<!-- Node9&#45;&gt;Node5 -->
<g id="edge14" class="edge">
<title>Node9&#45;&gt;Node5</title>
<path fill="none" stroke="#63b8ff" d="M204.28,-55.08C197.44,-47.65 187.45,-36.79 179.05,-27.66"/>
<polygon fill="#63b8ff" stroke="#63b8ff" points="181.99,-25.6 172.64,-20.61 176.84,-30.34 181.99,-25.6"/>
</g>
<!-- Node10 -->
<g id="node10" class="node">
<title>Node10</title>
<g id="a_node10"><a xlink:title=" ">
<polygon fill="#e0e0e0" stroke="#999999" points="323.25,-19.25 267.5,-19.25 267.5,0 323.25,0 323.25,-19.25"/>
<text text-anchor="middle" x="295.38" y="-5.75" font-family="Helvetica,sans-Serif" font-size="10.00">algorithm</text>
</a>
</g>
</g>
<!-- Node9&#45;&gt;Node10 -->
<g id="edge11" class="edge">
<title>Node9&#45;&gt;Node10</title>
<path fill="none" stroke="#63b8ff" d="M226.45,-54.84C238.97,-46.81 257.52,-34.91 272.22,-25.48"/>
<polygon fill="#63b8ff" stroke="#63b8ff" points="273.7,-28.05 280.23,-19.7 269.92,-22.16 273.7,-28.05"/>
</g>
<!-- Node11 -->
<g id="node11" class="node">
<title>Node11</title>
<g id="a_node11"><a xlink:title=" ">
<polygon fill="#e0e0e0" stroke="#999999" points="249.38,-19.25 203.38,-19.25 203.38,0 249.38,0 249.38,-19.25"/>
<text text-anchor="middle" x="226.38" y="-5.75" font-family="Helvetica,sans-Serif" font-size="10.00">iterator</text>
</a>
</g>
</g>
<!-- Node9&#45;&gt;Node11 -->
<g id="edge12" class="edge">
<title>Node9&#45;&gt;Node11</title>
<path fill="none" stroke="#63b8ff" d="M214.69,-55.08C216.46,-48.34 218.97,-38.77 221.22,-30.24"/>
<polygon fill="#63b8ff" stroke="#63b8ff" points="224.86,-31.17 224.01,-20.61 218.09,-29.39 224.86,-31.17"/>
</g>
</g>
</svg>
