<?xml version="1.0" encoding="UTF-8" standalone="no"?>
<!DOCTYPE svg PUBLIC "-//W3C//DTD SVG 1.1//EN"
 "http://www.w3.org/Graphics/SVG/1.1/DTD/svg11.dtd">
<!-- Generated by graphviz version 8.0.5 (20230430.1635)
 -->
<!-- Title: tdms/include/array_init.h Pages: 1 -->
<svg width="1353pt" height="370pt"
 viewBox="0.00 0.00 1352.88 370.00" xmlns="http://www.w3.org/2000/svg" xmlns:xlink="http://www.w3.org/1999/xlink">
<g id="graph0" class="graph" transform="scale(1 1) rotate(0) translate(4 366)">
<title>tdms/include/array_init.h</title>
<!-- Node1 -->
<g id="node1" class="node">
<title>Node1</title>
<g id="a_node1"><a xlink:title="A collection of functions for array initialisation given MATLAB pointers.">
<polygon fill="#999999" stroke="#666666" points="1231,-362 1134.75,-362 1134.75,-331.5 1231,-331.5 1231,-362"/>
<text text-anchor="start" x="1142.75" y="-348.5" font-family="Helvetica,sans-Serif" font-size="10.00">tdms/include/array</text>
<text text-anchor="middle" x="1182.88" y="-337.25" font-family="Helvetica,sans-Serif" font-size="10.00">_init.h</text>
</a>
</g>
</g>
<!-- Node2 -->
<g id="node2" class="node">
<title>Node2</title>
<g id="a_node2"><a xlink:href="field_8h.html" target="_top" xlink:title="Classes for the electric and magnetic (split) fields on a grid.">
<polygon fill="white" stroke="#666666" points="1042,-295.5 999.75,-295.5 999.75,-276.25 1042,-276.25 1042,-295.5"/>
<text text-anchor="middle" x="1020.88" y="-282" font-family="Helvetica,sans-Serif" font-size="10.00">field.h</text>
</a>
</g>
</g>
<!-- Node1&#45;&gt;Node2 -->
<g id="edge1" class="edge">
<title>Node1&#45;&gt;Node2</title>
<path fill="none" stroke="#63b8ff" d="M1142.41,-331.05C1114.7,-320.97 1078.45,-307.8 1052.77,-298.47"/>
<polygon fill="#63b8ff" stroke="#63b8ff" points="1054.06,-294.85 1043.47,-294.72 1051.67,-301.43 1054.06,-294.85"/>
</g>
<!-- Node17 -->
<g id="node17" class="node">
<title>Node17</title>
<g id="a_node17"><a xlink:href="mat__io_8h.html" target="_top" xlink:title="Includes MATLAB headers for I/O.">
<polygon fill="white" stroke="#666666" points="1188.62,-74.5 1135.12,-74.5 1135.12,-55.25 1188.62,-55.25 1188.62,-74.5"/>
<text text-anchor="middle" x="1161.88" y="-61" font-family="Helvetica,sans-Serif" font-size="10.00">mat_io.h</text>
</a>
</g>
</g>
<!-- Node1&#45;&gt;Node17 -->
<g id="edge45" class="edge">
<title>Node1&#45;&gt;Node17</title>
<path fill="none" stroke="#63b8ff" d="M1231.48,-333.71C1279.2,-318.64 1344.88,-287.7 1344.88,-231.62 1344.88,-231.62 1344.88,-231.62 1344.88,-174.38 1344.88,-107.48 1253.28,-80.93 1199.69,-71.12"/>
<polygon fill="#63b8ff" stroke="#63b8ff" points="1200.32,-67.51 1189.88,-69.28 1199.14,-74.41 1200.32,-67.51"/>
</g>
<!-- Node3 -->
<g id="node3" class="node">
<title>Node3</title>
<g id="a_node3"><a xlink:title=" ">
<polygon fill="#e0e0e0" stroke="#999999" points="178.25,-74.5 125.5,-74.5 125.5,-55.25 178.25,-55.25 178.25,-74.5"/>
<text text-anchor="middle" x="151.88" y="-61" font-family="Helvetica,sans-Serif" font-size="10.00">complex</text>
</a>
</g>
</g>
<!-- Node2&#45;&gt;Node3 -->
<g id="edge2" class="edge">
<title>Node2&#45;&gt;Node3</title>
<path fill="none" stroke="#63b8ff" d="M999.44,-285.06C925.47,-285.31 674.38,-282.75 472.88,-240.25 326.47,-209.38 244.43,-249.61 154.88,-129.75 145.52,-117.23 145.55,-99.17 147.47,-85.44"/>
<polygon fill="#63b8ff" stroke="#63b8ff" points="151.07,-86.21 149.45,-75.74 144.19,-84.94 151.07,-86.21"/>
</g>
<!-- Node4 -->
<g id="node4" class="node">
<title>Node4</title>
<g id="a_node4"><a xlink:href="arrays_8h.html" target="_top" xlink:title="Classes describing arrays, vertices etc.">
<polygon fill="white" stroke="#666666" points="459.5,-185 408.25,-185 408.25,-165.75 459.5,-165.75 459.5,-185"/>
<text text-anchor="middle" x="433.88" y="-171.5" font-family="Helvetica,sans-Serif" font-size="10.00">arrays.h</text>
</a>
</g>
</g>
<!-- Node2&#45;&gt;Node4 -->
<g id="edge3" class="edge">
<title>Node2&#45;&gt;Node4</title>
<path fill="none" stroke="#63b8ff" d="M999.4,-284.82C913.63,-284.31 595.92,-279.76 504.88,-240.25 481.23,-229.99 460.11,-208.63 447.18,-193.44"/>
<polygon fill="#63b8ff" stroke="#63b8ff" points="449.59,-191.86 440.55,-186.34 444.17,-196.29 449.59,-191.86"/>
</g>
<!-- Node12 -->
<g id="node12" class="node">
<title>Node12</title>
<g id="a_node12"><a xlink:title=" ">
<polygon fill="#e0e0e0" stroke="#999999" points="85.75,-240.25 0,-240.25 0,-221 85.75,-221 85.75,-240.25"/>
<text text-anchor="middle" x="42.88" y="-226.75" font-family="Helvetica,sans-Serif" font-size="10.00">arrays/eh_vec.h</text>
</a>
</g>
</g>
<!-- Node2&#45;&gt;Node12 -->
<g id="edge15" class="edge">
<title>Node2&#45;&gt;Node12</title>
<path fill="none" stroke="#63b8ff" d="M999.4,-284.64C898.13,-283.37 458.29,-275.96 99.88,-240.25 98.89,-240.15 97.91,-240.05 96.91,-239.94"/>
<polygon fill="#63b8ff" stroke="#63b8ff" points="97.42,-236.36 87.08,-238.63 96.59,-243.31 97.42,-236.36"/>
</g>
<!-- Node13 -->
<g id="node13" class="node">
<title>Node13</title>
<g id="a_node13"><a xlink:href="cell__coordinate_8h.html" target="_top" xlink:title="Container for {ijk} or {IJK} grouped variables.">
<polygon fill="white" stroke="#666666" points="1169.62,-185 1080.12,-185 1080.12,-165.75 1169.62,-165.75 1169.62,-185"/>
<text text-anchor="middle" x="1124.88" y="-171.5" font-family="Helvetica,sans-Serif" font-size="10.00">cell_coordinate.h</text>
</a>
</g>
</g>
<!-- Node2&#45;&gt;Node13 -->
<g id="edge16" class="edge">
<title>Node2&#45;&gt;Node13</title>
<path fill="none" stroke="#63b8ff" d="M1029.39,-276C1046.75,-257.88 1086.53,-216.38 1108.87,-193.07"/>
<polygon fill="#63b8ff" stroke="#63b8ff" points="1110.85,-196.02 1115.25,-186.38 1105.8,-191.17 1110.85,-196.02"/>
</g>
<!-- Node16 -->
<g id="node16" class="node">
<title>Node16</title>
<g id="a_node16"><a xlink:href="dimensions_8h.html" target="_top" xlink:title="Defines a class that serves as an explicit converter between MATLAB pointers and array dimensions.">
<polygon fill="white" stroke="#666666" points="1236.75,-240.25 1163,-240.25 1163,-221 1236.75,-221 1236.75,-240.25"/>
<text text-anchor="middle" x="1199.88" y="-226.75" font-family="Helvetica,sans-Serif" font-size="10.00">dimensions.h</text>
</a>
</g>
</g>
<!-- Node2&#45;&gt;Node16 -->
<g id="edge19" class="edge">
<title>Node2&#45;&gt;Node16</title>
<path fill="none" stroke="#63b8ff" d="M1042.47,-278.45C1071.24,-269.89 1122.73,-254.57 1158.97,-243.79"/>
<polygon fill="#63b8ff" stroke="#63b8ff" points="1159.63,-246.95 1168.22,-240.74 1157.64,-240.24 1159.63,-246.95"/>
</g>
<!-- Node2&#45;&gt;Node17 -->
<g id="edge31" class="edge">
<title>Node2&#45;&gt;Node17</title>
<path fill="none" stroke="#63b8ff" d="M1042.14,-283.6C1092.56,-280.14 1217.28,-268.82 1245.88,-240.25 1287.2,-198.96 1299.11,-159.22 1266.88,-110.5 1251.9,-87.87 1222.88,-76.68 1199.13,-71.17"/>
<polygon fill="#63b8ff" stroke="#63b8ff" points="1200.16,-67.6 1189.66,-69.01 1198.75,-74.46 1200.16,-67.6"/>
</g>
<!-- Node21 -->
<g id="node21" class="node">
<title>Node21</title>
<g id="a_node21"><a xlink:href="input__flags_8h.html" target="_top" xlink:title="Organises enumerated constants, names, and classes for handling flag&#45;variables that are passed to TDM...">
<polygon fill="white" stroke="#666666" points="1056.62,-185 985.12,-185 985.12,-165.75 1056.62,-165.75 1056.62,-185"/>
<text text-anchor="middle" x="1020.88" y="-171.5" font-family="Helvetica,sans-Serif" font-size="10.00">input_flags.h</text>
</a>
</g>
</g>
<!-- Node2&#45;&gt;Node21 -->
<g id="edge24" class="edge">
<title>Node2&#45;&gt;Node21</title>
<path fill="none" stroke="#63b8ff" d="M1020.88,-276C1020.88,-258.67 1020.88,-219.98 1020.88,-196.24"/>
<polygon fill="#63b8ff" stroke="#63b8ff" points="1024.38,-196.38 1020.88,-186.38 1017.38,-196.38 1024.38,-196.38"/>
</g>
<!-- Node22 -->
<g id="node22" class="node">
<title>Node22</title>
<g id="a_node22"><a xlink:href="simulation__parameters_8h.html" target="_top" xlink:title="Classes collecting parameters for the simulation.">
<polygon fill="white" stroke="#666666" points="636.12,-240.25 513.62,-240.25 513.62,-221 636.12,-221 636.12,-240.25"/>
<text text-anchor="middle" x="574.88" y="-226.75" font-family="Helvetica,sans-Serif" font-size="10.00">simulation_parameters.h</text>
</a>
</g>
</g>
<!-- Node2&#45;&gt;Node22 -->
<g id="edge32" class="edge">
<title>Node2&#45;&gt;Node22</title>
<path fill="none" stroke="#63b8ff" d="M999.36,-282.31C936.51,-274.8 751.06,-252.66 647.28,-240.27"/>
<polygon fill="#63b8ff" stroke="#63b8ff" points="647.93,-236.7 637.58,-238.99 647.1,-243.65 647.93,-236.7"/>
</g>
<!-- Node4&#45;&gt;Node3 -->
<g id="edge4" class="edge">
<title>Node4&#45;&gt;Node3</title>
<path fill="none" stroke="#63b8ff" d="M407.94,-173.38C348.69,-170.57 205.8,-160.69 170.88,-129.75 158.43,-118.72 153.97,-99.94 152.45,-85.59"/>
<polygon fill="#63b8ff" stroke="#63b8ff" points="155.89,-85.6 151.76,-75.84 148.91,-86.05 155.89,-85.6"/>
</g>
<!-- Node5 -->
<g id="node5" class="node">
<title>Node5</title>
<g id="a_node5"><a xlink:title=" ">
<polygon fill="#e0e0e0" stroke="#999999" points="797.25,-129.75 738.5,-129.75 738.5,-110.5 797.25,-110.5 797.25,-129.75"/>
<text text-anchor="middle" x="767.88" y="-116.25" font-family="Helvetica,sans-Serif" font-size="10.00">stdexcept</text>
</a>
</g>
</g>
<!-- Node4&#45;&gt;Node5 -->
<g id="edge5" class="edge">
<title>Node4&#45;&gt;Node5</title>
<path fill="none" stroke="#63b8ff" d="M459.63,-170.83C510.46,-163.74 627.23,-147.02 724.88,-129.75 725.83,-129.58 726.79,-129.41 727.76,-129.23"/>
<polygon fill="#63b8ff" stroke="#63b8ff" points="728.12,-132.54 737.3,-127.24 726.82,-125.66 728.12,-132.54"/>
</g>
<!-- Node6 -->
<g id="node6" class="node">
<title>Node6</title>
<g id="a_node6"><a xlink:title=" ">
<polygon fill="#e0e0e0" stroke="#999999" points="543.88,-74.5 503.88,-74.5 503.88,-55.25 543.88,-55.25 543.88,-74.5"/>
<text text-anchor="middle" x="523.88" y="-61" font-family="Helvetica,sans-Serif" font-size="10.00">string</text>
</a>
</g>
</g>
<!-- Node4&#45;&gt;Node6 -->
<g id="edge6" class="edge">
<title>Node4&#45;&gt;Node6</title>
<path fill="none" stroke="#63b8ff" d="M441.24,-165.5C456.14,-147.53 490.09,-106.61 509.52,-83.19"/>
<polygon fill="#63b8ff" stroke="#63b8ff" points="512.72,-85.81 516.41,-75.88 507.33,-81.34 512.72,-85.81"/>
</g>
<!-- Node7 -->
<g id="node7" class="node">
<title>Node7</title>
<g id="a_node7"><a xlink:title=" ">
<polygon fill="#e0e0e0" stroke="#999999" points="827.38,-74.5 784.38,-74.5 784.38,-55.25 827.38,-55.25 827.38,-74.5"/>
<text text-anchor="middle" x="805.88" y="-61" font-family="Helvetica,sans-Serif" font-size="10.00">vector</text>
</a>
</g>
</g>
<!-- Node4&#45;&gt;Node7 -->
<g id="edge7" class="edge">
<title>Node4&#45;&gt;Node7</title>
<path fill="none" stroke="#63b8ff" d="M459.87,-172.79C507.25,-169.28 610.27,-158.71 691.88,-129.75 701.18,-126.45 750.58,-98.08 781.22,-80.27"/>
<polygon fill="#63b8ff" stroke="#63b8ff" points="782.55,-82.97 789.44,-74.91 779.03,-76.92 782.55,-82.97"/>
</g>
<!-- Node8 -->
<g id="node8" class="node">
<title>Node8</title>
<g id="a_node8"><a xlink:title=" ">
<polygon fill="#e0e0e0" stroke="#999999" points="225.88,-129.75 179.88,-129.75 179.88,-110.5 225.88,-110.5 225.88,-129.75"/>
<text text-anchor="middle" x="202.88" y="-116.25" font-family="Helvetica,sans-Serif" font-size="10.00">fftw3.h</text>
</a>
</g>
</g>
<!-- Node4&#45;&gt;Node8 -->
<g id="edge8" class="edge">
<title>Node4&#45;&gt;Node8</title>
<path fill="none" stroke="#63b8ff" d="M408.03,-168.95C371.85,-161.27 303.82,-146.55 236.6,-130.1"/>
<polygon fill="#63b8ff" stroke="#63b8ff" points="237.81,-126.55 227.26,-127.55 236.14,-133.34 237.81,-126.55"/>
</g>
<!-- Node9 -->
<g id="node9" class="node">
<title>Node9</title>
<g id="a_node9"><a xlink:href="globals_8h.html" target="_top" xlink:title="Type definitions and global constants.">
<polygon fill="white" stroke="#666666" points="299.38,-129.75 244.38,-129.75 244.38,-110.5 299.38,-110.5 299.38,-129.75"/>
<text text-anchor="middle" x="271.88" y="-116.25" font-family="Helvetica,sans-Serif" font-size="10.00">globals.h</text>
</a>
</g>
</g>
<!-- Node4&#45;&gt;Node9 -->
<g id="edge9" class="edge">
<title>Node4&#45;&gt;Node9</title>
<path fill="none" stroke="#63b8ff" d="M407.85,-165.82C381.28,-157.09 339.79,-143.45 309.62,-133.53"/>
<polygon fill="#63b8ff" stroke="#63b8ff" points="311.06,-129.99 300.47,-130.19 308.87,-136.64 311.06,-129.99"/>
</g>
<!-- Node10 -->
<g id="node10" class="node">
<title>Node10</title>
<g id="a_node10"><a xlink:title=" ">
<polygon fill="#e0e0e0" stroke="#999999" points="378.38,-129.75 317.38,-129.75 317.38,-110.5 378.38,-110.5 378.38,-129.75"/>
<text text-anchor="middle" x="347.88" y="-116.25" font-family="Helvetica,sans-Serif" font-size="10.00">matlabio.h</text>
</a>
</g>
</g>
<!-- Node4&#45;&gt;Node10 -->
<g id="edge12" class="edge">
<title>Node4&#45;&gt;Node10</title>
<path fill="none" stroke="#63b8ff" d="M419.29,-165.34C406.31,-157.31 387.1,-145.41 371.86,-135.98"/>
<polygon fill="#63b8ff" stroke="#63b8ff" points="373.88,-132.49 363.54,-130.2 370.19,-138.44 373.88,-132.49"/>
</g>
<!-- Node11 -->
<g id="node11" class="node">
<title>Node11</title>
<g id="a_node11"><a xlink:href="utils_8h.html" target="_top" xlink:title="Useful miscellaneous utility functions.">
<polygon fill="white" stroke="#666666" points="439,-129.75 396.75,-129.75 396.75,-110.5 439,-110.5 439,-129.75"/>
<text text-anchor="middle" x="417.88" y="-116.25" font-family="Helvetica,sans-Serif" font-size="10.00">utils.h</text>
</a>
</g>
</g>
<!-- Node4&#45;&gt;Node11 -->
<g id="edge13" class="edge">
<title>Node4&#45;&gt;Node11</title>
<path fill="none" stroke="#63b8ff" d="M431.23,-165.58C429.18,-158.76 426.27,-149.06 423.68,-140.45"/>
<polygon fill="#63b8ff" stroke="#63b8ff" points="426.8,-139.68 420.57,-131.11 420.1,-141.69 426.8,-139.68"/>
</g>
<!-- Node9&#45;&gt;Node3 -->
<g id="edge10" class="edge">
<title>Node9&#45;&gt;Node3</title>
<path fill="none" stroke="#63b8ff" d="M251.52,-110.09C232.56,-101.68 204.03,-89.02 182.35,-79.4"/>
<polygon fill="#63b8ff" stroke="#63b8ff" points="183.89,-75.81 173.33,-74.95 181.05,-82.21 183.89,-75.81"/>
</g>
<!-- Node9&#45;&gt;Node6 -->
<g id="edge11" class="edge">
<title>Node9&#45;&gt;Node6</title>
<path fill="none" stroke="#63b8ff" d="M299.76,-112.35C302.5,-111.71 305.24,-111.09 307.88,-110.5 373.61,-95.84 450.97,-80.26 492.96,-71.94"/>
<polygon fill="#63b8ff" stroke="#63b8ff" points="493.45,-75.22 502.58,-69.85 492.09,-68.35 493.45,-75.22"/>
</g>
<!-- Node11&#45;&gt;Node6 -->
<g id="edge14" class="edge">
<title>Node11&#45;&gt;Node6</title>
<path fill="none" stroke="#63b8ff" d="M435.86,-110.09C452.38,-101.79 477.12,-89.36 496.17,-79.79"/>
<polygon fill="#63b8ff" stroke="#63b8ff" points="497.44,-82.57 504.81,-74.95 494.3,-76.31 497.44,-82.57"/>
</g>
<!-- Node14 -->
<g id="node14" class="node">
<title>Node14</title>
<g id="a_node14"><a xlink:title=" ">
<polygon fill="#e0e0e0" stroke="#999999" points="1167,-129.75 1082.75,-129.75 1082.75,-110.5 1167,-110.5 1167,-129.75"/>
<text text-anchor="middle" x="1124.88" y="-116.25" font-family="Helvetica,sans-Serif" font-size="10.00">spdlog/spdlog.h</text>
</a>
</g>
</g>
<!-- Node13&#45;&gt;Node14 -->
<g id="edge17" class="edge">
<title>Node13&#45;&gt;Node14</title>
<path fill="none" stroke="#63b8ff" d="M1124.88,-165.58C1124.88,-158.92 1124.88,-149.49 1124.88,-141.03"/>
<polygon fill="#63b8ff" stroke="#63b8ff" points="1128.38,-141.11 1124.88,-131.11 1121.38,-141.11 1128.38,-141.11"/>
</g>
<!-- Node15 -->
<g id="node15" class="node">
<title>Node15</title>
<g id="a_node15"><a xlink:title=" ">
<polygon fill="#e0e0e0" stroke="#999999" points="1240.75,-129.75 1185,-129.75 1185,-110.5 1240.75,-110.5 1240.75,-129.75"/>
<text text-anchor="middle" x="1212.88" y="-116.25" font-family="Helvetica,sans-Serif" font-size="10.00">algorithm</text>
</a>
</g>
</g>
<!-- Node13&#45;&gt;Node15 -->
<g id="edge18" class="edge">
<title>Node13&#45;&gt;Node15</title>
<path fill="none" stroke="#63b8ff" d="M1139.8,-165.34C1153.2,-157.23 1173.12,-145.18 1188.77,-135.71"/>
<polygon fill="#63b8ff" stroke="#63b8ff" points="1190.13,-138.37 1196.87,-130.2 1186.51,-132.39 1190.13,-138.37"/>
</g>
<!-- Node16&#45;&gt;Node17 -->
<g id="edge20" class="edge">
<title>Node16&#45;&gt;Node17</title>
<path fill="none" stroke="#63b8ff" d="M1209.38,-220.51C1229.63,-199.93 1273.35,-148.73 1249.88,-110.5 1238.81,-92.48 1217.95,-81.46 1199.32,-74.88"/>
<polygon fill="#63b8ff" stroke="#63b8ff" points="1200.57,-71.29 1189.98,-71.59 1198.45,-77.96 1200.57,-71.29"/>
</g>
<!-- Node18 -->
<g id="node18" class="node">
<title>Node18</title>
<g id="a_node18"><a xlink:title=" ">
<polygon fill="#e0e0e0" stroke="#999999" points="1118.25,-19.25 1077.5,-19.25 1077.5,0 1118.25,0 1118.25,-19.25"/>
<text text-anchor="middle" x="1097.88" y="-5.75" font-family="Helvetica,sans-Serif" font-size="10.00">mat.h</text>
</a>
</g>
</g>
<!-- Node17&#45;&gt;Node18 -->
<g id="edge21" class="edge">
<title>Node17&#45;&gt;Node18</title>
<path fill="none" stroke="#63b8ff" d="M1151.02,-54.84C1141.68,-47.07 1127.98,-35.67 1116.83,-26.4"/>
<polygon fill="#63b8ff" stroke="#63b8ff" points="1119.5,-23.23 1109.57,-19.52 1115.02,-28.61 1119.5,-23.23"/>
</g>
<!-- Node19 -->
<g id="node19" class="node">
<title>Node19</title>
<g id="a_node19"><a xlink:title=" ">
<polygon fill="#e0e0e0" stroke="#999999" points="1187.5,-19.25 1136.25,-19.25 1136.25,0 1187.5,0 1187.5,-19.25"/>
<text text-anchor="middle" x="1161.88" y="-5.75" font-family="Helvetica,sans-Serif" font-size="10.00">matrix.h</text>
</a>
</g>
</g>
<!-- Node17&#45;&gt;Node19 -->
<g id="edge22" class="edge">
<title>Node17&#45;&gt;Node19</title>
<path fill="none" stroke="#63b8ff" d="M1161.88,-55.08C1161.88,-48.42 1161.88,-38.99 1161.88,-30.53"/>
<polygon fill="#63b8ff" stroke="#63b8ff" points="1165.38,-30.61 1161.88,-20.61 1158.38,-30.61 1165.38,-30.61"/>
</g>
<!-- Node20 -->
<g id="node20" class="node">
<title>Node20</title>
<g id="a_node20"><a xlink:title=" ">
<polygon fill="#e0e0e0" stroke="#999999" points="1248.38,-19.25 1205.38,-19.25 1205.38,0 1248.38,0 1248.38,-19.25"/>
<text text-anchor="middle" x="1226.88" y="-5.75" font-family="Helvetica,sans-Serif" font-size="10.00">mex.h</text>
</a>
</g>
</g>
<!-- Node17&#45;&gt;Node20 -->
<g id="edge23" class="edge">
<title>Node17&#45;&gt;Node20</title>
<path fill="none" stroke="#63b8ff" d="M1172.9,-54.84C1182.39,-47.07 1196.3,-35.67 1207.62,-26.4"/>
<polygon fill="#63b8ff" stroke="#63b8ff" points="1209.49,-28.57 1215.01,-19.52 1205.06,-23.15 1209.49,-28.57"/>
</g>
<!-- Node21&#45;&gt;Node5 -->
<g id="edge26" class="edge">
<title>Node21&#45;&gt;Node5</title>
<path fill="none" stroke="#63b8ff" d="M984.63,-166.75C937.98,-156.93 857.17,-139.92 808.49,-129.67"/>
<polygon fill="#63b8ff" stroke="#63b8ff" points="809.24,-126.04 798.73,-127.41 807.8,-132.89 809.24,-126.04"/>
</g>
<!-- Node21&#45;&gt;Node6 -->
<g id="edge27" class="edge">
<title>Node21&#45;&gt;Node6</title>
<path fill="none" stroke="#63b8ff" d="M984.91,-167.75C948.63,-160.5 891.37,-147.51 843.88,-129.75 826.14,-123.12 823.89,-116.33 805.88,-110.5 717.56,-81.93 607.56,-71.28 554.85,-67.62"/>
<polygon fill="#63b8ff" stroke="#63b8ff" points="555.41,-64.08 545.21,-66.92 554.96,-71.07 555.41,-64.08"/>
</g>
<!-- Node21&#45;&gt;Node7 -->
<g id="edge28" class="edge">
<title>Node21&#45;&gt;Node7</title>
<path fill="none" stroke="#63b8ff" d="M1014.84,-165.53C1004.96,-151.73 984,-125.13 959.88,-110.5 921.77,-87.38 871.08,-75.73 838.46,-70.24"/>
<polygon fill="#63b8ff" stroke="#63b8ff" points="839.15,-66.65 828.73,-68.54 838.06,-73.56 839.15,-66.65"/>
</g>
<!-- Node21&#45;&gt;Node14 -->
<g id="edge29" class="edge">
<title>Node21&#45;&gt;Node14</title>
<path fill="none" stroke="#63b8ff" d="M1038.52,-165.34C1054.65,-157.08 1078.78,-144.73 1097.43,-135.18"/>
<polygon fill="#63b8ff" stroke="#63b8ff" points="1098.84,-137.88 1106.15,-130.2 1095.65,-131.64 1098.84,-137.88"/>
</g>
<!-- Node21&#45;&gt;Node15 -->
<g id="edge25" class="edge">
<title>Node21&#45;&gt;Node15</title>
<path fill="none" stroke="#63b8ff" d="M1053.45,-165.34C1086.8,-156.09 1138.64,-141.71 1174.09,-131.88"/>
<polygon fill="#63b8ff" stroke="#63b8ff" points="1174.83,-135.03 1183.53,-128.99 1172.96,-128.29 1174.83,-135.03"/>
</g>
<!-- Node21&#45;&gt;Node17 -->
<g id="edge30" class="edge">
<title>Node21&#45;&gt;Node17</title>
<path fill="none" stroke="#63b8ff" d="M1026.46,-165.55C1035.24,-152.24 1053.38,-126.86 1073.88,-110.5 1090.21,-97.46 1110.97,-86.71 1128.23,-79.03"/>
<polygon fill="#63b8ff" stroke="#63b8ff" points="1129.11,-82.03 1136.92,-74.87 1126.35,-75.6 1129.11,-82.03"/>
</g>
<!-- Node22&#45;&gt;Node4 -->
<g id="edge34" class="edge">
<title>Node22&#45;&gt;Node4</title>
<path fill="none" stroke="#63b8ff" d="M550.96,-220.59C528.17,-211.99 493.63,-198.94 467.96,-189.25"/>
<polygon fill="#63b8ff" stroke="#63b8ff" points="469.5,-185.71 458.91,-185.45 467.03,-192.26 469.5,-185.71"/>
</g>
<!-- Node22&#45;&gt;Node6 -->
<g id="edge33" class="edge">
<title>Node22&#45;&gt;Node6</title>
<path fill="none" stroke="#63b8ff" d="M572.13,-220.82C564.18,-195.28 540.95,-120.7 529.88,-85.15"/>
<polygon fill="#63b8ff" stroke="#63b8ff" points="532.95,-84.23 526.63,-75.72 526.26,-86.31 532.95,-84.23"/>
</g>
<!-- Node23 -->
<g id="node23" class="node">
<title>Node23</title>
<g id="a_node23"><a xlink:href="input__matrices_8h.html" target="_top" xlink:title="Class handling the input matrices that are read in from the input file.">
<polygon fill="white" stroke="#666666" points="670.88,-185 582.88,-185 582.88,-165.75 670.88,-165.75 670.88,-185"/>
<text text-anchor="middle" x="626.88" y="-171.5" font-family="Helvetica,sans-Serif" font-size="10.00">input_matrices.h</text>
</a>
</g>
</g>
<!-- Node22&#45;&gt;Node23 -->
<g id="edge35" class="edge">
<title>Node22&#45;&gt;Node23</title>
<path fill="none" stroke="#63b8ff" d="M583.46,-220.83C590.79,-213.32 601.55,-202.31 610.52,-193.13"/>
<polygon fill="#63b8ff" stroke="#63b8ff" points="612.62,-195.96 617.1,-186.36 607.61,-191.07 612.62,-195.96"/>
</g>
<!-- Node23&#45;&gt;Node6 -->
<g id="edge36" class="edge">
<title>Node23&#45;&gt;Node6</title>
<path fill="none" stroke="#63b8ff" d="M609.61,-165.3C595.55,-157.31 575.82,-144.63 561.88,-129.75 549.34,-116.38 539.02,-98.18 532.31,-84.63"/>
<polygon fill="#63b8ff" stroke="#63b8ff" points="535.17,-83.49 527.73,-75.94 528.84,-86.48 535.17,-83.49"/>
</g>
<!-- Node23&#45;&gt;Node17 -->
<g id="edge40" class="edge">
<title>Node23&#45;&gt;Node17</title>
<path fill="none" stroke="#63b8ff" d="M671.21,-170.89C735.43,-165.29 857.83,-152.54 959.88,-129.75 1020.05,-116.31 1088.03,-93.08 1127.79,-78.65"/>
<polygon fill="#63b8ff" stroke="#63b8ff" points="1128.8,-81.64 1136.99,-74.92 1126.4,-75.07 1128.8,-81.64"/>
</g>
<!-- Node24 -->
<g id="node24" class="node">
<title>Node24</title>
<g id="a_node24"><a xlink:href="input__output__names_8h.html" target="_top" xlink:title="Constant values associated with the format of the input and output files and matrices.">
<polygon fill="white" stroke="#666666" points="682.88,-129.75 570.88,-129.75 570.88,-110.5 682.88,-110.5 682.88,-129.75"/>
<text text-anchor="middle" x="626.88" y="-116.25" font-family="Helvetica,sans-Serif" font-size="10.00">input_output_names.h</text>
</a>
</g>
</g>
<!-- Node23&#45;&gt;Node24 -->
<g id="edge37" class="edge">
<title>Node23&#45;&gt;Node24</title>
<path fill="none" stroke="#63b8ff" d="M626.88,-165.58C626.88,-158.92 626.88,-149.49 626.88,-141.03"/>
<polygon fill="#63b8ff" stroke="#63b8ff" points="630.38,-141.11 626.88,-131.11 623.38,-141.11 630.38,-141.11"/>
</g>
<!-- Node25 -->
<g id="node25" class="node">
<title>Node25</title>
<g id="a_node25"><a xlink:href="matrix__collection_8h.html" target="_top" xlink:title="A collection of named MATLAB matrices.">
<polygon fill="white" stroke="#666666" points="950.75,-129.75 853,-129.75 853,-110.5 950.75,-110.5 950.75,-129.75"/>
<text text-anchor="middle" x="901.88" y="-116.25" font-family="Helvetica,sans-Serif" font-size="10.00">matrix_collection.h</text>
</a>
</g>
</g>
<!-- Node23&#45;&gt;Node25 -->
<g id="edge41" class="edge">
<title>Node23&#45;&gt;Node25</title>
<path fill="none" stroke="#63b8ff" d="M671.36,-165.76C718.48,-156.64 793.03,-142.2 844.53,-132.23"/>
<polygon fill="#63b8ff" stroke="#63b8ff" points="845,-135.51 854.15,-130.17 843.67,-128.64 845,-135.51"/>
</g>
<!-- Node24&#45;&gt;Node6 -->
<g id="edge38" class="edge">
<title>Node24&#45;&gt;Node6</title>
<path fill="none" stroke="#63b8ff" d="M609.4,-110.09C593.42,-101.83 569.53,-89.48 551.05,-79.93"/>
<polygon fill="#63b8ff" stroke="#63b8ff" points="552.92,-76.44 542.43,-74.95 549.71,-82.65 552.92,-76.44"/>
</g>
<!-- Node24&#45;&gt;Node7 -->
<g id="edge39" class="edge">
<title>Node24&#45;&gt;Node7</title>
<path fill="none" stroke="#63b8ff" d="M657.24,-110.09C689.59,-100.47 740.6,-85.29 773.65,-75.46"/>
<polygon fill="#63b8ff" stroke="#63b8ff" points="774.53,-78.56 783.11,-72.35 772.53,-71.85 774.53,-78.56"/>
</g>
<!-- Node25&#45;&gt;Node6 -->
<g id="edge42" class="edge">
<title>Node25&#45;&gt;Node6</title>
<path fill="none" stroke="#63b8ff" d="M852.85,-112.22C773.89,-101.09 620.78,-79.53 555.06,-70.27"/>
<polygon fill="#63b8ff" stroke="#63b8ff" points="555.6,-66.67 545.21,-68.74 554.62,-73.6 555.6,-66.67"/>
</g>
<!-- Node25&#45;&gt;Node7 -->
<g id="edge43" class="edge">
<title>Node25&#45;&gt;Node7</title>
<path fill="none" stroke="#63b8ff" d="M885.59,-110.09C870.83,-101.91 848.84,-89.71 831.69,-80.19"/>
<polygon fill="#63b8ff" stroke="#63b8ff" points="833.68,-76.74 823.24,-74.95 830.29,-82.86 833.68,-76.74"/>
</g>
<!-- Node25&#45;&gt;Node17 -->
<g id="edge44" class="edge">
<title>Node25&#45;&gt;Node17</title>
<path fill="none" stroke="#63b8ff" d="M946.28,-110.03C996.36,-99.77 1076.96,-83.27 1124.13,-73.61"/>
<polygon fill="#63b8ff" stroke="#63b8ff" points="1124.7,-76.86 1133.79,-71.42 1123.29,-70 1124.7,-76.86"/>
</g>
</g>
</svg>
