<?xml version="1.0" encoding="UTF-8" standalone="no"?>
<!DOCTYPE svg PUBLIC "-//W3C//DTD SVG 1.1//EN"
 "http://www.w3.org/Graphics/SVG/1.1/DTD/svg11.dtd">
<!-- Generated by graphviz version 8.0.2 (20230410.1723)
 -->
<!-- Title: tdms/include/arrays.h Pages: 1 -->
<svg width="376pt" height="137pt"
 viewBox="0.00 0.00 375.83 137.00" xmlns="http://www.w3.org/2000/svg" xmlns:xlink="http://www.w3.org/1999/xlink">
<g id="graph0" class="graph" transform="scale(1 1) rotate(0) translate(4 133)">
<title>tdms/include/arrays.h</title>
<!-- Node1 -->
<g id="node1" class="node">
<title>Node1</title>
<g id="a_node1"><a xlink:title="Classes describing arrays, vertices etc.">
<polygon fill="#999999" stroke="#666666" points="244.46,-129 134.46,-129 134.46,-110 244.46,-110 244.46,-129"/>
<text text-anchor="middle" x="189.46" y="-117" font-family="Helvetica,sans-Serif" font-size="10.00">tdms/include/arrays.h</text>
</a>
</g>
</g>
<!-- Node2 -->
<g id="node2" class="node">
<title>Node2</title>
<g id="a_node2"><a xlink:title=" ">
<polygon fill="#e0e0e0" stroke="#999999" points="78.96,-19 25.96,-19 25.96,0 78.96,0 78.96,-19"/>
<text text-anchor="middle" x="52.46" y="-7" font-family="Helvetica,sans-Serif" font-size="10.00">complex</text>
</a>
</g>
</g>
<!-- Node1&#45;&gt;Node2 -->
<g id="edge1" class="edge">
<title>Node1&#45;&gt;Node2</title>
<path fill="none" stroke="#63b8ff" d="M134.12,-112.7C85.61,-106.34 20.4,-94.24 4.46,-74 -8.43,-57.64 10.49,-38.53 28.24,-25.58"/>
<polygon fill="#63b8ff" stroke="#63b8ff" points="29.97,-27.96 36.24,-19.42 26.01,-22.18 29.97,-27.96"/>
</g>
<!-- Node3 -->
<g id="node3" class="node">
<title>Node3</title>
<g id="a_node3"><a xlink:title=" ">
<polygon fill="#e0e0e0" stroke="#999999" points="72.96,-74 13.96,-74 13.96,-55 72.96,-55 72.96,-74"/>
<text text-anchor="middle" x="43.46" y="-62" font-family="Helvetica,sans-Serif" font-size="10.00">stdexcept</text>
</a>
</g>
</g>
<!-- Node1&#45;&gt;Node3 -->
<g id="edge2" class="edge">
<title>Node1&#45;&gt;Node3</title>
<path fill="none" stroke="#63b8ff" d="M164.69,-109.51C140.85,-100.85 104.57,-87.69 77.91,-78.01"/>
<polygon fill="#63b8ff" stroke="#63b8ff" points="79.45,-74.48 68.86,-74.36 77.06,-81.06 79.45,-74.48"/>
</g>
<!-- Node4 -->
<g id="node4" class="node">
<title>Node4</title>
<g id="a_node4"><a xlink:title=" ">
<polygon fill="#e0e0e0" stroke="#999999" points="337.96,-19 296.96,-19 296.96,0 337.96,0 337.96,-19"/>
<text text-anchor="middle" x="317.46" y="-7" font-family="Helvetica,sans-Serif" font-size="10.00">string</text>
</a>
</g>
</g>
<!-- Node1&#45;&gt;Node4 -->
<g id="edge3" class="edge">
<title>Node1&#45;&gt;Node4</title>
<path fill="none" stroke="#63b8ff" d="M244.63,-111.77C289.92,-104.98 348.88,-92.78 363.46,-74 376.04,-57.79 357.86,-38.66 340.78,-25.66"/>
<polygon fill="#63b8ff" stroke="#63b8ff" points="343.29,-22.44 333.12,-19.47 339.22,-28.13 343.29,-22.44"/>
</g>
<!-- Node5 -->
<g id="node5" class="node">
<title>Node5</title>
<g id="a_node5"><a xlink:title=" ">
<polygon fill="#e0e0e0" stroke="#999999" points="212.96,-74 165.96,-74 165.96,-55 212.96,-55 212.96,-74"/>
<text text-anchor="middle" x="189.46" y="-62" font-family="Helvetica,sans-Serif" font-size="10.00">fftw3.h</text>
</a>
</g>
</g>
<!-- Node1&#45;&gt;Node5 -->
<g id="edge4" class="edge">
<title>Node1&#45;&gt;Node5</title>
<path fill="none" stroke="#63b8ff" d="M189.46,-109.75C189.46,-103.11 189.46,-93.73 189.46,-85.31"/>
<polygon fill="#63b8ff" stroke="#63b8ff" points="192.96,-85.44 189.46,-75.44 185.96,-85.44 192.96,-85.44"/>
</g>
<!-- Node6 -->
<g id="node6" class="node">
<title>Node6</title>
<g id="a_node6"><a xlink:href="globals_8h.html" target="_top" xlink:title="Type definitions and global constants.">
<polygon fill="white" stroke="#666666" points="147.46,-74 91.46,-74 91.46,-55 147.46,-55 147.46,-74"/>
<text text-anchor="middle" x="119.46" y="-62" font-family="Helvetica,sans-Serif" font-size="10.00">globals.h</text>
</a>
</g>
</g>
<!-- Node1&#45;&gt;Node6 -->
<g id="edge5" class="edge">
<title>Node1&#45;&gt;Node6</title>
<path fill="none" stroke="#63b8ff" d="M177.58,-109.51C167.26,-101.7 152.09,-90.21 139.83,-80.93"/>
<polygon fill="#63b8ff" stroke="#63b8ff" points="142.24,-77.6 132.16,-74.36 138.02,-83.18 142.24,-77.6"/>
</g>
<!-- Node7 -->
<g id="node7" class="node">
<title>Node7</title>
<g id="a_node7"><a xlink:title=" ">
<polygon fill="#e0e0e0" stroke="#999999" points="354.46,-74 292.46,-74 292.46,-55 354.46,-55 354.46,-74"/>
<text text-anchor="middle" x="323.46" y="-62" font-family="Helvetica,sans-Serif" font-size="10.00">matlabio.h</text>
</a>
</g>
</g>
<!-- Node1&#45;&gt;Node7 -->
<g id="edge7" class="edge">
<title>Node1&#45;&gt;Node7</title>
<path fill="none" stroke="#63b8ff" d="M212.19,-109.51C233.78,-100.97 266.48,-88.03 290.85,-78.4"/>
<polygon fill="#63b8ff" stroke="#63b8ff" points="292.05,-81.29 300.06,-74.36 289.48,-74.78 292.05,-81.29"/>
</g>
<!-- Node8 -->
<g id="node8" class="node">
<title>Node8</title>
<g id="a_node8"><a xlink:href="utils_8h.html" target="_top" xlink:title="Useful miscellaneous utility functions.">
<polygon fill="white" stroke="#666666" points="273.96,-74 230.96,-74 230.96,-55 273.96,-55 273.96,-74"/>
<text text-anchor="middle" x="252.46" y="-62" font-family="Helvetica,sans-Serif" font-size="10.00">utils.h</text>
</a>
</g>
</g>
<!-- Node1&#45;&gt;Node8 -->
<g id="edge8" class="edge">
<title>Node1&#45;&gt;Node8</title>
<path fill="none" stroke="#63b8ff" d="M200.14,-109.51C209.34,-101.77 222.82,-90.43 233.79,-81.2"/>
<polygon fill="#63b8ff" stroke="#63b8ff" points="235.53,-83.47 240.93,-74.36 231.02,-78.12 235.53,-83.47"/>
</g>
<!-- Node6&#45;&gt;Node2 -->
<g id="edge6" class="edge">
<title>Node6&#45;&gt;Node2</title>
<path fill="none" stroke="#63b8ff" d="M108.09,-54.51C98.21,-46.7 83.69,-35.21 71.96,-25.93"/>
<polygon fill="#63b8ff" stroke="#63b8ff" points="74.67,-22.82 64.65,-19.36 70.33,-28.31 74.67,-22.82"/>
</g>
<!-- Node8&#45;&gt;Node4 -->
<g id="edge9" class="edge">
<title>Node8&#45;&gt;Node4</title>
<path fill="none" stroke="#63b8ff" d="M263.48,-54.51C272.97,-46.77 286.88,-35.43 298.2,-26.2"/>
<polygon fill="#63b8ff" stroke="#63b8ff" points="300.06,-28.39 305.59,-19.36 295.63,-22.96 300.06,-28.39"/>
</g>
</g>
</svg>
