<?xml version="1.0" encoding="UTF-8" standalone="no"?>
<!DOCTYPE svg PUBLIC "-//W3C//DTD SVG 1.1//EN"
 "http://www.w3.org/Graphics/SVG/1.1/DTD/svg11.dtd">
<!-- Generated by graphviz version 9.0.0 (20230911.1827)
 -->
<!-- Title: tdms/include/arrays.h Pages: 1 -->
<svg width="500pt" height="282pt"
 viewBox="0.00 0.00 499.50 282.00" xmlns="http://www.w3.org/2000/svg" xmlns:xlink="http://www.w3.org/1999/xlink">
<g id="graph0" class="graph" transform="scale(1 1) rotate(0) translate(4 278)">
<title>tdms/include/arrays.h</title>
<!-- Node1 -->
<g id="Node000001" class="node">
<title>Node1</title>
<g id="a_Node000001"><a xlink:title="Classes describing arrays, vertices etc.">
<polygon fill="#999999" stroke="#666666" points="317,-274 207.25,-274 207.25,-254.75 317,-254.75 317,-274"/>
<text text-anchor="middle" x="262.12" y="-260.5" font-family="Helvetica,sans-Serif" font-size="10.00">tdms/include/arrays.h</text>
</a>
</g>
</g>
<!-- Node2 -->
<g id="Node000002" class="node">
<title>Node2</title>
<g id="a_Node000002"><a xlink:href="field_8h.html" target="_top" xlink:title="Classes for the electric and magnetic (split) fields on a grid.">
<polygon fill="white" stroke="#666666" points="368.5,-152.25 267.75,-152.25 267.75,-133 368.5,-133 368.5,-152.25"/>
<text text-anchor="middle" x="318.12" y="-138.75" font-family="Helvetica,sans-Serif" font-size="10.00">tdms/include/field.h</text>
</a>
</g>
</g>
<!-- Node1&#45;&gt;Node2 -->
<g id="edge1_Node000001_Node000002" class="edge">
<title>Node1&#45;&gt;Node2</title>
<g id="a_edge1_Node000001_Node000002"><a xlink:title=" ">
<path fill="none" stroke="#63b8ff" d="M271.09,-244.2C283.33,-218.03 304.78,-172.16 313.87,-152.73"/>
<polygon fill="#63b8ff" stroke="#63b8ff" points="268.04,-242.46 266.98,-253 274.38,-245.43 268.04,-242.46"/>
</a>
</g>
</g>
<!-- Node4 -->
<g id="Node000004" class="node">
<title>Node4</title>
<g id="a_Node000004"><a xlink:href="fieldsample_8h.html" target="_top" xlink:title="Class that stores the extracted field values at user&#45;defined vertices.">
<polygon fill="white" stroke="#666666" points="132.25,-91.38 0,-91.38 0,-72.12 132.25,-72.12 132.25,-91.38"/>
<text text-anchor="middle" x="66.12" y="-77.88" font-family="Helvetica,sans-Serif" font-size="10.00">tdms/include/fieldsample.h</text>
</a>
</g>
</g>
<!-- Node1&#45;&gt;Node4 -->
<g id="edge8_Node000001_Node000004" class="edge">
<title>Node1&#45;&gt;Node4</title>
<g id="a_edge8_Node000001_Node000004"><a xlink:title=" ">
<path fill="none" stroke="#63b8ff" d="M195.81,-251.6C172.26,-244.94 146.76,-234.62 127.12,-218.75 85.27,-184.91 71.16,-116.28 67.34,-91.73"/>
<polygon fill="#63b8ff" stroke="#63b8ff" points="194.79,-254.95 205.35,-254.11 196.57,-248.18 194.79,-254.95"/>
</a>
</g>
</g>
<!-- Node6 -->
<g id="Node000006" class="node">
<title>Node6</title>
<g id="a_Node000006"><a xlink:href="surface__phasors_8h.html" target="_top" xlink:title="Contains a class that handles the complex amplitude extraction.">
<polygon fill="white" stroke="#666666" points="491.5,-97 384.75,-97 384.75,-66.5 491.5,-66.5 491.5,-97"/>
<text text-anchor="start" x="392.75" y="-83.5" font-family="Helvetica,sans-Serif" font-size="10.00">tdms/include/surface</text>
<text text-anchor="middle" x="438.12" y="-72.25" font-family="Helvetica,sans-Serif" font-size="10.00">_phasors.h</text>
</a>
</g>
</g>
<!-- Node1&#45;&gt;Node6 -->
<g id="edge13_Node000001_Node000006" class="edge">
<title>Node1&#45;&gt;Node6</title>
<g id="a_edge13_Node000001_Node000006"><a xlink:title=" ">
<path fill="none" stroke="#63b8ff" d="M280.09,-246.88C303.1,-225.56 343.98,-187.02 377.12,-152.25 394.63,-133.89 413.76,-111.72 425.85,-97.43"/>
<polygon fill="#63b8ff" stroke="#63b8ff" points="278.01,-244.03 273.04,-253.39 282.76,-249.18 278.01,-244.03"/>
</a>
</g>
</g>
<!-- Node9 -->
<g id="Node000009" class="node">
<title>Node9</title>
<g id="a_Node000009"><a xlink:href="simulation__parameters_8h.html" target="_top" xlink:title="Classes collecting parameters for the simulation.">
<polygon fill="white" stroke="#666666" points="254.5,-218.75 135.75,-218.75 135.75,-188.25 254.5,-188.25 254.5,-218.75"/>
<text text-anchor="start" x="143.75" y="-205.25" font-family="Helvetica,sans-Serif" font-size="10.00">tdms/include/simulation</text>
<text text-anchor="middle" x="195.12" y="-194" font-family="Helvetica,sans-Serif" font-size="10.00">_parameters.h</text>
</a>
</g>
</g>
<!-- Node1&#45;&gt;Node9 -->
<g id="edge9_Node000001_Node000009" class="edge">
<title>Node1&#45;&gt;Node9</title>
<g id="a_edge9_Node000001_Node000009"><a xlink:title=" ">
<path fill="none" stroke="#63b8ff" d="M243.53,-247.04C233.54,-238.26 221.32,-227.52 211.66,-219.03"/>
<polygon fill="#63b8ff" stroke="#63b8ff" points="240.99,-249.46 250.81,-253.43 245.61,-244.2 240.99,-249.46"/>
</a>
</g>
</g>
<!-- Node3 -->
<g id="Node000003" class="node">
<title>Node3</title>
<g id="a_Node000003"><a xlink:href="array__init_8h.html" target="_top" xlink:title="A collection of functions for array initialisation given MATLAB pointers.">
<polygon fill="white" stroke="#666666" points="366.25,-97 270,-97 270,-66.5 366.25,-66.5 366.25,-97"/>
<text text-anchor="start" x="278" y="-83.5" font-family="Helvetica,sans-Serif" font-size="10.00">tdms/include/array</text>
<text text-anchor="middle" x="318.12" y="-72.25" font-family="Helvetica,sans-Serif" font-size="10.00">_init.h</text>
</a>
</g>
</g>
<!-- Node2&#45;&gt;Node3 -->
<g id="edge2_Node000002_Node000003" class="edge">
<title>Node2&#45;&gt;Node3</title>
<g id="a_edge2_Node000002_Node000003"><a xlink:title=" ">
<path fill="none" stroke="#63b8ff" d="M318.12,-121.42C318.12,-113.49 318.12,-104.56 318.12,-97.28"/>
<polygon fill="#63b8ff" stroke="#63b8ff" points="314.63,-121.17 318.13,-131.17 321.63,-121.17 314.63,-121.17"/>
</a>
</g>
</g>
<!-- Node2&#45;&gt;Node4 -->
<g id="edge3_Node000002_Node000004" class="edge">
<title>Node2&#45;&gt;Node4</title>
<g id="a_edge3_Node000002_Node000004"><a xlink:title=" ">
<path fill="none" stroke="#63b8ff" d="M268.25,-129.97C220.31,-118.77 148.85,-102.08 104.99,-91.83"/>
<polygon fill="#63b8ff" stroke="#63b8ff" points="267.29,-133.34 277.83,-132.21 268.89,-126.53 267.29,-133.34"/>
</a>
</g>
</g>
<!-- Node2&#45;&gt;Node6 -->
<g id="edge5_Node000002_Node000006" class="edge">
<title>Node2&#45;&gt;Node6</title>
<g id="a_edge5_Node000002_Node000006"><a xlink:title=" ">
<path fill="none" stroke="#63b8ff" d="M346.8,-127.56C365.33,-118.47 389.4,-106.66 408.17,-97.44"/>
<polygon fill="#63b8ff" stroke="#63b8ff" points="345.41,-124.34 337.97,-131.89 348.49,-130.63 345.41,-124.34"/>
</a>
</g>
</g>
<!-- Node7 -->
<g id="Node000007" class="node">
<title>Node7</title>
<g id="a_Node000007"><a xlink:href="vertex__phasors_8h.html" target="_top" xlink:title="Contains a class that handles the complex amplitude extraction at the vertices.">
<polygon fill="white" stroke="#666666" points="251.88,-97 150.38,-97 150.38,-66.5 251.88,-66.5 251.88,-97"/>
<text text-anchor="start" x="158.38" y="-83.5" font-family="Helvetica,sans-Serif" font-size="10.00">tdms/include/vertex</text>
<text text-anchor="middle" x="201.12" y="-72.25" font-family="Helvetica,sans-Serif" font-size="10.00">_phasors.h</text>
</a>
</g>
</g>
<!-- Node2&#45;&gt;Node7 -->
<g id="edge6_Node000002_Node000007" class="edge">
<title>Node2&#45;&gt;Node7</title>
<g id="a_edge6_Node000002_Node000007"><a xlink:title=" ">
<path fill="none" stroke="#63b8ff" d="M289.91,-127.43C271.88,-118.36 248.55,-106.61 230.33,-97.44"/>
<polygon fill="#63b8ff" stroke="#63b8ff" points="288.24,-130.51 298.75,-131.87 291.39,-124.25 288.24,-130.51"/>
</a>
</g>
</g>
<!-- Node5 -->
<g id="Node000005" class="node">
<title>Node5</title>
<g id="a_Node000005"><a xlink:href="test___field_sample_8cpp.html" target="_top" xlink:title="Unit tests for the FieldSample class and its subclasses.">
<polygon fill="white" stroke="#666666" points="116.5,-30.5 15.75,-30.5 15.75,0 116.5,0 116.5,-30.5"/>
<text text-anchor="start" x="23.75" y="-17" font-family="Helvetica,sans-Serif" font-size="10.00">tdms/tests/unit/test</text>
<text text-anchor="middle" x="66.12" y="-5.75" font-family="Helvetica,sans-Serif" font-size="10.00">_FieldSample.cpp</text>
</a>
</g>
</g>
<!-- Node4&#45;&gt;Node5 -->
<g id="edge4_Node000004_Node000005" class="edge">
<title>Node4&#45;&gt;Node5</title>
<g id="a_edge4_Node000004_Node000005"><a xlink:title=" ">
<path fill="none" stroke="#63b8ff" d="M66.12,-60.37C66.12,-50.69 66.12,-39.35 66.12,-30.59"/>
<polygon fill="#63b8ff" stroke="#63b8ff" points="62.63,-60.27 66.13,-70.27 69.63,-60.27 62.63,-60.27"/>
</a>
</g>
</g>
<!-- Node8 -->
<g id="Node000008" class="node">
<title>Node8</title>
<g id="a_Node000008"><a xlink:href="test___vertex_phasors_8cpp.html" target="_top" xlink:title="Unit tests for the VertexPhasors class.">
<polygon fill="white" stroke="#666666" points="253.38,-30.5 148.88,-30.5 148.88,0 253.38,0 253.38,-30.5"/>
<text text-anchor="start" x="156.88" y="-17" font-family="Helvetica,sans-Serif" font-size="10.00">tdms/tests/unit/test</text>
<text text-anchor="middle" x="201.12" y="-5.75" font-family="Helvetica,sans-Serif" font-size="10.00">_VertexPhasors.cpp</text>
</a>
</g>
</g>
<!-- Node7&#45;&gt;Node8 -->
<g id="edge7_Node000007_Node000008" class="edge">
<title>Node7&#45;&gt;Node8</title>
<g id="a_edge7_Node000007_Node000008"><a xlink:title=" ">
<path fill="none" stroke="#63b8ff" d="M201.12,-54.81C201.12,-46.64 201.12,-37.91 201.12,-30.83"/>
<polygon fill="#63b8ff" stroke="#63b8ff" points="197.63,-54.6 201.13,-64.6 204.63,-54.6 197.63,-54.6"/>
</a>
</g>
</g>
<!-- Node9&#45;&gt;Node2 -->
<g id="edge10_Node000009_Node000002" class="edge">
<title>Node9&#45;&gt;Node2</title>
<g id="a_edge10_Node000009_Node000002"><a xlink:title=" ">
<path fill="none" stroke="#63b8ff" d="M235.98,-182.94C257.35,-172.72 282.48,-160.69 299.26,-152.65"/>
<polygon fill="#63b8ff" stroke="#63b8ff" points="234.72,-179.67 227.21,-187.14 237.74,-185.98 234.72,-179.67"/>
</a>
</g>
</g>
<!-- Node9&#45;&gt;Node4 -->
<g id="edge11_Node000009_Node000004" class="edge">
<title>Node9&#45;&gt;Node4</title>
<g id="a_edge11_Node000009_Node000004"><a xlink:title=" ">
<path fill="none" stroke="#63b8ff" d="M150.11,-182.61C135.28,-174.62 119.44,-164.39 107.12,-152.25 88.77,-134.15 75.62,-106.17 69.67,-91.86"/>
<polygon fill="#63b8ff" stroke="#63b8ff" points="148.33,-185.63 158.82,-187.09 151.53,-179.41 148.33,-185.63"/>
</a>
</g>
</g>
<!-- Node10 -->
<g id="Node000010" class="node">
<title>Node10</title>
<g id="a_Node000010"><a xlink:href="mesh__base_8h.html" target="_top" xlink:title="Generation of orientated mesh.">
<polygon fill="white" stroke="#666666" points="249.62,-152.25 116.62,-152.25 116.62,-133 249.62,-133 249.62,-152.25"/>
<text text-anchor="middle" x="183.12" y="-138.75" font-family="Helvetica,sans-Serif" font-size="10.00">tdms/include/mesh_base.h</text>
</a>
</g>
</g>
<!-- Node9&#45;&gt;Node10 -->
<g id="edge12_Node000009_Node000010" class="edge">
<title>Node9&#45;&gt;Node10</title>
<g id="a_edge12_Node000009_Node000010"><a xlink:title=" ">
<path fill="none" stroke="#63b8ff" d="M189.88,-176.78C188.13,-168.18 186.29,-159.16 184.97,-152.7"/>
<polygon fill="#63b8ff" stroke="#63b8ff" points="186.43,-177.36 191.86,-186.46 193.29,-175.97 186.43,-177.36"/>
</a>
</g>
</g>
</g>
</svg>
