<?xml version="1.0" encoding="UTF-8" standalone="no"?>
<!DOCTYPE svg PUBLIC "-//W3C//DTD SVG 1.1//EN"
 "http://www.w3.org/Graphics/SVG/1.1/DTD/svg11.dtd">
<!-- Generated by graphviz version 8.0.5 (20230430.1635)
 -->
<!-- Title: tdms/include/array_init.h Pages: 1 -->
<svg width="1463pt" height="370pt"
 viewBox="0.00 0.00 1462.88 370.00" xmlns="http://www.w3.org/2000/svg" xmlns:xlink="http://www.w3.org/1999/xlink">
<g id="graph0" class="graph" transform="scale(1 1) rotate(0) translate(4 366)">
<title>tdms/include/array_init.h</title>
<!-- Node1 -->
<g id="node1" class="node">
<title>Node1</title>
<g id="a_node1"><a xlink:title="A collection of functions for array initialisation given MATLAB pointers.">
<polygon fill="#999999" stroke="#666666" points="1118,-362 1021.75,-362 1021.75,-331.5 1118,-331.5 1118,-362"/>
<text text-anchor="start" x="1029.75" y="-348.5" font-family="Helvetica,sans-Serif" font-size="10.00">tdms/include/array</text>
<text text-anchor="middle" x="1069.88" y="-337.25" font-family="Helvetica,sans-Serif" font-size="10.00">_init.h</text>
</a>
</g>
</g>
<!-- Node2 -->
<g id="node2" class="node">
<title>Node2</title>
<g id="a_node2"><a xlink:href="field_8h.html" target="_top" xlink:title="Classes for the electric and magnetic (split) fields on a grid.">
<polygon fill="white" stroke="#666666" points="830,-295.5 787.75,-295.5 787.75,-276.25 830,-276.25 830,-295.5"/>
<text text-anchor="middle" x="808.88" y="-282" font-family="Helvetica,sans-Serif" font-size="10.00">field.h</text>
</a>
</g>
</g>
<!-- Node1&#45;&gt;Node2 -->
<g id="edge1" class="edge">
<title>Node1&#45;&gt;Node2</title>
<path fill="none" stroke="#63b8ff" d="M1021.39,-334.81C968.8,-322.95 886.32,-304.34 841.13,-294.15"/>
<polygon fill="#63b8ff" stroke="#63b8ff" points="842.01,-290.54 831.49,-291.75 840.47,-297.37 842.01,-290.54"/>
</g>
<!-- Node18 -->
<g id="node18" class="node">
<title>Node18</title>
<g id="a_node18"><a xlink:href="mat__io_8h.html" target="_top" xlink:title="Includes MATLAB headers for I/O.">
<polygon fill="white" stroke="#666666" points="1298.62,-74.5 1245.12,-74.5 1245.12,-55.25 1298.62,-55.25 1298.62,-74.5"/>
<text text-anchor="middle" x="1271.88" y="-61" font-family="Helvetica,sans-Serif" font-size="10.00">mat_io.h</text>
</a>
</g>
</g>
<!-- Node1&#45;&gt;Node18 -->
<g id="edge46" class="edge">
<title>Node1&#45;&gt;Node18</title>
<path fill="none" stroke="#63b8ff" d="M1118.25,-341.65C1221.65,-331.55 1454.88,-301.08 1454.88,-231.62 1454.88,-231.62 1454.88,-231.62 1454.88,-174.38 1454.88,-107.48 1363.28,-80.93 1309.69,-71.12"/>
<polygon fill="#63b8ff" stroke="#63b8ff" points="1310.32,-67.51 1299.88,-69.28 1309.14,-74.41 1310.32,-67.51"/>
</g>
<!-- Node3 -->
<g id="node3" class="node">
<title>Node3</title>
<g id="a_node3"><a xlink:title=" ">
<polygon fill="#e0e0e0" stroke="#999999" points="288.25,-74.5 235.5,-74.5 235.5,-55.25 288.25,-55.25 288.25,-74.5"/>
<text text-anchor="middle" x="261.88" y="-61" font-family="Helvetica,sans-Serif" font-size="10.00">complex</text>
</a>
</g>
</g>
<!-- Node2&#45;&gt;Node3 -->
<g id="edge2" class="edge">
<title>Node2&#45;&gt;Node3</title>
<path fill="none" stroke="#63b8ff" d="M787.56,-281.65C747.34,-275.35 657.67,-260.25 583.88,-240.25 439.06,-201.01 354.74,-249.91 264.88,-129.75 255.52,-117.24 255.54,-99.17 257.46,-85.44"/>
<polygon fill="#63b8ff" stroke="#63b8ff" points="261.06,-86.22 259.45,-75.75 254.18,-84.94 261.06,-86.22"/>
</g>
<!-- Node4 -->
<g id="node4" class="node">
<title>Node4</title>
<g id="a_node4"><a xlink:href="arrays_8h.html" target="_top" xlink:title="Classes describing arrays, vertices etc.">
<polygon fill="white" stroke="#666666" points="569.5,-185 518.25,-185 518.25,-165.75 569.5,-165.75 569.5,-185"/>
<text text-anchor="middle" x="543.88" y="-171.5" font-family="Helvetica,sans-Serif" font-size="10.00">arrays.h</text>
</a>
</g>
</g>
<!-- Node2&#45;&gt;Node4 -->
<g id="edge3" class="edge">
<title>Node2&#45;&gt;Node4</title>
<path fill="none" stroke="#63b8ff" d="M787.29,-283.44C750.13,-280.24 672.53,-270.22 614.88,-240.25 592.46,-228.6 571.57,-208.19 558.34,-193.57"/>
<polygon fill="#63b8ff" stroke="#63b8ff" points="560.36,-191.57 551.14,-186.35 555.09,-196.18 560.36,-191.57"/>
</g>
<!-- Node12 -->
<g id="node12" class="node">
<title>Node12</title>
<g id="a_node12"><a xlink:title=" ">
<polygon fill="#e0e0e0" stroke="#999999" points="85.75,-240.25 0,-240.25 0,-221 85.75,-221 85.75,-240.25"/>
<text text-anchor="middle" x="42.88" y="-226.75" font-family="Helvetica,sans-Serif" font-size="10.00">arrays/eh_vec.h</text>
</a>
</g>
</g>
<!-- Node2&#45;&gt;Node12 -->
<g id="edge15" class="edge">
<title>Node2&#45;&gt;Node12</title>
<path fill="none" stroke="#63b8ff" d="M787.49,-284.33C701.9,-282.01 375.71,-271.54 96.97,-240.37"/>
<polygon fill="#63b8ff" stroke="#63b8ff" points="97.57,-236.8 87.24,-239.16 96.78,-243.76 97.57,-236.8"/>
</g>
<!-- Node13 -->
<g id="node13" class="node">
<title>Node13</title>
<g id="a_node13"><a xlink:title=" ">
<polygon fill="#e0e0e0" stroke="#999999" points="195.75,-240.25 104,-240.25 104,-221 195.75,-221 195.75,-240.25"/>
<text text-anchor="middle" x="149.88" y="-226.75" font-family="Helvetica,sans-Serif" font-size="10.00">arrays/tensor3d.h</text>
</a>
</g>
</g>
<!-- Node2&#45;&gt;Node13 -->
<g id="edge16" class="edge">
<title>Node2&#45;&gt;Node13</title>
<path fill="none" stroke="#63b8ff" d="M787.34,-283.8C709.44,-279.82 435.09,-264.8 209.88,-240.25 208.89,-240.14 207.9,-240.03 206.9,-239.92"/>
<polygon fill="#63b8ff" stroke="#63b8ff" points="207.37,-236.33 197.02,-238.58 206.52,-243.27 207.37,-236.33"/>
</g>
<!-- Node14 -->
<g id="node14" class="node">
<title>Node14</title>
<g id="a_node14"><a xlink:href="cell__coordinate_8h.html" target="_top" xlink:title="Container for {ijk} or {IJK} grouped variables.">
<polygon fill="white" stroke="#666666" points="1279.62,-185 1190.12,-185 1190.12,-165.75 1279.62,-165.75 1279.62,-185"/>
<text text-anchor="middle" x="1234.88" y="-171.5" font-family="Helvetica,sans-Serif" font-size="10.00">cell_coordinate.h</text>
</a>
</g>
</g>
<!-- Node2&#45;&gt;Node14 -->
<g id="edge17" class="edge">
<title>Node2&#45;&gt;Node14</title>
<path fill="none" stroke="#63b8ff" d="M830.29,-279.42C896.2,-262.63 1097.03,-211.48 1188.55,-188.17"/>
<polygon fill="#63b8ff" stroke="#63b8ff" points="1189.33,-191.33 1198.16,-185.47 1187.6,-184.55 1189.33,-191.33"/>
</g>
<!-- Node17 -->
<g id="node17" class="node">
<title>Node17</title>
<g id="a_node17"><a xlink:href="dimensions_8h.html" target="_top" xlink:title="Defines a class that serves as an explicit converter between MATLAB pointers and array dimensions.">
<polygon fill="white" stroke="#666666" points="1345.75,-240.25 1272,-240.25 1272,-221 1345.75,-221 1345.75,-240.25"/>
<text text-anchor="middle" x="1308.88" y="-226.75" font-family="Helvetica,sans-Serif" font-size="10.00">dimensions.h</text>
</a>
</g>
</g>
<!-- Node2&#45;&gt;Node17 -->
<g id="edge20" class="edge">
<title>Node2&#45;&gt;Node17</title>
<path fill="none" stroke="#63b8ff" d="M830.36,-282.59C905.19,-274.62 1155.55,-247.95 1261.2,-236.7"/>
<polygon fill="#63b8ff" stroke="#63b8ff" points="1261.28,-240.11 1270.85,-235.57 1260.54,-233.15 1261.28,-240.11"/>
</g>
<!-- Node2&#45;&gt;Node18 -->
<g id="edge32" class="edge">
<title>Node2&#45;&gt;Node18</title>
<path fill="none" stroke="#63b8ff" d="M830.46,-284.6C926.83,-283.19 1314.81,-275.34 1354.88,-240.25 1398.88,-201.72 1409.15,-159.28 1376.88,-110.5 1361.9,-87.87 1332.88,-76.68 1309.13,-71.17"/>
<polygon fill="#63b8ff" stroke="#63b8ff" points="1310.16,-67.6 1299.66,-69.01 1308.75,-74.46 1310.16,-67.6"/>
</g>
<!-- Node22 -->
<g id="node22" class="node">
<title>Node22</title>
<g id="a_node22"><a xlink:href="input__flags_8h.html" target="_top" xlink:title="Organises enumerated constants, names, and classes for handling flag&#45;variables that are passed to TDM...">
<polygon fill="white" stroke="#666666" points="1162.62,-185 1091.12,-185 1091.12,-165.75 1162.62,-165.75 1162.62,-185"/>
<text text-anchor="middle" x="1126.88" y="-171.5" font-family="Helvetica,sans-Serif" font-size="10.00">input_flags.h</text>
</a>
</g>
</g>
<!-- Node2&#45;&gt;Node22 -->
<g id="edge25" class="edge">
<title>Node2&#45;&gt;Node22</title>
<path fill="none" stroke="#63b8ff" d="M830.23,-277.59C883.64,-259.37 1023.46,-211.66 1090.28,-188.86"/>
<polygon fill="#63b8ff" stroke="#63b8ff" points="1091.02,-191.96 1099.36,-185.42 1088.76,-185.34 1091.02,-191.96"/>
</g>
<!-- Node23 -->
<g id="node23" class="node">
<title>Node23</title>
<g id="a_node23"><a xlink:href="simulation__parameters_8h.html" target="_top" xlink:title="Classes collecting parameters for the simulation.">
<polygon fill="white" stroke="#666666" points="746.12,-240.25 623.62,-240.25 623.62,-221 746.12,-221 746.12,-240.25"/>
<text text-anchor="middle" x="684.88" y="-226.75" font-family="Helvetica,sans-Serif" font-size="10.00">simulation_parameters.h</text>
</a>
</g>
</g>
<!-- Node2&#45;&gt;Node23 -->
<g id="edge33" class="edge">
<title>Node2&#45;&gt;Node23</title>
<path fill="none" stroke="#63b8ff" d="M787.84,-275.84C768.16,-267.39 738.5,-254.65 716.06,-245.02"/>
<polygon fill="#63b8ff" stroke="#63b8ff" points="717.58,-241.43 707.01,-240.7 714.82,-247.86 717.58,-241.43"/>
</g>
<!-- Node4&#45;&gt;Node3 -->
<g id="edge4" class="edge">
<title>Node4&#45;&gt;Node3</title>
<path fill="none" stroke="#63b8ff" d="M517.94,-173.38C458.69,-170.57 315.8,-160.69 280.88,-129.75 268.43,-118.72 263.97,-99.94 262.45,-85.59"/>
<polygon fill="#63b8ff" stroke="#63b8ff" points="265.89,-85.6 261.76,-75.84 258.91,-86.05 265.89,-85.6"/>
</g>
<!-- Node5 -->
<g id="node5" class="node">
<title>Node5</title>
<g id="a_node5"><a xlink:title=" ">
<polygon fill="#e0e0e0" stroke="#999999" points="907.25,-129.75 848.5,-129.75 848.5,-110.5 907.25,-110.5 907.25,-129.75"/>
<text text-anchor="middle" x="877.88" y="-116.25" font-family="Helvetica,sans-Serif" font-size="10.00">stdexcept</text>
</a>
</g>
</g>
<!-- Node4&#45;&gt;Node5 -->
<g id="edge5" class="edge">
<title>Node4&#45;&gt;Node5</title>
<path fill="none" stroke="#63b8ff" d="M569.63,-170.83C620.46,-163.74 737.23,-147.02 834.88,-129.75 835.83,-129.58 836.79,-129.41 837.76,-129.23"/>
<polygon fill="#63b8ff" stroke="#63b8ff" points="838.12,-132.54 847.3,-127.24 836.82,-125.66 838.12,-132.54"/>
</g>
<!-- Node6 -->
<g id="node6" class="node">
<title>Node6</title>
<g id="a_node6"><a xlink:title=" ">
<polygon fill="#e0e0e0" stroke="#999999" points="653.88,-74.5 613.88,-74.5 613.88,-55.25 653.88,-55.25 653.88,-74.5"/>
<text text-anchor="middle" x="633.88" y="-61" font-family="Helvetica,sans-Serif" font-size="10.00">string</text>
</a>
</g>
</g>
<!-- Node4&#45;&gt;Node6 -->
<g id="edge6" class="edge">
<title>Node4&#45;&gt;Node6</title>
<path fill="none" stroke="#63b8ff" d="M551.24,-165.5C566.14,-147.53 600.09,-106.61 619.52,-83.19"/>
<polygon fill="#63b8ff" stroke="#63b8ff" points="622.72,-85.81 626.41,-75.88 617.33,-81.34 622.72,-85.81"/>
</g>
<!-- Node7 -->
<g id="node7" class="node">
<title>Node7</title>
<g id="a_node7"><a xlink:title=" ">
<polygon fill="#e0e0e0" stroke="#999999" points="937.38,-74.5 894.38,-74.5 894.38,-55.25 937.38,-55.25 937.38,-74.5"/>
<text text-anchor="middle" x="915.88" y="-61" font-family="Helvetica,sans-Serif" font-size="10.00">vector</text>
</a>
</g>
</g>
<!-- Node4&#45;&gt;Node7 -->
<g id="edge7" class="edge">
<title>Node4&#45;&gt;Node7</title>
<path fill="none" stroke="#63b8ff" d="M569.87,-172.79C617.25,-169.28 720.27,-158.71 801.88,-129.75 811.18,-126.45 860.58,-98.08 891.22,-80.27"/>
<polygon fill="#63b8ff" stroke="#63b8ff" points="892.55,-82.97 899.44,-74.91 889.03,-76.92 892.55,-82.97"/>
</g>
<!-- Node8 -->
<g id="node8" class="node">
<title>Node8</title>
<g id="a_node8"><a xlink:title=" ">
<polygon fill="#e0e0e0" stroke="#999999" points="335.88,-129.75 289.88,-129.75 289.88,-110.5 335.88,-110.5 335.88,-129.75"/>
<text text-anchor="middle" x="312.88" y="-116.25" font-family="Helvetica,sans-Serif" font-size="10.00">fftw3.h</text>
</a>
</g>
</g>
<!-- Node4&#45;&gt;Node8 -->
<g id="edge8" class="edge">
<title>Node4&#45;&gt;Node8</title>
<path fill="none" stroke="#63b8ff" d="M518.03,-168.95C481.85,-161.27 413.82,-146.55 346.6,-130.1"/>
<polygon fill="#63b8ff" stroke="#63b8ff" points="347.81,-126.55 337.26,-127.55 346.14,-133.34 347.81,-126.55"/>
</g>
<!-- Node9 -->
<g id="node9" class="node">
<title>Node9</title>
<g id="a_node9"><a xlink:href="globals_8h.html" target="_top" xlink:title="Type definitions and global constants.">
<polygon fill="white" stroke="#666666" points="409.38,-129.75 354.38,-129.75 354.38,-110.5 409.38,-110.5 409.38,-129.75"/>
<text text-anchor="middle" x="381.88" y="-116.25" font-family="Helvetica,sans-Serif" font-size="10.00">globals.h</text>
</a>
</g>
</g>
<!-- Node4&#45;&gt;Node9 -->
<g id="edge9" class="edge">
<title>Node4&#45;&gt;Node9</title>
<path fill="none" stroke="#63b8ff" d="M517.85,-165.82C491.28,-157.09 449.79,-143.45 419.62,-133.53"/>
<polygon fill="#63b8ff" stroke="#63b8ff" points="421.06,-129.99 410.47,-130.19 418.87,-136.64 421.06,-129.99"/>
</g>
<!-- Node10 -->
<g id="node10" class="node">
<title>Node10</title>
<g id="a_node10"><a xlink:title=" ">
<polygon fill="#e0e0e0" stroke="#999999" points="488.38,-129.75 427.38,-129.75 427.38,-110.5 488.38,-110.5 488.38,-129.75"/>
<text text-anchor="middle" x="457.88" y="-116.25" font-family="Helvetica,sans-Serif" font-size="10.00">matlabio.h</text>
</a>
</g>
</g>
<!-- Node4&#45;&gt;Node10 -->
<g id="edge12" class="edge">
<title>Node4&#45;&gt;Node10</title>
<path fill="none" stroke="#63b8ff" d="M529.29,-165.34C516.31,-157.31 497.1,-145.41 481.86,-135.98"/>
<polygon fill="#63b8ff" stroke="#63b8ff" points="483.88,-132.49 473.54,-130.2 480.19,-138.44 483.88,-132.49"/>
</g>
<!-- Node11 -->
<g id="node11" class="node">
<title>Node11</title>
<g id="a_node11"><a xlink:href="utils_8h.html" target="_top" xlink:title="Useful miscellaneous utility functions.">
<polygon fill="white" stroke="#666666" points="549,-129.75 506.75,-129.75 506.75,-110.5 549,-110.5 549,-129.75"/>
<text text-anchor="middle" x="527.88" y="-116.25" font-family="Helvetica,sans-Serif" font-size="10.00">utils.h</text>
</a>
</g>
</g>
<!-- Node4&#45;&gt;Node11 -->
<g id="edge13" class="edge">
<title>Node4&#45;&gt;Node11</title>
<path fill="none" stroke="#63b8ff" d="M541.23,-165.58C539.18,-158.76 536.27,-149.06 533.68,-140.45"/>
<polygon fill="#63b8ff" stroke="#63b8ff" points="536.8,-139.68 530.57,-131.11 530.1,-141.69 536.8,-139.68"/>
</g>
<!-- Node9&#45;&gt;Node3 -->
<g id="edge10" class="edge">
<title>Node9&#45;&gt;Node3</title>
<path fill="none" stroke="#63b8ff" d="M361.52,-110.09C342.56,-101.68 314.03,-89.02 292.35,-79.4"/>
<polygon fill="#63b8ff" stroke="#63b8ff" points="293.89,-75.81 283.33,-74.95 291.05,-82.21 293.89,-75.81"/>
</g>
<!-- Node9&#45;&gt;Node6 -->
<g id="edge11" class="edge">
<title>Node9&#45;&gt;Node6</title>
<path fill="none" stroke="#63b8ff" d="M409.76,-112.35C412.5,-111.71 415.24,-111.09 417.88,-110.5 483.61,-95.84 560.97,-80.26 602.96,-71.94"/>
<polygon fill="#63b8ff" stroke="#63b8ff" points="603.45,-75.22 612.58,-69.85 602.09,-68.35 603.45,-75.22"/>
</g>
<!-- Node11&#45;&gt;Node6 -->
<g id="edge14" class="edge">
<title>Node11&#45;&gt;Node6</title>
<path fill="none" stroke="#63b8ff" d="M545.86,-110.09C562.38,-101.79 587.12,-89.36 606.17,-79.79"/>
<polygon fill="#63b8ff" stroke="#63b8ff" points="607.44,-82.57 614.81,-74.95 604.3,-76.31 607.44,-82.57"/>
</g>
<!-- Node15 -->
<g id="node15" class="node">
<title>Node15</title>
<g id="a_node15"><a xlink:title=" ">
<polygon fill="#e0e0e0" stroke="#999999" points="1277,-129.75 1192.75,-129.75 1192.75,-110.5 1277,-110.5 1277,-129.75"/>
<text text-anchor="middle" x="1234.88" y="-116.25" font-family="Helvetica,sans-Serif" font-size="10.00">spdlog/spdlog.h</text>
</a>
</g>
</g>
<!-- Node14&#45;&gt;Node15 -->
<g id="edge18" class="edge">
<title>Node14&#45;&gt;Node15</title>
<path fill="none" stroke="#63b8ff" d="M1234.88,-165.58C1234.88,-158.92 1234.88,-149.49 1234.88,-141.03"/>
<polygon fill="#63b8ff" stroke="#63b8ff" points="1238.38,-141.11 1234.88,-131.11 1231.38,-141.11 1238.38,-141.11"/>
</g>
<!-- Node16 -->
<g id="node16" class="node">
<title>Node16</title>
<g id="a_node16"><a xlink:title=" ">
<polygon fill="#e0e0e0" stroke="#999999" points="1350.75,-129.75 1295,-129.75 1295,-110.5 1350.75,-110.5 1350.75,-129.75"/>
<text text-anchor="middle" x="1322.88" y="-116.25" font-family="Helvetica,sans-Serif" font-size="10.00">algorithm</text>
</a>
</g>
</g>
<!-- Node14&#45;&gt;Node16 -->
<g id="edge19" class="edge">
<title>Node14&#45;&gt;Node16</title>
<path fill="none" stroke="#63b8ff" d="M1249.8,-165.34C1263.2,-157.23 1283.12,-145.18 1298.77,-135.71"/>
<polygon fill="#63b8ff" stroke="#63b8ff" points="1300.13,-138.37 1306.87,-130.2 1296.51,-132.39 1300.13,-138.37"/>
</g>
<!-- Node17&#45;&gt;Node18 -->
<g id="edge21" class="edge">
<title>Node17&#45;&gt;Node18</title>
<path fill="none" stroke="#63b8ff" d="M1318.51,-220.52C1339.05,-199.98 1383.42,-148.84 1359.88,-110.5 1348.81,-92.48 1327.95,-81.46 1309.32,-74.88"/>
<polygon fill="#63b8ff" stroke="#63b8ff" points="1310.57,-71.29 1299.98,-71.59 1308.45,-77.96 1310.57,-71.29"/>
</g>
<!-- Node19 -->
<g id="node19" class="node">
<title>Node19</title>
<g id="a_node19"><a xlink:title=" ">
<polygon fill="#e0e0e0" stroke="#999999" points="1228.25,-19.25 1187.5,-19.25 1187.5,0 1228.25,0 1228.25,-19.25"/>
<text text-anchor="middle" x="1207.88" y="-5.75" font-family="Helvetica,sans-Serif" font-size="10.00">mat.h</text>
</a>
</g>
</g>
<!-- Node18&#45;&gt;Node19 -->
<g id="edge22" class="edge">
<title>Node18&#45;&gt;Node19</title>
<path fill="none" stroke="#63b8ff" d="M1261.02,-54.84C1251.68,-47.07 1237.98,-35.67 1226.83,-26.4"/>
<polygon fill="#63b8ff" stroke="#63b8ff" points="1229.5,-23.23 1219.57,-19.52 1225.02,-28.61 1229.5,-23.23"/>
</g>
<!-- Node20 -->
<g id="node20" class="node">
<title>Node20</title>
<g id="a_node20"><a xlink:title=" ">
<polygon fill="#e0e0e0" stroke="#999999" points="1297.5,-19.25 1246.25,-19.25 1246.25,0 1297.5,0 1297.5,-19.25"/>
<text text-anchor="middle" x="1271.88" y="-5.75" font-family="Helvetica,sans-Serif" font-size="10.00">matrix.h</text>
</a>
</g>
</g>
<!-- Node18&#45;&gt;Node20 -->
<g id="edge23" class="edge">
<title>Node18&#45;&gt;Node20</title>
<path fill="none" stroke="#63b8ff" d="M1271.88,-55.08C1271.88,-48.42 1271.88,-38.99 1271.88,-30.53"/>
<polygon fill="#63b8ff" stroke="#63b8ff" points="1275.38,-30.61 1271.88,-20.61 1268.38,-30.61 1275.38,-30.61"/>
</g>
<!-- Node21 -->
<g id="node21" class="node">
<title>Node21</title>
<g id="a_node21"><a xlink:title=" ">
<polygon fill="#e0e0e0" stroke="#999999" points="1358.38,-19.25 1315.38,-19.25 1315.38,0 1358.38,0 1358.38,-19.25"/>
<text text-anchor="middle" x="1336.88" y="-5.75" font-family="Helvetica,sans-Serif" font-size="10.00">mex.h</text>
</a>
</g>
</g>
<!-- Node18&#45;&gt;Node21 -->
<g id="edge24" class="edge">
<title>Node18&#45;&gt;Node21</title>
<path fill="none" stroke="#63b8ff" d="M1282.9,-54.84C1292.39,-47.07 1306.3,-35.67 1317.62,-26.4"/>
<polygon fill="#63b8ff" stroke="#63b8ff" points="1319.49,-28.57 1325.01,-19.52 1315.06,-23.15 1319.49,-28.57"/>
</g>
<!-- Node22&#45;&gt;Node5 -->
<g id="edge27" class="edge">
<title>Node22&#45;&gt;Node5</title>
<path fill="none" stroke="#63b8ff" d="M1090.67,-166.63C1044.74,-156.81 965.8,-139.93 918.06,-129.72"/>
<polygon fill="#63b8ff" stroke="#63b8ff" points="919.01,-126.13 908.5,-127.46 917.55,-132.97 919.01,-126.13"/>
</g>
<!-- Node22&#45;&gt;Node6 -->
<g id="edge28" class="edge">
<title>Node22&#45;&gt;Node6</title>
<path fill="none" stroke="#63b8ff" d="M1090.72,-167.44C1055.23,-160.07 999.88,-147.1 953.88,-129.75 936.16,-123.07 933.89,-116.33 915.88,-110.5 827.56,-81.93 717.56,-71.28 664.85,-67.62"/>
<polygon fill="#63b8ff" stroke="#63b8ff" points="665.41,-64.08 655.21,-66.92 664.96,-71.07 665.41,-64.08"/>
</g>
<!-- Node22&#45;&gt;Node7 -->
<g id="edge29" class="edge">
<title>Node22&#45;&gt;Node7</title>
<path fill="none" stroke="#63b8ff" d="M1121.38,-165.52C1112.34,-151.7 1093.01,-125.08 1069.88,-110.5 1032.16,-86.74 981.38,-75.25 948.63,-69.97"/>
<polygon fill="#63b8ff" stroke="#63b8ff" points="949.26,-66.37 938.85,-68.35 948.22,-73.3 949.26,-66.37"/>
</g>
<!-- Node22&#45;&gt;Node15 -->
<g id="edge30" class="edge">
<title>Node22&#45;&gt;Node15</title>
<path fill="none" stroke="#63b8ff" d="M1145.2,-165.34C1162.03,-157.04 1187.24,-144.61 1206.65,-135.04"/>
<polygon fill="#63b8ff" stroke="#63b8ff" points="1208.04,-137.76 1215.46,-130.2 1204.95,-131.49 1208.04,-137.76"/>
</g>
<!-- Node22&#45;&gt;Node16 -->
<g id="edge26" class="edge">
<title>Node22&#45;&gt;Node16</title>
<path fill="none" stroke="#63b8ff" d="M1160.12,-165.34C1194.52,-156 1248.17,-141.42 1284.38,-131.58"/>
<polygon fill="#63b8ff" stroke="#63b8ff" points="1284.83,-134.82 1293.56,-128.82 1282.99,-128.06 1284.83,-134.82"/>
</g>
<!-- Node22&#45;&gt;Node18 -->
<g id="edge31" class="edge">
<title>Node22&#45;&gt;Node18</title>
<path fill="none" stroke="#63b8ff" d="M1133.04,-165.58C1142.67,-152.32 1162.44,-126.99 1183.88,-110.5 1200.56,-97.66 1221.5,-86.87 1238.77,-79.11"/>
<polygon fill="#63b8ff" stroke="#63b8ff" points="1239.68,-82.1 1247.45,-74.91 1236.89,-75.68 1239.68,-82.1"/>
</g>
<!-- Node23&#45;&gt;Node4 -->
<g id="edge35" class="edge">
<title>Node23&#45;&gt;Node4</title>
<path fill="none" stroke="#63b8ff" d="M660.96,-220.59C638.17,-211.99 603.63,-198.94 577.96,-189.25"/>
<polygon fill="#63b8ff" stroke="#63b8ff" points="579.5,-185.71 568.91,-185.45 577.03,-192.26 579.5,-185.71"/>
</g>
<!-- Node23&#45;&gt;Node6 -->
<g id="edge34" class="edge">
<title>Node23&#45;&gt;Node6</title>
<path fill="none" stroke="#63b8ff" d="M682.13,-220.82C674.18,-195.28 650.95,-120.7 639.88,-85.15"/>
<polygon fill="#63b8ff" stroke="#63b8ff" points="642.95,-84.23 636.63,-75.72 636.26,-86.31 642.95,-84.23"/>
</g>
<!-- Node24 -->
<g id="node24" class="node">
<title>Node24</title>
<g id="a_node24"><a xlink:href="input__matrices_8h.html" target="_top" xlink:title="Class handling the input matrices that are read in from the input file.">
<polygon fill="white" stroke="#666666" points="780.88,-185 692.88,-185 692.88,-165.75 780.88,-165.75 780.88,-185"/>
<text text-anchor="middle" x="736.88" y="-171.5" font-family="Helvetica,sans-Serif" font-size="10.00">input_matrices.h</text>
</a>
</g>
</g>
<!-- Node23&#45;&gt;Node24 -->
<g id="edge36" class="edge">
<title>Node23&#45;&gt;Node24</title>
<path fill="none" stroke="#63b8ff" d="M693.46,-220.83C700.79,-213.32 711.55,-202.31 720.52,-193.13"/>
<polygon fill="#63b8ff" stroke="#63b8ff" points="722.62,-195.96 727.1,-186.36 717.61,-191.07 722.62,-195.96"/>
</g>
<!-- Node24&#45;&gt;Node6 -->
<g id="edge37" class="edge">
<title>Node24&#45;&gt;Node6</title>
<path fill="none" stroke="#63b8ff" d="M719.61,-165.3C705.55,-157.31 685.82,-144.63 671.88,-129.75 659.34,-116.38 649.02,-98.18 642.31,-84.63"/>
<polygon fill="#63b8ff" stroke="#63b8ff" points="645.17,-83.49 637.73,-75.94 638.84,-86.48 645.17,-83.49"/>
</g>
<!-- Node24&#45;&gt;Node18 -->
<g id="edge41" class="edge">
<title>Node24&#45;&gt;Node18</title>
<path fill="none" stroke="#63b8ff" d="M781.21,-170.89C845.43,-165.29 967.83,-152.54 1069.88,-129.75 1130.05,-116.31 1198.03,-93.08 1237.79,-78.65"/>
<polygon fill="#63b8ff" stroke="#63b8ff" points="1238.8,-81.64 1246.99,-74.92 1236.4,-75.07 1238.8,-81.64"/>
</g>
<!-- Node25 -->
<g id="node25" class="node">
<title>Node25</title>
<g id="a_node25"><a xlink:href="input__output__names_8h.html" target="_top" xlink:title="Constant values associated with the format of the input and output files and matrices.">
<polygon fill="white" stroke="#666666" points="792.88,-129.75 680.88,-129.75 680.88,-110.5 792.88,-110.5 792.88,-129.75"/>
<text text-anchor="middle" x="736.88" y="-116.25" font-family="Helvetica,sans-Serif" font-size="10.00">input_output_names.h</text>
</a>
</g>
</g>
<!-- Node24&#45;&gt;Node25 -->
<g id="edge38" class="edge">
<title>Node24&#45;&gt;Node25</title>
<path fill="none" stroke="#63b8ff" d="M736.88,-165.58C736.88,-158.92 736.88,-149.49 736.88,-141.03"/>
<polygon fill="#63b8ff" stroke="#63b8ff" points="740.38,-141.11 736.88,-131.11 733.38,-141.11 740.38,-141.11"/>
</g>
<!-- Node26 -->
<g id="node26" class="node">
<title>Node26</title>
<g id="a_node26"><a xlink:href="matrix__collection_8h.html" target="_top" xlink:title="A collection of named MATLAB matrices.">
<polygon fill="white" stroke="#666666" points="1060.75,-129.75 963,-129.75 963,-110.5 1060.75,-110.5 1060.75,-129.75"/>
<text text-anchor="middle" x="1011.88" y="-116.25" font-family="Helvetica,sans-Serif" font-size="10.00">matrix_collection.h</text>
</a>
</g>
</g>
<!-- Node24&#45;&gt;Node26 -->
<g id="edge42" class="edge">
<title>Node24&#45;&gt;Node26</title>
<path fill="none" stroke="#63b8ff" d="M781.36,-165.76C828.48,-156.64 903.03,-142.2 954.53,-132.23"/>
<polygon fill="#63b8ff" stroke="#63b8ff" points="955,-135.51 964.15,-130.17 953.67,-128.64 955,-135.51"/>
</g>
<!-- Node25&#45;&gt;Node6 -->
<g id="edge39" class="edge">
<title>Node25&#45;&gt;Node6</title>
<path fill="none" stroke="#63b8ff" d="M719.4,-110.09C703.42,-101.83 679.53,-89.48 661.05,-79.93"/>
<polygon fill="#63b8ff" stroke="#63b8ff" points="662.92,-76.44 652.43,-74.95 659.71,-82.65 662.92,-76.44"/>
</g>
<!-- Node25&#45;&gt;Node7 -->
<g id="edge40" class="edge">
<title>Node25&#45;&gt;Node7</title>
<path fill="none" stroke="#63b8ff" d="M767.24,-110.09C799.59,-100.47 850.6,-85.29 883.65,-75.46"/>
<polygon fill="#63b8ff" stroke="#63b8ff" points="884.53,-78.56 893.11,-72.35 882.53,-71.85 884.53,-78.56"/>
</g>
<!-- Node26&#45;&gt;Node6 -->
<g id="edge43" class="edge">
<title>Node26&#45;&gt;Node6</title>
<path fill="none" stroke="#63b8ff" d="M962.85,-112.22C883.89,-101.09 730.78,-79.53 665.06,-70.27"/>
<polygon fill="#63b8ff" stroke="#63b8ff" points="665.6,-66.67 655.21,-68.74 664.62,-73.6 665.6,-66.67"/>
</g>
<!-- Node26&#45;&gt;Node7 -->
<g id="edge44" class="edge">
<title>Node26&#45;&gt;Node7</title>
<path fill="none" stroke="#63b8ff" d="M995.59,-110.09C980.83,-101.91 958.84,-89.71 941.69,-80.19"/>
<polygon fill="#63b8ff" stroke="#63b8ff" points="943.68,-76.74 933.24,-74.95 940.29,-82.86 943.68,-76.74"/>
</g>
<!-- Node26&#45;&gt;Node18 -->
<g id="edge45" class="edge">
<title>Node26&#45;&gt;Node18</title>
<path fill="none" stroke="#63b8ff" d="M1056.28,-110.03C1106.36,-99.77 1186.96,-83.27 1234.13,-73.61"/>
<polygon fill="#63b8ff" stroke="#63b8ff" points="1234.7,-76.86 1243.79,-71.42 1233.29,-70 1234.7,-76.86"/>
</g>
</g>
</svg>
