<?xml version="1.0" encoding="UTF-8" standalone="no"?>
<!DOCTYPE svg PUBLIC "-//W3C//DTD SVG 1.1//EN"
 "http://www.w3.org/Graphics/SVG/1.1/DTD/svg11.dtd">
<!-- Generated by graphviz version 8.0.5 (20230430.1635)
 -->
<!-- Title: tdms/include/array_init.h Pages: 1 -->
<svg width="925pt" height="370pt"
 viewBox="0.00 0.00 924.84 370.00" xmlns="http://www.w3.org/2000/svg" xmlns:xlink="http://www.w3.org/1999/xlink">
<g id="graph0" class="graph" transform="scale(1 1) rotate(0) translate(4 366)">
<title>tdms/include/array_init.h</title>
<!-- Node1 -->
<g id="node1" class="node">
<title>Node1</title>
<g id="a_node1"><a xlink:title="A collection of functions for array initialisation given MATLAB pointers.">
<polygon fill="#999999" stroke="#666666" points="746.97,-362 650.72,-362 650.72,-331.5 746.97,-331.5 746.97,-362"/>
<text text-anchor="start" x="658.72" y="-348.5" font-family="Helvetica,sans-Serif" font-size="10.00">tdms/include/array</text>
<text text-anchor="middle" x="698.84" y="-337.25" font-family="Helvetica,sans-Serif" font-size="10.00">_init.h</text>
</a>
</g>
</g>
<!-- Node2 -->
<g id="node2" class="node">
<title>Node2</title>
<g id="a_node2"><a xlink:href="field_8h.html" target="_top" xlink:title="Classes for the electric and magnetic (split) fields on a grid.">
<polygon fill="white" stroke="#666666" points="589.97,-295.5 547.72,-295.5 547.72,-276.25 589.97,-276.25 589.97,-295.5"/>
<text text-anchor="middle" x="568.84" y="-282" font-family="Helvetica,sans-Serif" font-size="10.00">field.h</text>
</a>
</g>
</g>
<!-- Node1&#45;&gt;Node2 -->
<g id="edge1" class="edge">
<title>Node1&#45;&gt;Node2</title>
<path fill="none" stroke="#63b8ff" d="M666.37,-331.05C645.62,-321.65 618.92,-309.55 598.7,-300.39"/>
<polygon fill="#63b8ff" stroke="#63b8ff" points="600.33,-296.84 589.78,-295.9 597.44,-303.22 600.33,-296.84"/>
</g>
<!-- Node15 -->
<g id="node15" class="node">
<title>Node15</title>
<g id="a_node15"><a xlink:href="mat__io_8h.html" target="_top" xlink:title="Includes MATLAB headers for I/O.">
<polygon fill="white" stroke="#666666" points="840.59,-74.5 787.09,-74.5 787.09,-55.25 840.59,-55.25 840.59,-74.5"/>
<text text-anchor="middle" x="813.84" y="-61" font-family="Helvetica,sans-Serif" font-size="10.00">mat_io.h</text>
</a>
</g>
</g>
<!-- Node1&#45;&gt;Node15 -->
<g id="edge37" class="edge">
<title>Node1&#45;&gt;Node15</title>
<path fill="none" stroke="#63b8ff" d="M747.22,-341.6C811.45,-333.14 916.84,-307.67 916.84,-231.62 916.84,-231.62 916.84,-231.62 916.84,-174.38 916.84,-130.78 872.57,-97.71 842.08,-80.11"/>
<polygon fill="#63b8ff" stroke="#63b8ff" points="844.18,-76.72 833.73,-74.94 840.79,-82.84 844.18,-76.72"/>
</g>
<!-- Node3 -->
<g id="node3" class="node">
<title>Node3</title>
<g id="a_node3"><a xlink:title=" ">
<polygon fill="#e0e0e0" stroke="#999999" points="67.22,-74.5 14.47,-74.5 14.47,-55.25 67.22,-55.25 67.22,-74.5"/>
<text text-anchor="middle" x="40.84" y="-61" font-family="Helvetica,sans-Serif" font-size="10.00">complex</text>
</a>
</g>
</g>
<!-- Node2&#45;&gt;Node3 -->
<g id="edge2" class="edge">
<title>Node2&#45;&gt;Node3</title>
<path fill="none" stroke="#63b8ff" d="M547.37,-282.66C501.53,-277.62 390.95,-263.91 300.84,-240.25 164.62,-204.48 83.76,-245.72 3.84,-129.75 -6.98,-114.05 7.28,-95.02 21.12,-81.84"/>
<polygon fill="#63b8ff" stroke="#63b8ff" points="22.87,-85.08 28.03,-75.82 18.22,-79.84 22.87,-85.08"/>
</g>
<!-- Node4 -->
<g id="node4" class="node">
<title>Node4</title>
<g id="a_node4"><a xlink:href="arrays_8h.html" target="_top" xlink:title="Classes describing arrays, vertices etc.">
<polygon fill="white" stroke="#666666" points="323.47,-185 272.22,-185 272.22,-165.75 323.47,-165.75 323.47,-185"/>
<text text-anchor="middle" x="297.84" y="-171.5" font-family="Helvetica,sans-Serif" font-size="10.00">arrays.h</text>
</a>
</g>
</g>
<!-- Node2&#45;&gt;Node4 -->
<g id="edge3" class="edge">
<title>Node2&#45;&gt;Node4</title>
<path fill="none" stroke="#63b8ff" d="M547.49,-281.3C514.91,-275.39 451.27,-262.01 400.84,-240.25 370.63,-227.21 338.88,-206.26 318.76,-191.94"/>
<polygon fill="#63b8ff" stroke="#63b8ff" points="321.02,-188.53 310.87,-185.5 316.92,-194.2 321.02,-188.53"/>
</g>
<!-- Node8 -->
<g id="node8" class="node">
<title>Node8</title>
<g id="a_node8"><a xlink:href="globals_8h.html" target="_top" xlink:title="Type definitions and global constants.">
<polygon fill="white" stroke="#666666" points="68.34,-129.75 13.34,-129.75 13.34,-110.5 68.34,-110.5 68.34,-129.75"/>
<text text-anchor="middle" x="40.84" y="-116.25" font-family="Helvetica,sans-Serif" font-size="10.00">globals.h</text>
</a>
</g>
</g>
<!-- Node2&#45;&gt;Node8 -->
<g id="edge22" class="edge">
<title>Node2&#45;&gt;Node8</title>
<path fill="none" stroke="#63b8ff" d="M547.43,-281.3C509.58,-274.76 428.54,-259.71 361.84,-240.25 253.28,-208.58 128.8,-158.2 72.02,-134.4"/>
<polygon fill="#63b8ff" stroke="#63b8ff" points="73.48,-130.8 62.9,-130.14 70.76,-137.25 73.48,-130.8"/>
</g>
<!-- Node11 -->
<g id="node11" class="node">
<title>Node11</title>
<g id="a_node11"><a xlink:href="cell__coordinate_8h.html" target="_top" xlink:title="Container for {ijk} or {IJK} grouped variables.">
<polygon fill="white" stroke="#666666" points="675.59,-240.25 586.09,-240.25 586.09,-221 675.59,-221 675.59,-240.25"/>
<text text-anchor="middle" x="630.84" y="-226.75" font-family="Helvetica,sans-Serif" font-size="10.00">cell_coordinate.h</text>
</a>
</g>
</g>
<!-- Node2&#45;&gt;Node11 -->
<g id="edge14" class="edge">
<title>Node2&#45;&gt;Node11</title>
<path fill="none" stroke="#63b8ff" d="M579.36,-275.84C588.32,-268.15 601.42,-256.9 612.16,-247.68"/>
<polygon fill="#63b8ff" stroke="#63b8ff" points="614.17,-249.7 619.48,-240.52 609.61,-244.39 614.17,-249.7"/>
</g>
<!-- Node14 -->
<g id="node14" class="node">
<title>Node14</title>
<g id="a_node14"><a xlink:href="dimensions_8h.html" target="_top" xlink:title="Defines a class that serves as an explicit converter between MATLAB pointers and array dimensions.">
<polygon fill="white" stroke="#666666" points="888.72,-240.25 814.97,-240.25 814.97,-221 888.72,-221 888.72,-240.25"/>
<text text-anchor="middle" x="851.84" y="-226.75" font-family="Helvetica,sans-Serif" font-size="10.00">dimensions.h</text>
</a>
</g>
</g>
<!-- Node2&#45;&gt;Node14 -->
<g id="edge17" class="edge">
<title>Node2&#45;&gt;Node14</title>
<path fill="none" stroke="#63b8ff" d="M590.11,-280.87C635.22,-272.38 741.45,-252.4 803.83,-240.66"/>
<polygon fill="#63b8ff" stroke="#63b8ff" points="804.38,-243.93 813.56,-238.64 803.09,-237.05 804.38,-243.93"/>
</g>
<!-- Node2&#45;&gt;Node15 -->
<g id="edge23" class="edge">
<title>Node2&#45;&gt;Node15</title>
<path fill="none" stroke="#63b8ff" d="M590.2,-280.53C631.56,-270.96 722.66,-244.06 769.84,-185 793.73,-155.1 805.46,-110.97 810.53,-85.66"/>
<polygon fill="#63b8ff" stroke="#63b8ff" points="814.14,-86.36 812.51,-75.9 807.26,-85.1 814.14,-86.36"/>
</g>
<!-- Node19 -->
<g id="node19" class="node">
<title>Node19</title>
<g id="a_node19"><a xlink:href="simulation__parameters_8h.html" target="_top" xlink:title="Classes collecting parameters for the simulation.">
<polygon fill="white" stroke="#666666" points="532.09,-240.25 409.59,-240.25 409.59,-221 532.09,-221 532.09,-240.25"/>
<text text-anchor="middle" x="470.84" y="-226.75" font-family="Helvetica,sans-Serif" font-size="10.00">simulation_parameters.h</text>
</a>
</g>
</g>
<!-- Node2&#45;&gt;Node19 -->
<g id="edge24" class="edge">
<title>Node2&#45;&gt;Node19</title>
<path fill="none" stroke="#63b8ff" d="M552.22,-275.84C537.15,-267.66 514.7,-255.46 497.19,-245.94"/>
<polygon fill="#63b8ff" stroke="#63b8ff" points="499.01,-242.4 488.55,-240.7 495.66,-248.55 499.01,-242.4"/>
</g>
<!-- Node4&#45;&gt;Node3 -->
<g id="edge4" class="edge">
<title>Node4&#45;&gt;Node3</title>
<path fill="none" stroke="#63b8ff" d="M271.81,-171.82C235.25,-167.4 167.39,-156.13 115.84,-129.75 92.42,-117.77 70.07,-97.12 55.96,-82.55"/>
<polygon fill="#63b8ff" stroke="#63b8ff" points="59.06,-80.68 49.66,-75.79 53.96,-85.47 59.06,-80.68"/>
</g>
<!-- Node5 -->
<g id="node5" class="node">
<title>Node5</title>
<g id="a_node5"><a xlink:title=" ">
<polygon fill="#e0e0e0" stroke="#999999" points="327.22,-129.75 268.47,-129.75 268.47,-110.5 327.22,-110.5 327.22,-129.75"/>
<text text-anchor="middle" x="297.84" y="-116.25" font-family="Helvetica,sans-Serif" font-size="10.00">stdexcept</text>
</a>
</g>
</g>
<!-- Node4&#45;&gt;Node5 -->
<g id="edge5" class="edge">
<title>Node4&#45;&gt;Node5</title>
<path fill="none" stroke="#63b8ff" d="M297.84,-165.58C297.84,-158.92 297.84,-149.49 297.84,-141.03"/>
<polygon fill="#63b8ff" stroke="#63b8ff" points="301.34,-141.11 297.84,-131.11 294.34,-141.11 301.34,-141.11"/>
</g>
<!-- Node6 -->
<g id="node6" class="node">
<title>Node6</title>
<g id="a_node6"><a xlink:title=" ">
<polygon fill="#e0e0e0" stroke="#999999" points="473.84,-74.5 433.84,-74.5 433.84,-55.25 473.84,-55.25 473.84,-74.5"/>
<text text-anchor="middle" x="453.84" y="-61" font-family="Helvetica,sans-Serif" font-size="10.00">string</text>
</a>
</g>
</g>
<!-- Node4&#45;&gt;Node6 -->
<g id="edge6" class="edge">
<title>Node4&#45;&gt;Node6</title>
<path fill="none" stroke="#63b8ff" d="M323.82,-166.06C344.77,-158.59 374.34,-146.25 396.84,-129.75 414.56,-116.75 430.83,-97.46 441.41,-83.48"/>
<polygon fill="#63b8ff" stroke="#63b8ff" points="444.69,-85.93 447.78,-75.79 439.04,-81.79 444.69,-85.93"/>
</g>
<!-- Node7 -->
<g id="node7" class="node">
<title>Node7</title>
<g id="a_node7"><a xlink:title=" ">
<polygon fill="#e0e0e0" stroke="#999999" points="170.84,-129.75 124.84,-129.75 124.84,-110.5 170.84,-110.5 170.84,-129.75"/>
<text text-anchor="middle" x="147.84" y="-116.25" font-family="Helvetica,sans-Serif" font-size="10.00">fftw3.h</text>
</a>
</g>
</g>
<!-- Node4&#45;&gt;Node7 -->
<g id="edge7" class="edge">
<title>Node4&#45;&gt;Node7</title>
<path fill="none" stroke="#63b8ff" d="M272.4,-165.34C247.31,-156.44 208.83,-142.78 181.28,-133"/>
<polygon fill="#63b8ff" stroke="#63b8ff" points="182.54,-129.37 171.95,-129.33 180.2,-135.97 182.54,-129.37"/>
</g>
<!-- Node4&#45;&gt;Node8 -->
<g id="edge8" class="edge">
<title>Node4&#45;&gt;Node8</title>
<path fill="none" stroke="#63b8ff" d="M271.79,-168.98C226.28,-159.55 132.12,-140.04 79.16,-129.06"/>
<polygon fill="#63b8ff" stroke="#63b8ff" points="80.02,-125.46 69.52,-126.86 78.6,-132.32 80.02,-125.46"/>
</g>
<!-- Node9 -->
<g id="node9" class="node">
<title>Node9</title>
<g id="a_node9"><a xlink:title=" ">
<polygon fill="#e0e0e0" stroke="#999999" points="250.34,-129.75 189.34,-129.75 189.34,-110.5 250.34,-110.5 250.34,-129.75"/>
<text text-anchor="middle" x="219.84" y="-116.25" font-family="Helvetica,sans-Serif" font-size="10.00">matlabio.h</text>
</a>
</g>
</g>
<!-- Node4&#45;&gt;Node9 -->
<g id="edge11" class="edge">
<title>Node4&#45;&gt;Node9</title>
<path fill="none" stroke="#63b8ff" d="M284.61,-165.34C272.96,-157.39 255.75,-145.64 242,-136.25"/>
<polygon fill="#63b8ff" stroke="#63b8ff" points="244.37,-132.95 234.14,-130.2 240.42,-138.73 244.37,-132.95"/>
</g>
<!-- Node10 -->
<g id="node10" class="node">
<title>Node10</title>
<g id="a_node10"><a xlink:href="utils_8h.html" target="_top" xlink:title="Useful miscellaneous utility functions.">
<polygon fill="white" stroke="#666666" points="387.97,-129.75 345.72,-129.75 345.72,-110.5 387.97,-110.5 387.97,-129.75"/>
<text text-anchor="middle" x="366.84" y="-116.25" font-family="Helvetica,sans-Serif" font-size="10.00">utils.h</text>
</a>
</g>
</g>
<!-- Node4&#45;&gt;Node10 -->
<g id="edge12" class="edge">
<title>Node4&#45;&gt;Node10</title>
<path fill="none" stroke="#63b8ff" d="M309.55,-165.34C319.72,-157.49 334.68,-145.95 346.76,-136.62"/>
<polygon fill="#63b8ff" stroke="#63b8ff" points="348.53,-138.91 354.31,-130.02 344.26,-133.36 348.53,-138.91"/>
</g>
<!-- Node8&#45;&gt;Node3 -->
<g id="edge9" class="edge">
<title>Node8&#45;&gt;Node3</title>
<path fill="none" stroke="#63b8ff" d="M40.84,-110.33C40.84,-103.67 40.84,-94.24 40.84,-85.78"/>
<polygon fill="#63b8ff" stroke="#63b8ff" points="44.34,-85.86 40.84,-75.86 37.34,-85.86 44.34,-85.86"/>
</g>
<!-- Node8&#45;&gt;Node6 -->
<g id="edge10" class="edge">
<title>Node8&#45;&gt;Node6</title>
<path fill="none" stroke="#63b8ff" d="M68.58,-115.55C142.71,-105.99 345.02,-79.91 422.8,-69.88"/>
<polygon fill="#63b8ff" stroke="#63b8ff" points="422.88,-73.27 432.35,-68.52 421.98,-66.33 422.88,-73.27"/>
</g>
<!-- Node10&#45;&gt;Node6 -->
<g id="edge13" class="edge">
<title>Node10&#45;&gt;Node6</title>
<path fill="none" stroke="#63b8ff" d="M381.6,-110.09C394.85,-101.98 414.54,-89.93 430.01,-80.46"/>
<polygon fill="#63b8ff" stroke="#63b8ff" points="431.31,-83.16 438.01,-74.95 427.66,-77.19 431.31,-83.16"/>
</g>
<!-- Node12 -->
<g id="node12" class="node">
<title>Node12</title>
<g id="a_node12"><a xlink:title=" ">
<polygon fill="#e0e0e0" stroke="#999999" points="760.97,-185 676.72,-185 676.72,-165.75 760.97,-165.75 760.97,-185"/>
<text text-anchor="middle" x="718.84" y="-171.5" font-family="Helvetica,sans-Serif" font-size="10.00">spdlog/spdlog.h</text>
</a>
</g>
</g>
<!-- Node11&#45;&gt;Node12 -->
<g id="edge15" class="edge">
<title>Node11&#45;&gt;Node12</title>
<path fill="none" stroke="#63b8ff" d="M645.77,-220.59C659.17,-212.48 679.08,-200.43 694.74,-190.96"/>
<polygon fill="#63b8ff" stroke="#63b8ff" points="696.1,-193.62 702.84,-185.45 692.47,-187.64 696.1,-193.62"/>
</g>
<!-- Node13 -->
<g id="node13" class="node">
<title>Node13</title>
<g id="a_node13"><a xlink:title=" ">
<polygon fill="#e0e0e0" stroke="#999999" points="658.72,-185 602.97,-185 602.97,-165.75 658.72,-165.75 658.72,-185"/>
<text text-anchor="middle" x="630.84" y="-171.5" font-family="Helvetica,sans-Serif" font-size="10.00">algorithm</text>
</a>
</g>
</g>
<!-- Node11&#45;&gt;Node13 -->
<g id="edge16" class="edge">
<title>Node11&#45;&gt;Node13</title>
<path fill="none" stroke="#63b8ff" d="M630.84,-220.83C630.84,-214.17 630.84,-204.74 630.84,-196.28"/>
<polygon fill="#63b8ff" stroke="#63b8ff" points="634.34,-196.36 630.84,-186.36 627.34,-196.36 634.34,-196.36"/>
</g>
<!-- Node14&#45;&gt;Node15 -->
<g id="edge18" class="edge">
<title>Node14&#45;&gt;Node15</title>
<path fill="none" stroke="#63b8ff" d="M850.36,-220.59C847,-200.59 838.29,-151.16 827.84,-110.5 825.67,-102.05 822.85,-92.82 820.32,-84.97"/>
<polygon fill="#63b8ff" stroke="#63b8ff" points="823.38,-84.08 816.91,-75.69 816.73,-86.28 823.38,-84.08"/>
</g>
<!-- Node16 -->
<g id="node16" class="node">
<title>Node16</title>
<g id="a_node16"><a xlink:title=" ">
<polygon fill="#e0e0e0" stroke="#999999" points="770.22,-19.25 729.47,-19.25 729.47,0 770.22,0 770.22,-19.25"/>
<text text-anchor="middle" x="749.84" y="-5.75" font-family="Helvetica,sans-Serif" font-size="10.00">mat.h</text>
</a>
</g>
</g>
<!-- Node15&#45;&gt;Node16 -->
<g id="edge19" class="edge">
<title>Node15&#45;&gt;Node16</title>
<path fill="none" stroke="#63b8ff" d="M802.99,-54.84C793.64,-47.07 779.95,-35.67 768.8,-26.4"/>
<polygon fill="#63b8ff" stroke="#63b8ff" points="771.46,-23.23 761.54,-19.52 766.99,-28.61 771.46,-23.23"/>
</g>
<!-- Node17 -->
<g id="node17" class="node">
<title>Node17</title>
<g id="a_node17"><a xlink:title=" ">
<polygon fill="#e0e0e0" stroke="#999999" points="839.47,-19.25 788.22,-19.25 788.22,0 839.47,0 839.47,-19.25"/>
<text text-anchor="middle" x="813.84" y="-5.75" font-family="Helvetica,sans-Serif" font-size="10.00">matrix.h</text>
</a>
</g>
</g>
<!-- Node15&#45;&gt;Node17 -->
<g id="edge20" class="edge">
<title>Node15&#45;&gt;Node17</title>
<path fill="none" stroke="#63b8ff" d="M813.84,-55.08C813.84,-48.42 813.84,-38.99 813.84,-30.53"/>
<polygon fill="#63b8ff" stroke="#63b8ff" points="817.34,-30.61 813.84,-20.61 810.34,-30.61 817.34,-30.61"/>
</g>
<!-- Node18 -->
<g id="node18" class="node">
<title>Node18</title>
<g id="a_node18"><a xlink:title=" ">
<polygon fill="#e0e0e0" stroke="#999999" points="900.34,-19.25 857.34,-19.25 857.34,0 900.34,0 900.34,-19.25"/>
<text text-anchor="middle" x="878.84" y="-5.75" font-family="Helvetica,sans-Serif" font-size="10.00">mex.h</text>
</a>
</g>
</g>
<!-- Node15&#45;&gt;Node18 -->
<g id="edge21" class="edge">
<title>Node15&#45;&gt;Node18</title>
<path fill="none" stroke="#63b8ff" d="M824.87,-54.84C834.36,-47.07 848.27,-35.67 859.59,-26.4"/>
<polygon fill="#63b8ff" stroke="#63b8ff" points="861.46,-28.57 866.98,-19.52 857.03,-23.15 861.46,-28.57"/>
</g>
<!-- Node19&#45;&gt;Node4 -->
<g id="edge26" class="edge">
<title>Node19&#45;&gt;Node4</title>
<path fill="none" stroke="#63b8ff" d="M441.5,-220.59C411.87,-211.47 366.07,-197.38 334.17,-187.56"/>
<polygon fill="#63b8ff" stroke="#63b8ff" points="335.52,-184 324.93,-184.41 333.46,-190.69 335.52,-184"/>
</g>
<!-- Node19&#45;&gt;Node6 -->
<g id="edge25" class="edge">
<title>Node19&#45;&gt;Node6</title>
<path fill="none" stroke="#63b8ff" d="M469.93,-220.82C467.29,-195.39 459.6,-121.35 455.89,-85.62"/>
<polygon fill="#63b8ff" stroke="#63b8ff" points="459.28,-85.31 454.76,-75.72 452.31,-86.03 459.28,-85.31"/>
</g>
<!-- Node20 -->
<g id="node20" class="node">
<title>Node20</title>
<g id="a_node20"><a xlink:href="input__matrices_8h.html" target="_top" xlink:title="Class handling the input matrices that are read in from the input file.">
<polygon fill="white" stroke="#666666" points="584.84,-185 496.84,-185 496.84,-165.75 584.84,-165.75 584.84,-185"/>
<text text-anchor="middle" x="540.84" y="-171.5" font-family="Helvetica,sans-Serif" font-size="10.00">input_matrices.h</text>
</a>
</g>
</g>
<!-- Node19&#45;&gt;Node20 -->
<g id="edge27" class="edge">
<title>Node19&#45;&gt;Node20</title>
<path fill="none" stroke="#63b8ff" d="M482.72,-220.59C493.04,-212.74 508.21,-201.2 520.47,-191.87"/>
<polygon fill="#63b8ff" stroke="#63b8ff" points="522.3,-194.11 528.14,-185.27 518.07,-188.54 522.3,-194.11"/>
</g>
<!-- Node20&#45;&gt;Node6 -->
<g id="edge28" class="edge">
<title>Node20&#45;&gt;Node6</title>
<path fill="none" stroke="#63b8ff" d="M533.72,-165.5C519.32,-147.53 486.51,-106.61 467.72,-83.19"/>
<polygon fill="#63b8ff" stroke="#63b8ff" points="470.05,-81.49 461.06,-75.88 464.59,-85.87 470.05,-81.49"/>
</g>
<!-- Node20&#45;&gt;Node15 -->
<g id="edge32" class="edge">
<title>Node20&#45;&gt;Node15</title>
<path fill="none" stroke="#63b8ff" d="M585.16,-166.75C643.97,-156.41 742.12,-138.24 756.84,-129.75 776.09,-118.65 792.3,-98.73 802.45,-84.08"/>
<polygon fill="#63b8ff" stroke="#63b8ff" points="805.89,-86.22 808.47,-75.95 800.05,-82.37 805.89,-86.22"/>
</g>
<!-- Node21 -->
<g id="node21" class="node">
<title>Node21</title>
<g id="a_node21"><a xlink:href="input__output__names_8h.html" target="_top" xlink:title="Constant values associated with the format of the input and output files and matrices.">
<polygon fill="white" stroke="#666666" points="631.84,-129.75 519.84,-129.75 519.84,-110.5 631.84,-110.5 631.84,-129.75"/>
<text text-anchor="middle" x="575.84" y="-116.25" font-family="Helvetica,sans-Serif" font-size="10.00">input_output_names.h</text>
</a>
</g>
</g>
<!-- Node20&#45;&gt;Node21 -->
<g id="edge29" class="edge">
<title>Node20&#45;&gt;Node21</title>
<path fill="none" stroke="#63b8ff" d="M546.62,-165.58C551.31,-158.46 558.06,-148.18 563.9,-139.3"/>
<polygon fill="#63b8ff" stroke="#63b8ff" points="567.37,-141.39 569.94,-131.11 561.52,-137.54 567.37,-141.39"/>
</g>
<!-- Node23 -->
<g id="node23" class="node">
<title>Node23</title>
<g id="a_node23"><a xlink:href="matrix__collection_8h.html" target="_top" xlink:title="A collection of named MATLAB matrices.">
<polygon fill="white" stroke="#666666" points="747.72,-129.75 649.97,-129.75 649.97,-110.5 747.72,-110.5 747.72,-129.75"/>
<text text-anchor="middle" x="698.84" y="-116.25" font-family="Helvetica,sans-Serif" font-size="10.00">matrix_collection.h</text>
</a>
</g>
</g>
<!-- Node20&#45;&gt;Node23 -->
<g id="edge33" class="edge">
<title>Node20&#45;&gt;Node23</title>
<path fill="none" stroke="#63b8ff" d="M567.65,-165.34C593.52,-156.62 632.92,-143.34 661.79,-133.61"/>
<polygon fill="#63b8ff" stroke="#63b8ff" points="662.55,-136.71 670.91,-130.2 660.31,-130.08 662.55,-136.71"/>
</g>
<!-- Node21&#45;&gt;Node6 -->
<g id="edge30" class="edge">
<title>Node21&#45;&gt;Node6</title>
<path fill="none" stroke="#63b8ff" d="M555.15,-110.09C535.66,-101.59 506.25,-88.75 484.13,-79.09"/>
<polygon fill="#63b8ff" stroke="#63b8ff" points="485.8,-75.57 475.23,-74.77 483,-81.98 485.8,-75.57"/>
</g>
<!-- Node22 -->
<g id="node22" class="node">
<title>Node22</title>
<g id="a_node22"><a xlink:title=" ">
<polygon fill="#e0e0e0" stroke="#999999" points="658.34,-74.5 615.34,-74.5 615.34,-55.25 658.34,-55.25 658.34,-74.5"/>
<text text-anchor="middle" x="636.84" y="-61" font-family="Helvetica,sans-Serif" font-size="10.00">vector</text>
</a>
</g>
</g>
<!-- Node21&#45;&gt;Node22 -->
<g id="edge31" class="edge">
<title>Node21&#45;&gt;Node22</title>
<path fill="none" stroke="#63b8ff" d="M586.19,-110.09C595.01,-102.4 607.89,-91.15 618.46,-81.93"/>
<polygon fill="#63b8ff" stroke="#63b8ff" points="620.42,-83.99 625.65,-74.77 615.81,-78.71 620.42,-83.99"/>
</g>
<!-- Node23&#45;&gt;Node6 -->
<g id="edge34" class="edge">
<title>Node23&#45;&gt;Node6</title>
<path fill="none" stroke="#63b8ff" d="M657,-110.03C608.1,-99.4 528.31,-82.06 484.7,-72.58"/>
<polygon fill="#63b8ff" stroke="#63b8ff" points="485.69,-69 475.18,-70.3 484.21,-75.84 485.69,-69"/>
</g>
<!-- Node23&#45;&gt;Node15 -->
<g id="edge36" class="edge">
<title>Node23&#45;&gt;Node15</title>
<path fill="none" stroke="#63b8ff" d="M718.35,-110.09C736.44,-101.72 763.61,-89.13 784.35,-79.53"/>
<polygon fill="#63b8ff" stroke="#63b8ff" points="785.64,-82.33 793.24,-74.95 782.69,-75.98 785.64,-82.33"/>
</g>
<!-- Node23&#45;&gt;Node22 -->
<g id="edge35" class="edge">
<title>Node23&#45;&gt;Node22</title>
<path fill="none" stroke="#63b8ff" d="M688.33,-110.09C679.36,-102.4 666.27,-91.15 655.53,-81.93"/>
<polygon fill="#63b8ff" stroke="#63b8ff" points="658.07,-78.64 648.2,-74.77 653.51,-83.95 658.07,-78.64"/>
</g>
</g>
</svg>
