<?xml version="1.0" encoding="UTF-8" standalone="no"?>
<!DOCTYPE svg PUBLIC "-//W3C//DTD SVG 1.1//EN"
 "http://www.w3.org/Graphics/SVG/1.1/DTD/svg11.dtd">
<!-- Generated by graphviz version 8.0.4 (20230421.1958)
 -->
<!-- Title: tdms/include/array_init.h Pages: 1 -->
<svg width="1216pt" height="370pt"
 viewBox="0.00 0.00 1216.38 370.00" xmlns="http://www.w3.org/2000/svg" xmlns:xlink="http://www.w3.org/1999/xlink">
<g id="graph0" class="graph" transform="scale(1 1) rotate(0) translate(4 366)">
<title>tdms/include/array_init.h</title>
<!-- Node1 -->
<g id="node1" class="node">
<title>Node1</title>
<g id="a_node1"><a xlink:title="A collection of functions for array initialisation given MATLAB pointers.">
<polygon fill="#999999" stroke="#666666" points="1094.5,-362 998.25,-362 998.25,-331.5 1094.5,-331.5 1094.5,-362"/>
<text text-anchor="start" x="1006.25" y="-348.5" font-family="Helvetica,sans-Serif" font-size="10.00">tdms/include/array</text>
<text text-anchor="middle" x="1046.38" y="-337.25" font-family="Helvetica,sans-Serif" font-size="10.00">_init.h</text>
</a>
</g>
</g>
<!-- Node2 -->
<g id="node2" class="node">
<title>Node2</title>
<g id="a_node2"><a xlink:href="field_8h.html" target="_top" xlink:title="Classes for the electric and magnetic (split) fields on a grid.">
<polygon fill="white" stroke="#666666" points="958.5,-295.5 916.25,-295.5 916.25,-276.25 958.5,-276.25 958.5,-295.5"/>
<text text-anchor="middle" x="937.38" y="-282" font-family="Helvetica,sans-Serif" font-size="10.00">field.h</text>
</a>
</g>
</g>
<!-- Node1&#45;&gt;Node2 -->
<g id="edge1" class="edge">
<title>Node1&#45;&gt;Node2</title>
<path fill="none" stroke="#63b8ff" d="M1019.15,-331.05C1002.07,-321.82 980.18,-310 963.34,-300.9"/>
<polygon fill="#63b8ff" stroke="#63b8ff" points="965.55,-297.58 955.09,-295.9 962.23,-303.74 965.55,-297.58"/>
</g>
<!-- Node15 -->
<g id="node15" class="node">
<title>Node15</title>
<g id="a_node15"><a xlink:href="mat__io_8h.html" target="_top" xlink:title="Includes MATLAB headers for I/O.">
<polygon fill="white" stroke="#666666" points="1025.12,-74.5 971.62,-74.5 971.62,-55.25 1025.12,-55.25 1025.12,-74.5"/>
<text text-anchor="middle" x="998.38" y="-61" font-family="Helvetica,sans-Serif" font-size="10.00">mat_io.h</text>
</a>
</g>
</g>
<!-- Node1&#45;&gt;Node15 -->
<g id="edge43" class="edge">
<title>Node1&#45;&gt;Node15</title>
<path fill="none" stroke="#63b8ff" d="M1094.98,-333.71C1142.7,-318.64 1208.38,-287.7 1208.38,-231.62 1208.38,-231.62 1208.38,-231.62 1208.38,-174.38 1208.38,-97.69 1096.48,-75.15 1036.05,-68.56"/>
<polygon fill="#63b8ff" stroke="#63b8ff" points="1036.69,-65.01 1026.4,-67.51 1036.01,-71.98 1036.69,-65.01"/>
</g>
<!-- Node3 -->
<g id="node3" class="node">
<title>Node3</title>
<g id="a_node3"><a xlink:title=" ">
<polygon fill="#e0e0e0" stroke="#999999" points="52.75,-74.5 0,-74.5 0,-55.25 52.75,-55.25 52.75,-74.5"/>
<text text-anchor="middle" x="26.38" y="-61" font-family="Helvetica,sans-Serif" font-size="10.00">complex</text>
</a>
</g>
</g>
<!-- Node2&#45;&gt;Node3 -->
<g id="edge2" class="edge">
<title>Node2&#45;&gt;Node3</title>
<path fill="none" stroke="#63b8ff" d="M915.95,-284.8C842.02,-284.19 590.98,-279.18 388.38,-240.25 224.43,-208.75 131.67,-261.68 29.38,-129.75 19.8,-117.4 19.85,-99.32 21.83,-85.54"/>
<polygon fill="#63b8ff" stroke="#63b8ff" points="25.44,-86.28 23.88,-75.8 18.57,-84.97 25.44,-86.28"/>
</g>
<!-- Node4 -->
<g id="node4" class="node">
<title>Node4</title>
<g id="a_node4"><a xlink:href="arrays_8h.html" target="_top" xlink:title="Classes describing arrays, vertices etc.">
<polygon fill="white" stroke="#666666" points="307,-185 255.75,-185 255.75,-165.75 307,-165.75 307,-185"/>
<text text-anchor="middle" x="281.38" y="-171.5" font-family="Helvetica,sans-Serif" font-size="10.00">arrays.h</text>
</a>
</g>
</g>
<!-- Node2&#45;&gt;Node4 -->
<g id="edge3" class="edge">
<title>Node2&#45;&gt;Node4</title>
<path fill="none" stroke="#63b8ff" d="M915.93,-284.86C847.71,-284.39 629.98,-279.68 455.38,-240.25 402.89,-228.4 344.74,-204.78 310.71,-189.82"/>
<polygon fill="#63b8ff" stroke="#63b8ff" points="312.52,-186.35 301.96,-185.48 309.67,-192.74 312.52,-186.35"/>
</g>
<!-- Node11 -->
<g id="node11" class="node">
<title>Node11</title>
<g id="a_node11"><a xlink:href="cell__coordinate_8h.html" target="_top" xlink:title="Container for {ijk} or {IJK} grouped variables.">
<polygon fill="white" stroke="#666666" points="1016.12,-185 926.62,-185 926.62,-165.75 1016.12,-165.75 1016.12,-185"/>
<text text-anchor="middle" x="971.38" y="-171.5" font-family="Helvetica,sans-Serif" font-size="10.00">cell_coordinate.h</text>
</a>
</g>
</g>
<!-- Node2&#45;&gt;Node11 -->
<g id="edge14" class="edge">
<title>Node2&#45;&gt;Node11</title>
<path fill="none" stroke="#63b8ff" d="M940.16,-276C945.64,-258.51 957.93,-219.27 965.35,-195.59"/>
<polygon fill="#63b8ff" stroke="#63b8ff" points="968.9,-196.97 968.55,-186.38 962.22,-194.87 968.9,-196.97"/>
</g>
<!-- Node14 -->
<g id="node14" class="node">
<title>Node14</title>
<g id="a_node14"><a xlink:href="dimensions_8h.html" target="_top" xlink:title="Defines a class that serves as an explicit converter between MATLAB pointers and array dimensions.">
<polygon fill="white" stroke="#666666" points="1180.25,-240.25 1106.5,-240.25 1106.5,-221 1180.25,-221 1180.25,-240.25"/>
<text text-anchor="middle" x="1143.38" y="-226.75" font-family="Helvetica,sans-Serif" font-size="10.00">dimensions.h</text>
</a>
</g>
</g>
<!-- Node2&#45;&gt;Node14 -->
<g id="edge17" class="edge">
<title>Node2&#45;&gt;Node14</title>
<path fill="none" stroke="#63b8ff" d="M958.64,-279.38C991.24,-270.95 1054.33,-254.64 1097.63,-243.45"/>
<polygon fill="#63b8ff" stroke="#63b8ff" points="1098.38,-246.61 1107.18,-240.72 1096.62,-239.84 1098.38,-246.61"/>
</g>
<!-- Node2&#45;&gt;Node15 -->
<g id="edge29" class="edge">
<title>Node2&#45;&gt;Node15</title>
<path fill="none" stroke="#63b8ff" d="M951.64,-275.8C983.23,-254.74 1058.49,-199.03 1086.38,-129.75 1097.05,-103.23 1064.31,-85.74 1035.78,-75.87"/>
<polygon fill="#63b8ff" stroke="#63b8ff" points="1037.14,-72.31 1026.55,-72.58 1035,-78.97 1037.14,-72.31"/>
</g>
<!-- Node19 -->
<g id="node19" class="node">
<title>Node19</title>
<g id="a_node19"><a xlink:href="input__flags_8h.html" target="_top" xlink:title="Organises enumerated constants, names, and classes for handling flag&#45;variables that are passed to TDM...">
<polygon fill="white" stroke="#666666" points="908.12,-185 836.62,-185 836.62,-165.75 908.12,-165.75 908.12,-185"/>
<text text-anchor="middle" x="872.38" y="-171.5" font-family="Helvetica,sans-Serif" font-size="10.00">input_flags.h</text>
</a>
</g>
</g>
<!-- Node2&#45;&gt;Node19 -->
<g id="edge22" class="edge">
<title>Node2&#45;&gt;Node19</title>
<path fill="none" stroke="#63b8ff" d="M932.06,-276C921.44,-258.27 897.43,-218.19 883.31,-194.63"/>
<polygon fill="#63b8ff" stroke="#63b8ff" points="885.91,-193.16 877.77,-186.38 879.9,-196.75 885.91,-193.16"/>
</g>
<!-- Node21 -->
<g id="node21" class="node">
<title>Node21</title>
<g id="a_node21"><a xlink:href="simulation__parameters_8h.html" target="_top" xlink:title="Classes collecting parameters for the simulation.">
<polygon fill="white" stroke="#666666" points="586.62,-240.25 464.12,-240.25 464.12,-221 586.62,-221 586.62,-240.25"/>
<text text-anchor="middle" x="525.38" y="-226.75" font-family="Helvetica,sans-Serif" font-size="10.00">simulation_parameters.h</text>
</a>
</g>
</g>
<!-- Node2&#45;&gt;Node21 -->
<g id="edge30" class="edge">
<title>Node2&#45;&gt;Node21</title>
<path fill="none" stroke="#63b8ff" d="M915.8,-282.09C857.29,-274.52 693.56,-253.36 597.73,-240.98"/>
<polygon fill="#63b8ff" stroke="#63b8ff" points="598.33,-237.4 587.96,-239.58 597.43,-244.34 598.33,-237.4"/>
</g>
<!-- Node4&#45;&gt;Node3 -->
<g id="edge4" class="edge">
<title>Node4&#45;&gt;Node3</title>
<path fill="none" stroke="#63b8ff" d="M255.65,-172.83C201.07,-169.04 76.1,-157.48 45.38,-129.75 33.03,-118.61 28.56,-99.84 27.01,-85.52"/>
<polygon fill="#63b8ff" stroke="#63b8ff" points="30.45,-85.55 26.29,-75.81 23.47,-86.02 30.45,-85.55"/>
</g>
<!-- Node5 -->
<g id="node5" class="node">
<title>Node5</title>
<g id="a_node5"><a xlink:title=" ">
<polygon fill="#e0e0e0" stroke="#999999" points="503.75,-129.75 445,-129.75 445,-110.5 503.75,-110.5 503.75,-129.75"/>
<text text-anchor="middle" x="474.38" y="-116.25" font-family="Helvetica,sans-Serif" font-size="10.00">stdexcept</text>
</a>
</g>
</g>
<!-- Node4&#45;&gt;Node5 -->
<g id="edge5" class="edge">
<title>Node4&#45;&gt;Node5</title>
<path fill="none" stroke="#63b8ff" d="M307.4,-167.19C340.04,-158.19 396.32,-142.66 434.42,-132.15"/>
<polygon fill="#63b8ff" stroke="#63b8ff" points="434.94,-135.36 443.65,-129.33 433.08,-128.61 434.94,-135.36"/>
</g>
<!-- Node6 -->
<g id="node6" class="node">
<title>Node6</title>
<g id="a_node6"><a xlink:title=" ">
<polygon fill="#e0e0e0" stroke="#999999" points="418.38,-74.5 378.38,-74.5 378.38,-55.25 418.38,-55.25 418.38,-74.5"/>
<text text-anchor="middle" x="398.38" y="-61" font-family="Helvetica,sans-Serif" font-size="10.00">string</text>
</a>
</g>
</g>
<!-- Node4&#45;&gt;Node6 -->
<g id="edge6" class="edge">
<title>Node4&#45;&gt;Node6</title>
<path fill="none" stroke="#63b8ff" d="M281.75,-165.43C282.78,-151.97 286.55,-126.38 300.38,-110.5 317.81,-90.48 346.05,-78.94 367.76,-72.63"/>
<polygon fill="#63b8ff" stroke="#63b8ff" points="368.35,-75.83 377.11,-69.86 366.55,-69.06 368.35,-75.83"/>
</g>
<!-- Node7 -->
<g id="node7" class="node">
<title>Node7</title>
<g id="a_node7"><a xlink:title=" ">
<polygon fill="#e0e0e0" stroke="#999999" points="100.38,-129.75 54.38,-129.75 54.38,-110.5 100.38,-110.5 100.38,-129.75"/>
<text text-anchor="middle" x="77.38" y="-116.25" font-family="Helvetica,sans-Serif" font-size="10.00">fftw3.h</text>
</a>
</g>
</g>
<!-- Node4&#45;&gt;Node7 -->
<g id="edge7" class="edge">
<title>Node4&#45;&gt;Node7</title>
<path fill="none" stroke="#63b8ff" d="M255.42,-167.72C223.7,-159.58 168.13,-145.24 111.39,-130.27"/>
<polygon fill="#63b8ff" stroke="#63b8ff" points="112.35,-126.63 101.79,-127.46 110.56,-133.4 112.35,-126.63"/>
</g>
<!-- Node8 -->
<g id="node8" class="node">
<title>Node8</title>
<g id="a_node8"><a xlink:href="globals_8h.html" target="_top" xlink:title="Type definitions and global constants.">
<polygon fill="white" stroke="#666666" points="173.88,-129.75 118.88,-129.75 118.88,-110.5 173.88,-110.5 173.88,-129.75"/>
<text text-anchor="middle" x="146.38" y="-116.25" font-family="Helvetica,sans-Serif" font-size="10.00">globals.h</text>
</a>
</g>
</g>
<!-- Node4&#45;&gt;Node8 -->
<g id="edge8" class="edge">
<title>Node4&#45;&gt;Node8</title>
<path fill="none" stroke="#63b8ff" d="M258.47,-165.34C236.75,-156.77 203.88,-143.81 179.34,-134.13"/>
<polygon fill="#63b8ff" stroke="#63b8ff" points="180.98,-130.62 170.39,-130.2 178.41,-137.13 180.98,-130.62"/>
</g>
<!-- Node9 -->
<g id="node9" class="node">
<title>Node9</title>
<g id="a_node9"><a xlink:title=" ">
<polygon fill="#e0e0e0" stroke="#999999" points="252.88,-129.75 191.88,-129.75 191.88,-110.5 252.88,-110.5 252.88,-129.75"/>
<text text-anchor="middle" x="222.38" y="-116.25" font-family="Helvetica,sans-Serif" font-size="10.00">matlabio.h</text>
</a>
</g>
</g>
<!-- Node4&#45;&gt;Node9 -->
<g id="edge11" class="edge">
<title>Node4&#45;&gt;Node9</title>
<path fill="none" stroke="#63b8ff" d="M271.37,-165.34C262.84,-157.65 250.38,-146.4 240.16,-137.18"/>
<polygon fill="#63b8ff" stroke="#63b8ff" points="243,-135.13 233.24,-131.02 238.31,-140.32 243,-135.13"/>
</g>
<!-- Node10 -->
<g id="node10" class="node">
<title>Node10</title>
<g id="a_node10"><a xlink:href="utils_8h.html" target="_top" xlink:title="Useful miscellaneous utility functions.">
<polygon fill="white" stroke="#666666" points="351.5,-129.75 309.25,-129.75 309.25,-110.5 351.5,-110.5 351.5,-129.75"/>
<text text-anchor="middle" x="330.38" y="-116.25" font-family="Helvetica,sans-Serif" font-size="10.00">utils.h</text>
</a>
</g>
</g>
<!-- Node4&#45;&gt;Node10 -->
<g id="edge12" class="edge">
<title>Node4&#45;&gt;Node10</title>
<path fill="none" stroke="#63b8ff" d="M289.47,-165.58C296.31,-158.15 306.3,-147.29 314.7,-138.16"/>
<polygon fill="#63b8ff" stroke="#63b8ff" points="316.91,-140.84 321.11,-131.11 311.76,-136.1 316.91,-140.84"/>
</g>
<!-- Node8&#45;&gt;Node3 -->
<g id="edge9" class="edge">
<title>Node8&#45;&gt;Node3</title>
<path fill="none" stroke="#63b8ff" d="M126.02,-110.09C107.06,-101.68 78.53,-89.02 56.85,-79.4"/>
<polygon fill="#63b8ff" stroke="#63b8ff" points="58.39,-75.81 47.83,-74.95 55.55,-82.21 58.39,-75.81"/>
</g>
<!-- Node8&#45;&gt;Node6 -->
<g id="edge10" class="edge">
<title>Node8&#45;&gt;Node6</title>
<path fill="none" stroke="#63b8ff" d="M174.26,-112.35C177,-111.71 179.74,-111.09 182.38,-110.5 248.11,-95.84 325.47,-80.26 367.46,-71.94"/>
<polygon fill="#63b8ff" stroke="#63b8ff" points="367.95,-75.22 377.08,-69.85 366.59,-68.35 367.95,-75.22"/>
</g>
<!-- Node10&#45;&gt;Node6 -->
<g id="edge13" class="edge">
<title>Node10&#45;&gt;Node6</title>
<path fill="none" stroke="#63b8ff" d="M341.91,-110.09C351.94,-102.24 366.68,-90.7 378.58,-81.37"/>
<polygon fill="#63b8ff" stroke="#63b8ff" points="380.29,-83.7 386.01,-74.77 375.98,-78.18 380.29,-83.7"/>
</g>
<!-- Node12 -->
<g id="node12" class="node">
<title>Node12</title>
<g id="a_node12"><a xlink:title=" ">
<polygon fill="#e0e0e0" stroke="#999999" points="1077.5,-129.75 993.25,-129.75 993.25,-110.5 1077.5,-110.5 1077.5,-129.75"/>
<text text-anchor="middle" x="1035.38" y="-116.25" font-family="Helvetica,sans-Serif" font-size="10.00">spdlog/spdlog.h</text>
</a>
</g>
</g>
<!-- Node11&#45;&gt;Node12 -->
<g id="edge15" class="edge">
<title>Node11&#45;&gt;Node12</title>
<path fill="none" stroke="#63b8ff" d="M982.23,-165.34C991.57,-157.57 1005.27,-146.17 1016.42,-136.9"/>
<polygon fill="#63b8ff" stroke="#63b8ff" points="1018.23,-139.11 1023.68,-130.02 1013.75,-133.73 1018.23,-139.11"/>
</g>
<!-- Node13 -->
<g id="node13" class="node">
<title>Node13</title>
<g id="a_node13"><a xlink:title=" ">
<polygon fill="#e0e0e0" stroke="#999999" points="975.25,-129.75 919.5,-129.75 919.5,-110.5 975.25,-110.5 975.25,-129.75"/>
<text text-anchor="middle" x="947.38" y="-116.25" font-family="Helvetica,sans-Serif" font-size="10.00">algorithm</text>
</a>
</g>
</g>
<!-- Node11&#45;&gt;Node13 -->
<g id="edge16" class="edge">
<title>Node11&#45;&gt;Node13</title>
<path fill="none" stroke="#63b8ff" d="M967.41,-165.58C964.27,-158.61 959.77,-148.62 955.82,-139.87"/>
<polygon fill="#63b8ff" stroke="#63b8ff" points="958.72,-138.79 951.42,-131.11 952.34,-141.66 958.72,-138.79"/>
</g>
<!-- Node14&#45;&gt;Node15 -->
<g id="edge18" class="edge">
<title>Node14&#45;&gt;Node15</title>
<path fill="none" stroke="#63b8ff" d="M1144.3,-220.6C1146,-198.88 1147.23,-143.03 1119.38,-110.5 1098.58,-86.21 1063.32,-75.13 1036.22,-70.09"/>
<polygon fill="#63b8ff" stroke="#63b8ff" points="1036.97,-66.5 1026.54,-68.33 1035.83,-73.41 1036.97,-66.5"/>
</g>
<!-- Node16 -->
<g id="node16" class="node">
<title>Node16</title>
<g id="a_node16"><a xlink:title=" ">
<polygon fill="#e0e0e0" stroke="#999999" points="954.75,-19.25 914,-19.25 914,0 954.75,0 954.75,-19.25"/>
<text text-anchor="middle" x="934.38" y="-5.75" font-family="Helvetica,sans-Serif" font-size="10.00">mat.h</text>
</a>
</g>
</g>
<!-- Node15&#45;&gt;Node16 -->
<g id="edge19" class="edge">
<title>Node15&#45;&gt;Node16</title>
<path fill="none" stroke="#63b8ff" d="M987.52,-54.84C978.18,-47.07 964.48,-35.67 953.33,-26.4"/>
<polygon fill="#63b8ff" stroke="#63b8ff" points="956,-23.23 946.07,-19.52 951.52,-28.61 956,-23.23"/>
</g>
<!-- Node17 -->
<g id="node17" class="node">
<title>Node17</title>
<g id="a_node17"><a xlink:title=" ">
<polygon fill="#e0e0e0" stroke="#999999" points="1024,-19.25 972.75,-19.25 972.75,0 1024,0 1024,-19.25"/>
<text text-anchor="middle" x="998.38" y="-5.75" font-family="Helvetica,sans-Serif" font-size="10.00">matrix.h</text>
</a>
</g>
</g>
<!-- Node15&#45;&gt;Node17 -->
<g id="edge20" class="edge">
<title>Node15&#45;&gt;Node17</title>
<path fill="none" stroke="#63b8ff" d="M998.38,-55.08C998.38,-48.42 998.38,-38.99 998.38,-30.53"/>
<polygon fill="#63b8ff" stroke="#63b8ff" points="1001.88,-30.61 998.38,-20.61 994.88,-30.61 1001.88,-30.61"/>
</g>
<!-- Node18 -->
<g id="node18" class="node">
<title>Node18</title>
<g id="a_node18"><a xlink:title=" ">
<polygon fill="#e0e0e0" stroke="#999999" points="1084.88,-19.25 1041.88,-19.25 1041.88,0 1084.88,0 1084.88,-19.25"/>
<text text-anchor="middle" x="1063.38" y="-5.75" font-family="Helvetica,sans-Serif" font-size="10.00">mex.h</text>
</a>
</g>
</g>
<!-- Node15&#45;&gt;Node18 -->
<g id="edge21" class="edge">
<title>Node15&#45;&gt;Node18</title>
<path fill="none" stroke="#63b8ff" d="M1009.4,-54.84C1018.89,-47.07 1032.8,-35.67 1044.12,-26.4"/>
<polygon fill="#63b8ff" stroke="#63b8ff" points="1045.99,-28.57 1051.51,-19.52 1041.56,-23.15 1045.99,-28.57"/>
</g>
<!-- Node19&#45;&gt;Node5 -->
<g id="edge24" class="edge">
<title>Node19&#45;&gt;Node5</title>
<path fill="none" stroke="#63b8ff" d="M836.17,-171.1C772.93,-165.1 638.01,-151.17 514.92,-130.05"/>
<polygon fill="#63b8ff" stroke="#63b8ff" points="515.64,-126.45 505.19,-128.19 514.44,-133.35 515.64,-126.45"/>
</g>
<!-- Node19&#45;&gt;Node6 -->
<g id="edge25" class="edge">
<title>Node19&#45;&gt;Node6</title>
<path fill="none" stroke="#63b8ff" d="M836.24,-168.66C797.08,-161.84 733.12,-148.92 680.38,-129.75 662.58,-123.28 660.32,-116.54 642.38,-110.5 568.29,-85.55 476.58,-73.54 429.5,-68.67"/>
<polygon fill="#63b8ff" stroke="#63b8ff" points="430.09,-65.11 419.79,-67.61 429.4,-72.08 430.09,-65.11"/>
</g>
<!-- Node19&#45;&gt;Node12 -->
<g id="edge27" class="edge">
<title>Node19&#45;&gt;Node12</title>
<path fill="none" stroke="#63b8ff" d="M900.03,-165.34C926.72,-156.62 967.37,-143.34 997.15,-133.61"/>
<polygon fill="#63b8ff" stroke="#63b8ff" points="998.17,-136.63 1006.59,-130.2 996,-129.98 998.17,-136.63"/>
</g>
<!-- Node19&#45;&gt;Node13 -->
<g id="edge23" class="edge">
<title>Node19&#45;&gt;Node13</title>
<path fill="none" stroke="#63b8ff" d="M885.1,-165.34C896.2,-157.46 912.53,-145.86 925.69,-136.52"/>
<polygon fill="#63b8ff" stroke="#63b8ff" points="927.46,-138.85 933.59,-130.2 923.41,-133.14 927.46,-138.85"/>
</g>
<!-- Node19&#45;&gt;Node15 -->
<g id="edge28" class="edge">
<title>Node19&#45;&gt;Node15</title>
<path fill="none" stroke="#63b8ff" d="M875.76,-165.47C881.25,-152.06 893.22,-126.54 910.38,-110.5 924.88,-96.94 944.3,-86.51 961.2,-79.15"/>
<polygon fill="#63b8ff" stroke="#63b8ff" points="962.43,-82.02 970.34,-74.97 959.76,-75.55 962.43,-82.02"/>
</g>
<!-- Node20 -->
<g id="node20" class="node">
<title>Node20</title>
<g id="a_node20"><a xlink:title=" ">
<polygon fill="#e0e0e0" stroke="#999999" points="759.88,-74.5 716.88,-74.5 716.88,-55.25 759.88,-55.25 759.88,-74.5"/>
<text text-anchor="middle" x="738.38" y="-61" font-family="Helvetica,sans-Serif" font-size="10.00">vector</text>
</a>
</g>
</g>
<!-- Node19&#45;&gt;Node20 -->
<g id="edge26" class="edge">
<title>Node19&#45;&gt;Node20</title>
<path fill="none" stroke="#63b8ff" d="M862.17,-165.55C847.69,-153.1 820.28,-129.73 796.38,-110.5 784.15,-100.67 770.23,-89.95 759.09,-81.47"/>
<polygon fill="#63b8ff" stroke="#63b8ff" points="761.57,-78.2 751.49,-74.96 757.35,-83.78 761.57,-78.2"/>
</g>
<!-- Node21&#45;&gt;Node4 -->
<g id="edge32" class="edge">
<title>Node21&#45;&gt;Node4</title>
<path fill="none" stroke="#63b8ff" d="M483.71,-220.53C437.15,-210.37 362.51,-194.08 318.08,-184.39"/>
<polygon fill="#63b8ff" stroke="#63b8ff" points="318.99,-180.78 308.47,-182.07 317.49,-187.62 318.99,-180.78"/>
</g>
<!-- Node21&#45;&gt;Node6 -->
<g id="edge31" class="edge">
<title>Node21&#45;&gt;Node6</title>
<path fill="none" stroke="#63b8ff" d="M511.37,-220.68C488.1,-205.07 441.54,-170.62 416.38,-129.75 408.05,-116.23 403.47,-98.75 401.02,-85.5"/>
<polygon fill="#63b8ff" stroke="#63b8ff" points="404.34,-85.08 399.32,-75.75 397.42,-86.18 404.34,-85.08"/>
</g>
<!-- Node22 -->
<g id="node22" class="node">
<title>Node22</title>
<g id="a_node22"><a xlink:href="input__matrices_8h.html" target="_top" xlink:title="Class handling the input matrices that are read in from the input file.">
<polygon fill="white" stroke="#666666" points="621.38,-185 533.38,-185 533.38,-165.75 621.38,-165.75 621.38,-185"/>
<text text-anchor="middle" x="577.38" y="-171.5" font-family="Helvetica,sans-Serif" font-size="10.00">input_matrices.h</text>
</a>
</g>
</g>
<!-- Node21&#45;&gt;Node22 -->
<g id="edge33" class="edge">
<title>Node21&#45;&gt;Node22</title>
<path fill="none" stroke="#63b8ff" d="M533.96,-220.83C541.29,-213.32 552.05,-202.31 561.02,-193.13"/>
<polygon fill="#63b8ff" stroke="#63b8ff" points="563.12,-195.96 567.6,-186.36 558.11,-191.07 563.12,-195.96"/>
</g>
<!-- Node22&#45;&gt;Node6 -->
<g id="edge34" class="edge">
<title>Node22&#45;&gt;Node6</title>
<path fill="none" stroke="#63b8ff" d="M533.14,-168.76C503.23,-163.09 464.24,-151.84 436.38,-129.75 421.69,-118.11 411.44,-99.13 405.32,-84.88"/>
<polygon fill="#63b8ff" stroke="#63b8ff" points="408.22,-83.7 401.29,-75.69 401.71,-86.28 408.22,-83.7"/>
</g>
<!-- Node22&#45;&gt;Node15 -->
<g id="edge38" class="edge">
<title>Node22&#45;&gt;Node15</title>
<path fill="none" stroke="#63b8ff" d="M621.73,-166.75C666.2,-158.78 736.47,-145.28 796.38,-129.75 855.24,-114.49 922.33,-92.3 962.47,-78.49"/>
<polygon fill="#63b8ff" stroke="#63b8ff" points="963.49,-81.49 971.8,-74.92 961.2,-74.88 963.49,-81.49"/>
</g>
<!-- Node23 -->
<g id="node23" class="node">
<title>Node23</title>
<g id="a_node23"><a xlink:href="input__output__names_8h.html" target="_top" xlink:title="Constant values associated with the format of the input and output files and matrices.">
<polygon fill="white" stroke="#666666" points="633.38,-129.75 521.38,-129.75 521.38,-110.5 633.38,-110.5 633.38,-129.75"/>
<text text-anchor="middle" x="577.38" y="-116.25" font-family="Helvetica,sans-Serif" font-size="10.00">input_output_names.h</text>
</a>
</g>
</g>
<!-- Node22&#45;&gt;Node23 -->
<g id="edge35" class="edge">
<title>Node22&#45;&gt;Node23</title>
<path fill="none" stroke="#63b8ff" d="M577.38,-165.58C577.38,-158.92 577.38,-149.49 577.38,-141.03"/>
<polygon fill="#63b8ff" stroke="#63b8ff" points="580.88,-141.11 577.38,-131.11 573.88,-141.11 580.88,-141.11"/>
</g>
<!-- Node24 -->
<g id="node24" class="node">
<title>Node24</title>
<g id="a_node24"><a xlink:href="matrix__collection_8h.html" target="_top" xlink:title="A collection of named MATLAB matrices.">
<polygon fill="white" stroke="#666666" points="787.25,-129.75 689.5,-129.75 689.5,-110.5 787.25,-110.5 787.25,-129.75"/>
<text text-anchor="middle" x="738.38" y="-116.25" font-family="Helvetica,sans-Serif" font-size="10.00">matrix_collection.h</text>
</a>
</g>
</g>
<!-- Node22&#45;&gt;Node24 -->
<g id="edge39" class="edge">
<title>Node22&#45;&gt;Node24</title>
<path fill="none" stroke="#63b8ff" d="M604.69,-165.34C631.05,-156.62 671.2,-143.34 700.62,-133.61"/>
<polygon fill="#63b8ff" stroke="#63b8ff" points="701.53,-136.67 709.93,-130.2 699.34,-130.02 701.53,-136.67"/>
</g>
<!-- Node23&#45;&gt;Node6 -->
<g id="edge36" class="edge">
<title>Node23&#45;&gt;Node6</title>
<path fill="none" stroke="#63b8ff" d="M547.01,-110.09C514.21,-100.33 462.23,-84.87 429.24,-75.06"/>
<polygon fill="#63b8ff" stroke="#63b8ff" points="430.42,-71.46 419.83,-71.96 428.42,-78.17 430.42,-71.46"/>
</g>
<!-- Node23&#45;&gt;Node20 -->
<g id="edge37" class="edge">
<title>Node23&#45;&gt;Node20</title>
<path fill="none" stroke="#63b8ff" d="M604.69,-110.09C632.81,-100.79 676.62,-86.3 706.36,-76.47"/>
<polygon fill="#63b8ff" stroke="#63b8ff" points="707.22,-79.53 715.62,-73.07 705.03,-72.89 707.22,-79.53"/>
</g>
<!-- Node24&#45;&gt;Node6 -->
<g id="edge40" class="edge">
<title>Node24&#45;&gt;Node6</title>
<path fill="none" stroke="#63b8ff" d="M689.3,-111.44C618.12,-100.29 488.3,-79.96 429.18,-70.7"/>
<polygon fill="#63b8ff" stroke="#63b8ff" points="430.08,-67.14 419.66,-69.05 429,-74.06 430.08,-67.14"/>
</g>
<!-- Node24&#45;&gt;Node15 -->
<g id="edge42" class="edge">
<title>Node24&#45;&gt;Node15</title>
<path fill="none" stroke="#63b8ff" d="M782.78,-110.03C832.86,-99.77 913.46,-83.27 960.63,-73.61"/>
<polygon fill="#63b8ff" stroke="#63b8ff" points="961.2,-76.86 970.29,-71.42 959.79,-70 961.2,-76.86"/>
</g>
<!-- Node24&#45;&gt;Node20 -->
<g id="edge41" class="edge">
<title>Node24&#45;&gt;Node20</title>
<path fill="none" stroke="#63b8ff" d="M738.38,-110.33C738.38,-103.67 738.38,-94.24 738.38,-85.78"/>
<polygon fill="#63b8ff" stroke="#63b8ff" points="741.88,-85.86 738.38,-75.86 734.88,-85.86 741.88,-85.86"/>
</g>
</g>
</svg>
