<?xml version="1.0" encoding="UTF-8" standalone="no"?>
<!DOCTYPE svg PUBLIC "-//W3C//DTD SVG 1.1//EN"
 "http://www.w3.org/Graphics/SVG/1.1/DTD/svg11.dtd">
<!-- Generated by graphviz version 8.0.5 (20230430.1635)
 -->
<!-- Title: tdms/include/arrays.h Pages: 1 -->
<svg width="544pt" height="138pt"
 viewBox="0.00 0.00 543.93 137.75" xmlns="http://www.w3.org/2000/svg" xmlns:xlink="http://www.w3.org/1999/xlink">
<g id="graph0" class="graph" transform="scale(1 1) rotate(0) translate(4 133.75)">
<title>tdms/include/arrays.h</title>
<!-- Node1 -->
<g id="node1" class="node">
<title>Node1</title>
<g id="a_node1"><a xlink:title="Classes describing arrays, vertices etc.">
<polygon fill="#999999" stroke="#666666" points="302.54,-129.75 192.79,-129.75 192.79,-110.5 302.54,-110.5 302.54,-129.75"/>
<text text-anchor="middle" x="247.66" y="-116.25" font-family="Helvetica,sans-Serif" font-size="10.00">tdms/include/arrays.h</text>
</a>
</g>
</g>
<!-- Node2 -->
<g id="node2" class="node">
<title>Node2</title>
<g id="a_node2"><a xlink:title=" ">
<polygon fill="#e0e0e0" stroke="#999999" points="78.04,-19.25 25.29,-19.25 25.29,0 78.04,0 78.04,-19.25"/>
<text text-anchor="middle" x="51.66" y="-5.75" font-family="Helvetica,sans-Serif" font-size="10.00">complex</text>
</a>
</g>
</g>
<!-- Node1&#45;&gt;Node2 -->
<g id="edge1" class="edge">
<title>Node1&#45;&gt;Node2</title>
<path fill="none" stroke="#63b8ff" d="M192.56,-116.94C128.38,-113.09 28.1,-102.64 4.66,-74.5 -8.7,-58.47 10.24,-39.03 27.91,-25.83"/>
<polygon fill="#63b8ff" stroke="#63b8ff" points="29.68,-28.17 35.86,-19.56 25.66,-22.43 29.68,-28.17"/>
</g>
<!-- Node3 -->
<g id="node3" class="node">
<title>Node3</title>
<g id="a_node3"><a xlink:title=" ">
<polygon fill="#e0e0e0" stroke="#999999" points="72.04,-74.5 13.29,-74.5 13.29,-55.25 72.04,-55.25 72.04,-74.5"/>
<text text-anchor="middle" x="42.66" y="-61" font-family="Helvetica,sans-Serif" font-size="10.00">stdexcept</text>
</a>
</g>
</g>
<!-- Node1&#45;&gt;Node3 -->
<g id="edge2" class="edge">
<title>Node1&#45;&gt;Node3</title>
<path fill="none" stroke="#63b8ff" d="M212.88,-110.09C176.91,-100.75 120.79,-86.17 82.92,-76.33"/>
<polygon fill="#63b8ff" stroke="#63b8ff" points="83.83,-72.69 73.27,-73.57 82.07,-79.47 83.83,-72.69"/>
</g>
<!-- Node4 -->
<g id="node4" class="node">
<title>Node4</title>
<g id="a_node4"><a xlink:title=" ">
<polygon fill="#e0e0e0" stroke="#999999" points="439.66,-19.25 399.66,-19.25 399.66,0 439.66,0 439.66,-19.25"/>
<text text-anchor="middle" x="419.66" y="-5.75" font-family="Helvetica,sans-Serif" font-size="10.00">string</text>
</a>
</g>
</g>
<!-- Node1&#45;&gt;Node4 -->
<g id="edge3" class="edge">
<title>Node1&#45;&gt;Node4</title>
<path fill="none" stroke="#63b8ff" d="M302.89,-118.55C376.57,-116.47 501.09,-107.95 529.66,-74.5 555.35,-44.43 491.27,-25.17 450.44,-16.32"/>
<polygon fill="#63b8ff" stroke="#63b8ff" points="451.39,-12.73 440.89,-14.14 449.97,-19.59 451.39,-12.73"/>
</g>
<!-- Node5 -->
<g id="node5" class="node">
<title>Node5</title>
<g id="a_node5"><a xlink:title=" ">
<polygon fill="#e0e0e0" stroke="#999999" points="206.16,-74.5 163.16,-74.5 163.16,-55.25 206.16,-55.25 206.16,-74.5"/>
<text text-anchor="middle" x="184.66" y="-61" font-family="Helvetica,sans-Serif" font-size="10.00">vector</text>
</a>
</g>
</g>
<!-- Node1&#45;&gt;Node5 -->
<g id="edge4" class="edge">
<title>Node1&#45;&gt;Node5</title>
<path fill="none" stroke="#63b8ff" d="M236.97,-110.09C227.78,-102.32 214.3,-90.92 203.32,-81.65"/>
<polygon fill="#63b8ff" stroke="#63b8ff" points="206.09,-78.56 196.19,-74.77 201.57,-83.9 206.09,-78.56"/>
</g>
<!-- Node6 -->
<g id="node6" class="node">
<title>Node6</title>
<g id="a_node6"><a xlink:title=" ">
<polygon fill="#e0e0e0" stroke="#999999" points="270.66,-74.5 224.66,-74.5 224.66,-55.25 270.66,-55.25 270.66,-74.5"/>
<text text-anchor="middle" x="247.66" y="-61" font-family="Helvetica,sans-Serif" font-size="10.00">fftw3.h</text>
</a>
</g>
</g>
<!-- Node1&#45;&gt;Node6 -->
<g id="edge5" class="edge">
<title>Node1&#45;&gt;Node6</title>
<path fill="none" stroke="#63b8ff" d="M247.66,-110.33C247.66,-103.67 247.66,-94.24 247.66,-85.78"/>
<polygon fill="#63b8ff" stroke="#63b8ff" points="251.16,-85.86 247.66,-75.86 244.16,-85.86 251.16,-85.86"/>
</g>
<!-- Node7 -->
<g id="node7" class="node">
<title>Node7</title>
<g id="a_node7"><a xlink:title=" ">
<polygon fill="#e0e0e0" stroke="#999999" points="380.54,-74.5 288.79,-74.5 288.79,-55.25 380.54,-55.25 380.54,-74.5"/>
<text text-anchor="middle" x="334.66" y="-61" font-family="Helvetica,sans-Serif" font-size="10.00">arrays/tensor3d.h</text>
</a>
</g>
</g>
<!-- Node1&#45;&gt;Node7 -->
<g id="edge6" class="edge">
<title>Node1&#45;&gt;Node7</title>
<path fill="none" stroke="#63b8ff" d="M262.42,-110.09C275.67,-101.98 295.35,-89.93 310.83,-80.46"/>
<polygon fill="#63b8ff" stroke="#63b8ff" points="312.13,-83.16 318.83,-74.95 308.47,-77.19 312.13,-83.16"/>
</g>
<!-- Node8 -->
<g id="node8" class="node">
<title>Node8</title>
<g id="a_node8"><a xlink:href="globals_8h.html" target="_top" xlink:title="Type definitions and global constants.">
<polygon fill="white" stroke="#666666" points="145.16,-74.5 90.16,-74.5 90.16,-55.25 145.16,-55.25 145.16,-74.5"/>
<text text-anchor="middle" x="117.66" y="-61" font-family="Helvetica,sans-Serif" font-size="10.00">globals.h</text>
</a>
</g>
</g>
<!-- Node1&#45;&gt;Node8 -->
<g id="edge7" class="edge">
<title>Node1&#45;&gt;Node8</title>
<path fill="none" stroke="#63b8ff" d="M225.61,-110.09C204.78,-101.56 173.32,-88.67 149.72,-79.01"/>
<polygon fill="#63b8ff" stroke="#63b8ff" points="151.4,-75.5 140.82,-74.95 148.75,-81.98 151.4,-75.5"/>
</g>
<!-- Node9 -->
<g id="node9" class="node">
<title>Node9</title>
<g id="a_node9"><a xlink:title=" ">
<polygon fill="#e0e0e0" stroke="#999999" points="520.16,-74.5 459.16,-74.5 459.16,-55.25 520.16,-55.25 520.16,-74.5"/>
<text text-anchor="middle" x="489.66" y="-61" font-family="Helvetica,sans-Serif" font-size="10.00">matlabio.h</text>
</a>
</g>
</g>
<!-- Node1&#45;&gt;Node9 -->
<g id="edge10" class="edge">
<title>Node1&#45;&gt;Node9</title>
<path fill="none" stroke="#63b8ff" d="M288.99,-110.03C333.42,-100.26 403.64,-84.8 448.14,-75.01"/>
<polygon fill="#63b8ff" stroke="#63b8ff" points="448.86,-78.22 457.87,-72.65 447.35,-71.38 448.86,-78.22"/>
</g>
<!-- Node10 -->
<g id="node10" class="node">
<title>Node10</title>
<g id="a_node10"><a xlink:href="utils_8h.html" target="_top" xlink:title="Useful miscellaneous utility functions.">
<polygon fill="white" stroke="#666666" points="440.79,-74.5 398.54,-74.5 398.54,-55.25 440.79,-55.25 440.79,-74.5"/>
<text text-anchor="middle" x="419.66" y="-61" font-family="Helvetica,sans-Serif" font-size="10.00">utils.h</text>
</a>
</g>
</g>
<!-- Node1&#45;&gt;Node10 -->
<g id="edge11" class="edge">
<title>Node1&#45;&gt;Node10</title>
<path fill="none" stroke="#63b8ff" d="M276.84,-110.09C307.62,-100.56 355.97,-85.59 387.75,-75.76"/>
<polygon fill="#63b8ff" stroke="#63b8ff" points="388.72,-78.81 397.24,-72.51 386.65,-72.12 388.72,-78.81"/>
</g>
<!-- Node8&#45;&gt;Node2 -->
<g id="edge8" class="edge">
<title>Node8&#45;&gt;Node2</title>
<path fill="none" stroke="#63b8ff" d="M106.46,-54.84C96.83,-47.07 82.71,-35.67 71.21,-26.4"/>
<polygon fill="#63b8ff" stroke="#63b8ff" points="73.67,-23.08 63.69,-19.52 69.28,-28.53 73.67,-23.08"/>
</g>
<!-- Node8&#45;&gt;Node4 -->
<g id="edge9" class="edge">
<title>Node8&#45;&gt;Node4</title>
<path fill="none" stroke="#63b8ff" d="M145.53,-57C148.27,-56.38 151.02,-55.79 153.66,-55.25 238.16,-38.06 338.74,-22.51 388.53,-15.13"/>
<polygon fill="#63b8ff" stroke="#63b8ff" points="388.83,-18.48 398.22,-13.56 387.81,-11.56 388.83,-18.48"/>
</g>
<!-- Node10&#45;&gt;Node4 -->
<g id="edge12" class="edge">
<title>Node10&#45;&gt;Node4</title>
<path fill="none" stroke="#63b8ff" d="M419.66,-55.08C419.66,-48.42 419.66,-38.99 419.66,-30.53"/>
<polygon fill="#63b8ff" stroke="#63b8ff" points="423.16,-30.61 419.66,-20.61 416.16,-30.61 423.16,-30.61"/>
</g>
</g>
</svg>
