<?xml version="1.0" encoding="UTF-8" standalone="no"?>
<!DOCTYPE svg PUBLIC "-//W3C//DTD SVG 1.1//EN"
 "http://www.w3.org/Graphics/SVG/1.1/DTD/svg11.dtd">
<!-- Generated by graphviz version 8.0.5 (20230430.1635)
 -->
<!-- Title: tdms/include/arrays.h Pages: 1 -->
<svg width="371pt" height="138pt"
 viewBox="0.00 0.00 370.82 137.75" xmlns="http://www.w3.org/2000/svg" xmlns:xlink="http://www.w3.org/1999/xlink">
<g id="graph0" class="graph" transform="scale(1 1) rotate(0) translate(4 133.75)">
<title>tdms/include/arrays.h</title>
<!-- Node1 -->
<g id="node1" class="node">
<title>Node1</title>
<g id="a_node1"><a xlink:title="Classes describing arrays, vertices etc.">
<polygon fill="#999999" stroke="#666666" points="241.32,-129.75 131.57,-129.75 131.57,-110.5 241.32,-110.5 241.32,-129.75"/>
<text text-anchor="middle" x="186.44" y="-116.25" font-family="Helvetica,sans-Serif" font-size="10.00">tdms/include/arrays.h</text>
</a>
</g>
</g>
<!-- Node2 -->
<g id="node2" class="node">
<title>Node2</title>
<g id="a_node2"><a xlink:title=" ">
<polygon fill="#e0e0e0" stroke="#999999" points="77.82,-19.25 25.07,-19.25 25.07,0 77.82,0 77.82,-19.25"/>
<text text-anchor="middle" x="51.44" y="-5.75" font-family="Helvetica,sans-Serif" font-size="10.00">complex</text>
</a>
</g>
</g>
<!-- Node1&#45;&gt;Node2 -->
<g id="edge1" class="edge">
<title>Node1&#45;&gt;Node2</title>
<path fill="none" stroke="#63b8ff" d="M131.08,-113.03C83.44,-106.51 20,-94.34 4.44,-74.5 -8.36,-58.17 10.2,-38.93 27.64,-25.86"/>
<polygon fill="#63b8ff" stroke="#63b8ff" points="29.32,-28.26 35.48,-19.64 25.29,-22.53 29.32,-28.26"/>
</g>
<!-- Node3 -->
<g id="node3" class="node">
<title>Node3</title>
<g id="a_node3"><a xlink:title=" ">
<polygon fill="#e0e0e0" stroke="#999999" points="71.82,-74.5 13.07,-74.5 13.07,-55.25 71.82,-55.25 71.82,-74.5"/>
<text text-anchor="middle" x="42.44" y="-61" font-family="Helvetica,sans-Serif" font-size="10.00">stdexcept</text>
</a>
</g>
</g>
<!-- Node1&#45;&gt;Node3 -->
<g id="edge2" class="edge">
<title>Node1&#45;&gt;Node3</title>
<path fill="none" stroke="#63b8ff" d="M162.02,-110.09C138.74,-101.49 103.47,-88.44 77.25,-78.75"/>
<polygon fill="#63b8ff" stroke="#63b8ff" points="78.58,-75.14 67.99,-74.95 76.16,-81.7 78.58,-75.14"/>
</g>
<!-- Node4 -->
<g id="node4" class="node">
<title>Node4</title>
<g id="a_node4"><a xlink:title=" ">
<polygon fill="#e0e0e0" stroke="#999999" points="332.44,-19.25 292.44,-19.25 292.44,0 332.44,0 332.44,-19.25"/>
<text text-anchor="middle" x="312.44" y="-5.75" font-family="Helvetica,sans-Serif" font-size="10.00">string</text>
</a>
</g>
</g>
<!-- Node1&#45;&gt;Node4 -->
<g id="edge3" class="edge">
<title>Node1&#45;&gt;Node4</title>
<path fill="none" stroke="#63b8ff" d="M241.44,-112.2C286.15,-105.3 344.1,-93.04 358.44,-74.5 371.05,-58.21 352.86,-38.96 335.78,-25.88"/>
<polygon fill="#63b8ff" stroke="#63b8ff" points="338.27,-22.65 328.11,-19.65 334.19,-28.33 338.27,-22.65"/>
</g>
<!-- Node5 -->
<g id="node5" class="node">
<title>Node5</title>
<g id="a_node5"><a xlink:title=" ">
<polygon fill="#e0e0e0" stroke="#999999" points="209.44,-74.5 163.44,-74.5 163.44,-55.25 209.44,-55.25 209.44,-74.5"/>
<text text-anchor="middle" x="186.44" y="-61" font-family="Helvetica,sans-Serif" font-size="10.00">fftw3.h</text>
</a>
</g>
</g>
<!-- Node1&#45;&gt;Node5 -->
<g id="edge4" class="edge">
<title>Node1&#45;&gt;Node5</title>
<path fill="none" stroke="#63b8ff" d="M186.44,-110.33C186.44,-103.67 186.44,-94.24 186.44,-85.78"/>
<polygon fill="#63b8ff" stroke="#63b8ff" points="189.94,-85.86 186.44,-75.86 182.94,-85.86 189.94,-85.86"/>
</g>
<!-- Node6 -->
<g id="node6" class="node">
<title>Node6</title>
<g id="a_node6"><a xlink:href="globals_8h.html" target="_top" xlink:title="Type definitions and global constants.">
<polygon fill="white" stroke="#666666" points="144.94,-74.5 89.94,-74.5 89.94,-55.25 144.94,-55.25 144.94,-74.5"/>
<text text-anchor="middle" x="117.44" y="-61" font-family="Helvetica,sans-Serif" font-size="10.00">globals.h</text>
</a>
</g>
</g>
<!-- Node1&#45;&gt;Node6 -->
<g id="edge5" class="edge">
<title>Node1&#45;&gt;Node6</title>
<path fill="none" stroke="#63b8ff" d="M174.74,-110.09C164.57,-102.24 149.61,-90.7 137.53,-81.37"/>
<polygon fill="#63b8ff" stroke="#63b8ff" points="140.03,-78.11 129.98,-74.77 135.75,-83.66 140.03,-78.11"/>
</g>
<!-- Node7 -->
<g id="node7" class="node">
<title>Node7</title>
<g id="a_node7"><a xlink:title=" ">
<polygon fill="#e0e0e0" stroke="#999999" points="348.94,-74.5 287.94,-74.5 287.94,-55.25 348.94,-55.25 348.94,-74.5"/>
<text text-anchor="middle" x="318.44" y="-61" font-family="Helvetica,sans-Serif" font-size="10.00">matlabio.h</text>
</a>
</g>
</g>
<!-- Node1&#45;&gt;Node7 -->
<g id="edge7" class="edge">
<title>Node1&#45;&gt;Node7</title>
<path fill="none" stroke="#63b8ff" d="M208.84,-110.09C229.98,-101.56 261.93,-88.67 285.89,-79.01"/>
<polygon fill="#63b8ff" stroke="#63b8ff" points="286.98,-81.94 294.94,-74.95 284.36,-75.45 286.98,-81.94"/>
</g>
<!-- Node8 -->
<g id="node8" class="node">
<title>Node8</title>
<g id="a_node8"><a xlink:href="utils_8h.html" target="_top" xlink:title="Useful miscellaneous utility functions.">
<polygon fill="white" stroke="#666666" points="269.57,-74.5 227.32,-74.5 227.32,-55.25 269.57,-55.25 269.57,-74.5"/>
<text text-anchor="middle" x="248.44" y="-61" font-family="Helvetica,sans-Serif" font-size="10.00">utils.h</text>
</a>
</g>
</g>
<!-- Node1&#45;&gt;Node8 -->
<g id="edge8" class="edge">
<title>Node1&#45;&gt;Node8</title>
<path fill="none" stroke="#63b8ff" d="M196.96,-110.09C205.92,-102.4 219.02,-91.15 229.76,-81.93"/>
<polygon fill="#63b8ff" stroke="#63b8ff" points="231.78,-83.95 237.08,-74.77 227.21,-78.64 231.78,-83.95"/>
</g>
<!-- Node6&#45;&gt;Node2 -->
<g id="edge6" class="edge">
<title>Node6&#45;&gt;Node2</title>
<path fill="none" stroke="#63b8ff" d="M106.25,-54.84C96.61,-47.07 82.49,-35.67 70.99,-26.4"/>
<polygon fill="#63b8ff" stroke="#63b8ff" points="73.45,-23.08 63.47,-19.52 69.06,-28.53 73.45,-23.08"/>
</g>
<!-- Node8&#45;&gt;Node4 -->
<g id="edge9" class="edge">
<title>Node8&#45;&gt;Node4</title>
<path fill="none" stroke="#63b8ff" d="M259.3,-54.84C268.64,-47.07 282.34,-35.67 293.48,-26.4"/>
<polygon fill="#63b8ff" stroke="#63b8ff" points="295.3,-28.61 300.75,-19.52 290.82,-23.23 295.3,-28.61"/>
</g>
</g>
</svg>
