<?xml version="1.0" encoding="UTF-8" standalone="no"?>
<!DOCTYPE svg PUBLIC "-//W3C//DTD SVG 1.1//EN"
 "http://www.w3.org/Graphics/SVG/1.1/DTD/svg11.dtd">
<!-- Generated by graphviz version 13.1.0 (20250701.0955)
 -->
<!-- Title: tdms/include/arrays.h Pages: 1 -->
<svg width="462pt" height="138pt"
 viewBox="0.00 0.00 462.00 138.00" xmlns="http://www.w3.org/2000/svg" xmlns:xlink="http://www.w3.org/1999/xlink">
<g id="graph0" class="graph" transform="scale(1 1) rotate(0) translate(4 133.75)">
<title>tdms/include/arrays.h</title>
<!-- Node1 -->
<g id="Node000001" class="node">
<title>Node1</title>
<g id="a_Node000001"><a xlink:title="Classes describing arrays, vertices etc.">
<polygon fill="#999999" stroke="#666666" points="242.25,-129.75 132.5,-129.75 132.5,-110.5 242.25,-110.5 242.25,-129.75"/>
<text xml:space="preserve" text-anchor="middle" x="187.38" y="-116.25" font-family="Helvetica,sans-Serif" font-size="10.00">tdms/include/arrays.h</text>
</a>
</g>
</g>
<!-- Node2 -->
<g id="Node000002" class="node">
<title>Node2</title>
<g id="a_Node000002"><a xlink:title=" ">
<polygon fill="#e0e0e0" stroke="#999999" points="52.75,-19.25 0,-19.25 0,0 52.75,0 52.75,-19.25"/>
<text xml:space="preserve" text-anchor="middle" x="26.38" y="-5.75" font-family="Helvetica,sans-Serif" font-size="10.00">complex</text>
</a>
</g>
</g>
<!-- Node1&#45;&gt;Node2 -->
<g id="edge1_Node000001_Node000002" class="edge">
<title>Node1&#45;&gt;Node2</title>
<g id="a_edge1_Node000001_Node000002"><a xlink:title=" ">
<path fill="none" stroke="#63b8ff" d="M132.01,-118.11C97.97,-114.34 56.41,-103.5 32.38,-74.5 22.47,-62.55 21.57,-44.68 22.81,-30.88"/>
<polygon fill="#63b8ff" stroke="#63b8ff" points="26.25,-31.52 24.14,-21.14 19.32,-30.57 26.25,-31.52"/>
</a>
</g>
</g>
<!-- Node3 -->
<g id="Node000003" class="node">
<title>Node3</title>
<g id="a_Node000003"><a xlink:title=" ">
<polygon fill="#e0e0e0" stroke="#999999" points="310.75,-74.5 252,-74.5 252,-55.25 310.75,-55.25 310.75,-74.5"/>
<text xml:space="preserve" text-anchor="middle" x="281.38" y="-61" font-family="Helvetica,sans-Serif" font-size="10.00">stdexcept</text>
</a>
</g>
</g>
<!-- Node1&#45;&gt;Node3 -->
<g id="edge2_Node000001_Node000003" class="edge">
<title>Node1&#45;&gt;Node3</title>
<g id="a_edge2_Node000001_Node000003"><a xlink:title=" ">
<path fill="none" stroke="#63b8ff" d="M203.32,-110.09C217.64,-101.98 238.91,-89.93 255.63,-80.46"/>
<polygon fill="#63b8ff" stroke="#63b8ff" points="257.06,-83.67 264.03,-75.7 253.61,-77.58 257.06,-83.67"/>
</a>
</g>
</g>
<!-- Node4 -->
<g id="Node000004" class="node">
<title>Node4</title>
<g id="a_Node000004"><a xlink:title=" ">
<polygon fill="#e0e0e0" stroke="#999999" points="123.38,-19.25 83.38,-19.25 83.38,0 123.38,0 123.38,-19.25"/>
<text xml:space="preserve" text-anchor="middle" x="103.38" y="-5.75" font-family="Helvetica,sans-Serif" font-size="10.00">string</text>
</a>
</g>
</g>
<!-- Node1&#45;&gt;Node4 -->
<g id="edge3_Node000001_Node000004" class="edge">
<title>Node1&#45;&gt;Node4</title>
<g id="a_edge3_Node000001_Node000004"><a xlink:title=" ">
<path fill="none" stroke="#63b8ff" d="M180.5,-110.25C166.72,-92.44 135.47,-52.08 117.26,-28.56"/>
<polygon fill="#63b8ff" stroke="#63b8ff" points="120.16,-26.59 111.27,-20.82 114.62,-30.87 120.16,-26.59"/>
</a>
</g>
</g>
<!-- Node5 -->
<g id="Node000005" class="node">
<title>Node5</title>
<g id="a_Node000005"><a xlink:title=" ">
<polygon fill="#e0e0e0" stroke="#999999" points="184.88,-19.25 141.88,-19.25 141.88,0 184.88,0 184.88,-19.25"/>
<text xml:space="preserve" text-anchor="middle" x="163.38" y="-5.75" font-family="Helvetica,sans-Serif" font-size="10.00">vector</text>
</a>
</g>
</g>
<!-- Node1&#45;&gt;Node5 -->
<g id="edge4_Node000001_Node000005" class="edge">
<title>Node1&#45;&gt;Node5</title>
<g id="a_edge4_Node000001_Node000005"><a xlink:title=" ">
<path fill="none" stroke="#63b8ff" d="M185.41,-110.25C181.6,-93 173.1,-54.58 167.84,-30.81"/>
<polygon fill="#63b8ff" stroke="#63b8ff" points="171.27,-30.11 165.69,-21.1 164.44,-31.62 171.27,-30.11"/>
</a>
</g>
</g>
<!-- Node6 -->
<g id="Node000006" class="node">
<title>Node6</title>
<g id="a_Node000006"><a xlink:title=" ">
<polygon fill="#e0e0e0" stroke="#999999" points="374.38,-74.5 328.38,-74.5 328.38,-55.25 374.38,-55.25 374.38,-74.5"/>
<text xml:space="preserve" text-anchor="middle" x="351.38" y="-61" font-family="Helvetica,sans-Serif" font-size="10.00">fftw3.h</text>
</a>
</g>
</g>
<!-- Node1&#45;&gt;Node6 -->
<g id="edge5_Node000001_Node000006" class="edge">
<title>Node1&#45;&gt;Node6</title>
<g id="a_edge5_Node000001_Node000006"><a xlink:title=" ">
<path fill="none" stroke="#63b8ff" d="M215.2,-110.09C243.31,-100.96 286.82,-86.84 317.06,-77.02"/>
<polygon fill="#63b8ff" stroke="#63b8ff" points="318.07,-80.37 326.5,-73.95 315.91,-73.71 318.07,-80.37"/>
</a>
</g>
</g>
<!-- Node7 -->
<g id="Node000007" class="node">
<title>Node7</title>
<g id="a_Node000007"><a xlink:href="globals_8h.html" target="_top" xlink:title="Type definitions and global constants.">
<polygon fill="white" stroke="#666666" points="96.88,-74.5 41.88,-74.5 41.88,-55.25 96.88,-55.25 96.88,-74.5"/>
<text xml:space="preserve" text-anchor="middle" x="69.38" y="-61" font-family="Helvetica,sans-Serif" font-size="10.00">globals.h</text>
</a>
</g>
</g>
<!-- Node1&#45;&gt;Node7 -->
<g id="edge6_Node000001_Node000007" class="edge">
<title>Node1&#45;&gt;Node7</title>
<g id="a_edge6_Node000001_Node000007"><a xlink:title=" ">
<path fill="none" stroke="#63b8ff" d="M167.36,-110.09C148.88,-101.75 121.17,-89.25 99.93,-79.66"/>
<polygon fill="#63b8ff" stroke="#63b8ff" points="101.42,-76.5 90.87,-75.58 98.55,-82.88 101.42,-76.5"/>
</a>
</g>
</g>
<!-- Node8 -->
<g id="Node000008" class="node">
<title>Node8</title>
<g id="a_Node000008"><a xlink:title=" ">
<polygon fill="#e0e0e0" stroke="#999999" points="453.88,-74.5 392.88,-74.5 392.88,-55.25 453.88,-55.25 453.88,-74.5"/>
<text xml:space="preserve" text-anchor="middle" x="423.38" y="-61" font-family="Helvetica,sans-Serif" font-size="10.00">matlabio.h</text>
</a>
</g>
</g>
<!-- Node1&#45;&gt;Node8 -->
<g id="edge9_Node000001_Node000008" class="edge">
<title>Node1&#45;&gt;Node8</title>
<g id="a_edge9_Node000001_Node000008"><a xlink:title=" ">
<path fill="none" stroke="#63b8ff" d="M227.68,-110.03C270.58,-100.35 338.15,-85.11 381.6,-75.3"/>
<polygon fill="#63b8ff" stroke="#63b8ff" points="382.18,-78.76 391.16,-73.14 380.64,-71.93 382.18,-78.76"/>
</a>
</g>
</g>
<!-- Node9 -->
<g id="Node000009" class="node">
<title>Node9</title>
<g id="a_Node000009"><a xlink:href="utils_8h.html" target="_top" xlink:title="Useful miscellaneous utility functions.">
<polygon fill="white" stroke="#666666" points="233.5,-74.5 191.25,-74.5 191.25,-55.25 233.5,-55.25 233.5,-74.5"/>
<text xml:space="preserve" text-anchor="middle" x="212.38" y="-61" font-family="Helvetica,sans-Serif" font-size="10.00">utils.h</text>
</a>
</g>
</g>
<!-- Node1&#45;&gt;Node9 -->
<g id="edge10_Node000001_Node000009" class="edge">
<title>Node1&#45;&gt;Node9</title>
<g id="a_edge10_Node000001_Node000009"><a xlink:title=" ">
<path fill="none" stroke="#63b8ff" d="M191.5,-110.33C194.7,-103.51 199.26,-93.81 203.3,-85.2"/>
<polygon fill="#63b8ff" stroke="#63b8ff" points="206.43,-86.77 207.51,-76.23 200.1,-83.79 206.43,-86.77"/>
</a>
</g>
</g>
<!-- Node7&#45;&gt;Node2 -->
<g id="edge7_Node000007_Node000002" class="edge">
<title>Node7&#45;&gt;Node2</title>
<g id="a_edge7_Node000007_Node000002"><a xlink:title=" ">
<path fill="none" stroke="#63b8ff" d="M62.27,-55.08C56.46,-47.88 48.04,-37.46 40.82,-28.51"/>
<polygon fill="#63b8ff" stroke="#63b8ff" points="43.59,-26.37 34.58,-20.79 38.14,-30.77 43.59,-26.37"/>
</a>
</g>
</g>
<!-- Node7&#45;&gt;Node4 -->
<g id="edge8_Node000007_Node000004" class="edge">
<title>Node7&#45;&gt;Node4</title>
<g id="a_edge8_Node000007_Node000004"><a xlink:title=" ">
<path fill="none" stroke="#63b8ff" d="M74.99,-55.08C79.49,-48.03 85.96,-37.9 91.59,-29.08"/>
<polygon fill="#63b8ff" stroke="#63b8ff" points="94.39,-31.2 96.82,-20.88 88.49,-27.43 94.39,-31.2"/>
</a>
</g>
</g>
<!-- Node9&#45;&gt;Node4 -->
<g id="edge13_Node000009_Node000004" class="edge">
<title>Node9&#45;&gt;Node4</title>
<g id="a_edge13_Node000009_Node000004"><a xlink:title=" ">
<path fill="none" stroke="#63b8ff" d="M193.88,-54.84C176.97,-46.58 151.69,-34.23 132.14,-24.68"/>
<polygon fill="#63b8ff" stroke="#63b8ff" points="133.84,-21.61 123.32,-20.37 130.76,-27.9 133.84,-21.61"/>
</a>
</g>
</g>
<!-- Node9&#45;&gt;Node5 -->
<g id="edge14_Node000009_Node000005" class="edge">
<title>Node9&#45;&gt;Node5</title>
<g id="a_edge14_Node000009_Node000005"><a xlink:title=" ">
<path fill="none" stroke="#63b8ff" d="M204.28,-55.08C197.52,-47.73 187.65,-37.01 179.31,-27.94"/>
<polygon fill="#63b8ff" stroke="#63b8ff" points="182.01,-25.71 172.67,-20.72 176.86,-30.45 182.01,-25.71"/>
</a>
</g>
</g>
<!-- Node10 -->
<g id="Node000010" class="node">
<title>Node10</title>
<g id="a_Node000010"><a xlink:title=" ">
<polygon fill="#e0e0e0" stroke="#999999" points="323.25,-19.25 267.5,-19.25 267.5,0 323.25,0 323.25,-19.25"/>
<text xml:space="preserve" text-anchor="middle" x="295.38" y="-5.75" font-family="Helvetica,sans-Serif" font-size="10.00">algorithm</text>
</a>
</g>
</g>
<!-- Node9&#45;&gt;Node10 -->
<g id="edge11_Node000009_Node000010" class="edge">
<title>Node9&#45;&gt;Node10</title>
<g id="a_edge11_Node000009_Node000010"><a xlink:title=" ">
<path fill="none" stroke="#63b8ff" d="M226.45,-54.84C238.86,-46.89 257.17,-35.14 271.8,-25.75"/>
<polygon fill="#63b8ff" stroke="#63b8ff" points="273.43,-28.87 279.95,-20.52 269.65,-22.97 273.43,-28.87"/>
</a>
</g>
</g>
<!-- Node11 -->
<g id="Node000011" class="node">
<title>Node11</title>
<g id="a_Node000011"><a xlink:title=" ">
<polygon fill="#e0e0e0" stroke="#999999" points="249.38,-19.25 203.38,-19.25 203.38,0 249.38,0 249.38,-19.25"/>
<text xml:space="preserve" text-anchor="middle" x="226.38" y="-5.75" font-family="Helvetica,sans-Serif" font-size="10.00">iterator</text>
</a>
</g>
</g>
<!-- Node9&#45;&gt;Node11 -->
<g id="edge12_Node000009_Node000011" class="edge">
<title>Node9&#45;&gt;Node11</title>
<g id="a_edge12_Node000009_Node000011"><a xlink:title=" ">
<path fill="none" stroke="#63b8ff" d="M214.69,-55.08C216.44,-48.42 218.92,-38.99 221.14,-30.53"/>
<polygon fill="#63b8ff" stroke="#63b8ff" points="224.47,-31.63 223.63,-21.07 217.7,-29.85 224.47,-31.63"/>
</a>
</g>
</g>
</g>
</svg>
