<?xml version="1.0" encoding="UTF-8" standalone="no"?>
<!DOCTYPE svg PUBLIC "-//W3C//DTD SVG 1.1//EN"
 "http://www.w3.org/Graphics/SVG/1.1/DTD/svg11.dtd">
<!-- Generated by graphviz version 13.0.1 (20250615.1724)
 -->
<!-- Title: tdms/include/array_init.h Pages: 1 -->
<svg width="1149pt" height="370pt"
 viewBox="0.00 0.00 1149.00 370.00" xmlns="http://www.w3.org/2000/svg" xmlns:xlink="http://www.w3.org/1999/xlink">
<g id="graph0" class="graph" transform="scale(1 1) rotate(0) translate(4 366)">
<title>tdms/include/array_init.h</title>
<!-- Node1 -->
<g id="Node000001" class="node">
<title>Node1</title>
<g id="a_Node000001"><a xlink:title="A collection of functions for array initialisation given MATLAB pointers.">
<polygon fill="#999999" stroke="#666666" points="1024.88,-362 928.62,-362 928.62,-331.5 1024.88,-331.5 1024.88,-362"/>
<text xml:space="preserve" text-anchor="start" x="936.62" y="-348.5" font-family="Helvetica,sans-Serif" font-size="10.00">tdms/include/array</text>
<text xml:space="preserve" text-anchor="middle" x="976.75" y="-337.25" font-family="Helvetica,sans-Serif" font-size="10.00">_init.h</text>
</a>
</g>
</g>
<!-- Node2 -->
<g id="Node000002" class="node">
<title>Node2</title>
<g id="a_Node000002"><a xlink:href="field_8h.html" target="_top" xlink:title="Classes for the electric and magnetic (split) fields on a grid.">
<polygon fill="white" stroke="#666666" points="869.88,-295.5 827.62,-295.5 827.62,-276.25 869.88,-276.25 869.88,-295.5"/>
<text xml:space="preserve" text-anchor="middle" x="848.75" y="-282" font-family="Helvetica,sans-Serif" font-size="10.00">field.h</text>
</a>
</g>
</g>
<!-- Node1&#45;&gt;Node2 -->
<g id="edge1_Node000001_Node000002" class="edge">
<title>Node1&#45;&gt;Node2</title>
<g id="a_edge1_Node000001_Node000002"><a xlink:title=" ">
<path fill="none" stroke="#63b8ff" d="M944.78,-331.05C924.54,-321.73 898.53,-309.77 878.69,-300.65"/>
<polygon fill="#63b8ff" stroke="#63b8ff" points="880.3,-297.54 869.76,-296.54 877.38,-303.9 880.3,-297.54"/>
</a>
</g>
</g>
<!-- Node19 -->
<g id="Node000019" class="node">
<title>Node19</title>
<g id="a_Node000019"><a xlink:href="mat__io_8h.html" target="_top" xlink:title="Includes MATLAB headers for I/O.">
<polygon fill="white" stroke="#666666" points="1022.5,-74.5 969,-74.5 969,-55.25 1022.5,-55.25 1022.5,-74.5"/>
<text xml:space="preserve" text-anchor="middle" x="995.75" y="-61" font-family="Helvetica,sans-Serif" font-size="10.00">mat_io.h</text>
</a>
</g>
</g>
<!-- Node1&#45;&gt;Node19 -->
<g id="edge50_Node000001_Node000019" class="edge">
<title>Node1&#45;&gt;Node19</title>
<g id="a_edge50_Node000001_Node000019"><a xlink:title=" ">
<path fill="none" stroke="#63b8ff" d="M1025.07,-334.17C1073.44,-319.35 1140.75,-288.51 1140.75,-231.62 1140.75,-231.62 1140.75,-231.62 1140.75,-174.38 1140.75,-120.84 1076.59,-90.52 1033.63,-76.21"/>
<polygon fill="#63b8ff" stroke="#63b8ff" points="1034.72,-72.89 1024.13,-73.21 1032.61,-79.56 1034.72,-72.89"/>
</a>
</g>
</g>
<!-- Node3 -->
<g id="Node000003" class="node">
<title>Node3</title>
<g id="a_Node000003"><a xlink:title=" ">
<polygon fill="#e0e0e0" stroke="#999999" points="908.12,-74.5 855.38,-74.5 855.38,-55.25 908.12,-55.25 908.12,-74.5"/>
<text xml:space="preserve" text-anchor="middle" x="881.75" y="-61" font-family="Helvetica,sans-Serif" font-size="10.00">complex</text>
</a>
</g>
</g>
<!-- Node2&#45;&gt;Node3 -->
<g id="edge2_Node000002_Node000003" class="edge">
<title>Node2&#45;&gt;Node3</title>
<g id="a_edge2_Node000002_Node000003"><a xlink:title=" ">
<path fill="none" stroke="#63b8ff" d="M843.33,-276.14C836.36,-263.79 825.83,-240.55 831.75,-221 837.32,-202.6 846.42,-201.82 855.75,-185 868.82,-161.43 874.86,-156.05 880.75,-129.75 883.99,-115.3 884.12,-98.55 883.5,-85.83"/>
<polygon fill="#63b8ff" stroke="#63b8ff" points="887.02,-85.93 882.83,-76.2 880.04,-86.41 887.02,-85.93"/>
</a>
</g>
</g>
<!-- Node4 -->
<g id="Node000004" class="node">
<title>Node4</title>
<g id="a_Node000004"><a xlink:href="arrays_8h.html" target="_top" xlink:title="Classes describing arrays, vertices etc.">
<polygon fill="white" stroke="#666666" points="487.38,-185 436.12,-185 436.12,-165.75 487.38,-165.75 487.38,-185"/>
<text xml:space="preserve" text-anchor="middle" x="461.75" y="-171.5" font-family="Helvetica,sans-Serif" font-size="10.00">arrays.h</text>
</a>
</g>
</g>
<!-- Node2&#45;&gt;Node4 -->
<g id="edge3_Node000002_Node000004" class="edge">
<title>Node2&#45;&gt;Node4</title>
<g id="a_edge3_Node000002_Node000004"><a xlink:title=" ">
<path fill="none" stroke="#63b8ff" d="M827.23,-280.66C791.11,-273.42 716.12,-257.72 653.75,-240.25 598.33,-224.73 535.21,-202.91 496.94,-189.22"/>
<polygon fill="#63b8ff" stroke="#63b8ff" points="498.39,-186.02 487.79,-185.92 496.02,-192.6 498.39,-186.02"/>
</a>
</g>
</g>
<!-- Node14 -->
<g id="Node000014" class="node">
<title>Node14</title>
<g id="a_Node000014"><a xlink:title=" ">
<polygon fill="#e0e0e0" stroke="#999999" points="926.62,-240.25 840.88,-240.25 840.88,-221 926.62,-221 926.62,-240.25"/>
<text xml:space="preserve" text-anchor="middle" x="883.75" y="-226.75" font-family="Helvetica,sans-Serif" font-size="10.00">arrays/eh_vec.h</text>
</a>
</g>
</g>
<!-- Node2&#45;&gt;Node14 -->
<g id="edge18_Node000002_Node000014" class="edge">
<title>Node2&#45;&gt;Node14</title>
<g id="a_edge18_Node000002_Node000014"><a xlink:title=" ">
<path fill="none" stroke="#63b8ff" d="M854.53,-276.08C859.16,-269.03 865.82,-258.9 871.62,-250.08"/>
<polygon fill="#63b8ff" stroke="#63b8ff" points="874.45,-252.15 877.01,-241.87 868.6,-248.31 874.45,-252.15"/>
</a>
</g>
</g>
<!-- Node15 -->
<g id="Node000015" class="node">
<title>Node15</title>
<g id="a_Node000015"><a xlink:title=" ">
<polygon fill="#e0e0e0" stroke="#999999" points="1074.62,-240.25 982.88,-240.25 982.88,-221 1074.62,-221 1074.62,-240.25"/>
<text xml:space="preserve" text-anchor="middle" x="1028.75" y="-226.75" font-family="Helvetica,sans-Serif" font-size="10.00">arrays/tensor3d.h</text>
</a>
</g>
</g>
<!-- Node2&#45;&gt;Node15 -->
<g id="edge19_Node000002_Node000015" class="edge">
<title>Node2&#45;&gt;Node15</title>
<g id="a_edge19_Node000002_Node000015"><a xlink:title=" ">
<path fill="none" stroke="#63b8ff" d="M870.11,-278.56C898.88,-270.04 950.72,-254.71 987.29,-243.89"/>
<polygon fill="#63b8ff" stroke="#63b8ff" points="988.06,-247.31 996.66,-241.12 986.08,-240.6 988.06,-247.31"/>
</a>
</g>
</g>
<!-- Node16 -->
<g id="Node000016" class="node">
<title>Node16</title>
<g id="a_Node000016"><a xlink:href="cell__coordinate_8h.html" target="_top" xlink:title="Container for {ijk} or {IJK} grouped variables.">
<polygon fill="white" stroke="#666666" points="89.5,-129.75 0,-129.75 0,-110.5 89.5,-110.5 89.5,-129.75"/>
<text xml:space="preserve" text-anchor="middle" x="44.75" y="-116.25" font-family="Helvetica,sans-Serif" font-size="10.00">cell_coordinate.h</text>
</a>
</g>
</g>
<!-- Node2&#45;&gt;Node16 -->
<g id="edge20_Node000002_Node000016" class="edge">
<title>Node2&#45;&gt;Node16</title>
<g id="a_edge20_Node000002_Node000016"><a xlink:title=" ">
<path fill="none" stroke="#63b8ff" d="M827.45,-282.91C774.22,-277.8 631.28,-262.92 513.75,-240.25 353.82,-209.4 167.13,-156.95 85.94,-133.31"/>
<polygon fill="#63b8ff" stroke="#63b8ff" points="87.23,-130.04 76.65,-130.6 85.27,-136.76 87.23,-130.04"/>
</a>
</g>
</g>
<!-- Node18 -->
<g id="Node000018" class="node">
<title>Node18</title>
<g id="a_Node000018"><a xlink:href="dimensions_8h.html" target="_top" xlink:title="Defines a class that serves as an explicit converter between MATLAB pointers and array dimensions.">
<polygon fill="white" stroke="#666666" points="1067.62,-185 993.88,-185 993.88,-165.75 1067.62,-165.75 1067.62,-185"/>
<text xml:space="preserve" text-anchor="middle" x="1030.75" y="-171.5" font-family="Helvetica,sans-Serif" font-size="10.00">dimensions.h</text>
</a>
</g>
</g>
<!-- Node2&#45;&gt;Node18 -->
<g id="edge23_Node000002_Node000018" class="edge">
<title>Node2&#45;&gt;Node18</title>
<g id="a_edge23_Node000002_Node000018"><a xlink:title=" ">
<path fill="none" stroke="#63b8ff" d="M868.11,-275.76C885.97,-267.16 913.09,-253.62 935.75,-240.25 961.72,-224.93 990.28,-205.33 1009.23,-191.91"/>
<polygon fill="#63b8ff" stroke="#63b8ff" points="1011.11,-194.87 1017.22,-186.21 1007.05,-189.17 1011.11,-194.87"/>
</a>
</g>
</g>
<!-- Node2&#45;&gt;Node19 -->
<g id="edge35_Node000002_Node000019" class="edge">
<title>Node2&#45;&gt;Node19</title>
<g id="a_edge35_Node000002_Node000019"><a xlink:title=" ">
<path fill="none" stroke="#63b8ff" d="M870.17,-284.15C922.89,-281.89 1056.67,-272.96 1083.75,-240.25 1126.02,-189.2 1052.46,-114.47 1015.29,-81.96"/>
<polygon fill="#63b8ff" stroke="#63b8ff" points="1017.75,-79.46 1007.87,-75.63 1013.21,-84.79 1017.75,-79.46"/>
</a>
</g>
</g>
<!-- Node23 -->
<g id="Node000023" class="node">
<title>Node23</title>
<g id="a_Node000023"><a xlink:href="input__flags_8h.html" target="_top" xlink:title="Organises enumerated constants, names, and classes for handling flag&#45;variables that are passed to TDM...">
<polygon fill="white" stroke="#666666" points="217.5,-129.75 146,-129.75 146,-110.5 217.5,-110.5 217.5,-129.75"/>
<text xml:space="preserve" text-anchor="middle" x="181.75" y="-116.25" font-family="Helvetica,sans-Serif" font-size="10.00">input_flags.h</text>
</a>
</g>
</g>
<!-- Node2&#45;&gt;Node23 -->
<g id="edge28_Node000002_Node000023" class="edge">
<title>Node2&#45;&gt;Node23</title>
<g id="a_edge28_Node000002_Node000023"><a xlink:title=" ">
<path fill="none" stroke="#63b8ff" d="M827.18,-281.98C782.67,-275.82 677.55,-260.33 590.75,-240.25 452.25,-208.21 291.15,-157.12 219.47,-133.66"/>
<polygon fill="#63b8ff" stroke="#63b8ff" points="220.79,-130.4 210.19,-130.61 218.6,-137.06 220.79,-130.4"/>
</a>
</g>
</g>
<!-- Node24 -->
<g id="Node000024" class="node">
<title>Node24</title>
<g id="a_Node000024"><a xlink:href="simulation__parameters_8h.html" target="_top" xlink:title="Classes collecting parameters for the simulation.">
<polygon fill="white" stroke="#666666" points="785,-240.25 662.5,-240.25 662.5,-221 785,-221 785,-240.25"/>
<text xml:space="preserve" text-anchor="middle" x="723.75" y="-226.75" font-family="Helvetica,sans-Serif" font-size="10.00">simulation_parameters.h</text>
</a>
</g>
</g>
<!-- Node2&#45;&gt;Node24 -->
<g id="edge36_Node000002_Node000024" class="edge">
<title>Node2&#45;&gt;Node24</title>
<g id="a_edge36_Node000002_Node000024"><a xlink:title=" ">
<path fill="none" stroke="#63b8ff" d="M827.55,-275.84C807.79,-267.43 778.08,-254.77 755.5,-245.15"/>
<polygon fill="#63b8ff" stroke="#63b8ff" points="757.02,-241.99 746.45,-241.3 754.28,-248.43 757.02,-241.99"/>
</a>
</g>
</g>
<!-- Node4&#45;&gt;Node3 -->
<g id="edge4_Node000004_Node000003" class="edge">
<title>Node4&#45;&gt;Node3</title>
<g id="a_edge4_Node000004_Node000003"><a xlink:title=" ">
<path fill="none" stroke="#63b8ff" d="M487.71,-171.14C501.15,-169.49 517.82,-167.47 532.75,-165.75 606.03,-157.3 806.1,-177 862.75,-129.75 875.39,-119.2 879.85,-100.64 881.32,-86.24"/>
<polygon fill="#63b8ff" stroke="#63b8ff" points="884.8,-86.65 881.88,-76.47 877.81,-86.25 884.8,-86.65"/>
</a>
</g>
</g>
<!-- Node5 -->
<g id="Node000005" class="node">
<title>Node5</title>
<g id="a_Node000005"><a xlink:title=" ">
<polygon fill="#e0e0e0" stroke="#999999" points="164.12,-74.5 105.38,-74.5 105.38,-55.25 164.12,-55.25 164.12,-74.5"/>
<text xml:space="preserve" text-anchor="middle" x="134.75" y="-61" font-family="Helvetica,sans-Serif" font-size="10.00">stdexcept</text>
</a>
</g>
</g>
<!-- Node4&#45;&gt;Node5 -->
<g id="edge5_Node000004_Node000005" class="edge">
<title>Node4&#45;&gt;Node5</title>
<g id="a_edge5_Node000004_Node000005"><a xlink:title=" ">
<path fill="none" stroke="#63b8ff" d="M435.68,-174.9C365.7,-175.71 176.33,-173.72 136.75,-129.75 126.19,-118.01 126.75,-99.59 129.33,-85.53"/>
<polygon fill="#63b8ff" stroke="#63b8ff" points="132.68,-86.6 131.55,-76.06 125.86,-85 132.68,-86.6"/>
</a>
</g>
</g>
<!-- Node6 -->
<g id="Node000006" class="node">
<title>Node6</title>
<g id="a_Node000006"><a xlink:title=" ">
<polygon fill="#e0e0e0" stroke="#999999" points="632.75,-74.5 592.75,-74.5 592.75,-55.25 632.75,-55.25 632.75,-74.5"/>
<text xml:space="preserve" text-anchor="middle" x="612.75" y="-61" font-family="Helvetica,sans-Serif" font-size="10.00">string</text>
</a>
</g>
</g>
<!-- Node4&#45;&gt;Node6 -->
<g id="edge6_Node000004_Node000006" class="edge">
<title>Node4&#45;&gt;Node6</title>
<g id="a_edge6_Node000004_Node000006"><a xlink:title=" ">
<path fill="none" stroke="#63b8ff" d="M465.88,-165.32C472.51,-151.71 486.71,-125.94 505.75,-110.5 528.08,-92.39 558.81,-80.59 581.61,-73.71"/>
<polygon fill="#63b8ff" stroke="#63b8ff" points="582.3,-77.15 590.96,-71.04 580.38,-70.42 582.3,-77.15"/>
</a>
</g>
</g>
<!-- Node7 -->
<g id="Node000007" class="node">
<title>Node7</title>
<g id="a_Node000007"><a xlink:title=" ">
<polygon fill="#e0e0e0" stroke="#999999" points="413.25,-74.5 370.25,-74.5 370.25,-55.25 413.25,-55.25 413.25,-74.5"/>
<text xml:space="preserve" text-anchor="middle" x="391.75" y="-61" font-family="Helvetica,sans-Serif" font-size="10.00">vector</text>
</a>
</g>
</g>
<!-- Node4&#45;&gt;Node7 -->
<g id="edge7_Node000004_Node000007" class="edge">
<title>Node4&#45;&gt;Node7</title>
<g id="a_edge7_Node000004_Node000007"><a xlink:title=" ">
<path fill="none" stroke="#63b8ff" d="M443.93,-165.34C430.71,-157.68 413.38,-145.45 403.75,-129.75 395.7,-116.63 392.82,-99.36 391.89,-86.08"/>
<polygon fill="#63b8ff" stroke="#63b8ff" points="395.4,-86.22 391.54,-76.36 388.4,-86.48 395.4,-86.22"/>
</a>
</g>
</g>
<!-- Node8 -->
<g id="Node000008" class="node">
<title>Node8</title>
<g id="a_Node000008"><a xlink:title=" ">
<polygon fill="#e0e0e0" stroke="#999999" points="458.75,-129.75 412.75,-129.75 412.75,-110.5 458.75,-110.5 458.75,-129.75"/>
<text xml:space="preserve" text-anchor="middle" x="435.75" y="-116.25" font-family="Helvetica,sans-Serif" font-size="10.00">fftw3.h</text>
</a>
</g>
</g>
<!-- Node4&#45;&gt;Node8 -->
<g id="edge8_Node000004_Node000008" class="edge">
<title>Node4&#45;&gt;Node8</title>
<g id="a_edge8_Node000004_Node000008"><a xlink:title=" ">
<path fill="none" stroke="#63b8ff" d="M457.46,-165.58C454.13,-158.76 449.39,-149.06 445.19,-140.45"/>
<polygon fill="#63b8ff" stroke="#63b8ff" points="448.33,-138.92 440.8,-131.47 442.04,-141.99 448.33,-138.92"/>
</a>
</g>
</g>
<!-- Node9 -->
<g id="Node000009" class="node">
<title>Node9</title>
<g id="a_Node000009"><a xlink:href="globals_8h.html" target="_top" xlink:title="Type definitions and global constants.">
<polygon fill="white" stroke="#666666" points="853.25,-129.75 798.25,-129.75 798.25,-110.5 853.25,-110.5 853.25,-129.75"/>
<text xml:space="preserve" text-anchor="middle" x="825.75" y="-116.25" font-family="Helvetica,sans-Serif" font-size="10.00">globals.h</text>
</a>
</g>
</g>
<!-- Node4&#45;&gt;Node9 -->
<g id="edge9_Node000004_Node000009" class="edge">
<title>Node4&#45;&gt;Node9</title>
<g id="a_edge9_Node000004_Node000009"><a xlink:title=" ">
<path fill="none" stroke="#63b8ff" d="M487.74,-171.18C551.24,-163.32 713.88,-142.87 786.97,-130.07"/>
<polygon fill="#63b8ff" stroke="#63b8ff" points="787.2,-133.59 796.41,-128.36 785.95,-126.7 787.2,-133.59"/>
</a>
</g>
</g>
<!-- Node10 -->
<g id="Node000010" class="node">
<title>Node10</title>
<g id="a_Node000010"><a xlink:title=" ">
<polygon fill="#e0e0e0" stroke="#999999" points="296.25,-129.75 235.25,-129.75 235.25,-110.5 296.25,-110.5 296.25,-129.75"/>
<text xml:space="preserve" text-anchor="middle" x="265.75" y="-116.25" font-family="Helvetica,sans-Serif" font-size="10.00">matlabio.h</text>
</a>
</g>
</g>
<!-- Node4&#45;&gt;Node10 -->
<g id="edge12_Node000004_Node000010" class="edge">
<title>Node4&#45;&gt;Node10</title>
<g id="a_edge12_Node000004_Node000010"><a xlink:title=" ">
<path fill="none" stroke="#63b8ff" d="M435.72,-167.3C403.02,-158.42 346.5,-143.06 307.68,-132.52"/>
<polygon fill="#63b8ff" stroke="#63b8ff" points="308.77,-129.18 298.2,-129.94 306.93,-135.94 308.77,-129.18"/>
</a>
</g>
</g>
<!-- Node11 -->
<g id="Node000011" class="node">
<title>Node11</title>
<g id="a_Node000011"><a xlink:href="utils_8h.html" target="_top" xlink:title="Useful miscellaneous utility functions.">
<polygon fill="white" stroke="#666666" points="356.88,-129.75 314.62,-129.75 314.62,-110.5 356.88,-110.5 356.88,-129.75"/>
<text xml:space="preserve" text-anchor="middle" x="335.75" y="-116.25" font-family="Helvetica,sans-Serif" font-size="10.00">utils.h</text>
</a>
</g>
</g>
<!-- Node4&#45;&gt;Node11 -->
<g id="edge13_Node000004_Node000011" class="edge">
<title>Node4&#45;&gt;Node11</title>
<g id="a_edge13_Node000004_Node000011"><a xlink:title=" ">
<path fill="none" stroke="#63b8ff" d="M440.38,-165.34C420.46,-156.93 390.51,-144.27 367.75,-134.65"/>
<polygon fill="#63b8ff" stroke="#63b8ff" points="369.2,-131.46 358.62,-130.79 366.47,-137.91 369.2,-131.46"/>
</a>
</g>
</g>
<!-- Node9&#45;&gt;Node3 -->
<g id="edge10_Node000009_Node000003" class="edge">
<title>Node9&#45;&gt;Node3</title>
<g id="a_edge10_Node000009_Node000003"><a xlink:title=" ">
<path fill="none" stroke="#63b8ff" d="M835.25,-110.09C843.18,-102.55 854.7,-91.6 864.29,-82.48"/>
<polygon fill="#63b8ff" stroke="#63b8ff" points="866.46,-85.24 871.29,-75.82 861.64,-80.17 866.46,-85.24"/>
</a>
</g>
</g>
<!-- Node9&#45;&gt;Node6 -->
<g id="edge11_Node000009_Node000006" class="edge">
<title>Node9&#45;&gt;Node6</title>
<g id="a_edge11_Node000009_Node000006"><a xlink:title=" ">
<path fill="none" stroke="#63b8ff" d="M797.9,-112.16C758.2,-102.24 685.55,-84.08 644.04,-73.7"/>
<polygon fill="#63b8ff" stroke="#63b8ff" points="644.98,-70.33 634.43,-71.3 643.28,-77.12 644.98,-70.33"/>
</a>
</g>
</g>
<!-- Node11&#45;&gt;Node6 -->
<g id="edge16_Node000011_Node000006" class="edge">
<title>Node11&#45;&gt;Node6</title>
<g id="a_edge16_Node000011_Node000006"><a xlink:title=" ">
<path fill="none" stroke="#63b8ff" d="M357.03,-115.03C405.52,-105.71 524.43,-82.85 581.37,-71.91"/>
<polygon fill="#63b8ff" stroke="#63b8ff" points="581.88,-75.37 591.04,-70.05 580.56,-68.5 581.88,-75.37"/>
</a>
</g>
</g>
<!-- Node11&#45;&gt;Node7 -->
<g id="edge17_Node000011_Node000007" class="edge">
<title>Node11&#45;&gt;Node7</title>
<g id="a_edge17_Node000011_Node000007"><a xlink:title=" ">
<path fill="none" stroke="#63b8ff" d="M345.25,-110.09C353.18,-102.55 364.7,-91.6 374.29,-82.48"/>
<polygon fill="#63b8ff" stroke="#63b8ff" points="376.46,-85.24 381.29,-75.82 371.64,-80.17 376.46,-85.24"/>
</a>
</g>
</g>
<!-- Node12 -->
<g id="Node000012" class="node">
<title>Node12</title>
<g id="a_Node000012"><a xlink:title=" ">
<polygon fill="#e0e0e0" stroke="#999999" points="237.62,-74.5 181.88,-74.5 181.88,-55.25 237.62,-55.25 237.62,-74.5"/>
<text xml:space="preserve" text-anchor="middle" x="209.75" y="-61" font-family="Helvetica,sans-Serif" font-size="10.00">algorithm</text>
</a>
</g>
</g>
<!-- Node11&#45;&gt;Node12 -->
<g id="edge14_Node000011_Node000012" class="edge">
<title>Node11&#45;&gt;Node12</title>
<g id="a_edge14_Node000011_Node000012"><a xlink:title=" ">
<path fill="none" stroke="#63b8ff" d="M314.38,-110.09C294.46,-101.68 264.51,-89.02 241.75,-79.4"/>
<polygon fill="#63b8ff" stroke="#63b8ff" points="243.2,-76.21 232.62,-75.54 240.47,-82.66 243.2,-76.21"/>
</a>
</g>
</g>
<!-- Node13 -->
<g id="Node000013" class="node">
<title>Node13</title>
<g id="a_Node000013"><a xlink:title=" ">
<polygon fill="#e0e0e0" stroke="#999999" points="351.75,-74.5 305.75,-74.5 305.75,-55.25 351.75,-55.25 351.75,-74.5"/>
<text xml:space="preserve" text-anchor="middle" x="328.75" y="-61" font-family="Helvetica,sans-Serif" font-size="10.00">iterator</text>
</a>
</g>
</g>
<!-- Node11&#45;&gt;Node13 -->
<g id="edge15_Node000011_Node000013" class="edge">
<title>Node11&#45;&gt;Node13</title>
<g id="a_edge15_Node000011_Node000013"><a xlink:title=" ">
<path fill="none" stroke="#63b8ff" d="M334.59,-110.33C333.73,-103.74 332.51,-94.46 331.41,-86.07"/>
<polygon fill="#63b8ff" stroke="#63b8ff" points="334.9,-85.82 330.13,-76.36 327.96,-86.73 334.9,-85.82"/>
</a>
</g>
</g>
<!-- Node16&#45;&gt;Node12 -->
<g id="edge22_Node000016_Node000012" class="edge">
<title>Node16&#45;&gt;Node12</title>
<g id="a_edge22_Node000016_Node000012"><a xlink:title=" ">
<path fill="none" stroke="#63b8ff" d="M72.74,-110.09C99.76,-101.37 140.91,-88.09 171.06,-78.36"/>
<polygon fill="#63b8ff" stroke="#63b8ff" points="171.74,-81.82 180.18,-75.42 169.59,-75.16 171.74,-81.82"/>
</a>
</g>
</g>
<!-- Node17 -->
<g id="Node000017" class="node">
<title>Node17</title>
<g id="a_Node000017"><a xlink:title=" ">
<polygon fill="#e0e0e0" stroke="#999999" points="86.88,-74.5 2.62,-74.5 2.62,-55.25 86.88,-55.25 86.88,-74.5"/>
<text xml:space="preserve" text-anchor="middle" x="44.75" y="-61" font-family="Helvetica,sans-Serif" font-size="10.00">spdlog/spdlog.h</text>
</a>
</g>
</g>
<!-- Node16&#45;&gt;Node17 -->
<g id="edge21_Node000016_Node000017" class="edge">
<title>Node16&#45;&gt;Node17</title>
<g id="a_edge21_Node000016_Node000017"><a xlink:title=" ">
<path fill="none" stroke="#63b8ff" d="M44.75,-110.33C44.75,-103.82 44.75,-94.67 44.75,-86.37"/>
<polygon fill="#63b8ff" stroke="#63b8ff" points="48.25,-86.37 44.75,-76.37 41.25,-86.37 48.25,-86.37"/>
</a>
</g>
</g>
<!-- Node18&#45;&gt;Node19 -->
<g id="edge24_Node000018_Node000019" class="edge">
<title>Node18&#45;&gt;Node19</title>
<g id="a_edge24_Node000018_Node000019"><a xlink:title=" ">
<path fill="none" stroke="#63b8ff" d="M1027.89,-165.5C1022.3,-148.17 1009.82,-109.48 1002.16,-85.74"/>
<polygon fill="#63b8ff" stroke="#63b8ff" points="1005.52,-84.76 999.12,-76.32 998.86,-86.91 1005.52,-84.76"/>
</a>
</g>
</g>
<!-- Node20 -->
<g id="Node000020" class="node">
<title>Node20</title>
<g id="a_Node000020"><a xlink:title=" ">
<polygon fill="#e0e0e0" stroke="#999999" points="952.12,-19.25 911.38,-19.25 911.38,0 952.12,0 952.12,-19.25"/>
<text xml:space="preserve" text-anchor="middle" x="931.75" y="-5.75" font-family="Helvetica,sans-Serif" font-size="10.00">mat.h</text>
</a>
</g>
</g>
<!-- Node19&#45;&gt;Node20 -->
<g id="edge25_Node000019_Node000020" class="edge">
<title>Node19&#45;&gt;Node20</title>
<g id="a_edge25_Node000019_Node000020"><a xlink:title=" ">
<path fill="none" stroke="#63b8ff" d="M984.89,-54.84C975.64,-47.15 962.13,-35.9 951.04,-26.68"/>
<polygon fill="#63b8ff" stroke="#63b8ff" points="953.54,-24.2 943.61,-20.49 949.06,-29.58 953.54,-24.2"/>
</a>
</g>
</g>
<!-- Node21 -->
<g id="Node000021" class="node">
<title>Node21</title>
<g id="a_Node000021"><a xlink:title=" ">
<polygon fill="#e0e0e0" stroke="#999999" points="1021.38,-19.25 970.12,-19.25 970.12,0 1021.38,0 1021.38,-19.25"/>
<text xml:space="preserve" text-anchor="middle" x="995.75" y="-5.75" font-family="Helvetica,sans-Serif" font-size="10.00">matrix.h</text>
</a>
</g>
</g>
<!-- Node19&#45;&gt;Node21 -->
<g id="edge26_Node000019_Node000021" class="edge">
<title>Node19&#45;&gt;Node21</title>
<g id="a_edge26_Node000019_Node000021"><a xlink:title=" ">
<path fill="none" stroke="#63b8ff" d="M995.75,-55.08C995.75,-48.57 995.75,-39.42 995.75,-31.12"/>
<polygon fill="#63b8ff" stroke="#63b8ff" points="999.25,-31.12 995.75,-21.12 992.25,-31.12 999.25,-31.12"/>
</a>
</g>
</g>
<!-- Node22 -->
<g id="Node000022" class="node">
<title>Node22</title>
<g id="a_Node000022"><a xlink:title=" ">
<polygon fill="#e0e0e0" stroke="#999999" points="1082.25,-19.25 1039.25,-19.25 1039.25,0 1082.25,0 1082.25,-19.25"/>
<text xml:space="preserve" text-anchor="middle" x="1060.75" y="-5.75" font-family="Helvetica,sans-Serif" font-size="10.00">mex.h</text>
</a>
</g>
</g>
<!-- Node19&#45;&gt;Node22 -->
<g id="edge27_Node000019_Node000022" class="edge">
<title>Node19&#45;&gt;Node22</title>
<g id="a_edge27_Node000019_Node000022"><a xlink:title=" ">
<path fill="none" stroke="#63b8ff" d="M1006.78,-54.84C1016.17,-47.15 1029.9,-35.9 1041.16,-26.68"/>
<polygon fill="#63b8ff" stroke="#63b8ff" points="1043.2,-29.53 1048.72,-20.48 1038.76,-24.11 1043.2,-29.53"/>
</a>
</g>
</g>
<!-- Node23&#45;&gt;Node5 -->
<g id="edge30_Node000023_Node000005" class="edge">
<title>Node23&#45;&gt;Node5</title>
<g id="a_edge30_Node000023_Node000005"><a xlink:title=" ">
<path fill="none" stroke="#63b8ff" d="M173.99,-110.33C167.56,-103.05 158.24,-92.48 150.29,-83.48"/>
<polygon fill="#63b8ff" stroke="#63b8ff" points="152.92,-81.18 143.68,-75.99 147.67,-85.81 152.92,-81.18"/>
</a>
</g>
</g>
<!-- Node23&#45;&gt;Node6 -->
<g id="edge31_Node000023_Node000006" class="edge">
<title>Node23&#45;&gt;Node6</title>
<g id="a_edge31_Node000023_Node000006"><a xlink:title=" ">
<path fill="none" stroke="#63b8ff" d="M217.73,-111.83C220.44,-111.36 223.13,-110.91 225.75,-110.5 357.24,-90.06 515.21,-74.68 581.29,-68.66"/>
<polygon fill="#63b8ff" stroke="#63b8ff" points="581.38,-72.16 591.02,-67.78 580.75,-65.19 581.38,-72.16"/>
</a>
</g>
</g>
<!-- Node23&#45;&gt;Node7 -->
<g id="edge32_Node000023_Node000007" class="edge">
<title>Node23&#45;&gt;Node7</title>
<g id="a_edge32_Node000023_Node000007"><a xlink:title=" ">
<path fill="none" stroke="#63b8ff" d="M217.82,-110.44C251.76,-102.19 304.27,-89.27 358.82,-74.95"/>
<polygon fill="#63b8ff" stroke="#63b8ff" points="359.51,-78.39 368.29,-72.46 357.73,-71.62 359.51,-78.39"/>
</a>
</g>
</g>
<!-- Node23&#45;&gt;Node12 -->
<g id="edge29_Node000023_Node000012" class="edge">
<title>Node23&#45;&gt;Node12</title>
<g id="a_edge29_Node000023_Node000012"><a xlink:title=" ">
<path fill="none" stroke="#63b8ff" d="M186.37,-110.33C190,-103.44 195.18,-93.59 199.74,-84.91"/>
<polygon fill="#63b8ff" stroke="#63b8ff" points="202.77,-86.68 204.32,-76.2 196.57,-83.42 202.77,-86.68"/>
</a>
</g>
</g>
<!-- Node23&#45;&gt;Node17 -->
<g id="edge33_Node000023_Node000017" class="edge">
<title>Node23&#45;&gt;Node17</title>
<g id="a_edge33_Node000023_Node000017"><a xlink:title=" ">
<path fill="none" stroke="#63b8ff" d="M158.51,-110.09C136.56,-101.56 103.4,-88.67 78.54,-79.01"/>
<polygon fill="#63b8ff" stroke="#63b8ff" points="80.1,-75.86 69.51,-75.5 77.57,-82.39 80.1,-75.86"/>
</a>
</g>
</g>
<!-- Node23&#45;&gt;Node19 -->
<g id="edge34_Node000023_Node000019" class="edge">
<title>Node23&#45;&gt;Node19</title>
<g id="a_edge34_Node000023_Node000019"><a xlink:title=" ">
<path fill="none" stroke="#63b8ff" d="M217.7,-111.65C220.42,-111.21 223.12,-110.82 225.75,-110.5 530.96,-72.83 610.22,-99.2 916.75,-74.5 930.02,-73.43 944.5,-71.94 957.41,-70.5"/>
<polygon fill="#63b8ff" stroke="#63b8ff" points="957.69,-73.99 967.23,-69.38 956.89,-67.04 957.69,-73.99"/>
</a>
</g>
</g>
<!-- Node24&#45;&gt;Node4 -->
<g id="edge38_Node000024_Node000004" class="edge">
<title>Node24&#45;&gt;Node4</title>
<g id="a_edge38_Node000024_Node000004"><a xlink:title=" ">
<path fill="none" stroke="#63b8ff" d="M679.01,-220.53C628.21,-210.21 546.27,-193.55 498.87,-183.92"/>
<polygon fill="#63b8ff" stroke="#63b8ff" points="499.59,-180.49 489.09,-181.93 498.19,-187.35 499.59,-180.49"/>
</a>
</g>
</g>
<!-- Node24&#45;&gt;Node6 -->
<g id="edge37_Node000024_Node000006" class="edge">
<title>Node24&#45;&gt;Node6</title>
<g id="a_edge37_Node000024_Node000006"><a xlink:title=" ">
<path fill="none" stroke="#63b8ff" d="M750.83,-220.51C801.58,-202.04 902.43,-157.9 862.75,-110.5 835.22,-77.62 705.17,-68.94 644.31,-66.67"/>
<polygon fill="#63b8ff" stroke="#63b8ff" points="644.73,-63.18 634.62,-66.35 644.5,-70.18 644.73,-63.18"/>
</a>
</g>
</g>
<!-- Node25 -->
<g id="Node000025" class="node">
<title>Node25</title>
<g id="a_Node000025"><a xlink:title=" ">
<polygon fill="#e0e0e0" stroke="#999999" points="665.75,-185 541.75,-185 541.75,-165.75 665.75,-165.75 665.75,-185"/>
<text xml:space="preserve" text-anchor="middle" x="603.75" y="-171.5" font-family="Helvetica,sans-Serif" font-size="10.00">arrays/vector_typedefs.h</text>
</a>
</g>
</g>
<!-- Node24&#45;&gt;Node25 -->
<g id="edge39_Node000024_Node000025" class="edge">
<title>Node24&#45;&gt;Node25</title>
<g id="a_edge39_Node000024_Node000025"><a xlink:title=" ">
<path fill="none" stroke="#63b8ff" d="M703.39,-220.59C684.52,-212.22 656.16,-199.63 634.52,-190.03"/>
<polygon fill="#63b8ff" stroke="#63b8ff" points="636.15,-186.92 625.59,-186.07 633.31,-193.32 636.15,-186.92"/>
</a>
</g>
</g>
<!-- Node26 -->
<g id="Node000026" class="node">
<title>Node26</title>
<g id="a_Node000026"><a xlink:href="input__matrices_8h.html" target="_top" xlink:title="Class handling the input matrices that are read in from the input file.">
<polygon fill="white" stroke="#666666" points="771.75,-185 683.75,-185 683.75,-165.75 771.75,-165.75 771.75,-185"/>
<text xml:space="preserve" text-anchor="middle" x="727.75" y="-171.5" font-family="Helvetica,sans-Serif" font-size="10.00">input_matrices.h</text>
</a>
</g>
</g>
<!-- Node24&#45;&gt;Node26 -->
<g id="edge40_Node000024_Node000026" class="edge">
<title>Node24&#45;&gt;Node26</title>
<g id="a_edge40_Node000024_Node000026"><a xlink:title=" ">
<path fill="none" stroke="#63b8ff" d="M724.41,-220.83C724.91,-214.24 725.6,-204.96 726.23,-196.57"/>
<polygon fill="#63b8ff" stroke="#63b8ff" points="729.7,-197.1 726.96,-186.87 722.72,-196.58 729.7,-197.1"/>
</a>
</g>
</g>
<!-- Node26&#45;&gt;Node6 -->
<g id="edge41_Node000026_Node000006" class="edge">
<title>Node26&#45;&gt;Node6</title>
<g id="a_edge41_Node000026_Node000006"><a xlink:title=" ">
<path fill="none" stroke="#63b8ff" d="M716.25,-165.52C705.09,-156.77 687.82,-142.84 673.75,-129.75 657.52,-114.64 640.16,-96.22 628.12,-83.05"/>
<polygon fill="#63b8ff" stroke="#63b8ff" points="631.05,-81.06 621.74,-75.99 625.86,-85.76 631.05,-81.06"/>
</a>
</g>
</g>
<!-- Node26&#45;&gt;Node19 -->
<g id="edge45_Node000026_Node000019" class="edge">
<title>Node26&#45;&gt;Node19</title>
<g id="a_edge45_Node000026_Node000019"><a xlink:title=" ">
<path fill="none" stroke="#63b8ff" d="M772.16,-166.48C806.78,-159.41 855.55,-147.41 895.75,-129.75 925.14,-116.83 955.8,-95.97 975.3,-81.63"/>
<polygon fill="#63b8ff" stroke="#63b8ff" points="977.3,-84.5 983.2,-75.7 973.1,-78.9 977.3,-84.5"/>
</a>
</g>
</g>
<!-- Node27 -->
<g id="Node000027" class="node">
<title>Node27</title>
<g id="a_Node000027"><a xlink:href="input__output__names_8h.html" target="_top" xlink:title="Constant values associated with the format of the input and output files and matrices.">
<polygon fill="white" stroke="#666666" points="626.75,-129.75 514.75,-129.75 514.75,-110.5 626.75,-110.5 626.75,-129.75"/>
<text xml:space="preserve" text-anchor="middle" x="570.75" y="-116.25" font-family="Helvetica,sans-Serif" font-size="10.00">input_output_names.h</text>
</a>
</g>
</g>
<!-- Node26&#45;&gt;Node27 -->
<g id="edge42_Node000026_Node000027" class="edge">
<title>Node26&#45;&gt;Node27</title>
<g id="a_edge42_Node000026_Node000027"><a xlink:title=" ">
<path fill="none" stroke="#63b8ff" d="M701.12,-165.34C675.63,-156.7 636.94,-143.57 608.32,-133.87"/>
<polygon fill="#63b8ff" stroke="#63b8ff" points="609.54,-130.59 598.95,-130.69 607.29,-137.22 609.54,-130.59"/>
</a>
</g>
</g>
<!-- Node28 -->
<g id="Node000028" class="node">
<title>Node28</title>
<g id="a_Node000028"><a xlink:href="matrix__collection_8h.html" target="_top" xlink:title="A collection of named MATLAB matrices.">
<polygon fill="white" stroke="#666666" points="780.62,-129.75 682.88,-129.75 682.88,-110.5 780.62,-110.5 780.62,-129.75"/>
<text xml:space="preserve" text-anchor="middle" x="731.75" y="-116.25" font-family="Helvetica,sans-Serif" font-size="10.00">matrix_collection.h</text>
</a>
</g>
</g>
<!-- Node26&#45;&gt;Node28 -->
<g id="edge46_Node000026_Node000028" class="edge">
<title>Node26&#45;&gt;Node28</title>
<g id="a_edge46_Node000026_Node000028"><a xlink:title=" ">
<path fill="none" stroke="#63b8ff" d="M728.41,-165.58C728.91,-158.99 729.6,-149.71 730.23,-141.32"/>
<polygon fill="#63b8ff" stroke="#63b8ff" points="733.7,-141.85 730.96,-131.62 726.72,-141.33 733.7,-141.85"/>
</a>
</g>
</g>
<!-- Node27&#45;&gt;Node6 -->
<g id="edge43_Node000027_Node000006" class="edge">
<title>Node27&#45;&gt;Node6</title>
<g id="a_edge43_Node000027_Node000006"><a xlink:title=" ">
<path fill="none" stroke="#63b8ff" d="M577.69,-110.33C583.37,-103.13 591.59,-92.71 598.64,-83.76"/>
<polygon fill="#63b8ff" stroke="#63b8ff" points="601.28,-86.07 604.73,-76.05 595.79,-81.73 601.28,-86.07"/>
</a>
</g>
</g>
<!-- Node27&#45;&gt;Node7 -->
<g id="edge44_Node000027_Node000007" class="edge">
<title>Node27&#45;&gt;Node7</title>
<g id="a_edge44_Node000027_Node000007"><a xlink:title=" ">
<path fill="none" stroke="#63b8ff" d="M540.39,-110.09C508.17,-100.51 457.47,-85.43 424.41,-75.59"/>
<polygon fill="#63b8ff" stroke="#63b8ff" points="425.55,-72.28 414.96,-72.78 423.55,-78.99 425.55,-72.28"/>
</a>
</g>
</g>
<!-- Node28&#45;&gt;Node6 -->
<g id="edge47_Node000028_Node000006" class="edge">
<title>Node28&#45;&gt;Node6</title>
<g id="a_edge47_Node000028_Node000006"><a xlink:title=" ">
<path fill="none" stroke="#63b8ff" d="M711.56,-110.09C692.84,-101.72 664.73,-89.13 643.27,-79.53"/>
<polygon fill="#63b8ff" stroke="#63b8ff" points="644.97,-76.46 634.42,-75.57 642.12,-82.85 644.97,-76.46"/>
</a>
</g>
</g>
<!-- Node28&#45;&gt;Node7 -->
<g id="edge48_Node000028_Node000007" class="edge">
<title>Node28&#45;&gt;Node7</title>
<g id="a_edge48_Node000028_Node000007"><a xlink:title=" ">
<path fill="none" stroke="#63b8ff" d="M682.67,-111.44C612.33,-100.42 484.72,-80.44 424.67,-71.03"/>
<polygon fill="#63b8ff" stroke="#63b8ff" points="425.51,-67.62 415.09,-69.53 424.43,-74.54 425.51,-67.62"/>
</a>
</g>
</g>
<!-- Node28&#45;&gt;Node19 -->
<g id="edge49_Node000028_Node000019" class="edge">
<title>Node28&#45;&gt;Node19</title>
<g id="a_edge49_Node000028_Node000019"><a xlink:title=" ">
<path fill="none" stroke="#63b8ff" d="M776.83,-110.03C827.72,-99.77 909.62,-83.25 957.5,-73.59"/>
<polygon fill="#63b8ff" stroke="#63b8ff" points="958.02,-77.06 967.13,-71.65 956.64,-70.19 958.02,-77.06"/>
</a>
</g>
</g>
</g>
</svg>
