<?xml version="1.0" encoding="UTF-8" standalone="no"?>
<!DOCTYPE svg PUBLIC "-//W3C//DTD SVG 1.1//EN"
 "http://www.w3.org/Graphics/SVG/1.1/DTD/svg11.dtd">
<!-- Generated by graphviz version 8.0.5 (20230430.1635)
 -->
<!-- Title: tdms/include/arrays.h Pages: 1 -->
<svg width="457pt" height="138pt"
 viewBox="0.00 0.00 456.68 137.75" xmlns="http://www.w3.org/2000/svg" xmlns:xlink="http://www.w3.org/1999/xlink">
<g id="graph0" class="graph" transform="scale(1 1) rotate(0) translate(4 133.75)">
<title>tdms/include/arrays.h</title>
<!-- Node1 -->
<g id="node1" class="node">
<title>Node1</title>
<g id="a_node1"><a xlink:title="Classes describing arrays, vertices etc.">
<polygon fill="#999999" stroke="#666666" points="270.43,-129.75 160.68,-129.75 160.68,-110.5 270.43,-110.5 270.43,-129.75"/>
<text text-anchor="middle" x="215.55" y="-116.25" font-family="Helvetica,sans-Serif" font-size="10.00">tdms/include/arrays.h</text>
</a>
</g>
</g>
<!-- Node2 -->
<g id="node2" class="node">
<title>Node2</title>
<g id="a_node2"><a xlink:title=" ">
<polygon fill="#e0e0e0" stroke="#999999" points="77.93,-19.25 25.18,-19.25 25.18,0 77.93,0 77.93,-19.25"/>
<text text-anchor="middle" x="51.55" y="-5.75" font-family="Helvetica,sans-Serif" font-size="10.00">complex</text>
</a>
</g>
</g>
<!-- Node1&#45;&gt;Node2 -->
<g id="edge1" class="edge">
<title>Node1&#45;&gt;Node2</title>
<path fill="none" stroke="#63b8ff" d="M160.37,-115.17C104.55,-109.89 23.83,-98.28 4.55,-74.5 -8.51,-58.38 10.1,-39.1 27.62,-25.97"/>
<polygon fill="#63b8ff" stroke="#63b8ff" points="29.34,-28.33 35.5,-19.71 25.31,-22.61 29.34,-28.33"/>
</g>
<!-- Node3 -->
<g id="node3" class="node">
<title>Node3</title>
<g id="a_node3"><a xlink:title=" ">
<polygon fill="#e0e0e0" stroke="#999999" points="71.93,-74.5 13.18,-74.5 13.18,-55.25 71.93,-55.25 71.93,-74.5"/>
<text text-anchor="middle" x="42.55" y="-61" font-family="Helvetica,sans-Serif" font-size="10.00">stdexcept</text>
</a>
</g>
</g>
<!-- Node1&#45;&gt;Node3 -->
<g id="edge2" class="edge">
<title>Node1&#45;&gt;Node3</title>
<path fill="none" stroke="#63b8ff" d="M186.21,-110.09C157.63,-101.29 113.97,-87.86 82.29,-78.11"/>
<polygon fill="#63b8ff" stroke="#63b8ff" points="83.63,-74.55 73.04,-74.95 81.57,-81.24 83.63,-74.55"/>
</g>
<!-- Node4 -->
<g id="node4" class="node">
<title>Node4</title>
<g id="a_node4"><a xlink:title=" ">
<polygon fill="#e0e0e0" stroke="#999999" points="318.55,-19.25 278.55,-19.25 278.55,0 318.55,0 318.55,-19.25"/>
<text text-anchor="middle" x="298.55" y="-5.75" font-family="Helvetica,sans-Serif" font-size="10.00">string</text>
</a>
</g>
</g>
<!-- Node1&#45;&gt;Node4 -->
<g id="edge3" class="edge">
<title>Node1&#45;&gt;Node4</title>
<path fill="none" stroke="#63b8ff" d="M235.03,-110.05C249.31,-102.46 268.13,-90.31 279.55,-74.5 288.98,-61.44 293.78,-43.7 296.19,-30.22"/>
<polygon fill="#63b8ff" stroke="#63b8ff" points="299.74,-31.11 297.75,-20.71 292.82,-30.09 299.74,-31.11"/>
</g>
<!-- Node5 -->
<g id="node5" class="node">
<title>Node5</title>
<g id="a_node5"><a xlink:title=" ">
<polygon fill="#e0e0e0" stroke="#999999" points="206.05,-74.5 163.05,-74.5 163.05,-55.25 206.05,-55.25 206.05,-74.5"/>
<text text-anchor="middle" x="184.55" y="-61" font-family="Helvetica,sans-Serif" font-size="10.00">vector</text>
</a>
</g>
</g>
<!-- Node1&#45;&gt;Node5 -->
<g id="edge4" class="edge">
<title>Node1&#45;&gt;Node5</title>
<path fill="none" stroke="#63b8ff" d="M210.43,-110.33C206.33,-103.28 200.43,-93.15 195.3,-84.33"/>
<polygon fill="#63b8ff" stroke="#63b8ff" points="197.84,-82.74 189.78,-75.86 191.79,-86.26 197.84,-82.74"/>
</g>
<!-- Node6 -->
<g id="node6" class="node">
<title>Node6</title>
<g id="a_node6"><a xlink:title=" ">
<polygon fill="#e0e0e0" stroke="#999999" points="270.55,-74.5 224.55,-74.5 224.55,-55.25 270.55,-55.25 270.55,-74.5"/>
<text text-anchor="middle" x="247.55" y="-61" font-family="Helvetica,sans-Serif" font-size="10.00">fftw3.h</text>
</a>
</g>
</g>
<!-- Node1&#45;&gt;Node6 -->
<g id="edge5" class="edge">
<title>Node1&#45;&gt;Node6</title>
<path fill="none" stroke="#63b8ff" d="M220.84,-110.33C225.12,-103.21 231.3,-92.93 236.63,-84.05"/>
<polygon fill="#63b8ff" stroke="#63b8ff" points="240,-86.23 242.15,-75.86 234,-82.63 240,-86.23"/>
</g>
<!-- Node7 -->
<g id="node7" class="node">
<title>Node7</title>
<g id="a_node7"><a xlink:href="globals_8h.html" target="_top" xlink:title="Type definitions and global constants.">
<polygon fill="white" stroke="#666666" points="145.05,-74.5 90.05,-74.5 90.05,-55.25 145.05,-55.25 145.05,-74.5"/>
<text text-anchor="middle" x="117.55" y="-61" font-family="Helvetica,sans-Serif" font-size="10.00">globals.h</text>
</a>
</g>
</g>
<!-- Node1&#45;&gt;Node7 -->
<g id="edge6" class="edge">
<title>Node1&#45;&gt;Node7</title>
<path fill="none" stroke="#63b8ff" d="M198.93,-110.09C183.87,-101.91 161.41,-89.71 143.9,-80.19"/>
<polygon fill="#63b8ff" stroke="#63b8ff" points="145.72,-76.65 135.26,-74.95 142.38,-82.8 145.72,-76.65"/>
</g>
<!-- Node8 -->
<g id="node8" class="node">
<title>Node8</title>
<g id="a_node8"><a xlink:title=" ">
<polygon fill="#e0e0e0" stroke="#999999" points="388.05,-74.5 327.05,-74.5 327.05,-55.25 388.05,-55.25 388.05,-74.5"/>
<text text-anchor="middle" x="357.55" y="-61" font-family="Helvetica,sans-Serif" font-size="10.00">matlabio.h</text>
</a>
</g>
</g>
<!-- Node1&#45;&gt;Node8 -->
<g id="edge9" class="edge">
<title>Node1&#45;&gt;Node8</title>
<path fill="none" stroke="#63b8ff" d="M239.64,-110.09C262.59,-101.49 297.38,-88.44 323.23,-78.75"/>
<polygon fill="#63b8ff" stroke="#63b8ff" points="324.21,-81.74 332.35,-74.95 321.76,-75.19 324.21,-81.74"/>
</g>
<!-- Node9 -->
<g id="node9" class="node">
<title>Node9</title>
<g id="a_node9"><a xlink:href="utils_8h.html" target="_top" xlink:title="Useful miscellaneous utility functions.">
<polygon fill="white" stroke="#666666" points="448.68,-74.5 406.43,-74.5 406.43,-55.25 448.68,-55.25 448.68,-74.5"/>
<text text-anchor="middle" x="427.55" y="-61" font-family="Helvetica,sans-Serif" font-size="10.00">utils.h</text>
</a>
</g>
</g>
<!-- Node1&#45;&gt;Node9 -->
<g id="edge10" class="edge">
<title>Node1&#45;&gt;Node9</title>
<path fill="none" stroke="#63b8ff" d="M254.37,-110.08C289.06,-101.89 341.52,-89.25 395.5,-74.97"/>
<polygon fill="#63b8ff" stroke="#63b8ff" points="396.19,-78.15 404.95,-72.2 394.39,-71.38 396.19,-78.15"/>
</g>
<!-- Node7&#45;&gt;Node2 -->
<g id="edge7" class="edge">
<title>Node7&#45;&gt;Node2</title>
<path fill="none" stroke="#63b8ff" d="M106.36,-54.84C96.72,-47.07 82.6,-35.67 71.1,-26.4"/>
<polygon fill="#63b8ff" stroke="#63b8ff" points="73.57,-23.08 63.58,-19.52 69.17,-28.53 73.57,-23.08"/>
</g>
<!-- Node7&#45;&gt;Node4 -->
<g id="edge8" class="edge">
<title>Node7&#45;&gt;Node4</title>
<path fill="none" stroke="#63b8ff" d="M145.44,-55.67C178.55,-45.93 233.58,-29.74 267.87,-19.65"/>
<polygon fill="#63b8ff" stroke="#63b8ff" points="268.62,-22.79 277.22,-16.61 266.64,-16.07 268.62,-22.79"/>
</g>
<!-- Node9&#45;&gt;Node4 -->
<g id="edge11" class="edge">
<title>Node9&#45;&gt;Node4</title>
<path fill="none" stroke="#63b8ff" d="M405.96,-54.96C384.84,-46.24 352.5,-32.89 328.82,-23.12"/>
<polygon fill="#63b8ff" stroke="#63b8ff" points="330.52,-19.62 319.94,-19.04 327.85,-26.09 330.52,-19.62"/>
</g>
</g>
</svg>
