<?xml version="1.0" encoding="UTF-8" standalone="no"?>
<!DOCTYPE svg PUBLIC "-//W3C//DTD SVG 1.1//EN"
 "http://www.w3.org/Graphics/SVG/1.1/DTD/svg11.dtd">
<!-- Generated by graphviz version 8.0.2 (20230410.1723)
 -->
<!-- Title: tdms/include/array_init.h Pages: 1 -->
<svg width="1081pt" height="368pt"
 viewBox="0.00 0.00 1080.95 368.00" xmlns="http://www.w3.org/2000/svg" xmlns:xlink="http://www.w3.org/1999/xlink">
<g id="graph0" class="graph" transform="scale(1 1) rotate(0) translate(4 364)">
<title>tdms/include/array_init.h</title>
<!-- Node1 -->
<g id="node1" class="node">
<title>Node1</title>
<g id="a_node1"><a xlink:title="A collection of functions for array initialisation given MATLAB pointers.">
<polygon fill="#999999" stroke="#666666" points="760.45,-360 663.45,-360 663.45,-330 760.45,-330 760.45,-360"/>
<text text-anchor="start" x="671.45" y="-348" font-family="Helvetica,sans-Serif" font-size="10.00">tdms/include/array</text>
<text text-anchor="middle" x="711.95" y="-337" font-family="Helvetica,sans-Serif" font-size="10.00">_init.h</text>
</a>
</g>
</g>
<!-- Node2 -->
<g id="node2" class="node">
<title>Node2</title>
<g id="a_node2"><a xlink:href="field_8h.html" target="_top" xlink:title="Classes for the electric and magnetic (split) fields on a grid.">
<polygon fill="white" stroke="#666666" points="593.45,-294 550.45,-294 550.45,-275 593.45,-275 593.45,-294"/>
<text text-anchor="middle" x="571.95" y="-282" font-family="Helvetica,sans-Serif" font-size="10.00">field.h</text>
</a>
</g>
</g>
<!-- Node1&#45;&gt;Node2 -->
<g id="edge1" class="edge">
<title>Node1&#45;&gt;Node2</title>
<path fill="none" stroke="#63b8ff" d="M677.34,-329.54C654.66,-320.06 625.24,-307.77 603.25,-298.58"/>
<polygon fill="#63b8ff" stroke="#63b8ff" points="604.69,-294.97 594.12,-294.35 602,-301.43 604.69,-294.97"/>
</g>
<!-- Node15 -->
<g id="node15" class="node">
<title>Node15</title>
<g id="a_node15"><a xlink:href="mat__io_8h.html" target="_top" xlink:title="Includes MATLAB headers for I/O.">
<polygon fill="white" stroke="#666666" points="845.95,-74 791.95,-74 791.95,-55 845.95,-55 845.95,-74"/>
<text text-anchor="middle" x="818.95" y="-62" font-family="Helvetica,sans-Serif" font-size="10.00">mat_io.h</text>
</a>
</g>
</g>
<!-- Node1&#45;&gt;Node15 -->
<g id="edge36" class="edge">
<title>Node1&#45;&gt;Node15</title>
<path fill="none" stroke="#63b8ff" d="M760.63,-339C859.17,-327.54 1072.95,-295.21 1072.95,-230.5 1072.95,-230.5 1072.95,-230.5 1072.95,-173.5 1072.95,-80.71 927.62,-66.5 856.82,-65.09"/>
<polygon fill="#63b8ff" stroke="#63b8ff" points="857.17,-61.58 847.13,-64.96 857.09,-68.58 857.17,-61.58"/>
</g>
<!-- Node3 -->
<g id="node3" class="node">
<title>Node3</title>
<g id="a_node3"><a xlink:title=" ">
<polygon fill="#e0e0e0" stroke="#999999" points="67.45,-74 14.45,-74 14.45,-55 67.45,-55 67.45,-74"/>
<text text-anchor="middle" x="40.95" y="-62" font-family="Helvetica,sans-Serif" font-size="10.00">complex</text>
</a>
</g>
</g>
<!-- Node2&#45;&gt;Node3 -->
<g id="edge2" class="edge">
<title>Node2&#45;&gt;Node3</title>
<path fill="none" stroke="#63b8ff" d="M550.26,-280.61C507.51,-274.67 409.49,-259.89 328.95,-239 181.34,-200.72 92.83,-252.91 3.95,-129 -7.12,-113.57 7.18,-94.63 21.1,-81.46"/>
<polygon fill="#63b8ff" stroke="#63b8ff" points="22.86,-84.69 28.05,-75.45 18.23,-79.44 22.86,-84.69"/>
</g>
<!-- Node4 -->
<g id="node4" class="node">
<title>Node4</title>
<g id="a_node4"><a xlink:href="arrays_8h.html" target="_top" xlink:title="Classes describing arrays, vertices etc.">
<polygon fill="white" stroke="#666666" points="287.95,-184 235.95,-184 235.95,-165 287.95,-165 287.95,-184"/>
<text text-anchor="middle" x="261.95" y="-172" font-family="Helvetica,sans-Serif" font-size="10.00">arrays.h</text>
</a>
</g>
</g>
<!-- Node2&#45;&gt;Node4 -->
<g id="edge3" class="edge">
<title>Node2&#45;&gt;Node4</title>
<path fill="none" stroke="#63b8ff" d="M550.15,-275.91C497.41,-257.53 362.5,-210.53 297.72,-187.96"/>
<polygon fill="#63b8ff" stroke="#63b8ff" points="299.17,-184.41 288.58,-184.43 296.87,-191.02 299.17,-184.41"/>
</g>
<!-- Node8 -->
<g id="node8" class="node">
<title>Node8</title>
<g id="a_node8"><a xlink:href="globals_8h.html" target="_top" xlink:title="Type definitions and global constants.">
<polygon fill="white" stroke="#666666" points="68.95,-129 12.95,-129 12.95,-110 68.95,-110 68.95,-129"/>
<text text-anchor="middle" x="40.95" y="-117" font-family="Helvetica,sans-Serif" font-size="10.00">globals.h</text>
</a>
</g>
</g>
<!-- Node2&#45;&gt;Node8 -->
<g id="edge21" class="edge">
<title>Node2&#45;&gt;Node8</title>
<path fill="none" stroke="#63b8ff" d="M550.02,-278.51C516.44,-270.75 450.35,-255.01 394.95,-239 276.35,-204.72 138.26,-155.85 75.34,-133.08"/>
<polygon fill="#63b8ff" stroke="#63b8ff" points="76.78,-129.52 66.19,-129.4 74.4,-136.1 76.78,-129.52"/>
</g>
<!-- Node11 -->
<g id="node11" class="node">
<title>Node11</title>
<g id="a_node11"><a xlink:href="cell__coordinate_8h.html" target="_top" xlink:title="Container for {ijk} or {IJK} grouped variables.">
<polygon fill="white" stroke="#666666" points="974.95,-239 884.95,-239 884.95,-220 974.95,-220 974.95,-239"/>
<text text-anchor="middle" x="929.95" y="-227" font-family="Helvetica,sans-Serif" font-size="10.00">cell_coordinate.h</text>
</a>
</g>
</g>
<!-- Node2&#45;&gt;Node11 -->
<g id="edge13" class="edge">
<title>Node2&#45;&gt;Node11</title>
<path fill="none" stroke="#63b8ff" d="M593.8,-280.26C648.72,-272.13 793.85,-250.65 874.29,-238.74"/>
<polygon fill="#63b8ff" stroke="#63b8ff" points="874.34,-242.12 883.72,-237.2 873.31,-235.2 874.34,-242.12"/>
</g>
<!-- Node14 -->
<g id="node14" class="node">
<title>Node14</title>
<g id="a_node14"><a xlink:href="dimensions_8h.html" target="_top" xlink:title="Defines a class that serves as an explicit converter between MATLAB pointers and array dimensions.">
<polygon fill="white" stroke="#666666" points="775.95,-239 701.95,-239 701.95,-220 775.95,-220 775.95,-239"/>
<text text-anchor="middle" x="738.95" y="-227" font-family="Helvetica,sans-Serif" font-size="10.00">dimensions.h</text>
</a>
</g>
</g>
<!-- Node2&#45;&gt;Node14 -->
<g id="edge16" class="edge">
<title>Node2&#45;&gt;Node14</title>
<path fill="none" stroke="#63b8ff" d="M593.78,-276.57C620.82,-267.99 667.37,-253.22 700.46,-242.71"/>
<polygon fill="#63b8ff" stroke="#63b8ff" points="701.22,-245.83 709.69,-239.47 699.1,-239.16 701.22,-245.83"/>
</g>
<!-- Node2&#45;&gt;Node15 -->
<g id="edge22" class="edge">
<title>Node2&#45;&gt;Node15</title>
<path fill="none" stroke="#63b8ff" d="M593.88,-281.92C642.73,-277.96 758.28,-265.89 784.95,-239 826.32,-197.27 824.83,-120.94 821.45,-85.08"/>
<polygon fill="#63b8ff" stroke="#63b8ff" points="824.82,-84.76 820.24,-75.21 817.86,-85.54 824.82,-84.76"/>
</g>
<!-- Node19 -->
<g id="node19" class="node">
<title>Node19</title>
<g id="a_node19"><a xlink:href="simulation__parameters_8h.html" target="_top" xlink:title="Classes collecting parameters for the simulation.">
<polygon fill="white" stroke="#666666" points="579.45,-239 456.45,-239 456.45,-220 579.45,-220 579.45,-239"/>
<text text-anchor="middle" x="517.95" y="-227" font-family="Helvetica,sans-Serif" font-size="10.00">simulation_parameters.h</text>
</a>
</g>
</g>
<!-- Node2&#45;&gt;Node19 -->
<g id="edge23" class="edge">
<title>Node2&#45;&gt;Node19</title>
<path fill="none" stroke="#63b8ff" d="M563.03,-274.75C555.34,-267.2 544.02,-256.09 534.65,-246.9"/>
<polygon fill="#63b8ff" stroke="#63b8ff" points="537.65,-244.95 528.06,-240.44 532.74,-249.94 537.65,-244.95"/>
</g>
<!-- Node4&#45;&gt;Node3 -->
<g id="edge4" class="edge">
<title>Node4&#45;&gt;Node3</title>
<path fill="none" stroke="#63b8ff" d="M235.81,-165.11C211.7,-157.01 175.19,-143.83 144.95,-129 115.27,-114.45 83.07,-94 62.49,-80.28"/>
<polygon fill="#63b8ff" stroke="#63b8ff" points="64.89,-77 54.64,-74.32 60.98,-82.81 64.89,-77"/>
</g>
<!-- Node5 -->
<g id="node5" class="node">
<title>Node5</title>
<g id="a_node5"><a xlink:title=" ">
<polygon fill="#e0e0e0" stroke="#999999" points="222.45,-129 163.45,-129 163.45,-110 222.45,-110 222.45,-129"/>
<text text-anchor="middle" x="192.95" y="-117" font-family="Helvetica,sans-Serif" font-size="10.00">stdexcept</text>
</a>
</g>
</g>
<!-- Node4&#45;&gt;Node5 -->
<g id="edge5" class="edge">
<title>Node4&#45;&gt;Node5</title>
<path fill="none" stroke="#63b8ff" d="M250.24,-164.51C240.07,-156.7 225.11,-145.21 213.03,-135.93"/>
<polygon fill="#63b8ff" stroke="#63b8ff" points="215.54,-132.67 205.48,-129.36 211.28,-138.23 215.54,-132.67"/>
</g>
<!-- Node6 -->
<g id="node6" class="node">
<title>Node6</title>
<g id="a_node6"><a xlink:title=" ">
<polygon fill="#e0e0e0" stroke="#999999" points="496.45,-74 455.45,-74 455.45,-55 496.45,-55 496.45,-74"/>
<text text-anchor="middle" x="475.95" y="-62" font-family="Helvetica,sans-Serif" font-size="10.00">string</text>
</a>
</g>
</g>
<!-- Node4&#45;&gt;Node6 -->
<g id="edge6" class="edge">
<title>Node4&#45;&gt;Node6</title>
<path fill="none" stroke="#63b8ff" d="M235.53,-168.56C195.69,-159.99 127.51,-140.34 153.95,-110 191.43,-66.99 370.55,-64.16 444.21,-64.87"/>
<polygon fill="#63b8ff" stroke="#63b8ff" points="444.04,-68.38 454.09,-65.01 444.13,-61.38 444.04,-68.38"/>
</g>
<!-- Node7 -->
<g id="node7" class="node">
<title>Node7</title>
<g id="a_node7"><a xlink:title=" ">
<polygon fill="#e0e0e0" stroke="#999999" points="348.45,-129 301.45,-129 301.45,-110 348.45,-110 348.45,-129"/>
<text text-anchor="middle" x="324.95" y="-117" font-family="Helvetica,sans-Serif" font-size="10.00">fftw3.h</text>
</a>
</g>
</g>
<!-- Node4&#45;&gt;Node7 -->
<g id="edge7" class="edge">
<title>Node4&#45;&gt;Node7</title>
<path fill="none" stroke="#63b8ff" d="M272.63,-164.51C281.83,-156.77 295.31,-145.43 306.29,-136.2"/>
<polygon fill="#63b8ff" stroke="#63b8ff" points="308.02,-138.47 313.42,-129.36 303.51,-133.12 308.02,-138.47"/>
</g>
<!-- Node4&#45;&gt;Node8 -->
<g id="edge8" class="edge">
<title>Node4&#45;&gt;Node8</title>
<path fill="none" stroke="#63b8ff" d="M235.73,-167.21C197.07,-157.94 124.52,-140.54 79.71,-129.8"/>
<polygon fill="#63b8ff" stroke="#63b8ff" points="80.76,-126.21 70.22,-127.28 79.13,-133.02 80.76,-126.21"/>
</g>
<!-- Node9 -->
<g id="node9" class="node">
<title>Node9</title>
<g id="a_node9"><a xlink:title=" ">
<polygon fill="#e0e0e0" stroke="#999999" points="428.95,-129 366.95,-129 366.95,-110 428.95,-110 428.95,-129"/>
<text text-anchor="middle" x="397.95" y="-117" font-family="Helvetica,sans-Serif" font-size="10.00">matlabio.h</text>
</a>
</g>
</g>
<!-- Node4&#45;&gt;Node9 -->
<g id="edge10" class="edge">
<title>Node4&#45;&gt;Node9</title>
<path fill="none" stroke="#63b8ff" d="M285.02,-164.51C307.03,-155.93 340.42,-142.92 365.19,-133.27"/>
<polygon fill="#63b8ff" stroke="#63b8ff" points="366.17,-136.25 374.22,-129.36 363.63,-129.73 366.17,-136.25"/>
</g>
<!-- Node10 -->
<g id="node10" class="node">
<title>Node10</title>
<g id="a_node10"><a xlink:href="utils_8h.html" target="_top" xlink:title="Useful miscellaneous utility functions.">
<polygon fill="white" stroke="#666666" points="283.45,-129 240.45,-129 240.45,-110 283.45,-110 283.45,-129"/>
<text text-anchor="middle" x="261.95" y="-117" font-family="Helvetica,sans-Serif" font-size="10.00">utils.h</text>
</a>
</g>
</g>
<!-- Node4&#45;&gt;Node10 -->
<g id="edge11" class="edge">
<title>Node4&#45;&gt;Node10</title>
<path fill="none" stroke="#63b8ff" d="M261.95,-164.75C261.95,-158.11 261.95,-148.73 261.95,-140.31"/>
<polygon fill="#63b8ff" stroke="#63b8ff" points="265.45,-140.44 261.95,-130.44 258.45,-140.44 265.45,-140.44"/>
</g>
<!-- Node8&#45;&gt;Node3 -->
<g id="edge9" class="edge">
<title>Node8&#45;&gt;Node3</title>
<path fill="none" stroke="#63b8ff" d="M40.95,-109.75C40.95,-103.11 40.95,-93.73 40.95,-85.31"/>
<polygon fill="#63b8ff" stroke="#63b8ff" points="44.45,-85.44 40.95,-75.44 37.45,-85.44 44.45,-85.44"/>
</g>
<!-- Node10&#45;&gt;Node6 -->
<g id="edge12" class="edge">
<title>Node10&#45;&gt;Node6</title>
<path fill="none" stroke="#63b8ff" d="M283.88,-112.18C286.59,-111.43 289.33,-110.69 291.95,-110 345.39,-95.97 407.99,-81.18 444.67,-72.67"/>
<polygon fill="#63b8ff" stroke="#63b8ff" points="445.23,-75.91 454.19,-70.24 443.65,-69.09 445.23,-75.91"/>
</g>
<!-- Node12 -->
<g id="node12" class="node">
<title>Node12</title>
<g id="a_node12"><a xlink:title=" ">
<polygon fill="#e0e0e0" stroke="#999999" points="1044.45,-184 959.45,-184 959.45,-165 1044.45,-165 1044.45,-184"/>
<text text-anchor="middle" x="1001.95" y="-172" font-family="Helvetica,sans-Serif" font-size="10.00">spdlog/spdlog.h</text>
</a>
</g>
</g>
<!-- Node11&#45;&gt;Node12 -->
<g id="edge14" class="edge">
<title>Node11&#45;&gt;Node12</title>
<path fill="none" stroke="#63b8ff" d="M942.16,-219.51C952.88,-211.62 968.69,-199.98 981.36,-190.65"/>
<polygon fill="#63b8ff" stroke="#63b8ff" points="982.94,-193.1 988.91,-184.36 978.79,-187.47 982.94,-193.1"/>
</g>
<!-- Node13 -->
<g id="node13" class="node">
<title>Node13</title>
<g id="a_node13"><a xlink:title=" ">
<polygon fill="#e0e0e0" stroke="#999999" points="940.95,-184 884.95,-184 884.95,-165 940.95,-165 940.95,-184"/>
<text text-anchor="middle" x="912.95" y="-172" font-family="Helvetica,sans-Serif" font-size="10.00">algorithm</text>
</a>
</g>
</g>
<!-- Node11&#45;&gt;Node13 -->
<g id="edge15" class="edge">
<title>Node11&#45;&gt;Node13</title>
<path fill="none" stroke="#63b8ff" d="M927.14,-219.75C924.96,-212.96 921.86,-203.3 919.12,-194.73"/>
<polygon fill="#63b8ff" stroke="#63b8ff" points="922.2,-193.9 915.82,-185.44 915.54,-196.03 922.2,-193.9"/>
</g>
<!-- Node14&#45;&gt;Node15 -->
<g id="edge17" class="edge">
<title>Node14&#45;&gt;Node15</title>
<path fill="none" stroke="#63b8ff" d="M743.28,-219.72C751.84,-202.39 771.5,-162.54 787.95,-129 795.38,-113.84 803.79,-96.62 809.97,-83.94"/>
<polygon fill="#63b8ff" stroke="#63b8ff" points="813.51,-85.65 814.75,-75.13 807.22,-82.59 813.51,-85.65"/>
</g>
<!-- Node16 -->
<g id="node16" class="node">
<title>Node16</title>
<g id="a_node16"><a xlink:title=" ">
<polygon fill="#e0e0e0" stroke="#999999" points="774.45,-19 733.45,-19 733.45,0 774.45,0 774.45,-19"/>
<text text-anchor="middle" x="753.95" y="-7" font-family="Helvetica,sans-Serif" font-size="10.00">mat.h</text>
</a>
</g>
</g>
<!-- Node15&#45;&gt;Node16 -->
<g id="edge18" class="edge">
<title>Node15&#45;&gt;Node16</title>
<path fill="none" stroke="#63b8ff" d="M807.92,-54.51C798.43,-46.77 784.52,-35.43 773.2,-26.2"/>
<polygon fill="#63b8ff" stroke="#63b8ff" points="775.77,-22.96 765.81,-19.36 771.35,-28.39 775.77,-22.96"/>
</g>
<!-- Node17 -->
<g id="node17" class="node">
<title>Node17</title>
<g id="a_node17"><a xlink:title=" ">
<polygon fill="#e0e0e0" stroke="#999999" points="844.95,-19 792.95,-19 792.95,0 844.95,0 844.95,-19"/>
<text text-anchor="middle" x="818.95" y="-7" font-family="Helvetica,sans-Serif" font-size="10.00">matrix.h</text>
</a>
</g>
</g>
<!-- Node15&#45;&gt;Node17 -->
<g id="edge19" class="edge">
<title>Node15&#45;&gt;Node17</title>
<path fill="none" stroke="#63b8ff" d="M818.95,-54.75C818.95,-48.11 818.95,-38.73 818.95,-30.31"/>
<polygon fill="#63b8ff" stroke="#63b8ff" points="822.45,-30.44 818.95,-20.44 815.45,-30.44 822.45,-30.44"/>
</g>
<!-- Node18 -->
<g id="node18" class="node">
<title>Node18</title>
<g id="a_node18"><a xlink:title=" ">
<polygon fill="#e0e0e0" stroke="#999999" points="906.95,-19 862.95,-19 862.95,0 906.95,0 906.95,-19"/>
<text text-anchor="middle" x="884.95" y="-7" font-family="Helvetica,sans-Serif" font-size="10.00">mex.h</text>
</a>
</g>
</g>
<!-- Node15&#45;&gt;Node18 -->
<g id="edge20" class="edge">
<title>Node15&#45;&gt;Node18</title>
<path fill="none" stroke="#63b8ff" d="M830.14,-54.51C839.78,-46.77 853.9,-35.43 865.4,-26.2"/>
<polygon fill="#63b8ff" stroke="#63b8ff" points="867.31,-28.35 872.92,-19.36 862.93,-22.89 867.31,-28.35"/>
</g>
<!-- Node19&#45;&gt;Node4 -->
<g id="edge25" class="edge">
<title>Node19&#45;&gt;Node4</title>
<path fill="none" stroke="#63b8ff" d="M474.52,-219.51C425.13,-209.28 345.33,-192.76 298.83,-183.14"/>
<polygon fill="#63b8ff" stroke="#63b8ff" points="299.83,-179.56 289.32,-180.96 298.41,-186.42 299.83,-179.56"/>
</g>
<!-- Node19&#45;&gt;Node6 -->
<g id="edge24" class="edge">
<title>Node19&#45;&gt;Node6</title>
<path fill="none" stroke="#63b8ff" d="M515.69,-219.74C509.14,-194.31 490.01,-120.08 480.89,-84.69"/>
<polygon fill="#63b8ff" stroke="#63b8ff" points="484.1,-84.12 478.22,-75.31 477.32,-85.86 484.1,-84.12"/>
</g>
<!-- Node20 -->
<g id="node20" class="node">
<title>Node20</title>
<g id="a_node20"><a xlink:href="input__matrices_8h.html" target="_top" xlink:title="Class handling the input matrices that are read in from the input file.">
<polygon fill="white" stroke="#666666" points="624.45,-184 535.45,-184 535.45,-165 624.45,-165 624.45,-184"/>
<text text-anchor="middle" x="579.95" y="-172" font-family="Helvetica,sans-Serif" font-size="10.00">input_matrices.h</text>
</a>
</g>
</g>
<!-- Node19&#45;&gt;Node20 -->
<g id="edge26" class="edge">
<title>Node19&#45;&gt;Node20</title>
<path fill="none" stroke="#63b8ff" d="M528.46,-219.51C537.43,-211.85 550.52,-200.66 561.26,-191.47"/>
<polygon fill="#63b8ff" stroke="#63b8ff" points="563.26,-193.52 568.59,-184.36 558.71,-188.2 563.26,-193.52"/>
</g>
<!-- Node20&#45;&gt;Node6 -->
<g id="edge27" class="edge">
<title>Node20&#45;&gt;Node6</title>
<path fill="none" stroke="#63b8ff" d="M562.42,-164.51C548.14,-156.57 528.11,-143.95 513.95,-129 501.26,-115.61 490.85,-97.26 484.15,-83.73"/>
<polygon fill="#63b8ff" stroke="#63b8ff" points="487.04,-82.64 479.61,-75.1 480.71,-85.63 487.04,-82.64"/>
</g>
<!-- Node20&#45;&gt;Node15 -->
<g id="edge31" class="edge">
<title>Node20&#45;&gt;Node15</title>
<path fill="none" stroke="#63b8ff" d="M624.65,-170.01C663.32,-165.33 719.53,-154.4 761.95,-129 780.95,-117.62 797.2,-97.88 807.43,-83.42"/>
<polygon fill="#63b8ff" stroke="#63b8ff" points="810.81,-85.67 813.51,-75.42 805.01,-81.75 810.81,-85.67"/>
</g>
<!-- Node21 -->
<g id="node21" class="node">
<title>Node21</title>
<g id="a_node21"><a xlink:href="input__output__names_8h.html" target="_top" xlink:title="Constant values associated with the format of the input and output files and matrices.">
<polygon fill="white" stroke="#666666" points="636.45,-129 523.45,-129 523.45,-110 636.45,-110 636.45,-129"/>
<text text-anchor="middle" x="579.95" y="-117" font-family="Helvetica,sans-Serif" font-size="10.00">input_output_names.h</text>
</a>
</g>
</g>
<!-- Node20&#45;&gt;Node21 -->
<g id="edge28" class="edge">
<title>Node20&#45;&gt;Node21</title>
<path fill="none" stroke="#63b8ff" d="M579.95,-164.75C579.95,-158.11 579.95,-148.73 579.95,-140.31"/>
<polygon fill="#63b8ff" stroke="#63b8ff" points="583.45,-140.44 579.95,-130.44 576.45,-140.44 583.45,-140.44"/>
</g>
<!-- Node23 -->
<g id="node23" class="node">
<title>Node23</title>
<g id="a_node23"><a xlink:href="matrix__collection_8h.html" target="_top" xlink:title="A collection of named MATLAB matrices.">
<polygon fill="white" stroke="#666666" points="752.95,-129 654.95,-129 654.95,-110 752.95,-110 752.95,-129"/>
<text text-anchor="middle" x="703.95" y="-117" font-family="Helvetica,sans-Serif" font-size="10.00">matrix_collection.h</text>
</a>
</g>
</g>
<!-- Node20&#45;&gt;Node23 -->
<g id="edge32" class="edge">
<title>Node20&#45;&gt;Node23</title>
<path fill="none" stroke="#63b8ff" d="M600.98,-164.51C620.79,-156.04 650.68,-143.27 673.17,-133.66"/>
<polygon fill="#63b8ff" stroke="#63b8ff" points="674.4,-136.51 682.22,-129.36 671.65,-130.07 674.4,-136.51"/>
</g>
<!-- Node21&#45;&gt;Node6 -->
<g id="edge29" class="edge">
<title>Node21&#45;&gt;Node6</title>
<path fill="none" stroke="#63b8ff" d="M562.31,-109.51C546.07,-101.24 521.75,-88.84 503.05,-79.31"/>
<polygon fill="#63b8ff" stroke="#63b8ff" points="504.83,-75.78 494.33,-74.36 501.65,-82.02 504.83,-75.78"/>
</g>
<!-- Node22 -->
<g id="node22" class="node">
<title>Node22</title>
<g id="a_node22"><a xlink:title=" ">
<polygon fill="#e0e0e0" stroke="#999999" points="663.95,-74 619.95,-74 619.95,-55 663.95,-55 663.95,-74"/>
<text text-anchor="middle" x="641.95" y="-62" font-family="Helvetica,sans-Serif" font-size="10.00">vector</text>
</a>
</g>
</g>
<!-- Node21&#45;&gt;Node22 -->
<g id="edge30" class="edge">
<title>Node21&#45;&gt;Node22</title>
<path fill="none" stroke="#63b8ff" d="M590.46,-109.51C599.43,-101.85 612.52,-90.66 623.26,-81.47"/>
<polygon fill="#63b8ff" stroke="#63b8ff" points="625.26,-83.52 630.59,-74.36 620.71,-78.2 625.26,-83.52"/>
</g>
<!-- Node23&#45;&gt;Node6 -->
<g id="edge33" class="edge">
<title>Node23&#45;&gt;Node6</title>
<path fill="none" stroke="#63b8ff" d="M665.27,-109.51C620.7,-99.15 548.32,-82.32 507.17,-72.76"/>
<polygon fill="#63b8ff" stroke="#63b8ff" points="508.21,-69.17 497.68,-70.32 506.63,-75.99 508.21,-69.17"/>
</g>
<!-- Node23&#45;&gt;Node15 -->
<g id="edge35" class="edge">
<title>Node23&#45;&gt;Node15</title>
<path fill="none" stroke="#63b8ff" d="M723.46,-109.51C741.66,-101.12 769.05,-88.5 789.83,-78.92"/>
<polygon fill="#63b8ff" stroke="#63b8ff" points="791.11,-81.72 798.73,-74.36 788.18,-75.36 791.11,-81.72"/>
</g>
<!-- Node23&#45;&gt;Node22 -->
<g id="edge34" class="edge">
<title>Node23&#45;&gt;Node22</title>
<path fill="none" stroke="#63b8ff" d="M693.43,-109.51C684.47,-101.85 671.37,-90.66 660.64,-81.47"/>
<polygon fill="#63b8ff" stroke="#63b8ff" points="663.19,-78.2 653.31,-74.36 658.64,-83.52 663.19,-78.2"/>
</g>
</g>
</svg>
