<?xml version="1.0" encoding="UTF-8" standalone="no"?>
<!DOCTYPE svg PUBLIC "-//W3C//DTD SVG 1.1//EN"
 "http://www.w3.org/Graphics/SVG/1.1/DTD/svg11.dtd">
<!-- Generated by graphviz version 8.0.5 (20230430.1635)
 -->
<!-- Title: tdms/include/arrays.h Pages: 1 -->
<svg width="582pt" height="293pt"
 viewBox="0.00 0.00 581.50 293.25" xmlns="http://www.w3.org/2000/svg" xmlns:xlink="http://www.w3.org/1999/xlink">
<g id="graph0" class="graph" transform="scale(1 1) rotate(0) translate(4 289.25)">
<title>tdms/include/arrays.h</title>
<!-- Node1 -->
<g id="node1" class="node">
<title>Node1</title>
<g id="a_node1"><a xlink:title="Classes describing arrays, vertices etc.">
<polygon fill="#999999" stroke="#666666" points="412,-285.25 302.25,-285.25 302.25,-266 412,-266 412,-285.25"/>
<text text-anchor="middle" x="357.12" y="-271.75" font-family="Helvetica,sans-Serif" font-size="10.00">tdms/include/arrays.h</text>
</a>
</g>
</g>
<!-- Node2 -->
<g id="node2" class="node">
<title>Node2</title>
<g id="a_node2"><a xlink:href="field_8h.html" target="_top" xlink:title="Classes for the electric and magnetic (split) fields on a grid.">
<polygon fill="white" stroke="#666666" points="329.5,-157.88 228.75,-157.88 228.75,-138.62 329.5,-138.62 329.5,-157.88"/>
<text text-anchor="middle" x="279.12" y="-144.38" font-family="Helvetica,sans-Serif" font-size="10.00">tdms/include/field.h</text>
</a>
</g>
</g>
<!-- Node1&#45;&gt;Node2 -->
<g id="edge1" class="edge">
<title>Node1&#45;&gt;Node2</title>
<path fill="none" stroke="#63b8ff" d="M345.78,-256.39C328.8,-229.09 297.4,-178.62 284.68,-158.18"/>
<polygon fill="#63b8ff" stroke="#63b8ff" points="343.26,-257.97 351.52,-264.61 349.2,-254.27 343.26,-257.97"/>
</g>
<!-- Node4 -->
<g id="node4" class="node">
<title>Node4</title>
<g id="a_node4"><a xlink:href="fieldsample_8h.html" target="_top" xlink:title="Class that stores the extracted field values at user&#45;defined vertices.">
<polygon fill="white" stroke="#666666" points="132.25,-91.38 0,-91.38 0,-72.12 132.25,-72.12 132.25,-91.38"/>
<text text-anchor="middle" x="66.12" y="-77.88" font-family="Helvetica,sans-Serif" font-size="10.00">tdms/include/fieldsample.h</text>
</a>
</g>
</g>
<!-- Node1&#45;&gt;Node4 -->
<g id="edge8" class="edge">
<title>Node1&#45;&gt;Node4</title>
<path fill="none" stroke="#63b8ff" d="M291.2,-266.87C247.55,-260.32 189.64,-248.91 141.12,-230 87.54,-209.11 58.48,-213.54 30.12,-163.5 15.9,-138.39 41.98,-106.61 56.84,-91.5"/>
<polygon fill="#63b8ff" stroke="#63b8ff" points="290.57,-270.46 300.97,-268.43 291.58,-263.53 290.57,-270.46"/>
</g>
<!-- Node6 -->
<g id="node6" class="node">
<title>Node6</title>
<g id="a_node6"><a xlink:href="surface__phasors_8h.html" target="_top" xlink:title="Contains a class that handles the complex amplitude extraction.">
<polygon fill="white" stroke="#666666" points="371.5,-97 264.75,-97 264.75,-66.5 371.5,-66.5 371.5,-97"/>
<text text-anchor="start" x="272.75" y="-83.5" font-family="Helvetica,sans-Serif" font-size="10.00">tdms/include/surface</text>
<text text-anchor="middle" x="318.12" y="-72.25" font-family="Helvetica,sans-Serif" font-size="10.00">_phasors.h</text>
</a>
</g>
</g>
<!-- Node1&#45;&gt;Node6 -->
<g id="edge15" class="edge">
<title>Node1&#45;&gt;Node6</title>
<path fill="none" stroke="#63b8ff" d="M355.99,-254.58C354.07,-226.87 349.24,-175.46 338.12,-133 334.89,-120.65 329.45,-107.24 325.06,-97.38"/>
<polygon fill="#63b8ff" stroke="#63b8ff" points="352.56,-254.77 356.68,-264.53 359.54,-254.33 352.56,-254.77"/>
</g>
<!-- Node7 -->
<g id="node7" class="node">
<title>Node7</title>
<g id="a_node7"><a xlink:href="vertex__phasors_8h.html" target="_top" xlink:title="Contains a class that handles the complex amplitude extraction at the vertices.">
<polygon fill="white" stroke="#666666" points="490.88,-97 389.38,-97 389.38,-66.5 490.88,-66.5 490.88,-97"/>
<text text-anchor="start" x="397.38" y="-83.5" font-family="Helvetica,sans-Serif" font-size="10.00">tdms/include/vertex</text>
<text text-anchor="middle" x="440.12" y="-72.25" font-family="Helvetica,sans-Serif" font-size="10.00">_phasors.h</text>
</a>
</g>
</g>
<!-- Node1&#45;&gt;Node7 -->
<g id="edge16" class="edge">
<title>Node1&#45;&gt;Node7</title>
<path fill="none" stroke="#63b8ff" d="M365.26,-255.82C381.76,-217.67 418.87,-131.89 433.76,-97.46"/>
<polygon fill="#63b8ff" stroke="#63b8ff" points="361.77,-254.06 361.02,-264.63 368.2,-256.84 361.77,-254.06"/>
</g>
<!-- Node9 -->
<g id="node9" class="node">
<title>Node9</title>
<g id="a_node9"><a xlink:href="hdf5__io_8h.html" target="_top" xlink:title="Helper classes for HDF5 file I/O.">
<polygon fill="white" stroke="#666666" points="537.25,-224.38 423,-224.38 423,-205.12 537.25,-205.12 537.25,-224.38"/>
<text text-anchor="middle" x="480.12" y="-210.88" font-family="Helvetica,sans-Serif" font-size="10.00">tdms/include/hdf5_io.h</text>
</a>
</g>
</g>
<!-- Node1&#45;&gt;Node9 -->
<g id="edge9" class="edge">
<title>Node1&#45;&gt;Node9</title>
<path fill="none" stroke="#63b8ff" d="M385.76,-260.92C409.05,-249.77 441.23,-234.37 461.36,-224.73"/>
<polygon fill="#63b8ff" stroke="#63b8ff" points="384.58,-258.08 377.07,-265.55 387.61,-264.39 384.58,-258.08"/>
</g>
<!-- Node10 -->
<g id="node10" class="node">
<title>Node10</title>
<g id="a_node10"><a xlink:href="test__hdf5__io_8cpp.html" target="_top" xlink:title="Tests of the HDF5 file I/O functionality.">
<polygon fill="white" stroke="#666666" points="573.5,-163.5 472.75,-163.5 472.75,-133 573.5,-133 573.5,-163.5"/>
<text text-anchor="start" x="480.75" y="-150" font-family="Helvetica,sans-Serif" font-size="10.00">tdms/tests/unit/test</text>
<text text-anchor="middle" x="523.12" y="-138.75" font-family="Helvetica,sans-Serif" font-size="10.00">_hdf5_io.cpp</text>
</a>
</g>
</g>
<!-- Node1&#45;&gt;Node10 -->
<g id="edge17" class="edge">
<title>Node1&#45;&gt;Node10</title>
<path fill="none" stroke="#63b8ff" d="M422.94,-267.74C471.18,-261.17 530.81,-249.36 546.12,-230 561.5,-210.57 546.31,-181.34 534.37,-163.89"/>
<polygon fill="#63b8ff" stroke="#63b8ff" points="422.68,-264.37 413.22,-269.14 423.59,-271.31 422.68,-264.37"/>
</g>
<!-- Node11 -->
<g id="node11" class="node">
<title>Node11</title>
<g id="a_node11"><a xlink:href="simulation__parameters_8h.html" target="_top" xlink:title="Classes collecting parameters for the simulation.">
<polygon fill="white" stroke="#666666" points="268.5,-230 149.75,-230 149.75,-199.5 268.5,-199.5 268.5,-230"/>
<text text-anchor="start" x="157.75" y="-216.5" font-family="Helvetica,sans-Serif" font-size="10.00">tdms/include/simulation</text>
<text text-anchor="middle" x="209.12" y="-205.25" font-family="Helvetica,sans-Serif" font-size="10.00">_parameters.h</text>
</a>
</g>
</g>
<!-- Node1&#45;&gt;Node11 -->
<g id="edge11" class="edge">
<title>Node1&#45;&gt;Node11</title>
<path fill="none" stroke="#63b8ff" d="M324.29,-261.56C301.14,-252.35 270.09,-240 246.06,-230.44"/>
<polygon fill="#63b8ff" stroke="#63b8ff" points="322.74,-265.11 333.32,-265.55 325.33,-258.61 322.74,-265.11"/>
</g>
<!-- Node3 -->
<g id="node3" class="node">
<title>Node3</title>
<g id="a_node3"><a xlink:href="array__init_8h.html" target="_top" xlink:title="A collection of functions for array initialisation given MATLAB pointers.">
<polygon fill="white" stroke="#666666" points="246.25,-97 150,-97 150,-66.5 246.25,-66.5 246.25,-97"/>
<text text-anchor="start" x="158" y="-83.5" font-family="Helvetica,sans-Serif" font-size="10.00">tdms/include/array</text>
<text text-anchor="middle" x="198.12" y="-72.25" font-family="Helvetica,sans-Serif" font-size="10.00">_init.h</text>
</a>
</g>
</g>
<!-- Node2&#45;&gt;Node3 -->
<g id="edge2" class="edge">
<title>Node2&#45;&gt;Node3</title>
<path fill="none" stroke="#63b8ff" d="M259.53,-131.65C246.42,-121.21 229.29,-107.56 216.45,-97.34"/>
<polygon fill="#63b8ff" stroke="#63b8ff" points="256.86,-134.79 266.86,-138.28 261.22,-129.31 256.86,-134.79"/>
</g>
<!-- Node2&#45;&gt;Node4 -->
<g id="edge3" class="edge">
<title>Node2&#45;&gt;Node4</title>
<path fill="none" stroke="#63b8ff" d="M238.74,-135.02C197.15,-122.43 133.31,-103.09 96.04,-91.81"/>
<polygon fill="#63b8ff" stroke="#63b8ff" points="237.47,-138.6 248.06,-138.15 239.5,-131.9 237.47,-138.6"/>
</g>
<!-- Node2&#45;&gt;Node6 -->
<g id="edge5" class="edge">
<title>Node2&#45;&gt;Node6</title>
<path fill="none" stroke="#63b8ff" d="M290.09,-129.12C296.21,-118.99 303.74,-106.54 309.45,-97.09"/>
<polygon fill="#63b8ff" stroke="#63b8ff" points="286.73,-126.91 284.55,-137.28 292.72,-130.54 286.73,-126.91"/>
</g>
<!-- Node2&#45;&gt;Node7 -->
<g id="edge6" class="edge">
<title>Node2&#45;&gt;Node7</title>
<path fill="none" stroke="#63b8ff" d="M311.82,-134.15C338.43,-123.49 375.96,-108.46 403.56,-97.4"/>
<polygon fill="#63b8ff" stroke="#63b8ff" points="310.83,-131.18 302.85,-138.15 313.44,-137.68 310.83,-131.18"/>
</g>
<!-- Node5 -->
<g id="node5" class="node">
<title>Node5</title>
<g id="a_node5"><a xlink:href="test___field_sample_8cpp.html" target="_top" xlink:title="Unit tests for the FieldSample class and its subclasses.">
<polygon fill="white" stroke="#666666" points="116.5,-30.5 15.75,-30.5 15.75,0 116.5,0 116.5,-30.5"/>
<text text-anchor="start" x="23.75" y="-17" font-family="Helvetica,sans-Serif" font-size="10.00">tdms/tests/unit/test</text>
<text text-anchor="middle" x="66.12" y="-5.75" font-family="Helvetica,sans-Serif" font-size="10.00">_FieldSample.cpp</text>
</a>
</g>
</g>
<!-- Node4&#45;&gt;Node5 -->
<g id="edge4" class="edge">
<title>Node4&#45;&gt;Node5</title>
<path fill="none" stroke="#63b8ff" d="M66.12,-61.02C66.12,-51.2 66.12,-39.55 66.12,-30.59"/>
<polygon fill="#63b8ff" stroke="#63b8ff" points="62.63,-60.78 66.12,-70.78 69.63,-60.78 62.63,-60.78"/>
</g>
<!-- Node8 -->
<g id="node8" class="node">
<title>Node8</title>
<g id="a_node8"><a xlink:href="test___vertex_phasors_8cpp.html" target="_top" xlink:title="Unit tests for the VertexPhasors class.">
<polygon fill="white" stroke="#666666" points="492.38,-30.5 387.88,-30.5 387.88,0 492.38,0 492.38,-30.5"/>
<text text-anchor="start" x="395.88" y="-17" font-family="Helvetica,sans-Serif" font-size="10.00">tdms/tests/unit/test</text>
<text text-anchor="middle" x="440.12" y="-5.75" font-family="Helvetica,sans-Serif" font-size="10.00">_VertexPhasors.cpp</text>
</a>
</g>
</g>
<!-- Node7&#45;&gt;Node8 -->
<g id="edge7" class="edge">
<title>Node7&#45;&gt;Node8</title>
<path fill="none" stroke="#63b8ff" d="M440.12,-55.38C440.12,-47.05 440.12,-38.08 440.12,-30.83"/>
<polygon fill="#63b8ff" stroke="#63b8ff" points="436.63,-55.11 440.12,-65.11 443.63,-55.11 436.63,-55.11"/>
</g>
<!-- Node9&#45;&gt;Node10 -->
<g id="edge10" class="edge">
<title>Node9&#45;&gt;Node10</title>
<path fill="none" stroke="#63b8ff" d="M492,-195.94C498.79,-185.75 507.2,-173.14 513.56,-163.59"/>
<polygon fill="#63b8ff" stroke="#63b8ff" points="488.74,-193.52 486.1,-203.78 494.56,-197.4 488.74,-193.52"/>
</g>
<!-- Node11&#45;&gt;Node2 -->
<g id="edge12" class="edge">
<title>Node11&#45;&gt;Node2</title>
<path fill="none" stroke="#63b8ff" d="M232.87,-191.87C245.43,-180.3 260.15,-166.74 269.55,-158.07"/>
<polygon fill="#63b8ff" stroke="#63b8ff" points="230.99,-188.76 226.01,-198.11 235.73,-193.91 230.99,-188.76"/>
</g>
<!-- Node11&#45;&gt;Node4 -->
<g id="edge13" class="edge">
<title>Node11&#45;&gt;Node4</title>
<path fill="none" stroke="#63b8ff" d="M205.8,-188.53C202.31,-171.06 195.26,-148.28 181.12,-133 161.6,-111.88 131.63,-99.18 107.19,-91.84"/>
<polygon fill="#63b8ff" stroke="#63b8ff" points="202.47,-188.85 207.61,-198.12 209.37,-187.67 202.47,-188.85"/>
</g>
<!-- Node12 -->
<g id="node12" class="node">
<title>Node12</title>
<g id="a_node12"><a xlink:href="mesh__base_8h.html" target="_top" xlink:title="Generation of orientated mesh.">
<polygon fill="white" stroke="#666666" points="172.62,-157.88 39.62,-157.88 39.62,-138.62 172.62,-138.62 172.62,-157.88"/>
<text text-anchor="middle" x="106.12" y="-144.38" font-family="Helvetica,sans-Serif" font-size="10.00">tdms/include/mesh_base.h</text>
</a>
</g>
</g>
<!-- Node11&#45;&gt;Node12 -->
<g id="edge14" class="edge">
<title>Node11&#45;&gt;Node12</title>
<path fill="none" stroke="#63b8ff" d="M176.6,-193.38C157.76,-181.58 134.97,-167.31 120.51,-158.26"/>
<polygon fill="#63b8ff" stroke="#63b8ff" points="174.42,-196.77 184.75,-199.11 178.13,-190.84 174.42,-196.77"/>
</g>
</g>
</svg>
