<?xml version="1.0" encoding="UTF-8" standalone="no"?>
<!DOCTYPE svg PUBLIC "-//W3C//DTD SVG 1.1//EN"
 "http://www.w3.org/Graphics/SVG/1.1/DTD/svg11.dtd">
<!-- Generated by graphviz version 8.0.4 (20230421.1958)
 -->
<!-- Title: tdms/include/arrays.h Pages: 1 -->
<svg width="500pt" height="282pt"
 viewBox="0.00 0.00 500.38 282.00" xmlns="http://www.w3.org/2000/svg" xmlns:xlink="http://www.w3.org/1999/xlink">
<g id="graph0" class="graph" transform="scale(1 1) rotate(0) translate(4 278)">
<title>tdms/include/arrays.h</title>
<!-- Node1 -->
<g id="node1" class="node">
<title>Node1</title>
<g id="a_node1"><a xlink:title="Classes describing arrays, vertices etc.">
<polygon fill="#999999" stroke="#666666" points="362,-274 252.25,-274 252.25,-254.75 362,-254.75 362,-274"/>
<text text-anchor="middle" x="307.12" y="-260.5" font-family="Helvetica,sans-Serif" font-size="10.00">tdms/include/arrays.h</text>
</a>
</g>
</g>
<!-- Node2 -->
<g id="node2" class="node">
<title>Node2</title>
<g id="a_node2"><a xlink:href="field_8h.html" target="_top" xlink:title="Classes for the electric and magnetic (split) fields on a grid.">
<polygon fill="white" stroke="#666666" points="357.5,-152.25 256.75,-152.25 256.75,-133 357.5,-133 357.5,-152.25"/>
<text text-anchor="middle" x="307.12" y="-138.75" font-family="Helvetica,sans-Serif" font-size="10.00">tdms/include/field.h</text>
</a>
</g>
</g>
<!-- Node1&#45;&gt;Node2 -->
<g id="edge1" class="edge">
<title>Node1&#45;&gt;Node2</title>
<path fill="none" stroke="#63b8ff" d="M307.12,-243.49C307.12,-217.21 307.12,-171.98 307.12,-152.73"/>
<polygon fill="#63b8ff" stroke="#63b8ff" points="303.63,-243.37 307.12,-253.37 310.63,-243.37 303.63,-243.37"/>
</g>
<!-- Node4 -->
<g id="node4" class="node">
<title>Node4</title>
<g id="a_node4"><a xlink:href="fieldsample_8h.html" target="_top" xlink:title="Class that stores the extracted field values at user&#45;defined vertices.">
<polygon fill="white" stroke="#666666" points="132.25,-91.38 0,-91.38 0,-72.12 132.25,-72.12 132.25,-91.38"/>
<text text-anchor="middle" x="66.12" y="-77.88" font-family="Helvetica,sans-Serif" font-size="10.00">tdms/include/fieldsample.h</text>
</a>
</g>
</g>
<!-- Node1&#45;&gt;Node4 -->
<g id="edge8" class="edge">
<title>Node1&#45;&gt;Node4</title>
<path fill="none" stroke="#63b8ff" d="M240.97,-257.97C205.09,-252.45 161.42,-241.28 128.12,-218.75 97.94,-198.32 94.72,-185.65 80.12,-152.25 71.15,-131.72 67.86,-105.26 66.71,-91.67"/>
<polygon fill="#63b8ff" stroke="#63b8ff" points="240.44,-261.57 250.83,-259.51 241.42,-254.64 240.44,-261.57"/>
</g>
<!-- Node6 -->
<g id="node6" class="node">
<title>Node6</title>
<g id="a_node6"><a xlink:href="surface__phasors_8h.html" target="_top" xlink:title="Contains a class that handles the complex amplitude extraction.">
<polygon fill="white" stroke="#666666" points="371.5,-97 264.75,-97 264.75,-66.5 371.5,-66.5 371.5,-97"/>
<text text-anchor="start" x="272.75" y="-83.5" font-family="Helvetica,sans-Serif" font-size="10.00">tdms/include/surface</text>
<text text-anchor="middle" x="318.12" y="-72.25" font-family="Helvetica,sans-Serif" font-size="10.00">_phasors.h</text>
</a>
</g>
</g>
<!-- Node1&#45;&gt;Node6 -->
<g id="edge13" class="edge">
<title>Node1&#45;&gt;Node6</title>
<path fill="none" stroke="#63b8ff" d="M320.02,-245.76C334.53,-224.74 357.24,-187.93 366.12,-152.25 368.19,-143.95 369.31,-140.94 366.12,-133 360.38,-118.67 348.38,-106.1 337.82,-97.12"/>
<polygon fill="#63b8ff" stroke="#63b8ff" points="316.75,-243.31 313.83,-253.49 322.46,-247.36 316.75,-243.31"/>
</g>
<!-- Node7 -->
<g id="node7" class="node">
<title>Node7</title>
<g id="a_node7"><a xlink:href="vertex__phasors_8h.html" target="_top" xlink:title="Contains a class that handles the complex amplitude extraction at the vertices.">
<polygon fill="white" stroke="#666666" points="490.88,-97 389.38,-97 389.38,-66.5 490.88,-66.5 490.88,-97"/>
<text text-anchor="start" x="397.38" y="-83.5" font-family="Helvetica,sans-Serif" font-size="10.00">tdms/include/vertex</text>
<text text-anchor="middle" x="440.12" y="-72.25" font-family="Helvetica,sans-Serif" font-size="10.00">_phasors.h</text>
</a>
</g>
</g>
<!-- Node1&#45;&gt;Node7 -->
<g id="edge14" class="edge">
<title>Node1&#45;&gt;Node7</title>
<path fill="none" stroke="#63b8ff" d="M328.45,-248.13C338.76,-240.12 350.88,-229.7 360.12,-218.75 393.71,-178.99 421.51,-123.33 433.61,-97.28"/>
<polygon fill="#63b8ff" stroke="#63b8ff" points="326.86,-245.7 320.97,-254.51 331.07,-251.3 326.86,-245.7"/>
</g>
<!-- Node9 -->
<g id="node9" class="node">
<title>Node9</title>
<g id="a_node9"><a xlink:href="simulation__parameters_8h.html" target="_top" xlink:title="Classes collecting parameters for the simulation.">
<polygon fill="white" stroke="#666666" points="255.5,-218.75 136.75,-218.75 136.75,-188.25 255.5,-188.25 255.5,-218.75"/>
<text text-anchor="start" x="144.75" y="-205.25" font-family="Helvetica,sans-Serif" font-size="10.00">tdms/include/simulation</text>
<text text-anchor="middle" x="196.12" y="-194" font-family="Helvetica,sans-Serif" font-size="10.00">_parameters.h</text>
</a>
</g>
</g>
<!-- Node1&#45;&gt;Node9 -->
<g id="edge9" class="edge">
<title>Node1&#45;&gt;Node9</title>
<path fill="none" stroke="#63b8ff" d="M280.79,-249.41C263.52,-240.25 241,-228.3 223.52,-219.03"/>
<polygon fill="#63b8ff" stroke="#63b8ff" points="278.79,-252.84 289.27,-254.43 282.07,-246.66 278.79,-252.84"/>
</g>
<!-- Node3 -->
<g id="node3" class="node">
<title>Node3</title>
<g id="a_node3"><a xlink:href="array__init_8h.html" target="_top" xlink:title="A collection of functions for array initialisation given MATLAB pointers.">
<polygon fill="white" stroke="#666666" points="246.25,-97 150,-97 150,-66.5 246.25,-66.5 246.25,-97"/>
<text text-anchor="start" x="158" y="-83.5" font-family="Helvetica,sans-Serif" font-size="10.00">tdms/include/array</text>
<text text-anchor="middle" x="198.12" y="-72.25" font-family="Helvetica,sans-Serif" font-size="10.00">_init.h</text>
</a>
</g>
</g>
<!-- Node2&#45;&gt;Node3 -->
<g id="edge2" class="edge">
<title>Node2&#45;&gt;Node3</title>
<path fill="none" stroke="#63b8ff" d="M281.26,-127.66C264.31,-118.5 242.19,-106.55 225.03,-97.28"/>
<polygon fill="#63b8ff" stroke="#63b8ff" points="279.11,-131.01 289.57,-132.68 282.44,-124.85 279.11,-131.01"/>
</g>
<!-- Node2&#45;&gt;Node4 -->
<g id="edge3" class="edge">
<title>Node2&#45;&gt;Node4</title>
<path fill="none" stroke="#63b8ff" d="M259.43,-129.97C213.58,-118.77 145.24,-102.08 103.3,-91.83"/>
<polygon fill="#63b8ff" stroke="#63b8ff" points="258.45,-133.58 269,-132.55 260.11,-126.78 258.45,-133.58"/>
</g>
<!-- Node2&#45;&gt;Node6 -->
<g id="edge5" class="edge">
<title>Node2&#45;&gt;Node6</title>
<path fill="none" stroke="#63b8ff" d="M310.79,-121.98C312.3,-113.91 314.02,-104.73 315.41,-97.28"/>
<polygon fill="#63b8ff" stroke="#63b8ff" points="307.19,-121.21 308.8,-131.68 314.07,-122.5 307.19,-121.21"/>
</g>
<!-- Node2&#45;&gt;Node7 -->
<g id="edge6" class="edge">
<title>Node2&#45;&gt;Node7</title>
<path fill="none" stroke="#63b8ff" d="M337.48,-128.19C358.19,-119.02 385.63,-106.87 406.93,-97.44"/>
<polygon fill="#63b8ff" stroke="#63b8ff" points="336.34,-125.31 328.61,-132.55 339.18,-131.71 336.34,-125.31"/>
</g>
<!-- Node5 -->
<g id="node5" class="node">
<title>Node5</title>
<g id="a_node5"><a xlink:href="test___field_sample_8cpp.html" target="_top" xlink:title="Unit tests for the FieldSample class and its subclasses.">
<polygon fill="white" stroke="#666666" points="116.5,-30.5 15.75,-30.5 15.75,0 116.5,0 116.5,-30.5"/>
<text text-anchor="start" x="23.75" y="-17" font-family="Helvetica,sans-Serif" font-size="10.00">tdms/tests/unit/test</text>
<text text-anchor="middle" x="66.12" y="-5.75" font-family="Helvetica,sans-Serif" font-size="10.00">_FieldSample.cpp</text>
</a>
</g>
</g>
<!-- Node4&#45;&gt;Node5 -->
<g id="edge4" class="edge">
<title>Node4&#45;&gt;Node5</title>
<path fill="none" stroke="#63b8ff" d="M66.12,-61.02C66.12,-51.2 66.12,-39.55 66.12,-30.59"/>
<polygon fill="#63b8ff" stroke="#63b8ff" points="62.63,-60.78 66.12,-70.78 69.63,-60.78 62.63,-60.78"/>
</g>
<!-- Node8 -->
<g id="node8" class="node">
<title>Node8</title>
<g id="a_node8"><a xlink:href="test___vertex_phasors_8cpp.html" target="_top" xlink:title="Unit tests for the VertexPhasors class.">
<polygon fill="white" stroke="#666666" points="492.38,-30.5 387.88,-30.5 387.88,0 492.38,0 492.38,-30.5"/>
<text text-anchor="start" x="395.88" y="-17" font-family="Helvetica,sans-Serif" font-size="10.00">tdms/tests/unit/test</text>
<text text-anchor="middle" x="440.12" y="-5.75" font-family="Helvetica,sans-Serif" font-size="10.00">_VertexPhasors.cpp</text>
</a>
</g>
</g>
<!-- Node7&#45;&gt;Node8 -->
<g id="edge7" class="edge">
<title>Node7&#45;&gt;Node8</title>
<path fill="none" stroke="#63b8ff" d="M440.12,-55.38C440.12,-47.05 440.12,-38.08 440.12,-30.83"/>
<polygon fill="#63b8ff" stroke="#63b8ff" points="436.63,-55.11 440.12,-65.11 443.63,-55.11 436.63,-55.11"/>
</g>
<!-- Node9&#45;&gt;Node2 -->
<g id="edge10" class="edge">
<title>Node9&#45;&gt;Node2</title>
<path fill="none" stroke="#63b8ff" d="M233.52,-182.66C252.69,-172.5 275.09,-160.62 290.1,-152.65"/>
<polygon fill="#63b8ff" stroke="#63b8ff" points="232.04,-180.02 224.85,-187.8 235.32,-186.2 232.04,-180.02"/>
</g>
<!-- Node9&#45;&gt;Node4 -->
<g id="edge11" class="edge">
<title>Node9&#45;&gt;Node4</title>
<path fill="none" stroke="#63b8ff" d="M141.3,-183.35C125.17,-175.65 108.55,-165.42 96.12,-152.25 79.35,-134.47 71.11,-105.84 67.86,-91.51"/>
<polygon fill="#63b8ff" stroke="#63b8ff" points="139.67,-186.91 150.23,-187.82 142.54,-180.53 139.67,-186.91"/>
</g>
<!-- Node10 -->
<g id="node10" class="node">
<title>Node10</title>
<g id="a_node10"><a xlink:href="mesh__base_8h.html" target="_top" xlink:title="Generation of orientated mesh.">
<polygon fill="white" stroke="#666666" points="238.62,-152.25 105.62,-152.25 105.62,-133 238.62,-133 238.62,-152.25"/>
<text text-anchor="middle" x="172.12" y="-138.75" font-family="Helvetica,sans-Serif" font-size="10.00">tdms/include/mesh_base.h</text>
</a>
</g>
</g>
<!-- Node9&#45;&gt;Node10 -->
<g id="edge12" class="edge">
<title>Node9&#45;&gt;Node10</title>
<path fill="none" stroke="#63b8ff" d="M186.12,-177.94C182.47,-169.01 178.58,-159.45 175.82,-152.7"/>
<polygon fill="#63b8ff" stroke="#63b8ff" points="183.18,-179.01 190.19,-186.95 189.66,-176.37 183.18,-179.01"/>
</g>
</g>
</svg>
