<?xml version="1.0" encoding="UTF-8" standalone="no"?>
<!DOCTYPE svg PUBLIC "-//W3C//DTD SVG 1.1//EN"
 "http://www.w3.org/Graphics/SVG/1.1/DTD/svg11.dtd">
<!-- Generated by graphviz version 8.0.4 (20230421.1958)
 -->
<!-- Title: tdms/include/array_init.h Pages: 1 -->
<svg width="1074pt" height="370pt"
 viewBox="0.00 0.00 1073.96 370.00" xmlns="http://www.w3.org/2000/svg" xmlns:xlink="http://www.w3.org/1999/xlink">
<g id="graph0" class="graph" transform="scale(1 1) rotate(0) translate(4 366)">
<title>tdms/include/array_init.h</title>
<!-- Node1 -->
<g id="node1" class="node">
<title>Node1</title>
<g id="a_node1"><a xlink:title="A collection of functions for array initialisation given MATLAB pointers.">
<polygon fill="#999999" stroke="#666666" points="755.08,-362 658.83,-362 658.83,-331.5 755.08,-331.5 755.08,-362"/>
<text text-anchor="start" x="666.83" y="-348.5" font-family="Helvetica,sans-Serif" font-size="10.00">tdms/include/array</text>
<text text-anchor="middle" x="706.96" y="-337.25" font-family="Helvetica,sans-Serif" font-size="10.00">_init.h</text>
</a>
</g>
</g>
<!-- Node2 -->
<g id="node2" class="node">
<title>Node2</title>
<g id="a_node2"><a xlink:href="field_8h.html" target="_top" xlink:title="Classes for the electric and magnetic (split) fields on a grid.">
<polygon fill="white" stroke="#666666" points="589.08,-295.5 546.83,-295.5 546.83,-276.25 589.08,-276.25 589.08,-295.5"/>
<text text-anchor="middle" x="567.96" y="-282" font-family="Helvetica,sans-Serif" font-size="10.00">field.h</text>
</a>
</g>
</g>
<!-- Node1&#45;&gt;Node2 -->
<g id="edge1" class="edge">
<title>Node1&#45;&gt;Node2</title>
<path fill="none" stroke="#63b8ff" d="M672.24,-331.05C649.85,-321.56 620.97,-309.33 599.29,-300.14"/>
<polygon fill="#63b8ff" stroke="#63b8ff" points="600.85,-296.58 590.28,-295.9 598.12,-303.03 600.85,-296.58"/>
</g>
<!-- Node15 -->
<g id="node15" class="node">
<title>Node15</title>
<g id="a_node15"><a xlink:href="mat__io_8h.html" target="_top" xlink:title="Includes MATLAB headers for I/O.">
<polygon fill="white" stroke="#666666" points="840.71,-74.5 787.21,-74.5 787.21,-55.25 840.71,-55.25 840.71,-74.5"/>
<text text-anchor="middle" x="813.96" y="-61" font-family="Helvetica,sans-Serif" font-size="10.00">mat_io.h</text>
</a>
</g>
</g>
<!-- Node1&#45;&gt;Node15 -->
<g id="edge36" class="edge">
<title>Node1&#45;&gt;Node15</title>
<path fill="none" stroke="#63b8ff" d="M755.38,-340.62C853.37,-328.9 1065.96,-296.04 1065.96,-231.62 1065.96,-231.62 1065.96,-231.62 1065.96,-174.38 1065.96,-82.14 921.78,-67.36 851.53,-65.63"/>
<polygon fill="#63b8ff" stroke="#63b8ff" points="851.98,-62.12 841.93,-65.46 851.87,-69.12 851.98,-62.12"/>
</g>
<!-- Node3 -->
<g id="node3" class="node">
<title>Node3</title>
<g id="a_node3"><a xlink:title=" ">
<polygon fill="#e0e0e0" stroke="#999999" points="67.33,-74.5 14.58,-74.5 14.58,-55.25 67.33,-55.25 67.33,-74.5"/>
<text text-anchor="middle" x="40.96" y="-61" font-family="Helvetica,sans-Serif" font-size="10.00">complex</text>
</a>
</g>
</g>
<!-- Node2&#45;&gt;Node3 -->
<g id="edge2" class="edge">
<title>Node2&#45;&gt;Node3</title>
<path fill="none" stroke="#63b8ff" d="M546.45,-281.97C504.04,-276.02 406.81,-261.18 326.96,-240.25 180.19,-201.78 92.19,-253.18 3.96,-129.75 -7.13,-114.24 7.17,-95.18 21.09,-81.94"/>
<polygon fill="#63b8ff" stroke="#63b8ff" points="22.89,-85.13 28.05,-75.88 18.25,-79.9 22.89,-85.13"/>
</g>
<!-- Node4 -->
<g id="node4" class="node">
<title>Node4</title>
<g id="a_node4"><a xlink:href="arrays_8h.html" target="_top" xlink:title="Classes describing arrays, vertices etc.">
<polygon fill="white" stroke="#666666" points="286.58,-185 235.33,-185 235.33,-165.75 286.58,-165.75 286.58,-185"/>
<text text-anchor="middle" x="260.96" y="-171.5" font-family="Helvetica,sans-Serif" font-size="10.00">arrays.h</text>
</a>
</g>
</g>
<!-- Node2&#45;&gt;Node4 -->
<g id="edge3" class="edge">
<title>Node2&#45;&gt;Node4</title>
<path fill="none" stroke="#63b8ff" d="M546.37,-277.25C494.14,-258.79 360.53,-211.57 296.38,-188.89"/>
<polygon fill="#63b8ff" stroke="#63b8ff" points="297.93,-185.38 287.34,-185.34 295.6,-191.98 297.93,-185.38"/>
</g>
<!-- Node8 -->
<g id="node8" class="node">
<title>Node8</title>
<g id="a_node8"><a xlink:href="globals_8h.html" target="_top" xlink:title="Type definitions and global constants.">
<polygon fill="white" stroke="#666666" points="68.46,-129.75 13.46,-129.75 13.46,-110.5 68.46,-110.5 68.46,-129.75"/>
<text text-anchor="middle" x="40.96" y="-116.25" font-family="Helvetica,sans-Serif" font-size="10.00">globals.h</text>
</a>
</g>
</g>
<!-- Node2&#45;&gt;Node8 -->
<g id="edge21" class="edge">
<title>Node2&#45;&gt;Node8</title>
<path fill="none" stroke="#63b8ff" d="M546.55,-279.92C513.43,-272.15 447.88,-256.32 392.96,-240.25 275.31,-205.83 138.39,-156.88 75.62,-133.93"/>
<polygon fill="#63b8ff" stroke="#63b8ff" points="77.08,-130.37 66.49,-130.22 74.67,-136.94 77.08,-130.37"/>
</g>
<!-- Node11 -->
<g id="node11" class="node">
<title>Node11</title>
<g id="a_node11"><a xlink:href="cell__coordinate_8h.html" target="_top" xlink:title="Container for {ijk} or {IJK} grouped variables.">
<polygon fill="white" stroke="#666666" points="969.71,-240.25 880.21,-240.25 880.21,-221 969.71,-221 969.71,-240.25"/>
<text text-anchor="middle" x="924.96" y="-226.75" font-family="Helvetica,sans-Serif" font-size="10.00">cell_coordinate.h</text>
</a>
</g>
</g>
<!-- Node2&#45;&gt;Node11 -->
<g id="edge13" class="edge">
<title>Node2&#45;&gt;Node11</title>
<path fill="none" stroke="#63b8ff" d="M589.49,-281.66C644.02,-273.53 788.97,-251.91 869.34,-239.92"/>
<polygon fill="#63b8ff" stroke="#63b8ff" points="869.39,-243.3 878.76,-238.37 868.35,-236.38 869.39,-243.3"/>
</g>
<!-- Node14 -->
<g id="node14" class="node">
<title>Node14</title>
<g id="a_node14"><a xlink:href="dimensions_8h.html" target="_top" xlink:title="Defines a class that serves as an explicit converter between MATLAB pointers and array dimensions.">
<polygon fill="white" stroke="#666666" points="770.83,-240.25 697.08,-240.25 697.08,-221 770.83,-221 770.83,-240.25"/>
<text text-anchor="middle" x="733.96" y="-226.75" font-family="Helvetica,sans-Serif" font-size="10.00">dimensions.h</text>
</a>
</g>
</g>
<!-- Node2&#45;&gt;Node14 -->
<g id="edge16" class="edge">
<title>Node2&#45;&gt;Node14</title>
<path fill="none" stroke="#63b8ff" d="M589.32,-278.02C616.11,-269.43 662.52,-254.54 695.54,-243.95"/>
<polygon fill="#63b8ff" stroke="#63b8ff" points="696.29,-247.06 704.75,-240.68 694.16,-240.4 696.29,-247.06"/>
</g>
<!-- Node2&#45;&gt;Node15 -->
<g id="edge22" class="edge">
<title>Node2&#45;&gt;Node15</title>
<path fill="none" stroke="#63b8ff" d="M589.43,-283.3C637.85,-279.31 753.38,-267.12 779.96,-240.25 821.48,-198.27 819.92,-121.57 816.49,-85.55"/>
<polygon fill="#63b8ff" stroke="#63b8ff" points="819.85,-85.17 815.26,-75.63 812.9,-85.95 819.85,-85.17"/>
</g>
<!-- Node19 -->
<g id="node19" class="node">
<title>Node19</title>
<g id="a_node19"><a xlink:href="simulation__parameters_8h.html" target="_top" xlink:title="Classes collecting parameters for the simulation.">
<polygon fill="white" stroke="#666666" points="576.21,-240.25 453.71,-240.25 453.71,-221 576.21,-221 576.21,-240.25"/>
<text text-anchor="middle" x="514.96" y="-226.75" font-family="Helvetica,sans-Serif" font-size="10.00">simulation_parameters.h</text>
</a>
</g>
</g>
<!-- Node2&#45;&gt;Node19 -->
<g id="edge23" class="edge">
<title>Node2&#45;&gt;Node19</title>
<path fill="none" stroke="#63b8ff" d="M559.21,-276.08C551.73,-268.57 540.78,-257.56 531.63,-248.38"/>
<polygon fill="#63b8ff" stroke="#63b8ff" points="534.44,-246.23 524.9,-241.61 529.48,-251.17 534.44,-246.23"/>
</g>
<!-- Node4&#45;&gt;Node3 -->
<g id="edge4" class="edge">
<title>Node4&#45;&gt;Node3</title>
<path fill="none" stroke="#63b8ff" d="M235.04,-165.94C211.14,-157.8 174.94,-144.57 144.96,-129.75 115.44,-115.16 83.44,-94.75 62.85,-80.96"/>
<polygon fill="#63b8ff" stroke="#63b8ff" points="65.22,-77.66 54.97,-74.95 61.29,-83.46 65.22,-77.66"/>
</g>
<!-- Node5 -->
<g id="node5" class="node">
<title>Node5</title>
<g id="a_node5"><a xlink:title=" ">
<polygon fill="#e0e0e0" stroke="#999999" points="221.33,-129.75 162.58,-129.75 162.58,-110.5 221.33,-110.5 221.33,-129.75"/>
<text text-anchor="middle" x="191.96" y="-116.25" font-family="Helvetica,sans-Serif" font-size="10.00">stdexcept</text>
</a>
</g>
</g>
<!-- Node4&#45;&gt;Node5 -->
<g id="edge5" class="edge">
<title>Node4&#45;&gt;Node5</title>
<path fill="none" stroke="#63b8ff" d="M249.25,-165.34C239.08,-157.49 224.12,-145.95 212.04,-136.62"/>
<polygon fill="#63b8ff" stroke="#63b8ff" points="214.55,-133.36 204.49,-130.02 210.27,-138.91 214.55,-133.36"/>
</g>
<!-- Node6 -->
<g id="node6" class="node">
<title>Node6</title>
<g id="a_node6"><a xlink:title=" ">
<polygon fill="#e0e0e0" stroke="#999999" points="492.96,-74.5 452.96,-74.5 452.96,-55.25 492.96,-55.25 492.96,-74.5"/>
<text text-anchor="middle" x="472.96" y="-61" font-family="Helvetica,sans-Serif" font-size="10.00">string</text>
</a>
</g>
</g>
<!-- Node4&#45;&gt;Node6 -->
<g id="edge6" class="edge">
<title>Node4&#45;&gt;Node6</title>
<path fill="none" stroke="#63b8ff" d="M235.09,-169.4C195.63,-160.72 127.62,-140.78 153.96,-110.5 191.15,-67.75 369.37,-64.72 442.03,-65.31"/>
<polygon fill="#63b8ff" stroke="#63b8ff" points="441.7,-68.82 451.74,-65.43 441.78,-61.82 441.7,-68.82"/>
</g>
<!-- Node7 -->
<g id="node7" class="node">
<title>Node7</title>
<g id="a_node7"><a xlink:title=" ">
<polygon fill="#e0e0e0" stroke="#999999" points="345.96,-129.75 299.96,-129.75 299.96,-110.5 345.96,-110.5 345.96,-129.75"/>
<text text-anchor="middle" x="322.96" y="-116.25" font-family="Helvetica,sans-Serif" font-size="10.00">fftw3.h</text>
</a>
</g>
</g>
<!-- Node4&#45;&gt;Node7 -->
<g id="edge7" class="edge">
<title>Node4&#45;&gt;Node7</title>
<path fill="none" stroke="#63b8ff" d="M271.48,-165.34C280.44,-157.65 293.53,-146.4 304.27,-137.18"/>
<polygon fill="#63b8ff" stroke="#63b8ff" points="306.29,-139.2 311.6,-130.02 301.73,-133.89 306.29,-139.2"/>
</g>
<!-- Node4&#45;&gt;Node8 -->
<g id="edge8" class="edge">
<title>Node4&#45;&gt;Node8</title>
<path fill="none" stroke="#63b8ff" d="M234.86,-168.06C196.27,-158.72 123.76,-141.17 79.18,-130.38"/>
<polygon fill="#63b8ff" stroke="#63b8ff" points="80.3,-126.8 69.75,-127.85 78.65,-133.61 80.3,-126.8"/>
</g>
<!-- Node9 -->
<g id="node9" class="node">
<title>Node9</title>
<g id="a_node9"><a xlink:title=" ">
<polygon fill="#e0e0e0" stroke="#999999" points="425.46,-129.75 364.46,-129.75 364.46,-110.5 425.46,-110.5 425.46,-129.75"/>
<text text-anchor="middle" x="394.96" y="-116.25" font-family="Helvetica,sans-Serif" font-size="10.00">matlabio.h</text>
</a>
</g>
</g>
<!-- Node4&#45;&gt;Node9 -->
<g id="edge10" class="edge">
<title>Node4&#45;&gt;Node9</title>
<path fill="none" stroke="#63b8ff" d="M283.69,-165.34C305.16,-156.81 337.59,-143.92 361.91,-134.26"/>
<polygon fill="#63b8ff" stroke="#63b8ff" points="363.12,-137.15 371.12,-130.2 360.53,-130.64 363.12,-137.15"/>
</g>
<!-- Node10 -->
<g id="node10" class="node">
<title>Node10</title>
<g id="a_node10"><a xlink:href="utils_8h.html" target="_top" xlink:title="Useful miscellaneous utility functions.">
<polygon fill="white" stroke="#666666" points="282.08,-129.75 239.83,-129.75 239.83,-110.5 282.08,-110.5 282.08,-129.75"/>
<text text-anchor="middle" x="260.96" y="-116.25" font-family="Helvetica,sans-Serif" font-size="10.00">utils.h</text>
</a>
</g>
</g>
<!-- Node4&#45;&gt;Node10 -->
<g id="edge11" class="edge">
<title>Node4&#45;&gt;Node10</title>
<path fill="none" stroke="#63b8ff" d="M260.96,-165.58C260.96,-158.92 260.96,-149.49 260.96,-141.03"/>
<polygon fill="#63b8ff" stroke="#63b8ff" points="264.46,-141.11 260.96,-131.11 257.46,-141.11 264.46,-141.11"/>
</g>
<!-- Node8&#45;&gt;Node3 -->
<g id="edge9" class="edge">
<title>Node8&#45;&gt;Node3</title>
<path fill="none" stroke="#63b8ff" d="M40.96,-110.33C40.96,-103.67 40.96,-94.24 40.96,-85.78"/>
<polygon fill="#63b8ff" stroke="#63b8ff" points="44.46,-85.86 40.96,-75.86 37.46,-85.86 44.46,-85.86"/>
</g>
<!-- Node10&#45;&gt;Node6 -->
<g id="edge12" class="edge">
<title>Node10&#45;&gt;Node6</title>
<path fill="none" stroke="#63b8ff" d="M282.56,-112.8C285.38,-112.01 288.24,-111.23 290.96,-110.5 343.95,-96.39 406.07,-81.52 442.31,-73"/>
<polygon fill="#63b8ff" stroke="#63b8ff" points="442.76,-76.26 451.69,-70.57 441.16,-69.44 442.76,-76.26"/>
</g>
<!-- Node12 -->
<g id="node12" class="node">
<title>Node12</title>
<g id="a_node12"><a xlink:title=" ">
<polygon fill="#e0e0e0" stroke="#999999" points="1038.08,-185 953.83,-185 953.83,-165.75 1038.08,-165.75 1038.08,-185"/>
<text text-anchor="middle" x="995.96" y="-171.5" font-family="Helvetica,sans-Serif" font-size="10.00">spdlog/spdlog.h</text>
</a>
</g>
</g>
<!-- Node11&#45;&gt;Node12 -->
<g id="edge14" class="edge">
<title>Node11&#45;&gt;Node12</title>
<path fill="none" stroke="#63b8ff" d="M937,-220.59C947.47,-212.74 962.86,-201.2 975.29,-191.87"/>
<polygon fill="#63b8ff" stroke="#63b8ff" points="977.19,-194.07 983.09,-185.27 972.99,-188.47 977.19,-194.07"/>
</g>
<!-- Node13 -->
<g id="node13" class="node">
<title>Node13</title>
<g id="a_node13"><a xlink:title=" ">
<polygon fill="#e0e0e0" stroke="#999999" points="935.83,-185 880.08,-185 880.08,-165.75 935.83,-165.75 935.83,-185"/>
<text text-anchor="middle" x="907.96" y="-171.5" font-family="Helvetica,sans-Serif" font-size="10.00">algorithm</text>
</a>
</g>
</g>
<!-- Node11&#45;&gt;Node13 -->
<g id="edge15" class="edge">
<title>Node11&#45;&gt;Node13</title>
<path fill="none" stroke="#63b8ff" d="M922.15,-220.83C919.98,-214.01 916.88,-204.31 914.13,-195.7"/>
<polygon fill="#63b8ff" stroke="#63b8ff" points="917.2,-194.82 910.83,-186.36 910.53,-196.95 917.2,-194.82"/>
</g>
<!-- Node14&#45;&gt;Node15 -->
<g id="edge17" class="edge">
<title>Node14&#45;&gt;Node15</title>
<path fill="none" stroke="#63b8ff" d="M738.43,-220.54C747.06,-203 766.61,-163.25 782.96,-129.75 790.32,-114.67 798.62,-97.57 804.77,-84.86"/>
<polygon fill="#63b8ff" stroke="#63b8ff" points="808.35,-86.5 809.56,-75.98 802.05,-83.45 808.35,-86.5"/>
</g>
<!-- Node16 -->
<g id="node16" class="node">
<title>Node16</title>
<g id="a_node16"><a xlink:title=" ">
<polygon fill="#e0e0e0" stroke="#999999" points="770.33,-19.25 729.58,-19.25 729.58,0 770.33,0 770.33,-19.25"/>
<text text-anchor="middle" x="749.96" y="-5.75" font-family="Helvetica,sans-Serif" font-size="10.00">mat.h</text>
</a>
</g>
</g>
<!-- Node15&#45;&gt;Node16 -->
<g id="edge18" class="edge">
<title>Node15&#45;&gt;Node16</title>
<path fill="none" stroke="#63b8ff" d="M803.1,-54.84C793.76,-47.07 780.07,-35.67 768.92,-26.4"/>
<polygon fill="#63b8ff" stroke="#63b8ff" points="771.58,-23.23 761.66,-19.52 767.1,-28.61 771.58,-23.23"/>
</g>
<!-- Node17 -->
<g id="node17" class="node">
<title>Node17</title>
<g id="a_node17"><a xlink:title=" ">
<polygon fill="#e0e0e0" stroke="#999999" points="839.58,-19.25 788.33,-19.25 788.33,0 839.58,0 839.58,-19.25"/>
<text text-anchor="middle" x="813.96" y="-5.75" font-family="Helvetica,sans-Serif" font-size="10.00">matrix.h</text>
</a>
</g>
</g>
<!-- Node15&#45;&gt;Node17 -->
<g id="edge19" class="edge">
<title>Node15&#45;&gt;Node17</title>
<path fill="none" stroke="#63b8ff" d="M813.96,-55.08C813.96,-48.42 813.96,-38.99 813.96,-30.53"/>
<polygon fill="#63b8ff" stroke="#63b8ff" points="817.46,-30.61 813.96,-20.61 810.46,-30.61 817.46,-30.61"/>
</g>
<!-- Node18 -->
<g id="node18" class="node">
<title>Node18</title>
<g id="a_node18"><a xlink:title=" ">
<polygon fill="#e0e0e0" stroke="#999999" points="900.46,-19.25 857.46,-19.25 857.46,0 900.46,0 900.46,-19.25"/>
<text text-anchor="middle" x="878.96" y="-5.75" font-family="Helvetica,sans-Serif" font-size="10.00">mex.h</text>
</a>
</g>
</g>
<!-- Node15&#45;&gt;Node18 -->
<g id="edge20" class="edge">
<title>Node15&#45;&gt;Node18</title>
<path fill="none" stroke="#63b8ff" d="M824.99,-54.84C834.47,-47.07 848.38,-35.67 859.7,-26.4"/>
<polygon fill="#63b8ff" stroke="#63b8ff" points="861.58,-28.57 867.1,-19.52 857.14,-23.15 861.58,-28.57"/>
</g>
<!-- Node19&#45;&gt;Node4 -->
<g id="edge25" class="edge">
<title>Node19&#45;&gt;Node4</title>
<path fill="none" stroke="#63b8ff" d="M471.58,-220.53C422.63,-210.27 343.83,-193.75 297.76,-184.09"/>
<polygon fill="#63b8ff" stroke="#63b8ff" points="298.57,-180.47 288.07,-181.85 297.13,-187.33 298.57,-180.47"/>
</g>
<!-- Node19&#45;&gt;Node6 -->
<g id="edge24" class="edge">
<title>Node19&#45;&gt;Node6</title>
<path fill="none" stroke="#63b8ff" d="M512.7,-220.82C506.15,-195.28 487.02,-120.7 477.9,-85.15"/>
<polygon fill="#63b8ff" stroke="#63b8ff" points="481.1,-84.54 475.23,-75.72 474.32,-86.28 481.1,-84.54"/>
</g>
<!-- Node20 -->
<g id="node20" class="node">
<title>Node20</title>
<g id="a_node20"><a xlink:href="input__matrices_8h.html" target="_top" xlink:title="Class handling the input matrices that are read in from the input file.">
<polygon fill="white" stroke="#666666" points="619.96,-185 531.96,-185 531.96,-165.75 619.96,-165.75 619.96,-185"/>
<text text-anchor="middle" x="575.96" y="-171.5" font-family="Helvetica,sans-Serif" font-size="10.00">input_matrices.h</text>
</a>
</g>
</g>
<!-- Node19&#45;&gt;Node20 -->
<g id="edge26" class="edge">
<title>Node19&#45;&gt;Node20</title>
<path fill="none" stroke="#63b8ff" d="M525.31,-220.59C534.12,-212.9 547.01,-201.65 557.57,-192.43"/>
<polygon fill="#63b8ff" stroke="#63b8ff" points="559.53,-194.49 564.76,-185.27 554.93,-189.21 559.53,-194.49"/>
</g>
<!-- Node20&#45;&gt;Node6 -->
<g id="edge27" class="edge">
<title>Node20&#45;&gt;Node6</title>
<path fill="none" stroke="#63b8ff" d="M558.69,-165.3C544.64,-157.31 524.91,-144.63 510.96,-129.75 498.43,-116.38 488.11,-98.18 481.4,-84.63"/>
<polygon fill="#63b8ff" stroke="#63b8ff" points="484.26,-83.49 476.82,-75.94 477.93,-86.48 484.26,-83.49"/>
</g>
<!-- Node20&#45;&gt;Node15 -->
<g id="edge31" class="edge">
<title>Node20&#45;&gt;Node15</title>
<path fill="none" stroke="#63b8ff" d="M620.44,-170.83C658.91,-166.1 714.82,-155.13 756.96,-129.75 776,-118.29 792.24,-98.43 802.46,-83.89"/>
<polygon fill="#63b8ff" stroke="#63b8ff" points="805.86,-86.1 808.53,-75.84 800.05,-82.2 805.86,-86.1"/>
</g>
<!-- Node21 -->
<g id="node21" class="node">
<title>Node21</title>
<g id="a_node21"><a xlink:href="input__output__names_8h.html" target="_top" xlink:title="Constant values associated with the format of the input and output files and matrices.">
<polygon fill="white" stroke="#666666" points="631.96,-129.75 519.96,-129.75 519.96,-110.5 631.96,-110.5 631.96,-129.75"/>
<text text-anchor="middle" x="575.96" y="-116.25" font-family="Helvetica,sans-Serif" font-size="10.00">input_output_names.h</text>
</a>
</g>
</g>
<!-- Node20&#45;&gt;Node21 -->
<g id="edge28" class="edge">
<title>Node20&#45;&gt;Node21</title>
<path fill="none" stroke="#63b8ff" d="M575.96,-165.58C575.96,-158.92 575.96,-149.49 575.96,-141.03"/>
<polygon fill="#63b8ff" stroke="#63b8ff" points="579.46,-141.11 575.96,-131.11 572.46,-141.11 579.46,-141.11"/>
</g>
<!-- Node23 -->
<g id="node23" class="node">
<title>Node23</title>
<g id="a_node23"><a xlink:href="matrix__collection_8h.html" target="_top" xlink:title="A collection of named MATLAB matrices.">
<polygon fill="white" stroke="#666666" points="747.83,-129.75 650.08,-129.75 650.08,-110.5 747.83,-110.5 747.83,-129.75"/>
<text text-anchor="middle" x="698.96" y="-116.25" font-family="Helvetica,sans-Serif" font-size="10.00">matrix_collection.h</text>
</a>
</g>
</g>
<!-- Node20&#45;&gt;Node23 -->
<g id="edge32" class="edge">
<title>Node20&#45;&gt;Node23</title>
<path fill="none" stroke="#63b8ff" d="M596.82,-165.34C616.35,-156.89 645.77,-144.15 668.02,-134.52"/>
<polygon fill="#63b8ff" stroke="#63b8ff" points="669.21,-137.39 676.99,-130.2 666.42,-130.96 669.21,-137.39"/>
</g>
<!-- Node21&#45;&gt;Node6 -->
<g id="edge29" class="edge">
<title>Node21&#45;&gt;Node6</title>
<path fill="none" stroke="#63b8ff" d="M558.49,-110.09C542.51,-101.83 518.61,-89.48 500.14,-79.93"/>
<polygon fill="#63b8ff" stroke="#63b8ff" points="502.01,-76.44 491.52,-74.95 498.79,-82.65 502.01,-76.44"/>
</g>
<!-- Node22 -->
<g id="node22" class="node">
<title>Node22</title>
<g id="a_node22"><a xlink:title=" ">
<polygon fill="#e0e0e0" stroke="#999999" points="658.46,-74.5 615.46,-74.5 615.46,-55.25 658.46,-55.25 658.46,-74.5"/>
<text text-anchor="middle" x="636.96" y="-61" font-family="Helvetica,sans-Serif" font-size="10.00">vector</text>
</a>
</g>
</g>
<!-- Node21&#45;&gt;Node22 -->
<g id="edge30" class="edge">
<title>Node21&#45;&gt;Node22</title>
<path fill="none" stroke="#63b8ff" d="M586.31,-110.09C595.12,-102.4 608.01,-91.15 618.57,-81.93"/>
<polygon fill="#63b8ff" stroke="#63b8ff" points="620.53,-83.99 625.76,-74.77 615.93,-78.71 620.53,-83.99"/>
</g>
<!-- Node23&#45;&gt;Node6 -->
<g id="edge33" class="edge">
<title>Node23&#45;&gt;Node6</title>
<path fill="none" stroke="#63b8ff" d="M660.37,-110.03C616.23,-99.63 544.83,-82.81 504.09,-73.21"/>
<polygon fill="#63b8ff" stroke="#63b8ff" points="505,-69.59 494.46,-70.71 503.39,-76.41 505,-69.59"/>
</g>
<!-- Node23&#45;&gt;Node15 -->
<g id="edge35" class="edge">
<title>Node23&#45;&gt;Node15</title>
<path fill="none" stroke="#63b8ff" d="M718.47,-110.09C736.56,-101.72 763.73,-89.13 784.47,-79.53"/>
<polygon fill="#63b8ff" stroke="#63b8ff" points="785.75,-82.33 793.36,-74.95 782.81,-75.98 785.75,-82.33"/>
</g>
<!-- Node23&#45;&gt;Node22 -->
<g id="edge34" class="edge">
<title>Node23&#45;&gt;Node22</title>
<path fill="none" stroke="#63b8ff" d="M688.44,-110.09C679.48,-102.4 666.39,-91.15 655.65,-81.93"/>
<polygon fill="#63b8ff" stroke="#63b8ff" points="658.19,-78.64 648.32,-74.77 653.63,-83.95 658.19,-78.64"/>
</g>
</g>
</svg>
