<?xml version="1.0" encoding="UTF-8" standalone="no"?>
<!DOCTYPE svg PUBLIC "-//W3C//DTD SVG 1.1//EN"
 "http://www.w3.org/Graphics/SVG/1.1/DTD/svg11.dtd">
<!-- Generated by graphviz version 8.0.5 (20230430.1635)
 -->
<!-- Title: tdms/include/array_init.h Pages: 1 -->
<svg width="1337pt" height="370pt"
 viewBox="0.00 0.00 1337.38 370.00" xmlns="http://www.w3.org/2000/svg" xmlns:xlink="http://www.w3.org/1999/xlink">
<g id="graph0" class="graph" transform="scale(1 1) rotate(0) translate(4 366)">
<title>tdms/include/array_init.h</title>
<!-- Node1 -->
<g id="node1" class="node">
<title>Node1</title>
<g id="a_node1"><a xlink:title="A collection of functions for array initialisation given MATLAB pointers.">
<polygon fill="#999999" stroke="#666666" points="1231.5,-362 1135.25,-362 1135.25,-331.5 1231.5,-331.5 1231.5,-362"/>
<text text-anchor="start" x="1143.25" y="-348.5" font-family="Helvetica,sans-Serif" font-size="10.00">tdms/include/array</text>
<text text-anchor="middle" x="1183.38" y="-337.25" font-family="Helvetica,sans-Serif" font-size="10.00">_init.h</text>
</a>
</g>
</g>
<!-- Node2 -->
<g id="node2" class="node">
<title>Node2</title>
<g id="a_node2"><a xlink:href="field_8h.html" target="_top" xlink:title="Classes for the electric and magnetic (split) fields on a grid.">
<polygon fill="white" stroke="#666666" points="1059.5,-295.5 1017.25,-295.5 1017.25,-276.25 1059.5,-276.25 1059.5,-295.5"/>
<text text-anchor="middle" x="1038.38" y="-282" font-family="Helvetica,sans-Serif" font-size="10.00">field.h</text>
</a>
</g>
</g>
<!-- Node1&#45;&gt;Node2 -->
<g id="edge1" class="edge">
<title>Node1&#45;&gt;Node2</title>
<path fill="none" stroke="#63b8ff" d="M1147.16,-331.05C1123.41,-321.4 1092.66,-308.91 1069.91,-299.68"/>
<polygon fill="#63b8ff" stroke="#63b8ff" points="1071.35,-296.08 1060.77,-295.56 1068.71,-302.57 1071.35,-296.08"/>
</g>
<!-- Node18 -->
<g id="node18" class="node">
<title>Node18</title>
<g id="a_node18"><a xlink:href="mat__io_8h.html" target="_top" xlink:title="Includes MATLAB headers for I/O.">
<polygon fill="white" stroke="#666666" points="1085.12,-74.5 1031.62,-74.5 1031.62,-55.25 1085.12,-55.25 1085.12,-74.5"/>
<text text-anchor="middle" x="1058.38" y="-61" font-family="Helvetica,sans-Serif" font-size="10.00">mat_io.h</text>
</a>
</g>
</g>
<!-- Node1&#45;&gt;Node18 -->
<g id="edge46" class="edge">
<title>Node1&#45;&gt;Node18</title>
<path fill="none" stroke="#63b8ff" d="M1230.37,-331.04C1273.05,-314.41 1329.38,-282.78 1329.38,-231.62 1329.38,-231.62 1329.38,-231.62 1329.38,-174.38 1329.38,-141.34 1318.42,-129.47 1291.38,-110.5 1260.4,-88.77 1153.85,-75.24 1096.17,-69.34"/>
<polygon fill="#63b8ff" stroke="#63b8ff" points="1096.62,-65.77 1086.33,-68.26 1095.93,-72.73 1096.62,-65.77"/>
</g>
<!-- Node3 -->
<g id="node3" class="node">
<title>Node3</title>
<g id="a_node3"><a xlink:title=" ">
<polygon fill="#e0e0e0" stroke="#999999" points="52.75,-74.5 0,-74.5 0,-55.25 52.75,-55.25 52.75,-74.5"/>
<text text-anchor="middle" x="26.38" y="-61" font-family="Helvetica,sans-Serif" font-size="10.00">complex</text>
</a>
</g>
</g>
<!-- Node2&#45;&gt;Node3 -->
<g id="edge2" class="edge">
<title>Node2&#45;&gt;Node3</title>
<path fill="none" stroke="#63b8ff" d="M1016.96,-284.34C943.02,-282.24 691.83,-272.99 487.38,-240.25 280.61,-207.14 162.74,-291.18 29.38,-129.75 19.32,-117.58 19.51,-99.22 21.67,-85.31"/>
<polygon fill="#63b8ff" stroke="#63b8ff" points="25.22,-86.39 23.76,-75.9 18.36,-85.01 25.22,-86.39"/>
</g>
<!-- Node4 -->
<g id="node4" class="node">
<title>Node4</title>
<g id="a_node4"><a xlink:href="arrays_8h.html" target="_top" xlink:title="Classes describing arrays, vertices etc.">
<polygon fill="white" stroke="#666666" points="396,-185 344.75,-185 344.75,-165.75 396,-165.75 396,-185"/>
<text text-anchor="middle" x="370.38" y="-171.5" font-family="Helvetica,sans-Serif" font-size="10.00">arrays.h</text>
</a>
</g>
</g>
<!-- Node2&#45;&gt;Node4 -->
<g id="edge3" class="edge">
<title>Node2&#45;&gt;Node4</title>
<path fill="none" stroke="#63b8ff" d="M1017.15,-284.63C949.63,-283.5 734.05,-277.03 560.38,-240.25 502.96,-228.09 438.74,-204.23 401.59,-189.36"/>
<polygon fill="#63b8ff" stroke="#63b8ff" points="403.44,-185.93 392.86,-185.43 400.82,-192.42 403.44,-185.93"/>
</g>
<!-- Node13 -->
<g id="node13" class="node">
<title>Node13</title>
<g id="a_node13"><a xlink:title=" ">
<polygon fill="#e0e0e0" stroke="#999999" points="983.25,-240.25 897.5,-240.25 897.5,-221 983.25,-221 983.25,-240.25"/>
<text text-anchor="middle" x="940.38" y="-226.75" font-family="Helvetica,sans-Serif" font-size="10.00">arrays/eh_vec.h</text>
</a>
</g>
</g>
<!-- Node2&#45;&gt;Node13 -->
<g id="edge16" class="edge">
<title>Node2&#45;&gt;Node13</title>
<path fill="none" stroke="#63b8ff" d="M1021.75,-275.84C1006.69,-267.66 984.23,-255.46 966.72,-245.94"/>
<polygon fill="#63b8ff" stroke="#63b8ff" points="968.54,-242.4 958.08,-240.7 965.2,-248.55 968.54,-242.4"/>
</g>
<!-- Node14 -->
<g id="node14" class="node">
<title>Node14</title>
<g id="a_node14"><a xlink:href="cell__coordinate_8h.html" target="_top" xlink:title="Container for {ijk} or {IJK} grouped variables.">
<polygon fill="white" stroke="#666666" points="1247.12,-185 1157.62,-185 1157.62,-165.75 1247.12,-165.75 1247.12,-185"/>
<text text-anchor="middle" x="1202.38" y="-171.5" font-family="Helvetica,sans-Serif" font-size="10.00">cell_coordinate.h</text>
</a>
</g>
</g>
<!-- Node2&#45;&gt;Node14 -->
<g id="edge17" class="edge">
<title>Node2&#45;&gt;Node14</title>
<path fill="none" stroke="#63b8ff" d="M1052.08,-275.81C1080.36,-257.1 1145.46,-214.03 1179.96,-191.2"/>
<polygon fill="#63b8ff" stroke="#63b8ff" points="1181.42,-193.77 1187.83,-185.34 1177.56,-187.94 1181.42,-193.77"/>
</g>
<!-- Node17 -->
<g id="node17" class="node">
<title>Node17</title>
<g id="a_node17"><a xlink:href="dimensions_8h.html" target="_top" xlink:title="Defines a class that serves as an explicit converter between MATLAB pointers and array dimensions.">
<polygon fill="white" stroke="#666666" points="1075.25,-240.25 1001.5,-240.25 1001.5,-221 1075.25,-221 1075.25,-240.25"/>
<text text-anchor="middle" x="1038.38" y="-226.75" font-family="Helvetica,sans-Serif" font-size="10.00">dimensions.h</text>
</a>
</g>
</g>
<!-- Node2&#45;&gt;Node17 -->
<g id="edge20" class="edge">
<title>Node2&#45;&gt;Node17</title>
<path fill="none" stroke="#63b8ff" d="M1038.38,-276.08C1038.38,-269.42 1038.38,-259.99 1038.38,-251.53"/>
<polygon fill="#63b8ff" stroke="#63b8ff" points="1041.88,-251.61 1038.38,-241.61 1034.88,-251.61 1041.88,-251.61"/>
</g>
<!-- Node2&#45;&gt;Node18 -->
<g id="edge32" class="edge">
<title>Node2&#45;&gt;Node18</title>
<path fill="none" stroke="#63b8ff" d="M1059.75,-279.39C1129.34,-260.57 1341.09,-195.02 1272.38,-110.5 1250.59,-83.71 1151.66,-72.46 1096.25,-68.19"/>
<polygon fill="#63b8ff" stroke="#63b8ff" points="1096.69,-64.64 1086.46,-67.41 1096.18,-71.62 1096.69,-64.64"/>
</g>
<!-- Node22 -->
<g id="node22" class="node">
<title>Node22</title>
<g id="a_node22"><a xlink:href="input__flags_8h.html" target="_top" xlink:title="Organises enumerated constants, names, and classes for handling flag&#45;variables that are passed to TDM...">
<polygon fill="white" stroke="#666666" points="1139.12,-185 1067.62,-185 1067.62,-165.75 1139.12,-165.75 1139.12,-185"/>
<text text-anchor="middle" x="1103.38" y="-171.5" font-family="Helvetica,sans-Serif" font-size="10.00">input_flags.h</text>
</a>
</g>
</g>
<!-- Node2&#45;&gt;Node22 -->
<g id="edge25" class="edge">
<title>Node2&#45;&gt;Node22</title>
<path fill="none" stroke="#63b8ff" d="M1050.64,-275.93C1061.04,-267.73 1075.61,-254.71 1084.38,-240.25 1092.64,-226.61 1097.51,-209.15 1100.25,-195.93"/>
<polygon fill="#63b8ff" stroke="#63b8ff" points="1103.85,-196.68 1102.2,-186.21 1096.97,-195.42 1103.85,-196.68"/>
</g>
<!-- Node23 -->
<g id="node23" class="node">
<title>Node23</title>
<g id="a_node23"><a xlink:href="simulation__parameters_8h.html" target="_top" xlink:title="Classes collecting parameters for the simulation.">
<polygon fill="white" stroke="#666666" points="691.62,-240.25 569.12,-240.25 569.12,-221 691.62,-221 691.62,-240.25"/>
<text text-anchor="middle" x="630.38" y="-226.75" font-family="Helvetica,sans-Serif" font-size="10.00">simulation_parameters.h</text>
</a>
</g>
</g>
<!-- Node2&#45;&gt;Node23 -->
<g id="edge33" class="edge">
<title>Node2&#45;&gt;Node23</title>
<path fill="none" stroke="#63b8ff" d="M1017.01,-282.09C959.23,-274.55 797.81,-253.48 702.8,-241.08"/>
<polygon fill="#63b8ff" stroke="#63b8ff" points="703.49,-237.51 693.12,-239.68 702.59,-244.45 703.49,-237.51"/>
</g>
<!-- Node4&#45;&gt;Node3 -->
<g id="edge4" class="edge">
<title>Node4&#45;&gt;Node3</title>
<path fill="none" stroke="#63b8ff" d="M344.63,-174.32C275.89,-173.65 90.22,-168.22 45.38,-129.75 32.75,-118.92 28.31,-100.11 26.85,-85.7"/>
<polygon fill="#63b8ff" stroke="#63b8ff" points="30.29,-85.67 26.2,-75.9 23.31,-86.09 30.29,-85.67"/>
</g>
<!-- Node5 -->
<g id="node5" class="node">
<title>Node5</title>
<g id="a_node5"><a xlink:title=" ">
<polygon fill="#e0e0e0" stroke="#999999" points="819.75,-129.75 761,-129.75 761,-110.5 819.75,-110.5 819.75,-129.75"/>
<text text-anchor="middle" x="790.38" y="-116.25" font-family="Helvetica,sans-Serif" font-size="10.00">stdexcept</text>
</a>
</g>
</g>
<!-- Node4&#45;&gt;Node5 -->
<g id="edge5" class="edge">
<title>Node4&#45;&gt;Node5</title>
<path fill="none" stroke="#63b8ff" d="M396.45,-172.3C456.88,-167.28 611.33,-153.27 749.78,-130.04"/>
<polygon fill="#63b8ff" stroke="#63b8ff" points="750.29,-133.33 759.56,-128.21 749.12,-126.43 750.29,-133.33"/>
</g>
<!-- Node6 -->
<g id="node6" class="node">
<title>Node6</title>
<g id="a_node6"><a xlink:title=" ">
<polygon fill="#e0e0e0" stroke="#999999" points="528.38,-74.5 488.38,-74.5 488.38,-55.25 528.38,-55.25 528.38,-74.5"/>
<text text-anchor="middle" x="508.38" y="-61" font-family="Helvetica,sans-Serif" font-size="10.00">string</text>
</a>
</g>
</g>
<!-- Node4&#45;&gt;Node6 -->
<g id="edge6" class="edge">
<title>Node4&#45;&gt;Node6</title>
<path fill="none" stroke="#63b8ff" d="M344.53,-172.47C292.98,-167.74 185.31,-152.61 221.38,-110.5 254.09,-72.31 410.05,-66.54 477.35,-65.85"/>
<polygon fill="#63b8ff" stroke="#63b8ff" points="477.12,-69.35 487.1,-65.78 477.07,-62.35 477.12,-69.35"/>
</g>
<!-- Node7 -->
<g id="node7" class="node">
<title>Node7</title>
<g id="a_node7"><a xlink:title=" ">
<polygon fill="#e0e0e0" stroke="#999999" points="807.88,-74.5 764.88,-74.5 764.88,-55.25 807.88,-55.25 807.88,-74.5"/>
<text text-anchor="middle" x="786.38" y="-61" font-family="Helvetica,sans-Serif" font-size="10.00">vector</text>
</a>
</g>
</g>
<!-- Node4&#45;&gt;Node7 -->
<g id="edge7" class="edge">
<title>Node4&#45;&gt;Node7</title>
<path fill="none" stroke="#63b8ff" d="M396.4,-167.59C469.11,-148.62 674.3,-95.11 754.08,-74.3"/>
<polygon fill="#63b8ff" stroke="#63b8ff" points="754.68,-77.5 763.48,-71.59 752.92,-70.72 754.68,-77.5"/>
</g>
<!-- Node8 -->
<g id="node8" class="node">
<title>Node8</title>
<g id="a_node8"><a xlink:title=" ">
<polygon fill="#e0e0e0" stroke="#999999" points="100.38,-129.75 54.38,-129.75 54.38,-110.5 100.38,-110.5 100.38,-129.75"/>
<text text-anchor="middle" x="77.38" y="-116.25" font-family="Helvetica,sans-Serif" font-size="10.00">fftw3.h</text>
</a>
</g>
</g>
<!-- Node4&#45;&gt;Node8 -->
<g id="edge8" class="edge">
<title>Node4&#45;&gt;Node8</title>
<path fill="none" stroke="#63b8ff" d="M344.29,-170.74C298.88,-164.25 202.21,-149.63 111.22,-129.99"/>
<polygon fill="#63b8ff" stroke="#63b8ff" points="112.25,-126.41 101.73,-127.69 110.75,-133.25 112.25,-126.41"/>
</g>
<!-- Node9 -->
<g id="node9" class="node">
<title>Node9</title>
<g id="a_node9"><a xlink:title=" ">
<polygon fill="#e0e0e0" stroke="#999999" points="322.25,-129.75 230.5,-129.75 230.5,-110.5 322.25,-110.5 322.25,-129.75"/>
<text text-anchor="middle" x="276.38" y="-116.25" font-family="Helvetica,sans-Serif" font-size="10.00">arrays/tensor3d.h</text>
</a>
</g>
</g>
<!-- Node4&#45;&gt;Node9 -->
<g id="edge9" class="edge">
<title>Node4&#45;&gt;Node9</title>
<path fill="none" stroke="#63b8ff" d="M354.43,-165.34C339.98,-157.16 318.44,-144.96 301.65,-135.44"/>
<polygon fill="#63b8ff" stroke="#63b8ff" points="303.83,-132.09 293.4,-130.2 300.37,-138.18 303.83,-132.09"/>
</g>
<!-- Node10 -->
<g id="node10" class="node">
<title>Node10</title>
<g id="a_node10"><a xlink:href="globals_8h.html" target="_top" xlink:title="Type definitions and global constants.">
<polygon fill="white" stroke="#666666" points="173.88,-129.75 118.88,-129.75 118.88,-110.5 173.88,-110.5 173.88,-129.75"/>
<text text-anchor="middle" x="146.38" y="-116.25" font-family="Helvetica,sans-Serif" font-size="10.00">globals.h</text>
</a>
</g>
</g>
<!-- Node4&#45;&gt;Node10 -->
<g id="edge10" class="edge">
<title>Node4&#45;&gt;Node10</title>
<path fill="none" stroke="#63b8ff" d="M344.68,-168.27C305.5,-158.95 230.59,-141.14 184.89,-130.28"/>
<polygon fill="#63b8ff" stroke="#63b8ff" points="185.76,-126.65 175.22,-127.74 184.14,-133.46 185.76,-126.65"/>
</g>
<!-- Node11 -->
<g id="node11" class="node">
<title>Node11</title>
<g id="a_node11"><a xlink:title=" ">
<polygon fill="#e0e0e0" stroke="#999999" points="400.88,-129.75 339.88,-129.75 339.88,-110.5 400.88,-110.5 400.88,-129.75"/>
<text text-anchor="middle" x="370.38" y="-116.25" font-family="Helvetica,sans-Serif" font-size="10.00">matlabio.h</text>
</a>
</g>
</g>
<!-- Node4&#45;&gt;Node11 -->
<g id="edge13" class="edge">
<title>Node4&#45;&gt;Node11</title>
<path fill="none" stroke="#63b8ff" d="M370.38,-165.58C370.38,-158.92 370.38,-149.49 370.38,-141.03"/>
<polygon fill="#63b8ff" stroke="#63b8ff" points="373.88,-141.11 370.38,-131.11 366.88,-141.11 373.88,-141.11"/>
</g>
<!-- Node12 -->
<g id="node12" class="node">
<title>Node12</title>
<g id="a_node12"><a xlink:href="utils_8h.html" target="_top" xlink:title="Useful miscellaneous utility functions.">
<polygon fill="white" stroke="#666666" points="461.5,-129.75 419.25,-129.75 419.25,-110.5 461.5,-110.5 461.5,-129.75"/>
<text text-anchor="middle" x="440.38" y="-116.25" font-family="Helvetica,sans-Serif" font-size="10.00">utils.h</text>
</a>
</g>
</g>
<!-- Node4&#45;&gt;Node12 -->
<g id="edge14" class="edge">
<title>Node4&#45;&gt;Node12</title>
<path fill="none" stroke="#63b8ff" d="M382.25,-165.34C392.57,-157.49 407.74,-145.95 420,-136.62"/>
<polygon fill="#63b8ff" stroke="#63b8ff" points="421.84,-138.86 427.68,-130.02 417.6,-133.29 421.84,-138.86"/>
</g>
<!-- Node10&#45;&gt;Node3 -->
<g id="edge11" class="edge">
<title>Node10&#45;&gt;Node3</title>
<path fill="none" stroke="#63b8ff" d="M126.02,-110.09C107.06,-101.68 78.53,-89.02 56.85,-79.4"/>
<polygon fill="#63b8ff" stroke="#63b8ff" points="58.39,-75.81 47.83,-74.95 55.55,-82.21 58.39,-75.81"/>
</g>
<!-- Node10&#45;&gt;Node6 -->
<g id="edge12" class="edge">
<title>Node10&#45;&gt;Node6</title>
<path fill="none" stroke="#63b8ff" d="M174.34,-113.12C179.02,-112.19 183.83,-111.28 188.38,-110.5 293.88,-92.33 419.93,-76.45 477.25,-69.54"/>
<polygon fill="#63b8ff" stroke="#63b8ff" points="477.57,-72.91 487.09,-68.25 476.74,-65.96 477.57,-72.91"/>
</g>
<!-- Node12&#45;&gt;Node6 -->
<g id="edge15" class="edge">
<title>Node12&#45;&gt;Node6</title>
<path fill="none" stroke="#63b8ff" d="M451.91,-110.09C461.94,-102.24 476.68,-90.7 488.58,-81.37"/>
<polygon fill="#63b8ff" stroke="#63b8ff" points="490.29,-83.7 496.01,-74.77 485.98,-78.18 490.29,-83.7"/>
</g>
<!-- Node15 -->
<g id="node15" class="node">
<title>Node15</title>
<g id="a_node15"><a xlink:title=" ">
<polygon fill="#e0e0e0" stroke="#999999" points="1263.5,-129.75 1179.25,-129.75 1179.25,-110.5 1263.5,-110.5 1263.5,-129.75"/>
<text text-anchor="middle" x="1221.38" y="-116.25" font-family="Helvetica,sans-Serif" font-size="10.00">spdlog/spdlog.h</text>
</a>
</g>
</g>
<!-- Node14&#45;&gt;Node15 -->
<g id="edge18" class="edge">
<title>Node14&#45;&gt;Node15</title>
<path fill="none" stroke="#63b8ff" d="M1205.51,-165.58C1207.95,-158.76 1211.41,-149.06 1214.48,-140.45"/>
<polygon fill="#63b8ff" stroke="#63b8ff" points="1218.11,-141.7 1218.17,-131.11 1211.51,-139.35 1218.11,-141.7"/>
</g>
<!-- Node16 -->
<g id="node16" class="node">
<title>Node16</title>
<g id="a_node16"><a xlink:title=" ">
<polygon fill="#e0e0e0" stroke="#999999" points="1161.25,-129.75 1105.5,-129.75 1105.5,-110.5 1161.25,-110.5 1161.25,-129.75"/>
<text text-anchor="middle" x="1133.38" y="-116.25" font-family="Helvetica,sans-Serif" font-size="10.00">algorithm</text>
</a>
</g>
</g>
<!-- Node14&#45;&gt;Node16 -->
<g id="edge19" class="edge">
<title>Node14&#45;&gt;Node16</title>
<path fill="none" stroke="#63b8ff" d="M1190.67,-165.34C1180.5,-157.49 1165.54,-145.95 1153.46,-136.62"/>
<polygon fill="#63b8ff" stroke="#63b8ff" points="1155.96,-133.36 1145.91,-130.02 1151.69,-138.91 1155.96,-133.36"/>
</g>
<!-- Node17&#45;&gt;Node18 -->
<g id="edge21" class="edge">
<title>Node17&#45;&gt;Node18</title>
<path fill="none" stroke="#63b8ff" d="M1039.45,-220.82C1042.56,-195.39 1051.6,-121.35 1055.96,-85.62"/>
<polygon fill="#63b8ff" stroke="#63b8ff" points="1059.56,-86.07 1057.29,-75.72 1052.61,-85.22 1059.56,-86.07"/>
</g>
<!-- Node19 -->
<g id="node19" class="node">
<title>Node19</title>
<g id="a_node19"><a xlink:title=" ">
<polygon fill="#e0e0e0" stroke="#999999" points="1014.75,-19.25 974,-19.25 974,0 1014.75,0 1014.75,-19.25"/>
<text text-anchor="middle" x="994.38" y="-5.75" font-family="Helvetica,sans-Serif" font-size="10.00">mat.h</text>
</a>
</g>
</g>
<!-- Node18&#45;&gt;Node19 -->
<g id="edge22" class="edge">
<title>Node18&#45;&gt;Node19</title>
<path fill="none" stroke="#63b8ff" d="M1047.52,-54.84C1038.18,-47.07 1024.48,-35.67 1013.33,-26.4"/>
<polygon fill="#63b8ff" stroke="#63b8ff" points="1016,-23.23 1006.07,-19.52 1011.52,-28.61 1016,-23.23"/>
</g>
<!-- Node20 -->
<g id="node20" class="node">
<title>Node20</title>
<g id="a_node20"><a xlink:title=" ">
<polygon fill="#e0e0e0" stroke="#999999" points="1084,-19.25 1032.75,-19.25 1032.75,0 1084,0 1084,-19.25"/>
<text text-anchor="middle" x="1058.38" y="-5.75" font-family="Helvetica,sans-Serif" font-size="10.00">matrix.h</text>
</a>
</g>
</g>
<!-- Node18&#45;&gt;Node20 -->
<g id="edge23" class="edge">
<title>Node18&#45;&gt;Node20</title>
<path fill="none" stroke="#63b8ff" d="M1058.38,-55.08C1058.38,-48.42 1058.38,-38.99 1058.38,-30.53"/>
<polygon fill="#63b8ff" stroke="#63b8ff" points="1061.88,-30.61 1058.38,-20.61 1054.88,-30.61 1061.88,-30.61"/>
</g>
<!-- Node21 -->
<g id="node21" class="node">
<title>Node21</title>
<g id="a_node21"><a xlink:title=" ">
<polygon fill="#e0e0e0" stroke="#999999" points="1144.88,-19.25 1101.88,-19.25 1101.88,0 1144.88,0 1144.88,-19.25"/>
<text text-anchor="middle" x="1123.38" y="-5.75" font-family="Helvetica,sans-Serif" font-size="10.00">mex.h</text>
</a>
</g>
</g>
<!-- Node18&#45;&gt;Node21 -->
<g id="edge24" class="edge">
<title>Node18&#45;&gt;Node21</title>
<path fill="none" stroke="#63b8ff" d="M1069.4,-54.84C1078.89,-47.07 1092.8,-35.67 1104.12,-26.4"/>
<polygon fill="#63b8ff" stroke="#63b8ff" points="1105.99,-28.57 1111.51,-19.52 1101.56,-23.15 1105.99,-28.57"/>
</g>
<!-- Node22&#45;&gt;Node5 -->
<g id="edge27" class="edge">
<title>Node22&#45;&gt;Node5</title>
<path fill="none" stroke="#63b8ff" d="M1067.21,-169.24C1016.52,-161.88 921.22,-147.47 830.91,-130.15"/>
<polygon fill="#63b8ff" stroke="#63b8ff" points="831.69,-126.54 821.21,-128.08 830.36,-133.42 831.69,-126.54"/>
</g>
<!-- Node22&#45;&gt;Node6 -->
<g id="edge28" class="edge">
<title>Node22&#45;&gt;Node6</title>
<path fill="none" stroke="#63b8ff" d="M1067.4,-173.05C970.42,-169.17 705.33,-156.35 622.38,-129.75 606.21,-124.57 604.15,-118.88 589.38,-110.5 571.1,-100.14 550.35,-88.71 534.42,-80.01"/>
<polygon fill="#63b8ff" stroke="#63b8ff" points="536.65,-76.7 526.2,-74.99 533.3,-82.84 536.65,-76.7"/>
</g>
<!-- Node22&#45;&gt;Node7 -->
<g id="edge29" class="edge">
<title>Node22&#45;&gt;Node7</title>
<path fill="none" stroke="#63b8ff" d="M1082.81,-165.29C1052.75,-152.2 994.92,-127.73 944.38,-110.5 901.54,-95.89 851.06,-82.24 818.9,-73.97"/>
<polygon fill="#63b8ff" stroke="#63b8ff" points="819.88,-70.36 809.33,-71.28 818.15,-77.14 819.88,-70.36"/>
</g>
<!-- Node22&#45;&gt;Node15 -->
<g id="edge30" class="edge">
<title>Node22&#45;&gt;Node15</title>
<path fill="none" stroke="#63b8ff" d="M1123.39,-165.34C1142.04,-156.93 1170.09,-144.27 1191.41,-134.65"/>
<polygon fill="#63b8ff" stroke="#63b8ff" points="1192.58,-137.51 1200.26,-130.2 1189.71,-131.13 1192.58,-137.51"/>
</g>
<!-- Node22&#45;&gt;Node16 -->
<g id="edge26" class="edge">
<title>Node22&#45;&gt;Node16</title>
<path fill="none" stroke="#63b8ff" d="M1108.33,-165.58C1112.3,-158.53 1118.01,-148.4 1122.98,-139.58"/>
<polygon fill="#63b8ff" stroke="#63b8ff" points="1126.45,-141.54 1128.31,-131.11 1120.36,-138.1 1126.45,-141.54"/>
</g>
<!-- Node22&#45;&gt;Node18 -->
<g id="edge31" class="edge">
<title>Node22&#45;&gt;Node18</title>
<path fill="none" stroke="#63b8ff" d="M1099.69,-165.5C1092.41,-147.93 1076.02,-108.41 1066.21,-84.77"/>
<polygon fill="#63b8ff" stroke="#63b8ff" points="1069.17,-83.77 1062.11,-75.88 1062.71,-86.45 1069.17,-83.77"/>
</g>
<!-- Node23&#45;&gt;Node4 -->
<g id="edge35" class="edge">
<title>Node23&#45;&gt;Node4</title>
<path fill="none" stroke="#63b8ff" d="M585.97,-220.53C535.49,-210.19 453.99,-193.5 406.99,-183.87"/>
<polygon fill="#63b8ff" stroke="#63b8ff" points="407.89,-180.28 397.39,-181.7 406.48,-187.14 407.89,-180.28"/>
</g>
<!-- Node23&#45;&gt;Node6 -->
<g id="edge34" class="edge">
<title>Node23&#45;&gt;Node6</title>
<path fill="none" stroke="#63b8ff" d="M623.82,-220.82C604.45,-194.83 547.28,-118.09 521.38,-83.34"/>
<polygon fill="#63b8ff" stroke="#63b8ff" points="523.75,-81.65 514.97,-75.72 518.13,-85.83 523.75,-81.65"/>
</g>
<!-- Node24 -->
<g id="node24" class="node">
<title>Node24</title>
<g id="a_node24"><a xlink:href="input__matrices_8h.html" target="_top" xlink:title="Class handling the input matrices that are read in from the input file.">
<polygon fill="white" stroke="#666666" points="731.38,-185 643.38,-185 643.38,-165.75 731.38,-165.75 731.38,-185"/>
<text text-anchor="middle" x="687.38" y="-171.5" font-family="Helvetica,sans-Serif" font-size="10.00">input_matrices.h</text>
</a>
</g>
</g>
<!-- Node23&#45;&gt;Node24 -->
<g id="edge36" class="edge">
<title>Node23&#45;&gt;Node24</title>
<path fill="none" stroke="#63b8ff" d="M640.04,-220.59C648.2,-212.97 660.08,-201.87 669.9,-192.7"/>
<polygon fill="#63b8ff" stroke="#63b8ff" points="671.93,-195.66 676.85,-186.27 667.15,-190.54 671.93,-195.66"/>
</g>
<!-- Node24&#45;&gt;Node6 -->
<g id="edge37" class="edge">
<title>Node24&#45;&gt;Node6</title>
<path fill="none" stroke="#63b8ff" d="M663.2,-165.27C642.85,-157.16 613.32,-144.35 589.38,-129.75 566.15,-115.59 541.97,-95.75 526.15,-81.95"/>
<polygon fill="#63b8ff" stroke="#63b8ff" points="529.08,-79.99 519.28,-75.98 524.44,-85.23 529.08,-79.99"/>
</g>
<!-- Node24&#45;&gt;Node18 -->
<g id="edge41" class="edge">
<title>Node24&#45;&gt;Node18</title>
<path fill="none" stroke="#63b8ff" d="M731.72,-171.25C783.88,-166.54 872.47,-155.29 944.38,-129.75 978.64,-117.58 1014.69,-95.61 1036.85,-80.88"/>
<polygon fill="#63b8ff" stroke="#63b8ff" points="1038.41,-83.38 1044.73,-74.87 1034.49,-77.58 1038.41,-83.38"/>
</g>
<!-- Node25 -->
<g id="node25" class="node">
<title>Node25</title>
<g id="a_node25"><a xlink:href="input__output__names_8h.html" target="_top" xlink:title="Constant values associated with the format of the input and output files and matrices.">
<polygon fill="white" stroke="#666666" points="743.38,-129.75 631.38,-129.75 631.38,-110.5 743.38,-110.5 743.38,-129.75"/>
<text text-anchor="middle" x="687.38" y="-116.25" font-family="Helvetica,sans-Serif" font-size="10.00">input_output_names.h</text>
</a>
</g>
</g>
<!-- Node24&#45;&gt;Node25 -->
<g id="edge38" class="edge">
<title>Node24&#45;&gt;Node25</title>
<path fill="none" stroke="#63b8ff" d="M687.38,-165.58C687.38,-158.92 687.38,-149.49 687.38,-141.03"/>
<polygon fill="#63b8ff" stroke="#63b8ff" points="690.88,-141.11 687.38,-131.11 683.88,-141.11 690.88,-141.11"/>
</g>
<!-- Node26 -->
<g id="node26" class="node">
<title>Node26</title>
<g id="a_node26"><a xlink:href="matrix__collection_8h.html" target="_top" xlink:title="A collection of named MATLAB matrices.">
<polygon fill="white" stroke="#666666" points="935.25,-129.75 837.5,-129.75 837.5,-110.5 935.25,-110.5 935.25,-129.75"/>
<text text-anchor="middle" x="886.38" y="-116.25" font-family="Helvetica,sans-Serif" font-size="10.00">matrix_collection.h</text>
</a>
</g>
</g>
<!-- Node24&#45;&gt;Node26 -->
<g id="edge42" class="edge">
<title>Node24&#45;&gt;Node26</title>
<path fill="none" stroke="#63b8ff" d="M721.13,-165.34C754.44,-156.43 805.53,-142.76 842.08,-132.98"/>
<polygon fill="#63b8ff" stroke="#63b8ff" points="842.7,-136.17 851.45,-130.2 840.89,-129.41 842.7,-136.17"/>
</g>
<!-- Node25&#45;&gt;Node6 -->
<g id="edge39" class="edge">
<title>Node25&#45;&gt;Node6</title>
<path fill="none" stroke="#63b8ff" d="M657.01,-110.09C624.21,-100.33 572.23,-84.87 539.24,-75.06"/>
<polygon fill="#63b8ff" stroke="#63b8ff" points="540.42,-71.46 529.83,-71.96 538.42,-78.17 540.42,-71.46"/>
</g>
<!-- Node25&#45;&gt;Node7 -->
<g id="edge40" class="edge">
<title>Node25&#45;&gt;Node7</title>
<path fill="none" stroke="#63b8ff" d="M704.17,-110.09C719.53,-101.83 742.49,-89.48 760.25,-79.93"/>
<polygon fill="#63b8ff" stroke="#63b8ff" points="761.35,-82.77 768.5,-74.95 758.03,-76.61 761.35,-82.77"/>
</g>
<!-- Node26&#45;&gt;Node6 -->
<g id="edge43" class="edge">
<title>Node26&#45;&gt;Node6</title>
<path fill="none" stroke="#63b8ff" d="M837.02,-111.75C834.09,-111.33 831.2,-110.91 828.38,-110.5 722.41,-95.23 596.59,-77.93 539.41,-70.11"/>
<polygon fill="#63b8ff" stroke="#63b8ff" points="539.98,-66.52 529.6,-68.63 539.04,-73.45 539.98,-66.52"/>
</g>
<!-- Node26&#45;&gt;Node7 -->
<g id="edge44" class="edge">
<title>Node26&#45;&gt;Node7</title>
<path fill="none" stroke="#63b8ff" d="M869.41,-110.09C853.97,-101.87 830.91,-89.59 813.01,-80.06"/>
<polygon fill="#63b8ff" stroke="#63b8ff" points="814.89,-76.56 804.42,-74.95 811.6,-82.74 814.89,-76.56"/>
</g>
<!-- Node26&#45;&gt;Node18 -->
<g id="edge45" class="edge">
<title>Node26&#45;&gt;Node18</title>
<path fill="none" stroke="#63b8ff" d="M915.55,-110.09C944.66,-101.08 989.48,-87.2 1021.14,-77.4"/>
<polygon fill="#63b8ff" stroke="#63b8ff" points="1021.81,-80.55 1030.33,-74.25 1019.74,-73.86 1021.81,-80.55"/>
</g>
</g>
</svg>
