<?xml version="1.0" encoding="UTF-8" standalone="no"?>
<!DOCTYPE svg PUBLIC "-//W3C//DTD SVG 1.1//EN"
 "http://www.w3.org/Graphics/SVG/1.1/DTD/svg11.dtd">
<!-- Generated by graphviz version 8.0.5 (20230430.1635)
 -->
<!-- Title: tdms/include/array_init.h Pages: 1 -->
<svg width="1149pt" height="370pt"
 viewBox="0.00 0.00 1148.75 370.00" xmlns="http://www.w3.org/2000/svg" xmlns:xlink="http://www.w3.org/1999/xlink">
<g id="graph0" class="graph" transform="scale(1 1) rotate(0) translate(4 366)">
<title>tdms/include/array_init.h</title>
<!-- Node1 -->
<g id="node1" class="node">
<title>Node1</title>
<g id="a_node1"><a xlink:title="A collection of functions for array initialisation given MATLAB pointers.">
<polygon fill="#999999" stroke="#666666" points="1024.88,-362 928.62,-362 928.62,-331.5 1024.88,-331.5 1024.88,-362"/>
<text text-anchor="start" x="936.62" y="-348.5" font-family="Helvetica,sans-Serif" font-size="10.00">tdms/include/array</text>
<text text-anchor="middle" x="976.75" y="-337.25" font-family="Helvetica,sans-Serif" font-size="10.00">_init.h</text>
</a>
</g>
</g>
<!-- Node2 -->
<g id="node2" class="node">
<title>Node2</title>
<g id="a_node2"><a xlink:href="field_8h.html" target="_top" xlink:title="Classes for the electric and magnetic (split) fields on a grid.">
<polygon fill="white" stroke="#666666" points="869.88,-295.5 827.62,-295.5 827.62,-276.25 869.88,-276.25 869.88,-295.5"/>
<text text-anchor="middle" x="848.75" y="-282" font-family="Helvetica,sans-Serif" font-size="10.00">field.h</text>
</a>
</g>
</g>
<!-- Node1&#45;&gt;Node2 -->
<g id="edge1" class="edge">
<title>Node1&#45;&gt;Node2</title>
<path fill="none" stroke="#63b8ff" d="M944.78,-331.05C924.35,-321.65 898.05,-309.55 878.14,-300.39"/>
<polygon fill="#63b8ff" stroke="#63b8ff" points="879.93,-296.9 869.38,-295.9 877,-303.26 879.93,-296.9"/>
</g>
<!-- Node19 -->
<g id="node19" class="node">
<title>Node19</title>
<g id="a_node19"><a xlink:href="mat__io_8h.html" target="_top" xlink:title="Includes MATLAB headers for I/O.">
<polygon fill="white" stroke="#666666" points="1022.5,-74.5 969,-74.5 969,-55.25 1022.5,-55.25 1022.5,-74.5"/>
<text text-anchor="middle" x="995.75" y="-61" font-family="Helvetica,sans-Serif" font-size="10.00">mat_io.h</text>
</a>
</g>
</g>
<!-- Node1&#45;&gt;Node19 -->
<g id="edge50" class="edge">
<title>Node1&#45;&gt;Node19</title>
<path fill="none" stroke="#63b8ff" d="M1025.07,-334.17C1073.44,-319.35 1140.75,-288.51 1140.75,-231.62 1140.75,-231.62 1140.75,-231.62 1140.75,-174.38 1140.75,-120.61 1076.05,-90.26 1033.09,-76.03"/>
<polygon fill="#63b8ff" stroke="#63b8ff" points="1034.27,-72.42 1023.68,-72.76 1032.17,-79.1 1034.27,-72.42"/>
</g>
<!-- Node3 -->
<g id="node3" class="node">
<title>Node3</title>
<g id="a_node3"><a xlink:title=" ">
<polygon fill="#e0e0e0" stroke="#999999" points="908.12,-74.5 855.38,-74.5 855.38,-55.25 908.12,-55.25 908.12,-74.5"/>
<text text-anchor="middle" x="881.75" y="-61" font-family="Helvetica,sans-Serif" font-size="10.00">complex</text>
</a>
</g>
</g>
<!-- Node2&#45;&gt;Node3 -->
<g id="edge2" class="edge">
<title>Node2&#45;&gt;Node3</title>
<path fill="none" stroke="#63b8ff" d="M843.38,-276.16C836.48,-263.83 826.02,-240.61 831.75,-221 837.07,-202.78 845.58,-201.62 854.75,-185 867.86,-161.24 874.62,-156.19 880.75,-129.75 884.13,-115.18 884.22,-98.23 883.56,-85.45"/>
<polygon fill="#63b8ff" stroke="#63b8ff" points="886.99,-85.41 882.77,-75.69 880.01,-85.92 886.99,-85.41"/>
</g>
<!-- Node4 -->
<g id="node4" class="node">
<title>Node4</title>
<g id="a_node4"><a xlink:href="arrays_8h.html" target="_top" xlink:title="Classes describing arrays, vertices etc.">
<polygon fill="white" stroke="#666666" points="487.38,-185 436.12,-185 436.12,-165.75 487.38,-165.75 487.38,-185"/>
<text text-anchor="middle" x="461.75" y="-171.5" font-family="Helvetica,sans-Serif" font-size="10.00">arrays.h</text>
</a>
</g>
</g>
<!-- Node2&#45;&gt;Node4 -->
<g id="edge3" class="edge">
<title>Node2&#45;&gt;Node4</title>
<path fill="none" stroke="#63b8ff" d="M827.23,-280.66C791.11,-273.42 716.12,-257.72 653.75,-240.25 598.09,-224.66 534.67,-202.73 496.45,-189.04"/>
<polygon fill="#63b8ff" stroke="#63b8ff" points="497.96,-185.51 487.37,-185.41 495.59,-192.09 497.96,-185.51"/>
</g>
<!-- Node14 -->
<g id="node14" class="node">
<title>Node14</title>
<g id="a_node14"><a xlink:title=" ">
<polygon fill="#e0e0e0" stroke="#999999" points="926.62,-240.25 840.88,-240.25 840.88,-221 926.62,-221 926.62,-240.25"/>
<text text-anchor="middle" x="883.75" y="-226.75" font-family="Helvetica,sans-Serif" font-size="10.00">arrays/eh_vec.h</text>
</a>
</g>
</g>
<!-- Node2&#45;&gt;Node14 -->
<g id="edge18" class="edge">
<title>Node2&#45;&gt;Node14</title>
<path fill="none" stroke="#63b8ff" d="M854.53,-276.08C859.21,-268.96 865.97,-258.68 871.81,-249.8"/>
<polygon fill="#63b8ff" stroke="#63b8ff" points="875.28,-251.89 877.84,-241.61 869.43,-248.04 875.28,-251.89"/>
</g>
<!-- Node15 -->
<g id="node15" class="node">
<title>Node15</title>
<g id="a_node15"><a xlink:title=" ">
<polygon fill="#e0e0e0" stroke="#999999" points="1074.62,-240.25 982.88,-240.25 982.88,-221 1074.62,-221 1074.62,-240.25"/>
<text text-anchor="middle" x="1028.75" y="-226.75" font-family="Helvetica,sans-Serif" font-size="10.00">arrays/tensor3d.h</text>
</a>
</g>
</g>
<!-- Node2&#45;&gt;Node15 -->
<g id="edge19" class="edge">
<title>Node2&#45;&gt;Node15</title>
<path fill="none" stroke="#63b8ff" d="M870.11,-278.56C899.01,-270.01 951.16,-254.58 987.76,-243.75"/>
<polygon fill="#63b8ff" stroke="#63b8ff" points="988.51,-246.88 997.11,-240.69 986.53,-240.17 988.51,-246.88"/>
</g>
<!-- Node16 -->
<g id="node16" class="node">
<title>Node16</title>
<g id="a_node16"><a xlink:href="cell__coordinate_8h.html" target="_top" xlink:title="Container for {ijk} or {IJK} grouped variables.">
<polygon fill="white" stroke="#666666" points="89.5,-129.75 0,-129.75 0,-110.5 89.5,-110.5 89.5,-129.75"/>
<text text-anchor="middle" x="44.75" y="-116.25" font-family="Helvetica,sans-Serif" font-size="10.00">cell_coordinate.h</text>
</a>
</g>
</g>
<!-- Node2&#45;&gt;Node16 -->
<g id="edge20" class="edge">
<title>Node2&#45;&gt;Node16</title>
<path fill="none" stroke="#63b8ff" d="M827.45,-282.91C774.22,-277.8 631.28,-262.92 513.75,-240.25 353.49,-209.33 166.37,-156.73 85.45,-133.17"/>
<polygon fill="#63b8ff" stroke="#63b8ff" points="86.78,-129.62 76.2,-130.17 84.82,-136.34 86.78,-129.62"/>
</g>
<!-- Node18 -->
<g id="node18" class="node">
<title>Node18</title>
<g id="a_node18"><a xlink:href="dimensions_8h.html" target="_top" xlink:title="Defines a class that serves as an explicit converter between MATLAB pointers and array dimensions.">
<polygon fill="white" stroke="#666666" points="1067.62,-185 993.88,-185 993.88,-165.75 1067.62,-165.75 1067.62,-185"/>
<text text-anchor="middle" x="1030.75" y="-171.5" font-family="Helvetica,sans-Serif" font-size="10.00">dimensions.h</text>
</a>
</g>
</g>
<!-- Node2&#45;&gt;Node18 -->
<g id="edge23" class="edge">
<title>Node2&#45;&gt;Node18</title>
<path fill="none" stroke="#63b8ff" d="M868.11,-275.76C885.97,-267.16 913.09,-253.62 935.75,-240.25 961.96,-224.79 990.81,-204.97 1009.76,-191.54"/>
<polygon fill="#63b8ff" stroke="#63b8ff" points="1011.35,-193.99 1017.45,-185.33 1007.28,-188.29 1011.35,-193.99"/>
</g>
<!-- Node2&#45;&gt;Node19 -->
<g id="edge35" class="edge">
<title>Node2&#45;&gt;Node19</title>
<path fill="none" stroke="#63b8ff" d="M870.17,-284.15C922.89,-281.89 1056.67,-272.96 1083.75,-240.25 1126.19,-188.99 1051.83,-113.83 1014.82,-81.55"/>
<polygon fill="#63b8ff" stroke="#63b8ff" points="1017.6,-78.47 1007.72,-74.65 1013.06,-83.8 1017.6,-78.47"/>
</g>
<!-- Node23 -->
<g id="node23" class="node">
<title>Node23</title>
<g id="a_node23"><a xlink:href="input__flags_8h.html" target="_top" xlink:title="Organises enumerated constants, names, and classes for handling flag&#45;variables that are passed to TDM...">
<polygon fill="white" stroke="#666666" points="217.5,-129.75 146,-129.75 146,-110.5 217.5,-110.5 217.5,-129.75"/>
<text text-anchor="middle" x="181.75" y="-116.25" font-family="Helvetica,sans-Serif" font-size="10.00">input_flags.h</text>
</a>
</g>
</g>
<!-- Node2&#45;&gt;Node23 -->
<g id="edge28" class="edge">
<title>Node2&#45;&gt;Node23</title>
<path fill="none" stroke="#63b8ff" d="M827.18,-281.98C782.67,-275.82 677.55,-260.33 590.75,-240.25 451.96,-208.14 290.49,-156.91 219.03,-133.51"/>
<polygon fill="#63b8ff" stroke="#63b8ff" points="220.35,-129.93 209.75,-130.14 218.16,-136.58 220.35,-129.93"/>
</g>
<!-- Node24 -->
<g id="node24" class="node">
<title>Node24</title>
<g id="a_node24"><a xlink:href="simulation__parameters_8h.html" target="_top" xlink:title="Classes collecting parameters for the simulation.">
<polygon fill="white" stroke="#666666" points="785,-240.25 662.5,-240.25 662.5,-221 785,-221 785,-240.25"/>
<text text-anchor="middle" x="723.75" y="-226.75" font-family="Helvetica,sans-Serif" font-size="10.00">simulation_parameters.h</text>
</a>
</g>
</g>
<!-- Node2&#45;&gt;Node24 -->
<g id="edge36" class="edge">
<title>Node2&#45;&gt;Node24</title>
<path fill="none" stroke="#63b8ff" d="M827.55,-275.84C807.61,-267.35 777.54,-254.54 754.88,-244.89"/>
<polygon fill="#63b8ff" stroke="#63b8ff" points="756.63,-241.4 746.06,-240.7 753.89,-247.84 756.63,-241.4"/>
</g>
<!-- Node4&#45;&gt;Node3 -->
<g id="edge4" class="edge">
<title>Node4&#45;&gt;Node3</title>
<path fill="none" stroke="#63b8ff" d="M487.71,-171.14C501.15,-169.49 517.82,-167.47 532.75,-165.75 606.03,-157.3 806.1,-177 862.75,-129.75 875.52,-119.1 879.94,-100.27 881.36,-85.8"/>
<polygon fill="#63b8ff" stroke="#63b8ff" points="884.9,-86.13 881.97,-75.96 877.91,-85.74 884.9,-86.13"/>
</g>
<!-- Node5 -->
<g id="node5" class="node">
<title>Node5</title>
<g id="a_node5"><a xlink:title=" ">
<polygon fill="#e0e0e0" stroke="#999999" points="164.12,-74.5 105.38,-74.5 105.38,-55.25 164.12,-55.25 164.12,-74.5"/>
<text text-anchor="middle" x="134.75" y="-61" font-family="Helvetica,sans-Serif" font-size="10.00">stdexcept</text>
</a>
</g>
</g>
<!-- Node4&#45;&gt;Node5 -->
<g id="edge5" class="edge">
<title>Node4&#45;&gt;Node5</title>
<path fill="none" stroke="#63b8ff" d="M435.68,-174.9C365.7,-175.71 176.33,-173.72 136.75,-129.75 126.08,-117.9 126.76,-99.21 129.41,-85.11"/>
<polygon fill="#63b8ff" stroke="#63b8ff" points="133,-86.13 131.89,-75.59 126.19,-84.52 133,-86.13"/>
</g>
<!-- Node6 -->
<g id="node6" class="node">
<title>Node6</title>
<g id="a_node6"><a xlink:title=" ">
<polygon fill="#e0e0e0" stroke="#999999" points="632.75,-74.5 592.75,-74.5 592.75,-55.25 632.75,-55.25 632.75,-74.5"/>
<text text-anchor="middle" x="612.75" y="-61" font-family="Helvetica,sans-Serif" font-size="10.00">string</text>
</a>
</g>
</g>
<!-- Node4&#45;&gt;Node6 -->
<g id="edge6" class="edge">
<title>Node4&#45;&gt;Node6</title>
<path fill="none" stroke="#63b8ff" d="M465.88,-165.32C472.51,-151.71 486.71,-125.94 505.75,-110.5 528.19,-92.31 559.09,-80.49 581.92,-73.61"/>
<polygon fill="#63b8ff" stroke="#63b8ff" points="582.75,-76.73 591.41,-70.63 580.83,-70 582.75,-76.73"/>
</g>
<!-- Node7 -->
<g id="node7" class="node">
<title>Node7</title>
<g id="a_node7"><a xlink:title=" ">
<polygon fill="#e0e0e0" stroke="#999999" points="413.25,-74.5 370.25,-74.5 370.25,-55.25 413.25,-55.25 413.25,-74.5"/>
<text text-anchor="middle" x="391.75" y="-61" font-family="Helvetica,sans-Serif" font-size="10.00">vector</text>
</a>
</g>
</g>
<!-- Node4&#45;&gt;Node7 -->
<g id="edge7" class="edge">
<title>Node4&#45;&gt;Node7</title>
<path fill="none" stroke="#63b8ff" d="M443.93,-165.34C430.71,-157.68 413.38,-145.45 403.75,-129.75 395.62,-116.5 392.76,-99 391.86,-85.67"/>
<polygon fill="#63b8ff" stroke="#63b8ff" points="395.33,-85.72 391.49,-75.84 388.33,-85.96 395.33,-85.72"/>
</g>
<!-- Node8 -->
<g id="node8" class="node">
<title>Node8</title>
<g id="a_node8"><a xlink:title=" ">
<polygon fill="#e0e0e0" stroke="#999999" points="458.75,-129.75 412.75,-129.75 412.75,-110.5 458.75,-110.5 458.75,-129.75"/>
<text text-anchor="middle" x="435.75" y="-116.25" font-family="Helvetica,sans-Serif" font-size="10.00">fftw3.h</text>
</a>
</g>
</g>
<!-- Node4&#45;&gt;Node8 -->
<g id="edge8" class="edge">
<title>Node4&#45;&gt;Node8</title>
<path fill="none" stroke="#63b8ff" d="M457.46,-165.58C454.05,-158.61 449.17,-148.62 444.9,-139.87"/>
<polygon fill="#63b8ff" stroke="#63b8ff" points="447.67,-138.56 440.14,-131.11 441.38,-141.63 447.67,-138.56"/>
</g>
<!-- Node9 -->
<g id="node9" class="node">
<title>Node9</title>
<g id="a_node9"><a xlink:href="globals_8h.html" target="_top" xlink:title="Type definitions and global constants.">
<polygon fill="white" stroke="#666666" points="853.25,-129.75 798.25,-129.75 798.25,-110.5 853.25,-110.5 853.25,-129.75"/>
<text text-anchor="middle" x="825.75" y="-116.25" font-family="Helvetica,sans-Serif" font-size="10.00">globals.h</text>
</a>
</g>
</g>
<!-- Node4&#45;&gt;Node9 -->
<g id="edge9" class="edge">
<title>Node4&#45;&gt;Node9</title>
<path fill="none" stroke="#63b8ff" d="M487.74,-171.18C551.37,-163.31 714.55,-142.79 787.42,-129.99"/>
<polygon fill="#63b8ff" stroke="#63b8ff" points="787.69,-133.32 796.9,-128.09 786.44,-126.43 787.69,-133.32"/>
</g>
<!-- Node10 -->
<g id="node10" class="node">
<title>Node10</title>
<g id="a_node10"><a xlink:title=" ">
<polygon fill="#e0e0e0" stroke="#999999" points="296.25,-129.75 235.25,-129.75 235.25,-110.5 296.25,-110.5 296.25,-129.75"/>
<text text-anchor="middle" x="265.75" y="-116.25" font-family="Helvetica,sans-Serif" font-size="10.00">matlabio.h</text>
</a>
</g>
</g>
<!-- Node4&#45;&gt;Node10 -->
<g id="edge12" class="edge">
<title>Node4&#45;&gt;Node10</title>
<path fill="none" stroke="#63b8ff" d="M435.72,-167.3C402.88,-158.38 346.02,-142.93 307.18,-132.38"/>
<polygon fill="#63b8ff" stroke="#63b8ff" points="308.3,-128.79 297.74,-129.54 306.47,-135.54 308.3,-128.79"/>
</g>
<!-- Node11 -->
<g id="node11" class="node">
<title>Node11</title>
<g id="a_node11"><a xlink:href="utils_8h.html" target="_top" xlink:title="Useful miscellaneous utility functions.">
<polygon fill="white" stroke="#666666" points="356.88,-129.75 314.62,-129.75 314.62,-110.5 356.88,-110.5 356.88,-129.75"/>
<text text-anchor="middle" x="335.75" y="-116.25" font-family="Helvetica,sans-Serif" font-size="10.00">utils.h</text>
</a>
</g>
</g>
<!-- Node4&#45;&gt;Node11 -->
<g id="edge13" class="edge">
<title>Node4&#45;&gt;Node11</title>
<path fill="none" stroke="#63b8ff" d="M440.38,-165.34C420.28,-156.85 389.97,-144.04 367.13,-134.39"/>
<polygon fill="#63b8ff" stroke="#63b8ff" points="368.8,-130.87 358.23,-130.2 366.08,-137.32 368.8,-130.87"/>
</g>
<!-- Node9&#45;&gt;Node3 -->
<g id="edge10" class="edge">
<title>Node9&#45;&gt;Node3</title>
<path fill="none" stroke="#63b8ff" d="M835.25,-110.09C843.26,-102.47 854.93,-91.37 864.58,-82.2"/>
<polygon fill="#63b8ff" stroke="#63b8ff" points="866.56,-85.2 871.39,-75.77 861.73,-80.13 866.56,-85.2"/>
</g>
<!-- Node9&#45;&gt;Node6 -->
<g id="edge11" class="edge">
<title>Node9&#45;&gt;Node6</title>
<path fill="none" stroke="#63b8ff" d="M797.9,-112.16C758.03,-102.2 684.93,-83.92 643.51,-73.56"/>
<polygon fill="#63b8ff" stroke="#63b8ff" points="644.51,-69.96 633.96,-70.93 642.82,-76.75 644.51,-69.96"/>
</g>
<!-- Node11&#45;&gt;Node6 -->
<g id="edge16" class="edge">
<title>Node11&#45;&gt;Node6</title>
<path fill="none" stroke="#63b8ff" d="M357.03,-115.03C405.72,-105.67 525.43,-82.66 582.08,-71.77"/>
<polygon fill="#63b8ff" stroke="#63b8ff" points="582.37,-75.09 591.53,-69.76 581.05,-68.21 582.37,-75.09"/>
</g>
<!-- Node11&#45;&gt;Node7 -->
<g id="edge17" class="edge">
<title>Node11&#45;&gt;Node7</title>
<path fill="none" stroke="#63b8ff" d="M345.25,-110.09C353.26,-102.47 364.93,-91.37 374.58,-82.2"/>
<polygon fill="#63b8ff" stroke="#63b8ff" points="376.56,-85.2 381.39,-75.77 371.73,-80.13 376.56,-85.2"/>
</g>
<!-- Node12 -->
<g id="node12" class="node">
<title>Node12</title>
<g id="a_node12"><a xlink:title=" ">
<polygon fill="#e0e0e0" stroke="#999999" points="237.62,-74.5 181.88,-74.5 181.88,-55.25 237.62,-55.25 237.62,-74.5"/>
<text text-anchor="middle" x="209.75" y="-61" font-family="Helvetica,sans-Serif" font-size="10.00">algorithm</text>
</a>
</g>
</g>
<!-- Node11&#45;&gt;Node12 -->
<g id="edge14" class="edge">
<title>Node11&#45;&gt;Node12</title>
<path fill="none" stroke="#63b8ff" d="M314.38,-110.09C294.28,-101.6 263.97,-88.79 241.13,-79.14"/>
<polygon fill="#63b8ff" stroke="#63b8ff" points="242.8,-75.62 232.23,-74.95 240.08,-82.07 242.8,-75.62"/>
</g>
<!-- Node13 -->
<g id="node13" class="node">
<title>Node13</title>
<g id="a_node13"><a xlink:title=" ">
<polygon fill="#e0e0e0" stroke="#999999" points="351.75,-74.5 305.75,-74.5 305.75,-55.25 351.75,-55.25 351.75,-74.5"/>
<text text-anchor="middle" x="328.75" y="-61" font-family="Helvetica,sans-Serif" font-size="10.00">iterator</text>
</a>
</g>
</g>
<!-- Node11&#45;&gt;Node13 -->
<g id="edge15" class="edge">
<title>Node11&#45;&gt;Node13</title>
<path fill="none" stroke="#63b8ff" d="M334.59,-110.33C333.71,-103.59 332.45,-94.02 331.33,-85.49"/>
<polygon fill="#63b8ff" stroke="#63b8ff" points="334.7,-85.32 329.93,-75.86 327.76,-86.23 334.7,-85.32"/>
</g>
<!-- Node16&#45;&gt;Node12 -->
<g id="edge22" class="edge">
<title>Node16&#45;&gt;Node12</title>
<path fill="none" stroke="#63b8ff" d="M72.74,-110.09C99.88,-101.33 141.27,-87.98 171.45,-78.23"/>
<polygon fill="#63b8ff" stroke="#63b8ff" points="172.18,-81.35 180.62,-74.95 170.03,-74.69 172.18,-81.35"/>
</g>
<!-- Node17 -->
<g id="node17" class="node">
<title>Node17</title>
<g id="a_node17"><a xlink:title=" ">
<polygon fill="#e0e0e0" stroke="#999999" points="86.88,-74.5 2.62,-74.5 2.62,-55.25 86.88,-55.25 86.88,-74.5"/>
<text text-anchor="middle" x="44.75" y="-61" font-family="Helvetica,sans-Serif" font-size="10.00">spdlog/spdlog.h</text>
</a>
</g>
</g>
<!-- Node16&#45;&gt;Node17 -->
<g id="edge21" class="edge">
<title>Node16&#45;&gt;Node17</title>
<path fill="none" stroke="#63b8ff" d="M44.75,-110.33C44.75,-103.67 44.75,-94.24 44.75,-85.78"/>
<polygon fill="#63b8ff" stroke="#63b8ff" points="48.25,-85.86 44.75,-75.86 41.25,-85.86 48.25,-85.86"/>
</g>
<!-- Node18&#45;&gt;Node19 -->
<g id="edge24" class="edge">
<title>Node18&#45;&gt;Node19</title>
<path fill="none" stroke="#63b8ff" d="M1027.89,-165.5C1022.25,-148.01 1009.59,-108.77 1001.95,-85.09"/>
<polygon fill="#63b8ff" stroke="#63b8ff" points="1005.05,-84.32 998.65,-75.88 998.39,-86.47 1005.05,-84.32"/>
</g>
<!-- Node20 -->
<g id="node20" class="node">
<title>Node20</title>
<g id="a_node20"><a xlink:title=" ">
<polygon fill="#e0e0e0" stroke="#999999" points="952.12,-19.25 911.38,-19.25 911.38,0 952.12,0 952.12,-19.25"/>
<text text-anchor="middle" x="931.75" y="-5.75" font-family="Helvetica,sans-Serif" font-size="10.00">mat.h</text>
</a>
</g>
</g>
<!-- Node19&#45;&gt;Node20 -->
<g id="edge25" class="edge">
<title>Node19&#45;&gt;Node20</title>
<path fill="none" stroke="#63b8ff" d="M984.89,-54.84C975.55,-47.07 961.86,-35.67 950.71,-26.4"/>
<polygon fill="#63b8ff" stroke="#63b8ff" points="953.37,-23.23 943.45,-19.52 948.89,-28.61 953.37,-23.23"/>
</g>
<!-- Node21 -->
<g id="node21" class="node">
<title>Node21</title>
<g id="a_node21"><a xlink:title=" ">
<polygon fill="#e0e0e0" stroke="#999999" points="1021.38,-19.25 970.12,-19.25 970.12,0 1021.38,0 1021.38,-19.25"/>
<text text-anchor="middle" x="995.75" y="-5.75" font-family="Helvetica,sans-Serif" font-size="10.00">matrix.h</text>
</a>
</g>
</g>
<!-- Node19&#45;&gt;Node21 -->
<g id="edge26" class="edge">
<title>Node19&#45;&gt;Node21</title>
<path fill="none" stroke="#63b8ff" d="M995.75,-55.08C995.75,-48.42 995.75,-38.99 995.75,-30.53"/>
<polygon fill="#63b8ff" stroke="#63b8ff" points="999.25,-30.61 995.75,-20.61 992.25,-30.61 999.25,-30.61"/>
</g>
<!-- Node22 -->
<g id="node22" class="node">
<title>Node22</title>
<g id="a_node22"><a xlink:title=" ">
<polygon fill="#e0e0e0" stroke="#999999" points="1082.25,-19.25 1039.25,-19.25 1039.25,0 1082.25,0 1082.25,-19.25"/>
<text text-anchor="middle" x="1060.75" y="-5.75" font-family="Helvetica,sans-Serif" font-size="10.00">mex.h</text>
</a>
</g>
</g>
<!-- Node19&#45;&gt;Node22 -->
<g id="edge27" class="edge">
<title>Node19&#45;&gt;Node22</title>
<path fill="none" stroke="#63b8ff" d="M1006.78,-54.84C1016.26,-47.07 1030.17,-35.67 1041.5,-26.4"/>
<polygon fill="#63b8ff" stroke="#63b8ff" points="1043.37,-28.57 1048.89,-19.52 1038.93,-23.15 1043.37,-28.57"/>
</g>
<!-- Node23&#45;&gt;Node5 -->
<g id="edge30" class="edge">
<title>Node23&#45;&gt;Node5</title>
<path fill="none" stroke="#63b8ff" d="M173.99,-110.33C167.43,-102.9 157.84,-92.04 149.79,-82.91"/>
<polygon fill="#63b8ff" stroke="#63b8ff" points="152.92,-81.04 143.68,-75.86 147.67,-85.67 152.92,-81.04"/>
</g>
<!-- Node23&#45;&gt;Node6 -->
<g id="edge31" class="edge">
<title>Node23&#45;&gt;Node6</title>
<path fill="none" stroke="#63b8ff" d="M217.73,-111.83C220.44,-111.36 223.13,-110.91 225.75,-110.5 357.51,-90.02 515.87,-74.62 581.7,-68.62"/>
<polygon fill="#63b8ff" stroke="#63b8ff" points="581.89,-72.03 591.53,-67.64 581.26,-65.05 581.89,-72.03"/>
</g>
<!-- Node23&#45;&gt;Node7 -->
<g id="edge32" class="edge">
<title>Node23&#45;&gt;Node7</title>
<path fill="none" stroke="#63b8ff" d="M217.82,-110.44C251.83,-102.18 304.49,-89.22 359.16,-74.86"/>
<polygon fill="#63b8ff" stroke="#63b8ff" points="359.98,-78.01 368.75,-72.07 358.19,-71.24 359.98,-78.01"/>
</g>
<!-- Node23&#45;&gt;Node12 -->
<g id="edge29" class="edge">
<title>Node23&#45;&gt;Node12</title>
<path fill="none" stroke="#63b8ff" d="M186.37,-110.33C190.08,-103.28 195.41,-93.15 200.04,-84.33"/>
<polygon fill="#63b8ff" stroke="#63b8ff" points="203.47,-86.34 205.03,-75.86 197.27,-83.08 203.47,-86.34"/>
</g>
<!-- Node23&#45;&gt;Node17 -->
<g id="edge33" class="edge">
<title>Node23&#45;&gt;Node17</title>
<path fill="none" stroke="#63b8ff" d="M158.51,-110.09C136.47,-101.52 103.1,-88.56 78.2,-78.88"/>
<polygon fill="#63b8ff" stroke="#63b8ff" points="79.69,-75.31 69.1,-74.95 77.16,-81.84 79.69,-75.31"/>
</g>
<!-- Node23&#45;&gt;Node19 -->
<g id="edge34" class="edge">
<title>Node23&#45;&gt;Node19</title>
<path fill="none" stroke="#63b8ff" d="M217.7,-111.65C220.42,-111.21 223.12,-110.82 225.75,-110.5 530.96,-72.83 610.22,-99.2 916.75,-74.5 930.29,-73.41 945.09,-71.88 958.19,-70.42"/>
<polygon fill="#63b8ff" stroke="#63b8ff" points="958.19,-73.82 967.73,-69.21 957.4,-66.87 958.19,-73.82"/>
</g>
<!-- Node24&#45;&gt;Node4 -->
<g id="edge38" class="edge">
<title>Node24&#45;&gt;Node4</title>
<path fill="none" stroke="#63b8ff" d="M679.01,-220.53C628,-210.16 545.58,-193.41 498.27,-183.8"/>
<polygon fill="#63b8ff" stroke="#63b8ff" points="499.1,-180.19 488.61,-181.63 497.71,-187.05 499.1,-180.19"/>
</g>
<!-- Node24&#45;&gt;Node6 -->
<g id="edge37" class="edge">
<title>Node24&#45;&gt;Node6</title>
<path fill="none" stroke="#63b8ff" d="M750.83,-220.51C801.58,-202.04 902.43,-157.9 862.75,-110.5 835.16,-77.55 704.63,-68.91 643.93,-66.66"/>
<polygon fill="#63b8ff" stroke="#63b8ff" points="644.22,-63.13 634.11,-66.3 643.99,-70.13 644.22,-63.13"/>
</g>
<!-- Node25 -->
<g id="node25" class="node">
<title>Node25</title>
<g id="a_node25"><a xlink:title=" ">
<polygon fill="#e0e0e0" stroke="#999999" points="665.75,-185 541.75,-185 541.75,-165.75 665.75,-165.75 665.75,-185"/>
<text text-anchor="middle" x="603.75" y="-171.5" font-family="Helvetica,sans-Serif" font-size="10.00">arrays/vector_typedefs.h</text>
</a>
</g>
</g>
<!-- Node24&#45;&gt;Node25 -->
<g id="edge39" class="edge">
<title>Node24&#45;&gt;Node25</title>
<path fill="none" stroke="#63b8ff" d="M703.39,-220.59C684.43,-212.18 655.9,-199.52 634.23,-189.9"/>
<polygon fill="#63b8ff" stroke="#63b8ff" points="635.77,-186.31 625.21,-185.45 632.93,-192.71 635.77,-186.31"/>
</g>
<!-- Node26 -->
<g id="node26" class="node">
<title>Node26</title>
<g id="a_node26"><a xlink:href="input__matrices_8h.html" target="_top" xlink:title="Class handling the input matrices that are read in from the input file.">
<polygon fill="white" stroke="#666666" points="771.75,-185 683.75,-185 683.75,-165.75 771.75,-165.75 771.75,-185"/>
<text text-anchor="middle" x="727.75" y="-171.5" font-family="Helvetica,sans-Serif" font-size="10.00">input_matrices.h</text>
</a>
</g>
</g>
<!-- Node24&#45;&gt;Node26 -->
<g id="edge40" class="edge">
<title>Node24&#45;&gt;Node26</title>
<path fill="none" stroke="#63b8ff" d="M724.41,-220.83C724.91,-214.17 725.62,-204.74 726.25,-196.28"/>
<polygon fill="#63b8ff" stroke="#63b8ff" points="729.82,-196.59 727.08,-186.36 722.84,-196.07 729.82,-196.59"/>
</g>
<!-- Node26&#45;&gt;Node6 -->
<g id="edge41" class="edge">
<title>Node26&#45;&gt;Node6</title>
<path fill="none" stroke="#63b8ff" d="M716.25,-165.52C705.09,-156.77 687.82,-142.84 673.75,-129.75 657.36,-114.5 639.82,-95.86 627.78,-82.67"/>
<polygon fill="#63b8ff" stroke="#63b8ff" points="631.03,-80.94 621.72,-75.87 625.84,-85.64 631.03,-80.94"/>
</g>
<!-- Node26&#45;&gt;Node19 -->
<g id="edge45" class="edge">
<title>Node26&#45;&gt;Node19</title>
<path fill="none" stroke="#63b8ff" d="M772.16,-166.48C806.78,-159.41 855.55,-147.41 895.75,-129.75 925.41,-116.72 956.37,-95.59 975.83,-81.23"/>
<polygon fill="#63b8ff" stroke="#63b8ff" points="977.52,-83.6 983.41,-74.79 973.31,-78 977.52,-83.6"/>
</g>
<!-- Node27 -->
<g id="node27" class="node">
<title>Node27</title>
<g id="a_node27"><a xlink:href="input__output__names_8h.html" target="_top" xlink:title="Constant values associated with the format of the input and output files and matrices.">
<polygon fill="white" stroke="#666666" points="626.75,-129.75 514.75,-129.75 514.75,-110.5 626.75,-110.5 626.75,-129.75"/>
<text text-anchor="middle" x="570.75" y="-116.25" font-family="Helvetica,sans-Serif" font-size="10.00">input_output_names.h</text>
</a>
</g>
</g>
<!-- Node26&#45;&gt;Node27 -->
<g id="edge42" class="edge">
<title>Node26&#45;&gt;Node27</title>
<path fill="none" stroke="#63b8ff" d="M701.12,-165.34C675.4,-156.62 636.25,-143.34 607.57,-133.61"/>
<polygon fill="#63b8ff" stroke="#63b8ff" points="609.11,-130.1 598.51,-130.2 606.86,-136.73 609.11,-130.1"/>
</g>
<!-- Node28 -->
<g id="node28" class="node">
<title>Node28</title>
<g id="a_node28"><a xlink:href="matrix__collection_8h.html" target="_top" xlink:title="A collection of named MATLAB matrices.">
<polygon fill="white" stroke="#666666" points="780.62,-129.75 682.88,-129.75 682.88,-110.5 780.62,-110.5 780.62,-129.75"/>
<text text-anchor="middle" x="731.75" y="-116.25" font-family="Helvetica,sans-Serif" font-size="10.00">matrix_collection.h</text>
</a>
</g>
</g>
<!-- Node26&#45;&gt;Node28 -->
<g id="edge46" class="edge">
<title>Node26&#45;&gt;Node28</title>
<path fill="none" stroke="#63b8ff" d="M728.41,-165.58C728.91,-158.92 729.62,-149.49 730.25,-141.03"/>
<polygon fill="#63b8ff" stroke="#63b8ff" points="733.82,-141.34 731.08,-131.11 726.84,-140.82 733.82,-141.34"/>
</g>
<!-- Node27&#45;&gt;Node6 -->
<g id="edge43" class="edge">
<title>Node27&#45;&gt;Node6</title>
<path fill="none" stroke="#63b8ff" d="M577.69,-110.33C583.43,-103.05 591.76,-92.48 598.87,-83.48"/>
<polygon fill="#63b8ff" stroke="#63b8ff" points="602.22,-85.88 605.66,-75.86 596.72,-81.54 602.22,-85.88"/>
</g>
<!-- Node27&#45;&gt;Node7 -->
<g id="edge44" class="edge">
<title>Node27&#45;&gt;Node7</title>
<path fill="none" stroke="#63b8ff" d="M540.39,-110.09C508.03,-100.47 457.03,-85.29 423.98,-75.46"/>
<polygon fill="#63b8ff" stroke="#63b8ff" points="425.1,-71.85 414.51,-72.35 423.1,-78.56 425.1,-71.85"/>
</g>
<!-- Node28&#45;&gt;Node6 -->
<g id="edge47" class="edge">
<title>Node28&#45;&gt;Node6</title>
<path fill="none" stroke="#63b8ff" d="M711.56,-110.09C692.76,-101.68 664.47,-89.02 642.97,-79.4"/>
<polygon fill="#63b8ff" stroke="#63b8ff" points="644.59,-75.84 634.04,-74.95 641.73,-82.23 644.59,-75.84"/>
</g>
<!-- Node28&#45;&gt;Node7 -->
<g id="edge48" class="edge">
<title>Node28&#45;&gt;Node7</title>
<path fill="none" stroke="#63b8ff" d="M682.67,-111.44C612.19,-100.4 484.19,-80.35 424.3,-70.97"/>
<polygon fill="#63b8ff" stroke="#63b8ff" points="425.02,-67.39 414.6,-69.3 423.93,-74.3 425.02,-67.39"/>
</g>
<!-- Node28&#45;&gt;Node19 -->
<g id="edge49" class="edge">
<title>Node28&#45;&gt;Node19</title>
<path fill="none" stroke="#63b8ff" d="M776.83,-110.03C827.93,-99.72 910.31,-83.11 958.11,-73.47"/>
<polygon fill="#63b8ff" stroke="#63b8ff" points="958.51,-76.76 967.62,-71.35 957.12,-69.89 958.51,-76.76"/>
</g>
</g>
</svg>
