<?xml version="1.0" encoding="UTF-8" standalone="no"?>
<!DOCTYPE svg PUBLIC "-//W3C//DTD SVG 1.1//EN"
 "http://www.w3.org/Graphics/SVG/1.1/DTD/svg11.dtd">
<!-- Generated by graphviz version 8.0.5 (20230430.1635)
 -->
<!-- Title: tdms/include/arrays.h Pages: 1 -->
<svg width="500pt" height="282pt"
 viewBox="0.00 0.00 499.50 282.00" xmlns="http://www.w3.org/2000/svg" xmlns:xlink="http://www.w3.org/1999/xlink">
<g id="graph0" class="graph" transform="scale(1 1) rotate(0) translate(4 278)">
<title>tdms/include/arrays.h</title>
<!-- Node1 -->
<g id="node1" class="node">
<title>Node1</title>
<g id="a_node1"><a xlink:title="Classes describing arrays, vertices etc.">
<polygon fill="#999999" stroke="#666666" points="317,-274 207.25,-274 207.25,-254.75 317,-254.75 317,-274"/>
<text text-anchor="middle" x="262.12" y="-260.5" font-family="Helvetica,sans-Serif" font-size="10.00">tdms/include/arrays.h</text>
</a>
</g>
</g>
<!-- Node2 -->
<g id="node2" class="node">
<title>Node2</title>
<g id="a_node2"><a xlink:href="field_8h.html" target="_top" xlink:title="Classes for the electric and magnetic (split) fields on a grid.">
<polygon fill="white" stroke="#666666" points="368.5,-152.25 267.75,-152.25 267.75,-133 368.5,-133 368.5,-152.25"/>
<text text-anchor="middle" x="318.12" y="-138.75" font-family="Helvetica,sans-Serif" font-size="10.00">tdms/include/field.h</text>
</a>
</g>
</g>
<!-- Node1&#45;&gt;Node2 -->
<g id="edge1" class="edge">
<title>Node1&#45;&gt;Node2</title>
<path fill="none" stroke="#63b8ff" d="M270.93,-244.55C283.14,-218.44 304.74,-172.24 313.87,-152.73"/>
<polygon fill="#63b8ff" stroke="#63b8ff" points="267.4,-242.83 266.33,-253.37 273.74,-245.8 267.4,-242.83"/>
</g>
<!-- Node4 -->
<g id="node4" class="node">
<title>Node4</title>
<g id="a_node4"><a xlink:href="fieldsample_8h.html" target="_top" xlink:title="Class that stores the extracted field values at user&#45;defined vertices.">
<polygon fill="white" stroke="#666666" points="132.25,-91.38 0,-91.38 0,-72.12 132.25,-72.12 132.25,-91.38"/>
<text text-anchor="middle" x="66.12" y="-77.88" font-family="Helvetica,sans-Serif" font-size="10.00">tdms/include/fieldsample.h</text>
</a>
</g>
</g>
<!-- Node1&#45;&gt;Node4 -->
<g id="edge8" class="edge">
<title>Node1&#45;&gt;Node4</title>
<path fill="none" stroke="#63b8ff" d="M196.44,-251.78C172.73,-245.12 146.94,-234.77 127.12,-218.75 85.27,-184.91 71.16,-116.28 67.34,-91.73"/>
<polygon fill="#63b8ff" stroke="#63b8ff" points="195.25,-255.35 205.81,-254.5 197.03,-248.58 195.25,-255.35"/>
</g>
<!-- Node6 -->
<g id="node6" class="node">
<title>Node6</title>
<g id="a_node6"><a xlink:href="surface__phasors_8h.html" target="_top" xlink:title="Contains a class that handles the complex amplitude extraction.">
<polygon fill="white" stroke="#666666" points="491.5,-97 384.75,-97 384.75,-66.5 491.5,-66.5 491.5,-97"/>
<text text-anchor="start" x="392.75" y="-83.5" font-family="Helvetica,sans-Serif" font-size="10.00">tdms/include/surface</text>
<text text-anchor="middle" x="438.12" y="-72.25" font-family="Helvetica,sans-Serif" font-size="10.00">_phasors.h</text>
</a>
</g>
</g>
<!-- Node1&#45;&gt;Node6 -->
<g id="edge13" class="edge">
<title>Node1&#45;&gt;Node6</title>
<path fill="none" stroke="#63b8ff" d="M279.78,-247.16C302.74,-225.9 343.83,-187.18 377.12,-152.25 394.63,-133.89 413.76,-111.72 425.85,-97.43"/>
<polygon fill="#63b8ff" stroke="#63b8ff" points="277.9,-244.06 272.93,-253.41 282.65,-249.2 277.9,-244.06"/>
</g>
<!-- Node9 -->
<g id="node9" class="node">
<title>Node9</title>
<g id="a_node9"><a xlink:href="simulation__parameters_8h.html" target="_top" xlink:title="Classes collecting parameters for the simulation.">
<polygon fill="white" stroke="#666666" points="254.5,-218.75 135.75,-218.75 135.75,-188.25 254.5,-188.25 254.5,-218.75"/>
<text text-anchor="start" x="143.75" y="-205.25" font-family="Helvetica,sans-Serif" font-size="10.00">tdms/include/simulation</text>
<text text-anchor="middle" x="195.12" y="-194" font-family="Helvetica,sans-Serif" font-size="10.00">_parameters.h</text>
</a>
</g>
</g>
<!-- Node1&#45;&gt;Node9 -->
<g id="edge9" class="edge">
<title>Node1&#45;&gt;Node9</title>
<path fill="none" stroke="#63b8ff" d="M243.84,-247.31C233.79,-238.48 221.42,-227.61 211.66,-219.03"/>
<polygon fill="#63b8ff" stroke="#63b8ff" points="241.13,-250.46 250.95,-254.43 245.75,-245.2 241.13,-250.46"/>
</g>
<!-- Node3 -->
<g id="node3" class="node">
<title>Node3</title>
<g id="a_node3"><a xlink:href="array__init_8h.html" target="_top" xlink:title="A collection of functions for array initialisation given MATLAB pointers.">
<polygon fill="white" stroke="#666666" points="366.25,-97 270,-97 270,-66.5 366.25,-66.5 366.25,-97"/>
<text text-anchor="start" x="278" y="-83.5" font-family="Helvetica,sans-Serif" font-size="10.00">tdms/include/array</text>
<text text-anchor="middle" x="318.12" y="-72.25" font-family="Helvetica,sans-Serif" font-size="10.00">_init.h</text>
</a>
</g>
</g>
<!-- Node2&#45;&gt;Node3 -->
<g id="edge2" class="edge">
<title>Node2&#45;&gt;Node3</title>
<path fill="none" stroke="#63b8ff" d="M318.12,-121.7C318.12,-113.7 318.12,-104.65 318.12,-97.28"/>
<polygon fill="#63b8ff" stroke="#63b8ff" points="314.63,-121.68 318.12,-131.68 321.63,-121.68 314.63,-121.68"/>
</g>
<!-- Node2&#45;&gt;Node4 -->
<g id="edge3" class="edge">
<title>Node2&#45;&gt;Node4</title>
<path fill="none" stroke="#63b8ff" d="M268.86,-130.11C220.92,-118.91 149.04,-102.12 104.99,-91.83"/>
<polygon fill="#63b8ff" stroke="#63b8ff" points="267.77,-133.69 278.3,-132.55 269.36,-126.87 267.77,-133.69"/>
</g>
<!-- Node2&#45;&gt;Node6 -->
<g id="edge5" class="edge">
<title>Node2&#45;&gt;Node6</title>
<path fill="none" stroke="#63b8ff" d="M346.28,-127.81C364.88,-118.69 389.22,-106.74 408.17,-97.44"/>
<polygon fill="#63b8ff" stroke="#63b8ff" points="345.05,-125.01 337.61,-132.55 348.13,-131.29 345.05,-125.01"/>
</g>
<!-- Node7 -->
<g id="node7" class="node">
<title>Node7</title>
<g id="a_node7"><a xlink:href="vertex__phasors_8h.html" target="_top" xlink:title="Contains a class that handles the complex amplitude extraction at the vertices.">
<polygon fill="white" stroke="#666666" points="251.88,-97 150.38,-97 150.38,-66.5 251.88,-66.5 251.88,-97"/>
<text text-anchor="start" x="158.38" y="-83.5" font-family="Helvetica,sans-Serif" font-size="10.00">tdms/include/vertex</text>
<text text-anchor="middle" x="201.12" y="-72.25" font-family="Helvetica,sans-Serif" font-size="10.00">_phasors.h</text>
</a>
</g>
</g>
<!-- Node2&#45;&gt;Node7 -->
<g id="edge6" class="edge">
<title>Node2&#45;&gt;Node7</title>
<path fill="none" stroke="#63b8ff" d="M290.42,-127.68C272.32,-118.58 248.72,-106.7 230.33,-97.44"/>
<polygon fill="#63b8ff" stroke="#63b8ff" points="288.59,-131.19 299.1,-132.55 291.74,-124.93 288.59,-131.19"/>
</g>
<!-- Node5 -->
<g id="node5" class="node">
<title>Node5</title>
<g id="a_node5"><a xlink:href="test___field_sample_8cpp.html" target="_top" xlink:title="Unit tests for the FieldSample class and its subclasses.">
<polygon fill="white" stroke="#666666" points="116.5,-30.5 15.75,-30.5 15.75,0 116.5,0 116.5,-30.5"/>
<text text-anchor="start" x="23.75" y="-17" font-family="Helvetica,sans-Serif" font-size="10.00">tdms/tests/unit/test</text>
<text text-anchor="middle" x="66.12" y="-5.75" font-family="Helvetica,sans-Serif" font-size="10.00">_FieldSample.cpp</text>
</a>
</g>
</g>
<!-- Node4&#45;&gt;Node5 -->
<g id="edge4" class="edge">
<title>Node4&#45;&gt;Node5</title>
<path fill="none" stroke="#63b8ff" d="M66.12,-61.02C66.12,-51.2 66.12,-39.55 66.12,-30.59"/>
<polygon fill="#63b8ff" stroke="#63b8ff" points="62.63,-60.78 66.12,-70.78 69.63,-60.78 62.63,-60.78"/>
</g>
<!-- Node8 -->
<g id="node8" class="node">
<title>Node8</title>
<g id="a_node8"><a xlink:href="test___vertex_phasors_8cpp.html" target="_top" xlink:title="Unit tests for the VertexPhasors class.">
<polygon fill="white" stroke="#666666" points="253.38,-30.5 148.88,-30.5 148.88,0 253.38,0 253.38,-30.5"/>
<text text-anchor="start" x="156.88" y="-17" font-family="Helvetica,sans-Serif" font-size="10.00">tdms/tests/unit/test</text>
<text text-anchor="middle" x="201.12" y="-5.75" font-family="Helvetica,sans-Serif" font-size="10.00">_VertexPhasors.cpp</text>
</a>
</g>
</g>
<!-- Node7&#45;&gt;Node8 -->
<g id="edge7" class="edge">
<title>Node7&#45;&gt;Node8</title>
<path fill="none" stroke="#63b8ff" d="M201.12,-55.38C201.12,-47.05 201.12,-38.08 201.12,-30.83"/>
<polygon fill="#63b8ff" stroke="#63b8ff" points="197.63,-55.11 201.12,-65.11 204.63,-55.11 197.63,-55.11"/>
</g>
<!-- Node9&#45;&gt;Node2 -->
<g id="edge10" class="edge">
<title>Node9&#45;&gt;Node2</title>
<path fill="none" stroke="#63b8ff" d="M235.69,-183.08C257.12,-172.83 282.4,-160.72 299.26,-152.65"/>
<polygon fill="#63b8ff" stroke="#63b8ff" points="234.35,-180.32 226.85,-187.8 237.38,-186.63 234.35,-180.32"/>
</g>
<!-- Node9&#45;&gt;Node4 -->
<g id="edge11" class="edge">
<title>Node9&#45;&gt;Node4</title>
<path fill="none" stroke="#63b8ff" d="M150.54,-182.84C135.58,-174.82 119.56,-164.51 107.12,-152.25 88.77,-134.15 75.62,-106.17 69.67,-91.86"/>
<polygon fill="#63b8ff" stroke="#63b8ff" points="148.67,-186.33 159.17,-187.78 151.87,-180.1 148.67,-186.33"/>
</g>
<!-- Node10 -->
<g id="node10" class="node">
<title>Node10</title>
<g id="a_node10"><a xlink:href="mesh__base_8h.html" target="_top" xlink:title="Generation of orientated mesh.">
<polygon fill="white" stroke="#666666" points="249.62,-152.25 116.62,-152.25 116.62,-133 249.62,-133 249.62,-152.25"/>
<text text-anchor="middle" x="183.12" y="-138.75" font-family="Helvetica,sans-Serif" font-size="10.00">tdms/include/mesh_base.h</text>
</a>
</g>
</g>
<!-- Node9&#45;&gt;Node10 -->
<g id="edge12" class="edge">
<title>Node9&#45;&gt;Node10</title>
<path fill="none" stroke="#63b8ff" d="M190,-177.36C188.21,-168.59 186.32,-159.31 184.97,-152.7"/>
<polygon fill="#63b8ff" stroke="#63b8ff" points="186.73,-177.85 192.16,-186.95 193.59,-176.45 186.73,-177.85"/>
</g>
</g>
</svg>
