<?xml version="1.0" encoding="UTF-8" standalone="no"?>
<!DOCTYPE svg PUBLIC "-//W3C//DTD SVG 1.1//EN"
 "http://www.w3.org/Graphics/SVG/1.1/DTD/svg11.dtd">
<!-- Generated by graphviz version 8.0.5 (20230430.1635)
 -->
<!-- Title: tdms/include/array_init.h Pages: 1 -->
<svg width="1227pt" height="370pt"
 viewBox="0.00 0.00 1227.38 370.00" xmlns="http://www.w3.org/2000/svg" xmlns:xlink="http://www.w3.org/1999/xlink">
<g id="graph0" class="graph" transform="scale(1 1) rotate(0) translate(4 366)">
<title>tdms/include/array_init.h</title>
<!-- Node1 -->
<g id="node1" class="node">
<title>Node1</title>
<g id="a_node1"><a xlink:title="A collection of functions for array initialisation given MATLAB pointers.">
<polygon fill="#999999" stroke="#666666" points="1123.5,-362 1027.25,-362 1027.25,-331.5 1123.5,-331.5 1123.5,-362"/>
<text text-anchor="start" x="1035.25" y="-348.5" font-family="Helvetica,sans-Serif" font-size="10.00">tdms/include/array</text>
<text text-anchor="middle" x="1075.38" y="-337.25" font-family="Helvetica,sans-Serif" font-size="10.00">_init.h</text>
</a>
</g>
</g>
<!-- Node2 -->
<g id="node2" class="node">
<title>Node2</title>
<g id="a_node2"><a xlink:href="field_8h.html" target="_top" xlink:title="Classes for the electric and magnetic (split) fields on a grid.">
<polygon fill="white" stroke="#666666" points="1001.5,-295.5 959.25,-295.5 959.25,-276.25 1001.5,-276.25 1001.5,-295.5"/>
<text text-anchor="middle" x="980.38" y="-282" font-family="Helvetica,sans-Serif" font-size="10.00">field.h</text>
</a>
</g>
</g>
<!-- Node1&#45;&gt;Node2 -->
<g id="edge1" class="edge">
<title>Node1&#45;&gt;Node2</title>
<path fill="none" stroke="#63b8ff" d="M1051.89,-331.2C1037.29,-322.15 1018.57,-310.55 1003.95,-301.49"/>
<polygon fill="#63b8ff" stroke="#63b8ff" points="1006.36,-298.24 996.02,-295.95 1002.68,-304.19 1006.36,-298.24"/>
</g>
<!-- Node16 -->
<g id="node16" class="node">
<title>Node16</title>
<g id="a_node16"><a xlink:href="mat__io_8h.html" target="_top" xlink:title="Includes MATLAB headers for I/O.">
<polygon fill="white" stroke="#666666" points="1063.12,-74.5 1009.62,-74.5 1009.62,-55.25 1063.12,-55.25 1063.12,-74.5"/>
<text text-anchor="middle" x="1036.38" y="-61" font-family="Helvetica,sans-Serif" font-size="10.00">mat_io.h</text>
</a>
</g>
</g>
<!-- Node1&#45;&gt;Node16 -->
<g id="edge44" class="edge">
<title>Node1&#45;&gt;Node16</title>
<path fill="none" stroke="#63b8ff" d="M1121.33,-331.02C1163.48,-314.29 1219.38,-282.5 1219.38,-231.62 1219.38,-231.62 1219.38,-231.62 1219.38,-174.38 1219.38,-107.48 1127.78,-80.93 1074.19,-71.12"/>
<polygon fill="#63b8ff" stroke="#63b8ff" points="1074.82,-67.51 1064.38,-69.28 1073.64,-74.41 1074.82,-67.51"/>
</g>
<!-- Node3 -->
<g id="node3" class="node">
<title>Node3</title>
<g id="a_node3"><a xlink:title=" ">
<polygon fill="#e0e0e0" stroke="#999999" points="52.75,-74.5 0,-74.5 0,-55.25 52.75,-55.25 52.75,-74.5"/>
<text text-anchor="middle" x="26.38" y="-61" font-family="Helvetica,sans-Serif" font-size="10.00">complex</text>
</a>
</g>
</g>
<!-- Node2&#45;&gt;Node3 -->
<g id="edge2" class="edge">
<title>Node2&#45;&gt;Node3</title>
<path fill="none" stroke="#63b8ff" d="M958.9,-285.28C878.79,-286.38 590.05,-286.69 358.38,-240.25 207.13,-209.93 122.34,-252.84 29.38,-129.75 19.96,-117.28 19.99,-99.21 21.93,-85.47"/>
<polygon fill="#63b8ff" stroke="#63b8ff" points="25.53,-86.23 23.93,-75.76 18.65,-84.95 25.53,-86.23"/>
</g>
<!-- Node4 -->
<g id="node4" class="node">
<title>Node4</title>
<g id="a_node4"><a xlink:href="arrays_8h.html" target="_top" xlink:title="Classes describing arrays, vertices etc.">
<polygon fill="white" stroke="#666666" points="329,-185 277.75,-185 277.75,-165.75 329,-165.75 329,-185"/>
<text text-anchor="middle" x="303.38" y="-171.5" font-family="Helvetica,sans-Serif" font-size="10.00">arrays.h</text>
</a>
</g>
</g>
<!-- Node2&#45;&gt;Node4 -->
<g id="edge3" class="edge">
<title>Node2&#45;&gt;Node4</title>
<path fill="none" stroke="#63b8ff" d="M958.87,-284.69C866.71,-283.65 504.99,-277.27 398.38,-240.25 368.36,-229.83 338.79,-207.52 320.81,-192.23"/>
<polygon fill="#63b8ff" stroke="#63b8ff" points="323.8,-189.32 313.97,-185.37 319.19,-194.59 323.8,-189.32"/>
</g>
<!-- Node12 -->
<g id="node12" class="node">
<title>Node12</title>
<g id="a_node12"><a xlink:href="cell__coordinate_8h.html" target="_top" xlink:title="Container for {ijk} or {IJK} grouped variables.">
<polygon fill="white" stroke="#666666" points="1059.12,-185 969.62,-185 969.62,-165.75 1059.12,-165.75 1059.12,-185"/>
<text text-anchor="middle" x="1014.38" y="-171.5" font-family="Helvetica,sans-Serif" font-size="10.00">cell_coordinate.h</text>
</a>
</g>
</g>
<!-- Node2&#45;&gt;Node12 -->
<g id="edge15" class="edge">
<title>Node2&#45;&gt;Node12</title>
<path fill="none" stroke="#63b8ff" d="M983.16,-276C988.64,-258.51 1000.93,-219.27 1008.35,-195.59"/>
<polygon fill="#63b8ff" stroke="#63b8ff" points="1011.9,-196.97 1011.55,-186.38 1005.22,-194.87 1011.9,-196.97"/>
</g>
<!-- Node15 -->
<g id="node15" class="node">
<title>Node15</title>
<g id="a_node15"><a xlink:href="dimensions_8h.html" target="_top" xlink:title="Defines a class that serves as an explicit converter between MATLAB pointers and array dimensions.">
<polygon fill="white" stroke="#666666" points="1142.25,-240.25 1068.5,-240.25 1068.5,-221 1142.25,-221 1142.25,-240.25"/>
<text text-anchor="middle" x="1105.38" y="-226.75" font-family="Helvetica,sans-Serif" font-size="10.00">dimensions.h</text>
</a>
</g>
</g>
<!-- Node2&#45;&gt;Node15 -->
<g id="edge18" class="edge">
<title>Node2&#45;&gt;Node15</title>
<path fill="none" stroke="#63b8ff" d="M1001.58,-275.84C1021.51,-267.35 1051.59,-254.54 1074.24,-244.89"/>
<polygon fill="#63b8ff" stroke="#63b8ff" points="1075.24,-247.84 1083.07,-240.7 1072.49,-241.4 1075.24,-247.84"/>
</g>
<!-- Node2&#45;&gt;Node16 -->
<g id="edge30" class="edge">
<title>Node2&#45;&gt;Node16</title>
<path fill="none" stroke="#63b8ff" d="M1001.76,-282.51C1043.44,-277.42 1133.09,-263.92 1151.38,-240.25 1170.61,-215.35 1238.12,-243.31 1141.38,-110.5 1125.67,-88.94 1097.43,-77.71 1074.19,-71.92"/>
<polygon fill="#63b8ff" stroke="#63b8ff" points="1075.12,-68.31 1064.59,-69.55 1073.59,-75.15 1075.12,-68.31"/>
</g>
<!-- Node20 -->
<g id="node20" class="node">
<title>Node20</title>
<g id="a_node20"><a xlink:href="input__flags_8h.html" target="_top" xlink:title="Organises enumerated constants, names, and classes for handling flag&#45;variables that are passed to TDM...">
<polygon fill="white" stroke="#666666" points="951.12,-185 879.62,-185 879.62,-165.75 951.12,-165.75 951.12,-185"/>
<text text-anchor="middle" x="915.38" y="-171.5" font-family="Helvetica,sans-Serif" font-size="10.00">input_flags.h</text>
</a>
</g>
</g>
<!-- Node2&#45;&gt;Node20 -->
<g id="edge23" class="edge">
<title>Node2&#45;&gt;Node20</title>
<path fill="none" stroke="#63b8ff" d="M975.06,-276C964.44,-258.27 940.43,-218.19 926.31,-194.63"/>
<polygon fill="#63b8ff" stroke="#63b8ff" points="928.91,-193.16 920.77,-186.38 922.9,-196.75 928.91,-193.16"/>
</g>
<!-- Node21 -->
<g id="node21" class="node">
<title>Node21</title>
<g id="a_node21"><a xlink:href="simulation__parameters_8h.html" target="_top" xlink:title="Classes collecting parameters for the simulation.">
<polygon fill="white" stroke="#666666" points="529.62,-240.25 407.12,-240.25 407.12,-221 529.62,-221 529.62,-240.25"/>
<text text-anchor="middle" x="468.38" y="-226.75" font-family="Helvetica,sans-Serif" font-size="10.00">simulation_parameters.h</text>
</a>
</g>
</g>
<!-- Node2&#45;&gt;Node21 -->
<g id="edge31" class="edge">
<title>Node2&#45;&gt;Node21</title>
<path fill="none" stroke="#63b8ff" d="M959.03,-282.65C888.28,-275.3 659.28,-251.48 540.83,-239.16"/>
<polygon fill="#63b8ff" stroke="#63b8ff" points="541.38,-235.59 531.07,-238.04 540.65,-242.56 541.38,-235.59"/>
</g>
<!-- Node4&#45;&gt;Node3 -->
<g id="edge4" class="edge">
<title>Node4&#45;&gt;Node3</title>
<path fill="none" stroke="#63b8ff" d="M277.49,-173.28C219.1,-170.3 79.52,-160.1 45.38,-129.75 32.94,-118.7 28.48,-99.92 26.96,-85.58"/>
<polygon fill="#63b8ff" stroke="#63b8ff" points="30.4,-85.59 26.26,-75.84 23.42,-86.04 30.4,-85.59"/>
</g>
<!-- Node5 -->
<g id="node5" class="node">
<title>Node5</title>
<g id="a_node5"><a xlink:title=" ">
<polygon fill="#e0e0e0" stroke="#999999" points="671.75,-129.75 613,-129.75 613,-110.5 671.75,-110.5 671.75,-129.75"/>
<text text-anchor="middle" x="642.38" y="-116.25" font-family="Helvetica,sans-Serif" font-size="10.00">stdexcept</text>
</a>
</g>
</g>
<!-- Node4&#45;&gt;Node5 -->
<g id="edge5" class="edge">
<title>Node4&#45;&gt;Node5</title>
<path fill="none" stroke="#63b8ff" d="M329.18,-170.91C380.68,-163.91 499.82,-147.23 599.38,-129.75 600.33,-129.58 601.29,-129.41 602.26,-129.24"/>
<polygon fill="#63b8ff" stroke="#63b8ff" points="602.62,-132.54 611.8,-127.25 601.33,-125.66 602.62,-132.54"/>
</g>
<!-- Node6 -->
<g id="node6" class="node">
<title>Node6</title>
<g id="a_node6"><a xlink:title=" ">
<polygon fill="#e0e0e0" stroke="#999999" points="418.38,-74.5 378.38,-74.5 378.38,-55.25 418.38,-55.25 418.38,-74.5"/>
<text text-anchor="middle" x="398.38" y="-61" font-family="Helvetica,sans-Serif" font-size="10.00">string</text>
</a>
</g>
</g>
<!-- Node4&#45;&gt;Node6 -->
<g id="edge6" class="edge">
<title>Node4&#45;&gt;Node6</title>
<path fill="none" stroke="#63b8ff" d="M299.88,-165.27C295.44,-152.06 289.56,-127.3 300.38,-110.5 315.07,-87.67 344.63,-76.38 367.46,-70.88"/>
<polygon fill="#63b8ff" stroke="#63b8ff" points="367.99,-74.14 377.04,-68.63 366.53,-67.29 367.99,-74.14"/>
</g>
<!-- Node7 -->
<g id="node7" class="node">
<title>Node7</title>
<g id="a_node7"><a xlink:title=" ">
<polygon fill="#e0e0e0" stroke="#999999" points="701.88,-74.5 658.88,-74.5 658.88,-55.25 701.88,-55.25 701.88,-74.5"/>
<text text-anchor="middle" x="680.38" y="-61" font-family="Helvetica,sans-Serif" font-size="10.00">vector</text>
</a>
</g>
</g>
<!-- Node4&#45;&gt;Node7 -->
<g id="edge7" class="edge">
<title>Node4&#45;&gt;Node7</title>
<path fill="none" stroke="#63b8ff" d="M329.5,-172.9C377.62,-169.55 482.96,-159.2 566.38,-129.75 575.69,-126.46 625.09,-98.09 655.72,-80.28"/>
<polygon fill="#63b8ff" stroke="#63b8ff" points="657.06,-82.97 663.94,-74.91 653.53,-76.92 657.06,-82.97"/>
</g>
<!-- Node8 -->
<g id="node8" class="node">
<title>Node8</title>
<g id="a_node8"><a xlink:title=" ">
<polygon fill="#e0e0e0" stroke="#999999" points="100.38,-129.75 54.38,-129.75 54.38,-110.5 100.38,-110.5 100.38,-129.75"/>
<text text-anchor="middle" x="77.38" y="-116.25" font-family="Helvetica,sans-Serif" font-size="10.00">fftw3.h</text>
</a>
</g>
</g>
<!-- Node4&#45;&gt;Node8 -->
<g id="edge8" class="edge">
<title>Node4&#45;&gt;Node8</title>
<path fill="none" stroke="#63b8ff" d="M277.26,-168.69C241.83,-160.91 176.32,-146.28 111.21,-130.14"/>
<polygon fill="#63b8ff" stroke="#63b8ff" points="112.32,-126.56 101.77,-127.54 110.62,-133.35 112.32,-126.56"/>
</g>
<!-- Node9 -->
<g id="node9" class="node">
<title>Node9</title>
<g id="a_node9"><a xlink:href="globals_8h.html" target="_top" xlink:title="Type definitions and global constants.">
<polygon fill="white" stroke="#666666" points="252.88,-129.75 197.88,-129.75 197.88,-110.5 252.88,-110.5 252.88,-129.75"/>
<text text-anchor="middle" x="225.38" y="-116.25" font-family="Helvetica,sans-Serif" font-size="10.00">globals.h</text>
</a>
</g>
</g>
<!-- Node4&#45;&gt;Node9 -->
<g id="edge9" class="edge">
<title>Node4&#45;&gt;Node9</title>
<path fill="none" stroke="#63b8ff" d="M290.14,-165.34C278.49,-157.39 261.28,-145.64 247.53,-136.25"/>
<polygon fill="#63b8ff" stroke="#63b8ff" points="249.9,-132.95 239.67,-130.2 245.96,-138.73 249.9,-132.95"/>
</g>
<!-- Node10 -->
<g id="node10" class="node">
<title>Node10</title>
<g id="a_node10"><a xlink:title=" ">
<polygon fill="#e0e0e0" stroke="#999999" points="179.88,-129.75 118.88,-129.75 118.88,-110.5 179.88,-110.5 179.88,-129.75"/>
<text text-anchor="middle" x="149.38" y="-116.25" font-family="Helvetica,sans-Serif" font-size="10.00">matlabio.h</text>
</a>
</g>
</g>
<!-- Node4&#45;&gt;Node10 -->
<g id="edge12" class="edge">
<title>Node4&#45;&gt;Node10</title>
<path fill="none" stroke="#63b8ff" d="M277.25,-165.34C252.14,-156.66 213.96,-143.46 185.86,-133.74"/>
<polygon fill="#63b8ff" stroke="#63b8ff" points="187.22,-130.16 176.63,-130.2 184.93,-136.78 187.22,-130.16"/>
</g>
<!-- Node11 -->
<g id="node11" class="node">
<title>Node11</title>
<g id="a_node11"><a xlink:href="utils_8h.html" target="_top" xlink:title="Useful miscellaneous utility functions.">
<polygon fill="white" stroke="#666666" points="351.5,-129.75 309.25,-129.75 309.25,-110.5 351.5,-110.5 351.5,-129.75"/>
<text text-anchor="middle" x="330.38" y="-116.25" font-family="Helvetica,sans-Serif" font-size="10.00">utils.h</text>
</a>
</g>
</g>
<!-- Node4&#45;&gt;Node11 -->
<g id="edge13" class="edge">
<title>Node4&#45;&gt;Node11</title>
<path fill="none" stroke="#63b8ff" d="M307.83,-165.58C311.37,-158.61 316.44,-148.62 320.87,-139.87"/>
<polygon fill="#63b8ff" stroke="#63b8ff" points="324.42,-141.61 325.82,-131.11 318.18,-138.45 324.42,-141.61"/>
</g>
<!-- Node9&#45;&gt;Node3 -->
<g id="edge10" class="edge">
<title>Node9&#45;&gt;Node3</title>
<path fill="none" stroke="#63b8ff" d="M197.7,-111.72C162.76,-102.37 102.5,-86.24 63.55,-75.82"/>
<polygon fill="#63b8ff" stroke="#63b8ff" points="64.74,-72.25 54.17,-73.05 62.93,-79.01 64.74,-72.25"/>
</g>
<!-- Node9&#45;&gt;Node6 -->
<g id="edge11" class="edge">
<title>Node9&#45;&gt;Node6</title>
<path fill="none" stroke="#63b8ff" d="M253.17,-110.57C284.49,-100.93 335.26,-85.3 367.71,-75.31"/>
<polygon fill="#63b8ff" stroke="#63b8ff" points="368.43,-78.45 376.96,-72.16 366.37,-71.76 368.43,-78.45"/>
</g>
<!-- Node11&#45;&gt;Node6 -->
<g id="edge14" class="edge">
<title>Node11&#45;&gt;Node6</title>
<path fill="none" stroke="#63b8ff" d="M341.91,-110.09C351.94,-102.24 366.68,-90.7 378.58,-81.37"/>
<polygon fill="#63b8ff" stroke="#63b8ff" points="380.29,-83.7 386.01,-74.77 375.98,-78.18 380.29,-83.7"/>
</g>
<!-- Node13 -->
<g id="node13" class="node">
<title>Node13</title>
<g id="a_node13"><a xlink:title=" ">
<polygon fill="#e0e0e0" stroke="#999999" points="1041.5,-129.75 957.25,-129.75 957.25,-110.5 1041.5,-110.5 1041.5,-129.75"/>
<text text-anchor="middle" x="999.38" y="-116.25" font-family="Helvetica,sans-Serif" font-size="10.00">spdlog/spdlog.h</text>
</a>
</g>
</g>
<!-- Node12&#45;&gt;Node13 -->
<g id="edge16" class="edge">
<title>Node12&#45;&gt;Node13</title>
<path fill="none" stroke="#63b8ff" d="M1011.9,-165.58C1009.98,-158.76 1007.24,-149.06 1004.82,-140.45"/>
<polygon fill="#63b8ff" stroke="#63b8ff" points="1007.99,-139.79 1001.91,-131.11 1001.25,-141.68 1007.99,-139.79"/>
</g>
<!-- Node14 -->
<g id="node14" class="node">
<title>Node14</title>
<g id="a_node14"><a xlink:title=" ">
<polygon fill="#e0e0e0" stroke="#999999" points="1115.25,-129.75 1059.5,-129.75 1059.5,-110.5 1115.25,-110.5 1115.25,-129.75"/>
<text text-anchor="middle" x="1087.38" y="-116.25" font-family="Helvetica,sans-Serif" font-size="10.00">algorithm</text>
</a>
</g>
</g>
<!-- Node12&#45;&gt;Node14 -->
<g id="edge17" class="edge">
<title>Node12&#45;&gt;Node14</title>
<path fill="none" stroke="#63b8ff" d="M1026.76,-165.34C1037.63,-157.41 1053.66,-145.72 1066.5,-136.35"/>
<polygon fill="#63b8ff" stroke="#63b8ff" points="1068.16,-138.75 1074.17,-130.02 1064.03,-133.09 1068.16,-138.75"/>
</g>
<!-- Node15&#45;&gt;Node16 -->
<g id="edge19" class="edge">
<title>Node15&#45;&gt;Node16</title>
<path fill="none" stroke="#63b8ff" d="M1110.51,-220.77C1121.89,-199.88 1146.51,-146.55 1124.38,-110.5 1113.31,-92.48 1092.45,-81.46 1073.82,-74.88"/>
<polygon fill="#63b8ff" stroke="#63b8ff" points="1075.07,-71.29 1064.48,-71.59 1072.95,-77.96 1075.07,-71.29"/>
</g>
<!-- Node17 -->
<g id="node17" class="node">
<title>Node17</title>
<g id="a_node17"><a xlink:title=" ">
<polygon fill="#e0e0e0" stroke="#999999" points="992.75,-19.25 952,-19.25 952,0 992.75,0 992.75,-19.25"/>
<text text-anchor="middle" x="972.38" y="-5.75" font-family="Helvetica,sans-Serif" font-size="10.00">mat.h</text>
</a>
</g>
</g>
<!-- Node16&#45;&gt;Node17 -->
<g id="edge20" class="edge">
<title>Node16&#45;&gt;Node17</title>
<path fill="none" stroke="#63b8ff" d="M1025.52,-54.84C1016.18,-47.07 1002.48,-35.67 991.33,-26.4"/>
<polygon fill="#63b8ff" stroke="#63b8ff" points="994,-23.23 984.07,-19.52 989.52,-28.61 994,-23.23"/>
</g>
<!-- Node18 -->
<g id="node18" class="node">
<title>Node18</title>
<g id="a_node18"><a xlink:title=" ">
<polygon fill="#e0e0e0" stroke="#999999" points="1062,-19.25 1010.75,-19.25 1010.75,0 1062,0 1062,-19.25"/>
<text text-anchor="middle" x="1036.38" y="-5.75" font-family="Helvetica,sans-Serif" font-size="10.00">matrix.h</text>
</a>
</g>
</g>
<!-- Node16&#45;&gt;Node18 -->
<g id="edge21" class="edge">
<title>Node16&#45;&gt;Node18</title>
<path fill="none" stroke="#63b8ff" d="M1036.38,-55.08C1036.38,-48.42 1036.38,-38.99 1036.38,-30.53"/>
<polygon fill="#63b8ff" stroke="#63b8ff" points="1039.88,-30.61 1036.38,-20.61 1032.88,-30.61 1039.88,-30.61"/>
</g>
<!-- Node19 -->
<g id="node19" class="node">
<title>Node19</title>
<g id="a_node19"><a xlink:title=" ">
<polygon fill="#e0e0e0" stroke="#999999" points="1122.88,-19.25 1079.88,-19.25 1079.88,0 1122.88,0 1122.88,-19.25"/>
<text text-anchor="middle" x="1101.38" y="-5.75" font-family="Helvetica,sans-Serif" font-size="10.00">mex.h</text>
</a>
</g>
</g>
<!-- Node16&#45;&gt;Node19 -->
<g id="edge22" class="edge">
<title>Node16&#45;&gt;Node19</title>
<path fill="none" stroke="#63b8ff" d="M1047.4,-54.84C1056.89,-47.07 1070.8,-35.67 1082.12,-26.4"/>
<polygon fill="#63b8ff" stroke="#63b8ff" points="1083.99,-28.57 1089.51,-19.52 1079.56,-23.15 1083.99,-28.57"/>
</g>
<!-- Node20&#45;&gt;Node5 -->
<g id="edge25" class="edge">
<title>Node20&#45;&gt;Node5</title>
<path fill="none" stroke="#63b8ff" d="M879.51,-167.49C834.24,-158.78 754.01,-143.29 685.38,-129.75 684.43,-129.56 683.47,-129.37 682.5,-129.18"/>
<polygon fill="#63b8ff" stroke="#63b8ff" points="683.47,-125.61 672.98,-127.09 682.1,-132.47 683.47,-125.61"/>
</g>
<!-- Node20&#45;&gt;Node6 -->
<g id="edge26" class="edge">
<title>Node20&#45;&gt;Node6</title>
<path fill="none" stroke="#63b8ff" d="M879.39,-168.96C839.31,-162.31 772.98,-149.42 718.38,-129.75 700.56,-123.33 698.39,-116.33 680.38,-110.5 592.06,-81.93 482.06,-71.28 429.35,-67.62"/>
<polygon fill="#63b8ff" stroke="#63b8ff" points="429.91,-64.08 419.71,-66.92 429.46,-71.07 429.91,-64.08"/>
</g>
<!-- Node20&#45;&gt;Node7 -->
<g id="edge27" class="edge">
<title>Node20&#45;&gt;Node7</title>
<path fill="none" stroke="#63b8ff" d="M906.71,-165.63C892.7,-151.97 863.68,-125.57 834.38,-110.5 794.96,-90.23 745,-77.91 712.86,-71.5"/>
<polygon fill="#63b8ff" stroke="#63b8ff" points="713.76,-67.91 703.28,-69.47 712.44,-74.79 713.76,-67.91"/>
</g>
<!-- Node20&#45;&gt;Node13 -->
<g id="edge28" class="edge">
<title>Node20&#45;&gt;Node13</title>
<path fill="none" stroke="#63b8ff" d="M929.62,-165.34C942.3,-157.31 961.07,-145.41 975.94,-135.98"/>
<polygon fill="#63b8ff" stroke="#63b8ff" points="977.48,-138.51 984.06,-130.2 973.74,-132.6 977.48,-138.51"/>
</g>
<!-- Node20&#45;&gt;Node14 -->
<g id="edge24" class="edge">
<title>Node20&#45;&gt;Node14</title>
<path fill="none" stroke="#63b8ff" d="M944.55,-165.34C973.31,-156.44 1017.42,-142.78 1049.01,-133"/>
<polygon fill="#63b8ff" stroke="#63b8ff" points="1049.68,-136.15 1058.2,-129.85 1047.61,-129.46 1049.68,-136.15"/>
</g>
<!-- Node20&#45;&gt;Node16 -->
<g id="edge29" class="edge">
<title>Node20&#45;&gt;Node16</title>
<path fill="none" stroke="#63b8ff" d="M918.01,-165.46C922.37,-152.04 932.25,-126.5 948.38,-110.5 962.71,-96.28 982.49,-85.69 999.68,-78.41"/>
<polygon fill="#63b8ff" stroke="#63b8ff" points="1000.45,-81.47 1008.43,-74.5 997.85,-74.97 1000.45,-81.47"/>
</g>
<!-- Node21&#45;&gt;Node4 -->
<g id="edge33" class="edge">
<title>Node21&#45;&gt;Node4</title>
<path fill="none" stroke="#63b8ff" d="M440.38,-220.59C412.59,-211.62 369.84,-197.83 339.49,-188.03"/>
<polygon fill="#63b8ff" stroke="#63b8ff" points="340.92,-184.49 330.32,-184.75 338.77,-191.15 340.92,-184.49"/>
</g>
<!-- Node21&#45;&gt;Node6 -->
<g id="edge32" class="edge">
<title>Node21&#45;&gt;Node6</title>
<path fill="none" stroke="#63b8ff" d="M463.49,-220.73C454.15,-203.51 433.44,-164.27 419.38,-129.75 413.37,-115.02 407.81,-97.87 403.92,-85.05"/>
<polygon fill="#63b8ff" stroke="#63b8ff" points="407.05,-84.29 400.85,-75.69 400.34,-86.27 407.05,-84.29"/>
</g>
<!-- Node22 -->
<g id="node22" class="node">
<title>Node22</title>
<g id="a_node22"><a xlink:href="input__matrices_8h.html" target="_top" xlink:title="Class handling the input matrices that are read in from the input file.">
<polygon fill="white" stroke="#666666" points="545.38,-185 457.38,-185 457.38,-165.75 545.38,-165.75 545.38,-185"/>
<text text-anchor="middle" x="501.38" y="-171.5" font-family="Helvetica,sans-Serif" font-size="10.00">input_matrices.h</text>
</a>
</g>
</g>
<!-- Node21&#45;&gt;Node22 -->
<g id="edge34" class="edge">
<title>Node21&#45;&gt;Node22</title>
<path fill="none" stroke="#63b8ff" d="M473.82,-220.83C478.24,-213.71 484.61,-203.43 490.11,-194.55"/>
<polygon fill="#63b8ff" stroke="#63b8ff" points="493.51,-196.7 495.81,-186.36 487.56,-193.02 493.51,-196.7"/>
</g>
<!-- Node22&#45;&gt;Node6 -->
<g id="edge35" class="edge">
<title>Node22&#45;&gt;Node6</title>
<path fill="none" stroke="#63b8ff" d="M484.11,-165.3C470.05,-157.31 450.32,-144.63 436.38,-129.75 423.84,-116.38 413.52,-98.18 406.81,-84.63"/>
<polygon fill="#63b8ff" stroke="#63b8ff" points="409.67,-83.49 402.23,-75.94 403.34,-86.48 409.67,-83.49"/>
</g>
<!-- Node22&#45;&gt;Node16 -->
<g id="edge39" class="edge">
<title>Node22&#45;&gt;Node16</title>
<path fill="none" stroke="#63b8ff" d="M545.71,-170.89C609.93,-165.29 732.33,-152.54 834.38,-129.75 894.55,-116.31 962.53,-93.08 1002.29,-78.65"/>
<polygon fill="#63b8ff" stroke="#63b8ff" points="1003.3,-81.64 1011.49,-74.92 1000.9,-75.07 1003.3,-81.64"/>
</g>
<!-- Node23 -->
<g id="node23" class="node">
<title>Node23</title>
<g id="a_node23"><a xlink:href="input__output__names_8h.html" target="_top" xlink:title="Constant values associated with the format of the input and output files and matrices.">
<polygon fill="white" stroke="#666666" points="557.38,-129.75 445.38,-129.75 445.38,-110.5 557.38,-110.5 557.38,-129.75"/>
<text text-anchor="middle" x="501.38" y="-116.25" font-family="Helvetica,sans-Serif" font-size="10.00">input_output_names.h</text>
</a>
</g>
</g>
<!-- Node22&#45;&gt;Node23 -->
<g id="edge36" class="edge">
<title>Node22&#45;&gt;Node23</title>
<path fill="none" stroke="#63b8ff" d="M501.38,-165.58C501.38,-158.92 501.38,-149.49 501.38,-141.03"/>
<polygon fill="#63b8ff" stroke="#63b8ff" points="504.88,-141.11 501.38,-131.11 497.88,-141.11 504.88,-141.11"/>
</g>
<!-- Node24 -->
<g id="node24" class="node">
<title>Node24</title>
<g id="a_node24"><a xlink:href="matrix__collection_8h.html" target="_top" xlink:title="A collection of named MATLAB matrices.">
<polygon fill="white" stroke="#666666" points="825.25,-129.75 727.5,-129.75 727.5,-110.5 825.25,-110.5 825.25,-129.75"/>
<text text-anchor="middle" x="776.38" y="-116.25" font-family="Helvetica,sans-Serif" font-size="10.00">matrix_collection.h</text>
</a>
</g>
</g>
<!-- Node22&#45;&gt;Node24 -->
<g id="edge40" class="edge">
<title>Node22&#45;&gt;Node24</title>
<path fill="none" stroke="#63b8ff" d="M545.86,-165.76C592.98,-156.64 667.53,-142.2 719.03,-132.23"/>
<polygon fill="#63b8ff" stroke="#63b8ff" points="719.5,-135.51 728.65,-130.17 718.17,-128.64 719.5,-135.51"/>
</g>
<!-- Node23&#45;&gt;Node6 -->
<g id="edge37" class="edge">
<title>Node23&#45;&gt;Node6</title>
<path fill="none" stroke="#63b8ff" d="M483.9,-110.09C467.92,-101.83 444.03,-89.48 425.55,-79.93"/>
<polygon fill="#63b8ff" stroke="#63b8ff" points="427.42,-76.44 416.93,-74.95 424.21,-82.65 427.42,-76.44"/>
</g>
<!-- Node23&#45;&gt;Node7 -->
<g id="edge38" class="edge">
<title>Node23&#45;&gt;Node7</title>
<path fill="none" stroke="#63b8ff" d="M531.74,-110.09C564.09,-100.47 615.1,-85.29 648.15,-75.46"/>
<polygon fill="#63b8ff" stroke="#63b8ff" points="649.03,-78.56 657.61,-72.35 647.03,-71.85 649.03,-78.56"/>
</g>
<!-- Node24&#45;&gt;Node6 -->
<g id="edge41" class="edge">
<title>Node24&#45;&gt;Node6</title>
<path fill="none" stroke="#63b8ff" d="M727.35,-112.22C648.39,-101.09 495.28,-79.53 429.56,-70.27"/>
<polygon fill="#63b8ff" stroke="#63b8ff" points="430.1,-66.67 419.71,-68.74 429.12,-73.6 430.1,-66.67"/>
</g>
<!-- Node24&#45;&gt;Node7 -->
<g id="edge42" class="edge">
<title>Node24&#45;&gt;Node7</title>
<path fill="none" stroke="#63b8ff" d="M760.09,-110.09C745.33,-101.91 723.34,-89.71 706.19,-80.19"/>
<polygon fill="#63b8ff" stroke="#63b8ff" points="708.18,-76.74 697.74,-74.95 704.79,-82.86 708.18,-76.74"/>
</g>
<!-- Node24&#45;&gt;Node16 -->
<g id="edge43" class="edge">
<title>Node24&#45;&gt;Node16</title>
<path fill="none" stroke="#63b8ff" d="M820.78,-110.03C870.86,-99.77 951.46,-83.27 998.63,-73.61"/>
<polygon fill="#63b8ff" stroke="#63b8ff" points="999.2,-76.86 1008.29,-71.42 997.79,-70 999.2,-76.86"/>
</g>
</g>
</svg>
