<?xml version="1.0" encoding="UTF-8" standalone="no"?>
<!DOCTYPE svg PUBLIC "-//W3C//DTD SVG 1.1//EN"
 "http://www.w3.org/Graphics/SVG/1.1/DTD/svg11.dtd">
<!-- Generated by graphviz version 8.0.5 (20230430.1635)
 -->
<!-- Title: tdms/include/cell_coordinate.h Pages: 1 -->
<svg width="168pt" height="83pt"
 viewBox="0.00 0.00 168.12 82.50" xmlns="http://www.w3.org/2000/svg" xmlns:xlink="http://www.w3.org/1999/xlink">
<g id="graph0" class="graph" transform="scale(1 1) rotate(0) translate(4 78.5)">
<title>tdms/include/cell_coordinate.h</title>
<!-- Node1 -->
<g id="node1" class="node">
<title>Node1</title>
<g id="a_node1"><a xlink:title="Container for {ijk} or {IJK} grouped variables.">
<polygon fill="#999999" stroke="#666666" points="160.12,-74.5 12.12,-74.5 12.12,-55.25 160.12,-55.25 160.12,-74.5"/>
<text text-anchor="middle" x="86.12" y="-61" font-family="Helvetica,sans-Serif" font-size="10.00">tdms/include/cell_coordinate.h</text>
</a>
</g>
</g>
<!-- Node2 -->
<g id="node2" class="node">
<title>Node2</title>
<g id="a_node2"><a xlink:title=" ">
<polygon fill="#e0e0e0" stroke="#999999" points="84.25,-19.25 0,-19.25 0,0 84.25,0 84.25,-19.25"/>
<text text-anchor="middle" x="42.12" y="-5.75" font-family="Helvetica,sans-Serif" font-size="10.00">spdlog/spdlog.h</text>
</a>
</g>
</g>
<!-- Node1&#45;&gt;Node2 -->
<g id="edge1" class="edge">
<title>Node1&#45;&gt;Node2</title>
<path fill="none" stroke="#63b8ff" d="M78.86,-55.08C72.78,-47.73 63.93,-37.01 56.43,-27.94"/>
<polygon fill="#63b8ff" stroke="#63b8ff" points="58.62,-26.09 49.55,-20.61 53.22,-30.55 58.62,-26.09"/>
</g>
<!-- Node3 -->
<g id="node3" class="node">
<title>Node3</title>
<g id="a_node3"><a xlink:title=" ">
<polygon fill="#e0e0e0" stroke="#999999" points="158,-19.25 102.25,-19.25 102.25,0 158,0 158,-19.25"/>
<text text-anchor="middle" x="130.12" y="-5.75" font-family="Helvetica,sans-Serif" font-size="10.00">algorithm</text>
</a>
</g>
</g>
<!-- Node1&#45;&gt;Node3 -->
<g id="edge2" class="edge">
<title>Node1&#45;&gt;Node3</title>
<path fill="none" stroke="#63b8ff" d="M93.39,-55.08C99.47,-47.73 108.32,-37.01 115.82,-27.94"/>
<polygon fill="#63b8ff" stroke="#63b8ff" points="119.03,-30.55 122.7,-20.61 113.63,-26.09 119.03,-30.55"/>
</g>
</g>
</svg>
