<?xml version="1.0" encoding="UTF-8" standalone="no"?>
<!DOCTYPE svg PUBLIC "-//W3C//DTD SVG 1.1//EN"
 "http://www.w3.org/Graphics/SVG/1.1/DTD/svg11.dtd">
<!-- Generated by graphviz version 8.0.4 (20230421.1958)
 -->
<!-- Title: tdms/include/cell_coordinate.h Pages: 1 -->
<svg width="500pt" height="216pt"
 viewBox="0.00 0.00 500.38 215.50" xmlns="http://www.w3.org/2000/svg" xmlns:xlink="http://www.w3.org/1999/xlink">
<g id="graph0" class="graph" transform="scale(1 1) rotate(0) translate(4 211.5)">
<title>tdms/include/cell_coordinate.h</title>
<!-- Node1 -->
<g id="node1" class="node">
<title>Node1</title>
<g id="a_node1"><a xlink:title="Container for {ijk} or {IJK} grouped variables.">
<polygon fill="#999999" stroke="#666666" points="385.12,-207.5 237.12,-207.5 237.12,-188.25 385.12,-188.25 385.12,-207.5"/>
<text text-anchor="middle" x="311.12" y="-194" font-family="Helvetica,sans-Serif" font-size="10.00">tdms/include/cell_coordinate.h</text>
</a>
</g>
</g>
<!-- Node2 -->
<g id="node2" class="node">
<title>Node2</title>
<g id="a_node2"><a xlink:href="field_8h.html" target="_top" xlink:title="Classes for the electric and magnetic (split) fields on a grid.">
<polygon fill="white" stroke="#666666" points="299.5,-152.25 198.75,-152.25 198.75,-133 299.5,-133 299.5,-152.25"/>
<text text-anchor="middle" x="249.12" y="-138.75" font-family="Helvetica,sans-Serif" font-size="10.00">tdms/include/field.h</text>
</a>
</g>
</g>
<!-- Node1&#45;&gt;Node2 -->
<g id="edge1" class="edge">
<title>Node1&#45;&gt;Node2</title>
<path fill="none" stroke="#63b8ff" d="M292.57,-180.94C281.75,-171.64 268.49,-160.26 259.49,-152.52"/>
<polygon fill="#63b8ff" stroke="#63b8ff" points="289.74,-183.98 299.61,-187.84 294.3,-178.67 289.74,-183.98"/>
</g>
<!-- Node9 -->
<g id="node9" class="node">
<title>Node9</title>
<g id="a_node9"><a xlink:href="source_8h.html" target="_top" xlink:title=" ">
<polygon fill="white" stroke="#666666" points="429.12,-152.25 317.12,-152.25 317.12,-133 429.12,-133 429.12,-152.25"/>
<text text-anchor="middle" x="373.12" y="-138.75" font-family="Helvetica,sans-Serif" font-size="10.00">tdms/include/source.h</text>
</a>
</g>
</g>
<!-- Node1&#45;&gt;Node9 -->
<g id="edge8" class="edge">
<title>Node1&#45;&gt;Node9</title>
<path fill="none" stroke="#63b8ff" d="M329.68,-180.94C340.5,-171.64 353.76,-160.26 362.76,-152.52"/>
<polygon fill="#63b8ff" stroke="#63b8ff" points="327.95,-178.67 322.64,-187.84 332.51,-183.98 327.95,-178.67"/>
</g>
<!-- Node3 -->
<g id="node3" class="node">
<title>Node3</title>
<g id="a_node3"><a xlink:href="array__init_8h.html" target="_top" xlink:title="A collection of functions for array initialisation given MATLAB pointers.">
<polygon fill="white" stroke="#666666" points="96.25,-97 0,-97 0,-66.5 96.25,-66.5 96.25,-97"/>
<text text-anchor="start" x="8" y="-83.5" font-family="Helvetica,sans-Serif" font-size="10.00">tdms/include/array</text>
<text text-anchor="middle" x="48.12" y="-72.25" font-family="Helvetica,sans-Serif" font-size="10.00">_init.h</text>
</a>
</g>
</g>
<!-- Node2&#45;&gt;Node3 -->
<g id="edge2" class="edge">
<title>Node2&#45;&gt;Node3</title>
<path fill="none" stroke="#63b8ff" d="M207.74,-129.5C175.51,-120.06 130.69,-106.93 96.74,-96.99"/>
<polygon fill="#63b8ff" stroke="#63b8ff" points="206.58,-133.1 217.16,-132.55 208.55,-126.38 206.58,-133.1"/>
</g>
<!-- Node4 -->
<g id="node4" class="node">
<title>Node4</title>
<g id="a_node4"><a xlink:href="fieldsample_8h.html" target="_top" xlink:title="Class that stores the extracted field values at user&#45;defined vertices.">
<polygon fill="white" stroke="#666666" points="246.25,-91.38 114,-91.38 114,-72.12 246.25,-72.12 246.25,-91.38"/>
<text text-anchor="middle" x="180.12" y="-77.88" font-family="Helvetica,sans-Serif" font-size="10.00">tdms/include/fieldsample.h</text>
</a>
</g>
</g>
<!-- Node2&#45;&gt;Node4 -->
<g id="edge3" class="edge">
<title>Node2&#45;&gt;Node4</title>
<path fill="none" stroke="#63b8ff" d="M230.52,-125.75C217.76,-114.86 201.28,-100.8 190.7,-91.78"/>
<polygon fill="#63b8ff" stroke="#63b8ff" points="227.77,-128.85 237.65,-132.68 232.31,-123.53 227.77,-128.85"/>
</g>
<!-- Node6 -->
<g id="node6" class="node">
<title>Node6</title>
<g id="a_node6"><a xlink:href="surface__phasors_8h.html" target="_top" xlink:title="Contains a class that handles the complex amplitude extraction.">
<polygon fill="white" stroke="#666666" points="371.5,-97 264.75,-97 264.75,-66.5 371.5,-66.5 371.5,-97"/>
<text text-anchor="start" x="272.75" y="-83.5" font-family="Helvetica,sans-Serif" font-size="10.00">tdms/include/surface</text>
<text text-anchor="middle" x="318.12" y="-72.25" font-family="Helvetica,sans-Serif" font-size="10.00">_phasors.h</text>
</a>
</g>
</g>
<!-- Node2&#45;&gt;Node6 -->
<g id="edge5" class="edge">
<title>Node2&#45;&gt;Node6</title>
<path fill="none" stroke="#63b8ff" d="M267.96,-125.56C278.31,-116.73 291.04,-105.86 301.09,-97.28"/>
<polygon fill="#63b8ff" stroke="#63b8ff" points="265.94,-123.53 260.6,-132.68 270.48,-128.85 265.94,-123.53"/>
</g>
<!-- Node7 -->
<g id="node7" class="node">
<title>Node7</title>
<g id="a_node7"><a xlink:href="vertex__phasors_8h.html" target="_top" xlink:title="Contains a class that handles the complex amplitude extraction at the vertices.">
<polygon fill="white" stroke="#666666" points="490.88,-97 389.38,-97 389.38,-66.5 490.88,-66.5 490.88,-97"/>
<text text-anchor="start" x="397.38" y="-83.5" font-family="Helvetica,sans-Serif" font-size="10.00">tdms/include/vertex</text>
<text text-anchor="middle" x="440.12" y="-72.25" font-family="Helvetica,sans-Serif" font-size="10.00">_phasors.h</text>
</a>
</g>
</g>
<!-- Node2&#45;&gt;Node7 -->
<g id="edge6" class="edge">
<title>Node2&#45;&gt;Node7</title>
<path fill="none" stroke="#63b8ff" d="M288.7,-129.43C318.85,-120.13 360.47,-107.3 392.45,-97.44"/>
<polygon fill="#63b8ff" stroke="#63b8ff" points="288.08,-126.26 279.55,-132.55 290.14,-132.95 288.08,-126.26"/>
</g>
<!-- Node5 -->
<g id="node5" class="node">
<title>Node5</title>
<g id="a_node5"><a xlink:href="test___field_sample_8cpp.html" target="_top" xlink:title="Unit tests for the FieldSample class and its subclasses.">
<polygon fill="white" stroke="#666666" points="230.5,-30.5 129.75,-30.5 129.75,0 230.5,0 230.5,-30.5"/>
<text text-anchor="start" x="137.75" y="-17" font-family="Helvetica,sans-Serif" font-size="10.00">tdms/tests/unit/test</text>
<text text-anchor="middle" x="180.12" y="-5.75" font-family="Helvetica,sans-Serif" font-size="10.00">_FieldSample.cpp</text>
</a>
</g>
</g>
<!-- Node4&#45;&gt;Node5 -->
<g id="edge4" class="edge">
<title>Node4&#45;&gt;Node5</title>
<path fill="none" stroke="#63b8ff" d="M180.12,-61.02C180.12,-51.2 180.12,-39.55 180.12,-30.59"/>
<polygon fill="#63b8ff" stroke="#63b8ff" points="176.63,-60.78 180.12,-70.78 183.63,-60.78 176.63,-60.78"/>
</g>
<!-- Node8 -->
<g id="node8" class="node">
<title>Node8</title>
<g id="a_node8"><a xlink:href="test___vertex_phasors_8cpp.html" target="_top" xlink:title="Unit tests for the VertexPhasors class.">
<polygon fill="white" stroke="#666666" points="492.38,-30.5 387.88,-30.5 387.88,0 492.38,0 492.38,-30.5"/>
<text text-anchor="start" x="395.88" y="-17" font-family="Helvetica,sans-Serif" font-size="10.00">tdms/tests/unit/test</text>
<text text-anchor="middle" x="440.12" y="-5.75" font-family="Helvetica,sans-Serif" font-size="10.00">_VertexPhasors.cpp</text>
</a>
</g>
</g>
<!-- Node7&#45;&gt;Node8 -->
<g id="edge7" class="edge">
<title>Node7&#45;&gt;Node8</title>
<path fill="none" stroke="#63b8ff" d="M440.12,-55.38C440.12,-47.05 440.12,-38.08 440.12,-30.83"/>
<polygon fill="#63b8ff" stroke="#63b8ff" points="436.63,-55.11 440.12,-65.11 443.63,-55.11 436.63,-55.11"/>
</g>
</g>
</svg>
