<?xml version="1.0" encoding="UTF-8" standalone="no"?>
<!DOCTYPE svg PUBLIC "-//W3C//DTD SVG 1.1//EN"
 "http://www.w3.org/Graphics/SVG/1.1/DTD/svg11.dtd">
<!-- Generated by graphviz version 9.0.0 (20230911.1827)
 -->
<!-- Title: tdms/include/cell_coordinate.h Pages: 1 -->
<svg width="168pt" height="83pt"
 viewBox="0.00 0.00 168.12 82.50" xmlns="http://www.w3.org/2000/svg" xmlns:xlink="http://www.w3.org/1999/xlink">
<g id="graph0" class="graph" transform="scale(1 1) rotate(0) translate(4 78.5)">
<title>tdms/include/cell_coordinate.h</title>
<!-- Node1 -->
<g id="Node000001" class="node">
<title>Node1</title>
<g id="a_Node000001"><a xlink:title="Container for {ijk} or {IJK} grouped variables.">
<polygon fill="#999999" stroke="#666666" points="160.12,-74.5 12.12,-74.5 12.12,-55.25 160.12,-55.25 160.12,-74.5"/>
<text text-anchor="middle" x="86.12" y="-61" font-family="Helvetica,sans-Serif" font-size="10.00">tdms/include/cell_coordinate.h</text>
</a>
</g>
</g>
<!-- Node2 -->
<g id="Node000002" class="node">
<title>Node2</title>
<g id="a_Node000002"><a xlink:title=" ">
<polygon fill="#e0e0e0" stroke="#999999" points="84.25,-19.25 0,-19.25 0,0 84.25,0 84.25,-19.25"/>
<text text-anchor="middle" x="42.12" y="-5.75" font-family="Helvetica,sans-Serif" font-size="10.00">spdlog/spdlog.h</text>
</a>
</g>
</g>
<!-- Node1&#45;&gt;Node2 -->
<g id="edge1_Node000001_Node000002" class="edge">
<title>Node1&#45;&gt;Node2</title>
<g id="a_edge1_Node000001_Node000002"><a xlink:title=" ">
<path fill="none" stroke="#63b8ff" d="M78.86,-55.08C72.84,-47.8 64.11,-37.23 56.67,-28.23"/>
<polygon fill="#63b8ff" stroke="#63b8ff" points="59.58,-26.26 50.51,-20.78 54.18,-30.71 59.58,-26.26"/>
</a>
</g>
</g>
<!-- Node3 -->
<g id="Node000003" class="node">
<title>Node3</title>
<g id="a_Node000003"><a xlink:title=" ">
<polygon fill="#e0e0e0" stroke="#999999" points="158,-19.25 102.25,-19.25 102.25,0 158,0 158,-19.25"/>
<text text-anchor="middle" x="130.12" y="-5.75" font-family="Helvetica,sans-Serif" font-size="10.00">algorithm</text>
</a>
</g>
</g>
<!-- Node1&#45;&gt;Node3 -->
<g id="edge2_Node000001_Node000003" class="edge">
<title>Node1&#45;&gt;Node3</title>
<g id="a_edge2_Node000001_Node000003"><a xlink:title=" ">
<path fill="none" stroke="#63b8ff" d="M93.39,-55.08C99.41,-47.8 108.14,-37.23 115.58,-28.23"/>
<polygon fill="#63b8ff" stroke="#63b8ff" points="118.07,-30.71 121.74,-20.78 112.67,-26.26 118.07,-30.71"/>
</a>
</g>
</g>
</g>
</svg>
