<?xml version="1.0" encoding="UTF-8" standalone="no"?>
<!DOCTYPE svg PUBLIC "-//W3C//DTD SVG 1.1//EN"
 "http://www.w3.org/Graphics/SVG/1.1/DTD/svg11.dtd">
<!-- Generated by graphviz version 12.2.1 (20241206.2353)
 -->
<!-- Title: SplitField Pages: 1 -->
<svg width="352pt" height="138pt"
 viewBox="0.00 0.00 352.38 137.75" xmlns="http://www.w3.org/2000/svg" xmlns:xlink="http://www.w3.org/1999/xlink">
<g id="graph0" class="graph" transform="scale(1 1) rotate(0) translate(4 133.75)">
<title>SplitField</title>
<!-- Node1 -->
<g id="Node000001" class="node">
<title>Node1</title>
<g id="a_Node000001"><a xlink:title="A split field defined over a grid.">
<polygon fill="#999999" stroke="#666666" points="213.5,-74.5 157,-74.5 157,-55.25 213.5,-55.25 213.5,-74.5"/>
<text text-anchor="middle" x="185.25" y="-61" font-family="Helvetica,sans-Serif" font-size="10.00">SplitField</text>
</a>
</g>
</g>
<!-- Node3 -->
<g id="Node000003" class="node">
<title>Node3</title>
<g id="a_Node000003"><a xlink:href="class_current_density_split_field.html" target="_top" xlink:title=" ">
<polygon fill="white" stroke="#bfbfbf" points="122.5,-19.25 0,-19.25 0,0 122.5,0 122.5,-19.25"/>
<text text-anchor="middle" x="61.25" y="-5.75" font-family="Helvetica,sans-Serif" font-size="10.00">CurrentDensitySplitField</text>
</a>
</g>
</g>
<!-- Node1&#45;&gt;Node3 -->
<g id="edge2_Node000001_Node000003" class="edge">
<title>Node1&#45;&gt;Node3</title>
<g id="a_edge2_Node000001_Node000003"><a xlink:title=" ">
<path fill="none" stroke="#63b8ff" d="M153.88,-50.4C131.5,-40.79 102.02,-28.13 82.39,-19.7"/>
<polygon fill="#63b8ff" stroke="#63b8ff" points="152.25,-53.51 162.82,-54.24 155.02,-47.08 152.25,-53.51"/>
</a>
</g>
</g>
<!-- Node4 -->
<g id="Node000004" class="node">
<title>Node4</title>
<g id="a_Node000004"><a xlink:href="class_electric_split_field.html" target="_top" xlink:title=" ">
<polygon fill="white" stroke="#bfbfbf" points="230,-19.25 140.5,-19.25 140.5,0 230,0 230,-19.25"/>
<text text-anchor="middle" x="185.25" y="-5.75" font-family="Helvetica,sans-Serif" font-size="10.00">ElectricSplitField</text>
</a>
</g>
</g>
<!-- Node1&#45;&gt;Node4 -->
<g id="edge3_Node000001_Node000004" class="edge">
<title>Node1&#45;&gt;Node4</title>
<g id="a_edge3_Node000001_Node000004"><a xlink:title=" ">
<path fill="none" stroke="#63b8ff" d="M185.25,-43.63C185.25,-35.34 185.25,-26.17 185.25,-19.61"/>
<polygon fill="#63b8ff" stroke="#63b8ff" points="181.75,-43.57 185.25,-53.57 188.75,-43.57 181.75,-43.57"/>
</a>
</g>
</g>
<!-- Node5 -->
<g id="Node000005" class="node">
<title>Node5</title>
<g id="a_Node000005"><a xlink:href="class_magnetic_split_field.html" target="_top" xlink:title=" ">
<polygon fill="white" stroke="#bfbfbf" points="344.38,-19.25 248.12,-19.25 248.12,0 344.38,0 344.38,-19.25"/>
<text text-anchor="middle" x="296.25" y="-5.75" font-family="Helvetica,sans-Serif" font-size="10.00">MagneticSplitField</text>
</a>
</g>
</g>
<!-- Node1&#45;&gt;Node5 -->
<g id="edge4_Node000001_Node000005" class="edge">
<title>Node1&#45;&gt;Node5</title>
<g id="a_edge4_Node000001_Node000005"><a xlink:title=" ">
<path fill="none" stroke="#63b8ff" d="M214.43,-49.87C234.32,-40.33 260.08,-27.98 277.33,-19.7"/>
<polygon fill="#63b8ff" stroke="#63b8ff" points="212.95,-46.71 205.44,-54.19 215.97,-53.02 212.95,-46.71"/>
</a>
</g>
</g>
<!-- Node2 -->
<g id="Node000002" class="node">
<title>Node2</title>
<g id="a_Node000002"><a xlink:href="class_grid.html" target="_top" xlink:title=" ">
<polygon fill="white" stroke="#666666" points="202.25,-129.75 168.25,-129.75 168.25,-110.5 202.25,-110.5 202.25,-129.75"/>
<text text-anchor="middle" x="185.25" y="-116.25" font-family="Helvetica,sans-Serif" font-size="10.00">Grid</text>
</a>
</g>
</g>
<!-- Node2&#45;&gt;Node1 -->
<g id="edge1_Node000001_Node000002" class="edge">
<title>Node2&#45;&gt;Node1</title>
<g id="a_edge1_Node000001_Node000002"><a xlink:title=" ">
<path fill="none" stroke="#63b8ff" d="M185.25,-98.88C185.25,-90.59 185.25,-81.42 185.25,-74.86"/>
<polygon fill="#63b8ff" stroke="#63b8ff" points="181.75,-98.82 185.25,-108.82 188.75,-98.82 181.75,-98.82"/>
</a>
</g>
</g>
</g>
</svg>
