<?xml version="1.0" encoding="UTF-8" standalone="no"?>
<!DOCTYPE svg PUBLIC "-//W3C//DTD SVG 1.1//EN"
 "http://www.w3.org/Graphics/SVG/1.1/DTD/svg11.dtd">
<!-- Generated by graphviz version 9.0.0 (20230911.1827)
 -->
<!-- Title: Grid Pages: 1 -->
<svg width="189pt" height="94pt"
 viewBox="0.00 0.00 189.15 93.75" xmlns="http://www.w3.org/2000/svg" xmlns:xlink="http://www.w3.org/1999/xlink">
<g id="graph0" class="graph" transform="scale(1 1) rotate(0) translate(4 89.75)">
<title>Grid</title>
<!-- Node1 -->
<g id="Node000001" class="node">
<title>Node1</title>
<g id="a_Node000001"><a xlink:title=" ">
<polygon fill="#999999" stroke="#666666" points="125.75,-19.25 91.75,-19.25 91.75,0 125.75,0 125.75,-19.25"/>
<text text-anchor="middle" x="108.75" y="-5.75" font-family="Helvetica,sans-Serif" font-size="10.00">Grid</text>
</a>
</g>
</g>
<!-- Node2 -->
<g id="Node000002" class="node">
<title>Node2</title>
<g id="a_Node000002"><a xlink:title=" ">
<polygon fill="white" stroke="#bfbfbf" points="101.5,-85.75 0,-85.75 0,-66.5 101.5,-66.5 101.5,-85.75"/>
<text text-anchor="middle" x="50.75" y="-72.25" font-family="Helvetica,sans-Serif" font-size="10.00">InterpolationMethod</text>
</a>
</g>
</g>
<!-- Node2&#45;&gt;Node1 -->
<g id="edge1_Node000001_Node000002" class="edge">
<title>Node2&#45;&gt;Node1</title>
<g id="a_edge1_Node000001_Node000002"><a xlink:title=" ">
<path fill="none" stroke="#9a32cd" stroke-dasharray="5,2" d="M47.38,-55.24C47.3,-49.05 48.32,-42.48 51.75,-37.25 60.55,-23.82 78.04,-17.04 91.34,-13.69"/>
<polygon fill="#9a32cd" stroke="#9a32cd" points="43.85,-55.14 48.36,-64.73 50.81,-54.42 43.85,-55.14"/>
</a>
</g>
<text text-anchor="middle" x="98.25" y="-39" font-family="Helvetica,sans-Serif" font-size="10.00" fill="grey"> interpolation_method</text>
</g>
<!-- Node3 -->
<g id="Node000003" class="node">
<title>Node3</title>
<g id="a_Node000003"><a xlink:href="structijk.html" target="_top" xlink:title="A structure for holding three values, which typically pertain to the same quantity but for each of th...">
<polygon fill="white" stroke="#666666" points="181.15,-85.75 152.35,-85.75 152.35,-66.5 181.15,-66.5 181.15,-85.75"/>
<text text-anchor="middle" x="166.75" y="-72.25" font-family="Helvetica,sans-Serif" font-size="10.00">ijk</text>
</a>
</g>
</g>
<!-- Node3&#45;&gt;Node1 -->
<g id="edge2_Node000001_Node000003" class="edge">
<title>Node3&#45;&gt;Node1</title>
<g id="a_edge2_Node000001_Node000003"><a xlink:title=" ">
<path fill="none" stroke="#9a32cd" stroke-dasharray="5,2" d="M157.7,-56.12C154.17,-49.75 149.75,-42.84 144.75,-37.25 138.63,-30.42 130.51,-24.22 123.52,-19.54"/>
<polygon fill="#9a32cd" stroke="#9a32cd" points="154.41,-57.38 162.09,-64.69 160.65,-54.19 154.41,-57.38"/>
</a>
</g>
<text text-anchor="middle" x="158.88" y="-39" font-family="Helvetica,sans-Serif" font-size="10.00" fill="grey"> tot</text>
</g>
</g>
</svg>
