<?xml version="1.0" encoding="UTF-8" standalone="no"?>
<!DOCTYPE svg PUBLIC "-//W3C//DTD SVG 1.1//EN"
 "http://www.w3.org/Graphics/SVG/1.1/DTD/svg11.dtd">
<!-- Generated by graphviz version 8.0.5 (20230430.1635)
 -->
<!-- Title: SplitField Pages: 1 -->
<svg width="352pt" height="138pt"
 viewBox="0.00 0.00 352.38 137.75" xmlns="http://www.w3.org/2000/svg" xmlns:xlink="http://www.w3.org/1999/xlink">
<g id="graph0" class="graph" transform="scale(1 1) rotate(0) translate(4 133.75)">
<title>SplitField</title>
<!-- Node1 -->
<g id="node1" class="node">
<title>Node1</title>
<g id="a_node1"><a xlink:title="A split field defined over a grid.">
<polygon fill="#999999" stroke="#666666" points="213.5,-74.5 157,-74.5 157,-55.25 213.5,-55.25 213.5,-74.5"/>
<text text-anchor="middle" x="185.25" y="-61" font-family="Helvetica,sans-Serif" font-size="10.00">SplitField</text>
</a>
</g>
</g>
<!-- Node3 -->
<g id="node3" class="node">
<title>Node3</title>
<g id="a_node3"><a xlink:href="class_current_density_split_field.html" target="_top" xlink:title=" ">
<polygon fill="white" stroke="#bfbfbf" points="122.5,-19.25 0,-19.25 0,0 122.5,0 122.5,-19.25"/>
<text text-anchor="middle" x="61.25" y="-5.75" font-family="Helvetica,sans-Serif" font-size="10.00">CurrentDensitySplitField</text>
</a>
</g>
</g>
<!-- Node1&#45;&gt;Node3 -->
<g id="edge2" class="edge">
<title>Node1&#45;&gt;Node3</title>
<path fill="none" stroke="#63b8ff" d="M154.18,-50.53C131.77,-40.91 102.11,-28.17 82.39,-19.7"/>
<polygon fill="#63b8ff" stroke="#63b8ff" points="152.65,-54.11 163.22,-54.84 155.41,-47.68 152.65,-54.11"/>
</g>
<!-- Node4 -->
<g id="node4" class="node">
<title>Node4</title>
<g id="a_node4"><a xlink:href="class_electric_split_field.html" target="_top" xlink:title=" ">
<polygon fill="white" stroke="#bfbfbf" points="230,-19.25 140.5,-19.25 140.5,0 230,0 230,-19.25"/>
<text text-anchor="middle" x="185.25" y="-5.75" font-family="Helvetica,sans-Serif" font-size="10.00">ElectricSplitField</text>
</a>
</g>
</g>
<!-- Node1&#45;&gt;Node4 -->
<g id="edge3" class="edge">
<title>Node1&#45;&gt;Node4</title>
<path fill="none" stroke="#63b8ff" d="M185.25,-44.21C185.25,-35.77 185.25,-26.33 185.25,-19.61"/>
<polygon fill="#63b8ff" stroke="#63b8ff" points="181.75,-44.08 185.25,-54.08 188.75,-44.08 181.75,-44.08"/>
</g>
<!-- Node5 -->
<g id="node5" class="node">
<title>Node5</title>
<g id="a_node5"><a xlink:href="class_magnetic_split_field.html" target="_top" xlink:title=" ">
<polygon fill="white" stroke="#bfbfbf" points="344.38,-19.25 248.12,-19.25 248.12,0 344.38,0 344.38,-19.25"/>
<text text-anchor="middle" x="296.25" y="-5.75" font-family="Helvetica,sans-Serif" font-size="10.00">MagneticSplitField</text>
</a>
</g>
</g>
<!-- Node1&#45;&gt;Node5 -->
<g id="edge4" class="edge">
<title>Node1&#45;&gt;Node5</title>
<path fill="none" stroke="#63b8ff" d="M213.88,-50.14C233.84,-40.56 259.92,-28.06 277.33,-19.7"/>
<polygon fill="#63b8ff" stroke="#63b8ff" points="212.58,-47.36 205.08,-54.84 215.61,-53.67 212.58,-47.36"/>
</g>
<!-- Node2 -->
<g id="node2" class="node">
<title>Node2</title>
<g id="a_node2"><a xlink:href="class_grid.html" target="_top" xlink:title=" ">
<polygon fill="white" stroke="#666666" points="202.25,-129.75 168.25,-129.75 168.25,-110.5 202.25,-110.5 202.25,-129.75"/>
<text text-anchor="middle" x="185.25" y="-116.25" font-family="Helvetica,sans-Serif" font-size="10.00">Grid</text>
</a>
</g>
</g>
<!-- Node2&#45;&gt;Node1 -->
<g id="edge1" class="edge">
<title>Node2&#45;&gt;Node1</title>
<path fill="none" stroke="#63b8ff" d="M185.25,-99.46C185.25,-91.02 185.25,-81.58 185.25,-74.86"/>
<polygon fill="#63b8ff" stroke="#63b8ff" points="181.75,-99.33 185.25,-109.33 188.75,-99.33 181.75,-99.33"/>
</g>
</g>
</svg>
