<?xml version="1.0" encoding="UTF-8" standalone="no"?>
<!DOCTYPE svg PUBLIC "-//W3C//DTD SVG 1.1//EN"
 "http://www.w3.org/Graphics/SVG/1.1/DTD/svg11.dtd">
<!-- Generated by graphviz version 8.0.2 (20230410.1723)
 -->
<!-- Title: Field Pages: 1 -->
<svg width="186pt" height="170pt"
 viewBox="0.00 0.00 186.00 170.00" xmlns="http://www.w3.org/2000/svg" xmlns:xlink="http://www.w3.org/1999/xlink">
<g id="graph0" class="graph" transform="scale(1 1) rotate(0) translate(4 166)">
<title>Field</title>
<!-- Node1 -->
<g id="node1" class="node">
<title>Node1</title>
<g id="a_node1"><a xlink:title=" ">
<polygon fill="#999999" stroke="#666666" points="109.5,-19 71.5,-19 71.5,0 109.5,0 109.5,-19"/>
<text text-anchor="middle" x="90.5" y="-7" font-family="Helvetica,sans-Serif" font-size="10.00">Field</text>
</a>
</g>
</g>
<!-- Node2 -->
<g id="node2" class="node">
<title>Node2</title>
<g id="a_node2"><a xlink:href="class_grid.html" target="_top" xlink:title=" ">
<polygon fill="white" stroke="#666666" points="35,-96 0,-96 0,-77 35,-77 35,-96"/>
<text text-anchor="middle" x="17.5" y="-84" font-family="Helvetica,sans-Serif" font-size="10.00">Grid</text>
</a>
</g>
</g>
<!-- Node2&#45;&gt;Node1 -->
<g id="edge1" class="edge">
<title>Node2&#45;&gt;Node1</title>
<path fill="none" stroke="#63b8ff" d="M33.64,-68.92C48.5,-53.65 70,-31.56 81.85,-19.39"/>
<polygon fill="#63b8ff" stroke="#63b8ff" points="31.63,-65.99 27.16,-75.6 36.64,-70.88 31.63,-65.99"/>
</g>
<!-- Node3 -->
<g id="node3" class="node">
<title>Node3</title>
<g id="a_node3"><a xlink:href="structijk.html" target="_top" xlink:title="A structure for holding three values, which typically pertain to the same quantity but for each of th...">
<polygon fill="white" stroke="#666666" points="32,-162 3,-162 3,-143 32,-143 32,-162"/>
<text text-anchor="middle" x="17.5" y="-150" font-family="Helvetica,sans-Serif" font-size="10.00">ijk</text>
</a>
</g>
</g>
<!-- Node3&#45;&gt;Node2 -->
<g id="edge2" class="edge">
<title>Node3&#45;&gt;Node2</title>
<path fill="none" stroke="#9a32cd" stroke-dasharray="5,2" d="M17.5,-131.93C17.5,-120.05 17.5,-105.46 17.5,-96.32"/>
<polygon fill="#9a32cd" stroke="#9a32cd" points="14,-131.6 17.5,-141.6 21,-131.6 14,-131.6"/>
<text text-anchor="middle" x="25" y="-117" font-family="Helvetica,sans-Serif" font-size="10.00"> tot</text>
</g>
<!-- Node4 -->
<g id="node4" class="node">
<title>Node4</title>
<g id="a_node4"><a xlink:href="class_x_y_z_tensor3_d.html" target="_top" xlink:title=" ">
<polygon fill="white" stroke="#bfbfbf" points="178,-96 53,-96 53,-77 178,-77 178,-96"/>
<text text-anchor="middle" x="115.5" y="-84" font-family="Helvetica,sans-Serif" font-size="10.00">XYZTensor3D&lt; double &gt;</text>
</a>
</g>
</g>
<!-- Node4&#45;&gt;Node1 -->
<g id="edge3" class="edge">
<title>Node4&#45;&gt;Node1</title>
<path fill="none" stroke="#9a32cd" stroke-dasharray="5,2" d="M109.11,-66.32C104.07,-51.22 97.29,-30.88 93.46,-19.39"/>
<polygon fill="#9a32cd" stroke="#9a32cd" points="106.05,-67.22 112.53,-75.6 112.69,-65.01 106.05,-67.22"/>
<text text-anchor="middle" x="118" y="-51" font-family="Helvetica,sans-Serif" font-size="10.00"> imag</text>
<text text-anchor="middle" x="118" y="-40" font-family="Helvetica,sans-Serif" font-size="10.00">real</text>
</g>
</g>
</svg>
