<?xml version="1.0" encoding="UTF-8" standalone="no"?>
<!DOCTYPE svg PUBLIC "-//W3C//DTD SVG 1.1//EN"
 "http://www.w3.org/Graphics/SVG/1.1/DTD/svg11.dtd">
<!-- Generated by graphviz version 9.0.0 (20230911.1827)
 -->
<!-- Title: Field Pages: 1 -->
<svg width="276pt" height="172pt"
 viewBox="0.00 0.00 275.75 171.50" xmlns="http://www.w3.org/2000/svg" xmlns:xlink="http://www.w3.org/1999/xlink">
<g id="graph0" class="graph" transform="scale(1 1) rotate(0) translate(4 167.5)">
<title>Field</title>
<!-- Node1 -->
<g id="Node000001" class="node">
<title>Node1</title>
<g id="a_Node000001"><a xlink:title=" ">
<polygon fill="#999999" stroke="#666666" points="199.25,-19.25 162.25,-19.25 162.25,0 199.25,0 199.25,-19.25"/>
<text text-anchor="middle" x="180.75" y="-5.75" font-family="Helvetica,sans-Serif" font-size="10.00">Field</text>
</a>
</g>
</g>
<!-- Node2 -->
<g id="Node000002" class="node">
<title>Node2</title>
<g id="a_Node000002"><a xlink:href="class_grid.html" target="_top" xlink:title=" ">
<polygon fill="white" stroke="#666666" points="125.75,-97 91.75,-97 91.75,-77.75 125.75,-77.75 125.75,-97"/>
<text text-anchor="middle" x="108.75" y="-83.5" font-family="Helvetica,sans-Serif" font-size="10.00">Grid</text>
</a>
</g>
</g>
<!-- Node2&#45;&gt;Node1 -->
<g id="edge1_Node000001_Node000002" class="edge">
<title>Node2&#45;&gt;Node1</title>
<g id="a_edge1_Node000001_Node000002"><a xlink:title=" ">
<path fill="none" stroke="#63b8ff" d="M125.07,-69.2C139.72,-53.79 160.64,-31.78 172.22,-19.6"/>
<polygon fill="#63b8ff" stroke="#63b8ff" points="122.69,-66.63 118.33,-76.29 127.76,-71.45 122.69,-66.63"/>
</a>
</g>
</g>
<!-- Node3 -->
<g id="Node000003" class="node">
<title>Node3</title>
<g id="a_Node000003"><a xlink:title=" ">
<polygon fill="white" stroke="#bfbfbf" points="101.5,-163.5 0,-163.5 0,-144.25 101.5,-144.25 101.5,-163.5"/>
<text text-anchor="middle" x="50.75" y="-150" font-family="Helvetica,sans-Serif" font-size="10.00">InterpolationMethod</text>
</a>
</g>
</g>
<!-- Node3&#45;&gt;Node2 -->
<g id="edge2_Node000002_Node000003" class="edge">
<title>Node3&#45;&gt;Node2</title>
<g id="a_edge2_Node000002_Node000003"><a xlink:title=" ">
<path fill="none" stroke="#9a32cd" stroke-dasharray="5,2" d="M47.38,-132.99C47.3,-126.8 48.32,-120.23 51.75,-115 60.55,-101.57 78.04,-94.79 91.34,-91.44"/>
<polygon fill="#9a32cd" stroke="#9a32cd" points="43.85,-132.89 48.36,-142.48 50.81,-132.17 43.85,-132.89"/>
</a>
</g>
<text text-anchor="middle" x="98.25" y="-116.75" font-family="Helvetica,sans-Serif" font-size="10.00" fill="grey"> interpolation_method</text>
</g>
<!-- Node4 -->
<g id="Node000004" class="node">
<title>Node4</title>
<g id="a_Node000004"><a xlink:href="structijk.html" target="_top" xlink:title="A structure for holding three values, which typically pertain to the same quantity but for each of th...">
<polygon fill="white" stroke="#666666" points="181.15,-163.5 152.35,-163.5 152.35,-144.25 181.15,-144.25 181.15,-163.5"/>
<text text-anchor="middle" x="166.75" y="-150" font-family="Helvetica,sans-Serif" font-size="10.00">ijk</text>
</a>
</g>
</g>
<!-- Node4&#45;&gt;Node2 -->
<g id="edge3_Node000002_Node000004" class="edge">
<title>Node4&#45;&gt;Node2</title>
<g id="a_edge3_Node000002_Node000004"><a xlink:title=" ">
<path fill="none" stroke="#9a32cd" stroke-dasharray="5,2" d="M157.7,-133.87C154.17,-127.5 149.75,-120.59 144.75,-115 138.63,-108.17 130.51,-101.97 123.52,-97.29"/>
<polygon fill="#9a32cd" stroke="#9a32cd" points="154.41,-135.13 162.09,-142.44 160.65,-131.94 154.41,-135.13"/>
</a>
</g>
<text text-anchor="middle" x="159.88" y="-116.75" font-family="Helvetica,sans-Serif" font-size="10.00" fill="grey"> tot</text>
</g>
<!-- Node5 -->
<g id="Node000005" class="node">
<title>Node5</title>
<g id="a_Node000005"><a xlink:href="class_x_y_z_tensor3_d.html" target="_top" xlink:title=" ">
<polygon fill="white" stroke="#bfbfbf" points="267.75,-97 143.75,-97 143.75,-77.75 267.75,-77.75 267.75,-97"/>
<text text-anchor="middle" x="205.75" y="-83.5" font-family="Helvetica,sans-Serif" font-size="10.00">XYZTensor3D&lt; double &gt;</text>
</a>
</g>
</g>
<!-- Node5&#45;&gt;Node1 -->
<g id="edge4_Node000001_Node000005" class="edge">
<title>Node5&#45;&gt;Node1</title>
<g id="a_edge4_Node000001_Node000005"><a xlink:title=" ">
<path fill="none" stroke="#9a32cd" stroke-dasharray="5,2" d="M199.21,-66.55C194.19,-51.35 187.51,-31.1 183.71,-19.6"/>
<polygon fill="#9a32cd" stroke="#9a32cd" points="195.85,-67.55 202.31,-75.95 202.5,-65.36 195.85,-67.55"/>
</a>
</g>
<text text-anchor="middle" x="208.75" y="-50.25" font-family="Helvetica,sans-Serif" font-size="10.00" fill="grey"> imag</text>
<text text-anchor="middle" x="208.75" y="-39" font-family="Helvetica,sans-Serif" font-size="10.00" fill="grey">real</text>
</g>
</g>
</svg>
