<?xml version="1.0" encoding="UTF-8" standalone="no"?>
<!DOCTYPE svg PUBLIC "-//W3C//DTD SVG 1.1//EN"
 "http://www.w3.org/Graphics/SVG/1.1/DTD/svg11.dtd">
<!-- Generated by graphviz version 8.0.4 (20230421.1958)
 -->
<!-- Title: FieldSample Pages: 1 -->
<svg width="190pt" height="116pt"
 viewBox="0.00 0.00 190.00 116.25" xmlns="http://www.w3.org/2000/svg" xmlns:xlink="http://www.w3.org/1999/xlink">
<g id="graph0" class="graph" transform="scale(1 1) rotate(0) translate(4 112.25)">
<title>FieldSample</title>
<!-- Node1 -->
<g id="node1" class="node">
<title>Node1</title>
<g id="a_node1"><a xlink:title=" ">
<polygon fill="#999999" stroke="#666666" points="121.5,-19.25 51.5,-19.25 51.5,0 121.5,0 121.5,-19.25"/>
<text text-anchor="middle" x="86.5" y="-5.75" font-family="Helvetica,sans-Serif" font-size="10.00">FieldSample</text>
</a>
</g>
</g>
<!-- Node2 -->
<g id="node2" class="node">
<title>Node2</title>
<g id="a_node2"><a xlink:href="class_vector.html" target="_top" xlink:title=" ">
<polygon fill="white" stroke="#bfbfbf" points="73,-108.25 0,-108.25 0,-89 73,-89 73,-108.25"/>
<text text-anchor="middle" x="36.5" y="-94.75" font-family="Helvetica,sans-Serif" font-size="10.00">Vector&lt; int &gt;</text>
</a>
</g>
</g>
<!-- Node2&#45;&gt;Node1 -->
<g id="edge1" class="edge">
<title>Node2&#45;&gt;Node1</title>
<path fill="none" stroke="#9a32cd" stroke-dasharray="5,2" d="M47.01,-79.33C57.51,-61.07 73.21,-33.74 81.29,-19.69"/>
<polygon fill="#9a32cd" stroke="#9a32cd" points="43.61,-77.23 41.66,-87.64 49.68,-80.72 43.61,-77.23"/>
<text text-anchor="middle" x="73.12" y="-61.5" font-family="Helvetica,sans-Serif" font-size="10.00"> i</text>
<text text-anchor="middle" x="73.12" y="-50.25" font-family="Helvetica,sans-Serif" font-size="10.00">j</text>
<text text-anchor="middle" x="73.12" y="-39" font-family="Helvetica,sans-Serif" font-size="10.00">k</text>
</g>
<!-- Node3 -->
<g id="node3" class="node">
<title>Node3</title>
<g id="a_node3"><a xlink:href="class_vector.html" target="_top" xlink:title=" ">
<polygon fill="white" stroke="#bfbfbf" points="182,-108.25 91,-108.25 91,-89 182,-89 182,-108.25"/>
<text text-anchor="middle" x="136.5" y="-94.75" font-family="Helvetica,sans-Serif" font-size="10.00">Vector&lt; double &gt;</text>
</a>
</g>
</g>
<!-- Node3&#45;&gt;Node1 -->
<g id="edge2" class="edge">
<title>Node3&#45;&gt;Node1</title>
<path fill="none" stroke="#9a32cd" stroke-dasharray="5,2" d="M125.99,-79.33C115.49,-61.07 99.79,-33.74 91.71,-19.69"/>
<polygon fill="#9a32cd" stroke="#9a32cd" points="123.32,-80.72 131.34,-87.64 129.39,-77.23 123.32,-80.72"/>
<text text-anchor="middle" x="123.62" y="-50.25" font-family="Helvetica,sans-Serif" font-size="10.00"> n</text>
</g>
</g>
</svg>
