<?xml version="1.0" encoding="UTF-8" standalone="no"?>
<!DOCTYPE svg PUBLIC "-//W3C//DTD SVG 1.1//EN"
 "http://www.w3.org/Graphics/SVG/1.1/DTD/svg11.dtd">
<!-- Generated by graphviz version 8.0.4 (20230421.1958)
 -->
<!-- Title: MagneticField Pages: 1 -->
<svg width="85pt" height="138pt"
 viewBox="0.00 0.00 84.75 137.75" xmlns="http://www.w3.org/2000/svg" xmlns:xlink="http://www.w3.org/1999/xlink">
<g id="graph0" class="graph" transform="scale(1 1) rotate(0) translate(4 133.75)">
<title>MagneticField</title>
<!-- Node1 -->
<g id="node1" class="node">
<title>Node1</title>
<g id="a_node1"><a xlink:title=" ">
<polygon fill="#999999" stroke="#666666" points="76.75,-19.25 0,-19.25 0,0 76.75,0 76.75,-19.25"/>
<text text-anchor="middle" x="38.38" y="-5.75" font-family="Helvetica,sans-Serif" font-size="10.00">MagneticField</text>
</a>
</g>
</g>
<!-- Node2 -->
<g id="node2" class="node">
<title>Node2</title>
<g id="a_node2"><a xlink:href="class_field.html" target="_top" xlink:title=" ">
<polygon fill="white" stroke="#666666" points="56.88,-74.5 19.88,-74.5 19.88,-55.25 56.88,-55.25 56.88,-74.5"/>
<text text-anchor="middle" x="38.38" y="-61" font-family="Helvetica,sans-Serif" font-size="10.00">Field</text>
</a>
</g>
</g>
<!-- Node2&#45;&gt;Node1 -->
<g id="edge1" class="edge">
<title>Node2&#45;&gt;Node1</title>
<path fill="none" stroke="#63b8ff" d="M38.38,-44.21C38.38,-35.77 38.38,-26.33 38.38,-19.61"/>
<polygon fill="#63b8ff" stroke="#63b8ff" points="34.88,-44.08 38.38,-54.08 41.88,-44.08 34.88,-44.08"/>
</g>
<!-- Node3 -->
<g id="node3" class="node">
<title>Node3</title>
<g id="a_node3"><a xlink:href="class_grid.html" target="_top" xlink:title=" ">
<polygon fill="white" stroke="#666666" points="55.38,-129.75 21.38,-129.75 21.38,-110.5 55.38,-110.5 55.38,-129.75"/>
<text text-anchor="middle" x="38.38" y="-116.25" font-family="Helvetica,sans-Serif" font-size="10.00">Grid</text>
</a>
</g>
</g>
<!-- Node3&#45;&gt;Node2 -->
<g id="edge2" class="edge">
<title>Node3&#45;&gt;Node2</title>
<path fill="none" stroke="#63b8ff" d="M38.38,-99.46C38.38,-91.02 38.38,-81.58 38.38,-74.86"/>
<polygon fill="#63b8ff" stroke="#63b8ff" points="34.88,-99.33 38.38,-109.33 41.88,-99.33 34.88,-99.33"/>
</g>
</g>
</svg>
