<?xml version="1.0" encoding="UTF-8" standalone="no"?>
<!DOCTYPE svg PUBLIC "-//W3C//DTD SVG 1.1//EN"
 "http://www.w3.org/Graphics/SVG/1.1/DTD/svg11.dtd">
<!-- Generated by graphviz version 8.0.5 (20230430.1635)
 -->
<!-- Title: SplitField Pages: 1 -->
<svg width="166pt" height="217pt"
 viewBox="0.00 0.00 166.38 216.50" xmlns="http://www.w3.org/2000/svg" xmlns:xlink="http://www.w3.org/1999/xlink">
<g id="graph0" class="graph" transform="scale(1 1) rotate(0) translate(4 212.5)">
<title>SplitField</title>
<!-- Node1 -->
<g id="node1" class="node">
<title>Node1</title>
<g id="a_node1"><a xlink:title="A split field defined over a grid.">
<polygon fill="#999999" stroke="#666666" points="88.25,-19.25 31.75,-19.25 31.75,0 88.25,0 88.25,-19.25"/>
<text text-anchor="middle" x="60" y="-5.75" font-family="Helvetica,sans-Serif" font-size="10.00">SplitField</text>
</a>
</g>
</g>
<!-- Node2 -->
<g id="node2" class="node">
<title>Node2</title>
<g id="a_node2"><a xlink:href="class_grid.html" target="_top" xlink:title=" ">
<polygon fill="white" stroke="#666666" points="34,-142 0,-142 0,-122.75 34,-122.75 34,-142"/>
<text text-anchor="middle" x="17" y="-128.5" font-family="Helvetica,sans-Serif" font-size="10.00">Grid</text>
</a>
</g>
</g>
<!-- Node2&#45;&gt;Node1 -->
<g id="edge1" class="edge">
<title>Node2&#45;&gt;Node1</title>
<path fill="none" stroke="#63b8ff" d="M23.91,-111.98C33.36,-85.43 49.95,-38.86 56.85,-19.48"/>
<polygon fill="#63b8ff" stroke="#63b8ff" points="20.29,-110.7 20.23,-121.3 26.88,-113.05 20.29,-110.7"/>
</g>
<!-- Node3 -->
<g id="node3" class="node">
<title>Node3</title>
<g id="a_node3"><a xlink:href="structijk.html" target="_top" xlink:title="A structure for holding three values, which typically pertain to the same quantity but for each of th...">
<polygon fill="white" stroke="#666666" points="31.4,-208.5 2.6,-208.5 2.6,-189.25 31.4,-189.25 31.4,-208.5"/>
<text text-anchor="middle" x="17" y="-195" font-family="Helvetica,sans-Serif" font-size="10.00">ijk</text>
</a>
</g>
</g>
<!-- Node3&#45;&gt;Node2 -->
<g id="edge2" class="edge">
<title>Node3&#45;&gt;Node2</title>
<path fill="none" stroke="#9a32cd" stroke-dasharray="5,2" d="M17,-178.15C17,-166.18 17,-151.48 17,-142.27"/>
<polygon fill="#9a32cd" stroke="#9a32cd" points="13.5,-177.91 17,-187.91 20.5,-177.91 13.5,-177.91"/>
<text text-anchor="middle" x="24.12" y="-161.75" font-family="Helvetica,sans-Serif" font-size="10.00"> tot</text>
</g>
<!-- Node4 -->
<g id="node4" class="node">
<title>Node4</title>
<g id="a_node4"><a xlink:href="class_split_field_component.html" target="_top" xlink:title=" ">
<polygon fill="white" stroke="#bfbfbf" points="158.38,-142 51.63,-142 51.63,-122.75 158.38,-122.75 158.38,-142"/>
<text text-anchor="middle" x="105" y="-128.5" font-family="Helvetica,sans-Serif" font-size="10.00">SplitFieldComponent</text>
</a>
</g>
</g>
<!-- Node4&#45;&gt;Node1 -->
<g id="edge3" class="edge">
<title>Node4&#45;&gt;Node1</title>
<path fill="none" stroke="#9a32cd" stroke-dasharray="5,2" d="M97.91,-112.34C88.03,-85.85 70.55,-38.95 63.3,-19.48"/>
<polygon fill="#9a32cd" stroke="#9a32cd" points="94.85,-113.15 101.62,-121.3 101.41,-110.71 94.85,-113.15"/>
<text text-anchor="middle" x="101.75" y="-95.25" font-family="Helvetica,sans-Serif" font-size="10.00"> xy</text>
<text text-anchor="middle" x="101.75" y="-84" font-family="Helvetica,sans-Serif" font-size="10.00">xz</text>
<text text-anchor="middle" x="101.75" y="-72.75" font-family="Helvetica,sans-Serif" font-size="10.00">yx</text>
<text text-anchor="middle" x="101.75" y="-61.5" font-family="Helvetica,sans-Serif" font-size="10.00">yz</text>
<text text-anchor="middle" x="101.75" y="-50.25" font-family="Helvetica,sans-Serif" font-size="10.00">zx</text>
<text text-anchor="middle" x="101.75" y="-39" font-family="Helvetica,sans-Serif" font-size="10.00">zy</text>
</g>
<!-- Node5 -->
<g id="node5" class="node">
<title>Node5</title>
<g id="a_node5"><a xlink:href="class_tensor3_d.html" target="_top" xlink:title=" ">
<polygon fill="white" stroke="#bfbfbf" points="157.25,-208.5 52.75,-208.5 52.75,-189.25 157.25,-189.25 157.25,-208.5"/>
<text text-anchor="middle" x="105" y="-195" font-family="Helvetica,sans-Serif" font-size="10.00">Tensor3D&lt; double &gt;</text>
</a>
</g>
</g>
<!-- Node5&#45;&gt;Node4 -->
<g id="edge4" class="edge">
<title>Node5&#45;&gt;Node4</title>
<path fill="none" stroke="#63b8ff" d="M105,-178.15C105,-166.18 105,-151.48 105,-142.27"/>
<polygon fill="#63b8ff" stroke="#63b8ff" points="101.5,-177.91 105,-187.91 108.5,-177.91 101.5,-177.91"/>
</g>
</g>
</svg>
