<?xml version="1.0" encoding="UTF-8" standalone="no"?>
<!DOCTYPE svg PUBLIC "-//W3C//DTD SVG 1.1//EN"
 "http://www.w3.org/Graphics/SVG/1.1/DTD/svg11.dtd">
<!-- Generated by graphviz version 13.1.0 (20250701.0955)
 -->
<!-- Title: Field Pages: 1 -->
<svg width="184pt" height="188pt"
 viewBox="0.00 0.00 184.00 188.00" xmlns="http://www.w3.org/2000/svg" xmlns:xlink="http://www.w3.org/1999/xlink">
<g id="graph0" class="graph" transform="scale(1 1) rotate(0) translate(4 183.5)">
<title>Field</title>
<!-- Node1 -->
<g id="Node000001" class="node">
<title>Node1</title>
<g id="a_Node000001"><a xlink:title=" ">
<polygon fill="#999999" stroke="#666666" points="107.5,-19.25 70.5,-19.25 70.5,0 107.5,0 107.5,-19.25"/>
<text xml:space="preserve" text-anchor="middle" x="89" y="-5.75" font-family="Helvetica,sans-Serif" font-size="10.00">Field</text>
</a>
</g>
</g>
<!-- Node2 -->
<g id="Node000002" class="node">
<title>Node2</title>
<g id="a_Node000002"><a xlink:href="class_grid.html" target="_top" xlink:title=" ">
<polygon fill="white" stroke="#666666" points="34,-107 0,-107 0,-87.75 34,-87.75 34,-107"/>
<text xml:space="preserve" text-anchor="middle" x="17" y="-93.5" font-family="Helvetica,sans-Serif" font-size="10.00">Grid</text>
</a>
</g>
</g>
<!-- Node2&#45;&gt;Node1 -->
<g id="edge1_Node000001_Node000002" class="edge">
<title>Node2&#45;&gt;Node1</title>
<g id="a_edge1_Node000001_Node000002"><a xlink:title=" ">
<path fill="none" stroke="#63b8ff" d="M31.51,-79.1C46.62,-61.1 69.71,-33.6 81.5,-19.56"/>
<polygon fill="#63b8ff" stroke="#63b8ff" points="29.16,-76.45 25.41,-86.36 34.52,-80.95 29.16,-76.45"/>
</a>
</g>
</g>
<!-- Node3 -->
<g id="Node000003" class="node">
<title>Node3</title>
<g id="a_Node000003"><a xlink:href="structijk.html" target="_top" xlink:title="A structure for holding three values, which typically pertain to the same quantity but for each of th...">
<polygon fill="white" stroke="#666666" points="31.4,-179.5 2.6,-179.5 2.6,-160.25 31.4,-160.25 31.4,-179.5"/>
<text xml:space="preserve" text-anchor="middle" x="17" y="-166" font-family="Helvetica,sans-Serif" font-size="10.00">ijk</text>
</a>
</g>
</g>
<!-- Node3&#45;&gt;Node2 -->
<g id="edge2_Node000002_Node000003" class="edge">
<title>Node3&#45;&gt;Node2</title>
<g id="a_edge2_Node000002_Node000003"><a xlink:title=" ">
<path fill="none" stroke="#9a32cd" stroke-dasharray="5,2" d="M17,-148.8C17,-135.19 17,-117.85 17,-107.45"/>
<polygon fill="#9a32cd" stroke="#9a32cd" points="13.5,-148.43 17,-158.43 20.5,-148.43 13.5,-148.43"/>
</a>
</g>
<text xml:space="preserve" text-anchor="start" x="20" y="-129.75" font-family="Helvetica,sans-Serif" font-size="10.00" fill="grey">tot</text>
</g>
<!-- Node4 -->
<g id="Node000004" class="node">
<title>Node4</title>
<g id="a_Node000004"><a xlink:href="class_x_y_z_tensor3_d.html" target="_top" xlink:title=" ">
<polygon fill="white" stroke="#bfbfbf" points="176,-107 52,-107 52,-87.75 176,-87.75 176,-107"/>
<text xml:space="preserve" text-anchor="middle" x="114" y="-93.5" font-family="Helvetica,sans-Serif" font-size="10.00">XYZTensor3D&lt; double &gt;</text>
</a>
</g>
</g>
<!-- Node4&#45;&gt;Node1 -->
<g id="edge3_Node000001_Node000004" class="edge">
<title>Node4&#45;&gt;Node1</title>
<g id="a_edge3_Node000001_Node000004"><a xlink:title=" ">
<path fill="none" stroke="#9a32cd" stroke-dasharray="5,2" d="M108.22,-76.56C102.99,-58.6 95.51,-32.96 91.6,-19.56"/>
<polygon fill="#9a32cd" stroke="#9a32cd" points="104.84,-77.45 111,-86.07 111.56,-75.49 104.84,-77.45"/>
</a>
</g>
<text xml:space="preserve" text-anchor="start" x="108.91" y="-57.25" font-family="Helvetica,sans-Serif" font-size="10.00" fill="grey">imag</text>
<text xml:space="preserve" text-anchor="start" x="108.91" y="-42" font-family="Helvetica,sans-Serif" font-size="10.00" fill="grey">real</text>
</g>
</g>
</svg>
