<?xml version="1.0" encoding="UTF-8" standalone="no"?>
<!DOCTYPE svg PUBLIC "-//W3C//DTD SVG 1.1//EN"
 "http://www.w3.org/Graphics/SVG/1.1/DTD/svg11.dtd">
<!-- Generated by graphviz version 8.0.4 (20230421.1958)
 -->
<!-- Title: ElectricField Pages: 1 -->
<svg width="184pt" height="228pt"
 viewBox="0.00 0.00 184.00 227.75" xmlns="http://www.w3.org/2000/svg" xmlns:xlink="http://www.w3.org/1999/xlink">
<g id="graph0" class="graph" transform="scale(1 1) rotate(0) translate(4 223.75)">
<title>ElectricField</title>
<!-- Node1 -->
<g id="node1" class="node">
<title>Node1</title>
<g id="a_node1"><a xlink:title=" ">
<polygon fill="#999999" stroke="#666666" points="124,-19.25 54,-19.25 54,0 124,0 124,-19.25"/>
<text text-anchor="middle" x="89" y="-5.75" font-family="Helvetica,sans-Serif" font-size="10.00">ElectricField</text>
</a>
</g>
</g>
<!-- Node2 -->
<g id="node2" class="node">
<title>Node2</title>
<g id="a_node2"><a xlink:href="class_field.html" target="_top" xlink:title=" ">
<polygon fill="white" stroke="#666666" points="107.5,-75.5 70.5,-75.5 70.5,-56.25 107.5,-56.25 107.5,-75.5"/>
<text text-anchor="middle" x="89" y="-62" font-family="Helvetica,sans-Serif" font-size="10.00">Field</text>
</a>
</g>
</g>
<!-- Node2&#45;&gt;Node1 -->
<g id="edge1" class="edge">
<title>Node2&#45;&gt;Node1</title>
<path fill="none" stroke="#63b8ff" d="M89,-44.99C89,-36.2 89,-26.32 89,-19.42"/>
<polygon fill="#63b8ff" stroke="#63b8ff" points="85.5,-44.92 89,-54.92 92.5,-44.92 85.5,-44.92"/>
</g>
<!-- Node3 -->
<g id="node3" class="node">
<title>Node3</title>
<g id="a_node3"><a xlink:href="class_grid.html" target="_top" xlink:title=" ">
<polygon fill="white" stroke="#666666" points="34,-153.25 0,-153.25 0,-134 34,-134 34,-153.25"/>
<text text-anchor="middle" x="17" y="-139.75" font-family="Helvetica,sans-Serif" font-size="10.00">Grid</text>
</a>
</g>
</g>
<!-- Node3&#45;&gt;Node2 -->
<g id="edge2" class="edge">
<title>Node3&#45;&gt;Node2</title>
<path fill="none" stroke="#63b8ff" d="M32.91,-125.88C47.58,-110.45 68.78,-88.14 80.47,-75.85"/>
<polygon fill="#63b8ff" stroke="#63b8ff" points="30.89,-122.98 26.54,-132.64 35.97,-127.8 30.89,-122.98"/>
</g>
<!-- Node4 -->
<g id="node4" class="node">
<title>Node4</title>
<g id="a_node4"><a xlink:href="structijk.html" target="_top" xlink:title="A structure for holding three values, which typically pertain to the same quantity but for each of th...">
<polygon fill="white" stroke="#666666" points="31.4,-219.75 2.6,-219.75 2.6,-200.5 31.4,-200.5 31.4,-219.75"/>
<text text-anchor="middle" x="17" y="-206.25" font-family="Helvetica,sans-Serif" font-size="10.00">ijk</text>
</a>
</g>
</g>
<!-- Node4&#45;&gt;Node3 -->
<g id="edge3" class="edge">
<title>Node4&#45;&gt;Node3</title>
<path fill="none" stroke="#9a32cd" stroke-dasharray="5,2" d="M17,-189.4C17,-177.43 17,-162.73 17,-153.52"/>
<polygon fill="#9a32cd" stroke="#9a32cd" points="13.5,-189.16 17,-199.16 20.5,-189.16 13.5,-189.16"/>
<text text-anchor="middle" x="24.12" y="-173" font-family="Helvetica,sans-Serif" font-size="10.00"> tot</text>
</g>
<!-- Node5 -->
<g id="node5" class="node">
<title>Node5</title>
<g id="a_node5"><a xlink:href="class_x_y_z_tensor3_d.html" target="_top" xlink:title=" ">
<polygon fill="white" stroke="#bfbfbf" points="176,-153.25 52,-153.25 52,-134 176,-134 176,-153.25"/>
<text text-anchor="middle" x="114" y="-139.75" font-family="Helvetica,sans-Serif" font-size="10.00">XYZTensor3D&lt; double &gt;</text>
</a>
</g>
</g>
<!-- Node5&#45;&gt;Node2 -->
<g id="edge4" class="edge">
<title>Node5&#45;&gt;Node2</title>
<path fill="none" stroke="#9a32cd" stroke-dasharray="5,2" d="M107.61,-123.25C102.57,-108.01 95.79,-87.46 91.96,-75.85"/>
<polygon fill="#9a32cd" stroke="#9a32cd" points="104.58,-124.24 111.03,-132.64 111.22,-122.04 104.58,-124.24"/>
<text text-anchor="middle" x="117" y="-106.5" font-family="Helvetica,sans-Serif" font-size="10.00"> imag</text>
<text text-anchor="middle" x="117" y="-95.25" font-family="Helvetica,sans-Serif" font-size="10.00">real</text>
</g>
</g>
</svg>
