<?xml version="1.0" encoding="UTF-8" standalone="no"?>
<!DOCTYPE svg PUBLIC "-//W3C//DTD SVG 1.1//EN"
 "http://www.w3.org/Graphics/SVG/1.1/DTD/svg11.dtd">
<!-- Generated by graphviz version 8.0.2 (20230410.1723)
 -->
<!-- Title: SplitField Pages: 1 -->
<svg width="355pt" height="137pt"
 viewBox="0.00 0.00 355.00 137.00" xmlns="http://www.w3.org/2000/svg" xmlns:xlink="http://www.w3.org/1999/xlink">
<g id="graph0" class="graph" transform="scale(1 1) rotate(0) translate(4 133)">
<title>SplitField</title>
<!-- Node1 -->
<g id="node1" class="node">
<title>Node1</title>
<g id="a_node1"><a xlink:title="A split field defined over a grid.">
<polygon fill="#999999" stroke="#666666" points="215,-74 158,-74 158,-55 215,-55 215,-74"/>
<text text-anchor="middle" x="186.5" y="-62" font-family="Helvetica,sans-Serif" font-size="10.00">SplitField</text>
</a>
</g>
</g>
<!-- Node3 -->
<g id="node3" class="node">
<title>Node3</title>
<g id="a_node3"><a xlink:href="class_current_density_split_field.html" target="_top" xlink:title=" ">
<polygon fill="white" stroke="#bfbfbf" points="123,-19 0,-19 0,0 123,0 123,-19"/>
<text text-anchor="middle" x="61.5" y="-7" font-family="Helvetica,sans-Serif" font-size="10.00">CurrentDensitySplitField</text>
</a>
</g>
</g>
<!-- Node1&#45;&gt;Node3 -->
<g id="edge2" class="edge">
<title>Node1&#45;&gt;Node3</title>
<path fill="none" stroke="#63b8ff" d="M155.42,-50.32C132.64,-40.67 102.34,-27.82 82.39,-19.36"/>
<polygon fill="#63b8ff" stroke="#63b8ff" points="153.72,-53.83 164.3,-54.51 156.46,-47.38 153.72,-53.83"/>
</g>
<!-- Node4 -->
<g id="node4" class="node">
<title>Node4</title>
<g id="a_node4"><a xlink:href="class_electric_split_field.html" target="_top" xlink:title=" ">
<polygon fill="white" stroke="#bfbfbf" points="231.5,-19 141.5,-19 141.5,0 231.5,0 231.5,-19"/>
<text text-anchor="middle" x="186.5" y="-7" font-family="Helvetica,sans-Serif" font-size="10.00">ElectricSplitField</text>
</a>
</g>
</g>
<!-- Node1&#45;&gt;Node4 -->
<g id="edge3" class="edge">
<title>Node1&#45;&gt;Node4</title>
<path fill="none" stroke="#63b8ff" d="M186.5,-43.93C186.5,-35.53 186.5,-26.13 186.5,-19.44"/>
<polygon fill="#63b8ff" stroke="#63b8ff" points="183,-43.75 186.5,-53.75 190,-43.75 183,-43.75"/>
</g>
<!-- Node5 -->
<g id="node5" class="node">
<title>Node5</title>
<g id="a_node5"><a xlink:href="class_magnetic_split_field.html" target="_top" xlink:title=" ">
<polygon fill="white" stroke="#bfbfbf" points="347,-19 250,-19 250,0 347,0 347,-19"/>
<text text-anchor="middle" x="298.5" y="-7" font-family="Helvetica,sans-Serif" font-size="10.00">MagneticSplitField</text>
</a>
</g>
</g>
<!-- Node1&#45;&gt;Node5 -->
<g id="edge4" class="edge">
<title>Node1&#45;&gt;Node5</title>
<path fill="none" stroke="#63b8ff" d="M215.18,-49.93C235.49,-40.32 262.15,-27.7 279.78,-19.36"/>
<polygon fill="#63b8ff" stroke="#63b8ff" points="214.04,-47.07 206.5,-54.51 217.04,-53.4 214.04,-47.07"/>
</g>
<!-- Node2 -->
<g id="node2" class="node">
<title>Node2</title>
<g id="a_node2"><a xlink:href="class_grid.html" target="_top" xlink:title=" ">
<polygon fill="white" stroke="#666666" points="204,-129 169,-129 169,-110 204,-110 204,-129"/>
<text text-anchor="middle" x="186.5" y="-117" font-family="Helvetica,sans-Serif" font-size="10.00">Grid</text>
</a>
</g>
</g>
<!-- Node2&#45;&gt;Node1 -->
<g id="edge1" class="edge">
<title>Node2&#45;&gt;Node1</title>
<path fill="none" stroke="#63b8ff" d="M186.5,-98.93C186.5,-90.53 186.5,-81.13 186.5,-74.44"/>
<polygon fill="#63b8ff" stroke="#63b8ff" points="183,-98.75 186.5,-108.75 190,-98.75 183,-98.75"/>
</g>
</g>
</svg>
