<?xml version="1.0" encoding="UTF-8" standalone="no"?>
<!DOCTYPE svg PUBLIC "-//W3C//DTD SVG 1.1//EN"
 "http://www.w3.org/Graphics/SVG/1.1/DTD/svg11.dtd">
<!-- Generated by graphviz version 13.0.1 (20250615.1724)
 -->
<!-- Title: MagneticField Pages: 1 -->
<svg width="184pt" height="244pt"
 viewBox="0.00 0.00 184.00 244.00" xmlns="http://www.w3.org/2000/svg" xmlns:xlink="http://www.w3.org/1999/xlink">
<g id="graph0" class="graph" transform="scale(1 1) rotate(0) translate(4 239.75)">
<title>MagneticField</title>
<!-- Node1 -->
<g id="Node000001" class="node">
<title>Node1</title>
<g id="a_Node000001"><a xlink:title=" ">
<polygon fill="#999999" stroke="#666666" points="127.38,-19.25 50.62,-19.25 50.62,0 127.38,0 127.38,-19.25"/>
<text xml:space="preserve" text-anchor="middle" x="89" y="-5.75" font-family="Helvetica,sans-Serif" font-size="10.00">MagneticField</text>
</a>
</g>
</g>
<!-- Node2 -->
<g id="Node000002" class="node">
<title>Node2</title>
<g id="a_Node000002"><a xlink:href="class_field.html" target="_top" xlink:title=" ">
<polygon fill="white" stroke="#666666" points="107.5,-75.5 70.5,-75.5 70.5,-56.25 107.5,-56.25 107.5,-75.5"/>
<text xml:space="preserve" text-anchor="middle" x="89" y="-62" font-family="Helvetica,sans-Serif" font-size="10.00">Field</text>
</a>
</g>
</g>
<!-- Node2&#45;&gt;Node1 -->
<g id="edge1_Node000001_Node000002" class="edge">
<title>Node2&#45;&gt;Node1</title>
<g id="a_edge1_Node000001_Node000002"><a xlink:title=" ">
<path fill="none" stroke="#63b8ff" d="M89,-44.69C89,-35.98 89,-26.24 89,-19.42"/>
<polygon fill="#63b8ff" stroke="#63b8ff" points="85.5,-44.4 89,-54.4 92.5,-44.4 85.5,-44.4"/>
</a>
</g>
</g>
<!-- Node3 -->
<g id="Node000003" class="node">
<title>Node3</title>
<g id="a_Node000003"><a xlink:href="class_grid.html" target="_top" xlink:title=" ">
<polygon fill="white" stroke="#666666" points="34,-163.25 0,-163.25 0,-144 34,-144 34,-163.25"/>
<text xml:space="preserve" text-anchor="middle" x="17" y="-149.75" font-family="Helvetica,sans-Serif" font-size="10.00">Grid</text>
</a>
</g>
</g>
<!-- Node3&#45;&gt;Node2 -->
<g id="edge2_Node000002_Node000003" class="edge">
<title>Node3&#45;&gt;Node2</title>
<g id="a_edge2_Node000002_Node000003"><a xlink:title=" ">
<path fill="none" stroke="#63b8ff" d="M31.51,-135.35C46.62,-117.35 69.71,-89.85 81.5,-75.81"/>
<polygon fill="#63b8ff" stroke="#63b8ff" points="29.16,-132.7 25.41,-142.61 34.52,-137.2 29.16,-132.7"/>
</a>
</g>
</g>
<!-- Node4 -->
<g id="Node000004" class="node">
<title>Node4</title>
<g id="a_Node000004"><a xlink:href="structijk.html" target="_top" xlink:title="A structure for holding three values, which typically pertain to the same quantity but for each of th...">
<polygon fill="white" stroke="#666666" points="31.4,-235.75 2.6,-235.75 2.6,-216.5 31.4,-216.5 31.4,-235.75"/>
<text xml:space="preserve" text-anchor="middle" x="17" y="-222.25" font-family="Helvetica,sans-Serif" font-size="10.00">ijk</text>
</a>
</g>
</g>
<!-- Node4&#45;&gt;Node3 -->
<g id="edge3_Node000003_Node000004" class="edge">
<title>Node4&#45;&gt;Node3</title>
<g id="a_edge3_Node000003_Node000004"><a xlink:title=" ">
<path fill="none" stroke="#9a32cd" stroke-dasharray="5,2" d="M17,-205.05C17,-191.44 17,-174.1 17,-163.7"/>
<polygon fill="#9a32cd" stroke="#9a32cd" points="13.5,-204.68 17,-214.68 20.5,-204.68 13.5,-204.68"/>
</a>
</g>
<text xml:space="preserve" text-anchor="start" x="20" y="-186" font-family="Helvetica,sans-Serif" font-size="10.00" fill="grey">tot</text>
</g>
<!-- Node5 -->
<g id="Node000005" class="node">
<title>Node5</title>
<g id="a_Node000005"><a xlink:href="class_x_y_z_tensor3_d.html" target="_top" xlink:title=" ">
<polygon fill="white" stroke="#bfbfbf" points="176,-163.25 52,-163.25 52,-144 176,-144 176,-163.25"/>
<text xml:space="preserve" text-anchor="middle" x="114" y="-149.75" font-family="Helvetica,sans-Serif" font-size="10.00">XYZTensor3D&lt; double &gt;</text>
</a>
</g>
</g>
<!-- Node5&#45;&gt;Node2 -->
<g id="edge4_Node000002_Node000005" class="edge">
<title>Node5&#45;&gt;Node2</title>
<g id="a_edge4_Node000002_Node000005"><a xlink:title=" ">
<path fill="none" stroke="#9a32cd" stroke-dasharray="5,2" d="M108.22,-132.81C102.99,-114.85 95.51,-89.21 91.6,-75.81"/>
<polygon fill="#9a32cd" stroke="#9a32cd" points="104.84,-133.7 111,-142.32 111.56,-131.74 104.84,-133.7"/>
</a>
</g>
<text xml:space="preserve" text-anchor="start" x="108.91" y="-113.5" font-family="Helvetica,sans-Serif" font-size="10.00" fill="grey">imag</text>
<text xml:space="preserve" text-anchor="start" x="108.91" y="-98.25" font-family="Helvetica,sans-Serif" font-size="10.00" fill="grey">real</text>
</g>
</g>
</svg>
