<?xml version="1.0" encoding="UTF-8" standalone="no"?>
<!DOCTYPE svg PUBLIC "-//W3C//DTD SVG 1.1//EN"
 "http://www.w3.org/Graphics/SVG/1.1/DTD/svg11.dtd">
<!-- Generated by graphviz version 8.0.5 (20230430.1635)
 -->
<!-- Title: VertexPhasors Pages: 1 -->
<svg width="129pt" height="150pt"
 viewBox="0.00 0.00 129.00 150.00" xmlns="http://www.w3.org/2000/svg" xmlns:xlink="http://www.w3.org/1999/xlink">
<g id="graph0" class="graph" transform="scale(1 1) rotate(0) translate(4 146)">
<title>VertexPhasors</title>
<!-- Node1 -->
<g id="node1" class="node">
<title>Node1</title>
<g id="a_node1"><a xlink:title=" ">
<polygon fill="#999999" stroke="#666666" points="100.75,-19.25 20.25,-19.25 20.25,0 100.75,0 100.75,-19.25"/>
<text text-anchor="middle" x="60.5" y="-5.75" font-family="Helvetica,sans-Serif" font-size="10.00">VertexPhasors</text>
</a>
</g>
</g>
<!-- Node2 -->
<g id="node2" class="node">
<title>Node2</title>
<g id="a_node2"><a xlink:href="class_field_components_vector.html" target="_top" xlink:title=" ">
<polygon fill="white" stroke="#666666" points="121,-85.75 0,-85.75 0,-66.5 121,-66.5 121,-85.75"/>
<text text-anchor="middle" x="60.5" y="-72.25" font-family="Helvetica,sans-Serif" font-size="10.00">FieldComponentsVector</text>
</a>
</g>
</g>
<!-- Node2&#45;&gt;Node1 -->
<g id="edge1" class="edge">
<title>Node2&#45;&gt;Node1</title>
<path fill="none" stroke="#9a32cd" stroke-dasharray="5,2" d="M60.5,-55.4C60.5,-43.43 60.5,-28.73 60.5,-19.52"/>
<polygon fill="#9a32cd" stroke="#9a32cd" points="57,-55.16 60.5,-65.16 64,-55.16 57,-55.16"/>
<text text-anchor="middle" x="88.62" y="-39" font-family="Helvetica,sans-Serif" font-size="10.00"> components</text>
</g>
<!-- Node3 -->
<g id="node3" class="node">
<title>Node3</title>
<g id="a_node3"><a xlink:href="class_vector.html" target="_top" xlink:title=" ">
<polygon fill="white" stroke="#bfbfbf" points="97,-142 24,-142 24,-122.75 97,-122.75 97,-142"/>
<text text-anchor="middle" x="60.5" y="-128.5" font-family="Helvetica,sans-Serif" font-size="10.00">Vector&lt; int &gt;</text>
</a>
</g>
</g>
<!-- Node3&#45;&gt;Node2 -->
<g id="edge2" class="edge">
<title>Node3&#45;&gt;Node2</title>
<path fill="none" stroke="#63b8ff" d="M60.5,-111.49C60.5,-102.7 60.5,-92.82 60.5,-85.92"/>
<polygon fill="#63b8ff" stroke="#63b8ff" points="57,-111.42 60.5,-121.42 64,-111.42 57,-111.42"/>
</g>
</g>
</svg>
