<?xml version="1.0" encoding="UTF-8" standalone="no"?>
<!DOCTYPE svg PUBLIC "-//W3C//DTD SVG 1.1//EN"
 "http://www.w3.org/Graphics/SVG/1.1/DTD/svg11.dtd">
<!-- Generated by graphviz version 8.0.5 (20230430.1635)
 -->
<!-- Title: HDF5Writer Pages: 1 -->
<svg width="87pt" height="150pt"
 viewBox="0.00 0.00 86.88 150.00" xmlns="http://www.w3.org/2000/svg" xmlns:xlink="http://www.w3.org/1999/xlink">
<g id="graph0" class="graph" transform="scale(1 1) rotate(0) translate(4 146)">
<title>HDF5Writer</title>
<!-- Node1 -->
<g id="node1" class="node">
<title>Node1</title>
<g id="a_node1"><a xlink:title=" ">
<polygon fill="#999999" stroke="#666666" points="67.75,-19.25 0,-19.25 0,0 67.75,0 67.75,-19.25"/>
<text text-anchor="middle" x="33.88" y="-5.75" font-family="Helvetica,sans-Serif" font-size="10.00">HDF5Writer</text>
</a>
</g>
</g>
<!-- Node2 -->
<g id="node2" class="node">
<title>Node2</title>
<g id="a_node2"><a xlink:href="class_h_d_f5_base.html" target="_top" xlink:title="The base class for HDF5 I/O.">
<polygon fill="white" stroke="#666666" points="66.25,-75.5 1.5,-75.5 1.5,-56.25 66.25,-56.25 66.25,-75.5"/>
<text text-anchor="middle" x="33.88" y="-62" font-family="Helvetica,sans-Serif" font-size="10.00">HDF5Base</text>
</a>
</g>
</g>
<!-- Node2&#45;&gt;Node1 -->
<g id="edge1" class="edge">
<title>Node2&#45;&gt;Node1</title>
<path fill="none" stroke="#63b8ff" d="M33.88,-44.99C33.88,-36.2 33.88,-26.32 33.88,-19.42"/>
<polygon fill="#63b8ff" stroke="#63b8ff" points="30.38,-44.92 33.88,-54.92 37.38,-44.92 30.38,-44.92"/>
</g>
<!-- Node3 -->
<g id="node3" class="node">
<title>Node3</title>
<g id="a_node3"><a xlink:title=" ">
<polygon fill="white" stroke="#bfbfbf" points="53.88,-142 13.88,-142 13.88,-122.75 53.88,-122.75 53.88,-142"/>
<text text-anchor="middle" x="33.88" y="-128.5" font-family="Helvetica,sans-Serif" font-size="10.00">string</text>
</a>
</g>
</g>
<!-- Node3&#45;&gt;Node2 -->
<g id="edge2" class="edge">
<title>Node3&#45;&gt;Node2</title>
<path fill="none" stroke="#9a32cd" stroke-dasharray="5,2" d="M33.88,-111.65C33.88,-99.68 33.88,-84.98 33.88,-75.77"/>
<polygon fill="#9a32cd" stroke="#9a32cd" points="30.38,-111.41 33.88,-121.41 37.38,-111.41 30.38,-111.41"/>
<text text-anchor="middle" x="56.38" y="-95.25" font-family="Helvetica,sans-Serif" font-size="10.00"> filename_</text>
</g>
</g>
</svg>
