<?xml version="1.0" encoding="UTF-8" standalone="no"?>
<!DOCTYPE svg PUBLIC "-//W3C//DTD SVG 1.1//EN"
 "http://www.w3.org/Graphics/SVG/1.1/DTD/svg11.dtd">
<!-- Generated by graphviz version 8.0.5 (20230430.1635)
 -->
<!-- Title: CCollection Pages: 1 -->
<svg width="98pt" height="173pt"
 viewBox="0.00 0.00 97.50 172.50" xmlns="http://www.w3.org/2000/svg" xmlns:xlink="http://www.w3.org/1999/xlink">
<g id="graph0" class="graph" transform="scale(1 1) rotate(0) translate(4 168.5)">
<title>CCollection</title>
<!-- Node1 -->
<g id="node1" class="node">
<title>Node1</title>
<g id="a_node1"><a xlink:title="A class to encapsulate collection of algebraic terms in the discretized forms of Maxwells equations f...">
<polygon fill="#999999" stroke="#666666" points="78.25,-19.25 11.25,-19.25 11.25,0 78.25,0 78.25,-19.25"/>
<text text-anchor="middle" x="44.75" y="-5.75" font-family="Helvetica,sans-Serif" font-size="10.00">CCollection</text>
</a>
</g>
</g>
<!-- Node2 -->
<g id="node2" class="node">
<title>Node2</title>
<g id="a_node2"><a xlink:href="class_c_collection_base.html" target="_top" xlink:title="A class to encapsulate collection of algebraic terms in the discretized forms of Maxwells equations f...">
<polygon fill="white" stroke="#666666" points="89.5,-75.5 0,-75.5 0,-56.25 89.5,-56.25 89.5,-75.5"/>
<text text-anchor="middle" x="44.75" y="-62" font-family="Helvetica,sans-Serif" font-size="10.00">CCollectionBase</text>
</a>
</g>
</g>
<!-- Node2&#45;&gt;Node1 -->
<g id="edge1" class="edge">
<title>Node2&#45;&gt;Node1</title>
<path fill="none" stroke="#63b8ff" d="M44.75,-44.99C44.75,-36.2 44.75,-26.32 44.75,-19.42"/>
<polygon fill="#63b8ff" stroke="#63b8ff" points="41.25,-44.92 44.75,-54.92 48.25,-44.92 41.25,-44.92"/>
</g>
<!-- Node3 -->
<g id="node3" class="node">
<title>Node3</title>
<g id="a_node3"><a xlink:href="class_x_y_z_vectors.html" target="_top" xlink:title=" ">
<polygon fill="white" stroke="#bfbfbf" points="79.38,-164.5 10.12,-164.5 10.12,-145.25 79.38,-145.25 79.38,-164.5"/>
<text text-anchor="middle" x="44.75" y="-151" font-family="Helvetica,sans-Serif" font-size="10.00">XYZVectors</text>
</a>
</g>
</g>
<!-- Node3&#45;&gt;Node2 -->
<g id="edge2" class="edge">
<title>Node3&#45;&gt;Node2</title>
<path fill="none" stroke="#9a32cd" stroke-dasharray="5,2" d="M44.75,-134.03C44.75,-115.8 44.75,-89.6 44.75,-75.94"/>
<polygon fill="#9a32cd" stroke="#9a32cd" points="41.25,-133.89 44.75,-143.89 48.25,-133.89 41.25,-133.89"/>
<text text-anchor="middle" x="48.88" y="-117.75" font-family="Helvetica,sans-Serif" font-size="10.00"> a</text>
<text text-anchor="middle" x="48.88" y="-106.5" font-family="Helvetica,sans-Serif" font-size="10.00">b</text>
<text text-anchor="middle" x="48.88" y="-95.25" font-family="Helvetica,sans-Serif" font-size="10.00">c</text>
</g>
</g>
</svg>
