<?xml version="1.0" encoding="UTF-8" standalone="no"?>
<!DOCTYPE svg PUBLIC "-//W3C//DTD SVG 1.1//EN"
 "http://www.w3.org/Graphics/SVG/1.1/DTD/svg11.dtd">
<!-- Generated by graphviz version 8.0.5 (20230430.1635)
 -->
<!-- Title: MagneticSplitField Pages: 1 -->
<svg width="166pt" height="273pt"
 viewBox="0.00 0.00 166.38 272.75" xmlns="http://www.w3.org/2000/svg" xmlns:xlink="http://www.w3.org/1999/xlink">
<g id="graph0" class="graph" transform="scale(1 1) rotate(0) translate(4 268.75)">
<title>MagneticSplitField</title>
<!-- Node1 -->
<g id="node1" class="node">
<title>Node1</title>
<g id="a_node1"><a xlink:title=" ">
<polygon fill="#999999" stroke="#666666" points="108.12,-19.25 11.88,-19.25 11.88,0 108.12,0 108.12,-19.25"/>
<text text-anchor="middle" x="60" y="-5.75" font-family="Helvetica,sans-Serif" font-size="10.00">MagneticSplitField</text>
</a>
</g>
</g>
<!-- Node2 -->
<g id="node2" class="node">
<title>Node2</title>
<g id="a_node2"><a xlink:href="class_split_field.html" target="_top" xlink:title="A split field defined over a grid.">
<polygon fill="white" stroke="#666666" points="88.25,-75.5 31.75,-75.5 31.75,-56.25 88.25,-56.25 88.25,-75.5"/>
<text text-anchor="middle" x="60" y="-62" font-family="Helvetica,sans-Serif" font-size="10.00">SplitField</text>
</a>
</g>
</g>
<!-- Node2&#45;&gt;Node1 -->
<g id="edge1" class="edge">
<title>Node2&#45;&gt;Node1</title>
<path fill="none" stroke="#63b8ff" d="M60,-44.99C60,-36.2 60,-26.32 60,-19.42"/>
<polygon fill="#63b8ff" stroke="#63b8ff" points="56.5,-44.92 60,-54.92 63.5,-44.92 56.5,-44.92"/>
</g>
<!-- Node3 -->
<g id="node3" class="node">
<title>Node3</title>
<g id="a_node3"><a xlink:href="class_grid.html" target="_top" xlink:title=" ">
<polygon fill="white" stroke="#666666" points="34,-198.25 0,-198.25 0,-179 34,-179 34,-198.25"/>
<text text-anchor="middle" x="17" y="-184.75" font-family="Helvetica,sans-Serif" font-size="10.00">Grid</text>
</a>
</g>
</g>
<!-- Node3&#45;&gt;Node2 -->
<g id="edge2" class="edge">
<title>Node3&#45;&gt;Node2</title>
<path fill="none" stroke="#63b8ff" d="M23.91,-168.23C33.36,-141.68 49.95,-95.11 56.85,-75.73"/>
<polygon fill="#63b8ff" stroke="#63b8ff" points="20.29,-166.95 20.23,-177.55 26.88,-169.3 20.29,-166.95"/>
</g>
<!-- Node4 -->
<g id="node4" class="node">
<title>Node4</title>
<g id="a_node4"><a xlink:href="structijk.html" target="_top" xlink:title="A structure for holding three values, which typically pertain to the same quantity but for each of th...">
<polygon fill="white" stroke="#666666" points="31.4,-264.75 2.6,-264.75 2.6,-245.5 31.4,-245.5 31.4,-264.75"/>
<text text-anchor="middle" x="17" y="-251.25" font-family="Helvetica,sans-Serif" font-size="10.00">ijk</text>
</a>
</g>
</g>
<!-- Node4&#45;&gt;Node3 -->
<g id="edge3" class="edge">
<title>Node4&#45;&gt;Node3</title>
<path fill="none" stroke="#9a32cd" stroke-dasharray="5,2" d="M17,-234.4C17,-222.43 17,-207.73 17,-198.52"/>
<polygon fill="#9a32cd" stroke="#9a32cd" points="13.5,-234.16 17,-244.16 20.5,-234.16 13.5,-234.16"/>
<text text-anchor="middle" x="24.12" y="-218" font-family="Helvetica,sans-Serif" font-size="10.00"> tot</text>
</g>
<!-- Node5 -->
<g id="node5" class="node">
<title>Node5</title>
<g id="a_node5"><a xlink:href="class_split_field_component.html" target="_top" xlink:title=" ">
<polygon fill="white" stroke="#bfbfbf" points="158.38,-198.25 51.63,-198.25 51.63,-179 158.38,-179 158.38,-198.25"/>
<text text-anchor="middle" x="105" y="-184.75" font-family="Helvetica,sans-Serif" font-size="10.00">SplitFieldComponent</text>
</a>
</g>
</g>
<!-- Node5&#45;&gt;Node2 -->
<g id="edge4" class="edge">
<title>Node5&#45;&gt;Node2</title>
<path fill="none" stroke="#9a32cd" stroke-dasharray="5,2" d="M97.91,-168.59C88.03,-142.1 70.55,-95.2 63.3,-75.73"/>
<polygon fill="#9a32cd" stroke="#9a32cd" points="94.85,-169.4 101.62,-177.55 101.41,-166.96 94.85,-169.4"/>
<text text-anchor="middle" x="101.75" y="-151.5" font-family="Helvetica,sans-Serif" font-size="10.00"> xy</text>
<text text-anchor="middle" x="101.75" y="-140.25" font-family="Helvetica,sans-Serif" font-size="10.00">xz</text>
<text text-anchor="middle" x="101.75" y="-129" font-family="Helvetica,sans-Serif" font-size="10.00">yx</text>
<text text-anchor="middle" x="101.75" y="-117.75" font-family="Helvetica,sans-Serif" font-size="10.00">yz</text>
<text text-anchor="middle" x="101.75" y="-106.5" font-family="Helvetica,sans-Serif" font-size="10.00">zx</text>
<text text-anchor="middle" x="101.75" y="-95.25" font-family="Helvetica,sans-Serif" font-size="10.00">zy</text>
</g>
<!-- Node6 -->
<g id="node6" class="node">
<title>Node6</title>
<g id="a_node6"><a xlink:href="class_tensor3_d.html" target="_top" xlink:title=" ">
<polygon fill="white" stroke="#bfbfbf" points="157.25,-264.75 52.75,-264.75 52.75,-245.5 157.25,-245.5 157.25,-264.75"/>
<text text-anchor="middle" x="105" y="-251.25" font-family="Helvetica,sans-Serif" font-size="10.00">Tensor3D&lt; double &gt;</text>
</a>
</g>
</g>
<!-- Node6&#45;&gt;Node5 -->
<g id="edge5" class="edge">
<title>Node6&#45;&gt;Node5</title>
<path fill="none" stroke="#63b8ff" d="M105,-234.4C105,-222.43 105,-207.73 105,-198.52"/>
<polygon fill="#63b8ff" stroke="#63b8ff" points="101.5,-234.16 105,-244.16 108.5,-234.16 101.5,-234.16"/>
</g>
</g>
</svg>
