<?xml version="1.0" encoding="UTF-8" standalone="no"?>
<!DOCTYPE svg PUBLIC "-//W3C//DTD SVG 1.1//EN"
 "http://www.w3.org/Graphics/SVG/1.1/DTD/svg11.dtd">
<!-- Generated by graphviz version 8.0.2 (20230410.1723)
 -->
<!-- Title: VertexPhasors Pages: 1 -->
<svg width="211pt" height="149pt"
 viewBox="0.00 0.00 211.00 149.00" xmlns="http://www.w3.org/2000/svg" xmlns:xlink="http://www.w3.org/1999/xlink">
<g id="graph0" class="graph" transform="scale(1 1) rotate(0) translate(4 145)">
<title>VertexPhasors</title>
<!-- Node1 -->
<g id="node1" class="node">
<title>Node1</title>
<g id="a_node1"><a xlink:title=" ">
<polygon fill="#999999" stroke="#666666" points="128.5,-19 47.5,-19 47.5,0 128.5,0 128.5,-19"/>
<text text-anchor="middle" x="88" y="-7" font-family="Helvetica,sans-Serif" font-size="10.00">VertexPhasors</text>
</a>
</g>
</g>
<!-- Node2 -->
<g id="node2" class="node">
<title>Node2</title>
<g id="a_node2"><a xlink:href="class_vertices.html" target="_top" xlink:title=" ">
<polygon fill="white" stroke="#bfbfbf" points="62.5,-85 9.5,-85 9.5,-66 62.5,-66 62.5,-85"/>
<text text-anchor="middle" x="36" y="-73" font-family="Helvetica,sans-Serif" font-size="10.00">Vertices</text>
</a>
</g>
</g>
<!-- Node2&#45;&gt;Node1 -->
<g id="edge1" class="edge">
<title>Node2&#45;&gt;Node1</title>
<path fill="none" stroke="#9a32cd" stroke-dasharray="5,2" d="M50.12,-57.12C60.06,-44.89 72.94,-29.04 80.83,-19.32"/>
<polygon fill="#9a32cd" stroke="#9a32cd" points="46.82,-54.63 43.23,-64.6 52.25,-59.05 46.82,-54.63"/>
<text text-anchor="middle" x="85" y="-40" font-family="Helvetica,sans-Serif" font-size="10.00"> vertices</text>
</g>
<!-- Node3 -->
<g id="node3" class="node">
<title>Node3</title>
<g id="a_node3"><a xlink:href="class_matrix.html" target="_top" xlink:title=" ">
<polygon fill="white" stroke="#bfbfbf" points="72,-141 0,-141 0,-122 72,-122 72,-141"/>
<text text-anchor="middle" x="36" y="-129" font-family="Helvetica,sans-Serif" font-size="10.00">Matrix&lt; int &gt;</text>
</a>
</g>
</g>
<!-- Node3&#45;&gt;Node2 -->
<g id="edge2" class="edge">
<title>Node3&#45;&gt;Node2</title>
<path fill="none" stroke="#63b8ff" d="M36,-110.71C36,-101.96 36,-92.12 36,-85.25"/>
<polygon fill="#63b8ff" stroke="#63b8ff" points="32.5,-110.58 36,-120.58 39.5,-110.58 32.5,-110.58"/>
</g>
<!-- Node4 -->
<g id="node4" class="node">
<title>Node4</title>
<g id="a_node4"><a xlink:href="class_field_components_vector.html" target="_top" xlink:title=" ">
<polygon fill="white" stroke="#666666" points="203,-85 81,-85 81,-66 203,-66 203,-85"/>
<text text-anchor="middle" x="142" y="-73" font-family="Helvetica,sans-Serif" font-size="10.00">FieldComponentsVector</text>
</a>
</g>
</g>
<!-- Node4&#45;&gt;Node1 -->
<g id="edge3" class="edge">
<title>Node4&#45;&gt;Node1</title>
<path fill="none" stroke="#9a32cd" stroke-dasharray="5,2" d="M127.64,-57.48C117.28,-45.2 103.72,-29.13 95.44,-19.32"/>
<polygon fill="#9a32cd" stroke="#9a32cd" points="125.37,-59.22 134.49,-64.6 130.72,-54.7 125.37,-59.22"/>
<text text-anchor="middle" x="147.5" y="-40" font-family="Helvetica,sans-Serif" font-size="10.00"> components</text>
</g>
<!-- Node5 -->
<g id="node5" class="node">
<title>Node5</title>
<g id="a_node5"><a xlink:href="class_vector.html" target="_top" xlink:title=" ">
<polygon fill="white" stroke="#bfbfbf" points="179,-141 105,-141 105,-122 179,-122 179,-141"/>
<text text-anchor="middle" x="142" y="-129" font-family="Helvetica,sans-Serif" font-size="10.00">Vector&lt; int &gt;</text>
</a>
</g>
</g>
<!-- Node5&#45;&gt;Node4 -->
<g id="edge4" class="edge">
<title>Node5&#45;&gt;Node4</title>
<path fill="none" stroke="#63b8ff" d="M142,-110.71C142,-101.96 142,-92.12 142,-85.25"/>
<polygon fill="#63b8ff" stroke="#63b8ff" points="138.5,-110.58 142,-120.58 145.5,-110.58 138.5,-110.58"/>
</g>
</g>
</svg>
