<?xml version="1.0" encoding="UTF-8" standalone="no"?>
<!DOCTYPE svg PUBLIC "-//W3C//DTD SVG 1.1//EN"
 "http://www.w3.org/Graphics/SVG/1.1/DTD/svg11.dtd">
<!-- Generated by graphviz version 8.0.5 (20230430.1635)
 -->
<!-- Title: Grid Pages: 1 -->
<svg width="293pt" height="175pt"
 viewBox="0.00 0.00 293.00 175.25" xmlns="http://www.w3.org/2000/svg" xmlns:xlink="http://www.w3.org/1999/xlink">
<g id="graph0" class="graph" transform="scale(1 1) rotate(0) translate(4 171.25)">
<title>Grid</title>
<!-- Node1 -->
<g id="node1" class="node">
<title>Node1</title>
<g id="a_node1"><a xlink:title=" ">
<polygon fill="#999999" stroke="#666666" points="34,-93.25 0,-93.25 0,-74 34,-74 34,-93.25"/>
<text text-anchor="middle" x="17" y="-79.75" font-family="Helvetica,sans-Serif" font-size="10.00">Grid</text>
</a>
</g>
</g>
<!-- Node2 -->
<g id="node2" class="node">
<title>Node2</title>
<g id="a_node2"><a xlink:href="class_field.html" target="_top" xlink:title=" ">
<polygon fill="white" stroke="#666666" points="116.75,-130.25 79.75,-130.25 79.75,-111 116.75,-111 116.75,-130.25"/>
<text text-anchor="middle" x="98.25" y="-116.75" font-family="Helvetica,sans-Serif" font-size="10.00">Field</text>
</a>
</g>
</g>
<!-- Node1&#45;&gt;Node2 -->
<g id="edge1" class="edge">
<title>Node1&#45;&gt;Node2</title>
<path fill="none" stroke="#63b8ff" d="M44.05,-95.79C55.66,-101.21 69.04,-107.45 79.47,-112.33"/>
<polygon fill="#63b8ff" stroke="#63b8ff" points="45.96,-92.35 35.42,-91.29 43,-98.69 45.96,-92.35"/>
</g>
<!-- Node5 -->
<g id="node5" class="node">
<title>Node5</title>
<g id="a_node5"><a xlink:href="class_split_field.html" target="_top" xlink:title="A split field defined over a grid.">
<polygon fill="white" stroke="#666666" points="126.5,-75.25 70,-75.25 70,-56 126.5,-56 126.5,-75.25"/>
<text text-anchor="middle" x="98.25" y="-61.75" font-family="Helvetica,sans-Serif" font-size="10.00">SplitField</text>
</a>
</g>
</g>
<!-- Node1&#45;&gt;Node5 -->
<g id="edge4" class="edge">
<title>Node1&#45;&gt;Node5</title>
<path fill="none" stroke="#63b8ff" d="M44.99,-77.49C52.93,-75.69 61.63,-73.71 69.62,-71.9"/>
<polygon fill="#63b8ff" stroke="#63b8ff" points="44.4,-74.27 35.42,-79.9 45.95,-81.09 44.4,-74.27"/>
</g>
<!-- Node3 -->
<g id="node3" class="node">
<title>Node3</title>
<g id="a_node3"><a xlink:href="class_electric_field.html" target="_top" xlink:title=" ">
<polygon fill="white" stroke="#bfbfbf" points="258.75,-167.25 188.75,-167.25 188.75,-148 258.75,-148 258.75,-167.25"/>
<text text-anchor="middle" x="223.75" y="-153.75" font-family="Helvetica,sans-Serif" font-size="10.00">ElectricField</text>
</a>
</g>
</g>
<!-- Node2&#45;&gt;Node3 -->
<g id="edge2" class="edge">
<title>Node2&#45;&gt;Node3</title>
<path fill="none" stroke="#63b8ff" d="M127.51,-129.12C138.44,-132.41 151.05,-136.19 162.5,-139.62 171.08,-142.19 180.34,-144.96 188.97,-147.54"/>
<polygon fill="#63b8ff" stroke="#63b8ff" points="128.83,-125.56 118.24,-126.04 126.81,-132.27 128.83,-125.56"/>
</g>
<!-- Node4 -->
<g id="node4" class="node">
<title>Node4</title>
<g id="a_node4"><a xlink:href="class_magnetic_field.html" target="_top" xlink:title=" ">
<polygon fill="white" stroke="#bfbfbf" points="262.12,-130.25 185.38,-130.25 185.38,-111 262.12,-111 262.12,-130.25"/>
<text text-anchor="middle" x="223.75" y="-116.75" font-family="Helvetica,sans-Serif" font-size="10.00">MagneticField</text>
</a>
</g>
</g>
<!-- Node2&#45;&gt;Node4 -->
<g id="edge3" class="edge">
<title>Node2&#45;&gt;Node4</title>
<path fill="none" stroke="#63b8ff" d="M128.08,-120.62C145.01,-120.62 166.6,-120.62 184.88,-120.62"/>
<polygon fill="#63b8ff" stroke="#63b8ff" points="128.21,-117.13 118.21,-120.62 128.21,-124.13 128.21,-117.13"/>
</g>
<!-- Node6 -->
<g id="node6" class="node">
<title>Node6</title>
<g id="a_node6"><a xlink:href="class_current_density_split_field.html" target="_top" xlink:title=" ">
<polygon fill="white" stroke="#bfbfbf" points="285,-93.25 162.5,-93.25 162.5,-74 285,-74 285,-93.25"/>
<text text-anchor="middle" x="223.75" y="-79.75" font-family="Helvetica,sans-Serif" font-size="10.00">CurrentDensitySplitField</text>
</a>
</g>
</g>
<!-- Node5&#45;&gt;Node6 -->
<g id="edge5" class="edge">
<title>Node5&#45;&gt;Node6</title>
<path fill="none" stroke="#63b8ff" d="M137.8,-71.24C145.52,-72.37 153.8,-73.58 162.06,-74.78"/>
<polygon fill="#63b8ff" stroke="#63b8ff" points="138.37,-67.64 127.97,-69.66 137.36,-74.57 138.37,-67.64"/>
</g>
<!-- Node7 -->
<g id="node7" class="node">
<title>Node7</title>
<g id="a_node7"><a xlink:href="class_electric_split_field.html" target="_top" xlink:title=" ">
<polygon fill="white" stroke="#bfbfbf" points="268.5,-56.25 179,-56.25 179,-37 268.5,-37 268.5,-56.25"/>
<text text-anchor="middle" x="223.75" y="-42.75" font-family="Helvetica,sans-Serif" font-size="10.00">ElectricSplitField</text>
</a>
</g>
</g>
<!-- Node5&#45;&gt;Node7 -->
<g id="edge6" class="edge">
<title>Node5&#45;&gt;Node7</title>
<path fill="none" stroke="#63b8ff" d="M137.47,-59.75C150.5,-57.74 165.18,-55.48 178.64,-53.41"/>
<polygon fill="#63b8ff" stroke="#63b8ff" points="137.32,-56.38 127.97,-61.36 138.38,-63.3 137.32,-56.38"/>
</g>
<!-- Node8 -->
<g id="node8" class="node">
<title>Node8</title>
<g id="a_node8"><a xlink:href="class_magnetic_split_field.html" target="_top" xlink:title=" ">
<polygon fill="white" stroke="#bfbfbf" points="271.88,-19.25 175.62,-19.25 175.62,0 271.88,0 271.88,-19.25"/>
<text text-anchor="middle" x="223.75" y="-5.75" font-family="Helvetica,sans-Serif" font-size="10.00">MagneticSplitField</text>
</a>
</g>
</g>
<!-- Node5&#45;&gt;Node8 -->
<g id="edge7" class="edge">
<title>Node5&#45;&gt;Node8</title>
<path fill="none" stroke="#63b8ff" d="M122.53,-49.72C134.16,-42.27 148.67,-33.73 162.5,-27.62 169.19,-24.67 176.51,-22.03 183.66,-19.74"/>
<polygon fill="#63b8ff" stroke="#63b8ff" points="120.95,-47.22 114.51,-55.63 124.79,-53.07 120.95,-47.22"/>
</g>
</g>
</svg>
