<?xml version="1.0" encoding="UTF-8" standalone="no"?>
<!DOCTYPE svg PUBLIC "-//W3C//DTD SVG 1.1//EN"
 "http://www.w3.org/Graphics/SVG/1.1/DTD/svg11.dtd">
<!-- Generated by graphviz version 13.1.2 (20250808.2320)
 -->
<!-- Title: FieldSample Pages: 1 -->
<svg width="190pt" height="130pt"
 viewBox="0.00 0.00 190.00 130.00" xmlns="http://www.w3.org/2000/svg" xmlns:xlink="http://www.w3.org/1999/xlink">
<g id="graph0" class="graph" transform="scale(1 1) rotate(0) translate(4 126.25)">
<title>FieldSample</title>
<!-- Node1 -->
<g id="Node000001" class="node">
<title>Node1</title>
<g id="a_Node000001"><a xlink:title=" ">
<polygon fill="#999999" stroke="#666666" points="121.5,-19.25 51.5,-19.25 51.5,0 121.5,0 121.5,-19.25"/>
<text xml:space="preserve" text-anchor="middle" x="86.5" y="-5.75" font-family="Helvetica,sans-Serif" font-size="10.00">FieldSample</text>
</a>
</g>
</g>
<!-- Node2 -->
<g id="Node000002" class="node">
<title>Node2</title>
<g id="a_Node000002"><a xlink:href="class_vector.html" target="_top" xlink:title=" ">
<polygon fill="white" stroke="#bfbfbf" points="73,-122.25 0,-122.25 0,-103 73,-103 73,-122.25"/>
<text xml:space="preserve" text-anchor="middle" x="36.5" y="-108.75" font-family="Helvetica,sans-Serif" font-size="10.00">Vector&lt; int &gt;</text>
</a>
</g>
</g>
<!-- Node2&#45;&gt;Node1 -->
<g id="edge1_Node000001_Node000002" class="edge">
<title>Node2&#45;&gt;Node1</title>
<g id="a_edge1_Node000001_Node000002"><a xlink:title=" ">
<path fill="none" stroke="#9a32cd" stroke-dasharray="5,2" d="M45.9,-92.63C56.68,-70.86 73.89,-36.09 82,-19.71"/>
<polygon fill="#9a32cd" stroke="#9a32cd" points="42.91,-90.79 41.61,-101.31 49.18,-93.9 42.91,-90.79"/>
</a>
</g>
<text xml:space="preserve" text-anchor="start" x="76.09" y="-72.5" font-family="Helvetica,sans-Serif" font-size="10.00" fill="grey">i</text>
<text xml:space="preserve" text-anchor="start" x="76.09" y="-57.25" font-family="Helvetica,sans-Serif" font-size="10.00" fill="grey">j</text>
<text xml:space="preserve" text-anchor="start" x="76.09" y="-42" font-family="Helvetica,sans-Serif" font-size="10.00" fill="grey">k</text>
</g>
<!-- Node3 -->
<g id="Node000003" class="node">
<title>Node3</title>
<g id="a_Node000003"><a xlink:href="class_vector.html" target="_top" xlink:title=" ">
<polygon fill="white" stroke="#bfbfbf" points="182,-122.25 91,-122.25 91,-103 182,-103 182,-122.25"/>
<text xml:space="preserve" text-anchor="middle" x="136.5" y="-108.75" font-family="Helvetica,sans-Serif" font-size="10.00">Vector&lt; double &gt;</text>
</a>
</g>
</g>
<!-- Node3&#45;&gt;Node1 -->
<g id="edge2_Node000001_Node000003" class="edge">
<title>Node3&#45;&gt;Node1</title>
<g id="a_edge2_Node000001_Node000003"><a xlink:title=" ">
<path fill="none" stroke="#9a32cd" stroke-dasharray="5,2" d="M127.1,-92.63C116.32,-70.86 99.11,-36.09 91,-19.71"/>
<polygon fill="#9a32cd" stroke="#9a32cd" points="123.82,-93.9 131.39,-101.31 130.09,-90.79 123.82,-93.9"/>
</a>
</g>
<text xml:space="preserve" text-anchor="start" x="126.09" y="-57.25" font-family="Helvetica,sans-Serif" font-size="10.00" fill="grey">n</text>
</g>
</g>
</svg>
