<?xml version="1.0" encoding="UTF-8" standalone="no"?>
<!DOCTYPE svg PUBLIC "-//W3C//DTD SVG 1.1//EN"
 "http://www.w3.org/Graphics/SVG/1.1/DTD/svg11.dtd">
<!-- Generated by graphviz version 8.0.5 (20230430.1635)
 -->
<!-- Title: HDF5Base Pages: 1 -->
<svg width="168pt" height="83pt"
 viewBox="0.00 0.00 167.75 82.50" xmlns="http://www.w3.org/2000/svg" xmlns:xlink="http://www.w3.org/1999/xlink">
<g id="graph0" class="graph" transform="scale(1 1) rotate(0) translate(4 78.5)">
<title>HDF5Base</title>
<!-- Node1 -->
<g id="node1" class="node">
<title>Node1</title>
<g id="a_node1"><a xlink:title="The base class for HDF5 I/O.">
<polygon fill="#999999" stroke="#666666" points="113.25,-74.5 48.5,-74.5 48.5,-55.25 113.25,-55.25 113.25,-74.5"/>
<text text-anchor="middle" x="80.88" y="-61" font-family="Helvetica,sans-Serif" font-size="10.00">HDF5Base</text>
</a>
</g>
</g>
<!-- Node2 -->
<g id="node2" class="node">
<title>Node2</title>
<g id="a_node2"><a xlink:href="class_h_d_f5_reader.html" target="_top" xlink:title="Class wrapper of the reading of HDF5 format files.">
<polygon fill="white" stroke="#666666" points="73.75,-19.25 0,-19.25 0,0 73.75,0 73.75,-19.25"/>
<text text-anchor="middle" x="36.88" y="-5.75" font-family="Helvetica,sans-Serif" font-size="10.00">HDF5Reader</text>
</a>
</g>
</g>
<!-- Node1&#45;&gt;Node2 -->
<g id="edge1" class="edge">
<title>Node1&#45;&gt;Node2</title>
<path fill="none" stroke="#63b8ff" d="M66.76,-46.79C59.29,-37.75 50.42,-27.02 44.3,-19.61"/>
<polygon fill="#63b8ff" stroke="#63b8ff" points="64.54,-48.6 73.61,-54.08 69.94,-44.14 64.54,-48.6"/>
</g>
<!-- Node3 -->
<g id="node3" class="node">
<title>Node3</title>
<g id="a_node3"><a xlink:href="class_h_d_f5_writer.html" target="_top" xlink:title=" ">
<polygon fill="white" stroke="#bfbfbf" points="159.75,-19.25 92,-19.25 92,0 159.75,0 159.75,-19.25"/>
<text text-anchor="middle" x="125.88" y="-5.75" font-family="Helvetica,sans-Serif" font-size="10.00">HDF5Writer</text>
</a>
</g>
</g>
<!-- Node1&#45;&gt;Node3 -->
<g id="edge2" class="edge">
<title>Node1&#45;&gt;Node3</title>
<path fill="none" stroke="#63b8ff" d="M95.31,-46.79C102.95,-37.75 112.02,-27.02 118.28,-19.61"/>
<polygon fill="#63b8ff" stroke="#63b8ff" points="92.09,-44.18 88.31,-54.08 97.43,-48.7 92.09,-44.18"/>
</g>
</g>
</svg>
