<?xml version="1.0" encoding="UTF-8" standalone="no"?>
<!DOCTYPE svg PUBLIC "-//W3C//DTD SVG 1.1//EN"
 "http://www.w3.org/Graphics/SVG/1.1/DTD/svg11.dtd">
<!-- Generated by graphviz version 12.2.1 (20241206.2353)
 -->
<!-- Title: CurrentDensitySplitField Pages: 1 -->
<svg width="168pt" height="305pt"
 viewBox="0.00 0.00 167.62 304.75" xmlns="http://www.w3.org/2000/svg" xmlns:xlink="http://www.w3.org/1999/xlink">
<g id="graph0" class="graph" transform="scale(1 1) rotate(0) translate(4 300.75)">
<title>CurrentDensitySplitField</title>
<!-- Node1 -->
<g id="Node000001" class="node">
<title>Node1</title>
<g id="a_Node000001"><a xlink:title=" ">
<polygon fill="#999999" stroke="#666666" points="122.5,-19.25 0,-19.25 0,0 122.5,0 122.5,-19.25"/>
<text text-anchor="middle" x="61.25" y="-5.75" font-family="Helvetica,sans-Serif" font-size="10.00">CurrentDensitySplitField</text>
</a>
</g>
</g>
<!-- Node2 -->
<g id="Node000002" class="node">
<title>Node2</title>
<g id="a_Node000002"><a xlink:href="class_split_field.html" target="_top" xlink:title="A split field defined over a grid.">
<polygon fill="white" stroke="#666666" points="89.5,-75.5 33,-75.5 33,-56.25 89.5,-56.25 89.5,-75.5"/>
<text text-anchor="middle" x="61.25" y="-62" font-family="Helvetica,sans-Serif" font-size="10.00">SplitField</text>
</a>
</g>
</g>
<!-- Node2&#45;&gt;Node1 -->
<g id="edge1_Node000001_Node000002" class="edge">
<title>Node2&#45;&gt;Node1</title>
<g id="a_edge1_Node000001_Node000002"><a xlink:title=" ">
<path fill="none" stroke="#63b8ff" d="M61.25,-44.69C61.25,-35.98 61.25,-26.24 61.25,-19.42"/>
<polygon fill="#63b8ff" stroke="#63b8ff" points="57.75,-44.4 61.25,-54.4 64.75,-44.4 57.75,-44.4"/>
</a>
</g>
</g>
<!-- Node3 -->
<g id="Node000003" class="node">
<title>Node3</title>
<g id="a_Node000003"><a xlink:href="class_grid.html" target="_top" xlink:title=" ">
<polygon fill="white" stroke="#666666" points="35.25,-224.25 1.25,-224.25 1.25,-205 35.25,-205 35.25,-224.25"/>
<text text-anchor="middle" x="18.25" y="-210.75" font-family="Helvetica,sans-Serif" font-size="10.00">Grid</text>
</a>
</g>
</g>
<!-- Node3&#45;&gt;Node2 -->
<g id="edge2_Node000002_Node000003" class="edge">
<title>Node3&#45;&gt;Node2</title>
<g id="a_edge2_Node000002_Node000003"><a xlink:title=" ">
<path fill="none" stroke="#63b8ff" d="M23.93,-194.23C33.35,-162.08 51.84,-99 58.65,-75.76"/>
<polygon fill="#63b8ff" stroke="#63b8ff" points="20.69,-192.85 21.24,-203.43 27.41,-194.82 20.69,-192.85"/>
</a>
</g>
</g>
<!-- Node4 -->
<g id="Node000004" class="node">
<title>Node4</title>
<g id="a_Node000004"><a xlink:href="structijk.html" target="_top" xlink:title="A structure for holding three values, which typically pertain to the same quantity but for each of th...">
<polygon fill="white" stroke="#666666" points="32.65,-296.75 3.85,-296.75 3.85,-277.5 32.65,-277.5 32.65,-296.75"/>
<text text-anchor="middle" x="18.25" y="-283.25" font-family="Helvetica,sans-Serif" font-size="10.00">ijk</text>
</a>
</g>
</g>
<!-- Node4&#45;&gt;Node3 -->
<g id="edge3_Node000003_Node000004" class="edge">
<title>Node4&#45;&gt;Node3</title>
<g id="a_edge3_Node000003_Node000004"><a xlink:title=" ">
<path fill="none" stroke="#9a32cd" stroke-dasharray="5,2" d="M18.25,-266.05C18.25,-252.44 18.25,-235.1 18.25,-224.7"/>
<polygon fill="#9a32cd" stroke="#9a32cd" points="14.75,-265.68 18.25,-275.68 21.75,-265.68 14.75,-265.68"/>
</a>
</g>
<text text-anchor="start" x="21.25" y="-247" font-family="Helvetica,sans-Serif" font-size="10.00" fill="grey">tot</text>
</g>
<!-- Node5 -->
<g id="Node000005" class="node">
<title>Node5</title>
<g id="a_Node000005"><a xlink:href="class_split_field_component.html" target="_top" xlink:title=" ">
<polygon fill="white" stroke="#bfbfbf" points="159.62,-224.25 52.88,-224.25 52.88,-205 159.62,-205 159.62,-224.25"/>
<text text-anchor="middle" x="106.25" y="-210.75" font-family="Helvetica,sans-Serif" font-size="10.00">SplitFieldComponent</text>
</a>
</g>
</g>
<!-- Node5&#45;&gt;Node2 -->
<g id="edge4_Node000002_Node000005" class="edge">
<title>Node5&#45;&gt;Node2</title>
<g id="a_edge4_Node000002_Node000005"><a xlink:title=" ">
<path fill="none" stroke="#9a32cd" stroke-dasharray="5,2" d="M100.3,-194.23C90.44,-162.08 71.1,-99 63.97,-75.76"/>
<polygon fill="#9a32cd" stroke="#9a32cd" points="96.85,-194.9 103.13,-203.44 103.54,-192.85 96.85,-194.9"/>
</a>
</g>
<text text-anchor="start" x="100.64" y="-174.5" font-family="Helvetica,sans-Serif" font-size="10.00" fill="grey">xy</text>
<text text-anchor="start" x="100.64" y="-159.25" font-family="Helvetica,sans-Serif" font-size="10.00" fill="grey">xz</text>
<text text-anchor="start" x="100.64" y="-144" font-family="Helvetica,sans-Serif" font-size="10.00" fill="grey">yx</text>
<text text-anchor="start" x="100.64" y="-128.75" font-family="Helvetica,sans-Serif" font-size="10.00" fill="grey">yz</text>
<text text-anchor="start" x="100.64" y="-113.5" font-family="Helvetica,sans-Serif" font-size="10.00" fill="grey">zx</text>
<text text-anchor="start" x="100.64" y="-98.25" font-family="Helvetica,sans-Serif" font-size="10.00" fill="grey">zy</text>
</g>
<!-- Node6 -->
<g id="Node000006" class="node">
<title>Node6</title>
<g id="a_Node000006"><a xlink:title=" ">
<polygon fill="white" stroke="#bfbfbf" points="158.5,-296.75 54,-296.75 54,-277.5 158.5,-277.5 158.5,-296.75"/>
<text text-anchor="middle" x="106.25" y="-283.25" font-family="Helvetica,sans-Serif" font-size="10.00">Tensor3D&lt; double &gt;</text>
</a>
</g>
</g>
<!-- Node6&#45;&gt;Node5 -->
<g id="edge5_Node000005_Node000006" class="edge">
<title>Node6&#45;&gt;Node5</title>
<g id="a_edge5_Node000005_Node000006"><a xlink:title=" ">
<path fill="none" stroke="#63b8ff" d="M106.25,-266.05C106.25,-252.44 106.25,-235.1 106.25,-224.7"/>
<polygon fill="#63b8ff" stroke="#63b8ff" points="102.75,-265.68 106.25,-275.68 109.75,-265.68 102.75,-265.68"/>
</a>
</g>
</g>
</g>
</svg>
