<?xml version="1.0" encoding="UTF-8" standalone="no"?>
<!DOCTYPE svg PUBLIC "-//W3C//DTD SVG 1.1//EN"
 "http://www.w3.org/Graphics/SVG/1.1/DTD/svg11.dtd">
<!-- Generated by graphviz version 13.1.0 (20250701.0955)
 -->
<!-- Title: SplitField Pages: 1 -->
<svg width="166pt" height="249pt"
 viewBox="0.00 0.00 166.00 249.00" xmlns="http://www.w3.org/2000/svg" xmlns:xlink="http://www.w3.org/1999/xlink">
<g id="graph0" class="graph" transform="scale(1 1) rotate(0) translate(4 244.5)">
<title>SplitField</title>
<!-- Node1 -->
<g id="Node000001" class="node">
<title>Node1</title>
<g id="a_Node000001"><a xlink:title="A split field defined over a grid.">
<polygon fill="#999999" stroke="#666666" points="88.25,-19.25 31.75,-19.25 31.75,0 88.25,0 88.25,-19.25"/>
<text xml:space="preserve" text-anchor="middle" x="60" y="-5.75" font-family="Helvetica,sans-Serif" font-size="10.00">SplitField</text>
</a>
</g>
</g>
<!-- Node2 -->
<g id="Node000002" class="node">
<title>Node2</title>
<g id="a_Node000002"><a xlink:href="class_grid.html" target="_top" xlink:title=" ">
<polygon fill="white" stroke="#666666" points="34,-168 0,-168 0,-148.75 34,-148.75 34,-168"/>
<text xml:space="preserve" text-anchor="middle" x="17" y="-154.5" font-family="Helvetica,sans-Serif" font-size="10.00">Grid</text>
</a>
</g>
</g>
<!-- Node2&#45;&gt;Node1 -->
<g id="edge1_Node000001_Node000002" class="edge">
<title>Node2&#45;&gt;Node1</title>
<g id="a_edge1_Node000001_Node000002"><a xlink:title=" ">
<path fill="none" stroke="#63b8ff" d="M22.68,-137.98C32.1,-105.83 50.59,-42.75 57.4,-19.51"/>
<polygon fill="#63b8ff" stroke="#63b8ff" points="19.44,-136.6 19.99,-147.18 26.16,-138.57 19.44,-136.6"/>
</a>
</g>
</g>
<!-- Node3 -->
<g id="Node000003" class="node">
<title>Node3</title>
<g id="a_Node000003"><a xlink:href="structijk.html" target="_top" xlink:title="A structure for holding three values, which typically pertain to the same quantity but for each of th...">
<polygon fill="white" stroke="#666666" points="31.4,-240.5 2.6,-240.5 2.6,-221.25 31.4,-221.25 31.4,-240.5"/>
<text xml:space="preserve" text-anchor="middle" x="17" y="-227" font-family="Helvetica,sans-Serif" font-size="10.00">ijk</text>
</a>
</g>
</g>
<!-- Node3&#45;&gt;Node2 -->
<g id="edge2_Node000002_Node000003" class="edge">
<title>Node3&#45;&gt;Node2</title>
<g id="a_edge2_Node000002_Node000003"><a xlink:title=" ">
<path fill="none" stroke="#9a32cd" stroke-dasharray="5,2" d="M17,-209.8C17,-196.19 17,-178.85 17,-168.45"/>
<polygon fill="#9a32cd" stroke="#9a32cd" points="13.5,-209.43 17,-219.43 20.5,-209.43 13.5,-209.43"/>
</a>
</g>
<text xml:space="preserve" text-anchor="start" x="20" y="-190.75" font-family="Helvetica,sans-Serif" font-size="10.00" fill="grey">tot</text>
</g>
<!-- Node4 -->
<g id="Node000004" class="node">
<title>Node4</title>
<g id="a_Node000004"><a xlink:href="class_split_field_component.html" target="_top" xlink:title=" ">
<polygon fill="white" stroke="#bfbfbf" points="158.38,-168 51.63,-168 51.63,-148.75 158.38,-148.75 158.38,-168"/>
<text xml:space="preserve" text-anchor="middle" x="105" y="-154.5" font-family="Helvetica,sans-Serif" font-size="10.00">SplitFieldComponent</text>
</a>
</g>
</g>
<!-- Node4&#45;&gt;Node1 -->
<g id="edge3_Node000001_Node000004" class="edge">
<title>Node4&#45;&gt;Node1</title>
<g id="a_edge3_Node000001_Node000004"><a xlink:title=" ">
<path fill="none" stroke="#9a32cd" stroke-dasharray="5,2" d="M99.05,-137.98C89.19,-105.83 69.85,-42.75 62.72,-19.51"/>
<polygon fill="#9a32cd" stroke="#9a32cd" points="95.6,-138.65 101.88,-147.19 102.29,-136.6 95.6,-138.65"/>
</a>
</g>
<text xml:space="preserve" text-anchor="start" x="99.39" y="-118.25" font-family="Helvetica,sans-Serif" font-size="10.00" fill="grey">xy</text>
<text xml:space="preserve" text-anchor="start" x="99.39" y="-103" font-family="Helvetica,sans-Serif" font-size="10.00" fill="grey">xz</text>
<text xml:space="preserve" text-anchor="start" x="99.39" y="-87.75" font-family="Helvetica,sans-Serif" font-size="10.00" fill="grey">yx</text>
<text xml:space="preserve" text-anchor="start" x="99.39" y="-72.5" font-family="Helvetica,sans-Serif" font-size="10.00" fill="grey">yz</text>
<text xml:space="preserve" text-anchor="start" x="99.39" y="-57.25" font-family="Helvetica,sans-Serif" font-size="10.00" fill="grey">zx</text>
<text xml:space="preserve" text-anchor="start" x="99.39" y="-42" font-family="Helvetica,sans-Serif" font-size="10.00" fill="grey">zy</text>
</g>
<!-- Node5 -->
<g id="Node000005" class="node">
<title>Node5</title>
<g id="a_Node000005"><a xlink:title=" ">
<polygon fill="white" stroke="#bfbfbf" points="157.25,-240.5 52.75,-240.5 52.75,-221.25 157.25,-221.25 157.25,-240.5"/>
<text xml:space="preserve" text-anchor="middle" x="105" y="-227" font-family="Helvetica,sans-Serif" font-size="10.00">Tensor3D&lt; double &gt;</text>
</a>
</g>
</g>
<!-- Node5&#45;&gt;Node4 -->
<g id="edge4_Node000004_Node000005" class="edge">
<title>Node5&#45;&gt;Node4</title>
<g id="a_edge4_Node000004_Node000005"><a xlink:title=" ">
<path fill="none" stroke="#63b8ff" d="M105,-209.8C105,-196.19 105,-178.85 105,-168.45"/>
<polygon fill="#63b8ff" stroke="#63b8ff" points="101.5,-209.43 105,-219.43 108.5,-209.43 101.5,-209.43"/>
</a>
</g>
</g>
</g>
</svg>
