<?xml version="1.0" encoding="UTF-8" standalone="no"?>
<!DOCTYPE svg PUBLIC "-//W3C//DTD SVG 1.1//EN"
 "http://www.w3.org/Graphics/SVG/1.1/DTD/svg11.dtd">
<!-- Generated by graphviz version 8.0.2 (20230410.1723)
 -->
<!-- Title: CCollection Pages: 1 -->
<svg width="98pt" height="171pt"
 viewBox="0.00 0.00 98.00 171.00" xmlns="http://www.w3.org/2000/svg" xmlns:xlink="http://www.w3.org/1999/xlink">
<g id="graph0" class="graph" transform="scale(1 1) rotate(0) translate(4 167)">
<title>CCollection</title>
<!-- Node1 -->
<g id="node1" class="node">
<title>Node1</title>
<g id="a_node1"><a xlink:title="A class to encapsulate collection of algebraic terms in the discretized forms of Maxwells equations f...">
<polygon fill="#999999" stroke="#666666" points="79,-19 11,-19 11,0 79,0 79,-19"/>
<text text-anchor="middle" x="45" y="-7" font-family="Helvetica,sans-Serif" font-size="10.00">CCollection</text>
</a>
</g>
</g>
<!-- Node2 -->
<g id="node2" class="node">
<title>Node2</title>
<g id="a_node2"><a xlink:href="class_c_collection_base.html" target="_top" xlink:title="A class to encapsulate collection of algebraic terms in the discretized forms of Maxwells equations f...">
<polygon fill="white" stroke="#666666" points="90,-75 0,-75 0,-56 90,-56 90,-75"/>
<text text-anchor="middle" x="45" y="-63" font-family="Helvetica,sans-Serif" font-size="10.00">CCollectionBase</text>
</a>
</g>
</g>
<!-- Node2&#45;&gt;Node1 -->
<g id="edge1" class="edge">
<title>Node2&#45;&gt;Node1</title>
<path fill="none" stroke="#63b8ff" d="M45,-44.71C45,-35.96 45,-26.12 45,-19.25"/>
<polygon fill="#63b8ff" stroke="#63b8ff" points="41.5,-44.58 45,-54.58 48.5,-44.58 41.5,-44.58"/>
</g>
<!-- Node3 -->
<g id="node3" class="node">
<title>Node3</title>
<g id="a_node3"><a xlink:href="class_x_y_z_vectors.html" target="_top" xlink:title=" ">
<polygon fill="white" stroke="#bfbfbf" points="80,-163 10,-163 10,-144 80,-144 80,-163"/>
<text text-anchor="middle" x="45" y="-151" font-family="Helvetica,sans-Serif" font-size="10.00">XYZVectors</text>
</a>
</g>
</g>
<!-- Node3&#45;&gt;Node2 -->
<g id="edge2" class="edge">
<title>Node3&#45;&gt;Node2</title>
<path fill="none" stroke="#9a32cd" stroke-dasharray="5,2" d="M45,-132.63C45,-114.62 45,-88.9 45,-75.46"/>
<polygon fill="#9a32cd" stroke="#9a32cd" points="41.5,-132.62 45,-142.62 48.5,-132.62 41.5,-132.62"/>
<text text-anchor="middle" x="49.5" y="-118" font-family="Helvetica,sans-Serif" font-size="10.00"> a</text>
<text text-anchor="middle" x="49.5" y="-107" font-family="Helvetica,sans-Serif" font-size="10.00">b</text>
<text text-anchor="middle" x="49.5" y="-96" font-family="Helvetica,sans-Serif" font-size="10.00">c</text>
</g>
</g>
</svg>
