<?xml version="1.0" encoding="UTF-8" standalone="no"?>
<!DOCTYPE svg PUBLIC "-//W3C//DTD SVG 1.1//EN"
 "http://www.w3.org/Graphics/SVG/1.1/DTD/svg11.dtd">
<!-- Generated by graphviz version 8.0.2 (20230410.1723)
 -->
<!-- Title: SimulationParameters Pages: 1 -->
<svg width="375pt" height="93pt"
 viewBox="0.00 0.00 374.50 93.00" xmlns="http://www.w3.org/2000/svg" xmlns:xlink="http://www.w3.org/1999/xlink">
<g id="graph0" class="graph" transform="scale(1 1) rotate(0) translate(4 89)">
<title>SimulationParameters</title>
<!-- Node1 -->
<g id="node1" class="node">
<title>Node1</title>
<g id="a_node1"><a xlink:title="Class storing the various constants and behaviour flags for one executation of the tdms executable.">
<polygon fill="#999999" stroke="#666666" points="247,-19 134,-19 134,0 247,0 247,-19"/>
<text text-anchor="middle" x="190.5" y="-7" font-family="Helvetica,sans-Serif" font-size="10.00">SimulationParameters</text>
</a>
</g>
</g>
<!-- Node2 -->
<g id="node2" class="node">
<title>Node2</title>
<g id="a_node2"><a xlink:href="struct_perfectly_matched_layer.html" target="_top" xlink:title=" ">
<polygon fill="white" stroke="#bfbfbf" points="117,-85 0,-85 0,-66 117,-66 117,-85"/>
<text text-anchor="middle" x="58.5" y="-73" font-family="Helvetica,sans-Serif" font-size="10.00">PerfectlyMatchedLayer</text>
</a>
</g>
</g>
<!-- Node2&#45;&gt;Node1 -->
<g id="edge1" class="edge">
<title>Node2&#45;&gt;Node1</title>
<path fill="none" stroke="#9a32cd" stroke-dasharray="5,2" d="M86.47,-60.94C112.37,-48.38 150.11,-30.08 172.3,-19.32"/>
<polygon fill="#9a32cd" stroke="#9a32cd" points="85.33,-58.09 77.85,-65.6 88.38,-64.39 85.33,-58.09"/>
<text text-anchor="middle" x="142" y="-40" font-family="Helvetica,sans-Serif" font-size="10.00"> pml</text>
</g>
<!-- Node3 -->
<g id="node3" class="node">
<title>Node3</title>
<g id="a_node3"><a xlink:href="struct_surface_spacing_stride.html" target="_top" xlink:title="A three&#45;tuple of integers that contain the stride in each direction to extract the phasors on.">
<polygon fill="white" stroke="#666666" points="246,-85 135,-85 135,-66 246,-66 246,-85"/>
<text text-anchor="middle" x="190.5" y="-73" font-family="Helvetica,sans-Serif" font-size="10.00">SurfaceSpacingStride</text>
</a>
</g>
</g>
<!-- Node3&#45;&gt;Node1 -->
<g id="edge2" class="edge">
<title>Node3&#45;&gt;Node1</title>
<path fill="none" stroke="#9a32cd" stroke-dasharray="5,2" d="M190.5,-54.93C190.5,-43.05 190.5,-28.46 190.5,-19.32"/>
<polygon fill="#9a32cd" stroke="#9a32cd" points="187,-54.6 190.5,-64.6 194,-54.6 187,-54.6"/>
<text text-anchor="middle" x="224" y="-40" font-family="Helvetica,sans-Serif" font-size="10.00"> spacing_stride</text>
</g>
<!-- Node4 -->
<g id="node4" class="node">
<title>Node4</title>
<g id="a_node4"><a xlink:href="struct_yee_cell_dimensions.html" target="_top" xlink:title="The x,y,z lengths of the cuboidal Yee cells.">
<polygon fill="white" stroke="#666666" points="366.5,-85 264.5,-85 264.5,-66 366.5,-66 366.5,-85"/>
<text text-anchor="middle" x="315.5" y="-73" font-family="Helvetica,sans-Serif" font-size="10.00">YeeCellDimensions</text>
</a>
</g>
</g>
<!-- Node4&#45;&gt;Node1 -->
<g id="edge3" class="edge">
<title>Node4&#45;&gt;Node1</title>
<path fill="none" stroke="#9a32cd" stroke-dasharray="5,2" d="M295.8,-59.04C285.88,-51.73 273.46,-43.26 261.5,-37 248.21,-30.05 232.68,-24.03 219.53,-19.5"/>
<polygon fill="#9a32cd" stroke="#9a32cd" points="293.35,-62.34 303.44,-65.58 297.58,-56.76 293.35,-62.34"/>
<text text-anchor="middle" x="291" y="-40" font-family="Helvetica,sans-Serif" font-size="10.00"> delta</text>
</g>
</g>
</svg>
