<?xml version="1.0" encoding="UTF-8" standalone="no"?>
<!DOCTYPE svg PUBLIC "-//W3C//DTD SVG 1.1//EN"
 "http://www.w3.org/Graphics/SVG/1.1/DTD/svg11.dtd">
<!-- Generated by graphviz version 8.0.4 (20230421.1958)
 -->
<!-- Title: SplitField Pages: 1 -->
<svg width="314pt" height="217pt"
 viewBox="0.00 0.00 314.12 216.50" xmlns="http://www.w3.org/2000/svg" xmlns:xlink="http://www.w3.org/1999/xlink">
<g id="graph0" class="graph" transform="scale(1 1) rotate(0) translate(4 212.5)">
<title>SplitField</title>
<!-- Node1 -->
<g id="node1" class="node">
<title>Node1</title>
<g id="a_node1"><a xlink:title="A split field defined over a grid.">
<polygon fill="#999999" stroke="#666666" points="236,-19.25 179.5,-19.25 179.5,0 236,0 236,-19.25"/>
<text text-anchor="middle" x="207.75" y="-5.75" font-family="Helvetica,sans-Serif" font-size="10.00">SplitField</text>
</a>
</g>
</g>
<!-- Node2 -->
<g id="node2" class="node">
<title>Node2</title>
<g id="a_node2"><a xlink:href="class_grid.html" target="_top" xlink:title=" ">
<polygon fill="white" stroke="#666666" points="181.75,-142 147.75,-142 147.75,-122.75 181.75,-122.75 181.75,-142"/>
<text text-anchor="middle" x="164.75" y="-128.5" font-family="Helvetica,sans-Serif" font-size="10.00">Grid</text>
</a>
</g>
</g>
<!-- Node2&#45;&gt;Node1 -->
<g id="edge1" class="edge">
<title>Node2&#45;&gt;Node1</title>
<path fill="none" stroke="#63b8ff" d="M171.66,-111.98C181.11,-85.43 197.7,-38.86 204.6,-19.48"/>
<polygon fill="#63b8ff" stroke="#63b8ff" points="168.04,-110.7 167.98,-121.3 174.63,-113.05 168.04,-110.7"/>
</g>
<!-- Node3 -->
<g id="node3" class="node">
<title>Node3</title>
<g id="a_node3"><a xlink:title=" ">
<polygon fill="white" stroke="#bfbfbf" points="101.5,-208.5 0,-208.5 0,-189.25 101.5,-189.25 101.5,-208.5"/>
<text text-anchor="middle" x="50.75" y="-195" font-family="Helvetica,sans-Serif" font-size="10.00">InterpolationMethod</text>
</a>
</g>
</g>
<!-- Node3&#45;&gt;Node2 -->
<g id="edge2" class="edge">
<title>Node3&#45;&gt;Node2</title>
<path fill="none" stroke="#9a32cd" stroke-dasharray="5,2" d="M56.04,-179.02C58.82,-172.17 62.9,-164.92 68.75,-160 91.39,-140.97 126.62,-135.49 147.52,-133.94"/>
<polygon fill="#9a32cd" stroke="#9a32cd" points="52.54,-177.46 52.68,-188.05 59.18,-179.68 52.54,-177.46"/>
<text text-anchor="middle" x="115.25" y="-161.75" font-family="Helvetica,sans-Serif" font-size="10.00"> interpolation_method</text>
</g>
<!-- Node4 -->
<g id="node4" class="node">
<title>Node4</title>
<g id="a_node4"><a xlink:href="structijk.html" target="_top" xlink:title="A structure for holding three values, which typically pertain to the same quantity but for each of th...">
<polygon fill="white" stroke="#666666" points="181.15,-208.5 152.35,-208.5 152.35,-189.25 181.15,-189.25 181.15,-208.5"/>
<text text-anchor="middle" x="166.75" y="-195" font-family="Helvetica,sans-Serif" font-size="10.00">ijk</text>
</a>
</g>
</g>
<!-- Node4&#45;&gt;Node2 -->
<g id="edge3" class="edge">
<title>Node4&#45;&gt;Node2</title>
<path fill="none" stroke="#9a32cd" stroke-dasharray="5,2" d="M166.14,-178.15C165.77,-166.18 165.31,-151.48 165.03,-142.27"/>
<polygon fill="#9a32cd" stroke="#9a32cd" points="162.66,-178.02 166.47,-187.91 169.66,-177.8 162.66,-178.02"/>
<text text-anchor="middle" x="173.88" y="-161.75" font-family="Helvetica,sans-Serif" font-size="10.00"> tot</text>
</g>
<!-- Node5 -->
<g id="node5" class="node">
<title>Node5</title>
<g id="a_node5"><a xlink:href="class_split_field_component.html" target="_top" xlink:title=" ">
<polygon fill="white" stroke="#bfbfbf" points="306.12,-142 199.38,-142 199.38,-122.75 306.12,-122.75 306.12,-142"/>
<text text-anchor="middle" x="252.75" y="-128.5" font-family="Helvetica,sans-Serif" font-size="10.00">SplitFieldComponent</text>
</a>
</g>
</g>
<!-- Node5&#45;&gt;Node1 -->
<g id="edge4" class="edge">
<title>Node5&#45;&gt;Node1</title>
<path fill="none" stroke="#9a32cd" stroke-dasharray="5,2" d="M245.66,-112.34C235.78,-85.85 218.3,-38.95 211.05,-19.48"/>
<polygon fill="#9a32cd" stroke="#9a32cd" points="242.6,-113.15 249.37,-121.3 249.16,-110.71 242.6,-113.15"/>
<text text-anchor="middle" x="248.5" y="-95.25" font-family="Helvetica,sans-Serif" font-size="10.00"> xy</text>
<text text-anchor="middle" x="248.5" y="-84" font-family="Helvetica,sans-Serif" font-size="10.00">xz</text>
<text text-anchor="middle" x="248.5" y="-72.75" font-family="Helvetica,sans-Serif" font-size="10.00">yx</text>
<text text-anchor="middle" x="248.5" y="-61.5" font-family="Helvetica,sans-Serif" font-size="10.00">yz</text>
<text text-anchor="middle" x="248.5" y="-50.25" font-family="Helvetica,sans-Serif" font-size="10.00">zx</text>
<text text-anchor="middle" x="248.5" y="-39" font-family="Helvetica,sans-Serif" font-size="10.00">zy</text>
</g>
<!-- Node6 -->
<g id="node6" class="node">
<title>Node6</title>
<g id="a_node6"><a xlink:href="class_tensor3_d.html" target="_top" xlink:title=" ">
<polygon fill="white" stroke="#bfbfbf" points="305,-208.5 200.5,-208.5 200.5,-189.25 305,-189.25 305,-208.5"/>
<text text-anchor="middle" x="252.75" y="-195" font-family="Helvetica,sans-Serif" font-size="10.00">Tensor3D&lt; double &gt;</text>
</a>
</g>
</g>
<!-- Node6&#45;&gt;Node5 -->
<g id="edge5" class="edge">
<title>Node6&#45;&gt;Node5</title>
<path fill="none" stroke="#63b8ff" d="M252.75,-178.15C252.75,-166.18 252.75,-151.48 252.75,-142.27"/>
<polygon fill="#63b8ff" stroke="#63b8ff" points="249.25,-177.91 252.75,-187.91 256.25,-177.91 249.25,-177.91"/>
</g>
</g>
</svg>
