<?xml version="1.0" encoding="UTF-8" standalone="no"?>
<!DOCTYPE svg PUBLIC "-//W3C//DTD SVG 1.1//EN"
 "http://www.w3.org/Graphics/SVG/1.1/DTD/svg11.dtd">
<!-- Generated by graphviz version 8.0.2 (20230410.1723)
 -->
<!-- Title: ElectricSplitField Pages: 1 -->
<svg width="168pt" height="270pt"
 viewBox="0.00 0.00 168.00 270.00" xmlns="http://www.w3.org/2000/svg" xmlns:xlink="http://www.w3.org/1999/xlink">
<g id="graph0" class="graph" transform="scale(1 1) rotate(0) translate(4 266)">
<title>ElectricSplitField</title>
<!-- Node1 -->
<g id="node1" class="node">
<title>Node1</title>
<g id="a_node1"><a xlink:title=" ">
<polygon fill="#999999" stroke="#666666" points="106.5,-19 16.5,-19 16.5,0 106.5,0 106.5,-19"/>
<text text-anchor="middle" x="61.5" y="-7" font-family="Helvetica,sans-Serif" font-size="10.00">ElectricSplitField</text>
</a>
</g>
</g>
<!-- Node2 -->
<g id="node2" class="node">
<title>Node2</title>
<g id="a_node2"><a xlink:href="class_split_field.html" target="_top" xlink:title="A split field defined over a grid.">
<polygon fill="white" stroke="#666666" points="90,-75 33,-75 33,-56 90,-56 90,-75"/>
<text text-anchor="middle" x="61.5" y="-63" font-family="Helvetica,sans-Serif" font-size="10.00">SplitField</text>
</a>
</g>
</g>
<!-- Node2&#45;&gt;Node1 -->
<g id="edge1" class="edge">
<title>Node2&#45;&gt;Node1</title>
<path fill="none" stroke="#63b8ff" d="M61.5,-44.71C61.5,-35.96 61.5,-26.12 61.5,-19.25"/>
<polygon fill="#63b8ff" stroke="#63b8ff" points="58,-44.58 61.5,-54.58 65,-44.58 58,-44.58"/>
</g>
<!-- Node3 -->
<g id="node3" class="node">
<title>Node3</title>
<g id="a_node3"><a xlink:href="class_grid.html" target="_top" xlink:title=" ">
<polygon fill="white" stroke="#666666" points="35,-196 0,-196 0,-177 35,-177 35,-196"/>
<text text-anchor="middle" x="17.5" y="-184" font-family="Helvetica,sans-Serif" font-size="10.00">Grid</text>
</a>
</g>
</g>
<!-- Node3&#45;&gt;Node2 -->
<g id="edge2" class="edge">
<title>Node3&#45;&gt;Node2</title>
<path fill="none" stroke="#63b8ff" d="M24.57,-166.39C34.24,-140.22 51.21,-94.33 58.27,-75.22"/>
<polygon fill="#63b8ff" stroke="#63b8ff" points="20.99,-164.96 20.81,-175.56 27.56,-167.39 20.99,-164.96"/>
</g>
<!-- Node4 -->
<g id="node4" class="node">
<title>Node4</title>
<g id="a_node4"><a xlink:href="structijk.html" target="_top" xlink:title="A structure for holding three values, which typically pertain to the same quantity but for each of th...">
<polygon fill="white" stroke="#666666" points="32,-262 3,-262 3,-243 32,-243 32,-262"/>
<text text-anchor="middle" x="17.5" y="-250" font-family="Helvetica,sans-Serif" font-size="10.00">ijk</text>
</a>
</g>
</g>
<!-- Node4&#45;&gt;Node3 -->
<g id="edge3" class="edge">
<title>Node4&#45;&gt;Node3</title>
<path fill="none" stroke="#9a32cd" stroke-dasharray="5,2" d="M17.5,-231.93C17.5,-220.05 17.5,-205.46 17.5,-196.32"/>
<polygon fill="#9a32cd" stroke="#9a32cd" points="14,-231.6 17.5,-241.6 21,-231.6 14,-231.6"/>
<text text-anchor="middle" x="25" y="-217" font-family="Helvetica,sans-Serif" font-size="10.00"> tot</text>
</g>
<!-- Node5 -->
<g id="node5" class="node">
<title>Node5</title>
<g id="a_node5"><a xlink:href="class_split_field_component.html" target="_top" xlink:title=" ">
<polygon fill="white" stroke="#bfbfbf" points="160,-196 53,-196 53,-177 160,-177 160,-196"/>
<text text-anchor="middle" x="106.5" y="-184" font-family="Helvetica,sans-Serif" font-size="10.00">SplitFieldComponent</text>
</a>
</g>
</g>
<!-- Node5&#45;&gt;Node2 -->
<g id="edge4" class="edge">
<title>Node5&#45;&gt;Node2</title>
<path fill="none" stroke="#9a32cd" stroke-dasharray="5,2" d="M99.27,-166.39C89.38,-140.22 72.02,-94.33 64.8,-75.22"/>
<polygon fill="#9a32cd" stroke="#9a32cd" points="96.31,-167.44 103.12,-175.56 102.85,-164.96 96.31,-167.44"/>
<text text-anchor="middle" x="102.5" y="-151" font-family="Helvetica,sans-Serif" font-size="10.00"> xy</text>
<text text-anchor="middle" x="102.5" y="-140" font-family="Helvetica,sans-Serif" font-size="10.00">xz</text>
<text text-anchor="middle" x="102.5" y="-129" font-family="Helvetica,sans-Serif" font-size="10.00">yx</text>
<text text-anchor="middle" x="102.5" y="-118" font-family="Helvetica,sans-Serif" font-size="10.00">yz</text>
<text text-anchor="middle" x="102.5" y="-107" font-family="Helvetica,sans-Serif" font-size="10.00">zx</text>
<text text-anchor="middle" x="102.5" y="-96" font-family="Helvetica,sans-Serif" font-size="10.00">zy</text>
</g>
<!-- Node6 -->
<g id="node6" class="node">
<title>Node6</title>
<g id="a_node6"><a xlink:href="class_tensor3_d.html" target="_top" xlink:title=" ">
<polygon fill="white" stroke="#bfbfbf" points="159,-262 54,-262 54,-243 159,-243 159,-262"/>
<text text-anchor="middle" x="106.5" y="-250" font-family="Helvetica,sans-Serif" font-size="10.00">Tensor3D&lt; double &gt;</text>
</a>
</g>
</g>
<!-- Node6&#45;&gt;Node5 -->
<g id="edge5" class="edge">
<title>Node6&#45;&gt;Node5</title>
<path fill="none" stroke="#63b8ff" d="M106.5,-231.93C106.5,-220.05 106.5,-205.46 106.5,-196.32"/>
<polygon fill="#63b8ff" stroke="#63b8ff" points="103,-231.6 106.5,-241.6 110,-231.6 103,-231.6"/>
</g>
</g>
</svg>
