<?xml version="1.0" encoding="UTF-8" standalone="no"?>
<!DOCTYPE svg PUBLIC "-//W3C//DTD SVG 1.1//EN"
 "http://www.w3.org/Graphics/SVG/1.1/DTD/svg11.dtd">
<!-- Generated by graphviz version 9.0.0 (20230911.1827)
 -->
<!-- Title: SimulationParameters Pages: 1 -->
<svg width="373pt" height="94pt"
 viewBox="0.00 0.00 373.00 93.75" xmlns="http://www.w3.org/2000/svg" xmlns:xlink="http://www.w3.org/1999/xlink">
<g id="graph0" class="graph" transform="scale(1 1) rotate(0) translate(4 89.75)">
<title>SimulationParameters</title>
<!-- Node1 -->
<g id="Node000001" class="node">
<title>Node1</title>
<g id="a_Node000001"><a xlink:title="Class storing the various constants and behaviour flags for one executation of the tdms executable.">
<polygon fill="#999999" stroke="#666666" points="246.25,-19.25 134.25,-19.25 134.25,0 246.25,0 246.25,-19.25"/>
<text text-anchor="middle" x="190.25" y="-5.75" font-family="Helvetica,sans-Serif" font-size="10.00">SimulationParameters</text>
</a>
</g>
</g>
<!-- Node2 -->
<g id="Node000002" class="node">
<title>Node2</title>
<g id="a_Node000002"><a xlink:href="struct_perfectly_matched_layer.html" target="_top" xlink:title=" ">
<polygon fill="white" stroke="#bfbfbf" points="116.5,-85.75 0,-85.75 0,-66.5 116.5,-66.5 116.5,-85.75"/>
<text text-anchor="middle" x="58.25" y="-72.25" font-family="Helvetica,sans-Serif" font-size="10.00">PerfectlyMatchedLayer</text>
</a>
</g>
</g>
<!-- Node2&#45;&gt;Node1 -->
<g id="edge1_Node000001_Node000002" class="edge">
<title>Node2&#45;&gt;Node1</title>
<g id="a_edge1_Node000001_Node000002"><a xlink:title=" ">
<path fill="none" stroke="#9a32cd" stroke-dasharray="5,2" d="M87.15,-61C112.88,-48.43 149.74,-30.42 171.71,-19.68"/>
<polygon fill="#9a32cd" stroke="#9a32cd" points="85.69,-57.82 78.24,-65.36 88.76,-64.11 85.69,-57.82"/>
</a>
</g>
<text text-anchor="middle" x="141.62" y="-39" font-family="Helvetica,sans-Serif" font-size="10.00" fill="grey"> pml</text>
</g>
<!-- Node3 -->
<g id="Node000003" class="node">
<title>Node3</title>
<g id="a_Node000003"><a xlink:href="struct_surface_spacing_stride.html" target="_top" xlink:title="A three&#45;tuple of integers that contain the stride in each direction to extract the phasors on.">
<polygon fill="white" stroke="#666666" points="245.5,-85.75 135,-85.75 135,-66.5 245.5,-66.5 245.5,-85.75"/>
<text text-anchor="middle" x="190.25" y="-72.25" font-family="Helvetica,sans-Serif" font-size="10.00">SurfaceSpacingStride</text>
</a>
</g>
</g>
<!-- Node3&#45;&gt;Node1 -->
<g id="edge2_Node000001_Node000003" class="edge">
<title>Node3&#45;&gt;Node1</title>
<g id="a_edge2_Node000001_Node000003"><a xlink:title=" ">
<path fill="none" stroke="#9a32cd" stroke-dasharray="5,2" d="M190.25,-54.65C190.25,-42.82 190.25,-28.54 190.25,-19.52"/>
<polygon fill="#9a32cd" stroke="#9a32cd" points="186.75,-54.64 190.25,-64.64 193.75,-54.64 186.75,-54.64"/>
</a>
</g>
<text text-anchor="middle" x="223.25" y="-39" font-family="Helvetica,sans-Serif" font-size="10.00" fill="grey"> spacing_stride</text>
</g>
<!-- Node4 -->
<g id="Node000004" class="node">
<title>Node4</title>
<g id="a_Node000004"><a xlink:href="struct_yee_cell_dimensions.html" target="_top" xlink:title="The x,y,z lengths of the cuboidal Yee cells.">
<polygon fill="white" stroke="#666666" points="365,-85.75 263.5,-85.75 263.5,-66.5 365,-66.5 365,-85.75"/>
<text text-anchor="middle" x="314.25" y="-72.25" font-family="Helvetica,sans-Serif" font-size="10.00">YeeCellDimensions</text>
</a>
</g>
</g>
<!-- Node4&#45;&gt;Node1 -->
<g id="edge3_Node000001_Node000004" class="edge">
<title>Node4&#45;&gt;Node1</title>
<g id="a_edge3_Node000001_Node000004"><a xlink:title=" ">
<path fill="none" stroke="#9a32cd" stroke-dasharray="5,2" d="M294.25,-59.3C284.38,-51.98 272.09,-43.53 260.25,-37.25 247.15,-30.31 231.84,-24.27 218.88,-19.7"/>
<polygon fill="#9a32cd" stroke="#9a32cd" points="291.92,-61.93 301.99,-65.21 296.17,-56.36 291.92,-61.93"/>
</a>
</g>
<text text-anchor="middle" x="290.25" y="-39" font-family="Helvetica,sans-Serif" font-size="10.00" fill="grey"> delta</text>
</g>
</g>
</svg>
