<?xml version="1.0" encoding="UTF-8" standalone="no"?>
<!DOCTYPE svg PUBLIC "-//W3C//DTD SVG 1.1//EN"
 "http://www.w3.org/Graphics/SVG/1.1/DTD/svg11.dtd">
<!-- Generated by graphviz version 8.0.2 (20230410.1723)
 -->
<!-- Title: MagneticSplitField Pages: 1 -->
<svg width="105pt" height="137pt"
 viewBox="0.00 0.00 105.00 137.00" xmlns="http://www.w3.org/2000/svg" xmlns:xlink="http://www.w3.org/1999/xlink">
<g id="graph0" class="graph" transform="scale(1 1) rotate(0) translate(4 133)">
<title>MagneticSplitField</title>
<!-- Node1 -->
<g id="node1" class="node">
<title>Node1</title>
<g id="a_node1"><a xlink:title=" ">
<polygon fill="#999999" stroke="#666666" points="97,-19 0,-19 0,0 97,0 97,-19"/>
<text text-anchor="middle" x="48.5" y="-7" font-family="Helvetica,sans-Serif" font-size="10.00">MagneticSplitField</text>
</a>
</g>
</g>
<!-- Node2 -->
<g id="node2" class="node">
<title>Node2</title>
<g id="a_node2"><a xlink:href="class_split_field.html" target="_top" xlink:title="A split field defined over a grid.">
<polygon fill="white" stroke="#666666" points="77,-74 20,-74 20,-55 77,-55 77,-74"/>
<text text-anchor="middle" x="48.5" y="-62" font-family="Helvetica,sans-Serif" font-size="10.00">SplitField</text>
</a>
</g>
</g>
<!-- Node2&#45;&gt;Node1 -->
<g id="edge1" class="edge">
<title>Node2&#45;&gt;Node1</title>
<path fill="none" stroke="#63b8ff" d="M48.5,-43.93C48.5,-35.53 48.5,-26.13 48.5,-19.44"/>
<polygon fill="#63b8ff" stroke="#63b8ff" points="45,-43.75 48.5,-53.75 52,-43.75 45,-43.75"/>
</g>
<!-- Node3 -->
<g id="node3" class="node">
<title>Node3</title>
<g id="a_node3"><a xlink:href="class_grid.html" target="_top" xlink:title=" ">
<polygon fill="white" stroke="#666666" points="66,-129 31,-129 31,-110 66,-110 66,-129"/>
<text text-anchor="middle" x="48.5" y="-117" font-family="Helvetica,sans-Serif" font-size="10.00">Grid</text>
</a>
</g>
</g>
<!-- Node3&#45;&gt;Node2 -->
<g id="edge2" class="edge">
<title>Node3&#45;&gt;Node2</title>
<path fill="none" stroke="#63b8ff" d="M48.5,-98.93C48.5,-90.53 48.5,-81.13 48.5,-74.44"/>
<polygon fill="#63b8ff" stroke="#63b8ff" points="45,-98.75 48.5,-108.75 52,-98.75 45,-98.75"/>
</g>
</g>
</svg>
