<?xml version="1.0" encoding="UTF-8" standalone="no"?>
<!DOCTYPE svg PUBLIC "-//W3C//DTD SVG 1.1//EN"
 "http://www.w3.org/Graphics/SVG/1.1/DTD/svg11.dtd">
<!-- Generated by graphviz version 8.0.2 (20230410.1723)
 -->
<!-- Title: MagneticField Pages: 1 -->
<svg width="85pt" height="137pt"
 viewBox="0.00 0.00 85.00 137.00" xmlns="http://www.w3.org/2000/svg" xmlns:xlink="http://www.w3.org/1999/xlink">
<g id="graph0" class="graph" transform="scale(1 1) rotate(0) translate(4 133)">
<title>MagneticField</title>
<!-- Node1 -->
<g id="node1" class="node">
<title>Node1</title>
<g id="a_node1"><a xlink:title=" ">
<polygon fill="#999999" stroke="#666666" points="77,-19 0,-19 0,0 77,0 77,-19"/>
<text text-anchor="middle" x="38.5" y="-7" font-family="Helvetica,sans-Serif" font-size="10.00">MagneticField</text>
</a>
</g>
</g>
<!-- Node2 -->
<g id="node2" class="node">
<title>Node2</title>
<g id="a_node2"><a xlink:href="class_field.html" target="_top" xlink:title=" ">
<polygon fill="white" stroke="#666666" points="57.5,-74 19.5,-74 19.5,-55 57.5,-55 57.5,-74"/>
<text text-anchor="middle" x="38.5" y="-62" font-family="Helvetica,sans-Serif" font-size="10.00">Field</text>
</a>
</g>
</g>
<!-- Node2&#45;&gt;Node1 -->
<g id="edge1" class="edge">
<title>Node2&#45;&gt;Node1</title>
<path fill="none" stroke="#63b8ff" d="M38.5,-43.93C38.5,-35.53 38.5,-26.13 38.5,-19.44"/>
<polygon fill="#63b8ff" stroke="#63b8ff" points="35,-43.75 38.5,-53.75 42,-43.75 35,-43.75"/>
</g>
<!-- Node3 -->
<g id="node3" class="node">
<title>Node3</title>
<g id="a_node3"><a xlink:href="class_grid.html" target="_top" xlink:title=" ">
<polygon fill="white" stroke="#666666" points="56,-129 21,-129 21,-110 56,-110 56,-129"/>
<text text-anchor="middle" x="38.5" y="-117" font-family="Helvetica,sans-Serif" font-size="10.00">Grid</text>
</a>
</g>
</g>
<!-- Node3&#45;&gt;Node2 -->
<g id="edge2" class="edge">
<title>Node3&#45;&gt;Node2</title>
<path fill="none" stroke="#63b8ff" d="M38.5,-98.93C38.5,-90.53 38.5,-81.13 38.5,-74.44"/>
<polygon fill="#63b8ff" stroke="#63b8ff" points="35,-98.75 38.5,-108.75 42,-98.75 35,-98.75"/>
</g>
</g>
</svg>
