<?xml version="1.0" encoding="UTF-8" standalone="no"?>
<!DOCTYPE svg PUBLIC "-//W3C//DTD SVG 1.1//EN"
 "http://www.w3.org/Graphics/SVG/1.1/DTD/svg11.dtd">
<!-- Generated by graphviz version 8.0.2 (20230410.1723)
 -->
<!-- Title: SplitField Pages: 1 -->
<svg width="168pt" height="214pt"
 viewBox="0.00 0.00 168.00 214.00" xmlns="http://www.w3.org/2000/svg" xmlns:xlink="http://www.w3.org/1999/xlink">
<g id="graph0" class="graph" transform="scale(1 1) rotate(0) translate(4 210)">
<title>SplitField</title>
<!-- Node1 -->
<g id="node1" class="node">
<title>Node1</title>
<g id="a_node1"><a xlink:title="A split field defined over a grid.">
<polygon fill="#999999" stroke="#666666" points="90,-19 33,-19 33,0 90,0 90,-19"/>
<text text-anchor="middle" x="61.5" y="-7" font-family="Helvetica,sans-Serif" font-size="10.00">SplitField</text>
</a>
</g>
</g>
<!-- Node2 -->
<g id="node2" class="node">
<title>Node2</title>
<g id="a_node2"><a xlink:href="class_grid.html" target="_top" xlink:title=" ">
<polygon fill="white" stroke="#666666" points="35,-140 0,-140 0,-121 35,-121 35,-140"/>
<text text-anchor="middle" x="17.5" y="-128" font-family="Helvetica,sans-Serif" font-size="10.00">Grid</text>
</a>
</g>
</g>
<!-- Node2&#45;&gt;Node1 -->
<g id="edge1" class="edge">
<title>Node2&#45;&gt;Node1</title>
<path fill="none" stroke="#63b8ff" d="M24.57,-110.39C34.24,-84.22 51.21,-38.33 58.27,-19.22"/>
<polygon fill="#63b8ff" stroke="#63b8ff" points="20.99,-108.96 20.81,-119.56 27.56,-111.39 20.99,-108.96"/>
</g>
<!-- Node3 -->
<g id="node3" class="node">
<title>Node3</title>
<g id="a_node3"><a xlink:href="structijk.html" target="_top" xlink:title="A structure for holding three values, which typically pertain to the same quantity but for each of th...">
<polygon fill="white" stroke="#666666" points="32,-206 3,-206 3,-187 32,-187 32,-206"/>
<text text-anchor="middle" x="17.5" y="-194" font-family="Helvetica,sans-Serif" font-size="10.00">ijk</text>
</a>
</g>
</g>
<!-- Node3&#45;&gt;Node2 -->
<g id="edge2" class="edge">
<title>Node3&#45;&gt;Node2</title>
<path fill="none" stroke="#9a32cd" stroke-dasharray="5,2" d="M17.5,-175.93C17.5,-164.05 17.5,-149.46 17.5,-140.32"/>
<polygon fill="#9a32cd" stroke="#9a32cd" points="14,-175.6 17.5,-185.6 21,-175.6 14,-175.6"/>
<text text-anchor="middle" x="25" y="-161" font-family="Helvetica,sans-Serif" font-size="10.00"> tot</text>
</g>
<!-- Node4 -->
<g id="node4" class="node">
<title>Node4</title>
<g id="a_node4"><a xlink:href="class_split_field_component.html" target="_top" xlink:title=" ">
<polygon fill="white" stroke="#bfbfbf" points="160,-140 53,-140 53,-121 160,-121 160,-140"/>
<text text-anchor="middle" x="106.5" y="-128" font-family="Helvetica,sans-Serif" font-size="10.00">SplitFieldComponent</text>
</a>
</g>
</g>
<!-- Node4&#45;&gt;Node1 -->
<g id="edge3" class="edge">
<title>Node4&#45;&gt;Node1</title>
<path fill="none" stroke="#9a32cd" stroke-dasharray="5,2" d="M99.27,-110.39C89.38,-84.22 72.02,-38.33 64.8,-19.22"/>
<polygon fill="#9a32cd" stroke="#9a32cd" points="96.31,-111.44 103.12,-119.56 102.85,-108.96 96.31,-111.44"/>
<text text-anchor="middle" x="102.5" y="-95" font-family="Helvetica,sans-Serif" font-size="10.00"> xy</text>
<text text-anchor="middle" x="102.5" y="-84" font-family="Helvetica,sans-Serif" font-size="10.00">xz</text>
<text text-anchor="middle" x="102.5" y="-73" font-family="Helvetica,sans-Serif" font-size="10.00">yx</text>
<text text-anchor="middle" x="102.5" y="-62" font-family="Helvetica,sans-Serif" font-size="10.00">yz</text>
<text text-anchor="middle" x="102.5" y="-51" font-family="Helvetica,sans-Serif" font-size="10.00">zx</text>
<text text-anchor="middle" x="102.5" y="-40" font-family="Helvetica,sans-Serif" font-size="10.00">zy</text>
</g>
<!-- Node5 -->
<g id="node5" class="node">
<title>Node5</title>
<g id="a_node5"><a xlink:href="class_tensor3_d.html" target="_top" xlink:title=" ">
<polygon fill="white" stroke="#bfbfbf" points="159,-206 54,-206 54,-187 159,-187 159,-206"/>
<text text-anchor="middle" x="106.5" y="-194" font-family="Helvetica,sans-Serif" font-size="10.00">Tensor3D&lt; double &gt;</text>
</a>
</g>
</g>
<!-- Node5&#45;&gt;Node4 -->
<g id="edge4" class="edge">
<title>Node5&#45;&gt;Node4</title>
<path fill="none" stroke="#63b8ff" d="M106.5,-175.93C106.5,-164.05 106.5,-149.46 106.5,-140.32"/>
<polygon fill="#63b8ff" stroke="#63b8ff" points="103,-175.6 106.5,-185.6 110,-175.6 103,-175.6"/>
</g>
</g>
</svg>
