<?xml version="1.0" encoding="UTF-8" standalone="no"?>
<!DOCTYPE svg PUBLIC "-//W3C//DTD SVG 1.1//EN"
 "http://www.w3.org/Graphics/SVG/1.1/DTD/svg11.dtd">
<!-- Generated by graphviz version 9.0.0 (20230911.1827)
 -->
<!-- Title: SplitField Pages: 1 -->
<svg width="314pt" height="217pt"
 viewBox="0.00 0.00 314.12 216.50" xmlns="http://www.w3.org/2000/svg" xmlns:xlink="http://www.w3.org/1999/xlink">
<g id="graph0" class="graph" transform="scale(1 1) rotate(0) translate(4 212.5)">
<title>SplitField</title>
<!-- Node1 -->
<g id="Node000001" class="node">
<title>Node1</title>
<g id="a_Node000001"><a xlink:title="A split field defined over a grid.">
<polygon fill="#999999" stroke="#666666" points="236,-19.25 179.5,-19.25 179.5,0 236,0 236,-19.25"/>
<text text-anchor="middle" x="207.75" y="-5.75" font-family="Helvetica,sans-Serif" font-size="10.00">SplitField</text>
</a>
</g>
</g>
<!-- Node2 -->
<g id="Node000002" class="node">
<title>Node2</title>
<g id="a_Node000002"><a xlink:href="class_grid.html" target="_top" xlink:title=" ">
<polygon fill="white" stroke="#666666" points="181.75,-142 147.75,-142 147.75,-122.75 181.75,-122.75 181.75,-142"/>
<text text-anchor="middle" x="164.75" y="-128.5" font-family="Helvetica,sans-Serif" font-size="10.00">Grid</text>
</a>
</g>
</g>
<!-- Node2&#45;&gt;Node1 -->
<g id="edge1_Node000001_Node000002" class="edge">
<title>Node2&#45;&gt;Node1</title>
<g id="a_edge1_Node000001_Node000002"><a xlink:title=" ">
<path fill="none" stroke="#63b8ff" d="M171.78,-111.62C181.26,-85.02 197.73,-38.77 204.6,-19.48"/>
<polygon fill="#63b8ff" stroke="#63b8ff" points="168.55,-110.28 168.49,-120.87 175.14,-112.63 168.55,-110.28"/>
</a>
</g>
</g>
<!-- Node3 -->
<g id="Node000003" class="node">
<title>Node3</title>
<g id="a_Node000003"><a xlink:title=" ">
<polygon fill="white" stroke="#bfbfbf" points="101.5,-208.5 0,-208.5 0,-189.25 101.5,-189.25 101.5,-208.5"/>
<text text-anchor="middle" x="50.75" y="-195" font-family="Helvetica,sans-Serif" font-size="10.00">InterpolationMethod</text>
</a>
</g>
</g>
<!-- Node3&#45;&gt;Node2 -->
<g id="edge2_Node000002_Node000003" class="edge">
<title>Node3&#45;&gt;Node2</title>
<g id="a_edge2_Node000002_Node000003"><a xlink:title=" ">
<path fill="none" stroke="#9a32cd" stroke-dasharray="5,2" d="M56.24,-178.53C59.01,-171.83 63.04,-164.8 68.75,-160 91.39,-140.97 126.62,-135.49 147.52,-133.94"/>
<polygon fill="#9a32cd" stroke="#9a32cd" points="53.06,-177.02 53.17,-187.62 59.69,-179.27 53.06,-177.02"/>
</a>
</g>
<text text-anchor="middle" x="115.25" y="-161.75" font-family="Helvetica,sans-Serif" font-size="10.00" fill="grey"> interpolation_method</text>
</g>
<!-- Node4 -->
<g id="Node000004" class="node">
<title>Node4</title>
<g id="a_Node000004"><a xlink:href="structijk.html" target="_top" xlink:title="A structure for holding three values, which typically pertain to the same quantity but for each of th...">
<polygon fill="white" stroke="#666666" points="181.15,-208.5 152.35,-208.5 152.35,-189.25 181.15,-189.25 181.15,-208.5"/>
<text text-anchor="middle" x="166.75" y="-195" font-family="Helvetica,sans-Serif" font-size="10.00">ijk</text>
</a>
</g>
</g>
<!-- Node4&#45;&gt;Node2 -->
<g id="edge3_Node000002_Node000004" class="edge">
<title>Node4&#45;&gt;Node2</title>
<g id="a_edge3_Node000002_Node000004"><a xlink:title=" ">
<path fill="none" stroke="#9a32cd" stroke-dasharray="5,2" d="M166.13,-177.77C165.76,-165.87 165.31,-151.38 165.03,-142.27"/>
<polygon fill="#9a32cd" stroke="#9a32cd" points="162.62,-177.51 166.42,-187.39 169.61,-177.29 162.62,-177.51"/>
</a>
</g>
<text text-anchor="middle" x="173.88" y="-161.75" font-family="Helvetica,sans-Serif" font-size="10.00" fill="grey"> tot</text>
</g>
<!-- Node5 -->
<g id="Node000005" class="node">
<title>Node5</title>
<g id="a_Node000005"><a xlink:href="class_split_field_component.html" target="_top" xlink:title=" ">
<polygon fill="white" stroke="#bfbfbf" points="306.12,-142 199.38,-142 199.38,-122.75 306.12,-122.75 306.12,-142"/>
<text text-anchor="middle" x="252.75" y="-128.5" font-family="Helvetica,sans-Serif" font-size="10.00">SplitFieldComponent</text>
</a>
</g>
</g>
<!-- Node5&#45;&gt;Node1 -->
<g id="edge4_Node000001_Node000005" class="edge">
<title>Node5&#45;&gt;Node1</title>
<g id="a_edge4_Node000001_Node000005"><a xlink:title=" ">
<path fill="none" stroke="#9a32cd" stroke-dasharray="5,2" d="M245.39,-111.62C235.47,-85.02 218.24,-38.77 211.05,-19.48"/>
<polygon fill="#9a32cd" stroke="#9a32cd" points="242.07,-112.73 248.84,-120.88 248.63,-110.29 242.07,-112.73"/>
</a>
</g>
<text text-anchor="middle" x="248.5" y="-95.25" font-family="Helvetica,sans-Serif" font-size="10.00" fill="grey"> xy</text>
<text text-anchor="middle" x="248.5" y="-84" font-family="Helvetica,sans-Serif" font-size="10.00" fill="grey">xz</text>
<text text-anchor="middle" x="248.5" y="-72.75" font-family="Helvetica,sans-Serif" font-size="10.00" fill="grey">yx</text>
<text text-anchor="middle" x="248.5" y="-61.5" font-family="Helvetica,sans-Serif" font-size="10.00" fill="grey">yz</text>
<text text-anchor="middle" x="248.5" y="-50.25" font-family="Helvetica,sans-Serif" font-size="10.00" fill="grey">zx</text>
<text text-anchor="middle" x="248.5" y="-39" font-family="Helvetica,sans-Serif" font-size="10.00" fill="grey">zy</text>
</g>
<!-- Node6 -->
<g id="Node000006" class="node">
<title>Node6</title>
<g id="a_Node000006"><a xlink:title=" ">
<polygon fill="white" stroke="#bfbfbf" points="305,-208.5 200.5,-208.5 200.5,-189.25 305,-189.25 305,-208.5"/>
<text text-anchor="middle" x="252.75" y="-195" font-family="Helvetica,sans-Serif" font-size="10.00">Tensor3D&lt; double &gt;</text>
</a>
</g>
</g>
<!-- Node6&#45;&gt;Node5 -->
<g id="edge5_Node000005_Node000006" class="edge">
<title>Node6&#45;&gt;Node5</title>
<g id="a_edge5_Node000005_Node000006"><a xlink:title=" ">
<path fill="none" stroke="#63b8ff" d="M252.75,-177.4C252.75,-165.57 252.75,-151.29 252.75,-142.27"/>
<polygon fill="#63b8ff" stroke="#63b8ff" points="249.25,-177.39 252.75,-187.39 256.25,-177.39 249.25,-177.39"/>
</a>
</g>
</g>
</g>
</svg>
