<?xml version="1.0" encoding="UTF-8" standalone="no"?>
<!DOCTYPE svg PUBLIC "-//W3C//DTD SVG 1.1//EN"
 "http://www.w3.org/Graphics/SVG/1.1/DTD/svg11.dtd">
<!-- Generated by graphviz version 8.0.2 (20230410.1723)
 -->
<!-- Title: CMaterial Pages: 1 -->
<svg width="212pt" height="82pt"
 viewBox="0.00 0.00 211.50 82.00" xmlns="http://www.w3.org/2000/svg" xmlns:xlink="http://www.w3.org/1999/xlink">
<g id="graph0" class="graph" transform="scale(1 1) rotate(0) translate(4 78)">
<title>CMaterial</title>
<!-- Node1 -->
<g id="node1" class="node">
<title>Node1</title>
<g id="a_node1"><a xlink:title="A class to encapsulate collection of algebraic terms in the discretized forms of Maxwells equations f...">
<polygon fill="#999999" stroke="#666666" points="129.5,-19 70.5,-19 70.5,0 129.5,0 129.5,-19"/>
<text text-anchor="middle" x="100" y="-7" font-family="Helvetica,sans-Serif" font-size="10.00">CMaterial</text>
</a>
</g>
</g>
<!-- Node2 -->
<g id="node2" class="node">
<title>Node2</title>
<g id="a_node2"><a xlink:href="class_c_collection_base.html" target="_top" xlink:title="A class to encapsulate collection of algebraic terms in the discretized forms of Maxwells equations f...">
<polygon fill="white" stroke="#666666" points="90,-74 0,-74 0,-55 90,-55 90,-74"/>
<text text-anchor="middle" x="45" y="-62" font-family="Helvetica,sans-Serif" font-size="10.00">CCollectionBase</text>
</a>
</g>
</g>
<!-- Node2&#45;&gt;Node1 -->
<g id="edge1" class="edge">
<title>Node2&#45;&gt;Node1</title>
<path fill="none" stroke="#63b8ff" d="M61.77,-47.34C71.28,-38.17 82.82,-27.05 90.72,-19.44"/>
<polygon fill="#63b8ff" stroke="#63b8ff" points="59.85,-44.29 55.08,-53.75 64.71,-49.33 59.85,-44.29"/>
</g>
<!-- Node3 -->
<g id="node3" class="node">
<title>Node3</title>
<g id="a_node3"><a xlink:href="class_material_collection.html" target="_top" xlink:title=" ">
<polygon fill="white" stroke="#bfbfbf" points="203.5,-74 108.5,-74 108.5,-55 203.5,-55 203.5,-74"/>
<text text-anchor="middle" x="156" y="-62" font-family="Helvetica,sans-Serif" font-size="10.00">MaterialCollection</text>
</a>
</g>
</g>
<!-- Node3&#45;&gt;Node1 -->
<g id="edge2" class="edge">
<title>Node3&#45;&gt;Node1</title>
<path fill="none" stroke="#8b1a1a" d="M138.66,-47.09C128.99,-37.94 117.33,-26.9 109.36,-19.36"/>
<polygon fill="#8b1a1a" stroke="#8b1a1a" points="135.83,-49.18 145.5,-53.51 140.64,-44.09 135.83,-49.18"/>
</g>
</g>
</svg>
