<?xml version="1.0" encoding="UTF-8" standalone="no"?>
<!DOCTYPE svg PUBLIC "-//W3C//DTD SVG 1.1//EN"
 "http://www.w3.org/Graphics/SVG/1.1/DTD/svg11.dtd">
<!-- Generated by graphviz version 8.0.4 (20230421.1958)
 -->
<!-- Title: VertexPhasors Pages: 1 -->
<svg width="209pt" height="150pt"
 viewBox="0.00 0.00 209.25 150.00" xmlns="http://www.w3.org/2000/svg" xmlns:xlink="http://www.w3.org/1999/xlink">
<g id="graph0" class="graph" transform="scale(1 1) rotate(0) translate(4 146)">
<title>VertexPhasors</title>
<!-- Node1 -->
<g id="node1" class="node">
<title>Node1</title>
<g id="a_node1"><a xlink:title=" ">
<polygon fill="#999999" stroke="#666666" points="128,-19.25 47.5,-19.25 47.5,0 128,0 128,-19.25"/>
<text text-anchor="middle" x="87.75" y="-5.75" font-family="Helvetica,sans-Serif" font-size="10.00">VertexPhasors</text>
</a>
</g>
</g>
<!-- Node2 -->
<g id="node2" class="node">
<title>Node2</title>
<g id="a_node2"><a xlink:href="class_vertices.html" target="_top" xlink:title=" ">
<polygon fill="white" stroke="#bfbfbf" points="61.75,-85.75 9.75,-85.75 9.75,-66.5 61.75,-66.5 61.75,-85.75"/>
<text text-anchor="middle" x="35.75" y="-72.25" font-family="Helvetica,sans-Serif" font-size="10.00">Vertices</text>
</a>
</g>
</g>
<!-- Node2&#45;&gt;Node1 -->
<g id="edge1" class="edge">
<title>Node2&#45;&gt;Node1</title>
<path fill="none" stroke="#9a32cd" stroke-dasharray="5,2" d="M49.87,-57.61C59.81,-45.28 72.69,-29.31 80.58,-19.52"/>
<polygon fill="#9a32cd" stroke="#9a32cd" points="46.53,-55.17 42.98,-65.16 51.98,-59.57 46.53,-55.17"/>
<text text-anchor="middle" x="84.5" y="-39" font-family="Helvetica,sans-Serif" font-size="10.00"> vertices</text>
</g>
<!-- Node3 -->
<g id="node3" class="node">
<title>Node3</title>
<g id="a_node3"><a xlink:href="class_matrix.html" target="_top" xlink:title=" ">
<polygon fill="white" stroke="#bfbfbf" points="71.5,-142 0,-142 0,-122.75 71.5,-122.75 71.5,-142"/>
<text text-anchor="middle" x="35.75" y="-128.5" font-family="Helvetica,sans-Serif" font-size="10.00">Matrix&lt; int &gt;</text>
</a>
</g>
</g>
<!-- Node3&#45;&gt;Node2 -->
<g id="edge2" class="edge">
<title>Node3&#45;&gt;Node2</title>
<path fill="none" stroke="#63b8ff" d="M35.75,-111.49C35.75,-102.7 35.75,-92.82 35.75,-85.92"/>
<polygon fill="#63b8ff" stroke="#63b8ff" points="32.25,-111.42 35.75,-121.42 39.25,-111.42 32.25,-111.42"/>
</g>
<!-- Node4 -->
<g id="node4" class="node">
<title>Node4</title>
<g id="a_node4"><a xlink:href="class_field_components_vector.html" target="_top" xlink:title=" ">
<polygon fill="white" stroke="#666666" points="201.25,-85.75 80.25,-85.75 80.25,-66.5 201.25,-66.5 201.25,-85.75"/>
<text text-anchor="middle" x="140.75" y="-72.25" font-family="Helvetica,sans-Serif" font-size="10.00">FieldComponentsVector</text>
</a>
</g>
</g>
<!-- Node4&#45;&gt;Node1 -->
<g id="edge3" class="edge">
<title>Node4&#45;&gt;Node1</title>
<path fill="none" stroke="#9a32cd" stroke-dasharray="5,2" d="M126.65,-57.97C116.49,-45.6 103.18,-29.4 95.06,-19.52"/>
<polygon fill="#9a32cd" stroke="#9a32cd" points="124.33,-59.65 133.38,-65.16 129.74,-55.21 124.33,-59.65"/>
<text text-anchor="middle" x="145.88" y="-39" font-family="Helvetica,sans-Serif" font-size="10.00"> components</text>
</g>
<!-- Node5 -->
<g id="node5" class="node">
<title>Node5</title>
<g id="a_node5"><a xlink:href="class_vector.html" target="_top" xlink:title=" ">
<polygon fill="white" stroke="#bfbfbf" points="177.25,-142 104.25,-142 104.25,-122.75 177.25,-122.75 177.25,-142"/>
<text text-anchor="middle" x="140.75" y="-128.5" font-family="Helvetica,sans-Serif" font-size="10.00">Vector&lt; int &gt;</text>
</a>
</g>
</g>
<!-- Node5&#45;&gt;Node4 -->
<g id="edge4" class="edge">
<title>Node5&#45;&gt;Node4</title>
<path fill="none" stroke="#63b8ff" d="M140.75,-111.49C140.75,-102.7 140.75,-92.82 140.75,-85.92"/>
<polygon fill="#63b8ff" stroke="#63b8ff" points="137.25,-111.42 140.75,-121.42 144.25,-111.42 137.25,-111.42"/>
</g>
</g>
</svg>
