<?xml version="1.0" encoding="UTF-8" standalone="no"?>
<!DOCTYPE svg PUBLIC "-//W3C//DTD SVG 1.1//EN"
 "http://www.w3.org/Graphics/SVG/1.1/DTD/svg11.dtd">
<!-- Generated by graphviz version 8.0.2 (20230410.1723)
 -->
<!-- Title: ElectricField Pages: 1 -->
<svg width="186pt" height="226pt"
 viewBox="0.00 0.00 186.00 226.00" xmlns="http://www.w3.org/2000/svg" xmlns:xlink="http://www.w3.org/1999/xlink">
<g id="graph0" class="graph" transform="scale(1 1) rotate(0) translate(4 222)">
<title>ElectricField</title>
<!-- Node1 -->
<g id="node1" class="node">
<title>Node1</title>
<g id="a_node1"><a xlink:title=" ">
<polygon fill="#999999" stroke="#666666" points="126,-19 55,-19 55,0 126,0 126,-19"/>
<text text-anchor="middle" x="90.5" y="-7" font-family="Helvetica,sans-Serif" font-size="10.00">ElectricField</text>
</a>
</g>
</g>
<!-- Node2 -->
<g id="node2" class="node">
<title>Node2</title>
<g id="a_node2"><a xlink:href="class_field.html" target="_top" xlink:title=" ">
<polygon fill="white" stroke="#666666" points="109.5,-75 71.5,-75 71.5,-56 109.5,-56 109.5,-75"/>
<text text-anchor="middle" x="90.5" y="-63" font-family="Helvetica,sans-Serif" font-size="10.00">Field</text>
</a>
</g>
</g>
<!-- Node2&#45;&gt;Node1 -->
<g id="edge1" class="edge">
<title>Node2&#45;&gt;Node1</title>
<path fill="none" stroke="#63b8ff" d="M90.5,-44.71C90.5,-35.96 90.5,-26.12 90.5,-19.25"/>
<polygon fill="#63b8ff" stroke="#63b8ff" points="87,-44.58 90.5,-54.58 94,-44.58 87,-44.58"/>
</g>
<!-- Node3 -->
<g id="node3" class="node">
<title>Node3</title>
<g id="a_node3"><a xlink:href="class_grid.html" target="_top" xlink:title=" ">
<polygon fill="white" stroke="#666666" points="35,-152 0,-152 0,-133 35,-133 35,-152"/>
<text text-anchor="middle" x="17.5" y="-140" font-family="Helvetica,sans-Serif" font-size="10.00">Grid</text>
</a>
</g>
</g>
<!-- Node3&#45;&gt;Node2 -->
<g id="edge2" class="edge">
<title>Node3&#45;&gt;Node2</title>
<path fill="none" stroke="#63b8ff" d="M33.64,-124.92C48.5,-109.65 70,-87.56 81.85,-75.39"/>
<polygon fill="#63b8ff" stroke="#63b8ff" points="31.63,-121.99 27.16,-131.6 36.64,-126.88 31.63,-121.99"/>
</g>
<!-- Node4 -->
<g id="node4" class="node">
<title>Node4</title>
<g id="a_node4"><a xlink:href="structijk.html" target="_top" xlink:title="A structure for holding three values, which typically pertain to the same quantity but for each of th...">
<polygon fill="white" stroke="#666666" points="32,-218 3,-218 3,-199 32,-199 32,-218"/>
<text text-anchor="middle" x="17.5" y="-206" font-family="Helvetica,sans-Serif" font-size="10.00">ijk</text>
</a>
</g>
</g>
<!-- Node4&#45;&gt;Node3 -->
<g id="edge3" class="edge">
<title>Node4&#45;&gt;Node3</title>
<path fill="none" stroke="#9a32cd" stroke-dasharray="5,2" d="M17.5,-187.93C17.5,-176.05 17.5,-161.46 17.5,-152.32"/>
<polygon fill="#9a32cd" stroke="#9a32cd" points="14,-187.6 17.5,-197.6 21,-187.6 14,-187.6"/>
<text text-anchor="middle" x="25" y="-173" font-family="Helvetica,sans-Serif" font-size="10.00"> tot</text>
</g>
<!-- Node5 -->
<g id="node5" class="node">
<title>Node5</title>
<g id="a_node5"><a xlink:href="class_x_y_z_tensor3_d.html" target="_top" xlink:title=" ">
<polygon fill="white" stroke="#bfbfbf" points="178,-152 53,-152 53,-133 178,-133 178,-152"/>
<text text-anchor="middle" x="115.5" y="-140" font-family="Helvetica,sans-Serif" font-size="10.00">XYZTensor3D&lt; double &gt;</text>
</a>
</g>
</g>
<!-- Node5&#45;&gt;Node2 -->
<g id="edge4" class="edge">
<title>Node5&#45;&gt;Node2</title>
<path fill="none" stroke="#9a32cd" stroke-dasharray="5,2" d="M109.11,-122.32C104.07,-107.22 97.29,-86.88 93.46,-75.39"/>
<polygon fill="#9a32cd" stroke="#9a32cd" points="106.05,-123.22 112.53,-131.6 112.69,-121.01 106.05,-123.22"/>
<text text-anchor="middle" x="118" y="-107" font-family="Helvetica,sans-Serif" font-size="10.00"> imag</text>
<text text-anchor="middle" x="118" y="-96" font-family="Helvetica,sans-Serif" font-size="10.00">real</text>
</g>
</g>
</svg>
