<?xml version="1.0" encoding="UTF-8" standalone="no"?>
<!DOCTYPE svg PUBLIC "-//W3C//DTD SVG 1.1//EN"
 "http://www.w3.org/Graphics/SVG/1.1/DTD/svg11.dtd">
<!-- Generated by graphviz version 9.0.0 (20230911.1827)
 -->
<!-- Title: FieldSample Pages: 1 -->
<svg width="190pt" height="116pt"
 viewBox="0.00 0.00 190.00 116.25" xmlns="http://www.w3.org/2000/svg" xmlns:xlink="http://www.w3.org/1999/xlink">
<g id="graph0" class="graph" transform="scale(1 1) rotate(0) translate(4 112.25)">
<title>FieldSample</title>
<!-- Node1 -->
<g id="Node000001" class="node">
<title>Node1</title>
<g id="a_Node000001"><a xlink:title=" ">
<polygon fill="#999999" stroke="#666666" points="121.5,-19.25 51.5,-19.25 51.5,0 121.5,0 121.5,-19.25"/>
<text text-anchor="middle" x="86.5" y="-5.75" font-family="Helvetica,sans-Serif" font-size="10.00">FieldSample</text>
</a>
</g>
</g>
<!-- Node2 -->
<g id="Node000002" class="node">
<title>Node2</title>
<g id="a_Node000002"><a xlink:href="class_vector.html" target="_top" xlink:title=" ">
<polygon fill="white" stroke="#bfbfbf" points="73,-108.25 0,-108.25 0,-89 73,-89 73,-108.25"/>
<text text-anchor="middle" x="36.5" y="-94.75" font-family="Helvetica,sans-Serif" font-size="10.00">Vector&lt; int &gt;</text>
</a>
</g>
</g>
<!-- Node2&#45;&gt;Node1 -->
<g id="edge1_Node000001_Node000002" class="edge">
<title>Node2&#45;&gt;Node1</title>
<g id="a_edge1_Node000001_Node000002"><a xlink:title=" ">
<path fill="none" stroke="#9a32cd" stroke-dasharray="5,2" d="M47.31,-78.82C57.8,-60.56 73.29,-33.61 81.29,-19.69"/>
<polygon fill="#9a32cd" stroke="#9a32cd" points="44.37,-76.92 42.42,-87.33 50.43,-80.4 44.37,-76.92"/>
</a>
</g>
<text text-anchor="middle" x="73.12" y="-61.5" font-family="Helvetica,sans-Serif" font-size="10.00" fill="grey"> i</text>
<text text-anchor="middle" x="73.12" y="-50.25" font-family="Helvetica,sans-Serif" font-size="10.00" fill="grey">j</text>
<text text-anchor="middle" x="73.12" y="-39" font-family="Helvetica,sans-Serif" font-size="10.00" fill="grey">k</text>
</g>
<!-- Node3 -->
<g id="Node000003" class="node">
<title>Node3</title>
<g id="a_Node000003"><a xlink:href="class_vector.html" target="_top" xlink:title=" ">
<polygon fill="white" stroke="#bfbfbf" points="182,-108.25 91,-108.25 91,-89 182,-89 182,-108.25"/>
<text text-anchor="middle" x="136.5" y="-94.75" font-family="Helvetica,sans-Serif" font-size="10.00">Vector&lt; double &gt;</text>
</a>
</g>
</g>
<!-- Node3&#45;&gt;Node1 -->
<g id="edge2_Node000001_Node000003" class="edge">
<title>Node3&#45;&gt;Node1</title>
<g id="a_edge2_Node000001_Node000003"><a xlink:title=" ">
<path fill="none" stroke="#9a32cd" stroke-dasharray="5,2" d="M125.69,-78.82C115.2,-60.56 99.71,-33.61 91.71,-19.69"/>
<polygon fill="#9a32cd" stroke="#9a32cd" points="122.57,-80.4 130.58,-87.33 128.63,-76.92 122.57,-80.4"/>
</a>
</g>
<text text-anchor="middle" x="123.62" y="-50.25" font-family="Helvetica,sans-Serif" font-size="10.00" fill="grey"> n</text>
</g>
</g>
</svg>
