<?xml version="1.0" encoding="UTF-8" standalone="no"?>
<!DOCTYPE svg PUBLIC "-//W3C//DTD SVG 1.1//EN"
 "http://www.w3.org/Graphics/SVG/1.1/DTD/svg11.dtd">
<!-- Generated by graphviz version 8.0.4 (20230421.1958)
 -->
<!-- Title: CurrentDensitySplitField Pages: 1 -->
<svg width="168pt" height="273pt"
 viewBox="0.00 0.00 167.62 272.75" xmlns="http://www.w3.org/2000/svg" xmlns:xlink="http://www.w3.org/1999/xlink">
<g id="graph0" class="graph" transform="scale(1 1) rotate(0) translate(4 268.75)">
<title>CurrentDensitySplitField</title>
<!-- Node1 -->
<g id="node1" class="node">
<title>Node1</title>
<g id="a_node1"><a xlink:title=" ">
<polygon fill="#999999" stroke="#666666" points="122.5,-19.25 0,-19.25 0,0 122.5,0 122.5,-19.25"/>
<text text-anchor="middle" x="61.25" y="-5.75" font-family="Helvetica,sans-Serif" font-size="10.00">CurrentDensitySplitField</text>
</a>
</g>
</g>
<!-- Node2 -->
<g id="node2" class="node">
<title>Node2</title>
<g id="a_node2"><a xlink:href="class_split_field.html" target="_top" xlink:title="A split field defined over a grid.">
<polygon fill="white" stroke="#666666" points="89.5,-75.5 33,-75.5 33,-56.25 89.5,-56.25 89.5,-75.5"/>
<text text-anchor="middle" x="61.25" y="-62" font-family="Helvetica,sans-Serif" font-size="10.00">SplitField</text>
</a>
</g>
</g>
<!-- Node2&#45;&gt;Node1 -->
<g id="edge1" class="edge">
<title>Node2&#45;&gt;Node1</title>
<path fill="none" stroke="#63b8ff" d="M61.25,-44.99C61.25,-36.2 61.25,-26.32 61.25,-19.42"/>
<polygon fill="#63b8ff" stroke="#63b8ff" points="57.75,-44.92 61.25,-54.92 64.75,-44.92 57.75,-44.92"/>
</g>
<!-- Node3 -->
<g id="node3" class="node">
<title>Node3</title>
<g id="a_node3"><a xlink:href="class_grid.html" target="_top" xlink:title=" ">
<polygon fill="white" stroke="#666666" points="35.25,-198.25 1.25,-198.25 1.25,-179 35.25,-179 35.25,-198.25"/>
<text text-anchor="middle" x="18.25" y="-184.75" font-family="Helvetica,sans-Serif" font-size="10.00">Grid</text>
</a>
</g>
</g>
<!-- Node3&#45;&gt;Node2 -->
<g id="edge2" class="edge">
<title>Node3&#45;&gt;Node2</title>
<path fill="none" stroke="#63b8ff" d="M25.16,-168.23C34.61,-141.68 51.2,-95.11 58.1,-75.73"/>
<polygon fill="#63b8ff" stroke="#63b8ff" points="21.54,-166.95 21.48,-177.55 28.13,-169.3 21.54,-166.95"/>
</g>
<!-- Node4 -->
<g id="node4" class="node">
<title>Node4</title>
<g id="a_node4"><a xlink:href="structijk.html" target="_top" xlink:title="A structure for holding three values, which typically pertain to the same quantity but for each of th...">
<polygon fill="white" stroke="#666666" points="32.65,-264.75 3.85,-264.75 3.85,-245.5 32.65,-245.5 32.65,-264.75"/>
<text text-anchor="middle" x="18.25" y="-251.25" font-family="Helvetica,sans-Serif" font-size="10.00">ijk</text>
</a>
</g>
</g>
<!-- Node4&#45;&gt;Node3 -->
<g id="edge3" class="edge">
<title>Node4&#45;&gt;Node3</title>
<path fill="none" stroke="#9a32cd" stroke-dasharray="5,2" d="M18.25,-234.4C18.25,-222.43 18.25,-207.73 18.25,-198.52"/>
<polygon fill="#9a32cd" stroke="#9a32cd" points="14.75,-234.16 18.25,-244.16 21.75,-234.16 14.75,-234.16"/>
<text text-anchor="middle" x="25.38" y="-218" font-family="Helvetica,sans-Serif" font-size="10.00"> tot</text>
</g>
<!-- Node5 -->
<g id="node5" class="node">
<title>Node5</title>
<g id="a_node5"><a xlink:href="class_split_field_component.html" target="_top" xlink:title=" ">
<polygon fill="white" stroke="#bfbfbf" points="159.62,-198.25 52.88,-198.25 52.88,-179 159.62,-179 159.62,-198.25"/>
<text text-anchor="middle" x="106.25" y="-184.75" font-family="Helvetica,sans-Serif" font-size="10.00">SplitFieldComponent</text>
</a>
</g>
</g>
<!-- Node5&#45;&gt;Node2 -->
<g id="edge4" class="edge">
<title>Node5&#45;&gt;Node2</title>
<path fill="none" stroke="#9a32cd" stroke-dasharray="5,2" d="M99.16,-168.59C89.28,-142.1 71.8,-95.2 64.55,-75.73"/>
<polygon fill="#9a32cd" stroke="#9a32cd" points="96.1,-169.4 102.87,-177.55 102.66,-166.96 96.1,-169.4"/>
<text text-anchor="middle" x="103" y="-151.5" font-family="Helvetica,sans-Serif" font-size="10.00"> xy</text>
<text text-anchor="middle" x="103" y="-140.25" font-family="Helvetica,sans-Serif" font-size="10.00">xz</text>
<text text-anchor="middle" x="103" y="-129" font-family="Helvetica,sans-Serif" font-size="10.00">yx</text>
<text text-anchor="middle" x="103" y="-117.75" font-family="Helvetica,sans-Serif" font-size="10.00">yz</text>
<text text-anchor="middle" x="103" y="-106.5" font-family="Helvetica,sans-Serif" font-size="10.00">zx</text>
<text text-anchor="middle" x="103" y="-95.25" font-family="Helvetica,sans-Serif" font-size="10.00">zy</text>
</g>
<!-- Node6 -->
<g id="node6" class="node">
<title>Node6</title>
<g id="a_node6"><a xlink:href="class_tensor3_d.html" target="_top" xlink:title=" ">
<polygon fill="white" stroke="#bfbfbf" points="158.5,-264.75 54,-264.75 54,-245.5 158.5,-245.5 158.5,-264.75"/>
<text text-anchor="middle" x="106.25" y="-251.25" font-family="Helvetica,sans-Serif" font-size="10.00">Tensor3D&lt; double &gt;</text>
</a>
</g>
</g>
<!-- Node6&#45;&gt;Node5 -->
<g id="edge5" class="edge">
<title>Node6&#45;&gt;Node5</title>
<path fill="none" stroke="#63b8ff" d="M106.25,-234.4C106.25,-222.43 106.25,-207.73 106.25,-198.52"/>
<polygon fill="#63b8ff" stroke="#63b8ff" points="102.75,-234.16 106.25,-244.16 109.75,-234.16 102.75,-234.16"/>
</g>
</g>
</svg>
