<?xml version="1.0" encoding="UTF-8" standalone="no"?>
<!DOCTYPE svg PUBLIC "-//W3C//DTD SVG 1.1//EN"
 "http://www.w3.org/Graphics/SVG/1.1/DTD/svg11.dtd">
<!-- Generated by graphviz version 8.0.4 (20230421.1958)
 -->
<!-- Title: HDF5Reader Pages: 1 -->
<svg width="90pt" height="150pt"
 viewBox="0.00 0.00 89.88 150.00" xmlns="http://www.w3.org/2000/svg" xmlns:xlink="http://www.w3.org/1999/xlink">
<g id="graph0" class="graph" transform="scale(1 1) rotate(0) translate(4 146)">
<title>HDF5Reader</title>
<!-- Node1 -->
<g id="node1" class="node">
<title>Node1</title>
<g id="a_node1"><a xlink:title="Class wrapper of the reading of HDF5 format files.">
<polygon fill="#999999" stroke="#666666" points="73.75,-19.25 0,-19.25 0,0 73.75,0 73.75,-19.25"/>
<text text-anchor="middle" x="36.88" y="-5.75" font-family="Helvetica,sans-Serif" font-size="10.00">HDF5Reader</text>
</a>
</g>
</g>
<!-- Node2 -->
<g id="node2" class="node">
<title>Node2</title>
<g id="a_node2"><a xlink:href="class_h_d_f5_base.html" target="_top" xlink:title="The base class for HDF5 I/O.">
<polygon fill="white" stroke="#666666" points="69.25,-75.5 4.5,-75.5 4.5,-56.25 69.25,-56.25 69.25,-75.5"/>
<text text-anchor="middle" x="36.88" y="-62" font-family="Helvetica,sans-Serif" font-size="10.00">HDF5Base</text>
</a>
</g>
</g>
<!-- Node2&#45;&gt;Node1 -->
<g id="edge1" class="edge">
<title>Node2&#45;&gt;Node1</title>
<path fill="none" stroke="#63b8ff" d="M36.88,-44.99C36.88,-36.2 36.88,-26.32 36.88,-19.42"/>
<polygon fill="#63b8ff" stroke="#63b8ff" points="33.38,-44.92 36.88,-54.92 40.38,-44.92 33.38,-44.92"/>
</g>
<!-- Node3 -->
<g id="node3" class="node">
<title>Node3</title>
<g id="a_node3"><a xlink:title=" ">
<polygon fill="white" stroke="#bfbfbf" points="56.88,-142 16.88,-142 16.88,-122.75 56.88,-122.75 56.88,-142"/>
<text text-anchor="middle" x="36.88" y="-128.5" font-family="Helvetica,sans-Serif" font-size="10.00">string</text>
</a>
</g>
</g>
<!-- Node3&#45;&gt;Node2 -->
<g id="edge2" class="edge">
<title>Node3&#45;&gt;Node2</title>
<path fill="none" stroke="#9a32cd" stroke-dasharray="5,2" d="M36.88,-111.65C36.88,-99.68 36.88,-84.98 36.88,-75.77"/>
<polygon fill="#9a32cd" stroke="#9a32cd" points="33.38,-111.41 36.88,-121.41 40.38,-111.41 33.38,-111.41"/>
<text text-anchor="middle" x="59.38" y="-95.25" font-family="Helvetica,sans-Serif" font-size="10.00"> filename_</text>
</g>
</g>
</svg>
