<?xml version="1.0" encoding="UTF-8" standalone="no"?>
<!DOCTYPE svg PUBLIC "-//W3C//DTD SVG 1.1//EN"
 "http://www.w3.org/Graphics/SVG/1.1/DTD/svg11.dtd">
<!-- Generated by graphviz version 8.0.4 (20230421.1958)
 -->
<!-- Title: MagneticField Pages: 1 -->
<svg width="276pt" height="228pt"
 viewBox="0.00 0.00 275.75 227.75" xmlns="http://www.w3.org/2000/svg" xmlns:xlink="http://www.w3.org/1999/xlink">
<g id="graph0" class="graph" transform="scale(1 1) rotate(0) translate(4 223.75)">
<title>MagneticField</title>
<!-- Node1 -->
<g id="node1" class="node">
<title>Node1</title>
<g id="a_node1"><a xlink:title=" ">
<polygon fill="#999999" stroke="#666666" points="219.12,-19.25 142.38,-19.25 142.38,0 219.12,0 219.12,-19.25"/>
<text text-anchor="middle" x="180.75" y="-5.75" font-family="Helvetica,sans-Serif" font-size="10.00">MagneticField</text>
</a>
</g>
</g>
<!-- Node2 -->
<g id="node2" class="node">
<title>Node2</title>
<g id="a_node2"><a xlink:href="class_field.html" target="_top" xlink:title=" ">
<polygon fill="white" stroke="#666666" points="199.25,-75.5 162.25,-75.5 162.25,-56.25 199.25,-56.25 199.25,-75.5"/>
<text text-anchor="middle" x="180.75" y="-62" font-family="Helvetica,sans-Serif" font-size="10.00">Field</text>
</a>
</g>
</g>
<!-- Node2&#45;&gt;Node1 -->
<g id="edge1" class="edge">
<title>Node2&#45;&gt;Node1</title>
<path fill="none" stroke="#63b8ff" d="M180.75,-44.99C180.75,-36.2 180.75,-26.32 180.75,-19.42"/>
<polygon fill="#63b8ff" stroke="#63b8ff" points="177.25,-44.92 180.75,-54.92 184.25,-44.92 177.25,-44.92"/>
</g>
<!-- Node3 -->
<g id="node3" class="node">
<title>Node3</title>
<g id="a_node3"><a xlink:href="class_grid.html" target="_top" xlink:title=" ">
<polygon fill="white" stroke="#666666" points="125.75,-153.25 91.75,-153.25 91.75,-134 125.75,-134 125.75,-153.25"/>
<text text-anchor="middle" x="108.75" y="-139.75" font-family="Helvetica,sans-Serif" font-size="10.00">Grid</text>
</a>
</g>
</g>
<!-- Node3&#45;&gt;Node2 -->
<g id="edge2" class="edge">
<title>Node3&#45;&gt;Node2</title>
<path fill="none" stroke="#63b8ff" d="M124.66,-125.88C139.33,-110.45 160.53,-88.14 172.22,-75.85"/>
<polygon fill="#63b8ff" stroke="#63b8ff" points="122.64,-122.98 118.29,-132.64 127.72,-127.8 122.64,-122.98"/>
</g>
<!-- Node4 -->
<g id="node4" class="node">
<title>Node4</title>
<g id="a_node4"><a xlink:title=" ">
<polygon fill="white" stroke="#bfbfbf" points="101.5,-219.75 0,-219.75 0,-200.5 101.5,-200.5 101.5,-219.75"/>
<text text-anchor="middle" x="50.75" y="-206.25" font-family="Helvetica,sans-Serif" font-size="10.00">InterpolationMethod</text>
</a>
</g>
</g>
<!-- Node4&#45;&gt;Node3 -->
<g id="edge3" class="edge">
<title>Node4&#45;&gt;Node3</title>
<path fill="none" stroke="#9a32cd" stroke-dasharray="5,2" d="M47.38,-189.72C47.25,-183.39 48.23,-176.61 51.75,-171.25 60.55,-157.82 78.04,-151.04 91.34,-147.69"/>
<polygon fill="#9a32cd" stroke="#9a32cd" points="43.96,-189.66 48.51,-199.23 50.92,-188.91 43.96,-189.66"/>
<text text-anchor="middle" x="98.25" y="-173" font-family="Helvetica,sans-Serif" font-size="10.00"> interpolation_method</text>
</g>
<!-- Node5 -->
<g id="node5" class="node">
<title>Node5</title>
<g id="a_node5"><a xlink:href="structijk.html" target="_top" xlink:title="A structure for holding three values, which typically pertain to the same quantity but for each of th...">
<polygon fill="white" stroke="#666666" points="181.15,-219.75 152.35,-219.75 152.35,-200.5 181.15,-200.5 181.15,-219.75"/>
<text text-anchor="middle" x="166.75" y="-206.25" font-family="Helvetica,sans-Serif" font-size="10.00">ijk</text>
</a>
</g>
</g>
<!-- Node5&#45;&gt;Node3 -->
<g id="edge4" class="edge">
<title>Node5&#45;&gt;Node3</title>
<path fill="none" stroke="#9a32cd" stroke-dasharray="5,2" d="M157.96,-190.59C154.38,-184.08 149.88,-176.98 144.75,-171.25 138.63,-164.42 130.51,-158.22 123.52,-153.54"/>
<polygon fill="#9a32cd" stroke="#9a32cd" points="155.12,-191.71 162.78,-199.03 161.35,-188.53 155.12,-191.71"/>
<text text-anchor="middle" x="159.88" y="-173" font-family="Helvetica,sans-Serif" font-size="10.00"> tot</text>
</g>
<!-- Node6 -->
<g id="node6" class="node">
<title>Node6</title>
<g id="a_node6"><a xlink:href="class_x_y_z_tensor3_d.html" target="_top" xlink:title=" ">
<polygon fill="white" stroke="#bfbfbf" points="267.75,-153.25 143.75,-153.25 143.75,-134 267.75,-134 267.75,-153.25"/>
<text text-anchor="middle" x="205.75" y="-139.75" font-family="Helvetica,sans-Serif" font-size="10.00">XYZTensor3D&lt; double &gt;</text>
</a>
</g>
</g>
<!-- Node6&#45;&gt;Node2 -->
<g id="edge5" class="edge">
<title>Node6&#45;&gt;Node2</title>
<path fill="none" stroke="#9a32cd" stroke-dasharray="5,2" d="M199.36,-123.25C194.32,-108.01 187.54,-87.46 183.71,-75.85"/>
<polygon fill="#9a32cd" stroke="#9a32cd" points="196.33,-124.24 202.78,-132.64 202.97,-122.04 196.33,-124.24"/>
<text text-anchor="middle" x="208.75" y="-106.5" font-family="Helvetica,sans-Serif" font-size="10.00"> imag</text>
<text text-anchor="middle" x="208.75" y="-95.25" font-family="Helvetica,sans-Serif" font-size="10.00">real</text>
</g>
</g>
</svg>
