<?xml version="1.0" encoding="UTF-8" standalone="no"?>
<!DOCTYPE svg PUBLIC "-//W3C//DTD SVG 1.1//EN"
 "http://www.w3.org/Graphics/SVG/1.1/DTD/svg11.dtd">
<!-- Generated by graphviz version 8.0.2 (20230410.1723)
 -->
<!-- Title: CCollectionBase Pages: 1 -->
<svg width="154pt" height="82pt"
 viewBox="0.00 0.00 153.50 82.00" xmlns="http://www.w3.org/2000/svg" xmlns:xlink="http://www.w3.org/1999/xlink">
<g id="graph0" class="graph" transform="scale(1 1) rotate(0) translate(4 78)">
<title>CCollectionBase</title>
<!-- Node1 -->
<g id="node1" class="node">
<title>Node1</title>
<g id="a_node1"><a xlink:title="A class to encapsulate collection of algebraic terms in the discretized forms of Maxwells equations f...">
<polygon fill="#999999" stroke="#666666" points="120,-74 30,-74 30,-55 120,-55 120,-74"/>
<text text-anchor="middle" x="75" y="-62" font-family="Helvetica,sans-Serif" font-size="10.00">CCollectionBase</text>
</a>
</g>
</g>
<!-- Node2 -->
<g id="node2" class="node">
<title>Node2</title>
<g id="a_node2"><a xlink:href="class_c_collection.html" target="_top" xlink:title="A class to encapsulate collection of algebraic terms in the discretized forms of Maxwells equations f...">
<polygon fill="white" stroke="#666666" points="68,-19 0,-19 0,0 68,0 68,-19"/>
<text text-anchor="middle" x="34" y="-7" font-family="Helvetica,sans-Serif" font-size="10.00">CCollection</text>
</a>
</g>
</g>
<!-- Node1&#45;&gt;Node2 -->
<g id="edge1" class="edge">
<title>Node1&#45;&gt;Node2</title>
<path fill="none" stroke="#63b8ff" d="M61.63,-46.22C54.72,-37.28 46.57,-26.74 40.92,-19.44"/>
<polygon fill="#63b8ff" stroke="#63b8ff" points="59.34,-47.98 68.23,-53.75 64.88,-43.7 59.34,-47.98"/>
</g>
<!-- Node3 -->
<g id="node3" class="node">
<title>Node3</title>
<g id="a_node3"><a xlink:href="class_c_material.html" target="_top" xlink:title="A class to encapsulate collection of algebraic terms in the discretized forms of Maxwells equations f...">
<polygon fill="white" stroke="#666666" points="145.5,-19 86.5,-19 86.5,0 145.5,0 145.5,-19"/>
<text text-anchor="middle" x="116" y="-7" font-family="Helvetica,sans-Serif" font-size="10.00">CMaterial</text>
</a>
</g>
</g>
<!-- Node1&#45;&gt;Node3 -->
<g id="edge2" class="edge">
<title>Node1&#45;&gt;Node3</title>
<path fill="none" stroke="#63b8ff" d="M88.37,-46.22C95.28,-37.28 103.43,-26.74 109.08,-19.44"/>
<polygon fill="#63b8ff" stroke="#63b8ff" points="85.12,-43.7 81.77,-53.75 90.66,-47.98 85.12,-43.7"/>
</g>
</g>
</svg>
