<?xml version="1.0" encoding="UTF-8" standalone="no"?>
<!DOCTYPE svg PUBLIC "-//W3C//DTD SVG 1.1//EN"
 "http://www.w3.org/Graphics/SVG/1.1/DTD/svg11.dtd">
<!-- Generated by graphviz version 8.0.5 (20230430.1635)
 -->
<!-- Title: DMaterial Pages: 1 -->
<svg width="210pt" height="83pt"
 viewBox="0.00 0.00 209.75 82.50" xmlns="http://www.w3.org/2000/svg" xmlns:xlink="http://www.w3.org/1999/xlink">
<g id="graph0" class="graph" transform="scale(1 1) rotate(0) translate(4 78.5)">
<title>DMaterial</title>
<!-- Node1 -->
<g id="node1" class="node">
<title>Node1</title>
<g id="a_node1"><a xlink:title="A class to encapsulate collection of algebraic terms in the discretized forms of Maxwells equations f...">
<polygon fill="#999999" stroke="#666666" points="128.75,-19.25 70.75,-19.25 70.75,0 128.75,0 128.75,-19.25"/>
<text text-anchor="middle" x="99.75" y="-5.75" font-family="Helvetica,sans-Serif" font-size="10.00">DMaterial</text>
</a>
</g>
</g>
<!-- Node2 -->
<g id="node2" class="node">
<title>Node2</title>
<g id="a_node2"><a xlink:href="class_d_collection_base.html" target="_top" xlink:title="A class to encapsulate collection of algebraic terms in the discretized forms of Maxwells equations f...">
<polygon fill="white" stroke="#666666" points="89.5,-74.5 0,-74.5 0,-55.25 89.5,-55.25 89.5,-74.5"/>
<text text-anchor="middle" x="44.75" y="-61" font-family="Helvetica,sans-Serif" font-size="10.00">DCollectionBase</text>
</a>
</g>
</g>
<!-- Node2&#45;&gt;Node1 -->
<g id="edge1" class="edge">
<title>Node2&#45;&gt;Node1</title>
<path fill="none" stroke="#63b8ff" d="M61.52,-47.63C71.03,-38.43 82.57,-27.25 90.47,-19.61"/>
<polygon fill="#63b8ff" stroke="#63b8ff" points="59.58,-44.61 54.83,-54.08 64.45,-49.64 59.58,-44.61"/>
</g>
<!-- Node3 -->
<g id="node3" class="node">
<title>Node3</title>
<g id="a_node3"><a xlink:href="class_material_collection.html" target="_top" xlink:title=" ">
<polygon fill="white" stroke="#bfbfbf" points="201.75,-74.5 107.75,-74.5 107.75,-55.25 201.75,-55.25 201.75,-74.5"/>
<text text-anchor="middle" x="154.75" y="-61" font-family="Helvetica,sans-Serif" font-size="10.00">MaterialCollection</text>
</a>
</g>
</g>
<!-- Node3&#45;&gt;Node1 -->
<g id="edge2" class="edge">
<title>Node3&#45;&gt;Node1</title>
<path fill="none" stroke="#8b1a1a" d="M137.98,-47.63C128.47,-38.43 116.93,-27.25 109.03,-19.61"/>
<polygon fill="#8b1a1a" stroke="#8b1a1a" points="135.05,-49.64 144.67,-54.08 139.92,-44.61 135.05,-49.64"/>
</g>
</g>
</svg>
