<?xml version="1.0" encoding="UTF-8" standalone="no"?>
<!DOCTYPE svg PUBLIC "-//W3C//DTD SVG 1.1//EN"
 "http://www.w3.org/Graphics/SVG/1.1/DTD/svg11.dtd">
<!-- Generated by graphviz version 8.0.5 (20230430.1635)
 -->
<!-- Title: CurrentDensitySplitField Pages: 1 -->
<svg width="131pt" height="138pt"
 viewBox="0.00 0.00 130.50 137.75" xmlns="http://www.w3.org/2000/svg" xmlns:xlink="http://www.w3.org/1999/xlink">
<g id="graph0" class="graph" transform="scale(1 1) rotate(0) translate(4 133.75)">
<title>CurrentDensitySplitField</title>
<!-- Node1 -->
<g id="node1" class="node">
<title>Node1</title>
<g id="a_node1"><a xlink:title=" ">
<polygon fill="#999999" stroke="#666666" points="122.5,-19.25 0,-19.25 0,0 122.5,0 122.5,-19.25"/>
<text text-anchor="middle" x="61.25" y="-5.75" font-family="Helvetica,sans-Serif" font-size="10.00">CurrentDensitySplitField</text>
</a>
</g>
</g>
<!-- Node2 -->
<g id="node2" class="node">
<title>Node2</title>
<g id="a_node2"><a xlink:href="class_split_field.html" target="_top" xlink:title="A split field defined over a grid.">
<polygon fill="white" stroke="#666666" points="89.5,-74.5 33,-74.5 33,-55.25 89.5,-55.25 89.5,-74.5"/>
<text text-anchor="middle" x="61.25" y="-61" font-family="Helvetica,sans-Serif" font-size="10.00">SplitField</text>
</a>
</g>
</g>
<!-- Node2&#45;&gt;Node1 -->
<g id="edge1" class="edge">
<title>Node2&#45;&gt;Node1</title>
<path fill="none" stroke="#63b8ff" d="M61.25,-44.21C61.25,-35.77 61.25,-26.33 61.25,-19.61"/>
<polygon fill="#63b8ff" stroke="#63b8ff" points="57.75,-44.08 61.25,-54.08 64.75,-44.08 57.75,-44.08"/>
</g>
<!-- Node3 -->
<g id="node3" class="node">
<title>Node3</title>
<g id="a_node3"><a xlink:href="class_grid.html" target="_top" xlink:title=" ">
<polygon fill="white" stroke="#666666" points="78.25,-129.75 44.25,-129.75 44.25,-110.5 78.25,-110.5 78.25,-129.75"/>
<text text-anchor="middle" x="61.25" y="-116.25" font-family="Helvetica,sans-Serif" font-size="10.00">Grid</text>
</a>
</g>
</g>
<!-- Node3&#45;&gt;Node2 -->
<g id="edge2" class="edge">
<title>Node3&#45;&gt;Node2</title>
<path fill="none" stroke="#63b8ff" d="M61.25,-99.46C61.25,-91.02 61.25,-81.58 61.25,-74.86"/>
<polygon fill="#63b8ff" stroke="#63b8ff" points="57.75,-99.33 61.25,-109.33 64.75,-99.33 57.75,-99.33"/>
</g>
</g>
</svg>
