<?xml version="1.0" encoding="UTF-8" standalone="no"?>
<!DOCTYPE svg PUBLIC "-//W3C//DTD SVG 1.1//EN"
 "http://www.w3.org/Graphics/SVG/1.1/DTD/svg11.dtd">
<!-- Generated by graphviz version 8.0.5 (20230430.1635)
 -->
<!-- Title: MagneticSplitField Pages: 1 -->
<svg width="314pt" height="273pt"
 viewBox="0.00 0.00 314.12 272.75" xmlns="http://www.w3.org/2000/svg" xmlns:xlink="http://www.w3.org/1999/xlink">
<g id="graph0" class="graph" transform="scale(1 1) rotate(0) translate(4 268.75)">
<title>MagneticSplitField</title>
<!-- Node1 -->
<g id="node1" class="node">
<title>Node1</title>
<g id="a_node1"><a xlink:title=" ">
<polygon fill="#999999" stroke="#666666" points="255.88,-19.25 159.62,-19.25 159.62,0 255.88,0 255.88,-19.25"/>
<text text-anchor="middle" x="207.75" y="-5.75" font-family="Helvetica,sans-Serif" font-size="10.00">MagneticSplitField</text>
</a>
</g>
</g>
<!-- Node2 -->
<g id="node2" class="node">
<title>Node2</title>
<g id="a_node2"><a xlink:href="class_split_field.html" target="_top" xlink:title="A split field defined over a grid.">
<polygon fill="white" stroke="#666666" points="236,-75.5 179.5,-75.5 179.5,-56.25 236,-56.25 236,-75.5"/>
<text text-anchor="middle" x="207.75" y="-62" font-family="Helvetica,sans-Serif" font-size="10.00">SplitField</text>
</a>
</g>
</g>
<!-- Node2&#45;&gt;Node1 -->
<g id="edge1" class="edge">
<title>Node2&#45;&gt;Node1</title>
<path fill="none" stroke="#63b8ff" d="M207.75,-44.99C207.75,-36.2 207.75,-26.32 207.75,-19.42"/>
<polygon fill="#63b8ff" stroke="#63b8ff" points="204.25,-44.92 207.75,-54.92 211.25,-44.92 204.25,-44.92"/>
</g>
<!-- Node3 -->
<g id="node3" class="node">
<title>Node3</title>
<g id="a_node3"><a xlink:href="class_grid.html" target="_top" xlink:title=" ">
<polygon fill="white" stroke="#666666" points="181.75,-198.25 147.75,-198.25 147.75,-179 181.75,-179 181.75,-198.25"/>
<text text-anchor="middle" x="164.75" y="-184.75" font-family="Helvetica,sans-Serif" font-size="10.00">Grid</text>
</a>
</g>
</g>
<!-- Node3&#45;&gt;Node2 -->
<g id="edge2" class="edge">
<title>Node3&#45;&gt;Node2</title>
<path fill="none" stroke="#63b8ff" d="M171.66,-168.23C181.11,-141.68 197.7,-95.11 204.6,-75.73"/>
<polygon fill="#63b8ff" stroke="#63b8ff" points="168.04,-166.95 167.98,-177.55 174.63,-169.3 168.04,-166.95"/>
</g>
<!-- Node4 -->
<g id="node4" class="node">
<title>Node4</title>
<g id="a_node4"><a xlink:title=" ">
<polygon fill="white" stroke="#bfbfbf" points="101.5,-264.75 0,-264.75 0,-245.5 101.5,-245.5 101.5,-264.75"/>
<text text-anchor="middle" x="50.75" y="-251.25" font-family="Helvetica,sans-Serif" font-size="10.00">InterpolationMethod</text>
</a>
</g>
</g>
<!-- Node4&#45;&gt;Node3 -->
<g id="edge3" class="edge">
<title>Node4&#45;&gt;Node3</title>
<path fill="none" stroke="#9a32cd" stroke-dasharray="5,2" d="M56.04,-235.27C58.82,-228.42 62.9,-221.17 68.75,-216.25 91.39,-197.22 126.62,-191.74 147.52,-190.19"/>
<polygon fill="#9a32cd" stroke="#9a32cd" points="52.54,-233.71 52.68,-244.3 59.18,-235.93 52.54,-233.71"/>
<text text-anchor="middle" x="115.25" y="-218" font-family="Helvetica,sans-Serif" font-size="10.00"> interpolation_method</text>
</g>
<!-- Node5 -->
<g id="node5" class="node">
<title>Node5</title>
<g id="a_node5"><a xlink:href="structijk.html" target="_top" xlink:title="A structure for holding three values, which typically pertain to the same quantity but for each of th...">
<polygon fill="white" stroke="#666666" points="181.15,-264.75 152.35,-264.75 152.35,-245.5 181.15,-245.5 181.15,-264.75"/>
<text text-anchor="middle" x="166.75" y="-251.25" font-family="Helvetica,sans-Serif" font-size="10.00">ijk</text>
</a>
</g>
</g>
<!-- Node5&#45;&gt;Node3 -->
<g id="edge4" class="edge">
<title>Node5&#45;&gt;Node3</title>
<path fill="none" stroke="#9a32cd" stroke-dasharray="5,2" d="M166.14,-234.4C165.77,-222.43 165.31,-207.73 165.03,-198.52"/>
<polygon fill="#9a32cd" stroke="#9a32cd" points="162.66,-234.27 166.47,-244.16 169.66,-234.05 162.66,-234.27"/>
<text text-anchor="middle" x="173.88" y="-218" font-family="Helvetica,sans-Serif" font-size="10.00"> tot</text>
</g>
<!-- Node6 -->
<g id="node6" class="node">
<title>Node6</title>
<g id="a_node6"><a xlink:href="class_split_field_component.html" target="_top" xlink:title=" ">
<polygon fill="white" stroke="#bfbfbf" points="306.12,-198.25 199.38,-198.25 199.38,-179 306.12,-179 306.12,-198.25"/>
<text text-anchor="middle" x="252.75" y="-184.75" font-family="Helvetica,sans-Serif" font-size="10.00">SplitFieldComponent</text>
</a>
</g>
</g>
<!-- Node6&#45;&gt;Node2 -->
<g id="edge5" class="edge">
<title>Node6&#45;&gt;Node2</title>
<path fill="none" stroke="#9a32cd" stroke-dasharray="5,2" d="M245.66,-168.59C235.78,-142.1 218.3,-95.2 211.05,-75.73"/>
<polygon fill="#9a32cd" stroke="#9a32cd" points="242.6,-169.4 249.37,-177.55 249.16,-166.96 242.6,-169.4"/>
<text text-anchor="middle" x="248.5" y="-151.5" font-family="Helvetica,sans-Serif" font-size="10.00"> xy</text>
<text text-anchor="middle" x="248.5" y="-140.25" font-family="Helvetica,sans-Serif" font-size="10.00">xz</text>
<text text-anchor="middle" x="248.5" y="-129" font-family="Helvetica,sans-Serif" font-size="10.00">yx</text>
<text text-anchor="middle" x="248.5" y="-117.75" font-family="Helvetica,sans-Serif" font-size="10.00">yz</text>
<text text-anchor="middle" x="248.5" y="-106.5" font-family="Helvetica,sans-Serif" font-size="10.00">zx</text>
<text text-anchor="middle" x="248.5" y="-95.25" font-family="Helvetica,sans-Serif" font-size="10.00">zy</text>
</g>
<!-- Node7 -->
<g id="node7" class="node">
<title>Node7</title>
<g id="a_node7"><a xlink:href="class_tensor3_d.html" target="_top" xlink:title=" ">
<polygon fill="white" stroke="#bfbfbf" points="305,-264.75 200.5,-264.75 200.5,-245.5 305,-245.5 305,-264.75"/>
<text text-anchor="middle" x="252.75" y="-251.25" font-family="Helvetica,sans-Serif" font-size="10.00">Tensor3D&lt; double &gt;</text>
</a>
</g>
</g>
<!-- Node7&#45;&gt;Node6 -->
<g id="edge6" class="edge">
<title>Node7&#45;&gt;Node6</title>
<path fill="none" stroke="#63b8ff" d="M252.75,-234.4C252.75,-222.43 252.75,-207.73 252.75,-198.52"/>
<polygon fill="#63b8ff" stroke="#63b8ff" points="249.25,-234.16 252.75,-244.16 256.25,-234.16 249.25,-234.16"/>
</g>
</g>
</svg>
