<?xml version="1.0" encoding="UTF-8" standalone="no"?>
<!DOCTYPE svg PUBLIC "-//W3C//DTD SVG 1.1//EN"
 "http://www.w3.org/Graphics/SVG/1.1/DTD/svg11.dtd">
<!-- Generated by graphviz version 8.0.4 (20230421.1958)
 -->
<!-- Title: DCollectionBase Pages: 1 -->
<svg width="152pt" height="83pt"
 viewBox="0.00 0.00 151.50 82.50" xmlns="http://www.w3.org/2000/svg" xmlns:xlink="http://www.w3.org/1999/xlink">
<g id="graph0" class="graph" transform="scale(1 1) rotate(0) translate(4 78.5)">
<title>DCollectionBase</title>
<!-- Node1 -->
<g id="node1" class="node">
<title>Node1</title>
<g id="a_node1"><a xlink:title="A class to encapsulate collection of algebraic terms in the discretized forms of Maxwells equations f...">
<polygon fill="#999999" stroke="#666666" points="118.25,-74.5 28.75,-74.5 28.75,-55.25 118.25,-55.25 118.25,-74.5"/>
<text text-anchor="middle" x="73.5" y="-61" font-family="Helvetica,sans-Serif" font-size="10.00">DCollectionBase</text>
</a>
</g>
</g>
<!-- Node2 -->
<g id="node2" class="node">
<title>Node2</title>
<g id="a_node2"><a xlink:href="class_d_collection.html" target="_top" xlink:title="A class to encapsulate collection of algebraic terms in the discretized forms of Maxwells equations f...">
<polygon fill="white" stroke="#666666" points="67,-19.25 0,-19.25 0,0 67,0 67,-19.25"/>
<text text-anchor="middle" x="33.5" y="-5.75" font-family="Helvetica,sans-Serif" font-size="10.00">DCollection</text>
</a>
</g>
</g>
<!-- Node1&#45;&gt;Node2 -->
<g id="edge1" class="edge">
<title>Node1&#45;&gt;Node2</title>
<path fill="none" stroke="#63b8ff" d="M60.45,-46.51C53.71,-37.53 45.76,-26.95 40.25,-19.61"/>
<polygon fill="#63b8ff" stroke="#63b8ff" points="58.09,-48.19 66.89,-54.08 63.69,-43.98 58.09,-48.19"/>
</g>
<!-- Node3 -->
<g id="node3" class="node">
<title>Node3</title>
<g id="a_node3"><a xlink:href="class_d_material.html" target="_top" xlink:title="A class to encapsulate collection of algebraic terms in the discretized forms of Maxwells equations f...">
<polygon fill="white" stroke="#666666" points="143.5,-19.25 85.5,-19.25 85.5,0 143.5,0 143.5,-19.25"/>
<text text-anchor="middle" x="114.5" y="-5.75" font-family="Helvetica,sans-Serif" font-size="10.00">DMaterial</text>
</a>
</g>
</g>
<!-- Node1&#45;&gt;Node3 -->
<g id="edge2" class="edge">
<title>Node1&#45;&gt;Node3</title>
<path fill="none" stroke="#63b8ff" d="M86.87,-46.51C93.78,-37.53 101.93,-26.95 107.58,-19.61"/>
<polygon fill="#63b8ff" stroke="#63b8ff" points="83.6,-44.02 80.27,-54.08 89.14,-48.29 83.6,-44.02"/>
</g>
</g>
</svg>
