<?xml version="1.0" encoding="UTF-8" standalone="no"?>
<!DOCTYPE svg PUBLIC "-//W3C//DTD SVG 1.1//EN"
 "http://www.w3.org/Graphics/SVG/1.1/DTD/svg11.dtd">
<!-- Generated by graphviz version 13.0.1 (20250615.1724)
 -->
<!-- Title: SimulationParameters Pages: 1 -->
<svg width="373pt" height="100pt"
 viewBox="0.00 0.00 373.00 100.00" xmlns="http://www.w3.org/2000/svg" xmlns:xlink="http://www.w3.org/1999/xlink">
<g id="graph0" class="graph" transform="scale(1 1) rotate(0) translate(4 95.75)">
<title>SimulationParameters</title>
<!-- Node1 -->
<g id="Node000001" class="node">
<title>Node1</title>
<g id="a_Node000001"><a xlink:title="Class storing the various constants and behaviour flags for one executation of the tdms executable.">
<polygon fill="#999999" stroke="#666666" points="246.25,-19.25 134.25,-19.25 134.25,0 246.25,0 246.25,-19.25"/>
<text xml:space="preserve" text-anchor="middle" x="190.25" y="-5.75" font-family="Helvetica,sans-Serif" font-size="10.00">SimulationParameters</text>
</a>
</g>
</g>
<!-- Node2 -->
<g id="Node000002" class="node">
<title>Node2</title>
<g id="a_Node000002"><a xlink:href="struct_perfectly_matched_layer.html" target="_top" xlink:title=" ">
<polygon fill="white" stroke="#bfbfbf" points="116.5,-91.75 0,-91.75 0,-72.5 116.5,-72.5 116.5,-91.75"/>
<text xml:space="preserve" text-anchor="middle" x="58.25" y="-78.25" font-family="Helvetica,sans-Serif" font-size="10.00">PerfectlyMatchedLayer</text>
</a>
</g>
</g>
<!-- Node2&#45;&gt;Node1 -->
<g id="edge1_Node000001_Node000002" class="edge">
<title>Node2&#45;&gt;Node1</title>
<g id="a_edge1_Node000001_Node000002"><a xlink:title=" ">
<path fill="none" stroke="#9a32cd" stroke-dasharray="5,2" d="M85.34,-66.66C111.75,-52.55 151.09,-31.54 173.33,-19.66"/>
<polygon fill="#9a32cd" stroke="#9a32cd" points="83.74,-63.54 76.57,-71.34 87.04,-69.72 83.74,-63.54"/>
</a>
</g>
<text xml:space="preserve" text-anchor="start" x="142.95" y="-42" font-family="Helvetica,sans-Serif" font-size="10.00" fill="grey">pml</text>
</g>
<!-- Node3 -->
<g id="Node000003" class="node">
<title>Node3</title>
<g id="a_Node000003"><a xlink:href="struct_surface_spacing_stride.html" target="_top" xlink:title="A three&#45;tuple of integers that contain the stride in each direction to extract the phasors on.">
<polygon fill="white" stroke="#666666" points="245.5,-91.75 135,-91.75 135,-72.5 245.5,-72.5 245.5,-91.75"/>
<text xml:space="preserve" text-anchor="middle" x="190.25" y="-78.25" font-family="Helvetica,sans-Serif" font-size="10.00">SurfaceSpacingStride</text>
</a>
</g>
</g>
<!-- Node3&#45;&gt;Node1 -->
<g id="edge2_Node000001_Node000003" class="edge">
<title>Node3&#45;&gt;Node1</title>
<g id="a_edge2_Node000001_Node000003"><a xlink:title=" ">
<path fill="none" stroke="#9a32cd" stroke-dasharray="5,2" d="M190.25,-61.05C190.25,-47.44 190.25,-30.1 190.25,-19.7"/>
<polygon fill="#9a32cd" stroke="#9a32cd" points="186.75,-60.68 190.25,-70.68 193.75,-60.68 186.75,-60.68"/>
</a>
</g>
<text xml:space="preserve" text-anchor="start" x="193.25" y="-42" font-family="Helvetica,sans-Serif" font-size="10.00" fill="grey">spacing_stride</text>
</g>
<!-- Node4 -->
<g id="Node000004" class="node">
<title>Node4</title>
<g id="a_Node000004"><a xlink:href="struct_yee_cell_dimensions.html" target="_top" xlink:title="The x,y,z lengths of the cuboidal Yee cells.">
<polygon fill="white" stroke="#666666" points="365,-91.75 263.5,-91.75 263.5,-72.5 365,-72.5 365,-91.75"/>
<text xml:space="preserve" text-anchor="middle" x="314.25" y="-78.25" font-family="Helvetica,sans-Serif" font-size="10.00">YeeCellDimensions</text>
</a>
</g>
</g>
<!-- Node4&#45;&gt;Node1 -->
<g id="edge3_Node000001_Node000004" class="edge">
<title>Node4&#45;&gt;Node1</title>
<g id="a_edge3_Node000001_Node000004"><a xlink:title=" ">
<path fill="none" stroke="#9a32cd" stroke-dasharray="5,2" d="M297.93,-64.39C288.46,-55.4 275.93,-44.68 263.25,-37.25 250.68,-29.88 235.72,-23.99 222.63,-19.65"/>
<polygon fill="#9a32cd" stroke="#9a32cd" points="295.31,-66.72 304.9,-71.24 300.22,-61.73 295.31,-66.72"/>
</a>
</g>
<text xml:space="preserve" text-anchor="start" x="288.64" y="-42" font-family="Helvetica,sans-Serif" font-size="10.00" fill="grey">delta</text>
</g>
</g>
</svg>
