<?xml version="1.0" encoding="UTF-8" standalone="no"?>
<!DOCTYPE svg PUBLIC "-//W3C//DTD SVG 1.1//EN"
 "http://www.w3.org/Graphics/SVG/1.1/DTD/svg11.dtd">
<!-- Generated by graphviz version 8.0.5 (20230430.1635)
 -->
<!-- Title: Field Pages: 1 -->
<svg width="276pt" height="172pt"
 viewBox="0.00 0.00 275.75 171.50" xmlns="http://www.w3.org/2000/svg" xmlns:xlink="http://www.w3.org/1999/xlink">
<g id="graph0" class="graph" transform="scale(1 1) rotate(0) translate(4 167.5)">
<title>Field</title>
<!-- Node1 -->
<g id="node1" class="node">
<title>Node1</title>
<g id="a_node1"><a xlink:title=" ">
<polygon fill="#999999" stroke="#666666" points="199.25,-19.25 162.25,-19.25 162.25,0 199.25,0 199.25,-19.25"/>
<text text-anchor="middle" x="180.75" y="-5.75" font-family="Helvetica,sans-Serif" font-size="10.00">Field</text>
</a>
</g>
</g>
<!-- Node2 -->
<g id="node2" class="node">
<title>Node2</title>
<g id="a_node2"><a xlink:href="class_grid.html" target="_top" xlink:title=" ">
<polygon fill="white" stroke="#666666" points="125.75,-97 91.75,-97 91.75,-77.75 125.75,-77.75 125.75,-97"/>
<text text-anchor="middle" x="108.75" y="-83.5" font-family="Helvetica,sans-Serif" font-size="10.00">Grid</text>
</a>
</g>
</g>
<!-- Node2&#45;&gt;Node1 -->
<g id="edge1" class="edge">
<title>Node2&#45;&gt;Node1</title>
<path fill="none" stroke="#63b8ff" d="M124.66,-69.63C139.33,-54.2 160.53,-31.89 172.22,-19.6"/>
<polygon fill="#63b8ff" stroke="#63b8ff" points="122.64,-66.73 118.29,-76.39 127.72,-71.55 122.64,-66.73"/>
</g>
<!-- Node3 -->
<g id="node3" class="node">
<title>Node3</title>
<g id="a_node3"><a xlink:title=" ">
<polygon fill="white" stroke="#bfbfbf" points="101.5,-163.5 0,-163.5 0,-144.25 101.5,-144.25 101.5,-163.5"/>
<text text-anchor="middle" x="50.75" y="-150" font-family="Helvetica,sans-Serif" font-size="10.00">InterpolationMethod</text>
</a>
</g>
</g>
<!-- Node3&#45;&gt;Node2 -->
<g id="edge2" class="edge">
<title>Node3&#45;&gt;Node2</title>
<path fill="none" stroke="#9a32cd" stroke-dasharray="5,2" d="M47.38,-133.47C47.25,-127.14 48.23,-120.36 51.75,-115 60.55,-101.57 78.04,-94.79 91.34,-91.44"/>
<polygon fill="#9a32cd" stroke="#9a32cd" points="43.96,-133.41 48.51,-142.98 50.92,-132.66 43.96,-133.41"/>
<text text-anchor="middle" x="98.25" y="-116.75" font-family="Helvetica,sans-Serif" font-size="10.00"> interpolation_method</text>
</g>
<!-- Node4 -->
<g id="node4" class="node">
<title>Node4</title>
<g id="a_node4"><a xlink:href="structijk.html" target="_top" xlink:title="A structure for holding three values, which typically pertain to the same quantity but for each of th...">
<polygon fill="white" stroke="#666666" points="181.15,-163.5 152.35,-163.5 152.35,-144.25 181.15,-144.25 181.15,-163.5"/>
<text text-anchor="middle" x="166.75" y="-150" font-family="Helvetica,sans-Serif" font-size="10.00">ijk</text>
</a>
</g>
</g>
<!-- Node4&#45;&gt;Node2 -->
<g id="edge3" class="edge">
<title>Node4&#45;&gt;Node2</title>
<path fill="none" stroke="#9a32cd" stroke-dasharray="5,2" d="M157.96,-134.34C154.38,-127.83 149.88,-120.73 144.75,-115 138.63,-108.17 130.51,-101.97 123.52,-97.29"/>
<polygon fill="#9a32cd" stroke="#9a32cd" points="155.12,-135.46 162.78,-142.78 161.35,-132.28 155.12,-135.46"/>
<text text-anchor="middle" x="159.88" y="-116.75" font-family="Helvetica,sans-Serif" font-size="10.00"> tot</text>
</g>
<!-- Node5 -->
<g id="node5" class="node">
<title>Node5</title>
<g id="a_node5"><a xlink:href="class_x_y_z_tensor3_d.html" target="_top" xlink:title=" ">
<polygon fill="white" stroke="#bfbfbf" points="267.75,-97 143.75,-97 143.75,-77.75 267.75,-77.75 267.75,-97"/>
<text text-anchor="middle" x="205.75" y="-83.5" font-family="Helvetica,sans-Serif" font-size="10.00">XYZTensor3D&lt; double &gt;</text>
</a>
</g>
</g>
<!-- Node5&#45;&gt;Node1 -->
<g id="edge4" class="edge">
<title>Node5&#45;&gt;Node1</title>
<path fill="none" stroke="#9a32cd" stroke-dasharray="5,2" d="M199.36,-67C194.32,-51.76 187.54,-31.21 183.71,-19.6"/>
<polygon fill="#9a32cd" stroke="#9a32cd" points="196.33,-67.99 202.78,-76.39 202.97,-65.79 196.33,-67.99"/>
<text text-anchor="middle" x="208.75" y="-50.25" font-family="Helvetica,sans-Serif" font-size="10.00"> imag</text>
<text text-anchor="middle" x="208.75" y="-39" font-family="Helvetica,sans-Serif" font-size="10.00">real</text>
</g>
</g>
</svg>
