<?xml version="1.0" encoding="UTF-8" standalone="no"?>
<!DOCTYPE svg PUBLIC "-//W3C//DTD SVG 1.1//EN"
 "http://www.w3.org/Graphics/SVG/1.1/DTD/svg11.dtd">
<!-- Generated by graphviz version 13.1.0 (20250701.0955)
 -->
<!-- Title: ElectricSplitField Pages: 1 -->
<svg width="166pt" height="305pt"
 viewBox="0.00 0.00 166.00 305.00" xmlns="http://www.w3.org/2000/svg" xmlns:xlink="http://www.w3.org/1999/xlink">
<g id="graph0" class="graph" transform="scale(1 1) rotate(0) translate(4 300.75)">
<title>ElectricSplitField</title>
<!-- Node1 -->
<g id="Node000001" class="node">
<title>Node1</title>
<g id="a_Node000001"><a xlink:title=" ">
<polygon fill="#999999" stroke="#666666" points="104.75,-19.25 15.25,-19.25 15.25,0 104.75,0 104.75,-19.25"/>
<text xml:space="preserve" text-anchor="middle" x="60" y="-5.75" font-family="Helvetica,sans-Serif" font-size="10.00">ElectricSplitField</text>
</a>
</g>
</g>
<!-- Node2 -->
<g id="Node000002" class="node">
<title>Node2</title>
<g id="a_Node000002"><a xlink:href="class_split_field.html" target="_top" xlink:title="A split field defined over a grid.">
<polygon fill="white" stroke="#666666" points="88.25,-75.5 31.75,-75.5 31.75,-56.25 88.25,-56.25 88.25,-75.5"/>
<text xml:space="preserve" text-anchor="middle" x="60" y="-62" font-family="Helvetica,sans-Serif" font-size="10.00">SplitField</text>
</a>
</g>
</g>
<!-- Node2&#45;&gt;Node1 -->
<g id="edge1_Node000001_Node000002" class="edge">
<title>Node2&#45;&gt;Node1</title>
<g id="a_edge1_Node000001_Node000002"><a xlink:title=" ">
<path fill="none" stroke="#63b8ff" d="M60,-44.69C60,-35.98 60,-26.24 60,-19.42"/>
<polygon fill="#63b8ff" stroke="#63b8ff" points="56.5,-44.4 60,-54.4 63.5,-44.4 56.5,-44.4"/>
</a>
</g>
</g>
<!-- Node3 -->
<g id="Node000003" class="node">
<title>Node3</title>
<g id="a_Node000003"><a xlink:href="class_grid.html" target="_top" xlink:title=" ">
<polygon fill="white" stroke="#666666" points="34,-224.25 0,-224.25 0,-205 34,-205 34,-224.25"/>
<text xml:space="preserve" text-anchor="middle" x="17" y="-210.75" font-family="Helvetica,sans-Serif" font-size="10.00">Grid</text>
</a>
</g>
</g>
<!-- Node3&#45;&gt;Node2 -->
<g id="edge2_Node000002_Node000003" class="edge">
<title>Node3&#45;&gt;Node2</title>
<g id="a_edge2_Node000002_Node000003"><a xlink:title=" ">
<path fill="none" stroke="#63b8ff" d="M22.68,-194.23C32.1,-162.08 50.59,-99 57.4,-75.76"/>
<polygon fill="#63b8ff" stroke="#63b8ff" points="19.44,-192.85 19.99,-203.43 26.16,-194.82 19.44,-192.85"/>
</a>
</g>
</g>
<!-- Node4 -->
<g id="Node000004" class="node">
<title>Node4</title>
<g id="a_Node000004"><a xlink:href="structijk.html" target="_top" xlink:title="A structure for holding three values, which typically pertain to the same quantity but for each of th...">
<polygon fill="white" stroke="#666666" points="31.4,-296.75 2.6,-296.75 2.6,-277.5 31.4,-277.5 31.4,-296.75"/>
<text xml:space="preserve" text-anchor="middle" x="17" y="-283.25" font-family="Helvetica,sans-Serif" font-size="10.00">ijk</text>
</a>
</g>
</g>
<!-- Node4&#45;&gt;Node3 -->
<g id="edge3_Node000003_Node000004" class="edge">
<title>Node4&#45;&gt;Node3</title>
<g id="a_edge3_Node000003_Node000004"><a xlink:title=" ">
<path fill="none" stroke="#9a32cd" stroke-dasharray="5,2" d="M17,-266.05C17,-252.44 17,-235.1 17,-224.7"/>
<polygon fill="#9a32cd" stroke="#9a32cd" points="13.5,-265.68 17,-275.68 20.5,-265.68 13.5,-265.68"/>
</a>
</g>
<text xml:space="preserve" text-anchor="start" x="20" y="-247" font-family="Helvetica,sans-Serif" font-size="10.00" fill="grey">tot</text>
</g>
<!-- Node5 -->
<g id="Node000005" class="node">
<title>Node5</title>
<g id="a_Node000005"><a xlink:href="class_split_field_component.html" target="_top" xlink:title=" ">
<polygon fill="white" stroke="#bfbfbf" points="158.38,-224.25 51.63,-224.25 51.63,-205 158.38,-205 158.38,-224.25"/>
<text xml:space="preserve" text-anchor="middle" x="105" y="-210.75" font-family="Helvetica,sans-Serif" font-size="10.00">SplitFieldComponent</text>
</a>
</g>
</g>
<!-- Node5&#45;&gt;Node2 -->
<g id="edge4_Node000002_Node000005" class="edge">
<title>Node5&#45;&gt;Node2</title>
<g id="a_edge4_Node000002_Node000005"><a xlink:title=" ">
<path fill="none" stroke="#9a32cd" stroke-dasharray="5,2" d="M99.05,-194.23C89.19,-162.08 69.85,-99 62.72,-75.76"/>
<polygon fill="#9a32cd" stroke="#9a32cd" points="95.6,-194.9 101.88,-203.44 102.29,-192.85 95.6,-194.9"/>
</a>
</g>
<text xml:space="preserve" text-anchor="start" x="99.39" y="-174.5" font-family="Helvetica,sans-Serif" font-size="10.00" fill="grey">xy</text>
<text xml:space="preserve" text-anchor="start" x="99.39" y="-159.25" font-family="Helvetica,sans-Serif" font-size="10.00" fill="grey">xz</text>
<text xml:space="preserve" text-anchor="start" x="99.39" y="-144" font-family="Helvetica,sans-Serif" font-size="10.00" fill="grey">yx</text>
<text xml:space="preserve" text-anchor="start" x="99.39" y="-128.75" font-family="Helvetica,sans-Serif" font-size="10.00" fill="grey">yz</text>
<text xml:space="preserve" text-anchor="start" x="99.39" y="-113.5" font-family="Helvetica,sans-Serif" font-size="10.00" fill="grey">zx</text>
<text xml:space="preserve" text-anchor="start" x="99.39" y="-98.25" font-family="Helvetica,sans-Serif" font-size="10.00" fill="grey">zy</text>
</g>
<!-- Node6 -->
<g id="Node000006" class="node">
<title>Node6</title>
<g id="a_Node000006"><a xlink:title=" ">
<polygon fill="white" stroke="#bfbfbf" points="157.25,-296.75 52.75,-296.75 52.75,-277.5 157.25,-277.5 157.25,-296.75"/>
<text xml:space="preserve" text-anchor="middle" x="105" y="-283.25" font-family="Helvetica,sans-Serif" font-size="10.00">Tensor3D&lt; double &gt;</text>
</a>
</g>
</g>
<!-- Node6&#45;&gt;Node5 -->
<g id="edge5_Node000005_Node000006" class="edge">
<title>Node6&#45;&gt;Node5</title>
<g id="a_edge5_Node000005_Node000006"><a xlink:title=" ">
<path fill="none" stroke="#63b8ff" d="M105,-266.05C105,-252.44 105,-235.1 105,-224.7"/>
<polygon fill="#63b8ff" stroke="#63b8ff" points="101.5,-265.68 105,-275.68 108.5,-265.68 101.5,-265.68"/>
</a>
</g>
</g>
</g>
</svg>
