<?xml version="1.0" encoding="UTF-8" standalone="no"?>
<!DOCTYPE svg PUBLIC "-//W3C//DTD SVG 1.1//EN"
 "http://www.w3.org/Graphics/SVG/1.1/DTD/svg11.dtd">
<!-- Generated by graphviz version 8.0.2 (20230410.1723)
 -->
<!-- Title: CMaterial Pages: 1 -->
<svg width="212pt" height="171pt"
 viewBox="0.00 0.00 211.50 171.00" xmlns="http://www.w3.org/2000/svg" xmlns:xlink="http://www.w3.org/1999/xlink">
<g id="graph0" class="graph" transform="scale(1 1) rotate(0) translate(4 167)">
<title>CMaterial</title>
<!-- Node1 -->
<g id="node1" class="node">
<title>Node1</title>
<g id="a_node1"><a xlink:title="A class to encapsulate collection of algebraic terms in the discretized forms of Maxwells equations f...">
<polygon fill="#999999" stroke="#666666" points="129.5,-19 70.5,-19 70.5,0 129.5,0 129.5,-19"/>
<text text-anchor="middle" x="100" y="-7" font-family="Helvetica,sans-Serif" font-size="10.00">CMaterial</text>
</a>
</g>
</g>
<!-- Node2 -->
<g id="node2" class="node">
<title>Node2</title>
<g id="a_node2"><a xlink:href="class_c_collection_base.html" target="_top" xlink:title="A class to encapsulate collection of algebraic terms in the discretized forms of Maxwells equations f...">
<polygon fill="white" stroke="#666666" points="90,-75 0,-75 0,-56 90,-56 90,-75"/>
<text text-anchor="middle" x="45" y="-63" font-family="Helvetica,sans-Serif" font-size="10.00">CCollectionBase</text>
</a>
</g>
</g>
<!-- Node2&#45;&gt;Node1 -->
<g id="edge1" class="edge">
<title>Node2&#45;&gt;Node1</title>
<path fill="none" stroke="#63b8ff" d="M61.88,-47.93C71.51,-38.47 83.21,-26.98 91.09,-19.25"/>
<polygon fill="#63b8ff" stroke="#63b8ff" points="59.77,-45.08 55.08,-54.58 64.67,-50.07 59.77,-45.08"/>
</g>
<!-- Node3 -->
<g id="node3" class="node">
<title>Node3</title>
<g id="a_node3"><a xlink:href="class_x_y_z_vectors.html" target="_top" xlink:title=" ">
<polygon fill="white" stroke="#bfbfbf" points="80,-163 10,-163 10,-144 80,-144 80,-163"/>
<text text-anchor="middle" x="45" y="-151" font-family="Helvetica,sans-Serif" font-size="10.00">XYZVectors</text>
</a>
</g>
</g>
<!-- Node3&#45;&gt;Node2 -->
<g id="edge2" class="edge">
<title>Node3&#45;&gt;Node2</title>
<path fill="none" stroke="#9a32cd" stroke-dasharray="5,2" d="M45,-132.63C45,-114.62 45,-88.9 45,-75.46"/>
<polygon fill="#9a32cd" stroke="#9a32cd" points="41.5,-132.62 45,-142.62 48.5,-132.62 41.5,-132.62"/>
<text text-anchor="middle" x="49.5" y="-118" font-family="Helvetica,sans-Serif" font-size="10.00"> a</text>
<text text-anchor="middle" x="49.5" y="-107" font-family="Helvetica,sans-Serif" font-size="10.00">b</text>
<text text-anchor="middle" x="49.5" y="-96" font-family="Helvetica,sans-Serif" font-size="10.00">c</text>
</g>
<!-- Node4 -->
<g id="node4" class="node">
<title>Node4</title>
<g id="a_node4"><a xlink:href="class_material_collection.html" target="_top" xlink:title=" ">
<polygon fill="white" stroke="#bfbfbf" points="203.5,-75 108.5,-75 108.5,-56 203.5,-56 203.5,-75"/>
<text text-anchor="middle" x="156" y="-63" font-family="Helvetica,sans-Serif" font-size="10.00">MaterialCollection</text>
</a>
</g>
</g>
<!-- Node4&#45;&gt;Node1 -->
<g id="edge3" class="edge">
<title>Node4&#45;&gt;Node1</title>
<path fill="none" stroke="#8b1a1a" d="M139.11,-48.22C129.24,-38.7 117.17,-27.06 109.08,-19.25"/>
<polygon fill="#8b1a1a" stroke="#8b1a1a" points="136.12,-50.16 145.75,-54.58 140.98,-45.12 136.12,-50.16"/>
</g>
</g>
</svg>
