<?xml version="1.0" encoding="UTF-8" standalone="no"?>
<!DOCTYPE svg PUBLIC "-//W3C//DTD SVG 1.1//EN"
 "http://www.w3.org/Graphics/SVG/1.1/DTD/svg11.dtd">
<!-- Generated by graphviz version 9.0.0 (20230911.1827)
 -->
<!-- Title: ElectricField Pages: 1 -->
<svg width="276pt" height="228pt"
 viewBox="0.00 0.00 275.75 227.75" xmlns="http://www.w3.org/2000/svg" xmlns:xlink="http://www.w3.org/1999/xlink">
<g id="graph0" class="graph" transform="scale(1 1) rotate(0) translate(4 223.75)">
<title>ElectricField</title>
<!-- Node1 -->
<g id="Node000001" class="node">
<title>Node1</title>
<g id="a_Node000001"><a xlink:title=" ">
<polygon fill="#999999" stroke="#666666" points="215.75,-19.25 145.75,-19.25 145.75,0 215.75,0 215.75,-19.25"/>
<text text-anchor="middle" x="180.75" y="-5.75" font-family="Helvetica,sans-Serif" font-size="10.00">ElectricField</text>
</a>
</g>
</g>
<!-- Node2 -->
<g id="Node000002" class="node">
<title>Node2</title>
<g id="a_Node000002"><a xlink:href="class_field.html" target="_top" xlink:title=" ">
<polygon fill="white" stroke="#666666" points="199.25,-75.5 162.25,-75.5 162.25,-56.25 199.25,-56.25 199.25,-75.5"/>
<text text-anchor="middle" x="180.75" y="-62" font-family="Helvetica,sans-Serif" font-size="10.00">Field</text>
</a>
</g>
</g>
<!-- Node2&#45;&gt;Node1 -->
<g id="edge1_Node000001_Node000002" class="edge">
<title>Node2&#45;&gt;Node1</title>
<g id="a_edge1_Node000001_Node000002"><a xlink:title=" ">
<path fill="none" stroke="#63b8ff" d="M180.75,-44.69C180.75,-35.98 180.75,-26.24 180.75,-19.42"/>
<polygon fill="#63b8ff" stroke="#63b8ff" points="177.25,-44.4 180.75,-54.4 184.25,-44.4 177.25,-44.4"/>
</a>
</g>
</g>
<!-- Node3 -->
<g id="Node000003" class="node">
<title>Node3</title>
<g id="a_Node000003"><a xlink:href="class_grid.html" target="_top" xlink:title=" ">
<polygon fill="white" stroke="#666666" points="125.75,-153.25 91.75,-153.25 91.75,-134 125.75,-134 125.75,-153.25"/>
<text text-anchor="middle" x="108.75" y="-139.75" font-family="Helvetica,sans-Serif" font-size="10.00">Grid</text>
</a>
</g>
</g>
<!-- Node3&#45;&gt;Node2 -->
<g id="edge2_Node000002_Node000003" class="edge">
<title>Node3&#45;&gt;Node2</title>
<g id="a_edge2_Node000002_Node000003"><a xlink:title=" ">
<path fill="none" stroke="#63b8ff" d="M125.07,-125.45C139.72,-110.04 160.64,-88.03 172.22,-75.85"/>
<polygon fill="#63b8ff" stroke="#63b8ff" points="122.69,-122.88 118.33,-132.54 127.76,-127.7 122.69,-122.88"/>
</a>
</g>
</g>
<!-- Node4 -->
<g id="Node000004" class="node">
<title>Node4</title>
<g id="a_Node000004"><a xlink:title=" ">
<polygon fill="white" stroke="#bfbfbf" points="101.5,-219.75 0,-219.75 0,-200.5 101.5,-200.5 101.5,-219.75"/>
<text text-anchor="middle" x="50.75" y="-206.25" font-family="Helvetica,sans-Serif" font-size="10.00">InterpolationMethod</text>
</a>
</g>
</g>
<!-- Node4&#45;&gt;Node3 -->
<g id="edge3_Node000003_Node000004" class="edge">
<title>Node4&#45;&gt;Node3</title>
<g id="a_edge3_Node000003_Node000004"><a xlink:title=" ">
<path fill="none" stroke="#9a32cd" stroke-dasharray="5,2" d="M47.38,-189.24C47.3,-183.05 48.32,-176.48 51.75,-171.25 60.55,-157.82 78.04,-151.04 91.34,-147.69"/>
<polygon fill="#9a32cd" stroke="#9a32cd" points="43.85,-189.14 48.36,-198.73 50.81,-188.42 43.85,-189.14"/>
</a>
</g>
<text text-anchor="middle" x="98.25" y="-173" font-family="Helvetica,sans-Serif" font-size="10.00" fill="grey"> interpolation_method</text>
</g>
<!-- Node5 -->
<g id="Node000005" class="node">
<title>Node5</title>
<g id="a_Node000005"><a xlink:href="structijk.html" target="_top" xlink:title="A structure for holding three values, which typically pertain to the same quantity but for each of th...">
<polygon fill="white" stroke="#666666" points="181.15,-219.75 152.35,-219.75 152.35,-200.5 181.15,-200.5 181.15,-219.75"/>
<text text-anchor="middle" x="166.75" y="-206.25" font-family="Helvetica,sans-Serif" font-size="10.00">ijk</text>
</a>
</g>
</g>
<!-- Node5&#45;&gt;Node3 -->
<g id="edge4_Node000003_Node000005" class="edge">
<title>Node5&#45;&gt;Node3</title>
<g id="a_edge4_Node000003_Node000005"><a xlink:title=" ">
<path fill="none" stroke="#9a32cd" stroke-dasharray="5,2" d="M157.7,-190.12C154.17,-183.75 149.75,-176.84 144.75,-171.25 138.63,-164.42 130.51,-158.22 123.52,-153.54"/>
<polygon fill="#9a32cd" stroke="#9a32cd" points="154.41,-191.38 162.09,-198.69 160.65,-188.19 154.41,-191.38"/>
</a>
</g>
<text text-anchor="middle" x="159.88" y="-173" font-family="Helvetica,sans-Serif" font-size="10.00" fill="grey"> tot</text>
</g>
<!-- Node6 -->
<g id="Node000006" class="node">
<title>Node6</title>
<g id="a_Node000006"><a xlink:href="class_x_y_z_tensor3_d.html" target="_top" xlink:title=" ">
<polygon fill="white" stroke="#bfbfbf" points="267.75,-153.25 143.75,-153.25 143.75,-134 267.75,-134 267.75,-153.25"/>
<text text-anchor="middle" x="205.75" y="-139.75" font-family="Helvetica,sans-Serif" font-size="10.00">XYZTensor3D&lt; double &gt;</text>
</a>
</g>
</g>
<!-- Node6&#45;&gt;Node2 -->
<g id="edge5_Node000002_Node000006" class="edge">
<title>Node6&#45;&gt;Node2</title>
<g id="a_edge5_Node000002_Node000006"><a xlink:title=" ">
<path fill="none" stroke="#9a32cd" stroke-dasharray="5,2" d="M199.21,-122.8C194.19,-107.6 187.51,-87.35 183.71,-75.85"/>
<polygon fill="#9a32cd" stroke="#9a32cd" points="195.85,-123.8 202.31,-132.2 202.5,-121.61 195.85,-123.8"/>
</a>
</g>
<text text-anchor="middle" x="208.75" y="-106.5" font-family="Helvetica,sans-Serif" font-size="10.00" fill="grey"> imag</text>
<text text-anchor="middle" x="208.75" y="-95.25" font-family="Helvetica,sans-Serif" font-size="10.00" fill="grey">real</text>
</g>
</g>
</svg>
