<?xml version="1.0" encoding="UTF-8" standalone="no"?>
<!DOCTYPE svg PUBLIC "-//W3C//DTD SVG 1.1//EN"
 "http://www.w3.org/Graphics/SVG/1.1/DTD/svg11.dtd">
<!-- Generated by graphviz version 9.0.0 (20230911.1827)
 -->
<!-- Title: MagneticSplitField Pages: 1 -->
<svg width="314pt" height="273pt"
 viewBox="0.00 0.00 314.12 272.75" xmlns="http://www.w3.org/2000/svg" xmlns:xlink="http://www.w3.org/1999/xlink">
<g id="graph0" class="graph" transform="scale(1 1) rotate(0) translate(4 268.75)">
<title>MagneticSplitField</title>
<!-- Node1 -->
<g id="Node000001" class="node">
<title>Node1</title>
<g id="a_Node000001"><a xlink:title=" ">
<polygon fill="#999999" stroke="#666666" points="255.88,-19.25 159.62,-19.25 159.62,0 255.88,0 255.88,-19.25"/>
<text text-anchor="middle" x="207.75" y="-5.75" font-family="Helvetica,sans-Serif" font-size="10.00">MagneticSplitField</text>
</a>
</g>
</g>
<!-- Node2 -->
<g id="Node000002" class="node">
<title>Node2</title>
<g id="a_Node000002"><a xlink:href="class_split_field.html" target="_top" xlink:title="A split field defined over a grid.">
<polygon fill="white" stroke="#666666" points="236,-75.5 179.5,-75.5 179.5,-56.25 236,-56.25 236,-75.5"/>
<text text-anchor="middle" x="207.75" y="-62" font-family="Helvetica,sans-Serif" font-size="10.00">SplitField</text>
</a>
</g>
</g>
<!-- Node2&#45;&gt;Node1 -->
<g id="edge1_Node000001_Node000002" class="edge">
<title>Node2&#45;&gt;Node1</title>
<g id="a_edge1_Node000001_Node000002"><a xlink:title=" ">
<path fill="none" stroke="#63b8ff" d="M207.75,-44.69C207.75,-35.98 207.75,-26.24 207.75,-19.42"/>
<polygon fill="#63b8ff" stroke="#63b8ff" points="204.25,-44.4 207.75,-54.4 211.25,-44.4 204.25,-44.4"/>
</a>
</g>
</g>
<!-- Node3 -->
<g id="Node000003" class="node">
<title>Node3</title>
<g id="a_Node000003"><a xlink:href="class_grid.html" target="_top" xlink:title=" ">
<polygon fill="white" stroke="#666666" points="181.75,-198.25 147.75,-198.25 147.75,-179 181.75,-179 181.75,-198.25"/>
<text text-anchor="middle" x="164.75" y="-184.75" font-family="Helvetica,sans-Serif" font-size="10.00">Grid</text>
</a>
</g>
</g>
<!-- Node3&#45;&gt;Node2 -->
<g id="edge2_Node000002_Node000003" class="edge">
<title>Node3&#45;&gt;Node2</title>
<g id="a_edge2_Node000002_Node000003"><a xlink:title=" ">
<path fill="none" stroke="#63b8ff" d="M171.78,-167.87C181.26,-141.27 197.73,-95.02 204.6,-75.73"/>
<polygon fill="#63b8ff" stroke="#63b8ff" points="168.55,-166.53 168.49,-177.12 175.14,-168.88 168.55,-166.53"/>
</a>
</g>
</g>
<!-- Node4 -->
<g id="Node000004" class="node">
<title>Node4</title>
<g id="a_Node000004"><a xlink:title=" ">
<polygon fill="white" stroke="#bfbfbf" points="101.5,-264.75 0,-264.75 0,-245.5 101.5,-245.5 101.5,-264.75"/>
<text text-anchor="middle" x="50.75" y="-251.25" font-family="Helvetica,sans-Serif" font-size="10.00">InterpolationMethod</text>
</a>
</g>
</g>
<!-- Node4&#45;&gt;Node3 -->
<g id="edge3_Node000003_Node000004" class="edge">
<title>Node4&#45;&gt;Node3</title>
<g id="a_edge3_Node000003_Node000004"><a xlink:title=" ">
<path fill="none" stroke="#9a32cd" stroke-dasharray="5,2" d="M56.24,-234.78C59.01,-228.08 63.04,-221.05 68.75,-216.25 91.39,-197.22 126.62,-191.74 147.52,-190.19"/>
<polygon fill="#9a32cd" stroke="#9a32cd" points="53.06,-233.27 53.17,-243.87 59.69,-235.52 53.06,-233.27"/>
</a>
</g>
<text text-anchor="middle" x="115.25" y="-218" font-family="Helvetica,sans-Serif" font-size="10.00" fill="grey"> interpolation_method</text>
</g>
<!-- Node5 -->
<g id="Node000005" class="node">
<title>Node5</title>
<g id="a_Node000005"><a xlink:href="structijk.html" target="_top" xlink:title="A structure for holding three values, which typically pertain to the same quantity but for each of th...">
<polygon fill="white" stroke="#666666" points="181.15,-264.75 152.35,-264.75 152.35,-245.5 181.15,-245.5 181.15,-264.75"/>
<text text-anchor="middle" x="166.75" y="-251.25" font-family="Helvetica,sans-Serif" font-size="10.00">ijk</text>
</a>
</g>
</g>
<!-- Node5&#45;&gt;Node3 -->
<g id="edge4_Node000003_Node000005" class="edge">
<title>Node5&#45;&gt;Node3</title>
<g id="a_edge4_Node000003_Node000005"><a xlink:title=" ">
<path fill="none" stroke="#9a32cd" stroke-dasharray="5,2" d="M166.13,-234.02C165.76,-222.12 165.31,-207.63 165.03,-198.52"/>
<polygon fill="#9a32cd" stroke="#9a32cd" points="162.62,-233.76 166.42,-243.64 169.61,-233.54 162.62,-233.76"/>
</a>
</g>
<text text-anchor="middle" x="173.88" y="-218" font-family="Helvetica,sans-Serif" font-size="10.00" fill="grey"> tot</text>
</g>
<!-- Node6 -->
<g id="Node000006" class="node">
<title>Node6</title>
<g id="a_Node000006"><a xlink:href="class_split_field_component.html" target="_top" xlink:title=" ">
<polygon fill="white" stroke="#bfbfbf" points="306.12,-198.25 199.38,-198.25 199.38,-179 306.12,-179 306.12,-198.25"/>
<text text-anchor="middle" x="252.75" y="-184.75" font-family="Helvetica,sans-Serif" font-size="10.00">SplitFieldComponent</text>
</a>
</g>
</g>
<!-- Node6&#45;&gt;Node2 -->
<g id="edge5_Node000002_Node000006" class="edge">
<title>Node6&#45;&gt;Node2</title>
<g id="a_edge5_Node000002_Node000006"><a xlink:title=" ">
<path fill="none" stroke="#9a32cd" stroke-dasharray="5,2" d="M245.39,-167.87C235.47,-141.27 218.24,-95.02 211.05,-75.73"/>
<polygon fill="#9a32cd" stroke="#9a32cd" points="242.07,-168.98 248.84,-177.13 248.63,-166.54 242.07,-168.98"/>
</a>
</g>
<text text-anchor="middle" x="248.5" y="-151.5" font-family="Helvetica,sans-Serif" font-size="10.00" fill="grey"> xy</text>
<text text-anchor="middle" x="248.5" y="-140.25" font-family="Helvetica,sans-Serif" font-size="10.00" fill="grey">xz</text>
<text text-anchor="middle" x="248.5" y="-129" font-family="Helvetica,sans-Serif" font-size="10.00" fill="grey">yx</text>
<text text-anchor="middle" x="248.5" y="-117.75" font-family="Helvetica,sans-Serif" font-size="10.00" fill="grey">yz</text>
<text text-anchor="middle" x="248.5" y="-106.5" font-family="Helvetica,sans-Serif" font-size="10.00" fill="grey">zx</text>
<text text-anchor="middle" x="248.5" y="-95.25" font-family="Helvetica,sans-Serif" font-size="10.00" fill="grey">zy</text>
</g>
<!-- Node7 -->
<g id="Node000007" class="node">
<title>Node7</title>
<g id="a_Node000007"><a xlink:title=" ">
<polygon fill="white" stroke="#bfbfbf" points="305,-264.75 200.5,-264.75 200.5,-245.5 305,-245.5 305,-264.75"/>
<text text-anchor="middle" x="252.75" y="-251.25" font-family="Helvetica,sans-Serif" font-size="10.00">Tensor3D&lt; double &gt;</text>
</a>
</g>
</g>
<!-- Node7&#45;&gt;Node6 -->
<g id="edge6_Node000006_Node000007" class="edge">
<title>Node7&#45;&gt;Node6</title>
<g id="a_edge6_Node000006_Node000007"><a xlink:title=" ">
<path fill="none" stroke="#63b8ff" d="M252.75,-233.65C252.75,-221.82 252.75,-207.54 252.75,-198.52"/>
<polygon fill="#63b8ff" stroke="#63b8ff" points="249.25,-233.64 252.75,-243.64 256.25,-233.64 249.25,-233.64"/>
</a>
</g>
</g>
</g>
</svg>
