<?xml version="1.0" encoding="UTF-8" standalone="no"?>
<!DOCTYPE svg PUBLIC "-//W3C//DTD SVG 1.1//EN"
 "http://www.w3.org/Graphics/SVG/1.1/DTD/svg11.dtd">
<!-- Generated by graphviz version 8.0.4 (20230421.1958)
 -->
<!-- Title: Field Pages: 1 -->
<svg width="184pt" height="172pt"
 viewBox="0.00 0.00 184.00 171.50" xmlns="http://www.w3.org/2000/svg" xmlns:xlink="http://www.w3.org/1999/xlink">
<g id="graph0" class="graph" transform="scale(1 1) rotate(0) translate(4 167.5)">
<title>Field</title>
<!-- Node1 -->
<g id="node1" class="node">
<title>Node1</title>
<g id="a_node1"><a xlink:title=" ">
<polygon fill="#999999" stroke="#666666" points="107.5,-19.25 70.5,-19.25 70.5,0 107.5,0 107.5,-19.25"/>
<text text-anchor="middle" x="89" y="-5.75" font-family="Helvetica,sans-Serif" font-size="10.00">Field</text>
</a>
</g>
</g>
<!-- Node2 -->
<g id="node2" class="node">
<title>Node2</title>
<g id="a_node2"><a xlink:href="class_grid.html" target="_top" xlink:title=" ">
<polygon fill="white" stroke="#666666" points="34,-97 0,-97 0,-77.75 34,-77.75 34,-97"/>
<text text-anchor="middle" x="17" y="-83.5" font-family="Helvetica,sans-Serif" font-size="10.00">Grid</text>
</a>
</g>
</g>
<!-- Node2&#45;&gt;Node1 -->
<g id="edge1" class="edge">
<title>Node2&#45;&gt;Node1</title>
<path fill="none" stroke="#63b8ff" d="M32.91,-69.63C47.58,-54.2 68.78,-31.89 80.47,-19.6"/>
<polygon fill="#63b8ff" stroke="#63b8ff" points="30.89,-66.73 26.54,-76.39 35.97,-71.55 30.89,-66.73"/>
</g>
<!-- Node3 -->
<g id="node3" class="node">
<title>Node3</title>
<g id="a_node3"><a xlink:href="structijk.html" target="_top" xlink:title="A structure for holding three values, which typically pertain to the same quantity but for each of th...">
<polygon fill="white" stroke="#666666" points="31.4,-163.5 2.6,-163.5 2.6,-144.25 31.4,-144.25 31.4,-163.5"/>
<text text-anchor="middle" x="17" y="-150" font-family="Helvetica,sans-Serif" font-size="10.00">ijk</text>
</a>
</g>
</g>
<!-- Node3&#45;&gt;Node2 -->
<g id="edge2" class="edge">
<title>Node3&#45;&gt;Node2</title>
<path fill="none" stroke="#9a32cd" stroke-dasharray="5,2" d="M17,-133.15C17,-121.18 17,-106.48 17,-97.27"/>
<polygon fill="#9a32cd" stroke="#9a32cd" points="13.5,-132.91 17,-142.91 20.5,-132.91 13.5,-132.91"/>
<text text-anchor="middle" x="24.12" y="-116.75" font-family="Helvetica,sans-Serif" font-size="10.00"> tot</text>
</g>
<!-- Node4 -->
<g id="node4" class="node">
<title>Node4</title>
<g id="a_node4"><a xlink:href="class_x_y_z_tensor3_d.html" target="_top" xlink:title=" ">
<polygon fill="white" stroke="#bfbfbf" points="176,-97 52,-97 52,-77.75 176,-77.75 176,-97"/>
<text text-anchor="middle" x="114" y="-83.5" font-family="Helvetica,sans-Serif" font-size="10.00">XYZTensor3D&lt; double &gt;</text>
</a>
</g>
</g>
<!-- Node4&#45;&gt;Node1 -->
<g id="edge3" class="edge">
<title>Node4&#45;&gt;Node1</title>
<path fill="none" stroke="#9a32cd" stroke-dasharray="5,2" d="M107.61,-67C102.57,-51.76 95.79,-31.21 91.96,-19.6"/>
<polygon fill="#9a32cd" stroke="#9a32cd" points="104.58,-67.99 111.03,-76.39 111.22,-65.79 104.58,-67.99"/>
<text text-anchor="middle" x="117" y="-50.25" font-family="Helvetica,sans-Serif" font-size="10.00"> imag</text>
<text text-anchor="middle" x="117" y="-39" font-family="Helvetica,sans-Serif" font-size="10.00">real</text>
</g>
</g>
</svg>
