<?xml version="1.0" encoding="UTF-8" standalone="no"?>
<!DOCTYPE svg PUBLIC "-//W3C//DTD SVG 1.1//EN"
 "http://www.w3.org/Graphics/SVG/1.1/DTD/svg11.dtd">
<!-- Generated by graphviz version 8.0.5 (20230430.1635)
 -->
<!-- Title: tdms/include/fdtd_grid_initialiser.h Pages: 1 -->
<svg width="163pt" height="160pt"
 viewBox="0.00 0.00 163.12 160.25" xmlns="http://www.w3.org/2000/svg" xmlns:xlink="http://www.w3.org/1999/xlink">
<g id="graph0" class="graph" transform="scale(1 1) rotate(0) translate(4 156.25)">
<title>tdms/include/fdtd_grid_initialiser.h</title>
<!-- Node1 -->
<g id="node1" class="node">
<title>Node1</title>
<g id="a_node1"><a xlink:title="Initialisation of the FDTD grid.">
<polygon fill="#999999" stroke="#666666" points="155.12,-152.25 43.13,-152.25 43.13,-121.75 155.12,-121.75 155.12,-152.25"/>
<text text-anchor="start" x="51.12" y="-138.75" font-family="Helvetica,sans-Serif" font-size="10.00">tdms/include/fdtd_grid</text>
<text text-anchor="middle" x="99.12" y="-127.5" font-family="Helvetica,sans-Serif" font-size="10.00">_initialiser.h</text>
</a>
</g>
</g>
<!-- Node2 -->
<g id="node2" class="node">
<title>Node2</title>
<g id="a_node2"><a xlink:href="hdf5__io_8h.html" target="_top" xlink:title="Helper classes for HDF5 file I/O.">
<polygon fill="white" stroke="#666666" points="114.25,-85.75 0,-85.75 0,-66.5 114.25,-66.5 114.25,-85.75"/>
<text text-anchor="middle" x="57.12" y="-72.25" font-family="Helvetica,sans-Serif" font-size="10.00">tdms/include/hdf5_io.h</text>
</a>
</g>
</g>
<!-- Node1&#45;&gt;Node2 -->
<g id="edge1" class="edge">
<title>Node1&#45;&gt;Node2</title>
<path fill="none" stroke="#63b8ff" d="M82.44,-112.61C75.83,-103.34 68.63,-93.25 63.6,-86.2"/>
<polygon fill="#63b8ff" stroke="#63b8ff" points="80.09,-114.34 88.74,-120.45 85.78,-110.27 80.09,-114.34"/>
</g>
<!-- Node3 -->
<g id="node3" class="node">
<title>Node3</title>
<g id="a_node3"><a xlink:href="test__hdf5__io_8cpp.html" target="_top" xlink:title="Tests of the HDF5 file I/O functionality.">
<polygon fill="white" stroke="#666666" points="149.5,-30.5 48.75,-30.5 48.75,0 149.5,0 149.5,-30.5"/>
<text text-anchor="start" x="56.75" y="-17" font-family="Helvetica,sans-Serif" font-size="10.00">tdms/tests/unit/test</text>
<text text-anchor="middle" x="99.12" y="-5.75" font-family="Helvetica,sans-Serif" font-size="10.00">_hdf5_io.cpp</text>
</a>
</g>
</g>
<!-- Node1&#45;&gt;Node3 -->
<g id="edge3" class="edge">
<title>Node1&#45;&gt;Node3</title>
<path fill="none" stroke="#63b8ff" d="M113.18,-112.16C117.22,-104.06 121.08,-94.77 123.12,-85.75 127.52,-66.33 117.65,-44.77 109.26,-30.89"/>
<polygon fill="#63b8ff" stroke="#63b8ff" points="109.71,-110.21 108.09,-120.68 115.89,-113.51 109.71,-110.21"/>
</g>
<!-- Node2&#45;&gt;Node3 -->
<g id="edge2" class="edge">
<title>Node2&#45;&gt;Node3</title>
<path fill="none" stroke="#63b8ff" d="M69.75,-57.43C75.82,-48.92 83.01,-38.84 88.76,-30.78"/>
<polygon fill="#63b8ff" stroke="#63b8ff" points="66.46,-55.01 63.5,-65.18 72.16,-59.07 66.46,-55.01"/>
</g>
</g>
</svg>
