<?xml version="1.0" encoding="UTF-8" standalone="no"?>
<!DOCTYPE svg PUBLIC "-//W3C//DTD SVG 1.1//EN"
 "http://www.w3.org/Graphics/SVG/1.1/DTD/svg11.dtd">
<!-- Generated by graphviz version 13.0.1 (20250615.1724)
 -->
<!-- Title: tdms/include/fdtd_grid_initialiser.h Pages: 1 -->
<svg width="241pt" height="149pt"
 viewBox="0.00 0.00 241.00 149.00" xmlns="http://www.w3.org/2000/svg" xmlns:xlink="http://www.w3.org/1999/xlink">
<g id="graph0" class="graph" transform="scale(1 1) rotate(0) translate(4 145)">
<title>tdms/include/fdtd_grid_initialiser.h</title>
<!-- Node1 -->
<g id="Node000001" class="node">
<title>Node1</title>
<g id="a_Node000001"><a xlink:title="Initialisation of the FDTD grid.">
<polygon fill="#999999" stroke="#666666" points="136,-141 24,-141 24,-110.5 136,-110.5 136,-141"/>
<text xml:space="preserve" text-anchor="start" x="32" y="-127.5" font-family="Helvetica,sans-Serif" font-size="10.00">tdms/include/fdtd_grid</text>
<text xml:space="preserve" text-anchor="middle" x="80" y="-116.25" font-family="Helvetica,sans-Serif" font-size="10.00">_initialiser.h</text>
</a>
</g>
</g>
<!-- Node2 -->
<g id="Node000002" class="node">
<title>Node2</title>
<g id="a_Node000002"><a xlink:title=" ">
<polygon fill="#e0e0e0" stroke="#999999" points="40,-74.5 0,-74.5 0,-55.25 40,-55.25 40,-74.5"/>
<text xml:space="preserve" text-anchor="middle" x="20" y="-61" font-family="Helvetica,sans-Serif" font-size="10.00">string</text>
</a>
</g>
</g>
<!-- Node1&#45;&gt;Node2 -->
<g id="edge1_Node000001_Node000002" class="edge">
<title>Node1&#45;&gt;Node2</title>
<g id="a_edge1_Node000001_Node000002"><a xlink:title=" ">
<path fill="none" stroke="#63b8ff" d="M65.17,-110.2C56.74,-101.92 46.13,-91.52 37.32,-82.87"/>
<polygon fill="#63b8ff" stroke="#63b8ff" points="39.92,-80.52 30.33,-76.01 35.02,-85.51 39.92,-80.52"/>
</a>
</g>
</g>
<!-- Node3 -->
<g id="Node000003" class="node">
<title>Node3</title>
<g id="a_Node000003"><a xlink:title=" ">
<polygon fill="#e0e0e0" stroke="#999999" points="101.5,-74.5 58.5,-74.5 58.5,-55.25 101.5,-55.25 101.5,-74.5"/>
<text xml:space="preserve" text-anchor="middle" x="80" y="-61" font-family="Helvetica,sans-Serif" font-size="10.00">vector</text>
</a>
</g>
</g>
<!-- Node1&#45;&gt;Node3 -->
<g id="edge2_Node000001_Node000003" class="edge">
<title>Node1&#45;&gt;Node3</title>
<g id="a_edge2_Node000001_Node000003"><a xlink:title=" ">
<path fill="none" stroke="#63b8ff" d="M80,-110.2C80,-102.96 80,-94.09 80,-86.19"/>
<polygon fill="#63b8ff" stroke="#63b8ff" points="83.5,-86.46 80,-76.46 76.5,-86.46 83.5,-86.46"/>
</a>
</g>
</g>
<!-- Node4 -->
<g id="Node000004" class="node">
<title>Node4</title>
<g id="a_Node000004"><a xlink:href="mat__io_8h.html" target="_top" xlink:title="Includes MATLAB headers for I/O.">
<polygon fill="white" stroke="#666666" points="172.75,-74.5 119.25,-74.5 119.25,-55.25 172.75,-55.25 172.75,-74.5"/>
<text xml:space="preserve" text-anchor="middle" x="146" y="-61" font-family="Helvetica,sans-Serif" font-size="10.00">mat_io.h</text>
</a>
</g>
</g>
<!-- Node1&#45;&gt;Node4 -->
<g id="edge3_Node000001_Node000004" class="edge">
<title>Node1&#45;&gt;Node4</title>
<g id="a_edge3_Node000001_Node000004"><a xlink:title=" ">
<path fill="none" stroke="#63b8ff" d="M96.31,-110.2C105.69,-101.84 117.5,-91.3 127.25,-82.6"/>
<polygon fill="#63b8ff" stroke="#63b8ff" points="129.56,-85.23 134.7,-75.96 124.9,-80 129.56,-85.23"/>
</a>
</g>
</g>
<!-- Node5 -->
<g id="Node000005" class="node">
<title>Node5</title>
<g id="a_Node000005"><a xlink:title=" ">
<polygon fill="#e0e0e0" stroke="#999999" points="102.38,-19.25 61.62,-19.25 61.62,0 102.38,0 102.38,-19.25"/>
<text xml:space="preserve" text-anchor="middle" x="82" y="-5.75" font-family="Helvetica,sans-Serif" font-size="10.00">mat.h</text>
</a>
</g>
</g>
<!-- Node4&#45;&gt;Node5 -->
<g id="edge4_Node000004_Node000005" class="edge">
<title>Node4&#45;&gt;Node5</title>
<g id="a_edge4_Node000004_Node000005"><a xlink:title=" ">
<path fill="none" stroke="#63b8ff" d="M135.14,-54.84C125.89,-47.15 112.38,-35.9 101.29,-26.68"/>
<polygon fill="#63b8ff" stroke="#63b8ff" points="103.79,-24.2 93.86,-20.49 99.31,-29.58 103.79,-24.2"/>
</a>
</g>
</g>
<!-- Node6 -->
<g id="Node000006" class="node">
<title>Node6</title>
<g id="a_Node000006"><a xlink:title=" ">
<polygon fill="#e0e0e0" stroke="#999999" points="171.62,-19.25 120.38,-19.25 120.38,0 171.62,0 171.62,-19.25"/>
<text xml:space="preserve" text-anchor="middle" x="146" y="-5.75" font-family="Helvetica,sans-Serif" font-size="10.00">matrix.h</text>
</a>
</g>
</g>
<!-- Node4&#45;&gt;Node6 -->
<g id="edge5_Node000004_Node000006" class="edge">
<title>Node4&#45;&gt;Node6</title>
<g id="a_edge5_Node000004_Node000006"><a xlink:title=" ">
<path fill="none" stroke="#63b8ff" d="M146,-55.08C146,-48.57 146,-39.42 146,-31.12"/>
<polygon fill="#63b8ff" stroke="#63b8ff" points="149.5,-31.12 146,-21.12 142.5,-31.12 149.5,-31.12"/>
</a>
</g>
</g>
<!-- Node7 -->
<g id="Node000007" class="node">
<title>Node7</title>
<g id="a_Node000007"><a xlink:title=" ">
<polygon fill="#e0e0e0" stroke="#999999" points="232.5,-19.25 189.5,-19.25 189.5,0 232.5,0 232.5,-19.25"/>
<text xml:space="preserve" text-anchor="middle" x="211" y="-5.75" font-family="Helvetica,sans-Serif" font-size="10.00">mex.h</text>
</a>
</g>
</g>
<!-- Node4&#45;&gt;Node7 -->
<g id="edge6_Node000004_Node000007" class="edge">
<title>Node4&#45;&gt;Node7</title>
<g id="a_edge6_Node000004_Node000007"><a xlink:title=" ">
<path fill="none" stroke="#63b8ff" d="M157.03,-54.84C166.42,-47.15 180.15,-35.9 191.41,-26.68"/>
<polygon fill="#63b8ff" stroke="#63b8ff" points="193.45,-29.53 198.97,-20.48 189.01,-24.11 193.45,-29.53"/>
</a>
</g>
</g>
</g>
</svg>
