<?xml version="1.0" encoding="UTF-8" standalone="no"?>
<!DOCTYPE svg PUBLIC "-//W3C//DTD SVG 1.1//EN"
 "http://www.w3.org/Graphics/SVG/1.1/DTD/svg11.dtd">
<!-- Generated by graphviz version 8.0.4 (20230421.1958)
 -->
<!-- Title: tdms/include/fdtd_grid_initialiser.h Pages: 1 -->
<svg width="122pt" height="160pt"
 viewBox="0.00 0.00 122.25 160.25" xmlns="http://www.w3.org/2000/svg" xmlns:xlink="http://www.w3.org/1999/xlink">
<g id="graph0" class="graph" transform="scale(1 1) rotate(0) translate(4 156.25)">
<title>tdms/include/fdtd_grid_initialiser.h</title>
<!-- Node1 -->
<g id="node1" class="node">
<title>Node1</title>
<g id="a_node1"><a xlink:title="Initialisation of the FDTD grid.">
<polygon fill="#999999" stroke="#666666" points="113.12,-152.25 1.13,-152.25 1.13,-121.75 113.12,-121.75 113.12,-152.25"/>
<text text-anchor="start" x="9.13" y="-138.75" font-family="Helvetica,sans-Serif" font-size="10.00">tdms/include/fdtd_grid</text>
<text text-anchor="middle" x="57.13" y="-127.5" font-family="Helvetica,sans-Serif" font-size="10.00">_initialiser.h</text>
</a>
</g>
</g>
<!-- Node2 -->
<g id="node2" class="node">
<title>Node2</title>
<g id="a_node2"><a xlink:href="hdf5__io_8h.html" target="_top" xlink:title="Helper classes for HDF5 file I/O.">
<polygon fill="white" stroke="#666666" points="114.25,-85.75 0,-85.75 0,-66.5 114.25,-66.5 114.25,-85.75"/>
<text text-anchor="middle" x="57.13" y="-72.25" font-family="Helvetica,sans-Serif" font-size="10.00">tdms/include/hdf5_io.h</text>
</a>
</g>
</g>
<!-- Node1&#45;&gt;Node2 -->
<g id="edge1" class="edge">
<title>Node1&#45;&gt;Node2</title>
<path fill="none" stroke="#63b8ff" d="M57.13,-110.57C57.13,-101.89 57.13,-92.73 57.13,-86.2"/>
<polygon fill="#63b8ff" stroke="#63b8ff" points="53.63,-110.45 57.13,-120.45 60.63,-110.45 53.63,-110.45"/>
</g>
<!-- Node3 -->
<g id="node3" class="node">
<title>Node3</title>
<g id="a_node3"><a xlink:href="test__hdf5__io_8cpp.html" target="_top" xlink:title="Tests of the HDF5 file I/O functionality.">
<polygon fill="white" stroke="#666666" points="107.5,-30.5 6.75,-30.5 6.75,0 107.5,0 107.5,-30.5"/>
<text text-anchor="start" x="14.75" y="-17" font-family="Helvetica,sans-Serif" font-size="10.00">tdms/tests/unit/test</text>
<text text-anchor="middle" x="57.13" y="-5.75" font-family="Helvetica,sans-Serif" font-size="10.00">_hdf5_io.cpp</text>
</a>
</g>
</g>
<!-- Node2&#45;&gt;Node3 -->
<g id="edge2" class="edge">
<title>Node2&#45;&gt;Node3</title>
<path fill="none" stroke="#63b8ff" d="M57.13,-55.2C57.13,-47.2 57.13,-38.15 57.13,-30.78"/>
<polygon fill="#63b8ff" stroke="#63b8ff" points="53.63,-55.18 57.13,-65.18 60.63,-55.18 53.63,-55.18"/>
</g>
</g>
</svg>
