<?xml version="1.0" encoding="UTF-8" standalone="no"?>
<!DOCTYPE svg PUBLIC "-//W3C//DTD SVG 1.1//EN"
 "http://www.w3.org/Graphics/SVG/1.1/DTD/svg11.dtd">
<!-- Generated by graphviz version 8.0.2 (20230410.1723)
 -->
<!-- Title: tdms/include/fdtd_grid_initialiser.h Pages: 1 -->
<svg width="245pt" height="148pt"
 viewBox="0.00 0.00 244.50 148.00" xmlns="http://www.w3.org/2000/svg" xmlns:xlink="http://www.w3.org/1999/xlink">
<g id="graph0" class="graph" transform="scale(1 1) rotate(0) translate(4 144)">
<title>tdms/include/fdtd_grid_initialiser.h</title>
<!-- Node1 -->
<g id="node1" class="node">
<title>Node1</title>
<g id="a_node1"><a xlink:title="Initialisation of the FDTD grid.">
<polygon fill="#999999" stroke="#666666" points="138,-140 25,-140 25,-110 138,-110 138,-140"/>
<text text-anchor="start" x="33" y="-128" font-family="Helvetica,sans-Serif" font-size="10.00">tdms/include/fdtd_grid</text>
<text text-anchor="middle" x="81.5" y="-117" font-family="Helvetica,sans-Serif" font-size="10.00">_initialiser.h</text>
</a>
</g>
</g>
<!-- Node2 -->
<g id="node2" class="node">
<title>Node2</title>
<g id="a_node2"><a xlink:title=" ">
<polygon fill="#e0e0e0" stroke="#999999" points="41,-74 0,-74 0,-55 41,-55 41,-74"/>
<text text-anchor="middle" x="20.5" y="-62" font-family="Helvetica,sans-Serif" font-size="10.00">string</text>
</a>
</g>
</g>
<!-- Node1&#45;&gt;Node2 -->
<g id="edge1" class="edge">
<title>Node1&#45;&gt;Node2</title>
<path fill="none" stroke="#63b8ff" d="M66.42,-109.54C57.56,-101.04 46.35,-90.29 37.22,-81.53"/>
<polygon fill="#63b8ff" stroke="#63b8ff" points="40.19,-79.57 30.55,-75.18 35.34,-84.62 40.19,-79.57"/>
</g>
<!-- Node3 -->
<g id="node3" class="node">
<title>Node3</title>
<g id="a_node3"><a xlink:title=" ">
<polygon fill="#e0e0e0" stroke="#999999" points="103.5,-74 59.5,-74 59.5,-55 103.5,-55 103.5,-74"/>
<text text-anchor="middle" x="81.5" y="-62" font-family="Helvetica,sans-Serif" font-size="10.00">vector</text>
</a>
</g>
</g>
<!-- Node1&#45;&gt;Node3 -->
<g id="edge2" class="edge">
<title>Node1&#45;&gt;Node3</title>
<path fill="none" stroke="#63b8ff" d="M81.5,-109.54C81.5,-102.17 81.5,-93.1 81.5,-85.11"/>
<polygon fill="#63b8ff" stroke="#63b8ff" points="85,-85.18 81.5,-75.18 78,-85.18 85,-85.18"/>
</g>
<!-- Node4 -->
<g id="node4" class="node">
<title>Node4</title>
<g id="a_node4"><a xlink:href="mat__io_8h.html" target="_top" xlink:title="Includes MATLAB headers for I/O.">
<polygon fill="white" stroke="#666666" points="175.5,-74 121.5,-74 121.5,-55 175.5,-55 175.5,-74"/>
<text text-anchor="middle" x="148.5" y="-62" font-family="Helvetica,sans-Serif" font-size="10.00">mat_io.h</text>
</a>
</g>
</g>
<!-- Node1&#45;&gt;Node4 -->
<g id="edge3" class="edge">
<title>Node1&#45;&gt;Node4</title>
<path fill="none" stroke="#63b8ff" d="M98.06,-109.54C107.89,-100.96 120.36,-90.07 130.45,-81.26"/>
<polygon fill="#63b8ff" stroke="#63b8ff" points="132.33,-83.39 137.56,-74.18 127.73,-78.12 132.33,-83.39"/>
</g>
<!-- Node5 -->
<g id="node5" class="node">
<title>Node5</title>
<g id="a_node5"><a xlink:title=" ">
<polygon fill="#e0e0e0" stroke="#999999" points="104,-19 63,-19 63,0 104,0 104,-19"/>
<text text-anchor="middle" x="83.5" y="-7" font-family="Helvetica,sans-Serif" font-size="10.00">mat.h</text>
</a>
</g>
</g>
<!-- Node4&#45;&gt;Node5 -->
<g id="edge4" class="edge">
<title>Node4&#45;&gt;Node5</title>
<path fill="none" stroke="#63b8ff" d="M137.47,-54.51C127.99,-46.77 114.08,-35.43 102.75,-26.2"/>
<polygon fill="#63b8ff" stroke="#63b8ff" points="105.33,-22.96 95.36,-19.36 100.9,-28.39 105.33,-22.96"/>
</g>
<!-- Node6 -->
<g id="node6" class="node">
<title>Node6</title>
<g id="a_node6"><a xlink:title=" ">
<polygon fill="#e0e0e0" stroke="#999999" points="174.5,-19 122.5,-19 122.5,0 174.5,0 174.5,-19"/>
<text text-anchor="middle" x="148.5" y="-7" font-family="Helvetica,sans-Serif" font-size="10.00">matrix.h</text>
</a>
</g>
</g>
<!-- Node4&#45;&gt;Node6 -->
<g id="edge5" class="edge">
<title>Node4&#45;&gt;Node6</title>
<path fill="none" stroke="#63b8ff" d="M148.5,-54.75C148.5,-48.11 148.5,-38.73 148.5,-30.31"/>
<polygon fill="#63b8ff" stroke="#63b8ff" points="152,-30.44 148.5,-20.44 145,-30.44 152,-30.44"/>
</g>
<!-- Node7 -->
<g id="node7" class="node">
<title>Node7</title>
<g id="a_node7"><a xlink:title=" ">
<polygon fill="#e0e0e0" stroke="#999999" points="236.5,-19 192.5,-19 192.5,0 236.5,0 236.5,-19"/>
<text text-anchor="middle" x="214.5" y="-7" font-family="Helvetica,sans-Serif" font-size="10.00">mex.h</text>
</a>
</g>
</g>
<!-- Node4&#45;&gt;Node7 -->
<g id="edge6" class="edge">
<title>Node4&#45;&gt;Node7</title>
<path fill="none" stroke="#63b8ff" d="M159.7,-54.51C169.33,-46.77 183.45,-35.43 194.95,-26.2"/>
<polygon fill="#63b8ff" stroke="#63b8ff" points="196.86,-28.35 202.47,-19.36 192.48,-22.89 196.86,-28.35"/>
</g>
</g>
</svg>
