<?xml version="1.0" encoding="UTF-8" standalone="no"?>
<!DOCTYPE svg PUBLIC "-//W3C//DTD SVG 1.1//EN"
 "http://www.w3.org/Graphics/SVG/1.1/DTD/svg11.dtd">
<!-- Generated by graphviz version 8.0.5 (20230430.1635)
 -->
<!-- Title: tdms/include/field.h Pages: 1 -->
<svg width="1216pt" height="304pt"
 viewBox="0.00 0.00 1215.98 303.50" xmlns="http://www.w3.org/2000/svg" xmlns:xlink="http://www.w3.org/1999/xlink">
<g id="graph0" class="graph" transform="scale(1 1) rotate(0) translate(4 299.5)">
<title>tdms/include/field.h</title>
<!-- Node1 -->
<g id="node1" class="node">
<title>Node1</title>
<g id="a_node1"><a xlink:title="Classes for the electric and magnetic (split) fields on a grid.">
<polygon fill="#999999" stroke="#666666" points="908.48,-295.5 807.73,-295.5 807.73,-276.25 908.48,-276.25 908.48,-295.5"/>
<text text-anchor="middle" x="858.1" y="-282" font-family="Helvetica,sans-Serif" font-size="10.00">tdms/include/field.h</text>
</a>
</g>
</g>
<!-- Node2 -->
<g id="node2" class="node">
<title>Node2</title>
<g id="a_node2"><a xlink:title=" ">
<polygon fill="#e0e0e0" stroke="#999999" points="196.48,-74.5 143.73,-74.5 143.73,-55.25 196.48,-55.25 196.48,-74.5"/>
<text text-anchor="middle" x="170.1" y="-61" font-family="Helvetica,sans-Serif" font-size="10.00">complex</text>
</a>
</g>
</g>
<!-- Node1&#45;&gt;Node2 -->
<g id="edge1" class="edge">
<title>Node1&#45;&gt;Node2</title>
<path fill="none" stroke="#63b8ff" d="M807.37,-284.15C639.04,-280.53 104.17,-258.87 7.1,-129.75 -26.88,-84.54 74.68,-71.31 132.67,-67.45"/>
<polygon fill="#63b8ff" stroke="#63b8ff" points="132.87,-70.88 142.64,-66.8 132.45,-63.9 132.87,-70.88"/>
</g>
<!-- Node3 -->
<g id="node3" class="node">
<title>Node3</title>
<g id="a_node3"><a xlink:href="arrays_8h.html" target="_top" xlink:title="Classes describing arrays, vertices etc.">
<polygon fill="white" stroke="#666666" points="307.73,-185 256.48,-185 256.48,-165.75 307.73,-165.75 307.73,-185"/>
<text text-anchor="middle" x="282.1" y="-171.5" font-family="Helvetica,sans-Serif" font-size="10.00">arrays.h</text>
</a>
</g>
</g>
<!-- Node1&#45;&gt;Node3 -->
<g id="edge2" class="edge">
<title>Node1&#45;&gt;Node3</title>
<path fill="none" stroke="#63b8ff" d="M807.3,-283.16C730.38,-279.68 580.16,-269.45 456.1,-240.25 403.87,-227.95 345.86,-204.58 311.76,-189.77"/>
<polygon fill="#63b8ff" stroke="#63b8ff" points="313.54,-186.29 302.98,-185.47 310.72,-192.7 313.54,-186.29"/>
</g>
<!-- Node10 -->
<g id="node10" class="node">
<title>Node10</title>
<g id="a_node10"><a xlink:href="cell__coordinate_8h.html" target="_top" xlink:title="Container for {ijk} or {IJK} grouped variables.">
<polygon fill="white" stroke="#666666" points="1006.85,-185 917.35,-185 917.35,-165.75 1006.85,-165.75 1006.85,-185"/>
<text text-anchor="middle" x="962.1" y="-171.5" font-family="Helvetica,sans-Serif" font-size="10.00">cell_coordinate.h</text>
</a>
</g>
</g>
<!-- Node1&#45;&gt;Node10 -->
<g id="edge13" class="edge">
<title>Node1&#45;&gt;Node10</title>
<path fill="none" stroke="#63b8ff" d="M866.61,-276C883.98,-257.88 923.75,-216.38 946.1,-193.07"/>
<polygon fill="#63b8ff" stroke="#63b8ff" points="948.08,-196.02 952.48,-186.38 943.03,-191.17 948.08,-196.02"/>
</g>
<!-- Node13 -->
<g id="node13" class="node">
<title>Node13</title>
<g id="a_node13"><a xlink:href="dimensions_8h.html" target="_top" xlink:title="Defines a class that serves as an explicit converter between MATLAB pointers and array dimensions.">
<polygon fill="white" stroke="#666666" points="1207.98,-240.25 1134.23,-240.25 1134.23,-221 1207.98,-221 1207.98,-240.25"/>
<text text-anchor="middle" x="1171.1" y="-226.75" font-family="Helvetica,sans-Serif" font-size="10.00">dimensions.h</text>
</a>
</g>
</g>
<!-- Node1&#45;&gt;Node13 -->
<g id="edge16" class="edge">
<title>Node1&#45;&gt;Node13</title>
<path fill="none" stroke="#63b8ff" d="M908.74,-276.26C967.91,-266.19 1065.07,-249.66 1123.09,-239.79"/>
<polygon fill="#63b8ff" stroke="#63b8ff" points="1123.53,-243.1 1132.8,-237.97 1122.35,-236.2 1123.53,-243.1"/>
</g>
<!-- Node14 -->
<g id="node14" class="node">
<title>Node14</title>
<g id="a_node14"><a xlink:href="mat__io_8h.html" target="_top" xlink:title="Includes MATLAB headers for I/O.">
<polygon fill="white" stroke="#666666" points="918.85,-74.5 865.35,-74.5 865.35,-55.25 918.85,-55.25 918.85,-74.5"/>
<text text-anchor="middle" x="892.1" y="-61" font-family="Helvetica,sans-Serif" font-size="10.00">mat_io.h</text>
</a>
</g>
</g>
<!-- Node1&#45;&gt;Node14 -->
<g id="edge28" class="edge">
<title>Node1&#45;&gt;Node14</title>
<path fill="none" stroke="#63b8ff" d="M887.1,-275.89C939.17,-257.94 1046.82,-212.15 1087.1,-129.75 1090.86,-122.06 1092.44,-117.19 1087.1,-110.5 1067.84,-86.32 981.06,-74.19 929.98,-69.04"/>
<polygon fill="#63b8ff" stroke="#63b8ff" points="930.34,-65.47 920.05,-67.99 929.67,-72.43 930.34,-65.47"/>
</g>
<!-- Node18 -->
<g id="node18" class="node">
<title>Node18</title>
<g id="a_node18"><a xlink:href="input__flags_8h.html" target="_top" xlink:title="Organises enumerated constants, names, and classes for handling flag&#45;variables that are passed to TDM...">
<polygon fill="white" stroke="#666666" points="893.85,-185 822.35,-185 822.35,-165.75 893.85,-165.75 893.85,-185"/>
<text text-anchor="middle" x="858.1" y="-171.5" font-family="Helvetica,sans-Serif" font-size="10.00">input_flags.h</text>
</a>
</g>
</g>
<!-- Node1&#45;&gt;Node18 -->
<g id="edge21" class="edge">
<title>Node1&#45;&gt;Node18</title>
<path fill="none" stroke="#63b8ff" d="M858.1,-276C858.1,-258.67 858.1,-219.98 858.1,-196.24"/>
<polygon fill="#63b8ff" stroke="#63b8ff" points="861.6,-196.38 858.1,-186.38 854.6,-196.38 861.6,-196.38"/>
</g>
<!-- Node20 -->
<g id="node20" class="node">
<title>Node20</title>
<g id="a_node20"><a xlink:href="simulation__parameters_8h.html" target="_top" xlink:title="Classes collecting parameters for the simulation.">
<polygon fill="white" stroke="#666666" points="587.35,-240.25 464.85,-240.25 464.85,-221 587.35,-221 587.35,-240.25"/>
<text text-anchor="middle" x="526.1" y="-226.75" font-family="Helvetica,sans-Serif" font-size="10.00">simulation_parameters.h</text>
</a>
</g>
</g>
<!-- Node1&#45;&gt;Node20 -->
<g id="edge29" class="edge">
<title>Node1&#45;&gt;Node20</title>
<path fill="none" stroke="#63b8ff" d="M807.32,-276.73C750.05,-267.54 656.69,-252.57 593.39,-242.42"/>
<polygon fill="#63b8ff" stroke="#63b8ff" points="594.15,-238.83 583.72,-240.71 593.04,-245.75 594.15,-238.83"/>
</g>
<!-- Node3&#45;&gt;Node2 -->
<g id="edge3" class="edge">
<title>Node3&#45;&gt;Node2</title>
<path fill="none" stroke="#63b8ff" d="M256.02,-168.14C235.08,-161.84 206.42,-150.05 189.1,-129.75 178.53,-117.36 173.84,-99.28 171.76,-85.52"/>
<polygon fill="#63b8ff" stroke="#63b8ff" points="175.15,-85.32 170.52,-75.79 168.19,-86.12 175.15,-85.32"/>
</g>
<!-- Node4 -->
<g id="node4" class="node">
<title>Node4</title>
<g id="a_node4"><a xlink:title=" ">
<polygon fill="#e0e0e0" stroke="#999999" points="504.48,-129.75 445.73,-129.75 445.73,-110.5 504.48,-110.5 504.48,-129.75"/>
<text text-anchor="middle" x="475.1" y="-116.25" font-family="Helvetica,sans-Serif" font-size="10.00">stdexcept</text>
</a>
</g>
</g>
<!-- Node3&#45;&gt;Node4 -->
<g id="edge4" class="edge">
<title>Node3&#45;&gt;Node4</title>
<path fill="none" stroke="#63b8ff" d="M308.13,-167.19C340.77,-158.19 397.05,-142.66 435.15,-132.15"/>
<polygon fill="#63b8ff" stroke="#63b8ff" points="435.67,-135.36 444.38,-129.33 433.81,-128.61 435.67,-135.36"/>
</g>
<!-- Node5 -->
<g id="node5" class="node">
<title>Node5</title>
<g id="a_node5"><a xlink:title=" ">
<polygon fill="#e0e0e0" stroke="#999999" points="419.1,-74.5 379.1,-74.5 379.1,-55.25 419.1,-55.25 419.1,-74.5"/>
<text text-anchor="middle" x="399.1" y="-61" font-family="Helvetica,sans-Serif" font-size="10.00">string</text>
</a>
</g>
</g>
<!-- Node3&#45;&gt;Node5 -->
<g id="edge5" class="edge">
<title>Node3&#45;&gt;Node5</title>
<path fill="none" stroke="#63b8ff" d="M282.48,-165.43C283.51,-151.97 287.28,-126.38 301.1,-110.5 318.54,-90.48 346.78,-78.94 368.48,-72.63"/>
<polygon fill="#63b8ff" stroke="#63b8ff" points="369.08,-75.83 377.84,-69.86 367.27,-69.06 369.08,-75.83"/>
</g>
<!-- Node6 -->
<g id="node6" class="node">
<title>Node6</title>
<g id="a_node6"><a xlink:title=" ">
<polygon fill="#e0e0e0" stroke="#999999" points="62.1,-129.75 16.1,-129.75 16.1,-110.5 62.1,-110.5 62.1,-129.75"/>
<text text-anchor="middle" x="39.1" y="-116.25" font-family="Helvetica,sans-Serif" font-size="10.00">fftw3.h</text>
</a>
</g>
</g>
<!-- Node3&#45;&gt;Node6 -->
<g id="edge6" class="edge">
<title>Node3&#45;&gt;Node6</title>
<path fill="none" stroke="#63b8ff" d="M256.01,-169.34C217.93,-161.88 144.65,-147.14 73.03,-130.11"/>
<polygon fill="#63b8ff" stroke="#63b8ff" points="74.02,-126.51 63.48,-127.59 72.39,-133.32 74.02,-126.51"/>
</g>
<!-- Node7 -->
<g id="node7" class="node">
<title>Node7</title>
<g id="a_node7"><a xlink:href="globals_8h.html" target="_top" xlink:title="Type definitions and global constants.">
<polygon fill="white" stroke="#666666" points="253.6,-129.75 198.6,-129.75 198.6,-110.5 253.6,-110.5 253.6,-129.75"/>
<text text-anchor="middle" x="226.1" y="-116.25" font-family="Helvetica,sans-Serif" font-size="10.00">globals.h</text>
</a>
</g>
</g>
<!-- Node3&#45;&gt;Node7 -->
<g id="edge7" class="edge">
<title>Node3&#45;&gt;Node7</title>
<path fill="none" stroke="#63b8ff" d="M272.6,-165.34C264.59,-157.72 252.92,-146.62 243.27,-137.45"/>
<polygon fill="#63b8ff" stroke="#63b8ff" points="246.12,-135.38 236.46,-131.02 241.3,-140.45 246.12,-135.38"/>
</g>
<!-- Node8 -->
<g id="node8" class="node">
<title>Node8</title>
<g id="a_node8"><a xlink:title=" ">
<polygon fill="#e0e0e0" stroke="#999999" points="141.6,-129.75 80.6,-129.75 80.6,-110.5 141.6,-110.5 141.6,-129.75"/>
<text text-anchor="middle" x="111.1" y="-116.25" font-family="Helvetica,sans-Serif" font-size="10.00">matlabio.h</text>
</a>
</g>
</g>
<!-- Node3&#45;&gt;Node8 -->
<g id="edge10" class="edge">
<title>Node3&#45;&gt;Node8</title>
<path fill="none" stroke="#63b8ff" d="M256.13,-166.29C228.1,-157.56 183.11,-143.55 150.66,-133.44"/>
<polygon fill="#63b8ff" stroke="#63b8ff" points="151.78,-129.81 141.19,-130.18 149.69,-136.5 151.78,-129.81"/>
</g>
<!-- Node9 -->
<g id="node9" class="node">
<title>Node9</title>
<g id="a_node9"><a xlink:href="utils_8h.html" target="_top" xlink:title="Useful miscellaneous utility functions.">
<polygon fill="white" stroke="#666666" points="352.23,-129.75 309.98,-129.75 309.98,-110.5 352.23,-110.5 352.23,-129.75"/>
<text text-anchor="middle" x="331.1" y="-116.25" font-family="Helvetica,sans-Serif" font-size="10.00">utils.h</text>
</a>
</g>
</g>
<!-- Node3&#45;&gt;Node9 -->
<g id="edge11" class="edge">
<title>Node3&#45;&gt;Node9</title>
<path fill="none" stroke="#63b8ff" d="M290.19,-165.58C297.03,-158.15 307.03,-147.29 315.43,-138.16"/>
<polygon fill="#63b8ff" stroke="#63b8ff" points="317.64,-140.84 321.84,-131.11 312.49,-136.1 317.64,-140.84"/>
</g>
<!-- Node7&#45;&gt;Node2 -->
<g id="edge8" class="edge">
<title>Node7&#45;&gt;Node2</title>
<path fill="none" stroke="#63b8ff" d="M216.6,-110.09C208.59,-102.47 196.92,-91.37 187.27,-82.2"/>
<polygon fill="#63b8ff" stroke="#63b8ff" points="190.12,-80.13 180.46,-75.77 185.3,-85.2 190.12,-80.13"/>
</g>
<!-- Node7&#45;&gt;Node5 -->
<g id="edge9" class="edge">
<title>Node7&#45;&gt;Node5</title>
<path fill="none" stroke="#63b8ff" d="M253.9,-110.57C285.22,-100.93 335.99,-85.3 368.44,-75.31"/>
<polygon fill="#63b8ff" stroke="#63b8ff" points="369.16,-78.45 377.69,-72.16 367.1,-71.76 369.16,-78.45"/>
</g>
<!-- Node9&#45;&gt;Node5 -->
<g id="edge12" class="edge">
<title>Node9&#45;&gt;Node5</title>
<path fill="none" stroke="#63b8ff" d="M342.64,-110.09C352.66,-102.24 367.4,-90.7 379.31,-81.37"/>
<polygon fill="#63b8ff" stroke="#63b8ff" points="381.02,-83.7 386.74,-74.77 376.71,-78.18 381.02,-83.7"/>
</g>
<!-- Node11 -->
<g id="node11" class="node">
<title>Node11</title>
<g id="a_node11"><a xlink:title=" ">
<polygon fill="#e0e0e0" stroke="#999999" points="1004.23,-129.75 919.98,-129.75 919.98,-110.5 1004.23,-110.5 1004.23,-129.75"/>
<text text-anchor="middle" x="962.1" y="-116.25" font-family="Helvetica,sans-Serif" font-size="10.00">spdlog/spdlog.h</text>
</a>
</g>
</g>
<!-- Node10&#45;&gt;Node11 -->
<g id="edge14" class="edge">
<title>Node10&#45;&gt;Node11</title>
<path fill="none" stroke="#63b8ff" d="M962.1,-165.58C962.1,-158.92 962.1,-149.49 962.1,-141.03"/>
<polygon fill="#63b8ff" stroke="#63b8ff" points="965.6,-141.11 962.1,-131.11 958.6,-141.11 965.6,-141.11"/>
</g>
<!-- Node12 -->
<g id="node12" class="node">
<title>Node12</title>
<g id="a_node12"><a xlink:title=" ">
<polygon fill="#e0e0e0" stroke="#999999" points="1077.98,-129.75 1022.23,-129.75 1022.23,-110.5 1077.98,-110.5 1077.98,-129.75"/>
<text text-anchor="middle" x="1050.1" y="-116.25" font-family="Helvetica,sans-Serif" font-size="10.00">algorithm</text>
</a>
</g>
</g>
<!-- Node10&#45;&gt;Node12 -->
<g id="edge15" class="edge">
<title>Node10&#45;&gt;Node12</title>
<path fill="none" stroke="#63b8ff" d="M977.03,-165.34C990.43,-157.23 1010.35,-145.18 1026,-135.71"/>
<polygon fill="#63b8ff" stroke="#63b8ff" points="1027.36,-138.37 1034.1,-130.2 1023.73,-132.39 1027.36,-138.37"/>
</g>
<!-- Node13&#45;&gt;Node14 -->
<g id="edge17" class="edge">
<title>Node13&#45;&gt;Node14</title>
<path fill="none" stroke="#63b8ff" d="M1170.11,-220.78C1167.1,-198.44 1155.97,-139.49 1120.1,-110.5 1091.36,-87.26 986.91,-74.43 929.88,-69.01"/>
<polygon fill="#63b8ff" stroke="#63b8ff" points="930.43,-65.45 920.15,-68.02 929.79,-72.42 930.43,-65.45"/>
</g>
<!-- Node15 -->
<g id="node15" class="node">
<title>Node15</title>
<g id="a_node15"><a xlink:title=" ">
<polygon fill="#e0e0e0" stroke="#999999" points="848.48,-19.25 807.73,-19.25 807.73,0 848.48,0 848.48,-19.25"/>
<text text-anchor="middle" x="828.1" y="-5.75" font-family="Helvetica,sans-Serif" font-size="10.00">mat.h</text>
</a>
</g>
</g>
<!-- Node14&#45;&gt;Node15 -->
<g id="edge18" class="edge">
<title>Node14&#45;&gt;Node15</title>
<path fill="none" stroke="#63b8ff" d="M881.25,-54.84C871.9,-47.07 858.21,-35.67 847.06,-26.4"/>
<polygon fill="#63b8ff" stroke="#63b8ff" points="849.73,-23.23 839.8,-19.52 845.25,-28.61 849.73,-23.23"/>
</g>
<!-- Node16 -->
<g id="node16" class="node">
<title>Node16</title>
<g id="a_node16"><a xlink:title=" ">
<polygon fill="#e0e0e0" stroke="#999999" points="917.73,-19.25 866.48,-19.25 866.48,0 917.73,0 917.73,-19.25"/>
<text text-anchor="middle" x="892.1" y="-5.75" font-family="Helvetica,sans-Serif" font-size="10.00">matrix.h</text>
</a>
</g>
</g>
<!-- Node14&#45;&gt;Node16 -->
<g id="edge19" class="edge">
<title>Node14&#45;&gt;Node16</title>
<path fill="none" stroke="#63b8ff" d="M892.1,-55.08C892.1,-48.42 892.1,-38.99 892.1,-30.53"/>
<polygon fill="#63b8ff" stroke="#63b8ff" points="895.6,-30.61 892.1,-20.61 888.6,-30.61 895.6,-30.61"/>
</g>
<!-- Node17 -->
<g id="node17" class="node">
<title>Node17</title>
<g id="a_node17"><a xlink:title=" ">
<polygon fill="#e0e0e0" stroke="#999999" points="978.6,-19.25 935.6,-19.25 935.6,0 978.6,0 978.6,-19.25"/>
<text text-anchor="middle" x="957.1" y="-5.75" font-family="Helvetica,sans-Serif" font-size="10.00">mex.h</text>
</a>
</g>
</g>
<!-- Node14&#45;&gt;Node17 -->
<g id="edge20" class="edge">
<title>Node14&#45;&gt;Node17</title>
<path fill="none" stroke="#63b8ff" d="M903.13,-54.84C912.62,-47.07 926.53,-35.67 937.85,-26.4"/>
<polygon fill="#63b8ff" stroke="#63b8ff" points="939.72,-28.57 945.24,-19.52 935.29,-23.15 939.72,-28.57"/>
</g>
<!-- Node18&#45;&gt;Node4 -->
<g id="edge23" class="edge">
<title>Node18&#45;&gt;Node4</title>
<path fill="none" stroke="#63b8ff" d="M822.17,-170.86C761.11,-164.64 632.99,-150.53 515.52,-130.05"/>
<polygon fill="#63b8ff" stroke="#63b8ff" points="516.38,-126.46 505.92,-128.17 515.16,-133.36 516.38,-126.46"/>
</g>
<!-- Node18&#45;&gt;Node5 -->
<g id="edge24" class="edge">
<title>Node18&#45;&gt;Node5</title>
<path fill="none" stroke="#63b8ff" d="M822.14,-167.75C785.86,-160.5 728.6,-147.51 681.1,-129.75 663.37,-123.12 661.05,-116.54 643.1,-110.5 569.02,-85.55 477.31,-73.54 430.22,-68.67"/>
<polygon fill="#63b8ff" stroke="#63b8ff" points="430.82,-65.11 420.52,-67.61 430.13,-72.08 430.82,-65.11"/>
</g>
<!-- Node18&#45;&gt;Node11 -->
<g id="edge26" class="edge">
<title>Node18&#45;&gt;Node11</title>
<path fill="none" stroke="#63b8ff" d="M875.75,-165.34C891.88,-157.08 916.01,-144.73 934.66,-135.18"/>
<polygon fill="#63b8ff" stroke="#63b8ff" points="936.07,-137.88 943.37,-130.2 932.88,-131.64 936.07,-137.88"/>
</g>
<!-- Node18&#45;&gt;Node12 -->
<g id="edge22" class="edge">
<title>Node18&#45;&gt;Node12</title>
<path fill="none" stroke="#63b8ff" d="M890.67,-165.34C924.03,-156.09 975.87,-141.71 1011.32,-131.88"/>
<polygon fill="#63b8ff" stroke="#63b8ff" points="1012.06,-135.03 1020.76,-128.99 1010.19,-128.29 1012.06,-135.03"/>
</g>
<!-- Node18&#45;&gt;Node14 -->
<g id="edge27" class="edge">
<title>Node18&#45;&gt;Node14</title>
<path fill="none" stroke="#63b8ff" d="M860.89,-165.5C866.36,-148.01 878.66,-108.77 886.08,-85.09"/>
<polygon fill="#63b8ff" stroke="#63b8ff" points="889.63,-86.47 889.28,-75.88 882.95,-84.37 889.63,-86.47"/>
</g>
<!-- Node19 -->
<g id="node19" class="node">
<title>Node19</title>
<g id="a_node19"><a xlink:title=" ">
<polygon fill="#e0e0e0" stroke="#999999" points="760.6,-74.5 717.6,-74.5 717.6,-55.25 760.6,-55.25 760.6,-74.5"/>
<text text-anchor="middle" x="739.1" y="-61" font-family="Helvetica,sans-Serif" font-size="10.00">vector</text>
</a>
</g>
</g>
<!-- Node18&#45;&gt;Node19 -->
<g id="edge25" class="edge">
<title>Node18&#45;&gt;Node19</title>
<path fill="none" stroke="#63b8ff" d="M850.22,-165.28C838.97,-152.5 817.4,-128.74 797.1,-110.5 785.59,-100.15 771.89,-89.54 760.7,-81.26"/>
<polygon fill="#63b8ff" stroke="#63b8ff" points="763.13,-77.98 752.99,-74.92 759.01,-83.64 763.13,-77.98"/>
</g>
<!-- Node20&#45;&gt;Node3 -->
<g id="edge31" class="edge">
<title>Node20&#45;&gt;Node3</title>
<path fill="none" stroke="#63b8ff" d="M484.44,-220.53C437.88,-210.37 363.24,-194.08 318.81,-184.39"/>
<polygon fill="#63b8ff" stroke="#63b8ff" points="319.71,-180.78 309.2,-182.07 318.22,-187.62 319.71,-180.78"/>
</g>
<!-- Node20&#45;&gt;Node5 -->
<g id="edge30" class="edge">
<title>Node20&#45;&gt;Node5</title>
<path fill="none" stroke="#63b8ff" d="M512.1,-220.68C488.83,-205.07 442.27,-170.62 417.1,-129.75 408.78,-116.23 404.2,-98.75 401.75,-85.5"/>
<polygon fill="#63b8ff" stroke="#63b8ff" points="405.07,-85.08 400.05,-75.75 398.15,-86.18 405.07,-85.08"/>
</g>
<!-- Node21 -->
<g id="node21" class="node">
<title>Node21</title>
<g id="a_node21"><a xlink:href="input__matrices_8h.html" target="_top" xlink:title="Class handling the input matrices that are read in from the input file.">
<polygon fill="white" stroke="#666666" points="622.1,-185 534.1,-185 534.1,-165.75 622.1,-165.75 622.1,-185"/>
<text text-anchor="middle" x="578.1" y="-171.5" font-family="Helvetica,sans-Serif" font-size="10.00">input_matrices.h</text>
</a>
</g>
</g>
<!-- Node20&#45;&gt;Node21 -->
<g id="edge32" class="edge">
<title>Node20&#45;&gt;Node21</title>
<path fill="none" stroke="#63b8ff" d="M534.69,-220.83C542.02,-213.32 552.77,-202.31 561.74,-193.13"/>
<polygon fill="#63b8ff" stroke="#63b8ff" points="563.85,-195.96 568.33,-186.36 558.84,-191.07 563.85,-195.96"/>
</g>
<!-- Node21&#45;&gt;Node5 -->
<g id="edge33" class="edge">
<title>Node21&#45;&gt;Node5</title>
<path fill="none" stroke="#63b8ff" d="M533.87,-168.76C503.95,-163.09 464.97,-151.84 437.1,-129.75 422.42,-118.11 412.17,-99.13 406.05,-84.88"/>
<polygon fill="#63b8ff" stroke="#63b8ff" points="408.95,-83.7 402.02,-75.69 402.44,-86.28 408.95,-83.7"/>
</g>
<!-- Node21&#45;&gt;Node14 -->
<g id="edge37" class="edge">
<title>Node21&#45;&gt;Node14</title>
<path fill="none" stroke="#63b8ff" d="M622.39,-170.47C667.72,-165.31 739.48,-153.87 797.1,-129.75 825.96,-117.67 855.25,-96.3 873.52,-81.62"/>
<polygon fill="#63b8ff" stroke="#63b8ff" points="875.28,-83.89 880.79,-74.84 870.84,-78.48 875.28,-83.89"/>
</g>
<!-- Node22 -->
<g id="node22" class="node">
<title>Node22</title>
<g id="a_node22"><a xlink:href="input__output__names_8h.html" target="_top" xlink:title="Constant values associated with the format of the input and output files and matrices.">
<polygon fill="white" stroke="#666666" points="634.1,-129.75 522.1,-129.75 522.1,-110.5 634.1,-110.5 634.1,-129.75"/>
<text text-anchor="middle" x="578.1" y="-116.25" font-family="Helvetica,sans-Serif" font-size="10.00">input_output_names.h</text>
</a>
</g>
</g>
<!-- Node21&#45;&gt;Node22 -->
<g id="edge34" class="edge">
<title>Node21&#45;&gt;Node22</title>
<path fill="none" stroke="#63b8ff" d="M578.1,-165.58C578.1,-158.92 578.1,-149.49 578.1,-141.03"/>
<polygon fill="#63b8ff" stroke="#63b8ff" points="581.6,-141.11 578.1,-131.11 574.6,-141.11 581.6,-141.11"/>
</g>
<!-- Node23 -->
<g id="node23" class="node">
<title>Node23</title>
<g id="a_node23"><a xlink:href="matrix__collection_8h.html" target="_top" xlink:title="A collection of named MATLAB matrices.">
<polygon fill="white" stroke="#666666" points="787.98,-129.75 690.23,-129.75 690.23,-110.5 787.98,-110.5 787.98,-129.75"/>
<text text-anchor="middle" x="739.1" y="-116.25" font-family="Helvetica,sans-Serif" font-size="10.00">matrix_collection.h</text>
</a>
</g>
</g>
<!-- Node21&#45;&gt;Node23 -->
<g id="edge38" class="edge">
<title>Node21&#45;&gt;Node23</title>
<path fill="none" stroke="#63b8ff" d="M605.41,-165.34C631.78,-156.62 671.93,-143.34 701.35,-133.61"/>
<polygon fill="#63b8ff" stroke="#63b8ff" points="702.26,-136.67 710.66,-130.2 700.06,-130.02 702.26,-136.67"/>
</g>
<!-- Node22&#45;&gt;Node5 -->
<g id="edge35" class="edge">
<title>Node22&#45;&gt;Node5</title>
<path fill="none" stroke="#63b8ff" d="M547.74,-110.09C514.94,-100.33 462.96,-84.87 429.97,-75.06"/>
<polygon fill="#63b8ff" stroke="#63b8ff" points="431.15,-71.46 420.56,-71.96 429.15,-78.17 431.15,-71.46"/>
</g>
<!-- Node22&#45;&gt;Node19 -->
<g id="edge36" class="edge">
<title>Node22&#45;&gt;Node19</title>
<path fill="none" stroke="#63b8ff" d="M605.41,-110.09C633.54,-100.79 677.35,-86.3 707.08,-76.47"/>
<polygon fill="#63b8ff" stroke="#63b8ff" points="707.95,-79.53 716.35,-73.07 705.76,-72.89 707.95,-79.53"/>
</g>
<!-- Node23&#45;&gt;Node5 -->
<g id="edge39" class="edge">
<title>Node23&#45;&gt;Node5</title>
<path fill="none" stroke="#63b8ff" d="M690.03,-111.44C618.85,-100.29 489.03,-79.96 429.91,-70.7"/>
<polygon fill="#63b8ff" stroke="#63b8ff" points="430.81,-67.14 420.39,-69.05 429.73,-74.06 430.81,-67.14"/>
</g>
<!-- Node23&#45;&gt;Node14 -->
<g id="edge41" class="edge">
<title>Node23&#45;&gt;Node14</title>
<path fill="none" stroke="#63b8ff" d="M765.06,-110.09C790.01,-101.41 827.93,-88.21 855.86,-78.49"/>
<polygon fill="#63b8ff" stroke="#63b8ff" points="856.73,-81.55 865.02,-74.95 854.43,-74.93 856.73,-81.55"/>
</g>
<!-- Node23&#45;&gt;Node19 -->
<g id="edge40" class="edge">
<title>Node23&#45;&gt;Node19</title>
<path fill="none" stroke="#63b8ff" d="M739.1,-110.33C739.1,-103.67 739.1,-94.24 739.1,-85.78"/>
<polygon fill="#63b8ff" stroke="#63b8ff" points="742.6,-85.86 739.1,-75.86 735.6,-85.86 742.6,-85.86"/>
</g>
</g>
</svg>
