<?xml version="1.0" encoding="UTF-8" standalone="no"?>
<!DOCTYPE svg PUBLIC "-//W3C//DTD SVG 1.1//EN"
 "http://www.w3.org/Graphics/SVG/1.1/DTD/svg11.dtd">
<!-- Generated by graphviz version 13.1.2 (20250808.2320)
 -->
<!-- Title: tdms/include/field.h Pages: 1 -->
<svg width="1138pt" height="304pt"
 viewBox="0.00 0.00 1138.00 304.00" xmlns="http://www.w3.org/2000/svg" xmlns:xlink="http://www.w3.org/1999/xlink">
<g id="graph0" class="graph" transform="scale(1 1) rotate(0) translate(4 299.5)">
<title>tdms/include/field.h</title>
<!-- Node1 -->
<g id="Node000001" class="node">
<title>Node1</title>
<g id="a_Node000001"><a xlink:title="Classes for the electric and magnetic (split) fields on a grid.">
<polygon fill="#999999" stroke="#666666" points="524.75,-295.5 424,-295.5 424,-276.25 524.75,-276.25 524.75,-295.5"/>
<text xml:space="preserve" text-anchor="middle" x="474.38" y="-282" font-family="Helvetica,sans-Serif" font-size="10.00">tdms/include/field.h</text>
</a>
</g>
</g>
<!-- Node2 -->
<g id="Node000002" class="node">
<title>Node2</title>
<g id="a_Node000002"><a xlink:title=" ">
<polygon fill="#e0e0e0" stroke="#999999" points="52.75,-74.5 0,-74.5 0,-55.25 52.75,-55.25 52.75,-74.5"/>
<text xml:space="preserve" text-anchor="middle" x="26.38" y="-61" font-family="Helvetica,sans-Serif" font-size="10.00">complex</text>
</a>
</g>
</g>
<!-- Node1&#45;&gt;Node2 -->
<g id="edge1_Node000001_Node000002" class="edge">
<title>Node1&#45;&gt;Node2</title>
<g id="a_edge1_Node000001_Node000002"><a xlink:title=" ">
<path fill="none" stroke="#63b8ff" d="M423.71,-282.31C368.67,-278.2 278.88,-267.56 206.38,-240.25 119.24,-207.42 74.91,-210.41 28.38,-129.75 20.81,-116.64 20.74,-99.37 22.33,-86.09"/>
<polygon fill="#63b8ff" stroke="#63b8ff" points="25.76,-86.77 23.92,-76.34 18.85,-85.65 25.76,-86.77"/>
</a>
</g>
</g>
<!-- Node3 -->
<g id="Node000003" class="node">
<title>Node3</title>
<g id="a_Node000003"><a xlink:href="arrays_8h.html" target="_top" xlink:title="Classes describing arrays, vertices etc.">
<polygon fill="white" stroke="#666666" points="430,-185 378.75,-185 378.75,-165.75 430,-165.75 430,-185"/>
<text xml:space="preserve" text-anchor="middle" x="404.38" y="-171.5" font-family="Helvetica,sans-Serif" font-size="10.00">arrays.h</text>
</a>
</g>
</g>
<!-- Node1&#45;&gt;Node3 -->
<g id="edge2_Node000001_Node000003" class="edge">
<title>Node1&#45;&gt;Node3</title>
<g id="a_edge2_Node000001_Node000003"><a xlink:title=" ">
<path fill="none" stroke="#63b8ff" d="M473.32,-275.96C471.45,-262.99 466.62,-238.53 455.38,-221 448.15,-209.74 437.29,-199.69 427.44,-191.98"/>
<polygon fill="#63b8ff" stroke="#63b8ff" points="429.8,-189.38 419.68,-186.25 425.65,-195.01 429.8,-189.38"/>
</a>
</g>
</g>
<!-- Node13 -->
<g id="Node000013" class="node">
<title>Node13</title>
<g id="a_Node000013"><a xlink:title=" ">
<polygon fill="#e0e0e0" stroke="#999999" points="336.25,-240.25 250.5,-240.25 250.5,-221 336.25,-221 336.25,-240.25"/>
<text xml:space="preserve" text-anchor="middle" x="293.38" y="-226.75" font-family="Helvetica,sans-Serif" font-size="10.00">arrays/eh_vec.h</text>
</a>
</g>
</g>
<!-- Node1&#45;&gt;Node13 -->
<g id="edge17_Node000001_Node000013" class="edge">
<title>Node1&#45;&gt;Node13</title>
<g id="a_edge17_Node000001_Node000013"><a xlink:title=" ">
<path fill="none" stroke="#63b8ff" d="M443.67,-275.84C413.77,-267.04 368.1,-253.61 334.95,-243.86"/>
<polygon fill="#63b8ff" stroke="#63b8ff" points="336.26,-240.59 325.68,-241.13 334.29,-247.31 336.26,-240.59"/>
</a>
</g>
</g>
<!-- Node14 -->
<g id="Node000014" class="node">
<title>Node14</title>
<g id="a_Node000014"><a xlink:title=" ">
<polygon fill="#e0e0e0" stroke="#999999" points="446.25,-240.25 354.5,-240.25 354.5,-221 446.25,-221 446.25,-240.25"/>
<text xml:space="preserve" text-anchor="middle" x="400.38" y="-226.75" font-family="Helvetica,sans-Serif" font-size="10.00">arrays/tensor3d.h</text>
</a>
</g>
</g>
<!-- Node1&#45;&gt;Node14 -->
<g id="edge18_Node000001_Node000014" class="edge">
<title>Node1&#45;&gt;Node14</title>
<g id="a_edge18_Node000001_Node000014"><a xlink:title=" ">
<path fill="none" stroke="#63b8ff" d="M461.82,-275.84C450.91,-267.99 434.87,-256.45 421.91,-247.12"/>
<polygon fill="#63b8ff" stroke="#63b8ff" points="424.13,-244.41 413.97,-241.41 420.04,-250.09 424.13,-244.41"/>
</a>
</g>
</g>
<!-- Node15 -->
<g id="Node000015" class="node">
<title>Node15</title>
<g id="a_Node000015"><a xlink:href="cell__coordinate_8h.html" target="_top" xlink:title="Container for {ijk} or {IJK} grouped variables.">
<polygon fill="white" stroke="#666666" points="144.12,-129.75 54.62,-129.75 54.62,-110.5 144.12,-110.5 144.12,-129.75"/>
<text xml:space="preserve" text-anchor="middle" x="99.38" y="-116.25" font-family="Helvetica,sans-Serif" font-size="10.00">cell_coordinate.h</text>
</a>
</g>
</g>
<!-- Node1&#45;&gt;Node15 -->
<g id="edge19_Node000001_Node000015" class="edge">
<title>Node1&#45;&gt;Node15</title>
<g id="a_edge19_Node000001_Node000015"><a xlink:title=" ">
<path fill="none" stroke="#63b8ff" d="M423.92,-282.54C375.13,-278.63 300.15,-268.18 241.38,-240.25 188.08,-214.92 138.27,-164.75 114.31,-138.33"/>
<polygon fill="#63b8ff" stroke="#63b8ff" points="117.21,-136.33 107.95,-131.18 111.98,-140.98 117.21,-136.33"/>
</a>
</g>
</g>
<!-- Node17 -->
<g id="Node000017" class="node">
<title>Node17</title>
<g id="a_Node000017"><a xlink:href="dimensions_8h.html" target="_top" xlink:title="Defines a class that serves as an explicit converter between MATLAB pointers and array dimensions.">
<polygon fill="white" stroke="#666666" points="1111.25,-185 1037.5,-185 1037.5,-165.75 1111.25,-165.75 1111.25,-185"/>
<text xml:space="preserve" text-anchor="middle" x="1074.38" y="-171.5" font-family="Helvetica,sans-Serif" font-size="10.00">dimensions.h</text>
</a>
</g>
</g>
<!-- Node1&#45;&gt;Node17 -->
<g id="edge22_Node000001_Node000017" class="edge">
<title>Node1&#45;&gt;Node17</title>
<g id="a_edge22_Node000001_Node000017"><a xlink:title=" ">
<path fill="none" stroke="#63b8ff" d="M524.96,-280.68C594.45,-274.44 723.13,-261.15 831.38,-240.25 903.74,-226.28 986.43,-202.93 1034.3,-188.66"/>
<polygon fill="#63b8ff" stroke="#63b8ff" points="1035.09,-192.08 1043.66,-185.85 1033.08,-185.37 1035.09,-192.08"/>
</a>
</g>
</g>
<!-- Node18 -->
<g id="Node000018" class="node">
<title>Node18</title>
<g id="a_Node000018"><a xlink:href="mat__io_8h.html" target="_top" xlink:title="Includes MATLAB headers for I/O.">
<polygon fill="white" stroke="#666666" points="1001.12,-74.5 947.62,-74.5 947.62,-55.25 1001.12,-55.25 1001.12,-74.5"/>
<text xml:space="preserve" text-anchor="middle" x="974.38" y="-61" font-family="Helvetica,sans-Serif" font-size="10.00">mat_io.h</text>
</a>
</g>
</g>
<!-- Node1&#45;&gt;Node18 -->
<g id="edge34_Node000001_Node000018" class="edge">
<title>Node1&#45;&gt;Node18</title>
<g id="a_edge34_Node000001_Node000018"><a xlink:title=" ">
<path fill="none" stroke="#63b8ff" d="M525,-285.41C664.14,-285.67 1046.87,-277.79 1120.38,-185 1157.62,-137.98 1066.61,-97.2 1011.96,-77.85"/>
<polygon fill="#63b8ff" stroke="#63b8ff" points="1013.26,-74.59 1002.67,-74.65 1010.98,-81.21 1013.26,-74.59"/>
</a>
</g>
</g>
<!-- Node22 -->
<g id="Node000022" class="node">
<title>Node22</title>
<g id="a_Node000022"><a xlink:href="input__flags_8h.html" target="_top" xlink:title="Organises enumerated constants, names, and classes for handling flag&#45;variables that are passed to TDM...">
<polygon fill="white" stroke="#666666" points="548.12,-129.75 476.62,-129.75 476.62,-110.5 548.12,-110.5 548.12,-129.75"/>
<text xml:space="preserve" text-anchor="middle" x="512.38" y="-116.25" font-family="Helvetica,sans-Serif" font-size="10.00">input_flags.h</text>
</a>
</g>
</g>
<!-- Node1&#45;&gt;Node22 -->
<g id="edge27_Node000001_Node000022" class="edge">
<title>Node1&#45;&gt;Node22</title>
<g id="a_edge27_Node000001_Node000022"><a xlink:title=" ">
<path fill="none" stroke="#63b8ff" d="M476.42,-276.07C482.32,-250.64 499.5,-176.6 507.79,-140.87"/>
<polygon fill="#63b8ff" stroke="#63b8ff" points="511.13,-141.98 509.98,-131.45 504.31,-140.4 511.13,-141.98"/>
</a>
</g>
</g>
<!-- Node23 -->
<g id="Node000023" class="node">
<title>Node23</title>
<g id="a_Node000023"><a xlink:href="simulation__parameters_8h.html" target="_top" xlink:title="Classes collecting parameters for the simulation.">
<polygon fill="white" stroke="#666666" points="822.62,-240.25 700.12,-240.25 700.12,-221 822.62,-221 822.62,-240.25"/>
<text xml:space="preserve" text-anchor="middle" x="761.38" y="-226.75" font-family="Helvetica,sans-Serif" font-size="10.00">simulation_parameters.h</text>
</a>
</g>
</g>
<!-- Node1&#45;&gt;Node23 -->
<g id="edge35_Node000001_Node000023" class="edge">
<title>Node1&#45;&gt;Node23</title>
<g id="a_edge35_Node000001_Node000023"><a xlink:title=" ">
<path fill="none" stroke="#63b8ff" d="M523.39,-275.78C572.61,-266.65 648.53,-252.56 701.33,-242.76"/>
<polygon fill="#63b8ff" stroke="#63b8ff" points="701.88,-246.22 711.08,-240.96 700.61,-239.34 701.88,-246.22"/>
</a>
</g>
</g>
<!-- Node3&#45;&gt;Node2 -->
<g id="edge3_Node000003_Node000002" class="edge">
<title>Node3&#45;&gt;Node2</title>
<g id="a_edge3_Node000003_Node000002"><a xlink:title=" ">
<path fill="none" stroke="#63b8ff" d="M378.38,-174.7C304.54,-175.09 95.64,-172.32 45.38,-129.75 32.81,-119.11 28.34,-100.56 26.85,-86.18"/>
<polygon fill="#63b8ff" stroke="#63b8ff" points="30.36,-86.21 26.27,-76.44 23.37,-86.63 30.36,-86.21"/>
</a>
</g>
</g>
<!-- Node4 -->
<g id="Node000004" class="node">
<title>Node4</title>
<g id="a_Node000004"><a xlink:title=" ">
<polygon fill="#e0e0e0" stroke="#999999" points="541.75,-74.5 483,-74.5 483,-55.25 541.75,-55.25 541.75,-74.5"/>
<text xml:space="preserve" text-anchor="middle" x="512.38" y="-61" font-family="Helvetica,sans-Serif" font-size="10.00">stdexcept</text>
</a>
</g>
</g>
<!-- Node3&#45;&gt;Node4 -->
<g id="edge4_Node000003_Node000004" class="edge">
<title>Node3&#45;&gt;Node4</title>
<g id="a_edge4_Node000003_Node000004"><a xlink:title=" ">
<path fill="none" stroke="#63b8ff" d="M384.6,-165.42C361.13,-153.55 327.09,-131.64 343.38,-110.5 347.37,-105.31 422.85,-86.82 471.57,-75.33"/>
<polygon fill="#63b8ff" stroke="#63b8ff" points="472.32,-78.76 481.25,-73.06 470.72,-71.94 472.32,-78.76"/>
</a>
</g>
</g>
<!-- Node5 -->
<g id="Node000005" class="node">
<title>Node5</title>
<g id="a_Node000005"><a xlink:title=" ">
<polygon fill="#e0e0e0" stroke="#999999" points="690.38,-74.5 650.38,-74.5 650.38,-55.25 690.38,-55.25 690.38,-74.5"/>
<text xml:space="preserve" text-anchor="middle" x="670.38" y="-61" font-family="Helvetica,sans-Serif" font-size="10.00">string</text>
</a>
</g>
</g>
<!-- Node3&#45;&gt;Node5 -->
<g id="edge5_Node000003_Node000005" class="edge">
<title>Node3&#45;&gt;Node5</title>
<g id="a_edge5_Node000003_Node000005"><a xlink:title=" ">
<path fill="none" stroke="#63b8ff" d="M430.24,-170.6C464.91,-164.91 527.83,-152.3 577.38,-129.75 604.9,-117.22 633.06,-96.57 651.07,-82.15"/>
<polygon fill="#63b8ff" stroke="#63b8ff" points="653.27,-84.87 658.79,-75.83 648.83,-79.46 653.27,-84.87"/>
</a>
</g>
</g>
<!-- Node6 -->
<g id="Node000006" class="node">
<title>Node6</title>
<g id="a_Node000006"><a xlink:title=" ">
<polygon fill="#e0e0e0" stroke="#999999" points="602.88,-74.5 559.88,-74.5 559.88,-55.25 602.88,-55.25 602.88,-74.5"/>
<text xml:space="preserve" text-anchor="middle" x="581.38" y="-61" font-family="Helvetica,sans-Serif" font-size="10.00">vector</text>
</a>
</g>
</g>
<!-- Node3&#45;&gt;Node6 -->
<g id="edge6_Node000003_Node000006" class="edge">
<title>Node3&#45;&gt;Node6</title>
<g id="a_edge6_Node000003_Node000006"><a xlink:title=" ">
<path fill="none" stroke="#63b8ff" d="M430.26,-173.67C463.74,-171.39 521.97,-162.58 557.38,-129.75 569.74,-118.29 575.77,-99.83 578.69,-85.7"/>
<polygon fill="#63b8ff" stroke="#63b8ff" points="582.09,-86.61 580.29,-76.17 575.19,-85.45 582.09,-86.61"/>
</a>
</g>
</g>
<!-- Node7 -->
<g id="Node000007" class="node">
<title>Node7</title>
<g id="a_Node000007"><a xlink:title=" ">
<polygon fill="#e0e0e0" stroke="#999999" points="458.38,-129.75 412.38,-129.75 412.38,-110.5 458.38,-110.5 458.38,-129.75"/>
<text xml:space="preserve" text-anchor="middle" x="435.38" y="-116.25" font-family="Helvetica,sans-Serif" font-size="10.00">fftw3.h</text>
</a>
</g>
</g>
<!-- Node3&#45;&gt;Node7 -->
<g id="edge7_Node000003_Node000007" class="edge">
<title>Node3&#45;&gt;Node7</title>
<g id="a_edge7_Node000003_Node000007"><a xlink:title=" ">
<path fill="none" stroke="#63b8ff" d="M409.49,-165.58C413.55,-158.61 419.37,-148.62 424.46,-139.87"/>
<polygon fill="#63b8ff" stroke="#63b8ff" points="427.38,-141.82 429.38,-131.42 421.33,-138.3 427.38,-141.82"/>
</a>
</g>
</g>
<!-- Node8 -->
<g id="Node000008" class="node">
<title>Node8</title>
<g id="a_Node000008"><a xlink:href="globals_8h.html" target="_top" xlink:title="Type definitions and global constants.">
<polygon fill="white" stroke="#666666" points="216.88,-129.75 161.88,-129.75 161.88,-110.5 216.88,-110.5 216.88,-129.75"/>
<text xml:space="preserve" text-anchor="middle" x="189.38" y="-116.25" font-family="Helvetica,sans-Serif" font-size="10.00">globals.h</text>
</a>
</g>
</g>
<!-- Node3&#45;&gt;Node8 -->
<g id="edge8_Node000003_Node000008" class="edge">
<title>Node3&#45;&gt;Node8</title>
<g id="a_edge8_Node000003_Node000008"><a xlink:title=" ">
<path fill="none" stroke="#63b8ff" d="M378.44,-167.95C341.02,-158.68 271.61,-141.49 228.1,-130.72"/>
<polygon fill="#63b8ff" stroke="#63b8ff" points="229.12,-127.36 218.57,-128.36 227.43,-134.16 229.12,-127.36"/>
</a>
</g>
</g>
<!-- Node9 -->
<g id="Node000009" class="node">
<title>Node9</title>
<g id="a_Node000009"><a xlink:title=" ">
<polygon fill="#e0e0e0" stroke="#999999" points="295.88,-129.75 234.88,-129.75 234.88,-110.5 295.88,-110.5 295.88,-129.75"/>
<text xml:space="preserve" text-anchor="middle" x="265.38" y="-116.25" font-family="Helvetica,sans-Serif" font-size="10.00">matlabio.h</text>
</a>
</g>
</g>
<!-- Node3&#45;&gt;Node9 -->
<g id="edge11_Node000003_Node000009" class="edge">
<title>Node3&#45;&gt;Node9</title>
<g id="a_edge11_Node000003_Node000009"><a xlink:title=" ">
<path fill="none" stroke="#63b8ff" d="M380.8,-165.34C358.53,-156.81 324.88,-143.92 299.65,-134.26"/>
<polygon fill="#63b8ff" stroke="#63b8ff" points="301.07,-131.05 290.48,-130.74 298.57,-137.59 301.07,-131.05"/>
</a>
</g>
</g>
<!-- Node10 -->
<g id="Node000010" class="node">
<title>Node10</title>
<g id="a_Node000010"><a xlink:href="utils_8h.html" target="_top" xlink:title="Useful miscellaneous utility functions.">
<polygon fill="white" stroke="#666666" points="394.5,-129.75 352.25,-129.75 352.25,-110.5 394.5,-110.5 394.5,-129.75"/>
<text xml:space="preserve" text-anchor="middle" x="373.38" y="-116.25" font-family="Helvetica,sans-Serif" font-size="10.00">utils.h</text>
</a>
</g>
</g>
<!-- Node3&#45;&gt;Node10 -->
<g id="edge12_Node000003_Node000010" class="edge">
<title>Node3&#45;&gt;Node10</title>
<g id="a_edge12_Node000003_Node000010"><a xlink:title=" ">
<path fill="none" stroke="#63b8ff" d="M399.26,-165.58C395.2,-158.61 389.38,-148.62 384.29,-139.87"/>
<polygon fill="#63b8ff" stroke="#63b8ff" points="387.42,-138.3 379.37,-131.42 381.37,-141.82 387.42,-138.3"/>
</a>
</g>
</g>
<!-- Node8&#45;&gt;Node2 -->
<g id="edge9_Node000008_Node000002" class="edge">
<title>Node8&#45;&gt;Node2</title>
<g id="a_edge9_Node000008_Node000002"><a xlink:title=" ">
<path fill="none" stroke="#63b8ff" d="M161.72,-110.09C134.82,-101.3 93.76,-87.89 63.91,-78.14"/>
<polygon fill="#63b8ff" stroke="#63b8ff" points="65.11,-74.85 54.52,-75.07 62.93,-81.5 65.11,-74.85"/>
</a>
</g>
</g>
<!-- Node8&#45;&gt;Node5 -->
<g id="edge10_Node000008_Node000005" class="edge">
<title>Node8&#45;&gt;Node5</title>
<g id="a_edge10_Node000008_Node000005"><a xlink:title=" ">
<path fill="none" stroke="#63b8ff" d="M217.2,-112.04C219.95,-111.47 222.71,-110.94 225.38,-110.5 395.8,-82.3 440.88,-95.21 612.38,-74.5 620.99,-73.46 630.3,-72.16 638.89,-70.88"/>
<polygon fill="#63b8ff" stroke="#63b8ff" points="639.16,-74.38 648.52,-69.41 638.1,-67.46 639.16,-74.38"/>
</a>
</g>
</g>
<!-- Node10&#45;&gt;Node5 -->
<g id="edge15_Node000010_Node000005" class="edge">
<title>Node10&#45;&gt;Node5</title>
<g id="a_edge15_Node000010_Node000005"><a xlink:title=" ">
<path fill="none" stroke="#63b8ff" d="M394.93,-112.61C397.76,-111.85 400.63,-111.12 403.38,-110.5 447.85,-100.42 578.33,-79.98 638.86,-70.68"/>
<polygon fill="#63b8ff" stroke="#63b8ff" points="639.14,-74.18 648.49,-69.2 638.08,-67.26 639.14,-74.18"/>
</a>
</g>
</g>
<!-- Node10&#45;&gt;Node6 -->
<g id="edge16_Node000010_Node000006" class="edge">
<title>Node10&#45;&gt;Node6</title>
<g id="a_edge16_Node000010_Node000006"><a xlink:title=" ">
<path fill="none" stroke="#63b8ff" d="M394.98,-112.8C397.8,-112.01 400.65,-111.22 403.38,-110.5 465.08,-94.08 483.46,-91.73 548.52,-74.91"/>
<polygon fill="#63b8ff" stroke="#63b8ff" points="549.12,-78.37 557.92,-72.47 547.36,-71.6 549.12,-78.37"/>
</a>
</g>
</g>
<!-- Node11 -->
<g id="Node000011" class="node">
<title>Node11</title>
<g id="a_Node000011"><a xlink:title=" ">
<polygon fill="#e0e0e0" stroke="#999999" points="298.25,-74.5 242.5,-74.5 242.5,-55.25 298.25,-55.25 298.25,-74.5"/>
<text xml:space="preserve" text-anchor="middle" x="270.38" y="-61" font-family="Helvetica,sans-Serif" font-size="10.00">algorithm</text>
</a>
</g>
</g>
<!-- Node10&#45;&gt;Node11 -->
<g id="edge13_Node000010_Node000011" class="edge">
<title>Node10&#45;&gt;Node11</title>
<g id="a_edge13_Node000010_Node000011"><a xlink:title=" ">
<path fill="none" stroke="#63b8ff" d="M355.9,-110.09C340.07,-101.91 316.47,-89.71 298.07,-80.19"/>
<polygon fill="#63b8ff" stroke="#63b8ff" points="299.77,-77.13 289.28,-75.65 296.55,-83.35 299.77,-77.13"/>
</a>
</g>
</g>
<!-- Node12 -->
<g id="Node000012" class="node">
<title>Node12</title>
<g id="a_Node000012"><a xlink:title=" ">
<polygon fill="#e0e0e0" stroke="#999999" points="362.38,-74.5 316.38,-74.5 316.38,-55.25 362.38,-55.25 362.38,-74.5"/>
<text xml:space="preserve" text-anchor="middle" x="339.38" y="-61" font-family="Helvetica,sans-Serif" font-size="10.00">iterator</text>
</a>
</g>
</g>
<!-- Node10&#45;&gt;Node12 -->
<g id="edge14_Node000010_Node000012" class="edge">
<title>Node10&#45;&gt;Node12</title>
<g id="a_edge14_Node000010_Node000012"><a xlink:title=" ">
<path fill="none" stroke="#63b8ff" d="M367.76,-110.33C363.26,-103.28 356.79,-93.15 351.16,-84.33"/>
<polygon fill="#63b8ff" stroke="#63b8ff" points="354.26,-82.68 345.93,-76.13 348.36,-86.45 354.26,-82.68"/>
</a>
</g>
</g>
<!-- Node15&#45;&gt;Node11 -->
<g id="edge21_Node000015_Node000011" class="edge">
<title>Node15&#45;&gt;Node11</title>
<g id="a_edge21_Node000015_Node000011"><a xlink:title=" ">
<path fill="none" stroke="#63b8ff" d="M128.38,-110.09C156.64,-101.29 199.81,-87.85 231.13,-78.1"/>
<polygon fill="#63b8ff" stroke="#63b8ff" points="232.13,-81.45 240.63,-75.14 230.05,-74.77 232.13,-81.45"/>
</a>
</g>
</g>
<!-- Node16 -->
<g id="Node000016" class="node">
<title>Node16</title>
<g id="a_Node000016"><a xlink:title=" ">
<polygon fill="#e0e0e0" stroke="#999999" points="464.5,-74.5 380.25,-74.5 380.25,-55.25 464.5,-55.25 464.5,-74.5"/>
<text xml:space="preserve" text-anchor="middle" x="422.38" y="-61" font-family="Helvetica,sans-Serif" font-size="10.00">spdlog/spdlog.h</text>
</a>
</g>
</g>
<!-- Node15&#45;&gt;Node16 -->
<g id="edge20_Node000015_Node000016" class="edge">
<title>Node15&#45;&gt;Node16</title>
<g id="a_edge20_Node000015_Node000016"><a xlink:title=" ">
<path fill="none" stroke="#63b8ff" d="M144.46,-111.76C205.69,-101.74 313.09,-84.17 368.74,-74.93"/>
<polygon fill="#63b8ff" stroke="#63b8ff" points="369.02,-78.43 378.31,-73.34 367.87,-71.53 369.02,-78.43"/>
</a>
</g>
</g>
<!-- Node17&#45;&gt;Node18 -->
<g id="edge23_Node000017_Node000018" class="edge">
<title>Node17&#45;&gt;Node18</title>
<g id="a_edge23_Node000017_Node000018"><a xlink:title=" ">
<path fill="none" stroke="#63b8ff" d="M1066.19,-165.5C1049.64,-147.53 1011.92,-106.61 990.33,-83.19"/>
<polygon fill="#63b8ff" stroke="#63b8ff" points="993.05,-80.97 983.7,-75.99 987.9,-85.71 993.05,-80.97"/>
</a>
</g>
</g>
<!-- Node19 -->
<g id="Node000019" class="node">
<title>Node19</title>
<g id="a_Node000019"><a xlink:title=" ">
<polygon fill="#e0e0e0" stroke="#999999" points="930.75,-19.25 890,-19.25 890,0 930.75,0 930.75,-19.25"/>
<text xml:space="preserve" text-anchor="middle" x="910.38" y="-5.75" font-family="Helvetica,sans-Serif" font-size="10.00">mat.h</text>
</a>
</g>
</g>
<!-- Node18&#45;&gt;Node19 -->
<g id="edge24_Node000018_Node000019" class="edge">
<title>Node18&#45;&gt;Node19</title>
<g id="a_edge24_Node000018_Node000019"><a xlink:title=" ">
<path fill="none" stroke="#63b8ff" d="M963.52,-54.84C954.27,-47.15 940.75,-35.9 929.67,-26.68"/>
<polygon fill="#63b8ff" stroke="#63b8ff" points="932.16,-24.2 922.23,-20.49 927.68,-29.58 932.16,-24.2"/>
</a>
</g>
</g>
<!-- Node20 -->
<g id="Node000020" class="node">
<title>Node20</title>
<g id="a_Node000020"><a xlink:title=" ">
<polygon fill="#e0e0e0" stroke="#999999" points="1000,-19.25 948.75,-19.25 948.75,0 1000,0 1000,-19.25"/>
<text xml:space="preserve" text-anchor="middle" x="974.38" y="-5.75" font-family="Helvetica,sans-Serif" font-size="10.00">matrix.h</text>
</a>
</g>
</g>
<!-- Node18&#45;&gt;Node20 -->
<g id="edge25_Node000018_Node000020" class="edge">
<title>Node18&#45;&gt;Node20</title>
<g id="a_edge25_Node000018_Node000020"><a xlink:title=" ">
<path fill="none" stroke="#63b8ff" d="M974.38,-55.08C974.38,-48.57 974.38,-39.42 974.38,-31.12"/>
<polygon fill="#63b8ff" stroke="#63b8ff" points="977.88,-31.12 974.38,-21.12 970.88,-31.12 977.88,-31.12"/>
</a>
</g>
</g>
<!-- Node21 -->
<g id="Node000021" class="node">
<title>Node21</title>
<g id="a_Node000021"><a xlink:title=" ">
<polygon fill="#e0e0e0" stroke="#999999" points="1060.88,-19.25 1017.88,-19.25 1017.88,0 1060.88,0 1060.88,-19.25"/>
<text xml:space="preserve" text-anchor="middle" x="1039.38" y="-5.75" font-family="Helvetica,sans-Serif" font-size="10.00">mex.h</text>
</a>
</g>
</g>
<!-- Node18&#45;&gt;Node21 -->
<g id="edge26_Node000018_Node000021" class="edge">
<title>Node18&#45;&gt;Node21</title>
<g id="a_edge26_Node000018_Node000021"><a xlink:title=" ">
<path fill="none" stroke="#63b8ff" d="M985.4,-54.84C994.8,-47.15 1008.52,-35.9 1019.78,-26.68"/>
<polygon fill="#63b8ff" stroke="#63b8ff" points="1021.82,-29.53 1027.34,-20.48 1017.39,-24.11 1021.82,-29.53"/>
</a>
</g>
</g>
<!-- Node22&#45;&gt;Node4 -->
<g id="edge29_Node000022_Node000004" class="edge">
<title>Node22&#45;&gt;Node4</title>
<g id="a_edge29_Node000022_Node000004"><a xlink:title=" ">
<path fill="none" stroke="#63b8ff" d="M512.38,-110.33C512.38,-103.82 512.38,-94.67 512.38,-86.37"/>
<polygon fill="#63b8ff" stroke="#63b8ff" points="515.88,-86.37 512.38,-76.37 508.88,-86.37 515.88,-86.37"/>
</a>
</g>
</g>
<!-- Node22&#45;&gt;Node5 -->
<g id="edge30_Node000022_Node000005" class="edge">
<title>Node22&#45;&gt;Node5</title>
<g id="a_edge30_Node000022_Node000005"><a xlink:title=" ">
<path fill="none" stroke="#63b8ff" d="M539.18,-110.09C566.85,-100.77 609.98,-86.23 639.17,-76.39"/>
<polygon fill="#63b8ff" stroke="#63b8ff" points="640.19,-79.74 648.55,-73.23 637.96,-73.11 640.19,-79.74"/>
</a>
</g>
</g>
<!-- Node22&#45;&gt;Node6 -->
<g id="edge31_Node000022_Node000006" class="edge">
<title>Node22&#45;&gt;Node6</title>
<g id="a_edge31_Node000022_Node000006"><a xlink:title=" ">
<path fill="none" stroke="#63b8ff" d="M524.08,-110.09C534.15,-102.32 548.92,-90.92 560.94,-81.65"/>
<polygon fill="#63b8ff" stroke="#63b8ff" points="562.87,-84.58 568.64,-75.7 558.59,-79.04 562.87,-84.58"/>
</a>
</g>
</g>
<!-- Node22&#45;&gt;Node11 -->
<g id="edge28_Node000022_Node000011" class="edge">
<title>Node22&#45;&gt;Node11</title>
<g id="a_edge28_Node000022_Node000011"><a xlink:title=" ">
<path fill="none" stroke="#63b8ff" d="M476.42,-111.47C437.7,-103.18 373.99,-89.44 309.79,-75.02"/>
<polygon fill="#63b8ff" stroke="#63b8ff" points="310.65,-71.63 300.12,-72.84 309.11,-78.45 310.65,-71.63"/>
</a>
</g>
</g>
<!-- Node22&#45;&gt;Node16 -->
<g id="edge32_Node000022_Node000016" class="edge">
<title>Node22&#45;&gt;Node16</title>
<g id="a_edge32_Node000022_Node000016"><a xlink:title=" ">
<path fill="none" stroke="#63b8ff" d="M497.11,-110.09C483.53,-102.06 463.42,-90.16 447.48,-80.73"/>
<polygon fill="#63b8ff" stroke="#63b8ff" points="449.41,-77.8 439.02,-75.72 445.84,-83.83 449.41,-77.8"/>
</a>
</g>
</g>
<!-- Node22&#45;&gt;Node18 -->
<g id="edge33_Node000022_Node000018" class="edge">
<title>Node22&#45;&gt;Node18</title>
<g id="a_edge33_Node000022_Node000018"><a xlink:title=" ">
<path fill="none" stroke="#63b8ff" d="M548.24,-114.99C633.58,-105.16 848.09,-80.43 935.95,-70.3"/>
<polygon fill="#63b8ff" stroke="#63b8ff" points="936.2,-73.8 945.73,-69.18 935.4,-66.84 936.2,-73.8"/>
</a>
</g>
</g>
<!-- Node23&#45;&gt;Node3 -->
<g id="edge37_Node000023_Node000003" class="edge">
<title>Node23&#45;&gt;Node3</title>
<g id="a_edge37_Node000023_Node000003"><a xlink:title=" ">
<path fill="none" stroke="#63b8ff" d="M700.41,-220.53C625.95,-209.42 502.36,-190.99 441.12,-181.86"/>
<polygon fill="#63b8ff" stroke="#63b8ff" points="441.98,-178.45 431.58,-180.43 440.95,-185.37 441.98,-178.45"/>
</a>
</g>
</g>
<!-- Node23&#45;&gt;Node5 -->
<g id="edge36_Node000023_Node000005" class="edge">
<title>Node23&#45;&gt;Node5</title>
<g id="a_edge36_Node000023_Node000005"><a xlink:title=" ">
<path fill="none" stroke="#63b8ff" d="M764.58,-220.68C771.52,-199.59 785.63,-145.86 763.38,-110.5 749.87,-89.04 722.87,-77.67 701.42,-71.79"/>
<polygon fill="#63b8ff" stroke="#63b8ff" points="702.52,-68.46 691.98,-69.49 700.86,-75.26 702.52,-68.46"/>
</a>
</g>
</g>
<!-- Node24 -->
<g id="Node000024" class="node">
<title>Node24</title>
<g id="a_Node000024"><a xlink:title=" ">
<polygon fill="#e0e0e0" stroke="#999999" points="1019.38,-185 895.38,-185 895.38,-165.75 1019.38,-165.75 1019.38,-185"/>
<text xml:space="preserve" text-anchor="middle" x="957.38" y="-171.5" font-family="Helvetica,sans-Serif" font-size="10.00">arrays/vector_typedefs.h</text>
</a>
</g>
</g>
<!-- Node23&#45;&gt;Node24 -->
<g id="edge38_Node000023_Node000024" class="edge">
<title>Node23&#45;&gt;Node24</title>
<g id="a_edge38_Node000023_Node000024"><a xlink:title=" ">
<path fill="none" stroke="#63b8ff" d="M794.62,-220.59C827.29,-211.72 877.32,-198.12 913.29,-188.35"/>
<polygon fill="#63b8ff" stroke="#63b8ff" points="913.77,-191.85 922.5,-185.85 911.93,-185.09 913.77,-191.85"/>
</a>
</g>
</g>
<!-- Node25 -->
<g id="Node000025" class="node">
<title>Node25</title>
<g id="a_Node000025"><a xlink:href="input__matrices_8h.html" target="_top" xlink:title="Class handling the input matrices that are read in from the input file.">
<polygon fill="white" stroke="#666666" points="877.38,-185 789.38,-185 789.38,-165.75 877.38,-165.75 877.38,-185"/>
<text xml:space="preserve" text-anchor="middle" x="833.38" y="-171.5" font-family="Helvetica,sans-Serif" font-size="10.00">input_matrices.h</text>
</a>
</g>
</g>
<!-- Node23&#45;&gt;Node25 -->
<g id="edge39_Node000023_Node000025" class="edge">
<title>Node23&#45;&gt;Node25</title>
<g id="a_edge39_Node000023_Node000025"><a xlink:title=" ">
<path fill="none" stroke="#63b8ff" d="M773.59,-220.59C784.2,-212.74 799.81,-201.2 812.42,-191.87"/>
<polygon fill="#63b8ff" stroke="#63b8ff" points="814.17,-194.94 820.12,-186.17 810,-189.31 814.17,-194.94"/>
</a>
</g>
</g>
<!-- Node25&#45;&gt;Node5 -->
<g id="edge40_Node000025_Node000005" class="edge">
<title>Node25&#45;&gt;Node5</title>
<g id="a_edge40_Node000025_Node000005"><a xlink:title=" ">
<path fill="none" stroke="#63b8ff" d="M863.32,-165.29C894.77,-154.25 937.11,-134.12 917.38,-110.5 890.26,-78.04 762.23,-69.15 701.93,-66.75"/>
<polygon fill="#63b8ff" stroke="#63b8ff" points="702.12,-63.25 692,-66.39 701.87,-70.25 702.12,-63.25"/>
</a>
</g>
</g>
<!-- Node25&#45;&gt;Node18 -->
<g id="edge44_Node000025_Node000018" class="edge">
<title>Node25&#45;&gt;Node18</title>
<g id="a_edge44_Node000025_Node000018"><a xlink:title=" ">
<path fill="none" stroke="#63b8ff" d="M877.73,-166.71C901.95,-160.46 930.9,-149.32 950.38,-129.75 962.14,-117.93 968.22,-99.8 971.31,-85.87"/>
<polygon fill="#63b8ff" stroke="#63b8ff" points="974.68,-86.93 973.05,-76.46 967.79,-85.65 974.68,-86.93"/>
</a>
</g>
</g>
<!-- Node26 -->
<g id="Node000026" class="node">
<title>Node26</title>
<g id="a_Node000026"><a xlink:href="input__output__names_8h.html" target="_top" xlink:title="Constant values associated with the format of the input and output files and matrices.">
<polygon fill="white" stroke="#666666" points="754.38,-129.75 642.38,-129.75 642.38,-110.5 754.38,-110.5 754.38,-129.75"/>
<text xml:space="preserve" text-anchor="middle" x="698.38" y="-116.25" font-family="Helvetica,sans-Serif" font-size="10.00">input_output_names.h</text>
</a>
</g>
</g>
<!-- Node25&#45;&gt;Node26 -->
<g id="edge41_Node000025_Node000026" class="edge">
<title>Node25&#45;&gt;Node26</title>
<g id="a_edge41_Node000025_Node000026"><a xlink:title=" ">
<path fill="none" stroke="#63b8ff" d="M810.47,-165.34C788.95,-156.85 756.46,-144.04 732,-134.39"/>
<polygon fill="#63b8ff" stroke="#63b8ff" points="733.38,-131.17 722.8,-130.76 730.81,-137.68 733.38,-131.17"/>
</a>
</g>
</g>
<!-- Node27 -->
<g id="Node000027" class="node">
<title>Node27</title>
<g id="a_Node000027"><a xlink:href="matrix__collection_8h.html" target="_top" xlink:title="A collection of named MATLAB matrices.">
<polygon fill="white" stroke="#666666" points="908.25,-129.75 810.5,-129.75 810.5,-110.5 908.25,-110.5 908.25,-129.75"/>
<text xml:space="preserve" text-anchor="middle" x="859.38" y="-116.25" font-family="Helvetica,sans-Serif" font-size="10.00">matrix_collection.h</text>
</a>
</g>
</g>
<!-- Node25&#45;&gt;Node27 -->
<g id="edge45_Node000025_Node000027" class="edge">
<title>Node25&#45;&gt;Node27</title>
<g id="a_edge45_Node000025_Node000027"><a xlink:title=" ">
<path fill="none" stroke="#63b8ff" d="M837.67,-165.58C841,-158.76 845.74,-149.06 849.94,-140.45"/>
<polygon fill="#63b8ff" stroke="#63b8ff" points="853.08,-141.99 854.32,-131.47 846.79,-138.92 853.08,-141.99"/>
</a>
</g>
</g>
<!-- Node26&#45;&gt;Node5 -->
<g id="edge42_Node000026_Node000005" class="edge">
<title>Node26&#45;&gt;Node5</title>
<g id="a_edge42_Node000026_Node000005"><a xlink:title=" ">
<path fill="none" stroke="#63b8ff" d="M693.75,-110.33C690.13,-103.44 684.95,-93.59 680.38,-84.91"/>
<polygon fill="#63b8ff" stroke="#63b8ff" points="683.56,-83.42 675.8,-76.2 677.36,-86.68 683.56,-83.42"/>
</a>
</g>
</g>
<!-- Node26&#45;&gt;Node6 -->
<g id="edge43_Node000026_Node000006" class="edge">
<title>Node26&#45;&gt;Node6</title>
<g id="a_edge43_Node000026_Node000006"><a xlink:title=" ">
<path fill="none" stroke="#63b8ff" d="M678.53,-110.09C660.21,-101.75 632.73,-89.25 611.67,-79.66"/>
<polygon fill="#63b8ff" stroke="#63b8ff" points="613.25,-76.54 602.7,-75.58 610.35,-82.91 613.25,-76.54"/>
</a>
</g>
</g>
<!-- Node27&#45;&gt;Node5 -->
<g id="edge46_Node000027_Node000005" class="edge">
<title>Node27&#45;&gt;Node5</title>
<g id="a_edge46_Node000027_Node000005"><a xlink:title=" ">
<path fill="none" stroke="#63b8ff" d="M827.31,-110.09C792.21,-100.2 736.3,-84.45 701.55,-74.66"/>
<polygon fill="#63b8ff" stroke="#63b8ff" points="702.67,-71.34 692.09,-71.99 700.77,-78.07 702.67,-71.34"/>
</a>
</g>
</g>
<!-- Node27&#45;&gt;Node6 -->
<g id="edge47_Node000027_Node000006" class="edge">
<title>Node27&#45;&gt;Node6</title>
<g id="a_edge47_Node000027_Node000006"><a xlink:title=" ">
<path fill="none" stroke="#63b8ff" d="M811.9,-110.03C755.6,-99.25 663.23,-81.55 614.25,-72.17"/>
<polygon fill="#63b8ff" stroke="#63b8ff" points="615.03,-68.76 604.55,-70.32 613.72,-75.63 615.03,-68.76"/>
</a>
</g>
</g>
<!-- Node27&#45;&gt;Node18 -->
<g id="edge48_Node000027_Node000018" class="edge">
<title>Node27&#45;&gt;Node18</title>
<g id="a_edge48_Node000027_Node000018"><a xlink:title=" ">
<path fill="none" stroke="#63b8ff" d="M878.88,-110.09C896.89,-101.75 923.9,-89.25 944.6,-79.66"/>
<polygon fill="#63b8ff" stroke="#63b8ff" points="945.79,-82.97 953.4,-75.59 942.85,-76.61 945.79,-82.97"/>
</a>
</g>
</g>
</g>
</svg>
