<?xml version="1.0" encoding="UTF-8" standalone="no"?>
<!DOCTYPE svg PUBLIC "-//W3C//DTD SVG 1.1//EN"
 "http://www.w3.org/Graphics/SVG/1.1/DTD/svg11.dtd">
<!-- Generated by graphviz version 8.0.5 (20230430.1635)
 -->
<!-- Title: tdms/include/field.h Pages: 1 -->
<svg width="1138pt" height="304pt"
 viewBox="0.00 0.00 1137.62 303.50" xmlns="http://www.w3.org/2000/svg" xmlns:xlink="http://www.w3.org/1999/xlink">
<g id="graph0" class="graph" transform="scale(1 1) rotate(0) translate(4 299.5)">
<title>tdms/include/field.h</title>
<!-- Node1 -->
<g id="node1" class="node">
<title>Node1</title>
<g id="a_node1"><a xlink:title="Classes for the electric and magnetic (split) fields on a grid.">
<polygon fill="#999999" stroke="#666666" points="524.75,-295.5 424,-295.5 424,-276.25 524.75,-276.25 524.75,-295.5"/>
<text text-anchor="middle" x="474.38" y="-282" font-family="Helvetica,sans-Serif" font-size="10.00">tdms/include/field.h</text>
</a>
</g>
</g>
<!-- Node2 -->
<g id="node2" class="node">
<title>Node2</title>
<g id="a_node2"><a xlink:title=" ">
<polygon fill="#e0e0e0" stroke="#999999" points="52.75,-74.5 0,-74.5 0,-55.25 52.75,-55.25 52.75,-74.5"/>
<text text-anchor="middle" x="26.38" y="-61" font-family="Helvetica,sans-Serif" font-size="10.00">complex</text>
</a>
</g>
</g>
<!-- Node1&#45;&gt;Node2 -->
<g id="edge1" class="edge">
<title>Node1&#45;&gt;Node2</title>
<path fill="none" stroke="#63b8ff" d="M423.7,-282.35C368.64,-278.26 278.84,-267.65 206.38,-240.25 119.63,-207.45 76.24,-209.77 29.38,-129.75 21.64,-116.55 21.37,-99.05 22.76,-85.71"/>
<polygon fill="#63b8ff" stroke="#63b8ff" points="26.36,-86.26 24.34,-75.86 19.43,-85.25 26.36,-86.26"/>
</g>
<!-- Node3 -->
<g id="node3" class="node">
<title>Node3</title>
<g id="a_node3"><a xlink:href="arrays_8h.html" target="_top" xlink:title="Classes describing arrays, vertices etc.">
<polygon fill="white" stroke="#666666" points="430,-185 378.75,-185 378.75,-165.75 430,-165.75 430,-185"/>
<text text-anchor="middle" x="404.38" y="-171.5" font-family="Helvetica,sans-Serif" font-size="10.00">arrays.h</text>
</a>
</g>
</g>
<!-- Node1&#45;&gt;Node3 -->
<g id="edge2" class="edge">
<title>Node1&#45;&gt;Node3</title>
<path fill="none" stroke="#63b8ff" d="M473.32,-275.96C471.45,-262.99 466.62,-238.53 455.38,-221 448.08,-209.63 437.06,-199.48 427.14,-191.74"/>
<polygon fill="#63b8ff" stroke="#63b8ff" points="429.59,-188.47 419.46,-185.35 425.44,-194.1 429.59,-188.47"/>
</g>
<!-- Node13 -->
<g id="node13" class="node">
<title>Node13</title>
<g id="a_node13"><a xlink:title=" ">
<polygon fill="#e0e0e0" stroke="#999999" points="336.25,-240.25 250.5,-240.25 250.5,-221 336.25,-221 336.25,-240.25"/>
<text text-anchor="middle" x="293.38" y="-226.75" font-family="Helvetica,sans-Serif" font-size="10.00">arrays/eh_vec.h</text>
</a>
</g>
</g>
<!-- Node1&#45;&gt;Node13 -->
<g id="edge17" class="edge">
<title>Node1&#45;&gt;Node13</title>
<path fill="none" stroke="#63b8ff" d="M443.67,-275.84C413.64,-267.01 367.7,-253.49 334.52,-243.73"/>
<polygon fill="#63b8ff" stroke="#63b8ff" points="335.81,-240.17 325.23,-240.7 333.84,-246.88 335.81,-240.17"/>
</g>
<!-- Node14 -->
<g id="node14" class="node">
<title>Node14</title>
<g id="a_node14"><a xlink:title=" ">
<polygon fill="#e0e0e0" stroke="#999999" points="446.25,-240.25 354.5,-240.25 354.5,-221 446.25,-221 446.25,-240.25"/>
<text text-anchor="middle" x="400.38" y="-226.75" font-family="Helvetica,sans-Serif" font-size="10.00">arrays/tensor3d.h</text>
</a>
</g>
</g>
<!-- Node1&#45;&gt;Node14 -->
<g id="edge18" class="edge">
<title>Node1&#45;&gt;Node14</title>
<path fill="none" stroke="#63b8ff" d="M461.82,-275.84C450.81,-267.91 434.56,-256.22 421.53,-246.85"/>
<polygon fill="#63b8ff" stroke="#63b8ff" points="423.9,-243.52 413.74,-240.52 419.82,-249.21 423.9,-243.52"/>
</g>
<!-- Node15 -->
<g id="node15" class="node">
<title>Node15</title>
<g id="a_node15"><a xlink:href="cell__coordinate_8h.html" target="_top" xlink:title="Container for {ijk} or {IJK} grouped variables.">
<polygon fill="white" stroke="#666666" points="144.12,-129.75 54.62,-129.75 54.62,-110.5 144.12,-110.5 144.12,-129.75"/>
<text text-anchor="middle" x="99.38" y="-116.25" font-family="Helvetica,sans-Serif" font-size="10.00">cell_coordinate.h</text>
</a>
</g>
</g>
<!-- Node1&#45;&gt;Node15 -->
<g id="edge19" class="edge">
<title>Node1&#45;&gt;Node15</title>
<path fill="none" stroke="#63b8ff" d="M423.92,-282.54C375.13,-278.63 300.15,-268.18 241.38,-240.25 187.84,-214.81 137.84,-164.32 113.99,-137.99"/>
<polygon fill="#63b8ff" stroke="#63b8ff" points="117.2,-136.2 107.94,-131.05 111.97,-140.85 117.2,-136.2"/>
</g>
<!-- Node17 -->
<g id="node17" class="node">
<title>Node17</title>
<g id="a_node17"><a xlink:href="dimensions_8h.html" target="_top" xlink:title="Defines a class that serves as an explicit converter between MATLAB pointers and array dimensions.">
<polygon fill="white" stroke="#666666" points="1111.25,-185 1037.5,-185 1037.5,-165.75 1111.25,-165.75 1111.25,-185"/>
<text text-anchor="middle" x="1074.38" y="-171.5" font-family="Helvetica,sans-Serif" font-size="10.00">dimensions.h</text>
</a>
</g>
</g>
<!-- Node1&#45;&gt;Node17 -->
<g id="edge22" class="edge">
<title>Node1&#45;&gt;Node17</title>
<path fill="none" stroke="#63b8ff" d="M524.96,-280.68C594.45,-274.44 723.13,-261.15 831.38,-240.25 903.89,-226.25 986.78,-202.83 1034.6,-188.57"/>
<polygon fill="#63b8ff" stroke="#63b8ff" points="1035.54,-191.64 1044.11,-185.42 1033.53,-184.94 1035.54,-191.64"/>
</g>
<!-- Node18 -->
<g id="node18" class="node">
<title>Node18</title>
<g id="a_node18"><a xlink:href="mat__io_8h.html" target="_top" xlink:title="Includes MATLAB headers for I/O.">
<polygon fill="white" stroke="#666666" points="1001.12,-74.5 947.62,-74.5 947.62,-55.25 1001.12,-55.25 1001.12,-74.5"/>
<text text-anchor="middle" x="974.38" y="-61" font-family="Helvetica,sans-Serif" font-size="10.00">mat_io.h</text>
</a>
</g>
</g>
<!-- Node1&#45;&gt;Node18 -->
<g id="edge34" class="edge">
<title>Node1&#45;&gt;Node18</title>
<path fill="none" stroke="#63b8ff" d="M525,-285.41C664.14,-285.67 1046.87,-277.79 1120.38,-185 1157.7,-137.88 1066.22,-97.03 1011.62,-77.73"/>
<polygon fill="#63b8ff" stroke="#63b8ff" points="1012.83,-74.1 1002.24,-74.16 1010.56,-80.72 1012.83,-74.1"/>
</g>
<!-- Node22 -->
<g id="node22" class="node">
<title>Node22</title>
<g id="a_node22"><a xlink:href="input__flags_8h.html" target="_top" xlink:title="Organises enumerated constants, names, and classes for handling flag&#45;variables that are passed to TDM...">
<polygon fill="white" stroke="#666666" points="548.12,-129.75 476.62,-129.75 476.62,-110.5 548.12,-110.5 548.12,-129.75"/>
<text text-anchor="middle" x="512.38" y="-116.25" font-family="Helvetica,sans-Serif" font-size="10.00">input_flags.h</text>
</a>
</g>
</g>
<!-- Node1&#45;&gt;Node22 -->
<g id="edge27" class="edge">
<title>Node1&#45;&gt;Node22</title>
<path fill="none" stroke="#63b8ff" d="M476.42,-276.07C482.35,-250.53 499.65,-175.95 507.9,-140.4"/>
<polygon fill="#63b8ff" stroke="#63b8ff" points="511.47,-141.5 510.32,-130.97 504.65,-139.92 511.47,-141.5"/>
</g>
<!-- Node23 -->
<g id="node23" class="node">
<title>Node23</title>
<g id="a_node23"><a xlink:href="simulation__parameters_8h.html" target="_top" xlink:title="Classes collecting parameters for the simulation.">
<polygon fill="white" stroke="#666666" points="822.62,-240.25 700.12,-240.25 700.12,-221 822.62,-221 822.62,-240.25"/>
<text text-anchor="middle" x="761.38" y="-226.75" font-family="Helvetica,sans-Serif" font-size="10.00">simulation_parameters.h</text>
</a>
</g>
</g>
<!-- Node1&#45;&gt;Node23 -->
<g id="edge35" class="edge">
<title>Node1&#45;&gt;Node23</title>
<path fill="none" stroke="#63b8ff" d="M523.39,-275.78C572.81,-266.61 649.16,-252.44 702,-242.64"/>
<polygon fill="#63b8ff" stroke="#63b8ff" points="702.37,-245.95 711.57,-240.68 701.1,-239.06 702.37,-245.95"/>
</g>
<!-- Node3&#45;&gt;Node2 -->
<g id="edge3" class="edge">
<title>Node3&#45;&gt;Node2</title>
<path fill="none" stroke="#63b8ff" d="M378.38,-174.7C304.54,-175.09 95.64,-172.32 45.38,-129.75 32.68,-119 28.25,-100.18 26.81,-85.75"/>
<polygon fill="#63b8ff" stroke="#63b8ff" points="30.26,-85.71 26.18,-75.93 23.27,-86.11 30.26,-85.71"/>
</g>
<!-- Node4 -->
<g id="node4" class="node">
<title>Node4</title>
<g id="a_node4"><a xlink:title=" ">
<polygon fill="#e0e0e0" stroke="#999999" points="541.75,-74.5 483,-74.5 483,-55.25 541.75,-55.25 541.75,-74.5"/>
<text text-anchor="middle" x="512.38" y="-61" font-family="Helvetica,sans-Serif" font-size="10.00">stdexcept</text>
</a>
</g>
</g>
<!-- Node3&#45;&gt;Node4 -->
<g id="edge4" class="edge">
<title>Node3&#45;&gt;Node4</title>
<path fill="none" stroke="#63b8ff" d="M384.6,-165.42C361.13,-153.55 327.09,-131.64 343.38,-110.5 347.39,-105.29 423.49,-86.67 472.19,-75.19"/>
<polygon fill="#63b8ff" stroke="#63b8ff" points="472.79,-78.41 481.72,-72.72 471.19,-71.59 472.79,-78.41"/>
</g>
<!-- Node5 -->
<g id="node5" class="node">
<title>Node5</title>
<g id="a_node5"><a xlink:title=" ">
<polygon fill="#e0e0e0" stroke="#999999" points="690.38,-74.5 650.38,-74.5 650.38,-55.25 690.38,-55.25 690.38,-74.5"/>
<text text-anchor="middle" x="670.38" y="-61" font-family="Helvetica,sans-Serif" font-size="10.00">string</text>
</a>
</g>
</g>
<!-- Node3&#45;&gt;Node5 -->
<g id="edge5" class="edge">
<title>Node3&#45;&gt;Node5</title>
<path fill="none" stroke="#63b8ff" d="M430.24,-170.6C464.91,-164.91 527.83,-152.3 577.38,-129.75 605.16,-117.1 633.58,-96.19 651.56,-81.75"/>
<polygon fill="#63b8ff" stroke="#63b8ff" points="653.44,-83.92 658.96,-74.87 649.01,-78.5 653.44,-83.92"/>
</g>
<!-- Node6 -->
<g id="node6" class="node">
<title>Node6</title>
<g id="a_node6"><a xlink:title=" ">
<polygon fill="#e0e0e0" stroke="#999999" points="602.88,-74.5 559.88,-74.5 559.88,-55.25 602.88,-55.25 602.88,-74.5"/>
<text text-anchor="middle" x="581.38" y="-61" font-family="Helvetica,sans-Serif" font-size="10.00">vector</text>
</a>
</g>
</g>
<!-- Node3&#45;&gt;Node6 -->
<g id="edge6" class="edge">
<title>Node3&#45;&gt;Node6</title>
<path fill="none" stroke="#63b8ff" d="M430.26,-173.67C463.74,-171.39 521.97,-162.58 557.38,-129.75 569.86,-118.17 575.89,-99.46 578.78,-85.27"/>
<polygon fill="#63b8ff" stroke="#63b8ff" points="582.36,-86.11 580.54,-75.67 575.45,-84.97 582.36,-86.11"/>
</g>
<!-- Node7 -->
<g id="node7" class="node">
<title>Node7</title>
<g id="a_node7"><a xlink:title=" ">
<polygon fill="#e0e0e0" stroke="#999999" points="458.38,-129.75 412.38,-129.75 412.38,-110.5 458.38,-110.5 458.38,-129.75"/>
<text text-anchor="middle" x="435.38" y="-116.25" font-family="Helvetica,sans-Serif" font-size="10.00">fftw3.h</text>
</a>
</g>
</g>
<!-- Node3&#45;&gt;Node7 -->
<g id="edge7" class="edge">
<title>Node3&#45;&gt;Node7</title>
<path fill="none" stroke="#63b8ff" d="M409.49,-165.58C413.6,-158.53 419.5,-148.4 424.63,-139.58"/>
<polygon fill="#63b8ff" stroke="#63b8ff" points="428.14,-141.51 430.14,-131.11 422.09,-137.99 428.14,-141.51"/>
</g>
<!-- Node8 -->
<g id="node8" class="node">
<title>Node8</title>
<g id="a_node8"><a xlink:href="globals_8h.html" target="_top" xlink:title="Type definitions and global constants.">
<polygon fill="white" stroke="#666666" points="216.88,-129.75 161.88,-129.75 161.88,-110.5 216.88,-110.5 216.88,-129.75"/>
<text text-anchor="middle" x="189.38" y="-116.25" font-family="Helvetica,sans-Serif" font-size="10.00">globals.h</text>
</a>
</g>
</g>
<!-- Node3&#45;&gt;Node8 -->
<g id="edge8" class="edge">
<title>Node3&#45;&gt;Node8</title>
<path fill="none" stroke="#63b8ff" d="M378.44,-167.95C340.86,-158.64 271.02,-141.35 227.55,-130.58"/>
<polygon fill="#63b8ff" stroke="#63b8ff" points="228.65,-127 218.1,-127.99 226.97,-133.79 228.65,-127"/>
</g>
<!-- Node9 -->
<g id="node9" class="node">
<title>Node9</title>
<g id="a_node9"><a xlink:title=" ">
<polygon fill="#e0e0e0" stroke="#999999" points="295.88,-129.75 234.88,-129.75 234.88,-110.5 295.88,-110.5 295.88,-129.75"/>
<text text-anchor="middle" x="265.38" y="-116.25" font-family="Helvetica,sans-Serif" font-size="10.00">matlabio.h</text>
</a>
</g>
</g>
<!-- Node3&#45;&gt;Node9 -->
<g id="edge11" class="edge">
<title>Node3&#45;&gt;Node9</title>
<path fill="none" stroke="#63b8ff" d="M380.8,-165.34C358.43,-156.77 324.58,-143.81 299.31,-134.13"/>
<polygon fill="#63b8ff" stroke="#63b8ff" points="300.66,-130.51 290.07,-130.2 298.16,-137.05 300.66,-130.51"/>
</g>
<!-- Node10 -->
<g id="node10" class="node">
<title>Node10</title>
<g id="a_node10"><a xlink:href="utils_8h.html" target="_top" xlink:title="Useful miscellaneous utility functions.">
<polygon fill="white" stroke="#666666" points="394.5,-129.75 352.25,-129.75 352.25,-110.5 394.5,-110.5 394.5,-129.75"/>
<text text-anchor="middle" x="373.38" y="-116.25" font-family="Helvetica,sans-Serif" font-size="10.00">utils.h</text>
</a>
</g>
</g>
<!-- Node3&#45;&gt;Node10 -->
<g id="edge12" class="edge">
<title>Node3&#45;&gt;Node10</title>
<path fill="none" stroke="#63b8ff" d="M399.26,-165.58C395.15,-158.53 389.25,-148.4 384.12,-139.58"/>
<polygon fill="#63b8ff" stroke="#63b8ff" points="386.66,-137.99 378.61,-131.11 380.61,-141.51 386.66,-137.99"/>
</g>
<!-- Node8&#45;&gt;Node2 -->
<g id="edge9" class="edge">
<title>Node8&#45;&gt;Node2</title>
<path fill="none" stroke="#63b8ff" d="M161.72,-110.09C134.71,-101.27 93.39,-87.77 63.52,-78.01"/>
<polygon fill="#63b8ff" stroke="#63b8ff" points="64.67,-74.38 54.08,-74.6 62.5,-81.03 64.67,-74.38"/>
</g>
<!-- Node8&#45;&gt;Node5 -->
<g id="edge10" class="edge">
<title>Node8&#45;&gt;Node5</title>
<path fill="none" stroke="#63b8ff" d="M217.2,-112.04C219.95,-111.47 222.71,-110.94 225.38,-110.5 395.8,-82.3 440.88,-95.21 612.38,-74.5 621.09,-73.45 630.51,-72.13 639.18,-70.84"/>
<polygon fill="#63b8ff" stroke="#63b8ff" points="639.65,-74.15 649.01,-69.18 638.6,-67.23 639.65,-74.15"/>
</g>
<!-- Node10&#45;&gt;Node5 -->
<g id="edge15" class="edge">
<title>Node10&#45;&gt;Node5</title>
<path fill="none" stroke="#63b8ff" d="M394.93,-112.61C397.76,-111.85 400.63,-111.12 403.38,-110.5 447.94,-100.4 578.87,-79.9 639.24,-70.62"/>
<polygon fill="#63b8ff" stroke="#63b8ff" points="639.63,-73.95 648.99,-68.97 638.57,-67.03 639.63,-73.95"/>
</g>
<!-- Node10&#45;&gt;Node6 -->
<g id="edge16" class="edge">
<title>Node10&#45;&gt;Node6</title>
<path fill="none" stroke="#63b8ff" d="M394.98,-112.8C397.8,-112.01 400.65,-111.22 403.38,-110.5 465.2,-94.05 483.53,-91.72 548.93,-74.81"/>
<polygon fill="#63b8ff" stroke="#63b8ff" points="549.59,-77.99 558.38,-72.09 547.82,-71.22 549.59,-77.99"/>
</g>
<!-- Node11 -->
<g id="node11" class="node">
<title>Node11</title>
<g id="a_node11"><a xlink:title=" ">
<polygon fill="#e0e0e0" stroke="#999999" points="298.25,-74.5 242.5,-74.5 242.5,-55.25 298.25,-55.25 298.25,-74.5"/>
<text text-anchor="middle" x="270.38" y="-61" font-family="Helvetica,sans-Serif" font-size="10.00">algorithm</text>
</a>
</g>
</g>
<!-- Node10&#45;&gt;Node11 -->
<g id="edge13" class="edge">
<title>Node10&#45;&gt;Node11</title>
<path fill="none" stroke="#63b8ff" d="M355.9,-110.09C339.92,-101.83 316.03,-89.48 297.55,-79.93"/>
<polygon fill="#63b8ff" stroke="#63b8ff" points="299.42,-76.44 288.93,-74.95 296.21,-82.65 299.42,-76.44"/>
</g>
<!-- Node12 -->
<g id="node12" class="node">
<title>Node12</title>
<g id="a_node12"><a xlink:title=" ">
<polygon fill="#e0e0e0" stroke="#999999" points="362.38,-74.5 316.38,-74.5 316.38,-55.25 362.38,-55.25 362.38,-74.5"/>
<text text-anchor="middle" x="339.38" y="-61" font-family="Helvetica,sans-Serif" font-size="10.00">iterator</text>
</a>
</g>
</g>
<!-- Node10&#45;&gt;Node12 -->
<g id="edge14" class="edge">
<title>Node10&#45;&gt;Node12</title>
<path fill="none" stroke="#63b8ff" d="M367.76,-110.33C363.21,-103.21 356.65,-92.93 350.98,-84.05"/>
<polygon fill="#63b8ff" stroke="#63b8ff" points="353.44,-82.4 345.11,-75.86 347.54,-86.17 353.44,-82.4"/>
</g>
<!-- Node15&#45;&gt;Node11 -->
<g id="edge21" class="edge">
<title>Node15&#45;&gt;Node11</title>
<path fill="none" stroke="#63b8ff" d="M128.38,-110.09C156.89,-101.21 200.57,-87.61 231.95,-77.84"/>
<polygon fill="#63b8ff" stroke="#63b8ff" points="232.57,-81 241.08,-74.69 230.49,-74.32 232.57,-81"/>
</g>
<!-- Node16 -->
<g id="node16" class="node">
<title>Node16</title>
<g id="a_node16"><a xlink:title=" ">
<polygon fill="#e0e0e0" stroke="#999999" points="464.5,-74.5 380.25,-74.5 380.25,-55.25 464.5,-55.25 464.5,-74.5"/>
<text text-anchor="middle" x="422.38" y="-61" font-family="Helvetica,sans-Serif" font-size="10.00">spdlog/spdlog.h</text>
</a>
</g>
</g>
<!-- Node15&#45;&gt;Node16 -->
<g id="edge20" class="edge">
<title>Node15&#45;&gt;Node16</title>
<path fill="none" stroke="#63b8ff" d="M144.46,-111.76C205.82,-101.72 313.54,-84.09 369.09,-74.87"/>
<polygon fill="#63b8ff" stroke="#63b8ff" points="369.51,-78.18 378.8,-73.09 368.36,-71.28 369.51,-78.18"/>
</g>
<!-- Node17&#45;&gt;Node18 -->
<g id="edge23" class="edge">
<title>Node17&#45;&gt;Node18</title>
<path fill="none" stroke="#63b8ff" d="M1066.19,-165.5C1049.56,-147.46 1011.58,-106.25 990.04,-82.88"/>
<polygon fill="#63b8ff" stroke="#63b8ff" points="993.02,-80.86 983.67,-75.88 987.88,-85.6 993.02,-80.86"/>
</g>
<!-- Node19 -->
<g id="node19" class="node">
<title>Node19</title>
<g id="a_node19"><a xlink:title=" ">
<polygon fill="#e0e0e0" stroke="#999999" points="930.75,-19.25 890,-19.25 890,0 930.75,0 930.75,-19.25"/>
<text text-anchor="middle" x="910.38" y="-5.75" font-family="Helvetica,sans-Serif" font-size="10.00">mat.h</text>
</a>
</g>
</g>
<!-- Node18&#45;&gt;Node19 -->
<g id="edge24" class="edge">
<title>Node18&#45;&gt;Node19</title>
<path fill="none" stroke="#63b8ff" d="M963.52,-54.84C954.18,-47.07 940.48,-35.67 929.33,-26.4"/>
<polygon fill="#63b8ff" stroke="#63b8ff" points="932,-23.23 922.07,-19.52 927.52,-28.61 932,-23.23"/>
</g>
<!-- Node20 -->
<g id="node20" class="node">
<title>Node20</title>
<g id="a_node20"><a xlink:title=" ">
<polygon fill="#e0e0e0" stroke="#999999" points="1000,-19.25 948.75,-19.25 948.75,0 1000,0 1000,-19.25"/>
<text text-anchor="middle" x="974.38" y="-5.75" font-family="Helvetica,sans-Serif" font-size="10.00">matrix.h</text>
</a>
</g>
</g>
<!-- Node18&#45;&gt;Node20 -->
<g id="edge25" class="edge">
<title>Node18&#45;&gt;Node20</title>
<path fill="none" stroke="#63b8ff" d="M974.38,-55.08C974.38,-48.42 974.38,-38.99 974.38,-30.53"/>
<polygon fill="#63b8ff" stroke="#63b8ff" points="977.88,-30.61 974.38,-20.61 970.88,-30.61 977.88,-30.61"/>
</g>
<!-- Node21 -->
<g id="node21" class="node">
<title>Node21</title>
<g id="a_node21"><a xlink:title=" ">
<polygon fill="#e0e0e0" stroke="#999999" points="1060.88,-19.25 1017.88,-19.25 1017.88,0 1060.88,0 1060.88,-19.25"/>
<text text-anchor="middle" x="1039.38" y="-5.75" font-family="Helvetica,sans-Serif" font-size="10.00">mex.h</text>
</a>
</g>
</g>
<!-- Node18&#45;&gt;Node21 -->
<g id="edge26" class="edge">
<title>Node18&#45;&gt;Node21</title>
<path fill="none" stroke="#63b8ff" d="M985.4,-54.84C994.89,-47.07 1008.8,-35.67 1020.12,-26.4"/>
<polygon fill="#63b8ff" stroke="#63b8ff" points="1021.99,-28.57 1027.51,-19.52 1017.56,-23.15 1021.99,-28.57"/>
</g>
<!-- Node22&#45;&gt;Node4 -->
<g id="edge29" class="edge">
<title>Node22&#45;&gt;Node4</title>
<path fill="none" stroke="#63b8ff" d="M512.38,-110.33C512.38,-103.67 512.38,-94.24 512.38,-85.78"/>
<polygon fill="#63b8ff" stroke="#63b8ff" points="515.88,-85.86 512.38,-75.86 508.88,-85.86 515.88,-85.86"/>
</g>
<!-- Node22&#45;&gt;Node5 -->
<g id="edge30" class="edge">
<title>Node22&#45;&gt;Node5</title>
<path fill="none" stroke="#63b8ff" d="M539.18,-110.09C567.09,-100.68 610.75,-85.97 639.94,-76.13"/>
<polygon fill="#63b8ff" stroke="#63b8ff" points="640.63,-79.26 648.99,-72.75 638.39,-72.62 640.63,-79.26"/>
</g>
<!-- Node22&#45;&gt;Node6 -->
<g id="edge31" class="edge">
<title>Node22&#45;&gt;Node6</title>
<path fill="none" stroke="#63b8ff" d="M524.08,-110.09C534.25,-102.24 549.21,-90.7 561.29,-81.37"/>
<polygon fill="#63b8ff" stroke="#63b8ff" points="563.06,-83.66 568.84,-74.77 558.79,-78.11 563.06,-83.66"/>
</g>
<!-- Node22&#45;&gt;Node11 -->
<g id="edge28" class="edge">
<title>Node22&#45;&gt;Node11</title>
<path fill="none" stroke="#63b8ff" d="M476.42,-111.47C437.54,-103.15 373.46,-89.33 308.99,-74.84"/>
<polygon fill="#63b8ff" stroke="#63b8ff" points="310.17,-71.29 299.65,-72.51 308.63,-78.12 310.17,-71.29"/>
</g>
<!-- Node22&#45;&gt;Node16 -->
<g id="edge32" class="edge">
<title>Node22&#45;&gt;Node16</title>
<path fill="none" stroke="#63b8ff" d="M497.11,-110.09C483.4,-101.98 463.04,-89.93 447.03,-80.46"/>
<polygon fill="#63b8ff" stroke="#63b8ff" points="449.11,-77.03 438.72,-74.95 445.54,-83.06 449.11,-77.03"/>
</g>
<!-- Node22&#45;&gt;Node18 -->
<g id="edge33" class="edge">
<title>Node22&#45;&gt;Node18</title>
<path fill="none" stroke="#63b8ff" d="M548.24,-114.99C633.75,-105.14 848.97,-80.33 936.48,-70.24"/>
<polygon fill="#63b8ff" stroke="#63b8ff" points="936.7,-73.63 946.23,-69 935.9,-66.67 936.7,-73.63"/>
</g>
<!-- Node23&#45;&gt;Node3 -->
<g id="edge37" class="edge">
<title>Node23&#45;&gt;Node3</title>
<path fill="none" stroke="#63b8ff" d="M700.41,-220.53C625.79,-209.4 501.85,-190.91 440.73,-181.8"/>
<polygon fill="#63b8ff" stroke="#63b8ff" points="441.49,-178.22 431.08,-180.21 440.45,-185.15 441.49,-178.22"/>
</g>
<!-- Node23&#45;&gt;Node5 -->
<g id="edge36" class="edge">
<title>Node23&#45;&gt;Node5</title>
<path fill="none" stroke="#63b8ff" d="M764.58,-220.68C771.52,-199.59 785.63,-145.86 763.38,-110.5 749.81,-88.95 722.62,-77.57 701.12,-71.71"/>
<polygon fill="#63b8ff" stroke="#63b8ff" points="702.05,-68.09 691.5,-69.13 700.39,-74.89 702.05,-68.09"/>
</g>
<!-- Node24 -->
<g id="node24" class="node">
<title>Node24</title>
<g id="a_node24"><a xlink:title=" ">
<polygon fill="#e0e0e0" stroke="#999999" points="1019.38,-185 895.38,-185 895.38,-165.75 1019.38,-165.75 1019.38,-185"/>
<text text-anchor="middle" x="957.38" y="-171.5" font-family="Helvetica,sans-Serif" font-size="10.00">arrays/vector_typedefs.h</text>
</a>
</g>
</g>
<!-- Node23&#45;&gt;Node24 -->
<g id="edge38" class="edge">
<title>Node23&#45;&gt;Node24</title>
<path fill="none" stroke="#63b8ff" d="M794.62,-220.59C827.43,-211.68 877.75,-198.01 913.75,-188.23"/>
<polygon fill="#63b8ff" stroke="#63b8ff" points="914.23,-191.45 922.96,-185.45 912.4,-184.7 914.23,-191.45"/>
</g>
<!-- Node25 -->
<g id="node25" class="node">
<title>Node25</title>
<g id="a_node25"><a xlink:href="input__matrices_8h.html" target="_top" xlink:title="Class handling the input matrices that are read in from the input file.">
<polygon fill="white" stroke="#666666" points="877.38,-185 789.38,-185 789.38,-165.75 877.38,-165.75 877.38,-185"/>
<text text-anchor="middle" x="833.38" y="-171.5" font-family="Helvetica,sans-Serif" font-size="10.00">input_matrices.h</text>
</a>
</g>
</g>
<!-- Node23&#45;&gt;Node25 -->
<g id="edge39" class="edge">
<title>Node23&#45;&gt;Node25</title>
<path fill="none" stroke="#63b8ff" d="M773.59,-220.59C784.31,-212.66 800.12,-200.97 812.79,-191.6"/>
<polygon fill="#63b8ff" stroke="#63b8ff" points="814.38,-194.04 820.34,-185.27 810.22,-188.41 814.38,-194.04"/>
</g>
<!-- Node25&#45;&gt;Node5 -->
<g id="edge40" class="edge">
<title>Node25&#45;&gt;Node5</title>
<path fill="none" stroke="#63b8ff" d="M863.32,-165.29C894.77,-154.25 937.11,-134.12 917.38,-110.5 890.14,-77.91 761.16,-69.08 701.18,-66.72"/>
<polygon fill="#63b8ff" stroke="#63b8ff" points="701.61,-63.19 691.49,-66.34 701.36,-70.19 701.61,-63.19"/>
</g>
<!-- Node25&#45;&gt;Node18 -->
<g id="edge44" class="edge">
<title>Node25&#45;&gt;Node18</title>
<path fill="none" stroke="#63b8ff" d="M877.73,-166.71C901.95,-160.46 930.9,-149.32 950.38,-129.75 962.26,-117.81 968.34,-99.43 971.41,-85.44"/>
<polygon fill="#63b8ff" stroke="#63b8ff" points="974.97,-86.44 973.33,-75.97 968.08,-85.17 974.97,-86.44"/>
</g>
<!-- Node26 -->
<g id="node26" class="node">
<title>Node26</title>
<g id="a_node26"><a xlink:href="input__output__names_8h.html" target="_top" xlink:title="Constant values associated with the format of the input and output files and matrices.">
<polygon fill="white" stroke="#666666" points="754.38,-129.75 642.38,-129.75 642.38,-110.5 754.38,-110.5 754.38,-129.75"/>
<text text-anchor="middle" x="698.38" y="-116.25" font-family="Helvetica,sans-Serif" font-size="10.00">input_output_names.h</text>
</a>
</g>
</g>
<!-- Node25&#45;&gt;Node26 -->
<g id="edge41" class="edge">
<title>Node25&#45;&gt;Node26</title>
<path fill="none" stroke="#63b8ff" d="M810.47,-165.34C788.75,-156.77 755.88,-143.81 731.34,-134.13"/>
<polygon fill="#63b8ff" stroke="#63b8ff" points="732.98,-130.62 722.39,-130.2 730.41,-137.13 732.98,-130.62"/>
</g>
<!-- Node27 -->
<g id="node27" class="node">
<title>Node27</title>
<g id="a_node27"><a xlink:href="matrix__collection_8h.html" target="_top" xlink:title="A collection of named MATLAB matrices.">
<polygon fill="white" stroke="#666666" points="908.25,-129.75 810.5,-129.75 810.5,-110.5 908.25,-110.5 908.25,-129.75"/>
<text text-anchor="middle" x="859.38" y="-116.25" font-family="Helvetica,sans-Serif" font-size="10.00">matrix_collection.h</text>
</a>
</g>
</g>
<!-- Node25&#45;&gt;Node27 -->
<g id="edge45" class="edge">
<title>Node25&#45;&gt;Node27</title>
<path fill="none" stroke="#63b8ff" d="M837.67,-165.58C841.07,-158.61 845.95,-148.62 850.22,-139.87"/>
<polygon fill="#63b8ff" stroke="#63b8ff" points="853.75,-141.63 854.99,-131.11 847.46,-138.56 853.75,-141.63"/>
</g>
<!-- Node26&#45;&gt;Node5 -->
<g id="edge42" class="edge">
<title>Node26&#45;&gt;Node5</title>
<path fill="none" stroke="#63b8ff" d="M693.75,-110.33C690.04,-103.28 684.72,-93.15 680.08,-84.33"/>
<polygon fill="#63b8ff" stroke="#63b8ff" points="682.85,-83.08 675.1,-75.86 676.66,-86.34 682.85,-83.08"/>
</g>
<!-- Node26&#45;&gt;Node6 -->
<g id="edge43" class="edge">
<title>Node26&#45;&gt;Node6</title>
<path fill="none" stroke="#63b8ff" d="M678.53,-110.09C660.04,-101.68 632.22,-89.02 611.09,-79.4"/>
<polygon fill="#63b8ff" stroke="#63b8ff" points="612.87,-75.91 602.32,-74.95 609.97,-82.28 612.87,-75.91"/>
</g>
<!-- Node27&#45;&gt;Node5 -->
<g id="edge46" class="edge">
<title>Node27&#45;&gt;Node5</title>
<path fill="none" stroke="#63b8ff" d="M827.31,-110.09C792.06,-100.16 735.81,-84.31 701.1,-74.53"/>
<polygon fill="#63b8ff" stroke="#63b8ff" points="702.21,-70.93 691.64,-71.58 700.31,-77.66 702.21,-70.93"/>
</g>
<!-- Node27&#45;&gt;Node6 -->
<g id="edge47" class="edge">
<title>Node27&#45;&gt;Node6</title>
<path fill="none" stroke="#63b8ff" d="M811.9,-110.03C755.36,-99.2 662.45,-81.4 613.63,-72.05"/>
<polygon fill="#63b8ff" stroke="#63b8ff" points="614.55,-68.47 604.07,-70.03 613.23,-75.35 614.55,-68.47"/>
</g>
<!-- Node27&#45;&gt;Node18 -->
<g id="edge48" class="edge">
<title>Node27&#45;&gt;Node18</title>
<path fill="none" stroke="#63b8ff" d="M878.88,-110.09C896.97,-101.72 924.15,-89.13 944.89,-79.53"/>
<polygon fill="#63b8ff" stroke="#63b8ff" points="946.17,-82.33 953.77,-74.95 943.23,-75.98 946.17,-82.33"/>
</g>
</g>
</svg>
