<?xml version="1.0" encoding="UTF-8" standalone="no"?>
<!DOCTYPE svg PUBLIC "-//W3C//DTD SVG 1.1//EN"
 "http://www.w3.org/Graphics/SVG/1.1/DTD/svg11.dtd">
<!-- Generated by graphviz version 8.0.5 (20230430.1635)
 -->
<!-- Title: tdms/include/fieldsample.h Pages: 1 -->
<svg width="943pt" height="359pt"
 viewBox="0.00 0.00 942.72 358.75" xmlns="http://www.w3.org/2000/svg" xmlns:xlink="http://www.w3.org/1999/xlink">
<g id="graph0" class="graph" transform="scale(1 1) rotate(0) translate(4 354.75)">
<title>tdms/include/fieldsample.h</title>
<!-- Node1 -->
<g id="node1" class="node">
<title>Node1</title>
<g id="a_node1"><a xlink:title="Class that stores the extracted field values at user&#45;defined vertices.">
<polygon fill="#999999" stroke="#666666" points="402.54,-350.75 270.29,-350.75 270.29,-331.5 402.54,-331.5 402.54,-350.75"/>
<text text-anchor="middle" x="336.41" y="-337.25" font-family="Helvetica,sans-Serif" font-size="10.00">tdms/include/fieldsample.h</text>
</a>
</g>
</g>
<!-- Node2 -->
<g id="node2" class="node">
<title>Node2</title>
<g id="a_node2"><a xlink:href="arrays_8h.html" target="_top" xlink:title="Classes describing arrays, vertices etc.">
<polygon fill="white" stroke="#666666" points="414.04,-185 362.79,-185 362.79,-165.75 414.04,-165.75 414.04,-185"/>
<text text-anchor="middle" x="388.41" y="-171.5" font-family="Helvetica,sans-Serif" font-size="10.00">arrays.h</text>
</a>
</g>
</g>
<!-- Node1&#45;&gt;Node2 -->
<g id="edge1" class="edge">
<title>Node1&#45;&gt;Node2</title>
<path fill="none" stroke="#63b8ff" d="M336.42,-331.06C336.72,-310.6 339.2,-259.62 355.41,-221 359.54,-211.17 366.27,-201.49 372.58,-193.68"/>
<polygon fill="#63b8ff" stroke="#63b8ff" points="375.76,-196.34 379.61,-186.47 370.45,-191.79 375.76,-196.34"/>
</g>
<!-- Node10 -->
<g id="node10" class="node">
<title>Node10</title>
<g id="a_node10"><a xlink:href="field_8h.html" target="_top" xlink:title="Classes for the electric and magnetic (split) fields on a grid.">
<polygon fill="white" stroke="#666666" points="242.54,-295.5 200.29,-295.5 200.29,-276.25 242.54,-276.25 242.54,-295.5"/>
<text text-anchor="middle" x="221.41" y="-282" font-family="Helvetica,sans-Serif" font-size="10.00">field.h</text>
</a>
</g>
</g>
<!-- Node1&#45;&gt;Node10 -->
<g id="edge11" class="edge">
<title>Node1&#45;&gt;Node10</title>
<path fill="none" stroke="#63b8ff" d="M316.9,-331.09C298.81,-322.72 271.64,-310.13 250.9,-300.53"/>
<polygon fill="#63b8ff" stroke="#63b8ff" points="252.56,-296.98 242.02,-295.95 249.62,-303.33 252.56,-296.98"/>
</g>
<!-- Node19 -->
<g id="node19" class="node">
<title>Node19</title>
<g id="a_node19"><a xlink:href="simulation__parameters_8h.html" target="_top" xlink:title="Classes collecting parameters for the simulation.">
<polygon fill="white" stroke="#666666" points="486.66,-240.25 364.16,-240.25 364.16,-221 486.66,-221 486.66,-240.25"/>
<text text-anchor="middle" x="425.41" y="-226.75" font-family="Helvetica,sans-Serif" font-size="10.00">simulation_parameters.h</text>
</a>
</g>
</g>
<!-- Node1&#45;&gt;Node19 -->
<g id="edge37" class="edge">
<title>Node1&#45;&gt;Node19</title>
<path fill="none" stroke="#63b8ff" d="M343.7,-331.25C358.43,-313.28 392,-272.36 411.21,-248.94"/>
<polygon fill="#63b8ff" stroke="#63b8ff" points="414.39,-251.58 418.03,-241.63 408.98,-247.14 414.39,-251.58"/>
</g>
<!-- Node3 -->
<g id="node3" class="node">
<title>Node3</title>
<g id="a_node3"><a xlink:title=" ">
<polygon fill="#e0e0e0" stroke="#999999" points="115.79,-74.5 63.04,-74.5 63.04,-55.25 115.79,-55.25 115.79,-74.5"/>
<text text-anchor="middle" x="89.41" y="-61" font-family="Helvetica,sans-Serif" font-size="10.00">complex</text>
</a>
</g>
</g>
<!-- Node2&#45;&gt;Node3 -->
<g id="edge2" class="edge">
<title>Node2&#45;&gt;Node3</title>
<path fill="none" stroke="#63b8ff" d="M363.43,-165.31C310.34,-146.04 186.12,-100.97 124.86,-78.74"/>
<polygon fill="#63b8ff" stroke="#63b8ff" points="126.12,-75.11 115.53,-74.99 123.74,-81.69 126.12,-75.11"/>
</g>
<!-- Node4 -->
<g id="node4" class="node">
<title>Node4</title>
<g id="a_node4"><a xlink:title=" ">
<polygon fill="#e0e0e0" stroke="#999999" points="457.79,-129.75 399.04,-129.75 399.04,-110.5 457.79,-110.5 457.79,-129.75"/>
<text text-anchor="middle" x="428.41" y="-116.25" font-family="Helvetica,sans-Serif" font-size="10.00">stdexcept</text>
</a>
</g>
</g>
<!-- Node2&#45;&gt;Node4 -->
<g id="edge3" class="edge">
<title>Node2&#45;&gt;Node4</title>
<path fill="none" stroke="#63b8ff" d="M395.02,-165.58C400.49,-158.3 408.43,-147.73 415.19,-138.73"/>
<polygon fill="#63b8ff" stroke="#63b8ff" points="418.46,-141.21 421.66,-131.11 412.86,-137 418.46,-141.21"/>
</g>
<!-- Node5 -->
<g id="node5" class="node">
<title>Node5</title>
<g id="a_node5"><a xlink:title=" ">
<polygon fill="#e0e0e0" stroke="#999999" points="825.41,-74.5 785.41,-74.5 785.41,-55.25 825.41,-55.25 825.41,-74.5"/>
<text text-anchor="middle" x="805.41" y="-61" font-family="Helvetica,sans-Serif" font-size="10.00">string</text>
</a>
</g>
</g>
<!-- Node2&#45;&gt;Node5 -->
<g id="edge4" class="edge">
<title>Node2&#45;&gt;Node5</title>
<path fill="none" stroke="#63b8ff" d="M414.38,-173.36C486.27,-170.22 686.35,-158.99 744.41,-129.75 765.31,-119.23 782.97,-98.56 793.82,-83.57"/>
<polygon fill="#63b8ff" stroke="#63b8ff" points="797.14,-85.93 799.94,-75.71 791.38,-81.95 797.14,-85.93"/>
</g>
<!-- Node6 -->
<g id="node6" class="node">
<title>Node6</title>
<g id="a_node6"><a xlink:title=" ">
<polygon fill="#e0e0e0" stroke="#999999" points="521.41,-129.75 475.41,-129.75 475.41,-110.5 521.41,-110.5 521.41,-129.75"/>
<text text-anchor="middle" x="498.41" y="-116.25" font-family="Helvetica,sans-Serif" font-size="10.00">fftw3.h</text>
</a>
</g>
</g>
<!-- Node2&#45;&gt;Node6 -->
<g id="edge5" class="edge">
<title>Node2&#45;&gt;Node6</title>
<path fill="none" stroke="#63b8ff" d="M407.07,-165.34C424.3,-157 450.13,-144.5 469.93,-134.91"/>
<polygon fill="#63b8ff" stroke="#63b8ff" points="471.19,-137.71 478.66,-130.2 468.14,-131.41 471.19,-137.71"/>
</g>
<!-- Node7 -->
<g id="node7" class="node">
<title>Node7</title>
<g id="a_node7"><a xlink:href="globals_8h.html" target="_top" xlink:title="Type definitions and global constants.">
<polygon fill="white" stroke="#666666" points="116.91,-129.75 61.91,-129.75 61.91,-110.5 116.91,-110.5 116.91,-129.75"/>
<text text-anchor="middle" x="89.41" y="-116.25" font-family="Helvetica,sans-Serif" font-size="10.00">globals.h</text>
</a>
</g>
</g>
<!-- Node2&#45;&gt;Node7 -->
<g id="edge6" class="edge">
<title>Node2&#45;&gt;Node7</title>
<path fill="none" stroke="#63b8ff" d="M362.4,-169.74C309.59,-160.34 189.59,-138.97 127.79,-127.96"/>
<polygon fill="#63b8ff" stroke="#63b8ff" points="128.77,-124.4 118.31,-126.09 127.54,-131.29 128.77,-124.4"/>
</g>
<!-- Node8 -->
<g id="node8" class="node">
<title>Node8</title>
<g id="a_node8"><a xlink:title=" ">
<polygon fill="#e0e0e0" stroke="#999999" points="380.91,-129.75 319.91,-129.75 319.91,-110.5 380.91,-110.5 380.91,-129.75"/>
<text text-anchor="middle" x="350.41" y="-116.25" font-family="Helvetica,sans-Serif" font-size="10.00">matlabio.h</text>
</a>
</g>
</g>
<!-- Node2&#45;&gt;Node8 -->
<g id="edge8" class="edge">
<title>Node2&#45;&gt;Node8</title>
<path fill="none" stroke="#63b8ff" d="M382.14,-165.58C377,-158.38 369.56,-147.96 363.18,-139.01"/>
<polygon fill="#63b8ff" stroke="#63b8ff" points="365.48,-137.22 356.82,-131.11 359.78,-141.28 365.48,-137.22"/>
</g>
<!-- Node9 -->
<g id="node9" class="node">
<title>Node9</title>
<g id="a_node9"><a xlink:href="utils_8h.html" target="_top" xlink:title="Useful miscellaneous utility functions.">
<polygon fill="white" stroke="#666666" points="735.54,-129.75 693.29,-129.75 693.29,-110.5 735.54,-110.5 735.54,-129.75"/>
<text text-anchor="middle" x="714.41" y="-116.25" font-family="Helvetica,sans-Serif" font-size="10.00">utils.h</text>
</a>
</g>
</g>
<!-- Node2&#45;&gt;Node9 -->
<g id="edge9" class="edge">
<title>Node2&#45;&gt;Node9</title>
<path fill="none" stroke="#63b8ff" d="M414.36,-171.62C464.38,-166.05 577.79,-152.25 682.15,-130"/>
<polygon fill="#63b8ff" stroke="#63b8ff" points="682.84,-133.22 691.87,-127.68 681.35,-126.38 682.84,-133.22"/>
</g>
<!-- Node7&#45;&gt;Node3 -->
<g id="edge7" class="edge">
<title>Node7&#45;&gt;Node3</title>
<path fill="none" stroke="#63b8ff" d="M89.41,-110.33C89.41,-103.67 89.41,-94.24 89.41,-85.78"/>
<polygon fill="#63b8ff" stroke="#63b8ff" points="92.91,-85.86 89.41,-75.86 85.91,-85.86 92.91,-85.86"/>
</g>
<!-- Node9&#45;&gt;Node5 -->
<g id="edge10" class="edge">
<title>Node9&#45;&gt;Node5</title>
<path fill="none" stroke="#63b8ff" d="M729.85,-110.09C743.71,-101.98 764.3,-89.93 780.49,-80.46"/>
<polygon fill="#63b8ff" stroke="#63b8ff" points="782.04,-83.02 788.9,-74.95 778.5,-76.98 782.04,-83.02"/>
</g>
<!-- Node10&#45;&gt;Node2 -->
<g id="edge13" class="edge">
<title>Node10&#45;&gt;Node2</title>
<path fill="none" stroke="#63b8ff" d="M235.36,-275.81C264.17,-257.1 330.46,-214.03 365.59,-191.2"/>
<polygon fill="#63b8ff" stroke="#63b8ff" points="367.14,-193.72 373.62,-185.34 363.33,-187.85 367.14,-193.72"/>
</g>
<!-- Node10&#45;&gt;Node3 -->
<g id="edge12" class="edge">
<title>Node10&#45;&gt;Node3</title>
<path fill="none" stroke="#63b8ff" d="M200.02,-283.34C152.42,-279.45 39.95,-267.52 15.41,-240.25 -6.81,-215.56 -1.37,-197.17 9.41,-165.75 21.23,-131.34 50.66,-100.08 70.34,-82.03"/>
<polygon fill="#63b8ff" stroke="#63b8ff" points="72.2,-85.17 77.35,-75.91 67.55,-79.94 72.2,-85.17"/>
</g>
<!-- Node10&#45;&gt;Node7 -->
<g id="edge22" class="edge">
<title>Node10&#45;&gt;Node7</title>
<path fill="none" stroke="#63b8ff" d="M199.92,-282.54C155.94,-277.32 57.82,-263.33 34.41,-240.25 10.42,-216.59 4.31,-195.34 20.41,-165.75 27.8,-152.17 41.3,-142.09 54.41,-134.98"/>
<polygon fill="#63b8ff" stroke="#63b8ff" points="55.84,-137.68 63.26,-130.11 52.74,-131.41 55.84,-137.68"/>
</g>
<!-- Node11 -->
<g id="node11" class="node">
<title>Node11</title>
<g id="a_node11"><a xlink:href="cell__coordinate_8h.html" target="_top" xlink:title="Container for {ijk} or {IJK} grouped variables.">
<polygon fill="white" stroke="#666666" points="133.16,-240.25 43.66,-240.25 43.66,-221 133.16,-221 133.16,-240.25"/>
<text text-anchor="middle" x="88.41" y="-226.75" font-family="Helvetica,sans-Serif" font-size="10.00">cell_coordinate.h</text>
</a>
</g>
</g>
<!-- Node10&#45;&gt;Node11 -->
<g id="edge14" class="edge">
<title>Node10&#45;&gt;Node11</title>
<path fill="none" stroke="#63b8ff" d="M200.04,-276.32C178.71,-267.78 145.65,-254.54 121.04,-244.69"/>
<polygon fill="#63b8ff" stroke="#63b8ff" points="122.65,-241.16 112.06,-240.69 120.05,-247.66 122.65,-241.16"/>
</g>
<!-- Node14 -->
<g id="node14" class="node">
<title>Node14</title>
<g id="a_node14"><a xlink:href="dimensions_8h.html" target="_top" xlink:title="Defines a class that serves as an explicit converter between MATLAB pointers and array dimensions.">
<polygon fill="white" stroke="#666666" points="225.29,-240.25 151.54,-240.25 151.54,-221 225.29,-221 225.29,-240.25"/>
<text text-anchor="middle" x="188.41" y="-226.75" font-family="Helvetica,sans-Serif" font-size="10.00">dimensions.h</text>
</a>
</g>
</g>
<!-- Node10&#45;&gt;Node14 -->
<g id="edge17" class="edge">
<title>Node10&#45;&gt;Node14</title>
<path fill="none" stroke="#63b8ff" d="M215.96,-276.08C211.55,-268.96 205.18,-258.68 199.67,-249.8"/>
<polygon fill="#63b8ff" stroke="#63b8ff" points="202.22,-248.27 193.98,-241.61 196.27,-251.95 202.22,-248.27"/>
</g>
<!-- Node15 -->
<g id="node15" class="node">
<title>Node15</title>
<g id="a_node15"><a xlink:href="mat__io_8h.html" target="_top" xlink:title="Includes MATLAB headers for I/O.">
<polygon fill="white" stroke="#666666" points="428.16,-74.5 374.66,-74.5 374.66,-55.25 428.16,-55.25 428.16,-74.5"/>
<text text-anchor="middle" x="401.41" y="-61" font-family="Helvetica,sans-Serif" font-size="10.00">mat_io.h</text>
</a>
</g>
</g>
<!-- Node10&#45;&gt;Node15 -->
<g id="edge23" class="edge">
<title>Node10&#45;&gt;Node15</title>
<path fill="none" stroke="#63b8ff" d="M223.74,-276.07C231.47,-248.27 258.81,-161.28 310.41,-110.5 325.4,-95.75 346.24,-85.04 364.19,-77.82"/>
<polygon fill="#63b8ff" stroke="#63b8ff" points="365.25,-80.78 373.36,-73.97 362.77,-74.24 365.25,-80.78"/>
</g>
<!-- Node10&#45;&gt;Node19 -->
<g id="edge24" class="edge">
<title>Node10&#45;&gt;Node19</title>
<path fill="none" stroke="#63b8ff" d="M242.86,-279.28C275.3,-270.81 337.59,-254.55 380.31,-243.4"/>
<polygon fill="#63b8ff" stroke="#63b8ff" points="380.92,-246.59 389.71,-240.68 379.15,-239.82 380.92,-246.59"/>
</g>
<!-- Node12 -->
<g id="node12" class="node">
<title>Node12</title>
<g id="a_node12"><a xlink:title=" ">
<polygon fill="#e0e0e0" stroke="#999999" points="187.54,-185 103.29,-185 103.29,-165.75 187.54,-165.75 187.54,-185"/>
<text text-anchor="middle" x="145.41" y="-171.5" font-family="Helvetica,sans-Serif" font-size="10.00">spdlog/spdlog.h</text>
</a>
</g>
</g>
<!-- Node11&#45;&gt;Node12 -->
<g id="edge15" class="edge">
<title>Node11&#45;&gt;Node12</title>
<path fill="none" stroke="#63b8ff" d="M98.08,-220.59C106.24,-212.97 118.12,-201.87 127.94,-192.7"/>
<polygon fill="#63b8ff" stroke="#63b8ff" points="129.97,-195.66 134.89,-186.27 125.19,-190.54 129.97,-195.66"/>
</g>
<!-- Node13 -->
<g id="node13" class="node">
<title>Node13</title>
<g id="a_node13"><a xlink:title=" ">
<polygon fill="#e0e0e0" stroke="#999999" points="85.29,-185 29.54,-185 29.54,-165.75 85.29,-165.75 85.29,-185"/>
<text text-anchor="middle" x="57.41" y="-171.5" font-family="Helvetica,sans-Serif" font-size="10.00">algorithm</text>
</a>
</g>
</g>
<!-- Node11&#45;&gt;Node13 -->
<g id="edge16" class="edge">
<title>Node11&#45;&gt;Node13</title>
<path fill="none" stroke="#63b8ff" d="M83.29,-220.83C79.19,-213.78 73.29,-203.65 68.16,-194.83"/>
<polygon fill="#63b8ff" stroke="#63b8ff" points="70.7,-193.24 62.64,-186.36 64.65,-196.76 70.7,-193.24"/>
</g>
<!-- Node14&#45;&gt;Node15 -->
<g id="edge18" class="edge">
<title>Node14&#45;&gt;Node15</title>
<path fill="none" stroke="#63b8ff" d="M189.59,-220.61C192.98,-198.4 204.84,-140.68 239.41,-110.5 274.17,-80.17 327.81,-70.28 363.73,-67.15"/>
<polygon fill="#63b8ff" stroke="#63b8ff" points="363.55,-70.6 373.27,-66.39 363.04,-63.62 363.55,-70.6"/>
</g>
<!-- Node16 -->
<g id="node16" class="node">
<title>Node16</title>
<g id="a_node16"><a xlink:title=" ">
<polygon fill="#e0e0e0" stroke="#999999" points="357.79,-19.25 317.04,-19.25 317.04,0 357.79,0 357.79,-19.25"/>
<text text-anchor="middle" x="337.41" y="-5.75" font-family="Helvetica,sans-Serif" font-size="10.00">mat.h</text>
</a>
</g>
</g>
<!-- Node15&#45;&gt;Node16 -->
<g id="edge19" class="edge">
<title>Node15&#45;&gt;Node16</title>
<path fill="none" stroke="#63b8ff" d="M390.56,-54.84C381.21,-47.07 367.52,-35.67 356.37,-26.4"/>
<polygon fill="#63b8ff" stroke="#63b8ff" points="359.04,-23.23 349.11,-19.52 354.56,-28.61 359.04,-23.23"/>
</g>
<!-- Node17 -->
<g id="node17" class="node">
<title>Node17</title>
<g id="a_node17"><a xlink:title=" ">
<polygon fill="#e0e0e0" stroke="#999999" points="427.04,-19.25 375.79,-19.25 375.79,0 427.04,0 427.04,-19.25"/>
<text text-anchor="middle" x="401.41" y="-5.75" font-family="Helvetica,sans-Serif" font-size="10.00">matrix.h</text>
</a>
</g>
</g>
<!-- Node15&#45;&gt;Node17 -->
<g id="edge20" class="edge">
<title>Node15&#45;&gt;Node17</title>
<path fill="none" stroke="#63b8ff" d="M401.41,-55.08C401.41,-48.42 401.41,-38.99 401.41,-30.53"/>
<polygon fill="#63b8ff" stroke="#63b8ff" points="404.91,-30.61 401.41,-20.61 397.91,-30.61 404.91,-30.61"/>
</g>
<!-- Node18 -->
<g id="node18" class="node">
<title>Node18</title>
<g id="a_node18"><a xlink:title=" ">
<polygon fill="#e0e0e0" stroke="#999999" points="487.91,-19.25 444.91,-19.25 444.91,0 487.91,0 487.91,-19.25"/>
<text text-anchor="middle" x="466.41" y="-5.75" font-family="Helvetica,sans-Serif" font-size="10.00">mex.h</text>
</a>
</g>
</g>
<!-- Node15&#45;&gt;Node18 -->
<g id="edge21" class="edge">
<title>Node15&#45;&gt;Node18</title>
<path fill="none" stroke="#63b8ff" d="M412.44,-54.84C421.93,-47.07 435.84,-35.67 447.16,-26.4"/>
<polygon fill="#63b8ff" stroke="#63b8ff" points="449.03,-28.57 454.55,-19.52 444.6,-23.15 449.03,-28.57"/>
</g>
<!-- Node19&#45;&gt;Node2 -->
<g id="edge26" class="edge">
<title>Node19&#45;&gt;Node2</title>
<path fill="none" stroke="#63b8ff" d="M419.3,-220.83C414.3,-213.63 407.06,-203.21 400.84,-194.26"/>
<polygon fill="#63b8ff" stroke="#63b8ff" points="403.24,-192.57 394.66,-186.36 397.49,-196.57 403.24,-192.57"/>
</g>
<!-- Node19&#45;&gt;Node5 -->
<g id="edge25" class="edge">
<title>Node19&#45;&gt;Node5</title>
<path fill="none" stroke="#63b8ff" d="M486.82,-226.93C608.64,-220.14 873.88,-197.71 928.41,-129.75 955.97,-95.41 881.28,-77.52 836.44,-70.12"/>
<polygon fill="#63b8ff" stroke="#63b8ff" points="837.18,-66.54 826.77,-68.46 836.11,-73.45 837.18,-66.54"/>
</g>
<!-- Node20 -->
<g id="node20" class="node">
<title>Node20</title>
<g id="a_node20"><a xlink:href="input__matrices_8h.html" target="_top" xlink:title="Class handling the input matrices that are read in from the input file.">
<polygon fill="white" stroke="#666666" points="670.41,-185 582.41,-185 582.41,-165.75 670.41,-165.75 670.41,-185"/>
<text text-anchor="middle" x="626.41" y="-171.5" font-family="Helvetica,sans-Serif" font-size="10.00">input_matrices.h</text>
</a>
</g>
</g>
<!-- Node19&#45;&gt;Node20 -->
<g id="edge27" class="edge">
<title>Node19&#45;&gt;Node20</title>
<path fill="none" stroke="#63b8ff" d="M459.51,-220.59C493.15,-211.68 544.76,-198.01 581.68,-188.23"/>
<polygon fill="#63b8ff" stroke="#63b8ff" points="582.38,-191.4 591.15,-185.45 580.59,-184.63 582.38,-191.4"/>
</g>
<!-- Node20&#45;&gt;Node5 -->
<g id="edge28" class="edge">
<title>Node20&#45;&gt;Node5</title>
<path fill="none" stroke="#63b8ff" d="M670.88,-174.18C743.34,-172.8 881.86,-165.44 912.41,-129.75 937.43,-100.53 876.09,-81.09 836.28,-71.94"/>
<polygon fill="#63b8ff" stroke="#63b8ff" points="837.23,-68.34 826.71,-69.63 835.73,-75.18 837.23,-68.34"/>
</g>
<!-- Node20&#45;&gt;Node15 -->
<g id="edge32" class="edge">
<title>Node20&#45;&gt;Node15</title>
<path fill="none" stroke="#63b8ff" d="M614.88,-165.28C597.43,-151.86 562.88,-126.59 530.41,-110.5 500.83,-95.84 465.25,-83.92 438.95,-76.1"/>
<polygon fill="#63b8ff" stroke="#63b8ff" points="440.23,-72.54 429.65,-73.11 438.27,-79.26 440.23,-72.54"/>
</g>
<!-- Node21 -->
<g id="node21" class="node">
<title>Node21</title>
<g id="a_node21"><a xlink:href="input__output__names_8h.html" target="_top" xlink:title="Constant values associated with the format of the input and output files and matrices.">
<polygon fill="white" stroke="#666666" points="903.41,-129.75 791.41,-129.75 791.41,-110.5 903.41,-110.5 903.41,-129.75"/>
<text text-anchor="middle" x="847.41" y="-116.25" font-family="Helvetica,sans-Serif" font-size="10.00">input_output_names.h</text>
</a>
</g>
</g>
<!-- Node20&#45;&gt;Node21 -->
<g id="edge29" class="edge">
<title>Node20&#45;&gt;Node21</title>
<path fill="none" stroke="#63b8ff" d="M664.15,-165.28C701.5,-156.28 758.8,-142.48 799.38,-132.7"/>
<polygon fill="#63b8ff" stroke="#63b8ff" points="799.93,-135.93 808.83,-130.18 798.29,-129.12 799.93,-135.93"/>
</g>
<!-- Node23 -->
<g id="node23" class="node">
<title>Node23</title>
<g id="a_node23"><a xlink:href="matrix__collection_8h.html" target="_top" xlink:title="A collection of named MATLAB matrices.">
<polygon fill="white" stroke="#666666" points="675.29,-129.75 577.54,-129.75 577.54,-110.5 675.29,-110.5 675.29,-129.75"/>
<text text-anchor="middle" x="626.41" y="-116.25" font-family="Helvetica,sans-Serif" font-size="10.00">matrix_collection.h</text>
</a>
</g>
</g>
<!-- Node20&#45;&gt;Node23 -->
<g id="edge33" class="edge">
<title>Node20&#45;&gt;Node23</title>
<path fill="none" stroke="#63b8ff" d="M626.41,-165.58C626.41,-158.92 626.41,-149.49 626.41,-141.03"/>
<polygon fill="#63b8ff" stroke="#63b8ff" points="629.91,-141.11 626.41,-131.11 622.91,-141.11 629.91,-141.11"/>
</g>
<!-- Node21&#45;&gt;Node5 -->
<g id="edge30" class="edge">
<title>Node21&#45;&gt;Node5</title>
<path fill="none" stroke="#63b8ff" d="M840.48,-110.33C834.74,-103.05 826.4,-92.48 819.3,-83.48"/>
<polygon fill="#63b8ff" stroke="#63b8ff" points="821.44,-81.54 812.5,-75.86 815.94,-85.88 821.44,-81.54"/>
</g>
<!-- Node22 -->
<g id="node22" class="node">
<title>Node22</title>
<g id="a_node22"><a xlink:title=" ">
<polygon fill="#e0e0e0" stroke="#999999" points="685.91,-74.5 642.91,-74.5 642.91,-55.25 685.91,-55.25 685.91,-74.5"/>
<text text-anchor="middle" x="664.41" y="-61" font-family="Helvetica,sans-Serif" font-size="10.00">vector</text>
</a>
</g>
</g>
<!-- Node21&#45;&gt;Node22 -->
<g id="edge31" class="edge">
<title>Node21&#45;&gt;Node22</title>
<path fill="none" stroke="#63b8ff" d="M816.37,-110.09C783.06,-100.4 730.4,-85.08 696.64,-75.25"/>
<polygon fill="#63b8ff" stroke="#63b8ff" points="697.97,-71.7 687.39,-72.27 696.02,-78.43 697.97,-71.7"/>
</g>
<!-- Node23&#45;&gt;Node5 -->
<g id="edge34" class="edge">
<title>Node23&#45;&gt;Node5</title>
<path fill="none" stroke="#63b8ff" d="M656.78,-110.09C689.58,-100.33 741.55,-84.87 774.55,-75.06"/>
<polygon fill="#63b8ff" stroke="#63b8ff" points="775.37,-78.17 783.95,-71.96 773.37,-71.46 775.37,-78.17"/>
</g>
<!-- Node23&#45;&gt;Node15 -->
<g id="edge36" class="edge">
<title>Node23&#45;&gt;Node15</title>
<path fill="none" stroke="#63b8ff" d="M587.99,-110.03C546.28,-100.16 480.12,-84.5 438.81,-74.73"/>
<polygon fill="#63b8ff" stroke="#63b8ff" points="439.91,-71.15 429.37,-72.26 438.3,-77.96 439.91,-71.15"/>
</g>
<!-- Node23&#45;&gt;Node22 -->
<g id="edge35" class="edge">
<title>Node23&#45;&gt;Node22</title>
<path fill="none" stroke="#63b8ff" d="M632.69,-110.33C637.83,-103.13 645.27,-92.71 651.65,-83.76"/>
<polygon fill="#63b8ff" stroke="#63b8ff" points="655.04,-86.03 658,-75.86 649.34,-81.97 655.04,-86.03"/>
</g>
</g>
</svg>
