<?xml version="1.0" encoding="UTF-8" standalone="no"?>
<!DOCTYPE svg PUBLIC "-//W3C//DTD SVG 1.1//EN"
 "http://www.w3.org/Graphics/SVG/1.1/DTD/svg11.dtd">
<!-- Generated by graphviz version 8.0.5 (20230430.1635)
 -->
<!-- Title: tdms/include/field.h Pages: 1 -->
<svg width="1075pt" height="304pt"
 viewBox="0.00 0.00 1074.98 303.50" xmlns="http://www.w3.org/2000/svg" xmlns:xlink="http://www.w3.org/1999/xlink">
<g id="graph0" class="graph" transform="scale(1 1) rotate(0) translate(4 299.5)">
<title>tdms/include/field.h</title>
<!-- Node1 -->
<g id="node1" class="node">
<title>Node1</title>
<g id="a_node1"><a xlink:title="Classes for the electric and magnetic (split) fields on a grid.">
<polygon fill="#999999" stroke="#666666" points="504.23,-295.5 403.48,-295.5 403.48,-276.25 504.23,-276.25 504.23,-295.5"/>
<text text-anchor="middle" x="453.85" y="-282" font-family="Helvetica,sans-Serif" font-size="10.00">tdms/include/field.h</text>
</a>
</g>
</g>
<!-- Node2 -->
<g id="node2" class="node">
<title>Node2</title>
<g id="a_node2"><a xlink:title=" ">
<polygon fill="#e0e0e0" stroke="#999999" points="67.23,-74.5 14.48,-74.5 14.48,-55.25 67.23,-55.25 67.23,-74.5"/>
<text text-anchor="middle" x="40.85" y="-61" font-family="Helvetica,sans-Serif" font-size="10.00">complex</text>
</a>
</g>
</g>
<!-- Node1&#45;&gt;Node2 -->
<g id="edge1" class="edge">
<title>Node1&#45;&gt;Node2</title>
<path fill="none" stroke="#63b8ff" d="M403.13,-285.18C305.91,-282.65 94.93,-261.43 3.85,-129.75 -6.99,-114.07 7.27,-95.04 21.12,-81.85"/>
<polygon fill="#63b8ff" stroke="#63b8ff" points="22.87,-85.08 28.03,-75.83 18.23,-79.85 22.87,-85.08"/>
</g>
<!-- Node3 -->
<g id="node3" class="node">
<title>Node3</title>
<g id="a_node3"><a xlink:href="arrays_8h.html" target="_top" xlink:title="Classes describing arrays, vertices etc.">
<polygon fill="white" stroke="#666666" points="304.48,-185 253.23,-185 253.23,-165.75 304.48,-165.75 304.48,-185"/>
<text text-anchor="middle" x="278.85" y="-171.5" font-family="Helvetica,sans-Serif" font-size="10.00">arrays.h</text>
</a>
</g>
</g>
<!-- Node1&#45;&gt;Node3 -->
<g id="edge2" class="edge">
<title>Node1&#45;&gt;Node3</title>
<path fill="none" stroke="#63b8ff" d="M439.23,-275.81C408.92,-257.02 338.99,-213.66 302.3,-190.91"/>
<polygon fill="#63b8ff" stroke="#63b8ff" points="304.65,-187.63 294.31,-185.34 300.96,-193.58 304.65,-187.63"/>
</g>
<!-- Node7 -->
<g id="node7" class="node">
<title>Node7</title>
<g id="a_node7"><a xlink:href="globals_8h.html" target="_top" xlink:title="Type definitions and global constants.">
<polygon fill="white" stroke="#666666" points="68.35,-129.75 13.35,-129.75 13.35,-110.5 68.35,-110.5 68.35,-129.75"/>
<text text-anchor="middle" x="40.85" y="-116.25" font-family="Helvetica,sans-Serif" font-size="10.00">globals.h</text>
</a>
</g>
</g>
<!-- Node1&#45;&gt;Node7 -->
<g id="edge20" class="edge">
<title>Node1&#45;&gt;Node7</title>
<path fill="none" stroke="#63b8ff" d="M431.06,-275.84C362.04,-248.47 155.07,-166.41 73.97,-134.25"/>
<polygon fill="#63b8ff" stroke="#63b8ff" points="75.42,-130.67 64.83,-130.23 72.84,-137.17 75.42,-130.67"/>
</g>
<!-- Node10 -->
<g id="node10" class="node">
<title>Node10</title>
<g id="a_node10"><a xlink:href="cell__coordinate_8h.html" target="_top" xlink:title="Container for {ijk} or {IJK} grouped variables.">
<polygon fill="white" stroke="#666666" points="1006.6,-240.25 917.1,-240.25 917.1,-221 1006.6,-221 1006.6,-240.25"/>
<text text-anchor="middle" x="961.85" y="-226.75" font-family="Helvetica,sans-Serif" font-size="10.00">cell_coordinate.h</text>
</a>
</g>
</g>
<!-- Node1&#45;&gt;Node10 -->
<g id="edge12" class="edge">
<title>Node1&#45;&gt;Node10</title>
<path fill="none" stroke="#63b8ff" d="M504.69,-280.89C586.87,-274.22 754.21,-259.73 906.34,-240.37"/>
<polygon fill="#63b8ff" stroke="#63b8ff" points="906.33,-243.77 915.8,-239.03 905.44,-236.83 906.33,-243.77"/>
</g>
<!-- Node13 -->
<g id="node13" class="node">
<title>Node13</title>
<g id="a_node13"><a xlink:href="dimensions_8h.html" target="_top" xlink:title="Defines a class that serves as an explicit converter between MATLAB pointers and array dimensions.">
<polygon fill="white" stroke="#666666" points="898.73,-240.25 824.98,-240.25 824.98,-221 898.73,-221 898.73,-240.25"/>
<text text-anchor="middle" x="861.85" y="-226.75" font-family="Helvetica,sans-Serif" font-size="10.00">dimensions.h</text>
</a>
</g>
</g>
<!-- Node1&#45;&gt;Node13 -->
<g id="edge15" class="edge">
<title>Node1&#45;&gt;Node13</title>
<path fill="none" stroke="#63b8ff" d="M504.49,-279.24C573.78,-271.38 701.94,-256.26 810.85,-240.25 811.83,-240.11 812.81,-239.96 813.8,-239.81"/>
<polygon fill="#63b8ff" stroke="#63b8ff" points="814.22,-243.13 823.56,-238.12 813.14,-236.22 814.22,-243.13"/>
</g>
<!-- Node14 -->
<g id="node14" class="node">
<title>Node14</title>
<g id="a_node14"><a xlink:href="mat__io_8h.html" target="_top" xlink:title="Includes MATLAB headers for I/O.">
<polygon fill="white" stroke="#666666" points="821.6,-74.5 768.1,-74.5 768.1,-55.25 821.6,-55.25 821.6,-74.5"/>
<text text-anchor="middle" x="794.85" y="-61" font-family="Helvetica,sans-Serif" font-size="10.00">mat_io.h</text>
</a>
</g>
</g>
<!-- Node1&#45;&gt;Node14 -->
<g id="edge21" class="edge">
<title>Node1&#45;&gt;Node14</title>
<path fill="none" stroke="#63b8ff" d="M501.58,-275.81C573.31,-259.6 708.15,-218.67 779.85,-129.75 789.92,-117.27 793.45,-99.2 794.59,-85.46"/>
<polygon fill="#63b8ff" stroke="#63b8ff" points="798.12,-85.91 795.08,-75.76 791.13,-85.59 798.12,-85.91"/>
</g>
<!-- Node18 -->
<g id="node18" class="node">
<title>Node18</title>
<g id="a_node18"><a xlink:href="simulation__parameters_8h.html" target="_top" xlink:title="Classes collecting parameters for the simulation.">
<polygon fill="white" stroke="#666666" points="515.1,-240.25 392.6,-240.25 392.6,-221 515.1,-221 515.1,-240.25"/>
<text text-anchor="middle" x="453.85" y="-226.75" font-family="Helvetica,sans-Serif" font-size="10.00">simulation_parameters.h</text>
</a>
</g>
</g>
<!-- Node1&#45;&gt;Node18 -->
<g id="edge22" class="edge">
<title>Node1&#45;&gt;Node18</title>
<path fill="none" stroke="#63b8ff" d="M453.85,-276.08C453.85,-269.42 453.85,-259.99 453.85,-251.53"/>
<polygon fill="#63b8ff" stroke="#63b8ff" points="457.35,-251.61 453.85,-241.61 450.35,-251.61 457.35,-251.61"/>
</g>
<!-- Node3&#45;&gt;Node2 -->
<g id="edge3" class="edge">
<title>Node3&#45;&gt;Node2</title>
<path fill="none" stroke="#63b8ff" d="M253,-170.87C219.73,-165.58 160.86,-153.54 115.85,-129.75 92.6,-117.45 70.21,-96.88 56.05,-82.41"/>
<polygon fill="#63b8ff" stroke="#63b8ff" points="59.14,-80.53 49.71,-75.7 54.07,-85.36 59.14,-80.53"/>
</g>
<!-- Node4 -->
<g id="node4" class="node">
<title>Node4</title>
<g id="a_node4"><a xlink:title=" ">
<polygon fill="#e0e0e0" stroke="#999999" points="365.23,-129.75 306.48,-129.75 306.48,-110.5 365.23,-110.5 365.23,-129.75"/>
<text text-anchor="middle" x="335.85" y="-116.25" font-family="Helvetica,sans-Serif" font-size="10.00">stdexcept</text>
</a>
</g>
</g>
<!-- Node3&#45;&gt;Node4 -->
<g id="edge4" class="edge">
<title>Node3&#45;&gt;Node4</title>
<path fill="none" stroke="#63b8ff" d="M288.52,-165.34C296.68,-157.72 308.56,-146.62 318.38,-137.45"/>
<polygon fill="#63b8ff" stroke="#63b8ff" points="320.41,-140.41 325.33,-131.02 315.63,-135.29 320.41,-140.41"/>
</g>
<!-- Node5 -->
<g id="node5" class="node">
<title>Node5</title>
<g id="a_node5"><a xlink:title=" ">
<polygon fill="#e0e0e0" stroke="#999999" points="492.85,-74.5 452.85,-74.5 452.85,-55.25 492.85,-55.25 492.85,-74.5"/>
<text text-anchor="middle" x="472.85" y="-61" font-family="Helvetica,sans-Serif" font-size="10.00">string</text>
</a>
</g>
</g>
<!-- Node3&#45;&gt;Node5 -->
<g id="edge5" class="edge">
<title>Node3&#45;&gt;Node5</title>
<path fill="none" stroke="#63b8ff" d="M278.88,-165.56C279.41,-151.8 282.51,-125.25 297.85,-110.5 336.94,-72.92 403.08,-65.75 441.88,-65.05"/>
<polygon fill="#63b8ff" stroke="#63b8ff" points="441.53,-68.55 451.52,-65.01 441.51,-61.55 441.53,-68.55"/>
</g>
<!-- Node6 -->
<g id="node6" class="node">
<title>Node6</title>
<g id="a_node6"><a xlink:title=" ">
<polygon fill="#e0e0e0" stroke="#999999" points="170.85,-129.75 124.85,-129.75 124.85,-110.5 170.85,-110.5 170.85,-129.75"/>
<text text-anchor="middle" x="147.85" y="-116.25" font-family="Helvetica,sans-Serif" font-size="10.00">fftw3.h</text>
</a>
</g>
</g>
<!-- Node3&#45;&gt;Node6 -->
<g id="edge6" class="edge">
<title>Node3&#45;&gt;Node6</title>
<path fill="none" stroke="#63b8ff" d="M256.63,-165.34C235.65,-156.81 203.94,-143.92 180.16,-134.26"/>
<polygon fill="#63b8ff" stroke="#63b8ff" points="181.77,-130.73 171.19,-130.2 179.13,-137.21 181.77,-130.73"/>
</g>
<!-- Node3&#45;&gt;Node7 -->
<g id="edge7" class="edge">
<title>Node3&#45;&gt;Node7</title>
<path fill="none" stroke="#63b8ff" d="M252.93,-168.57C210.93,-159.18 127.8,-140.58 79.02,-129.66"/>
<polygon fill="#63b8ff" stroke="#63b8ff" points="80.1,-126.1 69.58,-127.33 78.57,-132.93 80.1,-126.1"/>
</g>
<!-- Node8 -->
<g id="node8" class="node">
<title>Node8</title>
<g id="a_node8"><a xlink:title=" ">
<polygon fill="#e0e0e0" stroke="#999999" points="250.35,-129.75 189.35,-129.75 189.35,-110.5 250.35,-110.5 250.35,-129.75"/>
<text text-anchor="middle" x="219.85" y="-116.25" font-family="Helvetica,sans-Serif" font-size="10.00">matlabio.h</text>
</a>
</g>
</g>
<!-- Node3&#45;&gt;Node8 -->
<g id="edge9" class="edge">
<title>Node3&#45;&gt;Node8</title>
<path fill="none" stroke="#63b8ff" d="M268.85,-165.34C260.32,-157.65 247.86,-146.4 237.64,-137.18"/>
<polygon fill="#63b8ff" stroke="#63b8ff" points="240.48,-135.13 230.71,-131.02 235.79,-140.32 240.48,-135.13"/>
</g>
<!-- Node9 -->
<g id="node9" class="node">
<title>Node9</title>
<g id="a_node9"><a xlink:href="utils_8h.html" target="_top" xlink:title="Useful miscellaneous utility functions.">
<polygon fill="white" stroke="#666666" points="425.98,-129.75 383.73,-129.75 383.73,-110.5 425.98,-110.5 425.98,-129.75"/>
<text text-anchor="middle" x="404.85" y="-116.25" font-family="Helvetica,sans-Serif" font-size="10.00">utils.h</text>
</a>
</g>
</g>
<!-- Node3&#45;&gt;Node9 -->
<g id="edge10" class="edge">
<title>Node3&#45;&gt;Node9</title>
<path fill="none" stroke="#63b8ff" d="M300.23,-165.34C320.32,-156.85 350.64,-144.04 373.47,-134.39"/>
<polygon fill="#63b8ff" stroke="#63b8ff" points="374.53,-137.32 382.38,-130.2 371.8,-130.87 374.53,-137.32"/>
</g>
<!-- Node7&#45;&gt;Node2 -->
<g id="edge8" class="edge">
<title>Node7&#45;&gt;Node2</title>
<path fill="none" stroke="#63b8ff" d="M40.85,-110.33C40.85,-103.67 40.85,-94.24 40.85,-85.78"/>
<polygon fill="#63b8ff" stroke="#63b8ff" points="44.35,-85.86 40.85,-75.86 37.35,-85.86 44.35,-85.86"/>
</g>
<!-- Node9&#45;&gt;Node5 -->
<g id="edge11" class="edge">
<title>Node9&#45;&gt;Node5</title>
<path fill="none" stroke="#63b8ff" d="M416.39,-110.09C426.41,-102.24 441.16,-90.7 453.06,-81.37"/>
<polygon fill="#63b8ff" stroke="#63b8ff" points="454.77,-83.7 460.49,-74.77 450.46,-78.18 454.77,-83.7"/>
</g>
<!-- Node11 -->
<g id="node11" class="node">
<title>Node11</title>
<g id="a_node11"><a xlink:title=" ">
<polygon fill="#e0e0e0" stroke="#999999" points="1066.98,-185 982.73,-185 982.73,-165.75 1066.98,-165.75 1066.98,-185"/>
<text text-anchor="middle" x="1024.85" y="-171.5" font-family="Helvetica,sans-Serif" font-size="10.00">spdlog/spdlog.h</text>
</a>
</g>
</g>
<!-- Node10&#45;&gt;Node11 -->
<g id="edge13" class="edge">
<title>Node10&#45;&gt;Node11</title>
<path fill="none" stroke="#63b8ff" d="M972.54,-220.59C981.74,-212.82 995.22,-201.42 1006.19,-192.15"/>
<polygon fill="#63b8ff" stroke="#63b8ff" points="1007.95,-194.4 1013.32,-185.27 1003.43,-189.06 1007.95,-194.4"/>
</g>
<!-- Node12 -->
<g id="node12" class="node">
<title>Node12</title>
<g id="a_node12"><a xlink:title=" ">
<polygon fill="#e0e0e0" stroke="#999999" points="964.73,-185 908.98,-185 908.98,-165.75 964.73,-165.75 964.73,-185"/>
<text text-anchor="middle" x="936.85" y="-171.5" font-family="Helvetica,sans-Serif" font-size="10.00">algorithm</text>
</a>
</g>
</g>
<!-- Node10&#45;&gt;Node12 -->
<g id="edge14" class="edge">
<title>Node10&#45;&gt;Node12</title>
<path fill="none" stroke="#63b8ff" d="M957.73,-220.83C954.45,-213.86 949.76,-203.87 945.66,-195.12"/>
<polygon fill="#63b8ff" stroke="#63b8ff" points="948.49,-193.92 941.07,-186.36 942.15,-196.9 948.49,-193.92"/>
</g>
<!-- Node13&#45;&gt;Node14 -->
<g id="edge16" class="edge">
<title>Node13&#45;&gt;Node14</title>
<path fill="none" stroke="#63b8ff" d="M860.41,-220.56C856.92,-200.09 846.85,-149.09 827.85,-110.5 823.08,-100.81 816.16,-91.04 809.89,-83.13"/>
<polygon fill="#63b8ff" stroke="#63b8ff" points="812.06,-81.27 802.99,-75.81 806.68,-85.74 812.06,-81.27"/>
</g>
<!-- Node15 -->
<g id="node15" class="node">
<title>Node15</title>
<g id="a_node15"><a xlink:title=" ">
<polygon fill="#e0e0e0" stroke="#999999" points="751.23,-19.25 710.48,-19.25 710.48,0 751.23,0 751.23,-19.25"/>
<text text-anchor="middle" x="730.85" y="-5.75" font-family="Helvetica,sans-Serif" font-size="10.00">mat.h</text>
</a>
</g>
</g>
<!-- Node14&#45;&gt;Node15 -->
<g id="edge17" class="edge">
<title>Node14&#45;&gt;Node15</title>
<path fill="none" stroke="#63b8ff" d="M784,-54.84C774.65,-47.07 760.96,-35.67 749.81,-26.4"/>
<polygon fill="#63b8ff" stroke="#63b8ff" points="752.48,-23.23 742.55,-19.52 748,-28.61 752.48,-23.23"/>
</g>
<!-- Node16 -->
<g id="node16" class="node">
<title>Node16</title>
<g id="a_node16"><a xlink:title=" ">
<polygon fill="#e0e0e0" stroke="#999999" points="820.48,-19.25 769.23,-19.25 769.23,0 820.48,0 820.48,-19.25"/>
<text text-anchor="middle" x="794.85" y="-5.75" font-family="Helvetica,sans-Serif" font-size="10.00">matrix.h</text>
</a>
</g>
</g>
<!-- Node14&#45;&gt;Node16 -->
<g id="edge18" class="edge">
<title>Node14&#45;&gt;Node16</title>
<path fill="none" stroke="#63b8ff" d="M794.85,-55.08C794.85,-48.42 794.85,-38.99 794.85,-30.53"/>
<polygon fill="#63b8ff" stroke="#63b8ff" points="798.35,-30.61 794.85,-20.61 791.35,-30.61 798.35,-30.61"/>
</g>
<!-- Node17 -->
<g id="node17" class="node">
<title>Node17</title>
<g id="a_node17"><a xlink:title=" ">
<polygon fill="#e0e0e0" stroke="#999999" points="881.35,-19.25 838.35,-19.25 838.35,0 881.35,0 881.35,-19.25"/>
<text text-anchor="middle" x="859.85" y="-5.75" font-family="Helvetica,sans-Serif" font-size="10.00">mex.h</text>
</a>
</g>
</g>
<!-- Node14&#45;&gt;Node17 -->
<g id="edge19" class="edge">
<title>Node14&#45;&gt;Node17</title>
<path fill="none" stroke="#63b8ff" d="M805.88,-54.84C815.37,-47.07 829.28,-35.67 840.6,-26.4"/>
<polygon fill="#63b8ff" stroke="#63b8ff" points="842.47,-28.57 847.99,-19.52 838.04,-23.15 842.47,-28.57"/>
</g>
<!-- Node18&#45;&gt;Node3 -->
<g id="edge24" class="edge">
<title>Node18&#45;&gt;Node3</title>
<path fill="none" stroke="#63b8ff" d="M424.17,-220.59C394.12,-211.45 347.6,-197.29 315.32,-187.47"/>
<polygon fill="#63b8ff" stroke="#63b8ff" points="316.55,-183.88 305.97,-184.32 314.51,-190.58 316.55,-183.88"/>
</g>
<!-- Node18&#45;&gt;Node5 -->
<g id="edge23" class="edge">
<title>Node18&#45;&gt;Node5</title>
<path fill="none" stroke="#63b8ff" d="M454.88,-220.82C457.83,-195.39 466.42,-121.35 470.56,-85.62"/>
<polygon fill="#63b8ff" stroke="#63b8ff" points="474.15,-86.06 471.83,-75.72 467.2,-85.25 474.15,-86.06"/>
</g>
<!-- Node19 -->
<g id="node19" class="node">
<title>Node19</title>
<g id="a_node19"><a xlink:href="input__matrices_8h.html" target="_top" xlink:title="Class handling the input matrices that are read in from the input file.">
<polygon fill="white" stroke="#666666" points="619.85,-185 531.85,-185 531.85,-165.75 619.85,-165.75 619.85,-185"/>
<text text-anchor="middle" x="575.85" y="-171.5" font-family="Helvetica,sans-Serif" font-size="10.00">input_matrices.h</text>
</a>
</g>
</g>
<!-- Node18&#45;&gt;Node19 -->
<g id="edge25" class="edge">
<title>Node18&#45;&gt;Node19</title>
<path fill="none" stroke="#63b8ff" d="M474.55,-220.59C493.92,-212.14 523.1,-199.4 545.17,-189.77"/>
<polygon fill="#63b8ff" stroke="#63b8ff" points="546.29,-192.66 554.06,-185.45 543.49,-186.25 546.29,-192.66"/>
</g>
<!-- Node19&#45;&gt;Node5 -->
<g id="edge26" class="edge">
<title>Node19&#45;&gt;Node5</title>
<path fill="none" stroke="#63b8ff" d="M558.59,-165.3C544.53,-157.31 524.8,-144.63 510.85,-129.75 498.32,-116.38 488,-98.18 481.29,-84.63"/>
<polygon fill="#63b8ff" stroke="#63b8ff" points="484.15,-83.49 476.71,-75.94 477.82,-86.48 484.15,-83.49"/>
</g>
<!-- Node19&#45;&gt;Node14 -->
<g id="edge30" class="edge">
<title>Node19&#45;&gt;Node14</title>
<path fill="none" stroke="#63b8ff" d="M620.09,-172.9C659.45,-169.55 716.81,-159.43 756.85,-129.75 772.05,-118.48 782.31,-99.17 788.29,-84.72"/>
<polygon fill="#63b8ff" stroke="#63b8ff" points="791.77,-86.43 792.05,-75.84 785.23,-83.94 791.77,-86.43"/>
</g>
<!-- Node20 -->
<g id="node20" class="node">
<title>Node20</title>
<g id="a_node20"><a xlink:href="input__output__names_8h.html" target="_top" xlink:title="Constant values associated with the format of the input and output files and matrices.">
<polygon fill="white" stroke="#666666" points="631.85,-129.75 519.85,-129.75 519.85,-110.5 631.85,-110.5 631.85,-129.75"/>
<text text-anchor="middle" x="575.85" y="-116.25" font-family="Helvetica,sans-Serif" font-size="10.00">input_output_names.h</text>
</a>
</g>
</g>
<!-- Node19&#45;&gt;Node20 -->
<g id="edge27" class="edge">
<title>Node19&#45;&gt;Node20</title>
<path fill="none" stroke="#63b8ff" d="M575.85,-165.58C575.85,-158.92 575.85,-149.49 575.85,-141.03"/>
<polygon fill="#63b8ff" stroke="#63b8ff" points="579.35,-141.11 575.85,-131.11 572.35,-141.11 579.35,-141.11"/>
</g>
<!-- Node22 -->
<g id="node22" class="node">
<title>Node22</title>
<g id="a_node22"><a xlink:href="matrix__collection_8h.html" target="_top" xlink:title="A collection of named MATLAB matrices.">
<polygon fill="white" stroke="#666666" points="747.73,-129.75 649.98,-129.75 649.98,-110.5 747.73,-110.5 747.73,-129.75"/>
<text text-anchor="middle" x="698.85" y="-116.25" font-family="Helvetica,sans-Serif" font-size="10.00">matrix_collection.h</text>
</a>
</g>
</g>
<!-- Node19&#45;&gt;Node22 -->
<g id="edge31" class="edge">
<title>Node19&#45;&gt;Node22</title>
<path fill="none" stroke="#63b8ff" d="M596.72,-165.34C616.25,-156.89 645.66,-144.15 667.92,-134.52"/>
<polygon fill="#63b8ff" stroke="#63b8ff" points="669.1,-137.39 676.89,-130.2 666.32,-130.96 669.1,-137.39"/>
</g>
<!-- Node20&#45;&gt;Node5 -->
<g id="edge28" class="edge">
<title>Node20&#45;&gt;Node5</title>
<path fill="none" stroke="#63b8ff" d="M558.38,-110.09C542.4,-101.83 518.51,-89.48 500.03,-79.93"/>
<polygon fill="#63b8ff" stroke="#63b8ff" points="501.9,-76.44 491.41,-74.95 498.69,-82.65 501.9,-76.44"/>
</g>
<!-- Node21 -->
<g id="node21" class="node">
<title>Node21</title>
<g id="a_node21"><a xlink:title=" ">
<polygon fill="#e0e0e0" stroke="#999999" points="658.35,-74.5 615.35,-74.5 615.35,-55.25 658.35,-55.25 658.35,-74.5"/>
<text text-anchor="middle" x="636.85" y="-61" font-family="Helvetica,sans-Serif" font-size="10.00">vector</text>
</a>
</g>
</g>
<!-- Node20&#45;&gt;Node21 -->
<g id="edge29" class="edge">
<title>Node20&#45;&gt;Node21</title>
<path fill="none" stroke="#63b8ff" d="M586.2,-110.09C595.02,-102.4 607.9,-91.15 618.47,-81.93"/>
<polygon fill="#63b8ff" stroke="#63b8ff" points="620.43,-83.99 625.66,-74.77 615.82,-78.71 620.43,-83.99"/>
</g>
<!-- Node22&#45;&gt;Node5 -->
<g id="edge32" class="edge">
<title>Node22&#45;&gt;Node5</title>
<path fill="none" stroke="#63b8ff" d="M660.26,-110.03C616.12,-99.63 544.73,-82.81 503.98,-73.21"/>
<polygon fill="#63b8ff" stroke="#63b8ff" points="504.89,-69.59 494.35,-70.71 503.28,-76.41 504.89,-69.59"/>
</g>
<!-- Node22&#45;&gt;Node14 -->
<g id="edge34" class="edge">
<title>Node22&#45;&gt;Node14</title>
<path fill="none" stroke="#63b8ff" d="M715.14,-110.09C729.9,-101.91 751.89,-89.71 769.04,-80.19"/>
<polygon fill="#63b8ff" stroke="#63b8ff" points="770.44,-82.86 777.49,-74.95 767.05,-76.74 770.44,-82.86"/>
</g>
<!-- Node22&#45;&gt;Node21 -->
<g id="edge33" class="edge">
<title>Node22&#45;&gt;Node21</title>
<path fill="none" stroke="#63b8ff" d="M688.34,-110.09C679.38,-102.4 666.28,-91.15 655.54,-81.93"/>
<polygon fill="#63b8ff" stroke="#63b8ff" points="658.08,-78.64 648.22,-74.77 653.52,-83.95 658.08,-78.64"/>
</g>
</g>
</svg>
