<?xml version="1.0" encoding="UTF-8" standalone="no"?>
<!DOCTYPE svg PUBLIC "-//W3C//DTD SVG 1.1//EN"
 "http://www.w3.org/Graphics/SVG/1.1/DTD/svg11.dtd">
<!-- Generated by graphviz version 8.0.5 (20230430.1635)
 -->
<!-- Title: tdms/include/fieldsample.h Pages: 1 -->
<svg width="1325pt" height="359pt"
 viewBox="0.00 0.00 1325.12 358.75" xmlns="http://www.w3.org/2000/svg" xmlns:xlink="http://www.w3.org/1999/xlink">
<g id="graph0" class="graph" transform="scale(1 1) rotate(0) translate(4 354.75)">
<title>tdms/include/fieldsample.h</title>
<!-- Node1 -->
<g id="node1" class="node">
<title>Node1</title>
<g id="a_node1"><a xlink:title="Class that stores the extracted field values at user&#45;defined vertices.">
<polygon fill="#999999" stroke="#666666" points="432.5,-350.75 300.25,-350.75 300.25,-331.5 432.5,-331.5 432.5,-350.75"/>
<text text-anchor="middle" x="366.38" y="-337.25" font-family="Helvetica,sans-Serif" font-size="10.00">tdms/include/fieldsample.h</text>
</a>
</g>
</g>
<!-- Node2 -->
<g id="node2" class="node">
<title>Node2</title>
<g id="a_node2"><a xlink:href="arrays_8h.html" target="_top" xlink:title="Classes describing arrays, vertices etc.">
<polygon fill="white" stroke="#666666" points="213,-185 161.75,-185 161.75,-165.75 213,-165.75 213,-185"/>
<text text-anchor="middle" x="187.38" y="-171.5" font-family="Helvetica,sans-Serif" font-size="10.00">arrays.h</text>
</a>
</g>
</g>
<!-- Node1&#45;&gt;Node2 -->
<g id="edge1" class="edge">
<title>Node1&#45;&gt;Node2</title>
<path fill="none" stroke="#63b8ff" d="M355.37,-331.01C334.64,-313.73 288.53,-274.85 251.38,-240.25 234.6,-224.63 216.14,-206.05 203.37,-192.96"/>
<polygon fill="#63b8ff" stroke="#63b8ff" points="206.36,-190.98 196.88,-186.25 201.34,-195.86 206.36,-190.98"/>
</g>
<!-- Node12 -->
<g id="node12" class="node">
<title>Node12</title>
<g id="a_node12"><a xlink:href="field_8h.html" target="_top" xlink:title="Classes for the electric and magnetic (split) fields on a grid.">
<polygon fill="white" stroke="#666666" points="1004.5,-295.5 962.25,-295.5 962.25,-276.25 1004.5,-276.25 1004.5,-295.5"/>
<text text-anchor="middle" x="983.38" y="-282" font-family="Helvetica,sans-Serif" font-size="10.00">field.h</text>
</a>
</g>
</g>
<!-- Node1&#45;&gt;Node12 -->
<g id="edge14" class="edge">
<title>Node1&#45;&gt;Node12</title>
<path fill="none" stroke="#63b8ff" d="M432.99,-334.38C564.74,-323 854.23,-298.02 951.08,-289.66"/>
<polygon fill="#63b8ff" stroke="#63b8ff" points="951.26,-293.07 960.92,-288.73 950.65,-286.1 951.26,-293.07"/>
</g>
<!-- Node23 -->
<g id="node23" class="node">
<title>Node23</title>
<g id="a_node23"><a xlink:href="simulation__parameters_8h.html" target="_top" xlink:title="Classes collecting parameters for the simulation.">
<polygon fill="white" stroke="#666666" points="427.62,-240.25 305.12,-240.25 305.12,-221 427.62,-221 427.62,-240.25"/>
<text text-anchor="middle" x="366.38" y="-226.75" font-family="Helvetica,sans-Serif" font-size="10.00">simulation_parameters.h</text>
</a>
</g>
</g>
<!-- Node1&#45;&gt;Node23 -->
<g id="edge47" class="edge">
<title>Node1&#45;&gt;Node23</title>
<path fill="none" stroke="#63b8ff" d="M366.38,-331.25C366.38,-313.92 366.38,-275.23 366.38,-251.49"/>
<polygon fill="#63b8ff" stroke="#63b8ff" points="369.88,-251.63 366.38,-241.63 362.88,-251.63 369.88,-251.63"/>
</g>
<!-- Node3 -->
<g id="node3" class="node">
<title>Node3</title>
<g id="a_node3"><a xlink:title=" ">
<polygon fill="#e0e0e0" stroke="#999999" points="52.75,-74.5 0,-74.5 0,-55.25 52.75,-55.25 52.75,-74.5"/>
<text text-anchor="middle" x="26.38" y="-61" font-family="Helvetica,sans-Serif" font-size="10.00">complex</text>
</a>
</g>
</g>
<!-- Node2&#45;&gt;Node3 -->
<g id="edge2" class="edge">
<title>Node2&#45;&gt;Node3</title>
<path fill="none" stroke="#63b8ff" d="M161.34,-173.32C129.63,-170.62 76.47,-161.33 45.38,-129.75 33.82,-118.02 29.24,-99.59 27.45,-85.54"/>
<polygon fill="#63b8ff" stroke="#63b8ff" points="30.85,-85.25 26.49,-75.59 23.88,-85.86 30.85,-85.25"/>
</g>
<!-- Node4 -->
<g id="node4" class="node">
<title>Node4</title>
<g id="a_node4"><a xlink:title=" ">
<polygon fill="#e0e0e0" stroke="#999999" points="934.75,-129.75 876,-129.75 876,-110.5 934.75,-110.5 934.75,-129.75"/>
<text text-anchor="middle" x="905.38" y="-116.25" font-family="Helvetica,sans-Serif" font-size="10.00">stdexcept</text>
</a>
</g>
</g>
<!-- Node2&#45;&gt;Node4 -->
<g id="edge3" class="edge">
<title>Node2&#45;&gt;Node4</title>
<path fill="none" stroke="#63b8ff" d="M213.13,-172.93C324.65,-166.62 764.48,-141.43 864.85,-129.74"/>
<polygon fill="#63b8ff" stroke="#63b8ff" points="865.12,-133.11 874.59,-128.35 864.22,-126.16 865.12,-133.11"/>
</g>
<!-- Node5 -->
<g id="node5" class="node">
<title>Node5</title>
<g id="a_node5"><a xlink:title=" ">
<polygon fill="#e0e0e0" stroke="#999999" points="275.38,-74.5 235.38,-74.5 235.38,-55.25 275.38,-55.25 275.38,-74.5"/>
<text text-anchor="middle" x="255.38" y="-61" font-family="Helvetica,sans-Serif" font-size="10.00">string</text>
</a>
</g>
</g>
<!-- Node2&#45;&gt;Node5 -->
<g id="edge4" class="edge">
<title>Node2&#45;&gt;Node5</title>
<path fill="none" stroke="#63b8ff" d="M177.43,-165.31C164.69,-152.56 145.57,-128.84 157.38,-110.5 172.07,-87.67 201.63,-76.38 224.46,-70.88"/>
<polygon fill="#63b8ff" stroke="#63b8ff" points="224.99,-74.14 234.04,-68.63 223.53,-67.29 224.99,-74.14"/>
</g>
<!-- Node6 -->
<g id="node6" class="node">
<title>Node6</title>
<g id="a_node6"><a xlink:title=" ">
<polygon fill="#e0e0e0" stroke="#999999" points="665.88,-74.5 622.88,-74.5 622.88,-55.25 665.88,-55.25 665.88,-74.5"/>
<text text-anchor="middle" x="644.38" y="-61" font-family="Helvetica,sans-Serif" font-size="10.00">vector</text>
</a>
</g>
</g>
<!-- Node2&#45;&gt;Node6 -->
<g id="edge5" class="edge">
<title>Node2&#45;&gt;Node6</title>
<path fill="none" stroke="#63b8ff" d="M213.31,-172.81C262.69,-169.25 373.17,-158.51 461.38,-129.75 479.37,-123.88 481.82,-117.59 499.38,-110.5 537.27,-95.2 582.5,-82.05 612.25,-74.07"/>
<polygon fill="#63b8ff" stroke="#63b8ff" points="613.07,-77.21 621.85,-71.27 611.29,-70.44 613.07,-77.21"/>
</g>
<!-- Node7 -->
<g id="node7" class="node">
<title>Node7</title>
<g id="a_node7"><a xlink:title=" ">
<polygon fill="#e0e0e0" stroke="#999999" points="554.38,-129.75 508.38,-129.75 508.38,-110.5 554.38,-110.5 554.38,-129.75"/>
<text text-anchor="middle" x="531.38" y="-116.25" font-family="Helvetica,sans-Serif" font-size="10.00">fftw3.h</text>
</a>
</g>
</g>
<!-- Node2&#45;&gt;Node7 -->
<g id="edge6" class="edge">
<title>Node2&#45;&gt;Node7</title>
<path fill="none" stroke="#63b8ff" d="M213.37,-171.35C266.43,-165.01 390.91,-149.29 494.38,-129.75 495.34,-129.57 496.32,-129.38 497.3,-129.18"/>
<polygon fill="#63b8ff" stroke="#63b8ff" points="497.91,-132.42 506.95,-126.9 496.44,-125.57 497.91,-132.42"/>
</g>
<!-- Node8 -->
<g id="node8" class="node">
<title>Node8</title>
<g id="a_node8"><a xlink:title=" ">
<polygon fill="#e0e0e0" stroke="#999999" points="664.25,-129.75 572.5,-129.75 572.5,-110.5 664.25,-110.5 664.25,-129.75"/>
<text text-anchor="middle" x="618.38" y="-116.25" font-family="Helvetica,sans-Serif" font-size="10.00">arrays/tensor3d.h</text>
</a>
</g>
</g>
<!-- Node2&#45;&gt;Node8 -->
<g id="edge7" class="edge">
<title>Node2&#45;&gt;Node8</title>
<path fill="none" stroke="#63b8ff" d="M213.4,-171.63C273,-165.26 424.21,-148.69 561.48,-129.97"/>
<polygon fill="#63b8ff" stroke="#63b8ff" points="561.75,-133.32 571.18,-128.5 560.8,-126.39 561.75,-133.32"/>
</g>
<!-- Node9 -->
<g id="node9" class="node">
<title>Node9</title>
<g id="a_node9"><a xlink:href="globals_8h.html" target="_top" xlink:title="Type definitions and global constants.">
<polygon fill="white" stroke="#666666" points="109.88,-129.75 54.88,-129.75 54.88,-110.5 109.88,-110.5 109.88,-129.75"/>
<text text-anchor="middle" x="82.38" y="-116.25" font-family="Helvetica,sans-Serif" font-size="10.00">globals.h</text>
</a>
</g>
</g>
<!-- Node2&#45;&gt;Node9 -->
<g id="edge8" class="edge">
<title>Node2&#45;&gt;Node9</title>
<path fill="none" stroke="#63b8ff" d="M169.56,-165.34C153.27,-157.08 128.91,-144.73 110.08,-135.18"/>
<polygon fill="#63b8ff" stroke="#63b8ff" points="111.78,-131.6 101.27,-130.2 108.61,-137.85 111.78,-131.6"/>
</g>
<!-- Node10 -->
<g id="node10" class="node">
<title>Node10</title>
<g id="a_node10"><a xlink:title=" ">
<polygon fill="#e0e0e0" stroke="#999999" points="742.88,-129.75 681.88,-129.75 681.88,-110.5 742.88,-110.5 742.88,-129.75"/>
<text text-anchor="middle" x="712.38" y="-116.25" font-family="Helvetica,sans-Serif" font-size="10.00">matlabio.h</text>
</a>
</g>
</g>
<!-- Node2&#45;&gt;Node10 -->
<g id="edge11" class="edge">
<title>Node2&#45;&gt;Node10</title>
<path fill="none" stroke="#63b8ff" d="M213.33,-173.15C284.8,-169.52 490.57,-157.44 671.03,-129.93"/>
<polygon fill="#63b8ff" stroke="#63b8ff" points="671.44,-133.26 680.79,-128.27 670.37,-126.34 671.44,-133.26"/>
</g>
<!-- Node11 -->
<g id="node11" class="node">
<title>Node11</title>
<g id="a_node11"><a xlink:href="utils_8h.html" target="_top" xlink:title="Useful miscellaneous utility functions.">
<polygon fill="white" stroke="#666666" points="208.5,-129.75 166.25,-129.75 166.25,-110.5 208.5,-110.5 208.5,-129.75"/>
<text text-anchor="middle" x="187.38" y="-116.25" font-family="Helvetica,sans-Serif" font-size="10.00">utils.h</text>
</a>
</g>
</g>
<!-- Node2&#45;&gt;Node11 -->
<g id="edge12" class="edge">
<title>Node2&#45;&gt;Node11</title>
<path fill="none" stroke="#63b8ff" d="M187.38,-165.58C187.38,-158.92 187.38,-149.49 187.38,-141.03"/>
<polygon fill="#63b8ff" stroke="#63b8ff" points="190.88,-141.11 187.38,-131.11 183.88,-141.11 190.88,-141.11"/>
</g>
<!-- Node9&#45;&gt;Node3 -->
<g id="edge9" class="edge">
<title>Node9&#45;&gt;Node3</title>
<path fill="none" stroke="#63b8ff" d="M72.88,-110.09C64.86,-102.47 53.19,-91.37 43.55,-82.2"/>
<polygon fill="#63b8ff" stroke="#63b8ff" points="46.39,-80.13 36.73,-75.77 41.57,-85.2 46.39,-80.13"/>
</g>
<!-- Node9&#45;&gt;Node5 -->
<g id="edge10" class="edge">
<title>Node9&#45;&gt;Node5</title>
<path fill="none" stroke="#63b8ff" d="M110.17,-110.57C141.49,-100.93 192.26,-85.3 224.71,-75.31"/>
<polygon fill="#63b8ff" stroke="#63b8ff" points="225.43,-78.45 233.96,-72.16 223.37,-71.76 225.43,-78.45"/>
</g>
<!-- Node11&#45;&gt;Node5 -->
<g id="edge13" class="edge">
<title>Node11&#45;&gt;Node5</title>
<path fill="none" stroke="#63b8ff" d="M198.91,-110.09C208.94,-102.24 223.68,-90.7 235.58,-81.37"/>
<polygon fill="#63b8ff" stroke="#63b8ff" points="237.29,-83.7 243.01,-74.77 232.98,-78.18 237.29,-83.7"/>
</g>
<!-- Node12&#45;&gt;Node2 -->
<g id="edge16" class="edge">
<title>Node12&#45;&gt;Node2</title>
<path fill="none" stroke="#63b8ff" d="M961.93,-284.81C860.13,-284.29 425.22,-279.75 296.38,-240.25 262.55,-229.88 228.08,-207.22 207.2,-191.87"/>
<polygon fill="#63b8ff" stroke="#63b8ff" points="209.71,-188.63 199.62,-185.41 205.5,-194.22 209.71,-188.63"/>
</g>
<!-- Node12&#45;&gt;Node3 -->
<g id="edge15" class="edge">
<title>Node12&#45;&gt;Node3</title>
<path fill="none" stroke="#63b8ff" d="M962,-284.72C856.49,-283.8 390.63,-277.63 251.38,-240.25 145.31,-211.78 91,-221.31 30.38,-129.75 21.74,-116.71 21.39,-98.7 22.83,-85.12"/>
<polygon fill="#63b8ff" stroke="#63b8ff" points="26.39,-85.98 24.39,-75.57 19.46,-84.96 26.39,-85.98"/>
</g>
<!-- Node13 -->
<g id="node13" class="node">
<title>Node13</title>
<g id="a_node13"><a xlink:title=" ">
<polygon fill="#e0e0e0" stroke="#999999" points="1249.25,-240.25 1163.5,-240.25 1163.5,-221 1249.25,-221 1249.25,-240.25"/>
<text text-anchor="middle" x="1206.38" y="-226.75" font-family="Helvetica,sans-Serif" font-size="10.00">arrays/eh_vec.h</text>
</a>
</g>
</g>
<!-- Node12&#45;&gt;Node13 -->
<g id="edge17" class="edge">
<title>Node12&#45;&gt;Node13</title>
<path fill="none" stroke="#63b8ff" d="M1004.76,-279.77C1039.75,-271.41 1110.11,-254.61 1157.74,-243.24"/>
<polygon fill="#63b8ff" stroke="#63b8ff" points="1158.52,-246.41 1167.43,-240.69 1156.89,-239.6 1158.52,-246.41"/>
</g>
<!-- Node14 -->
<g id="node14" class="node">
<title>Node14</title>
<g id="a_node14"><a xlink:href="cell__coordinate_8h.html" target="_top" xlink:title="Container for {ijk} or {IJK} grouped variables.">
<polygon fill="white" stroke="#666666" points="1317.12,-185 1227.62,-185 1227.62,-165.75 1317.12,-165.75 1317.12,-185"/>
<text text-anchor="middle" x="1272.38" y="-171.5" font-family="Helvetica,sans-Serif" font-size="10.00">cell_coordinate.h</text>
</a>
</g>
</g>
<!-- Node12&#45;&gt;Node14 -->
<g id="edge18" class="edge">
<title>Node12&#45;&gt;Node14</title>
<path fill="none" stroke="#63b8ff" d="M1004.9,-284.4C1063.13,-282.68 1221.84,-274.83 1258.38,-240.25 1270.23,-229.03 1273.18,-210.27 1273.5,-195.98"/>
<polygon fill="#63b8ff" stroke="#63b8ff" points="1276.98,-196.21 1273.28,-186.28 1269.98,-196.35 1276.98,-196.21"/>
</g>
<!-- Node17 -->
<g id="node17" class="node">
<title>Node17</title>
<g id="a_node17"><a xlink:href="dimensions_8h.html" target="_top" xlink:title="Defines a class that serves as an explicit converter between MATLAB pointers and array dimensions.">
<polygon fill="white" stroke="#666666" points="1145.25,-240.25 1071.5,-240.25 1071.5,-221 1145.25,-221 1145.25,-240.25"/>
<text text-anchor="middle" x="1108.38" y="-226.75" font-family="Helvetica,sans-Serif" font-size="10.00">dimensions.h</text>
</a>
</g>
</g>
<!-- Node12&#45;&gt;Node17 -->
<g id="edge21" class="edge">
<title>Node12&#45;&gt;Node17</title>
<path fill="none" stroke="#63b8ff" d="M1004.58,-275.84C1024.51,-267.35 1054.59,-254.54 1077.24,-244.89"/>
<polygon fill="#63b8ff" stroke="#63b8ff" points="1078.24,-247.84 1086.07,-240.7 1075.49,-241.4 1078.24,-247.84"/>
</g>
<!-- Node18 -->
<g id="node18" class="node">
<title>Node18</title>
<g id="a_node18"><a xlink:href="mat__io_8h.html" target="_top" xlink:title="Includes MATLAB headers for I/O.">
<polygon fill="white" stroke="#666666" points="1065.12,-74.5 1011.62,-74.5 1011.62,-55.25 1065.12,-55.25 1065.12,-74.5"/>
<text text-anchor="middle" x="1038.38" y="-61" font-family="Helvetica,sans-Serif" font-size="10.00">mat_io.h</text>
</a>
</g>
</g>
<!-- Node12&#45;&gt;Node18 -->
<g id="edge33" class="edge">
<title>Node12&#45;&gt;Node18</title>
<path fill="none" stroke="#63b8ff" d="M988.69,-275.9C998.48,-258.85 1019.22,-220.35 1028.38,-185 1037.24,-150.78 1038.74,-109.37 1038.74,-85.48"/>
<polygon fill="#63b8ff" stroke="#63b8ff" points="1042.24,-85.68 1038.64,-75.71 1035.24,-85.75 1042.24,-85.68"/>
</g>
<!-- Node22 -->
<g id="node22" class="node">
<title>Node22</title>
<g id="a_node22"><a xlink:href="input__flags_8h.html" target="_top" xlink:title="Organises enumerated constants, names, and classes for handling flag&#45;variables that are passed to TDM...">
<polygon fill="white" stroke="#666666" points="1019.12,-185 947.62,-185 947.62,-165.75 1019.12,-165.75 1019.12,-185"/>
<text text-anchor="middle" x="983.38" y="-171.5" font-family="Helvetica,sans-Serif" font-size="10.00">input_flags.h</text>
</a>
</g>
</g>
<!-- Node12&#45;&gt;Node22 -->
<g id="edge26" class="edge">
<title>Node12&#45;&gt;Node22</title>
<path fill="none" stroke="#63b8ff" d="M983.38,-276C983.38,-258.67 983.38,-219.98 983.38,-196.24"/>
<polygon fill="#63b8ff" stroke="#63b8ff" points="986.88,-196.38 983.38,-186.38 979.88,-196.38 986.88,-196.38"/>
</g>
<!-- Node12&#45;&gt;Node23 -->
<g id="edge34" class="edge">
<title>Node12&#45;&gt;Node23</title>
<path fill="none" stroke="#63b8ff" d="M961.78,-283.01C878.78,-275.85 578.05,-249.89 438.46,-237.85"/>
<polygon fill="#63b8ff" stroke="#63b8ff" points="439.15,-234.31 428.89,-236.93 438.55,-241.28 439.15,-234.31"/>
</g>
<!-- Node15 -->
<g id="node15" class="node">
<title>Node15</title>
<g id="a_node15"><a xlink:title=" ">
<polygon fill="#e0e0e0" stroke="#999999" points="1226.5,-129.75 1142.25,-129.75 1142.25,-110.5 1226.5,-110.5 1226.5,-129.75"/>
<text text-anchor="middle" x="1184.38" y="-116.25" font-family="Helvetica,sans-Serif" font-size="10.00">spdlog/spdlog.h</text>
</a>
</g>
</g>
<!-- Node14&#45;&gt;Node15 -->
<g id="edge19" class="edge">
<title>Node14&#45;&gt;Node15</title>
<path fill="none" stroke="#63b8ff" d="M1257.45,-165.34C1244.05,-157.23 1224.13,-145.18 1208.48,-135.71"/>
<polygon fill="#63b8ff" stroke="#63b8ff" points="1210.74,-132.39 1200.38,-130.2 1207.12,-138.37 1210.74,-132.39"/>
</g>
<!-- Node16 -->
<g id="node16" class="node">
<title>Node16</title>
<g id="a_node16"><a xlink:title=" ">
<polygon fill="#e0e0e0" stroke="#999999" points="1300.25,-129.75 1244.5,-129.75 1244.5,-110.5 1300.25,-110.5 1300.25,-129.75"/>
<text text-anchor="middle" x="1272.38" y="-116.25" font-family="Helvetica,sans-Serif" font-size="10.00">algorithm</text>
</a>
</g>
</g>
<!-- Node14&#45;&gt;Node16 -->
<g id="edge20" class="edge">
<title>Node14&#45;&gt;Node16</title>
<path fill="none" stroke="#63b8ff" d="M1272.38,-165.58C1272.38,-158.92 1272.38,-149.49 1272.38,-141.03"/>
<polygon fill="#63b8ff" stroke="#63b8ff" points="1275.88,-141.11 1272.38,-131.11 1268.88,-141.11 1275.88,-141.11"/>
</g>
<!-- Node17&#45;&gt;Node18 -->
<g id="edge22" class="edge">
<title>Node17&#45;&gt;Node18</title>
<path fill="none" stroke="#63b8ff" d="M1109.06,-220.58C1110.22,-199.74 1110.74,-147.28 1090.38,-110.5 1083.84,-98.71 1072.91,-88.61 1062.74,-81.02"/>
<polygon fill="#63b8ff" stroke="#63b8ff" points="1064.98,-77.62 1054.78,-74.78 1060.98,-83.36 1064.98,-77.62"/>
</g>
<!-- Node19 -->
<g id="node19" class="node">
<title>Node19</title>
<g id="a_node19"><a xlink:title=" ">
<polygon fill="#e0e0e0" stroke="#999999" points="994.75,-19.25 954,-19.25 954,0 994.75,0 994.75,-19.25"/>
<text text-anchor="middle" x="974.38" y="-5.75" font-family="Helvetica,sans-Serif" font-size="10.00">mat.h</text>
</a>
</g>
</g>
<!-- Node18&#45;&gt;Node19 -->
<g id="edge23" class="edge">
<title>Node18&#45;&gt;Node19</title>
<path fill="none" stroke="#63b8ff" d="M1027.52,-54.84C1018.18,-47.07 1004.48,-35.67 993.33,-26.4"/>
<polygon fill="#63b8ff" stroke="#63b8ff" points="996,-23.23 986.07,-19.52 991.52,-28.61 996,-23.23"/>
</g>
<!-- Node20 -->
<g id="node20" class="node">
<title>Node20</title>
<g id="a_node20"><a xlink:title=" ">
<polygon fill="#e0e0e0" stroke="#999999" points="1064,-19.25 1012.75,-19.25 1012.75,0 1064,0 1064,-19.25"/>
<text text-anchor="middle" x="1038.38" y="-5.75" font-family="Helvetica,sans-Serif" font-size="10.00">matrix.h</text>
</a>
</g>
</g>
<!-- Node18&#45;&gt;Node20 -->
<g id="edge24" class="edge">
<title>Node18&#45;&gt;Node20</title>
<path fill="none" stroke="#63b8ff" d="M1038.38,-55.08C1038.38,-48.42 1038.38,-38.99 1038.38,-30.53"/>
<polygon fill="#63b8ff" stroke="#63b8ff" points="1041.88,-30.61 1038.38,-20.61 1034.88,-30.61 1041.88,-30.61"/>
</g>
<!-- Node21 -->
<g id="node21" class="node">
<title>Node21</title>
<g id="a_node21"><a xlink:title=" ">
<polygon fill="#e0e0e0" stroke="#999999" points="1124.88,-19.25 1081.88,-19.25 1081.88,0 1124.88,0 1124.88,-19.25"/>
<text text-anchor="middle" x="1103.38" y="-5.75" font-family="Helvetica,sans-Serif" font-size="10.00">mex.h</text>
</a>
</g>
</g>
<!-- Node18&#45;&gt;Node21 -->
<g id="edge25" class="edge">
<title>Node18&#45;&gt;Node21</title>
<path fill="none" stroke="#63b8ff" d="M1049.4,-54.84C1058.89,-47.07 1072.8,-35.67 1084.12,-26.4"/>
<polygon fill="#63b8ff" stroke="#63b8ff" points="1085.99,-28.57 1091.51,-19.52 1081.56,-23.15 1085.99,-28.57"/>
</g>
<!-- Node22&#45;&gt;Node4 -->
<g id="edge28" class="edge">
<title>Node22&#45;&gt;Node4</title>
<path fill="none" stroke="#63b8ff" d="M970.14,-165.34C958.49,-157.39 941.28,-145.64 927.53,-136.25"/>
<polygon fill="#63b8ff" stroke="#63b8ff" points="929.9,-132.95 919.67,-130.2 925.96,-138.73 929.9,-132.95"/>
</g>
<!-- Node22&#45;&gt;Node5 -->
<g id="edge29" class="edge">
<title>Node22&#45;&gt;Node5</title>
<path fill="none" stroke="#63b8ff" d="M947.26,-174.82C827.48,-175.85 444.48,-175.4 331.38,-129.75 306.52,-119.72 283.82,-98.31 269.83,-83.04"/>
<polygon fill="#63b8ff" stroke="#63b8ff" points="272.89,-81.08 263.65,-75.9 267.64,-85.71 272.89,-81.08"/>
</g>
<!-- Node22&#45;&gt;Node6 -->
<g id="edge30" class="edge">
<title>Node22&#45;&gt;Node6</title>
<path fill="none" stroke="#63b8ff" d="M980.61,-165.65C975.63,-151.51 963.74,-123.83 943.38,-110.5 900,-82.1 745.49,-70.96 677.21,-67.35"/>
<polygon fill="#63b8ff" stroke="#63b8ff" points="677.43,-63.81 667.27,-66.8 677.08,-70.8 677.43,-63.81"/>
</g>
<!-- Node22&#45;&gt;Node15 -->
<g id="edge31" class="edge">
<title>Node22&#45;&gt;Node15</title>
<path fill="none" stroke="#63b8ff" d="M1017.47,-165.34C1051.11,-156.43 1102.72,-142.76 1139.64,-132.98"/>
<polygon fill="#63b8ff" stroke="#63b8ff" points="1140.34,-136.15 1149.11,-130.2 1138.55,-129.38 1140.34,-136.15"/>
</g>
<!-- Node22&#45;&gt;Node16 -->
<g id="edge27" class="edge">
<title>Node22&#45;&gt;Node16</title>
<path fill="none" stroke="#63b8ff" d="M1019.38,-168.62C1066.33,-160.99 1151.25,-146.71 1233.35,-130.08"/>
<polygon fill="#63b8ff" stroke="#63b8ff" points="1234.03,-133.31 1243.13,-127.87 1232.63,-126.45 1234.03,-133.31"/>
</g>
<!-- Node22&#45;&gt;Node18 -->
<g id="edge32" class="edge">
<title>Node22&#45;&gt;Node18</title>
<path fill="none" stroke="#63b8ff" d="M990.48,-165.57C997.26,-156.85 1007.45,-142.95 1014.38,-129.75 1021.88,-115.45 1028.19,-98.28 1032.46,-85.34"/>
<polygon fill="#63b8ff" stroke="#63b8ff" points="1036.1,-86.44 1035.78,-75.85 1029.42,-84.33 1036.1,-86.44"/>
</g>
<!-- Node23&#45;&gt;Node2 -->
<g id="edge36" class="edge">
<title>Node23&#45;&gt;Node2</title>
<path fill="none" stroke="#63b8ff" d="M336.01,-220.59C304.87,-211.33 256.44,-196.92 223.38,-187.09"/>
<polygon fill="#63b8ff" stroke="#63b8ff" points="224.82,-183.56 214.23,-184.07 222.82,-190.27 224.82,-183.56"/>
</g>
<!-- Node23&#45;&gt;Node5 -->
<g id="edge35" class="edge">
<title>Node23&#45;&gt;Node5</title>
<path fill="none" stroke="#63b8ff" d="M356.13,-220.73C337.9,-204.4 299.67,-167.83 277.38,-129.75 269.21,-115.8 263.46,-98.36 259.89,-85.23"/>
<polygon fill="#63b8ff" stroke="#63b8ff" points="263.05,-84.45 257.22,-75.6 256.26,-86.16 263.05,-84.45"/>
</g>
<!-- Node24 -->
<g id="node24" class="node">
<title>Node24</title>
<g id="a_node24"><a xlink:href="input__matrices_8h.html" target="_top" xlink:title="Class handling the input matrices that are read in from the input file.">
<polygon fill="white" stroke="#666666" points="440.38,-185 352.38,-185 352.38,-165.75 440.38,-165.75 440.38,-185"/>
<text text-anchor="middle" x="396.38" y="-171.5" font-family="Helvetica,sans-Serif" font-size="10.00">input_matrices.h</text>
</a>
</g>
</g>
<!-- Node23&#45;&gt;Node24 -->
<g id="edge37" class="edge">
<title>Node23&#45;&gt;Node24</title>
<path fill="none" stroke="#63b8ff" d="M371.33,-220.83C375.3,-213.78 381.01,-203.65 385.98,-194.83"/>
<polygon fill="#63b8ff" stroke="#63b8ff" points="389.45,-196.79 391.31,-186.36 383.36,-193.35 389.45,-196.79"/>
</g>
<!-- Node24&#45;&gt;Node5 -->
<g id="edge38" class="edge">
<title>Node24&#45;&gt;Node5</title>
<path fill="none" stroke="#63b8ff" d="M365.65,-165.3C345,-158.09 318.06,-146.43 298.38,-129.75 283.58,-117.22 271.75,-98.39 264.27,-84.41"/>
<polygon fill="#63b8ff" stroke="#63b8ff" points="267.07,-83.19 259.42,-75.86 260.83,-86.36 267.07,-83.19"/>
</g>
<!-- Node24&#45;&gt;Node18 -->
<g id="edge42" class="edge">
<title>Node24&#45;&gt;Node18</title>
<path fill="none" stroke="#63b8ff" d="M440.63,-173.63C553.72,-171.29 850.86,-162.13 943.38,-129.75 973.36,-119.26 1002.94,-96.96 1020.93,-81.7"/>
<polygon fill="#63b8ff" stroke="#63b8ff" points="1022.54,-84.06 1027.78,-74.85 1017.94,-78.79 1022.54,-84.06"/>
</g>
<!-- Node25 -->
<g id="node25" class="node">
<title>Node25</title>
<g id="a_node25"><a xlink:href="input__output__names_8h.html" target="_top" xlink:title="Constant values associated with the format of the input and output files and matrices.">
<polygon fill="white" stroke="#666666" points="452.38,-129.75 340.38,-129.75 340.38,-110.5 452.38,-110.5 452.38,-129.75"/>
<text text-anchor="middle" x="396.38" y="-116.25" font-family="Helvetica,sans-Serif" font-size="10.00">input_output_names.h</text>
</a>
</g>
</g>
<!-- Node24&#45;&gt;Node25 -->
<g id="edge39" class="edge">
<title>Node24&#45;&gt;Node25</title>
<path fill="none" stroke="#63b8ff" d="M396.38,-165.58C396.38,-158.92 396.38,-149.49 396.38,-141.03"/>
<polygon fill="#63b8ff" stroke="#63b8ff" points="399.88,-141.11 396.38,-131.11 392.88,-141.11 399.88,-141.11"/>
</g>
<!-- Node26 -->
<g id="node26" class="node">
<title>Node26</title>
<g id="a_node26"><a xlink:href="matrix__collection_8h.html" target="_top" xlink:title="A collection of named MATLAB matrices.">
<polygon fill="white" stroke="#666666" points="858.25,-129.75 760.5,-129.75 760.5,-110.5 858.25,-110.5 858.25,-129.75"/>
<text text-anchor="middle" x="809.38" y="-116.25" font-family="Helvetica,sans-Serif" font-size="10.00">matrix_collection.h</text>
</a>
</g>
</g>
<!-- Node24&#45;&gt;Node26 -->
<g id="edge43" class="edge">
<title>Node24&#45;&gt;Node26</title>
<path fill="none" stroke="#63b8ff" d="M440.82,-169.17C506.27,-161.43 632.7,-146.17 749.7,-130.1"/>
<polygon fill="#63b8ff" stroke="#63b8ff" points="749.83,-133.47 759.26,-128.64 748.88,-126.54 749.83,-133.47"/>
</g>
<!-- Node25&#45;&gt;Node5 -->
<g id="edge40" class="edge">
<title>Node25&#45;&gt;Node5</title>
<path fill="none" stroke="#63b8ff" d="M372.46,-110.09C348.56,-101.07 311.75,-87.17 285.79,-77.36"/>
<polygon fill="#63b8ff" stroke="#63b8ff" points="287.34,-73.83 276.74,-73.57 284.86,-80.37 287.34,-73.83"/>
</g>
<!-- Node25&#45;&gt;Node6 -->
<g id="edge41" class="edge">
<title>Node25&#45;&gt;Node6</title>
<path fill="none" stroke="#63b8ff" d="M438.73,-110.03C487.83,-99.49 567.68,-82.34 612.05,-72.82"/>
<polygon fill="#63b8ff" stroke="#63b8ff" points="612.48,-76.09 621.52,-70.57 611.01,-69.24 612.48,-76.09"/>
</g>
<!-- Node26&#45;&gt;Node5 -->
<g id="edge44" class="edge">
<title>Node26&#45;&gt;Node5</title>
<path fill="none" stroke="#63b8ff" d="M760.28,-111.5C757.61,-111.15 754.96,-110.81 752.38,-110.5 576.53,-89.32 364.57,-73.51 286.33,-68"/>
<polygon fill="#63b8ff" stroke="#63b8ff" points="287,-64.47 276.78,-67.26 286.51,-71.45 287,-64.47"/>
</g>
<!-- Node26&#45;&gt;Node6 -->
<g id="edge45" class="edge">
<title>Node26&#45;&gt;Node6</title>
<path fill="none" stroke="#63b8ff" d="M781.38,-110.09C752.27,-100.7 706.76,-86.01 676.27,-76.17"/>
<polygon fill="#63b8ff" stroke="#63b8ff" points="677.76,-72.65 667.17,-72.91 675.61,-79.31 677.76,-72.65"/>
</g>
<!-- Node26&#45;&gt;Node18 -->
<g id="edge46" class="edge">
<title>Node26&#45;&gt;Node18</title>
<path fill="none" stroke="#63b8ff" d="M848.48,-110.03C891.05,-100.13 958.64,-84.42 1000.66,-74.65"/>
<polygon fill="#63b8ff" stroke="#63b8ff" points="1001.32,-77.85 1010.27,-72.18 999.74,-71.03 1001.32,-77.85"/>
</g>
</g>
</svg>
