<?xml version="1.0" encoding="UTF-8" standalone="no"?>
<!DOCTYPE svg PUBLIC "-//W3C//DTD SVG 1.1//EN"
 "http://www.w3.org/Graphics/SVG/1.1/DTD/svg11.dtd">
<!-- Generated by graphviz version 8.0.2 (20230410.1723)
 -->
<!-- Title: tdms/include/fieldsample.h Pages: 1 -->
<svg width="952pt" height="357pt"
 viewBox="0.00 0.00 951.53 357.00" xmlns="http://www.w3.org/2000/svg" xmlns:xlink="http://www.w3.org/1999/xlink">
<g id="graph0" class="graph" transform="scale(1 1) rotate(0) translate(4 353)">
<title>tdms/include/fieldsample.h</title>
<!-- Node1 -->
<g id="node1" class="node">
<title>Node1</title>
<g id="a_node1"><a xlink:title="Class that stores the extracted field values at user&#45;defined vertices.">
<polygon fill="#999999" stroke="#666666" points="404.64,-349 271.64,-349 271.64,-330 404.64,-330 404.64,-349"/>
<text text-anchor="middle" x="338.14" y="-337" font-family="Helvetica,sans-Serif" font-size="10.00">tdms/include/fieldsample.h</text>
</a>
</g>
</g>
<!-- Node2 -->
<g id="node2" class="node">
<title>Node2</title>
<g id="a_node2"><a xlink:href="arrays_8h.html" target="_top" xlink:title="Classes describing arrays, vertices etc.">
<polygon fill="white" stroke="#666666" points="416.14,-184 364.14,-184 364.14,-165 416.14,-165 416.14,-184"/>
<text text-anchor="middle" x="390.14" y="-172" font-family="Helvetica,sans-Serif" font-size="10.00">arrays.h</text>
</a>
</g>
</g>
<!-- Node1&#45;&gt;Node2 -->
<g id="edge1" class="edge">
<title>Node1&#45;&gt;Node2</title>
<path fill="none" stroke="#63b8ff" d="M338.15,-329.79C338.45,-309.64 340.89,-258.6 357.14,-220 361.33,-210.06 368.18,-200.29 374.55,-192.45"/>
<polygon fill="#63b8ff" stroke="#63b8ff" points="377.76,-195.09 381.63,-185.24 372.45,-190.52 377.76,-195.09"/>
</g>
<!-- Node10 -->
<g id="node10" class="node">
<title>Node10</title>
<g id="a_node10"><a xlink:href="field_8h.html" target="_top" xlink:title="Classes for the electric and magnetic (split) fields on a grid.">
<polygon fill="white" stroke="#666666" points="244.64,-294 201.64,-294 201.64,-275 244.64,-275 244.64,-294"/>
<text text-anchor="middle" x="223.14" y="-282" font-family="Helvetica,sans-Serif" font-size="10.00">field.h</text>
</a>
</g>
</g>
<!-- Node1&#45;&gt;Node10 -->
<g id="edge11" class="edge">
<title>Node1&#45;&gt;Node10</title>
<path fill="none" stroke="#63b8ff" d="M318.63,-329.51C300.43,-321.12 273.04,-308.5 252.26,-298.92"/>
<polygon fill="#63b8ff" stroke="#63b8ff" points="253.91,-295.36 243.36,-294.36 250.98,-301.72 253.91,-295.36"/>
</g>
<!-- Node19 -->
<g id="node19" class="node">
<title>Node19</title>
<g id="a_node19"><a xlink:href="simulation__parameters_8h.html" target="_top" xlink:title="Classes collecting parameters for the simulation.">
<polygon fill="white" stroke="#666666" points="489.64,-239 366.64,-239 366.64,-220 489.64,-220 489.64,-239"/>
<text text-anchor="middle" x="428.14" y="-227" font-family="Helvetica,sans-Serif" font-size="10.00">simulation_parameters.h</text>
</a>
</g>
</g>
<!-- Node1&#45;&gt;Node19 -->
<g id="edge37" class="edge">
<title>Node1&#45;&gt;Node19</title>
<path fill="none" stroke="#63b8ff" d="M345.51,-329.66C360.41,-311.78 394.35,-271.05 413.78,-247.73"/>
<polygon fill="#63b8ff" stroke="#63b8ff" points="416.96,-250.38 420.67,-240.46 411.58,-245.9 416.96,-250.38"/>
</g>
<!-- Node3 -->
<g id="node3" class="node">
<title>Node3</title>
<g id="a_node3"><a xlink:title=" ">
<polygon fill="#e0e0e0" stroke="#999999" points="116.64,-74 63.64,-74 63.64,-55 116.64,-55 116.64,-74"/>
<text text-anchor="middle" x="90.14" y="-62" font-family="Helvetica,sans-Serif" font-size="10.00">complex</text>
</a>
</g>
</g>
<!-- Node2&#45;&gt;Node3 -->
<g id="edge2" class="edge">
<title>Node2&#45;&gt;Node3</title>
<path fill="none" stroke="#63b8ff" d="M365.34,-164.57C312.1,-145.4 186.75,-100.28 125.32,-78.16"/>
<polygon fill="#63b8ff" stroke="#63b8ff" points="126.57,-74.53 115.98,-74.44 124.2,-81.12 126.57,-74.53"/>
</g>
<!-- Node4 -->
<g id="node4" class="node">
<title>Node4</title>
<g id="a_node4"><a xlink:title=" ">
<polygon fill="#e0e0e0" stroke="#999999" points="460.64,-129 401.64,-129 401.64,-110 460.64,-110 460.64,-129"/>
<text text-anchor="middle" x="431.14" y="-117" font-family="Helvetica,sans-Serif" font-size="10.00">stdexcept</text>
</a>
</g>
</g>
<!-- Node2&#45;&gt;Node4 -->
<g id="edge3" class="edge">
<title>Node2&#45;&gt;Node4</title>
<path fill="none" stroke="#63b8ff" d="M396.91,-164.75C402.52,-157.5 410.65,-146.98 417.59,-138.02"/>
<polygon fill="#63b8ff" stroke="#63b8ff" points="420.87,-140.49 424.22,-130.44 415.34,-136.21 420.87,-140.49"/>
</g>
<!-- Node5 -->
<g id="node5" class="node">
<title>Node5</title>
<g id="a_node5"><a xlink:title=" ">
<polygon fill="#e0e0e0" stroke="#999999" points="832.64,-74 791.64,-74 791.64,-55 832.64,-55 832.64,-74"/>
<text text-anchor="middle" x="812.14" y="-62" font-family="Helvetica,sans-Serif" font-size="10.00">string</text>
</a>
</g>
</g>
<!-- Node2&#45;&gt;Node5 -->
<g id="edge4" class="edge">
<title>Node2&#45;&gt;Node5</title>
<path fill="none" stroke="#63b8ff" d="M416.47,-172.53C489.35,-169.48 692.2,-158.5 751.14,-129 772,-118.56 789.66,-98.01 800.53,-83.11"/>
<polygon fill="#63b8ff" stroke="#63b8ff" points="803.82,-85.5 806.66,-75.29 798.08,-81.51 803.82,-85.5"/>
</g>
<!-- Node6 -->
<g id="node6" class="node">
<title>Node6</title>
<g id="a_node6"><a xlink:title=" ">
<polygon fill="#e0e0e0" stroke="#999999" points="525.64,-129 478.64,-129 478.64,-110 525.64,-110 525.64,-129"/>
<text text-anchor="middle" x="502.14" y="-117" font-family="Helvetica,sans-Serif" font-size="10.00">fftw3.h</text>
</a>
</g>
</g>
<!-- Node2&#45;&gt;Node6 -->
<g id="edge5" class="edge">
<title>Node2&#45;&gt;Node6</title>
<path fill="none" stroke="#63b8ff" d="M409.14,-164.51C426.79,-156.16 453.3,-143.61 473.51,-134.05"/>
<polygon fill="#63b8ff" stroke="#63b8ff" points="474.88,-136.8 482.42,-129.36 471.89,-130.47 474.88,-136.8"/>
</g>
<!-- Node7 -->
<g id="node7" class="node">
<title>Node7</title>
<g id="a_node7"><a xlink:href="globals_8h.html" target="_top" xlink:title="Type definitions and global constants.">
<polygon fill="white" stroke="#666666" points="118.14,-129 62.14,-129 62.14,-110 118.14,-110 118.14,-129"/>
<text text-anchor="middle" x="90.14" y="-117" font-family="Helvetica,sans-Serif" font-size="10.00">globals.h</text>
</a>
</g>
</g>
<!-- Node2&#45;&gt;Node7 -->
<g id="edge6" class="edge">
<title>Node2&#45;&gt;Node7</title>
<path fill="none" stroke="#63b8ff" d="M363.78,-168.84C310.77,-159.48 191.06,-138.33 129.03,-127.37"/>
<polygon fill="#63b8ff" stroke="#63b8ff" points="129.97,-123.8 119.51,-125.51 128.75,-130.7 129.97,-123.8"/>
</g>
<!-- Node8 -->
<g id="node8" class="node">
<title>Node8</title>
<g id="a_node8"><a xlink:title=" ">
<polygon fill="#e0e0e0" stroke="#999999" points="383.14,-129 321.14,-129 321.14,-110 383.14,-110 383.14,-129"/>
<text text-anchor="middle" x="352.14" y="-117" font-family="Helvetica,sans-Serif" font-size="10.00">matlabio.h</text>
</a>
</g>
</g>
<!-- Node2&#45;&gt;Node8 -->
<g id="edge8" class="edge">
<title>Node2&#45;&gt;Node8</title>
<path fill="none" stroke="#63b8ff" d="M383.87,-164.75C378.73,-157.58 371.29,-147.2 364.91,-138.3"/>
<polygon fill="#63b8ff" stroke="#63b8ff" points="367.22,-136.53 358.55,-130.44 361.54,-140.61 367.22,-136.53"/>
</g>
<!-- Node9 -->
<g id="node9" class="node">
<title>Node9</title>
<g id="a_node9"><a xlink:href="utils_8h.html" target="_top" xlink:title="Useful miscellaneous utility functions.">
<polygon fill="white" stroke="#666666" points="741.64,-129 698.64,-129 698.64,-110 741.64,-110 741.64,-129"/>
<text text-anchor="middle" x="720.14" y="-117" font-family="Helvetica,sans-Serif" font-size="10.00">utils.h</text>
</a>
</g>
</g>
<!-- Node2&#45;&gt;Node9 -->
<g id="edge9" class="edge">
<title>Node2&#45;&gt;Node9</title>
<path fill="none" stroke="#63b8ff" d="M416.33,-170.67C466.87,-164.99 581.55,-150.99 687.64,-129.08"/>
<polygon fill="#63b8ff" stroke="#63b8ff" points="688.14,-132.34 697.21,-126.86 686.7,-125.49 688.14,-132.34"/>
</g>
<!-- Node7&#45;&gt;Node3 -->
<g id="edge7" class="edge">
<title>Node7&#45;&gt;Node3</title>
<path fill="none" stroke="#63b8ff" d="M90.14,-109.75C90.14,-103.11 90.14,-93.73 90.14,-85.31"/>
<polygon fill="#63b8ff" stroke="#63b8ff" points="93.64,-85.44 90.14,-75.44 86.64,-85.44 93.64,-85.44"/>
</g>
<!-- Node9&#45;&gt;Node5 -->
<g id="edge10" class="edge">
<title>Node9&#45;&gt;Node5</title>
<path fill="none" stroke="#63b8ff" d="M735.75,-109.51C749.84,-101.39 770.83,-89.3 787.24,-79.85"/>
<polygon fill="#63b8ff" stroke="#63b8ff" points="788.85,-82.38 795.77,-74.36 785.35,-76.32 788.85,-82.38"/>
</g>
<!-- Node10&#45;&gt;Node2 -->
<g id="edge13" class="edge">
<title>Node10&#45;&gt;Node2</title>
<path fill="none" stroke="#63b8ff" d="M236.81,-274.66C265.43,-256.15 331.95,-213.13 367.22,-190.32"/>
<polygon fill="#63b8ff" stroke="#63b8ff" points="368.79,-192.83 375.29,-184.46 364.99,-186.95 368.79,-192.83"/>
</g>
<!-- Node10&#45;&gt;Node3 -->
<g id="edge12" class="edge">
<title>Node10&#45;&gt;Node3</title>
<path fill="none" stroke="#63b8ff" d="M201.33,-281.93C153.36,-278.01 41,-266.08 16.14,-239 -6.2,-214.67 -1.79,-196.17 9.14,-165 21.22,-130.58 50.99,-99.48 70.88,-81.54"/>
<polygon fill="#63b8ff" stroke="#63b8ff" points="72.74,-83.68 77.97,-74.47 68.13,-78.41 72.74,-83.68"/>
</g>
<!-- Node10&#45;&gt;Node7 -->
<g id="edge22" class="edge">
<title>Node10&#45;&gt;Node7</title>
<path fill="none" stroke="#63b8ff" d="M201.38,-281.07C157.36,-275.73 59.89,-261.6 36.14,-239 11.77,-215.8 3.94,-194.49 20.14,-165 27.73,-151.19 41.62,-141.05 55.04,-133.97"/>
<polygon fill="#63b8ff" stroke="#63b8ff" points="56.14,-136.85 63.63,-129.35 53.11,-130.54 56.14,-136.85"/>
</g>
<!-- Node11 -->
<g id="node11" class="node">
<title>Node11</title>
<g id="a_node11"><a xlink:href="cell__coordinate_8h.html" target="_top" xlink:title="Container for {ijk} or {IJK} grouped variables.">
<polygon fill="white" stroke="#666666" points="135.14,-239 45.14,-239 45.14,-220 135.14,-220 135.14,-239"/>
<text text-anchor="middle" x="90.14" y="-227" font-family="Helvetica,sans-Serif" font-size="10.00">cell_coordinate.h</text>
</a>
</g>
</g>
<!-- Node10&#45;&gt;Node11 -->
<g id="edge14" class="edge">
<title>Node10&#45;&gt;Node11</title>
<path fill="none" stroke="#63b8ff" d="M201.18,-274.75C179.84,-266.25 147.18,-253.23 122.8,-243.51"/>
<polygon fill="#63b8ff" stroke="#63b8ff" points="124.17,-239.89 113.58,-239.44 121.57,-246.4 124.17,-239.89"/>
</g>
<!-- Node14 -->
<g id="node14" class="node">
<title>Node14</title>
<g id="a_node14"><a xlink:href="dimensions_8h.html" target="_top" xlink:title="Defines a class that serves as an explicit converter between MATLAB pointers and array dimensions.">
<polygon fill="white" stroke="#666666" points="227.14,-239 153.14,-239 153.14,-220 227.14,-220 227.14,-239"/>
<text text-anchor="middle" x="190.14" y="-227" font-family="Helvetica,sans-Serif" font-size="10.00">dimensions.h</text>
</a>
</g>
</g>
<!-- Node10&#45;&gt;Node14 -->
<g id="edge17" class="edge">
<title>Node10&#45;&gt;Node14</title>
<path fill="none" stroke="#63b8ff" d="M217.69,-274.75C213.28,-267.66 206.91,-257.42 201.4,-248.59"/>
<polygon fill="#63b8ff" stroke="#63b8ff" points="203.97,-247.08 195.71,-240.44 198.02,-250.78 203.97,-247.08"/>
</g>
<!-- Node15 -->
<g id="node15" class="node">
<title>Node15</title>
<g id="a_node15"><a xlink:href="mat__io_8h.html" target="_top" xlink:title="Includes MATLAB headers for I/O.">
<polygon fill="white" stroke="#666666" points="431.14,-74 377.14,-74 377.14,-55 431.14,-55 431.14,-74"/>
<text text-anchor="middle" x="404.14" y="-62" font-family="Helvetica,sans-Serif" font-size="10.00">mat_io.h</text>
</a>
</g>
</g>
<!-- Node10&#45;&gt;Node15 -->
<g id="edge23" class="edge">
<title>Node10&#45;&gt;Node15</title>
<path fill="none" stroke="#63b8ff" d="M225.47,-274.72C233.2,-247.04 260.56,-160.39 312.14,-110 327.31,-95.18 348.38,-84.5 366.52,-77.32"/>
<polygon fill="#63b8ff" stroke="#63b8ff" points="367.65,-80.26 375.8,-73.49 365.21,-73.7 367.65,-80.26"/>
</g>
<!-- Node10&#45;&gt;Node19 -->
<g id="edge24" class="edge">
<title>Node10&#45;&gt;Node19</title>
<path fill="none" stroke="#63b8ff" d="M245.08,-277.83C277.84,-269.36 340.24,-253.22 383.01,-242.17"/>
<polygon fill="#63b8ff" stroke="#63b8ff" points="383.62,-245.37 392.42,-239.48 381.87,-238.59 383.62,-245.37"/>
</g>
<!-- Node12 -->
<g id="node12" class="node">
<title>Node12</title>
<g id="a_node12"><a xlink:title=" ">
<polygon fill="#e0e0e0" stroke="#999999" points="188.64,-184 103.64,-184 103.64,-165 188.64,-165 188.64,-184"/>
<text text-anchor="middle" x="146.14" y="-172" font-family="Helvetica,sans-Serif" font-size="10.00">spdlog/spdlog.h</text>
</a>
</g>
</g>
<!-- Node11&#45;&gt;Node12 -->
<g id="edge15" class="edge">
<title>Node11&#45;&gt;Node12</title>
<path fill="none" stroke="#63b8ff" d="M99.64,-219.51C107.65,-211.93 119.33,-200.88 128.97,-191.75"/>
<polygon fill="#63b8ff" stroke="#63b8ff" points="130.93,-194.77 135.78,-185.36 126.11,-189.69 130.93,-194.77"/>
</g>
<!-- Node13 -->
<g id="node13" class="node">
<title>Node13</title>
<g id="a_node13"><a xlink:title=" ">
<polygon fill="#e0e0e0" stroke="#999999" points="85.14,-184 29.14,-184 29.14,-165 85.14,-165 85.14,-184"/>
<text text-anchor="middle" x="57.14" y="-172" font-family="Helvetica,sans-Serif" font-size="10.00">algorithm</text>
</a>
</g>
</g>
<!-- Node11&#45;&gt;Node13 -->
<g id="edge16" class="edge">
<title>Node11&#45;&gt;Node13</title>
<path fill="none" stroke="#63b8ff" d="M84.69,-219.75C80.28,-212.66 73.91,-202.42 68.4,-193.59"/>
<polygon fill="#63b8ff" stroke="#63b8ff" points="70.97,-192.08 62.71,-185.44 65.02,-195.78 70.97,-192.08"/>
</g>
<!-- Node14&#45;&gt;Node15 -->
<g id="edge18" class="edge">
<title>Node14&#45;&gt;Node15</title>
<path fill="none" stroke="#63b8ff" d="M191.33,-219.53C194.75,-197.42 206.65,-139.97 241.14,-110 276.16,-79.57 330.11,-69.75 366.25,-66.7"/>
<polygon fill="#63b8ff" stroke="#63b8ff" points="366.12,-70.14 375.85,-65.95 365.63,-63.16 366.12,-70.14"/>
</g>
<!-- Node16 -->
<g id="node16" class="node">
<title>Node16</title>
<g id="a_node16"><a xlink:title=" ">
<polygon fill="#e0e0e0" stroke="#999999" points="359.64,-19 318.64,-19 318.64,0 359.64,0 359.64,-19"/>
<text text-anchor="middle" x="339.14" y="-7" font-family="Helvetica,sans-Serif" font-size="10.00">mat.h</text>
</a>
</g>
</g>
<!-- Node15&#45;&gt;Node16 -->
<g id="edge19" class="edge">
<title>Node15&#45;&gt;Node16</title>
<path fill="none" stroke="#63b8ff" d="M393.12,-54.51C383.63,-46.77 369.72,-35.43 358.4,-26.2"/>
<polygon fill="#63b8ff" stroke="#63b8ff" points="360.97,-22.96 351.01,-19.36 356.54,-28.39 360.97,-22.96"/>
</g>
<!-- Node17 -->
<g id="node17" class="node">
<title>Node17</title>
<g id="a_node17"><a xlink:title=" ">
<polygon fill="#e0e0e0" stroke="#999999" points="430.14,-19 378.14,-19 378.14,0 430.14,0 430.14,-19"/>
<text text-anchor="middle" x="404.14" y="-7" font-family="Helvetica,sans-Serif" font-size="10.00">matrix.h</text>
</a>
</g>
</g>
<!-- Node15&#45;&gt;Node17 -->
<g id="edge20" class="edge">
<title>Node15&#45;&gt;Node17</title>
<path fill="none" stroke="#63b8ff" d="M404.14,-54.75C404.14,-48.11 404.14,-38.73 404.14,-30.31"/>
<polygon fill="#63b8ff" stroke="#63b8ff" points="407.64,-30.44 404.14,-20.44 400.64,-30.44 407.64,-30.44"/>
</g>
<!-- Node18 -->
<g id="node18" class="node">
<title>Node18</title>
<g id="a_node18"><a xlink:title=" ">
<polygon fill="#e0e0e0" stroke="#999999" points="492.14,-19 448.14,-19 448.14,0 492.14,0 492.14,-19"/>
<text text-anchor="middle" x="470.14" y="-7" font-family="Helvetica,sans-Serif" font-size="10.00">mex.h</text>
</a>
</g>
</g>
<!-- Node15&#45;&gt;Node18 -->
<g id="edge21" class="edge">
<title>Node15&#45;&gt;Node18</title>
<path fill="none" stroke="#63b8ff" d="M415.34,-54.51C424.97,-46.77 439.09,-35.43 450.59,-26.2"/>
<polygon fill="#63b8ff" stroke="#63b8ff" points="452.51,-28.35 458.11,-19.36 448.12,-22.89 452.51,-28.35"/>
</g>
<!-- Node19&#45;&gt;Node2 -->
<g id="edge26" class="edge">
<title>Node19&#45;&gt;Node2</title>
<path fill="none" stroke="#63b8ff" d="M421.87,-219.75C416.73,-212.58 409.29,-202.2 402.91,-193.3"/>
<polygon fill="#63b8ff" stroke="#63b8ff" points="405.22,-191.53 396.55,-185.44 399.54,-195.61 405.22,-191.53"/>
</g>
<!-- Node19&#45;&gt;Node5 -->
<g id="edge25" class="edge">
<title>Node19&#45;&gt;Node5</title>
<path fill="none" stroke="#63b8ff" d="M489.8,-225.99C612.83,-219.54 881.8,-197.73 937.14,-129 965.01,-94.4 889.59,-76.86 844,-69.64"/>
<polygon fill="#63b8ff" stroke="#63b8ff" points="844.54,-66.03 834.14,-68.02 843.51,-72.95 844.54,-66.03"/>
</g>
<!-- Node20 -->
<g id="node20" class="node">
<title>Node20</title>
<g id="a_node20"><a xlink:href="input__matrices_8h.html" target="_top" xlink:title="Class handling the input matrices that are read in from the input file.">
<polygon fill="white" stroke="#666666" points="675.64,-184 586.64,-184 586.64,-165 675.64,-165 675.64,-184"/>
<text text-anchor="middle" x="631.14" y="-172" font-family="Helvetica,sans-Serif" font-size="10.00">input_matrices.h</text>
</a>
</g>
</g>
<!-- Node19&#45;&gt;Node20 -->
<g id="edge27" class="edge">
<title>Node19&#45;&gt;Node20</title>
<path fill="none" stroke="#63b8ff" d="M462.58,-219.51C496.66,-210.61 548.99,-196.95 586.3,-187.21"/>
<polygon fill="#63b8ff" stroke="#63b8ff" points="587.08,-190.36 595.88,-184.45 585.32,-183.59 587.08,-190.36"/>
</g>
<!-- Node20&#45;&gt;Node5 -->
<g id="edge28" class="edge">
<title>Node20&#45;&gt;Node5</title>
<path fill="none" stroke="#63b8ff" d="M675.93,-173.43C749.31,-172.25 890.08,-165.19 921.14,-129 946.49,-99.47 884.12,-80.34 843.6,-71.4"/>
<polygon fill="#63b8ff" stroke="#63b8ff" points="844.6,-67.82 834.09,-69.2 843.16,-74.67 844.6,-67.82"/>
</g>
<!-- Node20&#45;&gt;Node15 -->
<g id="edge32" class="edge">
<title>Node20&#45;&gt;Node15</title>
<path fill="none" stroke="#63b8ff" d="M619.76,-164.68C602.19,-151.4 567.05,-126.09 534.14,-110 504.29,-95.4 468.43,-83.52 441.94,-75.71"/>
<polygon fill="#63b8ff" stroke="#63b8ff" points="443.15,-72.13 432.57,-72.72 441.21,-78.85 443.15,-72.13"/>
</g>
<!-- Node21 -->
<g id="node21" class="node">
<title>Node21</title>
<g id="a_node21"><a xlink:href="input__output__names_8h.html" target="_top" xlink:title="Constant values associated with the format of the input and output files and matrices.">
<polygon fill="white" stroke="#666666" points="911.64,-129 798.64,-129 798.64,-110 911.64,-110 911.64,-129"/>
<text text-anchor="middle" x="855.14" y="-117" font-family="Helvetica,sans-Serif" font-size="10.00">input_output_names.h</text>
</a>
</g>
</g>
<!-- Node20&#45;&gt;Node21 -->
<g id="edge29" class="edge">
<title>Node20&#45;&gt;Node21</title>
<path fill="none" stroke="#63b8ff" d="M669.14,-164.51C707.07,-155.54 765.49,-141.71 806.72,-131.96"/>
<polygon fill="#63b8ff" stroke="#63b8ff" points="807.41,-135.15 816.33,-129.45 805.79,-128.34 807.41,-135.15"/>
</g>
<!-- Node23 -->
<g id="node23" class="node">
<title>Node23</title>
<g id="a_node23"><a xlink:href="matrix__collection_8h.html" target="_top" xlink:title="A collection of named MATLAB matrices.">
<polygon fill="white" stroke="#666666" points="680.14,-129 582.14,-129 582.14,-110 680.14,-110 680.14,-129"/>
<text text-anchor="middle" x="631.14" y="-117" font-family="Helvetica,sans-Serif" font-size="10.00">matrix_collection.h</text>
</a>
</g>
</g>
<!-- Node20&#45;&gt;Node23 -->
<g id="edge33" class="edge">
<title>Node20&#45;&gt;Node23</title>
<path fill="none" stroke="#63b8ff" d="M631.14,-164.75C631.14,-158.11 631.14,-148.73 631.14,-140.31"/>
<polygon fill="#63b8ff" stroke="#63b8ff" points="634.64,-140.44 631.14,-130.44 627.64,-140.44 634.64,-140.44"/>
</g>
<!-- Node21&#45;&gt;Node5 -->
<g id="edge30" class="edge">
<title>Node21&#45;&gt;Node5</title>
<path fill="none" stroke="#63b8ff" d="M848.04,-109.75C842.1,-102.43 833.45,-91.76 826.13,-82.74"/>
<polygon fill="#63b8ff" stroke="#63b8ff" points="828.41,-81 819.4,-75.44 822.98,-85.41 828.41,-81"/>
</g>
<!-- Node22 -->
<g id="node22" class="node">
<title>Node22</title>
<g id="a_node22"><a xlink:title=" ">
<polygon fill="#e0e0e0" stroke="#999999" points="692.14,-74 648.14,-74 648.14,-55 692.14,-55 692.14,-74"/>
<text text-anchor="middle" x="670.14" y="-62" font-family="Helvetica,sans-Serif" font-size="10.00">vector</text>
</a>
</g>
</g>
<!-- Node21&#45;&gt;Node22 -->
<g id="edge31" class="edge">
<title>Node21&#45;&gt;Node22</title>
<path fill="none" stroke="#63b8ff" d="M823.76,-109.51C790.18,-99.89 737.15,-84.7 703.01,-74.92"/>
<polygon fill="#63b8ff" stroke="#63b8ff" points="704.21,-71.33 693.63,-71.94 702.28,-78.06 704.21,-71.33"/>
</g>
<!-- Node23&#45;&gt;Node5 -->
<g id="edge34" class="edge">
<title>Node23&#45;&gt;Node5</title>
<path fill="none" stroke="#63b8ff" d="M661.85,-109.51C694.92,-99.82 747.28,-84.49 780.66,-74.72"/>
<polygon fill="#63b8ff" stroke="#63b8ff" points="781.58,-77.8 790.19,-71.63 779.61,-71.09 781.58,-77.8"/>
</g>
<!-- Node23&#45;&gt;Node15 -->
<g id="edge36" class="edge">
<title>Node23&#45;&gt;Node15</title>
<path fill="none" stroke="#63b8ff" d="M592.63,-109.51C550.6,-99.7 483.73,-84.08 441.97,-74.33"/>
<polygon fill="#63b8ff" stroke="#63b8ff" points="442.94,-70.73 432.41,-71.87 441.35,-77.55 442.94,-70.73"/>
</g>
<!-- Node23&#45;&gt;Node22 -->
<g id="edge35" class="edge">
<title>Node23&#45;&gt;Node22</title>
<path fill="none" stroke="#63b8ff" d="M637.58,-109.75C642.91,-102.5 650.65,-91.98 657.25,-83.02"/>
<polygon fill="#63b8ff" stroke="#63b8ff" points="660.45,-85.57 663.56,-75.44 654.82,-81.42 660.45,-85.57"/>
</g>
</g>
</svg>
