<?xml version="1.0" encoding="UTF-8" standalone="no"?>
<!DOCTYPE svg PUBLIC "-//W3C//DTD SVG 1.1//EN"
 "http://www.w3.org/Graphics/SVG/1.1/DTD/svg11.dtd">
<!-- Generated by graphviz version 13.1.0 (20250701.0955)
 -->
<!-- Title: tdms/include/fieldsample.h Pages: 1 -->
<svg width="1063pt" height="359pt"
 viewBox="0.00 0.00 1063.00 359.00" xmlns="http://www.w3.org/2000/svg" xmlns:xlink="http://www.w3.org/1999/xlink">
<g id="graph0" class="graph" transform="scale(1 1) rotate(0) translate(4 354.75)">
<title>tdms/include/fieldsample.h</title>
<!-- Node1 -->
<g id="Node000001" class="node">
<title>Node1</title>
<g id="a_Node000001"><a xlink:title="Class that stores the extracted field values at user&#45;defined vertices.">
<polygon fill="#999999" stroke="#666666" points="488.36,-350.75 356.11,-350.75 356.11,-331.5 488.36,-331.5 488.36,-350.75"/>
<text xml:space="preserve" text-anchor="middle" x="422.24" y="-337.25" font-family="Helvetica,sans-Serif" font-size="10.00">tdms/include/fieldsample.h</text>
</a>
</g>
</g>
<!-- Node2 -->
<g id="Node000002" class="node">
<title>Node2</title>
<g id="a_Node000002"><a xlink:href="arrays_8h.html" target="_top" xlink:title="Classes describing arrays, vertices etc.">
<polygon fill="white" stroke="#666666" points="358.86,-185 307.61,-185 307.61,-165.75 358.86,-165.75 358.86,-185"/>
<text xml:space="preserve" text-anchor="middle" x="333.24" y="-171.5" font-family="Helvetica,sans-Serif" font-size="10.00">arrays.h</text>
</a>
</g>
</g>
<!-- Node1&#45;&gt;Node2 -->
<g id="edge1_Node000001_Node000002" class="edge">
<title>Node1&#45;&gt;Node2</title>
<g id="a_edge1_Node000001_Node000002"><a xlink:title=" ">
<path fill="none" stroke="#63b8ff" d="M423.16,-331.18C424.86,-310.09 426.45,-256.37 403.24,-221 394.54,-207.75 380.4,-197.65 367.1,-190.44"/>
<polygon fill="#63b8ff" stroke="#63b8ff" points="369.05,-187.5 358.54,-186.16 365.92,-193.76 369.05,-187.5"/>
</a>
</g>
</g>
<!-- Node13 -->
<g id="Node000013" class="node">
<title>Node13</title>
<g id="a_Node000013"><a xlink:href="field_8h.html" target="_top" xlink:title="Classes for the electric and magnetic (split) fields on a grid.">
<polygon fill="white" stroke="#666666" points="674.36,-295.5 632.11,-295.5 632.11,-276.25 674.36,-276.25 674.36,-295.5"/>
<text xml:space="preserve" text-anchor="middle" x="653.24" y="-282" font-family="Helvetica,sans-Serif" font-size="10.00">field.h</text>
</a>
</g>
</g>
<!-- Node1&#45;&gt;Node13 -->
<g id="edge16_Node000001_Node000013" class="edge">
<title>Node1&#45;&gt;Node13</title>
<g id="a_edge16_Node000001_Node000013"><a xlink:title=" ">
<path fill="none" stroke="#63b8ff" d="M461.69,-331.03C506.47,-320.71 578.7,-304.06 620.5,-294.42"/>
<polygon fill="#63b8ff" stroke="#63b8ff" points="621.24,-297.84 630.2,-292.19 619.67,-291.02 621.24,-297.84"/>
</a>
</g>
</g>
<!-- Node24 -->
<g id="Node000024" class="node">
<title>Node24</title>
<g id="a_Node000024"><a xlink:href="simulation__parameters_8h.html" target="_top" xlink:title="Classes collecting parameters for the simulation.">
<polygon fill="white" stroke="#666666" points="394.49,-240.25 271.99,-240.25 271.99,-221 394.49,-221 394.49,-240.25"/>
<text xml:space="preserve" text-anchor="middle" x="333.24" y="-226.75" font-family="Helvetica,sans-Serif" font-size="10.00">simulation_parameters.h</text>
</a>
</g>
</g>
<!-- Node1&#45;&gt;Node24 -->
<g id="edge51_Node000001_Node000024" class="edge">
<title>Node1&#45;&gt;Node24</title>
<g id="a_edge51_Node000001_Node000024"><a xlink:title=" ">
<path fill="none" stroke="#63b8ff" d="M414.95,-331.25C400.29,-313.36 366.95,-272.72 347.69,-249.25"/>
<polygon fill="#63b8ff" stroke="#63b8ff" points="350.63,-247.31 341.58,-241.8 345.22,-251.75 350.63,-247.31"/>
</a>
</g>
</g>
<!-- Node3 -->
<g id="Node000003" class="node">
<title>Node3</title>
<g id="a_Node000003"><a xlink:title=" ">
<polygon fill="#e0e0e0" stroke="#999999" points="70.61,-74.5 17.86,-74.5 17.86,-55.25 70.61,-55.25 70.61,-74.5"/>
<text xml:space="preserve" text-anchor="middle" x="44.24" y="-61" font-family="Helvetica,sans-Serif" font-size="10.00">complex</text>
</a>
</g>
</g>
<!-- Node2&#45;&gt;Node3 -->
<g id="edge2_Node000002_Node000003" class="edge">
<title>Node2&#45;&gt;Node3</title>
<g id="a_edge2_Node000002_Node000003"><a xlink:title=" ">
<path fill="none" stroke="#63b8ff" d="M307.52,-173.51C247.26,-170.97 99.32,-161.57 63.24,-129.75 50.89,-118.86 46.4,-100.34 44.84,-86.03"/>
<polygon fill="#63b8ff" stroke="#63b8ff" points="48.36,-86.11 44.21,-76.36 41.37,-86.57 48.36,-86.11"/>
</a>
</g>
</g>
<!-- Node4 -->
<g id="Node000004" class="node">
<title>Node4</title>
<g id="a_Node000004"><a xlink:title=" ">
<polygon fill="#e0e0e0" stroke="#999999" points="780.61,-74.5 721.86,-74.5 721.86,-55.25 780.61,-55.25 780.61,-74.5"/>
<text xml:space="preserve" text-anchor="middle" x="751.24" y="-61" font-family="Helvetica,sans-Serif" font-size="10.00">stdexcept</text>
</a>
</g>
</g>
<!-- Node2&#45;&gt;Node4 -->
<g id="edge3_Node000002_Node000004" class="edge">
<title>Node2&#45;&gt;Node4</title>
<g id="a_edge3_Node000002_Node000004"><a xlink:title=" ">
<path fill="none" stroke="#63b8ff" d="M359.26,-171.29C373.44,-169.62 391.3,-167.54 407.24,-165.75 480.98,-157.45 684.76,-180.15 739.24,-129.75 751.02,-118.85 753.41,-100.32 753.21,-86.03"/>
<polygon fill="#63b8ff" stroke="#63b8ff" points="756.73,-86.13 752.63,-76.36 749.74,-86.55 756.73,-86.13"/>
</a>
</g>
</g>
<!-- Node5 -->
<g id="Node000005" class="node">
<title>Node5</title>
<g id="a_Node000005"><a xlink:title=" ">
<polygon fill="#e0e0e0" stroke="#999999" points="438.24,-74.5 398.24,-74.5 398.24,-55.25 438.24,-55.25 438.24,-74.5"/>
<text xml:space="preserve" text-anchor="middle" x="418.24" y="-61" font-family="Helvetica,sans-Serif" font-size="10.00">string</text>
</a>
</g>
</g>
<!-- Node2&#45;&gt;Node5 -->
<g id="edge4_Node000002_Node000005" class="edge">
<title>Node2&#45;&gt;Node5</title>
<g id="a_edge4_Node000002_Node000005"><a xlink:title=" ">
<path fill="none" stroke="#63b8ff" d="M307.13,-170.68C264,-163.5 185.25,-145.23 213.24,-110.5 234.65,-83.92 334.57,-72.34 386.58,-68.05"/>
<polygon fill="#63b8ff" stroke="#63b8ff" points="386.6,-71.56 396.29,-67.29 386.05,-64.58 386.6,-71.56"/>
</a>
</g>
</g>
<!-- Node6 -->
<g id="Node000006" class="node">
<title>Node6</title>
<g id="a_Node000006"><a xlink:title=" ">
<polygon fill="#e0e0e0" stroke="#999999" points="632.74,-74.5 589.74,-74.5 589.74,-55.25 632.74,-55.25 632.74,-74.5"/>
<text xml:space="preserve" text-anchor="middle" x="611.24" y="-61" font-family="Helvetica,sans-Serif" font-size="10.00">vector</text>
</a>
</g>
</g>
<!-- Node2&#45;&gt;Node6 -->
<g id="edge5_Node000002_Node000006" class="edge">
<title>Node2&#45;&gt;Node6</title>
<g id="a_edge5_Node000002_Node000006"><a xlink:title=" ">
<path fill="none" stroke="#63b8ff" d="M358.91,-171.25C419.52,-163.68 567.7,-143.92 585.24,-129.75 598.49,-119.04 605.04,-100.5 608.25,-86.14"/>
<polygon fill="#63b8ff" stroke="#63b8ff" points="611.68,-86.86 610.02,-76.39 604.79,-85.61 611.68,-86.86"/>
</a>
</g>
</g>
<!-- Node7 -->
<g id="Node000007" class="node">
<title>Node7</title>
<g id="a_Node000007"><a xlink:title=" ">
<polygon fill="#e0e0e0" stroke="#999999" points="268.24,-129.75 222.24,-129.75 222.24,-110.5 268.24,-110.5 268.24,-129.75"/>
<text xml:space="preserve" text-anchor="middle" x="245.24" y="-116.25" font-family="Helvetica,sans-Serif" font-size="10.00">fftw3.h</text>
</a>
</g>
</g>
<!-- Node2&#45;&gt;Node7 -->
<g id="edge6_Node000002_Node000007" class="edge">
<title>Node2&#45;&gt;Node7</title>
<g id="a_edge6_Node000002_Node000007"><a xlink:title=" ">
<path fill="none" stroke="#63b8ff" d="M318.31,-165.34C305.03,-157.31 285.37,-145.41 269.78,-135.98"/>
<polygon fill="#63b8ff" stroke="#63b8ff" points="271.9,-133.17 261.53,-130.99 268.28,-139.16 271.9,-133.17"/>
</a>
</g>
</g>
<!-- Node8 -->
<g id="Node000008" class="node">
<title>Node8</title>
<g id="a_Node000008"><a xlink:href="globals_8h.html" target="_top" xlink:title="Type definitions and global constants.">
<polygon fill="white" stroke="#666666" points="127.74,-129.75 72.74,-129.75 72.74,-110.5 127.74,-110.5 127.74,-129.75"/>
<text xml:space="preserve" text-anchor="middle" x="100.24" y="-116.25" font-family="Helvetica,sans-Serif" font-size="10.00">globals.h</text>
</a>
</g>
</g>
<!-- Node2&#45;&gt;Node8 -->
<g id="edge7_Node000002_Node000008" class="edge">
<title>Node2&#45;&gt;Node8</title>
<g id="a_edge7_Node000002_Node000008"><a xlink:title=" ">
<path fill="none" stroke="#63b8ff" d="M307.41,-168.47C266.58,-159.14 186.87,-140.92 139.11,-130.01"/>
<polygon fill="#63b8ff" stroke="#63b8ff" points="139.99,-126.62 129.46,-127.8 138.43,-133.44 139.99,-126.62"/>
</a>
</g>
</g>
<!-- Node9 -->
<g id="Node000009" class="node">
<title>Node9</title>
<g id="a_Node000009"><a xlink:title=" ">
<polygon fill="#e0e0e0" stroke="#999999" points="347.74,-129.75 286.74,-129.75 286.74,-110.5 347.74,-110.5 347.74,-129.75"/>
<text xml:space="preserve" text-anchor="middle" x="317.24" y="-116.25" font-family="Helvetica,sans-Serif" font-size="10.00">matlabio.h</text>
</a>
</g>
</g>
<!-- Node2&#45;&gt;Node9 -->
<g id="edge10_Node000002_Node000009" class="edge">
<title>Node2&#45;&gt;Node9</title>
<g id="a_edge10_Node000002_Node000009"><a xlink:title=" ">
<path fill="none" stroke="#63b8ff" d="M330.6,-165.58C328.59,-158.92 325.76,-149.49 323.22,-141.03"/>
<polygon fill="#63b8ff" stroke="#63b8ff" points="326.6,-140.13 320.37,-131.56 319.9,-142.14 326.6,-140.13"/>
</a>
</g>
</g>
<!-- Node10 -->
<g id="Node000010" class="node">
<title>Node10</title>
<g id="a_Node000010"><a xlink:href="utils_8h.html" target="_top" xlink:title="Useful miscellaneous utility functions.">
<polygon fill="white" stroke="#666666" points="576.36,-129.75 534.11,-129.75 534.11,-110.5 576.36,-110.5 576.36,-129.75"/>
<text xml:space="preserve" text-anchor="middle" x="555.24" y="-116.25" font-family="Helvetica,sans-Serif" font-size="10.00">utils.h</text>
</a>
</g>
</g>
<!-- Node2&#45;&gt;Node10 -->
<g id="edge11_Node000002_Node000010" class="edge">
<title>Node2&#45;&gt;Node10</title>
<g id="a_edge11_Node000002_Node000010"><a xlink:title=" ">
<path fill="none" stroke="#63b8ff" d="M359.12,-168.8C394.07,-161.19 458.55,-146.8 522.55,-130.35"/>
<polygon fill="#63b8ff" stroke="#63b8ff" points="523.38,-133.75 532.18,-127.86 521.62,-126.98 523.38,-133.75"/>
</a>
</g>
</g>
<!-- Node8&#45;&gt;Node3 -->
<g id="edge8_Node000008_Node000003" class="edge">
<title>Node8&#45;&gt;Node3</title>
<g id="a_edge8_Node000008_Node000003"><a xlink:title=" ">
<path fill="none" stroke="#63b8ff" d="M90.74,-110.09C82.81,-102.55 71.29,-91.6 61.7,-82.48"/>
<polygon fill="#63b8ff" stroke="#63b8ff" points="64.35,-80.17 54.69,-75.82 59.53,-85.24 64.35,-80.17"/>
</a>
</g>
</g>
<!-- Node8&#45;&gt;Node5 -->
<g id="edge9_Node000008_Node000005" class="edge">
<title>Node8&#45;&gt;Node5</title>
<g id="a_edge9_Node000008_Node000005"><a xlink:title=" ">
<path fill="none" stroke="#63b8ff" d="M128.22,-113.21C132.89,-112.27 137.7,-111.33 142.24,-110.5 230.41,-94.33 335.02,-78.26 386.45,-70.57"/>
<polygon fill="#63b8ff" stroke="#63b8ff" points="386.89,-74.04 396.26,-69.11 385.85,-67.12 386.89,-74.04"/>
</a>
</g>
</g>
<!-- Node10&#45;&gt;Node5 -->
<g id="edge14_Node000010_Node000005" class="edge">
<title>Node10&#45;&gt;Node5</title>
<g id="a_edge14_Node000010_Node000005"><a xlink:title=" ">
<path fill="none" stroke="#63b8ff" d="M533.83,-110.8C511.15,-101.99 475.11,-87.98 449.31,-77.95"/>
<polygon fill="#63b8ff" stroke="#63b8ff" points="450.6,-74.7 440.01,-74.34 448.06,-81.22 450.6,-74.7"/>
</a>
</g>
</g>
<!-- Node10&#45;&gt;Node6 -->
<g id="edge15_Node000010_Node000006" class="edge">
<title>Node10&#45;&gt;Node6</title>
<g id="a_edge15_Node000010_Node000006"><a xlink:title=" ">
<path fill="none" stroke="#63b8ff" d="M564.74,-110.09C572.67,-102.55 584.19,-91.6 593.77,-82.48"/>
<polygon fill="#63b8ff" stroke="#63b8ff" points="595.95,-85.24 600.78,-75.82 591.12,-80.17 595.95,-85.24"/>
</a>
</g>
</g>
<!-- Node11 -->
<g id="Node000011" class="node">
<title>Node11</title>
<g id="a_Node000011"><a xlink:title=" ">
<polygon fill="#e0e0e0" stroke="#999999" points="854.11,-74.5 798.36,-74.5 798.36,-55.25 854.11,-55.25 854.11,-74.5"/>
<text xml:space="preserve" text-anchor="middle" x="826.24" y="-61" font-family="Helvetica,sans-Serif" font-size="10.00">algorithm</text>
</a>
</g>
</g>
<!-- Node10&#45;&gt;Node11 -->
<g id="edge12_Node000010_Node000011" class="edge">
<title>Node10&#45;&gt;Node11</title>
<g id="a_edge12_Node000010_Node000011"><a xlink:title=" ">
<path fill="none" stroke="#63b8ff" d="M576.59,-115.35C616.03,-108.32 703.22,-92.48 786.76,-74.96"/>
<polygon fill="#63b8ff" stroke="#63b8ff" points="787.44,-78.39 796.5,-72.9 785.99,-71.54 787.44,-78.39"/>
</a>
</g>
</g>
<!-- Node12 -->
<g id="Node000012" class="node">
<title>Node12</title>
<g id="a_Node000012"><a xlink:title=" ">
<polygon fill="#e0e0e0" stroke="#999999" points="571.24,-74.5 525.24,-74.5 525.24,-55.25 571.24,-55.25 571.24,-74.5"/>
<text xml:space="preserve" text-anchor="middle" x="548.24" y="-61" font-family="Helvetica,sans-Serif" font-size="10.00">iterator</text>
</a>
</g>
</g>
<!-- Node10&#45;&gt;Node12 -->
<g id="edge13_Node000010_Node000012" class="edge">
<title>Node10&#45;&gt;Node12</title>
<g id="a_edge13_Node000010_Node000012"><a xlink:title=" ">
<path fill="none" stroke="#63b8ff" d="M554.08,-110.33C553.22,-103.74 551.99,-94.46 550.89,-86.07"/>
<polygon fill="#63b8ff" stroke="#63b8ff" points="554.39,-85.82 549.62,-76.36 547.45,-86.73 554.39,-85.82"/>
</a>
</g>
</g>
<!-- Node13&#45;&gt;Node2 -->
<g id="edge18_Node000013_Node000002" class="edge">
<title>Node13&#45;&gt;Node2</title>
<g id="a_edge18_Node000013_Node000002"><a xlink:title=" ">
<path fill="none" stroke="#63b8ff" d="M660.34,-275.9C670.13,-262.4 685.06,-236.77 671.24,-221 668.76,-218.18 457.84,-191.79 370.48,-180.97"/>
<polygon fill="#63b8ff" stroke="#63b8ff" points="371.11,-177.52 360.75,-179.77 370.25,-184.47 371.11,-177.52"/>
</a>
</g>
</g>
<!-- Node13&#45;&gt;Node3 -->
<g id="edge17_Node000013_Node000003" class="edge">
<title>Node13&#45;&gt;Node3</title>
<g id="a_edge17_Node000013_Node000003"><a xlink:title=" ">
<path fill="none" stroke="#63b8ff" d="M631.77,-285.18C529.16,-286.14 90.21,-284.32 10.24,-185 -13.83,-155.11 12.17,-109.02 30.13,-83.83"/>
<polygon fill="#63b8ff" stroke="#63b8ff" points="32.86,-86.02 36.04,-75.92 27.25,-81.84 32.86,-86.02"/>
</a>
</g>
</g>
<!-- Node14 -->
<g id="Node000014" class="node">
<title>Node14</title>
<g id="a_Node000014"><a xlink:title=" ">
<polygon fill="#e0e0e0" stroke="#999999" points="552.11,-240.25 466.36,-240.25 466.36,-221 552.11,-221 552.11,-240.25"/>
<text xml:space="preserve" text-anchor="middle" x="509.24" y="-226.75" font-family="Helvetica,sans-Serif" font-size="10.00">arrays/eh_vec.h</text>
</a>
</g>
</g>
<!-- Node13&#45;&gt;Node14 -->
<g id="edge19_Node000013_Node000014" class="edge">
<title>Node13&#45;&gt;Node14</title>
<g id="a_edge19_Node000013_Node000014"><a xlink:title=" ">
<path fill="none" stroke="#63b8ff" d="M631.68,-276.9C608.65,-268.39 571.78,-254.75 544.51,-244.67"/>
<polygon fill="#63b8ff" stroke="#63b8ff" points="545.86,-241.43 535.26,-241.25 543.43,-248 545.86,-241.43"/>
</a>
</g>
</g>
<!-- Node15 -->
<g id="Node000015" class="node">
<title>Node15</title>
<g id="a_Node000015"><a xlink:title=" ">
<polygon fill="#e0e0e0" stroke="#999999" points="662.11,-240.25 570.36,-240.25 570.36,-221 662.11,-221 662.11,-240.25"/>
<text xml:space="preserve" text-anchor="middle" x="616.24" y="-226.75" font-family="Helvetica,sans-Serif" font-size="10.00">arrays/tensor3d.h</text>
</a>
</g>
</g>
<!-- Node13&#45;&gt;Node15 -->
<g id="edge20_Node000013_Node000015" class="edge">
<title>Node13&#45;&gt;Node15</title>
<g id="a_edge20_Node000013_Node000015"><a xlink:title=" ">
<path fill="none" stroke="#63b8ff" d="M647.13,-276.08C642.18,-268.96 635.03,-258.68 628.86,-249.8"/>
<polygon fill="#63b8ff" stroke="#63b8ff" points="631.92,-248.07 623.34,-241.85 626.18,-252.06 631.92,-248.07"/>
</a>
</g>
</g>
<!-- Node16 -->
<g id="Node000016" class="node">
<title>Node16</title>
<g id="a_Node000016"><a xlink:href="cell__coordinate_8h.html" target="_top" xlink:title="Container for {ijk} or {IJK} grouped variables.">
<polygon fill="white" stroke="#666666" points="1041.99,-129.75 952.49,-129.75 952.49,-110.5 1041.99,-110.5 1041.99,-129.75"/>
<text xml:space="preserve" text-anchor="middle" x="997.24" y="-116.25" font-family="Helvetica,sans-Serif" font-size="10.00">cell_coordinate.h</text>
</a>
</g>
</g>
<!-- Node13&#45;&gt;Node16 -->
<g id="edge21_Node000013_Node000016" class="edge">
<title>Node13&#45;&gt;Node16</title>
<g id="a_edge21_Node000013_Node000016"><a xlink:title=" ">
<path fill="none" stroke="#63b8ff" d="M674.71,-280.11C721.94,-268.96 837.24,-238.02 920.24,-185 942.06,-171.06 964.57,-151.7 979.58,-137.95"/>
<polygon fill="#63b8ff" stroke="#63b8ff" points="981.84,-140.63 986.77,-131.25 977.06,-135.51 981.84,-140.63"/>
</a>
</g>
</g>
<!-- Node18 -->
<g id="Node000018" class="node">
<title>Node18</title>
<g id="a_Node000018"><a xlink:href="dimensions_8h.html" target="_top" xlink:title="Defines a class that serves as an explicit converter between MATLAB pointers and array dimensions.">
<polygon fill="white" stroke="#666666" points="911.11,-185 837.36,-185 837.36,-165.75 911.11,-165.75 911.11,-185"/>
<text xml:space="preserve" text-anchor="middle" x="874.24" y="-171.5" font-family="Helvetica,sans-Serif" font-size="10.00">dimensions.h</text>
</a>
</g>
</g>
<!-- Node13&#45;&gt;Node18 -->
<g id="edge24_Node000013_Node000018" class="edge">
<title>Node13&#45;&gt;Node18</title>
<g id="a_edge24_Node000013_Node000018"><a xlink:title=" ">
<path fill="none" stroke="#63b8ff" d="M674.6,-278.42C699.04,-270.7 739.98,-256.73 773.24,-240.25 801.89,-226.05 832.65,-205.8 852.6,-191.92"/>
<polygon fill="#63b8ff" stroke="#63b8ff" points="854.58,-194.81 860.74,-186.19 850.55,-189.09 854.58,-194.81"/>
</a>
</g>
</g>
<!-- Node19 -->
<g id="Node000019" class="node">
<title>Node19</title>
<g id="a_Node000019"><a xlink:href="mat__io_8h.html" target="_top" xlink:title="Includes MATLAB headers for I/O.">
<polygon fill="white" stroke="#666666" points="925.99,-74.5 872.49,-74.5 872.49,-55.25 925.99,-55.25 925.99,-74.5"/>
<text xml:space="preserve" text-anchor="middle" x="899.24" y="-61" font-family="Helvetica,sans-Serif" font-size="10.00">mat_io.h</text>
</a>
</g>
</g>
<!-- Node13&#45;&gt;Node19 -->
<g id="edge36_Node000013_Node000019" class="edge">
<title>Node13&#45;&gt;Node19</title>
<g id="a_edge36_Node000013_Node000019"><a xlink:title=" ">
<path fill="none" stroke="#63b8ff" d="M674.78,-284.73C745.34,-282.91 969.56,-266.25 1051.24,-129.75 1055.63,-122.41 1056.36,-117.35 1051.24,-110.5 1044.27,-101.2 980.26,-84.73 937.55,-74.61"/>
<polygon fill="#63b8ff" stroke="#63b8ff" points="938.41,-71.22 927.88,-72.34 936.82,-78.03 938.41,-71.22"/>
</a>
</g>
</g>
<!-- Node23 -->
<g id="Node000023" class="node">
<title>Node23</title>
<g id="a_Node000023"><a xlink:href="input__flags_8h.html" target="_top" xlink:title="Organises enumerated constants, names, and classes for handling flag&#45;variables that are passed to TDM...">
<polygon fill="white" stroke="#666666" points="857.99,-129.75 786.49,-129.75 786.49,-110.5 857.99,-110.5 857.99,-129.75"/>
<text xml:space="preserve" text-anchor="middle" x="822.24" y="-116.25" font-family="Helvetica,sans-Serif" font-size="10.00">input_flags.h</text>
</a>
</g>
</g>
<!-- Node13&#45;&gt;Node23 -->
<g id="edge29_Node000013_Node000023" class="edge">
<title>Node13&#45;&gt;Node23</title>
<g id="a_edge29_Node000013_Node000023"><a xlink:title=" ">
<path fill="none" stroke="#63b8ff" d="M662.32,-276.07C689.37,-249.86 769.7,-172.03 805.13,-137.7"/>
<polygon fill="#63b8ff" stroke="#63b8ff" points="807.27,-140.5 812.02,-131.03 802.4,-135.47 807.27,-140.5"/>
</a>
</g>
</g>
<!-- Node13&#45;&gt;Node24 -->
<g id="edge37_Node000013_Node000024" class="edge">
<title>Node13&#45;&gt;Node24</title>
<g id="a_edge37_Node000013_Node000024"><a xlink:title=" ">
<path fill="none" stroke="#63b8ff" d="M631.74,-281.3C584.92,-273.51 472.09,-254.73 399.34,-242.62"/>
<polygon fill="#63b8ff" stroke="#63b8ff" points="399.95,-239.18 389.51,-240.99 398.8,-246.08 399.95,-239.18"/>
</a>
</g>
</g>
<!-- Node16&#45;&gt;Node11 -->
<g id="edge23_Node000016_Node000011" class="edge">
<title>Node16&#45;&gt;Node11</title>
<g id="a_edge23_Node000016_Node000011"><a xlink:title=" ">
<path fill="none" stroke="#63b8ff" d="M968.23,-110.09C939.97,-101.29 896.81,-87.85 865.49,-78.1"/>
<polygon fill="#63b8ff" stroke="#63b8ff" points="866.57,-74.77 855.98,-75.14 864.49,-81.45 866.57,-74.77"/>
</a>
</g>
</g>
<!-- Node17 -->
<g id="Node000017" class="node">
<title>Node17</title>
<g id="a_Node000017"><a xlink:title=" ">
<polygon fill="#e0e0e0" stroke="#999999" points="1035.36,-74.5 951.11,-74.5 951.11,-55.25 1035.36,-55.25 1035.36,-74.5"/>
<text xml:space="preserve" text-anchor="middle" x="993.24" y="-61" font-family="Helvetica,sans-Serif" font-size="10.00">spdlog/spdlog.h</text>
</a>
</g>
</g>
<!-- Node16&#45;&gt;Node17 -->
<g id="edge22_Node000016_Node000017" class="edge">
<title>Node16&#45;&gt;Node17</title>
<g id="a_edge22_Node000016_Node000017"><a xlink:title=" ">
<path fill="none" stroke="#63b8ff" d="M996.58,-110.33C996.08,-103.74 995.38,-94.46 994.75,-86.07"/>
<polygon fill="#63b8ff" stroke="#63b8ff" points="998.26,-86.08 994.03,-76.37 991.28,-86.6 998.26,-86.08"/>
</a>
</g>
</g>
<!-- Node18&#45;&gt;Node19 -->
<g id="edge25_Node000018_Node000019" class="edge">
<title>Node18&#45;&gt;Node19</title>
<g id="a_edge25_Node000018_Node000019"><a xlink:title=" ">
<path fill="none" stroke="#63b8ff" d="M881.37,-165.45C887.73,-156.87 896.59,-143.25 900.24,-129.75 904.1,-115.46 903.66,-98.7 902.36,-85.94"/>
<polygon fill="#63b8ff" stroke="#63b8ff" points="905.86,-85.71 901.09,-76.24 898.92,-86.61 905.86,-85.71"/>
</a>
</g>
</g>
<!-- Node20 -->
<g id="Node000020" class="node">
<title>Node20</title>
<g id="a_Node000020"><a xlink:title=" ">
<polygon fill="#e0e0e0" stroke="#999999" points="855.61,-19.25 814.86,-19.25 814.86,0 855.61,0 855.61,-19.25"/>
<text xml:space="preserve" text-anchor="middle" x="835.24" y="-5.75" font-family="Helvetica,sans-Serif" font-size="10.00">mat.h</text>
</a>
</g>
</g>
<!-- Node19&#45;&gt;Node20 -->
<g id="edge26_Node000019_Node000020" class="edge">
<title>Node19&#45;&gt;Node20</title>
<g id="a_edge26_Node000019_Node000020"><a xlink:title=" ">
<path fill="none" stroke="#63b8ff" d="M888.38,-54.84C879.13,-47.15 865.61,-35.9 854.53,-26.68"/>
<polygon fill="#63b8ff" stroke="#63b8ff" points="857.02,-24.2 847.1,-20.49 852.55,-29.58 857.02,-24.2"/>
</a>
</g>
</g>
<!-- Node21 -->
<g id="Node000021" class="node">
<title>Node21</title>
<g id="a_Node000021"><a xlink:title=" ">
<polygon fill="#e0e0e0" stroke="#999999" points="924.86,-19.25 873.61,-19.25 873.61,0 924.86,0 924.86,-19.25"/>
<text xml:space="preserve" text-anchor="middle" x="899.24" y="-5.75" font-family="Helvetica,sans-Serif" font-size="10.00">matrix.h</text>
</a>
</g>
</g>
<!-- Node19&#45;&gt;Node21 -->
<g id="edge27_Node000019_Node000021" class="edge">
<title>Node19&#45;&gt;Node21</title>
<g id="a_edge27_Node000019_Node000021"><a xlink:title=" ">
<path fill="none" stroke="#63b8ff" d="M899.24,-55.08C899.24,-48.57 899.24,-39.42 899.24,-31.12"/>
<polygon fill="#63b8ff" stroke="#63b8ff" points="902.74,-31.12 899.24,-21.12 895.74,-31.12 902.74,-31.12"/>
</a>
</g>
</g>
<!-- Node22 -->
<g id="Node000022" class="node">
<title>Node22</title>
<g id="a_Node000022"><a xlink:title=" ">
<polygon fill="#e0e0e0" stroke="#999999" points="985.74,-19.25 942.74,-19.25 942.74,0 985.74,0 985.74,-19.25"/>
<text xml:space="preserve" text-anchor="middle" x="964.24" y="-5.75" font-family="Helvetica,sans-Serif" font-size="10.00">mex.h</text>
</a>
</g>
</g>
<!-- Node19&#45;&gt;Node22 -->
<g id="edge28_Node000019_Node000022" class="edge">
<title>Node19&#45;&gt;Node22</title>
<g id="a_edge28_Node000019_Node000022"><a xlink:title=" ">
<path fill="none" stroke="#63b8ff" d="M910.26,-54.84C919.66,-47.15 933.39,-35.9 944.65,-26.68"/>
<polygon fill="#63b8ff" stroke="#63b8ff" points="946.69,-29.53 952.2,-20.48 942.25,-24.11 946.69,-29.53"/>
</a>
</g>
</g>
<!-- Node23&#45;&gt;Node4 -->
<g id="edge31_Node000023_Node000004" class="edge">
<title>Node23&#45;&gt;Node4</title>
<g id="a_edge31_Node000023_Node000004"><a xlink:title=" ">
<path fill="none" stroke="#63b8ff" d="M810.19,-110.09C799.83,-102.32 784.64,-90.92 772.27,-81.65"/>
<polygon fill="#63b8ff" stroke="#63b8ff" points="774.41,-78.88 764.31,-75.68 770.21,-84.48 774.41,-78.88"/>
</a>
</g>
</g>
<!-- Node23&#45;&gt;Node5 -->
<g id="edge32_Node000023_Node000005" class="edge">
<title>Node23&#45;&gt;Node5</title>
<g id="a_edge32_Node000023_Node000005"><a xlink:title=" ">
<path fill="none" stroke="#63b8ff" d="M786.03,-114.35C707.69,-104.03 523.59,-79.76 449.72,-70.02"/>
<polygon fill="#63b8ff" stroke="#63b8ff" points="450.32,-66.57 439.94,-68.74 449.4,-73.51 450.32,-66.57"/>
</a>
</g>
</g>
<!-- Node23&#45;&gt;Node6 -->
<g id="edge33_Node000023_Node000006" class="edge">
<title>Node23&#45;&gt;Node6</title>
<g id="a_edge33_Node000023_Node000006"><a xlink:title=" ">
<path fill="none" stroke="#63b8ff" d="M786.44,-110.09C746.59,-100.03 682.72,-83.92 644.1,-74.17"/>
<polygon fill="#63b8ff" stroke="#63b8ff" points="645,-70.79 634.44,-71.73 643.28,-77.57 645,-70.79"/>
</a>
</g>
</g>
<!-- Node23&#45;&gt;Node11 -->
<g id="edge30_Node000023_Node000011" class="edge">
<title>Node23&#45;&gt;Node11</title>
<g id="a_edge30_Node000023_Node000011"><a xlink:title=" ">
<path fill="none" stroke="#63b8ff" d="M822.9,-110.33C823.39,-103.74 824.09,-94.46 824.72,-86.07"/>
<polygon fill="#63b8ff" stroke="#63b8ff" points="828.19,-86.6 825.45,-76.37 821.21,-86.08 828.19,-86.6"/>
</a>
</g>
</g>
<!-- Node23&#45;&gt;Node17 -->
<g id="edge34_Node000023_Node000017" class="edge">
<title>Node23&#45;&gt;Node17</title>
<g id="a_edge34_Node000023_Node000017"><a xlink:title=" ">
<path fill="none" stroke="#63b8ff" d="M851.25,-110.09C879.25,-101.37 921.89,-88.09 953.14,-78.36"/>
<polygon fill="#63b8ff" stroke="#63b8ff" points="954.13,-81.72 962.64,-75.4 952.05,-75.03 954.13,-81.72"/>
</a>
</g>
</g>
<!-- Node23&#45;&gt;Node19 -->
<g id="edge35_Node000023_Node000019" class="edge">
<title>Node23&#45;&gt;Node19</title>
<g id="a_edge35_Node000023_Node000019"><a xlink:title=" ">
<path fill="none" stroke="#63b8ff" d="M835.3,-110.09C846.69,-102.21 863.47,-90.61 876.98,-81.27"/>
<polygon fill="#63b8ff" stroke="#63b8ff" points="878.63,-84.38 884.87,-75.81 874.65,-78.62 878.63,-84.38"/>
</a>
</g>
</g>
<!-- Node24&#45;&gt;Node2 -->
<g id="edge39_Node000024_Node000002" class="edge">
<title>Node24&#45;&gt;Node2</title>
<g id="a_edge39_Node000024_Node000002"><a xlink:title=" ">
<path fill="none" stroke="#63b8ff" d="M333.24,-220.83C333.24,-214.32 333.24,-205.17 333.24,-196.87"/>
<polygon fill="#63b8ff" stroke="#63b8ff" points="336.74,-196.87 333.24,-186.87 329.74,-196.87 336.74,-196.87"/>
</a>
</g>
</g>
<!-- Node24&#45;&gt;Node5 -->
<g id="edge38_Node000024_Node000005" class="edge">
<title>Node24&#45;&gt;Node5</title>
<g id="a_edge38_Node000024_Node000005"><a xlink:title=" ">
<path fill="none" stroke="#63b8ff" d="M308.56,-220.59C261.2,-201.91 165.46,-156.92 203.24,-110.5 226,-82.53 332.54,-71.53 386.6,-67.69"/>
<polygon fill="#63b8ff" stroke="#63b8ff" points="386.65,-71.2 396.4,-67.04 386.19,-64.21 386.65,-71.2"/>
</a>
</g>
</g>
<!-- Node25 -->
<g id="Node000025" class="node">
<title>Node25</title>
<g id="a_Node000025"><a xlink:title=" ">
<polygon fill="#e0e0e0" stroke="#999999" points="143.24,-185 19.24,-185 19.24,-165.75 143.24,-165.75 143.24,-185"/>
<text xml:space="preserve" text-anchor="middle" x="81.24" y="-171.5" font-family="Helvetica,sans-Serif" font-size="10.00">arrays/vector_typedefs.h</text>
</a>
</g>
</g>
<!-- Node24&#45;&gt;Node25 -->
<g id="edge40_Node000024_Node000025" class="edge">
<title>Node24&#45;&gt;Node25</title>
<g id="a_edge40_Node000024_Node000025"><a xlink:title=" ">
<path fill="none" stroke="#63b8ff" d="M290.2,-220.53C247.35,-211.48 181.44,-197.55 135.13,-187.76"/>
<polygon fill="#63b8ff" stroke="#63b8ff" points="136.08,-184.39 125.57,-185.74 134.63,-191.24 136.08,-184.39"/>
</a>
</g>
</g>
<!-- Node26 -->
<g id="Node000026" class="node">
<title>Node26</title>
<g id="a_Node000026"><a xlink:href="input__matrices_8h.html" target="_top" xlink:title="Class handling the input matrices that are read in from the input file.">
<polygon fill="white" stroke="#666666" points="504.24,-185 416.24,-185 416.24,-165.75 504.24,-165.75 504.24,-185"/>
<text xml:space="preserve" text-anchor="middle" x="460.24" y="-171.5" font-family="Helvetica,sans-Serif" font-size="10.00">input_matrices.h</text>
</a>
</g>
</g>
<!-- Node24&#45;&gt;Node26 -->
<g id="edge41_Node000024_Node000026" class="edge">
<title>Node24&#45;&gt;Node26</title>
<g id="a_edge41_Node000024_Node000026"><a xlink:title=" ">
<path fill="none" stroke="#63b8ff" d="M354.78,-220.59C374.85,-212.18 405.04,-199.52 427.98,-189.9"/>
<polygon fill="#63b8ff" stroke="#63b8ff" points="429.32,-193.13 437.19,-186.04 426.62,-186.68 429.32,-193.13"/>
</a>
</g>
</g>
<!-- Node26&#45;&gt;Node5 -->
<g id="edge42_Node000026_Node000005" class="edge">
<title>Node26&#45;&gt;Node5</title>
<g id="a_edge42_Node000026_Node000005"><a xlink:title=" ">
<path fill="none" stroke="#63b8ff" d="M437.15,-165.33C422.24,-158.13 404.04,-146.46 395.24,-129.75 387.53,-115.1 395.2,-97.3 403.7,-84.21"/>
<polygon fill="#63b8ff" stroke="#63b8ff" points="406.53,-86.27 409.53,-76.11 400.85,-82.18 406.53,-86.27"/>
</a>
</g>
</g>
<!-- Node26&#45;&gt;Node19 -->
<g id="edge46_Node000026_Node000019" class="edge">
<title>Node26&#45;&gt;Node19</title>
<g id="a_edge46_Node000026_Node000019"><a xlink:title=" ">
<path fill="none" stroke="#63b8ff" d="M504.55,-174.73C597.59,-174.65 809.47,-169.94 867.24,-129.75 882.03,-119.46 890.34,-100.27 894.76,-85.6"/>
<polygon fill="#63b8ff" stroke="#63b8ff" points="898.1,-86.66 897.23,-76.1 891.33,-84.9 898.1,-86.66"/>
</a>
</g>
</g>
<!-- Node27 -->
<g id="Node000027" class="node">
<title>Node27</title>
<g id="a_Node000027"><a xlink:href="input__output__names_8h.html" target="_top" xlink:title="Constant values associated with the format of the input and output files and matrices.">
<polygon fill="white" stroke="#666666" points="516.24,-129.75 404.24,-129.75 404.24,-110.5 516.24,-110.5 516.24,-129.75"/>
<text xml:space="preserve" text-anchor="middle" x="460.24" y="-116.25" font-family="Helvetica,sans-Serif" font-size="10.00">input_output_names.h</text>
</a>
</g>
</g>
<!-- Node26&#45;&gt;Node27 -->
<g id="edge43_Node000026_Node000027" class="edge">
<title>Node26&#45;&gt;Node27</title>
<g id="a_edge43_Node000026_Node000027"><a xlink:title=" ">
<path fill="none" stroke="#63b8ff" d="M460.24,-165.58C460.24,-159.07 460.24,-149.92 460.24,-141.62"/>
<polygon fill="#63b8ff" stroke="#63b8ff" points="463.74,-141.62 460.24,-131.62 456.74,-141.62 463.74,-141.62"/>
</a>
</g>
</g>
<!-- Node28 -->
<g id="Node000028" class="node">
<title>Node28</title>
<g id="a_Node000028"><a xlink:href="matrix__collection_8h.html" target="_top" xlink:title="A collection of named MATLAB matrices.">
<polygon fill="white" stroke="#666666" points="730.11,-129.75 632.36,-129.75 632.36,-110.5 730.11,-110.5 730.11,-129.75"/>
<text xml:space="preserve" text-anchor="middle" x="681.24" y="-116.25" font-family="Helvetica,sans-Serif" font-size="10.00">matrix_collection.h</text>
</a>
</g>
</g>
<!-- Node26&#45;&gt;Node28 -->
<g id="edge47_Node000026_Node000028" class="edge">
<title>Node26&#45;&gt;Node28</title>
<g id="a_edge47_Node000026_Node000028"><a xlink:title=" ">
<path fill="none" stroke="#63b8ff" d="M497.98,-165.28C535.16,-156.32 592.14,-142.59 632.68,-132.82"/>
<polygon fill="#63b8ff" stroke="#63b8ff" points="633.28,-136.28 642.18,-130.54 631.64,-129.48 633.28,-136.28"/>
</a>
</g>
</g>
<!-- Node27&#45;&gt;Node5 -->
<g id="edge44_Node000027_Node000005" class="edge">
<title>Node27&#45;&gt;Node5</title>
<g id="a_edge44_Node000027_Node000005"><a xlink:title=" ">
<path fill="none" stroke="#63b8ff" d="M453.3,-110.33C447.62,-103.13 439.4,-92.71 432.34,-83.76"/>
<polygon fill="#63b8ff" stroke="#63b8ff" points="435.2,-81.73 426.26,-76.05 429.71,-86.07 435.2,-81.73"/>
</a>
</g>
</g>
<!-- Node27&#45;&gt;Node6 -->
<g id="edge45_Node000027_Node000006" class="edge">
<title>Node27&#45;&gt;Node6</title>
<g id="a_edge45_Node000027_Node000006"><a xlink:title=" ">
<path fill="none" stroke="#63b8ff" d="M485.85,-110.09C511.44,-101.07 550.87,-87.17 578.66,-77.36"/>
<polygon fill="#63b8ff" stroke="#63b8ff" points="579.73,-80.7 588,-74.07 577.4,-74.1 579.73,-80.7"/>
</a>
</g>
</g>
<!-- Node28&#45;&gt;Node5 -->
<g id="edge48_Node000028_Node000005" class="edge">
<title>Node28&#45;&gt;Node5</title>
<g id="a_edge48_Node000028_Node000005"><a xlink:title=" ">
<path fill="none" stroke="#63b8ff" d="M636.32,-110.03C583.15,-99.27 495.97,-81.61 449.58,-72.22"/>
<polygon fill="#63b8ff" stroke="#63b8ff" points="450.42,-68.82 439.92,-70.27 449.03,-75.68 450.42,-68.82"/>
</a>
</g>
</g>
<!-- Node28&#45;&gt;Node6 -->
<g id="edge49_Node000028_Node000006" class="edge">
<title>Node28&#45;&gt;Node6</title>
<g id="a_edge49_Node000028_Node000006"><a xlink:title=" ">
<path fill="none" stroke="#63b8ff" d="M669.36,-110.09C659.14,-102.32 644.17,-90.92 631.97,-81.65"/>
<polygon fill="#63b8ff" stroke="#63b8ff" points="634.22,-78.96 624.14,-75.69 629.98,-84.53 634.22,-78.96"/>
</a>
</g>
</g>
<!-- Node28&#45;&gt;Node19 -->
<g id="edge50_Node000028_Node000019" class="edge">
<title>Node28&#45;&gt;Node19</title>
<g id="a_edge50_Node000028_Node000019"><a xlink:title=" ">
<path fill="none" stroke="#63b8ff" d="M718.22,-110.09C758,-100.38 820.93,-85 861.14,-75.18"/>
<polygon fill="#63b8ff" stroke="#63b8ff" points="861.73,-78.64 870.62,-72.87 860.07,-71.84 861.73,-78.64"/>
</a>
</g>
</g>
</g>
</svg>
