<?xml version="1.0" encoding="UTF-8" standalone="no"?>
<!DOCTYPE svg PUBLIC "-//W3C//DTD SVG 1.1//EN"
 "http://www.w3.org/Graphics/SVG/1.1/DTD/svg11.dtd">
<!-- Generated by graphviz version 8.0.5 (20230430.1635)
 -->
<!-- Title: tdms/include/fieldsample.h Pages: 1 -->
<svg width="1067pt" height="359pt"
 viewBox="0.00 0.00 1067.26 358.75" xmlns="http://www.w3.org/2000/svg" xmlns:xlink="http://www.w3.org/1999/xlink">
<g id="graph0" class="graph" transform="scale(1 1) rotate(0) translate(4 354.75)">
<title>tdms/include/fieldsample.h</title>
<!-- Node1 -->
<g id="node1" class="node">
<title>Node1</title>
<g id="a_node1"><a xlink:title="Class that stores the extracted field values at user&#45;defined vertices.">
<polygon fill="#999999" stroke="#666666" points="323.51,-350.75 191.26,-350.75 191.26,-331.5 323.51,-331.5 323.51,-350.75"/>
<text text-anchor="middle" x="257.39" y="-337.25" font-family="Helvetica,sans-Serif" font-size="10.00">tdms/include/fieldsample.h</text>
</a>
</g>
</g>
<!-- Node2 -->
<g id="node2" class="node">
<title>Node2</title>
<g id="a_node2"><a xlink:href="arrays_8h.html" target="_top" xlink:title="Classes describing arrays, vertices etc.">
<polygon fill="white" stroke="#666666" points="210.01,-185 158.76,-185 158.76,-165.75 210.01,-165.75 210.01,-185"/>
<text text-anchor="middle" x="184.39" y="-171.5" font-family="Helvetica,sans-Serif" font-size="10.00">arrays.h</text>
</a>
</g>
</g>
<!-- Node1&#45;&gt;Node2 -->
<g id="edge1" class="edge">
<title>Node1&#45;&gt;Node2</title>
<path fill="none" stroke="#63b8ff" d="M246.25,-331.1C227.52,-315.13 190.41,-279.81 176.39,-240.25 171.3,-225.89 173.9,-208.72 177.44,-195.8"/>
<polygon fill="#63b8ff" stroke="#63b8ff" points="181.07,-196.92 180.76,-186.33 174.4,-194.8 181.07,-196.92"/>
</g>
<!-- Node10 -->
<g id="node10" class="node">
<title>Node10</title>
<g id="a_node10"><a xlink:href="field_8h.html" target="_top" xlink:title="Classes for the electric and magnetic (split) fields on a grid.">
<polygon fill="white" stroke="#666666" points="347.51,-295.5 305.26,-295.5 305.26,-276.25 347.51,-276.25 347.51,-295.5"/>
<text text-anchor="middle" x="326.39" y="-282" font-family="Helvetica,sans-Serif" font-size="10.00">field.h</text>
</a>
</g>
</g>
<!-- Node1&#45;&gt;Node10 -->
<g id="edge12" class="edge">
<title>Node1&#45;&gt;Node10</title>
<path fill="none" stroke="#63b8ff" d="M269.09,-331.09C279.27,-323.24 294.22,-311.7 306.31,-302.37"/>
<polygon fill="#63b8ff" stroke="#63b8ff" points="308.08,-304.66 313.86,-295.77 303.8,-299.11 308.08,-304.66"/>
</g>
<!-- Node19 -->
<g id="node19" class="node">
<title>Node19</title>
<g id="a_node19"><a xlink:href="simulation__parameters_8h.html" target="_top" xlink:title="Classes collecting parameters for the simulation.">
<polygon fill="white" stroke="#666666" points="318.64,-240.25 196.14,-240.25 196.14,-221 318.64,-221 318.64,-240.25"/>
<text text-anchor="middle" x="257.39" y="-226.75" font-family="Helvetica,sans-Serif" font-size="10.00">simulation_parameters.h</text>
</a>
</g>
</g>
<!-- Node1&#45;&gt;Node19 -->
<g id="edge38" class="edge">
<title>Node1&#45;&gt;Node19</title>
<path fill="none" stroke="#63b8ff" d="M257.39,-331.25C257.39,-313.92 257.39,-275.23 257.39,-251.49"/>
<polygon fill="#63b8ff" stroke="#63b8ff" points="260.89,-251.63 257.39,-241.63 253.89,-251.63 260.89,-251.63"/>
</g>
<!-- Node3 -->
<g id="node3" class="node">
<title>Node3</title>
<g id="a_node3"><a xlink:title=" ">
<polygon fill="#e0e0e0" stroke="#999999" points="67.76,-74.5 15.01,-74.5 15.01,-55.25 67.76,-55.25 67.76,-74.5"/>
<text text-anchor="middle" x="41.39" y="-61" font-family="Helvetica,sans-Serif" font-size="10.00">complex</text>
</a>
</g>
</g>
<!-- Node2&#45;&gt;Node3 -->
<g id="edge2" class="edge">
<title>Node2&#45;&gt;Node3</title>
<path fill="none" stroke="#63b8ff" d="M158.42,-171.81C113.26,-166.75 23.24,-153.84 4.39,-129.75 -7.43,-114.65 7.21,-95.38 21.42,-81.97"/>
<polygon fill="#63b8ff" stroke="#63b8ff" points="23.33,-85.07 28.52,-75.83 18.71,-79.81 23.33,-85.07"/>
</g>
<!-- Node4 -->
<g id="node4" class="node">
<title>Node4</title>
<g id="a_node4"><a xlink:title=" ">
<polygon fill="#e0e0e0" stroke="#999999" points="282.76,-129.75 224.01,-129.75 224.01,-110.5 282.76,-110.5 282.76,-129.75"/>
<text text-anchor="middle" x="253.39" y="-116.25" font-family="Helvetica,sans-Serif" font-size="10.00">stdexcept</text>
</a>
</g>
</g>
<!-- Node2&#45;&gt;Node4 -->
<g id="edge3" class="edge">
<title>Node2&#45;&gt;Node4</title>
<path fill="none" stroke="#63b8ff" d="M196.09,-165.34C206.27,-157.49 221.22,-145.95 233.31,-136.62"/>
<polygon fill="#63b8ff" stroke="#63b8ff" points="235.08,-138.91 240.86,-130.02 230.8,-133.36 235.08,-138.91"/>
</g>
<!-- Node5 -->
<g id="node5" class="node">
<title>Node5</title>
<g id="a_node5"><a xlink:title=" ">
<polygon fill="#e0e0e0" stroke="#999999" points="474.39,-74.5 434.39,-74.5 434.39,-55.25 474.39,-55.25 474.39,-74.5"/>
<text text-anchor="middle" x="454.39" y="-61" font-family="Helvetica,sans-Serif" font-size="10.00">string</text>
</a>
</g>
</g>
<!-- Node2&#45;&gt;Node5 -->
<g id="edge4" class="edge">
<title>Node2&#45;&gt;Node5</title>
<path fill="none" stroke="#63b8ff" d="M174.67,-165.68C161.13,-152.55 139.83,-127.39 154.39,-110.5 188.92,-70.46 353.88,-65.78 423.4,-65.62"/>
<polygon fill="#63b8ff" stroke="#63b8ff" points="423.08,-69.12 433.08,-65.63 423.08,-62.12 423.08,-69.12"/>
</g>
<!-- Node6 -->
<g id="node6" class="node">
<title>Node6</title>
<g id="a_node6"><a xlink:title=" ">
<polygon fill="#e0e0e0" stroke="#999999" points="346.39,-129.75 300.39,-129.75 300.39,-110.5 346.39,-110.5 346.39,-129.75"/>
<text text-anchor="middle" x="323.39" y="-116.25" font-family="Helvetica,sans-Serif" font-size="10.00">fftw3.h</text>
</a>
</g>
</g>
<!-- Node2&#45;&gt;Node6 -->
<g id="edge5" class="edge">
<title>Node2&#45;&gt;Node6</title>
<path fill="none" stroke="#63b8ff" d="M207.97,-165.34C230.47,-156.72 264.59,-143.65 289.91,-133.95"/>
<polygon fill="#63b8ff" stroke="#63b8ff" points="291.07,-136.87 299.16,-130.02 288.57,-130.33 291.07,-136.87"/>
</g>
<!-- Node7 -->
<g id="node7" class="node">
<title>Node7</title>
<g id="a_node7"><a xlink:href="globals_8h.html" target="_top" xlink:title="Type definitions and global constants.">
<polygon fill="white" stroke="#666666" points="68.89,-129.75 13.89,-129.75 13.89,-110.5 68.89,-110.5 68.89,-129.75"/>
<text text-anchor="middle" x="41.39" y="-116.25" font-family="Helvetica,sans-Serif" font-size="10.00">globals.h</text>
</a>
</g>
</g>
<!-- Node2&#45;&gt;Node7 -->
<g id="edge6" class="edge">
<title>Node2&#45;&gt;Node7</title>
<path fill="none" stroke="#63b8ff" d="M160.13,-165.34C137.02,-156.74 101.99,-143.69 75.96,-134"/>
<polygon fill="#63b8ff" stroke="#63b8ff" points="77.36,-130.41 66.77,-130.2 74.92,-136.97 77.36,-130.41"/>
</g>
<!-- Node8 -->
<g id="node8" class="node">
<title>Node8</title>
<g id="a_node8"><a xlink:title=" ">
<polygon fill="#e0e0e0" stroke="#999999" points="425.89,-129.75 364.89,-129.75 364.89,-110.5 425.89,-110.5 425.89,-129.75"/>
<text text-anchor="middle" x="395.39" y="-116.25" font-family="Helvetica,sans-Serif" font-size="10.00">matlabio.h</text>
</a>
</g>
</g>
<!-- Node2&#45;&gt;Node8 -->
<g id="edge9" class="edge">
<title>Node2&#45;&gt;Node8</title>
<path fill="none" stroke="#63b8ff" d="M210.26,-167.85C246.1,-158.8 311.24,-142.36 353.91,-131.59"/>
<polygon fill="#63b8ff" stroke="#63b8ff" points="354.67,-134.76 363.51,-128.92 352.96,-127.97 354.67,-134.76"/>
</g>
<!-- Node9 -->
<g id="node9" class="node">
<title>Node9</title>
<g id="a_node9"><a xlink:href="utils_8h.html" target="_top" xlink:title="Useful miscellaneous utility functions.">
<polygon fill="white" stroke="#666666" points="205.51,-129.75 163.26,-129.75 163.26,-110.5 205.51,-110.5 205.51,-129.75"/>
<text text-anchor="middle" x="184.39" y="-116.25" font-family="Helvetica,sans-Serif" font-size="10.00">utils.h</text>
</a>
</g>
</g>
<!-- Node2&#45;&gt;Node9 -->
<g id="edge10" class="edge">
<title>Node2&#45;&gt;Node9</title>
<path fill="none" stroke="#63b8ff" d="M184.39,-165.58C184.39,-158.92 184.39,-149.49 184.39,-141.03"/>
<polygon fill="#63b8ff" stroke="#63b8ff" points="187.89,-141.11 184.39,-131.11 180.89,-141.11 187.89,-141.11"/>
</g>
<!-- Node7&#45;&gt;Node3 -->
<g id="edge7" class="edge">
<title>Node7&#45;&gt;Node3</title>
<path fill="none" stroke="#63b8ff" d="M41.39,-110.33C41.39,-103.67 41.39,-94.24 41.39,-85.78"/>
<polygon fill="#63b8ff" stroke="#63b8ff" points="44.89,-85.86 41.39,-75.86 37.89,-85.86 44.89,-85.86"/>
</g>
<!-- Node7&#45;&gt;Node5 -->
<g id="edge8" class="edge">
<title>Node7&#45;&gt;Node5</title>
<path fill="none" stroke="#63b8ff" d="M69.13,-115.55C143.25,-105.99 345.57,-79.91 423.35,-69.88"/>
<polygon fill="#63b8ff" stroke="#63b8ff" points="423.42,-73.27 432.89,-68.52 422.53,-66.33 423.42,-73.27"/>
</g>
<!-- Node9&#45;&gt;Node5 -->
<g id="edge11" class="edge">
<title>Node9&#45;&gt;Node5</title>
<path fill="none" stroke="#63b8ff" d="M206.01,-112.85C209.14,-112.02 212.34,-111.21 215.39,-110.5 289.5,-93.31 377.71,-78.2 423.45,-70.77"/>
<polygon fill="#63b8ff" stroke="#63b8ff" points="423.81,-74.1 433.12,-69.05 422.69,-67.19 423.81,-74.1"/>
</g>
<!-- Node10&#45;&gt;Node2 -->
<g id="edge14" class="edge">
<title>Node10&#45;&gt;Node2</title>
<path fill="none" stroke="#63b8ff" d="M304.77,-285.01C273.22,-283.9 215.28,-276.67 187.39,-240.25 177.89,-227.84 177.93,-209.77 179.89,-196.01"/>
<polygon fill="#63b8ff" stroke="#63b8ff" points="183.5,-196.76 181.92,-186.28 176.62,-195.46 183.5,-196.76"/>
</g>
<!-- Node10&#45;&gt;Node3 -->
<g id="edge13" class="edge">
<title>Node10&#45;&gt;Node3</title>
<path fill="none" stroke="#63b8ff" d="M329.33,-275.85C333.02,-262.73 337.7,-238.09 327.39,-221 282.49,-146.56 230.68,-171.42 154.39,-129.75 123.9,-113.09 89.14,-93.33 66.32,-80.25"/>
<polygon fill="#63b8ff" stroke="#63b8ff" points="68.44,-76.85 58.03,-74.91 64.96,-82.92 68.44,-76.85"/>
</g>
<!-- Node10&#45;&gt;Node7 -->
<g id="edge23" class="edge">
<title>Node10&#45;&gt;Node7</title>
<path fill="none" stroke="#63b8ff" d="M304.88,-281.5C274.68,-276.11 218.69,-263.69 176.39,-240.25 126.5,-212.6 79.14,-163.84 56.05,-138.11"/>
<polygon fill="#63b8ff" stroke="#63b8ff" points="59.17,-136.23 49.93,-131.05 53.93,-140.86 59.17,-136.23"/>
</g>
<!-- Node11 -->
<g id="node11" class="node">
<title>Node11</title>
<g id="a_node11"><a xlink:href="cell__coordinate_8h.html" target="_top" xlink:title="Container for {ijk} or {IJK} grouped variables.">
<polygon fill="white" stroke="#666666" points="1010.14,-240.25 920.64,-240.25 920.64,-221 1010.14,-221 1010.14,-240.25"/>
<text text-anchor="middle" x="965.39" y="-226.75" font-family="Helvetica,sans-Serif" font-size="10.00">cell_coordinate.h</text>
</a>
</g>
</g>
<!-- Node10&#45;&gt;Node11 -->
<g id="edge15" class="edge">
<title>Node10&#45;&gt;Node11</title>
<path fill="none" stroke="#63b8ff" d="M347.97,-283.87C423.59,-280.22 683.82,-266.52 909.62,-240.36"/>
<polygon fill="#63b8ff" stroke="#63b8ff" points="909.82,-243.74 919.35,-239.1 909.01,-236.79 909.82,-243.74"/>
</g>
<!-- Node14 -->
<g id="node14" class="node">
<title>Node14</title>
<g id="a_node14"><a xlink:href="dimensions_8h.html" target="_top" xlink:title="Defines a class that serves as an explicit converter between MATLAB pointers and array dimensions.">
<polygon fill="white" stroke="#666666" points="902.26,-240.25 828.51,-240.25 828.51,-221 902.26,-221 902.26,-240.25"/>
<text text-anchor="middle" x="865.39" y="-226.75" font-family="Helvetica,sans-Serif" font-size="10.00">dimensions.h</text>
</a>
</g>
</g>
<!-- Node10&#45;&gt;Node14 -->
<g id="edge18" class="edge">
<title>Node10&#45;&gt;Node14</title>
<path fill="none" stroke="#63b8ff" d="M347.86,-283.5C416.19,-279 634.69,-263.63 814.39,-240.25 815.36,-240.12 816.35,-239.99 817.34,-239.86"/>
<polygon fill="#63b8ff" stroke="#63b8ff" points="817.73,-243.19 827.12,-238.27 816.71,-236.26 817.73,-243.19"/>
</g>
<!-- Node15 -->
<g id="node15" class="node">
<title>Node15</title>
<g id="a_node15"><a xlink:href="mat__io_8h.html" target="_top" xlink:title="Includes MATLAB headers for I/O.">
<polygon fill="white" stroke="#666666" points="822.14,-74.5 768.64,-74.5 768.64,-55.25 822.14,-55.25 822.14,-74.5"/>
<text text-anchor="middle" x="795.39" y="-61" font-family="Helvetica,sans-Serif" font-size="10.00">mat_io.h</text>
</a>
</g>
</g>
<!-- Node10&#45;&gt;Node15 -->
<g id="edge24" class="edge">
<title>Node10&#45;&gt;Node15</title>
<path fill="none" stroke="#63b8ff" d="M347.83,-284.46C420.51,-281.85 659.7,-263.04 779.39,-129.75 790.14,-117.78 793.91,-99.66 795.12,-85.77"/>
<polygon fill="#63b8ff" stroke="#63b8ff" points="798.65,-86.08 795.64,-75.92 791.66,-85.74 798.65,-86.08"/>
</g>
<!-- Node10&#45;&gt;Node19 -->
<g id="edge25" class="edge">
<title>Node10&#45;&gt;Node19</title>
<path fill="none" stroke="#63b8ff" d="M314.68,-275.84C304.51,-267.99 289.55,-256.45 277.47,-247.12"/>
<polygon fill="#63b8ff" stroke="#63b8ff" points="279.98,-243.86 269.92,-240.52 275.7,-249.41 279.98,-243.86"/>
</g>
<!-- Node12 -->
<g id="node12" class="node">
<title>Node12</title>
<g id="a_node12"><a xlink:title=" ">
<polygon fill="#e0e0e0" stroke="#999999" points="985.51,-185 901.26,-185 901.26,-165.75 985.51,-165.75 985.51,-185"/>
<text text-anchor="middle" x="943.39" y="-171.5" font-family="Helvetica,sans-Serif" font-size="10.00">spdlog/spdlog.h</text>
</a>
</g>
</g>
<!-- Node11&#45;&gt;Node12 -->
<g id="edge16" class="edge">
<title>Node11&#45;&gt;Node12</title>
<path fill="none" stroke="#63b8ff" d="M961.76,-220.83C958.91,-213.94 954.84,-204.09 951.25,-195.41"/>
<polygon fill="#63b8ff" stroke="#63b8ff" points="954.15,-194.27 947.1,-186.36 947.68,-196.94 954.15,-194.27"/>
</g>
<!-- Node13 -->
<g id="node13" class="node">
<title>Node13</title>
<g id="a_node13"><a xlink:title=" ">
<polygon fill="#e0e0e0" stroke="#999999" points="1059.26,-185 1003.51,-185 1003.51,-165.75 1059.26,-165.75 1059.26,-185"/>
<text text-anchor="middle" x="1031.39" y="-171.5" font-family="Helvetica,sans-Serif" font-size="10.00">algorithm</text>
</a>
</g>
</g>
<!-- Node11&#45;&gt;Node13 -->
<g id="edge17" class="edge">
<title>Node11&#45;&gt;Node13</title>
<path fill="none" stroke="#63b8ff" d="M976.59,-220.59C986.22,-212.82 1000.34,-201.42 1011.84,-192.15"/>
<polygon fill="#63b8ff" stroke="#63b8ff" points="1013.77,-194.28 1019.36,-185.27 1009.38,-188.83 1013.77,-194.28"/>
</g>
<!-- Node14&#45;&gt;Node15 -->
<g id="edge19" class="edge">
<title>Node14&#45;&gt;Node15</title>
<path fill="none" stroke="#63b8ff" d="M863.66,-220.56C859.54,-200.11 847.96,-149.14 828.39,-110.5 823.51,-100.86 816.57,-91.11 810.32,-83.18"/>
<polygon fill="#63b8ff" stroke="#63b8ff" points="812.51,-81.34 803.45,-75.84 807.1,-85.79 812.51,-81.34"/>
</g>
<!-- Node16 -->
<g id="node16" class="node">
<title>Node16</title>
<g id="a_node16"><a xlink:title=" ">
<polygon fill="#e0e0e0" stroke="#999999" points="751.76,-19.25 711.01,-19.25 711.01,0 751.76,0 751.76,-19.25"/>
<text text-anchor="middle" x="731.39" y="-5.75" font-family="Helvetica,sans-Serif" font-size="10.00">mat.h</text>
</a>
</g>
</g>
<!-- Node15&#45;&gt;Node16 -->
<g id="edge20" class="edge">
<title>Node15&#45;&gt;Node16</title>
<path fill="none" stroke="#63b8ff" d="M784.53,-54.84C775.19,-47.07 761.5,-35.67 750.35,-26.4"/>
<polygon fill="#63b8ff" stroke="#63b8ff" points="753.01,-23.23 743.09,-19.52 748.53,-28.61 753.01,-23.23"/>
</g>
<!-- Node17 -->
<g id="node17" class="node">
<title>Node17</title>
<g id="a_node17"><a xlink:title=" ">
<polygon fill="#e0e0e0" stroke="#999999" points="821.01,-19.25 769.76,-19.25 769.76,0 821.01,0 821.01,-19.25"/>
<text text-anchor="middle" x="795.39" y="-5.75" font-family="Helvetica,sans-Serif" font-size="10.00">matrix.h</text>
</a>
</g>
</g>
<!-- Node15&#45;&gt;Node17 -->
<g id="edge21" class="edge">
<title>Node15&#45;&gt;Node17</title>
<path fill="none" stroke="#63b8ff" d="M795.39,-55.08C795.39,-48.42 795.39,-38.99 795.39,-30.53"/>
<polygon fill="#63b8ff" stroke="#63b8ff" points="798.89,-30.61 795.39,-20.61 791.89,-30.61 798.89,-30.61"/>
</g>
<!-- Node18 -->
<g id="node18" class="node">
<title>Node18</title>
<g id="a_node18"><a xlink:title=" ">
<polygon fill="#e0e0e0" stroke="#999999" points="881.89,-19.25 838.89,-19.25 838.89,0 881.89,0 881.89,-19.25"/>
<text text-anchor="middle" x="860.39" y="-5.75" font-family="Helvetica,sans-Serif" font-size="10.00">mex.h</text>
</a>
</g>
</g>
<!-- Node15&#45;&gt;Node18 -->
<g id="edge22" class="edge">
<title>Node15&#45;&gt;Node18</title>
<path fill="none" stroke="#63b8ff" d="M806.42,-54.84C815.9,-47.07 829.81,-35.67 841.13,-26.4"/>
<polygon fill="#63b8ff" stroke="#63b8ff" points="843.01,-28.57 848.53,-19.52 838.57,-23.15 843.01,-28.57"/>
</g>
<!-- Node19&#45;&gt;Node2 -->
<g id="edge27" class="edge">
<title>Node19&#45;&gt;Node2</title>
<path fill="none" stroke="#63b8ff" d="M245.01,-220.59C234.14,-212.66 218.11,-200.97 205.26,-191.6"/>
<polygon fill="#63b8ff" stroke="#63b8ff" points="207.73,-188.34 197.59,-185.27 203.61,-194 207.73,-188.34"/>
</g>
<!-- Node19&#45;&gt;Node5 -->
<g id="edge26" class="edge">
<title>Node19&#45;&gt;Node5</title>
<path fill="none" stroke="#63b8ff" d="M287.94,-220.5C327.71,-207.07 396.67,-178.19 435.39,-129.75 445.56,-117.03 450.29,-98.98 452.49,-85.32"/>
<polygon fill="#63b8ff" stroke="#63b8ff" points="456.05,-86.04 453.84,-75.68 449.11,-85.16 456.05,-86.04"/>
</g>
<!-- Node20 -->
<g id="node20" class="node">
<title>Node20</title>
<g id="a_node20"><a xlink:href="input__matrices_8h.html" target="_top" xlink:title="Class handling the input matrices that are read in from the input file.">
<polygon fill="white" stroke="#666666" points="620.39,-185 532.39,-185 532.39,-165.75 620.39,-165.75 620.39,-185"/>
<text text-anchor="middle" x="576.39" y="-171.5" font-family="Helvetica,sans-Serif" font-size="10.00">input_matrices.h</text>
</a>
</g>
</g>
<!-- Node19&#45;&gt;Node20 -->
<g id="edge28" class="edge">
<title>Node19&#45;&gt;Node20</title>
<path fill="none" stroke="#63b8ff" d="M311.87,-220.53C370.33,-210.77 462.69,-195.36 521.36,-185.56"/>
<polygon fill="#63b8ff" stroke="#63b8ff" points="521.63,-188.9 530.91,-183.8 520.47,-181.99 521.63,-188.9"/>
</g>
<!-- Node20&#45;&gt;Node5 -->
<g id="edge29" class="edge">
<title>Node20&#45;&gt;Node5</title>
<path fill="none" stroke="#63b8ff" d="M561.19,-165.4C547.52,-157 527.21,-143.68 511.39,-129.75 495.08,-115.39 478.8,-96.59 467.84,-83.11"/>
<polygon fill="#63b8ff" stroke="#63b8ff" points="470.14,-81.38 461.17,-75.75 464.67,-85.75 470.14,-81.38"/>
</g>
<!-- Node20&#45;&gt;Node15 -->
<g id="edge33" class="edge">
<title>Node20&#45;&gt;Node15</title>
<path fill="none" stroke="#63b8ff" d="M620.63,-172.9C659.98,-169.55 717.35,-159.43 757.39,-129.75 772.59,-118.48 782.84,-99.17 788.83,-84.72"/>
<polygon fill="#63b8ff" stroke="#63b8ff" points="792.31,-86.43 792.59,-75.84 785.76,-83.94 792.31,-86.43"/>
</g>
<!-- Node21 -->
<g id="node21" class="node">
<title>Node21</title>
<g id="a_node21"><a xlink:href="input__output__names_8h.html" target="_top" xlink:title="Constant values associated with the format of the input and output files and matrices.">
<polygon fill="white" stroke="#666666" points="632.39,-129.75 520.39,-129.75 520.39,-110.5 632.39,-110.5 632.39,-129.75"/>
<text text-anchor="middle" x="576.39" y="-116.25" font-family="Helvetica,sans-Serif" font-size="10.00">input_output_names.h</text>
</a>
</g>
</g>
<!-- Node20&#45;&gt;Node21 -->
<g id="edge30" class="edge">
<title>Node20&#45;&gt;Node21</title>
<path fill="none" stroke="#63b8ff" d="M576.39,-165.58C576.39,-158.92 576.39,-149.49 576.39,-141.03"/>
<polygon fill="#63b8ff" stroke="#63b8ff" points="579.89,-141.11 576.39,-131.11 572.89,-141.11 579.89,-141.11"/>
</g>
<!-- Node23 -->
<g id="node23" class="node">
<title>Node23</title>
<g id="a_node23"><a xlink:href="matrix__collection_8h.html" target="_top" xlink:title="A collection of named MATLAB matrices.">
<polygon fill="white" stroke="#666666" points="748.26,-129.75 650.51,-129.75 650.51,-110.5 748.26,-110.5 748.26,-129.75"/>
<text text-anchor="middle" x="699.39" y="-116.25" font-family="Helvetica,sans-Serif" font-size="10.00">matrix_collection.h</text>
</a>
</g>
</g>
<!-- Node20&#45;&gt;Node23 -->
<g id="edge34" class="edge">
<title>Node20&#45;&gt;Node23</title>
<path fill="none" stroke="#63b8ff" d="M597.25,-165.34C616.78,-156.89 646.2,-144.15 668.45,-134.52"/>
<polygon fill="#63b8ff" stroke="#63b8ff" points="669.64,-137.39 677.42,-130.2 666.85,-130.96 669.64,-137.39"/>
</g>
<!-- Node21&#45;&gt;Node5 -->
<g id="edge31" class="edge">
<title>Node21&#45;&gt;Node5</title>
<path fill="none" stroke="#63b8ff" d="M555.69,-110.09C536.21,-101.59 506.79,-88.75 484.67,-79.09"/>
<polygon fill="#63b8ff" stroke="#63b8ff" points="486.34,-75.57 475.78,-74.77 483.54,-81.98 486.34,-75.57"/>
</g>
<!-- Node22 -->
<g id="node22" class="node">
<title>Node22</title>
<g id="a_node22"><a xlink:title=" ">
<polygon fill="#e0e0e0" stroke="#999999" points="658.89,-74.5 615.89,-74.5 615.89,-55.25 658.89,-55.25 658.89,-74.5"/>
<text text-anchor="middle" x="637.39" y="-61" font-family="Helvetica,sans-Serif" font-size="10.00">vector</text>
</a>
</g>
</g>
<!-- Node21&#45;&gt;Node22 -->
<g id="edge32" class="edge">
<title>Node21&#45;&gt;Node22</title>
<path fill="none" stroke="#63b8ff" d="M586.74,-110.09C595.55,-102.4 608.44,-91.15 619,-81.93"/>
<polygon fill="#63b8ff" stroke="#63b8ff" points="620.96,-83.99 626.19,-74.77 616.36,-78.71 620.96,-83.99"/>
</g>
<!-- Node23&#45;&gt;Node5 -->
<g id="edge35" class="edge">
<title>Node23&#45;&gt;Node5</title>
<path fill="none" stroke="#63b8ff" d="M657.55,-110.03C608.64,-99.4 528.86,-82.06 485.25,-72.58"/>
<polygon fill="#63b8ff" stroke="#63b8ff" points="486.24,-69 475.73,-70.3 484.75,-75.84 486.24,-69"/>
</g>
<!-- Node23&#45;&gt;Node15 -->
<g id="edge37" class="edge">
<title>Node23&#45;&gt;Node15</title>
<path fill="none" stroke="#63b8ff" d="M715.67,-110.09C730.43,-101.91 752.43,-89.71 769.58,-80.19"/>
<polygon fill="#63b8ff" stroke="#63b8ff" points="770.98,-82.86 778.02,-74.95 767.58,-76.74 770.98,-82.86"/>
</g>
<!-- Node23&#45;&gt;Node22 -->
<g id="edge36" class="edge">
<title>Node23&#45;&gt;Node22</title>
<path fill="none" stroke="#63b8ff" d="M688.87,-110.09C679.91,-102.4 666.82,-91.15 656.08,-81.93"/>
<polygon fill="#63b8ff" stroke="#63b8ff" points="658.62,-78.64 648.75,-74.77 654.06,-83.95 658.62,-78.64"/>
</g>
</g>
</svg>
