<?xml version="1.0" encoding="UTF-8" standalone="no"?>
<!DOCTYPE svg PUBLIC "-//W3C//DTD SVG 1.1//EN"
 "http://www.w3.org/Graphics/SVG/1.1/DTD/svg11.dtd">
<!-- Generated by graphviz version 8.0.5 (20230430.1635)
 -->
<!-- Title: tdms/include/field.h Pages: 1 -->
<svg width="1175pt" height="304pt"
 viewBox="0.00 0.00 1174.74 303.50" xmlns="http://www.w3.org/2000/svg" xmlns:xlink="http://www.w3.org/1999/xlink">
<g id="graph0" class="graph" transform="scale(1 1) rotate(0) translate(4 299.5)">
<title>tdms/include/field.h</title>
<!-- Node1 -->
<g id="node1" class="node">
<title>Node1</title>
<g id="a_node1"><a xlink:title="Classes for the electric and magnetic (split) fields on a grid.">
<polygon fill="#999999" stroke="#666666" points="800.75,-295.5 700,-295.5 700,-276.25 800.75,-276.25 800.75,-295.5"/>
<text text-anchor="middle" x="750.38" y="-282" font-family="Helvetica,sans-Serif" font-size="10.00">tdms/include/field.h</text>
</a>
</g>
</g>
<!-- Node2 -->
<g id="node2" class="node">
<title>Node2</title>
<g id="a_node2"><a xlink:title=" ">
<polygon fill="#e0e0e0" stroke="#999999" points="52.75,-74.5 0,-74.5 0,-55.25 52.75,-55.25 52.75,-74.5"/>
<text text-anchor="middle" x="26.38" y="-61" font-family="Helvetica,sans-Serif" font-size="10.00">complex</text>
</a>
</g>
</g>
<!-- Node1&#45;&gt;Node2 -->
<g id="edge1" class="edge">
<title>Node1&#45;&gt;Node2</title>
<path fill="none" stroke="#63b8ff" d="M699.67,-280.9C631.7,-275 507.54,-262.19 403.38,-240.25 233.77,-204.53 136.36,-266.12 29.38,-129.75 19.73,-117.45 19.78,-99.37 21.79,-85.58"/>
<polygon fill="#63b8ff" stroke="#63b8ff" points="25.41,-86.3 23.86,-75.82 18.53,-84.98 25.41,-86.3"/>
</g>
<!-- Node3 -->
<g id="node3" class="node">
<title>Node3</title>
<g id="a_node3"><a xlink:href="arrays_8h.html" target="_top" xlink:title="Classes describing arrays, vertices etc.">
<polygon fill="white" stroke="#666666" points="314,-185 262.75,-185 262.75,-165.75 314,-165.75 314,-185"/>
<text text-anchor="middle" x="288.38" y="-171.5" font-family="Helvetica,sans-Serif" font-size="10.00">arrays.h</text>
</a>
</g>
</g>
<!-- Node1&#45;&gt;Node3 -->
<g id="edge2" class="edge">
<title>Node1&#45;&gt;Node3</title>
<path fill="none" stroke="#63b8ff" d="M699.52,-279.81C642.23,-273.44 546.65,-260.76 466.38,-240.25 413.76,-226.81 354.84,-204.07 319.71,-189.66"/>
<polygon fill="#63b8ff" stroke="#63b8ff" points="321.19,-186.07 310.61,-185.48 318.51,-192.54 321.19,-186.07"/>
</g>
<!-- Node11 -->
<g id="node11" class="node">
<title>Node11</title>
<g id="a_node11"><a xlink:title=" ">
<polygon fill="#e0e0e0" stroke="#999999" points="561.25,-240.25 475.5,-240.25 475.5,-221 561.25,-221 561.25,-240.25"/>
<text text-anchor="middle" x="518.38" y="-226.75" font-family="Helvetica,sans-Serif" font-size="10.00">arrays/eh_vec.h</text>
</a>
</g>
</g>
<!-- Node1&#45;&gt;Node11 -->
<g id="edge14" class="edge">
<title>Node1&#45;&gt;Node11</title>
<path fill="none" stroke="#63b8ff" d="M710.76,-275.78C671.47,-266.76 611.14,-252.92 568.53,-243.14"/>
<polygon fill="#63b8ff" stroke="#63b8ff" points="569.36,-239.51 558.83,-240.68 567.79,-246.33 569.36,-239.51"/>
</g>
<!-- Node12 -->
<g id="node12" class="node">
<title>Node12</title>
<g id="a_node12"><a xlink:title=" ">
<polygon fill="#e0e0e0" stroke="#999999" points="671.25,-240.25 579.5,-240.25 579.5,-221 671.25,-221 671.25,-240.25"/>
<text text-anchor="middle" x="625.38" y="-226.75" font-family="Helvetica,sans-Serif" font-size="10.00">arrays/tensor3d.h</text>
</a>
</g>
</g>
<!-- Node1&#45;&gt;Node12 -->
<g id="edge15" class="edge">
<title>Node1&#45;&gt;Node12</title>
<path fill="none" stroke="#63b8ff" d="M729.17,-275.84C709.24,-267.35 679.16,-254.54 656.51,-244.89"/>
<polygon fill="#63b8ff" stroke="#63b8ff" points="658.26,-241.4 647.68,-240.7 655.51,-247.84 658.26,-241.4"/>
</g>
<!-- Node13 -->
<g id="node13" class="node">
<title>Node13</title>
<g id="a_node13"><a xlink:href="cell__coordinate_8h.html" target="_top" xlink:title="Container for {ijk} or {IJK} grouped variables.">
<polygon fill="white" stroke="#666666" points="1033.12,-185 943.62,-185 943.62,-165.75 1033.12,-165.75 1033.12,-185"/>
<text text-anchor="middle" x="988.38" y="-171.5" font-family="Helvetica,sans-Serif" font-size="10.00">cell_coordinate.h</text>
</a>
</g>
</g>
<!-- Node1&#45;&gt;Node13 -->
<g id="edge16" class="edge">
<title>Node1&#45;&gt;Node13</title>
<path fill="none" stroke="#63b8ff" d="M770.26,-275.81C812.08,-256.74 909.36,-212.4 958.63,-189.93"/>
<polygon fill="#63b8ff" stroke="#63b8ff" points="959.73,-192.82 967.38,-185.49 956.83,-186.45 959.73,-192.82"/>
</g>
<!-- Node16 -->
<g id="node16" class="node">
<title>Node16</title>
<g id="a_node16"><a xlink:href="dimensions_8h.html" target="_top" xlink:title="Defines a class that serves as an explicit converter between MATLAB pointers and array dimensions.">
<polygon fill="white" stroke="#666666" points="1121.25,-240.25 1047.5,-240.25 1047.5,-221 1121.25,-221 1121.25,-240.25"/>
<text text-anchor="middle" x="1084.38" y="-226.75" font-family="Helvetica,sans-Serif" font-size="10.00">dimensions.h</text>
</a>
</g>
</g>
<!-- Node1&#45;&gt;Node16 -->
<g id="edge19" class="edge">
<title>Node1&#45;&gt;Node16</title>
<path fill="none" stroke="#63b8ff" d="M801.1,-276.79C864.97,-266.6 973.89,-249.24 1036.42,-239.27"/>
<polygon fill="#63b8ff" stroke="#63b8ff" points="1036.84,-242.59 1046.16,-237.56 1035.74,-235.68 1036.84,-242.59"/>
</g>
<!-- Node17 -->
<g id="node17" class="node">
<title>Node17</title>
<g id="a_node17"><a xlink:href="mat__io_8h.html" target="_top" xlink:title="Includes MATLAB headers for I/O.">
<polygon fill="white" stroke="#666666" points="957.12,-74.5 903.62,-74.5 903.62,-55.25 957.12,-55.25 957.12,-74.5"/>
<text text-anchor="middle" x="930.38" y="-61" font-family="Helvetica,sans-Serif" font-size="10.00">mat_io.h</text>
</a>
</g>
</g>
<!-- Node1&#45;&gt;Node17 -->
<g id="edge31" class="edge">
<title>Node1&#45;&gt;Node17</title>
<path fill="none" stroke="#63b8ff" d="M800.9,-282.36C898.93,-277 1107.37,-263.04 1130.38,-240.25 1171.54,-199.46 1179.91,-155.49 1143.38,-110.5 1121.7,-83.82 1023.23,-72.52 968.08,-68.22"/>
<polygon fill="#63b8ff" stroke="#63b8ff" points="968.57,-64.67 958.34,-67.43 968.05,-71.65 968.57,-64.67"/>
</g>
<!-- Node21 -->
<g id="node21" class="node">
<title>Node21</title>
<g id="a_node21"><a xlink:href="input__flags_8h.html" target="_top" xlink:title="Organises enumerated constants, names, and classes for handling flag&#45;variables that are passed to TDM...">
<polygon fill="white" stroke="#666666" points="925.12,-185 853.62,-185 853.62,-165.75 925.12,-165.75 925.12,-185"/>
<text text-anchor="middle" x="889.38" y="-171.5" font-family="Helvetica,sans-Serif" font-size="10.00">input_flags.h</text>
</a>
</g>
</g>
<!-- Node1&#45;&gt;Node21 -->
<g id="edge24" class="edge">
<title>Node1&#45;&gt;Node21</title>
<path fill="none" stroke="#63b8ff" d="M766.21,-275.89C780.76,-267.38 802.69,-253.9 820.38,-240.25 839.64,-225.39 859.86,-206.17 873.4,-192.72"/>
<polygon fill="#63b8ff" stroke="#63b8ff" points="875.33,-195.74 879.89,-186.18 870.36,-190.8 875.33,-195.74"/>
</g>
<!-- Node22 -->
<g id="node22" class="node">
<title>Node22</title>
<g id="a_node22"><a xlink:href="simulation__parameters_8h.html" target="_top" xlink:title="Classes collecting parameters for the simulation.">
<polygon fill="white" stroke="#666666" points="811.62,-240.25 689.12,-240.25 689.12,-221 811.62,-221 811.62,-240.25"/>
<text text-anchor="middle" x="750.38" y="-226.75" font-family="Helvetica,sans-Serif" font-size="10.00">simulation_parameters.h</text>
</a>
</g>
</g>
<!-- Node1&#45;&gt;Node22 -->
<g id="edge32" class="edge">
<title>Node1&#45;&gt;Node22</title>
<path fill="none" stroke="#63b8ff" d="M750.38,-276.08C750.38,-269.42 750.38,-259.99 750.38,-251.53"/>
<polygon fill="#63b8ff" stroke="#63b8ff" points="753.88,-251.61 750.38,-241.61 746.88,-251.61 753.88,-251.61"/>
</g>
<!-- Node3&#45;&gt;Node2 -->
<g id="edge3" class="edge">
<title>Node3&#45;&gt;Node2</title>
<path fill="none" stroke="#63b8ff" d="M262.32,-172.96C206.35,-169.41 77.13,-158.26 45.38,-129.75 33,-118.64 28.53,-99.87 26.99,-85.54"/>
<polygon fill="#63b8ff" stroke="#63b8ff" points="30.44,-85.56 26.28,-75.82 23.45,-86.03 30.44,-85.56"/>
</g>
<!-- Node4 -->
<g id="node4" class="node">
<title>Node4</title>
<g id="a_node4"><a xlink:title=" ">
<polygon fill="#e0e0e0" stroke="#999999" points="672.75,-129.75 614,-129.75 614,-110.5 672.75,-110.5 672.75,-129.75"/>
<text text-anchor="middle" x="643.38" y="-116.25" font-family="Helvetica,sans-Serif" font-size="10.00">stdexcept</text>
</a>
</g>
</g>
<!-- Node3&#45;&gt;Node4 -->
<g id="edge4" class="edge">
<title>Node3&#45;&gt;Node4</title>
<path fill="none" stroke="#63b8ff" d="M314.34,-171.16C367.94,-164.41 494.67,-147.9 600.38,-129.75 601.33,-129.59 602.29,-129.42 603.26,-129.25"/>
<polygon fill="#63b8ff" stroke="#63b8ff" points="603.62,-132.55 612.81,-127.28 602.34,-125.67 603.62,-132.55"/>
</g>
<!-- Node5 -->
<g id="node5" class="node">
<title>Node5</title>
<g id="a_node5"><a xlink:title=" ">
<polygon fill="#e0e0e0" stroke="#999999" points="419.38,-74.5 379.38,-74.5 379.38,-55.25 419.38,-55.25 419.38,-74.5"/>
<text text-anchor="middle" x="399.38" y="-61" font-family="Helvetica,sans-Serif" font-size="10.00">string</text>
</a>
</g>
</g>
<!-- Node3&#45;&gt;Node5 -->
<g id="edge5" class="edge">
<title>Node3&#45;&gt;Node5</title>
<path fill="none" stroke="#63b8ff" d="M262.44,-171.44C215.99,-165.19 126.21,-147.93 157.38,-110.5 183.83,-78.72 308.67,-69.48 367.96,-66.87"/>
<polygon fill="#63b8ff" stroke="#63b8ff" points="368.04,-70.33 377.9,-66.43 367.76,-63.34 368.04,-70.33"/>
</g>
<!-- Node6 -->
<g id="node6" class="node">
<title>Node6</title>
<g id="a_node6"><a xlink:title=" ">
<polygon fill="#e0e0e0" stroke="#999999" points="702.88,-74.5 659.88,-74.5 659.88,-55.25 702.88,-55.25 702.88,-74.5"/>
<text text-anchor="middle" x="681.38" y="-61" font-family="Helvetica,sans-Serif" font-size="10.00">vector</text>
</a>
</g>
</g>
<!-- Node3&#45;&gt;Node6 -->
<g id="edge6" class="edge">
<title>Node3&#45;&gt;Node6</title>
<path fill="none" stroke="#63b8ff" d="M314.11,-173.27C364.2,-170.47 477.72,-160.93 567.38,-129.75 576.7,-126.51 626.1,-98.12 656.73,-80.29"/>
<polygon fill="#63b8ff" stroke="#63b8ff" points="658.06,-82.98 664.94,-74.92 654.54,-76.94 658.06,-82.98"/>
</g>
<!-- Node7 -->
<g id="node7" class="node">
<title>Node7</title>
<g id="a_node7"><a xlink:title=" ">
<polygon fill="#e0e0e0" stroke="#999999" points="212.38,-129.75 166.38,-129.75 166.38,-110.5 212.38,-110.5 212.38,-129.75"/>
<text text-anchor="middle" x="189.38" y="-116.25" font-family="Helvetica,sans-Serif" font-size="10.00">fftw3.h</text>
</a>
</g>
</g>
<!-- Node3&#45;&gt;Node7 -->
<g id="edge7" class="edge">
<title>Node3&#45;&gt;Node7</title>
<path fill="none" stroke="#63b8ff" d="M271.58,-165.34C256.22,-157.08 233.26,-144.73 215.5,-135.18"/>
<polygon fill="#63b8ff" stroke="#63b8ff" points="217.72,-131.86 207.25,-130.2 214.4,-138.02 217.72,-131.86"/>
</g>
<!-- Node8 -->
<g id="node8" class="node">
<title>Node8</title>
<g id="a_node8"><a xlink:href="globals_8h.html" target="_top" xlink:title="Type definitions and global constants.">
<polygon fill="white" stroke="#666666" points="109.88,-129.75 54.88,-129.75 54.88,-110.5 109.88,-110.5 109.88,-129.75"/>
<text text-anchor="middle" x="82.38" y="-116.25" font-family="Helvetica,sans-Serif" font-size="10.00">globals.h</text>
</a>
</g>
</g>
<!-- Node3&#45;&gt;Node8 -->
<g id="edge8" class="edge">
<title>Node3&#45;&gt;Node8</title>
<path fill="none" stroke="#63b8ff" d="M262.28,-167.63C226.51,-158.38 161.96,-141.7 120.69,-131.03"/>
<polygon fill="#63b8ff" stroke="#63b8ff" points="121.78,-127.44 111.22,-128.32 120.03,-134.22 121.78,-127.44"/>
</g>
<!-- Node9 -->
<g id="node9" class="node">
<title>Node9</title>
<g id="a_node9"><a xlink:title=" ">
<polygon fill="#e0e0e0" stroke="#999999" points="291.88,-129.75 230.88,-129.75 230.88,-110.5 291.88,-110.5 291.88,-129.75"/>
<text text-anchor="middle" x="261.38" y="-116.25" font-family="Helvetica,sans-Serif" font-size="10.00">matlabio.h</text>
</a>
</g>
</g>
<!-- Node3&#45;&gt;Node9 -->
<g id="edge11" class="edge">
<title>Node3&#45;&gt;Node9</title>
<path fill="none" stroke="#63b8ff" d="M283.92,-165.58C280.38,-158.61 275.31,-148.62 270.88,-139.87"/>
<polygon fill="#63b8ff" stroke="#63b8ff" points="273.57,-138.45 265.93,-131.11 267.33,-141.61 273.57,-138.45"/>
</g>
<!-- Node10 -->
<g id="node10" class="node">
<title>Node10</title>
<g id="a_node10"><a xlink:href="utils_8h.html" target="_top" xlink:title="Useful miscellaneous utility functions.">
<polygon fill="white" stroke="#666666" points="352.5,-129.75 310.25,-129.75 310.25,-110.5 352.5,-110.5 352.5,-129.75"/>
<text text-anchor="middle" x="331.38" y="-116.25" font-family="Helvetica,sans-Serif" font-size="10.00">utils.h</text>
</a>
</g>
</g>
<!-- Node3&#45;&gt;Node10 -->
<g id="edge12" class="edge">
<title>Node3&#45;&gt;Node10</title>
<path fill="none" stroke="#63b8ff" d="M295.48,-165.58C301.42,-158.23 310.07,-147.51 317.39,-138.44"/>
<polygon fill="#63b8ff" stroke="#63b8ff" points="320.56,-141.09 324.12,-131.11 315.11,-136.69 320.56,-141.09"/>
</g>
<!-- Node8&#45;&gt;Node2 -->
<g id="edge9" class="edge">
<title>Node8&#45;&gt;Node2</title>
<path fill="none" stroke="#63b8ff" d="M72.88,-110.09C64.86,-102.47 53.19,-91.37 43.55,-82.2"/>
<polygon fill="#63b8ff" stroke="#63b8ff" points="46.39,-80.13 36.73,-75.77 41.57,-85.2 46.39,-80.13"/>
</g>
<!-- Node8&#45;&gt;Node5 -->
<g id="edge10" class="edge">
<title>Node8&#45;&gt;Node5</title>
<path fill="none" stroke="#63b8ff" d="M110.36,-113.21C115.03,-112.27 119.84,-111.33 124.38,-110.5 212.61,-94.29 317.34,-78.14 368.35,-70.48"/>
<polygon fill="#63b8ff" stroke="#63b8ff" points="368.6,-73.83 377.97,-68.89 367.56,-66.91 368.6,-73.83"/>
</g>
<!-- Node10&#45;&gt;Node5 -->
<g id="edge13" class="edge">
<title>Node10&#45;&gt;Node5</title>
<path fill="none" stroke="#63b8ff" d="M342.91,-110.09C352.94,-102.24 367.68,-90.7 379.58,-81.37"/>
<polygon fill="#63b8ff" stroke="#63b8ff" points="381.29,-83.7 387.01,-74.77 376.98,-78.18 381.29,-83.7"/>
</g>
<!-- Node14 -->
<g id="node14" class="node">
<title>Node14</title>
<g id="a_node14"><a xlink:title=" ">
<polygon fill="#e0e0e0" stroke="#999999" points="1116.5,-129.75 1032.25,-129.75 1032.25,-110.5 1116.5,-110.5 1116.5,-129.75"/>
<text text-anchor="middle" x="1074.38" y="-116.25" font-family="Helvetica,sans-Serif" font-size="10.00">spdlog/spdlog.h</text>
</a>
</g>
</g>
<!-- Node13&#45;&gt;Node14 -->
<g id="edge17" class="edge">
<title>Node13&#45;&gt;Node14</title>
<path fill="none" stroke="#63b8ff" d="M1002.96,-165.34C1015.94,-157.31 1035.15,-145.41 1050.39,-135.98"/>
<polygon fill="#63b8ff" stroke="#63b8ff" points="1052.06,-138.44 1058.71,-130.2 1048.37,-132.49 1052.06,-138.44"/>
</g>
<!-- Node15 -->
<g id="node15" class="node">
<title>Node15</title>
<g id="a_node15"><a xlink:title=" ">
<polygon fill="#e0e0e0" stroke="#999999" points="1014.25,-129.75 958.5,-129.75 958.5,-110.5 1014.25,-110.5 1014.25,-129.75"/>
<text text-anchor="middle" x="986.38" y="-116.25" font-family="Helvetica,sans-Serif" font-size="10.00">algorithm</text>
</a>
</g>
</g>
<!-- Node13&#45;&gt;Node15 -->
<g id="edge18" class="edge">
<title>Node13&#45;&gt;Node15</title>
<path fill="none" stroke="#63b8ff" d="M988.04,-165.58C987.79,-158.92 987.44,-149.49 987.12,-141.03"/>
<polygon fill="#63b8ff" stroke="#63b8ff" points="990.59,-140.97 986.71,-131.11 983.59,-141.23 990.59,-140.97"/>
</g>
<!-- Node16&#45;&gt;Node17 -->
<g id="edge20" class="edge">
<title>Node16&#45;&gt;Node17</title>
<path fill="none" stroke="#63b8ff" d="M1092.75,-220.57C1111.46,-199.25 1152.91,-145.05 1125.38,-110.5 1106.11,-86.32 1019.33,-74.19 968.26,-69.04"/>
<polygon fill="#63b8ff" stroke="#63b8ff" points="968.62,-65.47 958.33,-67.99 967.95,-72.43 968.62,-65.47"/>
</g>
<!-- Node18 -->
<g id="node18" class="node">
<title>Node18</title>
<g id="a_node18"><a xlink:title=" ">
<polygon fill="#e0e0e0" stroke="#999999" points="886.75,-19.25 846,-19.25 846,0 886.75,0 886.75,-19.25"/>
<text text-anchor="middle" x="866.38" y="-5.75" font-family="Helvetica,sans-Serif" font-size="10.00">mat.h</text>
</a>
</g>
</g>
<!-- Node17&#45;&gt;Node18 -->
<g id="edge21" class="edge">
<title>Node17&#45;&gt;Node18</title>
<path fill="none" stroke="#63b8ff" d="M919.52,-54.84C910.18,-47.07 896.48,-35.67 885.33,-26.4"/>
<polygon fill="#63b8ff" stroke="#63b8ff" points="888,-23.23 878.07,-19.52 883.52,-28.61 888,-23.23"/>
</g>
<!-- Node19 -->
<g id="node19" class="node">
<title>Node19</title>
<g id="a_node19"><a xlink:title=" ">
<polygon fill="#e0e0e0" stroke="#999999" points="956,-19.25 904.75,-19.25 904.75,0 956,0 956,-19.25"/>
<text text-anchor="middle" x="930.38" y="-5.75" font-family="Helvetica,sans-Serif" font-size="10.00">matrix.h</text>
</a>
</g>
</g>
<!-- Node17&#45;&gt;Node19 -->
<g id="edge22" class="edge">
<title>Node17&#45;&gt;Node19</title>
<path fill="none" stroke="#63b8ff" d="M930.38,-55.08C930.38,-48.42 930.38,-38.99 930.38,-30.53"/>
<polygon fill="#63b8ff" stroke="#63b8ff" points="933.88,-30.61 930.38,-20.61 926.88,-30.61 933.88,-30.61"/>
</g>
<!-- Node20 -->
<g id="node20" class="node">
<title>Node20</title>
<g id="a_node20"><a xlink:title=" ">
<polygon fill="#e0e0e0" stroke="#999999" points="1016.88,-19.25 973.88,-19.25 973.88,0 1016.88,0 1016.88,-19.25"/>
<text text-anchor="middle" x="995.38" y="-5.75" font-family="Helvetica,sans-Serif" font-size="10.00">mex.h</text>
</a>
</g>
</g>
<!-- Node17&#45;&gt;Node20 -->
<g id="edge23" class="edge">
<title>Node17&#45;&gt;Node20</title>
<path fill="none" stroke="#63b8ff" d="M941.4,-54.84C950.89,-47.07 964.8,-35.67 976.12,-26.4"/>
<polygon fill="#63b8ff" stroke="#63b8ff" points="977.99,-28.57 983.51,-19.52 973.56,-23.15 977.99,-28.57"/>
</g>
<!-- Node21&#45;&gt;Node4 -->
<g id="edge26" class="edge">
<title>Node21&#45;&gt;Node4</title>
<path fill="none" stroke="#63b8ff" d="M853.34,-166.57C808.12,-156.79 730.8,-140.05 683.66,-129.85"/>
<polygon fill="#63b8ff" stroke="#63b8ff" points="684.46,-126.22 673.94,-127.53 682.98,-133.06 684.46,-126.22"/>
</g>
<!-- Node21&#45;&gt;Node5 -->
<g id="edge27" class="edge">
<title>Node21&#45;&gt;Node5</title>
<path fill="none" stroke="#63b8ff" d="M853.19,-167.21C818.3,-159.77 764.31,-146.81 719.38,-129.75 701.68,-123.03 699.39,-116.33 681.38,-110.5 593.06,-81.93 483.06,-71.28 430.35,-67.62"/>
<polygon fill="#63b8ff" stroke="#63b8ff" points="430.91,-64.08 420.71,-66.92 430.46,-71.07 430.91,-64.08"/>
</g>
<!-- Node21&#45;&gt;Node6 -->
<g id="edge28" class="edge">
<title>Node21&#45;&gt;Node6</title>
<path fill="none" stroke="#63b8ff" d="M884.28,-165.51C875.88,-151.68 857.79,-125.04 835.38,-110.5 797.88,-86.17 746.84,-74.81 713.99,-69.71"/>
<polygon fill="#63b8ff" stroke="#63b8ff" points="714.58,-66.12 704.18,-68.16 713.58,-73.05 714.58,-66.12"/>
</g>
<!-- Node21&#45;&gt;Node14 -->
<g id="edge29" class="edge">
<title>Node21&#45;&gt;Node14</title>
<path fill="none" stroke="#63b8ff" d="M920.76,-165.34C951.45,-156.51 998.41,-142.99 1032.32,-133.23"/>
<polygon fill="#63b8ff" stroke="#63b8ff" points="1033.2,-136.33 1041.84,-130.2 1031.26,-129.61 1033.2,-136.33"/>
</g>
<!-- Node21&#45;&gt;Node15 -->
<g id="edge25" class="edge">
<title>Node21&#45;&gt;Node15</title>
<path fill="none" stroke="#63b8ff" d="M905.83,-165.34C920.74,-157.16 942.97,-144.96 960.29,-135.44"/>
<polygon fill="#63b8ff" stroke="#63b8ff" points="961.76,-138.08 968.84,-130.2 958.39,-131.95 961.76,-138.08"/>
</g>
<!-- Node21&#45;&gt;Node17 -->
<g id="edge30" class="edge">
<title>Node21&#45;&gt;Node17</title>
<path fill="none" stroke="#63b8ff" d="M892.77,-165.49C896.21,-156.49 901.68,-142.16 906.38,-129.75 912.02,-114.82 918.38,-97.91 923.12,-85.24"/>
<polygon fill="#63b8ff" stroke="#63b8ff" points="926.74,-86.57 926.97,-75.98 920.18,-84.11 926.74,-86.57"/>
</g>
<!-- Node22&#45;&gt;Node3 -->
<g id="edge34" class="edge">
<title>Node22&#45;&gt;Node3</title>
<path fill="none" stroke="#63b8ff" d="M688.92,-222.02C686.03,-221.67 683.17,-221.33 680.38,-221 549.58,-205.5 394.1,-188.11 324.82,-180.41"/>
<polygon fill="#63b8ff" stroke="#63b8ff" points="325.39,-176.84 315.07,-179.22 324.62,-183.8 325.39,-176.84"/>
</g>
<!-- Node22&#45;&gt;Node5 -->
<g id="edge33" class="edge">
<title>Node22&#45;&gt;Node5</title>
<path fill="none" stroke="#63b8ff" d="M698.02,-220.52C613.98,-204.87 454.44,-170.59 415.38,-129.75 404.13,-117.99 400.44,-99.57 399.38,-85.52"/>
<polygon fill="#63b8ff" stroke="#63b8ff" points="402.85,-85.46 399.01,-75.58 395.85,-85.7 402.85,-85.46"/>
</g>
<!-- Node23 -->
<g id="node23" class="node">
<title>Node23</title>
<g id="a_node23"><a xlink:href="input__matrices_8h.html" target="_top" xlink:title="Class handling the input matrices that are read in from the input file.">
<polygon fill="white" stroke="#666666" points="794.38,-185 706.38,-185 706.38,-165.75 794.38,-165.75 794.38,-185"/>
<text text-anchor="middle" x="750.38" y="-171.5" font-family="Helvetica,sans-Serif" font-size="10.00">input_matrices.h</text>
</a>
</g>
</g>
<!-- Node22&#45;&gt;Node23 -->
<g id="edge35" class="edge">
<title>Node22&#45;&gt;Node23</title>
<path fill="none" stroke="#63b8ff" d="M750.38,-220.83C750.38,-214.17 750.38,-204.74 750.38,-196.28"/>
<polygon fill="#63b8ff" stroke="#63b8ff" points="753.88,-196.36 750.38,-186.36 746.88,-196.36 753.88,-196.36"/>
</g>
<!-- Node23&#45;&gt;Node5 -->
<g id="edge36" class="edge">
<title>Node23&#45;&gt;Node5</title>
<path fill="none" stroke="#63b8ff" d="M706.15,-172.72C630.57,-169.13 480.54,-158.52 437.38,-129.75 421.46,-119.14 411.24,-99.41 405.45,-84.67"/>
<polygon fill="#63b8ff" stroke="#63b8ff" points="408.52,-83.85 401.87,-75.61 401.92,-86.2 408.52,-83.85"/>
</g>
<!-- Node23&#45;&gt;Node17 -->
<g id="edge40" class="edge">
<title>Node23&#45;&gt;Node17</title>
<path fill="none" stroke="#63b8ff" d="M768.93,-165.36C786.36,-156.72 813.04,-143.07 835.38,-129.75 861.51,-114.16 890.37,-94.37 909.35,-80.98"/>
<polygon fill="#63b8ff" stroke="#63b8ff" points="910.93,-83.44 917.05,-74.79 906.88,-77.73 910.93,-83.44"/>
</g>
<!-- Node24 -->
<g id="node24" class="node">
<title>Node24</title>
<g id="a_node24"><a xlink:href="input__output__names_8h.html" target="_top" xlink:title="Constant values associated with the format of the input and output files and matrices.">
<polygon fill="white" stroke="#666666" points="558.38,-129.75 446.38,-129.75 446.38,-110.5 558.38,-110.5 558.38,-129.75"/>
<text text-anchor="middle" x="502.38" y="-116.25" font-family="Helvetica,sans-Serif" font-size="10.00">input_output_names.h</text>
</a>
</g>
</g>
<!-- Node23&#45;&gt;Node24 -->
<g id="edge37" class="edge">
<title>Node23&#45;&gt;Node24</title>
<path fill="none" stroke="#63b8ff" d="M708.02,-165.28C665.76,-156.21 600.71,-142.24 555.12,-132.45"/>
<polygon fill="#63b8ff" stroke="#63b8ff" points="556.06,-128.86 545.55,-130.18 554.59,-135.7 556.06,-128.86"/>
</g>
<!-- Node25 -->
<g id="node25" class="node">
<title>Node25</title>
<g id="a_node25"><a xlink:href="matrix__collection_8h.html" target="_top" xlink:title="A collection of named MATLAB matrices.">
<polygon fill="white" stroke="#666666" points="826.25,-129.75 728.5,-129.75 728.5,-110.5 826.25,-110.5 826.25,-129.75"/>
<text text-anchor="middle" x="777.38" y="-116.25" font-family="Helvetica,sans-Serif" font-size="10.00">matrix_collection.h</text>
</a>
</g>
</g>
<!-- Node23&#45;&gt;Node25 -->
<g id="edge41" class="edge">
<title>Node23&#45;&gt;Node25</title>
<path fill="none" stroke="#63b8ff" d="M754.83,-165.58C758.37,-158.61 763.44,-148.62 767.87,-139.87"/>
<polygon fill="#63b8ff" stroke="#63b8ff" points="771.42,-141.61 772.82,-131.11 765.18,-138.45 771.42,-141.61"/>
</g>
<!-- Node24&#45;&gt;Node5 -->
<g id="edge38" class="edge">
<title>Node24&#45;&gt;Node5</title>
<path fill="none" stroke="#63b8ff" d="M484.9,-110.09C468.92,-101.83 445.03,-89.48 426.55,-79.93"/>
<polygon fill="#63b8ff" stroke="#63b8ff" points="428.42,-76.44 417.93,-74.95 425.21,-82.65 428.42,-76.44"/>
</g>
<!-- Node24&#45;&gt;Node6 -->
<g id="edge39" class="edge">
<title>Node24&#45;&gt;Node6</title>
<path fill="none" stroke="#63b8ff" d="M532.74,-110.09C565.09,-100.47 616.1,-85.29 649.15,-75.46"/>
<polygon fill="#63b8ff" stroke="#63b8ff" points="650.03,-78.56 658.61,-72.35 648.03,-71.85 650.03,-78.56"/>
</g>
<!-- Node25&#45;&gt;Node5 -->
<g id="edge42" class="edge">
<title>Node25&#45;&gt;Node5</title>
<path fill="none" stroke="#63b8ff" d="M728.35,-112.22C649.39,-101.09 496.28,-79.53 430.56,-70.27"/>
<polygon fill="#63b8ff" stroke="#63b8ff" points="431.1,-66.67 420.71,-68.74 430.12,-73.6 431.1,-66.67"/>
</g>
<!-- Node25&#45;&gt;Node6 -->
<g id="edge43" class="edge">
<title>Node25&#45;&gt;Node6</title>
<path fill="none" stroke="#63b8ff" d="M761.09,-110.09C746.33,-101.91 724.34,-89.71 707.19,-80.19"/>
<polygon fill="#63b8ff" stroke="#63b8ff" points="709.18,-76.74 698.74,-74.95 705.79,-82.86 709.18,-76.74"/>
</g>
<!-- Node25&#45;&gt;Node17 -->
<g id="edge44" class="edge">
<title>Node25&#45;&gt;Node17</title>
<path fill="none" stroke="#63b8ff" d="M803.33,-110.09C828.28,-101.41 866.21,-88.21 894.13,-78.49"/>
<polygon fill="#63b8ff" stroke="#63b8ff" points="895,-81.55 903.29,-74.95 892.7,-74.93 895,-81.55"/>
</g>
</g>
</svg>
