<?xml version="1.0" encoding="UTF-8" standalone="no"?>
<!DOCTYPE svg PUBLIC "-//W3C//DTD SVG 1.1//EN"
 "http://www.w3.org/Graphics/SVG/1.1/DTD/svg11.dtd">
<!-- Generated by graphviz version 8.0.5 (20230430.1635)
 -->
<!-- Title: tdms/include/field.h Pages: 1 -->
<svg width="1176pt" height="304pt"
 viewBox="0.00 0.00 1175.58 303.50" xmlns="http://www.w3.org/2000/svg" xmlns:xlink="http://www.w3.org/1999/xlink">
<g id="graph0" class="graph" transform="scale(1 1) rotate(0) translate(4 299.5)">
<title>tdms/include/field.h</title>
<!-- Node1 -->
<g id="node1" class="node">
<title>Node1</title>
<g id="a_node1"><a xlink:title="Classes for the electric and magnetic (split) fields on a grid.">
<polygon fill="#999999" stroke="#666666" points="844.75,-295.5 744,-295.5 744,-276.25 844.75,-276.25 844.75,-295.5"/>
<text text-anchor="middle" x="794.38" y="-282" font-family="Helvetica,sans-Serif" font-size="10.00">tdms/include/field.h</text>
</a>
</g>
</g>
<!-- Node2 -->
<g id="node2" class="node">
<title>Node2</title>
<g id="a_node2"><a xlink:title=" ">
<polygon fill="#e0e0e0" stroke="#999999" points="52.75,-74.5 0,-74.5 0,-55.25 52.75,-55.25 52.75,-74.5"/>
<text text-anchor="middle" x="26.38" y="-61" font-family="Helvetica,sans-Serif" font-size="10.00">complex</text>
</a>
</g>
</g>
<!-- Node1&#45;&gt;Node2 -->
<g id="edge1" class="edge">
<title>Node1&#45;&gt;Node2</title>
<path fill="none" stroke="#63b8ff" d="M743.75,-283.08C663.1,-279.45 500.81,-268.96 366.38,-240.25 212.23,-207.34 124.82,-255.19 29.38,-129.75 19.91,-117.31 19.95,-99.24 21.9,-85.49"/>
<polygon fill="#63b8ff" stroke="#63b8ff" points="25.51,-86.25 23.92,-75.77 18.63,-84.95 25.51,-86.25"/>
</g>
<!-- Node3 -->
<g id="node3" class="node">
<title>Node3</title>
<g id="a_node3"><a xlink:href="arrays_8h.html" target="_top" xlink:title="Classes describing arrays, vertices etc.">
<polygon fill="white" stroke="#666666" points="299,-185 247.75,-185 247.75,-165.75 299,-165.75 299,-185"/>
<text text-anchor="middle" x="273.38" y="-171.5" font-family="Helvetica,sans-Serif" font-size="10.00">arrays.h</text>
</a>
</g>
</g>
<!-- Node1&#45;&gt;Node3 -->
<g id="edge2" class="edge">
<title>Node1&#45;&gt;Node3</title>
<path fill="none" stroke="#63b8ff" d="M743.71,-283.18C671.81,-279.79 536.56,-269.72 425.38,-240.25 379.83,-228.18 330.02,-205.23 300.25,-190.37"/>
<polygon fill="#63b8ff" stroke="#63b8ff" points="302.1,-186.88 291.6,-185.49 298.94,-193.13 302.1,-186.88"/>
</g>
<!-- Node11 -->
<g id="node11" class="node">
<title>Node11</title>
<g id="a_node11"><a xlink:title=" ">
<polygon fill="#e0e0e0" stroke="#999999" points="520.25,-240.25 434.5,-240.25 434.5,-221 520.25,-221 520.25,-240.25"/>
<text text-anchor="middle" x="477.38" y="-226.75" font-family="Helvetica,sans-Serif" font-size="10.00">arrays/eh_vec.h</text>
</a>
</g>
</g>
<!-- Node1&#45;&gt;Node11 -->
<g id="edge14" class="edge">
<title>Node1&#45;&gt;Node11</title>
<path fill="none" stroke="#63b8ff" d="M743.79,-276.38C685.71,-266.62 590.79,-250.68 531.32,-240.69"/>
<polygon fill="#63b8ff" stroke="#63b8ff" points="532.09,-237.1 521.64,-238.89 530.93,-244 532.09,-237.1"/>
</g>
<!-- Node12 -->
<g id="node12" class="node">
<title>Node12</title>
<g id="a_node12"><a xlink:href="cell__coordinate_8h.html" target="_top" xlink:title="Container for {ijk} or {IJK} grouped variables.">
<polygon fill="white" stroke="#666666" points="1034.12,-185 944.62,-185 944.62,-165.75 1034.12,-165.75 1034.12,-185"/>
<text text-anchor="middle" x="989.38" y="-171.5" font-family="Helvetica,sans-Serif" font-size="10.00">cell_coordinate.h</text>
</a>
</g>
</g>
<!-- Node1&#45;&gt;Node12 -->
<g id="edge15" class="edge">
<title>Node1&#45;&gt;Node12</title>
<path fill="none" stroke="#63b8ff" d="M810.67,-275.81C844.5,-256.98 922.64,-213.51 963.47,-190.79"/>
<polygon fill="#63b8ff" stroke="#63b8ff" points="964.96,-193.41 971.99,-185.49 961.55,-187.29 964.96,-193.41"/>
</g>
<!-- Node15 -->
<g id="node15" class="node">
<title>Node15</title>
<g id="a_node15"><a xlink:href="dimensions_8h.html" target="_top" xlink:title="Defines a class that serves as an explicit converter between MATLAB pointers and array dimensions.">
<polygon fill="white" stroke="#666666" points="1124.25,-240.25 1050.5,-240.25 1050.5,-221 1124.25,-221 1124.25,-240.25"/>
<text text-anchor="middle" x="1087.38" y="-226.75" font-family="Helvetica,sans-Serif" font-size="10.00">dimensions.h</text>
</a>
</g>
</g>
<!-- Node1&#45;&gt;Node15 -->
<g id="edge18" class="edge">
<title>Node1&#45;&gt;Node15</title>
<path fill="none" stroke="#63b8ff" d="M844.41,-275.78C899,-265.86 985.76,-250.09 1039.49,-240.33"/>
<polygon fill="#63b8ff" stroke="#63b8ff" points="1039.89,-243.63 1049.1,-238.4 1038.63,-236.74 1039.89,-243.63"/>
</g>
<!-- Node16 -->
<g id="node16" class="node">
<title>Node16</title>
<g id="a_node16"><a xlink:href="mat__io_8h.html" target="_top" xlink:title="Includes MATLAB headers for I/O.">
<polygon fill="white" stroke="#666666" points="957.12,-74.5 903.62,-74.5 903.62,-55.25 957.12,-55.25 957.12,-74.5"/>
<text text-anchor="middle" x="930.38" y="-61" font-family="Helvetica,sans-Serif" font-size="10.00">mat_io.h</text>
</a>
</g>
</g>
<!-- Node1&#45;&gt;Node16 -->
<g id="edge30" class="edge">
<title>Node1&#45;&gt;Node16</title>
<path fill="none" stroke="#63b8ff" d="M845.24,-285.62C930.02,-285.7 1094.73,-280.5 1133.38,-240.25 1173.43,-198.53 1179.84,-155.4 1143.38,-110.5 1121.7,-83.82 1023.23,-72.52 968.08,-68.22"/>
<polygon fill="#63b8ff" stroke="#63b8ff" points="968.57,-64.67 958.34,-67.43 968.05,-71.65 968.57,-64.67"/>
</g>
<!-- Node20 -->
<g id="node20" class="node">
<title>Node20</title>
<g id="a_node20"><a xlink:href="input__flags_8h.html" target="_top" xlink:title="Organises enumerated constants, names, and classes for handling flag&#45;variables that are passed to TDM...">
<polygon fill="white" stroke="#666666" points="926.12,-185 854.62,-185 854.62,-165.75 926.12,-165.75 926.12,-185"/>
<text text-anchor="middle" x="890.38" y="-171.5" font-family="Helvetica,sans-Serif" font-size="10.00">input_flags.h</text>
</a>
</g>
</g>
<!-- Node1&#45;&gt;Node20 -->
<g id="edge23" class="edge">
<title>Node1&#45;&gt;Node20</title>
<path fill="none" stroke="#63b8ff" d="M802.23,-276C818.19,-257.96 854.65,-216.75 875.33,-193.38"/>
<polygon fill="#63b8ff" stroke="#63b8ff" points="877.41,-196.19 881.41,-186.38 872.16,-191.55 877.41,-196.19"/>
</g>
<!-- Node21 -->
<g id="node21" class="node">
<title>Node21</title>
<g id="a_node21"><a xlink:href="simulation__parameters_8h.html" target="_top" xlink:title="Classes collecting parameters for the simulation.">
<polygon fill="white" stroke="#666666" points="660.62,-240.25 538.12,-240.25 538.12,-221 660.62,-221 660.62,-240.25"/>
<text text-anchor="middle" x="599.38" y="-226.75" font-family="Helvetica,sans-Serif" font-size="10.00">simulation_parameters.h</text>
</a>
</g>
</g>
<!-- Node1&#45;&gt;Node21 -->
<g id="edge31" class="edge">
<title>Node1&#45;&gt;Node21</title>
<path fill="none" stroke="#63b8ff" d="M761.3,-275.84C728.66,-266.93 678.59,-253.26 642.78,-243.48"/>
<polygon fill="#63b8ff" stroke="#63b8ff" points="644.19,-239.96 633.62,-240.7 642.34,-246.71 644.19,-239.96"/>
</g>
<!-- Node3&#45;&gt;Node2 -->
<g id="edge3" class="edge">
<title>Node3&#45;&gt;Node2</title>
<path fill="none" stroke="#63b8ff" d="M247.31,-172.61C193.95,-168.49 74.78,-156.46 45.38,-129.75 33.07,-118.57 28.59,-99.8 27.03,-85.5"/>
<polygon fill="#63b8ff" stroke="#63b8ff" points="30.47,-85.53 26.3,-75.79 23.49,-86.01 30.47,-85.53"/>
</g>
<!-- Node4 -->
<g id="node4" class="node">
<title>Node4</title>
<g id="a_node4"><a xlink:title=" ">
<polygon fill="#e0e0e0" stroke="#999999" points="672.75,-129.75 614,-129.75 614,-110.5 672.75,-110.5 672.75,-129.75"/>
<text text-anchor="middle" x="643.38" y="-116.25" font-family="Helvetica,sans-Serif" font-size="10.00">stdexcept</text>
</a>
</g>
</g>
<!-- Node3&#45;&gt;Node4 -->
<g id="edge4" class="edge">
<title>Node3&#45;&gt;Node4</title>
<path fill="none" stroke="#63b8ff" d="M299.32,-171.39C354.75,-164.9 488.78,-148.54 600.38,-129.75 601.33,-129.59 602.29,-129.42 603.26,-129.25"/>
<polygon fill="#63b8ff" stroke="#63b8ff" points="603.61,-132.56 612.81,-127.31 602.34,-125.68 603.61,-132.56"/>
</g>
<!-- Node5 -->
<g id="node5" class="node">
<title>Node5</title>
<g id="a_node5"><a xlink:title=" ">
<polygon fill="#e0e0e0" stroke="#999999" points="419.38,-74.5 379.38,-74.5 379.38,-55.25 419.38,-55.25 419.38,-74.5"/>
<text text-anchor="middle" x="399.38" y="-61" font-family="Helvetica,sans-Serif" font-size="10.00">string</text>
</a>
</g>
</g>
<!-- Node3&#45;&gt;Node5 -->
<g id="edge5" class="edge">
<title>Node3&#45;&gt;Node5</title>
<path fill="none" stroke="#63b8ff" d="M247.32,-170.28C205.24,-162.6 129.72,-143.72 157.38,-110.5 183.83,-78.72 308.67,-69.48 367.96,-66.87"/>
<polygon fill="#63b8ff" stroke="#63b8ff" points="368.04,-70.33 377.9,-66.43 367.76,-63.34 368.04,-70.33"/>
</g>
<!-- Node6 -->
<g id="node6" class="node">
<title>Node6</title>
<g id="a_node6"><a xlink:title=" ">
<polygon fill="#e0e0e0" stroke="#999999" points="702.88,-74.5 659.88,-74.5 659.88,-55.25 702.88,-55.25 702.88,-74.5"/>
<text text-anchor="middle" x="681.38" y="-61" font-family="Helvetica,sans-Serif" font-size="10.00">vector</text>
</a>
</g>
</g>
<!-- Node3&#45;&gt;Node6 -->
<g id="edge6" class="edge">
<title>Node3&#45;&gt;Node6</title>
<path fill="none" stroke="#63b8ff" d="M299.28,-173.55C351.41,-171.22 472.16,-162.44 567.38,-129.75 576.72,-126.54 626.11,-98.14 656.73,-80.3"/>
<polygon fill="#63b8ff" stroke="#63b8ff" points="658.07,-82.99 664.94,-74.93 654.54,-76.95 658.07,-82.99"/>
</g>
<!-- Node7 -->
<g id="node7" class="node">
<title>Node7</title>
<g id="a_node7"><a xlink:title=" ">
<polygon fill="#e0e0e0" stroke="#999999" points="212.38,-129.75 166.38,-129.75 166.38,-110.5 212.38,-110.5 212.38,-129.75"/>
<text text-anchor="middle" x="189.38" y="-116.25" font-family="Helvetica,sans-Serif" font-size="10.00">fftw3.h</text>
</a>
</g>
</g>
<!-- Node3&#45;&gt;Node7 -->
<g id="edge7" class="edge">
<title>Node3&#45;&gt;Node7</title>
<path fill="none" stroke="#63b8ff" d="M259.13,-165.34C246.45,-157.31 227.68,-145.41 212.81,-135.98"/>
<polygon fill="#63b8ff" stroke="#63b8ff" points="215.01,-132.6 204.69,-130.2 211.27,-138.51 215.01,-132.6"/>
</g>
<!-- Node8 -->
<g id="node8" class="node">
<title>Node8</title>
<g id="a_node8"><a xlink:href="globals_8h.html" target="_top" xlink:title="Type definitions and global constants.">
<polygon fill="white" stroke="#666666" points="109.88,-129.75 54.88,-129.75 54.88,-110.5 109.88,-110.5 109.88,-129.75"/>
<text text-anchor="middle" x="82.38" y="-116.25" font-family="Helvetica,sans-Serif" font-size="10.00">globals.h</text>
</a>
</g>
</g>
<!-- Node3&#45;&gt;Node8 -->
<g id="edge8" class="edge">
<title>Node3&#45;&gt;Node8</title>
<path fill="none" stroke="#63b8ff" d="M247.62,-167.19C214.99,-158.1 158.5,-142.35 120.78,-131.83"/>
<polygon fill="#63b8ff" stroke="#63b8ff" points="121.77,-128.2 111.2,-128.88 119.89,-134.94 121.77,-128.2"/>
</g>
<!-- Node9 -->
<g id="node9" class="node">
<title>Node9</title>
<g id="a_node9"><a xlink:title=" ">
<polygon fill="#e0e0e0" stroke="#999999" points="291.88,-129.75 230.88,-129.75 230.88,-110.5 291.88,-110.5 291.88,-129.75"/>
<text text-anchor="middle" x="261.38" y="-116.25" font-family="Helvetica,sans-Serif" font-size="10.00">matlabio.h</text>
</a>
</g>
</g>
<!-- Node3&#45;&gt;Node9 -->
<g id="edge11" class="edge">
<title>Node3&#45;&gt;Node9</title>
<path fill="none" stroke="#63b8ff" d="M271.39,-165.58C269.87,-158.84 267.72,-149.27 265.8,-140.74"/>
<polygon fill="#63b8ff" stroke="#63b8ff" points="269.01,-140.1 263.4,-131.11 262.18,-141.63 269.01,-140.1"/>
</g>
<!-- Node10 -->
<g id="node10" class="node">
<title>Node10</title>
<g id="a_node10"><a xlink:href="utils_8h.html" target="_top" xlink:title="Useful miscellaneous utility functions.">
<polygon fill="white" stroke="#666666" points="352.5,-129.75 310.25,-129.75 310.25,-110.5 352.5,-110.5 352.5,-129.75"/>
<text text-anchor="middle" x="331.38" y="-116.25" font-family="Helvetica,sans-Serif" font-size="10.00">utils.h</text>
</a>
</g>
</g>
<!-- Node3&#45;&gt;Node10 -->
<g id="edge12" class="edge">
<title>Node3&#45;&gt;Node10</title>
<path fill="none" stroke="#63b8ff" d="M283.21,-165.34C291.51,-157.72 303.6,-146.62 313.59,-137.45"/>
<polygon fill="#63b8ff" stroke="#63b8ff" points="315.68,-140.37 320.68,-131.02 310.95,-135.21 315.68,-140.37"/>
</g>
<!-- Node8&#45;&gt;Node2 -->
<g id="edge9" class="edge">
<title>Node8&#45;&gt;Node2</title>
<path fill="none" stroke="#63b8ff" d="M72.88,-110.09C64.86,-102.47 53.19,-91.37 43.55,-82.2"/>
<polygon fill="#63b8ff" stroke="#63b8ff" points="46.39,-80.13 36.73,-75.77 41.57,-85.2 46.39,-80.13"/>
</g>
<!-- Node8&#45;&gt;Node5 -->
<g id="edge10" class="edge">
<title>Node8&#45;&gt;Node5</title>
<path fill="none" stroke="#63b8ff" d="M110.36,-113.21C115.03,-112.27 119.84,-111.33 124.38,-110.5 212.61,-94.29 317.34,-78.14 368.35,-70.48"/>
<polygon fill="#63b8ff" stroke="#63b8ff" points="368.6,-73.83 377.97,-68.89 367.56,-66.91 368.6,-73.83"/>
</g>
<!-- Node10&#45;&gt;Node5 -->
<g id="edge13" class="edge">
<title>Node10&#45;&gt;Node5</title>
<path fill="none" stroke="#63b8ff" d="M342.91,-110.09C352.94,-102.24 367.68,-90.7 379.58,-81.37"/>
<polygon fill="#63b8ff" stroke="#63b8ff" points="381.29,-83.7 387.01,-74.77 376.98,-78.18 381.29,-83.7"/>
</g>
<!-- Node13 -->
<g id="node13" class="node">
<title>Node13</title>
<g id="a_node13"><a xlink:title=" ">
<polygon fill="#e0e0e0" stroke="#999999" points="1116.5,-129.75 1032.25,-129.75 1032.25,-110.5 1116.5,-110.5 1116.5,-129.75"/>
<text text-anchor="middle" x="1074.38" y="-116.25" font-family="Helvetica,sans-Serif" font-size="10.00">spdlog/spdlog.h</text>
</a>
</g>
</g>
<!-- Node12&#45;&gt;Node13 -->
<g id="edge16" class="edge">
<title>Node12&#45;&gt;Node13</title>
<path fill="none" stroke="#63b8ff" d="M1003.79,-165.34C1016.62,-157.31 1035.61,-145.41 1050.67,-135.98"/>
<polygon fill="#63b8ff" stroke="#63b8ff" points="1052.27,-138.48 1058.89,-130.2 1048.55,-132.55 1052.27,-138.48"/>
</g>
<!-- Node14 -->
<g id="node14" class="node">
<title>Node14</title>
<g id="a_node14"><a xlink:title=" ">
<polygon fill="#e0e0e0" stroke="#999999" points="1014.25,-129.75 958.5,-129.75 958.5,-110.5 1014.25,-110.5 1014.25,-129.75"/>
<text text-anchor="middle" x="986.38" y="-116.25" font-family="Helvetica,sans-Serif" font-size="10.00">algorithm</text>
</a>
</g>
</g>
<!-- Node12&#45;&gt;Node14 -->
<g id="edge17" class="edge">
<title>Node12&#45;&gt;Node14</title>
<path fill="none" stroke="#63b8ff" d="M988.88,-165.58C988.5,-158.92 987.97,-149.49 987.5,-141.03"/>
<polygon fill="#63b8ff" stroke="#63b8ff" points="990.94,-140.9 986.88,-131.11 983.95,-141.29 990.94,-140.9"/>
</g>
<!-- Node15&#45;&gt;Node16 -->
<g id="edge19" class="edge">
<title>Node15&#45;&gt;Node16</title>
<path fill="none" stroke="#63b8ff" d="M1095.38,-220.54C1113.25,-199.14 1152.71,-144.79 1125.38,-110.5 1106.11,-86.32 1019.33,-74.19 968.26,-69.04"/>
<polygon fill="#63b8ff" stroke="#63b8ff" points="968.62,-65.47 958.33,-67.99 967.95,-72.43 968.62,-65.47"/>
</g>
<!-- Node17 -->
<g id="node17" class="node">
<title>Node17</title>
<g id="a_node17"><a xlink:title=" ">
<polygon fill="#e0e0e0" stroke="#999999" points="886.75,-19.25 846,-19.25 846,0 886.75,0 886.75,-19.25"/>
<text text-anchor="middle" x="866.38" y="-5.75" font-family="Helvetica,sans-Serif" font-size="10.00">mat.h</text>
</a>
</g>
</g>
<!-- Node16&#45;&gt;Node17 -->
<g id="edge20" class="edge">
<title>Node16&#45;&gt;Node17</title>
<path fill="none" stroke="#63b8ff" d="M919.52,-54.84C910.18,-47.07 896.48,-35.67 885.33,-26.4"/>
<polygon fill="#63b8ff" stroke="#63b8ff" points="888,-23.23 878.07,-19.52 883.52,-28.61 888,-23.23"/>
</g>
<!-- Node18 -->
<g id="node18" class="node">
<title>Node18</title>
<g id="a_node18"><a xlink:title=" ">
<polygon fill="#e0e0e0" stroke="#999999" points="956,-19.25 904.75,-19.25 904.75,0 956,0 956,-19.25"/>
<text text-anchor="middle" x="930.38" y="-5.75" font-family="Helvetica,sans-Serif" font-size="10.00">matrix.h</text>
</a>
</g>
</g>
<!-- Node16&#45;&gt;Node18 -->
<g id="edge21" class="edge">
<title>Node16&#45;&gt;Node18</title>
<path fill="none" stroke="#63b8ff" d="M930.38,-55.08C930.38,-48.42 930.38,-38.99 930.38,-30.53"/>
<polygon fill="#63b8ff" stroke="#63b8ff" points="933.88,-30.61 930.38,-20.61 926.88,-30.61 933.88,-30.61"/>
</g>
<!-- Node19 -->
<g id="node19" class="node">
<title>Node19</title>
<g id="a_node19"><a xlink:title=" ">
<polygon fill="#e0e0e0" stroke="#999999" points="1016.88,-19.25 973.88,-19.25 973.88,0 1016.88,0 1016.88,-19.25"/>
<text text-anchor="middle" x="995.38" y="-5.75" font-family="Helvetica,sans-Serif" font-size="10.00">mex.h</text>
</a>
</g>
</g>
<!-- Node16&#45;&gt;Node19 -->
<g id="edge22" class="edge">
<title>Node16&#45;&gt;Node19</title>
<path fill="none" stroke="#63b8ff" d="M941.4,-54.84C950.89,-47.07 964.8,-35.67 976.12,-26.4"/>
<polygon fill="#63b8ff" stroke="#63b8ff" points="977.99,-28.57 983.51,-19.52 973.56,-23.15 977.99,-28.57"/>
</g>
<!-- Node20&#45;&gt;Node4 -->
<g id="edge25" class="edge">
<title>Node20&#45;&gt;Node4</title>
<path fill="none" stroke="#63b8ff" d="M854.19,-166.57C808.7,-156.77 730.82,-139.98 683.53,-129.78"/>
<polygon fill="#63b8ff" stroke="#63b8ff" points="684.58,-126.21 674.06,-127.53 683.1,-133.05 684.58,-126.21"/>
</g>
<!-- Node20&#45;&gt;Node5 -->
<g id="edge26" class="edge">
<title>Node20&#45;&gt;Node5</title>
<path fill="none" stroke="#63b8ff" d="M854.31,-167.31C819.22,-159.9 764.71,-146.92 719.38,-129.75 701.67,-123.04 699.39,-116.33 681.38,-110.5 593.06,-81.93 483.06,-71.28 430.35,-67.62"/>
<polygon fill="#63b8ff" stroke="#63b8ff" points="430.91,-64.08 420.71,-66.92 430.46,-71.07 430.91,-64.08"/>
</g>
<!-- Node20&#45;&gt;Node6 -->
<g id="edge27" class="edge">
<title>Node20&#45;&gt;Node6</title>
<path fill="none" stroke="#63b8ff" d="M885.15,-165.51C876.53,-151.68 858.03,-125.05 835.38,-110.5 797.77,-86.34 746.75,-74.93 713.94,-69.78"/>
<polygon fill="#63b8ff" stroke="#63b8ff" points="714.55,-66.19 704.15,-68.21 713.54,-73.12 714.55,-66.19"/>
</g>
<!-- Node20&#45;&gt;Node13 -->
<g id="edge28" class="edge">
<title>Node20&#45;&gt;Node13</title>
<path fill="none" stroke="#63b8ff" d="M921.59,-165.34C952.12,-156.51 998.82,-142.99 1032.55,-133.23"/>
<polygon fill="#63b8ff" stroke="#63b8ff" points="1033.38,-136.34 1042.01,-130.2 1031.43,-129.62 1033.38,-136.34"/>
</g>
<!-- Node20&#45;&gt;Node14 -->
<g id="edge24" class="edge">
<title>Node20&#45;&gt;Node14</title>
<path fill="none" stroke="#63b8ff" d="M906.66,-165.34C921.42,-157.16 943.41,-144.96 960.56,-135.44"/>
<polygon fill="#63b8ff" stroke="#63b8ff" points="961.96,-138.11 969.01,-130.2 958.57,-131.99 961.96,-138.11"/>
</g>
<!-- Node20&#45;&gt;Node16 -->
<g id="edge29" class="edge">
<title>Node20&#45;&gt;Node16</title>
<path fill="none" stroke="#63b8ff" d="M893.65,-165.5C900.09,-148.01 914.56,-108.77 923.29,-85.09"/>
<polygon fill="#63b8ff" stroke="#63b8ff" points="926.88,-86.47 927.06,-75.88 920.31,-84.05 926.88,-86.47"/>
</g>
<!-- Node21&#45;&gt;Node3 -->
<g id="edge33" class="edge">
<title>Node21&#45;&gt;Node3</title>
<path fill="none" stroke="#63b8ff" d="M543.7,-220.53C476.87,-209.62 366.71,-191.62 309.85,-182.33"/>
<polygon fill="#63b8ff" stroke="#63b8ff" points="310.65,-178.75 300.22,-180.6 309.52,-185.66 310.65,-178.75"/>
</g>
<!-- Node21&#45;&gt;Node5 -->
<g id="edge32" class="edge">
<title>Node21&#45;&gt;Node5</title>
<path fill="none" stroke="#63b8ff" d="M567.33,-220.56C526.46,-207.34 456.41,-178.84 417.38,-129.75 407.28,-117.06 402.85,-99.01 400.9,-85.33"/>
<polygon fill="#63b8ff" stroke="#63b8ff" points="404.3,-85.25 399.75,-75.69 397.34,-86.01 404.3,-85.25"/>
</g>
<!-- Node22 -->
<g id="node22" class="node">
<title>Node22</title>
<g id="a_node22"><a xlink:href="input__matrices_8h.html" target="_top" xlink:title="Class handling the input matrices that are read in from the input file.">
<polygon fill="white" stroke="#666666" points="643.38,-185 555.38,-185 555.38,-165.75 643.38,-165.75 643.38,-185"/>
<text text-anchor="middle" x="599.38" y="-171.5" font-family="Helvetica,sans-Serif" font-size="10.00">input_matrices.h</text>
</a>
</g>
</g>
<!-- Node21&#45;&gt;Node22 -->
<g id="edge34" class="edge">
<title>Node21&#45;&gt;Node22</title>
<path fill="none" stroke="#63b8ff" d="M599.38,-220.83C599.38,-214.17 599.38,-204.74 599.38,-196.28"/>
<polygon fill="#63b8ff" stroke="#63b8ff" points="602.88,-196.36 599.38,-186.36 595.88,-196.36 602.88,-196.36"/>
</g>
<!-- Node22&#45;&gt;Node5 -->
<g id="edge35" class="edge">
<title>Node22&#45;&gt;Node5</title>
<path fill="none" stroke="#63b8ff" d="M555.18,-171.18C520.16,-166.68 471.59,-155.84 437.38,-129.75 422.33,-118.28 412.05,-98.99 406.02,-84.61"/>
<polygon fill="#63b8ff" stroke="#63b8ff" points="409.09,-83.84 402.22,-75.77 402.56,-86.36 409.09,-83.84"/>
</g>
<!-- Node22&#45;&gt;Node16 -->
<g id="edge39" class="edge">
<title>Node22&#45;&gt;Node16</title>
<path fill="none" stroke="#63b8ff" d="M643.51,-171.37C692.08,-166.86 771.72,-155.87 835.38,-129.75 864.32,-117.87 893.58,-96.45 911.83,-81.72"/>
<polygon fill="#63b8ff" stroke="#63b8ff" points="913.61,-83.96 919.09,-74.9 909.15,-78.57 913.61,-83.96"/>
</g>
<!-- Node23 -->
<g id="node23" class="node">
<title>Node23</title>
<g id="a_node23"><a xlink:href="input__output__names_8h.html" target="_top" xlink:title="Constant values associated with the format of the input and output files and matrices.">
<polygon fill="white" stroke="#666666" points="558.38,-129.75 446.38,-129.75 446.38,-110.5 558.38,-110.5 558.38,-129.75"/>
<text text-anchor="middle" x="502.38" y="-116.25" font-family="Helvetica,sans-Serif" font-size="10.00">input_output_names.h</text>
</a>
</g>
</g>
<!-- Node22&#45;&gt;Node23 -->
<g id="edge36" class="edge">
<title>Node22&#45;&gt;Node23</title>
<path fill="none" stroke="#63b8ff" d="M582.92,-165.34C568.01,-157.16 545.78,-144.96 528.46,-135.44"/>
<polygon fill="#63b8ff" stroke="#63b8ff" points="530.36,-131.95 519.91,-130.2 526.99,-138.08 530.36,-131.95"/>
</g>
<!-- Node24 -->
<g id="node24" class="node">
<title>Node24</title>
<g id="a_node24"><a xlink:href="matrix__collection_8h.html" target="_top" xlink:title="A collection of named MATLAB matrices.">
<polygon fill="white" stroke="#666666" points="826.25,-129.75 728.5,-129.75 728.5,-110.5 826.25,-110.5 826.25,-129.75"/>
<text text-anchor="middle" x="777.38" y="-116.25" font-family="Helvetica,sans-Serif" font-size="10.00">matrix_collection.h</text>
</a>
</g>
</g>
<!-- Node22&#45;&gt;Node24 -->
<g id="edge40" class="edge">
<title>Node22&#45;&gt;Node24</title>
<path fill="none" stroke="#63b8ff" d="M629.57,-165.34C659.11,-156.51 704.28,-142.99 736.91,-133.23"/>
<polygon fill="#63b8ff" stroke="#63b8ff" points="737.45,-136.42 746.03,-130.2 735.45,-129.72 737.45,-136.42"/>
</g>
<!-- Node23&#45;&gt;Node5 -->
<g id="edge37" class="edge">
<title>Node23&#45;&gt;Node5</title>
<path fill="none" stroke="#63b8ff" d="M484.9,-110.09C468.92,-101.83 445.03,-89.48 426.55,-79.93"/>
<polygon fill="#63b8ff" stroke="#63b8ff" points="428.42,-76.44 417.93,-74.95 425.21,-82.65 428.42,-76.44"/>
</g>
<!-- Node23&#45;&gt;Node6 -->
<g id="edge38" class="edge">
<title>Node23&#45;&gt;Node6</title>
<path fill="none" stroke="#63b8ff" d="M532.74,-110.09C565.09,-100.47 616.1,-85.29 649.15,-75.46"/>
<polygon fill="#63b8ff" stroke="#63b8ff" points="650.03,-78.56 658.61,-72.35 648.03,-71.85 650.03,-78.56"/>
</g>
<!-- Node24&#45;&gt;Node5 -->
<g id="edge41" class="edge">
<title>Node24&#45;&gt;Node5</title>
<path fill="none" stroke="#63b8ff" d="M728.35,-112.22C649.39,-101.09 496.28,-79.53 430.56,-70.27"/>
<polygon fill="#63b8ff" stroke="#63b8ff" points="431.1,-66.67 420.71,-68.74 430.12,-73.6 431.1,-66.67"/>
</g>
<!-- Node24&#45;&gt;Node6 -->
<g id="edge42" class="edge">
<title>Node24&#45;&gt;Node6</title>
<path fill="none" stroke="#63b8ff" d="M761.09,-110.09C746.33,-101.91 724.34,-89.71 707.19,-80.19"/>
<polygon fill="#63b8ff" stroke="#63b8ff" points="709.18,-76.74 698.74,-74.95 705.79,-82.86 709.18,-76.74"/>
</g>
<!-- Node24&#45;&gt;Node16 -->
<g id="edge43" class="edge">
<title>Node24&#45;&gt;Node16</title>
<path fill="none" stroke="#63b8ff" d="M803.33,-110.09C828.28,-101.41 866.21,-88.21 894.13,-78.49"/>
<polygon fill="#63b8ff" stroke="#63b8ff" points="895,-81.55 903.29,-74.95 892.7,-74.93 895,-81.55"/>
</g>
</g>
</svg>
