<?xml version="1.0" encoding="UTF-8" standalone="no"?>
<!DOCTYPE svg PUBLIC "-//W3C//DTD SVG 1.1//EN"
 "http://www.w3.org/Graphics/SVG/1.1/DTD/svg11.dtd">
<!-- Generated by graphviz version 8.0.5 (20230430.1635)
 -->
<!-- Title: tdms/include/fieldsample.h Pages: 1 -->
<svg width="1250pt" height="359pt"
 viewBox="0.00 0.00 1250.03 358.75" xmlns="http://www.w3.org/2000/svg" xmlns:xlink="http://www.w3.org/1999/xlink">
<g id="graph0" class="graph" transform="scale(1 1) rotate(0) translate(4 354.75)">
<title>tdms/include/fieldsample.h</title>
<!-- Node1 -->
<g id="node1" class="node">
<title>Node1</title>
<g id="a_node1"><a xlink:title="Class that stores the extracted field values at user&#45;defined vertices.">
<polygon fill="#999999" stroke="#666666" points="596.28,-350.75 464.03,-350.75 464.03,-331.5 596.28,-331.5 596.28,-350.75"/>
<text text-anchor="middle" x="530.15" y="-337.25" font-family="Helvetica,sans-Serif" font-size="10.00">tdms/include/fieldsample.h</text>
</a>
</g>
</g>
<!-- Node2 -->
<g id="node2" class="node">
<title>Node2</title>
<g id="a_node2"><a xlink:href="arrays_8h.html" target="_top" xlink:title="Classes describing arrays, vertices etc.">
<polygon fill="white" stroke="#666666" points="401.78,-185 350.53,-185 350.53,-165.75 401.78,-165.75 401.78,-185"/>
<text text-anchor="middle" x="376.15" y="-171.5" font-family="Helvetica,sans-Serif" font-size="10.00">arrays.h</text>
</a>
</g>
</g>
<!-- Node1&#45;&gt;Node2 -->
<g id="edge1" class="edge">
<title>Node1&#45;&gt;Node2</title>
<path fill="none" stroke="#63b8ff" d="M521.87,-331.32C497.22,-305.11 424.03,-227.28 391.74,-192.95"/>
<polygon fill="#63b8ff" stroke="#63b8ff" points="394.87,-191.11 385.47,-186.22 389.77,-195.9 394.87,-191.11"/>
</g>
<!-- Node11 -->
<g id="node11" class="node">
<title>Node11</title>
<g id="a_node11"><a xlink:href="field_8h.html" target="_top" xlink:title="Classes for the electric and magnetic (split) fields on a grid.">
<polygon fill="white" stroke="#666666" points="773.28,-295.5 731.03,-295.5 731.03,-276.25 773.28,-276.25 773.28,-295.5"/>
<text text-anchor="middle" x="752.15" y="-282" font-family="Helvetica,sans-Serif" font-size="10.00">field.h</text>
</a>
</g>
</g>
<!-- Node1&#45;&gt;Node11 -->
<g id="edge13" class="edge">
<title>Node1&#45;&gt;Node11</title>
<path fill="none" stroke="#63b8ff" d="M568.06,-331.03C610.85,-320.77 679.72,-304.25 719.99,-294.59"/>
<polygon fill="#63b8ff" stroke="#63b8ff" points="720.64,-297.79 729.54,-292.06 719,-290.99 720.64,-297.79"/>
</g>
<!-- Node21 -->
<g id="node21" class="node">
<title>Node21</title>
<g id="a_node21"><a xlink:href="simulation__parameters_8h.html" target="_top" xlink:title="Classes collecting parameters for the simulation.">
<polygon fill="white" stroke="#666666" points="591.4,-240.25 468.9,-240.25 468.9,-221 591.4,-221 591.4,-240.25"/>
<text text-anchor="middle" x="530.15" y="-226.75" font-family="Helvetica,sans-Serif" font-size="10.00">simulation_parameters.h</text>
</a>
</g>
</g>
<!-- Node1&#45;&gt;Node21 -->
<g id="edge45" class="edge">
<title>Node1&#45;&gt;Node21</title>
<path fill="none" stroke="#63b8ff" d="M530.15,-331.25C530.15,-313.92 530.15,-275.23 530.15,-251.49"/>
<polygon fill="#63b8ff" stroke="#63b8ff" points="533.65,-251.63 530.15,-241.63 526.65,-251.63 533.65,-251.63"/>
</g>
<!-- Node3 -->
<g id="node3" class="node">
<title>Node3</title>
<g id="a_node3"><a xlink:title=" ">
<polygon fill="#e0e0e0" stroke="#999999" points="402.53,-74.5 349.78,-74.5 349.78,-55.25 402.53,-55.25 402.53,-74.5"/>
<text text-anchor="middle" x="376.15" y="-61" font-family="Helvetica,sans-Serif" font-size="10.00">complex</text>
</a>
</g>
</g>
<!-- Node2&#45;&gt;Node3 -->
<g id="edge2" class="edge">
<title>Node2&#45;&gt;Node3</title>
<path fill="none" stroke="#63b8ff" d="M376.15,-165.5C376.15,-148.17 376.15,-109.48 376.15,-85.74"/>
<polygon fill="#63b8ff" stroke="#63b8ff" points="379.65,-85.88 376.15,-75.88 372.65,-85.88 379.65,-85.88"/>
</g>
<!-- Node4 -->
<g id="node4" class="node">
<title>Node4</title>
<g id="a_node4"><a xlink:title=" ">
<polygon fill="#e0e0e0" stroke="#999999" points="500.53,-129.75 441.78,-129.75 441.78,-110.5 500.53,-110.5 500.53,-129.75"/>
<text text-anchor="middle" x="471.15" y="-116.25" font-family="Helvetica,sans-Serif" font-size="10.00">stdexcept</text>
</a>
</g>
</g>
<!-- Node2&#45;&gt;Node4 -->
<g id="edge3" class="edge">
<title>Node2&#45;&gt;Node4</title>
<path fill="none" stroke="#63b8ff" d="M392.27,-165.34C406.87,-157.16 428.64,-144.96 445.61,-135.44"/>
<polygon fill="#63b8ff" stroke="#63b8ff" points="446.95,-138.15 453.96,-130.2 443.52,-132.04 446.95,-138.15"/>
</g>
<!-- Node5 -->
<g id="node5" class="node">
<title>Node5</title>
<g id="a_node5"><a xlink:title=" ">
<polygon fill="#e0e0e0" stroke="#999999" points="317.15,-74.5 277.15,-74.5 277.15,-55.25 317.15,-55.25 317.15,-74.5"/>
<text text-anchor="middle" x="297.15" y="-61" font-family="Helvetica,sans-Serif" font-size="10.00">string</text>
</a>
</g>
</g>
<!-- Node2&#45;&gt;Node5 -->
<g id="edge4" class="edge">
<title>Node2&#45;&gt;Node5</title>
<path fill="none" stroke="#63b8ff" d="M350.32,-174.23C288.32,-173.27 133.92,-167.11 102.15,-129.75 56.12,-75.62 200.2,-67.06 266.08,-65.92"/>
<polygon fill="#63b8ff" stroke="#63b8ff" points="265.72,-69.42 275.68,-65.79 265.64,-62.42 265.72,-69.42"/>
</g>
<!-- Node6 -->
<g id="node6" class="node">
<title>Node6</title>
<g id="a_node6"><a xlink:title=" ">
<polygon fill="#e0e0e0" stroke="#999999" points="713.65,-74.5 670.65,-74.5 670.65,-55.25 713.65,-55.25 713.65,-74.5"/>
<text text-anchor="middle" x="692.15" y="-61" font-family="Helvetica,sans-Serif" font-size="10.00">vector</text>
</a>
</g>
</g>
<!-- Node2&#45;&gt;Node6 -->
<g id="edge5" class="edge">
<title>Node2&#45;&gt;Node6</title>
<path fill="none" stroke="#63b8ff" d="M381.18,-165.67C389.84,-151.55 408.98,-123.91 433.15,-110.5 471.57,-89.19 598.77,-74.69 659.42,-68.81"/>
<polygon fill="#63b8ff" stroke="#63b8ff" points="659.65,-72.21 669.28,-67.78 658.99,-65.24 659.65,-72.21"/>
</g>
<!-- Node7 -->
<g id="node7" class="node">
<title>Node7</title>
<g id="a_node7"><a xlink:title=" ">
<polygon fill="#e0e0e0" stroke="#999999" points="157.15,-129.75 111.15,-129.75 111.15,-110.5 157.15,-110.5 157.15,-129.75"/>
<text text-anchor="middle" x="134.15" y="-116.25" font-family="Helvetica,sans-Serif" font-size="10.00">fftw3.h</text>
</a>
</g>
</g>
<!-- Node2&#45;&gt;Node7 -->
<g id="edge6" class="edge">
<title>Node2&#45;&gt;Node7</title>
<path fill="none" stroke="#63b8ff" d="M350.19,-169.33C312.28,-161.85 239.36,-147.1 168.04,-130.11"/>
<polygon fill="#63b8ff" stroke="#63b8ff" points="169.07,-126.51 158.53,-127.58 167.44,-133.32 169.07,-126.51"/>
</g>
<!-- Node8 -->
<g id="node8" class="node">
<title>Node8</title>
<g id="a_node8"><a xlink:href="globals_8h.html" target="_top" xlink:title="Type definitions and global constants.">
<polygon fill="white" stroke="#666666" points="309.65,-129.75 254.65,-129.75 254.65,-110.5 309.65,-110.5 309.65,-129.75"/>
<text text-anchor="middle" x="282.15" y="-116.25" font-family="Helvetica,sans-Serif" font-size="10.00">globals.h</text>
</a>
</g>
</g>
<!-- Node2&#45;&gt;Node8 -->
<g id="edge7" class="edge">
<title>Node2&#45;&gt;Node8</title>
<path fill="none" stroke="#63b8ff" d="M360.21,-165.34C345.76,-157.16 324.22,-144.96 307.43,-135.44"/>
<polygon fill="#63b8ff" stroke="#63b8ff" points="309.6,-132.09 299.18,-130.2 306.15,-138.18 309.6,-132.09"/>
</g>
<!-- Node9 -->
<g id="node9" class="node">
<title>Node9</title>
<g id="a_node9"><a xlink:title=" ">
<polygon fill="#e0e0e0" stroke="#999999" points="236.65,-129.75 175.65,-129.75 175.65,-110.5 236.65,-110.5 236.65,-129.75"/>
<text text-anchor="middle" x="206.15" y="-116.25" font-family="Helvetica,sans-Serif" font-size="10.00">matlabio.h</text>
</a>
</g>
</g>
<!-- Node2&#45;&gt;Node9 -->
<g id="edge10" class="edge">
<title>Node2&#45;&gt;Node9</title>
<path fill="none" stroke="#63b8ff" d="M350.33,-166.29C322.46,-157.56 277.73,-143.55 245.48,-133.44"/>
<polygon fill="#63b8ff" stroke="#63b8ff" points="246.65,-129.83 236.07,-130.18 244.56,-136.51 246.65,-129.83"/>
</g>
<!-- Node10 -->
<g id="node10" class="node">
<title>Node10</title>
<g id="a_node10"><a xlink:href="utils_8h.html" target="_top" xlink:title="Useful miscellaneous utility functions.">
<polygon fill="white" stroke="#666666" points="55.28,-129.75 13.03,-129.75 13.03,-110.5 55.28,-110.5 55.28,-129.75"/>
<text text-anchor="middle" x="34.15" y="-116.25" font-family="Helvetica,sans-Serif" font-size="10.00">utils.h</text>
</a>
</g>
</g>
<!-- Node2&#45;&gt;Node10 -->
<g id="edge11" class="edge">
<title>Node2&#45;&gt;Node10</title>
<path fill="none" stroke="#63b8ff" d="M350.13,-171.46C297.04,-165.32 172.49,-149.94 69.15,-129.75 68.18,-129.56 67.2,-129.36 66.21,-129.16"/>
<polygon fill="#63b8ff" stroke="#63b8ff" points="67.08,-125.54 56.55,-126.75 65.53,-132.37 67.08,-125.54"/>
</g>
<!-- Node8&#45;&gt;Node3 -->
<g id="edge8" class="edge">
<title>Node8&#45;&gt;Node3</title>
<path fill="none" stroke="#63b8ff" d="M298.1,-110.09C312.55,-101.91 334.08,-89.71 350.88,-80.19"/>
<polygon fill="#63b8ff" stroke="#63b8ff" points="352.15,-82.93 359.13,-74.95 348.7,-76.84 352.15,-82.93"/>
</g>
<!-- Node8&#45;&gt;Node5 -->
<g id="edge9" class="edge">
<title>Node8&#45;&gt;Node5</title>
<path fill="none" stroke="#63b8ff" d="M284.63,-110.33C286.55,-103.51 289.28,-93.81 291.71,-85.2"/>
<polygon fill="#63b8ff" stroke="#63b8ff" points="295.28,-86.43 294.62,-75.86 288.54,-84.54 295.28,-86.43"/>
</g>
<!-- Node10&#45;&gt;Node5 -->
<g id="edge12" class="edge">
<title>Node10&#45;&gt;Node5</title>
<path fill="none" stroke="#63b8ff" d="M55.58,-113.67C60.06,-112.58 64.75,-111.47 69.15,-110.5 139.29,-95 222.18,-79.47 266.14,-71.45"/>
<polygon fill="#63b8ff" stroke="#63b8ff" points="266.74,-74.72 275.95,-69.49 265.49,-67.83 266.74,-74.72"/>
</g>
<!-- Node11&#45;&gt;Node2 -->
<g id="edge15" class="edge">
<title>Node11&#45;&gt;Node2</title>
<path fill="none" stroke="#63b8ff" d="M733.88,-275.77C705.78,-262.11 649.96,-236.26 600.15,-221 535.49,-201.19 457.57,-187.97 412.75,-181.35"/>
<polygon fill="#63b8ff" stroke="#63b8ff" points="413.5,-177.78 403.1,-179.81 412.49,-184.71 413.5,-177.78"/>
</g>
<!-- Node11&#45;&gt;Node3 -->
<g id="edge14" class="edge">
<title>Node11&#45;&gt;Node3</title>
<path fill="none" stroke="#63b8ff" d="M751.27,-275.81C747.9,-246.46 733.04,-153.51 677.15,-110.5 636.52,-79.23 484.44,-69.72 413.29,-66.96"/>
<polygon fill="#63b8ff" stroke="#63b8ff" points="413.72,-63.43 403.6,-66.57 413.46,-70.43 413.72,-63.43"/>
</g>
<!-- Node12 -->
<g id="node12" class="node">
<title>Node12</title>
<g id="a_node12"><a xlink:href="cell__coordinate_8h.html" target="_top" xlink:title="Container for {ijk} or {IJK} grouped variables.">
<polygon fill="white" stroke="#666666" points="1028.9,-185 939.4,-185 939.4,-165.75 1028.9,-165.75 1028.9,-185"/>
<text text-anchor="middle" x="984.15" y="-171.5" font-family="Helvetica,sans-Serif" font-size="10.00">cell_coordinate.h</text>
</a>
</g>
</g>
<!-- Node11&#45;&gt;Node12 -->
<g id="edge16" class="edge">
<title>Node11&#45;&gt;Node12</title>
<path fill="none" stroke="#63b8ff" d="M771.53,-275.81C812.22,-256.78 906.73,-212.58 954.86,-190.08"/>
<polygon fill="#63b8ff" stroke="#63b8ff" points="956.09,-192.9 963.66,-185.49 953.12,-186.56 956.09,-192.9"/>
</g>
<!-- Node15 -->
<g id="node15" class="node">
<title>Node15</title>
<g id="a_node15"><a xlink:href="dimensions_8h.html" target="_top" xlink:title="Defines a class that serves as an explicit converter between MATLAB pointers and array dimensions.">
<polygon fill="white" stroke="#666666" points="1242.03,-240.25 1168.28,-240.25 1168.28,-221 1242.03,-221 1242.03,-240.25"/>
<text text-anchor="middle" x="1205.15" y="-226.75" font-family="Helvetica,sans-Serif" font-size="10.00">dimensions.h</text>
</a>
</g>
</g>
<!-- Node11&#45;&gt;Node15 -->
<g id="edge19" class="edge">
<title>Node11&#45;&gt;Node15</title>
<path fill="none" stroke="#63b8ff" d="M773.56,-282.93C833.68,-277.38 1009.16,-260.54 1154.15,-240.25 1155.12,-240.11 1156.11,-239.97 1157.1,-239.83"/>
<polygon fill="#63b8ff" stroke="#63b8ff" points="1157.51,-243.15 1166.87,-238.18 1156.45,-236.23 1157.51,-243.15"/>
</g>
<!-- Node16 -->
<g id="node16" class="node">
<title>Node16</title>
<g id="a_node16"><a xlink:href="mat__io_8h.html" target="_top" xlink:title="Includes MATLAB headers for I/O.">
<polygon fill="white" stroke="#666666" points="952.9,-74.5 899.4,-74.5 899.4,-55.25 952.9,-55.25 952.9,-74.5"/>
<text text-anchor="middle" x="926.15" y="-61" font-family="Helvetica,sans-Serif" font-size="10.00">mat_io.h</text>
</a>
</g>
</g>
<!-- Node11&#45;&gt;Node16 -->
<g id="edge31" class="edge">
<title>Node11&#45;&gt;Node16</title>
<path fill="none" stroke="#63b8ff" d="M773.49,-284.28C841.24,-281.07 1051.1,-260.54 1121.15,-129.75 1125.19,-122.21 1126.48,-117.19 1121.15,-110.5 1101.88,-86.32 1015.1,-74.19 964.03,-69.04"/>
<polygon fill="#63b8ff" stroke="#63b8ff" points="964.39,-65.47 954.1,-67.99 963.72,-72.43 964.39,-65.47"/>
</g>
<!-- Node20 -->
<g id="node20" class="node">
<title>Node20</title>
<g id="a_node20"><a xlink:href="input__flags_8h.html" target="_top" xlink:title="Organises enumerated constants, names, and classes for handling flag&#45;variables that are passed to TDM...">
<polygon fill="white" stroke="#666666" points="920.9,-185 849.4,-185 849.4,-165.75 920.9,-165.75 920.9,-185"/>
<text text-anchor="middle" x="885.15" y="-171.5" font-family="Helvetica,sans-Serif" font-size="10.00">input_flags.h</text>
</a>
</g>
</g>
<!-- Node11&#45;&gt;Node20 -->
<g id="edge24" class="edge">
<title>Node11&#45;&gt;Node20</title>
<path fill="none" stroke="#63b8ff" d="M763.04,-276C785.54,-257.64 837.45,-215.29 865.81,-192.16"/>
<polygon fill="#63b8ff" stroke="#63b8ff" points="867.58,-194.41 873.12,-185.38 863.16,-188.99 867.58,-194.41"/>
</g>
<!-- Node11&#45;&gt;Node21 -->
<g id="edge32" class="edge">
<title>Node11&#45;&gt;Node21</title>
<path fill="none" stroke="#63b8ff" d="M730.87,-279.77C696.03,-271.41 625.98,-254.61 578.57,-243.24"/>
<polygon fill="#63b8ff" stroke="#63b8ff" points="579.47,-239.61 568.93,-240.69 577.83,-246.42 579.47,-239.61"/>
</g>
<!-- Node13 -->
<g id="node13" class="node">
<title>Node13</title>
<g id="a_node13"><a xlink:title=" ">
<polygon fill="#e0e0e0" stroke="#999999" points="1112.28,-129.75 1028.03,-129.75 1028.03,-110.5 1112.28,-110.5 1112.28,-129.75"/>
<text text-anchor="middle" x="1070.15" y="-116.25" font-family="Helvetica,sans-Serif" font-size="10.00">spdlog/spdlog.h</text>
</a>
</g>
</g>
<!-- Node12&#45;&gt;Node13 -->
<g id="edge17" class="edge">
<title>Node12&#45;&gt;Node13</title>
<path fill="none" stroke="#63b8ff" d="M998.74,-165.34C1011.71,-157.31 1030.93,-145.41 1046.16,-135.98"/>
<polygon fill="#63b8ff" stroke="#63b8ff" points="1047.83,-138.44 1054.49,-130.2 1044.15,-132.49 1047.83,-138.44"/>
</g>
<!-- Node14 -->
<g id="node14" class="node">
<title>Node14</title>
<g id="a_node14"><a xlink:title=" ">
<polygon fill="#e0e0e0" stroke="#999999" points="1010.03,-129.75 954.28,-129.75 954.28,-110.5 1010.03,-110.5 1010.03,-129.75"/>
<text text-anchor="middle" x="982.15" y="-116.25" font-family="Helvetica,sans-Serif" font-size="10.00">algorithm</text>
</a>
</g>
</g>
<!-- Node12&#45;&gt;Node14 -->
<g id="edge18" class="edge">
<title>Node12&#45;&gt;Node14</title>
<path fill="none" stroke="#63b8ff" d="M983.82,-165.58C983.57,-158.92 983.22,-149.49 982.9,-141.03"/>
<polygon fill="#63b8ff" stroke="#63b8ff" points="986.36,-140.97 982.49,-131.11 979.37,-141.23 986.36,-140.97"/>
</g>
<!-- Node15&#45;&gt;Node16 -->
<g id="edge20" class="edge">
<title>Node15&#45;&gt;Node16</title>
<path fill="none" stroke="#63b8ff" d="M1204.16,-220.78C1201.15,-198.44 1190.02,-139.49 1154.15,-110.5 1125.41,-87.26 1020.95,-74.43 963.93,-69.01"/>
<polygon fill="#63b8ff" stroke="#63b8ff" points="964.48,-65.45 954.2,-68.02 963.84,-72.42 964.48,-65.45"/>
</g>
<!-- Node17 -->
<g id="node17" class="node">
<title>Node17</title>
<g id="a_node17"><a xlink:title=" ">
<polygon fill="#e0e0e0" stroke="#999999" points="882.53,-19.25 841.78,-19.25 841.78,0 882.53,0 882.53,-19.25"/>
<text text-anchor="middle" x="862.15" y="-5.75" font-family="Helvetica,sans-Serif" font-size="10.00">mat.h</text>
</a>
</g>
</g>
<!-- Node16&#45;&gt;Node17 -->
<g id="edge21" class="edge">
<title>Node16&#45;&gt;Node17</title>
<path fill="none" stroke="#63b8ff" d="M915.3,-54.84C905.95,-47.07 892.26,-35.67 881.11,-26.4"/>
<polygon fill="#63b8ff" stroke="#63b8ff" points="883.77,-23.23 873.85,-19.52 879.3,-28.61 883.77,-23.23"/>
</g>
<!-- Node18 -->
<g id="node18" class="node">
<title>Node18</title>
<g id="a_node18"><a xlink:title=" ">
<polygon fill="#e0e0e0" stroke="#999999" points="951.78,-19.25 900.53,-19.25 900.53,0 951.78,0 951.78,-19.25"/>
<text text-anchor="middle" x="926.15" y="-5.75" font-family="Helvetica,sans-Serif" font-size="10.00">matrix.h</text>
</a>
</g>
</g>
<!-- Node16&#45;&gt;Node18 -->
<g id="edge22" class="edge">
<title>Node16&#45;&gt;Node18</title>
<path fill="none" stroke="#63b8ff" d="M926.15,-55.08C926.15,-48.42 926.15,-38.99 926.15,-30.53"/>
<polygon fill="#63b8ff" stroke="#63b8ff" points="929.65,-30.61 926.15,-20.61 922.65,-30.61 929.65,-30.61"/>
</g>
<!-- Node19 -->
<g id="node19" class="node">
<title>Node19</title>
<g id="a_node19"><a xlink:title=" ">
<polygon fill="#e0e0e0" stroke="#999999" points="1012.65,-19.25 969.65,-19.25 969.65,0 1012.65,0 1012.65,-19.25"/>
<text text-anchor="middle" x="991.15" y="-5.75" font-family="Helvetica,sans-Serif" font-size="10.00">mex.h</text>
</a>
</g>
</g>
<!-- Node16&#45;&gt;Node19 -->
<g id="edge23" class="edge">
<title>Node16&#45;&gt;Node19</title>
<path fill="none" stroke="#63b8ff" d="M937.18,-54.84C946.67,-47.07 960.58,-35.67 971.9,-26.4"/>
<polygon fill="#63b8ff" stroke="#63b8ff" points="973.77,-28.57 979.29,-19.52 969.33,-23.15 973.77,-28.57"/>
</g>
<!-- Node20&#45;&gt;Node4 -->
<g id="edge26" class="edge">
<title>Node20&#45;&gt;Node4</title>
<path fill="none" stroke="#63b8ff" d="M848.95,-170.97C782.42,-164.5 636.34,-149.32 514.15,-129.75 513.2,-129.6 512.23,-129.44 511.26,-129.27"/>
<polygon fill="#63b8ff" stroke="#63b8ff" points="512.17,-125.7 501.7,-127.37 510.92,-132.59 512.17,-125.7"/>
</g>
<!-- Node20&#45;&gt;Node5 -->
<g id="edge27" class="edge">
<title>Node20&#45;&gt;Node5</title>
<path fill="none" stroke="#63b8ff" d="M849.28,-173.58C786.62,-171.34 653.74,-162.73 547.15,-129.75 529.07,-124.15 527.01,-116.78 509.15,-110.5 492.22,-104.55 382.71,-82.67 328.06,-71.92"/>
<polygon fill="#63b8ff" stroke="#63b8ff" points="329.09,-68.36 318.6,-69.86 327.74,-75.22 329.09,-68.36"/>
</g>
<!-- Node20&#45;&gt;Node6 -->
<g id="edge28" class="edge">
<title>Node20&#45;&gt;Node6</title>
<path fill="none" stroke="#63b8ff" d="M880.01,-165.59C871.54,-151.86 853.36,-125.36 831.15,-110.5 798.47,-88.62 754.33,-76.87 724.64,-71.01"/>
<polygon fill="#63b8ff" stroke="#63b8ff" points="725.49,-67.42 715.02,-69.04 724.22,-74.3 725.49,-67.42"/>
</g>
<!-- Node20&#45;&gt;Node13 -->
<g id="edge29" class="edge">
<title>Node20&#45;&gt;Node13</title>
<path fill="none" stroke="#63b8ff" d="M916.53,-165.34C947.23,-156.51 994.18,-142.99 1028.1,-133.23"/>
<polygon fill="#63b8ff" stroke="#63b8ff" points="1028.97,-136.33 1037.62,-130.2 1027.04,-129.61 1028.97,-136.33"/>
</g>
<!-- Node20&#45;&gt;Node14 -->
<g id="edge25" class="edge">
<title>Node20&#45;&gt;Node14</title>
<path fill="none" stroke="#63b8ff" d="M901.61,-165.34C916.52,-157.16 938.74,-144.96 956.07,-135.44"/>
<polygon fill="#63b8ff" stroke="#63b8ff" points="957.53,-138.08 964.62,-130.2 954.17,-131.95 957.53,-138.08"/>
</g>
<!-- Node20&#45;&gt;Node16 -->
<g id="edge30" class="edge">
<title>Node20&#45;&gt;Node16</title>
<path fill="none" stroke="#63b8ff" d="M888.55,-165.49C891.99,-156.49 897.46,-142.16 902.15,-129.75 907.8,-114.82 914.15,-97.91 918.9,-85.24"/>
<polygon fill="#63b8ff" stroke="#63b8ff" points="922.52,-86.57 922.75,-75.98 915.96,-84.11 922.52,-86.57"/>
</g>
<!-- Node21&#45;&gt;Node2 -->
<g id="edge34" class="edge">
<title>Node21&#45;&gt;Node2</title>
<path fill="none" stroke="#63b8ff" d="M504.03,-220.59C478.84,-211.88 440.51,-198.63 412.38,-188.9"/>
<polygon fill="#63b8ff" stroke="#63b8ff" points="413.74,-185.32 403.15,-185.36 411.45,-191.94 413.74,-185.32"/>
</g>
<!-- Node21&#45;&gt;Node5 -->
<g id="edge33" class="edge">
<title>Node21&#45;&gt;Node5</title>
<path fill="none" stroke="#63b8ff" d="M468.52,-227.39C342.55,-221.4 62.54,-200.27 4.15,-129.75 -1.3,-123.16 -1.42,-116.99 4.15,-110.5 37.67,-71.49 197.55,-66.19 265.97,-65.74"/>
<polygon fill="#63b8ff" stroke="#63b8ff" points="265.9,-69.24 275.88,-65.71 265.87,-62.24 265.9,-69.24"/>
</g>
<!-- Node22 -->
<g id="node22" class="node">
<title>Node22</title>
<g id="a_node22"><a xlink:href="input__matrices_8h.html" target="_top" xlink:title="Class handling the input matrices that are read in from the input file.">
<polygon fill="white" stroke="#666666" points="656.15,-185 568.15,-185 568.15,-165.75 656.15,-165.75 656.15,-185"/>
<text text-anchor="middle" x="612.15" y="-171.5" font-family="Helvetica,sans-Serif" font-size="10.00">input_matrices.h</text>
</a>
</g>
</g>
<!-- Node21&#45;&gt;Node22 -->
<g id="edge35" class="edge">
<title>Node21&#45;&gt;Node22</title>
<path fill="none" stroke="#63b8ff" d="M544.06,-220.59C556.43,-212.56 574.75,-200.66 589.28,-191.23"/>
<polygon fill="#63b8ff" stroke="#63b8ff" points="590.69,-193.83 597.17,-185.45 586.88,-187.96 590.69,-193.83"/>
</g>
<!-- Node22&#45;&gt;Node5 -->
<g id="edge36" class="edge">
<title>Node22&#45;&gt;Node5</title>
<path fill="none" stroke="#63b8ff" d="M567.67,-165.81C531.02,-158.15 477.96,-145.69 433.15,-129.75 393.49,-115.64 349.79,-93.94 322.9,-79.82"/>
<polygon fill="#63b8ff" stroke="#63b8ff" points="324.93,-76.41 314.46,-74.81 321.65,-82.59 324.93,-76.41"/>
</g>
<!-- Node22&#45;&gt;Node16 -->
<g id="edge40" class="edge">
<title>Node22&#45;&gt;Node16</title>
<path fill="none" stroke="#63b8ff" d="M656.44,-170.47C701.76,-165.31 773.53,-153.87 831.15,-129.75 860.01,-117.67 889.3,-96.3 907.57,-81.62"/>
<polygon fill="#63b8ff" stroke="#63b8ff" points="909.33,-83.89 914.84,-74.84 904.89,-78.48 909.33,-83.89"/>
</g>
<!-- Node23 -->
<g id="node23" class="node">
<title>Node23</title>
<g id="a_node23"><a xlink:href="input__output__names_8h.html" target="_top" xlink:title="Constant values associated with the format of the input and output files and matrices.">
<polygon fill="white" stroke="#666666" points="668.15,-129.75 556.15,-129.75 556.15,-110.5 668.15,-110.5 668.15,-129.75"/>
<text text-anchor="middle" x="612.15" y="-116.25" font-family="Helvetica,sans-Serif" font-size="10.00">input_output_names.h</text>
</a>
</g>
</g>
<!-- Node22&#45;&gt;Node23 -->
<g id="edge37" class="edge">
<title>Node22&#45;&gt;Node23</title>
<path fill="none" stroke="#63b8ff" d="M612.15,-165.58C612.15,-158.92 612.15,-149.49 612.15,-141.03"/>
<polygon fill="#63b8ff" stroke="#63b8ff" points="615.65,-141.11 612.15,-131.11 608.65,-141.11 615.65,-141.11"/>
</g>
<!-- Node24 -->
<g id="node24" class="node">
<title>Node24</title>
<g id="a_node24"><a xlink:href="matrix__collection_8h.html" target="_top" xlink:title="A collection of named MATLAB matrices.">
<polygon fill="white" stroke="#666666" points="822.03,-129.75 724.28,-129.75 724.28,-110.5 822.03,-110.5 822.03,-129.75"/>
<text text-anchor="middle" x="773.15" y="-116.25" font-family="Helvetica,sans-Serif" font-size="10.00">matrix_collection.h</text>
</a>
</g>
</g>
<!-- Node22&#45;&gt;Node24 -->
<g id="edge41" class="edge">
<title>Node22&#45;&gt;Node24</title>
<path fill="none" stroke="#63b8ff" d="M639.46,-165.34C665.83,-156.62 705.98,-143.34 735.4,-133.61"/>
<polygon fill="#63b8ff" stroke="#63b8ff" points="736.31,-136.67 744.71,-130.2 734.11,-130.02 736.31,-136.67"/>
</g>
<!-- Node23&#45;&gt;Node5 -->
<g id="edge38" class="edge">
<title>Node23&#45;&gt;Node5</title>
<path fill="none" stroke="#63b8ff" d="M555.75,-110.35C500.87,-101.69 415.18,-87.85 341.15,-74.5 336.88,-73.73 332.38,-72.89 327.95,-72.04"/>
<polygon fill="#63b8ff" stroke="#63b8ff" points="328.76,-68.43 318.28,-69.95 327.42,-75.3 328.76,-68.43"/>
</g>
<!-- Node23&#45;&gt;Node6 -->
<g id="edge39" class="edge">
<title>Node23&#45;&gt;Node6</title>
<path fill="none" stroke="#63b8ff" d="M625.72,-110.09C637.68,-102.14 655.33,-90.39 669.43,-81"/>
<polygon fill="#63b8ff" stroke="#63b8ff" points="671.13,-83.41 677.51,-74.95 667.25,-77.58 671.13,-83.41"/>
</g>
<!-- Node24&#45;&gt;Node5 -->
<g id="edge42" class="edge">
<title>Node24&#45;&gt;Node5</title>
<path fill="none" stroke="#63b8ff" d="M724.01,-114.62C627,-105.62 413.95,-85.37 341.15,-74.5 336.86,-73.86 332.35,-73.09 327.91,-72.27"/>
<polygon fill="#63b8ff" stroke="#63b8ff" points="328.72,-68.67 318.24,-70.21 327.39,-75.54 328.72,-68.67"/>
</g>
<!-- Node24&#45;&gt;Node6 -->
<g id="edge43" class="edge">
<title>Node24&#45;&gt;Node6</title>
<path fill="none" stroke="#63b8ff" d="M759.41,-110.09C747.19,-102.06 729.09,-90.16 714.75,-80.73"/>
<polygon fill="#63b8ff" stroke="#63b8ff" points="717.24,-77.52 706.96,-74.95 713.39,-83.37 717.24,-77.52"/>
</g>
<!-- Node24&#45;&gt;Node16 -->
<g id="edge44" class="edge">
<title>Node24&#45;&gt;Node16</title>
<path fill="none" stroke="#63b8ff" d="M799.11,-110.09C824.05,-101.41 861.98,-88.21 889.91,-78.49"/>
<polygon fill="#63b8ff" stroke="#63b8ff" points="890.78,-81.55 899.07,-74.95 888.48,-74.93 890.78,-81.55"/>
</g>
</g>
</svg>
