<?xml version="1.0" encoding="UTF-8" standalone="no"?>
<!DOCTYPE svg PUBLIC "-//W3C//DTD SVG 1.1//EN"
 "http://www.w3.org/Graphics/SVG/1.1/DTD/svg11.dtd">
<!-- Generated by graphviz version 8.0.5 (20230430.1635)
 -->
<!-- Title: tdms/include/field.h Pages: 1 -->
<svg width="1253pt" height="304pt"
 viewBox="0.00 0.00 1253.25 303.50" xmlns="http://www.w3.org/2000/svg" xmlns:xlink="http://www.w3.org/1999/xlink">
<g id="graph0" class="graph" transform="scale(1 1) rotate(0) translate(4 299.5)">
<title>tdms/include/field.h</title>
<!-- Node1 -->
<g id="node1" class="node">
<title>Node1</title>
<g id="a_node1"><a xlink:title="Classes for the electric and magnetic (split) fields on a grid.">
<polygon fill="#999999" stroke="#666666" points="919.75,-295.5 819,-295.5 819,-276.25 919.75,-276.25 919.75,-295.5"/>
<text text-anchor="middle" x="869.38" y="-282" font-family="Helvetica,sans-Serif" font-size="10.00">tdms/include/field.h</text>
</a>
</g>
</g>
<!-- Node2 -->
<g id="node2" class="node">
<title>Node2</title>
<g id="a_node2"><a xlink:title=" ">
<polygon fill="#e0e0e0" stroke="#999999" points="52.75,-74.5 0,-74.5 0,-55.25 52.75,-55.25 52.75,-74.5"/>
<text text-anchor="middle" x="26.38" y="-61" font-family="Helvetica,sans-Serif" font-size="10.00">complex</text>
</a>
</g>
</g>
<!-- Node1&#45;&gt;Node2 -->
<g id="edge1" class="edge">
<title>Node1&#45;&gt;Node2</title>
<path fill="none" stroke="#63b8ff" d="M818.51,-282.13C738.26,-277.21 577.56,-265.03 443.38,-240.25 256.1,-205.67 148.89,-278.02 29.38,-129.75 19.47,-117.46 19.64,-99.12 21.75,-85.24"/>
<polygon fill="#63b8ff" stroke="#63b8ff" points="25.3,-86.35 23.8,-75.86 18.43,-84.99 25.3,-86.35"/>
</g>
<!-- Node3 -->
<g id="node3" class="node">
<title>Node3</title>
<g id="a_node3"><a xlink:href="arrays_8h.html" target="_top" xlink:title="Classes describing arrays, vertices etc.">
<polygon fill="white" stroke="#666666" points="335,-185 283.75,-185 283.75,-165.75 335,-165.75 335,-185"/>
<text text-anchor="middle" x="309.38" y="-171.5" font-family="Helvetica,sans-Serif" font-size="10.00">arrays.h</text>
</a>
</g>
</g>
<!-- Node1&#45;&gt;Node3 -->
<g id="edge2" class="edge">
<title>Node1&#45;&gt;Node3</title>
<path fill="none" stroke="#63b8ff" d="M818.78,-281.3C749.66,-275.78 622.08,-263.33 515.38,-240.25 453.9,-226.95 384.4,-203.6 343.88,-189.12"/>
<polygon fill="#63b8ff" stroke="#63b8ff" points="345.33,-185.56 334.74,-185.46 342.96,-192.15 345.33,-185.56"/>
</g>
<!-- Node11 -->
<g id="node11" class="node">
<title>Node11</title>
<g id="a_node11"><a xlink:href="cell__coordinate_8h.html" target="_top" xlink:title="Container for {ijk} or {IJK} grouped variables.">
<polygon fill="white" stroke="#666666" points="1030.12,-185 940.62,-185 940.62,-165.75 1030.12,-165.75 1030.12,-185"/>
<text text-anchor="middle" x="985.38" y="-171.5" font-family="Helvetica,sans-Serif" font-size="10.00">cell_coordinate.h</text>
</a>
</g>
</g>
<!-- Node1&#45;&gt;Node11 -->
<g id="edge14" class="edge">
<title>Node1&#45;&gt;Node11</title>
<path fill="none" stroke="#63b8ff" d="M878.87,-276C898.33,-257.8 942.99,-216.02 967.86,-192.76"/>
<polygon fill="#63b8ff" stroke="#63b8ff" points="969.84,-195.76 974.75,-186.38 965.06,-190.65 969.84,-195.76"/>
</g>
<!-- Node14 -->
<g id="node14" class="node">
<title>Node14</title>
<g id="a_node14"><a xlink:href="dimensions_8h.html" target="_top" xlink:title="Defines a class that serves as an explicit converter between MATLAB pointers and array dimensions.">
<polygon fill="white" stroke="#666666" points="1245.25,-240.25 1171.5,-240.25 1171.5,-221 1245.25,-221 1245.25,-240.25"/>
<text text-anchor="middle" x="1208.38" y="-226.75" font-family="Helvetica,sans-Serif" font-size="10.00">dimensions.h</text>
</a>
</g>
</g>
<!-- Node1&#45;&gt;Node14 -->
<g id="edge17" class="edge">
<title>Node1&#45;&gt;Node14</title>
<path fill="none" stroke="#63b8ff" d="M920.13,-277.23C977.69,-268.5 1074.34,-253.7 1157.38,-240.25 1158.34,-240.09 1159.32,-239.93 1160.31,-239.77"/>
<polygon fill="#63b8ff" stroke="#63b8ff" points="1160.77,-243.08 1170.06,-238 1159.62,-236.17 1160.77,-243.08"/>
</g>
<!-- Node15 -->
<g id="node15" class="node">
<title>Node15</title>
<g id="a_node15"><a xlink:href="mat__io_8h.html" target="_top" xlink:title="Includes MATLAB headers for I/O.">
<polygon fill="white" stroke="#666666" points="956.12,-74.5 902.62,-74.5 902.62,-55.25 956.12,-55.25 956.12,-74.5"/>
<text text-anchor="middle" x="929.38" y="-61" font-family="Helvetica,sans-Serif" font-size="10.00">mat_io.h</text>
</a>
</g>
</g>
<!-- Node1&#45;&gt;Node15 -->
<g id="edge29" class="edge">
<title>Node1&#45;&gt;Node15</title>
<path fill="none" stroke="#63b8ff" d="M904.42,-275.84C962.78,-258.67 1078.03,-215.15 1124.38,-129.75 1128.46,-122.23 1129.71,-117.19 1124.38,-110.5 1105.11,-86.32 1018.33,-74.19 967.26,-69.04"/>
<polygon fill="#63b8ff" stroke="#63b8ff" points="967.62,-65.47 957.33,-67.99 966.95,-72.43 967.62,-65.47"/>
</g>
<!-- Node19 -->
<g id="node19" class="node">
<title>Node19</title>
<g id="a_node19"><a xlink:href="input__flags_8h.html" target="_top" xlink:title="Organises enumerated constants, names, and classes for handling flag&#45;variables that are passed to TDM...">
<polygon fill="white" stroke="#666666" points="905.12,-185 833.62,-185 833.62,-165.75 905.12,-165.75 905.12,-185"/>
<text text-anchor="middle" x="869.38" y="-171.5" font-family="Helvetica,sans-Serif" font-size="10.00">input_flags.h</text>
</a>
</g>
</g>
<!-- Node1&#45;&gt;Node19 -->
<g id="edge22" class="edge">
<title>Node1&#45;&gt;Node19</title>
<path fill="none" stroke="#63b8ff" d="M869.38,-276C869.38,-258.67 869.38,-219.98 869.38,-196.24"/>
<polygon fill="#63b8ff" stroke="#63b8ff" points="872.88,-196.38 869.38,-186.38 865.88,-196.38 872.88,-196.38"/>
</g>
<!-- Node20 -->
<g id="node20" class="node">
<title>Node20</title>
<g id="a_node20"><a xlink:href="simulation__parameters_8h.html" target="_top" xlink:title="Classes collecting parameters for the simulation.">
<polygon fill="white" stroke="#666666" points="646.62,-240.25 524.12,-240.25 524.12,-221 646.62,-221 646.62,-240.25"/>
<text text-anchor="middle" x="585.38" y="-226.75" font-family="Helvetica,sans-Serif" font-size="10.00">simulation_parameters.h</text>
</a>
</g>
</g>
<!-- Node1&#45;&gt;Node20 -->
<g id="edge30" class="edge">
<title>Node1&#45;&gt;Node20</title>
<path fill="none" stroke="#63b8ff" d="M820.88,-275.78C772.07,-266.63 696.73,-252.5 644.46,-242.7"/>
<polygon fill="#63b8ff" stroke="#63b8ff" points="645.15,-239.08 634.67,-240.68 643.86,-245.96 645.15,-239.08"/>
</g>
<!-- Node3&#45;&gt;Node2 -->
<g id="edge3" class="edge">
<title>Node3&#45;&gt;Node2</title>
<path fill="none" stroke="#63b8ff" d="M283.34,-173.39C223.86,-170.61 80.44,-160.79 45.38,-129.75 32.92,-118.73 28.46,-99.94 26.95,-85.59"/>
<polygon fill="#63b8ff" stroke="#63b8ff" points="30.39,-85.6 26.26,-75.84 23.41,-86.05 30.39,-85.6"/>
</g>
<!-- Node4 -->
<g id="node4" class="node">
<title>Node4</title>
<g id="a_node4"><a xlink:title=" ">
<polygon fill="#e0e0e0" stroke="#999999" points="541.75,-129.75 483,-129.75 483,-110.5 541.75,-110.5 541.75,-129.75"/>
<text text-anchor="middle" x="512.38" y="-116.25" font-family="Helvetica,sans-Serif" font-size="10.00">stdexcept</text>
</a>
</g>
</g>
<!-- Node3&#45;&gt;Node4 -->
<g id="edge4" class="edge">
<title>Node3&#45;&gt;Node4</title>
<path fill="none" stroke="#63b8ff" d="M335.5,-167.52C370.12,-158.44 431.56,-142.32 472.14,-131.68"/>
<polygon fill="#63b8ff" stroke="#63b8ff" points="472.95,-134.82 481.73,-128.9 471.17,-128.05 472.95,-134.82"/>
</g>
<!-- Node5 -->
<g id="node5" class="node">
<title>Node5</title>
<g id="a_node5"><a xlink:title=" ">
<polygon fill="#e0e0e0" stroke="#999999" points="418.38,-74.5 378.38,-74.5 378.38,-55.25 418.38,-55.25 418.38,-74.5"/>
<text text-anchor="middle" x="398.38" y="-61" font-family="Helvetica,sans-Serif" font-size="10.00">string</text>
</a>
</g>
</g>
<!-- Node3&#45;&gt;Node5 -->
<g id="edge5" class="edge">
<title>Node3&#45;&gt;Node5</title>
<path fill="none" stroke="#63b8ff" d="M316.66,-165.5C331.39,-147.53 364.96,-106.61 384.18,-83.19"/>
<polygon fill="#63b8ff" stroke="#63b8ff" points="387.36,-85.83 390.99,-75.88 381.94,-81.39 387.36,-85.83"/>
</g>
<!-- Node6 -->
<g id="node6" class="node">
<title>Node6</title>
<g id="a_node6"><a xlink:title=" ">
<polygon fill="#e0e0e0" stroke="#999999" points="735.88,-74.5 692.88,-74.5 692.88,-55.25 735.88,-55.25 735.88,-74.5"/>
<text text-anchor="middle" x="714.38" y="-61" font-family="Helvetica,sans-Serif" font-size="10.00">vector</text>
</a>
</g>
</g>
<!-- Node3&#45;&gt;Node6 -->
<g id="edge6" class="edge">
<title>Node3&#45;&gt;Node6</title>
<path fill="none" stroke="#63b8ff" d="M329.28,-165.28C359.89,-151.61 420.59,-125.77 474.38,-110.5 547.26,-89.81 635.38,-76.26 681.92,-69.96"/>
<polygon fill="#63b8ff" stroke="#63b8ff" points="682.1,-73.33 691.55,-68.55 681.18,-66.4 682.1,-73.33"/>
</g>
<!-- Node7 -->
<g id="node7" class="node">
<title>Node7</title>
<g id="a_node7"><a xlink:title=" ">
<polygon fill="#e0e0e0" stroke="#999999" points="100.38,-129.75 54.38,-129.75 54.38,-110.5 100.38,-110.5 100.38,-129.75"/>
<text text-anchor="middle" x="77.38" y="-116.25" font-family="Helvetica,sans-Serif" font-size="10.00">fftw3.h</text>
</a>
</g>
</g>
<!-- Node3&#45;&gt;Node7 -->
<g id="edge7" class="edge">
<title>Node3&#45;&gt;Node7</title>
<path fill="none" stroke="#63b8ff" d="M283.4,-168.96C247.04,-161.3 178.66,-146.59 111.15,-130.11"/>
<polygon fill="#63b8ff" stroke="#63b8ff" points="112.31,-126.54 101.76,-127.56 110.64,-133.34 112.31,-126.54"/>
</g>
<!-- Node8 -->
<g id="node8" class="node">
<title>Node8</title>
<g id="a_node8"><a xlink:href="globals_8h.html" target="_top" xlink:title="Type definitions and global constants.">
<polygon fill="white" stroke="#666666" points="252.88,-129.75 197.88,-129.75 197.88,-110.5 252.88,-110.5 252.88,-129.75"/>
<text text-anchor="middle" x="225.38" y="-116.25" font-family="Helvetica,sans-Serif" font-size="10.00">globals.h</text>
</a>
</g>
</g>
<!-- Node3&#45;&gt;Node8 -->
<g id="edge8" class="edge">
<title>Node3&#45;&gt;Node8</title>
<path fill="none" stroke="#63b8ff" d="M295.13,-165.34C282.45,-157.31 263.68,-145.41 248.81,-135.98"/>
<polygon fill="#63b8ff" stroke="#63b8ff" points="251.01,-132.6 240.69,-130.2 247.27,-138.51 251.01,-132.6"/>
</g>
<!-- Node9 -->
<g id="node9" class="node">
<title>Node9</title>
<g id="a_node9"><a xlink:title=" ">
<polygon fill="#e0e0e0" stroke="#999999" points="179.88,-129.75 118.88,-129.75 118.88,-110.5 179.88,-110.5 179.88,-129.75"/>
<text text-anchor="middle" x="149.38" y="-116.25" font-family="Helvetica,sans-Serif" font-size="10.00">matlabio.h</text>
</a>
</g>
</g>
<!-- Node3&#45;&gt;Node9 -->
<g id="edge11" class="edge">
<title>Node3&#45;&gt;Node9</title>
<path fill="none" stroke="#63b8ff" d="M283.31,-165.7C257.21,-157.01 216.76,-143.55 187.14,-133.69"/>
<polygon fill="#63b8ff" stroke="#63b8ff" points="188.36,-130.08 177.77,-130.24 186.15,-136.72 188.36,-130.08"/>
</g>
<!-- Node10 -->
<g id="node10" class="node">
<title>Node10</title>
<g id="a_node10"><a xlink:href="utils_8h.html" target="_top" xlink:title="Useful miscellaneous utility functions.">
<polygon fill="white" stroke="#666666" points="313.5,-129.75 271.25,-129.75 271.25,-110.5 313.5,-110.5 313.5,-129.75"/>
<text text-anchor="middle" x="292.38" y="-116.25" font-family="Helvetica,sans-Serif" font-size="10.00">utils.h</text>
</a>
</g>
</g>
<!-- Node3&#45;&gt;Node10 -->
<g id="edge12" class="edge">
<title>Node3&#45;&gt;Node10</title>
<path fill="none" stroke="#63b8ff" d="M306.57,-165.58C304.39,-158.76 301.29,-149.06 298.54,-140.45"/>
<polygon fill="#63b8ff" stroke="#63b8ff" points="301.62,-139.57 295.24,-131.11 294.95,-141.7 301.62,-139.57"/>
</g>
<!-- Node8&#45;&gt;Node2 -->
<g id="edge9" class="edge">
<title>Node8&#45;&gt;Node2</title>
<path fill="none" stroke="#63b8ff" d="M197.7,-111.72C162.76,-102.37 102.5,-86.24 63.55,-75.82"/>
<polygon fill="#63b8ff" stroke="#63b8ff" points="64.74,-72.25 54.17,-73.05 62.93,-79.01 64.74,-72.25"/>
</g>
<!-- Node8&#45;&gt;Node5 -->
<g id="edge10" class="edge">
<title>Node8&#45;&gt;Node5</title>
<path fill="none" stroke="#63b8ff" d="M253.17,-110.57C284.49,-100.93 335.26,-85.3 367.71,-75.31"/>
<polygon fill="#63b8ff" stroke="#63b8ff" points="368.43,-78.45 376.96,-72.16 366.37,-71.76 368.43,-78.45"/>
</g>
<!-- Node10&#45;&gt;Node5 -->
<g id="edge13" class="edge">
<title>Node10&#45;&gt;Node5</title>
<path fill="none" stroke="#63b8ff" d="M310.36,-110.09C326.88,-101.79 351.62,-89.36 370.67,-79.79"/>
<polygon fill="#63b8ff" stroke="#63b8ff" points="371.94,-82.57 379.31,-74.95 368.8,-76.31 371.94,-82.57"/>
</g>
<!-- Node12 -->
<g id="node12" class="node">
<title>Node12</title>
<g id="a_node12"><a xlink:title=" ">
<polygon fill="#e0e0e0" stroke="#999999" points="1115.5,-129.75 1031.25,-129.75 1031.25,-110.5 1115.5,-110.5 1115.5,-129.75"/>
<text text-anchor="middle" x="1073.38" y="-116.25" font-family="Helvetica,sans-Serif" font-size="10.00">spdlog/spdlog.h</text>
</a>
</g>
</g>
<!-- Node11&#45;&gt;Node12 -->
<g id="edge15" class="edge">
<title>Node11&#45;&gt;Node12</title>
<path fill="none" stroke="#63b8ff" d="M1000.3,-165.34C1013.7,-157.23 1033.62,-145.18 1049.27,-135.71"/>
<polygon fill="#63b8ff" stroke="#63b8ff" points="1050.63,-138.37 1057.37,-130.2 1047.01,-132.39 1050.63,-138.37"/>
</g>
<!-- Node13 -->
<g id="node13" class="node">
<title>Node13</title>
<g id="a_node13"><a xlink:title=" ">
<polygon fill="#e0e0e0" stroke="#999999" points="1013.25,-129.75 957.5,-129.75 957.5,-110.5 1013.25,-110.5 1013.25,-129.75"/>
<text text-anchor="middle" x="985.38" y="-116.25" font-family="Helvetica,sans-Serif" font-size="10.00">algorithm</text>
</a>
</g>
</g>
<!-- Node11&#45;&gt;Node13 -->
<g id="edge16" class="edge">
<title>Node11&#45;&gt;Node13</title>
<path fill="none" stroke="#63b8ff" d="M985.38,-165.58C985.38,-158.92 985.38,-149.49 985.38,-141.03"/>
<polygon fill="#63b8ff" stroke="#63b8ff" points="988.88,-141.11 985.38,-131.11 981.88,-141.11 988.88,-141.11"/>
</g>
<!-- Node14&#45;&gt;Node15 -->
<g id="edge18" class="edge">
<title>Node14&#45;&gt;Node15</title>
<path fill="none" stroke="#63b8ff" d="M1207.38,-220.78C1204.37,-198.44 1193.24,-139.49 1157.38,-110.5 1128.63,-87.26 1024.18,-74.43 967.16,-69.01"/>
<polygon fill="#63b8ff" stroke="#63b8ff" points="967.7,-65.45 957.42,-68.02 967.06,-72.42 967.7,-65.45"/>
</g>
<!-- Node16 -->
<g id="node16" class="node">
<title>Node16</title>
<g id="a_node16"><a xlink:title=" ">
<polygon fill="#e0e0e0" stroke="#999999" points="885.75,-19.25 845,-19.25 845,0 885.75,0 885.75,-19.25"/>
<text text-anchor="middle" x="865.38" y="-5.75" font-family="Helvetica,sans-Serif" font-size="10.00">mat.h</text>
</a>
</g>
</g>
<!-- Node15&#45;&gt;Node16 -->
<g id="edge19" class="edge">
<title>Node15&#45;&gt;Node16</title>
<path fill="none" stroke="#63b8ff" d="M918.52,-54.84C909.18,-47.07 895.48,-35.67 884.33,-26.4"/>
<polygon fill="#63b8ff" stroke="#63b8ff" points="887,-23.23 877.07,-19.52 882.52,-28.61 887,-23.23"/>
</g>
<!-- Node17 -->
<g id="node17" class="node">
<title>Node17</title>
<g id="a_node17"><a xlink:title=" ">
<polygon fill="#e0e0e0" stroke="#999999" points="955,-19.25 903.75,-19.25 903.75,0 955,0 955,-19.25"/>
<text text-anchor="middle" x="929.38" y="-5.75" font-family="Helvetica,sans-Serif" font-size="10.00">matrix.h</text>
</a>
</g>
</g>
<!-- Node15&#45;&gt;Node17 -->
<g id="edge20" class="edge">
<title>Node15&#45;&gt;Node17</title>
<path fill="none" stroke="#63b8ff" d="M929.38,-55.08C929.38,-48.42 929.38,-38.99 929.38,-30.53"/>
<polygon fill="#63b8ff" stroke="#63b8ff" points="932.88,-30.61 929.38,-20.61 925.88,-30.61 932.88,-30.61"/>
</g>
<!-- Node18 -->
<g id="node18" class="node">
<title>Node18</title>
<g id="a_node18"><a xlink:title=" ">
<polygon fill="#e0e0e0" stroke="#999999" points="1015.88,-19.25 972.88,-19.25 972.88,0 1015.88,0 1015.88,-19.25"/>
<text text-anchor="middle" x="994.38" y="-5.75" font-family="Helvetica,sans-Serif" font-size="10.00">mex.h</text>
</a>
</g>
</g>
<!-- Node15&#45;&gt;Node18 -->
<g id="edge21" class="edge">
<title>Node15&#45;&gt;Node18</title>
<path fill="none" stroke="#63b8ff" d="M940.4,-54.84C949.89,-47.07 963.8,-35.67 975.12,-26.4"/>
<polygon fill="#63b8ff" stroke="#63b8ff" points="976.99,-28.57 982.51,-19.52 972.56,-23.15 976.99,-28.57"/>
</g>
<!-- Node19&#45;&gt;Node4 -->
<g id="edge24" class="edge">
<title>Node19&#45;&gt;Node4</title>
<path fill="none" stroke="#63b8ff" d="M833.48,-169.95C775.05,-162.59 655.78,-146.94 555.38,-129.75 554.42,-129.59 553.46,-129.42 552.49,-129.25"/>
<polygon fill="#63b8ff" stroke="#63b8ff" points="553.41,-125.67 542.94,-127.29 552.13,-132.55 553.41,-125.67"/>
</g>
<!-- Node19&#45;&gt;Node5 -->
<g id="edge25" class="edge">
<title>Node19&#45;&gt;Node5</title>
<path fill="none" stroke="#63b8ff" d="M833.5,-172.25C779.27,-168.26 673.67,-157.37 588.38,-129.75 570.36,-123.92 567.98,-117.47 550.38,-110.5 509.38,-94.26 460.13,-80.86 429.03,-73.11"/>
<polygon fill="#63b8ff" stroke="#63b8ff" points="429.99,-69.5 419.44,-70.52 428.32,-76.3 429.99,-69.5"/>
</g>
<!-- Node19&#45;&gt;Node6 -->
<g id="edge26" class="edge">
<title>Node19&#45;&gt;Node6</title>
<path fill="none" stroke="#63b8ff" d="M866.8,-165.67C862.36,-152.06 851.98,-125.72 834.38,-110.5 809.36,-88.88 772.9,-77.32 746.74,-71.42"/>
<polygon fill="#63b8ff" stroke="#63b8ff" points="747.73,-67.85 737.23,-69.23 746.3,-74.7 747.73,-67.85"/>
</g>
<!-- Node19&#45;&gt;Node12 -->
<g id="edge27" class="edge">
<title>Node19&#45;&gt;Node12</title>
<path fill="none" stroke="#63b8ff" d="M903.98,-165.34C938.12,-156.43 990.5,-142.76 1027.97,-132.98"/>
<polygon fill="#63b8ff" stroke="#63b8ff" points="1028.81,-136.11 1037.6,-130.2 1027.04,-129.34 1028.81,-136.11"/>
</g>
<!-- Node19&#45;&gt;Node13 -->
<g id="edge23" class="edge">
<title>Node19&#45;&gt;Node13</title>
<path fill="none" stroke="#63b8ff" d="M889.05,-165.34C907.3,-156.97 934.71,-144.38 955.63,-134.78"/>
<polygon fill="#63b8ff" stroke="#63b8ff" points="956.97,-137.56 964.6,-130.2 954.05,-131.19 956.97,-137.56"/>
</g>
<!-- Node19&#45;&gt;Node15 -->
<g id="edge28" class="edge">
<title>Node19&#45;&gt;Node15</title>
<path fill="none" stroke="#63b8ff" d="M878.04,-165.44C885.99,-156.85 897.67,-143.23 905.38,-129.75 913.47,-115.59 919.8,-98.19 923.92,-85.12"/>
<polygon fill="#63b8ff" stroke="#63b8ff" points="927.45,-86.54 926.96,-75.95 920.74,-84.53 927.45,-86.54"/>
</g>
<!-- Node20&#45;&gt;Node3 -->
<g id="edge32" class="edge">
<title>Node20&#45;&gt;Node3</title>
<path fill="none" stroke="#63b8ff" d="M538.24,-220.53C483.71,-210.01 395.09,-192.91 345.65,-183.37"/>
<polygon fill="#63b8ff" stroke="#63b8ff" points="346.62,-179.8 336.14,-181.35 345.29,-186.68 346.62,-179.8"/>
</g>
<!-- Node20&#45;&gt;Node5 -->
<g id="edge31" class="edge">
<title>Node20&#45;&gt;Node5</title>
<path fill="none" stroke="#63b8ff" d="M569.12,-220.71C541.25,-204.89 483.46,-169.8 443.38,-129.75 429.61,-116 417.14,-97.6 408.84,-84.09"/>
<polygon fill="#63b8ff" stroke="#63b8ff" points="411.47,-82.66 403.35,-75.86 405.46,-86.24 411.47,-82.66"/>
</g>
<!-- Node21 -->
<g id="node21" class="node">
<title>Node21</title>
<g id="a_node21"><a xlink:href="input__matrices_8h.html" target="_top" xlink:title="Class handling the input matrices that are read in from the input file.">
<polygon fill="white" stroke="#666666" points="697.38,-185 609.38,-185 609.38,-165.75 697.38,-165.75 697.38,-185"/>
<text text-anchor="middle" x="653.38" y="-171.5" font-family="Helvetica,sans-Serif" font-size="10.00">input_matrices.h</text>
</a>
</g>
</g>
<!-- Node20&#45;&gt;Node21 -->
<g id="edge33" class="edge">
<title>Node20&#45;&gt;Node21</title>
<path fill="none" stroke="#63b8ff" d="M596.91,-220.59C606.94,-212.74 621.68,-201.2 633.58,-191.87"/>
<polygon fill="#63b8ff" stroke="#63b8ff" points="635.29,-194.2 641.01,-185.27 630.98,-188.68 635.29,-194.2"/>
</g>
<!-- Node21&#45;&gt;Node5 -->
<g id="edge34" class="edge">
<title>Node21&#45;&gt;Node5</title>
<path fill="none" stroke="#63b8ff" d="M609.11,-169.04C571.63,-163.22 517.31,-151.65 474.38,-129.75 450.76,-117.71 428.09,-97.08 413.75,-82.53"/>
<polygon fill="#63b8ff" stroke="#63b8ff" points="416.77,-80.57 407.32,-75.77 411.71,-85.42 416.77,-80.57"/>
</g>
<!-- Node21&#45;&gt;Node15 -->
<g id="edge38" class="edge">
<title>Node21&#45;&gt;Node15</title>
<path fill="none" stroke="#63b8ff" d="M697.57,-167.93C735.11,-161.43 789.84,-149.47 834.38,-129.75 862.82,-117.15 892.01,-96.08 910.38,-81.6"/>
<polygon fill="#63b8ff" stroke="#63b8ff" points="912.12,-83.9 917.72,-74.9 907.73,-78.44 912.12,-83.9"/>
</g>
<!-- Node22 -->
<g id="node22" class="node">
<title>Node22</title>
<g id="a_node22"><a xlink:href="input__output__names_8h.html" target="_top" xlink:title="Constant values associated with the format of the input and output files and matrices.">
<polygon fill="white" stroke="#666666" points="709.38,-129.75 597.38,-129.75 597.38,-110.5 709.38,-110.5 709.38,-129.75"/>
<text text-anchor="middle" x="653.38" y="-116.25" font-family="Helvetica,sans-Serif" font-size="10.00">input_output_names.h</text>
</a>
</g>
</g>
<!-- Node21&#45;&gt;Node22 -->
<g id="edge35" class="edge">
<title>Node21&#45;&gt;Node22</title>
<path fill="none" stroke="#63b8ff" d="M653.38,-165.58C653.38,-158.92 653.38,-149.49 653.38,-141.03"/>
<polygon fill="#63b8ff" stroke="#63b8ff" points="656.88,-141.11 653.38,-131.11 649.88,-141.11 656.88,-141.11"/>
</g>
<!-- Node23 -->
<g id="node23" class="node">
<title>Node23</title>
<g id="a_node23"><a xlink:href="matrix__collection_8h.html" target="_top" xlink:title="A collection of named MATLAB matrices.">
<polygon fill="white" stroke="#666666" points="825.25,-129.75 727.5,-129.75 727.5,-110.5 825.25,-110.5 825.25,-129.75"/>
<text text-anchor="middle" x="776.38" y="-116.25" font-family="Helvetica,sans-Serif" font-size="10.00">matrix_collection.h</text>
</a>
</g>
</g>
<!-- Node21&#45;&gt;Node23 -->
<g id="edge39" class="edge">
<title>Node21&#45;&gt;Node23</title>
<path fill="none" stroke="#63b8ff" d="M674.24,-165.34C693.77,-156.89 723.18,-144.15 745.44,-134.52"/>
<polygon fill="#63b8ff" stroke="#63b8ff" points="746.62,-137.39 754.41,-130.2 743.84,-130.96 746.62,-137.39"/>
</g>
<!-- Node22&#45;&gt;Node5 -->
<g id="edge36" class="edge">
<title>Node22&#45;&gt;Node5</title>
<path fill="none" stroke="#63b8ff" d="M609.83,-110.03C558.42,-99.3 474.24,-81.72 429.16,-72.3"/>
<polygon fill="#63b8ff" stroke="#63b8ff" points="430.09,-68.71 419.59,-70.1 428.66,-75.57 430.09,-68.71"/>
</g>
<!-- Node22&#45;&gt;Node6 -->
<g id="edge37" class="edge">
<title>Node22&#45;&gt;Node6</title>
<path fill="none" stroke="#63b8ff" d="M663.72,-110.09C672.54,-102.4 685.42,-91.15 695.99,-81.93"/>
<polygon fill="#63b8ff" stroke="#63b8ff" points="697.95,-83.99 703.18,-74.77 693.34,-78.71 697.95,-83.99"/>
</g>
<!-- Node23&#45;&gt;Node5 -->
<g id="edge40" class="edge">
<title>Node23&#45;&gt;Node5</title>
<path fill="none" stroke="#63b8ff" d="M727.02,-111.75C724.09,-111.33 721.2,-110.91 718.38,-110.5 612.41,-95.23 486.59,-77.93 429.41,-70.11"/>
<polygon fill="#63b8ff" stroke="#63b8ff" points="429.98,-66.52 419.6,-68.63 429.04,-73.45 429.98,-66.52"/>
</g>
<!-- Node23&#45;&gt;Node6 -->
<g id="edge41" class="edge">
<title>Node23&#45;&gt;Node6</title>
<path fill="none" stroke="#63b8ff" d="M765.86,-110.09C756.9,-102.4 743.8,-91.15 733.06,-81.93"/>
<polygon fill="#63b8ff" stroke="#63b8ff" points="735.6,-78.64 725.74,-74.77 731.04,-83.95 735.6,-78.64"/>
</g>
<!-- Node23&#45;&gt;Node15 -->
<g id="edge42" class="edge">
<title>Node23&#45;&gt;Node15</title>
<path fill="none" stroke="#63b8ff" d="M802.33,-110.09C827.28,-101.41 865.21,-88.21 893.13,-78.49"/>
<polygon fill="#63b8ff" stroke="#63b8ff" points="894,-81.55 902.29,-74.95 891.7,-74.93 894,-81.55"/>
</g>
</g>
</svg>
