<?xml version="1.0" encoding="UTF-8" standalone="no"?>
<!DOCTYPE svg PUBLIC "-//W3C//DTD SVG 1.1//EN"
 "http://www.w3.org/Graphics/SVG/1.1/DTD/svg11.dtd">
<!-- Generated by graphviz version 8.0.5 (20230430.1635)
 -->
<!-- Title: tdms/include/fieldsample.h Pages: 1 -->
<svg width="1253pt" height="359pt"
 viewBox="0.00 0.00 1253.25 358.75" xmlns="http://www.w3.org/2000/svg" xmlns:xlink="http://www.w3.org/1999/xlink">
<g id="graph0" class="graph" transform="scale(1 1) rotate(0) translate(4 354.75)">
<title>tdms/include/fieldsample.h</title>
<!-- Node1 -->
<g id="node1" class="node">
<title>Node1</title>
<g id="a_node1"><a xlink:title="Class that stores the extracted field values at user&#45;defined vertices.">
<polygon fill="#999999" stroke="#666666" points="601.5,-350.75 469.25,-350.75 469.25,-331.5 601.5,-331.5 601.5,-350.75"/>
<text text-anchor="middle" x="535.38" y="-337.25" font-family="Helvetica,sans-Serif" font-size="10.00">tdms/include/fieldsample.h</text>
</a>
</g>
</g>
<!-- Node2 -->
<g id="node2" class="node">
<title>Node2</title>
<g id="a_node2"><a xlink:href="arrays_8h.html" target="_top" xlink:title="Classes describing arrays, vertices etc.">
<polygon fill="white" stroke="#666666" points="356,-185 304.75,-185 304.75,-165.75 356,-165.75 356,-185"/>
<text text-anchor="middle" x="330.38" y="-171.5" font-family="Helvetica,sans-Serif" font-size="10.00">arrays.h</text>
</a>
</g>
</g>
<!-- Node1&#45;&gt;Node2 -->
<g id="edge1" class="edge">
<title>Node1&#45;&gt;Node2</title>
<path fill="none" stroke="#63b8ff" d="M524.06,-331.09C490.67,-304.42 392.24,-225.79 350,-192.05"/>
<polygon fill="#63b8ff" stroke="#63b8ff" points="352.65,-188.89 342.65,-185.38 348.28,-194.36 352.65,-188.89"/>
</g>
<!-- Node11 -->
<g id="node11" class="node">
<title>Node11</title>
<g id="a_node11"><a xlink:href="field_8h.html" target="_top" xlink:title="Classes for the electric and magnetic (split) fields on a grid.">
<polygon fill="white" stroke="#666666" points="761.5,-295.5 719.25,-295.5 719.25,-276.25 761.5,-276.25 761.5,-295.5"/>
<text text-anchor="middle" x="740.38" y="-282" font-family="Helvetica,sans-Serif" font-size="10.00">field.h</text>
</a>
</g>
</g>
<!-- Node1&#45;&gt;Node11 -->
<g id="edge13" class="edge">
<title>Node1&#45;&gt;Node11</title>
<path fill="none" stroke="#63b8ff" d="M570.15,-331.09C608.93,-321.02 671.12,-304.86 708.63,-295.12"/>
<polygon fill="#63b8ff" stroke="#63b8ff" points="709.17,-298.34 717.97,-292.44 707.41,-291.56 709.17,-298.34"/>
</g>
<!-- Node22 -->
<g id="node22" class="node">
<title>Node22</title>
<g id="a_node22"><a xlink:href="simulation__parameters_8h.html" target="_top" xlink:title="Classes collecting parameters for the simulation.">
<polygon fill="white" stroke="#666666" points="596.62,-240.25 474.12,-240.25 474.12,-221 596.62,-221 596.62,-240.25"/>
<text text-anchor="middle" x="535.38" y="-226.75" font-family="Helvetica,sans-Serif" font-size="10.00">simulation_parameters.h</text>
</a>
</g>
</g>
<!-- Node1&#45;&gt;Node22 -->
<g id="edge46" class="edge">
<title>Node1&#45;&gt;Node22</title>
<path fill="none" stroke="#63b8ff" d="M535.38,-331.25C535.38,-313.92 535.38,-275.23 535.38,-251.49"/>
<polygon fill="#63b8ff" stroke="#63b8ff" points="538.88,-251.63 535.38,-241.63 531.88,-251.63 538.88,-251.63"/>
</g>
<!-- Node3 -->
<g id="node3" class="node">
<title>Node3</title>
<g id="a_node3"><a xlink:title=" ">
<polygon fill="#e0e0e0" stroke="#999999" points="52.75,-74.5 0,-74.5 0,-55.25 52.75,-55.25 52.75,-74.5"/>
<text text-anchor="middle" x="26.38" y="-61" font-family="Helvetica,sans-Serif" font-size="10.00">complex</text>
</a>
</g>
</g>
<!-- Node2&#45;&gt;Node3 -->
<g id="edge2" class="edge">
<title>Node2&#45;&gt;Node3</title>
<path fill="none" stroke="#63b8ff" d="M304.64,-173.76C241.98,-171.75 83.83,-163.38 45.38,-129.75 32.86,-118.8 28.4,-100.01 26.91,-85.63"/>
<polygon fill="#63b8ff" stroke="#63b8ff" points="30.35,-85.63 26.24,-75.87 23.37,-86.06 30.35,-85.63"/>
</g>
<!-- Node4 -->
<g id="node4" class="node">
<title>Node4</title>
<g id="a_node4"><a xlink:title=" ">
<polygon fill="#e0e0e0" stroke="#999999" points="465.75,-129.75 407,-129.75 407,-110.5 465.75,-110.5 465.75,-129.75"/>
<text text-anchor="middle" x="436.38" y="-116.25" font-family="Helvetica,sans-Serif" font-size="10.00">stdexcept</text>
</a>
</g>
</g>
<!-- Node2&#45;&gt;Node4 -->
<g id="edge3" class="edge">
<title>Node2&#45;&gt;Node4</title>
<path fill="none" stroke="#63b8ff" d="M348.36,-165.34C364.88,-157.04 389.62,-144.61 408.67,-135.04"/>
<polygon fill="#63b8ff" stroke="#63b8ff" points="409.94,-137.82 417.31,-130.2 406.8,-131.56 409.94,-137.82"/>
</g>
<!-- Node5 -->
<g id="node5" class="node">
<title>Node5</title>
<g id="a_node5"><a xlink:title=" ">
<polygon fill="#e0e0e0" stroke="#999999" points="532.38,-74.5 492.38,-74.5 492.38,-55.25 532.38,-55.25 532.38,-74.5"/>
<text text-anchor="middle" x="512.38" y="-61" font-family="Helvetica,sans-Serif" font-size="10.00">string</text>
</a>
</g>
</g>
<!-- Node2&#45;&gt;Node5 -->
<g id="edge4" class="edge">
<title>Node2&#45;&gt;Node5</title>
<path fill="none" stroke="#63b8ff" d="M320.34,-165.36C306.96,-152.25 286.48,-127.62 300.38,-110.5 322.79,-82.88 427.79,-71.72 481.12,-67.77"/>
<polygon fill="#63b8ff" stroke="#63b8ff" points="481.24,-71.2 490.97,-67.01 480.75,-64.21 481.24,-71.2"/>
</g>
<!-- Node6 -->
<g id="node6" class="node">
<title>Node6</title>
<g id="a_node6"><a xlink:title=" ">
<polygon fill="#e0e0e0" stroke="#999999" points="735.88,-74.5 692.88,-74.5 692.88,-55.25 735.88,-55.25 735.88,-74.5"/>
<text text-anchor="middle" x="714.38" y="-61" font-family="Helvetica,sans-Serif" font-size="10.00">vector</text>
</a>
</g>
</g>
<!-- Node2&#45;&gt;Node6 -->
<g id="edge5" class="edge">
<title>Node2&#45;&gt;Node6</title>
<path fill="none" stroke="#63b8ff" d="M336.75,-165.58C347.62,-151.34 371.21,-123.53 398.38,-110.5 448.06,-86.67 611.34,-72.93 681.67,-67.99"/>
<polygon fill="#63b8ff" stroke="#63b8ff" points="681.78,-71.42 691.51,-67.24 681.3,-64.44 681.78,-71.42"/>
</g>
<!-- Node7 -->
<g id="node7" class="node">
<title>Node7</title>
<g id="a_node7"><a xlink:title=" ">
<polygon fill="#e0e0e0" stroke="#999999" points="100.38,-129.75 54.38,-129.75 54.38,-110.5 100.38,-110.5 100.38,-129.75"/>
<text text-anchor="middle" x="77.38" y="-116.25" font-family="Helvetica,sans-Serif" font-size="10.00">fftw3.h</text>
</a>
</g>
</g>
<!-- Node2&#45;&gt;Node7 -->
<g id="edge6" class="edge">
<title>Node2&#45;&gt;Node7</title>
<path fill="none" stroke="#63b8ff" d="M304.4,-169.69C264.84,-162.43 186.9,-147.66 111.38,-130.11"/>
<polygon fill="#63b8ff" stroke="#63b8ff" points="112.29,-126.49 101.75,-127.61 110.69,-133.3 112.29,-126.49"/>
</g>
<!-- Node8 -->
<g id="node8" class="node">
<title>Node8</title>
<g id="a_node8"><a xlink:href="globals_8h.html" target="_top" xlink:title="Type definitions and global constants.">
<polygon fill="white" stroke="#666666" points="252.88,-129.75 197.88,-129.75 197.88,-110.5 252.88,-110.5 252.88,-129.75"/>
<text text-anchor="middle" x="225.38" y="-116.25" font-family="Helvetica,sans-Serif" font-size="10.00">globals.h</text>
</a>
</g>
</g>
<!-- Node2&#45;&gt;Node8 -->
<g id="edge7" class="edge">
<title>Node2&#45;&gt;Node8</title>
<path fill="none" stroke="#63b8ff" d="M312.56,-165.34C296.27,-157.08 271.91,-144.73 253.08,-135.18"/>
<polygon fill="#63b8ff" stroke="#63b8ff" points="254.78,-131.6 244.27,-130.2 251.61,-137.85 254.78,-131.6"/>
</g>
<!-- Node9 -->
<g id="node9" class="node">
<title>Node9</title>
<g id="a_node9"><a xlink:title=" ">
<polygon fill="#e0e0e0" stroke="#999999" points="179.88,-129.75 118.88,-129.75 118.88,-110.5 179.88,-110.5 179.88,-129.75"/>
<text text-anchor="middle" x="149.38" y="-116.25" font-family="Helvetica,sans-Serif" font-size="10.00">matlabio.h</text>
</a>
</g>
</g>
<!-- Node2&#45;&gt;Node9 -->
<g id="edge10" class="edge">
<title>Node2&#45;&gt;Node9</title>
<path fill="none" stroke="#63b8ff" d="M304.44,-166.75C274.68,-157.99 225.47,-143.51 190.47,-133.22"/>
<polygon fill="#63b8ff" stroke="#63b8ff" points="191.69,-129.63 181.1,-130.17 189.71,-136.35 191.69,-129.63"/>
</g>
<!-- Node10 -->
<g id="node10" class="node">
<title>Node10</title>
<g id="a_node10"><a xlink:href="utils_8h.html" target="_top" xlink:title="Useful miscellaneous utility functions.">
<polygon fill="white" stroke="#666666" points="351.5,-129.75 309.25,-129.75 309.25,-110.5 351.5,-110.5 351.5,-129.75"/>
<text text-anchor="middle" x="330.38" y="-116.25" font-family="Helvetica,sans-Serif" font-size="10.00">utils.h</text>
</a>
</g>
</g>
<!-- Node2&#45;&gt;Node10 -->
<g id="edge11" class="edge">
<title>Node2&#45;&gt;Node10</title>
<path fill="none" stroke="#63b8ff" d="M330.38,-165.58C330.38,-158.92 330.38,-149.49 330.38,-141.03"/>
<polygon fill="#63b8ff" stroke="#63b8ff" points="333.88,-141.11 330.38,-131.11 326.88,-141.11 333.88,-141.11"/>
</g>
<!-- Node8&#45;&gt;Node3 -->
<g id="edge8" class="edge">
<title>Node8&#45;&gt;Node3</title>
<path fill="none" stroke="#63b8ff" d="M197.7,-111.72C162.76,-102.37 102.5,-86.24 63.55,-75.82"/>
<polygon fill="#63b8ff" stroke="#63b8ff" points="64.74,-72.25 54.17,-73.05 62.93,-79.01 64.74,-72.25"/>
</g>
<!-- Node8&#45;&gt;Node5 -->
<g id="edge9" class="edge">
<title>Node8&#45;&gt;Node5</title>
<path fill="none" stroke="#63b8ff" d="M253.37,-113.28C258.04,-112.34 262.84,-111.38 267.38,-110.5 344.23,-95.61 434.93,-79.46 481.45,-71.28"/>
<polygon fill="#63b8ff" stroke="#63b8ff" points="481.77,-74.6 491.02,-69.42 480.56,-67.71 481.77,-74.6"/>
</g>
<!-- Node10&#45;&gt;Node5 -->
<g id="edge12" class="edge">
<title>Node10&#45;&gt;Node5</title>
<path fill="none" stroke="#63b8ff" d="M351.97,-112.81C384.19,-103.38 445,-85.59 481.79,-74.82"/>
<polygon fill="#63b8ff" stroke="#63b8ff" points="482.31,-78.02 490.93,-71.86 480.35,-71.31 482.31,-78.02"/>
</g>
<!-- Node11&#45;&gt;Node2 -->
<g id="edge15" class="edge">
<title>Node11&#45;&gt;Node2</title>
<path fill="none" stroke="#63b8ff" d="M718.86,-283.45C671.9,-279.88 557.06,-268.75 465.38,-240.25 425.16,-227.75 381.62,-205.39 355.17,-190.72"/>
<polygon fill="#63b8ff" stroke="#63b8ff" points="357.02,-187.19 346.59,-185.33 353.59,-193.29 357.02,-187.19"/>
</g>
<!-- Node11&#45;&gt;Node3 -->
<g id="edge14" class="edge">
<title>Node11&#45;&gt;Node3</title>
<path fill="none" stroke="#63b8ff" d="M719.09,-283.06C666.57,-278.36 526.8,-264.41 412.38,-240.25 239.03,-203.66 139.17,-268.79 29.38,-129.75 19.69,-117.49 19.75,-99.4 21.76,-85.6"/>
<polygon fill="#63b8ff" stroke="#63b8ff" points="25.38,-86.31 23.84,-75.83 18.51,-84.98 25.38,-86.31"/>
</g>
<!-- Node12 -->
<g id="node12" class="node">
<title>Node12</title>
<g id="a_node12"><a xlink:title=" ">
<polygon fill="#e0e0e0" stroke="#999999" points="783.25,-240.25 697.5,-240.25 697.5,-221 783.25,-221 783.25,-240.25"/>
<text text-anchor="middle" x="740.38" y="-226.75" font-family="Helvetica,sans-Serif" font-size="10.00">arrays/eh_vec.h</text>
</a>
</g>
</g>
<!-- Node11&#45;&gt;Node12 -->
<g id="edge16" class="edge">
<title>Node11&#45;&gt;Node12</title>
<path fill="none" stroke="#63b8ff" d="M740.38,-276.08C740.38,-269.42 740.38,-259.99 740.38,-251.53"/>
<polygon fill="#63b8ff" stroke="#63b8ff" points="743.88,-251.61 740.38,-241.61 736.88,-251.61 743.88,-251.61"/>
</g>
<!-- Node13 -->
<g id="node13" class="node">
<title>Node13</title>
<g id="a_node13"><a xlink:href="cell__coordinate_8h.html" target="_top" xlink:title="Container for {ijk} or {IJK} grouped variables.">
<polygon fill="white" stroke="#666666" points="1030.12,-185 940.62,-185 940.62,-165.75 1030.12,-165.75 1030.12,-185"/>
<text text-anchor="middle" x="985.38" y="-171.5" font-family="Helvetica,sans-Serif" font-size="10.00">cell_coordinate.h</text>
</a>
</g>
</g>
<!-- Node11&#45;&gt;Node13 -->
<g id="edge17" class="edge">
<title>Node11&#45;&gt;Node13</title>
<path fill="none" stroke="#63b8ff" d="M760.84,-275.81C803.9,-256.74 904.03,-212.4 954.76,-189.93"/>
<polygon fill="#63b8ff" stroke="#63b8ff" points="956.07,-192.74 963.79,-185.49 953.23,-186.34 956.07,-192.74"/>
</g>
<!-- Node16 -->
<g id="node16" class="node">
<title>Node16</title>
<g id="a_node16"><a xlink:href="dimensions_8h.html" target="_top" xlink:title="Defines a class that serves as an explicit converter between MATLAB pointers and array dimensions.">
<polygon fill="white" stroke="#666666" points="1245.25,-240.25 1171.5,-240.25 1171.5,-221 1245.25,-221 1245.25,-240.25"/>
<text text-anchor="middle" x="1208.38" y="-226.75" font-family="Helvetica,sans-Serif" font-size="10.00">dimensions.h</text>
</a>
</g>
</g>
<!-- Node11&#45;&gt;Node16 -->
<g id="edge20" class="edge">
<title>Node11&#45;&gt;Node16</title>
<path fill="none" stroke="#63b8ff" d="M761.7,-283.06C823.21,-277.71 1006.27,-261.09 1157.38,-240.25 1158.35,-240.12 1159.33,-239.98 1160.32,-239.84"/>
<polygon fill="#63b8ff" stroke="#63b8ff" points="1160.73,-243.16 1170.09,-238.2 1159.68,-236.24 1160.73,-243.16"/>
</g>
<!-- Node17 -->
<g id="node17" class="node">
<title>Node17</title>
<g id="a_node17"><a xlink:href="mat__io_8h.html" target="_top" xlink:title="Includes MATLAB headers for I/O.">
<polygon fill="white" stroke="#666666" points="956.12,-74.5 902.62,-74.5 902.62,-55.25 956.12,-55.25 956.12,-74.5"/>
<text text-anchor="middle" x="929.38" y="-61" font-family="Helvetica,sans-Serif" font-size="10.00">mat_io.h</text>
</a>
</g>
</g>
<!-- Node11&#45;&gt;Node17 -->
<g id="edge32" class="edge">
<title>Node11&#45;&gt;Node17</title>
<path fill="none" stroke="#63b8ff" d="M761.58,-284.65C830.93,-282.61 1050.81,-265.3 1124.38,-129.75 1128.46,-122.23 1129.71,-117.19 1124.38,-110.5 1105.11,-86.32 1018.33,-74.19 967.26,-69.04"/>
<polygon fill="#63b8ff" stroke="#63b8ff" points="967.62,-65.47 957.33,-67.99 966.95,-72.43 967.62,-65.47"/>
</g>
<!-- Node21 -->
<g id="node21" class="node">
<title>Node21</title>
<g id="a_node21"><a xlink:href="input__flags_8h.html" target="_top" xlink:title="Organises enumerated constants, names, and classes for handling flag&#45;variables that are passed to TDM...">
<polygon fill="white" stroke="#666666" points="889.12,-185 817.62,-185 817.62,-165.75 889.12,-165.75 889.12,-185"/>
<text text-anchor="middle" x="853.38" y="-171.5" font-family="Helvetica,sans-Serif" font-size="10.00">input_flags.h</text>
</a>
</g>
</g>
<!-- Node11&#45;&gt;Node21 -->
<g id="edge25" class="edge">
<title>Node11&#45;&gt;Node21</title>
<path fill="none" stroke="#63b8ff" d="M751.41,-275.95C762.12,-267.15 778.74,-253.18 792.38,-240.25 808.62,-224.84 826.18,-206.23 838.27,-193.08"/>
<polygon fill="#63b8ff" stroke="#63b8ff" points="840.2,-196.07 844.35,-186.32 835.03,-191.35 840.2,-196.07"/>
</g>
<!-- Node11&#45;&gt;Node22 -->
<g id="edge33" class="edge">
<title>Node11&#45;&gt;Node22</title>
<path fill="none" stroke="#63b8ff" d="M718.82,-279.28C686.22,-270.81 623.63,-254.55 580.7,-243.4"/>
<polygon fill="#63b8ff" stroke="#63b8ff" points="581.8,-239.81 571.24,-240.68 580.04,-246.58 581.8,-239.81"/>
</g>
<!-- Node14 -->
<g id="node14" class="node">
<title>Node14</title>
<g id="a_node14"><a xlink:title=" ">
<polygon fill="#e0e0e0" stroke="#999999" points="1115.5,-129.75 1031.25,-129.75 1031.25,-110.5 1115.5,-110.5 1115.5,-129.75"/>
<text text-anchor="middle" x="1073.38" y="-116.25" font-family="Helvetica,sans-Serif" font-size="10.00">spdlog/spdlog.h</text>
</a>
</g>
</g>
<!-- Node13&#45;&gt;Node14 -->
<g id="edge18" class="edge">
<title>Node13&#45;&gt;Node14</title>
<path fill="none" stroke="#63b8ff" d="M1000.3,-165.34C1013.7,-157.23 1033.62,-145.18 1049.27,-135.71"/>
<polygon fill="#63b8ff" stroke="#63b8ff" points="1050.63,-138.37 1057.37,-130.2 1047.01,-132.39 1050.63,-138.37"/>
</g>
<!-- Node15 -->
<g id="node15" class="node">
<title>Node15</title>
<g id="a_node15"><a xlink:title=" ">
<polygon fill="#e0e0e0" stroke="#999999" points="1013.25,-129.75 957.5,-129.75 957.5,-110.5 1013.25,-110.5 1013.25,-129.75"/>
<text text-anchor="middle" x="985.38" y="-116.25" font-family="Helvetica,sans-Serif" font-size="10.00">algorithm</text>
</a>
</g>
</g>
<!-- Node13&#45;&gt;Node15 -->
<g id="edge19" class="edge">
<title>Node13&#45;&gt;Node15</title>
<path fill="none" stroke="#63b8ff" d="M985.38,-165.58C985.38,-158.92 985.38,-149.49 985.38,-141.03"/>
<polygon fill="#63b8ff" stroke="#63b8ff" points="988.88,-141.11 985.38,-131.11 981.88,-141.11 988.88,-141.11"/>
</g>
<!-- Node16&#45;&gt;Node17 -->
<g id="edge21" class="edge">
<title>Node16&#45;&gt;Node17</title>
<path fill="none" stroke="#63b8ff" d="M1207.38,-220.78C1204.37,-198.44 1193.24,-139.49 1157.38,-110.5 1128.63,-87.26 1024.18,-74.43 967.16,-69.01"/>
<polygon fill="#63b8ff" stroke="#63b8ff" points="967.7,-65.45 957.42,-68.02 967.06,-72.42 967.7,-65.45"/>
</g>
<!-- Node18 -->
<g id="node18" class="node">
<title>Node18</title>
<g id="a_node18"><a xlink:title=" ">
<polygon fill="#e0e0e0" stroke="#999999" points="885.75,-19.25 845,-19.25 845,0 885.75,0 885.75,-19.25"/>
<text text-anchor="middle" x="865.38" y="-5.75" font-family="Helvetica,sans-Serif" font-size="10.00">mat.h</text>
</a>
</g>
</g>
<!-- Node17&#45;&gt;Node18 -->
<g id="edge22" class="edge">
<title>Node17&#45;&gt;Node18</title>
<path fill="none" stroke="#63b8ff" d="M918.52,-54.84C909.18,-47.07 895.48,-35.67 884.33,-26.4"/>
<polygon fill="#63b8ff" stroke="#63b8ff" points="887,-23.23 877.07,-19.52 882.52,-28.61 887,-23.23"/>
</g>
<!-- Node19 -->
<g id="node19" class="node">
<title>Node19</title>
<g id="a_node19"><a xlink:title=" ">
<polygon fill="#e0e0e0" stroke="#999999" points="955,-19.25 903.75,-19.25 903.75,0 955,0 955,-19.25"/>
<text text-anchor="middle" x="929.38" y="-5.75" font-family="Helvetica,sans-Serif" font-size="10.00">matrix.h</text>
</a>
</g>
</g>
<!-- Node17&#45;&gt;Node19 -->
<g id="edge23" class="edge">
<title>Node17&#45;&gt;Node19</title>
<path fill="none" stroke="#63b8ff" d="M929.38,-55.08C929.38,-48.42 929.38,-38.99 929.38,-30.53"/>
<polygon fill="#63b8ff" stroke="#63b8ff" points="932.88,-30.61 929.38,-20.61 925.88,-30.61 932.88,-30.61"/>
</g>
<!-- Node20 -->
<g id="node20" class="node">
<title>Node20</title>
<g id="a_node20"><a xlink:title=" ">
<polygon fill="#e0e0e0" stroke="#999999" points="1015.88,-19.25 972.88,-19.25 972.88,0 1015.88,0 1015.88,-19.25"/>
<text text-anchor="middle" x="994.38" y="-5.75" font-family="Helvetica,sans-Serif" font-size="10.00">mex.h</text>
</a>
</g>
</g>
<!-- Node17&#45;&gt;Node20 -->
<g id="edge24" class="edge">
<title>Node17&#45;&gt;Node20</title>
<path fill="none" stroke="#63b8ff" d="M940.4,-54.84C949.89,-47.07 963.8,-35.67 975.12,-26.4"/>
<polygon fill="#63b8ff" stroke="#63b8ff" points="976.99,-28.57 982.51,-19.52 972.56,-23.15 976.99,-28.57"/>
</g>
<!-- Node21&#45;&gt;Node4 -->
<g id="edge27" class="edge">
<title>Node21&#45;&gt;Node4</title>
<path fill="none" stroke="#63b8ff" d="M817.46,-169.79C740.1,-159.91 558.16,-136.68 476.86,-126.3"/>
<polygon fill="#63b8ff" stroke="#63b8ff" points="477.44,-122.71 467.08,-124.92 476.55,-129.66 477.44,-122.71"/>
</g>
<!-- Node21&#45;&gt;Node5 -->
<g id="edge28" class="edge">
<title>Node21&#45;&gt;Node5</title>
<path fill="none" stroke="#63b8ff" d="M817.33,-174.23C764.65,-172.73 664.61,-164.98 588.38,-129.75 564.05,-118.51 541.24,-97.36 527.07,-82.48"/>
<polygon fill="#63b8ff" stroke="#63b8ff" points="530.14,-80.56 520.79,-75.57 524.99,-85.3 530.14,-80.56"/>
</g>
<!-- Node21&#45;&gt;Node6 -->
<g id="edge29" class="edge">
<title>Node21&#45;&gt;Node6</title>
<path fill="none" stroke="#63b8ff" d="M853.14,-165.3C852.29,-151.68 848.76,-125.88 834.38,-110.5 811.42,-85.96 773.73,-74.84 746.71,-69.85"/>
<polygon fill="#63b8ff" stroke="#63b8ff" points="747.66,-66.29 737.22,-68.12 746.52,-73.2 747.66,-66.29"/>
</g>
<!-- Node21&#45;&gt;Node14 -->
<g id="edge30" class="edge">
<title>Node21&#45;&gt;Node14</title>
<path fill="none" stroke="#63b8ff" d="M889.21,-165.7C926.21,-156.75 984.15,-142.72 1025.15,-132.8"/>
<polygon fill="#63b8ff" stroke="#63b8ff" points="1025.82,-136 1034.71,-130.24 1024.17,-129.19 1025.82,-136"/>
</g>
<!-- Node21&#45;&gt;Node15 -->
<g id="edge26" class="edge">
<title>Node21&#45;&gt;Node15</title>
<path fill="none" stroke="#63b8ff" d="M875.77,-165.34C896.91,-156.81 928.86,-143.92 952.82,-134.26"/>
<polygon fill="#63b8ff" stroke="#63b8ff" points="953.91,-137.19 961.87,-130.2 951.29,-130.7 953.91,-137.19"/>
</g>
<!-- Node21&#45;&gt;Node17 -->
<g id="edge31" class="edge">
<title>Node21&#45;&gt;Node17</title>
<path fill="none" stroke="#63b8ff" d="M867.48,-165.28C879.05,-157.18 895.15,-144.37 905.38,-129.75 914.83,-116.24 921.1,-98.53 924.85,-85.19"/>
<polygon fill="#63b8ff" stroke="#63b8ff" points="928.42,-86.36 927.52,-75.8 921.64,-84.62 928.42,-86.36"/>
</g>
<!-- Node22&#45;&gt;Node2 -->
<g id="edge35" class="edge">
<title>Node22&#45;&gt;Node2</title>
<path fill="none" stroke="#63b8ff" d="M500.6,-220.59C463.38,-210.92 404.59,-195.65 366.76,-185.83"/>
<polygon fill="#63b8ff" stroke="#63b8ff" points="367.77,-182.21 357.21,-183.09 366.01,-188.99 367.77,-182.21"/>
</g>
<!-- Node22&#45;&gt;Node5 -->
<g id="edge34" class="edge">
<title>Node22&#45;&gt;Node5</title>
<path fill="none" stroke="#63b8ff" d="M534.14,-220.82C530.55,-195.28 520.08,-120.7 515.08,-85.15"/>
<polygon fill="#63b8ff" stroke="#63b8ff" points="518.47,-85.14 513.62,-75.72 511.54,-86.11 518.47,-85.14"/>
</g>
<!-- Node23 -->
<g id="node23" class="node">
<title>Node23</title>
<g id="a_node23"><a xlink:href="input__matrices_8h.html" target="_top" xlink:title="Class handling the input matrices that are read in from the input file.">
<polygon fill="white" stroke="#666666" points="697.38,-185 609.38,-185 609.38,-165.75 697.38,-165.75 697.38,-185"/>
<text text-anchor="middle" x="653.38" y="-171.5" font-family="Helvetica,sans-Serif" font-size="10.00">input_matrices.h</text>
</a>
</g>
</g>
<!-- Node22&#45;&gt;Node23 -->
<g id="edge36" class="edge">
<title>Node22&#45;&gt;Node23</title>
<path fill="none" stroke="#63b8ff" d="M555.39,-220.59C574.04,-212.18 602.09,-199.52 623.41,-189.9"/>
<polygon fill="#63b8ff" stroke="#63b8ff" points="624.58,-192.76 632.26,-185.45 621.71,-186.38 624.58,-192.76"/>
</g>
<!-- Node23&#45;&gt;Node5 -->
<g id="edge37" class="edge">
<title>Node23&#45;&gt;Node5</title>
<path fill="none" stroke="#63b8ff" d="M622.65,-165.3C602,-158.09 575.06,-146.43 555.38,-129.75 540.58,-117.22 528.75,-98.39 521.27,-84.41"/>
<polygon fill="#63b8ff" stroke="#63b8ff" points="524.07,-83.19 516.42,-75.86 517.83,-86.36 524.07,-83.19"/>
</g>
<!-- Node23&#45;&gt;Node17 -->
<g id="edge41" class="edge">
<title>Node23&#45;&gt;Node17</title>
<path fill="none" stroke="#63b8ff" d="M697.57,-167.93C735.11,-161.43 789.84,-149.47 834.38,-129.75 862.82,-117.15 892.01,-96.08 910.38,-81.6"/>
<polygon fill="#63b8ff" stroke="#63b8ff" points="912.12,-83.9 917.72,-74.9 907.73,-78.44 912.12,-83.9"/>
</g>
<!-- Node24 -->
<g id="node24" class="node">
<title>Node24</title>
<g id="a_node24"><a xlink:href="input__output__names_8h.html" target="_top" xlink:title="Constant values associated with the format of the input and output files and matrices.">
<polygon fill="white" stroke="#666666" points="709.38,-129.75 597.38,-129.75 597.38,-110.5 709.38,-110.5 709.38,-129.75"/>
<text text-anchor="middle" x="653.38" y="-116.25" font-family="Helvetica,sans-Serif" font-size="10.00">input_output_names.h</text>
</a>
</g>
</g>
<!-- Node23&#45;&gt;Node24 -->
<g id="edge38" class="edge">
<title>Node23&#45;&gt;Node24</title>
<path fill="none" stroke="#63b8ff" d="M653.38,-165.58C653.38,-158.92 653.38,-149.49 653.38,-141.03"/>
<polygon fill="#63b8ff" stroke="#63b8ff" points="656.88,-141.11 653.38,-131.11 649.88,-141.11 656.88,-141.11"/>
</g>
<!-- Node25 -->
<g id="node25" class="node">
<title>Node25</title>
<g id="a_node25"><a xlink:href="matrix__collection_8h.html" target="_top" xlink:title="A collection of named MATLAB matrices.">
<polygon fill="white" stroke="#666666" points="825.25,-129.75 727.5,-129.75 727.5,-110.5 825.25,-110.5 825.25,-129.75"/>
<text text-anchor="middle" x="776.38" y="-116.25" font-family="Helvetica,sans-Serif" font-size="10.00">matrix_collection.h</text>
</a>
</g>
</g>
<!-- Node23&#45;&gt;Node25 -->
<g id="edge42" class="edge">
<title>Node23&#45;&gt;Node25</title>
<path fill="none" stroke="#63b8ff" d="M674.24,-165.34C693.77,-156.89 723.18,-144.15 745.44,-134.52"/>
<polygon fill="#63b8ff" stroke="#63b8ff" points="746.62,-137.39 754.41,-130.2 743.84,-130.96 746.62,-137.39"/>
</g>
<!-- Node24&#45;&gt;Node5 -->
<g id="edge39" class="edge">
<title>Node24&#45;&gt;Node5</title>
<path fill="none" stroke="#63b8ff" d="M629.46,-110.09C605.56,-101.07 568.75,-87.17 542.79,-77.36"/>
<polygon fill="#63b8ff" stroke="#63b8ff" points="544.34,-73.83 533.74,-73.57 541.86,-80.37 544.34,-73.83"/>
</g>
<!-- Node24&#45;&gt;Node6 -->
<g id="edge40" class="edge">
<title>Node24&#45;&gt;Node6</title>
<path fill="none" stroke="#63b8ff" d="M663.72,-110.09C672.54,-102.4 685.42,-91.15 695.99,-81.93"/>
<polygon fill="#63b8ff" stroke="#63b8ff" points="697.95,-83.99 703.18,-74.77 693.34,-78.71 697.95,-83.99"/>
</g>
<!-- Node25&#45;&gt;Node5 -->
<g id="edge43" class="edge">
<title>Node25&#45;&gt;Node5</title>
<path fill="none" stroke="#63b8ff" d="M731.29,-110.03C677.69,-99.22 589.66,-81.46 543.24,-72.1"/>
<polygon fill="#63b8ff" stroke="#63b8ff" points="544.15,-68.51 533.65,-69.97 542.76,-75.37 544.15,-68.51"/>
</g>
<!-- Node25&#45;&gt;Node6 -->
<g id="edge44" class="edge">
<title>Node25&#45;&gt;Node6</title>
<path fill="none" stroke="#63b8ff" d="M765.86,-110.09C756.9,-102.4 743.8,-91.15 733.06,-81.93"/>
<polygon fill="#63b8ff" stroke="#63b8ff" points="735.6,-78.64 725.74,-74.77 731.04,-83.95 735.6,-78.64"/>
</g>
<!-- Node25&#45;&gt;Node17 -->
<g id="edge45" class="edge">
<title>Node25&#45;&gt;Node17</title>
<path fill="none" stroke="#63b8ff" d="M802.33,-110.09C827.28,-101.41 865.21,-88.21 893.13,-78.49"/>
<polygon fill="#63b8ff" stroke="#63b8ff" points="894,-81.55 902.29,-74.95 891.7,-74.93 894,-81.55"/>
</g>
</g>
</svg>
