<?xml version="1.0" encoding="UTF-8" standalone="no"?>
<!DOCTYPE svg PUBLIC "-//W3C//DTD SVG 1.1//EN"
 "http://www.w3.org/Graphics/SVG/1.1/DTD/svg11.dtd">
<!-- Generated by graphviz version 8.0.5 (20230430.1635)
 -->
<!-- Title: tdms/include/fieldsample.h Pages: 1 -->
<svg width="1214pt" height="359pt"
 viewBox="0.00 0.00 1213.57 358.75" xmlns="http://www.w3.org/2000/svg" xmlns:xlink="http://www.w3.org/1999/xlink">
<g id="graph0" class="graph" transform="scale(1 1) rotate(0) translate(4 354.75)">
<title>tdms/include/fieldsample.h</title>
<!-- Node1 -->
<g id="node1" class="node">
<title>Node1</title>
<g id="a_node1"><a xlink:title="Class that stores the extracted field values at user&#45;defined vertices.">
<polygon fill="#999999" stroke="#666666" points="439.82,-350.75 307.57,-350.75 307.57,-331.5 439.82,-331.5 439.82,-350.75"/>
<text text-anchor="middle" x="373.69" y="-337.25" font-family="Helvetica,sans-Serif" font-size="10.00">tdms/include/fieldsample.h</text>
</a>
</g>
</g>
<!-- Node2 -->
<g id="node2" class="node">
<title>Node2</title>
<g id="a_node2"><a xlink:href="arrays_8h.html" target="_top" xlink:title="Classes describing arrays, vertices etc.">
<polygon fill="white" stroke="#666666" points="272.32,-185 221.07,-185 221.07,-165.75 272.32,-165.75 272.32,-185"/>
<text text-anchor="middle" x="246.69" y="-171.5" font-family="Helvetica,sans-Serif" font-size="10.00">arrays.h</text>
</a>
</g>
</g>
<!-- Node1&#45;&gt;Node2 -->
<g id="edge1" class="edge">
<title>Node1&#45;&gt;Node2</title>
<path fill="none" stroke="#63b8ff" d="M362.88,-331.17C343.59,-314.74 302.81,-278.03 276.69,-240.25 266.99,-226.22 258.97,-208.56 253.67,-195.37"/>
<polygon fill="#63b8ff" stroke="#63b8ff" points="256.59,-194.21 249.74,-186.13 250.05,-196.72 256.59,-194.21"/>
</g>
<!-- Node10 -->
<g id="node10" class="node">
<title>Node10</title>
<g id="a_node10"><a xlink:href="field_8h.html" target="_top" xlink:title="Classes for the electric and magnetic (split) fields on a grid.">
<polygon fill="white" stroke="#666666" points="590.82,-295.5 548.57,-295.5 548.57,-276.25 590.82,-276.25 590.82,-295.5"/>
<text text-anchor="middle" x="569.69" y="-282" font-family="Helvetica,sans-Serif" font-size="10.00">field.h</text>
</a>
</g>
</g>
<!-- Node1&#45;&gt;Node10 -->
<g id="edge12" class="edge">
<title>Node1&#45;&gt;Node10</title>
<path fill="none" stroke="#63b8ff" d="M406.94,-331.09C443.46,-321.17 501.7,-305.35 537.71,-295.56"/>
<polygon fill="#63b8ff" stroke="#63b8ff" points="538.39,-298.73 547.13,-292.73 536.56,-291.98 538.39,-298.73"/>
</g>
<!-- Node21 -->
<g id="node21" class="node">
<title>Node21</title>
<g id="a_node21"><a xlink:href="simulation__parameters_8h.html" target="_top" xlink:title="Classes collecting parameters for the simulation.">
<polygon fill="white" stroke="#666666" points="434.94,-240.25 312.44,-240.25 312.44,-221 434.94,-221 434.94,-240.25"/>
<text text-anchor="middle" x="373.69" y="-226.75" font-family="Helvetica,sans-Serif" font-size="10.00">simulation_parameters.h</text>
</a>
</g>
</g>
<!-- Node1&#45;&gt;Node21 -->
<g id="edge44" class="edge">
<title>Node1&#45;&gt;Node21</title>
<path fill="none" stroke="#63b8ff" d="M373.69,-331.25C373.69,-313.92 373.69,-275.23 373.69,-251.49"/>
<polygon fill="#63b8ff" stroke="#63b8ff" points="377.19,-251.63 373.69,-241.63 370.19,-251.63 377.19,-251.63"/>
</g>
<!-- Node3 -->
<g id="node3" class="node">
<title>Node3</title>
<g id="a_node3"><a xlink:title=" ">
<polygon fill="#e0e0e0" stroke="#999999" points="68.07,-74.5 15.32,-74.5 15.32,-55.25 68.07,-55.25 68.07,-74.5"/>
<text text-anchor="middle" x="41.69" y="-61" font-family="Helvetica,sans-Serif" font-size="10.00">complex</text>
</a>
</g>
</g>
<!-- Node2&#45;&gt;Node3 -->
<g id="edge2" class="edge">
<title>Node2&#45;&gt;Node3</title>
<path fill="none" stroke="#63b8ff" d="M220.94,-173.62C164.35,-171.35 32.02,-162.58 4.69,-129.75 -7.58,-115.01 7.14,-95.68 21.48,-82.16"/>
<polygon fill="#63b8ff" stroke="#63b8ff" points="23.48,-84.18 28.68,-74.95 18.86,-78.93 23.48,-84.18"/>
</g>
<!-- Node4 -->
<g id="node4" class="node">
<title>Node4</title>
<g id="a_node4"><a xlink:title=" ">
<polygon fill="#e0e0e0" stroke="#999999" points="786.07,-129.75 727.32,-129.75 727.32,-110.5 786.07,-110.5 786.07,-129.75"/>
<text text-anchor="middle" x="756.69" y="-116.25" font-family="Helvetica,sans-Serif" font-size="10.00">stdexcept</text>
</a>
</g>
</g>
<!-- Node2&#45;&gt;Node4 -->
<g id="edge3" class="edge">
<title>Node2&#45;&gt;Node4</title>
<path fill="none" stroke="#63b8ff" d="M272.68,-173.1C342.77,-169.4 541.66,-157.28 716.22,-129.96"/>
<polygon fill="#63b8ff" stroke="#63b8ff" points="716.56,-133.3 725.89,-128.27 715.47,-126.38 716.56,-133.3"/>
</g>
<!-- Node5 -->
<g id="node5" class="node">
<title>Node5</title>
<g id="a_node5"><a xlink:title=" ">
<polygon fill="#e0e0e0" stroke="#999999" points="416.69,-74.5 376.69,-74.5 376.69,-55.25 416.69,-55.25 416.69,-74.5"/>
<text text-anchor="middle" x="396.69" y="-61" font-family="Helvetica,sans-Serif" font-size="10.00">string</text>
</a>
</g>
</g>
<!-- Node2&#45;&gt;Node5 -->
<g id="edge4" class="edge">
<title>Node2&#45;&gt;Node5</title>
<path fill="none" stroke="#63b8ff" d="M220.68,-167.78C186.27,-157.82 132.42,-137.25 154.69,-110.5 181.15,-78.72 305.98,-69.48 365.28,-66.87"/>
<polygon fill="#63b8ff" stroke="#63b8ff" points="365.36,-70.33 375.21,-66.43 365.08,-63.34 365.36,-70.33"/>
</g>
<!-- Node6 -->
<g id="node6" class="node">
<title>Node6</title>
<g id="a_node6"><a xlink:title=" ">
<polygon fill="#e0e0e0" stroke="#999999" points="269.69,-129.75 223.69,-129.75 223.69,-110.5 269.69,-110.5 269.69,-129.75"/>
<text text-anchor="middle" x="246.69" y="-116.25" font-family="Helvetica,sans-Serif" font-size="10.00">fftw3.h</text>
</a>
</g>
</g>
<!-- Node2&#45;&gt;Node6 -->
<g id="edge5" class="edge">
<title>Node2&#45;&gt;Node6</title>
<path fill="none" stroke="#63b8ff" d="M246.69,-165.58C246.69,-158.92 246.69,-149.49 246.69,-141.03"/>
<polygon fill="#63b8ff" stroke="#63b8ff" points="250.19,-141.11 246.69,-131.11 243.19,-141.11 250.19,-141.11"/>
</g>
<!-- Node7 -->
<g id="node7" class="node">
<title>Node7</title>
<g id="a_node7"><a xlink:href="globals_8h.html" target="_top" xlink:title="Type definitions and global constants.">
<polygon fill="white" stroke="#666666" points="69.19,-129.75 14.19,-129.75 14.19,-110.5 69.19,-110.5 69.19,-129.75"/>
<text text-anchor="middle" x="41.69" y="-116.25" font-family="Helvetica,sans-Serif" font-size="10.00">globals.h</text>
</a>
</g>
</g>
<!-- Node2&#45;&gt;Node7 -->
<g id="edge6" class="edge">
<title>Node2&#45;&gt;Node7</title>
<path fill="none" stroke="#63b8ff" d="M220.73,-167.63C185.12,-158.38 120.89,-141.7 79.82,-131.03"/>
<polygon fill="#63b8ff" stroke="#63b8ff" points="80.96,-127.45 70.41,-128.32 79.2,-134.23 80.96,-127.45"/>
</g>
<!-- Node8 -->
<g id="node8" class="node">
<title>Node8</title>
<g id="a_node8"><a xlink:title=" ">
<polygon fill="#e0e0e0" stroke="#999999" points="349.19,-129.75 288.19,-129.75 288.19,-110.5 349.19,-110.5 349.19,-129.75"/>
<text text-anchor="middle" x="318.69" y="-116.25" font-family="Helvetica,sans-Serif" font-size="10.00">matlabio.h</text>
</a>
</g>
</g>
<!-- Node2&#45;&gt;Node8 -->
<g id="edge9" class="edge">
<title>Node2&#45;&gt;Node8</title>
<path fill="none" stroke="#63b8ff" d="M258.91,-165.34C269.62,-157.41 285.43,-145.72 298.1,-136.35"/>
<polygon fill="#63b8ff" stroke="#63b8ff" points="299.7,-138.79 305.66,-130.02 295.54,-133.16 299.7,-138.79"/>
</g>
<!-- Node9 -->
<g id="node9" class="node">
<title>Node9</title>
<g id="a_node9"><a xlink:href="utils_8h.html" target="_top" xlink:title="Useful miscellaneous utility functions.">
<polygon fill="white" stroke="#666666" points="205.82,-129.75 163.57,-129.75 163.57,-110.5 205.82,-110.5 205.82,-129.75"/>
<text text-anchor="middle" x="184.69" y="-116.25" font-family="Helvetica,sans-Serif" font-size="10.00">utils.h</text>
</a>
</g>
</g>
<!-- Node2&#45;&gt;Node9 -->
<g id="edge10" class="edge">
<title>Node2&#45;&gt;Node9</title>
<path fill="none" stroke="#63b8ff" d="M236.17,-165.34C227.21,-157.65 214.12,-146.4 203.38,-137.18"/>
<polygon fill="#63b8ff" stroke="#63b8ff" points="205.92,-133.89 196.05,-130.02 201.36,-139.2 205.92,-133.89"/>
</g>
<!-- Node7&#45;&gt;Node3 -->
<g id="edge7" class="edge">
<title>Node7&#45;&gt;Node3</title>
<path fill="none" stroke="#63b8ff" d="M41.69,-110.33C41.69,-103.67 41.69,-94.24 41.69,-85.78"/>
<polygon fill="#63b8ff" stroke="#63b8ff" points="45.19,-85.86 41.69,-75.86 38.19,-85.86 45.19,-85.86"/>
</g>
<!-- Node7&#45;&gt;Node5 -->
<g id="edge8" class="edge">
<title>Node7&#45;&gt;Node5</title>
<path fill="none" stroke="#63b8ff" d="M69.55,-114.95C134.89,-105.15 297.62,-80.74 365.83,-70.5"/>
<polygon fill="#63b8ff" stroke="#63b8ff" points="365.94,-73.88 375.31,-68.93 364.91,-66.95 365.94,-73.88"/>
</g>
<!-- Node9&#45;&gt;Node5 -->
<g id="edge11" class="edge">
<title>Node9&#45;&gt;Node5</title>
<path fill="none" stroke="#63b8ff" d="M206.29,-112.8C209.11,-112.01 211.97,-111.23 214.69,-110.5 267.68,-96.39 329.8,-81.52 366.05,-73"/>
<polygon fill="#63b8ff" stroke="#63b8ff" points="366.49,-76.26 375.43,-70.57 364.89,-69.44 366.49,-76.26"/>
</g>
<!-- Node10&#45;&gt;Node2 -->
<g id="edge14" class="edge">
<title>Node10&#45;&gt;Node2</title>
<path fill="none" stroke="#63b8ff" d="M548.45,-283.13C493.14,-278.32 346.02,-263.61 303.69,-240.25 284.03,-229.4 267.71,-209.1 257.65,-194.29"/>
<polygon fill="#63b8ff" stroke="#63b8ff" points="260.08,-192.6 251.72,-186.09 254.2,-196.39 260.08,-192.6"/>
</g>
<!-- Node10&#45;&gt;Node3 -->
<g id="edge13" class="edge">
<title>Node10&#45;&gt;Node3</title>
<path fill="none" stroke="#63b8ff" d="M553.73,-275.86C530.14,-262.76 484.37,-238.15 443.69,-221 373.59,-191.45 354.31,-188.41 281.69,-165.75 225.69,-148.28 208.83,-152.35 154.69,-129.75 121.72,-115.99 86.25,-94.78 64.02,-80.62"/>
<polygon fill="#63b8ff" stroke="#63b8ff" points="66.37,-77.32 56.07,-74.84 62.57,-83.21 66.37,-77.32"/>
</g>
<!-- Node11 -->
<g id="node11" class="node">
<title>Node11</title>
<g id="a_node11"><a xlink:href="cell__coordinate_8h.html" target="_top" xlink:title="Container for {ijk} or {IJK} grouped variables.">
<polygon fill="white" stroke="#666666" points="1004.44,-185 914.94,-185 914.94,-165.75 1004.44,-165.75 1004.44,-185"/>
<text text-anchor="middle" x="959.69" y="-171.5" font-family="Helvetica,sans-Serif" font-size="10.00">cell_coordinate.h</text>
</a>
</g>
</g>
<!-- Node10&#45;&gt;Node11 -->
<g id="edge15" class="edge">
<title>Node10&#45;&gt;Node11</title>
<path fill="none" stroke="#63b8ff" d="M591.21,-278.89C653.25,-261.63 833.27,-211.55 916.53,-188.38"/>
<polygon fill="#63b8ff" stroke="#63b8ff" points="917.2,-191.55 925.9,-185.5 915.33,-184.81 917.2,-191.55"/>
</g>
<!-- Node14 -->
<g id="node14" class="node">
<title>Node14</title>
<g id="a_node14"><a xlink:href="dimensions_8h.html" target="_top" xlink:title="Defines a class that serves as an explicit converter between MATLAB pointers and array dimensions.">
<polygon fill="white" stroke="#666666" points="1205.57,-240.25 1131.82,-240.25 1131.82,-221 1205.57,-221 1205.57,-240.25"/>
<text text-anchor="middle" x="1168.69" y="-226.75" font-family="Helvetica,sans-Serif" font-size="10.00">dimensions.h</text>
</a>
</g>
</g>
<!-- Node10&#45;&gt;Node14 -->
<g id="edge18" class="edge">
<title>Node10&#45;&gt;Node14</title>
<path fill="none" stroke="#63b8ff" d="M591.17,-283.79C664.78,-279.95 913.58,-265.77 1117.69,-240.25 1118.67,-240.13 1119.65,-240 1120.64,-239.87"/>
<polygon fill="#63b8ff" stroke="#63b8ff" points="1121.03,-243.21 1130.42,-238.31 1120.02,-236.28 1121.03,-243.21"/>
</g>
<!-- Node15 -->
<g id="node15" class="node">
<title>Node15</title>
<g id="a_node15"><a xlink:href="mat__io_8h.html" target="_top" xlink:title="Includes MATLAB headers for I/O.">
<polygon fill="white" stroke="#666666" points="916.44,-74.5 862.94,-74.5 862.94,-55.25 916.44,-55.25 916.44,-74.5"/>
<text text-anchor="middle" x="889.69" y="-61" font-family="Helvetica,sans-Serif" font-size="10.00">mat_io.h</text>
</a>
</g>
</g>
<!-- Node10&#45;&gt;Node15 -->
<g id="edge30" class="edge">
<title>Node10&#45;&gt;Node15</title>
<path fill="none" stroke="#63b8ff" d="M591.19,-282.43C682.92,-271.47 1039.01,-223.18 1084.69,-129.75 1088.45,-122.06 1090.02,-117.19 1084.69,-110.5 1065.42,-86.32 978.64,-74.19 927.57,-69.04"/>
<polygon fill="#63b8ff" stroke="#63b8ff" points="927.93,-65.47 917.64,-67.99 927.26,-72.43 927.93,-65.47"/>
</g>
<!-- Node19 -->
<g id="node19" class="node">
<title>Node19</title>
<g id="a_node19"><a xlink:href="input__flags_8h.html" target="_top" xlink:title="Organises enumerated constants, names, and classes for handling flag&#45;variables that are passed to TDM...">
<polygon fill="white" stroke="#666666" points="887.44,-185 815.94,-185 815.94,-165.75 887.44,-165.75 887.44,-185"/>
<text text-anchor="middle" x="851.69" y="-171.5" font-family="Helvetica,sans-Serif" font-size="10.00">input_flags.h</text>
</a>
</g>
</g>
<!-- Node10&#45;&gt;Node19 -->
<g id="edge23" class="edge">
<title>Node10&#45;&gt;Node19</title>
<path fill="none" stroke="#63b8ff" d="M590.89,-276.72C639.48,-258.02 759.26,-211.94 818.05,-189.32"/>
<polygon fill="#63b8ff" stroke="#63b8ff" points="819.21,-192.24 827.28,-185.38 816.69,-185.71 819.21,-192.24"/>
</g>
<!-- Node10&#45;&gt;Node21 -->
<g id="edge31" class="edge">
<title>Node10&#45;&gt;Node21</title>
<path fill="none" stroke="#63b8ff" d="M548.34,-279.07C517.1,-270.59 458.24,-254.59 417.54,-243.54"/>
<polygon fill="#63b8ff" stroke="#63b8ff" points="418.66,-239.94 408.09,-240.7 416.82,-246.7 418.66,-239.94"/>
</g>
<!-- Node12 -->
<g id="node12" class="node">
<title>Node12</title>
<g id="a_node12"><a xlink:title=" ">
<polygon fill="#e0e0e0" stroke="#999999" points="1001.82,-129.75 917.57,-129.75 917.57,-110.5 1001.82,-110.5 1001.82,-129.75"/>
<text text-anchor="middle" x="959.69" y="-116.25" font-family="Helvetica,sans-Serif" font-size="10.00">spdlog/spdlog.h</text>
</a>
</g>
</g>
<!-- Node11&#45;&gt;Node12 -->
<g id="edge16" class="edge">
<title>Node11&#45;&gt;Node12</title>
<path fill="none" stroke="#63b8ff" d="M959.69,-165.58C959.69,-158.92 959.69,-149.49 959.69,-141.03"/>
<polygon fill="#63b8ff" stroke="#63b8ff" points="963.19,-141.11 959.69,-131.11 956.19,-141.11 963.19,-141.11"/>
</g>
<!-- Node13 -->
<g id="node13" class="node">
<title>Node13</title>
<g id="a_node13"><a xlink:title=" ">
<polygon fill="#e0e0e0" stroke="#999999" points="1075.57,-129.75 1019.82,-129.75 1019.82,-110.5 1075.57,-110.5 1075.57,-129.75"/>
<text text-anchor="middle" x="1047.69" y="-116.25" font-family="Helvetica,sans-Serif" font-size="10.00">algorithm</text>
</a>
</g>
</g>
<!-- Node11&#45;&gt;Node13 -->
<g id="edge17" class="edge">
<title>Node11&#45;&gt;Node13</title>
<path fill="none" stroke="#63b8ff" d="M974.62,-165.34C988.02,-157.23 1007.93,-145.18 1023.59,-135.71"/>
<polygon fill="#63b8ff" stroke="#63b8ff" points="1024.95,-138.37 1031.69,-130.2 1021.32,-132.39 1024.95,-138.37"/>
</g>
<!-- Node14&#45;&gt;Node15 -->
<g id="edge19" class="edge">
<title>Node14&#45;&gt;Node15</title>
<path fill="none" stroke="#63b8ff" d="M1167.7,-220.78C1164.69,-198.44 1153.56,-139.49 1117.69,-110.5 1088.95,-87.26 984.49,-74.43 927.47,-69.01"/>
<polygon fill="#63b8ff" stroke="#63b8ff" points="928.02,-65.45 917.74,-68.02 927.37,-72.42 928.02,-65.45"/>
</g>
<!-- Node16 -->
<g id="node16" class="node">
<title>Node16</title>
<g id="a_node16"><a xlink:title=" ">
<polygon fill="#e0e0e0" stroke="#999999" points="846.07,-19.25 805.32,-19.25 805.32,0 846.07,0 846.07,-19.25"/>
<text text-anchor="middle" x="825.69" y="-5.75" font-family="Helvetica,sans-Serif" font-size="10.00">mat.h</text>
</a>
</g>
</g>
<!-- Node15&#45;&gt;Node16 -->
<g id="edge20" class="edge">
<title>Node15&#45;&gt;Node16</title>
<path fill="none" stroke="#63b8ff" d="M878.83,-54.84C869.49,-47.07 855.8,-35.67 844.65,-26.4"/>
<polygon fill="#63b8ff" stroke="#63b8ff" points="847.31,-23.23 837.39,-19.52 842.84,-28.61 847.31,-23.23"/>
</g>
<!-- Node17 -->
<g id="node17" class="node">
<title>Node17</title>
<g id="a_node17"><a xlink:title=" ">
<polygon fill="#e0e0e0" stroke="#999999" points="915.32,-19.25 864.07,-19.25 864.07,0 915.32,0 915.32,-19.25"/>
<text text-anchor="middle" x="889.69" y="-5.75" font-family="Helvetica,sans-Serif" font-size="10.00">matrix.h</text>
</a>
</g>
</g>
<!-- Node15&#45;&gt;Node17 -->
<g id="edge21" class="edge">
<title>Node15&#45;&gt;Node17</title>
<path fill="none" stroke="#63b8ff" d="M889.69,-55.08C889.69,-48.42 889.69,-38.99 889.69,-30.53"/>
<polygon fill="#63b8ff" stroke="#63b8ff" points="893.19,-30.61 889.69,-20.61 886.19,-30.61 893.19,-30.61"/>
</g>
<!-- Node18 -->
<g id="node18" class="node">
<title>Node18</title>
<g id="a_node18"><a xlink:title=" ">
<polygon fill="#e0e0e0" stroke="#999999" points="976.19,-19.25 933.19,-19.25 933.19,0 976.19,0 976.19,-19.25"/>
<text text-anchor="middle" x="954.69" y="-5.75" font-family="Helvetica,sans-Serif" font-size="10.00">mex.h</text>
</a>
</g>
</g>
<!-- Node15&#45;&gt;Node18 -->
<g id="edge22" class="edge">
<title>Node15&#45;&gt;Node18</title>
<path fill="none" stroke="#63b8ff" d="M900.72,-54.84C910.21,-47.07 924.11,-35.67 935.44,-26.4"/>
<polygon fill="#63b8ff" stroke="#63b8ff" points="937.31,-28.57 942.83,-19.52 932.87,-23.15 937.31,-28.57"/>
</g>
<!-- Node19&#45;&gt;Node4 -->
<g id="edge25" class="edge">
<title>Node19&#45;&gt;Node4</title>
<path fill="none" stroke="#63b8ff" d="M835.58,-165.34C820.97,-157.16 799.21,-144.96 782.23,-135.44"/>
<polygon fill="#63b8ff" stroke="#63b8ff" points="784.32,-132.04 773.89,-130.2 780.9,-138.15 784.32,-132.04"/>
</g>
<!-- Node19&#45;&gt;Node5 -->
<g id="edge26" class="edge">
<title>Node19&#45;&gt;Node5</title>
<path fill="none" stroke="#63b8ff" d="M815.5,-172.75C733.09,-168.64 533.88,-156.21 472.69,-129.75 448.09,-119.12 425.34,-97.84 411.26,-82.77"/>
<polygon fill="#63b8ff" stroke="#63b8ff" points="414.32,-80.82 405.03,-75.74 409.12,-85.51 414.32,-80.82"/>
</g>
<!-- Node19&#45;&gt;Node12 -->
<g id="edge28" class="edge">
<title>Node19&#45;&gt;Node12</title>
<path fill="none" stroke="#63b8ff" d="M870.01,-165.34C886.85,-157.04 912.05,-144.61 931.46,-135.04"/>
<polygon fill="#63b8ff" stroke="#63b8ff" points="932.86,-137.76 940.28,-130.2 929.76,-131.49 932.86,-137.76"/>
</g>
<!-- Node19&#45;&gt;Node13 -->
<g id="edge24" class="edge">
<title>Node19&#45;&gt;Node13</title>
<path fill="none" stroke="#63b8ff" d="M884.94,-165.34C919.33,-156 972.99,-141.42 1009.2,-131.58"/>
<polygon fill="#63b8ff" stroke="#63b8ff" points="1009.65,-134.82 1018.38,-128.82 1007.81,-128.06 1009.65,-134.82"/>
</g>
<!-- Node19&#45;&gt;Node15 -->
<g id="edge29" class="edge">
<title>Node19&#45;&gt;Node15</title>
<path fill="none" stroke="#63b8ff" d="M854.8,-165.5C860.92,-148.01 874.67,-108.77 882.96,-85.09"/>
<polygon fill="#63b8ff" stroke="#63b8ff" points="886.54,-86.47 886.54,-75.88 879.93,-84.16 886.54,-86.47"/>
</g>
<!-- Node20 -->
<g id="node20" class="node">
<title>Node20</title>
<g id="a_node20"><a xlink:title=" ">
<polygon fill="#e0e0e0" stroke="#999999" points="682.19,-74.5 639.19,-74.5 639.19,-55.25 682.19,-55.25 682.19,-74.5"/>
<text text-anchor="middle" x="660.69" y="-61" font-family="Helvetica,sans-Serif" font-size="10.00">vector</text>
</a>
</g>
</g>
<!-- Node19&#45;&gt;Node20 -->
<g id="edge27" class="edge">
<title>Node19&#45;&gt;Node20</title>
<path fill="none" stroke="#63b8ff" d="M846.12,-165.63C836.99,-151.95 817.54,-125.53 794.69,-110.5 763.4,-89.92 721.76,-78.01 693.24,-71.75"/>
<polygon fill="#63b8ff" stroke="#63b8ff" points="694.14,-68.16 683.64,-69.55 692.72,-75.01 694.14,-68.16"/>
</g>
<!-- Node21&#45;&gt;Node2 -->
<g id="edge33" class="edge">
<title>Node21&#45;&gt;Node2</title>
<path fill="none" stroke="#63b8ff" d="M352.15,-220.59C331.9,-212.1 301.34,-199.29 278.32,-189.64"/>
<polygon fill="#63b8ff" stroke="#63b8ff" points="279.92,-186.09 269.34,-185.45 277.21,-192.55 279.92,-186.09"/>
</g>
<!-- Node21&#45;&gt;Node5 -->
<g id="edge32" class="edge">
<title>Node21&#45;&gt;Node5</title>
<path fill="none" stroke="#63b8ff" d="M374.93,-220.82C378.52,-195.28 388.99,-120.7 393.98,-85.15"/>
<polygon fill="#63b8ff" stroke="#63b8ff" points="397.52,-86.11 395.45,-75.72 390.59,-85.14 397.52,-86.11"/>
</g>
<!-- Node22 -->
<g id="node22" class="node">
<title>Node22</title>
<g id="a_node22"><a xlink:href="input__matrices_8h.html" target="_top" xlink:title="Class handling the input matrices that are read in from the input file.">
<polygon fill="white" stroke="#666666" points="581.69,-185 493.69,-185 493.69,-165.75 581.69,-165.75 581.69,-185"/>
<text text-anchor="middle" x="537.69" y="-171.5" font-family="Helvetica,sans-Serif" font-size="10.00">input_matrices.h</text>
</a>
</g>
</g>
<!-- Node21&#45;&gt;Node22 -->
<g id="edge34" class="edge">
<title>Node21&#45;&gt;Node22</title>
<path fill="none" stroke="#63b8ff" d="M401.51,-220.59C428.49,-211.83 469.63,-198.48 499.63,-188.73"/>
<polygon fill="#63b8ff" stroke="#63b8ff" points="500.3,-191.87 508.73,-185.45 498.14,-185.21 500.3,-191.87"/>
</g>
<!-- Node22&#45;&gt;Node5 -->
<g id="edge35" class="edge">
<title>Node22&#45;&gt;Node5</title>
<path fill="none" stroke="#63b8ff" d="M506.97,-165.3C486.32,-158.09 459.38,-146.43 439.69,-129.75 424.9,-117.22 413.06,-98.39 405.59,-84.41"/>
<polygon fill="#63b8ff" stroke="#63b8ff" points="408.39,-83.19 400.74,-75.86 402.14,-86.36 408.39,-83.19"/>
</g>
<!-- Node22&#45;&gt;Node15 -->
<g id="edge39" class="edge">
<title>Node22&#45;&gt;Node15</title>
<path fill="none" stroke="#63b8ff" d="M581.96,-172.3C634.42,-168.59 723.67,-158.27 794.69,-129.75 823.85,-118.04 853.23,-96.42 871.44,-81.61"/>
<polygon fill="#63b8ff" stroke="#63b8ff" points="872.98,-84.05 878.43,-74.96 868.5,-78.67 872.98,-84.05"/>
</g>
<!-- Node23 -->
<g id="node23" class="node">
<title>Node23</title>
<g id="a_node23"><a xlink:href="input__output__names_8h.html" target="_top" xlink:title="Constant values associated with the format of the input and output files and matrices.">
<polygon fill="white" stroke="#666666" points="593.69,-129.75 481.69,-129.75 481.69,-110.5 593.69,-110.5 593.69,-129.75"/>
<text text-anchor="middle" x="537.69" y="-116.25" font-family="Helvetica,sans-Serif" font-size="10.00">input_output_names.h</text>
</a>
</g>
</g>
<!-- Node22&#45;&gt;Node23 -->
<g id="edge36" class="edge">
<title>Node22&#45;&gt;Node23</title>
<path fill="none" stroke="#63b8ff" d="M537.69,-165.58C537.69,-158.92 537.69,-149.49 537.69,-141.03"/>
<polygon fill="#63b8ff" stroke="#63b8ff" points="541.19,-141.11 537.69,-131.11 534.19,-141.11 541.19,-141.11"/>
</g>
<!-- Node24 -->
<g id="node24" class="node">
<title>Node24</title>
<g id="a_node24"><a xlink:href="matrix__collection_8h.html" target="_top" xlink:title="A collection of named MATLAB matrices.">
<polygon fill="white" stroke="#666666" points="709.57,-129.75 611.82,-129.75 611.82,-110.5 709.57,-110.5 709.57,-129.75"/>
<text text-anchor="middle" x="660.69" y="-116.25" font-family="Helvetica,sans-Serif" font-size="10.00">matrix_collection.h</text>
</a>
</g>
</g>
<!-- Node22&#45;&gt;Node24 -->
<g id="edge40" class="edge">
<title>Node22&#45;&gt;Node24</title>
<path fill="none" stroke="#63b8ff" d="M558.56,-165.34C578.08,-156.89 607.5,-144.15 629.76,-134.52"/>
<polygon fill="#63b8ff" stroke="#63b8ff" points="630.94,-137.39 638.72,-130.2 628.16,-130.96 630.94,-137.39"/>
</g>
<!-- Node23&#45;&gt;Node5 -->
<g id="edge37" class="edge">
<title>Node23&#45;&gt;Node5</title>
<path fill="none" stroke="#63b8ff" d="M513.77,-110.09C489.88,-101.07 453.07,-87.17 427.11,-77.36"/>
<polygon fill="#63b8ff" stroke="#63b8ff" points="428.65,-73.83 418.06,-73.57 426.18,-80.37 428.65,-73.83"/>
</g>
<!-- Node23&#45;&gt;Node20 -->
<g id="edge38" class="edge">
<title>Node23&#45;&gt;Node20</title>
<path fill="none" stroke="#63b8ff" d="M558.56,-110.09C578.08,-101.64 607.5,-88.9 629.76,-79.27"/>
<polygon fill="#63b8ff" stroke="#63b8ff" points="630.94,-82.14 638.72,-74.95 628.16,-75.71 630.94,-82.14"/>
</g>
<!-- Node24&#45;&gt;Node5 -->
<g id="edge41" class="edge">
<title>Node24&#45;&gt;Node5</title>
<path fill="none" stroke="#63b8ff" d="M615.61,-110.03C562,-99.22 473.98,-81.46 427.56,-72.1"/>
<polygon fill="#63b8ff" stroke="#63b8ff" points="428.46,-68.51 417.97,-69.97 427.08,-75.37 428.46,-68.51"/>
</g>
<!-- Node24&#45;&gt;Node15 -->
<g id="edge43" class="edge">
<title>Node24&#45;&gt;Node15</title>
<path fill="none" stroke="#63b8ff" d="M699.8,-110.03C742.36,-100.13 809.96,-84.42 851.97,-74.65"/>
<polygon fill="#63b8ff" stroke="#63b8ff" points="852.64,-77.85 861.59,-72.18 851.05,-71.03 852.64,-77.85"/>
</g>
<!-- Node24&#45;&gt;Node20 -->
<g id="edge42" class="edge">
<title>Node24&#45;&gt;Node20</title>
<path fill="none" stroke="#63b8ff" d="M660.69,-110.33C660.69,-103.67 660.69,-94.24 660.69,-85.78"/>
<polygon fill="#63b8ff" stroke="#63b8ff" points="664.19,-85.86 660.69,-75.86 657.19,-85.86 664.19,-85.86"/>
</g>
</g>
</svg>
