<?xml version="1.0" encoding="UTF-8" standalone="no"?>
<!DOCTYPE svg PUBLIC "-//W3C//DTD SVG 1.1//EN"
 "http://www.w3.org/Graphics/SVG/1.1/DTD/svg11.dtd">
<!-- Generated by graphviz version 8.0.5 (20230430.1635)
 -->
<!-- Title: tdms/include/field.h Pages: 1 -->
<svg width="1412pt" height="304pt"
 viewBox="0.00 0.00 1412.25 303.50" xmlns="http://www.w3.org/2000/svg" xmlns:xlink="http://www.w3.org/1999/xlink">
<g id="graph0" class="graph" transform="scale(1 1) rotate(0) translate(4 299.5)">
<title>tdms/include/field.h</title>
<!-- Node1 -->
<g id="node1" class="node">
<title>Node1</title>
<g id="a_node1"><a xlink:title="Classes for the electric and magnetic (split) fields on a grid.">
<polygon fill="#999999" stroke="#666666" points="1127.75,-295.5 1027,-295.5 1027,-276.25 1127.75,-276.25 1127.75,-295.5"/>
<text text-anchor="middle" x="1077.38" y="-282" font-family="Helvetica,sans-Serif" font-size="10.00">tdms/include/field.h</text>
</a>
</g>
</g>
<!-- Node2 -->
<g id="node2" class="node">
<title>Node2</title>
<g id="a_node2"><a xlink:title=" ">
<polygon fill="#e0e0e0" stroke="#999999" points="52.75,-74.5 0,-74.5 0,-55.25 52.75,-55.25 52.75,-74.5"/>
<text text-anchor="middle" x="26.38" y="-61" font-family="Helvetica,sans-Serif" font-size="10.00">complex</text>
</a>
</g>
</g>
<!-- Node1&#45;&gt;Node2 -->
<g id="edge1" class="edge">
<title>Node1&#45;&gt;Node2</title>
<path fill="none" stroke="#63b8ff" d="M1026.58,-282.96C930.18,-278.84 714.21,-267.19 534.38,-240.25 307.16,-206.21 177.59,-305.3 29.38,-129.75 19.19,-117.69 19.4,-99.32 21.59,-85.37"/>
<polygon fill="#63b8ff" stroke="#63b8ff" points="25.15,-86.43 23.71,-75.93 18.29,-85.03 25.15,-86.43"/>
</g>
<!-- Node3 -->
<g id="node3" class="node">
<title>Node3</title>
<g id="a_node3"><a xlink:href="arrays_8h.html" target="_top" xlink:title="Classes describing arrays, vertices etc.">
<polygon fill="white" stroke="#666666" points="416,-185 364.75,-185 364.75,-165.75 416,-165.75 416,-185"/>
<text text-anchor="middle" x="390.38" y="-171.5" font-family="Helvetica,sans-Serif" font-size="10.00">arrays.h</text>
</a>
</g>
</g>
<!-- Node1&#45;&gt;Node3 -->
<g id="edge2" class="edge">
<title>Node1&#45;&gt;Node3</title>
<path fill="none" stroke="#63b8ff" d="M1026.71,-282.77C942.12,-278.61 767.04,-267.31 621.38,-240.25 551.46,-227.26 471.94,-203.15 426.8,-188.55"/>
<polygon fill="#63b8ff" stroke="#63b8ff" points="427.95,-184.92 417.36,-185.15 425.78,-191.57 427.95,-184.92"/>
</g>
<!-- Node12 -->
<g id="node12" class="node">
<title>Node12</title>
<g id="a_node12"><a xlink:title=" ">
<polygon fill="#e0e0e0" stroke="#999999" points="1404.25,-240.25 1318.5,-240.25 1318.5,-221 1404.25,-221 1404.25,-240.25"/>
<text text-anchor="middle" x="1361.38" y="-226.75" font-family="Helvetica,sans-Serif" font-size="10.00">arrays/eh_vec.h</text>
</a>
</g>
</g>
<!-- Node1&#45;&gt;Node12 -->
<g id="edge15" class="edge">
<title>Node1&#45;&gt;Node12</title>
<path fill="none" stroke="#63b8ff" d="M1125.87,-275.78C1176.31,-266.32 1255.07,-251.56 1307.44,-241.74"/>
<polygon fill="#63b8ff" stroke="#63b8ff" points="1308.01,-245 1317.19,-239.72 1306.72,-238.12 1308.01,-245"/>
</g>
<!-- Node13 -->
<g id="node13" class="node">
<title>Node13</title>
<g id="a_node13"><a xlink:href="cell__coordinate_8h.html" target="_top" xlink:title="Container for {ijk} or {IJK} grouped variables.">
<polygon fill="white" stroke="#666666" points="1160.12,-185 1070.62,-185 1070.62,-165.75 1160.12,-165.75 1160.12,-185"/>
<text text-anchor="middle" x="1115.38" y="-171.5" font-family="Helvetica,sans-Serif" font-size="10.00">cell_coordinate.h</text>
</a>
</g>
</g>
<!-- Node1&#45;&gt;Node13 -->
<g id="edge16" class="edge">
<title>Node1&#45;&gt;Node13</title>
<path fill="none" stroke="#63b8ff" d="M1080.48,-276C1086.61,-258.51 1100.35,-219.27 1108.65,-195.59"/>
<polygon fill="#63b8ff" stroke="#63b8ff" points="1112.22,-196.97 1112.22,-186.38 1105.61,-194.66 1112.22,-196.97"/>
</g>
<!-- Node16 -->
<g id="node16" class="node">
<title>Node16</title>
<g id="a_node16"><a xlink:href="dimensions_8h.html" target="_top" xlink:title="Defines a class that serves as an explicit converter between MATLAB pointers and array dimensions.">
<polygon fill="white" stroke="#666666" points="1217.25,-240.25 1143.5,-240.25 1143.5,-221 1217.25,-221 1217.25,-240.25"/>
<text text-anchor="middle" x="1180.38" y="-226.75" font-family="Helvetica,sans-Serif" font-size="10.00">dimensions.h</text>
</a>
</g>
</g>
<!-- Node1&#45;&gt;Node16 -->
<g id="edge19" class="edge">
<title>Node1&#45;&gt;Node16</title>
<path fill="none" stroke="#63b8ff" d="M1094.85,-275.84C1110.83,-267.58 1134.72,-255.23 1153.2,-245.68"/>
<polygon fill="#63b8ff" stroke="#63b8ff" points="1154.54,-248.4 1161.82,-240.7 1151.33,-242.19 1154.54,-248.4"/>
</g>
<!-- Node17 -->
<g id="node17" class="node">
<title>Node17</title>
<g id="a_node17"><a xlink:href="mat__io_8h.html" target="_top" xlink:title="Includes MATLAB headers for I/O.">
<polygon fill="white" stroke="#666666" points="1065.12,-74.5 1011.62,-74.5 1011.62,-55.25 1065.12,-55.25 1065.12,-74.5"/>
<text text-anchor="middle" x="1038.38" y="-61" font-family="Helvetica,sans-Serif" font-size="10.00">mat_io.h</text>
</a>
</g>
</g>
<!-- Node1&#45;&gt;Node17 -->
<g id="edge31" class="edge">
<title>Node1&#45;&gt;Node17</title>
<path fill="none" stroke="#63b8ff" d="M1128.15,-282.13C1160.5,-277.71 1200.97,-266.77 1226.38,-240.25 1267,-197.84 1288.4,-156.09 1251.38,-110.5 1229.7,-83.82 1131.23,-72.52 1076.08,-68.22"/>
<polygon fill="#63b8ff" stroke="#63b8ff" points="1076.57,-64.67 1066.34,-67.43 1076.05,-71.65 1076.57,-64.67"/>
</g>
<!-- Node21 -->
<g id="node21" class="node">
<title>Node21</title>
<g id="a_node21"><a xlink:href="input__flags_8h.html" target="_top" xlink:title="Organises enumerated constants, names, and classes for handling flag&#45;variables that are passed to TDM...">
<polygon fill="white" stroke="#666666" points="1052.12,-185 980.62,-185 980.62,-165.75 1052.12,-165.75 1052.12,-185"/>
<text text-anchor="middle" x="1016.38" y="-171.5" font-family="Helvetica,sans-Serif" font-size="10.00">input_flags.h</text>
</a>
</g>
</g>
<!-- Node1&#45;&gt;Node21 -->
<g id="edge24" class="edge">
<title>Node1&#45;&gt;Node21</title>
<path fill="none" stroke="#63b8ff" d="M1072.38,-276C1062.46,-258.35 1040.09,-218.55 1026.82,-194.95"/>
<polygon fill="#63b8ff" stroke="#63b8ff" points="1029.39,-193.38 1021.44,-186.38 1023.29,-196.81 1029.39,-193.38"/>
</g>
<!-- Node22 -->
<g id="node22" class="node">
<title>Node22</title>
<g id="a_node22"><a xlink:href="simulation__parameters_8h.html" target="_top" xlink:title="Classes collecting parameters for the simulation.">
<polygon fill="white" stroke="#666666" points="752.62,-240.25 630.12,-240.25 630.12,-221 752.62,-221 752.62,-240.25"/>
<text text-anchor="middle" x="691.38" y="-226.75" font-family="Helvetica,sans-Serif" font-size="10.00">simulation_parameters.h</text>
</a>
</g>
</g>
<!-- Node1&#45;&gt;Node22 -->
<g id="edge32" class="edge">
<title>Node1&#45;&gt;Node22</title>
<path fill="none" stroke="#63b8ff" d="M1026.52,-277.86C959.16,-268.57 839.97,-252.12 763.38,-241.56"/>
<polygon fill="#63b8ff" stroke="#63b8ff" points="764.25,-238.01 753.87,-240.11 763.3,-244.94 764.25,-238.01"/>
</g>
<!-- Node3&#45;&gt;Node2 -->
<g id="edge3" class="edge">
<title>Node3&#45;&gt;Node2</title>
<path fill="none" stroke="#63b8ff" d="M364.36,-174.55C292.49,-174.5 93.38,-170.61 45.38,-129.75 32.71,-118.97 28.28,-100.16 26.83,-85.73"/>
<polygon fill="#63b8ff" stroke="#63b8ff" points="30.27,-85.69 26.19,-75.92 23.28,-86.1 30.27,-85.69"/>
</g>
<!-- Node4 -->
<g id="node4" class="node">
<title>Node4</title>
<g id="a_node4"><a xlink:title=" ">
<polygon fill="#e0e0e0" stroke="#999999" points="650.75,-129.75 592,-129.75 592,-110.5 650.75,-110.5 650.75,-129.75"/>
<text text-anchor="middle" x="621.38" y="-116.25" font-family="Helvetica,sans-Serif" font-size="10.00">stdexcept</text>
</a>
</g>
</g>
<!-- Node3&#45;&gt;Node4 -->
<g id="edge4" class="edge">
<title>Node3&#45;&gt;Node4</title>
<path fill="none" stroke="#63b8ff" d="M416.42,-168.37C456.6,-159.11 533.97,-141.27 581.31,-130.36"/>
<polygon fill="#63b8ff" stroke="#63b8ff" points="581.83,-133.6 590.79,-127.94 580.26,-126.78 581.83,-133.6"/>
</g>
<!-- Node5 -->
<g id="node5" class="node">
<title>Node5</title>
<g id="a_node5"><a xlink:title=" ">
<polygon fill="#e0e0e0" stroke="#999999" points="527.38,-74.5 487.38,-74.5 487.38,-55.25 527.38,-55.25 527.38,-74.5"/>
<text text-anchor="middle" x="507.38" y="-61" font-family="Helvetica,sans-Serif" font-size="10.00">string</text>
</a>
</g>
</g>
<!-- Node3&#45;&gt;Node5 -->
<g id="edge5" class="edge">
<title>Node3&#45;&gt;Node5</title>
<path fill="none" stroke="#63b8ff" d="M390.75,-165.43C391.78,-151.97 395.55,-126.38 409.38,-110.5 426.81,-90.48 455.05,-78.94 476.76,-72.63"/>
<polygon fill="#63b8ff" stroke="#63b8ff" points="477.35,-75.83 486.11,-69.86 475.55,-69.06 477.35,-75.83"/>
</g>
<!-- Node6 -->
<g id="node6" class="node">
<title>Node6</title>
<g id="a_node6"><a xlink:title=" ">
<polygon fill="#e0e0e0" stroke="#999999" points="844.88,-74.5 801.88,-74.5 801.88,-55.25 844.88,-55.25 844.88,-74.5"/>
<text text-anchor="middle" x="823.38" y="-61" font-family="Helvetica,sans-Serif" font-size="10.00">vector</text>
</a>
</g>
</g>
<!-- Node3&#45;&gt;Node6 -->
<g id="edge6" class="edge">
<title>Node3&#45;&gt;Node6</title>
<path fill="none" stroke="#63b8ff" d="M414.13,-165.35C450.25,-151.89 521.33,-126.46 583.38,-110.5 656.75,-91.63 744.67,-77.35 791.05,-70.46"/>
<polygon fill="#63b8ff" stroke="#63b8ff" points="791.26,-73.82 800.65,-68.9 790.24,-66.89 791.26,-73.82"/>
</g>
<!-- Node7 -->
<g id="node7" class="node">
<title>Node7</title>
<g id="a_node7"><a xlink:title=" ">
<polygon fill="#e0e0e0" stroke="#999999" points="100.38,-129.75 54.38,-129.75 54.38,-110.5 100.38,-110.5 100.38,-129.75"/>
<text text-anchor="middle" x="77.38" y="-116.25" font-family="Helvetica,sans-Serif" font-size="10.00">fftw3.h</text>
</a>
</g>
</g>
<!-- Node3&#45;&gt;Node7 -->
<g id="edge7" class="edge">
<title>Node3&#45;&gt;Node7</title>
<path fill="none" stroke="#63b8ff" d="M364.64,-171.21C316.67,-165.13 210.22,-150.69 111.21,-129.95"/>
<polygon fill="#63b8ff" stroke="#63b8ff" points="112.23,-126.38 101.72,-127.72 110.78,-133.23 112.23,-126.38"/>
</g>
<!-- Node8 -->
<g id="node8" class="node">
<title>Node8</title>
<g id="a_node8"><a xlink:title=" ">
<polygon fill="#e0e0e0" stroke="#999999" points="210.25,-129.75 118.5,-129.75 118.5,-110.5 210.25,-110.5 210.25,-129.75"/>
<text text-anchor="middle" x="164.38" y="-116.25" font-family="Helvetica,sans-Serif" font-size="10.00">arrays/tensor3d.h</text>
</a>
</g>
</g>
<!-- Node3&#45;&gt;Node8 -->
<g id="edge8" class="edge">
<title>Node3&#45;&gt;Node8</title>
<path fill="none" stroke="#63b8ff" d="M364.45,-168.27C327.66,-159.6 259.64,-143.57 213.21,-132.63"/>
<polygon fill="#63b8ff" stroke="#63b8ff" points="214.32,-129.06 203.78,-130.18 212.72,-135.88 214.32,-129.06"/>
</g>
<!-- Node9 -->
<g id="node9" class="node">
<title>Node9</title>
<g id="a_node9"><a xlink:href="globals_8h.html" target="_top" xlink:title="Type definitions and global constants.">
<polygon fill="white" stroke="#666666" points="361.88,-129.75 306.88,-129.75 306.88,-110.5 361.88,-110.5 361.88,-129.75"/>
<text text-anchor="middle" x="334.38" y="-116.25" font-family="Helvetica,sans-Serif" font-size="10.00">globals.h</text>
</a>
</g>
</g>
<!-- Node3&#45;&gt;Node9 -->
<g id="edge9" class="edge">
<title>Node3&#45;&gt;Node9</title>
<path fill="none" stroke="#63b8ff" d="M380.88,-165.34C372.86,-157.72 361.19,-146.62 351.55,-137.45"/>
<polygon fill="#63b8ff" stroke="#63b8ff" points="354.39,-135.38 344.73,-131.02 349.57,-140.45 354.39,-135.38"/>
</g>
<!-- Node10 -->
<g id="node10" class="node">
<title>Node10</title>
<g id="a_node10"><a xlink:title=" ">
<polygon fill="#e0e0e0" stroke="#999999" points="288.88,-129.75 227.88,-129.75 227.88,-110.5 288.88,-110.5 288.88,-129.75"/>
<text text-anchor="middle" x="258.38" y="-116.25" font-family="Helvetica,sans-Serif" font-size="10.00">matlabio.h</text>
</a>
</g>
</g>
<!-- Node3&#45;&gt;Node10 -->
<g id="edge12" class="edge">
<title>Node3&#45;&gt;Node10</title>
<path fill="none" stroke="#63b8ff" d="M367.98,-165.34C346.84,-156.81 314.89,-143.92 290.93,-134.26"/>
<polygon fill="#63b8ff" stroke="#63b8ff" points="292.46,-130.7 281.88,-130.2 289.84,-137.19 292.46,-130.7"/>
</g>
<!-- Node11 -->
<g id="node11" class="node">
<title>Node11</title>
<g id="a_node11"><a xlink:href="utils_8h.html" target="_top" xlink:title="Useful miscellaneous utility functions.">
<polygon fill="white" stroke="#666666" points="460.5,-129.75 418.25,-129.75 418.25,-110.5 460.5,-110.5 460.5,-129.75"/>
<text text-anchor="middle" x="439.38" y="-116.25" font-family="Helvetica,sans-Serif" font-size="10.00">utils.h</text>
</a>
</g>
</g>
<!-- Node3&#45;&gt;Node11 -->
<g id="edge13" class="edge">
<title>Node3&#45;&gt;Node11</title>
<path fill="none" stroke="#63b8ff" d="M398.47,-165.58C405.31,-158.15 415.3,-147.29 423.7,-138.16"/>
<polygon fill="#63b8ff" stroke="#63b8ff" points="425.91,-140.84 430.11,-131.11 420.76,-136.1 425.91,-140.84"/>
</g>
<!-- Node9&#45;&gt;Node2 -->
<g id="edge10" class="edge">
<title>Node9&#45;&gt;Node2</title>
<path fill="none" stroke="#63b8ff" d="M306.54,-112.43C303.45,-111.75 300.35,-111.09 297.38,-110.5 214.37,-94.01 116.21,-78.94 63.8,-71.24"/>
<polygon fill="#63b8ff" stroke="#63b8ff" points="64.42,-67.65 54.02,-69.67 63.41,-74.58 64.42,-67.65"/>
</g>
<!-- Node9&#45;&gt;Node5 -->
<g id="edge11" class="edge">
<title>Node9&#45;&gt;Node5</title>
<path fill="none" stroke="#63b8ff" d="M362.17,-110.57C393.49,-100.93 444.26,-85.3 476.71,-75.31"/>
<polygon fill="#63b8ff" stroke="#63b8ff" points="477.43,-78.45 485.96,-72.16 475.37,-71.76 477.43,-78.45"/>
</g>
<!-- Node11&#45;&gt;Node5 -->
<g id="edge14" class="edge">
<title>Node11&#45;&gt;Node5</title>
<path fill="none" stroke="#63b8ff" d="M450.91,-110.09C460.94,-102.24 475.68,-90.7 487.58,-81.37"/>
<polygon fill="#63b8ff" stroke="#63b8ff" points="489.29,-83.7 495.01,-74.77 484.98,-78.18 489.29,-83.7"/>
</g>
<!-- Node14 -->
<g id="node14" class="node">
<title>Node14</title>
<g id="a_node14"><a xlink:title=" ">
<polygon fill="#e0e0e0" stroke="#999999" points="1224.5,-129.75 1140.25,-129.75 1140.25,-110.5 1224.5,-110.5 1224.5,-129.75"/>
<text text-anchor="middle" x="1182.38" y="-116.25" font-family="Helvetica,sans-Serif" font-size="10.00">spdlog/spdlog.h</text>
</a>
</g>
</g>
<!-- Node13&#45;&gt;Node14 -->
<g id="edge17" class="edge">
<title>Node13&#45;&gt;Node14</title>
<path fill="none" stroke="#63b8ff" d="M1126.74,-165.34C1136.62,-157.49 1151.14,-145.95 1162.87,-136.62"/>
<polygon fill="#63b8ff" stroke="#63b8ff" points="1164.53,-138.99 1170.18,-130.02 1160.17,-133.51 1164.53,-138.99"/>
</g>
<!-- Node15 -->
<g id="node15" class="node">
<title>Node15</title>
<g id="a_node15"><a xlink:title=" ">
<polygon fill="#e0e0e0" stroke="#999999" points="1122.25,-129.75 1066.5,-129.75 1066.5,-110.5 1122.25,-110.5 1122.25,-129.75"/>
<text text-anchor="middle" x="1094.38" y="-116.25" font-family="Helvetica,sans-Serif" font-size="10.00">algorithm</text>
</a>
</g>
</g>
<!-- Node13&#45;&gt;Node15 -->
<g id="edge18" class="edge">
<title>Node13&#45;&gt;Node15</title>
<path fill="none" stroke="#63b8ff" d="M1111.91,-165.58C1109.19,-158.69 1105.3,-148.84 1101.88,-140.16"/>
<polygon fill="#63b8ff" stroke="#63b8ff" points="1104.84,-139.13 1097.92,-131.11 1098.33,-141.7 1104.84,-139.13"/>
</g>
<!-- Node16&#45;&gt;Node17 -->
<g id="edge20" class="edge">
<title>Node16&#45;&gt;Node17</title>
<path fill="none" stroke="#63b8ff" d="M1190.26,-220.73C1212.4,-199.75 1261.87,-146.26 1233.38,-110.5 1214.11,-86.32 1127.33,-74.19 1076.26,-69.04"/>
<polygon fill="#63b8ff" stroke="#63b8ff" points="1076.62,-65.47 1066.33,-67.99 1075.95,-72.43 1076.62,-65.47"/>
</g>
<!-- Node18 -->
<g id="node18" class="node">
<title>Node18</title>
<g id="a_node18"><a xlink:title=" ">
<polygon fill="#e0e0e0" stroke="#999999" points="994.75,-19.25 954,-19.25 954,0 994.75,0 994.75,-19.25"/>
<text text-anchor="middle" x="974.38" y="-5.75" font-family="Helvetica,sans-Serif" font-size="10.00">mat.h</text>
</a>
</g>
</g>
<!-- Node17&#45;&gt;Node18 -->
<g id="edge21" class="edge">
<title>Node17&#45;&gt;Node18</title>
<path fill="none" stroke="#63b8ff" d="M1027.52,-54.84C1018.18,-47.07 1004.48,-35.67 993.33,-26.4"/>
<polygon fill="#63b8ff" stroke="#63b8ff" points="996,-23.23 986.07,-19.52 991.52,-28.61 996,-23.23"/>
</g>
<!-- Node19 -->
<g id="node19" class="node">
<title>Node19</title>
<g id="a_node19"><a xlink:title=" ">
<polygon fill="#e0e0e0" stroke="#999999" points="1064,-19.25 1012.75,-19.25 1012.75,0 1064,0 1064,-19.25"/>
<text text-anchor="middle" x="1038.38" y="-5.75" font-family="Helvetica,sans-Serif" font-size="10.00">matrix.h</text>
</a>
</g>
</g>
<!-- Node17&#45;&gt;Node19 -->
<g id="edge22" class="edge">
<title>Node17&#45;&gt;Node19</title>
<path fill="none" stroke="#63b8ff" d="M1038.38,-55.08C1038.38,-48.42 1038.38,-38.99 1038.38,-30.53"/>
<polygon fill="#63b8ff" stroke="#63b8ff" points="1041.88,-30.61 1038.38,-20.61 1034.88,-30.61 1041.88,-30.61"/>
</g>
<!-- Node20 -->
<g id="node20" class="node">
<title>Node20</title>
<g id="a_node20"><a xlink:title=" ">
<polygon fill="#e0e0e0" stroke="#999999" points="1124.88,-19.25 1081.88,-19.25 1081.88,0 1124.88,0 1124.88,-19.25"/>
<text text-anchor="middle" x="1103.38" y="-5.75" font-family="Helvetica,sans-Serif" font-size="10.00">mex.h</text>
</a>
</g>
</g>
<!-- Node17&#45;&gt;Node20 -->
<g id="edge23" class="edge">
<title>Node17&#45;&gt;Node20</title>
<path fill="none" stroke="#63b8ff" d="M1049.4,-54.84C1058.89,-47.07 1072.8,-35.67 1084.12,-26.4"/>
<polygon fill="#63b8ff" stroke="#63b8ff" points="1085.99,-28.57 1091.51,-19.52 1081.56,-23.15 1085.99,-28.57"/>
</g>
<!-- Node21&#45;&gt;Node4 -->
<g id="edge26" class="edge">
<title>Node21&#45;&gt;Node4</title>
<path fill="none" stroke="#63b8ff" d="M980.27,-170.66C916.38,-163.9 779.27,-148.53 664.38,-129.75 663.42,-129.59 662.46,-129.43 661.48,-129.27"/>
<polygon fill="#63b8ff" stroke="#63b8ff" points="662.4,-125.69 651.93,-127.34 661.14,-132.58 662.4,-125.69"/>
</g>
<!-- Node21&#45;&gt;Node5 -->
<g id="edge27" class="edge">
<title>Node21&#45;&gt;Node5</title>
<path fill="none" stroke="#63b8ff" d="M980.13,-173.17C920.05,-170.33 796.62,-160.88 697.38,-129.75 679.31,-124.08 676.98,-117.47 659.38,-110.5 618.38,-94.26 569.13,-80.86 538.03,-73.11"/>
<polygon fill="#63b8ff" stroke="#63b8ff" points="538.99,-69.5 528.44,-70.52 537.32,-76.3 538.99,-69.5"/>
</g>
<!-- Node21&#45;&gt;Node6 -->
<g id="edge28" class="edge">
<title>Node21&#45;&gt;Node6</title>
<path fill="none" stroke="#63b8ff" d="M1008.2,-165.38C995.49,-151.86 969.7,-126.19 943.38,-110.5 915.6,-93.95 880.64,-81.8 855.63,-74.39"/>
<polygon fill="#63b8ff" stroke="#63b8ff" points="856.82,-70.8 846.24,-71.42 854.89,-77.53 856.82,-70.8"/>
</g>
<!-- Node21&#45;&gt;Node14 -->
<g id="edge29" class="edge">
<title>Node21&#45;&gt;Node14</title>
<path fill="none" stroke="#63b8ff" d="M1044.53,-165.34C1071.84,-156.58 1113.48,-143.23 1143.85,-133.48"/>
<polygon fill="#63b8ff" stroke="#63b8ff" points="1144.62,-136.59 1153.08,-130.2 1142.49,-129.92 1144.62,-136.59"/>
</g>
<!-- Node21&#45;&gt;Node15 -->
<g id="edge25" class="edge">
<title>Node21&#45;&gt;Node15</title>
<path fill="none" stroke="#63b8ff" d="M1029.61,-165.34C1041.26,-157.39 1058.47,-145.64 1072.22,-136.25"/>
<polygon fill="#63b8ff" stroke="#63b8ff" points="1073.79,-138.73 1080.08,-130.2 1069.85,-132.95 1073.79,-138.73"/>
</g>
<!-- Node21&#45;&gt;Node17 -->
<g id="edge30" class="edge">
<title>Node21&#45;&gt;Node17</title>
<path fill="none" stroke="#63b8ff" d="M1018.18,-165.5C1021.7,-148.09 1029.61,-109.12 1034.41,-85.41"/>
<polygon fill="#63b8ff" stroke="#63b8ff" points="1037.99,-86.37 1036.55,-75.88 1031.13,-84.98 1037.99,-86.37"/>
</g>
<!-- Node22&#45;&gt;Node3 -->
<g id="edge34" class="edge">
<title>Node22&#45;&gt;Node3</title>
<path fill="none" stroke="#63b8ff" d="M639.97,-220.53C579.31,-209.8 479.97,-192.23 426.75,-182.81"/>
<polygon fill="#63b8ff" stroke="#63b8ff" points="427.58,-179.23 417.12,-180.93 426.36,-186.12 427.58,-179.23"/>
</g>
<!-- Node22&#45;&gt;Node5 -->
<g id="edge33" class="edge">
<title>Node22&#45;&gt;Node5</title>
<path fill="none" stroke="#63b8ff" d="M675.49,-220.63C648.23,-204.7 591.69,-169.44 552.38,-129.75 538.68,-115.93 526.21,-97.54 517.88,-84.05"/>
<polygon fill="#63b8ff" stroke="#63b8ff" points="520.51,-82.62 512.37,-75.83 514.5,-86.21 520.51,-82.62"/>
</g>
<!-- Node23 -->
<g id="node23" class="node">
<title>Node23</title>
<g id="a_node23"><a xlink:href="input__matrices_8h.html" target="_top" xlink:title="Class handling the input matrices that are read in from the input file.">
<polygon fill="white" stroke="#666666" points="806.38,-185 718.38,-185 718.38,-165.75 806.38,-165.75 806.38,-185"/>
<text text-anchor="middle" x="762.38" y="-171.5" font-family="Helvetica,sans-Serif" font-size="10.00">input_matrices.h</text>
</a>
</g>
</g>
<!-- Node22&#45;&gt;Node23 -->
<g id="edge35" class="edge">
<title>Node22&#45;&gt;Node23</title>
<path fill="none" stroke="#63b8ff" d="M703.42,-220.59C713.89,-212.74 729.28,-201.2 741.71,-191.87"/>
<polygon fill="#63b8ff" stroke="#63b8ff" points="743.61,-194.07 749.51,-185.27 739.41,-188.47 743.61,-194.07"/>
</g>
<!-- Node23&#45;&gt;Node5 -->
<g id="edge36" class="edge">
<title>Node23&#45;&gt;Node5</title>
<path fill="none" stroke="#63b8ff" d="M718.11,-169.04C680.63,-163.22 626.31,-151.65 583.38,-129.75 559.76,-117.71 537.09,-97.08 522.75,-82.53"/>
<polygon fill="#63b8ff" stroke="#63b8ff" points="525.77,-80.57 516.32,-75.77 520.71,-85.42 525.77,-80.57"/>
</g>
<!-- Node23&#45;&gt;Node17 -->
<g id="edge40" class="edge">
<title>Node23&#45;&gt;Node17</title>
<path fill="none" stroke="#63b8ff" d="M806.57,-167.93C844.11,-161.43 898.84,-149.47 943.38,-129.75 971.82,-117.15 1001.01,-96.08 1019.38,-81.6"/>
<polygon fill="#63b8ff" stroke="#63b8ff" points="1021.12,-83.9 1026.72,-74.9 1016.73,-78.44 1021.12,-83.9"/>
</g>
<!-- Node24 -->
<g id="node24" class="node">
<title>Node24</title>
<g id="a_node24"><a xlink:href="input__output__names_8h.html" target="_top" xlink:title="Constant values associated with the format of the input and output files and matrices.">
<polygon fill="white" stroke="#666666" points="818.38,-129.75 706.38,-129.75 706.38,-110.5 818.38,-110.5 818.38,-129.75"/>
<text text-anchor="middle" x="762.38" y="-116.25" font-family="Helvetica,sans-Serif" font-size="10.00">input_output_names.h</text>
</a>
</g>
</g>
<!-- Node23&#45;&gt;Node24 -->
<g id="edge37" class="edge">
<title>Node23&#45;&gt;Node24</title>
<path fill="none" stroke="#63b8ff" d="M762.38,-165.58C762.38,-158.92 762.38,-149.49 762.38,-141.03"/>
<polygon fill="#63b8ff" stroke="#63b8ff" points="765.88,-141.11 762.38,-131.11 758.88,-141.11 765.88,-141.11"/>
</g>
<!-- Node25 -->
<g id="node25" class="node">
<title>Node25</title>
<g id="a_node25"><a xlink:href="matrix__collection_8h.html" target="_top" xlink:title="A collection of named MATLAB matrices.">
<polygon fill="white" stroke="#666666" points="934.25,-129.75 836.5,-129.75 836.5,-110.5 934.25,-110.5 934.25,-129.75"/>
<text text-anchor="middle" x="885.38" y="-116.25" font-family="Helvetica,sans-Serif" font-size="10.00">matrix_collection.h</text>
</a>
</g>
</g>
<!-- Node23&#45;&gt;Node25 -->
<g id="edge41" class="edge">
<title>Node23&#45;&gt;Node25</title>
<path fill="none" stroke="#63b8ff" d="M783.24,-165.34C802.77,-156.89 832.18,-144.15 854.44,-134.52"/>
<polygon fill="#63b8ff" stroke="#63b8ff" points="855.62,-137.39 863.41,-130.2 852.84,-130.96 855.62,-137.39"/>
</g>
<!-- Node24&#45;&gt;Node5 -->
<g id="edge38" class="edge">
<title>Node24&#45;&gt;Node5</title>
<path fill="none" stroke="#63b8ff" d="M718.83,-110.03C667.42,-99.3 583.24,-81.72 538.16,-72.3"/>
<polygon fill="#63b8ff" stroke="#63b8ff" points="539.09,-68.71 528.59,-70.1 537.66,-75.57 539.09,-68.71"/>
</g>
<!-- Node24&#45;&gt;Node6 -->
<g id="edge39" class="edge">
<title>Node24&#45;&gt;Node6</title>
<path fill="none" stroke="#63b8ff" d="M772.72,-110.09C781.54,-102.4 794.42,-91.15 804.99,-81.93"/>
<polygon fill="#63b8ff" stroke="#63b8ff" points="806.95,-83.99 812.18,-74.77 802.34,-78.71 806.95,-83.99"/>
</g>
<!-- Node25&#45;&gt;Node5 -->
<g id="edge42" class="edge">
<title>Node25&#45;&gt;Node5</title>
<path fill="none" stroke="#63b8ff" d="M836.02,-111.75C833.09,-111.33 830.2,-110.91 827.38,-110.5 721.41,-95.23 595.59,-77.93 538.41,-70.11"/>
<polygon fill="#63b8ff" stroke="#63b8ff" points="538.98,-66.52 528.6,-68.63 538.04,-73.45 538.98,-66.52"/>
</g>
<!-- Node25&#45;&gt;Node6 -->
<g id="edge43" class="edge">
<title>Node25&#45;&gt;Node6</title>
<path fill="none" stroke="#63b8ff" d="M874.86,-110.09C865.9,-102.4 852.8,-91.15 842.06,-81.93"/>
<polygon fill="#63b8ff" stroke="#63b8ff" points="844.6,-78.64 834.74,-74.77 840.04,-83.95 844.6,-78.64"/>
</g>
<!-- Node25&#45;&gt;Node17 -->
<g id="edge44" class="edge">
<title>Node25&#45;&gt;Node17</title>
<path fill="none" stroke="#63b8ff" d="M911.33,-110.09C936.28,-101.41 974.21,-88.21 1002.13,-78.49"/>
<polygon fill="#63b8ff" stroke="#63b8ff" points="1003,-81.55 1011.29,-74.95 1000.7,-74.93 1003,-81.55"/>
</g>
</g>
</svg>
