<?xml version="1.0" encoding="UTF-8" standalone="no"?>
<!DOCTYPE svg PUBLIC "-//W3C//DTD SVG 1.1//EN"
 "http://www.w3.org/Graphics/SVG/1.1/DTD/svg11.dtd">
<!-- Generated by graphviz version 8.0.2 (20230410.1723)
 -->
<!-- Title: tdms/include/field.h Pages: 1 -->
<svg width="1082pt" height="302pt"
 viewBox="0.00 0.00 1082.35 302.00" xmlns="http://www.w3.org/2000/svg" xmlns:xlink="http://www.w3.org/1999/xlink">
<g id="graph0" class="graph" transform="scale(1 1) rotate(0) translate(4 298)">
<title>tdms/include/field.h</title>
<!-- Node1 -->
<g id="node1" class="node">
<title>Node1</title>
<g id="a_node1"><a xlink:title="Classes for the electric and magnetic (split) fields on a grid.">
<polygon fill="#999999" stroke="#666666" points="508.35,-294 407.35,-294 407.35,-275 508.35,-275 508.35,-294"/>
<text text-anchor="middle" x="457.85" y="-282" font-family="Helvetica,sans-Serif" font-size="10.00">tdms/include/field.h</text>
</a>
</g>
</g>
<!-- Node2 -->
<g id="node2" class="node">
<title>Node2</title>
<g id="a_node2"><a xlink:title=" ">
<polygon fill="#e0e0e0" stroke="#999999" points="67.35,-74 14.35,-74 14.35,-55 67.35,-55 67.35,-74"/>
<text text-anchor="middle" x="40.85" y="-62" font-family="Helvetica,sans-Serif" font-size="10.00">complex</text>
</a>
</g>
</g>
<!-- Node1&#45;&gt;Node2 -->
<g id="edge1" class="edge">
<title>Node1&#45;&gt;Node2</title>
<path fill="none" stroke="#63b8ff" d="M407.07,-284.05C309.19,-281.99 95.97,-261.67 3.85,-129 -6.98,-113.41 7.28,-94.49 21.12,-81.38"/>
<polygon fill="#63b8ff" stroke="#63b8ff" points="22.84,-84.64 28.03,-75.4 18.21,-79.39 22.84,-84.64"/>
</g>
<!-- Node3 -->
<g id="node3" class="node">
<title>Node3</title>
<g id="a_node3"><a xlink:href="arrays_8h.html" target="_top" xlink:title="Classes describing arrays, vertices etc.">
<polygon fill="white" stroke="#666666" points="306.85,-184 254.85,-184 254.85,-165 306.85,-165 306.85,-184"/>
<text text-anchor="middle" x="280.85" y="-172" font-family="Helvetica,sans-Serif" font-size="10.00">arrays.h</text>
</a>
</g>
</g>
<!-- Node1&#45;&gt;Node3 -->
<g id="edge2" class="edge">
<title>Node1&#45;&gt;Node3</title>
<path fill="none" stroke="#63b8ff" d="M443.36,-274.66C412.89,-256.07 341.92,-212.77 304.66,-190.03"/>
<polygon fill="#63b8ff" stroke="#63b8ff" points="306.89,-186.68 296.53,-184.46 303.24,-192.66 306.89,-186.68"/>
</g>
<!-- Node7 -->
<g id="node7" class="node">
<title>Node7</title>
<g id="a_node7"><a xlink:href="globals_8h.html" target="_top" xlink:title="Type definitions and global constants.">
<polygon fill="white" stroke="#666666" points="68.85,-129 12.85,-129 12.85,-110 68.85,-110 68.85,-129"/>
<text text-anchor="middle" x="40.85" y="-117" font-family="Helvetica,sans-Serif" font-size="10.00">globals.h</text>
</a>
</g>
</g>
<!-- Node1&#45;&gt;Node7 -->
<g id="edge20" class="edge">
<title>Node1&#45;&gt;Node7</title>
<path fill="none" stroke="#63b8ff" d="M434.83,-274.5C365.06,-247.23 155.68,-165.39 73.99,-133.46"/>
<polygon fill="#63b8ff" stroke="#63b8ff" points="75.38,-129.85 64.79,-129.47 72.83,-136.37 75.38,-129.85"/>
</g>
<!-- Node10 -->
<g id="node10" class="node">
<title>Node10</title>
<g id="a_node10"><a xlink:href="cell__coordinate_8h.html" target="_top" xlink:title="Container for {ijk} or {IJK} grouped variables.">
<polygon fill="white" stroke="#666666" points="1012.85,-239 922.85,-239 922.85,-220 1012.85,-220 1012.85,-239"/>
<text text-anchor="middle" x="967.85" y="-227" font-family="Helvetica,sans-Serif" font-size="10.00">cell_coordinate.h</text>
</a>
</g>
</g>
<!-- Node1&#45;&gt;Node10 -->
<g id="edge12" class="edge">
<title>Node1&#45;&gt;Node10</title>
<path fill="none" stroke="#63b8ff" d="M508.56,-279.53C590.97,-272.87 759.3,-258.37 912,-239.17"/>
<polygon fill="#63b8ff" stroke="#63b8ff" points="912.02,-242.57 921.5,-237.84 911.14,-235.62 912.02,-242.57"/>
</g>
<!-- Node13 -->
<g id="node13" class="node">
<title>Node13</title>
<g id="a_node13"><a xlink:href="dimensions_8h.html" target="_top" xlink:title="Defines a class that serves as an explicit converter between MATLAB pointers and array dimensions.">
<polygon fill="white" stroke="#666666" points="904.85,-239 830.85,-239 830.85,-220 904.85,-220 904.85,-239"/>
<text text-anchor="middle" x="867.85" y="-227" font-family="Helvetica,sans-Serif" font-size="10.00">dimensions.h</text>
</a>
</g>
</g>
<!-- Node1&#45;&gt;Node13 -->
<g id="edge15" class="edge">
<title>Node1&#45;&gt;Node13</title>
<path fill="none" stroke="#63b8ff" d="M508.77,-277.87C578.43,-270.01 707.3,-254.91 816.85,-239 817.82,-238.86 818.8,-238.71 819.79,-238.57"/>
<polygon fill="#63b8ff" stroke="#63b8ff" points="820.2,-241.89 829.55,-236.9 819.13,-234.97 820.2,-241.89"/>
</g>
<!-- Node14 -->
<g id="node14" class="node">
<title>Node14</title>
<g id="a_node14"><a xlink:href="mat__io_8h.html" target="_top" xlink:title="Includes MATLAB headers for I/O.">
<polygon fill="white" stroke="#666666" points="827.85,-74 773.85,-74 773.85,-55 827.85,-55 827.85,-74"/>
<text text-anchor="middle" x="800.85" y="-62" font-family="Helvetica,sans-Serif" font-size="10.00">mat_io.h</text>
</a>
</g>
</g>
<!-- Node1&#45;&gt;Node14 -->
<g id="edge21" class="edge">
<title>Node1&#45;&gt;Node14</title>
<path fill="none" stroke="#63b8ff" d="M506.14,-274.54C578.35,-258.54 713.7,-217.99 785.85,-129 795.89,-116.61 799.42,-98.65 800.57,-84.99"/>
<polygon fill="#63b8ff" stroke="#63b8ff" points="804.1,-85.49 801.07,-75.34 797.1,-85.16 804.1,-85.49"/>
</g>
<!-- Node18 -->
<g id="node18" class="node">
<title>Node18</title>
<g id="a_node18"><a xlink:href="simulation__parameters_8h.html" target="_top" xlink:title="Classes collecting parameters for the simulation.">
<polygon fill="white" stroke="#666666" points="519.35,-239 396.35,-239 396.35,-220 519.35,-220 519.35,-239"/>
<text text-anchor="middle" x="457.85" y="-227" font-family="Helvetica,sans-Serif" font-size="10.00">simulation_parameters.h</text>
</a>
</g>
</g>
<!-- Node1&#45;&gt;Node18 -->
<g id="edge22" class="edge">
<title>Node1&#45;&gt;Node18</title>
<path fill="none" stroke="#63b8ff" d="M457.85,-274.75C457.85,-268.11 457.85,-258.73 457.85,-250.31"/>
<polygon fill="#63b8ff" stroke="#63b8ff" points="461.35,-250.44 457.85,-240.44 454.35,-250.44 461.35,-250.44"/>
</g>
<!-- Node3&#45;&gt;Node2 -->
<g id="edge3" class="edge">
<title>Node3&#45;&gt;Node2</title>
<path fill="none" stroke="#63b8ff" d="M254.39,-170.02C220.67,-164.78 161.3,-152.84 115.85,-129 92.61,-116.81 70.22,-96.35 56.05,-81.95"/>
<polygon fill="#63b8ff" stroke="#63b8ff" points="59.15,-80.09 49.71,-75.28 54.1,-84.93 59.15,-80.09"/>
</g>
<!-- Node4 -->
<g id="node4" class="node">
<title>Node4</title>
<g id="a_node4"><a xlink:title=" ">
<polygon fill="#e0e0e0" stroke="#999999" points="368.35,-129 309.35,-129 309.35,-110 368.35,-110 368.35,-129"/>
<text text-anchor="middle" x="338.85" y="-117" font-family="Helvetica,sans-Serif" font-size="10.00">stdexcept</text>
</a>
</g>
</g>
<!-- Node3&#45;&gt;Node4 -->
<g id="edge4" class="edge">
<title>Node3&#45;&gt;Node4</title>
<path fill="none" stroke="#63b8ff" d="M290.69,-164.51C298.98,-156.93 311.07,-145.88 321.06,-136.75"/>
<polygon fill="#63b8ff" stroke="#63b8ff" points="323.13,-139.69 328.15,-130.36 318.41,-134.52 323.13,-139.69"/>
</g>
<!-- Node5 -->
<g id="node5" class="node">
<title>Node5</title>
<g id="a_node5"><a xlink:title=" ">
<polygon fill="#e0e0e0" stroke="#999999" points="497.35,-74 456.35,-74 456.35,-55 497.35,-55 497.35,-74"/>
<text text-anchor="middle" x="476.85" y="-62" font-family="Helvetica,sans-Serif" font-size="10.00">string</text>
</a>
</g>
</g>
<!-- Node3&#45;&gt;Node5 -->
<g id="edge5" class="edge">
<title>Node3&#45;&gt;Node5</title>
<path fill="none" stroke="#63b8ff" d="M280.88,-164.73C281.42,-151.04 284.55,-124.64 299.85,-110 339.34,-72.22 405.96,-65.15 445.23,-64.56"/>
<polygon fill="#63b8ff" stroke="#63b8ff" points="445.01,-68.06 455,-64.55 445,-61.06 445.01,-68.06"/>
</g>
<!-- Node6 -->
<g id="node6" class="node">
<title>Node6</title>
<g id="a_node6"><a xlink:title=" ">
<polygon fill="#e0e0e0" stroke="#999999" points="172.35,-129 125.35,-129 125.35,-110 172.35,-110 172.35,-129"/>
<text text-anchor="middle" x="148.85" y="-117" font-family="Helvetica,sans-Serif" font-size="10.00">fftw3.h</text>
</a>
</g>
</g>
<!-- Node3&#45;&gt;Node6 -->
<g id="edge6" class="edge">
<title>Node3&#45;&gt;Node6</title>
<path fill="none" stroke="#63b8ff" d="M258.45,-164.51C237.18,-155.97 204.97,-143.03 180.96,-133.4"/>
<polygon fill="#63b8ff" stroke="#63b8ff" points="182.49,-129.84 171.91,-129.36 179.88,-136.33 182.49,-129.84"/>
</g>
<!-- Node3&#45;&gt;Node7 -->
<g id="edge7" class="edge">
<title>Node3&#45;&gt;Node7</title>
<path fill="none" stroke="#63b8ff" d="M254.71,-167.73C212.46,-158.4 128.97,-139.96 79.73,-129.09"/>
<polygon fill="#63b8ff" stroke="#63b8ff" points="80.7,-125.5 70.18,-126.76 79.19,-132.33 80.7,-125.5"/>
</g>
<!-- Node8 -->
<g id="node8" class="node">
<title>Node8</title>
<g id="a_node8"><a xlink:title=" ">
<polygon fill="#e0e0e0" stroke="#999999" points="252.85,-129 190.85,-129 190.85,-110 252.85,-110 252.85,-129"/>
<text text-anchor="middle" x="221.85" y="-117" font-family="Helvetica,sans-Serif" font-size="10.00">matlabio.h</text>
</a>
</g>
</g>
<!-- Node3&#45;&gt;Node8 -->
<g id="edge9" class="edge">
<title>Node3&#45;&gt;Node8</title>
<path fill="none" stroke="#63b8ff" d="M270.84,-164.51C262.31,-156.85 249.85,-145.66 239.63,-136.47"/>
<polygon fill="#63b8ff" stroke="#63b8ff" points="242.49,-134.44 232.71,-130.36 237.81,-139.64 242.49,-134.44"/>
</g>
<!-- Node9 -->
<g id="node9" class="node">
<title>Node9</title>
<g id="a_node9"><a xlink:href="utils_8h.html" target="_top" xlink:title="Useful miscellaneous utility functions.">
<polygon fill="white" stroke="#666666" points="429.35,-129 386.35,-129 386.35,-110 429.35,-110 429.35,-129"/>
<text text-anchor="middle" x="407.85" y="-117" font-family="Helvetica,sans-Serif" font-size="10.00">utils.h</text>
</a>
</g>
</g>
<!-- Node3&#45;&gt;Node9 -->
<g id="edge10" class="edge">
<title>Node3&#45;&gt;Node9</title>
<path fill="none" stroke="#63b8ff" d="M302.39,-164.51C322.76,-156.01 353.57,-143.15 376.63,-133.53"/>
<polygon fill="#63b8ff" stroke="#63b8ff" points="377.74,-136.44 385.62,-129.36 375.04,-129.98 377.74,-136.44"/>
</g>
<!-- Node7&#45;&gt;Node2 -->
<g id="edge8" class="edge">
<title>Node7&#45;&gt;Node2</title>
<path fill="none" stroke="#63b8ff" d="M40.85,-109.75C40.85,-103.11 40.85,-93.73 40.85,-85.31"/>
<polygon fill="#63b8ff" stroke="#63b8ff" points="44.35,-85.44 40.85,-75.44 37.35,-85.44 44.35,-85.44"/>
</g>
<!-- Node9&#45;&gt;Node5 -->
<g id="edge11" class="edge">
<title>Node9&#45;&gt;Node5</title>
<path fill="none" stroke="#63b8ff" d="M419.55,-109.51C429.72,-101.7 444.68,-90.21 456.76,-80.93"/>
<polygon fill="#63b8ff" stroke="#63b8ff" points="458.52,-83.23 464.31,-74.36 454.25,-77.67 458.52,-83.23"/>
</g>
<!-- Node11 -->
<g id="node11" class="node">
<title>Node11</title>
<g id="a_node11"><a xlink:title=" ">
<polygon fill="#e0e0e0" stroke="#999999" points="1074.35,-184 989.35,-184 989.35,-165 1074.35,-165 1074.35,-184"/>
<text text-anchor="middle" x="1031.85" y="-172" font-family="Helvetica,sans-Serif" font-size="10.00">spdlog/spdlog.h</text>
</a>
</g>
</g>
<!-- Node10&#45;&gt;Node11 -->
<g id="edge13" class="edge">
<title>Node10&#45;&gt;Node11</title>
<path fill="none" stroke="#63b8ff" d="M978.7,-219.51C988.05,-211.77 1001.74,-200.43 1012.89,-191.2"/>
<polygon fill="#63b8ff" stroke="#63b8ff" points="1014.68,-193.43 1020.15,-184.36 1010.22,-188.04 1014.68,-193.43"/>
</g>
<!-- Node12 -->
<g id="node12" class="node">
<title>Node12</title>
<g id="a_node12"><a xlink:title=" ">
<polygon fill="#e0e0e0" stroke="#999999" points="970.85,-184 914.85,-184 914.85,-165 970.85,-165 970.85,-184"/>
<text text-anchor="middle" x="942.85" y="-172" font-family="Helvetica,sans-Serif" font-size="10.00">algorithm</text>
</a>
</g>
</g>
<!-- Node10&#45;&gt;Node12 -->
<g id="edge14" class="edge">
<title>Node10&#45;&gt;Node12</title>
<path fill="none" stroke="#63b8ff" d="M963.72,-219.75C960.44,-212.81 955.75,-202.86 951.65,-194.16"/>
<polygon fill="#63b8ff" stroke="#63b8ff" points="954.5,-192.99 947.06,-185.44 948.16,-195.98 954.5,-192.99"/>
</g>
<!-- Node13&#45;&gt;Node14 -->
<g id="edge16" class="edge">
<title>Node13&#45;&gt;Node14</title>
<path fill="none" stroke="#63b8ff" d="M866.45,-219.78C862.99,-199.63 852.9,-148.57 833.85,-110 829.07,-100.33 822.15,-90.59 815.87,-82.71"/>
<polygon fill="#63b8ff" stroke="#63b8ff" points="818.06,-80.86 808.98,-75.41 812.68,-85.33 818.06,-80.86"/>
</g>
<!-- Node15 -->
<g id="node15" class="node">
<title>Node15</title>
<g id="a_node15"><a xlink:title=" ">
<polygon fill="#e0e0e0" stroke="#999999" points="756.35,-19 715.35,-19 715.35,0 756.35,0 756.35,-19"/>
<text text-anchor="middle" x="735.85" y="-7" font-family="Helvetica,sans-Serif" font-size="10.00">mat.h</text>
</a>
</g>
</g>
<!-- Node14&#45;&gt;Node15 -->
<g id="edge17" class="edge">
<title>Node14&#45;&gt;Node15</title>
<path fill="none" stroke="#63b8ff" d="M789.82,-54.51C780.33,-46.77 766.42,-35.43 755.1,-26.2"/>
<polygon fill="#63b8ff" stroke="#63b8ff" points="757.67,-22.96 747.71,-19.36 753.25,-28.39 757.67,-22.96"/>
</g>
<!-- Node16 -->
<g id="node16" class="node">
<title>Node16</title>
<g id="a_node16"><a xlink:title=" ">
<polygon fill="#e0e0e0" stroke="#999999" points="826.85,-19 774.85,-19 774.85,0 826.85,0 826.85,-19"/>
<text text-anchor="middle" x="800.85" y="-7" font-family="Helvetica,sans-Serif" font-size="10.00">matrix.h</text>
</a>
</g>
</g>
<!-- Node14&#45;&gt;Node16 -->
<g id="edge18" class="edge">
<title>Node14&#45;&gt;Node16</title>
<path fill="none" stroke="#63b8ff" d="M800.85,-54.75C800.85,-48.11 800.85,-38.73 800.85,-30.31"/>
<polygon fill="#63b8ff" stroke="#63b8ff" points="804.35,-30.44 800.85,-20.44 797.35,-30.44 804.35,-30.44"/>
</g>
<!-- Node17 -->
<g id="node17" class="node">
<title>Node17</title>
<g id="a_node17"><a xlink:title=" ">
<polygon fill="#e0e0e0" stroke="#999999" points="888.85,-19 844.85,-19 844.85,0 888.85,0 888.85,-19"/>
<text text-anchor="middle" x="866.85" y="-7" font-family="Helvetica,sans-Serif" font-size="10.00">mex.h</text>
</a>
</g>
</g>
<!-- Node14&#45;&gt;Node17 -->
<g id="edge19" class="edge">
<title>Node14&#45;&gt;Node17</title>
<path fill="none" stroke="#63b8ff" d="M812.04,-54.51C821.68,-46.77 835.8,-35.43 847.3,-26.2"/>
<polygon fill="#63b8ff" stroke="#63b8ff" points="849.21,-28.35 854.82,-19.36 844.83,-22.89 849.21,-28.35"/>
</g>
<!-- Node18&#45;&gt;Node3 -->
<g id="edge24" class="edge">
<title>Node18&#45;&gt;Node3</title>
<path fill="none" stroke="#63b8ff" d="M427.82,-219.51C397.43,-210.41 350.38,-196.32 317.73,-186.54"/>
<polygon fill="#63b8ff" stroke="#63b8ff" points="318.84,-182.92 308.26,-183.41 316.83,-189.63 318.84,-182.92"/>
</g>
<!-- Node18&#45;&gt;Node5 -->
<g id="edge23" class="edge">
<title>Node18&#45;&gt;Node5</title>
<path fill="none" stroke="#63b8ff" d="M458.87,-219.74C461.82,-194.42 470.41,-120.72 474.56,-85.16"/>
<polygon fill="#63b8ff" stroke="#63b8ff" points="478.14,-85.64 475.82,-75.31 471.19,-84.83 478.14,-85.64"/>
</g>
<!-- Node19 -->
<g id="node19" class="node">
<title>Node19</title>
<g id="a_node19"><a xlink:href="input__matrices_8h.html" target="_top" xlink:title="Class handling the input matrices that are read in from the input file.">
<polygon fill="white" stroke="#666666" points="625.35,-184 536.35,-184 536.35,-165 625.35,-165 625.35,-184"/>
<text text-anchor="middle" x="580.85" y="-172" font-family="Helvetica,sans-Serif" font-size="10.00">input_matrices.h</text>
</a>
</g>
</g>
<!-- Node18&#45;&gt;Node19 -->
<g id="edge25" class="edge">
<title>Node18&#45;&gt;Node19</title>
<path fill="none" stroke="#63b8ff" d="M478.71,-219.51C498.36,-211.04 528.01,-198.27 550.31,-188.66"/>
<polygon fill="#63b8ff" stroke="#63b8ff" points="551.49,-191.53 559.29,-184.36 548.72,-185.1 551.49,-191.53"/>
</g>
<!-- Node19&#45;&gt;Node5 -->
<g id="edge26" class="edge">
<title>Node19&#45;&gt;Node5</title>
<path fill="none" stroke="#63b8ff" d="M563.32,-164.51C549.04,-156.57 529.01,-143.95 514.85,-129 502.16,-115.61 491.75,-97.26 485.05,-83.73"/>
<polygon fill="#63b8ff" stroke="#63b8ff" points="487.94,-82.64 480.5,-75.1 481.61,-85.63 487.94,-82.64"/>
</g>
<!-- Node19&#45;&gt;Node14 -->
<g id="edge30" class="edge">
<title>Node19&#45;&gt;Node14</title>
<path fill="none" stroke="#63b8ff" d="M625.69,-172.07C665.24,-168.74 722.67,-158.64 762.85,-129 777.86,-117.93 788.06,-98.99 794.09,-84.67"/>
<polygon fill="#63b8ff" stroke="#63b8ff" points="797.71,-86 798.03,-75.41 791.18,-83.49 797.71,-86"/>
</g>
<!-- Node20 -->
<g id="node20" class="node">
<title>Node20</title>
<g id="a_node20"><a xlink:href="input__output__names_8h.html" target="_top" xlink:title="Constant values associated with the format of the input and output files and matrices.">
<polygon fill="white" stroke="#666666" points="637.35,-129 524.35,-129 524.35,-110 637.35,-110 637.35,-129"/>
<text text-anchor="middle" x="580.85" y="-117" font-family="Helvetica,sans-Serif" font-size="10.00">input_output_names.h</text>
</a>
</g>
</g>
<!-- Node19&#45;&gt;Node20 -->
<g id="edge27" class="edge">
<title>Node19&#45;&gt;Node20</title>
<path fill="none" stroke="#63b8ff" d="M580.85,-164.75C580.85,-158.11 580.85,-148.73 580.85,-140.31"/>
<polygon fill="#63b8ff" stroke="#63b8ff" points="584.35,-140.44 580.85,-130.44 577.35,-140.44 584.35,-140.44"/>
</g>
<!-- Node22 -->
<g id="node22" class="node">
<title>Node22</title>
<g id="a_node22"><a xlink:href="matrix__collection_8h.html" target="_top" xlink:title="A collection of named MATLAB matrices.">
<polygon fill="white" stroke="#666666" points="753.85,-129 655.85,-129 655.85,-110 753.85,-110 753.85,-129"/>
<text text-anchor="middle" x="704.85" y="-117" font-family="Helvetica,sans-Serif" font-size="10.00">matrix_collection.h</text>
</a>
</g>
</g>
<!-- Node19&#45;&gt;Node22 -->
<g id="edge31" class="edge">
<title>Node19&#45;&gt;Node22</title>
<path fill="none" stroke="#63b8ff" d="M601.88,-164.51C621.69,-156.04 651.58,-143.27 674.07,-133.66"/>
<polygon fill="#63b8ff" stroke="#63b8ff" points="675.3,-136.51 683.12,-129.36 672.55,-130.07 675.3,-136.51"/>
</g>
<!-- Node20&#45;&gt;Node5 -->
<g id="edge28" class="edge">
<title>Node20&#45;&gt;Node5</title>
<path fill="none" stroke="#63b8ff" d="M563.2,-109.51C546.97,-101.24 522.65,-88.84 503.95,-79.31"/>
<polygon fill="#63b8ff" stroke="#63b8ff" points="505.73,-75.78 495.23,-74.36 502.55,-82.02 505.73,-75.78"/>
</g>
<!-- Node21 -->
<g id="node21" class="node">
<title>Node21</title>
<g id="a_node21"><a xlink:title=" ">
<polygon fill="#e0e0e0" stroke="#999999" points="664.85,-74 620.85,-74 620.85,-55 664.85,-55 664.85,-74"/>
<text text-anchor="middle" x="642.85" y="-62" font-family="Helvetica,sans-Serif" font-size="10.00">vector</text>
</a>
</g>
</g>
<!-- Node20&#45;&gt;Node21 -->
<g id="edge29" class="edge">
<title>Node20&#45;&gt;Node21</title>
<path fill="none" stroke="#63b8ff" d="M591.36,-109.51C600.32,-101.85 613.42,-90.66 624.16,-81.47"/>
<polygon fill="#63b8ff" stroke="#63b8ff" points="626.16,-83.52 631.48,-74.36 621.61,-78.2 626.16,-83.52"/>
</g>
<!-- Node22&#45;&gt;Node5 -->
<g id="edge32" class="edge">
<title>Node22&#45;&gt;Node5</title>
<path fill="none" stroke="#63b8ff" d="M666.17,-109.51C621.6,-99.15 549.22,-82.32 508.06,-72.76"/>
<polygon fill="#63b8ff" stroke="#63b8ff" points="509.11,-69.17 498.58,-70.32 507.53,-75.99 509.11,-69.17"/>
</g>
<!-- Node22&#45;&gt;Node14 -->
<g id="edge34" class="edge">
<title>Node22&#45;&gt;Node14</title>
<path fill="none" stroke="#63b8ff" d="M721.13,-109.51C735.98,-101.31 758.15,-89.07 775.35,-79.58"/>
<polygon fill="#63b8ff" stroke="#63b8ff" points="776.74,-82.26 783.8,-74.36 773.36,-76.13 776.74,-82.26"/>
</g>
<!-- Node22&#45;&gt;Node21 -->
<g id="edge33" class="edge">
<title>Node22&#45;&gt;Node21</title>
<path fill="none" stroke="#63b8ff" d="M694.33,-109.51C685.37,-101.85 672.27,-90.66 661.53,-81.47"/>
<polygon fill="#63b8ff" stroke="#63b8ff" points="664.08,-78.2 654.21,-74.36 659.54,-83.52 664.08,-78.2"/>
</g>
</g>
</svg>
