<?xml version="1.0" encoding="UTF-8" standalone="no"?>
<!DOCTYPE svg PUBLIC "-//W3C//DTD SVG 1.1//EN"
 "http://www.w3.org/Graphics/SVG/1.1/DTD/svg11.dtd">
<!-- Generated by graphviz version 8.0.5 (20230430.1635)
 -->
<!-- Title: tdms/include/fieldsample.h Pages: 1 -->
<svg width="1063pt" height="359pt"
 viewBox="0.00 0.00 1062.89 358.75" xmlns="http://www.w3.org/2000/svg" xmlns:xlink="http://www.w3.org/1999/xlink">
<g id="graph0" class="graph" transform="scale(1 1) rotate(0) translate(4 354.75)">
<title>tdms/include/fieldsample.h</title>
<!-- Node1 -->
<g id="node1" class="node">
<title>Node1</title>
<g id="a_node1"><a xlink:title="Class that stores the extracted field values at user&#45;defined vertices.">
<polygon fill="#999999" stroke="#666666" points="488.35,-350.75 356.1,-350.75 356.1,-331.5 488.35,-331.5 488.35,-350.75"/>
<text text-anchor="middle" x="422.23" y="-337.25" font-family="Helvetica,sans-Serif" font-size="10.00">tdms/include/fieldsample.h</text>
</a>
</g>
</g>
<!-- Node2 -->
<g id="node2" class="node">
<title>Node2</title>
<g id="a_node2"><a xlink:href="arrays_8h.html" target="_top" xlink:title="Classes describing arrays, vertices etc.">
<polygon fill="white" stroke="#666666" points="358.85,-185 307.6,-185 307.6,-165.75 358.85,-165.75 358.85,-185"/>
<text text-anchor="middle" x="333.23" y="-171.5" font-family="Helvetica,sans-Serif" font-size="10.00">arrays.h</text>
</a>
</g>
</g>
<!-- Node1&#45;&gt;Node2 -->
<g id="edge1" class="edge">
<title>Node1&#45;&gt;Node2</title>
<path fill="none" stroke="#63b8ff" d="M423.15,-331.18C424.85,-310.09 426.44,-256.37 403.23,-221 394.45,-207.62 380.11,-197.45 366.7,-190.22"/>
<polygon fill="#63b8ff" stroke="#63b8ff" points="368.69,-186.81 358.18,-185.48 365.57,-193.07 368.69,-186.81"/>
</g>
<!-- Node13 -->
<g id="node13" class="node">
<title>Node13</title>
<g id="a_node13"><a xlink:href="field_8h.html" target="_top" xlink:title="Classes for the electric and magnetic (split) fields on a grid.">
<polygon fill="white" stroke="#666666" points="674.35,-295.5 632.1,-295.5 632.1,-276.25 674.35,-276.25 674.35,-295.5"/>
<text text-anchor="middle" x="653.23" y="-282" font-family="Helvetica,sans-Serif" font-size="10.00">field.h</text>
</a>
</g>
</g>
<!-- Node1&#45;&gt;Node13 -->
<g id="edge16" class="edge">
<title>Node1&#45;&gt;Node13</title>
<path fill="none" stroke="#63b8ff" d="M461.68,-331.03C506.65,-320.66 579.31,-303.91 621.02,-294.3"/>
<polygon fill="#63b8ff" stroke="#63b8ff" points="621.71,-297.5 630.67,-291.85 620.14,-290.68 621.71,-297.5"/>
</g>
<!-- Node24 -->
<g id="node24" class="node">
<title>Node24</title>
<g id="a_node24"><a xlink:href="simulation__parameters_8h.html" target="_top" xlink:title="Classes collecting parameters for the simulation.">
<polygon fill="white" stroke="#666666" points="394.48,-240.25 271.98,-240.25 271.98,-221 394.48,-221 394.48,-240.25"/>
<text text-anchor="middle" x="333.23" y="-226.75" font-family="Helvetica,sans-Serif" font-size="10.00">simulation_parameters.h</text>
</a>
</g>
</g>
<!-- Node1&#45;&gt;Node24 -->
<g id="edge51" class="edge">
<title>Node1&#45;&gt;Node24</title>
<path fill="none" stroke="#63b8ff" d="M414.95,-331.25C400.21,-313.28 366.64,-272.36 347.43,-248.94"/>
<polygon fill="#63b8ff" stroke="#63b8ff" points="349.66,-247.14 340.61,-241.63 344.25,-251.58 349.66,-247.14"/>
</g>
<!-- Node3 -->
<g id="node3" class="node">
<title>Node3</title>
<g id="a_node3"><a xlink:title=" ">
<polygon fill="#e0e0e0" stroke="#999999" points="70.6,-74.5 17.85,-74.5 17.85,-55.25 70.6,-55.25 70.6,-74.5"/>
<text text-anchor="middle" x="44.23" y="-61" font-family="Helvetica,sans-Serif" font-size="10.00">complex</text>
</a>
</g>
</g>
<!-- Node2&#45;&gt;Node3 -->
<g id="edge2" class="edge">
<title>Node2&#45;&gt;Node3</title>
<path fill="none" stroke="#63b8ff" d="M307.51,-173.51C247.25,-170.97 99.31,-161.57 63.23,-129.75 50.76,-118.75 46.3,-99.96 44.79,-85.6"/>
<polygon fill="#63b8ff" stroke="#63b8ff" points="48.23,-85.61 44.1,-75.85 41.25,-86.05 48.23,-85.61"/>
</g>
<!-- Node4 -->
<g id="node4" class="node">
<title>Node4</title>
<g id="a_node4"><a xlink:title=" ">
<polygon fill="#e0e0e0" stroke="#999999" points="780.6,-74.5 721.85,-74.5 721.85,-55.25 780.6,-55.25 780.6,-74.5"/>
<text text-anchor="middle" x="751.23" y="-61" font-family="Helvetica,sans-Serif" font-size="10.00">stdexcept</text>
</a>
</g>
</g>
<!-- Node2&#45;&gt;Node4 -->
<g id="edge3" class="edge">
<title>Node2&#45;&gt;Node4</title>
<path fill="none" stroke="#63b8ff" d="M359.25,-171.29C373.43,-169.62 391.29,-167.54 407.23,-165.75 480.97,-157.45 684.76,-180.15 739.23,-129.75 751.14,-118.73 753.45,-99.95 753.2,-85.59"/>
<polygon fill="#63b8ff" stroke="#63b8ff" points="756.64,-85.61 752.53,-75.84 749.66,-86.04 756.64,-85.61"/>
</g>
<!-- Node5 -->
<g id="node5" class="node">
<title>Node5</title>
<g id="a_node5"><a xlink:title=" ">
<polygon fill="#e0e0e0" stroke="#999999" points="438.23,-74.5 398.23,-74.5 398.23,-55.25 438.23,-55.25 438.23,-74.5"/>
<text text-anchor="middle" x="418.23" y="-61" font-family="Helvetica,sans-Serif" font-size="10.00">string</text>
</a>
</g>
</g>
<!-- Node2&#45;&gt;Node5 -->
<g id="edge4" class="edge">
<title>Node2&#45;&gt;Node5</title>
<path fill="none" stroke="#63b8ff" d="M307.12,-170.68C263.99,-163.5 185.24,-145.23 213.23,-110.5 234.69,-83.87 334.98,-72.29 386.9,-68.02"/>
<polygon fill="#63b8ff" stroke="#63b8ff" points="387.1,-71.44 396.79,-67.17 386.55,-64.46 387.1,-71.44"/>
</g>
<!-- Node6 -->
<g id="node6" class="node">
<title>Node6</title>
<g id="a_node6"><a xlink:title=" ">
<polygon fill="#e0e0e0" stroke="#999999" points="632.73,-74.5 589.73,-74.5 589.73,-55.25 632.73,-55.25 632.73,-74.5"/>
<text text-anchor="middle" x="611.23" y="-61" font-family="Helvetica,sans-Serif" font-size="10.00">vector</text>
</a>
</g>
</g>
<!-- Node2&#45;&gt;Node6 -->
<g id="edge5" class="edge">
<title>Node2&#45;&gt;Node6</title>
<path fill="none" stroke="#63b8ff" d="M358.91,-171.25C419.51,-163.68 567.69,-143.92 585.23,-129.75 598.61,-118.93 605.17,-100.12 608.34,-85.71"/>
<polygon fill="#63b8ff" stroke="#63b8ff" points="611.95,-86.37 610.28,-75.9 605.07,-85.13 611.95,-86.37"/>
</g>
<!-- Node7 -->
<g id="node7" class="node">
<title>Node7</title>
<g id="a_node7"><a xlink:title=" ">
<polygon fill="#e0e0e0" stroke="#999999" points="268.23,-129.75 222.23,-129.75 222.23,-110.5 268.23,-110.5 268.23,-129.75"/>
<text text-anchor="middle" x="245.23" y="-116.25" font-family="Helvetica,sans-Serif" font-size="10.00">fftw3.h</text>
</a>
</g>
</g>
<!-- Node2&#45;&gt;Node7 -->
<g id="edge6" class="edge">
<title>Node2&#45;&gt;Node7</title>
<path fill="none" stroke="#63b8ff" d="M318.3,-165.34C304.9,-157.23 284.99,-145.18 269.33,-135.71"/>
<polygon fill="#63b8ff" stroke="#63b8ff" points="271.6,-132.39 261.23,-130.2 267.97,-138.37 271.6,-132.39"/>
</g>
<!-- Node8 -->
<g id="node8" class="node">
<title>Node8</title>
<g id="a_node8"><a xlink:href="globals_8h.html" target="_top" xlink:title="Type definitions and global constants.">
<polygon fill="white" stroke="#666666" points="127.73,-129.75 72.73,-129.75 72.73,-110.5 127.73,-110.5 127.73,-129.75"/>
<text text-anchor="middle" x="100.23" y="-116.25" font-family="Helvetica,sans-Serif" font-size="10.00">globals.h</text>
</a>
</g>
</g>
<!-- Node2&#45;&gt;Node8 -->
<g id="edge7" class="edge">
<title>Node2&#45;&gt;Node8</title>
<path fill="none" stroke="#63b8ff" d="M307.4,-168.47C266.4,-159.1 186.19,-140.77 138.49,-129.87"/>
<polygon fill="#63b8ff" stroke="#63b8ff" points="139.5,-126.28 128.97,-127.47 137.94,-133.11 139.5,-126.28"/>
</g>
<!-- Node9 -->
<g id="node9" class="node">
<title>Node9</title>
<g id="a_node9"><a xlink:title=" ">
<polygon fill="#e0e0e0" stroke="#999999" points="347.73,-129.75 286.73,-129.75 286.73,-110.5 347.73,-110.5 347.73,-129.75"/>
<text text-anchor="middle" x="317.23" y="-116.25" font-family="Helvetica,sans-Serif" font-size="10.00">matlabio.h</text>
</a>
</g>
</g>
<!-- Node2&#45;&gt;Node9 -->
<g id="edge10" class="edge">
<title>Node2&#45;&gt;Node9</title>
<path fill="none" stroke="#63b8ff" d="M330.59,-165.58C328.54,-158.76 325.62,-149.06 323.04,-140.45"/>
<polygon fill="#63b8ff" stroke="#63b8ff" points="326.16,-139.68 319.93,-131.11 319.45,-141.69 326.16,-139.68"/>
</g>
<!-- Node10 -->
<g id="node10" class="node">
<title>Node10</title>
<g id="a_node10"><a xlink:href="utils_8h.html" target="_top" xlink:title="Useful miscellaneous utility functions.">
<polygon fill="white" stroke="#666666" points="576.35,-129.75 534.1,-129.75 534.1,-110.5 576.35,-110.5 576.35,-129.75"/>
<text text-anchor="middle" x="555.23" y="-116.25" font-family="Helvetica,sans-Serif" font-size="10.00">utils.h</text>
</a>
</g>
</g>
<!-- Node2&#45;&gt;Node10 -->
<g id="edge11" class="edge">
<title>Node2&#45;&gt;Node10</title>
<path fill="none" stroke="#63b8ff" d="M359.11,-168.8C394.21,-161.15 459.08,-146.68 523.33,-130.15"/>
<polygon fill="#63b8ff" stroke="#63b8ff" points="523.83,-133.37 532.64,-127.48 522.08,-126.6 523.83,-133.37"/>
</g>
<!-- Node8&#45;&gt;Node3 -->
<g id="edge8" class="edge">
<title>Node8&#45;&gt;Node3</title>
<path fill="none" stroke="#63b8ff" d="M90.73,-110.09C82.72,-102.47 71.04,-91.37 61.4,-82.2"/>
<polygon fill="#63b8ff" stroke="#63b8ff" points="64.25,-80.13 54.59,-75.77 59.42,-85.2 64.25,-80.13"/>
</g>
<!-- Node8&#45;&gt;Node5 -->
<g id="edge9" class="edge">
<title>Node8&#45;&gt;Node5</title>
<path fill="none" stroke="#63b8ff" d="M128.21,-113.21C132.89,-112.27 137.69,-111.33 142.23,-110.5 230.78,-94.26 335.89,-78.13 387.09,-70.47"/>
<polygon fill="#63b8ff" stroke="#63b8ff" points="387.37,-73.82 396.75,-68.88 386.34,-66.89 387.37,-73.82"/>
</g>
<!-- Node10&#45;&gt;Node5 -->
<g id="edge14" class="edge">
<title>Node10&#45;&gt;Node5</title>
<path fill="none" stroke="#63b8ff" d="M533.82,-110.8C510.94,-101.91 474.46,-87.73 448.61,-77.68"/>
<polygon fill="#63b8ff" stroke="#63b8ff" points="450.18,-74.15 439.59,-73.79 447.64,-80.67 450.18,-74.15"/>
</g>
<!-- Node10&#45;&gt;Node6 -->
<g id="edge15" class="edge">
<title>Node10&#45;&gt;Node6</title>
<path fill="none" stroke="#63b8ff" d="M564.73,-110.09C572.74,-102.47 584.41,-91.37 594.06,-82.2"/>
<polygon fill="#63b8ff" stroke="#63b8ff" points="596.03,-85.2 600.87,-75.77 591.21,-80.13 596.03,-85.2"/>
</g>
<!-- Node11 -->
<g id="node11" class="node">
<title>Node11</title>
<g id="a_node11"><a xlink:title=" ">
<polygon fill="#e0e0e0" stroke="#999999" points="854.1,-74.5 798.35,-74.5 798.35,-55.25 854.1,-55.25 854.1,-74.5"/>
<text text-anchor="middle" x="826.23" y="-61" font-family="Helvetica,sans-Serif" font-size="10.00">algorithm</text>
</a>
</g>
</g>
<!-- Node10&#45;&gt;Node11 -->
<g id="edge12" class="edge">
<title>Node10&#45;&gt;Node11</title>
<path fill="none" stroke="#63b8ff" d="M576.58,-115.35C616.11,-108.31 703.57,-92.42 787.26,-74.85"/>
<polygon fill="#63b8ff" stroke="#63b8ff" points="787.91,-78.08 796.97,-72.59 786.47,-71.23 787.91,-78.08"/>
</g>
<!-- Node12 -->
<g id="node12" class="node">
<title>Node12</title>
<g id="a_node12"><a xlink:title=" ">
<polygon fill="#e0e0e0" stroke="#999999" points="571.23,-74.5 525.23,-74.5 525.23,-55.25 571.23,-55.25 571.23,-74.5"/>
<text text-anchor="middle" x="548.23" y="-61" font-family="Helvetica,sans-Serif" font-size="10.00">iterator</text>
</a>
</g>
</g>
<!-- Node10&#45;&gt;Node12 -->
<g id="edge13" class="edge">
<title>Node10&#45;&gt;Node12</title>
<path fill="none" stroke="#63b8ff" d="M554.07,-110.33C553.19,-103.59 551.93,-94.02 550.81,-85.49"/>
<polygon fill="#63b8ff" stroke="#63b8ff" points="554.18,-85.32 549.41,-75.86 547.24,-86.23 554.18,-85.32"/>
</g>
<!-- Node13&#45;&gt;Node2 -->
<g id="edge18" class="edge">
<title>Node13&#45;&gt;Node2</title>
<path fill="none" stroke="#63b8ff" d="M660.34,-275.9C670.12,-262.4 685.05,-236.77 671.23,-221 668.75,-218.17 456.97,-191.68 369.94,-180.9"/>
<polygon fill="#63b8ff" stroke="#63b8ff" points="370.6,-177.34 360.24,-179.58 369.74,-184.28 370.6,-177.34"/>
</g>
<!-- Node13&#45;&gt;Node3 -->
<g id="edge17" class="edge">
<title>Node13&#45;&gt;Node3</title>
<path fill="none" stroke="#63b8ff" d="M631.77,-285.18C529.15,-286.14 90.2,-284.32 10.23,-185 -13.94,-154.98 12.39,-108.61 30.36,-83.5"/>
<polygon fill="#63b8ff" stroke="#63b8ff" points="33.75,-85.81 36.94,-75.71 28.15,-81.62 33.75,-85.81"/>
</g>
<!-- Node14 -->
<g id="node14" class="node">
<title>Node14</title>
<g id="a_node14"><a xlink:title=" ">
<polygon fill="#e0e0e0" stroke="#999999" points="552.1,-240.25 466.35,-240.25 466.35,-221 552.1,-221 552.1,-240.25"/>
<text text-anchor="middle" x="509.23" y="-226.75" font-family="Helvetica,sans-Serif" font-size="10.00">arrays/eh_vec.h</text>
</a>
</g>
</g>
<!-- Node13&#45;&gt;Node14 -->
<g id="edge19" class="edge">
<title>Node13&#45;&gt;Node14</title>
<path fill="none" stroke="#63b8ff" d="M631.67,-276.9C608.54,-268.35 571.44,-254.63 544.13,-244.53"/>
<polygon fill="#63b8ff" stroke="#63b8ff" points="545.43,-240.91 534.83,-240.72 543,-247.47 545.43,-240.91"/>
</g>
<!-- Node15 -->
<g id="node15" class="node">
<title>Node15</title>
<g id="a_node15"><a xlink:title=" ">
<polygon fill="#e0e0e0" stroke="#999999" points="662.1,-240.25 570.35,-240.25 570.35,-221 662.1,-221 662.1,-240.25"/>
<text text-anchor="middle" x="616.23" y="-226.75" font-family="Helvetica,sans-Serif" font-size="10.00">arrays/tensor3d.h</text>
</a>
</g>
</g>
<!-- Node13&#45;&gt;Node15 -->
<g id="edge20" class="edge">
<title>Node13&#45;&gt;Node15</title>
<path fill="none" stroke="#63b8ff" d="M647.12,-276.08C642.12,-268.88 634.87,-258.46 628.66,-249.51"/>
<polygon fill="#63b8ff" stroke="#63b8ff" points="631.05,-247.82 622.47,-241.61 625.3,-251.82 631.05,-247.82"/>
</g>
<!-- Node16 -->
<g id="node16" class="node">
<title>Node16</title>
<g id="a_node16"><a xlink:href="cell__coordinate_8h.html" target="_top" xlink:title="Container for {ijk} or {IJK} grouped variables.">
<polygon fill="white" stroke="#666666" points="1041.98,-129.75 952.48,-129.75 952.48,-110.5 1041.98,-110.5 1041.98,-129.75"/>
<text text-anchor="middle" x="997.23" y="-116.25" font-family="Helvetica,sans-Serif" font-size="10.00">cell_coordinate.h</text>
</a>
</g>
</g>
<!-- Node13&#45;&gt;Node16 -->
<g id="edge21" class="edge">
<title>Node13&#45;&gt;Node16</title>
<path fill="none" stroke="#63b8ff" d="M674.7,-280.11C721.93,-268.96 837.23,-238.02 920.23,-185 942.25,-170.93 964.99,-151.33 979.99,-137.57"/>
<polygon fill="#63b8ff" stroke="#63b8ff" points="981.94,-140.6 986.87,-131.22 977.17,-135.48 981.94,-140.6"/>
</g>
<!-- Node18 -->
<g id="node18" class="node">
<title>Node18</title>
<g id="a_node18"><a xlink:href="dimensions_8h.html" target="_top" xlink:title="Defines a class that serves as an explicit converter between MATLAB pointers and array dimensions.">
<polygon fill="white" stroke="#666666" points="911.1,-185 837.35,-185 837.35,-165.75 911.1,-165.75 911.1,-185"/>
<text text-anchor="middle" x="874.23" y="-171.5" font-family="Helvetica,sans-Serif" font-size="10.00">dimensions.h</text>
</a>
</g>
</g>
<!-- Node13&#45;&gt;Node18 -->
<g id="edge24" class="edge">
<title>Node13&#45;&gt;Node18</title>
<path fill="none" stroke="#63b8ff" d="M674.6,-278.42C699.04,-270.7 739.97,-256.73 773.23,-240.25 802.15,-225.92 833.21,-205.43 853.14,-191.54"/>
<polygon fill="#63b8ff" stroke="#63b8ff" points="854.81,-193.94 860.97,-185.32 850.78,-188.22 854.81,-193.94"/>
</g>
<!-- Node19 -->
<g id="node19" class="node">
<title>Node19</title>
<g id="a_node19"><a xlink:href="mat__io_8h.html" target="_top" xlink:title="Includes MATLAB headers for I/O.">
<polygon fill="white" stroke="#666666" points="925.98,-74.5 872.48,-74.5 872.48,-55.25 925.98,-55.25 925.98,-74.5"/>
<text text-anchor="middle" x="899.23" y="-61" font-family="Helvetica,sans-Serif" font-size="10.00">mat_io.h</text>
</a>
</g>
</g>
<!-- Node13&#45;&gt;Node19 -->
<g id="edge36" class="edge">
<title>Node13&#45;&gt;Node19</title>
<path fill="none" stroke="#63b8ff" d="M674.77,-284.72C745.28,-282.89 969.41,-266.17 1051.23,-129.75 1055.63,-122.41 1056.36,-117.35 1051.23,-110.5 1044.24,-101.16 979.7,-84.59 937,-74.48"/>
<polygon fill="#63b8ff" stroke="#63b8ff" points="937.93,-70.87 927.4,-72 936.34,-77.69 937.93,-70.87"/>
</g>
<!-- Node23 -->
<g id="node23" class="node">
<title>Node23</title>
<g id="a_node23"><a xlink:href="input__flags_8h.html" target="_top" xlink:title="Organises enumerated constants, names, and classes for handling flag&#45;variables that are passed to TDM...">
<polygon fill="white" stroke="#666666" points="857.98,-129.75 786.48,-129.75 786.48,-110.5 857.98,-110.5 857.98,-129.75"/>
<text text-anchor="middle" x="822.23" y="-116.25" font-family="Helvetica,sans-Serif" font-size="10.00">input_flags.h</text>
</a>
</g>
</g>
<!-- Node13&#45;&gt;Node23 -->
<g id="edge29" class="edge">
<title>Node13&#45;&gt;Node23</title>
<path fill="none" stroke="#63b8ff" d="M662.32,-276.07C689.48,-249.75 770.37,-171.37 805.57,-137.27"/>
<polygon fill="#63b8ff" stroke="#63b8ff" points="807.35,-140.44 812.1,-130.97 802.48,-135.42 807.35,-140.44"/>
</g>
<!-- Node13&#45;&gt;Node24 -->
<g id="edge37" class="edge">
<title>Node13&#45;&gt;Node24</title>
<path fill="none" stroke="#63b8ff" d="M631.74,-281.3C584.72,-273.47 471.15,-254.58 398.43,-242.48"/>
<polygon fill="#63b8ff" stroke="#63b8ff" points="399.45,-238.93 389.01,-240.74 398.3,-245.84 399.45,-238.93"/>
</g>
<!-- Node16&#45;&gt;Node11 -->
<g id="edge23" class="edge">
<title>Node16&#45;&gt;Node11</title>
<path fill="none" stroke="#63b8ff" d="M968.22,-110.09C939.71,-101.21 896.04,-87.61 864.66,-77.84"/>
<polygon fill="#63b8ff" stroke="#63b8ff" points="866.11,-74.32 855.52,-74.69 864.03,-81 866.11,-74.32"/>
</g>
<!-- Node17 -->
<g id="node17" class="node">
<title>Node17</title>
<g id="a_node17"><a xlink:title=" ">
<polygon fill="#e0e0e0" stroke="#999999" points="1035.35,-74.5 951.1,-74.5 951.1,-55.25 1035.35,-55.25 1035.35,-74.5"/>
<text text-anchor="middle" x="993.23" y="-61" font-family="Helvetica,sans-Serif" font-size="10.00">spdlog/spdlog.h</text>
</a>
</g>
</g>
<!-- Node16&#45;&gt;Node17 -->
<g id="edge22" class="edge">
<title>Node16&#45;&gt;Node17</title>
<path fill="none" stroke="#63b8ff" d="M996.57,-110.33C996.07,-103.67 995.36,-94.24 994.72,-85.78"/>
<polygon fill="#63b8ff" stroke="#63b8ff" points="998.14,-85.57 993.9,-75.86 991.16,-86.09 998.14,-85.57"/>
</g>
<!-- Node18&#45;&gt;Node19 -->
<g id="edge25" class="edge">
<title>Node18&#45;&gt;Node19</title>
<path fill="none" stroke="#63b8ff" d="M881.36,-165.45C887.73,-156.87 896.58,-143.25 900.23,-129.75 904.13,-115.31 903.64,-98.35 902.31,-85.54"/>
<polygon fill="#63b8ff" stroke="#63b8ff" points="905.66,-85.2 900.88,-75.74 898.72,-86.11 905.66,-85.2"/>
</g>
<!-- Node20 -->
<g id="node20" class="node">
<title>Node20</title>
<g id="a_node20"><a xlink:title=" ">
<polygon fill="#e0e0e0" stroke="#999999" points="855.6,-19.25 814.85,-19.25 814.85,0 855.6,0 855.6,-19.25"/>
<text text-anchor="middle" x="835.23" y="-5.75" font-family="Helvetica,sans-Serif" font-size="10.00">mat.h</text>
</a>
</g>
</g>
<!-- Node19&#45;&gt;Node20 -->
<g id="edge26" class="edge">
<title>Node19&#45;&gt;Node20</title>
<path fill="none" stroke="#63b8ff" d="M888.37,-54.84C879.03,-47.07 865.34,-35.67 854.19,-26.4"/>
<polygon fill="#63b8ff" stroke="#63b8ff" points="856.85,-23.23 846.93,-19.52 852.37,-28.61 856.85,-23.23"/>
</g>
<!-- Node21 -->
<g id="node21" class="node">
<title>Node21</title>
<g id="a_node21"><a xlink:title=" ">
<polygon fill="#e0e0e0" stroke="#999999" points="924.85,-19.25 873.6,-19.25 873.6,0 924.85,0 924.85,-19.25"/>
<text text-anchor="middle" x="899.23" y="-5.75" font-family="Helvetica,sans-Serif" font-size="10.00">matrix.h</text>
</a>
</g>
</g>
<!-- Node19&#45;&gt;Node21 -->
<g id="edge27" class="edge">
<title>Node19&#45;&gt;Node21</title>
<path fill="none" stroke="#63b8ff" d="M899.23,-55.08C899.23,-48.42 899.23,-38.99 899.23,-30.53"/>
<polygon fill="#63b8ff" stroke="#63b8ff" points="902.73,-30.61 899.23,-20.61 895.73,-30.61 902.73,-30.61"/>
</g>
<!-- Node22 -->
<g id="node22" class="node">
<title>Node22</title>
<g id="a_node22"><a xlink:title=" ">
<polygon fill="#e0e0e0" stroke="#999999" points="985.73,-19.25 942.73,-19.25 942.73,0 985.73,0 985.73,-19.25"/>
<text text-anchor="middle" x="964.23" y="-5.75" font-family="Helvetica,sans-Serif" font-size="10.00">mex.h</text>
</a>
</g>
</g>
<!-- Node19&#45;&gt;Node22 -->
<g id="edge28" class="edge">
<title>Node19&#45;&gt;Node22</title>
<path fill="none" stroke="#63b8ff" d="M910.26,-54.84C919.74,-47.07 933.65,-35.67 944.97,-26.4"/>
<polygon fill="#63b8ff" stroke="#63b8ff" points="946.85,-28.57 952.37,-19.52 942.41,-23.15 946.85,-28.57"/>
</g>
<!-- Node23&#45;&gt;Node4 -->
<g id="edge31" class="edge">
<title>Node23&#45;&gt;Node4</title>
<path fill="none" stroke="#63b8ff" d="M810.19,-110.09C799.72,-102.24 784.33,-90.7 771.89,-81.37"/>
<polygon fill="#63b8ff" stroke="#63b8ff" points="774.2,-77.97 764.1,-74.77 770,-83.57 774.2,-77.97"/>
</g>
<!-- Node23&#45;&gt;Node5 -->
<g id="edge32" class="edge">
<title>Node23&#45;&gt;Node5</title>
<path fill="none" stroke="#63b8ff" d="M786.02,-114.35C707.52,-104.01 522.82,-79.66 449.25,-69.96"/>
<polygon fill="#63b8ff" stroke="#63b8ff" points="449.81,-66.38 439.44,-68.54 448.89,-73.32 449.81,-66.38"/>
</g>
<!-- Node23&#45;&gt;Node6 -->
<g id="edge33" class="edge">
<title>Node23&#45;&gt;Node6</title>
<path fill="none" stroke="#63b8ff" d="M786.44,-110.09C746.41,-99.99 682.16,-83.78 643.59,-74.04"/>
<polygon fill="#63b8ff" stroke="#63b8ff" points="644.52,-70.41 633.97,-71.36 642.81,-77.2 644.52,-70.41"/>
</g>
<!-- Node23&#45;&gt;Node11 -->
<g id="edge30" class="edge">
<title>Node23&#45;&gt;Node11</title>
<path fill="none" stroke="#63b8ff" d="M822.89,-110.33C823.39,-103.67 824.1,-94.24 824.73,-85.78"/>
<polygon fill="#63b8ff" stroke="#63b8ff" points="828.3,-86.09 825.55,-75.86 821.32,-85.57 828.3,-86.09"/>
</g>
<!-- Node23&#45;&gt;Node17 -->
<g id="edge34" class="edge">
<title>Node23&#45;&gt;Node17</title>
<path fill="none" stroke="#63b8ff" d="M851.24,-110.09C879.49,-101.29 922.63,-87.86 953.95,-78.11"/>
<polygon fill="#63b8ff" stroke="#63b8ff" points="954.57,-81.27 963.08,-74.95 952.49,-74.58 954.57,-81.27"/>
</g>
<!-- Node23&#45;&gt;Node19 -->
<g id="edge35" class="edge">
<title>Node23&#45;&gt;Node19</title>
<path fill="none" stroke="#63b8ff" d="M835.29,-110.09C846.8,-102.14 863.79,-90.39 877.36,-81"/>
<polygon fill="#63b8ff" stroke="#63b8ff" points="878.87,-83.52 885.1,-74.95 874.89,-77.76 878.87,-83.52"/>
</g>
<!-- Node24&#45;&gt;Node2 -->
<g id="edge39" class="edge">
<title>Node24&#45;&gt;Node2</title>
<path fill="none" stroke="#63b8ff" d="M333.23,-220.83C333.23,-214.17 333.23,-204.74 333.23,-196.28"/>
<polygon fill="#63b8ff" stroke="#63b8ff" points="336.73,-196.36 333.23,-186.36 329.73,-196.36 336.73,-196.36"/>
</g>
<!-- Node24&#45;&gt;Node5 -->
<g id="edge38" class="edge">
<title>Node24&#45;&gt;Node5</title>
<path fill="none" stroke="#63b8ff" d="M308.72,-220.56C261.69,-201.83 166.63,-156.74 204.23,-110.5 226.92,-82.58 333.37,-71.54 387.08,-67.69"/>
<polygon fill="#63b8ff" stroke="#63b8ff" points="387.25,-71.12 396.99,-66.96 386.78,-64.14 387.25,-71.12"/>
</g>
<!-- Node25 -->
<g id="node25" class="node">
<title>Node25</title>
<g id="a_node25"><a xlink:title=" ">
<polygon fill="#e0e0e0" stroke="#999999" points="143.23,-185 19.23,-185 19.23,-165.75 143.23,-165.75 143.23,-185"/>
<text text-anchor="middle" x="81.23" y="-171.5" font-family="Helvetica,sans-Serif" font-size="10.00">arrays/vector_typedefs.h</text>
</a>
</g>
</g>
<!-- Node24&#45;&gt;Node25 -->
<g id="edge40" class="edge">
<title>Node24&#45;&gt;Node25</title>
<path fill="none" stroke="#63b8ff" d="M290.2,-220.53C247.25,-211.46 181.15,-197.49 134.82,-187.7"/>
<polygon fill="#63b8ff" stroke="#63b8ff" points="135.59,-184.07 125.09,-185.43 134.15,-190.92 135.59,-184.07"/>
</g>
<!-- Node26 -->
<g id="node26" class="node">
<title>Node26</title>
<g id="a_node26"><a xlink:href="input__matrices_8h.html" target="_top" xlink:title="Class handling the input matrices that are read in from the input file.">
<polygon fill="white" stroke="#666666" points="504.23,-185 416.23,-185 416.23,-165.75 504.23,-165.75 504.23,-185"/>
<text text-anchor="middle" x="460.23" y="-171.5" font-family="Helvetica,sans-Serif" font-size="10.00">input_matrices.h</text>
</a>
</g>
</g>
<!-- Node24&#45;&gt;Node26 -->
<g id="edge41" class="edge">
<title>Node24&#45;&gt;Node26</title>
<path fill="none" stroke="#63b8ff" d="M354.77,-220.59C375.03,-212.1 405.58,-199.29 428.6,-189.64"/>
<polygon fill="#63b8ff" stroke="#63b8ff" points="429.71,-192.55 437.58,-185.45 427,-186.09 429.71,-192.55"/>
</g>
<!-- Node26&#45;&gt;Node5 -->
<g id="edge42" class="edge">
<title>Node26&#45;&gt;Node5</title>
<path fill="none" stroke="#63b8ff" d="M437.14,-165.33C422.23,-158.13 404.03,-146.46 395.23,-129.75 387.36,-114.81 395.5,-96.59 404.19,-83.44"/>
<polygon fill="#63b8ff" stroke="#63b8ff" points="407.37,-86.03 410.4,-75.88 401.7,-81.92 407.37,-86.03"/>
</g>
<!-- Node26&#45;&gt;Node19 -->
<g id="edge46" class="edge">
<title>Node26&#45;&gt;Node19</title>
<path fill="none" stroke="#63b8ff" d="M504.54,-174.73C597.58,-174.65 809.46,-169.94 867.23,-129.75 882.17,-119.35 890.5,-99.88 894.88,-85.16"/>
<polygon fill="#63b8ff" stroke="#63b8ff" points="898.49,-86.19 897.61,-75.64 891.71,-84.44 898.49,-86.19"/>
</g>
<!-- Node27 -->
<g id="node27" class="node">
<title>Node27</title>
<g id="a_node27"><a xlink:href="input__output__names_8h.html" target="_top" xlink:title="Constant values associated with the format of the input and output files and matrices.">
<polygon fill="white" stroke="#666666" points="516.23,-129.75 404.23,-129.75 404.23,-110.5 516.23,-110.5 516.23,-129.75"/>
<text text-anchor="middle" x="460.23" y="-116.25" font-family="Helvetica,sans-Serif" font-size="10.00">input_output_names.h</text>
</a>
</g>
</g>
<!-- Node26&#45;&gt;Node27 -->
<g id="edge43" class="edge">
<title>Node26&#45;&gt;Node27</title>
<path fill="none" stroke="#63b8ff" d="M460.23,-165.58C460.23,-158.92 460.23,-149.49 460.23,-141.03"/>
<polygon fill="#63b8ff" stroke="#63b8ff" points="463.73,-141.11 460.23,-131.11 456.73,-141.11 463.73,-141.11"/>
</g>
<!-- Node28 -->
<g id="node28" class="node">
<title>Node28</title>
<g id="a_node28"><a xlink:href="matrix__collection_8h.html" target="_top" xlink:title="A collection of named MATLAB matrices.">
<polygon fill="white" stroke="#666666" points="730.1,-129.75 632.35,-129.75 632.35,-110.5 730.1,-110.5 730.1,-129.75"/>
<text text-anchor="middle" x="681.23" y="-116.25" font-family="Helvetica,sans-Serif" font-size="10.00">matrix_collection.h</text>
</a>
</g>
</g>
<!-- Node26&#45;&gt;Node28 -->
<g id="edge47" class="edge">
<title>Node26&#45;&gt;Node28</title>
<path fill="none" stroke="#63b8ff" d="M497.97,-165.28C535.32,-156.28 592.62,-142.48 633.19,-132.7"/>
<polygon fill="#63b8ff" stroke="#63b8ff" points="633.74,-135.93 642.64,-130.18 632.1,-129.12 633.74,-135.93"/>
</g>
<!-- Node27&#45;&gt;Node5 -->
<g id="edge44" class="edge">
<title>Node27&#45;&gt;Node5</title>
<path fill="none" stroke="#63b8ff" d="M453.29,-110.33C447.55,-103.05 439.22,-92.48 432.11,-83.48"/>
<polygon fill="#63b8ff" stroke="#63b8ff" points="434.26,-81.54 425.32,-75.86 428.76,-85.88 434.26,-81.54"/>
</g>
<!-- Node27&#45;&gt;Node6 -->
<g id="edge45" class="edge">
<title>Node27&#45;&gt;Node6</title>
<path fill="none" stroke="#63b8ff" d="M485.84,-110.09C511.66,-100.99 551.56,-86.92 579.39,-77.1"/>
<polygon fill="#63b8ff" stroke="#63b8ff" points="580.15,-80.19 588.42,-73.57 577.82,-73.59 580.15,-80.19"/>
</g>
<!-- Node28&#45;&gt;Node5 -->
<g id="edge48" class="edge">
<title>Node28&#45;&gt;Node5</title>
<path fill="none" stroke="#63b8ff" d="M636.32,-110.03C582.92,-99.22 495.22,-81.46 448.98,-72.1"/>
<polygon fill="#63b8ff" stroke="#63b8ff" points="449.93,-68.52 439.43,-69.97 448.54,-75.38 449.93,-68.52"/>
</g>
<!-- Node28&#45;&gt;Node6 -->
<g id="edge49" class="edge">
<title>Node28&#45;&gt;Node6</title>
<path fill="none" stroke="#63b8ff" d="M669.35,-110.09C659.04,-102.24 643.86,-90.7 631.6,-81.37"/>
<polygon fill="#63b8ff" stroke="#63b8ff" points="634.01,-78.04 623.93,-74.77 629.77,-83.61 634.01,-78.04"/>
</g>
<!-- Node28&#45;&gt;Node19 -->
<g id="edge50" class="edge">
<title>Node28&#45;&gt;Node19</title>
<path fill="none" stroke="#63b8ff" d="M718.21,-110.09C758.16,-100.33 821.47,-84.87 861.65,-75.06"/>
<polygon fill="#63b8ff" stroke="#63b8ff" points="862.2,-78.28 871.08,-72.51 860.53,-71.48 862.2,-78.28"/>
</g>
</g>
</svg>
