<?xml version="1.0" encoding="UTF-8" standalone="no"?>
<!DOCTYPE svg PUBLIC "-//W3C//DTD SVG 1.1//EN"
 "http://www.w3.org/Graphics/SVG/1.1/DTD/svg11.dtd">
<!-- Generated by graphviz version 8.0.5 (20230430.1635)
 -->
<!-- Title: tdms/include/globals.h Pages: 1 -->
<svg width="123pt" height="83pt"
 viewBox="0.00 0.00 123.12 82.50" xmlns="http://www.w3.org/2000/svg" xmlns:xlink="http://www.w3.org/1999/xlink">
<g id="graph0" class="graph" transform="scale(1 1) rotate(0) translate(4 78.5)">
<title>tdms/include/globals.h</title>
<!-- Node1 -->
<g id="node1" class="node">
<title>Node1</title>
<g id="a_node1"><a xlink:title="Type definitions and global constants.">
<polygon fill="#999999" stroke="#666666" points="115.12,-74.5 1.62,-74.5 1.62,-55.25 115.12,-55.25 115.12,-74.5"/>
<text text-anchor="middle" x="58.38" y="-61" font-family="Helvetica,sans-Serif" font-size="10.00">tdms/include/globals.h</text>
</a>
</g>
</g>
<!-- Node2 -->
<g id="node2" class="node">
<title>Node2</title>
<g id="a_node2"><a xlink:title=" ">
<polygon fill="#e0e0e0" stroke="#999999" points="52.75,-19.25 0,-19.25 0,0 52.75,0 52.75,-19.25"/>
<text text-anchor="middle" x="26.38" y="-5.75" font-family="Helvetica,sans-Serif" font-size="10.00">complex</text>
</a>
</g>
</g>
<!-- Node1&#45;&gt;Node2 -->
<g id="edge1" class="edge">
<title>Node1&#45;&gt;Node2</title>
<path fill="none" stroke="#63b8ff" d="M53.09,-55.08C48.81,-47.96 42.63,-37.68 37.3,-28.8"/>
<polygon fill="#63b8ff" stroke="#63b8ff" points="39.92,-27.38 31.77,-20.61 33.92,-30.98 39.92,-27.38"/>
</g>
<!-- Node3 -->
<g id="node3" class="node">
<title>Node3</title>
<g id="a_node3"><a xlink:title=" ">
<polygon fill="#e0e0e0" stroke="#999999" points="110.38,-19.25 70.38,-19.25 70.38,0 110.38,0 110.38,-19.25"/>
<text text-anchor="middle" x="90.38" y="-5.75" font-family="Helvetica,sans-Serif" font-size="10.00">string</text>
</a>
</g>
</g>
<!-- Node1&#45;&gt;Node3 -->
<g id="edge2" class="edge">
<title>Node1&#45;&gt;Node3</title>
<path fill="none" stroke="#63b8ff" d="M63.66,-55.08C67.94,-47.96 74.12,-37.68 79.45,-28.8"/>
<polygon fill="#63b8ff" stroke="#63b8ff" points="82.83,-30.98 84.98,-20.61 76.83,-27.38 82.83,-30.98"/>
</g>
</g>
</svg>
