<?xml version="1.0" encoding="UTF-8" standalone="no"?>
<!DOCTYPE svg PUBLIC "-//W3C//DTD SVG 1.1//EN"
 "http://www.w3.org/Graphics/SVG/1.1/DTD/svg11.dtd">
<!-- Generated by graphviz version 8.0.4 (20230421.1958)
 -->
<!-- Title: tdms/include/globals.h Pages: 1 -->
<svg width="1240pt" height="349pt"
 viewBox="0.00 0.00 1240.25 348.50" xmlns="http://www.w3.org/2000/svg" xmlns:xlink="http://www.w3.org/1999/xlink">
<g id="graph0" class="graph" transform="scale(1 1) rotate(0) translate(4 344.5)">
<title>tdms/include/globals.h</title>
<!-- Node1 -->
<g id="node1" class="node">
<title>Node1</title>
<g id="a_node1"><a xlink:title="Type definitions and global constants.">
<polygon fill="#999999" stroke="#666666" points="718.25,-340.5 604.75,-340.5 604.75,-321.25 718.25,-321.25 718.25,-340.5"/>
<text text-anchor="middle" x="661.5" y="-327" font-family="Helvetica,sans-Serif" font-size="10.00">tdms/include/globals.h</text>
</a>
</g>
</g>
<!-- Node2 -->
<g id="node2" class="node">
<title>Node2</title>
<g id="a_node2"><a xlink:href="argument__parser_8h.html" target="_top" xlink:title="Parse the command line options.">
<polygon fill="white" stroke="#666666" points="229,-285.25 114,-285.25 114,-254.75 229,-254.75 229,-285.25"/>
<text text-anchor="start" x="122" y="-271.75" font-family="Helvetica,sans-Serif" font-size="10.00">tdms/include/argument</text>
<text text-anchor="middle" x="171.5" y="-260.5" font-family="Helvetica,sans-Serif" font-size="10.00">_parser.h</text>
</a>
</g>
</g>
<!-- Node1&#45;&gt;Node2 -->
<g id="edge1" class="edge">
<title>Node1&#45;&gt;Node2</title>
<path fill="none" stroke="#63b8ff" d="M593.49,-321.7C496.59,-310.06 320.48,-288.9 229.44,-277.96"/>
<polygon fill="#63b8ff" stroke="#63b8ff" points="592.99,-325.29 603.33,-323.01 593.82,-318.34 592.99,-325.29"/>
</g>
<!-- Node5 -->
<g id="node5" class="node">
<title>Node5</title>
<g id="a_node5"><a xlink:href="arrays_8h.html" target="_top" xlink:title="Classes describing arrays, vertices etc.">
<polygon fill="white" stroke="#666666" points="658.38,-279.62 548.62,-279.62 548.62,-260.38 658.38,-260.38 658.38,-279.62"/>
<text text-anchor="middle" x="603.5" y="-266.12" font-family="Helvetica,sans-Serif" font-size="10.00">tdms/include/arrays.h</text>
</a>
</g>
</g>
<!-- Node1&#45;&gt;Node5 -->
<g id="edge4" class="edge">
<title>Node1&#45;&gt;Node5</title>
<path fill="none" stroke="#63b8ff" d="M645.24,-313.37C634.6,-302.57 621.11,-288.87 612.39,-280.03"/>
<polygon fill="#63b8ff" stroke="#63b8ff" points="642.18,-315.27 651.69,-319.93 647.17,-310.35 642.18,-315.27"/>
</g>
<!-- Node6 -->
<g id="node6" class="node">
<title>Node6</title>
<g id="a_node6"><a xlink:href="field_8h.html" target="_top" xlink:title="Classes for the electric and magnetic (split) fields on a grid.">
<polygon fill="white" stroke="#666666" points="573.88,-152.25 473.12,-152.25 473.12,-133 573.88,-133 573.88,-152.25"/>
<text text-anchor="middle" x="523.5" y="-138.75" font-family="Helvetica,sans-Serif" font-size="10.00">tdms/include/field.h</text>
</a>
</g>
</g>
<!-- Node1&#45;&gt;Node6 -->
<g id="edge19" class="edge">
<title>Node1&#45;&gt;Node6</title>
<path fill="none" stroke="#63b8ff" d="M593.94,-319.36C573.49,-312.85 552.92,-302.31 539.5,-285.25 507.69,-244.79 517.01,-176.58 521.62,-152.43"/>
<polygon fill="#63b8ff" stroke="#63b8ff" points="592.68,-322.93 603.26,-322.33 594.61,-316.2 592.68,-322.93"/>
</g>
<!-- Node12 -->
<g id="node12" class="node">
<title>Node12</title>
<g id="a_node12"><a xlink:href="test___vertex_phasors_8cpp.html" target="_top" xlink:title="Unit tests for the VertexPhasors class.">
<polygon fill="white" stroke="#666666" points="730.75,-30.5 626.25,-30.5 626.25,0 730.75,0 730.75,-30.5"/>
<text text-anchor="start" x="634.25" y="-17" font-family="Helvetica,sans-Serif" font-size="10.00">tdms/tests/unit/test</text>
<text text-anchor="middle" x="678.5" y="-5.75" font-family="Helvetica,sans-Serif" font-size="10.00">_VertexPhasors.cpp</text>
</a>
</g>
</g>
<!-- Node1&#45;&gt;Node12 -->
<g id="edge24" class="edge">
<title>Node1&#45;&gt;Node12</title>
<path fill="none" stroke="#63b8ff" d="M675.52,-312.03C692.39,-288.7 718.5,-245.92 718.5,-204.5 718.5,-204.5 718.5,-204.5 718.5,-141.62 718.5,-99.81 698.06,-53.71 686.4,-30.82"/>
<polygon fill="#63b8ff" stroke="#63b8ff" points="672.16,-309.68 668.95,-319.77 677.75,-313.88 672.16,-309.68"/>
</g>
<!-- Node15 -->
<g id="node15" class="node">
<title>Node15</title>
<g id="a_node15"><a xlink:href="interpolation__methods_8h.html" target="_top" xlink:title="InterpScheme class methods and supporting functions.">
<polygon fill="white" stroke="#666666" points="950,-285.25 823,-285.25 823,-254.75 950,-254.75 950,-285.25"/>
<text text-anchor="start" x="831" y="-271.75" font-family="Helvetica,sans-Serif" font-size="10.00">tdms/include/interpolation</text>
<text text-anchor="middle" x="886.5" y="-260.5" font-family="Helvetica,sans-Serif" font-size="10.00">_methods.h</text>
</a>
</g>
</g>
<!-- Node1&#45;&gt;Node15 -->
<g id="edge20" class="edge">
<title>Node1&#45;&gt;Node15</title>
<path fill="none" stroke="#63b8ff" d="M706.73,-318.04C742.35,-308.72 792.18,-295.68 830.34,-285.69"/>
<polygon fill="#63b8ff" stroke="#63b8ff" points="705.95,-314.89 697.16,-320.8 707.72,-321.66 705.95,-314.89"/>
</g>
<!-- Node18 -->
<g id="node18" class="node">
<title>Node18</title>
<g id="a_node18"><a xlink:href="test__interpolation__functions_8cpp.html" target="_top" xlink:title="Tests the performance of the interpolation functions, using 1D data mimicing a coordinate axes.">
<polygon fill="white" stroke="#666666" points="1232.25,-218.75 1094.75,-218.75 1094.75,-188.25 1232.25,-188.25 1232.25,-218.75"/>
<text text-anchor="start" x="1102.75" y="-205.25" font-family="Helvetica,sans-Serif" font-size="10.00">tdms/tests/unit/test</text>
<text text-anchor="middle" x="1163.5" y="-194" font-family="Helvetica,sans-Serif" font-size="10.00">_interpolation_functions.cpp</text>
</a>
</g>
</g>
<!-- Node1&#45;&gt;Node18 -->
<g id="edge25" class="edge">
<title>Node1&#45;&gt;Node18</title>
<path fill="none" stroke="#63b8ff" d="M729.23,-324.18C790.23,-318 881.94,-306.11 959.5,-285.25 1022.95,-268.18 1093.52,-237.45 1132.8,-219.22"/>
<polygon fill="#63b8ff" stroke="#63b8ff" points="729.2,-320.76 719.59,-325.23 729.88,-327.73 729.2,-320.76"/>
</g>
<!-- Node3 -->
<g id="node3" class="node">
<title>Node3</title>
<g id="a_node3"><a xlink:href="main_8cpp.html" target="_top" xlink:title="The main function. Launches TDMS.">
<polygon fill="white" stroke="#666666" points="97,-213.12 0,-213.12 0,-193.88 97,-193.88 97,-213.12"/>
<text text-anchor="middle" x="48.5" y="-199.62" font-family="Helvetica,sans-Serif" font-size="10.00">tdms/src/main.cpp</text>
</a>
</g>
</g>
<!-- Node2&#45;&gt;Node3 -->
<g id="edge2" class="edge">
<title>Node2&#45;&gt;Node3</title>
<path fill="none" stroke="#63b8ff" d="M133.89,-249.28C111.15,-237.35 83.26,-222.73 65.68,-213.51"/>
<polygon fill="#63b8ff" stroke="#63b8ff" points="132.11,-252.82 142.59,-254.36 135.36,-246.62 132.11,-252.82"/>
</g>
<!-- Node4 -->
<g id="node4" class="node">
<title>Node4</title>
<g id="a_node4"><a xlink:href="test__argument__parser_8cpp.html" target="_top" xlink:title="Tests of the argument parsing and file I/O.">
<polygon fill="white" stroke="#666666" points="227.5,-218.75 115.5,-218.75 115.5,-188.25 227.5,-188.25 227.5,-218.75"/>
<text text-anchor="start" x="123.5" y="-205.25" font-family="Helvetica,sans-Serif" font-size="10.00">tdms/tests/unit/test</text>
<text text-anchor="middle" x="171.5" y="-194" font-family="Helvetica,sans-Serif" font-size="10.00">_argument_parser.cpp</text>
</a>
</g>
</g>
<!-- Node2&#45;&gt;Node4 -->
<g id="edge3" class="edge">
<title>Node2&#45;&gt;Node4</title>
<path fill="none" stroke="#63b8ff" d="M171.5,-243.63C171.5,-235.3 171.5,-226.33 171.5,-219.08"/>
<polygon fill="#63b8ff" stroke="#63b8ff" points="168,-243.36 171.5,-253.36 175,-243.36 168,-243.36"/>
</g>
<!-- Node5&#45;&gt;Node6 -->
<g id="edge5" class="edge">
<title>Node5&#45;&gt;Node6</title>
<path fill="none" stroke="#63b8ff" d="M591.86,-250.77C574.44,-223.46 542.24,-172.99 529.2,-152.56"/>
<polygon fill="#63b8ff" stroke="#63b8ff" points="589.42,-252.44 597.75,-258.98 595.32,-248.67 589.42,-252.44"/>
</g>
<!-- Node8 -->
<g id="node8" class="node">
<title>Node8</title>
<g id="a_node8"><a xlink:href="fieldsample_8h.html" target="_top" xlink:title="Class that stores the extracted field values at user&#45;defined vertices.">
<polygon fill="white" stroke="#666666" points="331.62,-91.38 199.38,-91.38 199.38,-72.12 331.62,-72.12 331.62,-91.38"/>
<text text-anchor="middle" x="265.5" y="-77.88" font-family="Helvetica,sans-Serif" font-size="10.00">tdms/include/fieldsample.h</text>
</a>
</g>
</g>
<!-- Node5&#45;&gt;Node8 -->
<g id="edge12" class="edge">
<title>Node5&#45;&gt;Node8</title>
<path fill="none" stroke="#63b8ff" d="M537.54,-268.62C482.33,-265.52 403.35,-254.41 344.5,-218.75 295.69,-189.18 273.92,-117.24 267.58,-91.83"/>
<polygon fill="#63b8ff" stroke="#63b8ff" points="537.09,-272.15 547.25,-269.13 537.43,-265.16 537.09,-272.15"/>
</g>
<!-- Node10 -->
<g id="node10" class="node">
<title>Node10</title>
<g id="a_node10"><a xlink:href="surface__phasors_8h.html" target="_top" xlink:title="Contains a class that handles the complex amplitude extraction.">
<polygon fill="white" stroke="#666666" points="570.88,-97 464.12,-97 464.12,-66.5 570.88,-66.5 570.88,-97"/>
<text text-anchor="start" x="472.12" y="-83.5" font-family="Helvetica,sans-Serif" font-size="10.00">tdms/include/surface</text>
<text text-anchor="middle" x="517.5" y="-72.25" font-family="Helvetica,sans-Serif" font-size="10.00">_phasors.h</text>
</a>
</g>
</g>
<!-- Node5&#45;&gt;Node10 -->
<g id="edge17" class="edge">
<title>Node5&#45;&gt;Node10</title>
<path fill="none" stroke="#63b8ff" d="M604.85,-249.29C605.83,-221.4 604.18,-169.75 582.5,-133 573.66,-118.01 558.48,-105.9 545.02,-97.32"/>
<polygon fill="#63b8ff" stroke="#63b8ff" points="601.32,-248.81 604.29,-258.98 608.31,-249.17 601.32,-248.81"/>
</g>
<!-- Node11 -->
<g id="node11" class="node">
<title>Node11</title>
<g id="a_node11"><a xlink:href="vertex__phasors_8h.html" target="_top" xlink:title="Contains a class that handles the complex amplitude extraction at the vertices.">
<polygon fill="white" stroke="#666666" points="690.25,-97 588.75,-97 588.75,-66.5 690.25,-66.5 690.25,-97"/>
<text text-anchor="start" x="596.75" y="-83.5" font-family="Helvetica,sans-Serif" font-size="10.00">tdms/include/vertex</text>
<text text-anchor="middle" x="639.5" y="-72.25" font-family="Helvetica,sans-Serif" font-size="10.00">_phasors.h</text>
</a>
</g>
</g>
<!-- Node5&#45;&gt;Node11 -->
<g id="edge18" class="edge">
<title>Node5&#45;&gt;Node11</title>
<path fill="none" stroke="#63b8ff" d="M608.4,-249.66C610.69,-240.35 613.37,-229 615.5,-218.75 624.61,-174.85 633.22,-122.52 637.19,-97.5"/>
<polygon fill="#63b8ff" stroke="#63b8ff" points="604.81,-248.59 605.79,-259.14 611.61,-250.29 604.81,-248.59"/>
</g>
<!-- Node13 -->
<g id="node13" class="node">
<title>Node13</title>
<g id="a_node13"><a xlink:href="simulation__parameters_8h.html" target="_top" xlink:title="Classes collecting parameters for the simulation.">
<polygon fill="white" stroke="#666666" points="471.88,-218.75 353.12,-218.75 353.12,-188.25 471.88,-188.25 471.88,-218.75"/>
<text text-anchor="start" x="361.12" y="-205.25" font-family="Helvetica,sans-Serif" font-size="10.00">tdms/include/simulation</text>
<text text-anchor="middle" x="412.5" y="-194" font-family="Helvetica,sans-Serif" font-size="10.00">_parameters.h</text>
</a>
</g>
</g>
<!-- Node5&#45;&gt;Node13 -->
<g id="edge13" class="edge">
<title>Node5&#45;&gt;Node13</title>
<path fill="none" stroke="#63b8ff" d="M566.38,-256.46C534.73,-245.78 489.2,-230.4 455.88,-219.15"/>
<polygon fill="#63b8ff" stroke="#63b8ff" points="564.95,-260.01 575.54,-259.9 567.18,-253.38 564.95,-260.01"/>
</g>
<!-- Node7 -->
<g id="node7" class="node">
<title>Node7</title>
<g id="a_node7"><a xlink:href="array__init_8h.html" target="_top" xlink:title="A collection of functions for array initialisation given MATLAB pointers.">
<polygon fill="white" stroke="#666666" points="445.62,-97 349.38,-97 349.38,-66.5 445.62,-66.5 445.62,-97"/>
<text text-anchor="start" x="357.38" y="-83.5" font-family="Helvetica,sans-Serif" font-size="10.00">tdms/include/array</text>
<text text-anchor="middle" x="397.5" y="-72.25" font-family="Helvetica,sans-Serif" font-size="10.00">_init.h</text>
</a>
</g>
</g>
<!-- Node6&#45;&gt;Node7 -->
<g id="edge6" class="edge">
<title>Node6&#45;&gt;Node7</title>
<path fill="none" stroke="#63b8ff" d="M494.21,-127.94C474.65,-118.8 448.94,-106.79 428.95,-97.44"/>
<polygon fill="#63b8ff" stroke="#63b8ff" points="492.55,-131.49 503.09,-132.55 495.51,-125.15 492.55,-131.49"/>
</g>
<!-- Node6&#45;&gt;Node8 -->
<g id="edge7" class="edge">
<title>Node6&#45;&gt;Node8</title>
<path fill="none" stroke="#63b8ff" d="M473.06,-130.11C423.98,-118.91 350.39,-102.12 305.29,-91.83"/>
<polygon fill="#63b8ff" stroke="#63b8ff" points="472.22,-133.74 482.75,-132.55 473.78,-126.92 472.22,-133.74"/>
</g>
<!-- Node6&#45;&gt;Node10 -->
<g id="edge9" class="edge">
<title>Node6&#45;&gt;Node10</title>
<path fill="none" stroke="#63b8ff" d="M521.5,-121.98C520.68,-113.91 519.74,-104.73 518.98,-97.28"/>
<polygon fill="#63b8ff" stroke="#63b8ff" points="518.09,-122.09 522.59,-131.68 525.06,-121.38 518.09,-122.09"/>
</g>
<!-- Node6&#45;&gt;Node11 -->
<g id="edge10" class="edge">
<title>Node6&#45;&gt;Node11</title>
<path fill="none" stroke="#63b8ff" d="M550.97,-127.68C568.91,-118.58 592.31,-106.7 610.55,-97.44"/>
<polygon fill="#63b8ff" stroke="#63b8ff" points="549.7,-124.91 542.37,-132.55 552.87,-131.15 549.7,-124.91"/>
</g>
<!-- Node9 -->
<g id="node9" class="node">
<title>Node9</title>
<g id="a_node9"><a xlink:href="test___field_sample_8cpp.html" target="_top" xlink:title="Unit tests for the FieldSample class and its subclasses.">
<polygon fill="white" stroke="#666666" points="315.88,-30.5 215.12,-30.5 215.12,0 315.88,0 315.88,-30.5"/>
<text text-anchor="start" x="223.12" y="-17" font-family="Helvetica,sans-Serif" font-size="10.00">tdms/tests/unit/test</text>
<text text-anchor="middle" x="265.5" y="-5.75" font-family="Helvetica,sans-Serif" font-size="10.00">_FieldSample.cpp</text>
</a>
</g>
</g>
<!-- Node8&#45;&gt;Node9 -->
<g id="edge8" class="edge">
<title>Node8&#45;&gt;Node9</title>
<path fill="none" stroke="#63b8ff" d="M265.5,-61.02C265.5,-51.2 265.5,-39.55 265.5,-30.59"/>
<polygon fill="#63b8ff" stroke="#63b8ff" points="262,-60.78 265.5,-70.78 269,-60.78 262,-60.78"/>
</g>
<!-- Node11&#45;&gt;Node12 -->
<g id="edge11" class="edge">
<title>Node11&#45;&gt;Node12</title>
<path fill="none" stroke="#63b8ff" d="M653.99,-56.79C659.26,-48.07 665.05,-38.49 669.69,-30.83"/>
<polygon fill="#63b8ff" stroke="#63b8ff" points="650.53,-54.75 648.35,-65.11 656.52,-58.37 650.53,-54.75"/>
</g>
<!-- Node13&#45;&gt;Node6 -->
<g id="edge14" class="edge">
<title>Node13&#45;&gt;Node6</title>
<path fill="none" stroke="#63b8ff" d="M449.9,-182.66C469.06,-172.5 491.47,-160.62 506.48,-152.65"/>
<polygon fill="#63b8ff" stroke="#63b8ff" points="448.42,-180.02 441.22,-187.8 451.7,-186.2 448.42,-180.02"/>
</g>
<!-- Node13&#45;&gt;Node8 -->
<g id="edge15" class="edge">
<title>Node13&#45;&gt;Node8</title>
<path fill="none" stroke="#63b8ff" d="M362.35,-183.42C345.35,-175.44 327.02,-165.01 312.5,-152.25 292.15,-134.37 276.56,-105.78 269.56,-91.49"/>
<polygon fill="#63b8ff" stroke="#63b8ff" points="360.6,-186.93 371.16,-187.84 363.48,-180.54 360.6,-186.93"/>
</g>
<!-- Node14 -->
<g id="node14" class="node">
<title>Node14</title>
<g id="a_node14"><a xlink:href="mesh__base_8h.html" target="_top" xlink:title="Generation of orientated mesh.">
<polygon fill="white" stroke="#666666" points="455,-152.25 322,-152.25 322,-133 455,-133 455,-152.25"/>
<text text-anchor="middle" x="388.5" y="-138.75" font-family="Helvetica,sans-Serif" font-size="10.00">tdms/include/mesh_base.h</text>
</a>
</g>
</g>
<!-- Node13&#45;&gt;Node14 -->
<g id="edge16" class="edge">
<title>Node13&#45;&gt;Node14</title>
<path fill="none" stroke="#63b8ff" d="M402.49,-177.94C398.85,-169.01 394.95,-159.45 392.2,-152.7"/>
<polygon fill="#63b8ff" stroke="#63b8ff" points="399.55,-179.01 406.57,-186.95 406.03,-176.37 399.55,-179.01"/>
</g>
<!-- Node16 -->
<g id="node16" class="node">
<title>Node16</title>
<g id="a_node16"><a xlink:href="test___b_li__vs__cubic__interpolation_8cpp.html" target="_top" xlink:title="Tests the performance of band&#45;limited interpolation against cubic interpolation.">
<polygon fill="white" stroke="#666666" points="902.62,-218.75 746.38,-218.75 746.38,-188.25 902.62,-188.25 902.62,-218.75"/>
<text text-anchor="start" x="754.38" y="-205.25" font-family="Helvetica,sans-Serif" font-size="10.00">tdms/tests/unit/test</text>
<text text-anchor="middle" x="824.5" y="-194" font-family="Helvetica,sans-Serif" font-size="10.00">_BLi_vs_cubic_interpolation.cpp</text>
</a>
</g>
</g>
<!-- Node15&#45;&gt;Node16 -->
<g id="edge21" class="edge">
<title>Node15&#45;&gt;Node16</title>
<path fill="none" stroke="#63b8ff" d="M864.81,-246.44C856.08,-237.36 846.27,-227.15 838.51,-219.08"/>
<polygon fill="#63b8ff" stroke="#63b8ff" points="861.98,-248.58 871.43,-253.36 867.02,-243.73 861.98,-248.58"/>
</g>
<!-- Node17 -->
<g id="node17" class="node">
<title>Node17</title>
<g id="a_node17"><a xlink:href="test__interpolation__determination_8cpp.html" target="_top" xlink:title="Tests the logic that determines which interpolation schemes are appropriate.">
<polygon fill="white" stroke="#666666" points="1076.62,-218.75 920.38,-218.75 920.38,-188.25 1076.62,-188.25 1076.62,-218.75"/>
<text text-anchor="start" x="928.38" y="-205.25" font-family="Helvetica,sans-Serif" font-size="10.00">tdms/tests/unit/test</text>
<text text-anchor="middle" x="998.5" y="-194" font-family="Helvetica,sans-Serif" font-size="10.00">_interpolation_determination.cpp</text>
</a>
</g>
</g>
<!-- Node15&#45;&gt;Node17 -->
<g id="edge22" class="edge">
<title>Node15&#45;&gt;Node17</title>
<path fill="none" stroke="#63b8ff" d="M921.39,-248.91C938.16,-239.25 957.88,-227.89 973.19,-219.08"/>
<polygon fill="#63b8ff" stroke="#63b8ff" points="919.83,-246.34 912.91,-254.36 923.33,-252.41 919.83,-246.34"/>
</g>
<!-- Node15&#45;&gt;Node18 -->
<g id="edge23" class="edge">
<title>Node15&#45;&gt;Node18</title>
<path fill="none" stroke="#63b8ff" d="M960.28,-251.82C1004.03,-241.63 1058.88,-228.86 1100.57,-219.15"/>
<polygon fill="#63b8ff" stroke="#63b8ff" points="959.65,-248.61 950.7,-254.28 961.24,-255.42 959.65,-248.61"/>
</g>
</g>
</svg>
