<?xml version="1.0" encoding="UTF-8" standalone="no"?>
<!DOCTYPE svg PUBLIC "-//W3C//DTD SVG 1.1//EN"
 "http://www.w3.org/Graphics/SVG/1.1/DTD/svg11.dtd">
<!-- Generated by graphviz version 9.0.0 (20230911.1827)
 -->
<!-- Title: tdms/include/globals.h Pages: 1 -->
<svg width="123pt" height="83pt"
 viewBox="0.00 0.00 123.12 82.50" xmlns="http://www.w3.org/2000/svg" xmlns:xlink="http://www.w3.org/1999/xlink">
<g id="graph0" class="graph" transform="scale(1 1) rotate(0) translate(4 78.5)">
<title>tdms/include/globals.h</title>
<!-- Node1 -->
<g id="Node000001" class="node">
<title>Node1</title>
<g id="a_Node000001"><a xlink:title="Type definitions and global constants.">
<polygon fill="#999999" stroke="#666666" points="115.12,-74.5 1.62,-74.5 1.62,-55.25 115.12,-55.25 115.12,-74.5"/>
<text text-anchor="middle" x="58.38" y="-61" font-family="Helvetica,sans-Serif" font-size="10.00">tdms/include/globals.h</text>
</a>
</g>
</g>
<!-- Node2 -->
<g id="Node000002" class="node">
<title>Node2</title>
<g id="a_Node000002"><a xlink:title=" ">
<polygon fill="#e0e0e0" stroke="#999999" points="52.75,-19.25 0,-19.25 0,0 52.75,0 52.75,-19.25"/>
<text text-anchor="middle" x="26.38" y="-5.75" font-family="Helvetica,sans-Serif" font-size="10.00">complex</text>
</a>
</g>
</g>
<!-- Node1&#45;&gt;Node2 -->
<g id="edge1_Node000001_Node000002" class="edge">
<title>Node1&#45;&gt;Node2</title>
<g id="a_edge1_Node000001_Node000002"><a xlink:title=" ">
<path fill="none" stroke="#63b8ff" d="M53.09,-55.08C48.9,-48.11 42.9,-38.12 37.64,-29.37"/>
<polygon fill="#63b8ff" stroke="#63b8ff" points="40.7,-27.68 32.55,-20.91 34.7,-31.28 40.7,-27.68"/>
</a>
</g>
</g>
<!-- Node3 -->
<g id="Node000003" class="node">
<title>Node3</title>
<g id="a_Node000003"><a xlink:title=" ">
<polygon fill="#e0e0e0" stroke="#999999" points="110.38,-19.25 70.38,-19.25 70.38,0 110.38,0 110.38,-19.25"/>
<text text-anchor="middle" x="90.38" y="-5.75" font-family="Helvetica,sans-Serif" font-size="10.00">string</text>
</a>
</g>
</g>
<!-- Node1&#45;&gt;Node3 -->
<g id="edge2_Node000001_Node000003" class="edge">
<title>Node1&#45;&gt;Node3</title>
<g id="a_edge2_Node000001_Node000003"><a xlink:title=" ">
<path fill="none" stroke="#63b8ff" d="M63.66,-55.08C67.85,-48.11 73.85,-38.12 79.11,-29.37"/>
<polygon fill="#63b8ff" stroke="#63b8ff" points="82.05,-31.28 84.2,-20.91 76.05,-27.68 82.05,-31.28"/>
</a>
</g>
</g>
</g>
</svg>
