<?xml version="1.0" encoding="UTF-8" standalone="no"?>
<!DOCTYPE svg PUBLIC "-//W3C//DTD SVG 1.1//EN"
 "http://www.w3.org/Graphics/SVG/1.1/DTD/svg11.dtd">
<!-- Generated by graphviz version 8.0.2 (20230410.1723)
 -->
<!-- Title: tdms/include/globals.h Pages: 1 -->
<svg width="1248pt" height="346pt"
 viewBox="0.00 0.00 1248.00 346.00" xmlns="http://www.w3.org/2000/svg" xmlns:xlink="http://www.w3.org/1999/xlink">
<g id="graph0" class="graph" transform="scale(1 1) rotate(0) translate(4 342)">
<title>tdms/include/globals.h</title>
<!-- Node1 -->
<g id="node1" class="node">
<title>Node1</title>
<g id="a_node1"><a xlink:title="Type definitions and global constants.">
<polygon fill="#999999" stroke="#666666" points="723,-338 609,-338 609,-319 723,-319 723,-338"/>
<text text-anchor="middle" x="666" y="-326" font-family="Helvetica,sans-Serif" font-size="10.00">tdms/include/globals.h</text>
</a>
</g>
</g>
<!-- Node2 -->
<g id="node2" class="node">
<title>Node2</title>
<g id="a_node2"><a xlink:href="argument__parser_8h.html" target="_top" xlink:title="Parse the command line options.">
<polygon fill="white" stroke="#666666" points="231,-283 115,-283 115,-253 231,-253 231,-283"/>
<text text-anchor="start" x="123" y="-271" font-family="Helvetica,sans-Serif" font-size="10.00">tdms/include/argument</text>
<text text-anchor="middle" x="173" y="-260" font-family="Helvetica,sans-Serif" font-size="10.00">_parser.h</text>
</a>
</g>
</g>
<!-- Node1&#45;&gt;Node2 -->
<g id="edge1" class="edge">
<title>Node1&#45;&gt;Node2</title>
<path fill="none" stroke="#63b8ff" d="M598.08,-319.44C500.74,-307.89 323.22,-286.82 231.43,-275.93"/>
<polygon fill="#63b8ff" stroke="#63b8ff" points="597.62,-323.03 607.97,-320.73 598.45,-316.08 597.62,-323.03"/>
</g>
<!-- Node5 -->
<g id="node5" class="node">
<title>Node5</title>
<g id="a_node5"><a xlink:href="arrays_8h.html" target="_top" xlink:title="Classes describing arrays, vertices etc.">
<polygon fill="white" stroke="#666666" points="663,-277.5 553,-277.5 553,-258.5 663,-258.5 663,-277.5"/>
<text text-anchor="middle" x="608" y="-265.5" font-family="Helvetica,sans-Serif" font-size="10.00">tdms/include/arrays.h</text>
</a>
</g>
</g>
<!-- Node1&#45;&gt;Node5 -->
<g id="edge4" class="edge">
<title>Node1&#45;&gt;Node5</title>
<path fill="none" stroke="#63b8ff" d="M649.91,-311.27C639.12,-300.39 625.35,-286.49 616.59,-277.67"/>
<polygon fill="#63b8ff" stroke="#63b8ff" points="646.92,-313.23 656.44,-317.87 651.89,-308.3 646.92,-313.23"/>
</g>
<!-- Node6 -->
<g id="node6" class="node">
<title>Node6</title>
<g id="a_node6"><a xlink:href="field_8h.html" target="_top" xlink:title="Classes for the electric and magnetic (split) fields on a grid.">
<polygon fill="white" stroke="#666666" points="577.5,-151 476.5,-151 476.5,-132 577.5,-132 577.5,-151"/>
<text text-anchor="middle" x="527" y="-139" font-family="Helvetica,sans-Serif" font-size="10.00">tdms/include/field.h</text>
</a>
</g>
</g>
<!-- Node1&#45;&gt;Node6 -->
<g id="edge19" class="edge">
<title>Node1&#45;&gt;Node6</title>
<path fill="none" stroke="#63b8ff" d="M597.97,-316.82C577.71,-310.31 557.37,-299.84 544,-283 512.23,-242.96 520.87,-175.23 525.22,-151.24"/>
<polygon fill="#63b8ff" stroke="#63b8ff" points="596.94,-320.46 607.52,-319.88 598.89,-313.73 596.94,-320.46"/>
</g>
<!-- Node12 -->
<g id="node12" class="node">
<title>Node12</title>
<g id="a_node12"><a xlink:href="test___vertex_phasors_8cpp.html" target="_top" xlink:title="Unit tests for the VertexPhasors class.">
<polygon fill="white" stroke="#666666" points="735.5,-30 630.5,-30 630.5,0 735.5,0 735.5,-30"/>
<text text-anchor="start" x="638.5" y="-18" font-family="Helvetica,sans-Serif" font-size="10.00">tdms/tests/unit/test</text>
<text text-anchor="middle" x="683" y="-7" font-family="Helvetica,sans-Serif" font-size="10.00">_VertexPhasors.cpp</text>
</a>
</g>
</g>
<!-- Node1&#45;&gt;Node12 -->
<g id="edge24" class="edge">
<title>Node1&#45;&gt;Node12</title>
<path fill="none" stroke="#63b8ff" d="M679.76,-310.14C696.63,-287.08 723,-244.39 723,-203 723,-203 723,-203 723,-140.5 723,-98.95 702.56,-53.19 690.9,-30.46"/>
<polygon fill="#63b8ff" stroke="#63b8ff" points="676.47,-307.69 673.22,-317.77 682.05,-311.92 676.47,-307.69"/>
</g>
<!-- Node15 -->
<g id="node15" class="node">
<title>Node15</title>
<g id="a_node15"><a xlink:href="interpolation__methods_8h.html" target="_top" xlink:title="InterpScheme class methods and supporting functions.">
<polygon fill="white" stroke="#666666" points="956,-283 828,-283 828,-253 956,-253 956,-283"/>
<text text-anchor="start" x="836" y="-271" font-family="Helvetica,sans-Serif" font-size="10.00">tdms/include/interpolation</text>
<text text-anchor="middle" x="892" y="-260" font-family="Helvetica,sans-Serif" font-size="10.00">_methods.h</text>
</a>
</g>
</g>
<!-- Node1&#45;&gt;Node15 -->
<g id="edge20" class="edge">
<title>Node1&#45;&gt;Node15</title>
<path fill="none" stroke="#63b8ff" d="M710.53,-315.97C746.55,-306.65 797.48,-293.47 836.22,-283.44"/>
<polygon fill="#63b8ff" stroke="#63b8ff" points="710.13,-312.72 701.32,-318.62 711.88,-319.5 710.13,-312.72"/>
</g>
<!-- Node18 -->
<g id="node18" class="node">
<title>Node18</title>
<g id="a_node18"><a xlink:href="test__interpolation__functions_8cpp.html" target="_top" xlink:title="Tests the performance of the interpolation functions, using 1D data mimicing a coordinate axes.">
<polygon fill="white" stroke="#666666" points="1240,-217 1102,-217 1102,-187 1240,-187 1240,-217"/>
<text text-anchor="start" x="1110" y="-205" font-family="Helvetica,sans-Serif" font-size="10.00">tdms/tests/unit/test</text>
<text text-anchor="middle" x="1171" y="-194" font-family="Helvetica,sans-Serif" font-size="10.00">_interpolation_functions.cpp</text>
</a>
</g>
</g>
<!-- Node1&#45;&gt;Node18 -->
<g id="edge25" class="edge">
<title>Node1&#45;&gt;Node18</title>
<path fill="none" stroke="#63b8ff" d="M733.93,-321.74C795.1,-315.53 887.11,-303.64 965,-283 1029.16,-266 1100.68,-235.44 1140.31,-217.41"/>
<polygon fill="#63b8ff" stroke="#63b8ff" points="733.86,-318.33 724.25,-322.8 734.55,-325.3 733.86,-318.33"/>
</g>
<!-- Node3 -->
<g id="node3" class="node">
<title>Node3</title>
<g id="a_node3"><a xlink:href="main_8cpp.html" target="_top" xlink:title="The main function. Launches TDMS.">
<polygon fill="white" stroke="#666666" points="98,-211.5 0,-211.5 0,-192.5 98,-192.5 98,-211.5"/>
<text text-anchor="middle" x="49" y="-199.5" font-family="Helvetica,sans-Serif" font-size="10.00">tdms/src/main.cpp</text>
</a>
</g>
</g>
<!-- Node2&#45;&gt;Node3 -->
<g id="edge2" class="edge">
<title>Node2&#45;&gt;Node3</title>
<path fill="none" stroke="#63b8ff" d="M135.7,-247.75C112.71,-235.88 84.3,-221.22 66.41,-211.99"/>
<polygon fill="#63b8ff" stroke="#63b8ff" points="133.68,-251.16 144.17,-252.64 136.89,-244.94 133.68,-251.16"/>
</g>
<!-- Node4 -->
<g id="node4" class="node">
<title>Node4</title>
<g id="a_node4"><a xlink:href="test__argument__parser_8cpp.html" target="_top" xlink:title="Tests of the argument parsing and file I/O.">
<polygon fill="white" stroke="#666666" points="229.5,-217 116.5,-217 116.5,-187 229.5,-187 229.5,-217"/>
<text text-anchor="start" x="124.5" y="-205" font-family="Helvetica,sans-Serif" font-size="10.00">tdms/tests/unit/test</text>
<text text-anchor="middle" x="173" y="-194" font-family="Helvetica,sans-Serif" font-size="10.00">_argument_parser.cpp</text>
</a>
</g>
</g>
<!-- Node2&#45;&gt;Node4 -->
<g id="edge3" class="edge">
<title>Node2&#45;&gt;Node4</title>
<path fill="none" stroke="#63b8ff" d="M173,-241.97C173,-233.55 173,-224.45 173,-217.16"/>
<polygon fill="#63b8ff" stroke="#63b8ff" points="169.5,-241.8 173,-251.8 176.5,-241.8 169.5,-241.8"/>
</g>
<!-- Node5&#45;&gt;Node6 -->
<g id="edge5" class="edge">
<title>Node5&#45;&gt;Node6</title>
<path fill="none" stroke="#63b8ff" d="M596.22,-248.89C578.58,-221.78 545.97,-171.66 532.77,-151.37"/>
<polygon fill="#63b8ff" stroke="#63b8ff" points="593.79,-250.57 602.17,-257.05 599.65,-246.76 593.79,-250.57"/>
</g>
<!-- Node8 -->
<g id="node8" class="node">
<title>Node8</title>
<g id="a_node8"><a xlink:href="fieldsample_8h.html" target="_top" xlink:title="Class that stores the extracted field values at user&#45;defined vertices.">
<polygon fill="white" stroke="#666666" points="334.5,-90.5 201.5,-90.5 201.5,-71.5 334.5,-71.5 334.5,-90.5"/>
<text text-anchor="middle" x="268" y="-78.5" font-family="Helvetica,sans-Serif" font-size="10.00">tdms/include/fieldsample.h</text>
</a>
</g>
</g>
<!-- Node5&#45;&gt;Node8 -->
<g id="edge12" class="edge">
<title>Node5&#45;&gt;Node8</title>
<path fill="none" stroke="#63b8ff" d="M541.76,-266.97C485.86,-264.14 405.64,-253.24 346,-217 297.42,-187.48 276.06,-115.55 269.94,-90.65"/>
<polygon fill="#63b8ff" stroke="#63b8ff" points="541.46,-270.51 551.6,-267.44 541.76,-263.51 541.46,-270.51"/>
</g>
<!-- Node10 -->
<g id="node10" class="node">
<title>Node10</title>
<g id="a_node10"><a xlink:href="surface__phasors_8h.html" target="_top" xlink:title="Contains a class that handles the complex amplitude extraction.">
<polygon fill="white" stroke="#666666" points="574.5,-96 467.5,-96 467.5,-66 574.5,-66 574.5,-96"/>
<text text-anchor="start" x="475.5" y="-84" font-family="Helvetica,sans-Serif" font-size="10.00">tdms/include/surface</text>
<text text-anchor="middle" x="521" y="-73" font-family="Helvetica,sans-Serif" font-size="10.00">_phasors.h</text>
</a>
</g>
</g>
<!-- Node5&#45;&gt;Node10 -->
<g id="edge17" class="edge">
<title>Node5&#45;&gt;Node10</title>
<path fill="none" stroke="#63b8ff" d="M609.15,-247.41C609.86,-219.71 607.74,-168.41 586,-132 577.09,-117.09 561.92,-105.03 548.46,-96.5"/>
<polygon fill="#63b8ff" stroke="#63b8ff" points="605.62,-246.9 608.7,-257.04 612.62,-247.19 605.62,-246.9"/>
</g>
<!-- Node11 -->
<g id="node11" class="node">
<title>Node11</title>
<g id="a_node11"><a xlink:href="vertex__phasors_8h.html" target="_top" xlink:title="Contains a class that handles the complex amplitude extraction at the vertices.">
<polygon fill="white" stroke="#666666" points="695,-96 593,-96 593,-66 695,-66 695,-96"/>
<text text-anchor="start" x="601" y="-84" font-family="Helvetica,sans-Serif" font-size="10.00">tdms/include/vertex</text>
<text text-anchor="middle" x="644" y="-73" font-family="Helvetica,sans-Serif" font-size="10.00">_phasors.h</text>
</a>
</g>
</g>
<!-- Node5&#45;&gt;Node11 -->
<g id="edge18" class="edge">
<title>Node5&#45;&gt;Node11</title>
<path fill="none" stroke="#63b8ff" d="M612.9,-247.76C615.19,-238.49 617.87,-227.2 620,-217 629.14,-173.19 637.8,-120.92 641.75,-96.24"/>
<polygon fill="#63b8ff" stroke="#63b8ff" points="609.32,-246.63 610.28,-257.18 616.11,-248.34 609.32,-246.63"/>
</g>
<!-- Node13 -->
<g id="node13" class="node">
<title>Node13</title>
<g id="a_node13"><a xlink:href="simulation__parameters_8h.html" target="_top" xlink:title="Classes collecting parameters for the simulation.">
<polygon fill="white" stroke="#666666" points="474.5,-217 355.5,-217 355.5,-187 474.5,-187 474.5,-217"/>
<text text-anchor="start" x="363.5" y="-205" font-family="Helvetica,sans-Serif" font-size="10.00">tdms/include/simulation</text>
<text text-anchor="middle" x="415" y="-194" font-family="Helvetica,sans-Serif" font-size="10.00">_parameters.h</text>
</a>
</g>
</g>
<!-- Node5&#45;&gt;Node13 -->
<g id="edge13" class="edge">
<title>Node5&#45;&gt;Node13</title>
<path fill="none" stroke="#63b8ff" d="M570.88,-254.69C538.83,-244.06 492.48,-228.69 458.66,-217.48"/>
<polygon fill="#63b8ff" stroke="#63b8ff" points="569.57,-258.28 580.16,-258.1 571.77,-251.63 569.57,-258.28"/>
</g>
<!-- Node7 -->
<g id="node7" class="node">
<title>Node7</title>
<g id="a_node7"><a xlink:href="array__init_8h.html" target="_top" xlink:title="A collection of functions for array initialisation given MATLAB pointers.">
<polygon fill="white" stroke="#666666" points="449.5,-96 352.5,-96 352.5,-66 449.5,-66 449.5,-96"/>
<text text-anchor="start" x="360.5" y="-84" font-family="Helvetica,sans-Serif" font-size="10.00">tdms/include/array</text>
<text text-anchor="middle" x="401" y="-73" font-family="Helvetica,sans-Serif" font-size="10.00">_init.h</text>
</a>
</g>
</g>
<!-- Node6&#45;&gt;Node7 -->
<g id="edge6" class="edge">
<title>Node6&#45;&gt;Node7</title>
<path fill="none" stroke="#63b8ff" d="M497.92,-127C478.22,-117.85 452.21,-105.78 432.1,-96.44"/>
<polygon fill="#63b8ff" stroke="#63b8ff" points="496.32,-130.58 506.86,-131.62 499.27,-124.23 496.32,-130.58"/>
</g>
<!-- Node6&#45;&gt;Node8 -->
<g id="edge7" class="edge">
<title>Node6&#45;&gt;Node8</title>
<path fill="none" stroke="#63b8ff" d="M476.94,-129.19C427.54,-118.04 353.03,-101.2 307.61,-90.95"/>
<polygon fill="#63b8ff" stroke="#63b8ff" points="475.86,-132.76 486.38,-131.55 477.4,-125.93 475.86,-132.76"/>
</g>
<!-- Node6&#45;&gt;Node10 -->
<g id="edge9" class="edge">
<title>Node6&#45;&gt;Node10</title>
<path fill="none" stroke="#63b8ff" d="M525.01,-121.08C524.17,-112.92 523.22,-103.6 522.45,-96.11"/>
<polygon fill="#63b8ff" stroke="#63b8ff" points="521.61,-121.28 526.11,-130.87 528.58,-120.56 521.61,-121.28"/>
</g>
<!-- Node6&#45;&gt;Node11 -->
<g id="edge10" class="edge">
<title>Node6&#45;&gt;Node11</title>
<path fill="none" stroke="#63b8ff" d="M554.51,-126.75C572.74,-117.63 596.62,-105.69 615.12,-96.44"/>
<polygon fill="#63b8ff" stroke="#63b8ff" points="553.15,-124.01 545.77,-131.62 556.28,-130.27 553.15,-124.01"/>
</g>
<!-- Node9 -->
<g id="node9" class="node">
<title>Node9</title>
<g id="a_node9"><a xlink:href="test___field_sample_8cpp.html" target="_top" xlink:title="Unit tests for the FieldSample class and its subclasses.">
<polygon fill="white" stroke="#666666" points="318.5,-30 217.5,-30 217.5,0 318.5,0 318.5,-30"/>
<text text-anchor="start" x="225.5" y="-18" font-family="Helvetica,sans-Serif" font-size="10.00">tdms/tests/unit/test</text>
<text text-anchor="middle" x="268" y="-7" font-family="Helvetica,sans-Serif" font-size="10.00">_FieldSample.cpp</text>
</a>
</g>
</g>
<!-- Node8&#45;&gt;Node9 -->
<g id="edge8" class="edge">
<title>Node8&#45;&gt;Node9</title>
<path fill="none" stroke="#63b8ff" d="M268,-60.42C268,-50.68 268,-39.12 268,-30.23"/>
<polygon fill="#63b8ff" stroke="#63b8ff" points="264.5,-60.1 268,-70.1 271.5,-60.1 264.5,-60.1"/>
</g>
<!-- Node11&#45;&gt;Node12 -->
<g id="edge11" class="edge">
<title>Node11&#45;&gt;Node12</title>
<path fill="none" stroke="#63b8ff" d="M658.21,-56.68C663.62,-47.79 669.63,-37.95 674.37,-30.16"/>
<polygon fill="#63b8ff" stroke="#63b8ff" points="654.87,-54.44 652.66,-64.8 660.85,-58.08 654.87,-54.44"/>
</g>
<!-- Node13&#45;&gt;Node6 -->
<g id="edge14" class="edge">
<title>Node13&#45;&gt;Node6</title>
<path fill="none" stroke="#63b8ff" d="M452.24,-181.55C471.79,-171.34 494.79,-159.32 510.06,-151.35"/>
<polygon fill="#63b8ff" stroke="#63b8ff" points="450.93,-178.81 443.69,-186.54 454.17,-185.01 450.93,-178.81"/>
</g>
<!-- Node13&#45;&gt;Node8 -->
<g id="edge15" class="edge">
<title>Node13&#45;&gt;Node8</title>
<path fill="none" stroke="#63b8ff" d="M365.3,-182.23C348.19,-174.26 329.66,-163.81 315,-151 294.7,-133.26 279.09,-104.87 272.07,-90.68"/>
<polygon fill="#63b8ff" stroke="#63b8ff" points="363.61,-185.76 374.17,-186.64 366.46,-179.37 363.61,-185.76"/>
</g>
<!-- Node14 -->
<g id="node14" class="node">
<title>Node14</title>
<g id="a_node14"><a xlink:href="mesh__base_8h.html" target="_top" xlink:title="Generation of orientated mesh.">
<polygon fill="white" stroke="#666666" points="458,-151 324,-151 324,-132 458,-132 458,-151"/>
<text text-anchor="middle" x="391" y="-139" font-family="Helvetica,sans-Serif" font-size="10.00">tdms/include/mesh_base.h</text>
</a>
</g>
</g>
<!-- Node13&#45;&gt;Node14 -->
<g id="edge16" class="edge">
<title>Node13&#45;&gt;Node14</title>
<path fill="none" stroke="#63b8ff" d="M404.94,-176.47C401.25,-167.48 397.31,-157.87 394.56,-151.18"/>
<polygon fill="#63b8ff" stroke="#63b8ff" points="402.03,-177.62 409.07,-185.54 408.51,-174.96 402.03,-177.62"/>
</g>
<!-- Node16 -->
<g id="node16" class="node">
<title>Node16</title>
<g id="a_node16"><a xlink:href="test___b_li__vs__cubic__interpolation_8cpp.html" target="_top" xlink:title="Tests the performance of band&#45;limited interpolation against cubic interpolation.">
<polygon fill="white" stroke="#666666" points="908.5,-217 751.5,-217 751.5,-187 908.5,-187 908.5,-217"/>
<text text-anchor="start" x="759.5" y="-205" font-family="Helvetica,sans-Serif" font-size="10.00">tdms/tests/unit/test</text>
<text text-anchor="middle" x="830" y="-194" font-family="Helvetica,sans-Serif" font-size="10.00">_BLi_vs_cubic_interpolation.cpp</text>
</a>
</g>
</g>
<!-- Node15&#45;&gt;Node16 -->
<g id="edge21" class="edge">
<title>Node15&#45;&gt;Node16</title>
<path fill="none" stroke="#63b8ff" d="M870.77,-245.09C861.82,-235.85 851.66,-225.36 843.72,-217.16"/>
<polygon fill="#63b8ff" stroke="#63b8ff" points="867.77,-247.05 877.24,-251.8 872.8,-242.18 867.77,-247.05"/>
</g>
<!-- Node17 -->
<g id="node17" class="node">
<title>Node17</title>
<g id="a_node17"><a xlink:href="test__interpolation__determination_8cpp.html" target="_top" xlink:title="Tests the logic that determines which interpolation schemes are appropriate.">
<polygon fill="white" stroke="#666666" points="1083.5,-217 926.5,-217 926.5,-187 1083.5,-187 1083.5,-217"/>
<text text-anchor="start" x="934.5" y="-205" font-family="Helvetica,sans-Serif" font-size="10.00">tdms/tests/unit/test</text>
<text text-anchor="middle" x="1005" y="-194" font-family="Helvetica,sans-Serif" font-size="10.00">_interpolation_determination.cpp</text>
</a>
</g>
</g>
<!-- Node15&#45;&gt;Node17 -->
<g id="edge22" class="edge">
<title>Node15&#45;&gt;Node17</title>
<path fill="none" stroke="#63b8ff" d="M926.51,-247.45C943.67,-237.73 964.04,-226.2 979.73,-217.31"/>
<polygon fill="#63b8ff" stroke="#63b8ff" points="925.34,-244.66 918.36,-252.64 928.79,-250.75 925.34,-244.66"/>
</g>
<!-- Node15&#45;&gt;Node18 -->
<g id="edge23" class="edge">
<title>Node15&#45;&gt;Node18</title>
<path fill="none" stroke="#63b8ff" d="M965.41,-250.16C1009.84,-239.97 1065.91,-227.11 1108.27,-217.39"/>
<polygon fill="#63b8ff" stroke="#63b8ff" points="964.93,-246.91 955.96,-252.56 966.49,-253.73 964.93,-246.91"/>
</g>
</g>
</svg>
