<?xml version="1.0" encoding="UTF-8" standalone="no"?>
<!DOCTYPE svg PUBLIC "-//W3C//DTD SVG 1.1//EN"
 "http://www.w3.org/Graphics/SVG/1.1/DTD/svg11.dtd">
<!-- Generated by graphviz version 13.1.2 (20250808.2320)
 -->
<!-- Title: tdms/include/globals.h Pages: 1 -->
<svg width="882pt" height="349pt"
 viewBox="0.00 0.00 882.00 349.00" xmlns="http://www.w3.org/2000/svg" xmlns:xlink="http://www.w3.org/1999/xlink">
<g id="graph0" class="graph" transform="scale(1 1) rotate(0) translate(4 344.5)">
<title>tdms/include/globals.h</title>
<!-- Node1 -->
<g id="Node000001" class="node">
<title>Node1</title>
<g id="a_Node000001"><a xlink:title="Type definitions and global constants.">
<polygon fill="#999999" stroke="#666666" points="672.75,-340.5 559.25,-340.5 559.25,-321.25 672.75,-321.25 672.75,-340.5"/>
<text xml:space="preserve" text-anchor="middle" x="616" y="-327" font-family="Helvetica,sans-Serif" font-size="10.00">tdms/include/globals.h</text>
</a>
</g>
</g>
<!-- Node2 -->
<g id="Node000002" class="node">
<title>Node2</title>
<g id="a_Node000002"><a xlink:href="argument__parser_8h.html" target="_top" xlink:title="Parse the command line options.">
<polygon fill="white" stroke="#666666" points="236.5,-285.25 121.5,-285.25 121.5,-254.75 236.5,-254.75 236.5,-285.25"/>
<text xml:space="preserve" text-anchor="start" x="129.5" y="-271.75" font-family="Helvetica,sans-Serif" font-size="10.00">tdms/include/argument</text>
<text xml:space="preserve" text-anchor="middle" x="179" y="-260.5" font-family="Helvetica,sans-Serif" font-size="10.00">_parser.h</text>
</a>
</g>
</g>
<!-- Node1&#45;&gt;Node2 -->
<g id="edge1_Node000001_Node000002" class="edge">
<title>Node1&#45;&gt;Node2</title>
<g id="a_edge1_Node000001_Node000002"><a xlink:title=" ">
<path fill="none" stroke="#63b8ff" d="M547.72,-320.68C462.2,-309.15 317.15,-289.61 236.84,-278.79"/>
<polygon fill="#63b8ff" stroke="#63b8ff" points="546.99,-324.11 557.37,-321.98 547.93,-317.17 546.99,-324.11"/>
</a>
</g>
</g>
<!-- Node5 -->
<g id="Node000005" class="node">
<title>Node5</title>
<g id="a_Node000005"><a xlink:href="arrays_8h.html" target="_top" xlink:title="Classes describing arrays, vertices etc.">
<polygon fill="white" stroke="#666666" points="578.88,-279.62 469.12,-279.62 469.12,-260.38 578.88,-260.38 578.88,-279.62"/>
<text xml:space="preserve" text-anchor="middle" x="524" y="-266.12" font-family="Helvetica,sans-Serif" font-size="10.00">tdms/include/arrays.h</text>
</a>
</g>
</g>
<!-- Node1&#45;&gt;Node5 -->
<g id="edge4_Node000001_Node000005" class="edge">
<title>Node1&#45;&gt;Node5</title>
<g id="a_edge4_Node000001_Node000005"><a xlink:title=" ">
<path fill="none" stroke="#63b8ff" d="M592.65,-314.93C575.45,-303.92 552.61,-289.31 538.1,-280.03"/>
<polygon fill="#63b8ff" stroke="#63b8ff" points="590.44,-317.68 600.75,-320.12 594.22,-311.78 590.44,-317.68"/>
</a>
</g>
</g>
<!-- Node12 -->
<g id="Node000012" class="node">
<title>Node12</title>
<g id="a_Node000012"><a xlink:href="test___vertex_phasors_8cpp.html" target="_top" xlink:title="Unit tests for the VertexPhasors class.">
<polygon fill="white" stroke="#666666" points="658.25,-30.5 553.75,-30.5 553.75,0 658.25,0 658.25,-30.5"/>
<text xml:space="preserve" text-anchor="start" x="561.75" y="-17" font-family="Helvetica,sans-Serif" font-size="10.00">tdms/tests/unit/test</text>
<text xml:space="preserve" text-anchor="middle" x="606" y="-5.75" font-family="Helvetica,sans-Serif" font-size="10.00">_VertexPhasors.cpp</text>
</a>
</g>
</g>
<!-- Node1&#45;&gt;Node12 -->
<g id="edge18_Node000001_Node000012" class="edge">
<title>Node1&#45;&gt;Node12</title>
<g id="a_edge18_Node000001_Node000012"><a xlink:title=" ">
<path fill="none" stroke="#63b8ff" d="M638.07,-314.14C665.29,-292.72 708,-251.59 708,-204.5 708,-204.5 708,-204.5 708,-141.62 708,-107.18 709.49,-94.18 689,-66.5 677.38,-50.79 659.25,-39 642.89,-30.81"/>
<polygon fill="#63b8ff" stroke="#63b8ff" points="636.24,-311.14 630.39,-319.97 640.47,-316.71 636.24,-311.14"/>
</a>
</g>
</g>
<!-- Node15 -->
<g id="Node000015" class="node">
<title>Node15</title>
<g id="a_Node000015"><a xlink:href="test__interpolation__functions_8cpp.html" target="_top" xlink:title="Tests the performance of the interpolation functions, using 1D data mimicing a coordinate axes.">
<polygon fill="white" stroke="#666666" points="873.75,-285.25 736.25,-285.25 736.25,-254.75 873.75,-254.75 873.75,-285.25"/>
<text xml:space="preserve" text-anchor="start" x="744.25" y="-271.75" font-family="Helvetica,sans-Serif" font-size="10.00">tdms/tests/unit/test</text>
<text xml:space="preserve" text-anchor="middle" x="805" y="-260.5" font-family="Helvetica,sans-Serif" font-size="10.00">_interpolation_functions.cpp</text>
</a>
</g>
</g>
<!-- Node1&#45;&gt;Node15 -->
<g id="edge19_Node000001_Node000015" class="edge">
<title>Node1&#45;&gt;Node15</title>
<g id="a_edge19_Node000001_Node000015"><a xlink:title=" ">
<path fill="none" stroke="#63b8ff" d="M655.94,-317.43C685.71,-308.16 726.46,-295.47 757.83,-285.69"/>
<polygon fill="#63b8ff" stroke="#63b8ff" points="655.07,-314.04 646.56,-320.35 657.15,-320.72 655.07,-314.04"/>
</a>
</g>
</g>
<!-- Node3 -->
<g id="Node000003" class="node">
<title>Node3</title>
<g id="a_Node000003"><a xlink:href="main_8cpp.html" target="_top" xlink:title="The main function. Launches TDMS.">
<polygon fill="white" stroke="#666666" points="227.5,-213.12 130.5,-213.12 130.5,-193.88 227.5,-193.88 227.5,-213.12"/>
<text xml:space="preserve" text-anchor="middle" x="179" y="-199.62" font-family="Helvetica,sans-Serif" font-size="10.00">tdms/src/main.cpp</text>
</a>
</g>
</g>
<!-- Node2&#45;&gt;Node3 -->
<g id="edge2_Node000002_Node000003" class="edge">
<title>Node2&#45;&gt;Node3</title>
<g id="a_edge2_Node000002_Node000003"><a xlink:title=" ">
<path fill="none" stroke="#63b8ff" d="M179,-243.09C179,-232.51 179,-221 179,-213.32"/>
<polygon fill="#63b8ff" stroke="#63b8ff" points="175.5,-242.85 179,-252.85 182.5,-242.85 175.5,-242.85"/>
</a>
</g>
</g>
<!-- Node4 -->
<g id="Node000004" class="node">
<title>Node4</title>
<g id="a_Node000004"><a xlink:href="test__argument__parser_8cpp.html" target="_top" xlink:title="Tests of the argument parsing and file I/O.">
<polygon fill="white" stroke="#666666" points="112,-218.75 0,-218.75 0,-188.25 112,-188.25 112,-218.75"/>
<text xml:space="preserve" text-anchor="start" x="8" y="-205.25" font-family="Helvetica,sans-Serif" font-size="10.00">tdms/tests/unit/test</text>
<text xml:space="preserve" text-anchor="middle" x="56" y="-194" font-family="Helvetica,sans-Serif" font-size="10.00">_argument_parser.cpp</text>
</a>
</g>
</g>
<!-- Node2&#45;&gt;Node4 -->
<g id="edge3_Node000002_Node000004" class="edge">
<title>Node2&#45;&gt;Node4</title>
<g id="a_edge3_Node000002_Node000004"><a xlink:title=" ">
<path fill="none" stroke="#63b8ff" d="M140.94,-249.04C122.47,-239.36 100.68,-227.93 83.8,-219.08"/>
<polygon fill="#63b8ff" stroke="#63b8ff" points="139.27,-252.12 149.75,-253.66 142.52,-245.92 139.27,-252.12"/>
</a>
</g>
</g>
<!-- Node6 -->
<g id="Node000006" class="node">
<title>Node6</title>
<g id="a_Node000006"><a xlink:href="field_8h.html" target="_top" xlink:title="Classes for the electric and magnetic (split) fields on a grid.">
<polygon fill="white" stroke="#666666" points="574.38,-152.25 473.62,-152.25 473.62,-133 574.38,-133 574.38,-152.25"/>
<text xml:space="preserve" text-anchor="middle" x="524" y="-138.75" font-family="Helvetica,sans-Serif" font-size="10.00">tdms/include/field.h</text>
</a>
</g>
</g>
<!-- Node5&#45;&gt;Node6 -->
<g id="edge5_Node000005_Node000006" class="edge">
<title>Node5&#45;&gt;Node6</title>
<g id="a_edge5_Node000005_Node000006"><a xlink:title=" ">
<path fill="none" stroke="#63b8ff" d="M524,-248.55C524,-220.82 524,-172.45 524,-152.56"/>
<polygon fill="#63b8ff" stroke="#63b8ff" points="520.5,-248.47 524,-258.47 527.5,-248.47 520.5,-248.47"/>
</a>
</g>
</g>
<!-- Node8 -->
<g id="Node000008" class="node">
<title>Node8</title>
<g id="a_Node000008"><a xlink:href="fieldsample_8h.html" target="_top" xlink:title="Class that stores the extracted field values at user&#45;defined vertices.">
<polygon fill="white" stroke="#666666" points="322.12,-91.38 189.88,-91.38 189.88,-72.12 322.12,-72.12 322.12,-91.38"/>
<text xml:space="preserve" text-anchor="middle" x="256" y="-77.88" font-family="Helvetica,sans-Serif" font-size="10.00">tdms/include/fieldsample.h</text>
</a>
</g>
</g>
<!-- Node5&#45;&gt;Node8 -->
<g id="edge12_Node000005_Node000008" class="edge">
<title>Node5&#45;&gt;Node8</title>
<g id="a_edge12_Node000005_Node000008"><a xlink:title=" ">
<path fill="none" stroke="#63b8ff" d="M457.59,-260.08C422.06,-253 378.79,-240.52 345,-218.75 295.42,-186.81 267.48,-116.38 258.88,-91.59"/>
<polygon fill="#63b8ff" stroke="#63b8ff" points="456.87,-263.5 467.35,-261.91 458.17,-256.62 456.87,-263.5"/>
</a>
</g>
</g>
<!-- Node10 -->
<g id="Node000010" class="node">
<title>Node10</title>
<g id="a_Node000010"><a xlink:href="surface__phasors_8h.html" target="_top" xlink:title="Contains a class that handles the complex amplitude extraction.">
<polygon fill="white" stroke="#666666" points="680.38,-97 573.62,-97 573.62,-66.5 680.38,-66.5 680.38,-97"/>
<text xml:space="preserve" text-anchor="start" x="581.62" y="-83.5" font-family="Helvetica,sans-Serif" font-size="10.00">tdms/include/surface</text>
<text xml:space="preserve" text-anchor="middle" x="627" y="-72.25" font-family="Helvetica,sans-Serif" font-size="10.00">_phasors.h</text>
</a>
</g>
</g>
<!-- Node5&#45;&gt;Node10 -->
<g id="edge17_Node000005_Node000010" class="edge">
<title>Node5&#45;&gt;Node10</title>
<g id="a_edge17_Node000005_Node000010"><a xlink:title=" ">
<path fill="none" stroke="#63b8ff" d="M534.52,-249.97C555.16,-212.65 600.56,-130.56 618.99,-97.24"/>
<polygon fill="#63b8ff" stroke="#63b8ff" points="531.48,-248.25 529.7,-258.69 537.6,-251.64 531.48,-248.25"/>
</a>
</g>
</g>
<!-- Node13 -->
<g id="Node000013" class="node">
<title>Node13</title>
<g id="a_Node000013"><a xlink:href="simulation__parameters_8h.html" target="_top" xlink:title="Classes collecting parameters for the simulation.">
<polygon fill="white" stroke="#666666" points="472.38,-218.75 353.62,-218.75 353.62,-188.25 472.38,-188.25 472.38,-218.75"/>
<text xml:space="preserve" text-anchor="start" x="361.62" y="-205.25" font-family="Helvetica,sans-Serif" font-size="10.00">tdms/include/simulation</text>
<text xml:space="preserve" text-anchor="middle" x="413" y="-194" font-family="Helvetica,sans-Serif" font-size="10.00">_parameters.h</text>
</a>
</g>
</g>
<!-- Node5&#45;&gt;Node13 -->
<g id="edge13_Node000005_Node000013" class="edge">
<title>Node5&#45;&gt;Node13</title>
<g id="a_edge13_Node000005_Node000013"><a xlink:title=" ">
<path fill="none" stroke="#63b8ff" d="M498.69,-254.29C480.55,-243.75 456.21,-229.61 438.11,-219.09"/>
<polygon fill="#63b8ff" stroke="#63b8ff" points="496.85,-257.27 507.26,-259.27 500.37,-251.22 496.85,-257.27"/>
</a>
</g>
</g>
<!-- Node7 -->
<g id="Node000007" class="node">
<title>Node7</title>
<g id="a_Node000007"><a xlink:href="array__init_8h.html" target="_top" xlink:title="A collection of functions for array initialisation given MATLAB pointers.">
<polygon fill="white" stroke="#666666" points="436.12,-97 339.88,-97 339.88,-66.5 436.12,-66.5 436.12,-97"/>
<text xml:space="preserve" text-anchor="start" x="347.88" y="-83.5" font-family="Helvetica,sans-Serif" font-size="10.00">tdms/include/array</text>
<text xml:space="preserve" text-anchor="middle" x="388" y="-72.25" font-family="Helvetica,sans-Serif" font-size="10.00">_init.h</text>
</a>
</g>
</g>
<!-- Node6&#45;&gt;Node7 -->
<g id="edge6_Node000006_Node000007" class="edge">
<title>Node6&#45;&gt;Node7</title>
<g id="a_edge6_Node000006_Node000007"><a xlink:title=" ">
<path fill="none" stroke="#63b8ff" d="M492.67,-128.06C471.52,-118.91 443.62,-106.83 421.94,-97.44"/>
<polygon fill="#63b8ff" stroke="#63b8ff" points="491.09,-131.19 501.66,-131.95 493.87,-124.77 491.09,-131.19"/>
</a>
</g>
</g>
<!-- Node6&#45;&gt;Node8 -->
<g id="edge7_Node000006_Node000008" class="edge">
<title>Node6&#45;&gt;Node8</title>
<g id="a_edge7_Node000006_Node000008"><a xlink:title=" ">
<path fill="none" stroke="#63b8ff" d="M471.6,-130.11C420.62,-118.91 344.18,-102.12 297.33,-91.83"/>
<polygon fill="#63b8ff" stroke="#63b8ff" points="470.72,-133.5 481.23,-132.23 472.22,-126.67 470.72,-133.5"/>
</a>
</g>
</g>
<!-- Node6&#45;&gt;Node10 -->
<g id="edge9_Node000006_Node000010" class="edge">
<title>Node6&#45;&gt;Node10</title>
<g id="a_edge9_Node000006_Node000010"><a xlink:title=" ">
<path fill="none" stroke="#63b8ff" d="M549.34,-127.14C565.24,-118.05 585.66,-106.38 601.58,-97.28"/>
<polygon fill="#63b8ff" stroke="#63b8ff" points="547.9,-123.93 540.96,-131.93 551.38,-130.01 547.9,-123.93"/>
</a>
</g>
</g>
<!-- Node11 -->
<g id="Node000011" class="node">
<title>Node11</title>
<g id="a_Node000011"><a xlink:href="vertex__phasors_8h.html" target="_top" xlink:title="Contains a class that handles the complex amplitude extraction at the vertices.">
<polygon fill="white" stroke="#666666" points="555.75,-97 454.25,-97 454.25,-66.5 555.75,-66.5 555.75,-97"/>
<text xml:space="preserve" text-anchor="start" x="462.25" y="-83.5" font-family="Helvetica,sans-Serif" font-size="10.00">tdms/include/vertex</text>
<text xml:space="preserve" text-anchor="middle" x="505" y="-72.25" font-family="Helvetica,sans-Serif" font-size="10.00">_phasors.h</text>
</a>
</g>
</g>
<!-- Node6&#45;&gt;Node11 -->
<g id="edge10_Node000006_Node000011" class="edge">
<title>Node6&#45;&gt;Node11</title>
<g id="a_edge10_Node000006_Node000011"><a xlink:title=" ">
<path fill="none" stroke="#63b8ff" d="M517.66,-121.98C515.06,-113.91 512.09,-104.73 509.69,-97.28"/>
<polygon fill="#63b8ff" stroke="#63b8ff" points="514.25,-122.8 520.65,-131.24 520.91,-120.65 514.25,-122.8"/>
</a>
</g>
</g>
<!-- Node9 -->
<g id="Node000009" class="node">
<title>Node9</title>
<g id="a_Node000009"><a xlink:href="test___field_sample_8cpp.html" target="_top" xlink:title="Unit tests for the FieldSample class and its subclasses.">
<polygon fill="white" stroke="#666666" points="306.38,-30.5 205.62,-30.5 205.62,0 306.38,0 306.38,-30.5"/>
<text xml:space="preserve" text-anchor="start" x="213.62" y="-17" font-family="Helvetica,sans-Serif" font-size="10.00">tdms/tests/unit/test</text>
<text xml:space="preserve" text-anchor="middle" x="256" y="-5.75" font-family="Helvetica,sans-Serif" font-size="10.00">_FieldSample.cpp</text>
</a>
</g>
</g>
<!-- Node8&#45;&gt;Node9 -->
<g id="edge8_Node000008_Node000009" class="edge">
<title>Node8&#45;&gt;Node9</title>
<g id="a_edge8_Node000008_Node000009"><a xlink:title=" ">
<path fill="none" stroke="#63b8ff" d="M256,-60.37C256,-50.69 256,-39.35 256,-30.59"/>
<polygon fill="#63b8ff" stroke="#63b8ff" points="252.5,-60.27 256,-70.27 259.5,-60.27 252.5,-60.27"/>
</a>
</g>
</g>
<!-- Node11&#45;&gt;Node12 -->
<g id="edge11_Node000011_Node000012" class="edge">
<title>Node11&#45;&gt;Node12</title>
<g id="a_edge11_Node000011_Node000012"><a xlink:title=" ">
<path fill="none" stroke="#63b8ff" d="M537.31,-60.11C552.25,-50.58 569.63,-39.48 583.17,-30.83"/>
<polygon fill="#63b8ff" stroke="#63b8ff" points="535.74,-56.97 529.19,-65.3 539.51,-62.87 535.74,-56.97"/>
</a>
</g>
</g>
<!-- Node13&#45;&gt;Node6 -->
<g id="edge14_Node000013_Node000006" class="edge">
<title>Node13&#45;&gt;Node6</title>
<g id="a_edge14_Node000013_Node000006"><a xlink:title=" ">
<path fill="none" stroke="#63b8ff" d="M450.66,-182.52C469.77,-172.39 492.04,-160.58 506.98,-152.65"/>
<polygon fill="#63b8ff" stroke="#63b8ff" points="449.25,-179.31 442.06,-187.09 452.54,-185.49 449.25,-179.31"/>
</a>
</g>
</g>
<!-- Node13&#45;&gt;Node8 -->
<g id="edge15_Node000013_Node000008" class="edge">
<title>Node13&#45;&gt;Node8</title>
<g id="a_edge15_Node000013_Node000008"><a xlink:title=" ">
<path fill="none" stroke="#63b8ff" d="M364.28,-183.03C347.13,-174.92 328.33,-164.51 313,-152.25 290.34,-134.12 270.52,-105.65 261.37,-91.43"/>
<polygon fill="#63b8ff" stroke="#63b8ff" points="362.77,-186.19 373.32,-187.15 365.68,-179.82 362.77,-186.19"/>
</a>
</g>
</g>
<!-- Node14 -->
<g id="Node000014" class="node">
<title>Node14</title>
<g id="a_Node000014"><a xlink:href="mesh__base_8h.html" target="_top" xlink:title="Generation of orientated mesh.">
<polygon fill="white" stroke="#666666" points="455.5,-152.25 322.5,-152.25 322.5,-133 455.5,-133 455.5,-152.25"/>
<text xml:space="preserve" text-anchor="middle" x="389" y="-138.75" font-family="Helvetica,sans-Serif" font-size="10.00">tdms/include/mesh_base.h</text>
</a>
</g>
</g>
<!-- Node13&#45;&gt;Node14 -->
<g id="edge16_Node000013_Node000014" class="edge">
<title>Node13&#45;&gt;Node14</title>
<g id="a_edge16_Node000013_Node000014"><a xlink:title=" ">
<path fill="none" stroke="#63b8ff" d="M402.75,-177.36C399.18,-168.59 395.39,-159.31 392.7,-152.7"/>
<polygon fill="#63b8ff" stroke="#63b8ff" points="399.48,-178.61 406.5,-186.55 405.96,-175.96 399.48,-178.61"/>
</a>
</g>
</g>
</g>
</svg>
