<?xml version="1.0" encoding="UTF-8" standalone="no"?>
<!DOCTYPE svg PUBLIC "-//W3C//DTD SVG 1.1//EN"
 "http://www.w3.org/Graphics/SVG/1.1/DTD/svg11.dtd">
<!-- Generated by graphviz version 8.0.5 (20230430.1635)
 -->
<!-- Title: tdms/include/globals.h Pages: 1 -->
<svg width="785pt" height="349pt"
 viewBox="0.00 0.00 784.62 348.50" xmlns="http://www.w3.org/2000/svg" xmlns:xlink="http://www.w3.org/1999/xlink">
<g id="graph0" class="graph" transform="scale(1 1) rotate(0) translate(4 344.5)">
<title>tdms/include/globals.h</title>
<!-- Node1 -->
<g id="node1" class="node">
<title>Node1</title>
<g id="a_node1"><a xlink:title="Type definitions and global constants.">
<polygon fill="#999999" stroke="#666666" points="387.25,-340.5 273.75,-340.5 273.75,-321.25 387.25,-321.25 387.25,-340.5"/>
<text text-anchor="middle" x="330.5" y="-327" font-family="Helvetica,sans-Serif" font-size="10.00">tdms/include/globals.h</text>
</a>
</g>
</g>
<!-- Node2 -->
<g id="node2" class="node">
<title>Node2</title>
<g id="a_node2"><a xlink:href="argument__parser_8h.html" target="_top" xlink:title="Parse the command line options.">
<polygon fill="white" stroke="#666666" points="228,-285.25 113,-285.25 113,-254.75 228,-254.75 228,-285.25"/>
<text text-anchor="start" x="121" y="-271.75" font-family="Helvetica,sans-Serif" font-size="10.00">tdms/include/argument</text>
<text text-anchor="middle" x="170.5" y="-260.5" font-family="Helvetica,sans-Serif" font-size="10.00">_parser.h</text>
</a>
</g>
</g>
<!-- Node1&#45;&gt;Node2 -->
<g id="edge1" class="edge">
<title>Node1&#45;&gt;Node2</title>
<path fill="none" stroke="#63b8ff" d="M295.68,-317.06C270.58,-307.82 236.64,-295.34 210.43,-285.69"/>
<polygon fill="#63b8ff" stroke="#63b8ff" points="294.26,-320.64 304.85,-320.8 296.67,-314.07 294.26,-320.64"/>
</g>
<!-- Node5 -->
<g id="node5" class="node">
<title>Node5</title>
<g id="a_node5"><a xlink:href="arrays_8h.html" target="_top" xlink:title="Classes describing arrays, vertices etc.">
<polygon fill="white" stroke="#666666" points="463.38,-279.62 353.62,-279.62 353.62,-260.38 463.38,-260.38 463.38,-279.62"/>
<text text-anchor="middle" x="408.5" y="-266.12" font-family="Helvetica,sans-Serif" font-size="10.00">tdms/include/arrays.h</text>
</a>
</g>
</g>
<!-- Node1&#45;&gt;Node5 -->
<g id="edge4" class="edge">
<title>Node1&#45;&gt;Node5</title>
<path fill="none" stroke="#63b8ff" d="M351.12,-314.31C365.6,-303.38 384.47,-289.14 396.54,-280.03"/>
<polygon fill="#63b8ff" stroke="#63b8ff" points="349.22,-312.12 343.35,-320.93 353.44,-317.7 349.22,-312.12"/>
</g>
<!-- Node12 -->
<g id="node12" class="node">
<title>Node12</title>
<g id="a_node12"><a xlink:href="test___vertex_phasors_8cpp.html" target="_top" xlink:title="Unit tests for the VertexPhasors class.">
<polygon fill="white" stroke="#666666" points="348.75,-30.5 244.25,-30.5 244.25,0 348.75,0 348.75,-30.5"/>
<text text-anchor="start" x="252.25" y="-17" font-family="Helvetica,sans-Serif" font-size="10.00">tdms/tests/unit/test</text>
<text text-anchor="middle" x="296.5" y="-5.75" font-family="Helvetica,sans-Serif" font-size="10.00">_VertexPhasors.cpp</text>
</a>
</g>
</g>
<!-- Node1&#45;&gt;Node12 -->
<g id="edge19" class="edge">
<title>Node1&#45;&gt;Node12</title>
<path fill="none" stroke="#63b8ff" d="M312.84,-313.33C290.96,-290.92 256.5,-248.65 256.5,-204.5 256.5,-204.5 256.5,-204.5 256.5,-141.62 256.5,-99.81 276.94,-53.71 288.6,-30.82"/>
<polygon fill="#63b8ff" stroke="#63b8ff" points="309.94,-315.37 319.52,-319.9 314.86,-310.39 309.94,-315.37"/>
</g>
<!-- Node15 -->
<g id="node15" class="node">
<title>Node15</title>
<g id="a_node15"><a xlink:href="test__interpolation__functions_8cpp.html" target="_top" xlink:title="Tests the performance of the interpolation functions, using 1D data mimicing a coordinate axes.">
<polygon fill="white" stroke="#666666" points="619.25,-285.25 481.75,-285.25 481.75,-254.75 619.25,-254.75 619.25,-285.25"/>
<text text-anchor="start" x="489.75" y="-271.75" font-family="Helvetica,sans-Serif" font-size="10.00">tdms/tests/unit/test</text>
<text text-anchor="middle" x="550.5" y="-260.5" font-family="Helvetica,sans-Serif" font-size="10.00">_interpolation_functions.cpp</text>
</a>
</g>
</g>
<!-- Node1&#45;&gt;Node15 -->
<g id="edge20" class="edge">
<title>Node1&#45;&gt;Node15</title>
<path fill="none" stroke="#63b8ff" d="M374.73,-318.04C409.55,-308.72 458.27,-295.68 495.59,-285.69"/>
<polygon fill="#63b8ff" stroke="#63b8ff" points="374.15,-314.84 365.39,-320.8 375.96,-321.6 374.15,-314.84"/>
</g>
<!-- Node3 -->
<g id="node3" class="node">
<title>Node3</title>
<g id="a_node3"><a xlink:href="main_8cpp.html" target="_top" xlink:title="The main function. Launches TDMS.">
<polygon fill="white" stroke="#666666" points="97,-213.12 0,-213.12 0,-193.88 97,-193.88 97,-213.12"/>
<text text-anchor="middle" x="48.5" y="-199.62" font-family="Helvetica,sans-Serif" font-size="10.00">tdms/src/main.cpp</text>
</a>
</g>
</g>
<!-- Node2&#45;&gt;Node3 -->
<g id="edge2" class="edge">
<title>Node2&#45;&gt;Node3</title>
<path fill="none" stroke="#63b8ff" d="M133.19,-249.28C110.64,-237.35 82.98,-222.73 65.54,-213.51"/>
<polygon fill="#63b8ff" stroke="#63b8ff" points="131.34,-252.78 141.82,-254.36 134.61,-246.6 131.34,-252.78"/>
</g>
<!-- Node4 -->
<g id="node4" class="node">
<title>Node4</title>
<g id="a_node4"><a xlink:href="test__argument__parser_8cpp.html" target="_top" xlink:title="Tests of the argument parsing and file I/O.">
<polygon fill="white" stroke="#666666" points="227.5,-218.75 115.5,-218.75 115.5,-188.25 227.5,-188.25 227.5,-218.75"/>
<text text-anchor="start" x="123.5" y="-205.25" font-family="Helvetica,sans-Serif" font-size="10.00">tdms/tests/unit/test</text>
<text text-anchor="middle" x="171.5" y="-194" font-family="Helvetica,sans-Serif" font-size="10.00">_argument_parser.cpp</text>
</a>
</g>
</g>
<!-- Node2&#45;&gt;Node4 -->
<g id="edge3" class="edge">
<title>Node2&#45;&gt;Node4</title>
<path fill="none" stroke="#63b8ff" d="M170.89,-243.63C171.02,-235.3 171.16,-226.33 171.27,-219.08"/>
<polygon fill="#63b8ff" stroke="#63b8ff" points="167.38,-243.31 170.73,-253.36 174.38,-243.42 167.38,-243.31"/>
</g>
<!-- Node6 -->
<g id="node6" class="node">
<title>Node6</title>
<g id="a_node6"><a xlink:href="field_8h.html" target="_top" xlink:title="Classes for the electric and magnetic (split) fields on a grid.">
<polygon fill="white" stroke="#666666" points="458.88,-152.25 358.12,-152.25 358.12,-133 458.88,-133 458.88,-152.25"/>
<text text-anchor="middle" x="408.5" y="-138.75" font-family="Helvetica,sans-Serif" font-size="10.00">tdms/include/field.h</text>
</a>
</g>
</g>
<!-- Node5&#45;&gt;Node6 -->
<g id="edge5" class="edge">
<title>Node5&#45;&gt;Node6</title>
<path fill="none" stroke="#63b8ff" d="M408.5,-249.3C408.5,-221.7 408.5,-172.63 408.5,-152.56"/>
<polygon fill="#63b8ff" stroke="#63b8ff" points="405,-248.98 408.5,-258.98 412,-248.98 405,-248.98"/>
</g>
<!-- Node8 -->
<g id="node8" class="node">
<title>Node8</title>
<g id="a_node8"><a xlink:href="fieldsample_8h.html" target="_top" xlink:title="Class that stores the extracted field values at user&#45;defined vertices.">
<polygon fill="white" stroke="#666666" points="776.62,-91.38 644.38,-91.38 644.38,-72.12 776.62,-72.12 776.62,-91.38"/>
<text text-anchor="middle" x="710.5" y="-77.88" font-family="Helvetica,sans-Serif" font-size="10.00">tdms/include/fieldsample.h</text>
</a>
</g>
</g>
<!-- Node5&#45;&gt;Node8 -->
<g id="edge12" class="edge">
<title>Node5&#45;&gt;Node8</title>
<path fill="none" stroke="#63b8ff" d="M459.79,-257.5C518.95,-244.1 608.98,-223.21 615.5,-218.75 664.96,-184.94 696.76,-116.29 706.95,-91.74"/>
<polygon fill="#63b8ff" stroke="#63b8ff" points="459.11,-254.29 450.13,-259.91 460.65,-261.12 459.11,-254.29"/>
</g>
<!-- Node10 -->
<g id="node10" class="node">
<title>Node10</title>
<g id="a_node10"><a xlink:href="surface__phasors_8h.html" target="_top" xlink:title="Contains a class that handles the complex amplitude extraction.">
<polygon fill="white" stroke="#666666" points="625.88,-97 519.12,-97 519.12,-66.5 625.88,-66.5 625.88,-97"/>
<text text-anchor="start" x="527.12" y="-83.5" font-family="Helvetica,sans-Serif" font-size="10.00">tdms/include/surface</text>
<text text-anchor="middle" x="572.5" y="-72.25" font-family="Helvetica,sans-Serif" font-size="10.00">_phasors.h</text>
</a>
</g>
</g>
<!-- Node5&#45;&gt;Node10 -->
<g id="edge17" class="edge">
<title>Node5&#45;&gt;Node10</title>
<path fill="none" stroke="#63b8ff" d="M457.76,-257.38C507.18,-245.38 577.39,-227.23 587.5,-218.75 618.67,-192.61 634.44,-170.84 619.5,-133 613.89,-118.78 602.14,-106.22 591.79,-97.21"/>
<polygon fill="#63b8ff" stroke="#63b8ff" points="457.15,-254.17 448.25,-259.92 458.79,-260.97 457.15,-254.17"/>
</g>
<!-- Node11 -->
<g id="node11" class="node">
<title>Node11</title>
<g id="a_node11"><a xlink:href="vertex__phasors_8h.html" target="_top" xlink:title="Contains a class that handles the complex amplitude extraction at the vertices.">
<polygon fill="white" stroke="#666666" points="386.25,-97 284.75,-97 284.75,-66.5 386.25,-66.5 386.25,-97"/>
<text text-anchor="start" x="292.75" y="-83.5" font-family="Helvetica,sans-Serif" font-size="10.00">tdms/include/vertex</text>
<text text-anchor="middle" x="335.5" y="-72.25" font-family="Helvetica,sans-Serif" font-size="10.00">_phasors.h</text>
</a>
</g>
</g>
<!-- Node5&#45;&gt;Node11 -->
<g id="edge18" class="edge">
<title>Node5&#45;&gt;Node11</title>
<path fill="none" stroke="#63b8ff" d="M397.29,-250.7C384.02,-228.28 362.14,-188.75 349.5,-152.25 343.14,-133.87 339.3,-111.71 337.29,-97.43"/>
<polygon fill="#63b8ff" stroke="#63b8ff" points="394.72,-252.22 402.88,-258.99 400.72,-248.62 394.72,-252.22"/>
</g>
<!-- Node13 -->
<g id="node13" class="node">
<title>Node13</title>
<g id="a_node13"><a xlink:href="simulation__parameters_8h.html" target="_top" xlink:title="Classes collecting parameters for the simulation.">
<polygon fill="white" stroke="#666666" points="578.88,-218.75 460.12,-218.75 460.12,-188.25 578.88,-188.25 578.88,-218.75"/>
<text text-anchor="start" x="468.12" y="-205.25" font-family="Helvetica,sans-Serif" font-size="10.00">tdms/include/simulation</text>
<text text-anchor="middle" x="519.5" y="-194" font-family="Helvetica,sans-Serif" font-size="10.00">_parameters.h</text>
</a>
</g>
</g>
<!-- Node5&#45;&gt;Node13 -->
<g id="edge13" class="edge">
<title>Node5&#45;&gt;Node13</title>
<path fill="none" stroke="#63b8ff" d="M433.3,-254.59C451.5,-244.01 476.12,-229.71 494.39,-219.09"/>
<polygon fill="#63b8ff" stroke="#63b8ff" points="431.82,-251.98 424.93,-260.03 435.34,-258.03 431.82,-251.98"/>
</g>
<!-- Node7 -->
<g id="node7" class="node">
<title>Node7</title>
<g id="a_node7"><a xlink:href="array__init_8h.html" target="_top" xlink:title="A collection of functions for array initialisation given MATLAB pointers.">
<polygon fill="white" stroke="#666666" points="500.62,-97 404.38,-97 404.38,-66.5 500.62,-66.5 500.62,-97"/>
<text text-anchor="start" x="412.38" y="-83.5" font-family="Helvetica,sans-Serif" font-size="10.00">tdms/include/array</text>
<text text-anchor="middle" x="452.5" y="-72.25" font-family="Helvetica,sans-Serif" font-size="10.00">_init.h</text>
</a>
</g>
</g>
<!-- Node6&#45;&gt;Node7 -->
<g id="edge6" class="edge">
<title>Node6&#45;&gt;Node7</title>
<path fill="none" stroke="#63b8ff" d="M421.72,-123.93C428.09,-115.42 435.62,-105.34 441.64,-97.28"/>
<polygon fill="#63b8ff" stroke="#63b8ff" points="418.37,-121.58 415.18,-131.68 423.97,-125.77 418.37,-121.58"/>
</g>
<!-- Node6&#45;&gt;Node8 -->
<g id="edge7" class="edge">
<title>Node6&#45;&gt;Node8</title>
<path fill="none" stroke="#63b8ff" d="M465.74,-130.47C523.18,-119.27 610.58,-102.23 663.92,-91.83"/>
<polygon fill="#63b8ff" stroke="#63b8ff" points="465.17,-127.21 456.03,-132.55 466.51,-134.08 465.17,-127.21"/>
</g>
<!-- Node6&#45;&gt;Node10 -->
<g id="edge9" class="edge">
<title>Node6&#45;&gt;Node10</title>
<path fill="none" stroke="#63b8ff" d="M443.85,-128.94C469.61,-119.69 504.59,-107.13 531.57,-97.44"/>
<polygon fill="#63b8ff" stroke="#63b8ff" points="442.99,-125.88 434.77,-132.55 445.36,-132.47 442.99,-125.88"/>
</g>
<!-- Node6&#45;&gt;Node11 -->
<g id="edge10" class="edge">
<title>Node6&#45;&gt;Node11</title>
<path fill="none" stroke="#63b8ff" d="M388.91,-125.82C377.9,-116.95 364.26,-105.94 353.52,-97.28"/>
<polygon fill="#63b8ff" stroke="#63b8ff" points="386.43,-129.13 396.41,-132.68 390.83,-123.68 386.43,-129.13"/>
</g>
<!-- Node9 -->
<g id="node9" class="node">
<title>Node9</title>
<g id="a_node9"><a xlink:href="test___field_sample_8cpp.html" target="_top" xlink:title="Unit tests for the FieldSample class and its subclasses.">
<polygon fill="white" stroke="#666666" points="760.88,-30.5 660.12,-30.5 660.12,0 760.88,0 760.88,-30.5"/>
<text text-anchor="start" x="668.12" y="-17" font-family="Helvetica,sans-Serif" font-size="10.00">tdms/tests/unit/test</text>
<text text-anchor="middle" x="710.5" y="-5.75" font-family="Helvetica,sans-Serif" font-size="10.00">_FieldSample.cpp</text>
</a>
</g>
</g>
<!-- Node8&#45;&gt;Node9 -->
<g id="edge8" class="edge">
<title>Node8&#45;&gt;Node9</title>
<path fill="none" stroke="#63b8ff" d="M710.5,-61.02C710.5,-51.2 710.5,-39.55 710.5,-30.59"/>
<polygon fill="#63b8ff" stroke="#63b8ff" points="707,-60.78 710.5,-70.78 714,-60.78 707,-60.78"/>
</g>
<!-- Node11&#45;&gt;Node12 -->
<g id="edge11" class="edge">
<title>Node11&#45;&gt;Node12</title>
<path fill="none" stroke="#63b8ff" d="M321.01,-56.79C315.74,-48.07 309.95,-38.49 305.31,-30.83"/>
<polygon fill="#63b8ff" stroke="#63b8ff" points="318.48,-58.37 326.65,-65.11 324.47,-54.75 318.48,-58.37"/>
</g>
<!-- Node13&#45;&gt;Node6 -->
<g id="edge14" class="edge">
<title>Node13&#45;&gt;Node6</title>
<path fill="none" stroke="#63b8ff" d="M482.1,-182.66C462.94,-172.5 440.53,-160.62 425.52,-152.65"/>
<polygon fill="#63b8ff" stroke="#63b8ff" points="480.3,-186.2 490.78,-187.8 483.58,-180.02 480.3,-186.2"/>
</g>
<!-- Node13&#45;&gt;Node8 -->
<g id="edge15" class="edge">
<title>Node13&#45;&gt;Node8</title>
<path fill="none" stroke="#63b8ff" d="M562.03,-183.3C580.17,-174.56 601.29,-163.64 619.5,-152.25 650.34,-132.96 683.59,-105.73 700.05,-91.77"/>
<polygon fill="#63b8ff" stroke="#63b8ff" points="560.84,-180.46 553.31,-187.91 563.84,-186.79 560.84,-180.46"/>
</g>
<!-- Node14 -->
<g id="node14" class="node">
<title>Node14</title>
<g id="a_node14"><a xlink:href="mesh__base_8h.html" target="_top" xlink:title="Generation of orientated mesh.">
<polygon fill="white" stroke="#666666" points="610,-152.25 477,-152.25 477,-133 610,-133 610,-152.25"/>
<text text-anchor="middle" x="543.5" y="-138.75" font-family="Helvetica,sans-Serif" font-size="10.00">tdms/include/mesh_base.h</text>
</a>
</g>
</g>
<!-- Node13&#45;&gt;Node14 -->
<g id="edge16" class="edge">
<title>Node13&#45;&gt;Node14</title>
<path fill="none" stroke="#63b8ff" d="M529.51,-177.94C533.15,-169.01 537.05,-159.45 539.8,-152.7"/>
<polygon fill="#63b8ff" stroke="#63b8ff" points="525.97,-176.37 525.43,-186.95 532.45,-179.01 525.97,-176.37"/>
</g>
</g>
</svg>
