<?xml version="1.0" encoding="UTF-8" standalone="no"?>
<!DOCTYPE svg PUBLIC "-//W3C//DTD SVG 1.1//EN"
 "http://www.w3.org/Graphics/SVG/1.1/DTD/svg11.dtd">
<!-- Generated by graphviz version 8.0.5 (20230430.1635)
 -->
<!-- Title: tdms/include/globals.h Pages: 1 -->
<svg width="990pt" height="360pt"
 viewBox="0.00 0.00 990.25 359.75" xmlns="http://www.w3.org/2000/svg" xmlns:xlink="http://www.w3.org/1999/xlink">
<g id="graph0" class="graph" transform="scale(1 1) rotate(0) translate(4 355.75)">
<title>tdms/include/globals.h</title>
<!-- Node1 -->
<g id="node1" class="node">
<title>Node1</title>
<g id="a_node1"><a xlink:title="Type definitions and global constants.">
<polygon fill="#999999" stroke="#666666" points="792.25,-351.75 678.75,-351.75 678.75,-332.5 792.25,-332.5 792.25,-351.75"/>
<text text-anchor="middle" x="735.5" y="-338.25" font-family="Helvetica,sans-Serif" font-size="10.00">tdms/include/globals.h</text>
</a>
</g>
</g>
<!-- Node2 -->
<g id="node2" class="node">
<title>Node2</title>
<g id="a_node2"><a xlink:href="argument__parser_8h.html" target="_top" xlink:title="Parse the command line options.">
<polygon fill="white" stroke="#666666" points="229,-296.5 114,-296.5 114,-266 229,-266 229,-296.5"/>
<text text-anchor="start" x="122" y="-283" font-family="Helvetica,sans-Serif" font-size="10.00">tdms/include/argument</text>
<text text-anchor="middle" x="171.5" y="-271.75" font-family="Helvetica,sans-Serif" font-size="10.00">_parser.h</text>
</a>
</g>
</g>
<!-- Node1&#45;&gt;Node2 -->
<g id="edge1" class="edge">
<title>Node1&#45;&gt;Node2</title>
<path fill="none" stroke="#63b8ff" d="M667.5,-334.03C555.49,-322.33 334.16,-299.23 229.26,-288.28"/>
<polygon fill="#63b8ff" stroke="#63b8ff" points="667.01,-337.6 677.32,-335.16 667.73,-330.64 667.01,-337.6"/>
</g>
<!-- Node5 -->
<g id="node5" class="node">
<title>Node5</title>
<g id="a_node5"><a xlink:href="arrays_8h.html" target="_top" xlink:title="Classes describing arrays, vertices etc.">
<polygon fill="white" stroke="#666666" points="667.38,-290.88 557.62,-290.88 557.62,-271.62 667.38,-271.62 667.38,-290.88"/>
<text text-anchor="middle" x="612.5" y="-277.38" font-family="Helvetica,sans-Serif" font-size="10.00">tdms/include/arrays.h</text>
</a>
</g>
</g>
<!-- Node1&#45;&gt;Node5 -->
<g id="edge4" class="edge">
<title>Node1&#45;&gt;Node5</title>
<path fill="none" stroke="#63b8ff" d="M706.87,-327.42C683.58,-316.27 651.39,-300.87 631.27,-291.23"/>
<polygon fill="#63b8ff" stroke="#63b8ff" points="705.02,-330.89 715.55,-332.05 708.04,-324.58 705.02,-330.89"/>
</g>
<!-- Node12 -->
<g id="node12" class="node">
<title>Node12</title>
<g id="a_node12"><a xlink:href="test___vertex_phasors_8cpp.html" target="_top" xlink:title="Unit tests for the VertexPhasors class.">
<polygon fill="white" stroke="#666666" points="828.75,-30.5 724.25,-30.5 724.25,0 828.75,0 828.75,-30.5"/>
<text text-anchor="start" x="732.25" y="-17" font-family="Helvetica,sans-Serif" font-size="10.00">tdms/tests/unit/test</text>
<text text-anchor="middle" x="776.5" y="-5.75" font-family="Helvetica,sans-Serif" font-size="10.00">_VertexPhasors.cpp</text>
</a>
</g>
</g>
<!-- Node1&#45;&gt;Node12 -->
<g id="edge22" class="edge">
<title>Node1&#45;&gt;Node12</title>
<path fill="none" stroke="#63b8ff" d="M754.88,-324.87C778.84,-302.83 816.5,-260.99 816.5,-215.75 816.5,-215.75 816.5,-215.75 816.5,-147.25 816.5,-103.26 795.61,-54.44 784.02,-30.74"/>
<polygon fill="#63b8ff" stroke="#63b8ff" points="752.92,-321.81 747.76,-331.06 757.57,-327.05 752.92,-321.81"/>
</g>
<!-- Node17 -->
<g id="node17" class="node">
<title>Node17</title>
<g id="a_node17"><a xlink:href="test__interpolation__functions_8cpp.html" target="_top" xlink:title="Tests the performance of the interpolation functions, using 1D data mimicing a coordinate axes.">
<polygon fill="white" stroke="#666666" points="982.25,-296.5 844.75,-296.5 844.75,-266 982.25,-266 982.25,-296.5"/>
<text text-anchor="start" x="852.75" y="-283" font-family="Helvetica,sans-Serif" font-size="10.00">tdms/tests/unit/test</text>
<text text-anchor="middle" x="913.5" y="-271.75" font-family="Helvetica,sans-Serif" font-size="10.00">_interpolation_functions.cpp</text>
</a>
</g>
</g>
<!-- Node1&#45;&gt;Node17 -->
<g id="edge23" class="edge">
<title>Node1&#45;&gt;Node17</title>
<path fill="none" stroke="#63b8ff" d="M773.12,-328.68C801.15,-319.41 839.53,-306.72 869.07,-296.94"/>
<polygon fill="#63b8ff" stroke="#63b8ff" points="772.32,-325.59 763.92,-332.05 774.52,-332.24 772.32,-325.59"/>
</g>
<!-- Node3 -->
<g id="node3" class="node">
<title>Node3</title>
<g id="a_node3"><a xlink:href="main_8cpp.html" target="_top" xlink:title="The main function. Launches TDMS.">
<polygon fill="white" stroke="#666666" points="97,-224.38 0,-224.38 0,-205.12 97,-205.12 97,-224.38"/>
<text text-anchor="middle" x="48.5" y="-210.88" font-family="Helvetica,sans-Serif" font-size="10.00">tdms/src/main.cpp</text>
</a>
</g>
</g>
<!-- Node2&#45;&gt;Node3 -->
<g id="edge2" class="edge">
<title>Node2&#45;&gt;Node3</title>
<path fill="none" stroke="#63b8ff" d="M133.89,-260.53C111.15,-248.6 83.26,-233.98 65.68,-224.76"/>
<polygon fill="#63b8ff" stroke="#63b8ff" points="132.11,-264.07 142.59,-265.61 135.36,-257.87 132.11,-264.07"/>
</g>
<!-- Node4 -->
<g id="node4" class="node">
<title>Node4</title>
<g id="a_node4"><a xlink:href="test__argument__parser_8cpp.html" target="_top" xlink:title="Tests of the argument parsing and file I/O.">
<polygon fill="white" stroke="#666666" points="227.5,-230 115.5,-230 115.5,-199.5 227.5,-199.5 227.5,-230"/>
<text text-anchor="start" x="123.5" y="-216.5" font-family="Helvetica,sans-Serif" font-size="10.00">tdms/tests/unit/test</text>
<text text-anchor="middle" x="171.5" y="-205.25" font-family="Helvetica,sans-Serif" font-size="10.00">_argument_parser.cpp</text>
</a>
</g>
</g>
<!-- Node2&#45;&gt;Node4 -->
<g id="edge3" class="edge">
<title>Node2&#45;&gt;Node4</title>
<path fill="none" stroke="#63b8ff" d="M171.5,-254.88C171.5,-246.55 171.5,-237.58 171.5,-230.33"/>
<polygon fill="#63b8ff" stroke="#63b8ff" points="168,-254.61 171.5,-264.61 175,-254.61 168,-254.61"/>
</g>
<!-- Node6 -->
<g id="node6" class="node">
<title>Node6</title>
<g id="a_node6"><a xlink:href="field_8h.html" target="_top" xlink:title="Classes for the electric and magnetic (split) fields on a grid.">
<polygon fill="white" stroke="#666666" points="573.88,-157.88 473.12,-157.88 473.12,-138.62 573.88,-138.62 573.88,-157.88"/>
<text text-anchor="middle" x="523.5" y="-144.38" font-family="Helvetica,sans-Serif" font-size="10.00">tdms/include/field.h</text>
</a>
</g>
</g>
<!-- Node5&#45;&gt;Node6 -->
<g id="edge5" class="edge">
<title>Node5&#45;&gt;Node6</title>
<path fill="none" stroke="#63b8ff" d="M590.81,-264.66C579.4,-255.58 565.88,-243.31 556.5,-230 539.93,-206.48 529.78,-173.39 525.64,-157.89"/>
<polygon fill="#63b8ff" stroke="#63b8ff" points="588.32,-267.92 598.39,-271.21 592.57,-262.36 588.32,-267.92"/>
</g>
<!-- Node8 -->
<g id="node8" class="node">
<title>Node8</title>
<g id="a_node8"><a xlink:href="fieldsample_8h.html" target="_top" xlink:title="Class that stores the extracted field values at user&#45;defined vertices.">
<polygon fill="white" stroke="#666666" points="422.62,-91.38 290.38,-91.38 290.38,-72.12 422.62,-72.12 422.62,-91.38"/>
<text text-anchor="middle" x="356.5" y="-77.88" font-family="Helvetica,sans-Serif" font-size="10.00">tdms/include/fieldsample.h</text>
</a>
</g>
</g>
<!-- Node5&#45;&gt;Node8 -->
<g id="edge12" class="edge">
<title>Node5&#45;&gt;Node8</title>
<path fill="none" stroke="#63b8ff" d="M546.55,-272.66C498.36,-265.58 432.16,-252.6 377.5,-230 327.14,-209.18 300.56,-211.35 274.5,-163.5 268.02,-151.6 267.88,-144.83 274.5,-133 285.92,-112.61 309.37,-99.49 328.28,-91.79"/>
<polygon fill="#63b8ff" stroke="#63b8ff" points="545.76,-276.23 556.16,-274.17 546.75,-269.3 545.76,-276.23"/>
</g>
<!-- Node10 -->
<g id="node10" class="node">
<title>Node10</title>
<g id="a_node10"><a xlink:href="surface__phasors_8h.html" target="_top" xlink:title="Contains a class that handles the complex amplitude extraction.">
<polygon fill="white" stroke="#666666" points="661.88,-97 555.12,-97 555.12,-66.5 661.88,-66.5 661.88,-97"/>
<text text-anchor="start" x="563.12" y="-83.5" font-family="Helvetica,sans-Serif" font-size="10.00">tdms/include/surface</text>
<text text-anchor="middle" x="608.5" y="-72.25" font-family="Helvetica,sans-Serif" font-size="10.00">_phasors.h</text>
</a>
</g>
</g>
<!-- Node5&#45;&gt;Node10 -->
<g id="edge19" class="edge">
<title>Node5&#45;&gt;Node10</title>
<path fill="none" stroke="#63b8ff" d="M601.74,-261.8C596.98,-252.58 591.91,-241.05 589.5,-230 579.01,-181.9 594.75,-123.61 603.42,-97.1"/>
<polygon fill="#63b8ff" stroke="#63b8ff" points="599.14,-263.33 607.02,-270.4 605.27,-259.95 599.14,-263.33"/>
</g>
<!-- Node11 -->
<g id="node11" class="node">
<title>Node11</title>
<g id="a_node11"><a xlink:href="vertex__phasors_8h.html" target="_top" xlink:title="Contains a class that handles the complex amplitude extraction at the vertices.">
<polygon fill="white" stroke="#666666" points="788.25,-97 686.75,-97 686.75,-66.5 788.25,-66.5 788.25,-97"/>
<text text-anchor="start" x="694.75" y="-83.5" font-family="Helvetica,sans-Serif" font-size="10.00">tdms/include/vertex</text>
<text text-anchor="middle" x="737.5" y="-72.25" font-family="Helvetica,sans-Serif" font-size="10.00">_phasors.h</text>
</a>
</g>
</g>
<!-- Node5&#45;&gt;Node11 -->
<g id="edge20" class="edge">
<title>Node5&#45;&gt;Node11</title>
<path fill="none" stroke="#63b8ff" d="M676.08,-268.1C698.6,-260.7 722.13,-248.87 737.5,-230 768.98,-191.35 752.5,-126.14 742.86,-97.26"/>
<polygon fill="#63b8ff" stroke="#63b8ff" points="675.4,-264.95 666.84,-271.2 677.43,-271.65 675.4,-264.95"/>
</g>
<!-- Node13 -->
<g id="node13" class="node">
<title>Node13</title>
<g id="a_node13"><a xlink:href="hdf5__io_8h.html" target="_top" xlink:title="Helper classes for HDF5 file I/O.">
<polygon fill="white" stroke="#666666" points="712.62,-224.38 598.38,-224.38 598.38,-205.12 712.62,-205.12 712.62,-224.38"/>
<text text-anchor="middle" x="655.5" y="-210.88" font-family="Helvetica,sans-Serif" font-size="10.00">tdms/include/hdf5_io.h</text>
</a>
</g>
</g>
<!-- Node5&#45;&gt;Node13 -->
<g id="edge13" class="edge">
<title>Node5&#45;&gt;Node13</title>
<path fill="none" stroke="#63b8ff" d="M624.42,-262.37C632.6,-250.1 643.11,-234.33 649.57,-224.64"/>
<polygon fill="#63b8ff" stroke="#63b8ff" points="621.11,-260.02 618.48,-270.28 626.94,-263.9 621.11,-260.02"/>
</g>
<!-- Node14 -->
<g id="node14" class="node">
<title>Node14</title>
<g id="a_node14"><a xlink:href="test__hdf5__io_8cpp.html" target="_top" xlink:title="Tests of the HDF5 file I/O functionality.">
<polygon fill="white" stroke="#666666" points="740.88,-163.5 640.12,-163.5 640.12,-133 740.88,-133 740.88,-163.5"/>
<text text-anchor="start" x="648.12" y="-150" font-family="Helvetica,sans-Serif" font-size="10.00">tdms/tests/unit/test</text>
<text text-anchor="middle" x="690.5" y="-138.75" font-family="Helvetica,sans-Serif" font-size="10.00">_hdf5_io.cpp</text>
</a>
</g>
</g>
<!-- Node5&#45;&gt;Node14 -->
<g id="edge21" class="edge">
<title>Node5&#45;&gt;Node14</title>
<path fill="none" stroke="#63b8ff" d="M669.37,-267.6C689.35,-260.13 709.73,-248.38 721.5,-230 735.1,-208.75 717.5,-180.62 703.79,-163.78"/>
<polygon fill="#63b8ff" stroke="#63b8ff" points="668.34,-264.6 660,-271.13 670.6,-271.22 668.34,-264.6"/>
</g>
<!-- Node15 -->
<g id="node15" class="node">
<title>Node15</title>
<g id="a_node15"><a xlink:href="simulation__parameters_8h.html" target="_top" xlink:title="Classes collecting parameters for the simulation.">
<polygon fill="white" stroke="#666666" points="504.88,-230 386.12,-230 386.12,-199.5 504.88,-199.5 504.88,-230"/>
<text text-anchor="start" x="394.12" y="-216.5" font-family="Helvetica,sans-Serif" font-size="10.00">tdms/include/simulation</text>
<text text-anchor="middle" x="445.5" y="-205.25" font-family="Helvetica,sans-Serif" font-size="10.00">_parameters.h</text>
</a>
</g>
</g>
<!-- Node5&#45;&gt;Node15 -->
<g id="edge15" class="edge">
<title>Node5&#45;&gt;Node15</title>
<path fill="none" stroke="#63b8ff" d="M578.95,-267.29C551.33,-256.63 512.18,-241.5 483.43,-230.4"/>
<polygon fill="#63b8ff" stroke="#63b8ff" points="577.34,-270.81 587.93,-271.15 579.86,-264.28 577.34,-270.81"/>
</g>
<!-- Node7 -->
<g id="node7" class="node">
<title>Node7</title>
<g id="a_node7"><a xlink:href="array__init_8h.html" target="_top" xlink:title="A collection of functions for array initialisation given MATLAB pointers.">
<polygon fill="white" stroke="#666666" points="536.62,-97 440.38,-97 440.38,-66.5 536.62,-66.5 536.62,-97"/>
<text text-anchor="start" x="448.38" y="-83.5" font-family="Helvetica,sans-Serif" font-size="10.00">tdms/include/array</text>
<text text-anchor="middle" x="488.5" y="-72.25" font-family="Helvetica,sans-Serif" font-size="10.00">_init.h</text>
</a>
</g>
</g>
<!-- Node6&#45;&gt;Node7 -->
<g id="edge6" class="edge">
<title>Node6&#45;&gt;Node7</title>
<path fill="none" stroke="#63b8ff" d="M513.49,-128.8C508.02,-118.73 501.36,-106.44 496.28,-97.09"/>
<polygon fill="#63b8ff" stroke="#63b8ff" points="510.79,-130.16 518.63,-137.28 516.94,-126.82 510.79,-130.16"/>
</g>
<!-- Node6&#45;&gt;Node8 -->
<g id="edge7" class="edge">
<title>Node6&#45;&gt;Node8</title>
<path fill="none" stroke="#63b8ff" d="M489.95,-134.29C457.32,-121.69 408.62,-102.88 379.95,-91.81"/>
<polygon fill="#63b8ff" stroke="#63b8ff" points="488.34,-137.81 498.93,-138.15 490.86,-131.28 488.34,-137.81"/>
</g>
<!-- Node6&#45;&gt;Node10 -->
<g id="edge9" class="edge">
<title>Node6&#45;&gt;Node10</title>
<path fill="none" stroke="#63b8ff" d="M544.06,-131.65C557.82,-121.21 575.8,-107.56 589.27,-97.34"/>
<polygon fill="#63b8ff" stroke="#63b8ff" points="542.17,-129.45 536.32,-138.28 546.4,-135.02 542.17,-129.45"/>
</g>
<!-- Node6&#45;&gt;Node11 -->
<g id="edge10" class="edge">
<title>Node6&#45;&gt;Node11</title>
<path fill="none" stroke="#63b8ff" d="M564.17,-134.99C599.67,-124.29 651.24,-108.75 688.9,-97.4"/>
<polygon fill="#63b8ff" stroke="#63b8ff" points="563.27,-131.91 554.71,-138.15 565.29,-138.61 563.27,-131.91"/>
</g>
<!-- Node9 -->
<g id="node9" class="node">
<title>Node9</title>
<g id="a_node9"><a xlink:href="test___field_sample_8cpp.html" target="_top" xlink:title="Unit tests for the FieldSample class and its subclasses.">
<polygon fill="white" stroke="#666666" points="406.88,-30.5 306.12,-30.5 306.12,0 406.88,0 406.88,-30.5"/>
<text text-anchor="start" x="314.12" y="-17" font-family="Helvetica,sans-Serif" font-size="10.00">tdms/tests/unit/test</text>
<text text-anchor="middle" x="356.5" y="-5.75" font-family="Helvetica,sans-Serif" font-size="10.00">_FieldSample.cpp</text>
</a>
</g>
</g>
<!-- Node8&#45;&gt;Node9 -->
<g id="edge8" class="edge">
<title>Node8&#45;&gt;Node9</title>
<path fill="none" stroke="#63b8ff" d="M356.5,-61.02C356.5,-51.2 356.5,-39.55 356.5,-30.59"/>
<polygon fill="#63b8ff" stroke="#63b8ff" points="353,-60.78 356.5,-70.78 360,-60.78 353,-60.78"/>
</g>
<!-- Node11&#45;&gt;Node12 -->
<g id="edge11" class="edge">
<title>Node11&#45;&gt;Node12</title>
<path fill="none" stroke="#63b8ff" d="M751.99,-56.79C757.26,-48.07 763.05,-38.49 767.69,-30.83"/>
<polygon fill="#63b8ff" stroke="#63b8ff" points="748.53,-54.75 746.35,-65.11 754.52,-58.37 748.53,-54.75"/>
</g>
<!-- Node13&#45;&gt;Node14 -->
<g id="edge14" class="edge">
<title>Node13&#45;&gt;Node14</title>
<path fill="none" stroke="#63b8ff" d="M665.51,-195.3C670.98,-185.23 677.64,-172.94 682.72,-163.59"/>
<polygon fill="#63b8ff" stroke="#63b8ff" points="662.06,-193.32 660.37,-203.78 668.21,-196.66 662.06,-193.32"/>
</g>
<!-- Node15&#45;&gt;Node6 -->
<g id="edge16" class="edge">
<title>Node15&#45;&gt;Node6</title>
<path fill="none" stroke="#63b8ff" d="M471.56,-192.2C485.64,-180.56 502.25,-166.82 512.83,-158.07"/>
<polygon fill="#63b8ff" stroke="#63b8ff" points="469.68,-190.04 464.2,-199.11 474.14,-195.44 469.68,-190.04"/>
</g>
<!-- Node15&#45;&gt;Node8 -->
<g id="edge17" class="edge">
<title>Node15&#45;&gt;Node8</title>
<path fill="none" stroke="#63b8ff" d="M443.73,-188.38C441.52,-171.49 436.57,-149.46 425.5,-133 413.01,-114.43 391.25,-100.29 375.5,-91.8"/>
<polygon fill="#63b8ff" stroke="#63b8ff" points="440.33,-188.55 444.86,-198.13 447.29,-187.82 440.33,-188.55"/>
</g>
<!-- Node16 -->
<g id="node16" class="node">
<title>Node16</title>
<g id="a_node16"><a xlink:href="mesh__base_8h.html" target="_top" xlink:title="Generation of orientated mesh.">
<polygon fill="white" stroke="#666666" points="417,-157.88 284,-157.88 284,-138.62 417,-138.62 417,-157.88"/>
<text text-anchor="middle" x="350.5" y="-144.38" font-family="Helvetica,sans-Serif" font-size="10.00">tdms/include/mesh_base.h</text>
</a>
</g>
</g>
<!-- Node15&#45;&gt;Node16 -->
<g id="edge18" class="edge">
<title>Node15&#45;&gt;Node16</title>
<path fill="none" stroke="#63b8ff" d="M415.26,-193.22C397.93,-181.45 377.05,-167.27 363.77,-158.26"/>
<polygon fill="#63b8ff" stroke="#63b8ff" points="412.7,-196.39 422.94,-199.11 416.64,-190.6 412.7,-196.39"/>
</g>
</g>
</svg>
