<?xml version="1.0" encoding="UTF-8" standalone="no"?>
<!DOCTYPE svg PUBLIC "-//W3C//DTD SVG 1.1//EN"
 "http://www.w3.org/Graphics/SVG/1.1/DTD/svg11.dtd">
<!-- Generated by graphviz version 8.0.2 (20230410.1723)
 -->
<!-- Title: tdms/include/globals.h Pages: 1 -->
<svg width="1236pt" height="346pt"
 viewBox="0.00 0.00 1236.00 346.00" xmlns="http://www.w3.org/2000/svg" xmlns:xlink="http://www.w3.org/1999/xlink">
<g id="graph0" class="graph" transform="scale(1 1) rotate(0) translate(4 342)">
<title>tdms/include/globals.h</title>
<!-- Node1 -->
<g id="node1" class="node">
<title>Node1</title>
<g id="a_node1"><a xlink:title="Type definitions and global constants.">
<polygon fill="#999999" stroke="#666666" points="711,-338 597,-338 597,-319 711,-319 711,-338"/>
<text text-anchor="middle" x="654" y="-326" font-family="Helvetica,sans-Serif" font-size="10.00">tdms/include/globals.h</text>
</a>
</g>
</g>
<!-- Node2 -->
<g id="node2" class="node">
<title>Node2</title>
<g id="a_node2"><a xlink:href="argument__parser_8h.html" target="_top" xlink:title="Parse the command line options.">
<polygon fill="white" stroke="#666666" points="225,-283 109,-283 109,-253 225,-253 225,-283"/>
<text text-anchor="start" x="117" y="-271" font-family="Helvetica,sans-Serif" font-size="10.00">tdms/include/argument</text>
<text text-anchor="middle" x="167" y="-260" font-family="Helvetica,sans-Serif" font-size="10.00">_parser.h</text>
</a>
</g>
</g>
<!-- Node1&#45;&gt;Node2 -->
<g id="edge1" class="edge">
<title>Node1&#45;&gt;Node2</title>
<path fill="none" stroke="#63b8ff" d="M585.94,-319.32C489.76,-307.77 315.72,-286.86 225.21,-275.99"/>
<polygon fill="#63b8ff" stroke="#63b8ff" points="585.36,-322.9 595.7,-320.62 586.19,-315.95 585.36,-322.9"/>
</g>
<!-- Node5 -->
<g id="node5" class="node">
<title>Node5</title>
<g id="a_node5"><a xlink:href="arrays_8h.html" target="_top" xlink:title="Classes describing arrays, vertices etc.">
<polygon fill="white" stroke="#666666" points="651,-277.5 541,-277.5 541,-258.5 651,-258.5 651,-277.5"/>
<text text-anchor="middle" x="596" y="-265.5" font-family="Helvetica,sans-Serif" font-size="10.00">tdms/include/arrays.h</text>
</a>
</g>
</g>
<!-- Node1&#45;&gt;Node5 -->
<g id="edge4" class="edge">
<title>Node1&#45;&gt;Node5</title>
<path fill="none" stroke="#63b8ff" d="M637.91,-311.27C627.12,-300.39 613.35,-286.49 604.59,-277.67"/>
<polygon fill="#63b8ff" stroke="#63b8ff" points="634.92,-313.23 644.44,-317.87 639.89,-308.3 634.92,-313.23"/>
</g>
<!-- Node6 -->
<g id="node6" class="node">
<title>Node6</title>
<g id="a_node6"><a xlink:href="field_8h.html" target="_top" xlink:title="Classes for the electric and magnetic (split) fields on a grid.">
<polygon fill="white" stroke="#666666" points="565.5,-151 464.5,-151 464.5,-132 565.5,-132 565.5,-151"/>
<text text-anchor="middle" x="515" y="-139" font-family="Helvetica,sans-Serif" font-size="10.00">tdms/include/field.h</text>
</a>
</g>
</g>
<!-- Node1&#45;&gt;Node6 -->
<g id="edge19" class="edge">
<title>Node1&#45;&gt;Node6</title>
<path fill="none" stroke="#63b8ff" d="M585.97,-316.82C565.71,-310.31 545.37,-299.84 532,-283 500.23,-242.96 508.87,-175.23 513.22,-151.24"/>
<polygon fill="#63b8ff" stroke="#63b8ff" points="584.94,-320.46 595.52,-319.88 586.89,-313.73 584.94,-320.46"/>
</g>
<!-- Node12 -->
<g id="node12" class="node">
<title>Node12</title>
<g id="a_node12"><a xlink:href="test___vertex_phasors_8cpp.html" target="_top" xlink:title="Unit tests for the VertexPhasors class.">
<polygon fill="white" stroke="#666666" points="723.5,-30 618.5,-30 618.5,0 723.5,0 723.5,-30"/>
<text text-anchor="start" x="626.5" y="-18" font-family="Helvetica,sans-Serif" font-size="10.00">tdms/tests/unit/test</text>
<text text-anchor="middle" x="671" y="-7" font-family="Helvetica,sans-Serif" font-size="10.00">_VertexPhasors.cpp</text>
</a>
</g>
</g>
<!-- Node1&#45;&gt;Node12 -->
<g id="edge24" class="edge">
<title>Node1&#45;&gt;Node12</title>
<path fill="none" stroke="#63b8ff" d="M667.76,-310.14C684.63,-287.08 711,-244.39 711,-203 711,-203 711,-203 711,-140.5 711,-98.95 690.56,-53.19 678.9,-30.46"/>
<polygon fill="#63b8ff" stroke="#63b8ff" points="664.47,-307.69 661.22,-317.77 670.05,-311.92 664.47,-307.69"/>
</g>
<!-- Node15 -->
<g id="node15" class="node">
<title>Node15</title>
<g id="a_node15"><a xlink:href="interpolation__methods_8h.html" target="_top" xlink:title="InterpScheme class methods and supporting functions.">
<polygon fill="white" stroke="#666666" points="944,-283 816,-283 816,-253 944,-253 944,-283"/>
<text text-anchor="start" x="824" y="-271" font-family="Helvetica,sans-Serif" font-size="10.00">tdms/include/interpolation</text>
<text text-anchor="middle" x="880" y="-260" font-family="Helvetica,sans-Serif" font-size="10.00">_methods.h</text>
</a>
</g>
</g>
<!-- Node1&#45;&gt;Node15 -->
<g id="edge20" class="edge">
<title>Node1&#45;&gt;Node15</title>
<path fill="none" stroke="#63b8ff" d="M698.53,-315.97C734.55,-306.65 785.48,-293.47 824.22,-283.44"/>
<polygon fill="#63b8ff" stroke="#63b8ff" points="698.13,-312.72 689.32,-318.62 699.88,-319.5 698.13,-312.72"/>
</g>
<!-- Node18 -->
<g id="node18" class="node">
<title>Node18</title>
<g id="a_node18"><a xlink:href="test__interpolation__functions_8cpp.html" target="_top" xlink:title="Tests the performance of the interpolation functions, using 1D data mimicing a coordinate axes.">
<polygon fill="white" stroke="#666666" points="1228,-217 1090,-217 1090,-187 1228,-187 1228,-217"/>
<text text-anchor="start" x="1098" y="-205" font-family="Helvetica,sans-Serif" font-size="10.00">tdms/tests/unit/test</text>
<text text-anchor="middle" x="1159" y="-194" font-family="Helvetica,sans-Serif" font-size="10.00">_interpolation_functions.cpp</text>
</a>
</g>
</g>
<!-- Node1&#45;&gt;Node18 -->
<g id="edge25" class="edge">
<title>Node1&#45;&gt;Node18</title>
<path fill="none" stroke="#63b8ff" d="M721.93,-321.74C783.1,-315.53 875.11,-303.64 953,-283 1017.16,-266 1088.68,-235.44 1128.31,-217.41"/>
<polygon fill="#63b8ff" stroke="#63b8ff" points="721.86,-318.33 712.25,-322.8 722.55,-325.3 721.86,-318.33"/>
</g>
<!-- Node3 -->
<g id="node3" class="node">
<title>Node3</title>
<g id="a_node3"><a xlink:href="main_8cpp.html" target="_top" xlink:title="The main function. Launches TDMS.">
<polygon fill="white" stroke="#666666" points="98,-211.5 0,-211.5 0,-192.5 98,-192.5 98,-211.5"/>
<text text-anchor="middle" x="49" y="-199.5" font-family="Helvetica,sans-Serif" font-size="10.00">tdms/src/main.cpp</text>
</a>
</g>
</g>
<!-- Node2&#45;&gt;Node3 -->
<g id="edge2" class="edge">
<title>Node2&#45;&gt;Node3</title>
<path fill="none" stroke="#63b8ff" d="M130.91,-247.43C109.14,-235.62 82.44,-221.14 65.57,-211.99"/>
<polygon fill="#63b8ff" stroke="#63b8ff" points="129.06,-250.95 139.52,-252.64 132.4,-244.79 129.06,-250.95"/>
</g>
<!-- Node4 -->
<g id="node4" class="node">
<title>Node4</title>
<g id="a_node4"><a xlink:href="test__openandorder_8cpp.html" target="_top" xlink:title="Tests of the argument parsing and file I/O.">
<polygon fill="white" stroke="#666666" points="217.5,-217 116.5,-217 116.5,-187 217.5,-187 217.5,-217"/>
<text text-anchor="start" x="124.5" y="-205" font-family="Helvetica,sans-Serif" font-size="10.00">tdms/tests/unit/test</text>
<text text-anchor="middle" x="167" y="-194" font-family="Helvetica,sans-Serif" font-size="10.00">_openandorder.cpp</text>
</a>
</g>
</g>
<!-- Node2&#45;&gt;Node4 -->
<g id="edge3" class="edge">
<title>Node2&#45;&gt;Node4</title>
<path fill="none" stroke="#63b8ff" d="M167,-241.97C167,-233.55 167,-224.45 167,-217.16"/>
<polygon fill="#63b8ff" stroke="#63b8ff" points="163.5,-241.8 167,-251.8 170.5,-241.8 163.5,-241.8"/>
</g>
<!-- Node5&#45;&gt;Node6 -->
<g id="edge5" class="edge">
<title>Node5&#45;&gt;Node6</title>
<path fill="none" stroke="#63b8ff" d="M584.22,-248.89C566.58,-221.78 533.97,-171.66 520.77,-151.37"/>
<polygon fill="#63b8ff" stroke="#63b8ff" points="581.79,-250.57 590.17,-257.05 587.65,-246.76 581.79,-250.57"/>
</g>
<!-- Node8 -->
<g id="node8" class="node">
<title>Node8</title>
<g id="a_node8"><a xlink:href="fieldsample_8h.html" target="_top" xlink:title="Class that stores the extracted field values at user&#45;defined vertices.">
<polygon fill="white" stroke="#666666" points="322.5,-90.5 189.5,-90.5 189.5,-71.5 322.5,-71.5 322.5,-90.5"/>
<text text-anchor="middle" x="256" y="-78.5" font-family="Helvetica,sans-Serif" font-size="10.00">tdms/include/fieldsample.h</text>
</a>
</g>
</g>
<!-- Node5&#45;&gt;Node8 -->
<g id="edge12" class="edge">
<title>Node5&#45;&gt;Node8</title>
<path fill="none" stroke="#63b8ff" d="M529.76,-266.97C473.86,-264.14 393.64,-253.24 334,-217 285.42,-187.48 264.06,-115.55 257.94,-90.65"/>
<polygon fill="#63b8ff" stroke="#63b8ff" points="529.46,-270.51 539.6,-267.44 529.76,-263.51 529.46,-270.51"/>
</g>
<!-- Node10 -->
<g id="node10" class="node">
<title>Node10</title>
<g id="a_node10"><a xlink:href="surface__phasors_8h.html" target="_top" xlink:title="Contains a class that handles the complex amplitude extraction.">
<polygon fill="white" stroke="#666666" points="562.5,-96 455.5,-96 455.5,-66 562.5,-66 562.5,-96"/>
<text text-anchor="start" x="463.5" y="-84" font-family="Helvetica,sans-Serif" font-size="10.00">tdms/include/surface</text>
<text text-anchor="middle" x="509" y="-73" font-family="Helvetica,sans-Serif" font-size="10.00">_phasors.h</text>
</a>
</g>
</g>
<!-- Node5&#45;&gt;Node10 -->
<g id="edge17" class="edge">
<title>Node5&#45;&gt;Node10</title>
<path fill="none" stroke="#63b8ff" d="M597.15,-247.41C597.86,-219.71 595.74,-168.41 574,-132 565.09,-117.09 549.92,-105.03 536.46,-96.5"/>
<polygon fill="#63b8ff" stroke="#63b8ff" points="593.62,-246.9 596.7,-257.04 600.62,-247.19 593.62,-246.9"/>
</g>
<!-- Node11 -->
<g id="node11" class="node">
<title>Node11</title>
<g id="a_node11"><a xlink:href="vertex__phasors_8h.html" target="_top" xlink:title="Contains a class that handles the complex amplitude extraction at the vertices.">
<polygon fill="white" stroke="#666666" points="683,-96 581,-96 581,-66 683,-66 683,-96"/>
<text text-anchor="start" x="589" y="-84" font-family="Helvetica,sans-Serif" font-size="10.00">tdms/include/vertex</text>
<text text-anchor="middle" x="632" y="-73" font-family="Helvetica,sans-Serif" font-size="10.00">_phasors.h</text>
</a>
</g>
</g>
<!-- Node5&#45;&gt;Node11 -->
<g id="edge18" class="edge">
<title>Node5&#45;&gt;Node11</title>
<path fill="none" stroke="#63b8ff" d="M600.9,-247.76C603.19,-238.49 605.87,-227.2 608,-217 617.14,-173.19 625.8,-120.92 629.75,-96.24"/>
<polygon fill="#63b8ff" stroke="#63b8ff" points="597.32,-246.63 598.28,-257.18 604.11,-248.34 597.32,-246.63"/>
</g>
<!-- Node13 -->
<g id="node13" class="node">
<title>Node13</title>
<g id="a_node13"><a xlink:href="simulation__parameters_8h.html" target="_top" xlink:title="Classes collecting parameters for the simulation.">
<polygon fill="white" stroke="#666666" points="462.5,-217 343.5,-217 343.5,-187 462.5,-187 462.5,-217"/>
<text text-anchor="start" x="351.5" y="-205" font-family="Helvetica,sans-Serif" font-size="10.00">tdms/include/simulation</text>
<text text-anchor="middle" x="403" y="-194" font-family="Helvetica,sans-Serif" font-size="10.00">_parameters.h</text>
</a>
</g>
</g>
<!-- Node5&#45;&gt;Node13 -->
<g id="edge13" class="edge">
<title>Node5&#45;&gt;Node13</title>
<path fill="none" stroke="#63b8ff" d="M558.88,-254.69C526.83,-244.06 480.48,-228.69 446.66,-217.48"/>
<polygon fill="#63b8ff" stroke="#63b8ff" points="557.57,-258.28 568.16,-258.1 559.77,-251.63 557.57,-258.28"/>
</g>
<!-- Node7 -->
<g id="node7" class="node">
<title>Node7</title>
<g id="a_node7"><a xlink:href="array__init_8h.html" target="_top" xlink:title="A collection of functions for array initialisation given MATLAB pointers.">
<polygon fill="white" stroke="#666666" points="437.5,-96 340.5,-96 340.5,-66 437.5,-66 437.5,-96"/>
<text text-anchor="start" x="348.5" y="-84" font-family="Helvetica,sans-Serif" font-size="10.00">tdms/include/array</text>
<text text-anchor="middle" x="389" y="-73" font-family="Helvetica,sans-Serif" font-size="10.00">_init.h</text>
</a>
</g>
</g>
<!-- Node6&#45;&gt;Node7 -->
<g id="edge6" class="edge">
<title>Node6&#45;&gt;Node7</title>
<path fill="none" stroke="#63b8ff" d="M485.92,-127C466.22,-117.85 440.21,-105.78 420.1,-96.44"/>
<polygon fill="#63b8ff" stroke="#63b8ff" points="484.32,-130.58 494.86,-131.62 487.27,-124.23 484.32,-130.58"/>
</g>
<!-- Node6&#45;&gt;Node8 -->
<g id="edge7" class="edge">
<title>Node6&#45;&gt;Node8</title>
<path fill="none" stroke="#63b8ff" d="M464.94,-129.19C415.54,-118.04 341.03,-101.2 295.61,-90.95"/>
<polygon fill="#63b8ff" stroke="#63b8ff" points="463.86,-132.76 474.38,-131.55 465.4,-125.93 463.86,-132.76"/>
</g>
<!-- Node6&#45;&gt;Node10 -->
<g id="edge9" class="edge">
<title>Node6&#45;&gt;Node10</title>
<path fill="none" stroke="#63b8ff" d="M513.01,-121.08C512.17,-112.92 511.22,-103.6 510.45,-96.11"/>
<polygon fill="#63b8ff" stroke="#63b8ff" points="509.61,-121.28 514.11,-130.87 516.58,-120.56 509.61,-121.28"/>
</g>
<!-- Node6&#45;&gt;Node11 -->
<g id="edge10" class="edge">
<title>Node6&#45;&gt;Node11</title>
<path fill="none" stroke="#63b8ff" d="M542.51,-126.75C560.74,-117.63 584.62,-105.69 603.12,-96.44"/>
<polygon fill="#63b8ff" stroke="#63b8ff" points="541.15,-124.01 533.77,-131.62 544.28,-130.27 541.15,-124.01"/>
</g>
<!-- Node9 -->
<g id="node9" class="node">
<title>Node9</title>
<g id="a_node9"><a xlink:href="test___field_sample_8cpp.html" target="_top" xlink:title="Unit tests for the FieldSample class and its subclasses.">
<polygon fill="white" stroke="#666666" points="306.5,-30 205.5,-30 205.5,0 306.5,0 306.5,-30"/>
<text text-anchor="start" x="213.5" y="-18" font-family="Helvetica,sans-Serif" font-size="10.00">tdms/tests/unit/test</text>
<text text-anchor="middle" x="256" y="-7" font-family="Helvetica,sans-Serif" font-size="10.00">_FieldSample.cpp</text>
</a>
</g>
</g>
<!-- Node8&#45;&gt;Node9 -->
<g id="edge8" class="edge">
<title>Node8&#45;&gt;Node9</title>
<path fill="none" stroke="#63b8ff" d="M256,-60.42C256,-50.68 256,-39.12 256,-30.23"/>
<polygon fill="#63b8ff" stroke="#63b8ff" points="252.5,-60.1 256,-70.1 259.5,-60.1 252.5,-60.1"/>
</g>
<!-- Node11&#45;&gt;Node12 -->
<g id="edge11" class="edge">
<title>Node11&#45;&gt;Node12</title>
<path fill="none" stroke="#63b8ff" d="M646.21,-56.68C651.62,-47.79 657.63,-37.95 662.37,-30.16"/>
<polygon fill="#63b8ff" stroke="#63b8ff" points="642.87,-54.44 640.66,-64.8 648.85,-58.08 642.87,-54.44"/>
</g>
<!-- Node13&#45;&gt;Node6 -->
<g id="edge14" class="edge">
<title>Node13&#45;&gt;Node6</title>
<path fill="none" stroke="#63b8ff" d="M440.24,-181.55C459.79,-171.34 482.79,-159.32 498.06,-151.35"/>
<polygon fill="#63b8ff" stroke="#63b8ff" points="438.93,-178.81 431.69,-186.54 442.17,-185.01 438.93,-178.81"/>
</g>
<!-- Node13&#45;&gt;Node8 -->
<g id="edge15" class="edge">
<title>Node13&#45;&gt;Node8</title>
<path fill="none" stroke="#63b8ff" d="M353.3,-182.23C336.19,-174.26 317.66,-163.81 303,-151 282.7,-133.26 267.09,-104.87 260.07,-90.68"/>
<polygon fill="#63b8ff" stroke="#63b8ff" points="351.61,-185.76 362.17,-186.64 354.46,-179.37 351.61,-185.76"/>
</g>
<!-- Node14 -->
<g id="node14" class="node">
<title>Node14</title>
<g id="a_node14"><a xlink:href="mesh__base_8h.html" target="_top" xlink:title="Generation of orientated mesh.">
<polygon fill="white" stroke="#666666" points="446,-151 312,-151 312,-132 446,-132 446,-151"/>
<text text-anchor="middle" x="379" y="-139" font-family="Helvetica,sans-Serif" font-size="10.00">tdms/include/mesh_base.h</text>
</a>
</g>
</g>
<!-- Node13&#45;&gt;Node14 -->
<g id="edge16" class="edge">
<title>Node13&#45;&gt;Node14</title>
<path fill="none" stroke="#63b8ff" d="M392.94,-176.47C389.25,-167.48 385.31,-157.87 382.56,-151.18"/>
<polygon fill="#63b8ff" stroke="#63b8ff" points="390.03,-177.62 397.07,-185.54 396.51,-174.96 390.03,-177.62"/>
</g>
<!-- Node16 -->
<g id="node16" class="node">
<title>Node16</title>
<g id="a_node16"><a xlink:href="test___b_li__vs__cubic__interpolation_8cpp.html" target="_top" xlink:title="Tests the performance of band&#45;limited interpolation against cubic interpolation.">
<polygon fill="white" stroke="#666666" points="896.5,-217 739.5,-217 739.5,-187 896.5,-187 896.5,-217"/>
<text text-anchor="start" x="747.5" y="-205" font-family="Helvetica,sans-Serif" font-size="10.00">tdms/tests/unit/test</text>
<text text-anchor="middle" x="818" y="-194" font-family="Helvetica,sans-Serif" font-size="10.00">_BLi_vs_cubic_interpolation.cpp</text>
</a>
</g>
</g>
<!-- Node15&#45;&gt;Node16 -->
<g id="edge21" class="edge">
<title>Node15&#45;&gt;Node16</title>
<path fill="none" stroke="#63b8ff" d="M858.77,-245.09C849.82,-235.85 839.66,-225.36 831.72,-217.16"/>
<polygon fill="#63b8ff" stroke="#63b8ff" points="855.77,-247.05 865.24,-251.8 860.8,-242.18 855.77,-247.05"/>
</g>
<!-- Node17 -->
<g id="node17" class="node">
<title>Node17</title>
<g id="a_node17"><a xlink:href="test__interpolation__determination_8cpp.html" target="_top" xlink:title="Tests the logic that determines which interpolation schemes are appropriate.">
<polygon fill="white" stroke="#666666" points="1071.5,-217 914.5,-217 914.5,-187 1071.5,-187 1071.5,-217"/>
<text text-anchor="start" x="922.5" y="-205" font-family="Helvetica,sans-Serif" font-size="10.00">tdms/tests/unit/test</text>
<text text-anchor="middle" x="993" y="-194" font-family="Helvetica,sans-Serif" font-size="10.00">_interpolation_determination.cpp</text>
</a>
</g>
</g>
<!-- Node15&#45;&gt;Node17 -->
<g id="edge22" class="edge">
<title>Node15&#45;&gt;Node17</title>
<path fill="none" stroke="#63b8ff" d="M914.51,-247.45C931.67,-237.73 952.04,-226.2 967.73,-217.31"/>
<polygon fill="#63b8ff" stroke="#63b8ff" points="913.34,-244.66 906.36,-252.64 916.79,-250.75 913.34,-244.66"/>
</g>
<!-- Node15&#45;&gt;Node18 -->
<g id="edge23" class="edge">
<title>Node15&#45;&gt;Node18</title>
<path fill="none" stroke="#63b8ff" d="M953.41,-250.16C997.84,-239.97 1053.91,-227.11 1096.27,-217.39"/>
<polygon fill="#63b8ff" stroke="#63b8ff" points="952.93,-246.91 943.96,-252.56 954.49,-253.73 952.93,-246.91"/>
</g>
</g>
</svg>
