<?xml version="1.0" encoding="UTF-8" standalone="no"?>
<!DOCTYPE svg PUBLIC "-//W3C//DTD SVG 1.1//EN"
 "http://www.w3.org/Graphics/SVG/1.1/DTD/svg11.dtd">
<!-- Generated by graphviz version 8.0.5 (20230430.1635)
 -->
<!-- Title: tdms/include/globals.h Pages: 1 -->
<svg width="882pt" height="349pt"
 viewBox="0.00 0.00 881.75 348.50" xmlns="http://www.w3.org/2000/svg" xmlns:xlink="http://www.w3.org/1999/xlink">
<g id="graph0" class="graph" transform="scale(1 1) rotate(0) translate(4 344.5)">
<title>tdms/include/globals.h</title>
<!-- Node1 -->
<g id="node1" class="node">
<title>Node1</title>
<g id="a_node1"><a xlink:title="Type definitions and global constants.">
<polygon fill="#999999" stroke="#666666" points="672.75,-340.5 559.25,-340.5 559.25,-321.25 672.75,-321.25 672.75,-340.5"/>
<text text-anchor="middle" x="616" y="-327" font-family="Helvetica,sans-Serif" font-size="10.00">tdms/include/globals.h</text>
</a>
</g>
</g>
<!-- Node2 -->
<g id="node2" class="node">
<title>Node2</title>
<g id="a_node2"><a xlink:href="argument__parser_8h.html" target="_top" xlink:title="Parse the command line options.">
<polygon fill="white" stroke="#666666" points="236.5,-285.25 121.5,-285.25 121.5,-254.75 236.5,-254.75 236.5,-285.25"/>
<text text-anchor="start" x="129.5" y="-271.75" font-family="Helvetica,sans-Serif" font-size="10.00">tdms/include/argument</text>
<text text-anchor="middle" x="179" y="-260.5" font-family="Helvetica,sans-Serif" font-size="10.00">_parser.h</text>
</a>
</g>
</g>
<!-- Node1&#45;&gt;Node2 -->
<g id="edge1" class="edge">
<title>Node1&#45;&gt;Node2</title>
<path fill="none" stroke="#63b8ff" d="M547.98,-320.71C462.49,-309.19 317.24,-289.62 236.84,-278.79"/>
<polygon fill="#63b8ff" stroke="#63b8ff" points="547.49,-324.31 557.87,-322.18 548.43,-317.37 547.49,-324.31"/>
</g>
<!-- Node5 -->
<g id="node5" class="node">
<title>Node5</title>
<g id="a_node5"><a xlink:href="arrays_8h.html" target="_top" xlink:title="Classes describing arrays, vertices etc.">
<polygon fill="white" stroke="#666666" points="578.88,-279.62 469.12,-279.62 469.12,-260.38 578.88,-260.38 578.88,-279.62"/>
<text text-anchor="middle" x="524" y="-266.12" font-family="Helvetica,sans-Serif" font-size="10.00">tdms/include/arrays.h</text>
</a>
</g>
</g>
<!-- Node1&#45;&gt;Node5 -->
<g id="edge4" class="edge">
<title>Node1&#45;&gt;Node5</title>
<path fill="none" stroke="#63b8ff" d="M593.13,-315.24C575.88,-304.2 552.75,-289.4 538.1,-280.03"/>
<polygon fill="#63b8ff" stroke="#63b8ff" points="590.72,-318.49 601.03,-320.93 594.49,-312.59 590.72,-318.49"/>
</g>
<!-- Node12 -->
<g id="node12" class="node">
<title>Node12</title>
<g id="a_node12"><a xlink:href="test___vertex_phasors_8cpp.html" target="_top" xlink:title="Unit tests for the VertexPhasors class.">
<polygon fill="white" stroke="#666666" points="658.25,-30.5 553.75,-30.5 553.75,0 658.25,0 658.25,-30.5"/>
<text text-anchor="start" x="561.75" y="-17" font-family="Helvetica,sans-Serif" font-size="10.00">tdms/tests/unit/test</text>
<text text-anchor="middle" x="606" y="-5.75" font-family="Helvetica,sans-Serif" font-size="10.00">_VertexPhasors.cpp</text>
</a>
</g>
</g>
<!-- Node1&#45;&gt;Node12 -->
<g id="edge18" class="edge">
<title>Node1&#45;&gt;Node12</title>
<path fill="none" stroke="#63b8ff" d="M637.71,-314.42C664.91,-293.08 708,-251.8 708,-204.5 708,-204.5 708,-204.5 708,-141.62 708,-107.18 709.49,-94.18 689,-66.5 677.38,-50.79 659.25,-39 642.89,-30.81"/>
<polygon fill="#63b8ff" stroke="#63b8ff" points="636.04,-312.05 630.18,-320.88 640.27,-317.64 636.04,-312.05"/>
</g>
<!-- Node15 -->
<g id="node15" class="node">
<title>Node15</title>
<g id="a_node15"><a xlink:href="test__interpolation__functions_8cpp.html" target="_top" xlink:title="Tests the performance of the interpolation functions, using 1D data mimicing a coordinate axes.">
<polygon fill="white" stroke="#666666" points="873.75,-285.25 736.25,-285.25 736.25,-254.75 873.75,-254.75 873.75,-285.25"/>
<text text-anchor="start" x="744.25" y="-271.75" font-family="Helvetica,sans-Serif" font-size="10.00">tdms/tests/unit/test</text>
<text text-anchor="middle" x="805" y="-260.5" font-family="Helvetica,sans-Serif" font-size="10.00">_interpolation_functions.cpp</text>
</a>
</g>
</g>
<!-- Node1&#45;&gt;Node15 -->
<g id="edge19" class="edge">
<title>Node1&#45;&gt;Node15</title>
<path fill="none" stroke="#63b8ff" d="M655.55,-317.55C685.35,-308.27 726.32,-295.51 757.83,-285.69"/>
<polygon fill="#63b8ff" stroke="#63b8ff" points="654.62,-314.49 646.12,-320.8 656.71,-321.17 654.62,-314.49"/>
</g>
<!-- Node3 -->
<g id="node3" class="node">
<title>Node3</title>
<g id="a_node3"><a xlink:href="main_8cpp.html" target="_top" xlink:title="The main function. Launches TDMS.">
<polygon fill="white" stroke="#666666" points="227.5,-213.12 130.5,-213.12 130.5,-193.88 227.5,-193.88 227.5,-213.12"/>
<text text-anchor="middle" x="179" y="-199.62" font-family="Helvetica,sans-Serif" font-size="10.00">tdms/src/main.cpp</text>
</a>
</g>
</g>
<!-- Node2&#45;&gt;Node3 -->
<g id="edge2" class="edge">
<title>Node2&#45;&gt;Node3</title>
<path fill="none" stroke="#63b8ff" d="M179,-243.43C179,-232.76 179,-221.08 179,-213.32"/>
<polygon fill="#63b8ff" stroke="#63b8ff" points="175.5,-243.36 179,-253.36 182.5,-243.36 175.5,-243.36"/>
</g>
<!-- Node4 -->
<g id="node4" class="node">
<title>Node4</title>
<g id="a_node4"><a xlink:href="test__argument__parser_8cpp.html" target="_top" xlink:title="Tests of the argument parsing and file I/O.">
<polygon fill="white" stroke="#666666" points="112,-218.75 0,-218.75 0,-188.25 112,-188.25 112,-218.75"/>
<text text-anchor="start" x="8" y="-205.25" font-family="Helvetica,sans-Serif" font-size="10.00">tdms/tests/unit/test</text>
<text text-anchor="middle" x="56" y="-194" font-family="Helvetica,sans-Serif" font-size="10.00">_argument_parser.cpp</text>
</a>
</g>
</g>
<!-- Node2&#45;&gt;Node4 -->
<g id="edge3" class="edge">
<title>Node2&#45;&gt;Node4</title>
<path fill="none" stroke="#63b8ff" d="M141.46,-249.31C122.88,-239.57 100.84,-228.01 83.8,-219.08"/>
<polygon fill="#63b8ff" stroke="#63b8ff" points="139.61,-252.82 150.09,-254.36 142.86,-246.62 139.61,-252.82"/>
</g>
<!-- Node6 -->
<g id="node6" class="node">
<title>Node6</title>
<g id="a_node6"><a xlink:href="field_8h.html" target="_top" xlink:title="Classes for the electric and magnetic (split) fields on a grid.">
<polygon fill="white" stroke="#666666" points="574.38,-152.25 473.62,-152.25 473.62,-133 574.38,-133 574.38,-152.25"/>
<text text-anchor="middle" x="524" y="-138.75" font-family="Helvetica,sans-Serif" font-size="10.00">tdms/include/field.h</text>
</a>
</g>
</g>
<!-- Node5&#45;&gt;Node6 -->
<g id="edge5" class="edge">
<title>Node5&#45;&gt;Node6</title>
<path fill="none" stroke="#63b8ff" d="M524,-249.3C524,-221.7 524,-172.63 524,-152.56"/>
<polygon fill="#63b8ff" stroke="#63b8ff" points="520.5,-248.98 524,-258.98 527.5,-248.98 520.5,-248.98"/>
</g>
<!-- Node8 -->
<g id="node8" class="node">
<title>Node8</title>
<g id="a_node8"><a xlink:href="fieldsample_8h.html" target="_top" xlink:title="Class that stores the extracted field values at user&#45;defined vertices.">
<polygon fill="white" stroke="#666666" points="322.12,-91.38 189.88,-91.38 189.88,-72.12 322.12,-72.12 322.12,-91.38"/>
<text text-anchor="middle" x="256" y="-77.88" font-family="Helvetica,sans-Serif" font-size="10.00">tdms/include/fieldsample.h</text>
</a>
</g>
</g>
<!-- Node5&#45;&gt;Node8 -->
<g id="edge12" class="edge">
<title>Node5&#45;&gt;Node8</title>
<path fill="none" stroke="#63b8ff" d="M457.98,-260.29C422.33,-253.26 378.84,-240.76 345,-218.75 295.56,-186.59 267.53,-116.3 258.9,-91.57"/>
<polygon fill="#63b8ff" stroke="#63b8ff" points="457.29,-263.9 467.77,-262.29 458.58,-257.02 457.29,-263.9"/>
</g>
<!-- Node10 -->
<g id="node10" class="node">
<title>Node10</title>
<g id="a_node10"><a xlink:href="surface__phasors_8h.html" target="_top" xlink:title="Contains a class that handles the complex amplitude extraction.">
<polygon fill="white" stroke="#666666" points="680.38,-97 573.62,-97 573.62,-66.5 680.38,-66.5 680.38,-97"/>
<text text-anchor="start" x="581.62" y="-83.5" font-family="Helvetica,sans-Serif" font-size="10.00">tdms/include/surface</text>
<text text-anchor="middle" x="627" y="-72.25" font-family="Helvetica,sans-Serif" font-size="10.00">_phasors.h</text>
</a>
</g>
</g>
<!-- Node5&#45;&gt;Node10 -->
<g id="edge17" class="edge">
<title>Node5&#45;&gt;Node10</title>
<path fill="none" stroke="#63b8ff" d="M534.26,-250.45C554.77,-213.35 600.48,-130.7 618.99,-97.24"/>
<polygon fill="#63b8ff" stroke="#63b8ff" points="530.74,-248.57 528.97,-259.02 536.87,-251.96 530.74,-248.57"/>
</g>
<!-- Node13 -->
<g id="node13" class="node">
<title>Node13</title>
<g id="a_node13"><a xlink:href="simulation__parameters_8h.html" target="_top" xlink:title="Classes collecting parameters for the simulation.">
<polygon fill="white" stroke="#666666" points="472.38,-218.75 353.62,-218.75 353.62,-188.25 472.38,-188.25 472.38,-218.75"/>
<text text-anchor="start" x="361.62" y="-205.25" font-family="Helvetica,sans-Serif" font-size="10.00">tdms/include/simulation</text>
<text text-anchor="middle" x="413" y="-194" font-family="Helvetica,sans-Serif" font-size="10.00">_parameters.h</text>
</a>
</g>
</g>
<!-- Node5&#45;&gt;Node13 -->
<g id="edge13" class="edge">
<title>Node5&#45;&gt;Node13</title>
<path fill="none" stroke="#63b8ff" d="M499.2,-254.59C481,-244.01 456.38,-229.71 438.11,-219.09"/>
<polygon fill="#63b8ff" stroke="#63b8ff" points="497.16,-258.03 507.57,-260.03 500.68,-251.98 497.16,-258.03"/>
</g>
<!-- Node7 -->
<g id="node7" class="node">
<title>Node7</title>
<g id="a_node7"><a xlink:href="array__init_8h.html" target="_top" xlink:title="A collection of functions for array initialisation given MATLAB pointers.">
<polygon fill="white" stroke="#666666" points="436.12,-97 339.88,-97 339.88,-66.5 436.12,-66.5 436.12,-97"/>
<text text-anchor="start" x="347.88" y="-83.5" font-family="Helvetica,sans-Serif" font-size="10.00">tdms/include/array</text>
<text text-anchor="middle" x="388" y="-72.25" font-family="Helvetica,sans-Serif" font-size="10.00">_init.h</text>
</a>
</g>
</g>
<!-- Node6&#45;&gt;Node7 -->
<g id="edge6" class="edge">
<title>Node6&#45;&gt;Node7</title>
<path fill="none" stroke="#63b8ff" d="M492.96,-128.19C471.78,-119.02 443.72,-106.87 421.94,-97.44"/>
<polygon fill="#63b8ff" stroke="#63b8ff" points="491.48,-131.79 502.05,-132.55 494.26,-125.37 491.48,-131.79"/>
</g>
<!-- Node6&#45;&gt;Node8 -->
<g id="edge7" class="edge">
<title>Node6&#45;&gt;Node8</title>
<path fill="none" stroke="#63b8ff" d="M472.25,-130.26C421.26,-119.06 344.37,-102.16 297.33,-91.83"/>
<polygon fill="#63b8ff" stroke="#63b8ff" points="471.19,-133.83 481.71,-132.55 472.7,-126.99 471.19,-133.83"/>
</g>
<!-- Node6&#45;&gt;Node10 -->
<g id="edge9" class="edge">
<title>Node6&#45;&gt;Node10</title>
<path fill="none" stroke="#63b8ff" d="M548.89,-127.4C564.85,-118.27 585.51,-106.46 601.58,-97.28"/>
<polygon fill="#63b8ff" stroke="#63b8ff" points="547.59,-124.68 540.64,-132.68 551.06,-130.76 547.59,-124.68"/>
</g>
<!-- Node11 -->
<g id="node11" class="node">
<title>Node11</title>
<g id="a_node11"><a xlink:href="vertex__phasors_8h.html" target="_top" xlink:title="Contains a class that handles the complex amplitude extraction at the vertices.">
<polygon fill="white" stroke="#666666" points="555.75,-97 454.25,-97 454.25,-66.5 555.75,-66.5 555.75,-97"/>
<text text-anchor="start" x="462.25" y="-83.5" font-family="Helvetica,sans-Serif" font-size="10.00">tdms/include/vertex</text>
<text text-anchor="middle" x="505" y="-72.25" font-family="Helvetica,sans-Serif" font-size="10.00">_phasors.h</text>
</a>
</g>
</g>
<!-- Node6&#45;&gt;Node11 -->
<g id="edge10" class="edge">
<title>Node6&#45;&gt;Node11</title>
<path fill="none" stroke="#63b8ff" d="M517.75,-122.26C515.13,-114.13 512.12,-104.82 509.69,-97.28"/>
<polygon fill="#63b8ff" stroke="#63b8ff" points="514.71,-123.24 521.11,-131.68 521.37,-121.09 514.71,-123.24"/>
</g>
<!-- Node9 -->
<g id="node9" class="node">
<title>Node9</title>
<g id="a_node9"><a xlink:href="test___field_sample_8cpp.html" target="_top" xlink:title="Unit tests for the FieldSample class and its subclasses.">
<polygon fill="white" stroke="#666666" points="306.38,-30.5 205.62,-30.5 205.62,0 306.38,0 306.38,-30.5"/>
<text text-anchor="start" x="213.62" y="-17" font-family="Helvetica,sans-Serif" font-size="10.00">tdms/tests/unit/test</text>
<text text-anchor="middle" x="256" y="-5.75" font-family="Helvetica,sans-Serif" font-size="10.00">_FieldSample.cpp</text>
</a>
</g>
</g>
<!-- Node8&#45;&gt;Node9 -->
<g id="edge8" class="edge">
<title>Node8&#45;&gt;Node9</title>
<path fill="none" stroke="#63b8ff" d="M256,-61.02C256,-51.2 256,-39.55 256,-30.59"/>
<polygon fill="#63b8ff" stroke="#63b8ff" points="252.5,-60.78 256,-70.78 259.5,-60.78 252.5,-60.78"/>
</g>
<!-- Node11&#45;&gt;Node12 -->
<g id="edge11" class="edge">
<title>Node11&#45;&gt;Node12</title>
<path fill="none" stroke="#63b8ff" d="M536.89,-60.39C551.92,-50.79 569.5,-39.56 583.17,-30.83"/>
<polygon fill="#63b8ff" stroke="#63b8ff" points="535.46,-57.78 528.92,-66.11 539.23,-63.68 535.46,-57.78"/>
</g>
<!-- Node13&#45;&gt;Node6 -->
<g id="edge14" class="edge">
<title>Node13&#45;&gt;Node6</title>
<path fill="none" stroke="#63b8ff" d="M450.4,-182.66C469.56,-172.5 491.97,-160.62 506.98,-152.65"/>
<polygon fill="#63b8ff" stroke="#63b8ff" points="448.92,-180.02 441.72,-187.8 452.2,-186.2 448.92,-180.02"/>
</g>
<!-- Node13&#45;&gt;Node8 -->
<g id="edge15" class="edge">
<title>Node13&#45;&gt;Node8</title>
<path fill="none" stroke="#63b8ff" d="M364.77,-183.26C347.49,-175.12 328.47,-164.63 313,-152.25 290.34,-134.12 270.52,-105.65 261.37,-91.43"/>
<polygon fill="#63b8ff" stroke="#63b8ff" points="363.15,-186.83 373.7,-187.78 366.05,-180.45 363.15,-186.83"/>
</g>
<!-- Node14 -->
<g id="node14" class="node">
<title>Node14</title>
<g id="a_node14"><a xlink:href="mesh__base_8h.html" target="_top" xlink:title="Generation of orientated mesh.">
<polygon fill="white" stroke="#666666" points="455.5,-152.25 322.5,-152.25 322.5,-133 455.5,-133 455.5,-152.25"/>
<text text-anchor="middle" x="389" y="-138.75" font-family="Helvetica,sans-Serif" font-size="10.00">tdms/include/mesh_base.h</text>
</a>
</g>
</g>
<!-- Node13&#45;&gt;Node14 -->
<g id="edge16" class="edge">
<title>Node13&#45;&gt;Node14</title>
<path fill="none" stroke="#63b8ff" d="M402.99,-177.94C399.35,-169.01 395.45,-159.45 392.7,-152.7"/>
<polygon fill="#63b8ff" stroke="#63b8ff" points="400.05,-179.01 407.07,-186.95 406.53,-176.37 400.05,-179.01"/>
</g>
</g>
</svg>
