<?xml version="1.0" encoding="UTF-8" standalone="no"?>
<!DOCTYPE svg PUBLIC "-//W3C//DTD SVG 1.1//EN"
 "http://www.w3.org/Graphics/SVG/1.1/DTD/svg11.dtd">
<!-- Generated by graphviz version 8.0.5 (20230430.1635)
 -->
<!-- Title: tdms/include/grid_labels.h Pages: 1 -->
<svg width="179pt" height="138pt"
 viewBox="0.00 0.00 178.88 137.75" xmlns="http://www.w3.org/2000/svg" xmlns:xlink="http://www.w3.org/1999/xlink">
<g id="graph0" class="graph" transform="scale(1 1) rotate(0) translate(4 133.75)">
<title>tdms/include/grid_labels.h</title>
<!-- Node1 -->
<g id="node1" class="node">
<title>Node1</title>
<g id="a_node1"><a xlink:title="Class to hold the labels of a Yee cell.">
<polygon fill="#999999" stroke="#666666" points="149,-129.75 19.75,-129.75 19.75,-110.5 149,-110.5 149,-129.75"/>
<text text-anchor="middle" x="84.38" y="-116.25" font-family="Helvetica,sans-Serif" font-size="10.00">tdms/include/grid_labels.h</text>
</a>
</g>
</g>
<!-- Node2 -->
<g id="node2" class="node">
<title>Node2</title>
<g id="a_node2"><a xlink:href="mat__io_8h.html" target="_top" xlink:title="Includes MATLAB headers for I/O.">
<polygon fill="white" stroke="#666666" points="111.12,-74.5 57.62,-74.5 57.62,-55.25 111.12,-55.25 111.12,-74.5"/>
<text text-anchor="middle" x="84.38" y="-61" font-family="Helvetica,sans-Serif" font-size="10.00">mat_io.h</text>
</a>
</g>
</g>
<!-- Node1&#45;&gt;Node2 -->
<g id="edge1" class="edge">
<title>Node1&#45;&gt;Node2</title>
<path fill="none" stroke="#63b8ff" d="M84.38,-110.33C84.38,-103.67 84.38,-94.24 84.38,-85.78"/>
<polygon fill="#63b8ff" stroke="#63b8ff" points="87.88,-85.86 84.38,-75.86 80.88,-85.86 87.88,-85.86"/>
</g>
<!-- Node3 -->
<g id="node3" class="node">
<title>Node3</title>
<g id="a_node3"><a xlink:title=" ">
<polygon fill="#e0e0e0" stroke="#999999" points="40.75,-19.25 0,-19.25 0,0 40.75,0 40.75,-19.25"/>
<text text-anchor="middle" x="20.38" y="-5.75" font-family="Helvetica,sans-Serif" font-size="10.00">mat.h</text>
</a>
</g>
</g>
<!-- Node2&#45;&gt;Node3 -->
<g id="edge2" class="edge">
<title>Node2&#45;&gt;Node3</title>
<path fill="none" stroke="#63b8ff" d="M73.52,-54.84C64.18,-47.07 50.48,-35.67 39.33,-26.4"/>
<polygon fill="#63b8ff" stroke="#63b8ff" points="42,-23.23 32.07,-19.52 37.52,-28.61 42,-23.23"/>
</g>
<!-- Node4 -->
<g id="node4" class="node">
<title>Node4</title>
<g id="a_node4"><a xlink:title=" ">
<polygon fill="#e0e0e0" stroke="#999999" points="110,-19.25 58.75,-19.25 58.75,0 110,0 110,-19.25"/>
<text text-anchor="middle" x="84.38" y="-5.75" font-family="Helvetica,sans-Serif" font-size="10.00">matrix.h</text>
</a>
</g>
</g>
<!-- Node2&#45;&gt;Node4 -->
<g id="edge3" class="edge">
<title>Node2&#45;&gt;Node4</title>
<path fill="none" stroke="#63b8ff" d="M84.38,-55.08C84.38,-48.42 84.38,-38.99 84.38,-30.53"/>
<polygon fill="#63b8ff" stroke="#63b8ff" points="87.88,-30.61 84.38,-20.61 80.88,-30.61 87.88,-30.61"/>
</g>
<!-- Node5 -->
<g id="node5" class="node">
<title>Node5</title>
<g id="a_node5"><a xlink:title=" ">
<polygon fill="#e0e0e0" stroke="#999999" points="170.88,-19.25 127.88,-19.25 127.88,0 170.88,0 170.88,-19.25"/>
<text text-anchor="middle" x="149.38" y="-5.75" font-family="Helvetica,sans-Serif" font-size="10.00">mex.h</text>
</a>
</g>
</g>
<!-- Node2&#45;&gt;Node5 -->
<g id="edge4" class="edge">
<title>Node2&#45;&gt;Node5</title>
<path fill="none" stroke="#63b8ff" d="M95.4,-54.84C104.89,-47.07 118.8,-35.67 130.12,-26.4"/>
<polygon fill="#63b8ff" stroke="#63b8ff" points="131.99,-28.57 137.51,-19.52 127.56,-23.15 131.99,-28.57"/>
</g>
</g>
</svg>
