<?xml version="1.0" encoding="UTF-8" standalone="no"?>
<!DOCTYPE svg PUBLIC "-//W3C//DTD SVG 1.1//EN"
 "http://www.w3.org/Graphics/SVG/1.1/DTD/svg11.dtd">
<!-- Generated by graphviz version 8.0.5 (20230430.1635)
 -->
<!-- Title: tdms/include/grid_labels.h Pages: 1 -->
<svg width="236pt" height="160pt"
 viewBox="0.00 0.00 235.62 160.25" xmlns="http://www.w3.org/2000/svg" xmlns:xlink="http://www.w3.org/1999/xlink">
<g id="graph0" class="graph" transform="scale(1 1) rotate(0) translate(4 156.25)">
<title>tdms/include/grid_labels.h</title>
<!-- Node1 -->
<g id="node1" class="node">
<title>Node1</title>
<g id="a_node1"><a xlink:title="Class to hold the labels of a Yee cell.">
<polygon fill="#999999" stroke="#666666" points="179,-152.25 49.75,-152.25 49.75,-133 179,-133 179,-152.25"/>
<text text-anchor="middle" x="114.38" y="-138.75" font-family="Helvetica,sans-Serif" font-size="10.00">tdms/include/grid_labels.h</text>
</a>
</g>
</g>
<!-- Node2 -->
<g id="node2" class="node">
<title>Node2</title>
<g id="a_node2"><a xlink:href="surface__phasors_8h.html" target="_top" xlink:title="Contains a class that handles the complex amplitude extraction.">
<polygon fill="white" stroke="#666666" points="106.75,-97 0,-97 0,-66.5 106.75,-66.5 106.75,-97"/>
<text text-anchor="start" x="8" y="-83.5" font-family="Helvetica,sans-Serif" font-size="10.00">tdms/include/surface</text>
<text text-anchor="middle" x="53.38" y="-72.25" font-family="Helvetica,sans-Serif" font-size="10.00">_phasors.h</text>
</a>
</g>
</g>
<!-- Node1&#45;&gt;Node2 -->
<g id="edge1" class="edge">
<title>Node1&#45;&gt;Node2</title>
<path fill="none" stroke="#63b8ff" d="M97.45,-125.29C88.35,-116.51 77.23,-105.77 68.43,-97.28"/>
<polygon fill="#63b8ff" stroke="#63b8ff" points="94.48,-127.26 104.11,-131.68 99.35,-122.22 94.48,-127.26"/>
</g>
<!-- Node3 -->
<g id="node3" class="node">
<title>Node3</title>
<g id="a_node3"><a xlink:href="vertex__phasors_8h.html" target="_top" xlink:title="Contains a class that handles the complex amplitude extraction at the vertices.">
<polygon fill="white" stroke="#666666" points="226.12,-97 124.62,-97 124.62,-66.5 226.12,-66.5 226.12,-97"/>
<text text-anchor="start" x="132.62" y="-83.5" font-family="Helvetica,sans-Serif" font-size="10.00">tdms/include/vertex</text>
<text text-anchor="middle" x="175.38" y="-72.25" font-family="Helvetica,sans-Serif" font-size="10.00">_phasors.h</text>
</a>
</g>
</g>
<!-- Node1&#45;&gt;Node3 -->
<g id="edge2" class="edge">
<title>Node1&#45;&gt;Node3</title>
<path fill="none" stroke="#63b8ff" d="M131.3,-125.29C140.4,-116.51 151.52,-105.77 160.32,-97.28"/>
<polygon fill="#63b8ff" stroke="#63b8ff" points="129.4,-122.22 124.64,-131.68 134.27,-127.26 129.4,-122.22"/>
</g>
<!-- Node4 -->
<g id="node4" class="node">
<title>Node4</title>
<g id="a_node4"><a xlink:href="test___vertex_phasors_8cpp.html" target="_top" xlink:title="Unit tests for the VertexPhasors class.">
<polygon fill="white" stroke="#666666" points="227.62,-30.5 123.12,-30.5 123.12,0 227.62,0 227.62,-30.5"/>
<text text-anchor="start" x="131.12" y="-17" font-family="Helvetica,sans-Serif" font-size="10.00">tdms/tests/unit/test</text>
<text text-anchor="middle" x="175.38" y="-5.75" font-family="Helvetica,sans-Serif" font-size="10.00">_VertexPhasors.cpp</text>
</a>
</g>
</g>
<!-- Node3&#45;&gt;Node4 -->
<g id="edge3" class="edge">
<title>Node3&#45;&gt;Node4</title>
<path fill="none" stroke="#63b8ff" d="M175.38,-55.38C175.38,-47.05 175.38,-38.08 175.38,-30.83"/>
<polygon fill="#63b8ff" stroke="#63b8ff" points="171.88,-55.11 175.38,-65.11 178.88,-55.11 171.88,-55.11"/>
</g>
</g>
</svg>
