<?xml version="1.0" encoding="UTF-8" standalone="no"?>
<!DOCTYPE svg PUBLIC "-//W3C//DTD SVG 1.1//EN"
 "http://www.w3.org/Graphics/SVG/1.1/DTD/svg11.dtd">
<!-- Generated by graphviz version 13.1.0 (20250701.0955)
 -->
<!-- Title: tdms/include/grid_labels.h Pages: 1 -->
<svg width="236pt" height="160pt"
 viewBox="0.00 0.00 236.00 160.00" xmlns="http://www.w3.org/2000/svg" xmlns:xlink="http://www.w3.org/1999/xlink">
<g id="graph0" class="graph" transform="scale(1 1) rotate(0) translate(4 156.25)">
<title>tdms/include/grid_labels.h</title>
<!-- Node1 -->
<g id="Node000001" class="node">
<title>Node1</title>
<g id="a_Node000001"><a xlink:title="Class to hold the labels of a Yee cell.">
<polygon fill="#999999" stroke="#666666" points="179,-152.25 49.75,-152.25 49.75,-133 179,-133 179,-152.25"/>
<text xml:space="preserve" text-anchor="middle" x="114.38" y="-138.75" font-family="Helvetica,sans-Serif" font-size="10.00">tdms/include/grid_labels.h</text>
</a>
</g>
</g>
<!-- Node2 -->
<g id="Node000002" class="node">
<title>Node2</title>
<g id="a_Node000002"><a xlink:href="surface__phasors_8h.html" target="_top" xlink:title="Contains a class that handles the complex amplitude extraction.">
<polygon fill="white" stroke="#666666" points="106.75,-97 0,-97 0,-66.5 106.75,-66.5 106.75,-97"/>
<text xml:space="preserve" text-anchor="start" x="8" y="-83.5" font-family="Helvetica,sans-Serif" font-size="10.00">tdms/include/surface</text>
<text xml:space="preserve" text-anchor="middle" x="53.38" y="-72.25" font-family="Helvetica,sans-Serif" font-size="10.00">_phasors.h</text>
</a>
</g>
</g>
<!-- Node1&#45;&gt;Node2 -->
<g id="edge1_Node000001_Node000002" class="edge">
<title>Node1&#45;&gt;Node2</title>
<g id="a_edge1_Node000001_Node000002"><a xlink:title=" ">
<path fill="none" stroke="#63b8ff" d="M96.89,-124.75C87.9,-116.07 77.05,-105.6 68.43,-97.28"/>
<polygon fill="#63b8ff" stroke="#63b8ff" points="94.4,-127.21 104.02,-131.63 99.26,-122.17 94.4,-127.21"/>
</a>
</g>
</g>
<!-- Node3 -->
<g id="Node000003" class="node">
<title>Node3</title>
<g id="a_Node000003"><a xlink:href="vertex__phasors_8h.html" target="_top" xlink:title="Contains a class that handles the complex amplitude extraction at the vertices.">
<polygon fill="white" stroke="#666666" points="226.12,-97 124.62,-97 124.62,-66.5 226.12,-66.5 226.12,-97"/>
<text xml:space="preserve" text-anchor="start" x="132.62" y="-83.5" font-family="Helvetica,sans-Serif" font-size="10.00">tdms/include/vertex</text>
<text xml:space="preserve" text-anchor="middle" x="175.38" y="-72.25" font-family="Helvetica,sans-Serif" font-size="10.00">_phasors.h</text>
</a>
</g>
</g>
<!-- Node1&#45;&gt;Node3 -->
<g id="edge2_Node000001_Node000003" class="edge">
<title>Node1&#45;&gt;Node3</title>
<g id="a_edge2_Node000001_Node000003"><a xlink:title=" ">
<path fill="none" stroke="#63b8ff" d="M131.86,-124.75C140.85,-116.07 151.7,-105.6 160.32,-97.28"/>
<polygon fill="#63b8ff" stroke="#63b8ff" points="129.49,-122.17 124.73,-131.63 134.35,-127.21 129.49,-122.17"/>
</a>
</g>
</g>
<!-- Node4 -->
<g id="Node000004" class="node">
<title>Node4</title>
<g id="a_Node000004"><a xlink:href="test___vertex_phasors_8cpp.html" target="_top" xlink:title="Unit tests for the VertexPhasors class.">
<polygon fill="white" stroke="#666666" points="227.62,-30.5 123.12,-30.5 123.12,0 227.62,0 227.62,-30.5"/>
<text xml:space="preserve" text-anchor="start" x="131.12" y="-17" font-family="Helvetica,sans-Serif" font-size="10.00">tdms/tests/unit/test</text>
<text xml:space="preserve" text-anchor="middle" x="175.38" y="-5.75" font-family="Helvetica,sans-Serif" font-size="10.00">_VertexPhasors.cpp</text>
</a>
</g>
</g>
<!-- Node3&#45;&gt;Node4 -->
<g id="edge3_Node000003_Node000004" class="edge">
<title>Node3&#45;&gt;Node4</title>
<g id="a_edge3_Node000003_Node000004"><a xlink:title=" ">
<path fill="none" stroke="#63b8ff" d="M175.38,-54.81C175.38,-46.64 175.38,-37.91 175.38,-30.83"/>
<polygon fill="#63b8ff" stroke="#63b8ff" points="171.88,-54.6 175.38,-64.6 178.88,-54.6 171.88,-54.6"/>
</a>
</g>
</g>
</g>
</svg>
