<?xml version="1.0" encoding="UTF-8" standalone="no"?>
<!DOCTYPE svg PUBLIC "-//W3C//DTD SVG 1.1//EN"
 "http://www.w3.org/Graphics/SVG/1.1/DTD/svg11.dtd">
<!-- Generated by graphviz version 8.0.2 (20230410.1723)
 -->
<!-- Title: tdms/include/grid_labels.h Pages: 1 -->
<svg width="182pt" height="137pt"
 viewBox="0.00 0.00 181.50 137.00" xmlns="http://www.w3.org/2000/svg" xmlns:xlink="http://www.w3.org/1999/xlink">
<g id="graph0" class="graph" transform="scale(1 1) rotate(0) translate(4 133)">
<title>tdms/include/grid_labels.h</title>
<!-- Node1 -->
<g id="node1" class="node">
<title>Node1</title>
<g id="a_node1"><a xlink:title="Class to hold the labels of a Yee cell.">
<polygon fill="#999999" stroke="#666666" points="150.5,-129 20.5,-129 20.5,-110 150.5,-110 150.5,-129"/>
<text text-anchor="middle" x="85.5" y="-117" font-family="Helvetica,sans-Serif" font-size="10.00">tdms/include/grid_labels.h</text>
</a>
</g>
</g>
<!-- Node2 -->
<g id="node2" class="node">
<title>Node2</title>
<g id="a_node2"><a xlink:href="mat__io_8h.html" target="_top" xlink:title="Includes MATLAB headers for I/O.">
<polygon fill="white" stroke="#666666" points="112.5,-74 58.5,-74 58.5,-55 112.5,-55 112.5,-74"/>
<text text-anchor="middle" x="85.5" y="-62" font-family="Helvetica,sans-Serif" font-size="10.00">mat_io.h</text>
</a>
</g>
</g>
<!-- Node1&#45;&gt;Node2 -->
<g id="edge1" class="edge">
<title>Node1&#45;&gt;Node2</title>
<path fill="none" stroke="#63b8ff" d="M85.5,-109.75C85.5,-103.11 85.5,-93.73 85.5,-85.31"/>
<polygon fill="#63b8ff" stroke="#63b8ff" points="89,-85.44 85.5,-75.44 82,-85.44 89,-85.44"/>
</g>
<!-- Node3 -->
<g id="node3" class="node">
<title>Node3</title>
<g id="a_node3"><a xlink:title=" ">
<polygon fill="#e0e0e0" stroke="#999999" points="41,-19 0,-19 0,0 41,0 41,-19"/>
<text text-anchor="middle" x="20.5" y="-7" font-family="Helvetica,sans-Serif" font-size="10.00">mat.h</text>
</a>
</g>
</g>
<!-- Node2&#45;&gt;Node3 -->
<g id="edge2" class="edge">
<title>Node2&#45;&gt;Node3</title>
<path fill="none" stroke="#63b8ff" d="M74.47,-54.51C64.99,-46.77 51.08,-35.43 39.75,-26.2"/>
<polygon fill="#63b8ff" stroke="#63b8ff" points="42.33,-22.96 32.36,-19.36 37.9,-28.39 42.33,-22.96"/>
</g>
<!-- Node4 -->
<g id="node4" class="node">
<title>Node4</title>
<g id="a_node4"><a xlink:title=" ">
<polygon fill="#e0e0e0" stroke="#999999" points="111.5,-19 59.5,-19 59.5,0 111.5,0 111.5,-19"/>
<text text-anchor="middle" x="85.5" y="-7" font-family="Helvetica,sans-Serif" font-size="10.00">matrix.h</text>
</a>
</g>
</g>
<!-- Node2&#45;&gt;Node4 -->
<g id="edge3" class="edge">
<title>Node2&#45;&gt;Node4</title>
<path fill="none" stroke="#63b8ff" d="M85.5,-54.75C85.5,-48.11 85.5,-38.73 85.5,-30.31"/>
<polygon fill="#63b8ff" stroke="#63b8ff" points="89,-30.44 85.5,-20.44 82,-30.44 89,-30.44"/>
</g>
<!-- Node5 -->
<g id="node5" class="node">
<title>Node5</title>
<g id="a_node5"><a xlink:title=" ">
<polygon fill="#e0e0e0" stroke="#999999" points="173.5,-19 129.5,-19 129.5,0 173.5,0 173.5,-19"/>
<text text-anchor="middle" x="151.5" y="-7" font-family="Helvetica,sans-Serif" font-size="10.00">mex.h</text>
</a>
</g>
</g>
<!-- Node2&#45;&gt;Node5 -->
<g id="edge4" class="edge">
<title>Node2&#45;&gt;Node5</title>
<path fill="none" stroke="#63b8ff" d="M96.7,-54.51C106.33,-46.77 120.45,-35.43 131.95,-26.2"/>
<polygon fill="#63b8ff" stroke="#63b8ff" points="133.86,-28.35 139.47,-19.36 129.48,-22.89 133.86,-28.35"/>
</g>
</g>
</svg>
