<?xml version="1.0" encoding="UTF-8" standalone="no"?>
<!DOCTYPE svg PUBLIC "-//W3C//DTD SVG 1.1//EN"
 "http://www.w3.org/Graphics/SVG/1.1/DTD/svg11.dtd">
<!-- Generated by graphviz version 8.0.5 (20230430.1635)
 -->
<!-- Title: tdms/include/hdf5_io.h Pages: 1 -->
<svg width="755pt" height="193pt"
 viewBox="0.00 0.00 755.13 193.00" xmlns="http://www.w3.org/2000/svg" xmlns:xlink="http://www.w3.org/1999/xlink">
<g id="graph0" class="graph" transform="scale(1 1) rotate(0) translate(4 189)">
<title>tdms/include/hdf5_io.h</title>
<!-- Node1 -->
<g id="node1" class="node">
<title>Node1</title>
<g id="a_node1"><a xlink:title="Helper classes for HDF5 file I/O.">
<polygon fill="#999999" stroke="#666666" points="367.88,-185 253.62,-185 253.62,-165.75 367.88,-165.75 367.88,-185"/>
<text text-anchor="middle" x="310.75" y="-171.5" font-family="Helvetica,sans-Serif" font-size="10.00">tdms/include/hdf5_io.h</text>
</a>
</g>
</g>
<!-- Node2 -->
<g id="node2" class="node">
<title>Node2</title>
<g id="a_node2"><a xlink:title=" ">
<polygon fill="#e0e0e0" stroke="#999999" points="53.5,-129.75 0,-129.75 0,-110.5 53.5,-110.5 53.5,-129.75"/>
<text text-anchor="middle" x="26.75" y="-116.25" font-family="Helvetica,sans-Serif" font-size="10.00">iostream</text>
</a>
</g>
</g>
<!-- Node1&#45;&gt;Node2 -->
<g id="edge1" class="edge">
<title>Node1&#45;&gt;Node2</title>
<path fill="none" stroke="#63b8ff" d="M254.18,-165.3C205.95,-157.33 134.55,-144.95 64.21,-130.18"/>
<polygon fill="#63b8ff" stroke="#63b8ff" points="65.35,-126.63 54.84,-127.98 63.9,-133.48 65.35,-126.63"/>
</g>
<!-- Node3 -->
<g id="node3" class="node">
<title>Node3</title>
<g id="a_node3"><a xlink:title=" ">
<polygon fill="#e0e0e0" stroke="#999999" points="122.38,-129.75 71.12,-129.75 71.12,-110.5 122.38,-110.5 122.38,-129.75"/>
<text text-anchor="middle" x="96.75" y="-116.25" font-family="Helvetica,sans-Serif" font-size="10.00">memory</text>
</a>
</g>
</g>
<!-- Node1&#45;&gt;Node3 -->
<g id="edge2" class="edge">
<title>Node1&#45;&gt;Node3</title>
<path fill="none" stroke="#63b8ff" d="M274.45,-165.34C235.1,-155.55 172.66,-140.01 133.24,-130.2"/>
<polygon fill="#63b8ff" stroke="#63b8ff" points="134.32,-126.62 123.77,-127.6 132.63,-133.41 134.32,-126.62"/>
</g>
<!-- Node4 -->
<g id="node4" class="node">
<title>Node4</title>
<g id="a_node4"><a xlink:title=" ">
<polygon fill="#e0e0e0" stroke="#999999" points="418.12,-74.5 359.38,-74.5 359.38,-55.25 418.12,-55.25 418.12,-74.5"/>
<text text-anchor="middle" x="388.75" y="-61" font-family="Helvetica,sans-Serif" font-size="10.00">stdexcept</text>
</a>
</g>
</g>
<!-- Node1&#45;&gt;Node4 -->
<g id="edge3" class="edge">
<title>Node1&#45;&gt;Node4</title>
<path fill="none" stroke="#63b8ff" d="M368.06,-169.08C419.27,-163.02 488.76,-151.07 505.75,-129.75 511.08,-123.06 510.6,-117.55 505.75,-110.5 496.62,-97.25 458.92,-84.4 428.75,-75.92"/>
<polygon fill="#63b8ff" stroke="#63b8ff" points="430.02,-72.36 419.45,-73.11 428.18,-79.12 430.02,-72.36"/>
</g>
<!-- Node5 -->
<g id="node5" class="node">
<title>Node5</title>
<g id="a_node5"><a xlink:title=" ">
<polygon fill="#e0e0e0" stroke="#999999" points="477.75,-19.25 437.75,-19.25 437.75,0 477.75,0 477.75,-19.25"/>
<text text-anchor="middle" x="457.75" y="-5.75" font-family="Helvetica,sans-Serif" font-size="10.00">string</text>
</a>
</g>
</g>
<!-- Node1&#45;&gt;Node5 -->
<g id="edge4" class="edge">
<title>Node1&#45;&gt;Node5</title>
<path fill="none" stroke="#63b8ff" d="M311.25,-165.29C312.95,-143.43 320.19,-87.31 350.75,-55.25 371.13,-33.87 403.31,-22.34 427.06,-16.39"/>
<polygon fill="#63b8ff" stroke="#63b8ff" points="427.67,-19.61 436.63,-13.96 426.1,-12.79 427.67,-19.61"/>
</g>
<!-- Node6 -->
<g id="node6" class="node">
<title>Node6</title>
<g id="a_node6"><a xlink:title=" ">
<polygon fill="#e0e0e0" stroke="#999999" points="173.25,-74.5 130.25,-74.5 130.25,-55.25 173.25,-55.25 173.25,-74.5"/>
<text text-anchor="middle" x="151.75" y="-61" font-family="Helvetica,sans-Serif" font-size="10.00">vector</text>
</a>
</g>
</g>
<!-- Node1&#45;&gt;Node6 -->
<g id="edge5" class="edge">
<title>Node1&#45;&gt;Node6</title>
<path fill="none" stroke="#63b8ff" d="M253.21,-168.99C224.59,-163.44 191.54,-152.25 169.75,-129.75 158.34,-117.97 154.06,-99.55 152.5,-85.51"/>
<polygon fill="#63b8ff" stroke="#63b8ff" points="155.92,-85.3 151.72,-75.58 148.94,-85.8 155.92,-85.3"/>
</g>
<!-- Node7 -->
<g id="node7" class="node">
<title>Node7</title>
<g id="a_node7"><a xlink:title=" ">
<polygon fill="#e0e0e0" stroke="#999999" points="394.25,-129.75 339.25,-129.75 339.25,-110.5 394.25,-110.5 394.25,-129.75"/>
<text text-anchor="middle" x="366.75" y="-116.25" font-family="Helvetica,sans-Serif" font-size="10.00">H5Cpp.h</text>
</a>
</g>
</g>
<!-- Node1&#45;&gt;Node7 -->
<g id="edge6" class="edge">
<title>Node1&#45;&gt;Node7</title>
<path fill="none" stroke="#63b8ff" d="M320.25,-165.34C328.26,-157.72 339.93,-146.62 349.58,-137.45"/>
<polygon fill="#63b8ff" stroke="#63b8ff" points="351.56,-140.45 356.39,-131.02 346.73,-135.38 351.56,-140.45"/>
</g>
<!-- Node8 -->
<g id="node8" class="node">
<title>Node8</title>
<g id="a_node8"><a xlink:title=" ">
<polygon fill="#e0e0e0" stroke="#999999" points="496.88,-129.75 412.62,-129.75 412.62,-110.5 496.88,-110.5 496.88,-129.75"/>
<text text-anchor="middle" x="454.75" y="-116.25" font-family="Helvetica,sans-Serif" font-size="10.00">spdlog/spdlog.h</text>
</a>
</g>
</g>
<!-- Node1&#45;&gt;Node8 -->
<g id="edge7" class="edge">
<title>Node1&#45;&gt;Node8</title>
<path fill="none" stroke="#63b8ff" d="M335.18,-165.34C358.45,-156.74 393.73,-143.69 419.94,-134"/>
<polygon fill="#63b8ff" stroke="#63b8ff" points="421.04,-136.95 429.2,-130.2 418.61,-130.39 421.04,-136.95"/>
</g>
<!-- Node9 -->
<g id="node9" class="node">
<title>Node9</title>
<g id="a_node9"><a xlink:href="arrays_8h.html" target="_top" xlink:title="Classes describing arrays, vertices etc.">
<polygon fill="white" stroke="#666666" points="604.38,-129.75 553.12,-129.75 553.12,-110.5 604.38,-110.5 604.38,-129.75"/>
<text text-anchor="middle" x="578.75" y="-116.25" font-family="Helvetica,sans-Serif" font-size="10.00">arrays.h</text>
</a>
</g>
</g>
<!-- Node1&#45;&gt;Node9 -->
<g id="edge8" class="edge">
<title>Node1&#45;&gt;Node9</title>
<path fill="none" stroke="#63b8ff" d="M358.4,-165.32C404.57,-156.49 476.53,-142.55 538.75,-129.75 539.9,-129.51 541.06,-129.27 542.24,-129.03"/>
<polygon fill="#63b8ff" stroke="#63b8ff" points="542.88,-132.26 551.94,-126.76 541.44,-125.41 542.88,-132.26"/>
</g>
<!-- Node15 -->
<g id="node15" class="node">
<title>Node15</title>
<g id="a_node15"><a xlink:href="fdtd__grid__initialiser_8h.html" target="_top" xlink:title="Initialisation of the FDTD grid.">
<polygon fill="white" stroke="#666666" points="283,-129.75 178.5,-129.75 178.5,-110.5 283,-110.5 283,-129.75"/>
<text text-anchor="middle" x="230.75" y="-116.25" font-family="Helvetica,sans-Serif" font-size="10.00">fdtd_grid_initialiser.h</text>
</a>
</g>
</g>
<!-- Node1&#45;&gt;Node15 -->
<g id="edge19" class="edge">
<title>Node1&#45;&gt;Node15</title>
<path fill="none" stroke="#63b8ff" d="M297.18,-165.34C285.23,-157.39 267.57,-145.64 253.47,-136.25"/>
<polygon fill="#63b8ff" stroke="#63b8ff" points="255.65,-132.83 245.39,-130.2 251.77,-138.66 255.65,-132.83"/>
</g>
<!-- Node9&#45;&gt;Node4 -->
<g id="edge10" class="edge">
<title>Node9&#45;&gt;Node4</title>
<path fill="none" stroke="#63b8ff" d="M552.73,-111.83C520.82,-102.89 466.37,-87.63 429.03,-77.17"/>
<polygon fill="#63b8ff" stroke="#63b8ff" points="430.09,-73.55 419.51,-74.22 428.2,-80.29 430.09,-73.55"/>
</g>
<!-- Node9&#45;&gt;Node5 -->
<g id="edge11" class="edge">
<title>Node9&#45;&gt;Node5</title>
<path fill="none" stroke="#63b8ff" d="M567.64,-110.07C556.81,-101.17 539.95,-87.13 525.75,-74.5 507.91,-58.63 488.07,-39.86 474.45,-26.79"/>
<polygon fill="#63b8ff" stroke="#63b8ff" points="477.47,-24.88 467.84,-20.46 472.62,-29.92 477.47,-24.88"/>
</g>
<!-- Node10 -->
<g id="node10" class="node">
<title>Node10</title>
<g id="a_node10"><a xlink:title=" ">
<polygon fill="#e0e0e0" stroke="#999999" points="720.12,-19.25 667.38,-19.25 667.38,0 720.12,0 720.12,-19.25"/>
<text text-anchor="middle" x="693.75" y="-5.75" font-family="Helvetica,sans-Serif" font-size="10.00">complex</text>
</a>
</g>
</g>
<!-- Node9&#45;&gt;Node10 -->
<g id="edge9" class="edge">
<title>Node9&#45;&gt;Node10</title>
<path fill="none" stroke="#63b8ff" d="M604.75,-115.88C646.64,-110.05 726.04,-96.36 742.75,-74.5 755.47,-57.86 736.5,-38.81 718.59,-25.87"/>
<polygon fill="#63b8ff" stroke="#63b8ff" points="720.73,-22.42 710.49,-19.71 716.81,-28.22 720.73,-22.42"/>
</g>
<!-- Node11 -->
<g id="node11" class="node">
<title>Node11</title>
<g id="a_node11"><a xlink:title=" ">
<polygon fill="#e0e0e0" stroke="#999999" points="580.75,-74.5 534.75,-74.5 534.75,-55.25 580.75,-55.25 580.75,-74.5"/>
<text text-anchor="middle" x="557.75" y="-61" font-family="Helvetica,sans-Serif" font-size="10.00">fftw3.h</text>
</a>
</g>
</g>
<!-- Node9&#45;&gt;Node11 -->
<g id="edge12" class="edge">
<title>Node9&#45;&gt;Node11</title>
<path fill="none" stroke="#63b8ff" d="M575.28,-110.33C572.56,-103.44 568.68,-93.59 565.26,-84.91"/>
<polygon fill="#63b8ff" stroke="#63b8ff" points="568.22,-83.88 561.29,-75.86 561.71,-86.45 568.22,-83.88"/>
</g>
<!-- Node12 -->
<g id="node12" class="node">
<title>Node12</title>
<g id="a_node12"><a xlink:href="globals_8h.html" target="_top" xlink:title="Type definitions and global constants.">
<polygon fill="white" stroke="#666666" points="654.25,-74.5 599.25,-74.5 599.25,-55.25 654.25,-55.25 654.25,-74.5"/>
<text text-anchor="middle" x="626.75" y="-61" font-family="Helvetica,sans-Serif" font-size="10.00">globals.h</text>
</a>
</g>
</g>
<!-- Node9&#45;&gt;Node12 -->
<g id="edge13" class="edge">
<title>Node9&#45;&gt;Node12</title>
<path fill="none" stroke="#63b8ff" d="M586.68,-110.33C593.38,-102.9 603.17,-92.04 611.39,-82.91"/>
<polygon fill="#63b8ff" stroke="#63b8ff" points="613.56,-85.63 617.65,-75.86 608.36,-80.94 613.56,-85.63"/>
</g>
<!-- Node13 -->
<g id="node13" class="node">
<title>Node13</title>
<g id="a_node13"><a xlink:title=" ">
<polygon fill="#e0e0e0" stroke="#999999" points="733.25,-74.5 672.25,-74.5 672.25,-55.25 733.25,-55.25 733.25,-74.5"/>
<text text-anchor="middle" x="702.75" y="-61" font-family="Helvetica,sans-Serif" font-size="10.00">matlabio.h</text>
</a>
</g>
</g>
<!-- Node9&#45;&gt;Node13 -->
<g id="edge16" class="edge">
<title>Node9&#45;&gt;Node13</title>
<path fill="none" stroke="#63b8ff" d="M599.78,-110.09C619.47,-101.64 649.13,-88.9 671.56,-79.27"/>
<polygon fill="#63b8ff" stroke="#63b8ff" points="672.8,-82.11 680.61,-74.95 670.04,-75.68 672.8,-82.11"/>
</g>
<!-- Node14 -->
<g id="node14" class="node">
<title>Node14</title>
<g id="a_node14"><a xlink:href="utils_8h.html" target="_top" xlink:title="Useful miscellaneous utility functions.">
<polygon fill="white" stroke="#666666" points="478.88,-74.5 436.62,-74.5 436.62,-55.25 478.88,-55.25 478.88,-74.5"/>
<text text-anchor="middle" x="457.75" y="-61" font-family="Helvetica,sans-Serif" font-size="10.00">utils.h</text>
</a>
</g>
</g>
<!-- Node9&#45;&gt;Node14 -->
<g id="edge17" class="edge">
<title>Node9&#45;&gt;Node14</title>
<path fill="none" stroke="#63b8ff" d="M558.22,-110.09C539.02,-101.64 510.08,-88.9 488.18,-79.27"/>
<polygon fill="#63b8ff" stroke="#63b8ff" points="489.94,-75.78 479.38,-74.95 487.12,-82.18 489.94,-75.78"/>
</g>
<!-- Node12&#45;&gt;Node5 -->
<g id="edge15" class="edge">
<title>Node12&#45;&gt;Node5</title>
<path fill="none" stroke="#63b8ff" d="M598.84,-55.08C568.48,-45.52 520.09,-30.27 488.62,-20.35"/>
<polygon fill="#63b8ff" stroke="#63b8ff" points="489.84,-16.75 479.25,-17.08 487.73,-23.43 489.84,-16.75"/>
</g>
<!-- Node12&#45;&gt;Node10 -->
<g id="edge14" class="edge">
<title>Node12&#45;&gt;Node10</title>
<path fill="none" stroke="#63b8ff" d="M638.12,-54.84C647.99,-46.99 662.52,-35.45 674.25,-26.12"/>
<polygon fill="#63b8ff" stroke="#63b8ff" points="675.9,-28.49 681.55,-19.52 671.55,-23.01 675.9,-28.49"/>
</g>
<!-- Node14&#45;&gt;Node5 -->
<g id="edge18" class="edge">
<title>Node14&#45;&gt;Node5</title>
<path fill="none" stroke="#63b8ff" d="M457.75,-55.08C457.75,-48.42 457.75,-38.99 457.75,-30.53"/>
<polygon fill="#63b8ff" stroke="#63b8ff" points="461.25,-30.61 457.75,-20.61 454.25,-30.61 461.25,-30.61"/>
</g>
<!-- Node15&#45;&gt;Node5 -->
<g id="edge20" class="edge">
<title>Node15&#45;&gt;Node5</title>
<path fill="none" stroke="#63b8ff" d="M237.43,-110.27C248.33,-96.44 271.28,-69.82 296.75,-55.25 338.26,-31.5 393.07,-19.83 426.84,-14.54"/>
<polygon fill="#63b8ff" stroke="#63b8ff" points="427.06,-17.89 436.44,-12.98 426.04,-10.97 427.06,-17.89"/>
</g>
<!-- Node15&#45;&gt;Node6 -->
<g id="edge21" class="edge">
<title>Node15&#45;&gt;Node6</title>
<path fill="none" stroke="#63b8ff" d="M217.35,-110.09C205.55,-102.14 188.11,-90.39 174.19,-81"/>
<polygon fill="#63b8ff" stroke="#63b8ff" points="176.47,-77.64 166.22,-74.95 172.55,-83.44 176.47,-77.64"/>
</g>
<!-- Node16 -->
<g id="node16" class="node">
<title>Node16</title>
<g id="a_node16"><a xlink:href="mat__io_8h.html" target="_top" xlink:title="Includes MATLAB headers for I/O.">
<polygon fill="white" stroke="#666666" points="244.5,-74.5 191,-74.5 191,-55.25 244.5,-55.25 244.5,-74.5"/>
<text text-anchor="middle" x="217.75" y="-61" font-family="Helvetica,sans-Serif" font-size="10.00">mat_io.h</text>
</a>
</g>
</g>
<!-- Node15&#45;&gt;Node16 -->
<g id="edge22" class="edge">
<title>Node15&#45;&gt;Node16</title>
<path fill="none" stroke="#63b8ff" d="M228.6,-110.33C226.96,-103.59 224.62,-94.02 222.54,-85.49"/>
<polygon fill="#63b8ff" stroke="#63b8ff" points="225.72,-84.74 219.94,-75.86 218.91,-86.4 225.72,-84.74"/>
</g>
<!-- Node17 -->
<g id="node17" class="node">
<title>Node17</title>
<g id="a_node17"><a xlink:title=" ">
<polygon fill="#e0e0e0" stroke="#999999" points="238.12,-19.25 197.38,-19.25 197.38,0 238.12,0 238.12,-19.25"/>
<text text-anchor="middle" x="217.75" y="-5.75" font-family="Helvetica,sans-Serif" font-size="10.00">mat.h</text>
</a>
</g>
</g>
<!-- Node16&#45;&gt;Node17 -->
<g id="edge23" class="edge">
<title>Node16&#45;&gt;Node17</title>
<path fill="none" stroke="#63b8ff" d="M217.75,-55.08C217.75,-48.42 217.75,-38.99 217.75,-30.53"/>
<polygon fill="#63b8ff" stroke="#63b8ff" points="221.25,-30.61 217.75,-20.61 214.25,-30.61 221.25,-30.61"/>
</g>
<!-- Node18 -->
<g id="node18" class="node">
<title>Node18</title>
<g id="a_node18"><a xlink:title=" ">
<polygon fill="#e0e0e0" stroke="#999999" points="307.38,-19.25 256.12,-19.25 256.12,0 307.38,0 307.38,-19.25"/>
<text text-anchor="middle" x="281.75" y="-5.75" font-family="Helvetica,sans-Serif" font-size="10.00">matrix.h</text>
</a>
</g>
</g>
<!-- Node16&#45;&gt;Node18 -->
<g id="edge24" class="edge">
<title>Node16&#45;&gt;Node18</title>
<path fill="none" stroke="#63b8ff" d="M228.61,-54.84C237.95,-47.07 251.64,-35.67 262.79,-26.4"/>
<polygon fill="#63b8ff" stroke="#63b8ff" points="264.61,-28.61 270.05,-19.52 260.13,-23.23 264.61,-28.61"/>
</g>
<!-- Node19 -->
<g id="node19" class="node">
<title>Node19</title>
<g id="a_node19"><a xlink:title=" ">
<polygon fill="#e0e0e0" stroke="#999999" points="179.25,-19.25 136.25,-19.25 136.25,0 179.25,0 179.25,-19.25"/>
<text text-anchor="middle" x="157.75" y="-5.75" font-family="Helvetica,sans-Serif" font-size="10.00">mex.h</text>
</a>
</g>
</g>
<!-- Node16&#45;&gt;Node19 -->
<g id="edge25" class="edge">
<title>Node16&#45;&gt;Node19</title>
<path fill="none" stroke="#63b8ff" d="M207.57,-54.84C198.9,-47.15 186.23,-35.9 175.83,-26.68"/>
<polygon fill="#63b8ff" stroke="#63b8ff" points="178.58,-24.54 168.78,-20.52 173.93,-29.78 178.58,-24.54"/>
</g>
</g>
</svg>
