<?xml version="1.0" encoding="UTF-8" standalone="no"?>
<!DOCTYPE svg PUBLIC "-//W3C//DTD SVG 1.1//EN"
 "http://www.w3.org/Graphics/SVG/1.1/DTD/svg11.dtd">
<!-- Generated by graphviz version 8.0.5 (20230430.1635)
 -->
<!-- Title: tdms/include/hdf5_io.h Pages: 1 -->
<svg width="426pt" height="83pt"
 viewBox="0.00 0.00 425.88 82.50" xmlns="http://www.w3.org/2000/svg" xmlns:xlink="http://www.w3.org/1999/xlink">
<g id="graph0" class="graph" transform="scale(1 1) rotate(0) translate(4 78.5)">
<title>tdms/include/hdf5_io.h</title>
<!-- Node1 -->
<g id="node1" class="node">
<title>Node1</title>
<g id="a_node1"><a xlink:title="Helper classes for HDF5 file I/O.">
<polygon fill="#999999" stroke="#666666" points="247.88,-74.5 133.62,-74.5 133.62,-55.25 247.88,-55.25 247.88,-74.5"/>
<text text-anchor="middle" x="190.75" y="-61" font-family="Helvetica,sans-Serif" font-size="10.00">tdms/include/hdf5_io.h</text>
</a>
</g>
</g>
<!-- Node2 -->
<g id="node2" class="node">
<title>Node2</title>
<g id="a_node2"><a xlink:title=" ">
<polygon fill="#e0e0e0" stroke="#999999" points="53.5,-19.25 0,-19.25 0,0 53.5,0 53.5,-19.25"/>
<text text-anchor="middle" x="26.75" y="-5.75" font-family="Helvetica,sans-Serif" font-size="10.00">iostream</text>
</a>
</g>
</g>
<!-- Node1&#45;&gt;Node2 -->
<g id="edge1" class="edge">
<title>Node1&#45;&gt;Node2</title>
<path fill="none" stroke="#63b8ff" d="M162.93,-54.84C135.71,-46 94.07,-32.48 64,-22.72"/>
<polygon fill="#63b8ff" stroke="#63b8ff" points="65.48,-19.2 54.89,-19.44 63.32,-25.85 65.48,-19.2"/>
</g>
<!-- Node3 -->
<g id="node3" class="node">
<title>Node3</title>
<g id="a_node3"><a xlink:title=" ">
<polygon fill="#e0e0e0" stroke="#999999" points="122.38,-19.25 71.12,-19.25 71.12,0 122.38,0 122.38,-19.25"/>
<text text-anchor="middle" x="96.75" y="-5.75" font-family="Helvetica,sans-Serif" font-size="10.00">memory</text>
</a>
</g>
</g>
<!-- Node1&#45;&gt;Node3 -->
<g id="edge2" class="edge">
<title>Node1&#45;&gt;Node3</title>
<path fill="none" stroke="#63b8ff" d="M174.8,-54.84C160.35,-46.66 138.82,-34.46 122.02,-24.94"/>
<polygon fill="#63b8ff" stroke="#63b8ff" points="124.2,-21.59 113.77,-19.7 120.75,-27.68 124.2,-21.59"/>
</g>
<!-- Node4 -->
<g id="node4" class="node">
<title>Node4</title>
<g id="a_node4"><a xlink:title=" ">
<polygon fill="#e0e0e0" stroke="#999999" points="180.75,-19.25 140.75,-19.25 140.75,0 180.75,0 180.75,-19.25"/>
<text text-anchor="middle" x="160.75" y="-5.75" font-family="Helvetica,sans-Serif" font-size="10.00">string</text>
</a>
</g>
</g>
<!-- Node1&#45;&gt;Node4 -->
<g id="edge3" class="edge">
<title>Node1&#45;&gt;Node4</title>
<path fill="none" stroke="#63b8ff" d="M185.8,-55.08C181.82,-48.03 176.11,-37.9 171.15,-29.08"/>
<polygon fill="#63b8ff" stroke="#63b8ff" points="173.77,-27.6 165.81,-20.61 167.67,-31.04 173.77,-27.6"/>
</g>
<!-- Node5 -->
<g id="node5" class="node">
<title>Node5</title>
<g id="a_node5"><a xlink:title=" ">
<polygon fill="#e0e0e0" stroke="#999999" points="242.25,-19.25 199.25,-19.25 199.25,0 242.25,0 242.25,-19.25"/>
<text text-anchor="middle" x="220.75" y="-5.75" font-family="Helvetica,sans-Serif" font-size="10.00">vector</text>
</a>
</g>
</g>
<!-- Node1&#45;&gt;Node5 -->
<g id="edge4" class="edge">
<title>Node1&#45;&gt;Node5</title>
<path fill="none" stroke="#63b8ff" d="M195.7,-55.08C199.68,-48.03 205.39,-37.9 210.35,-29.08"/>
<polygon fill="#63b8ff" stroke="#63b8ff" points="213.83,-31.04 215.69,-20.61 207.73,-27.6 213.83,-31.04"/>
</g>
<!-- Node6 -->
<g id="node6" class="node">
<title>Node6</title>
<g id="a_node6"><a xlink:title=" ">
<polygon fill="#e0e0e0" stroke="#999999" points="315.25,-19.25 260.25,-19.25 260.25,0 315.25,0 315.25,-19.25"/>
<text text-anchor="middle" x="287.75" y="-5.75" font-family="Helvetica,sans-Serif" font-size="10.00">H5Cpp.h</text>
</a>
</g>
</g>
<!-- Node1&#45;&gt;Node6 -->
<g id="edge5" class="edge">
<title>Node1&#45;&gt;Node6</title>
<path fill="none" stroke="#63b8ff" d="M207.2,-54.84C222.12,-46.66 244.34,-34.46 261.67,-24.94"/>
<polygon fill="#63b8ff" stroke="#63b8ff" points="263.13,-27.58 270.21,-19.7 259.76,-21.45 263.13,-27.58"/>
</g>
<!-- Node7 -->
<g id="node7" class="node">
<title>Node7</title>
<g id="a_node7"><a xlink:title=" ">
<polygon fill="#e0e0e0" stroke="#999999" points="417.88,-19.25 333.62,-19.25 333.62,0 417.88,0 417.88,-19.25"/>
<text text-anchor="middle" x="375.75" y="-5.75" font-family="Helvetica,sans-Serif" font-size="10.00">spdlog/spdlog.h</text>
</a>
</g>
</g>
<!-- Node1&#45;&gt;Node7 -->
<g id="edge6" class="edge">
<title>Node1&#45;&gt;Node7</title>
<path fill="none" stroke="#63b8ff" d="M222.13,-54.84C252.83,-46.01 299.78,-32.49 333.7,-22.73"/>
<polygon fill="#63b8ff" stroke="#63b8ff" points="334.57,-25.83 343.21,-19.7 332.64,-19.11 334.57,-25.83"/>
</g>
</g>
</svg>
