<?xml version="1.0" encoding="UTF-8" standalone="no"?>
<!DOCTYPE svg PUBLIC "-//W3C//DTD SVG 1.1//EN"
 "http://www.w3.org/Graphics/SVG/1.1/DTD/svg11.dtd">
<!-- Generated by graphviz version 8.0.2 (20230410.1723)
 -->
<!-- Title: Graphical Class Hierarchy Pages: 1 -->
<svg width="207pt" height="138pt"
 viewBox="0.00 0.00 207.00 138.00" xmlns="http://www.w3.org/2000/svg" xmlns:xlink="http://www.w3.org/1999/xlink">
<g id="graph0" class="graph" transform="scale(1 1) rotate(0) translate(4 134)">
<title>Graphical Class Hierarchy</title>
<!-- Node0 -->
<g id="node1" class="node">
<title>Node0</title>
<g id="a_node1"><a xlink:href="class_c_collection_base.html" target="_top" xlink:title="A class to encapsulate collection of algebraic terms in the discretized forms of Maxwells equations f...">
<polygon fill="white" stroke="#666666" points="92.5,-120 2.5,-120 2.5,-101 92.5,-101 92.5,-120"/>
<text text-anchor="middle" x="47.5" y="-108" font-family="Helvetica,sans-Serif" font-size="10.00">CCollectionBase</text>
</a>
</g>
</g>
<!-- Node1 -->
<g id="node2" class="node">
<title>Node1</title>
<g id="a_node2"><a xlink:href="class_c_collection.html" target="_top" xlink:title="A class to encapsulate collection of algebraic terms in the discretized forms of Maxwells equations f...">
<polygon fill="white" stroke="#666666" points="199,-130 131,-130 131,-111 199,-111 199,-130"/>
<text text-anchor="middle" x="165" y="-118" font-family="Helvetica,sans-Serif" font-size="10.00">CCollection</text>
</a>
</g>
</g>
<!-- Node0&#45;&gt;Node1 -->
<g id="edge1" class="edge">
<title>Node0&#45;&gt;Node1</title>
<path fill="none" stroke="#63b8ff" d="M103.61,-115.27C112.88,-116.07 122.24,-116.88 130.74,-117.62"/>
<polygon fill="#63b8ff" stroke="#63b8ff" points="104.09,-111.71 93.82,-114.34 103.49,-118.69 104.09,-111.71"/>
</g>
<!-- Node2 -->
<g id="node3" class="node">
<title>Node2</title>
<g id="a_node3"><a xlink:href="class_c_material.html" target="_top" xlink:title="A class to encapsulate collection of algebraic terms in the discretized forms of Maxwells equations f...">
<polygon fill="white" stroke="#666666" points="194.5,-93 135.5,-93 135.5,-74 194.5,-74 194.5,-93"/>
<text text-anchor="middle" x="165" y="-81" font-family="Helvetica,sans-Serif" font-size="10.00">CMaterial</text>
</a>
</g>
</g>
<!-- Node0&#45;&gt;Node2 -->
<g id="edge2" class="edge">
<title>Node0&#45;&gt;Node2</title>
<path fill="none" stroke="#63b8ff" d="M101.66,-98.07C113.2,-95.38 124.99,-92.62 135.16,-90.24"/>
<polygon fill="#63b8ff" stroke="#63b8ff" points="101.12,-94.84 92.18,-100.52 102.71,-101.65 101.12,-94.84"/>
</g>
<!-- Node5 -->
<g id="node4" class="node">
<title>Node5</title>
<g id="a_node4"><a xlink:href="class_d_collection_base.html" target="_top" xlink:title="A class to encapsulate collection of algebraic terms in the discretized forms of Maxwells equations f...">
<polygon fill="white" stroke="#666666" points="92.5,-19 2.5,-19 2.5,0 92.5,0 92.5,-19"/>
<text text-anchor="middle" x="47.5" y="-7" font-family="Helvetica,sans-Serif" font-size="10.00">DCollectionBase</text>
</a>
</g>
</g>
<!-- Node6 -->
<g id="node5" class="node">
<title>Node6</title>
<g id="a_node5"><a xlink:href="class_d_collection.html" target="_top" xlink:title="A class to encapsulate collection of algebraic terms in the discretized forms of Maxwells equations f...">
<polygon fill="white" stroke="#666666" points="199,-19 131,-19 131,0 199,0 199,-19"/>
<text text-anchor="middle" x="165" y="-7" font-family="Helvetica,sans-Serif" font-size="10.00">DCollection</text>
</a>
</g>
</g>
<!-- Node5&#45;&gt;Node6 -->
<g id="edge3" class="edge">
<title>Node5&#45;&gt;Node6</title>
<path fill="none" stroke="#63b8ff" d="M103.61,-9.5C112.88,-9.5 122.24,-9.5 130.74,-9.5"/>
<polygon fill="#63b8ff" stroke="#63b8ff" points="103.83,-6 93.82,-9.5 103.82,-13 103.83,-6"/>
</g>
<!-- Node4 -->
<g id="node6" class="node">
<title>Node4</title>
<g id="a_node6"><a xlink:href="class_d_material.html" target="_top" xlink:title="A class to encapsulate collection of algebraic terms in the discretized forms of Maxwells equations f...">
<polygon fill="white" stroke="#666666" points="194.5,-56 135.5,-56 135.5,-37 194.5,-37 194.5,-56"/>
<text text-anchor="middle" x="165" y="-44" font-family="Helvetica,sans-Serif" font-size="10.00">DMaterial</text>
</a>
</g>
</g>
<!-- Node5&#45;&gt;Node4 -->
<g id="edge4" class="edge">
<title>Node5&#45;&gt;Node4</title>
<path fill="none" stroke="#63b8ff" d="M89.61,-22.67C104.74,-27.52 121.54,-32.9 135.34,-37.32"/>
<polygon fill="#63b8ff" stroke="#63b8ff" points="91.04,-19.13 80.45,-19.42 88.91,-25.8 91.04,-19.13"/>
</g>
<!-- Node3 -->
<g id="node7" class="node">
<title>Node3</title>
<g id="a_node7"><a xlink:href="class_material_collection.html" target="_top" xlink:title=" ">
<polygon fill="white" stroke="#666666" points="95,-74 0,-74 0,-55 95,-55 95,-74"/>
<text text-anchor="middle" x="47.5" y="-62" font-family="Helvetica,sans-Serif" font-size="10.00">MaterialCollection</text>
</a>
</g>
</g>
<!-- Node3&#45;&gt;Node2 -->
<g id="edge5" class="edge">
<title>Node3&#45;&gt;Node2</title>
<path fill="none" stroke="#8b1a1a" d="M106.02,-73.96C116.19,-75.64 126.37,-77.31 135.3,-78.78"/>
<polygon fill="#8b1a1a" stroke="#8b1a1a" points="106.91,-70.4 96.48,-72.23 105.78,-77.3 106.91,-70.4"/>
</g>
<!-- Node3&#45;&gt;Node4 -->
<g id="edge6" class="edge">
<title>Node3&#45;&gt;Node4</title>
<path fill="none" stroke="#8b1a1a" d="M106.34,-55.49C116.41,-53.92 126.47,-52.35 135.3,-50.97"/>
<polygon fill="#8b1a1a" stroke="#8b1a1a" points="105.82,-52.18 96.48,-57.18 106.9,-59.1 105.82,-52.18"/>
</g>
</g>
</svg>
