<?xml version="1.0" encoding="UTF-8" standalone="no"?>
<!DOCTYPE svg PUBLIC "-//W3C//DTD SVG 1.1//EN"
 "http://www.w3.org/Graphics/SVG/1.1/DTD/svg11.dtd">
<!-- Generated by graphviz version 8.0.4 (20230421.1958)
 -->
<!-- Title: Graphical Class Hierarchy Pages: 1 -->
<svg width="205pt" height="138pt"
 viewBox="0.00 0.00 205.00 138.25" xmlns="http://www.w3.org/2000/svg" xmlns:xlink="http://www.w3.org/1999/xlink">
<g id="graph0" class="graph" transform="scale(1 1) rotate(0) translate(4 134.25)">
<title>Graphical Class Hierarchy</title>
<!-- Node0 -->
<g id="node1" class="node">
<title>Node0</title>
<g id="a_node1"><a xlink:href="class_c_collection_base.html" target="_top" xlink:title="A class to encapsulate collection of algebraic terms in the discretized forms of Maxwells equations f...">
<polygon fill="white" stroke="#666666" points="91.75,-120.25 2.25,-120.25 2.25,-101 91.75,-101 91.75,-120.25"/>
<text text-anchor="middle" x="47" y="-106.75" font-family="Helvetica,sans-Serif" font-size="10.00">CCollectionBase</text>
</a>
</g>
</g>
<!-- Node1 -->
<g id="node2" class="node">
<title>Node1</title>
<g id="a_node2"><a xlink:href="class_c_collection.html" target="_top" xlink:title="A class to encapsulate collection of algebraic terms in the discretized forms of Maxwells equations f...">
<polygon fill="white" stroke="#666666" points="197,-130.25 130,-130.25 130,-111 197,-111 197,-130.25"/>
<text text-anchor="middle" x="163.5" y="-116.75" font-family="Helvetica,sans-Serif" font-size="10.00">CCollection</text>
</a>
</g>
</g>
<!-- Node0&#45;&gt;Node1 -->
<g id="edge1" class="edge">
<title>Node0&#45;&gt;Node1</title>
<path fill="none" stroke="#63b8ff" d="M102.63,-115.4C111.82,-116.2 121.1,-117.01 129.53,-117.75"/>
<polygon fill="#63b8ff" stroke="#63b8ff" points="103.21,-111.85 92.94,-114.46 102.6,-118.82 103.21,-111.85"/>
</g>
<!-- Node2 -->
<g id="node3" class="node">
<title>Node2</title>
<g id="a_node3"><a xlink:href="class_c_material.html" target="_top" xlink:title="A class to encapsulate collection of algebraic terms in the discretized forms of Maxwells equations f...">
<polygon fill="white" stroke="#666666" points="192.5,-93.25 134.5,-93.25 134.5,-74 192.5,-74 192.5,-93.25"/>
<text text-anchor="middle" x="163.5" y="-79.75" font-family="Helvetica,sans-Serif" font-size="10.00">CMaterial</text>
</a>
</g>
</g>
<!-- Node0&#45;&gt;Node2 -->
<g id="edge2" class="edge">
<title>Node0&#45;&gt;Node2</title>
<path fill="none" stroke="#63b8ff" d="M101,-98.13C112.41,-95.44 124.04,-92.69 134.08,-90.33"/>
<polygon fill="#63b8ff" stroke="#63b8ff" points="100.57,-94.87 91.64,-100.57 102.17,-101.68 100.57,-94.87"/>
</g>
<!-- Node5 -->
<g id="node4" class="node">
<title>Node5</title>
<g id="a_node4"><a xlink:href="class_d_collection_base.html" target="_top" xlink:title="A class to encapsulate collection of algebraic terms in the discretized forms of Maxwells equations f...">
<polygon fill="white" stroke="#666666" points="91.75,-19.25 2.25,-19.25 2.25,0 91.75,0 91.75,-19.25"/>
<text text-anchor="middle" x="47" y="-5.75" font-family="Helvetica,sans-Serif" font-size="10.00">DCollectionBase</text>
</a>
</g>
</g>
<!-- Node6 -->
<g id="node5" class="node">
<title>Node6</title>
<g id="a_node5"><a xlink:href="class_d_collection.html" target="_top" xlink:title="A class to encapsulate collection of algebraic terms in the discretized forms of Maxwells equations f...">
<polygon fill="white" stroke="#666666" points="197,-19.25 130,-19.25 130,0 197,0 197,-19.25"/>
<text text-anchor="middle" x="163.5" y="-5.75" font-family="Helvetica,sans-Serif" font-size="10.00">DCollection</text>
</a>
</g>
</g>
<!-- Node5&#45;&gt;Node6 -->
<g id="edge3" class="edge">
<title>Node5&#45;&gt;Node6</title>
<path fill="none" stroke="#63b8ff" d="M102.93,-9.62C112.03,-9.62 121.2,-9.62 129.53,-9.62"/>
<polygon fill="#63b8ff" stroke="#63b8ff" points="102.94,-6.13 92.94,-9.62 102.94,-13.13 102.94,-6.13"/>
</g>
<!-- Node4 -->
<g id="node6" class="node">
<title>Node4</title>
<g id="a_node6"><a xlink:href="class_d_material.html" target="_top" xlink:title="A class to encapsulate collection of algebraic terms in the discretized forms of Maxwells equations f...">
<polygon fill="white" stroke="#666666" points="192.5,-56.25 134.5,-56.25 134.5,-37 192.5,-37 192.5,-56.25"/>
<text text-anchor="middle" x="163.5" y="-42.75" font-family="Helvetica,sans-Serif" font-size="10.00">DMaterial</text>
</a>
</g>
</g>
<!-- Node5&#45;&gt;Node4 -->
<g id="edge4" class="edge">
<title>Node5&#45;&gt;Node4</title>
<path fill="none" stroke="#63b8ff" d="M89.33,-22.98C104.29,-27.82 120.82,-33.16 134.38,-37.54"/>
<polygon fill="#63b8ff" stroke="#63b8ff" points="90.88,-19.48 80.29,-19.74 88.73,-26.14 90.88,-19.48"/>
</g>
<!-- Node3 -->
<g id="node7" class="node">
<title>Node3</title>
<g id="a_node7"><a xlink:href="class_material_collection.html" target="_top" xlink:title=" ">
<polygon fill="white" stroke="#666666" points="94,-74.25 0,-74.25 0,-55 94,-55 94,-74.25"/>
<text text-anchor="middle" x="47" y="-60.75" font-family="Helvetica,sans-Serif" font-size="10.00">MaterialCollection</text>
</a>
</g>
</g>
<!-- Node3&#45;&gt;Node2 -->
<g id="edge5" class="edge">
<title>Node3&#45;&gt;Node2</title>
<path fill="none" stroke="#8b1a1a" d="M104.82,-74.05C115.03,-75.75 125.26,-77.45 134.21,-78.93"/>
<polygon fill="#8b1a1a" stroke="#8b1a1a" points="105.68,-70.48 95.24,-72.3 104.53,-77.39 105.68,-70.48"/>
</g>
<!-- Node3&#45;&gt;Node4 -->
<g id="edge6" class="edge">
<title>Node3&#45;&gt;Node4</title>
<path fill="none" stroke="#8b1a1a" d="M104.82,-55.69C115.03,-54.09 125.26,-52.48 134.21,-51.07"/>
<polygon fill="#8b1a1a" stroke="#8b1a1a" points="104.58,-52.34 95.24,-57.36 105.66,-59.26 104.58,-52.34"/>
</g>
</g>
</svg>
