<?xml version="1.0" encoding="UTF-8" standalone="no"?>
<!DOCTYPE svg PUBLIC "-//W3C//DTD SVG 1.1//EN"
 "http://www.w3.org/Graphics/SVG/1.1/DTD/svg11.dtd">
<!-- Generated by graphviz version 12.2.1 (20241206.2353)
 -->
<!-- Title: Graphical Class Hierarchy Pages: 1 -->
<svg width="293pt" height="175pt"
 viewBox="0.00 0.00 293.00 175.25" xmlns="http://www.w3.org/2000/svg" xmlns:xlink="http://www.w3.org/1999/xlink">
<g id="graph0" class="graph" transform="scale(1 1) rotate(0) translate(4 171.25)">
<title>Graphical Class Hierarchy</title>
<!-- Node0 -->
<g id="Node000000" class="node">
<title>Node0</title>
<g id="a_Node000000"><a xlink:href="class_grid.html" target="_top" xlink:title=" ">
<polygon fill="white" stroke="#666666" points="34,-93.25 0,-93.25 0,-74 34,-74 34,-93.25"/>
<text text-anchor="middle" x="17" y="-79.75" font-family="Helvetica,sans-Serif" font-size="10.00">Grid</text>
</a>
</g>
</g>
<!-- Node1 -->
<g id="Node000001" class="node">
<title>Node1</title>
<g id="a_Node000001"><a xlink:href="class_field.html" target="_top" xlink:title=" ">
<polygon fill="white" stroke="#666666" points="116.75,-130.25 79.75,-130.25 79.75,-111 116.75,-111 116.75,-130.25"/>
<text text-anchor="middle" x="98.25" y="-116.75" font-family="Helvetica,sans-Serif" font-size="10.00">Field</text>
</a>
</g>
</g>
<!-- Node0&#45;&gt;Node1 -->
<g id="edge1_Node000000_Node000001" class="edge">
<title>Node0&#45;&gt;Node1</title>
<g id="a_edge1_Node000000_Node000001"><a xlink:title=" ">
<path fill="none" stroke="#63b8ff" d="M44.75,-96.12C56.2,-101.46 69.25,-107.55 79.47,-112.33"/>
<polygon fill="#63b8ff" stroke="#63b8ff" points="46.33,-92.99 35.79,-91.93 43.37,-99.33 46.33,-92.99"/>
</a>
</g>
</g>
<!-- Node4 -->
<g id="Node000004" class="node">
<title>Node4</title>
<g id="a_Node000004"><a xlink:href="class_split_field.html" target="_top" xlink:title="A split field defined over a grid.">
<polygon fill="white" stroke="#666666" points="126.5,-75.25 70,-75.25 70,-56 126.5,-56 126.5,-75.25"/>
<text text-anchor="middle" x="98.25" y="-61.75" font-family="Helvetica,sans-Serif" font-size="10.00">SplitField</text>
</a>
</g>
</g>
<!-- Node0&#45;&gt;Node4 -->
<g id="edge4_Node000000_Node000004" class="edge">
<title>Node0&#45;&gt;Node4</title>
<g id="a_edge4_Node000000_Node000004"><a xlink:title=" ">
<path fill="none" stroke="#63b8ff" d="M45.54,-77.37C53.33,-75.6 61.82,-73.67 69.62,-71.9"/>
<polygon fill="#63b8ff" stroke="#63b8ff" points="44.87,-73.93 35.9,-79.56 46.42,-80.76 44.87,-73.93"/>
</a>
</g>
</g>
<!-- Node2 -->
<g id="Node000002" class="node">
<title>Node2</title>
<g id="a_Node000002"><a xlink:href="class_electric_field.html" target="_top" xlink:title=" ">
<polygon fill="white" stroke="#666666" points="258.75,-167.25 188.75,-167.25 188.75,-148 258.75,-148 258.75,-167.25"/>
<text text-anchor="middle" x="223.75" y="-153.75" font-family="Helvetica,sans-Serif" font-size="10.00">ElectricField</text>
</a>
</g>
</g>
<!-- Node1&#45;&gt;Node2 -->
<g id="edge2_Node000001_Node000002" class="edge">
<title>Node1&#45;&gt;Node2</title>
<g id="a_edge2_Node000001_Node000002"><a xlink:title=" ">
<path fill="none" stroke="#63b8ff" d="M128.19,-129.33C138.96,-132.57 151.29,-136.27 162.5,-139.62 171.08,-142.19 180.34,-144.96 188.97,-147.54"/>
<polygon fill="#63b8ff" stroke="#63b8ff" points="129.28,-126 118.69,-126.47 127.26,-132.7 129.28,-126"/>
</a>
</g>
</g>
<!-- Node3 -->
<g id="Node000003" class="node">
<title>Node3</title>
<g id="a_Node000003"><a xlink:href="class_magnetic_field.html" target="_top" xlink:title=" ">
<polygon fill="white" stroke="#666666" points="262.12,-130.25 185.38,-130.25 185.38,-111 262.12,-111 262.12,-130.25"/>
<text text-anchor="middle" x="223.75" y="-116.75" font-family="Helvetica,sans-Serif" font-size="10.00">MagneticField</text>
</a>
</g>
</g>
<!-- Node1&#45;&gt;Node3 -->
<g id="edge3_Node000001_Node000003" class="edge">
<title>Node1&#45;&gt;Node3</title>
<g id="a_edge3_Node000001_Node000003"><a xlink:title=" ">
<path fill="none" stroke="#63b8ff" d="M128.57,-120.62C145.42,-120.62 166.77,-120.62 184.88,-120.62"/>
<polygon fill="#63b8ff" stroke="#63b8ff" points="128.72,-117.13 118.72,-120.63 128.72,-124.13 128.72,-117.13"/>
</a>
</g>
</g>
<!-- Node5 -->
<g id="Node000005" class="node">
<title>Node5</title>
<g id="a_Node000005"><a xlink:href="class_current_density_split_field.html" target="_top" xlink:title=" ">
<polygon fill="white" stroke="#666666" points="285,-93.25 162.5,-93.25 162.5,-74 285,-74 285,-93.25"/>
<text text-anchor="middle" x="223.75" y="-79.75" font-family="Helvetica,sans-Serif" font-size="10.00">CurrentDensitySplitField</text>
</a>
</g>
</g>
<!-- Node4&#45;&gt;Node5 -->
<g id="edge5_Node000004_Node000005" class="edge">
<title>Node4&#45;&gt;Node5</title>
<g id="a_edge5_Node000004_Node000005"><a xlink:title=" ">
<path fill="none" stroke="#63b8ff" d="M138.34,-71.32C145.9,-72.42 153.99,-73.6 162.06,-74.78"/>
<polygon fill="#63b8ff" stroke="#63b8ff" points="138.86,-67.86 128.46,-69.88 137.85,-74.79 138.86,-67.86"/>
</a>
</g>
</g>
<!-- Node6 -->
<g id="Node000006" class="node">
<title>Node6</title>
<g id="a_Node000006"><a xlink:href="class_electric_split_field.html" target="_top" xlink:title=" ">
<polygon fill="white" stroke="#666666" points="268.5,-56.25 179,-56.25 179,-37 268.5,-37 268.5,-56.25"/>
<text text-anchor="middle" x="223.75" y="-42.75" font-family="Helvetica,sans-Serif" font-size="10.00">ElectricSplitField</text>
</a>
</g>
</g>
<!-- Node4&#45;&gt;Node6 -->
<g id="edge6_Node000004_Node000006" class="edge">
<title>Node4&#45;&gt;Node6</title>
<g id="a_edge6_Node000004_Node000006"><a xlink:title=" ">
<path fill="none" stroke="#63b8ff" d="M138.25,-59.62C151.09,-57.65 165.45,-55.44 178.64,-53.41"/>
<polygon fill="#63b8ff" stroke="#63b8ff" points="137.81,-56.15 128.46,-61.13 138.88,-63.07 137.81,-56.15"/>
</a>
</g>
</g>
<!-- Node7 -->
<g id="Node000007" class="node">
<title>Node7</title>
<g id="a_Node000007"><a xlink:href="class_magnetic_split_field.html" target="_top" xlink:title=" ">
<polygon fill="white" stroke="#666666" points="271.88,-19.25 175.62,-19.25 175.62,0 271.88,0 271.88,-19.25"/>
<text text-anchor="middle" x="223.75" y="-5.75" font-family="Helvetica,sans-Serif" font-size="10.00">MagneticSplitField</text>
</a>
</g>
</g>
<!-- Node4&#45;&gt;Node7 -->
<g id="edge7_Node000004_Node000007" class="edge">
<title>Node4&#45;&gt;Node7</title>
<g id="a_edge7_Node000004_Node000007"><a xlink:title=" ">
<path fill="none" stroke="#63b8ff" d="M122.88,-49.49C134.45,-42.1 148.81,-33.67 162.5,-27.62 169.19,-24.67 176.51,-22.03 183.66,-19.74"/>
<polygon fill="#63b8ff" stroke="#63b8ff" points="121.22,-46.39 114.78,-54.8 125.06,-52.25 121.22,-46.39"/>
</a>
</g>
</g>
</g>
</svg>
