<?xml version="1.0" encoding="UTF-8" standalone="no"?>
<!DOCTYPE svg PUBLIC "-//W3C//DTD SVG 1.1//EN"
 "http://www.w3.org/Graphics/SVG/1.1/DTD/svg11.dtd">
<!-- Generated by graphviz version 8.0.4 (20230421.1958)
 -->
<!-- Title: Graphical Class Hierarchy Pages: 1 -->
<svg width="231pt" height="64pt"
 viewBox="0.00 0.00 231.25 64.25" xmlns="http://www.w3.org/2000/svg" xmlns:xlink="http://www.w3.org/1999/xlink">
<g id="graph0" class="graph" transform="scale(1 1) rotate(0) translate(4 60.25)">
<title>Graphical Class Hierarchy</title>
<!-- Node0 -->
<g id="node1" class="node">
<title>Node0</title>
<g id="a_node1"><a xlink:href="class_matrix.html" target="_top" xlink:title=" ">
<polygon fill="white" stroke="#666666" points="89.5,-37.25 0,-37.25 0,-18 89.5,-18 89.5,-37.25"/>
<text text-anchor="middle" x="44.75" y="-23.75" font-family="Helvetica,sans-Serif" font-size="10.00">Matrix&lt; double &gt;</text>
</a>
</g>
</g>
<!-- Node1 -->
<g id="node2" class="node">
<title>Node1</title>
<g id="a_node2"><a xlink:href="class_c_coefficient_matrix.html" target="_top" xlink:title=" ">
<polygon fill="white" stroke="#666666" points="223.25,-56.25 125.5,-56.25 125.5,-37 223.25,-37 223.25,-56.25"/>
<text text-anchor="middle" x="174.38" y="-42.75" font-family="Helvetica,sans-Serif" font-size="10.00">CCoefficientMatrix</text>
</a>
</g>
</g>
<!-- Node0&#45;&gt;Node1 -->
<g id="edge1" class="edge">
<title>Node0&#45;&gt;Node1</title>
<path fill="none" stroke="#63b8ff" d="M100.3,-35.75C108.51,-36.97 116.93,-38.22 125,-39.42"/>
<polygon fill="#63b8ff" stroke="#63b8ff" points="101.08,-32.17 90.67,-34.16 100.05,-39.1 101.08,-32.17"/>
</g>
<!-- Node2 -->
<g id="node3" class="node">
<title>Node2</title>
<g id="a_node3"><a xlink:href="class_pupil.html" target="_top" xlink:title=" ">
<polygon fill="white" stroke="#666666" points="193.25,-19.25 155.5,-19.25 155.5,0 193.25,0 193.25,-19.25"/>
<text text-anchor="middle" x="174.38" y="-5.75" font-family="Helvetica,sans-Serif" font-size="10.00">Pupil</text>
</a>
</g>
</g>
<!-- Node0&#45;&gt;Node2 -->
<g id="edge2" class="edge">
<title>Node0&#45;&gt;Node2</title>
<path fill="none" stroke="#63b8ff" d="M100.37,-19.92C119.92,-17.16 140.65,-14.24 155.01,-12.22"/>
<polygon fill="#63b8ff" stroke="#63b8ff" points="100.08,-16.57 90.67,-21.43 101.06,-23.5 100.08,-16.57"/>
</g>
</g>
</svg>
