<?xml version="1.0" encoding="UTF-8" standalone="no"?>
<!DOCTYPE svg PUBLIC "-//W3C//DTD SVG 1.1//EN"
 "http://www.w3.org/Graphics/SVG/1.1/DTD/svg11.dtd">
<!-- Generated by graphviz version 8.0.5 (20230430.1635)
 -->
<!-- Title: Graphical Class Hierarchy Pages: 1 -->
<svg width="203pt" height="64pt"
 viewBox="0.00 0.00 202.75 64.25" xmlns="http://www.w3.org/2000/svg" xmlns:xlink="http://www.w3.org/1999/xlink">
<g id="graph0" class="graph" transform="scale(1 1) rotate(0) translate(4 60.25)">
<title>Graphical Class Hierarchy</title>
<!-- Node0 -->
<g id="node1" class="node">
<title>Node0</title>
<g id="a_node1"><a xlink:href="class_matrix.html" target="_top" xlink:title=" ">
<polygon fill="white" stroke="#666666" points="71.5,-37.25 0,-37.25 0,-18 71.5,-18 71.5,-37.25"/>
<text text-anchor="middle" x="35.75" y="-23.75" font-family="Helvetica,sans-Serif" font-size="10.00">Matrix&lt; int &gt;</text>
</a>
</g>
</g>
<!-- Node1 -->
<g id="node2" class="node">
<title>Node1</title>
<g id="a_node2"><a xlink:href="class_grating_structure.html" target="_top" xlink:title=" ">
<polygon fill="white" stroke="#666666" points="194.75,-56.25 107.5,-56.25 107.5,-37 194.75,-37 194.75,-56.25"/>
<text text-anchor="middle" x="151.12" y="-42.75" font-family="Helvetica,sans-Serif" font-size="10.00">GratingStructure</text>
</a>
</g>
</g>
<!-- Node0&#45;&gt;Node1 -->
<g id="edge1" class="edge">
<title>Node0&#45;&gt;Node1</title>
<path fill="none" stroke="#63b8ff" d="M82.51,-35.29C90.63,-36.65 99.06,-38.07 107.1,-39.42"/>
<polygon fill="#63b8ff" stroke="#63b8ff" points="83.13,-31.68 72.69,-33.48 81.98,-38.59 83.13,-31.68"/>
</g>
<!-- Node2 -->
<g id="node3" class="node">
<title>Node2</title>
<g id="a_node3"><a xlink:href="class_vertices.html" target="_top" xlink:title=" ">
<polygon fill="white" stroke="#666666" points="177.12,-19.25 125.12,-19.25 125.12,0 177.12,0 177.12,-19.25"/>
<text text-anchor="middle" x="151.12" y="-5.75" font-family="Helvetica,sans-Serif" font-size="10.00">Vertices</text>
</a>
</g>
</g>
<!-- Node0&#45;&gt;Node2 -->
<g id="edge2" class="edge">
<title>Node0&#45;&gt;Node2</title>
<path fill="none" stroke="#63b8ff" d="M82.48,-20.36C96.93,-18.07 112.36,-15.62 124.84,-13.64"/>
<polygon fill="#63b8ff" stroke="#63b8ff" points="82.02,-17.05 72.69,-22.08 83.12,-23.97 82.02,-17.05"/>
</g>
</g>
</svg>
