<?xml version="1.0" encoding="UTF-8" standalone="no"?>
<!DOCTYPE svg PUBLIC "-//W3C//DTD SVG 1.1//EN"
 "http://www.w3.org/Graphics/SVG/1.1/DTD/svg11.dtd">
<!-- Generated by graphviz version 8.0.5 (20230430.1635)
 -->
<!-- Title: Graphical Class Hierarchy Pages: 1 -->
<svg width="183pt" height="64pt"
 viewBox="0.00 0.00 182.50 64.25" xmlns="http://www.w3.org/2000/svg" xmlns:xlink="http://www.w3.org/1999/xlink">
<g id="graph0" class="graph" transform="scale(1 1) rotate(0) translate(4 60.25)">
<title>Graphical Class Hierarchy</title>
<!-- Node0 -->
<g id="node1" class="node">
<title>Node0</title>
<g id="a_node1"><a xlink:href="class_h_d_f5_base.html" target="_top" xlink:title="The base class for HDF5 I/O.">
<polygon fill="white" stroke="#666666" points="64.75,-37.25 0,-37.25 0,-18 64.75,-18 64.75,-37.25"/>
<text text-anchor="middle" x="32.38" y="-23.75" font-family="Helvetica,sans-Serif" font-size="10.00">HDF5Base</text>
</a>
</g>
</g>
<!-- Node1 -->
<g id="node2" class="node">
<title>Node1</title>
<g id="a_node2"><a xlink:href="class_h_d_f5_reader.html" target="_top" xlink:title="Class wrapper of the reading of HDF5 format files.">
<polygon fill="white" stroke="#666666" points="174.5,-56.25 100.75,-56.25 100.75,-37 174.5,-37 174.5,-56.25"/>
<text text-anchor="middle" x="137.62" y="-42.75" font-family="Helvetica,sans-Serif" font-size="10.00">HDF5Reader</text>
</a>
</g>
</g>
<!-- Node0&#45;&gt;Node1 -->
<g id="edge1" class="edge">
<title>Node0&#45;&gt;Node1</title>
<path fill="none" stroke="#63b8ff" d="M75.99,-35.47C84.09,-36.96 92.51,-38.51 100.4,-39.96"/>
<polygon fill="#63b8ff" stroke="#63b8ff" points="76.66,-31.85 66.2,-33.48 75.4,-38.73 76.66,-31.85"/>
</g>
<!-- Node2 -->
<g id="node3" class="node">
<title>Node2</title>
<g id="a_node3"><a xlink:href="class_h_d_f5_writer.html" target="_top" xlink:title=" ">
<polygon fill="white" stroke="#666666" points="171.5,-19.25 103.75,-19.25 103.75,0 171.5,0 171.5,-19.25"/>
<text text-anchor="middle" x="137.62" y="-5.75" font-family="Helvetica,sans-Serif" font-size="10.00">HDF5Writer</text>
</a>
</g>
</g>
<!-- Node0&#45;&gt;Node2 -->
<g id="edge2" class="edge">
<title>Node0&#45;&gt;Node2</title>
<path fill="none" stroke="#63b8ff" d="M76.03,-20.19C85.13,-18.6 94.61,-16.95 103.3,-15.43"/>
<polygon fill="#63b8ff" stroke="#63b8ff" points="75.45,-16.91 66.2,-22.08 76.65,-23.81 75.45,-16.91"/>
</g>
</g>
</svg>
