<?xml version="1.0" encoding="UTF-8" standalone="no"?>
<!DOCTYPE svg PUBLIC "-//W3C//DTD SVG 1.1//EN"
 "http://www.w3.org/Graphics/SVG/1.1/DTD/svg11.dtd">
<!-- Generated by graphviz version 8.0.2 (20230410.1723)
 -->
<!-- Title: Graphical Class Hierarchy Pages: 1 -->
<svg width="295pt" height="175pt"
 viewBox="0.00 0.00 295.00 175.00" xmlns="http://www.w3.org/2000/svg" xmlns:xlink="http://www.w3.org/1999/xlink">
<g id="graph0" class="graph" transform="scale(1 1) rotate(0) translate(4 171)">
<title>Graphical Class Hierarchy</title>
<!-- Node0 -->
<g id="node1" class="node">
<title>Node0</title>
<g id="a_node1"><a xlink:href="class_grid.html" target="_top" xlink:title=" ">
<polygon fill="white" stroke="#666666" points="35,-93 0,-93 0,-74 35,-74 35,-93"/>
<text text-anchor="middle" x="17.5" y="-81" font-family="Helvetica,sans-Serif" font-size="10.00">Grid</text>
</a>
</g>
</g>
<!-- Node1 -->
<g id="node2" class="node">
<title>Node1</title>
<g id="a_node2"><a xlink:href="class_field.html" target="_top" xlink:title=" ">
<polygon fill="white" stroke="#666666" points="118.5,-130 80.5,-130 80.5,-111 118.5,-111 118.5,-130"/>
<text text-anchor="middle" x="99.5" y="-118" font-family="Helvetica,sans-Serif" font-size="10.00">Field</text>
</a>
</g>
</g>
<!-- Node0&#45;&gt;Node1 -->
<g id="edge1" class="edge">
<title>Node0&#45;&gt;Node1</title>
<path fill="none" stroke="#63b8ff" d="M45.39,-95.94C56.83,-101.23 69.87,-107.26 80.17,-112.02"/>
<polygon fill="#63b8ff" stroke="#63b8ff" points="47.01,-92.37 36.47,-91.35 44.07,-98.72 47.01,-92.37"/>
</g>
<!-- Node4 -->
<g id="node5" class="node">
<title>Node4</title>
<g id="a_node5"><a xlink:href="class_split_field.html" target="_top" xlink:title="A split field defined over a grid.">
<polygon fill="white" stroke="#666666" points="128,-75 71,-75 71,-56 128,-56 128,-75"/>
<text text-anchor="middle" x="99.5" y="-63" font-family="Helvetica,sans-Serif" font-size="10.00">SplitField</text>
</a>
</g>
</g>
<!-- Node0&#45;&gt;Node4 -->
<g id="edge4" class="edge">
<title>Node0&#45;&gt;Node4</title>
<path fill="none" stroke="#63b8ff" d="M46.03,-77.31C53.95,-75.52 62.6,-73.58 70.54,-71.79"/>
<polygon fill="#63b8ff" stroke="#63b8ff" points="45.45,-74.07 36.47,-79.68 46.99,-80.9 45.45,-74.07"/>
</g>
<!-- Node2 -->
<g id="node3" class="node">
<title>Node2</title>
<g id="a_node3"><a xlink:href="class_electric_field.html" target="_top" xlink:title=" ">
<polygon fill="white" stroke="#666666" points="261,-167 190,-167 190,-148 261,-148 261,-167"/>
<text text-anchor="middle" x="225.5" y="-155" font-family="Helvetica,sans-Serif" font-size="10.00">ElectricField</text>
</a>
</g>
</g>
<!-- Node1&#45;&gt;Node2 -->
<g id="edge2" class="edge">
<title>Node1&#45;&gt;Node2</title>
<path fill="none" stroke="#63b8ff" d="M129.1,-129.07C140.02,-132.34 152.59,-136.09 164,-139.5 172.72,-142.1 182.14,-144.91 190.9,-147.51"/>
<polygon fill="#63b8ff" stroke="#63b8ff" points="130.42,-125.51 119.84,-126 128.41,-132.22 130.42,-125.51"/>
</g>
<!-- Node3 -->
<g id="node4" class="node">
<title>Node3</title>
<g id="a_node4"><a xlink:href="class_magnetic_field.html" target="_top" xlink:title=" ">
<polygon fill="white" stroke="#666666" points="264,-130 187,-130 187,-111 264,-111 264,-130"/>
<text text-anchor="middle" x="225.5" y="-118" font-family="Helvetica,sans-Serif" font-size="10.00">MagneticField</text>
</a>
</g>
</g>
<!-- Node1&#45;&gt;Node3 -->
<g id="edge3" class="edge">
<title>Node1&#45;&gt;Node3</title>
<path fill="none" stroke="#63b8ff" d="M129.73,-120.5C146.74,-120.5 168.35,-120.5 186.64,-120.5"/>
<polygon fill="#63b8ff" stroke="#63b8ff" points="129.8,-117 119.8,-120.5 129.8,-124 129.8,-117"/>
</g>
<!-- Node5 -->
<g id="node6" class="node">
<title>Node5</title>
<g id="a_node6"><a xlink:href="class_current_density_split_field.html" target="_top" xlink:title=" ">
<polygon fill="white" stroke="#666666" points="287,-93 164,-93 164,-74 287,-74 287,-93"/>
<text text-anchor="middle" x="225.5" y="-81" font-family="Helvetica,sans-Serif" font-size="10.00">CurrentDensitySplitField</text>
</a>
</g>
</g>
<!-- Node4&#45;&gt;Node5 -->
<g id="edge5" class="edge">
<title>Node4&#45;&gt;Node5</title>
<path fill="none" stroke="#63b8ff" d="M139.21,-71.12C146.95,-72.24 155.27,-73.45 163.56,-74.65"/>
<polygon fill="#63b8ff" stroke="#63b8ff" points="139.73,-67.51 129.33,-69.54 138.72,-74.44 139.73,-67.51"/>
</g>
<!-- Node6 -->
<g id="node7" class="node">
<title>Node6</title>
<g id="a_node7"><a xlink:href="class_electric_split_field.html" target="_top" xlink:title=" ">
<polygon fill="white" stroke="#666666" points="270.5,-56 180.5,-56 180.5,-37 270.5,-37 270.5,-56"/>
<text text-anchor="middle" x="225.5" y="-44" font-family="Helvetica,sans-Serif" font-size="10.00">ElectricSplitField</text>
</a>
</g>
</g>
<!-- Node4&#45;&gt;Node6 -->
<g id="edge6" class="edge">
<title>Node4&#45;&gt;Node6</title>
<path fill="none" stroke="#63b8ff" d="M138.87,-59.62C151.96,-57.62 166.7,-55.36 180.22,-53.29"/>
<polygon fill="#63b8ff" stroke="#63b8ff" points="138.68,-56.26 129.33,-61.24 139.74,-63.18 138.68,-56.26"/>
</g>
<!-- Node7 -->
<g id="node8" class="node">
<title>Node7</title>
<g id="a_node8"><a xlink:href="class_magnetic_split_field.html" target="_top" xlink:title=" ">
<polygon fill="white" stroke="#666666" points="274,-19 177,-19 177,0 274,0 274,-19"/>
<text text-anchor="middle" x="225.5" y="-7" font-family="Helvetica,sans-Serif" font-size="10.00">MagneticSplitField</text>
</a>
</g>
</g>
<!-- Node4&#45;&gt;Node7 -->
<g id="edge7" class="edge">
<title>Node4&#45;&gt;Node7</title>
<path fill="none" stroke="#63b8ff" d="M124.43,-49.85C136.05,-42.69 150.41,-34.5 164,-28.5 171.65,-25.12 180.1,-22.07 188.18,-19.46"/>
<polygon fill="#63b8ff" stroke="#63b8ff" points="122.99,-47.25 116.39,-55.54 126.72,-53.17 122.99,-47.25"/>
</g>
</g>
</svg>
