<?xml version="1.0" encoding="UTF-8" standalone="no"?>
<!DOCTYPE svg PUBLIC "-//W3C//DTD SVG 1.1//EN"
 "http://www.w3.org/Graphics/SVG/1.1/DTD/svg11.dtd">
<!-- Generated by graphviz version 8.0.2 (20230410.1723)
 -->
<!-- Title: Graphical Class Hierarchy Pages: 1 -->
<svg width="204pt" height="64pt"
 viewBox="0.00 0.00 204.00 64.00" xmlns="http://www.w3.org/2000/svg" xmlns:xlink="http://www.w3.org/1999/xlink">
<g id="graph0" class="graph" transform="scale(1 1) rotate(0) translate(4 60)">
<title>Graphical Class Hierarchy</title>
<!-- Node0 -->
<g id="node1" class="node">
<title>Node0</title>
<g id="a_node1"><a xlink:href="class_matrix.html" target="_top" xlink:title=" ">
<polygon fill="white" stroke="#666666" points="72,-37 0,-37 0,-18 72,-18 72,-37"/>
<text text-anchor="middle" x="36" y="-25" font-family="Helvetica,sans-Serif" font-size="10.00">Matrix&lt; int &gt;</text>
</a>
</g>
</g>
<!-- Node1 -->
<g id="node2" class="node">
<title>Node1</title>
<g id="a_node2"><a xlink:href="class_grating_structure.html" target="_top" xlink:title=" ">
<polygon fill="white" stroke="#666666" points="196,-56 108,-56 108,-37 196,-37 196,-56"/>
<text text-anchor="middle" x="152" y="-44" font-family="Helvetica,sans-Serif" font-size="10.00">GratingStructure</text>
</a>
</g>
</g>
<!-- Node0&#45;&gt;Node1 -->
<g id="edge1" class="edge">
<title>Node0&#45;&gt;Node1</title>
<path fill="none" stroke="#63b8ff" d="M83.17,-35.2C91.22,-36.54 99.57,-37.93 107.55,-39.26"/>
<polygon fill="#63b8ff" stroke="#63b8ff" points="83.88,-31.6 73.45,-33.41 82.73,-38.5 83.88,-31.6"/>
</g>
<!-- Node2 -->
<g id="node3" class="node">
<title>Node2</title>
<g id="a_node3"><a xlink:href="class_vertices.html" target="_top" xlink:title=" ">
<polygon fill="white" stroke="#666666" points="178.5,-19 125.5,-19 125.5,0 178.5,0 178.5,-19"/>
<text text-anchor="middle" x="152" y="-7" font-family="Helvetica,sans-Serif" font-size="10.00">Vertices</text>
</a>
</g>
</g>
<!-- Node0&#45;&gt;Node2 -->
<g id="edge2" class="edge">
<title>Node0&#45;&gt;Node2</title>
<path fill="none" stroke="#63b8ff" d="M83.19,-20.21C97.58,-17.94 112.91,-15.51 125.35,-13.55"/>
<polygon fill="#63b8ff" stroke="#63b8ff" points="82.78,-16.89 73.45,-21.9 83.87,-23.8 82.78,-16.89"/>
</g>
</g>
</svg>
