<?xml version="1.0" encoding="UTF-8" standalone="no"?>
<!DOCTYPE svg PUBLIC "-//W3C//DTD SVG 1.1//EN"
 "http://www.w3.org/Graphics/SVG/1.1/DTD/svg11.dtd">
<!-- Generated by graphviz version 8.0.2 (20230410.1723)
 -->
<!-- Title: Graphical Class Hierarchy Pages: 1 -->
<svg width="232pt" height="64pt"
 viewBox="0.00 0.00 232.00 64.00" xmlns="http://www.w3.org/2000/svg" xmlns:xlink="http://www.w3.org/1999/xlink">
<g id="graph0" class="graph" transform="scale(1 1) rotate(0) translate(4 60)">
<title>Graphical Class Hierarchy</title>
<!-- Node0 -->
<g id="node1" class="node">
<title>Node0</title>
<g id="a_node1"><a xlink:href="class_matrix.html" target="_top" xlink:title=" ">
<polygon fill="white" stroke="#666666" points="90,-37 0,-37 0,-18 90,-18 90,-37"/>
<text text-anchor="middle" x="45" y="-25" font-family="Helvetica,sans-Serif" font-size="10.00">Matrix&lt; double &gt;</text>
</a>
</g>
</g>
<!-- Node1 -->
<g id="node2" class="node">
<title>Node1</title>
<g id="a_node2"><a xlink:href="class_c_coefficient_matrix.html" target="_top" xlink:title=" ">
<polygon fill="white" stroke="#666666" points="224,-56 126,-56 126,-37 224,-37 224,-56"/>
<text text-anchor="middle" x="175" y="-44" font-family="Helvetica,sans-Serif" font-size="10.00">CCoefficientMatrix</text>
</a>
</g>
</g>
<!-- Node0&#45;&gt;Node1 -->
<g id="edge1" class="edge">
<title>Node0&#45;&gt;Node1</title>
<path fill="none" stroke="#63b8ff" d="M101.05,-35.67C109.26,-36.89 117.68,-38.14 125.74,-39.34"/>
<polygon fill="#63b8ff" stroke="#63b8ff" points="101.81,-32.1 91.41,-34.09 100.79,-39.02 101.81,-32.1"/>
</g>
<!-- Node2 -->
<g id="node3" class="node">
<title>Node2</title>
<g id="a_node3"><a xlink:href="class_pupil.html" target="_top" xlink:title=" ">
<polygon fill="white" stroke="#666666" points="194,-19 156,-19 156,0 194,0 194,-19"/>
<text text-anchor="middle" x="175" y="-7" font-family="Helvetica,sans-Serif" font-size="10.00">Pupil</text>
</a>
</g>
</g>
<!-- Node0&#45;&gt;Node2 -->
<g id="edge2" class="edge">
<title>Node0&#45;&gt;Node2</title>
<path fill="none" stroke="#63b8ff" d="M101.11,-19.75C120.67,-17 141.37,-14.09 155.69,-12.08"/>
<polygon fill="#63b8ff" stroke="#63b8ff" points="100.82,-16.4 91.41,-21.25 101.8,-23.33 100.82,-16.4"/>
</g>
</g>
</svg>
