<?xml version="1.0" encoding="UTF-8" standalone="no"?>
<!DOCTYPE svg PUBLIC "-//W3C//DTD SVG 1.1//EN"
 "http://www.w3.org/Graphics/SVG/1.1/DTD/svg11.dtd">
<!-- Generated by graphviz version 8.0.4 (20230421.1958)
 -->
<!-- Title: tdms/include/input_matrices.h Pages: 1 -->
<svg width="341pt" height="204pt"
 viewBox="0.00 0.00 341.39 204.25" xmlns="http://www.w3.org/2000/svg" xmlns:xlink="http://www.w3.org/1999/xlink">
<g id="graph0" class="graph" transform="scale(1 1) rotate(0) translate(4 200.25)">
<title>tdms/include/input_matrices.h</title>
<!-- Node1 -->
<g id="node1" class="node">
<title>Node1</title>
<g id="a_node1"><a xlink:title="Class handling the input matrices that are read in from the input file.">
<polygon fill="#999999" stroke="#666666" points="177.64,-196.25 82.14,-196.25 82.14,-165.75 177.64,-165.75 177.64,-196.25"/>
<text text-anchor="start" x="90.14" y="-182.75" font-family="Helvetica,sans-Serif" font-size="10.00">tdms/include/input</text>
<text text-anchor="middle" x="129.89" y="-171.5" font-family="Helvetica,sans-Serif" font-size="10.00">_matrices.h</text>
</a>
</g>
</g>
<!-- Node2 -->
<g id="node2" class="node">
<title>Node2</title>
<g id="a_node2"><a xlink:title=" ">
<polygon fill="#e0e0e0" stroke="#999999" points="88.89,-74.5 48.89,-74.5 48.89,-55.25 88.89,-55.25 88.89,-74.5"/>
<text text-anchor="middle" x="68.89" y="-61" font-family="Helvetica,sans-Serif" font-size="10.00">string</text>
</a>
</g>
</g>
<!-- Node1&#45;&gt;Node2 -->
<g id="edge1" class="edge">
<title>Node1&#45;&gt;Node2</title>
<path fill="none" stroke="#63b8ff" d="M81.8,-174.09C54.04,-167.94 21.27,-155.39 3.89,-129.75 -9.56,-109.9 15.7,-91.16 38.55,-79.18"/>
<polygon fill="#63b8ff" stroke="#63b8ff" points="39.98,-81.88 47.4,-74.32 36.88,-75.61 39.98,-81.88"/>
</g>
<!-- Node3 -->
<g id="node3" class="node">
<title>Node3</title>
<g id="a_node3"><a xlink:href="input__output__names_8h.html" target="_top" xlink:title="Constant values associated with the format of the input and output files and matrices.">
<polygon fill="white" stroke="#666666" points="124.89,-129.75 12.89,-129.75 12.89,-110.5 124.89,-110.5 124.89,-129.75"/>
<text text-anchor="middle" x="68.89" y="-116.25" font-family="Helvetica,sans-Serif" font-size="10.00">input_output_names.h</text>
</a>
</g>
</g>
<!-- Node1&#45;&gt;Node3 -->
<g id="edge2" class="edge">
<title>Node1&#45;&gt;Node3</title>
<path fill="none" stroke="#63b8ff" d="M114.81,-165.45C106.06,-157 95.01,-146.33 85.94,-137.58"/>
<polygon fill="#63b8ff" stroke="#63b8ff" points="88.92,-135.63 79.29,-131.2 84.06,-140.66 88.92,-135.63"/>
</g>
<!-- Node5 -->
<g id="node5" class="node">
<title>Node5</title>
<g id="a_node5"><a xlink:href="mat__io_8h.html" target="_top" xlink:title="Includes MATLAB headers for I/O.">
<polygon fill="white" stroke="#666666" points="273.64,-74.5 220.14,-74.5 220.14,-55.25 273.64,-55.25 273.64,-74.5"/>
<text text-anchor="middle" x="246.89" y="-61" font-family="Helvetica,sans-Serif" font-size="10.00">mat_io.h</text>
</a>
</g>
</g>
<!-- Node1&#45;&gt;Node5 -->
<g id="edge5" class="edge">
<title>Node1&#45;&gt;Node5</title>
<path fill="none" stroke="#63b8ff" d="M177.88,-172.93C203.88,-166.38 233.88,-153.82 249.89,-129.75 258.64,-116.61 256.74,-98.36 253.33,-84.73"/>
<polygon fill="#63b8ff" stroke="#63b8ff" points="256.51,-84.17 250.3,-75.58 249.81,-86.17 256.51,-84.17"/>
</g>
<!-- Node9 -->
<g id="node9" class="node">
<title>Node9</title>
<g id="a_node9"><a xlink:href="matrix__collection_8h.html" target="_top" xlink:title="A collection of named MATLAB matrices.">
<polygon fill="white" stroke="#666666" points="240.77,-129.75 143.02,-129.75 143.02,-110.5 240.77,-110.5 240.77,-129.75"/>
<text text-anchor="middle" x="191.89" y="-116.25" font-family="Helvetica,sans-Serif" font-size="10.00">matrix_collection.h</text>
</a>
</g>
</g>
<!-- Node1&#45;&gt;Node9 -->
<g id="edge9" class="edge">
<title>Node1&#45;&gt;Node9</title>
<path fill="none" stroke="#63b8ff" d="M145.22,-165.45C154.11,-157 165.34,-146.33 174.56,-137.58"/>
<polygon fill="#63b8ff" stroke="#63b8ff" points="176.49,-140.63 181.33,-131.2 171.67,-135.55 176.49,-140.63"/>
</g>
<!-- Node3&#45;&gt;Node2 -->
<g id="edge3" class="edge">
<title>Node3&#45;&gt;Node2</title>
<path fill="none" stroke="#63b8ff" d="M68.89,-110.33C68.89,-103.67 68.89,-94.24 68.89,-85.78"/>
<polygon fill="#63b8ff" stroke="#63b8ff" points="72.39,-85.86 68.89,-75.86 65.39,-85.86 72.39,-85.86"/>
</g>
<!-- Node4 -->
<g id="node4" class="node">
<title>Node4</title>
<g id="a_node4"><a xlink:title=" ">
<polygon fill="#e0e0e0" stroke="#999999" points="181.39,-74.5 138.39,-74.5 138.39,-55.25 181.39,-55.25 181.39,-74.5"/>
<text text-anchor="middle" x="159.89" y="-61" font-family="Helvetica,sans-Serif" font-size="10.00">vector</text>
</a>
</g>
</g>
<!-- Node3&#45;&gt;Node4 -->
<g id="edge4" class="edge">
<title>Node3&#45;&gt;Node4</title>
<path fill="none" stroke="#63b8ff" d="M84.33,-110.09C98.19,-101.98 118.78,-89.93 134.97,-80.46"/>
<polygon fill="#63b8ff" stroke="#63b8ff" points="136.51,-83.02 143.38,-74.95 132.98,-76.98 136.51,-83.02"/>
</g>
<!-- Node6 -->
<g id="node6" class="node">
<title>Node6</title>
<g id="a_node6"><a xlink:title=" ">
<polygon fill="#e0e0e0" stroke="#999999" points="203.27,-19.25 162.52,-19.25 162.52,0 203.27,0 203.27,-19.25"/>
<text text-anchor="middle" x="182.89" y="-5.75" font-family="Helvetica,sans-Serif" font-size="10.00">mat.h</text>
</a>
</g>
</g>
<!-- Node5&#45;&gt;Node6 -->
<g id="edge6" class="edge">
<title>Node5&#45;&gt;Node6</title>
<path fill="none" stroke="#63b8ff" d="M236.03,-54.84C226.69,-47.07 213,-35.67 201.85,-26.4"/>
<polygon fill="#63b8ff" stroke="#63b8ff" points="204.51,-23.23 194.59,-19.52 200.04,-28.61 204.51,-23.23"/>
</g>
<!-- Node7 -->
<g id="node7" class="node">
<title>Node7</title>
<g id="a_node7"><a xlink:title=" ">
<polygon fill="#e0e0e0" stroke="#999999" points="272.52,-19.25 221.27,-19.25 221.27,0 272.52,0 272.52,-19.25"/>
<text text-anchor="middle" x="246.89" y="-5.75" font-family="Helvetica,sans-Serif" font-size="10.00">matrix.h</text>
</a>
</g>
</g>
<!-- Node5&#45;&gt;Node7 -->
<g id="edge7" class="edge">
<title>Node5&#45;&gt;Node7</title>
<path fill="none" stroke="#63b8ff" d="M246.89,-55.08C246.89,-48.42 246.89,-38.99 246.89,-30.53"/>
<polygon fill="#63b8ff" stroke="#63b8ff" points="250.39,-30.61 246.89,-20.61 243.39,-30.61 250.39,-30.61"/>
</g>
<!-- Node8 -->
<g id="node8" class="node">
<title>Node8</title>
<g id="a_node8"><a xlink:title=" ">
<polygon fill="#e0e0e0" stroke="#999999" points="333.39,-19.25 290.39,-19.25 290.39,0 333.39,0 333.39,-19.25"/>
<text text-anchor="middle" x="311.89" y="-5.75" font-family="Helvetica,sans-Serif" font-size="10.00">mex.h</text>
</a>
</g>
</g>
<!-- Node5&#45;&gt;Node8 -->
<g id="edge8" class="edge">
<title>Node5&#45;&gt;Node8</title>
<path fill="none" stroke="#63b8ff" d="M257.92,-54.84C267.41,-47.07 281.31,-35.67 292.64,-26.4"/>
<polygon fill="#63b8ff" stroke="#63b8ff" points="294.51,-28.57 300.03,-19.52 290.07,-23.15 294.51,-28.57"/>
</g>
<!-- Node9&#45;&gt;Node2 -->
<g id="edge10" class="edge">
<title>Node9&#45;&gt;Node2</title>
<path fill="none" stroke="#63b8ff" d="M171.03,-110.09C151.26,-101.54 121.37,-88.59 99.02,-78.92"/>
<polygon fill="#63b8ff" stroke="#63b8ff" points="100.61,-75.36 90.04,-74.6 97.83,-81.78 100.61,-75.36"/>
</g>
<!-- Node9&#45;&gt;Node4 -->
<g id="edge11" class="edge">
<title>Node9&#45;&gt;Node4</title>
<path fill="none" stroke="#63b8ff" d="M186.61,-110.33C182.32,-103.21 176.15,-92.93 170.81,-84.05"/>
<polygon fill="#63b8ff" stroke="#63b8ff" points="173.44,-82.63 165.29,-75.86 167.44,-86.23 173.44,-82.63"/>
</g>
<!-- Node9&#45;&gt;Node5 -->
<g id="edge12" class="edge">
<title>Node9&#45;&gt;Node5</title>
<path fill="none" stroke="#63b8ff" d="M200.97,-110.33C208.81,-102.75 220.33,-91.59 229.88,-82.35"/>
<polygon fill="#63b8ff" stroke="#63b8ff" points="231.86,-85.33 236.61,-75.86 226.99,-80.3 231.86,-85.33"/>
</g>
</g>
</svg>
