<?xml version="1.0" encoding="UTF-8" standalone="no"?>
<!DOCTYPE svg PUBLIC "-//W3C//DTD SVG 1.1//EN"
 "http://www.w3.org/Graphics/SVG/1.1/DTD/svg11.dtd">
<!-- Generated by graphviz version 9.0.0 (20230911.1827)
 -->
<!-- Title: tdms/include/input_flags.h Pages: 1 -->
<svg width="1003pt" height="238pt"
 viewBox="0.00 0.00 1002.88 238.00" xmlns="http://www.w3.org/2000/svg" xmlns:xlink="http://www.w3.org/1999/xlink">
<g id="graph0" class="graph" transform="scale(1 1) rotate(0) translate(4 234)">
<title>tdms/include/input_flags.h</title>
<!-- Node1 -->
<g id="Node000001" class="node">
<title>Node1</title>
<g id="a_Node000001"><a xlink:title="Organises enumerated constants, names, and classes for handling flag&#45;variables that are passed to TDM...">
<polygon fill="#999999" stroke="#666666" points="772.88,-230 677.38,-230 677.38,-199.5 772.88,-199.5 772.88,-230"/>
<text text-anchor="start" x="685.38" y="-216.5" font-family="Helvetica,sans-Serif" font-size="10.00">tdms/include/input</text>
<text text-anchor="middle" x="725.12" y="-205.25" font-family="Helvetica,sans-Serif" font-size="10.00">_flags.h</text>
</a>
</g>
</g>
<!-- Node2 -->
<g id="Node000002" class="node">
<title>Node2</title>
<g id="a_Node000002"><a xlink:href="field_8h.html" target="_top" xlink:title="Classes for the electric and magnetic (split) fields on a grid.">
<polygon fill="white" stroke="#666666" points="376.5,-157.88 275.75,-157.88 275.75,-138.62 376.5,-138.62 376.5,-157.88"/>
<text text-anchor="middle" x="326.12" y="-144.38" font-family="Helvetica,sans-Serif" font-size="10.00">tdms/include/field.h</text>
</a>
</g>
</g>
<!-- Node1&#45;&gt;Node2 -->
<g id="edge1_Node000001_Node000002" class="edge">
<title>Node1&#45;&gt;Node2</title>
<g id="a_edge1_Node000001_Node000002"><a xlink:title=" ">
<path fill="none" stroke="#63b8ff" d="M665.88,-204.17C587.53,-191.51 450.8,-169.4 376.94,-157.46"/>
<polygon fill="#63b8ff" stroke="#63b8ff" points="665.07,-207.59 675.5,-205.73 666.19,-200.68 665.07,-207.59"/>
</a>
</g>
</g>
<!-- Node9 -->
<g id="Node000009" class="node">
<title>Node9</title>
<g id="a_Node000009"><a xlink:href="interpolation__methods_8h.html" target="_top" xlink:title="InterpScheme class methods and supporting functions.">
<polygon fill="white" stroke="#666666" points="742.62,-163.5 615.62,-163.5 615.62,-133 742.62,-133 742.62,-163.5"/>
<text text-anchor="start" x="623.62" y="-150" font-family="Helvetica,sans-Serif" font-size="10.00">tdms/include/interpolation</text>
<text text-anchor="middle" x="679.12" y="-138.75" font-family="Helvetica,sans-Serif" font-size="10.00">_methods.h</text>
</a>
</g>
</g>
<!-- Node1&#45;&gt;Node9 -->
<g id="edge8_Node000001_Node000009" class="edge">
<title>Node1&#45;&gt;Node9</title>
<g id="a_edge8_Node000001_Node000009"><a xlink:title=" ">
<path fill="none" stroke="#63b8ff" d="M708.04,-189.79C701.82,-181.07 694.98,-171.49 689.52,-163.83"/>
<polygon fill="#63b8ff" stroke="#63b8ff" points="705.15,-191.77 713.81,-197.88 710.85,-187.71 705.15,-191.77"/>
</a>
</g>
</g>
<!-- Node10 -->
<g id="Node000010" class="node">
<title>Node10</title>
<g id="a_Node000010"><a xlink:href="test___b_li__vs__cubic__interpolation_8cpp.html" target="_top" xlink:title="Tests the performance of bandlimited interpolation against cubic interpolation.">
<polygon fill="white" stroke="#666666" points="665.25,-97 509,-97 509,-66.5 665.25,-66.5 665.25,-97"/>
<text text-anchor="start" x="517" y="-83.5" font-family="Helvetica,sans-Serif" font-size="10.00">tdms/tests/unit/test</text>
<text text-anchor="middle" x="587.12" y="-72.25" font-family="Helvetica,sans-Serif" font-size="10.00">_BLi_vs_cubic_interpolation.cpp</text>
</a>
</g>
</g>
<!-- Node1&#45;&gt;Node10 -->
<g id="edge13_Node000001_Node000010" class="edge">
<title>Node1&#45;&gt;Node10</title>
<g id="a_edge13_Node000001_Node000010"><a xlink:title=" ">
<path fill="none" stroke="#63b8ff" d="M666.28,-200.94C644.53,-193.42 621.47,-181.68 606.12,-163.5 590.24,-144.68 587.1,-114.97 586.76,-97.32"/>
<polygon fill="#63b8ff" stroke="#63b8ff" points="665.11,-204.24 675.7,-203.94 667.24,-197.57 665.11,-204.24"/>
</a>
</g>
</g>
<!-- Node11 -->
<g id="Node000011" class="node">
<title>Node11</title>
<g id="a_Node000011"><a xlink:href="test__interpolation__determination_8cpp.html" target="_top" xlink:title="Tests the logic that determines which interpolation schemes are appropriate.">
<polygon fill="white" stroke="#666666" points="839.25,-97 683,-97 683,-66.5 839.25,-66.5 839.25,-97"/>
<text text-anchor="start" x="691" y="-83.5" font-family="Helvetica,sans-Serif" font-size="10.00">tdms/tests/unit/test</text>
<text text-anchor="middle" x="761.12" y="-72.25" font-family="Helvetica,sans-Serif" font-size="10.00">_interpolation_determination.cpp</text>
</a>
</g>
</g>
<!-- Node1&#45;&gt;Node11 -->
<g id="edge14_Node000001_Node000011" class="edge">
<title>Node1&#45;&gt;Node11</title>
<g id="a_edge14_Node000001_Node000011"><a xlink:title=" ">
<path fill="none" stroke="#63b8ff" d="M740.67,-189.32C745.06,-181.36 749.38,-172.31 752.12,-163.5 759.09,-141.14 760.81,-113.83 761.15,-97.38"/>
<polygon fill="#63b8ff" stroke="#63b8ff" points="737.78,-187.32 735.75,-197.72 743.82,-190.85 737.78,-187.32"/>
</a>
</g>
</g>
<!-- Node12 -->
<g id="Node000012" class="node">
<title>Node12</title>
<g id="a_Node000012"><a xlink:href="test__interpolation__functions_8cpp.html" target="_top" xlink:title="Tests the performance of the interpolation functions, using 1D data mimicing a coordinate axes.">
<polygon fill="white" stroke="#666666" points="994.88,-97 857.38,-97 857.38,-66.5 994.88,-66.5 994.88,-97"/>
<text text-anchor="start" x="865.38" y="-83.5" font-family="Helvetica,sans-Serif" font-size="10.00">tdms/tests/unit/test</text>
<text text-anchor="middle" x="926.12" y="-72.25" font-family="Helvetica,sans-Serif" font-size="10.00">_interpolation_functions.cpp</text>
</a>
</g>
</g>
<!-- Node1&#45;&gt;Node12 -->
<g id="edge15_Node000001_Node000012" class="edge">
<title>Node1&#45;&gt;Node12</title>
<g id="a_edge15_Node000001_Node000012"><a xlink:title=" ">
<path fill="none" stroke="#63b8ff" d="M750.79,-191.69C771.27,-174.62 801.07,-150.95 829.12,-133 850.05,-119.61 874.96,-106.77 894.3,-97.42"/>
<polygon fill="#63b8ff" stroke="#63b8ff" points="748.63,-188.93 743.23,-198.05 753.14,-194.28 748.63,-188.93"/>
</a>
</g>
</g>
<!-- Node13 -->
<g id="Node000013" class="node">
<title>Node13</title>
<g id="a_Node000013"><a xlink:href="main_8cpp.html" target="_top" xlink:title="The main function. Launches TDMS.">
<polygon fill="white" stroke="#666666" points="934.62,-157.88 837.62,-157.88 837.62,-138.62 934.62,-138.62 934.62,-157.88"/>
<text text-anchor="middle" x="886.12" y="-144.38" font-family="Helvetica,sans-Serif" font-size="10.00">tdms/src/main.cpp</text>
</a>
</g>
</g>
<!-- Node1&#45;&gt;Node13 -->
<g id="edge12_Node000001_Node000013" class="edge">
<title>Node1&#45;&gt;Node13</title>
<g id="a_edge12_Node000001_Node000013"><a xlink:title=" ">
<path fill="none" stroke="#63b8ff" d="M771.97,-194.98C802.14,-182.9 840,-167.73 863.64,-158.26"/>
<polygon fill="#63b8ff" stroke="#63b8ff" points="771.04,-191.58 763.06,-198.55 773.65,-198.08 771.04,-191.58"/>
</a>
</g>
</g>
<!-- Node3 -->
<g id="Node000003" class="node">
<title>Node3</title>
<g id="a_Node000003"><a xlink:href="array__init_8h.html" target="_top" xlink:title="A collection of functions for array initialisation given MATLAB pointers.">
<polygon fill="white" stroke="#666666" points="491.25,-97 395,-97 395,-66.5 491.25,-66.5 491.25,-97"/>
<text text-anchor="start" x="403" y="-83.5" font-family="Helvetica,sans-Serif" font-size="10.00">tdms/include/array</text>
<text text-anchor="middle" x="443.12" y="-72.25" font-family="Helvetica,sans-Serif" font-size="10.00">_init.h</text>
</a>
</g>
</g>
<!-- Node2&#45;&gt;Node3 -->
<g id="edge2_Node000002_Node000003" class="edge">
<title>Node2&#45;&gt;Node3</title>
<g id="a_edge2_Node000002_Node000003"><a xlink:title=" ">
<path fill="none" stroke="#63b8ff" d="M352.53,-132.69C371.73,-122.11 397.59,-107.85 416.78,-97.28"/>
<polygon fill="#63b8ff" stroke="#63b8ff" points="351.03,-129.52 343.97,-137.41 354.41,-135.65 351.03,-129.52"/>
</a>
</g>
</g>
<!-- Node4 -->
<g id="Node000004" class="node">
<title>Node4</title>
<g id="a_Node000004"><a xlink:href="fieldsample_8h.html" target="_top" xlink:title="Class that stores the extracted field values at user&#45;defined vertices.">
<polygon fill="white" stroke="#666666" points="132.25,-91.38 0,-91.38 0,-72.12 132.25,-72.12 132.25,-91.38"/>
<text text-anchor="middle" x="66.12" y="-77.88" font-family="Helvetica,sans-Serif" font-size="10.00">tdms/include/fieldsample.h</text>
</a>
</g>
</g>
<!-- Node2&#45;&gt;Node4 -->
<g id="edge3_Node000002_Node000004" class="edge">
<title>Node2&#45;&gt;Node4</title>
<g id="a_edge3_Node000002_Node000004"><a xlink:title=" ">
<path fill="none" stroke="#63b8ff" d="M278.43,-135.42C227.72,-122.84 148.62,-103.21 102.64,-91.81"/>
<polygon fill="#63b8ff" stroke="#63b8ff" points="277.41,-138.77 287.96,-137.78 279.09,-131.98 277.41,-138.77"/>
</a>
</g>
</g>
<!-- Node6 -->
<g id="Node000006" class="node">
<title>Node6</title>
<g id="a_Node000006"><a xlink:href="surface__phasors_8h.html" target="_top" xlink:title="Contains a class that handles the complex amplitude extraction.">
<polygon fill="white" stroke="#666666" points="257.5,-97 150.75,-97 150.75,-66.5 257.5,-66.5 257.5,-97"/>
<text text-anchor="start" x="158.75" y="-83.5" font-family="Helvetica,sans-Serif" font-size="10.00">tdms/include/surface</text>
<text text-anchor="middle" x="204.12" y="-72.25" font-family="Helvetica,sans-Serif" font-size="10.00">_phasors.h</text>
</a>
</g>
</g>
<!-- Node2&#45;&gt;Node6 -->
<g id="edge5_Node000002_Node000006" class="edge">
<title>Node2&#45;&gt;Node6</title>
<g id="a_edge5_Node000002_Node000006"><a xlink:title=" ">
<path fill="none" stroke="#63b8ff" d="M298.87,-132.84C278.83,-122.24 251.69,-107.9 231.6,-97.28"/>
<polygon fill="#63b8ff" stroke="#63b8ff" points="297.09,-135.86 307.57,-137.44 300.36,-129.67 297.09,-135.86"/>
</a>
</g>
</g>
<!-- Node7 -->
<g id="Node000007" class="node">
<title>Node7</title>
<g id="a_Node000007"><a xlink:href="vertex__phasors_8h.html" target="_top" xlink:title="Contains a class that handles the complex amplitude extraction at the vertices.">
<polygon fill="white" stroke="#666666" points="376.88,-97 275.38,-97 275.38,-66.5 376.88,-66.5 376.88,-97"/>
<text text-anchor="start" x="283.38" y="-83.5" font-family="Helvetica,sans-Serif" font-size="10.00">tdms/include/vertex</text>
<text text-anchor="middle" x="326.12" y="-72.25" font-family="Helvetica,sans-Serif" font-size="10.00">_phasors.h</text>
</a>
</g>
</g>
<!-- Node2&#45;&gt;Node7 -->
<g id="edge6_Node000002_Node000007" class="edge">
<title>Node2&#45;&gt;Node7</title>
<g id="a_edge6_Node000002_Node000007"><a xlink:title=" ">
<path fill="none" stroke="#63b8ff" d="M326.12,-126.87C326.12,-117.19 326.12,-105.85 326.12,-97.09"/>
<polygon fill="#63b8ff" stroke="#63b8ff" points="322.63,-126.77 326.13,-136.77 329.63,-126.77 322.63,-126.77"/>
</a>
</g>
</g>
<!-- Node5 -->
<g id="Node000005" class="node">
<title>Node5</title>
<g id="a_Node000005"><a xlink:href="test___field_sample_8cpp.html" target="_top" xlink:title="Unit tests for the FieldSample class and its subclasses.">
<polygon fill="white" stroke="#666666" points="116.5,-30.5 15.75,-30.5 15.75,0 116.5,0 116.5,-30.5"/>
<text text-anchor="start" x="23.75" y="-17" font-family="Helvetica,sans-Serif" font-size="10.00">tdms/tests/unit/test</text>
<text text-anchor="middle" x="66.12" y="-5.75" font-family="Helvetica,sans-Serif" font-size="10.00">_FieldSample.cpp</text>
</a>
</g>
</g>
<!-- Node4&#45;&gt;Node5 -->
<g id="edge4_Node000004_Node000005" class="edge">
<title>Node4&#45;&gt;Node5</title>
<g id="a_edge4_Node000004_Node000005"><a xlink:title=" ">
<path fill="none" stroke="#63b8ff" d="M66.12,-60.37C66.12,-50.69 66.12,-39.35 66.12,-30.59"/>
<polygon fill="#63b8ff" stroke="#63b8ff" points="62.63,-60.27 66.13,-70.27 69.63,-60.27 62.63,-60.27"/>
</a>
</g>
</g>
<!-- Node8 -->
<g id="Node000008" class="node">
<title>Node8</title>
<g id="a_Node000008"><a xlink:href="test___vertex_phasors_8cpp.html" target="_top" xlink:title="Unit tests for the VertexPhasors class.">
<polygon fill="white" stroke="#666666" points="378.38,-30.5 273.88,-30.5 273.88,0 378.38,0 378.38,-30.5"/>
<text text-anchor="start" x="281.88" y="-17" font-family="Helvetica,sans-Serif" font-size="10.00">tdms/tests/unit/test</text>
<text text-anchor="middle" x="326.12" y="-5.75" font-family="Helvetica,sans-Serif" font-size="10.00">_VertexPhasors.cpp</text>
</a>
</g>
</g>
<!-- Node7&#45;&gt;Node8 -->
<g id="edge7_Node000007_Node000008" class="edge">
<title>Node7&#45;&gt;Node8</title>
<g id="a_edge7_Node000007_Node000008"><a xlink:title=" ">
<path fill="none" stroke="#63b8ff" d="M326.12,-54.81C326.12,-46.64 326.12,-37.91 326.12,-30.83"/>
<polygon fill="#63b8ff" stroke="#63b8ff" points="322.63,-54.6 326.13,-64.6 329.63,-54.6 322.63,-54.6"/>
</a>
</g>
</g>
<!-- Node9&#45;&gt;Node10 -->
<g id="edge9_Node000009_Node000010" class="edge">
<title>Node9&#45;&gt;Node10</title>
<g id="a_edge9_Node000009_Node000010"><a xlink:title=" ">
<path fill="none" stroke="#63b8ff" d="M648.91,-126.07C635.49,-116.66 620.02,-105.81 607.92,-97.33"/>
<polygon fill="#63b8ff" stroke="#63b8ff" points="646.81,-128.87 657.01,-131.75 650.83,-123.14 646.81,-128.87"/>
</a>
</g>
</g>
<!-- Node9&#45;&gt;Node11 -->
<g id="edge10_Node000009_Node000011" class="edge">
<title>Node9&#45;&gt;Node11</title>
<g id="a_edge10_Node000009_Node000011"><a xlink:title=" ">
<path fill="none" stroke="#63b8ff" d="M706.75,-125.52C718.55,-116.23 732.02,-105.65 742.59,-97.33"/>
<polygon fill="#63b8ff" stroke="#63b8ff" points="704.62,-122.74 698.92,-131.68 708.95,-128.25 704.62,-122.74"/>
</a>
</g>
</g>
<!-- Node9&#45;&gt;Node12 -->
<g id="edge11_Node000009_Node000012" class="edge">
<title>Node9&#45;&gt;Node12</title>
<g id="a_edge11_Node000009_Node000012"><a xlink:title=" ">
<path fill="none" stroke="#63b8ff" d="M746.16,-129.75C784.96,-119.61 833.23,-107.01 870.01,-97.4"/>
<polygon fill="#63b8ff" stroke="#63b8ff" points="745.74,-126.24 736.95,-132.15 747.51,-133.01 745.74,-126.24"/>
</a>
</g>
</g>
</g>
</svg>
