<?xml version="1.0" encoding="UTF-8" standalone="no"?>
<!DOCTYPE svg PUBLIC "-//W3C//DTD SVG 1.1//EN"
 "http://www.w3.org/Graphics/SVG/1.1/DTD/svg11.dtd">
<!-- Generated by graphviz version 8.0.5 (20230430.1635)
 -->
<!-- Title: tdms/include/input_flags.h Pages: 1 -->
<svg width="493pt" height="149pt"
 viewBox="0.00 0.00 493.38 149.00" xmlns="http://www.w3.org/2000/svg" xmlns:xlink="http://www.w3.org/1999/xlink">
<g id="graph0" class="graph" transform="scale(1 1) rotate(0) translate(4 145)">
<title>tdms/include/input_flags.h</title>
<!-- Node1 -->
<g id="node1" class="node">
<title>Node1</title>
<g id="a_node1"><a xlink:title="Organises enumerated constants, names, and classes for handling flag&#45;variables that are passed to TDM...">
<polygon fill="#999999" stroke="#666666" points="247.62,-141 152.12,-141 152.12,-110.5 247.62,-110.5 247.62,-141"/>
<text text-anchor="start" x="160.12" y="-127.5" font-family="Helvetica,sans-Serif" font-size="10.00">tdms/include/input</text>
<text text-anchor="middle" x="199.88" y="-116.25" font-family="Helvetica,sans-Serif" font-size="10.00">_flags.h</text>
</a>
</g>
</g>
<!-- Node2 -->
<g id="node2" class="node">
<title>Node2</title>
<g id="a_node2"><a xlink:title=" ">
<polygon fill="#e0e0e0" stroke="#999999" points="55.75,-74.5 0,-74.5 0,-55.25 55.75,-55.25 55.75,-74.5"/>
<text text-anchor="middle" x="27.88" y="-61" font-family="Helvetica,sans-Serif" font-size="10.00">algorithm</text>
</a>
</g>
</g>
<!-- Node1&#45;&gt;Node2 -->
<g id="edge1" class="edge">
<title>Node1&#45;&gt;Node2</title>
<path fill="none" stroke="#63b8ff" d="M156.92,-110.05C128.54,-100.33 91.75,-87.74 64.71,-78.48"/>
<polygon fill="#63b8ff" stroke="#63b8ff" points="66.1,-74.92 55.51,-74.99 63.83,-81.54 66.1,-74.92"/>
</g>
<!-- Node3 -->
<g id="node3" class="node">
<title>Node3</title>
<g id="a_node3"><a xlink:title=" ">
<polygon fill="#e0e0e0" stroke="#999999" points="132.25,-74.5 73.5,-74.5 73.5,-55.25 132.25,-55.25 132.25,-74.5"/>
<text text-anchor="middle" x="102.88" y="-61" font-family="Helvetica,sans-Serif" font-size="10.00">stdexcept</text>
</a>
</g>
</g>
<!-- Node1&#45;&gt;Node3 -->
<g id="edge2" class="edge">
<title>Node1&#45;&gt;Node3</title>
<path fill="none" stroke="#63b8ff" d="M175.9,-110.2C160.99,-101.15 141.88,-89.55 126.95,-80.49"/>
<polygon fill="#63b8ff" stroke="#63b8ff" points="129.19,-77.15 118.83,-74.95 125.56,-83.13 129.19,-77.15"/>
</g>
<!-- Node4 -->
<g id="node4" class="node">
<title>Node4</title>
<g id="a_node4"><a xlink:title=" ">
<polygon fill="#e0e0e0" stroke="#999999" points="189.88,-74.5 149.88,-74.5 149.88,-55.25 189.88,-55.25 189.88,-74.5"/>
<text text-anchor="middle" x="169.88" y="-61" font-family="Helvetica,sans-Serif" font-size="10.00">string</text>
</a>
</g>
</g>
<!-- Node1&#45;&gt;Node4 -->
<g id="edge3" class="edge">
<title>Node1&#45;&gt;Node4</title>
<path fill="none" stroke="#63b8ff" d="M192.46,-110.2C188.51,-102.44 183.6,-92.81 179.37,-84.51"/>
<polygon fill="#63b8ff" stroke="#63b8ff" points="182.16,-83.27 174.5,-75.95 175.92,-86.45 182.16,-83.27"/>
</g>
<!-- Node5 -->
<g id="node5" class="node">
<title>Node5</title>
<g id="a_node5"><a xlink:title=" ">
<polygon fill="#e0e0e0" stroke="#999999" points="251.38,-74.5 208.38,-74.5 208.38,-55.25 251.38,-55.25 251.38,-74.5"/>
<text text-anchor="middle" x="229.88" y="-61" font-family="Helvetica,sans-Serif" font-size="10.00">vector</text>
</a>
</g>
</g>
<!-- Node1&#45;&gt;Node5 -->
<g id="edge4" class="edge">
<title>Node1&#45;&gt;Node5</title>
<path fill="none" stroke="#63b8ff" d="M207.29,-110.2C211.24,-102.44 216.15,-92.81 220.38,-84.51"/>
<polygon fill="#63b8ff" stroke="#63b8ff" points="223.83,-86.45 225.25,-75.95 217.59,-83.27 223.83,-86.45"/>
</g>
<!-- Node6 -->
<g id="node6" class="node">
<title>Node6</title>
<g id="a_node6"><a xlink:title=" ">
<polygon fill="#e0e0e0" stroke="#999999" points="354,-74.5 269.75,-74.5 269.75,-55.25 354,-55.25 354,-74.5"/>
<text text-anchor="middle" x="311.88" y="-61" font-family="Helvetica,sans-Serif" font-size="10.00">spdlog/spdlog.h</text>
</a>
</g>
</g>
<!-- Node1&#45;&gt;Node6 -->
<g id="edge5" class="edge">
<title>Node1&#45;&gt;Node6</title>
<path fill="none" stroke="#63b8ff" d="M227.85,-110.05C245.4,-100.82 267.89,-89 285.19,-79.9"/>
<polygon fill="#63b8ff" stroke="#63b8ff" points="286.48,-82.66 293.7,-74.9 283.22,-76.46 286.48,-82.66"/>
</g>
<!-- Node7 -->
<g id="node7" class="node">
<title>Node7</title>
<g id="a_node7"><a xlink:href="mat__io_8h.html" target="_top" xlink:title="Includes MATLAB headers for I/O.">
<polygon fill="white" stroke="#666666" points="425.62,-74.5 372.12,-74.5 372.12,-55.25 425.62,-55.25 425.62,-74.5"/>
<text text-anchor="middle" x="398.88" y="-61" font-family="Helvetica,sans-Serif" font-size="10.00">mat_io.h</text>
</a>
</g>
</g>
<!-- Node1&#45;&gt;Node7 -->
<g id="edge6" class="edge">
<title>Node1&#45;&gt;Node7</title>
<path fill="none" stroke="#63b8ff" d="M248.05,-110.5C282.87,-100.19 329.26,-86.47 361.35,-76.98"/>
<polygon fill="#63b8ff" stroke="#63b8ff" points="362.05,-80.12 370.64,-73.93 360.06,-73.41 362.05,-80.12"/>
</g>
<!-- Node8 -->
<g id="node8" class="node">
<title>Node8</title>
<g id="a_node8"><a xlink:title=" ">
<polygon fill="#e0e0e0" stroke="#999999" points="355.25,-19.25 314.5,-19.25 314.5,0 355.25,0 355.25,-19.25"/>
<text text-anchor="middle" x="334.88" y="-5.75" font-family="Helvetica,sans-Serif" font-size="10.00">mat.h</text>
</a>
</g>
</g>
<!-- Node7&#45;&gt;Node8 -->
<g id="edge7" class="edge">
<title>Node7&#45;&gt;Node8</title>
<path fill="none" stroke="#63b8ff" d="M388.02,-54.84C378.68,-47.07 364.98,-35.67 353.83,-26.4"/>
<polygon fill="#63b8ff" stroke="#63b8ff" points="356.5,-23.23 346.57,-19.52 352.02,-28.61 356.5,-23.23"/>
</g>
<!-- Node9 -->
<g id="node9" class="node">
<title>Node9</title>
<g id="a_node9"><a xlink:title=" ">
<polygon fill="#e0e0e0" stroke="#999999" points="424.5,-19.25 373.25,-19.25 373.25,0 424.5,0 424.5,-19.25"/>
<text text-anchor="middle" x="398.88" y="-5.75" font-family="Helvetica,sans-Serif" font-size="10.00">matrix.h</text>
</a>
</g>
</g>
<!-- Node7&#45;&gt;Node9 -->
<g id="edge8" class="edge">
<title>Node7&#45;&gt;Node9</title>
<path fill="none" stroke="#63b8ff" d="M398.88,-55.08C398.88,-48.42 398.88,-38.99 398.88,-30.53"/>
<polygon fill="#63b8ff" stroke="#63b8ff" points="402.38,-30.61 398.88,-20.61 395.38,-30.61 402.38,-30.61"/>
</g>
<!-- Node10 -->
<g id="node10" class="node">
<title>Node10</title>
<g id="a_node10"><a xlink:title=" ">
<polygon fill="#e0e0e0" stroke="#999999" points="485.38,-19.25 442.38,-19.25 442.38,0 485.38,0 485.38,-19.25"/>
<text text-anchor="middle" x="463.88" y="-5.75" font-family="Helvetica,sans-Serif" font-size="10.00">mex.h</text>
</a>
</g>
</g>
<!-- Node7&#45;&gt;Node10 -->
<g id="edge9" class="edge">
<title>Node7&#45;&gt;Node10</title>
<path fill="none" stroke="#63b8ff" d="M409.9,-54.84C419.39,-47.07 433.3,-35.67 444.62,-26.4"/>
<polygon fill="#63b8ff" stroke="#63b8ff" points="446.49,-28.57 452.01,-19.52 442.06,-23.15 446.49,-28.57"/>
</g>
</g>
</svg>
