<?xml version="1.0" encoding="UTF-8" standalone="no"?>
<!DOCTYPE svg PUBLIC "-//W3C//DTD SVG 1.1//EN"
 "http://www.w3.org/Graphics/SVG/1.1/DTD/svg11.dtd">
<!-- Generated by graphviz version 8.0.2 (20230410.1723)
 -->
<!-- Title: tdms/include/input_output_names.h Pages: 1 -->
<svg width="112pt" height="93pt"
 viewBox="0.00 0.00 111.50 93.00" xmlns="http://www.w3.org/2000/svg" xmlns:xlink="http://www.w3.org/1999/xlink">
<g id="graph0" class="graph" transform="scale(1 1) rotate(0) translate(4 89)">
<title>tdms/include/input_output_names.h</title>
<!-- Node1 -->
<g id="node1" class="node">
<title>Node1</title>
<g id="a_node1"><a xlink:title="Constant values associated with the format of the input and output files and matrices.">
<polygon fill="#999999" stroke="#666666" points="98.5,-85 2.5,-85 2.5,-55 98.5,-55 98.5,-85"/>
<text text-anchor="start" x="10.5" y="-73" font-family="Helvetica,sans-Serif" font-size="10.00">tdms/include/input</text>
<text text-anchor="middle" x="50.5" y="-62" font-family="Helvetica,sans-Serif" font-size="10.00">_output_names.h</text>
</a>
</g>
</g>
<!-- Node2 -->
<g id="node2" class="node">
<title>Node2</title>
<g id="a_node2"><a xlink:title=" ">
<polygon fill="#e0e0e0" stroke="#999999" points="41,-19 0,-19 0,0 41,0 41,-19"/>
<text text-anchor="middle" x="20.5" y="-7" font-family="Helvetica,sans-Serif" font-size="10.00">string</text>
</a>
</g>
</g>
<!-- Node1&#45;&gt;Node2 -->
<g id="edge1" class="edge">
<title>Node1&#45;&gt;Node2</title>
<path fill="none" stroke="#63b8ff" d="M43.08,-54.54C39.08,-46.74 34.1,-37.03 29.84,-28.71"/>
<polygon fill="#63b8ff" stroke="#63b8ff" points="32.63,-27.48 24.95,-20.18 26.4,-30.67 32.63,-27.48"/>
</g>
<!-- Node3 -->
<g id="node3" class="node">
<title>Node3</title>
<g id="a_node3"><a xlink:title=" ">
<polygon fill="#e0e0e0" stroke="#999999" points="103.5,-19 59.5,-19 59.5,0 103.5,0 103.5,-19"/>
<text text-anchor="middle" x="81.5" y="-7" font-family="Helvetica,sans-Serif" font-size="10.00">vector</text>
</a>
</g>
</g>
<!-- Node1&#45;&gt;Node3 -->
<g id="edge2" class="edge">
<title>Node1&#45;&gt;Node3</title>
<path fill="none" stroke="#63b8ff" d="M58.16,-54.54C62.3,-46.74 67.44,-37.03 71.85,-28.71"/>
<polygon fill="#63b8ff" stroke="#63b8ff" points="75.31,-30.65 76.9,-20.18 69.13,-27.37 75.31,-30.65"/>
</g>
</g>
</svg>
