<?xml version="1.0" encoding="UTF-8" standalone="no"?>
<!DOCTYPE svg PUBLIC "-//W3C//DTD SVG 1.1//EN"
 "http://www.w3.org/Graphics/SVG/1.1/DTD/svg11.dtd">
<!-- Generated by graphviz version 8.0.4 (20230421.1958)
 -->
<!-- Title: tdms/include/input_flags.h Pages: 1 -->
<svg width="1003pt" height="238pt"
 viewBox="0.00 0.00 1002.88 238.00" xmlns="http://www.w3.org/2000/svg" xmlns:xlink="http://www.w3.org/1999/xlink">
<g id="graph0" class="graph" transform="scale(1 1) rotate(0) translate(4 234)">
<title>tdms/include/input_flags.h</title>
<!-- Node1 -->
<g id="node1" class="node">
<title>Node1</title>
<g id="a_node1"><a xlink:title="Organises enumerated constants, names, and classes for handling flag&#45;variables that are passed to TDM...">
<polygon fill="#999999" stroke="#666666" points="772.88,-230 677.38,-230 677.38,-199.5 772.88,-199.5 772.88,-230"/>
<text text-anchor="start" x="685.38" y="-216.5" font-family="Helvetica,sans-Serif" font-size="10.00">tdms/include/input</text>
<text text-anchor="middle" x="725.12" y="-205.25" font-family="Helvetica,sans-Serif" font-size="10.00">_flags.h</text>
</a>
</g>
</g>
<!-- Node2 -->
<g id="node2" class="node">
<title>Node2</title>
<g id="a_node2"><a xlink:href="field_8h.html" target="_top" xlink:title="Classes for the electric and magnetic (split) fields on a grid.">
<polygon fill="white" stroke="#666666" points="376.5,-157.88 275.75,-157.88 275.75,-138.62 376.5,-138.62 376.5,-157.88"/>
<text text-anchor="middle" x="326.12" y="-144.38" font-family="Helvetica,sans-Serif" font-size="10.00">tdms/include/field.h</text>
</a>
</g>
</g>
<!-- Node1&#45;&gt;Node2 -->
<g id="edge1" class="edge">
<title>Node1&#45;&gt;Node2</title>
<path fill="none" stroke="#63b8ff" d="M666.36,-204.25C588.1,-191.6 450.96,-169.43 376.94,-157.46"/>
<polygon fill="#63b8ff" stroke="#63b8ff" points="665.57,-207.83 676,-205.97 666.68,-200.92 665.57,-207.83"/>
</g>
<!-- Node9 -->
<g id="node9" class="node">
<title>Node9</title>
<g id="a_node9"><a xlink:href="interpolation__methods_8h.html" target="_top" xlink:title="InterpScheme class methods and supporting functions.">
<polygon fill="white" stroke="#666666" points="742.62,-163.5 615.62,-163.5 615.62,-133 742.62,-133 742.62,-163.5"/>
<text text-anchor="start" x="623.62" y="-150" font-family="Helvetica,sans-Serif" font-size="10.00">tdms/include/interpolation</text>
<text text-anchor="middle" x="679.12" y="-138.75" font-family="Helvetica,sans-Serif" font-size="10.00">_methods.h</text>
</a>
</g>
</g>
<!-- Node1&#45;&gt;Node9 -->
<g id="edge8" class="edge">
<title>Node1&#45;&gt;Node9</title>
<path fill="none" stroke="#63b8ff" d="M708.44,-190.35C702.11,-181.48 695.1,-171.65 689.52,-163.83"/>
<polygon fill="#63b8ff" stroke="#63b8ff" points="706.03,-192 714.69,-198.11 711.73,-187.94 706.03,-192"/>
</g>
<!-- Node10 -->
<g id="node10" class="node">
<title>Node10</title>
<g id="a_node10"><a xlink:href="test___b_li__vs__cubic__interpolation_8cpp.html" target="_top" xlink:title="Tests the performance of bandlimited interpolation against cubic interpolation.">
<polygon fill="white" stroke="#666666" points="665.25,-97 509,-97 509,-66.5 665.25,-66.5 665.25,-97"/>
<text text-anchor="start" x="517" y="-83.5" font-family="Helvetica,sans-Serif" font-size="10.00">tdms/tests/unit/test</text>
<text text-anchor="middle" x="587.12" y="-72.25" font-family="Helvetica,sans-Serif" font-size="10.00">_BLi_vs_cubic_interpolation.cpp</text>
</a>
</g>
</g>
<!-- Node1&#45;&gt;Node10 -->
<g id="edge13" class="edge">
<title>Node1&#45;&gt;Node10</title>
<path fill="none" stroke="#63b8ff" d="M666.87,-201.14C644.95,-193.63 621.61,-181.84 606.12,-163.5 590.24,-144.68 587.1,-114.97 586.76,-97.32"/>
<polygon fill="#63b8ff" stroke="#63b8ff" points="665.56,-204.71 676.15,-204.4 667.67,-198.04 665.56,-204.71"/>
</g>
<!-- Node11 -->
<g id="node11" class="node">
<title>Node11</title>
<g id="a_node11"><a xlink:href="test__interpolation__determination_8cpp.html" target="_top" xlink:title="Tests the logic that determines which interpolation schemes are appropriate.">
<polygon fill="white" stroke="#666666" points="839.25,-97 683,-97 683,-66.5 839.25,-66.5 839.25,-97"/>
<text text-anchor="start" x="691" y="-83.5" font-family="Helvetica,sans-Serif" font-size="10.00">tdms/tests/unit/test</text>
<text text-anchor="middle" x="761.12" y="-72.25" font-family="Helvetica,sans-Serif" font-size="10.00">_interpolation_determination.cpp</text>
</a>
</g>
</g>
<!-- Node1&#45;&gt;Node11 -->
<g id="edge14" class="edge">
<title>Node1&#45;&gt;Node11</title>
<path fill="none" stroke="#63b8ff" d="M740.52,-189.58C744.96,-181.57 749.35,-172.41 752.12,-163.5 759.09,-141.14 760.81,-113.83 761.15,-97.38"/>
<polygon fill="#63b8ff" stroke="#63b8ff" points="737.02,-187.63 734.99,-198.02 743.06,-191.17 737.02,-187.63"/>
</g>
<!-- Node12 -->
<g id="node12" class="node">
<title>Node12</title>
<g id="a_node12"><a xlink:href="test__interpolation__functions_8cpp.html" target="_top" xlink:title="Tests the performance of the interpolation functions, using 1D data mimicing a coordinate axes.">
<polygon fill="white" stroke="#666666" points="994.88,-97 857.38,-97 857.38,-66.5 994.88,-66.5 994.88,-97"/>
<text text-anchor="start" x="865.38" y="-83.5" font-family="Helvetica,sans-Serif" font-size="10.00">tdms/tests/unit/test</text>
<text text-anchor="middle" x="926.12" y="-72.25" font-family="Helvetica,sans-Serif" font-size="10.00">_interpolation_functions.cpp</text>
</a>
</g>
</g>
<!-- Node1&#45;&gt;Node12 -->
<g id="edge15" class="edge">
<title>Node1&#45;&gt;Node12</title>
<path fill="none" stroke="#63b8ff" d="M750.24,-192.15C770.73,-175.05 800.82,-151.11 829.12,-133 850.05,-119.61 874.96,-106.77 894.3,-97.42"/>
<polygon fill="#63b8ff" stroke="#63b8ff" points="748.47,-189.9 743.08,-199.02 752.98,-195.26 748.47,-189.9"/>
</g>
<!-- Node13 -->
<g id="node13" class="node">
<title>Node13</title>
<g id="a_node13"><a xlink:href="main_8cpp.html" target="_top" xlink:title="The main function. Launches TDMS.">
<polygon fill="white" stroke="#666666" points="934.62,-157.88 837.62,-157.88 837.62,-138.62 934.62,-138.62 934.62,-157.88"/>
<text text-anchor="middle" x="886.12" y="-144.38" font-family="Helvetica,sans-Serif" font-size="10.00">tdms/src/main.cpp</text>
</a>
</g>
</g>
<!-- Node1&#45;&gt;Node13 -->
<g id="edge12" class="edge">
<title>Node1&#45;&gt;Node13</title>
<path fill="none" stroke="#63b8ff" d="M771.58,-195.14C801.81,-183.03 839.9,-167.77 863.64,-158.26"/>
<polygon fill="#63b8ff" stroke="#63b8ff" points="770.64,-192.15 762.66,-199.11 773.24,-198.64 770.64,-192.15"/>
</g>
<!-- Node3 -->
<g id="node3" class="node">
<title>Node3</title>
<g id="a_node3"><a xlink:href="array__init_8h.html" target="_top" xlink:title="A collection of functions for array initialisation given MATLAB pointers.">
<polygon fill="white" stroke="#666666" points="491.25,-97 395,-97 395,-66.5 491.25,-66.5 491.25,-97"/>
<text text-anchor="start" x="403" y="-83.5" font-family="Helvetica,sans-Serif" font-size="10.00">tdms/include/array</text>
<text text-anchor="middle" x="443.12" y="-72.25" font-family="Helvetica,sans-Serif" font-size="10.00">_init.h</text>
</a>
</g>
</g>
<!-- Node2&#45;&gt;Node3 -->
<g id="edge2" class="edge">
<title>Node2&#45;&gt;Node3</title>
<path fill="none" stroke="#63b8ff" d="M352.27,-132.84C371.49,-122.24 397.51,-107.9 416.78,-97.28"/>
<polygon fill="#63b8ff" stroke="#63b8ff" points="350.71,-130.25 343.64,-138.15 354.09,-136.38 350.71,-130.25"/>
</g>
<!-- Node4 -->
<g id="node4" class="node">
<title>Node4</title>
<g id="a_node4"><a xlink:href="fieldsample_8h.html" target="_top" xlink:title="Class that stores the extracted field values at user&#45;defined vertices.">
<polygon fill="white" stroke="#666666" points="132.25,-91.38 0,-91.38 0,-72.12 132.25,-72.12 132.25,-91.38"/>
<text text-anchor="middle" x="66.12" y="-77.88" font-family="Helvetica,sans-Serif" font-size="10.00">tdms/include/fieldsample.h</text>
</a>
</g>
</g>
<!-- Node2&#45;&gt;Node4 -->
<g id="edge3" class="edge">
<title>Node2&#45;&gt;Node4</title>
<path fill="none" stroke="#63b8ff" d="M278.75,-135.5C228.05,-122.92 148.71,-103.24 102.64,-91.81"/>
<polygon fill="#63b8ff" stroke="#63b8ff" points="277.88,-139.13 288.42,-138.15 279.56,-132.34 277.88,-139.13"/>
</g>
<!-- Node6 -->
<g id="node6" class="node">
<title>Node6</title>
<g id="a_node6"><a xlink:href="surface__phasors_8h.html" target="_top" xlink:title="Contains a class that handles the complex amplitude extraction.">
<polygon fill="white" stroke="#666666" points="257.5,-97 150.75,-97 150.75,-66.5 257.5,-66.5 257.5,-97"/>
<text text-anchor="start" x="158.75" y="-83.5" font-family="Helvetica,sans-Serif" font-size="10.00">tdms/include/surface</text>
<text text-anchor="middle" x="204.12" y="-72.25" font-family="Helvetica,sans-Serif" font-size="10.00">_phasors.h</text>
</a>
</g>
</g>
<!-- Node2&#45;&gt;Node6 -->
<g id="edge5" class="edge">
<title>Node2&#45;&gt;Node6</title>
<path fill="none" stroke="#63b8ff" d="M299.42,-133.13C279.33,-122.51 251.88,-108 231.6,-97.28"/>
<polygon fill="#63b8ff" stroke="#63b8ff" points="297.43,-136.57 307.9,-138.15 300.7,-130.38 297.43,-136.57"/>
</g>
<!-- Node7 -->
<g id="node7" class="node">
<title>Node7</title>
<g id="a_node7"><a xlink:href="vertex__phasors_8h.html" target="_top" xlink:title="Contains a class that handles the complex amplitude extraction at the vertices.">
<polygon fill="white" stroke="#666666" points="376.88,-97 275.38,-97 275.38,-66.5 376.88,-66.5 376.88,-97"/>
<text text-anchor="start" x="283.38" y="-83.5" font-family="Helvetica,sans-Serif" font-size="10.00">tdms/include/vertex</text>
<text text-anchor="middle" x="326.12" y="-72.25" font-family="Helvetica,sans-Serif" font-size="10.00">_phasors.h</text>
</a>
</g>
</g>
<!-- Node2&#45;&gt;Node7 -->
<g id="edge6" class="edge">
<title>Node2&#45;&gt;Node7</title>
<path fill="none" stroke="#63b8ff" d="M326.12,-127.52C326.12,-117.7 326.12,-106.05 326.12,-97.09"/>
<polygon fill="#63b8ff" stroke="#63b8ff" points="322.63,-127.28 326.12,-137.28 329.63,-127.28 322.63,-127.28"/>
</g>
<!-- Node5 -->
<g id="node5" class="node">
<title>Node5</title>
<g id="a_node5"><a xlink:href="test___field_sample_8cpp.html" target="_top" xlink:title="Unit tests for the FieldSample class and its subclasses.">
<polygon fill="white" stroke="#666666" points="116.5,-30.5 15.75,-30.5 15.75,0 116.5,0 116.5,-30.5"/>
<text text-anchor="start" x="23.75" y="-17" font-family="Helvetica,sans-Serif" font-size="10.00">tdms/tests/unit/test</text>
<text text-anchor="middle" x="66.12" y="-5.75" font-family="Helvetica,sans-Serif" font-size="10.00">_FieldSample.cpp</text>
</a>
</g>
</g>
<!-- Node4&#45;&gt;Node5 -->
<g id="edge4" class="edge">
<title>Node4&#45;&gt;Node5</title>
<path fill="none" stroke="#63b8ff" d="M66.12,-61.02C66.12,-51.2 66.12,-39.55 66.12,-30.59"/>
<polygon fill="#63b8ff" stroke="#63b8ff" points="62.63,-60.78 66.12,-70.78 69.63,-60.78 62.63,-60.78"/>
</g>
<!-- Node8 -->
<g id="node8" class="node">
<title>Node8</title>
<g id="a_node8"><a xlink:href="test___vertex_phasors_8cpp.html" target="_top" xlink:title="Unit tests for the VertexPhasors class.">
<polygon fill="white" stroke="#666666" points="378.38,-30.5 273.88,-30.5 273.88,0 378.38,0 378.38,-30.5"/>
<text text-anchor="start" x="281.88" y="-17" font-family="Helvetica,sans-Serif" font-size="10.00">tdms/tests/unit/test</text>
<text text-anchor="middle" x="326.12" y="-5.75" font-family="Helvetica,sans-Serif" font-size="10.00">_VertexPhasors.cpp</text>
</a>
</g>
</g>
<!-- Node7&#45;&gt;Node8 -->
<g id="edge7" class="edge">
<title>Node7&#45;&gt;Node8</title>
<path fill="none" stroke="#63b8ff" d="M326.12,-55.38C326.12,-47.05 326.12,-38.08 326.12,-30.83"/>
<polygon fill="#63b8ff" stroke="#63b8ff" points="322.63,-55.11 326.12,-65.11 329.63,-55.11 322.63,-55.11"/>
</g>
<!-- Node9&#45;&gt;Node10 -->
<g id="edge9" class="edge">
<title>Node9&#45;&gt;Node10</title>
<path fill="none" stroke="#63b8ff" d="M649.3,-126.34C635.79,-116.87 620.14,-105.89 607.92,-97.33"/>
<polygon fill="#63b8ff" stroke="#63b8ff" points="647.05,-129.74 657.25,-132.61 651.07,-124.01 647.05,-129.74"/>
</g>
<!-- Node9&#45;&gt;Node11 -->
<g id="edge10" class="edge">
<title>Node9&#45;&gt;Node11</title>
<path fill="none" stroke="#63b8ff" d="M706.05,-126.07C718.02,-116.66 731.81,-105.81 742.59,-97.33"/>
<polygon fill="#63b8ff" stroke="#63b8ff" points="704.43,-123.68 698.73,-132.61 708.76,-129.18 704.43,-123.68"/>
</g>
<!-- Node9&#45;&gt;Node12 -->
<g id="edge11" class="edge">
<title>Node9&#45;&gt;Node12</title>
<path fill="none" stroke="#63b8ff" d="M745.66,-129.88C784.54,-119.72 833.07,-107.05 870.01,-97.4"/>
<polygon fill="#63b8ff" stroke="#63b8ff" points="745.27,-126.62 736.48,-132.53 747.04,-133.39 745.27,-126.62"/>
</g>
</g>
</svg>
