<?xml version="1.0" encoding="UTF-8" standalone="no"?>
<!DOCTYPE svg PUBLIC "-//W3C//DTD SVG 1.1//EN"
 "http://www.w3.org/Graphics/SVG/1.1/DTD/svg11.dtd">
<!-- Generated by graphviz version 8.0.4 (20230421.1958)
 -->
<!-- Title: tdms/include/input_matrices.h Pages: 1 -->
<svg width="500pt" height="293pt"
 viewBox="0.00 0.00 500.38 293.25" xmlns="http://www.w3.org/2000/svg" xmlns:xlink="http://www.w3.org/1999/xlink">
<g id="graph0" class="graph" transform="scale(1 1) rotate(0) translate(4 289.25)">
<title>tdms/include/input_matrices.h</title>
<!-- Node1 -->
<g id="node1" class="node">
<title>Node1</title>
<g id="a_node1"><a xlink:title="Class handling the input matrices that are read in from the input file.">
<polygon fill="#999999" stroke="#666666" points="308.88,-285.25 213.38,-285.25 213.38,-254.75 308.88,-254.75 308.88,-285.25"/>
<text text-anchor="start" x="221.38" y="-271.75" font-family="Helvetica,sans-Serif" font-size="10.00">tdms/include/input</text>
<text text-anchor="middle" x="261.12" y="-260.5" font-family="Helvetica,sans-Serif" font-size="10.00">_matrices.h</text>
</a>
</g>
</g>
<!-- Node2 -->
<g id="node2" class="node">
<title>Node2</title>
<g id="a_node2"><a xlink:href="simulation__parameters_8h.html" target="_top" xlink:title="Classes collecting parameters for the simulation.">
<polygon fill="white" stroke="#666666" points="257.5,-218.75 138.75,-218.75 138.75,-188.25 257.5,-188.25 257.5,-218.75"/>
<text text-anchor="start" x="146.75" y="-205.25" font-family="Helvetica,sans-Serif" font-size="10.00">tdms/include/simulation</text>
<text text-anchor="middle" x="198.12" y="-194" font-family="Helvetica,sans-Serif" font-size="10.00">_parameters.h</text>
</a>
</g>
</g>
<!-- Node1&#45;&gt;Node2 -->
<g id="edge1" class="edge">
<title>Node1&#45;&gt;Node2</title>
<path fill="none" stroke="#63b8ff" d="M239.36,-246.71C230.42,-237.57 220.33,-227.23 212.36,-219.08"/>
<polygon fill="#63b8ff" stroke="#63b8ff" points="236.34,-248.66 245.83,-253.36 241.35,-243.76 236.34,-248.66"/>
</g>
<!-- Node11 -->
<g id="node11" class="node">
<title>Node11</title>
<g id="a_node11"><a xlink:href="main_8cpp.html" target="_top" xlink:title="The main function. Launches TDMS.">
<polygon fill="white" stroke="#666666" points="372.62,-213.12 275.62,-213.12 275.62,-193.88 372.62,-193.88 372.62,-213.12"/>
<text text-anchor="middle" x="324.12" y="-199.62" font-family="Helvetica,sans-Serif" font-size="10.00">tdms/src/main.cpp</text>
</a>
</g>
</g>
<!-- Node1&#45;&gt;Node11 -->
<g id="edge11" class="edge">
<title>Node1&#45;&gt;Node11</title>
<path fill="none" stroke="#63b8ff" d="M282.82,-246.79C294.05,-235.29 307.13,-221.9 315.51,-213.32"/>
<polygon fill="#63b8ff" stroke="#63b8ff" points="280.9,-243.76 276.42,-253.36 285.91,-248.66 280.9,-243.76"/>
</g>
<!-- Node3 -->
<g id="node3" class="node">
<title>Node3</title>
<g id="a_node3"><a xlink:href="field_8h.html" target="_top" xlink:title="Classes for the electric and magnetic (split) fields on a grid.">
<polygon fill="white" stroke="#666666" points="248.5,-152.25 147.75,-152.25 147.75,-133 248.5,-133 248.5,-152.25"/>
<text text-anchor="middle" x="198.12" y="-138.75" font-family="Helvetica,sans-Serif" font-size="10.00">tdms/include/field.h</text>
</a>
</g>
</g>
<!-- Node2&#45;&gt;Node3 -->
<g id="edge2" class="edge">
<title>Node2&#45;&gt;Node3</title>
<path fill="none" stroke="#63b8ff" d="M198.12,-177.07C198.12,-168.39 198.12,-159.23 198.12,-152.7"/>
<polygon fill="#63b8ff" stroke="#63b8ff" points="194.63,-176.95 198.12,-186.95 201.63,-176.95 194.63,-176.95"/>
</g>
<!-- Node5 -->
<g id="node5" class="node">
<title>Node5</title>
<g id="a_node5"><a xlink:href="fieldsample_8h.html" target="_top" xlink:title="Class that stores the extracted field values at user&#45;defined vertices.">
<polygon fill="white" stroke="#666666" points="132.25,-91.38 0,-91.38 0,-72.12 132.25,-72.12 132.25,-91.38"/>
<text text-anchor="middle" x="66.12" y="-77.88" font-family="Helvetica,sans-Serif" font-size="10.00">tdms/include/fieldsample.h</text>
</a>
</g>
</g>
<!-- Node2&#45;&gt;Node5 -->
<g id="edge9" class="edge">
<title>Node2&#45;&gt;Node5</title>
<path fill="none" stroke="#63b8ff" d="M172.08,-180.85C161.72,-172.1 149.75,-161.82 139.12,-152.25 115.46,-130.94 88.55,-104.8 74.97,-91.47"/>
<polygon fill="#63b8ff" stroke="#63b8ff" points="169.44,-184.05 179.35,-187.8 173.94,-178.69 169.44,-184.05"/>
</g>
<!-- Node10 -->
<g id="node10" class="node">
<title>Node10</title>
<g id="a_node10"><a xlink:href="mesh__base_8h.html" target="_top" xlink:title="Generation of orientated mesh.">
<polygon fill="white" stroke="#666666" points="399.62,-152.25 266.62,-152.25 266.62,-133 399.62,-133 399.62,-152.25"/>
<text text-anchor="middle" x="333.12" y="-138.75" font-family="Helvetica,sans-Serif" font-size="10.00">tdms/include/mesh_base.h</text>
</a>
</g>
</g>
<!-- Node2&#45;&gt;Node10 -->
<g id="edge10" class="edge">
<title>Node2&#45;&gt;Node10</title>
<path fill="none" stroke="#63b8ff" d="M241.69,-183.5C265.41,-173.16 293.66,-160.83 312.42,-152.65"/>
<polygon fill="#63b8ff" stroke="#63b8ff" points="240.61,-180.59 232.84,-187.8 243.41,-187.01 240.61,-180.59"/>
</g>
<!-- Node4 -->
<g id="node4" class="node">
<title>Node4</title>
<g id="a_node4"><a xlink:href="array__init_8h.html" target="_top" xlink:title="A collection of functions for array initialisation given MATLAB pointers.">
<polygon fill="white" stroke="#666666" points="246.25,-97 150,-97 150,-66.5 246.25,-66.5 246.25,-97"/>
<text text-anchor="start" x="158" y="-83.5" font-family="Helvetica,sans-Serif" font-size="10.00">tdms/include/array</text>
<text text-anchor="middle" x="198.12" y="-72.25" font-family="Helvetica,sans-Serif" font-size="10.00">_init.h</text>
</a>
</g>
</g>
<!-- Node3&#45;&gt;Node4 -->
<g id="edge3" class="edge">
<title>Node3&#45;&gt;Node4</title>
<path fill="none" stroke="#63b8ff" d="M198.12,-121.7C198.12,-113.7 198.12,-104.65 198.12,-97.28"/>
<polygon fill="#63b8ff" stroke="#63b8ff" points="194.63,-121.68 198.12,-131.68 201.63,-121.68 194.63,-121.68"/>
</g>
<!-- Node3&#45;&gt;Node5 -->
<g id="edge4" class="edge">
<title>Node3&#45;&gt;Node5</title>
<path fill="none" stroke="#63b8ff" d="M168.07,-128.22C143.03,-117.05 108.05,-101.45 86.27,-91.73"/>
<polygon fill="#63b8ff" stroke="#63b8ff" points="166.23,-131.68 176.79,-132.55 169.08,-125.28 166.23,-131.68"/>
</g>
<!-- Node7 -->
<g id="node7" class="node">
<title>Node7</title>
<g id="a_node7"><a xlink:href="surface__phasors_8h.html" target="_top" xlink:title="Contains a class that handles the complex amplitude extraction.">
<polygon fill="white" stroke="#666666" points="371.5,-97 264.75,-97 264.75,-66.5 371.5,-66.5 371.5,-97"/>
<text text-anchor="start" x="272.75" y="-83.5" font-family="Helvetica,sans-Serif" font-size="10.00">tdms/include/surface</text>
<text text-anchor="middle" x="318.12" y="-72.25" font-family="Helvetica,sans-Serif" font-size="10.00">_phasors.h</text>
</a>
</g>
</g>
<!-- Node3&#45;&gt;Node7 -->
<g id="edge6" class="edge">
<title>Node3&#45;&gt;Node7</title>
<path fill="none" stroke="#63b8ff" d="M226.28,-127.81C244.88,-118.69 269.22,-106.74 288.17,-97.44"/>
<polygon fill="#63b8ff" stroke="#63b8ff" points="225.05,-125.01 217.61,-132.55 228.13,-131.29 225.05,-125.01"/>
</g>
<!-- Node8 -->
<g id="node8" class="node">
<title>Node8</title>
<g id="a_node8"><a xlink:href="vertex__phasors_8h.html" target="_top" xlink:title="Contains a class that handles the complex amplitude extraction at the vertices.">
<polygon fill="white" stroke="#666666" points="490.88,-97 389.38,-97 389.38,-66.5 490.88,-66.5 490.88,-97"/>
<text text-anchor="start" x="397.38" y="-83.5" font-family="Helvetica,sans-Serif" font-size="10.00">tdms/include/vertex</text>
<text text-anchor="middle" x="440.12" y="-72.25" font-family="Helvetica,sans-Serif" font-size="10.00">_phasors.h</text>
</a>
</g>
</g>
<!-- Node3&#45;&gt;Node8 -->
<g id="edge7" class="edge">
<title>Node3&#45;&gt;Node8</title>
<path fill="none" stroke="#63b8ff" d="M246.04,-129.97C287.44,-119.9 347.09,-105.38 389.31,-95.11"/>
<polygon fill="#63b8ff" stroke="#63b8ff" points="245.3,-126.79 236.41,-132.55 246.95,-133.59 245.3,-126.79"/>
</g>
<!-- Node6 -->
<g id="node6" class="node">
<title>Node6</title>
<g id="a_node6"><a xlink:href="test___field_sample_8cpp.html" target="_top" xlink:title="Unit tests for the FieldSample class and its subclasses.">
<polygon fill="white" stroke="#666666" points="116.5,-30.5 15.75,-30.5 15.75,0 116.5,0 116.5,-30.5"/>
<text text-anchor="start" x="23.75" y="-17" font-family="Helvetica,sans-Serif" font-size="10.00">tdms/tests/unit/test</text>
<text text-anchor="middle" x="66.12" y="-5.75" font-family="Helvetica,sans-Serif" font-size="10.00">_FieldSample.cpp</text>
</a>
</g>
</g>
<!-- Node5&#45;&gt;Node6 -->
<g id="edge5" class="edge">
<title>Node5&#45;&gt;Node6</title>
<path fill="none" stroke="#63b8ff" d="M66.12,-61.02C66.12,-51.2 66.12,-39.55 66.12,-30.59"/>
<polygon fill="#63b8ff" stroke="#63b8ff" points="62.63,-60.78 66.12,-70.78 69.63,-60.78 62.63,-60.78"/>
</g>
<!-- Node9 -->
<g id="node9" class="node">
<title>Node9</title>
<g id="a_node9"><a xlink:href="test___vertex_phasors_8cpp.html" target="_top" xlink:title="Unit tests for the VertexPhasors class.">
<polygon fill="white" stroke="#666666" points="492.38,-30.5 387.88,-30.5 387.88,0 492.38,0 492.38,-30.5"/>
<text text-anchor="start" x="395.88" y="-17" font-family="Helvetica,sans-Serif" font-size="10.00">tdms/tests/unit/test</text>
<text text-anchor="middle" x="440.12" y="-5.75" font-family="Helvetica,sans-Serif" font-size="10.00">_VertexPhasors.cpp</text>
</a>
</g>
</g>
<!-- Node8&#45;&gt;Node9 -->
<g id="edge8" class="edge">
<title>Node8&#45;&gt;Node9</title>
<path fill="none" stroke="#63b8ff" d="M440.12,-55.38C440.12,-47.05 440.12,-38.08 440.12,-30.83"/>
<polygon fill="#63b8ff" stroke="#63b8ff" points="436.63,-55.11 440.12,-65.11 443.63,-55.11 436.63,-55.11"/>
</g>
</g>
</svg>
