<?xml version="1.0" encoding="UTF-8" standalone="no"?>
<!DOCTYPE svg PUBLIC "-//W3C//DTD SVG 1.1//EN"
 "http://www.w3.org/Graphics/SVG/1.1/DTD/svg11.dtd">
<!-- Generated by graphviz version 12.2.1 (20241206.2353)
 -->
<!-- Title: tdms/include/input_flags.h Pages: 1 -->
<svg width="493pt" height="149pt"
 viewBox="0.00 0.00 493.38 149.00" xmlns="http://www.w3.org/2000/svg" xmlns:xlink="http://www.w3.org/1999/xlink">
<g id="graph0" class="graph" transform="scale(1 1) rotate(0) translate(4 145)">
<title>tdms/include/input_flags.h</title>
<!-- Node1 -->
<g id="Node000001" class="node">
<title>Node1</title>
<g id="a_Node000001"><a xlink:title="Organises enumerated constants, names, and classes for handling flag&#45;variables that are passed to TDM...">
<polygon fill="#999999" stroke="#666666" points="247.62,-141 152.12,-141 152.12,-110.5 247.62,-110.5 247.62,-141"/>
<text text-anchor="start" x="160.12" y="-127.5" font-family="Helvetica,sans-Serif" font-size="10.00">tdms/include/input</text>
<text text-anchor="middle" x="199.88" y="-116.25" font-family="Helvetica,sans-Serif" font-size="10.00">_flags.h</text>
</a>
</g>
</g>
<!-- Node2 -->
<g id="Node000002" class="node">
<title>Node2</title>
<g id="a_Node000002"><a xlink:title=" ">
<polygon fill="#e0e0e0" stroke="#999999" points="55.75,-74.5 0,-74.5 0,-55.25 55.75,-55.25 55.75,-74.5"/>
<text text-anchor="middle" x="27.88" y="-61" font-family="Helvetica,sans-Serif" font-size="10.00">algorithm</text>
</a>
</g>
</g>
<!-- Node1&#45;&gt;Node2 -->
<g id="edge1_Node000001_Node000002" class="edge">
<title>Node1&#45;&gt;Node2</title>
<g id="a_edge1_Node000001_Node000002"><a xlink:title=" ">
<path fill="none" stroke="#63b8ff" d="M156.92,-110.05C128.67,-100.38 92.07,-87.85 65.07,-78.61"/>
<polygon fill="#63b8ff" stroke="#63b8ff" points="66.53,-75.41 55.94,-75.48 64.27,-82.03 66.53,-75.41"/>
</a>
</g>
</g>
<!-- Node3 -->
<g id="Node000003" class="node">
<title>Node3</title>
<g id="a_Node000003"><a xlink:title=" ">
<polygon fill="#e0e0e0" stroke="#999999" points="132.25,-74.5 73.5,-74.5 73.5,-55.25 132.25,-55.25 132.25,-74.5"/>
<text text-anchor="middle" x="102.88" y="-61" font-family="Helvetica,sans-Serif" font-size="10.00">stdexcept</text>
</a>
</g>
</g>
<!-- Node1&#45;&gt;Node3 -->
<g id="edge2_Node000001_Node000003" class="edge">
<title>Node1&#45;&gt;Node3</title>
<g id="a_edge2_Node000001_Node000003"><a xlink:title=" ">
<path fill="none" stroke="#63b8ff" d="M175.9,-110.2C161.13,-101.23 142.24,-89.77 127.38,-80.75"/>
<polygon fill="#63b8ff" stroke="#63b8ff" points="129.49,-77.93 119.12,-75.74 125.86,-83.92 129.49,-77.93"/>
</a>
</g>
</g>
<!-- Node4 -->
<g id="Node000004" class="node">
<title>Node4</title>
<g id="a_Node000004"><a xlink:title=" ">
<polygon fill="#e0e0e0" stroke="#999999" points="189.88,-74.5 149.88,-74.5 149.88,-55.25 189.88,-55.25 189.88,-74.5"/>
<text text-anchor="middle" x="169.88" y="-61" font-family="Helvetica,sans-Serif" font-size="10.00">string</text>
</a>
</g>
</g>
<!-- Node1&#45;&gt;Node4 -->
<g id="edge3_Node000001_Node000004" class="edge">
<title>Node1&#45;&gt;Node4</title>
<g id="a_edge3_Node000001_Node000004"><a xlink:title=" ">
<path fill="none" stroke="#63b8ff" d="M192.46,-110.2C188.59,-102.61 183.82,-93.24 179.65,-85.07"/>
<polygon fill="#63b8ff" stroke="#63b8ff" points="182.85,-83.62 175.19,-76.3 176.61,-86.8 182.85,-83.62"/>
</a>
</g>
</g>
<!-- Node5 -->
<g id="Node000005" class="node">
<title>Node5</title>
<g id="a_Node000005"><a xlink:title=" ">
<polygon fill="#e0e0e0" stroke="#999999" points="251.38,-74.5 208.38,-74.5 208.38,-55.25 251.38,-55.25 251.38,-74.5"/>
<text text-anchor="middle" x="229.88" y="-61" font-family="Helvetica,sans-Serif" font-size="10.00">vector</text>
</a>
</g>
</g>
<!-- Node1&#45;&gt;Node5 -->
<g id="edge4_Node000001_Node000005" class="edge">
<title>Node1&#45;&gt;Node5</title>
<g id="a_edge4_Node000001_Node000005"><a xlink:title=" ">
<path fill="none" stroke="#63b8ff" d="M207.29,-110.2C211.16,-102.61 215.93,-93.24 220.1,-85.07"/>
<polygon fill="#63b8ff" stroke="#63b8ff" points="223.14,-86.8 224.56,-76.3 216.9,-83.62 223.14,-86.8"/>
</a>
</g>
</g>
<!-- Node6 -->
<g id="Node000006" class="node">
<title>Node6</title>
<g id="a_Node000006"><a xlink:title=" ">
<polygon fill="#e0e0e0" stroke="#999999" points="354,-74.5 269.75,-74.5 269.75,-55.25 354,-55.25 354,-74.5"/>
<text text-anchor="middle" x="311.88" y="-61" font-family="Helvetica,sans-Serif" font-size="10.00">spdlog/spdlog.h</text>
</a>
</g>
</g>
<!-- Node1&#45;&gt;Node6 -->
<g id="edge5_Node000001_Node000006" class="edge">
<title>Node1&#45;&gt;Node6</title>
<g id="a_edge5_Node000001_Node000006"><a xlink:title=" ">
<path fill="none" stroke="#63b8ff" d="M227.85,-110.05C245.23,-100.91 267.47,-89.22 284.7,-80.16"/>
<polygon fill="#63b8ff" stroke="#63b8ff" points="286.14,-83.36 293.36,-75.61 282.88,-77.16 286.14,-83.36"/>
</a>
</g>
</g>
<!-- Node7 -->
<g id="Node000007" class="node">
<title>Node7</title>
<g id="a_Node000007"><a xlink:href="mat__io_8h.html" target="_top" xlink:title="Includes MATLAB headers for I/O.">
<polygon fill="white" stroke="#666666" points="425.62,-74.5 372.12,-74.5 372.12,-55.25 425.62,-55.25 425.62,-74.5"/>
<text text-anchor="middle" x="398.88" y="-61" font-family="Helvetica,sans-Serif" font-size="10.00">mat_io.h</text>
</a>
</g>
</g>
<!-- Node1&#45;&gt;Node7 -->
<g id="edge6_Node000001_Node000007" class="edge">
<title>Node1&#45;&gt;Node7</title>
<g id="a_edge6_Node000001_Node000007"><a xlink:title=" ">
<path fill="none" stroke="#63b8ff" d="M248.05,-110.5C282.72,-100.24 328.85,-86.59 360.93,-77.1"/>
<polygon fill="#63b8ff" stroke="#63b8ff" points="361.6,-80.55 370.19,-74.36 359.61,-73.84 361.6,-80.55"/>
</a>
</g>
</g>
<!-- Node8 -->
<g id="Node000008" class="node">
<title>Node8</title>
<g id="a_Node000008"><a xlink:title=" ">
<polygon fill="#e0e0e0" stroke="#999999" points="355.25,-19.25 314.5,-19.25 314.5,0 355.25,0 355.25,-19.25"/>
<text text-anchor="middle" x="334.88" y="-5.75" font-family="Helvetica,sans-Serif" font-size="10.00">mat.h</text>
</a>
</g>
</g>
<!-- Node7&#45;&gt;Node8 -->
<g id="edge7_Node000007_Node000008" class="edge">
<title>Node7&#45;&gt;Node8</title>
<g id="a_edge7_Node000007_Node000008"><a xlink:title=" ">
<path fill="none" stroke="#63b8ff" d="M388.02,-54.84C378.77,-47.15 365.25,-35.9 354.17,-26.68"/>
<polygon fill="#63b8ff" stroke="#63b8ff" points="356.66,-24.2 346.73,-20.49 352.18,-29.58 356.66,-24.2"/>
</a>
</g>
</g>
<!-- Node9 -->
<g id="Node000009" class="node">
<title>Node9</title>
<g id="a_Node000009"><a xlink:title=" ">
<polygon fill="#e0e0e0" stroke="#999999" points="424.5,-19.25 373.25,-19.25 373.25,0 424.5,0 424.5,-19.25"/>
<text text-anchor="middle" x="398.88" y="-5.75" font-family="Helvetica,sans-Serif" font-size="10.00">matrix.h</text>
</a>
</g>
</g>
<!-- Node7&#45;&gt;Node9 -->
<g id="edge8_Node000007_Node000009" class="edge">
<title>Node7&#45;&gt;Node9</title>
<g id="a_edge8_Node000007_Node000009"><a xlink:title=" ">
<path fill="none" stroke="#63b8ff" d="M398.88,-55.08C398.88,-48.57 398.88,-39.42 398.88,-31.12"/>
<polygon fill="#63b8ff" stroke="#63b8ff" points="402.38,-31.12 398.88,-21.12 395.38,-31.12 402.38,-31.12"/>
</a>
</g>
</g>
<!-- Node10 -->
<g id="Node000010" class="node">
<title>Node10</title>
<g id="a_Node000010"><a xlink:title=" ">
<polygon fill="#e0e0e0" stroke="#999999" points="485.38,-19.25 442.38,-19.25 442.38,0 485.38,0 485.38,-19.25"/>
<text text-anchor="middle" x="463.88" y="-5.75" font-family="Helvetica,sans-Serif" font-size="10.00">mex.h</text>
</a>
</g>
</g>
<!-- Node7&#45;&gt;Node10 -->
<g id="edge9_Node000007_Node000010" class="edge">
<title>Node7&#45;&gt;Node10</title>
<g id="a_edge9_Node000007_Node000010"><a xlink:title=" ">
<path fill="none" stroke="#63b8ff" d="M409.9,-54.84C419.3,-47.15 433.02,-35.9 444.28,-26.68"/>
<polygon fill="#63b8ff" stroke="#63b8ff" points="446.32,-29.53 451.84,-20.48 441.89,-24.11 446.32,-29.53"/>
</a>
</g>
</g>
</g>
</svg>
