<?xml version="1.0" encoding="UTF-8" standalone="no"?>
<!DOCTYPE svg PUBLIC "-//W3C//DTD SVG 1.1//EN"
 "http://www.w3.org/Graphics/SVG/1.1/DTD/svg11.dtd">
<!-- Generated by graphviz version 13.1.2 (20250808.2320)
 -->
<!-- Title: tdms/include/input_matrices.h Pages: 1 -->
<svg width="341pt" height="204pt"
 viewBox="0.00 0.00 341.00 204.00" xmlns="http://www.w3.org/2000/svg" xmlns:xlink="http://www.w3.org/1999/xlink">
<g id="graph0" class="graph" transform="scale(1 1) rotate(0) translate(4 200.25)">
<title>tdms/include/input_matrices.h</title>
<!-- Node1 -->
<g id="Node000001" class="node">
<title>Node1</title>
<g id="a_Node000001"><a xlink:title="Class handling the input matrices that are read in from the input file.">
<polygon fill="#999999" stroke="#666666" points="177.64,-196.25 82.14,-196.25 82.14,-165.75 177.64,-165.75 177.64,-196.25"/>
<text xml:space="preserve" text-anchor="start" x="90.14" y="-182.75" font-family="Helvetica,sans-Serif" font-size="10.00">tdms/include/input</text>
<text xml:space="preserve" text-anchor="middle" x="129.89" y="-171.5" font-family="Helvetica,sans-Serif" font-size="10.00">_matrices.h</text>
</a>
</g>
</g>
<!-- Node2 -->
<g id="Node000002" class="node">
<title>Node2</title>
<g id="a_Node000002"><a xlink:title=" ">
<polygon fill="#e0e0e0" stroke="#999999" points="88.89,-74.5 48.89,-74.5 48.89,-55.25 88.89,-55.25 88.89,-74.5"/>
<text xml:space="preserve" text-anchor="middle" x="68.89" y="-61" font-family="Helvetica,sans-Serif" font-size="10.00">string</text>
</a>
</g>
</g>
<!-- Node1&#45;&gt;Node2 -->
<g id="edge1_Node000001_Node000002" class="edge">
<title>Node1&#45;&gt;Node2</title>
<g id="a_edge1_Node000001_Node000002"><a xlink:title=" ">
<path fill="none" stroke="#63b8ff" d="M81.8,-174.09C54.04,-167.94 21.27,-155.39 3.89,-129.75 -9.5,-109.99 15.47,-91.33 38.24,-79.34"/>
<polygon fill="#63b8ff" stroke="#63b8ff" points="39.63,-82.56 47.05,-74.99 36.53,-76.28 39.63,-82.56"/>
</a>
</g>
</g>
<!-- Node3 -->
<g id="Node000003" class="node">
<title>Node3</title>
<g id="a_Node000003"><a xlink:href="input__output__names_8h.html" target="_top" xlink:title="Constant values associated with the format of the input and output files and matrices.">
<polygon fill="white" stroke="#666666" points="124.89,-129.75 12.89,-129.75 12.89,-110.5 124.89,-110.5 124.89,-129.75"/>
<text xml:space="preserve" text-anchor="middle" x="68.89" y="-116.25" font-family="Helvetica,sans-Serif" font-size="10.00">input_output_names.h</text>
</a>
</g>
</g>
<!-- Node1&#45;&gt;Node3 -->
<g id="edge2_Node000001_Node000003" class="edge">
<title>Node1&#45;&gt;Node3</title>
<g id="a_edge2_Node000001_Node000003"><a xlink:title=" ">
<path fill="none" stroke="#63b8ff" d="M114.81,-165.45C106.24,-157.17 95.46,-146.77 86.5,-138.12"/>
<polygon fill="#63b8ff" stroke="#63b8ff" points="89.01,-135.68 79.38,-131.25 84.15,-140.72 89.01,-135.68"/>
</a>
</g>
</g>
<!-- Node5 -->
<g id="Node000005" class="node">
<title>Node5</title>
<g id="a_Node000005"><a xlink:href="mat__io_8h.html" target="_top" xlink:title="Includes MATLAB headers for I/O.">
<polygon fill="white" stroke="#666666" points="273.64,-74.5 220.14,-74.5 220.14,-55.25 273.64,-55.25 273.64,-74.5"/>
<text xml:space="preserve" text-anchor="middle" x="246.89" y="-61" font-family="Helvetica,sans-Serif" font-size="10.00">mat_io.h</text>
</a>
</g>
</g>
<!-- Node1&#45;&gt;Node5 -->
<g id="edge5_Node000001_Node000005" class="edge">
<title>Node1&#45;&gt;Node5</title>
<g id="a_edge5_Node000001_Node000005"><a xlink:title=" ">
<path fill="none" stroke="#63b8ff" d="M177.88,-172.93C203.88,-166.38 233.88,-153.82 249.89,-129.75 258.46,-116.87 256.81,-99.09 253.53,-85.55"/>
<polygon fill="#63b8ff" stroke="#63b8ff" points="256.91,-84.64 250.73,-76.04 250.2,-86.62 256.91,-84.64"/>
</a>
</g>
</g>
<!-- Node9 -->
<g id="Node000009" class="node">
<title>Node9</title>
<g id="a_Node000009"><a xlink:href="matrix__collection_8h.html" target="_top" xlink:title="A collection of named MATLAB matrices.">
<polygon fill="white" stroke="#666666" points="240.77,-129.75 143.02,-129.75 143.02,-110.5 240.77,-110.5 240.77,-129.75"/>
<text xml:space="preserve" text-anchor="middle" x="191.89" y="-116.25" font-family="Helvetica,sans-Serif" font-size="10.00">matrix_collection.h</text>
</a>
</g>
</g>
<!-- Node1&#45;&gt;Node9 -->
<g id="edge9_Node000001_Node000009" class="edge">
<title>Node1&#45;&gt;Node9</title>
<g id="a_edge9_Node000001_Node000009"><a xlink:title=" ">
<path fill="none" stroke="#63b8ff" d="M145.22,-165.45C153.93,-157.17 164.89,-146.77 173.99,-138.12"/>
<polygon fill="#63b8ff" stroke="#63b8ff" points="176.4,-140.67 181.24,-131.24 171.57,-135.59 176.4,-140.67"/>
</a>
</g>
</g>
<!-- Node3&#45;&gt;Node2 -->
<g id="edge3_Node000003_Node000002" class="edge">
<title>Node3&#45;&gt;Node2</title>
<g id="a_edge3_Node000003_Node000002"><a xlink:title=" ">
<path fill="none" stroke="#63b8ff" d="M68.89,-110.33C68.89,-103.82 68.89,-94.67 68.89,-86.37"/>
<polygon fill="#63b8ff" stroke="#63b8ff" points="72.39,-86.37 68.89,-76.37 65.39,-86.37 72.39,-86.37"/>
</a>
</g>
</g>
<!-- Node4 -->
<g id="Node000004" class="node">
<title>Node4</title>
<g id="a_Node000004"><a xlink:title=" ">
<polygon fill="#e0e0e0" stroke="#999999" points="181.39,-74.5 138.39,-74.5 138.39,-55.25 181.39,-55.25 181.39,-74.5"/>
<text xml:space="preserve" text-anchor="middle" x="159.89" y="-61" font-family="Helvetica,sans-Serif" font-size="10.00">vector</text>
</a>
</g>
</g>
<!-- Node3&#45;&gt;Node4 -->
<g id="edge4_Node000003_Node000004" class="edge">
<title>Node3&#45;&gt;Node4</title>
<g id="a_edge4_Node000003_Node000004"><a xlink:title=" ">
<path fill="none" stroke="#63b8ff" d="M84.33,-110.09C98.06,-102.06 118.39,-90.16 134.51,-80.73"/>
<polygon fill="#63b8ff" stroke="#63b8ff" points="136.21,-83.79 143.07,-75.72 132.67,-77.75 136.21,-83.79"/>
</a>
</g>
</g>
<!-- Node6 -->
<g id="Node000006" class="node">
<title>Node6</title>
<g id="a_Node000006"><a xlink:title=" ">
<polygon fill="#e0e0e0" stroke="#999999" points="203.27,-19.25 162.52,-19.25 162.52,0 203.27,0 203.27,-19.25"/>
<text xml:space="preserve" text-anchor="middle" x="182.89" y="-5.75" font-family="Helvetica,sans-Serif" font-size="10.00">mat.h</text>
</a>
</g>
</g>
<!-- Node5&#45;&gt;Node6 -->
<g id="edge6_Node000005_Node000006" class="edge">
<title>Node5&#45;&gt;Node6</title>
<g id="a_edge6_Node000005_Node000006"><a xlink:title=" ">
<path fill="none" stroke="#63b8ff" d="M236.04,-54.84C226.79,-47.15 213.27,-35.9 202.18,-26.68"/>
<polygon fill="#63b8ff" stroke="#63b8ff" points="204.68,-24.2 194.75,-20.49 200.2,-29.58 204.68,-24.2"/>
</a>
</g>
</g>
<!-- Node7 -->
<g id="Node000007" class="node">
<title>Node7</title>
<g id="a_Node000007"><a xlink:title=" ">
<polygon fill="#e0e0e0" stroke="#999999" points="272.52,-19.25 221.27,-19.25 221.27,0 272.52,0 272.52,-19.25"/>
<text xml:space="preserve" text-anchor="middle" x="246.89" y="-5.75" font-family="Helvetica,sans-Serif" font-size="10.00">matrix.h</text>
</a>
</g>
</g>
<!-- Node5&#45;&gt;Node7 -->
<g id="edge7_Node000005_Node000007" class="edge">
<title>Node5&#45;&gt;Node7</title>
<g id="a_edge7_Node000005_Node000007"><a xlink:title=" ">
<path fill="none" stroke="#63b8ff" d="M246.89,-55.08C246.89,-48.57 246.89,-39.42 246.89,-31.12"/>
<polygon fill="#63b8ff" stroke="#63b8ff" points="250.39,-31.12 246.89,-21.12 243.39,-31.12 250.39,-31.12"/>
</a>
</g>
</g>
<!-- Node8 -->
<g id="Node000008" class="node">
<title>Node8</title>
<g id="a_Node000008"><a xlink:title=" ">
<polygon fill="#e0e0e0" stroke="#999999" points="333.39,-19.25 290.39,-19.25 290.39,0 333.39,0 333.39,-19.25"/>
<text xml:space="preserve" text-anchor="middle" x="311.89" y="-5.75" font-family="Helvetica,sans-Serif" font-size="10.00">mex.h</text>
</a>
</g>
</g>
<!-- Node5&#45;&gt;Node8 -->
<g id="edge8_Node000005_Node000008" class="edge">
<title>Node5&#45;&gt;Node8</title>
<g id="a_edge8_Node000005_Node000008"><a xlink:title=" ">
<path fill="none" stroke="#63b8ff" d="M257.92,-54.84C267.31,-47.15 281.04,-35.9 292.3,-26.68"/>
<polygon fill="#63b8ff" stroke="#63b8ff" points="294.34,-29.53 299.86,-20.48 289.9,-24.11 294.34,-29.53"/>
</a>
</g>
</g>
<!-- Node9&#45;&gt;Node2 -->
<g id="edge10_Node000009_Node000002" class="edge">
<title>Node9&#45;&gt;Node2</title>
<g id="a_edge10_Node000009_Node000002"><a xlink:title=" ">
<path fill="none" stroke="#63b8ff" d="M171.03,-110.09C151.35,-101.57 121.64,-88.71 99.32,-79.05"/>
<polygon fill="#63b8ff" stroke="#63b8ff" points="101,-75.96 90.43,-75.2 98.22,-82.38 101,-75.96"/>
</a>
</g>
</g>
<!-- Node9&#45;&gt;Node4 -->
<g id="edge11_Node000009_Node000004" class="edge">
<title>Node9&#45;&gt;Node4</title>
<g id="a_edge11_Node000009_Node000004"><a xlink:title=" ">
<path fill="none" stroke="#63b8ff" d="M186.61,-110.33C182.42,-103.36 176.41,-93.37 171.16,-84.62"/>
<polygon fill="#63b8ff" stroke="#63b8ff" points="174.22,-82.93 166.07,-76.16 168.22,-86.53 174.22,-82.93"/>
</a>
</g>
</g>
<!-- Node9&#45;&gt;Node5 -->
<g id="edge12_Node000009_Node000005" class="edge">
<title>Node9&#45;&gt;Node5</title>
<g id="a_edge12_Node000009_Node000005"><a xlink:title=" ">
<path fill="none" stroke="#63b8ff" d="M200.97,-110.33C208.73,-102.82 220.1,-91.81 229.59,-82.63"/>
<polygon fill="#63b8ff" stroke="#63b8ff" points="231.78,-85.38 236.53,-75.91 226.91,-80.35 231.78,-85.38"/>
</a>
</g>
</g>
</g>
</svg>
