<?xml version="1.0" encoding="UTF-8" standalone="no"?>
<!DOCTYPE svg PUBLIC "-//W3C//DTD SVG 1.1//EN"
 "http://www.w3.org/Graphics/SVG/1.1/DTD/svg11.dtd">
<!-- Generated by graphviz version 8.0.2 (20230410.1723)
 -->
<!-- Title: tdms/include/input_matrices.h Pages: 1 -->
<svg width="346pt" height="203pt"
 viewBox="0.00 0.00 345.92 203.00" xmlns="http://www.w3.org/2000/svg" xmlns:xlink="http://www.w3.org/1999/xlink">
<g id="graph0" class="graph" transform="scale(1 1) rotate(0) translate(4 199)">
<title>tdms/include/input_matrices.h</title>
<!-- Node1 -->
<g id="node1" class="node">
<title>Node1</title>
<g id="a_node1"><a xlink:title="Class handling the input matrices that are read in from the input file.">
<polygon fill="#999999" stroke="#666666" points="179.92,-195 83.92,-195 83.92,-165 179.92,-165 179.92,-195"/>
<text text-anchor="start" x="91.92" y="-183" font-family="Helvetica,sans-Serif" font-size="10.00">tdms/include/input</text>
<text text-anchor="middle" x="131.92" y="-172" font-family="Helvetica,sans-Serif" font-size="10.00">_matrices.h</text>
</a>
</g>
</g>
<!-- Node2 -->
<g id="node2" class="node">
<title>Node2</title>
<g id="a_node2"><a xlink:title=" ">
<polygon fill="#e0e0e0" stroke="#999999" points="90.42,-74 49.42,-74 49.42,-55 90.42,-55 90.42,-74"/>
<text text-anchor="middle" x="69.92" y="-62" font-family="Helvetica,sans-Serif" font-size="10.00">string</text>
</a>
</g>
</g>
<!-- Node1&#45;&gt;Node2 -->
<g id="edge1" class="edge">
<title>Node1&#45;&gt;Node2</title>
<path fill="none" stroke="#63b8ff" d="M83.42,-173.48C55.15,-167.49 21.68,-155.01 3.92,-129 -9.74,-109.01 16.19,-90.34 39.45,-78.48"/>
<polygon fill="#63b8ff" stroke="#63b8ff" points="40.63,-81.32 48.14,-73.84 37.61,-75.01 40.63,-81.32"/>
</g>
<!-- Node3 -->
<g id="node3" class="node">
<title>Node3</title>
<g id="a_node3"><a xlink:href="input__output__names_8h.html" target="_top" xlink:title="Constant values associated with the format of the input and output files and matrices.">
<polygon fill="white" stroke="#666666" points="126.42,-129 13.42,-129 13.42,-110 126.42,-110 126.42,-129"/>
<text text-anchor="middle" x="69.92" y="-117" font-family="Helvetica,sans-Serif" font-size="10.00">input_output_names.h</text>
</a>
</g>
</g>
<!-- Node1&#45;&gt;Node3 -->
<g id="edge2" class="edge">
<title>Node1&#45;&gt;Node3</title>
<path fill="none" stroke="#63b8ff" d="M116.59,-164.54C107.58,-156.04 96.18,-145.29 86.91,-136.53"/>
<polygon fill="#63b8ff" stroke="#63b8ff" points="89.78,-134.49 80.11,-130.18 84.98,-139.58 89.78,-134.49"/>
</g>
<!-- Node5 -->
<g id="node5" class="node">
<title>Node5</title>
<g id="a_node5"><a xlink:href="mat__io_8h.html" target="_top" xlink:title="Includes MATLAB headers for I/O.">
<polygon fill="white" stroke="#666666" points="276.92,-74 222.92,-74 222.92,-55 276.92,-55 276.92,-74"/>
<text text-anchor="middle" x="249.92" y="-62" font-family="Helvetica,sans-Serif" font-size="10.00">mat_io.h</text>
</a>
</g>
</g>
<!-- Node1&#45;&gt;Node5 -->
<g id="edge5" class="edge">
<title>Node1&#45;&gt;Node5</title>
<path fill="none" stroke="#63b8ff" d="M180.2,-171.95C206.12,-165.44 235.95,-152.94 251.92,-129 260.53,-116.08 259.06,-98.17 256,-84.66"/>
<polygon fill="#63b8ff" stroke="#63b8ff" points="259.14,-83.88 253.11,-75.16 252.39,-85.73 259.14,-83.88"/>
</g>
<!-- Node9 -->
<g id="node9" class="node">
<title>Node9</title>
<g id="a_node9"><a xlink:href="matrix__collection_8h.html" target="_top" xlink:title="A collection of named MATLAB matrices.">
<polygon fill="white" stroke="#666666" points="242.92,-129 144.92,-129 144.92,-110 242.92,-110 242.92,-129"/>
<text text-anchor="middle" x="193.92" y="-117" font-family="Helvetica,sans-Serif" font-size="10.00">matrix_collection.h</text>
</a>
</g>
</g>
<!-- Node1&#45;&gt;Node9 -->
<g id="edge9" class="edge">
<title>Node1&#45;&gt;Node9</title>
<path fill="none" stroke="#63b8ff" d="M147.24,-164.54C156.25,-156.04 167.65,-145.29 176.93,-136.53"/>
<polygon fill="#63b8ff" stroke="#63b8ff" points="178.85,-139.58 183.72,-130.18 174.05,-134.49 178.85,-139.58"/>
</g>
<!-- Node3&#45;&gt;Node2 -->
<g id="edge3" class="edge">
<title>Node3&#45;&gt;Node2</title>
<path fill="none" stroke="#63b8ff" d="M69.92,-109.75C69.92,-103.11 69.92,-93.73 69.92,-85.31"/>
<polygon fill="#63b8ff" stroke="#63b8ff" points="73.42,-85.44 69.92,-75.44 66.42,-85.44 73.42,-85.44"/>
</g>
<!-- Node4 -->
<g id="node4" class="node">
<title>Node4</title>
<g id="a_node4"><a xlink:title=" ">
<polygon fill="#e0e0e0" stroke="#999999" points="183.92,-74 139.92,-74 139.92,-55 183.92,-55 183.92,-74"/>
<text text-anchor="middle" x="161.92" y="-62" font-family="Helvetica,sans-Serif" font-size="10.00">vector</text>
</a>
</g>
</g>
<!-- Node3&#45;&gt;Node4 -->
<g id="edge4" class="edge">
<title>Node3&#45;&gt;Node4</title>
<path fill="none" stroke="#63b8ff" d="M85.52,-109.51C99.62,-101.39 120.6,-89.3 137.01,-79.85"/>
<polygon fill="#63b8ff" stroke="#63b8ff" points="138.62,-82.38 145.54,-74.36 135.13,-76.32 138.62,-82.38"/>
</g>
<!-- Node6 -->
<g id="node6" class="node">
<title>Node6</title>
<g id="a_node6"><a xlink:title=" ">
<polygon fill="#e0e0e0" stroke="#999999" points="205.42,-19 164.42,-19 164.42,0 205.42,0 205.42,-19"/>
<text text-anchor="middle" x="184.92" y="-7" font-family="Helvetica,sans-Serif" font-size="10.00">mat.h</text>
</a>
</g>
</g>
<!-- Node5&#45;&gt;Node6 -->
<g id="edge6" class="edge">
<title>Node5&#45;&gt;Node6</title>
<path fill="none" stroke="#63b8ff" d="M238.89,-54.51C229.4,-46.77 215.49,-35.43 204.17,-26.2"/>
<polygon fill="#63b8ff" stroke="#63b8ff" points="206.74,-22.96 196.78,-19.36 202.32,-28.39 206.74,-22.96"/>
</g>
<!-- Node7 -->
<g id="node7" class="node">
<title>Node7</title>
<g id="a_node7"><a xlink:title=" ">
<polygon fill="#e0e0e0" stroke="#999999" points="275.92,-19 223.92,-19 223.92,0 275.92,0 275.92,-19"/>
<text text-anchor="middle" x="249.92" y="-7" font-family="Helvetica,sans-Serif" font-size="10.00">matrix.h</text>
</a>
</g>
</g>
<!-- Node5&#45;&gt;Node7 -->
<g id="edge7" class="edge">
<title>Node5&#45;&gt;Node7</title>
<path fill="none" stroke="#63b8ff" d="M249.92,-54.75C249.92,-48.11 249.92,-38.73 249.92,-30.31"/>
<polygon fill="#63b8ff" stroke="#63b8ff" points="253.42,-30.44 249.92,-20.44 246.42,-30.44 253.42,-30.44"/>
</g>
<!-- Node8 -->
<g id="node8" class="node">
<title>Node8</title>
<g id="a_node8"><a xlink:title=" ">
<polygon fill="#e0e0e0" stroke="#999999" points="337.92,-19 293.92,-19 293.92,0 337.92,0 337.92,-19"/>
<text text-anchor="middle" x="315.92" y="-7" font-family="Helvetica,sans-Serif" font-size="10.00">mex.h</text>
</a>
</g>
</g>
<!-- Node5&#45;&gt;Node8 -->
<g id="edge8" class="edge">
<title>Node5&#45;&gt;Node8</title>
<path fill="none" stroke="#63b8ff" d="M261.11,-54.51C270.75,-46.77 284.87,-35.43 296.36,-26.2"/>
<polygon fill="#63b8ff" stroke="#63b8ff" points="298.28,-28.35 303.88,-19.36 293.9,-22.89 298.28,-28.35"/>
</g>
<!-- Node9&#45;&gt;Node2 -->
<g id="edge10" class="edge">
<title>Node9&#45;&gt;Node2</title>
<path fill="none" stroke="#63b8ff" d="M172.88,-109.51C153.08,-101.04 123.18,-88.27 100.7,-78.66"/>
<polygon fill="#63b8ff" stroke="#63b8ff" points="102.21,-75.07 91.64,-74.36 99.46,-81.51 102.21,-75.07"/>
</g>
<!-- Node9&#45;&gt;Node4 -->
<g id="edge11" class="edge">
<title>Node9&#45;&gt;Node4</title>
<path fill="none" stroke="#63b8ff" d="M188.63,-109.75C184.35,-102.66 178.17,-92.42 172.84,-83.59"/>
<polygon fill="#63b8ff" stroke="#63b8ff" points="175.48,-82.19 167.31,-75.44 169.49,-85.81 175.48,-82.19"/>
</g>
<!-- Node9&#45;&gt;Node5 -->
<g id="edge12" class="edge">
<title>Node9&#45;&gt;Node5</title>
<path fill="none" stroke="#63b8ff" d="M203.42,-109.51C211.43,-101.93 223.1,-90.88 232.74,-81.75"/>
<polygon fill="#63b8ff" stroke="#63b8ff" points="234.7,-84.77 239.56,-75.36 229.89,-79.69 234.7,-84.77"/>
</g>
</g>
</svg>
