<?xml version="1.0" encoding="UTF-8" standalone="no"?>
<!DOCTYPE svg PUBLIC "-//W3C//DTD SVG 1.1//EN"
 "http://www.w3.org/Graphics/SVG/1.1/DTD/svg11.dtd">
<!-- Generated by graphviz version 8.0.5 (20230430.1635)
 -->
<!-- Title: tdms/include/interpolation_methods.h Pages: 1 -->
<svg width="493pt" height="204pt"
 viewBox="0.00 0.00 493.38 204.25" xmlns="http://www.w3.org/2000/svg" xmlns:xlink="http://www.w3.org/1999/xlink">
<g id="graph0" class="graph" transform="scale(1 1) rotate(0) translate(4 200.25)">
<title>tdms/include/interpolation_methods.h</title>
<!-- Node1 -->
<g id="node1" class="node">
<title>Node1</title>
<g id="a_node1"><a xlink:title="InterpScheme class methods and supporting functions.">
<polygon fill="#999999" stroke="#666666" points="223.38,-196.25 96.38,-196.25 96.38,-165.75 223.38,-165.75 223.38,-196.25"/>
<text text-anchor="start" x="104.38" y="-182.75" font-family="Helvetica,sans-Serif" font-size="10.00">tdms/include/interpolation</text>
<text text-anchor="middle" x="159.88" y="-171.5" font-family="Helvetica,sans-Serif" font-size="10.00">_methods.h</text>
</a>
</g>
</g>
<!-- Node2 -->
<g id="node2" class="node">
<title>Node2</title>
<g id="a_node2"><a xlink:title=" ">
<polygon fill="#e0e0e0" stroke="#999999" points="146.25,-129.75 93.5,-129.75 93.5,-110.5 146.25,-110.5 146.25,-129.75"/>
<text text-anchor="middle" x="119.88" y="-116.25" font-family="Helvetica,sans-Serif" font-size="10.00">complex</text>
</a>
</g>
</g>
<!-- Node1&#45;&gt;Node2 -->
<g id="edge1" class="edge">
<title>Node1&#45;&gt;Node2</title>
<path fill="none" stroke="#63b8ff" d="M149.99,-165.45C144.6,-157.52 137.88,-147.63 132.16,-139.21"/>
<polygon fill="#63b8ff" stroke="#63b8ff" points="134.56,-137.51 126.04,-131.2 128.77,-141.44 134.56,-137.51"/>
</g>
<!-- Node3 -->
<g id="node3" class="node">
<title>Node3</title>
<g id="a_node3"><a xlink:href="input__flags_8h.html" target="_top" xlink:title="Organises enumerated constants, names, and classes for handling flag&#45;variables that are passed to TDM...">
<polygon fill="white" stroke="#666666" points="235.62,-129.75 164.12,-129.75 164.12,-110.5 235.62,-110.5 235.62,-129.75"/>
<text text-anchor="middle" x="199.88" y="-116.25" font-family="Helvetica,sans-Serif" font-size="10.00">input_flags.h</text>
</a>
</g>
</g>
<!-- Node1&#45;&gt;Node3 -->
<g id="edge2" class="edge">
<title>Node1&#45;&gt;Node3</title>
<path fill="none" stroke="#63b8ff" d="M169.76,-165.45C175.15,-157.52 181.87,-147.63 187.59,-139.21"/>
<polygon fill="#63b8ff" stroke="#63b8ff" points="190.98,-141.44 193.71,-131.2 185.19,-137.51 190.98,-141.44"/>
</g>
<!-- Node4 -->
<g id="node4" class="node">
<title>Node4</title>
<g id="a_node4"><a xlink:title=" ">
<polygon fill="#e0e0e0" stroke="#999999" points="55.75,-74.5 0,-74.5 0,-55.25 55.75,-55.25 55.75,-74.5"/>
<text text-anchor="middle" x="27.88" y="-61" font-family="Helvetica,sans-Serif" font-size="10.00">algorithm</text>
</a>
</g>
</g>
<!-- Node3&#45;&gt;Node4 -->
<g id="edge3" class="edge">
<title>Node3&#45;&gt;Node4</title>
<path fill="none" stroke="#63b8ff" d="M170.7,-110.09C141.94,-101.19 97.83,-87.53 66.24,-77.75"/>
<polygon fill="#63b8ff" stroke="#63b8ff" points="67.64,-74.21 57.05,-74.6 65.57,-80.9 67.64,-74.21"/>
</g>
<!-- Node5 -->
<g id="node5" class="node">
<title>Node5</title>
<g id="a_node5"><a xlink:title=" ">
<polygon fill="#e0e0e0" stroke="#999999" points="132.25,-74.5 73.5,-74.5 73.5,-55.25 132.25,-55.25 132.25,-74.5"/>
<text text-anchor="middle" x="102.88" y="-61" font-family="Helvetica,sans-Serif" font-size="10.00">stdexcept</text>
</a>
</g>
</g>
<!-- Node3&#45;&gt;Node5 -->
<g id="edge4" class="edge">
<title>Node3&#45;&gt;Node5</title>
<path fill="none" stroke="#63b8ff" d="M183.42,-110.09C168.51,-101.91 146.28,-89.71 128.96,-80.19"/>
<polygon fill="#63b8ff" stroke="#63b8ff" points="130.86,-76.7 120.41,-74.95 127.49,-82.83 130.86,-76.7"/>
</g>
<!-- Node6 -->
<g id="node6" class="node">
<title>Node6</title>
<g id="a_node6"><a xlink:title=" ">
<polygon fill="#e0e0e0" stroke="#999999" points="189.88,-74.5 149.88,-74.5 149.88,-55.25 189.88,-55.25 189.88,-74.5"/>
<text text-anchor="middle" x="169.88" y="-61" font-family="Helvetica,sans-Serif" font-size="10.00">string</text>
</a>
</g>
</g>
<!-- Node3&#45;&gt;Node6 -->
<g id="edge5" class="edge">
<title>Node3&#45;&gt;Node6</title>
<path fill="none" stroke="#63b8ff" d="M194.92,-110.33C190.95,-103.28 185.24,-93.15 180.27,-84.33"/>
<polygon fill="#63b8ff" stroke="#63b8ff" points="182.89,-82.85 174.94,-75.86 176.8,-86.29 182.89,-82.85"/>
</g>
<!-- Node7 -->
<g id="node7" class="node">
<title>Node7</title>
<g id="a_node7"><a xlink:title=" ">
<polygon fill="#e0e0e0" stroke="#999999" points="251.38,-74.5 208.38,-74.5 208.38,-55.25 251.38,-55.25 251.38,-74.5"/>
<text text-anchor="middle" x="229.88" y="-61" font-family="Helvetica,sans-Serif" font-size="10.00">vector</text>
</a>
</g>
</g>
<!-- Node3&#45;&gt;Node7 -->
<g id="edge6" class="edge">
<title>Node3&#45;&gt;Node7</title>
<path fill="none" stroke="#63b8ff" d="M204.83,-110.33C208.8,-103.28 214.51,-93.15 219.48,-84.33"/>
<polygon fill="#63b8ff" stroke="#63b8ff" points="222.95,-86.29 224.81,-75.86 216.86,-82.85 222.95,-86.29"/>
</g>
<!-- Node8 -->
<g id="node8" class="node">
<title>Node8</title>
<g id="a_node8"><a xlink:title=" ">
<polygon fill="#e0e0e0" stroke="#999999" points="354,-74.5 269.75,-74.5 269.75,-55.25 354,-55.25 354,-74.5"/>
<text text-anchor="middle" x="311.88" y="-61" font-family="Helvetica,sans-Serif" font-size="10.00">spdlog/spdlog.h</text>
</a>
</g>
</g>
<!-- Node3&#45;&gt;Node8 -->
<g id="edge7" class="edge">
<title>Node3&#45;&gt;Node8</title>
<path fill="none" stroke="#63b8ff" d="M218.87,-110.09C236.41,-101.75 262.71,-89.25 282.88,-79.66"/>
<polygon fill="#63b8ff" stroke="#63b8ff" points="284.25,-82.41 291.78,-74.95 281.25,-76.09 284.25,-82.41"/>
</g>
<!-- Node9 -->
<g id="node9" class="node">
<title>Node9</title>
<g id="a_node9"><a xlink:href="mat__io_8h.html" target="_top" xlink:title="Includes MATLAB headers for I/O.">
<polygon fill="white" stroke="#666666" points="425.62,-74.5 372.12,-74.5 372.12,-55.25 425.62,-55.25 425.62,-74.5"/>
<text text-anchor="middle" x="398.88" y="-61" font-family="Helvetica,sans-Serif" font-size="10.00">mat_io.h</text>
</a>
</g>
</g>
<!-- Node3&#45;&gt;Node9 -->
<g id="edge8" class="edge">
<title>Node3&#45;&gt;Node9</title>
<path fill="none" stroke="#63b8ff" d="M233.63,-110.09C269.06,-100.61 324.61,-85.75 361.38,-75.91"/>
<polygon fill="#63b8ff" stroke="#63b8ff" points="361.92,-79.12 370.68,-73.15 360.11,-72.36 361.92,-79.12"/>
</g>
<!-- Node10 -->
<g id="node10" class="node">
<title>Node10</title>
<g id="a_node10"><a xlink:title=" ">
<polygon fill="#e0e0e0" stroke="#999999" points="355.25,-19.25 314.5,-19.25 314.5,0 355.25,0 355.25,-19.25"/>
<text text-anchor="middle" x="334.88" y="-5.75" font-family="Helvetica,sans-Serif" font-size="10.00">mat.h</text>
</a>
</g>
</g>
<!-- Node9&#45;&gt;Node10 -->
<g id="edge9" class="edge">
<title>Node9&#45;&gt;Node10</title>
<path fill="none" stroke="#63b8ff" d="M388.02,-54.84C378.68,-47.07 364.98,-35.67 353.83,-26.4"/>
<polygon fill="#63b8ff" stroke="#63b8ff" points="356.5,-23.23 346.57,-19.52 352.02,-28.61 356.5,-23.23"/>
</g>
<!-- Node11 -->
<g id="node11" class="node">
<title>Node11</title>
<g id="a_node11"><a xlink:title=" ">
<polygon fill="#e0e0e0" stroke="#999999" points="424.5,-19.25 373.25,-19.25 373.25,0 424.5,0 424.5,-19.25"/>
<text text-anchor="middle" x="398.88" y="-5.75" font-family="Helvetica,sans-Serif" font-size="10.00">matrix.h</text>
</a>
</g>
</g>
<!-- Node9&#45;&gt;Node11 -->
<g id="edge10" class="edge">
<title>Node9&#45;&gt;Node11</title>
<path fill="none" stroke="#63b8ff" d="M398.88,-55.08C398.88,-48.42 398.88,-38.99 398.88,-30.53"/>
<polygon fill="#63b8ff" stroke="#63b8ff" points="402.38,-30.61 398.88,-20.61 395.38,-30.61 402.38,-30.61"/>
</g>
<!-- Node12 -->
<g id="node12" class="node">
<title>Node12</title>
<g id="a_node12"><a xlink:title=" ">
<polygon fill="#e0e0e0" stroke="#999999" points="485.38,-19.25 442.38,-19.25 442.38,0 485.38,0 485.38,-19.25"/>
<text text-anchor="middle" x="463.88" y="-5.75" font-family="Helvetica,sans-Serif" font-size="10.00">mex.h</text>
</a>
</g>
</g>
<!-- Node9&#45;&gt;Node12 -->
<g id="edge11" class="edge">
<title>Node9&#45;&gt;Node12</title>
<path fill="none" stroke="#63b8ff" d="M409.9,-54.84C419.39,-47.07 433.3,-35.67 444.62,-26.4"/>
<polygon fill="#63b8ff" stroke="#63b8ff" points="446.49,-28.57 452.01,-19.52 442.06,-23.15 446.49,-28.57"/>
</g>
</g>
</svg>
