<?xml version="1.0" encoding="UTF-8" standalone="no"?>
<!DOCTYPE svg PUBLIC "-//W3C//DTD SVG 1.1//EN"
 "http://www.w3.org/Graphics/SVG/1.1/DTD/svg11.dtd">
<!-- Generated by graphviz version 13.0.1 (20250615.1724)
 -->
<!-- Title: tdms/include/interpolation_methods.h Pages: 1 -->
<svg width="493pt" height="204pt"
 viewBox="0.00 0.00 493.00 204.00" xmlns="http://www.w3.org/2000/svg" xmlns:xlink="http://www.w3.org/1999/xlink">
<g id="graph0" class="graph" transform="scale(1 1) rotate(0) translate(4 200.25)">
<title>tdms/include/interpolation_methods.h</title>
<!-- Node1 -->
<g id="Node000001" class="node">
<title>Node1</title>
<g id="a_Node000001"><a xlink:title="InterpScheme class methods and supporting functions.">
<polygon fill="#999999" stroke="#666666" points="223.38,-196.25 96.38,-196.25 96.38,-165.75 223.38,-165.75 223.38,-196.25"/>
<text xml:space="preserve" text-anchor="start" x="104.38" y="-182.75" font-family="Helvetica,sans-Serif" font-size="10.00">tdms/include/interpolation</text>
<text xml:space="preserve" text-anchor="middle" x="159.88" y="-171.5" font-family="Helvetica,sans-Serif" font-size="10.00">_methods.h</text>
</a>
</g>
</g>
<!-- Node2 -->
<g id="Node000002" class="node">
<title>Node2</title>
<g id="a_Node000002"><a xlink:title=" ">
<polygon fill="#e0e0e0" stroke="#999999" points="146.25,-129.75 93.5,-129.75 93.5,-110.5 146.25,-110.5 146.25,-129.75"/>
<text xml:space="preserve" text-anchor="middle" x="119.88" y="-116.25" font-family="Helvetica,sans-Serif" font-size="10.00">complex</text>
</a>
</g>
</g>
<!-- Node1&#45;&gt;Node2 -->
<g id="edge1_Node000001_Node000002" class="edge">
<title>Node1&#45;&gt;Node2</title>
<g id="a_edge1_Node000001_Node000002"><a xlink:title=" ">
<path fill="none" stroke="#63b8ff" d="M149.99,-165.45C144.66,-157.6 138.03,-147.85 132.35,-139.49"/>
<polygon fill="#63b8ff" stroke="#63b8ff" points="135.41,-137.76 126.89,-131.45 129.62,-141.69 135.41,-137.76"/>
</a>
</g>
</g>
<!-- Node3 -->
<g id="Node000003" class="node">
<title>Node3</title>
<g id="a_Node000003"><a xlink:href="input__flags_8h.html" target="_top" xlink:title="Organises enumerated constants, names, and classes for handling flag&#45;variables that are passed to TDM...">
<polygon fill="white" stroke="#666666" points="235.62,-129.75 164.12,-129.75 164.12,-110.5 235.62,-110.5 235.62,-129.75"/>
<text xml:space="preserve" text-anchor="middle" x="199.88" y="-116.25" font-family="Helvetica,sans-Serif" font-size="10.00">input_flags.h</text>
</a>
</g>
</g>
<!-- Node1&#45;&gt;Node3 -->
<g id="edge2_Node000001_Node000003" class="edge">
<title>Node1&#45;&gt;Node3</title>
<g id="a_edge2_Node000001_Node000003"><a xlink:title=" ">
<path fill="none" stroke="#63b8ff" d="M169.76,-165.45C175.09,-157.6 181.72,-147.85 187.4,-139.49"/>
<polygon fill="#63b8ff" stroke="#63b8ff" points="190.13,-141.69 192.86,-131.45 184.34,-137.76 190.13,-141.69"/>
</a>
</g>
</g>
<!-- Node4 -->
<g id="Node000004" class="node">
<title>Node4</title>
<g id="a_Node000004"><a xlink:title=" ">
<polygon fill="#e0e0e0" stroke="#999999" points="55.75,-74.5 0,-74.5 0,-55.25 55.75,-55.25 55.75,-74.5"/>
<text xml:space="preserve" text-anchor="middle" x="27.88" y="-61" font-family="Helvetica,sans-Serif" font-size="10.00">algorithm</text>
</a>
</g>
</g>
<!-- Node3&#45;&gt;Node4 -->
<g id="edge3_Node000003_Node000004" class="edge">
<title>Node3&#45;&gt;Node4</title>
<g id="a_edge3_Node000003_Node000004"><a xlink:title=" ">
<path fill="none" stroke="#63b8ff" d="M170.7,-110.09C142.06,-101.23 98.21,-87.65 66.66,-77.88"/>
<polygon fill="#63b8ff" stroke="#63b8ff" points="68.09,-74.66 57.5,-75.05 66.02,-81.35 68.09,-74.66"/>
</a>
</g>
</g>
<!-- Node5 -->
<g id="Node000005" class="node">
<title>Node5</title>
<g id="a_Node000005"><a xlink:title=" ">
<polygon fill="#e0e0e0" stroke="#999999" points="132.25,-74.5 73.5,-74.5 73.5,-55.25 132.25,-55.25 132.25,-74.5"/>
<text xml:space="preserve" text-anchor="middle" x="102.88" y="-61" font-family="Helvetica,sans-Serif" font-size="10.00">stdexcept</text>
</a>
</g>
</g>
<!-- Node3&#45;&gt;Node5 -->
<g id="edge4_Node000003_Node000005" class="edge">
<title>Node3&#45;&gt;Node5</title>
<g id="a_edge4_Node000003_Node000005"><a xlink:title=" ">
<path fill="none" stroke="#63b8ff" d="M183.42,-110.09C168.65,-101.98 146.7,-89.93 129.44,-80.46"/>
<polygon fill="#63b8ff" stroke="#63b8ff" points="131.19,-77.43 120.74,-75.68 127.82,-83.56 131.19,-77.43"/>
</a>
</g>
</g>
<!-- Node6 -->
<g id="Node000006" class="node">
<title>Node6</title>
<g id="a_Node000006"><a xlink:title=" ">
<polygon fill="#e0e0e0" stroke="#999999" points="189.88,-74.5 149.88,-74.5 149.88,-55.25 189.88,-55.25 189.88,-74.5"/>
<text xml:space="preserve" text-anchor="middle" x="169.88" y="-61" font-family="Helvetica,sans-Serif" font-size="10.00">string</text>
</a>
</g>
</g>
<!-- Node3&#45;&gt;Node6 -->
<g id="edge5_Node000003_Node000006" class="edge">
<title>Node3&#45;&gt;Node6</title>
<g id="a_edge5_Node000003_Node000006"><a xlink:title=" ">
<path fill="none" stroke="#63b8ff" d="M194.92,-110.33C190.99,-103.36 185.36,-93.37 180.44,-84.62"/>
<polygon fill="#63b8ff" stroke="#63b8ff" points="183.64,-83.17 175.68,-76.18 177.54,-86.61 183.64,-83.17"/>
</a>
</g>
</g>
<!-- Node7 -->
<g id="Node000007" class="node">
<title>Node7</title>
<g id="a_Node000007"><a xlink:title=" ">
<polygon fill="#e0e0e0" stroke="#999999" points="251.38,-74.5 208.38,-74.5 208.38,-55.25 251.38,-55.25 251.38,-74.5"/>
<text xml:space="preserve" text-anchor="middle" x="229.88" y="-61" font-family="Helvetica,sans-Serif" font-size="10.00">vector</text>
</a>
</g>
</g>
<!-- Node3&#45;&gt;Node7 -->
<g id="edge6_Node000003_Node000007" class="edge">
<title>Node3&#45;&gt;Node7</title>
<g id="a_edge6_Node000003_Node000007"><a xlink:title=" ">
<path fill="none" stroke="#63b8ff" d="M204.83,-110.33C208.76,-103.36 214.39,-93.37 219.31,-84.62"/>
<polygon fill="#63b8ff" stroke="#63b8ff" points="222.21,-86.61 224.07,-76.18 216.11,-83.17 222.21,-86.61"/>
</a>
</g>
</g>
<!-- Node8 -->
<g id="Node000008" class="node">
<title>Node8</title>
<g id="a_Node000008"><a xlink:title=" ">
<polygon fill="#e0e0e0" stroke="#999999" points="354,-74.5 269.75,-74.5 269.75,-55.25 354,-55.25 354,-74.5"/>
<text xml:space="preserve" text-anchor="middle" x="311.88" y="-61" font-family="Helvetica,sans-Serif" font-size="10.00">spdlog/spdlog.h</text>
</a>
</g>
</g>
<!-- Node3&#45;&gt;Node8 -->
<g id="edge7_Node000003_Node000008" class="edge">
<title>Node3&#45;&gt;Node8</title>
<g id="a_edge7_Node000003_Node000008"><a xlink:title=" ">
<path fill="none" stroke="#63b8ff" d="M218.87,-110.09C236.33,-101.79 262.47,-89.36 282.6,-79.79"/>
<polygon fill="#63b8ff" stroke="#63b8ff" points="283.89,-83.06 291.42,-75.6 280.88,-76.74 283.89,-83.06"/>
</a>
</g>
</g>
<!-- Node9 -->
<g id="Node000009" class="node">
<title>Node9</title>
<g id="a_Node000009"><a xlink:href="mat__io_8h.html" target="_top" xlink:title="Includes MATLAB headers for I/O.">
<polygon fill="white" stroke="#666666" points="425.62,-74.5 372.12,-74.5 372.12,-55.25 425.62,-55.25 425.62,-74.5"/>
<text xml:space="preserve" text-anchor="middle" x="398.88" y="-61" font-family="Helvetica,sans-Serif" font-size="10.00">mat_io.h</text>
</a>
</g>
</g>
<!-- Node3&#45;&gt;Node9 -->
<g id="edge8_Node000003_Node000009" class="edge">
<title>Node3&#45;&gt;Node9</title>
<g id="a_edge8_Node000003_Node000009"><a xlink:title=" ">
<path fill="none" stroke="#63b8ff" d="M233.63,-110.09C268.91,-100.65 324.13,-85.88 360.9,-76.04"/>
<polygon fill="#63b8ff" stroke="#63b8ff" points="361.46,-79.51 370.22,-73.54 359.65,-72.75 361.46,-79.51"/>
</a>
</g>
</g>
<!-- Node10 -->
<g id="Node000010" class="node">
<title>Node10</title>
<g id="a_Node000010"><a xlink:title=" ">
<polygon fill="#e0e0e0" stroke="#999999" points="355.25,-19.25 314.5,-19.25 314.5,0 355.25,0 355.25,-19.25"/>
<text xml:space="preserve" text-anchor="middle" x="334.88" y="-5.75" font-family="Helvetica,sans-Serif" font-size="10.00">mat.h</text>
</a>
</g>
</g>
<!-- Node9&#45;&gt;Node10 -->
<g id="edge9_Node000009_Node000010" class="edge">
<title>Node9&#45;&gt;Node10</title>
<g id="a_edge9_Node000009_Node000010"><a xlink:title=" ">
<path fill="none" stroke="#63b8ff" d="M388.02,-54.84C378.77,-47.15 365.25,-35.9 354.17,-26.68"/>
<polygon fill="#63b8ff" stroke="#63b8ff" points="356.66,-24.2 346.73,-20.49 352.18,-29.58 356.66,-24.2"/>
</a>
</g>
</g>
<!-- Node11 -->
<g id="Node000011" class="node">
<title>Node11</title>
<g id="a_Node000011"><a xlink:title=" ">
<polygon fill="#e0e0e0" stroke="#999999" points="424.5,-19.25 373.25,-19.25 373.25,0 424.5,0 424.5,-19.25"/>
<text xml:space="preserve" text-anchor="middle" x="398.88" y="-5.75" font-family="Helvetica,sans-Serif" font-size="10.00">matrix.h</text>
</a>
</g>
</g>
<!-- Node9&#45;&gt;Node11 -->
<g id="edge10_Node000009_Node000011" class="edge">
<title>Node9&#45;&gt;Node11</title>
<g id="a_edge10_Node000009_Node000011"><a xlink:title=" ">
<path fill="none" stroke="#63b8ff" d="M398.88,-55.08C398.88,-48.57 398.88,-39.42 398.88,-31.12"/>
<polygon fill="#63b8ff" stroke="#63b8ff" points="402.38,-31.12 398.88,-21.12 395.38,-31.12 402.38,-31.12"/>
</a>
</g>
</g>
<!-- Node12 -->
<g id="Node000012" class="node">
<title>Node12</title>
<g id="a_Node000012"><a xlink:title=" ">
<polygon fill="#e0e0e0" stroke="#999999" points="485.38,-19.25 442.38,-19.25 442.38,0 485.38,0 485.38,-19.25"/>
<text xml:space="preserve" text-anchor="middle" x="463.88" y="-5.75" font-family="Helvetica,sans-Serif" font-size="10.00">mex.h</text>
</a>
</g>
</g>
<!-- Node9&#45;&gt;Node12 -->
<g id="edge11_Node000009_Node000012" class="edge">
<title>Node9&#45;&gt;Node12</title>
<g id="a_edge11_Node000009_Node000012"><a xlink:title=" ">
<path fill="none" stroke="#63b8ff" d="M409.9,-54.84C419.3,-47.15 433.02,-35.9 444.28,-26.68"/>
<polygon fill="#63b8ff" stroke="#63b8ff" points="446.32,-29.53 451.84,-20.48 441.89,-24.11 446.32,-29.53"/>
</a>
</g>
</g>
</g>
</svg>
