<?xml version="1.0" encoding="UTF-8" standalone="no"?>
<!DOCTYPE svg PUBLIC "-//W3C//DTD SVG 1.1//EN"
 "http://www.w3.org/Graphics/SVG/1.1/DTD/svg11.dtd">
<!-- Generated by graphviz version 8.0.4 (20230421.1958)
 -->
<!-- Title: tdms/include/interface.h Pages: 1 -->
<svg width="188pt" height="138pt"
 viewBox="0.00 0.00 187.62 137.75" xmlns="http://www.w3.org/2000/svg" xmlns:xlink="http://www.w3.org/1999/xlink">
<g id="graph0" class="graph" transform="scale(1 1) rotate(0) translate(4 133.75)">
<title>tdms/include/interface.h</title>
<!-- Node1 -->
<g id="node1" class="node">
<title>Node1</title>
<g id="a_node1"><a xlink:title=" ">
<polygon fill="#999999" stroke="#666666" points="120.25,-129.75 0,-129.75 0,-110.5 120.25,-110.5 120.25,-129.75"/>
<text text-anchor="middle" x="60.12" y="-116.25" font-family="Helvetica,sans-Serif" font-size="10.00">tdms/include/interface.h</text>
</a>
</g>
</g>
<!-- Node2 -->
<g id="node2" class="node">
<title>Node2</title>
<g id="a_node2"><a xlink:title=" ">
<polygon fill="#e0e0e0" stroke="#999999" points="48.12,-74.5 8.12,-74.5 8.12,-55.25 48.12,-55.25 48.12,-74.5"/>
<text text-anchor="middle" x="28.12" y="-61" font-family="Helvetica,sans-Serif" font-size="10.00">string</text>
</a>
</g>
</g>
<!-- Node1&#45;&gt;Node2 -->
<g id="edge1" class="edge">
<title>Node1&#45;&gt;Node2</title>
<path fill="none" stroke="#63b8ff" d="M54.84,-110.33C50.56,-103.21 44.38,-92.93 39.05,-84.05"/>
<polygon fill="#63b8ff" stroke="#63b8ff" points="41.67,-82.63 33.52,-75.86 35.67,-86.23 41.67,-82.63"/>
</g>
<!-- Node3 -->
<g id="node3" class="node">
<title>Node3</title>
<g id="a_node3"><a xlink:href="mat__io_8h.html" target="_top" xlink:title="Includes MATLAB headers for I/O.">
<polygon fill="white" stroke="#666666" points="119.88,-74.5 66.38,-74.5 66.38,-55.25 119.88,-55.25 119.88,-74.5"/>
<text text-anchor="middle" x="93.12" y="-61" font-family="Helvetica,sans-Serif" font-size="10.00">mat_io.h</text>
</a>
</g>
</g>
<!-- Node1&#45;&gt;Node3 -->
<g id="edge2" class="edge">
<title>Node1&#45;&gt;Node3</title>
<path fill="none" stroke="#63b8ff" d="M65.57,-110.33C69.99,-103.21 76.36,-92.93 81.86,-84.05"/>
<polygon fill="#63b8ff" stroke="#63b8ff" points="85.26,-86.2 87.56,-75.86 79.31,-82.52 85.26,-86.2"/>
</g>
<!-- Node4 -->
<g id="node4" class="node">
<title>Node4</title>
<g id="a_node4"><a xlink:title=" ">
<polygon fill="#e0e0e0" stroke="#999999" points="49.5,-19.25 8.75,-19.25 8.75,0 49.5,0 49.5,-19.25"/>
<text text-anchor="middle" x="29.12" y="-5.75" font-family="Helvetica,sans-Serif" font-size="10.00">mat.h</text>
</a>
</g>
</g>
<!-- Node3&#45;&gt;Node4 -->
<g id="edge3" class="edge">
<title>Node3&#45;&gt;Node4</title>
<path fill="none" stroke="#63b8ff" d="M82.27,-54.84C72.93,-47.07 59.23,-35.67 48.08,-26.4"/>
<polygon fill="#63b8ff" stroke="#63b8ff" points="50.75,-23.23 40.82,-19.52 46.27,-28.61 50.75,-23.23"/>
</g>
<!-- Node5 -->
<g id="node5" class="node">
<title>Node5</title>
<g id="a_node5"><a xlink:title=" ">
<polygon fill="#e0e0e0" stroke="#999999" points="118.75,-19.25 67.5,-19.25 67.5,0 118.75,0 118.75,-19.25"/>
<text text-anchor="middle" x="93.12" y="-5.75" font-family="Helvetica,sans-Serif" font-size="10.00">matrix.h</text>
</a>
</g>
</g>
<!-- Node3&#45;&gt;Node5 -->
<g id="edge4" class="edge">
<title>Node3&#45;&gt;Node5</title>
<path fill="none" stroke="#63b8ff" d="M93.12,-55.08C93.12,-48.42 93.12,-38.99 93.12,-30.53"/>
<polygon fill="#63b8ff" stroke="#63b8ff" points="96.63,-30.61 93.12,-20.61 89.63,-30.61 96.63,-30.61"/>
</g>
<!-- Node6 -->
<g id="node6" class="node">
<title>Node6</title>
<g id="a_node6"><a xlink:title=" ">
<polygon fill="#e0e0e0" stroke="#999999" points="179.62,-19.25 136.62,-19.25 136.62,0 179.62,0 179.62,-19.25"/>
<text text-anchor="middle" x="158.12" y="-5.75" font-family="Helvetica,sans-Serif" font-size="10.00">mex.h</text>
</a>
</g>
</g>
<!-- Node3&#45;&gt;Node6 -->
<g id="edge5" class="edge">
<title>Node3&#45;&gt;Node6</title>
<path fill="none" stroke="#63b8ff" d="M104.15,-54.84C113.64,-47.07 127.55,-35.67 138.87,-26.4"/>
<polygon fill="#63b8ff" stroke="#63b8ff" points="140.74,-28.57 146.26,-19.52 136.31,-23.15 140.74,-28.57"/>
</g>
</g>
</svg>
