<?xml version="1.0" encoding="UTF-8" standalone="no"?>
<!DOCTYPE svg PUBLIC "-//W3C//DTD SVG 1.1//EN"
 "http://www.w3.org/Graphics/SVG/1.1/DTD/svg11.dtd">
<!-- Generated by graphviz version 8.0.5 (20230430.1635)
 -->
<!-- Title: tdms/include/interpolation_methods.h Pages: 1 -->
<svg width="494pt" height="105pt"
 viewBox="0.00 0.00 493.88 105.00" xmlns="http://www.w3.org/2000/svg" xmlns:xlink="http://www.w3.org/1999/xlink">
<g id="graph0" class="graph" transform="scale(1 1) rotate(0) translate(4 101)">
<title>tdms/include/interpolation_methods.h</title>
<!-- Node1 -->
<g id="node1" class="node">
<title>Node1</title>
<g id="a_node1"><a xlink:title="InterpScheme class methods and supporting functions.">
<polygon fill="#999999" stroke="#666666" points="315.62,-97 188.62,-97 188.62,-66.5 315.62,-66.5 315.62,-97"/>
<text text-anchor="start" x="196.62" y="-83.5" font-family="Helvetica,sans-Serif" font-size="10.00">tdms/include/interpolation</text>
<text text-anchor="middle" x="252.12" y="-72.25" font-family="Helvetica,sans-Serif" font-size="10.00">_methods.h</text>
</a>
</g>
</g>
<!-- Node2 -->
<g id="node2" class="node">
<title>Node2</title>
<g id="a_node2"><a xlink:href="test___b_li__vs__cubic__interpolation_8cpp.html" target="_top" xlink:title="Tests the performance of bandlimited interpolation against cubic interpolation.">
<polygon fill="white" stroke="#666666" points="156.25,-30.5 0,-30.5 0,0 156.25,0 156.25,-30.5"/>
<text text-anchor="start" x="8" y="-17" font-family="Helvetica,sans-Serif" font-size="10.00">tdms/tests/unit/test</text>
<text text-anchor="middle" x="78.12" y="-5.75" font-family="Helvetica,sans-Serif" font-size="10.00">_BLi_vs_cubic_interpolation.cpp</text>
</a>
</g>
</g>
<!-- Node1&#45;&gt;Node2 -->
<g id="edge1" class="edge">
<title>Node1&#45;&gt;Node2</title>
<path fill="none" stroke="#63b8ff" d="M202.65,-62.41C175.76,-52.44 142.94,-40.28 117.75,-30.94"/>
<polygon fill="#63b8ff" stroke="#63b8ff" points="201.05,-65.92 211.64,-66.11 203.48,-59.36 201.05,-65.92"/>
</g>
<!-- Node3 -->
<g id="node3" class="node">
<title>Node3</title>
<g id="a_node3"><a xlink:href="test__interpolation__determination_8cpp.html" target="_top" xlink:title="Tests the logic that determines which interpolation schemes are appropriate.">
<polygon fill="white" stroke="#666666" points="330.25,-30.5 174,-30.5 174,0 330.25,0 330.25,-30.5"/>
<text text-anchor="start" x="182" y="-17" font-family="Helvetica,sans-Serif" font-size="10.00">tdms/tests/unit/test</text>
<text text-anchor="middle" x="252.12" y="-5.75" font-family="Helvetica,sans-Serif" font-size="10.00">_interpolation_determination.cpp</text>
</a>
</g>
</g>
<!-- Node1&#45;&gt;Node3 -->
<g id="edge2" class="edge">
<title>Node1&#45;&gt;Node3</title>
<path fill="none" stroke="#63b8ff" d="M252.12,-55.38C252.12,-47.05 252.12,-38.08 252.12,-30.83"/>
<polygon fill="#63b8ff" stroke="#63b8ff" points="248.63,-55.11 252.12,-65.11 255.63,-55.11 248.63,-55.11"/>
</g>
<!-- Node4 -->
<g id="node4" class="node">
<title>Node4</title>
<g id="a_node4"><a xlink:href="test__interpolation__functions_8cpp.html" target="_top" xlink:title="Tests the performance of the interpolation functions, using 1D data mimicing a coordinate axes.">
<polygon fill="white" stroke="#666666" points="485.88,-30.5 348.38,-30.5 348.38,0 485.88,0 485.88,-30.5"/>
<text text-anchor="start" x="356.38" y="-17" font-family="Helvetica,sans-Serif" font-size="10.00">tdms/tests/unit/test</text>
<text text-anchor="middle" x="417.12" y="-5.75" font-family="Helvetica,sans-Serif" font-size="10.00">_interpolation_functions.cpp</text>
</a>
</g>
</g>
<!-- Node1&#45;&gt;Node4 -->
<g id="edge3" class="edge">
<title>Node1&#45;&gt;Node4</title>
<path fill="none" stroke="#63b8ff" d="M299.71,-62.15C325.09,-52.23 355.87,-40.2 379.55,-30.94"/>
<polygon fill="#63b8ff" stroke="#63b8ff" points="298.61,-59.21 290.57,-66.11 301.15,-65.73 298.61,-59.21"/>
</g>
</g>
</svg>
