<?xml version="1.0" encoding="UTF-8" standalone="no"?>
<!DOCTYPE svg PUBLIC "-//W3C//DTD SVG 1.1//EN"
 "http://www.w3.org/Graphics/SVG/1.1/DTD/svg11.dtd">
<!-- Generated by graphviz version 13.0.1 (20250615.1724)
 -->
<!-- Title: tdms/include/interpolation_methods.h Pages: 1 -->
<svg width="494pt" height="105pt"
 viewBox="0.00 0.00 494.00 105.00" xmlns="http://www.w3.org/2000/svg" xmlns:xlink="http://www.w3.org/1999/xlink">
<g id="graph0" class="graph" transform="scale(1 1) rotate(0) translate(4 101)">
<title>tdms/include/interpolation_methods.h</title>
<!-- Node1 -->
<g id="Node000001" class="node">
<title>Node1</title>
<g id="a_Node000001"><a xlink:title="InterpScheme class methods and supporting functions.">
<polygon fill="#999999" stroke="#666666" points="315.62,-97 188.62,-97 188.62,-66.5 315.62,-66.5 315.62,-97"/>
<text xml:space="preserve" text-anchor="start" x="196.62" y="-83.5" font-family="Helvetica,sans-Serif" font-size="10.00">tdms/include/interpolation</text>
<text xml:space="preserve" text-anchor="middle" x="252.12" y="-72.25" font-family="Helvetica,sans-Serif" font-size="10.00">_methods.h</text>
</a>
</g>
</g>
<!-- Node2 -->
<g id="Node000002" class="node">
<title>Node2</title>
<g id="a_Node000002"><a xlink:href="test___b_li__vs__cubic__interpolation_8cpp.html" target="_top" xlink:title="Tests the performance of bandlimited interpolation against cubic interpolation.">
<polygon fill="white" stroke="#666666" points="156.25,-30.5 0,-30.5 0,0 156.25,0 156.25,-30.5"/>
<text xml:space="preserve" text-anchor="start" x="8" y="-17" font-family="Helvetica,sans-Serif" font-size="10.00">tdms/tests/unit/test</text>
<text xml:space="preserve" text-anchor="middle" x="78.12" y="-5.75" font-family="Helvetica,sans-Serif" font-size="10.00">_BLi_vs_cubic_interpolation.cpp</text>
</a>
</g>
</g>
<!-- Node1&#45;&gt;Node2 -->
<g id="edge1_Node000001_Node000002" class="edge">
<title>Node1&#45;&gt;Node2</title>
<g id="a_edge1_Node000001_Node000002"><a xlink:title=" ">
<path fill="none" stroke="#63b8ff" d="M201.94,-62.15C175.18,-52.23 142.72,-40.2 117.75,-30.94"/>
<polygon fill="#63b8ff" stroke="#63b8ff" points="200.63,-65.39 211.22,-65.59 203.06,-58.83 200.63,-65.39"/>
</a>
</g>
</g>
<!-- Node3 -->
<g id="Node000003" class="node">
<title>Node3</title>
<g id="a_Node000003"><a xlink:href="test__interpolation__determination_8cpp.html" target="_top" xlink:title="Tests the logic that determines which interpolation schemes are appropriate.">
<polygon fill="white" stroke="#666666" points="330.25,-30.5 174,-30.5 174,0 330.25,0 330.25,-30.5"/>
<text xml:space="preserve" text-anchor="start" x="182" y="-17" font-family="Helvetica,sans-Serif" font-size="10.00">tdms/tests/unit/test</text>
<text xml:space="preserve" text-anchor="middle" x="252.12" y="-5.75" font-family="Helvetica,sans-Serif" font-size="10.00">_interpolation_determination.cpp</text>
</a>
</g>
</g>
<!-- Node1&#45;&gt;Node3 -->
<g id="edge2_Node000001_Node000003" class="edge">
<title>Node1&#45;&gt;Node3</title>
<g id="a_edge2_Node000001_Node000003"><a xlink:title=" ">
<path fill="none" stroke="#63b8ff" d="M252.12,-54.81C252.12,-46.64 252.12,-37.91 252.12,-30.83"/>
<polygon fill="#63b8ff" stroke="#63b8ff" points="248.63,-54.6 252.13,-64.6 255.63,-54.6 248.63,-54.6"/>
</a>
</g>
</g>
<!-- Node4 -->
<g id="Node000004" class="node">
<title>Node4</title>
<g id="a_Node000004"><a xlink:href="test__interpolation__functions_8cpp.html" target="_top" xlink:title="Tests the performance of the interpolation functions, using 1D data mimicing a coordinate axes.">
<polygon fill="white" stroke="#666666" points="485.88,-30.5 348.38,-30.5 348.38,0 485.88,0 485.88,-30.5"/>
<text xml:space="preserve" text-anchor="start" x="356.38" y="-17" font-family="Helvetica,sans-Serif" font-size="10.00">tdms/tests/unit/test</text>
<text xml:space="preserve" text-anchor="middle" x="417.12" y="-5.75" font-family="Helvetica,sans-Serif" font-size="10.00">_interpolation_functions.cpp</text>
</a>
</g>
</g>
<!-- Node1&#45;&gt;Node4 -->
<g id="edge3_Node000001_Node000004" class="edge">
<title>Node1&#45;&gt;Node4</title>
<g id="a_edge3_Node000001_Node000004"><a xlink:title=" ">
<path fill="none" stroke="#63b8ff" d="M300.05,-62.01C325.36,-52.12 355.97,-40.15 379.55,-30.94"/>
<polygon fill="#63b8ff" stroke="#63b8ff" points="299.02,-58.66 290.98,-65.56 301.56,-65.18 299.02,-58.66"/>
</a>
</g>
</g>
</g>
</svg>
