<?xml version="1.0" encoding="UTF-8" standalone="no"?>
<!DOCTYPE svg PUBLIC "-//W3C//DTD SVG 1.1//EN"
 "http://www.w3.org/Graphics/SVG/1.1/DTD/svg11.dtd">
<!-- Generated by graphviz version 8.0.5 (20230430.1635)
 -->
<!-- Title: tdms/include/interpolation_methods.h Pages: 1 -->
<svg width="135pt" height="149pt"
 viewBox="0.00 0.00 135.00 149.00" xmlns="http://www.w3.org/2000/svg" xmlns:xlink="http://www.w3.org/1999/xlink">
<g id="graph0" class="graph" transform="scale(1 1) rotate(0) translate(4 145)">
<title>tdms/include/interpolation_methods.h</title>
<!-- Node1 -->
<g id="node1" class="node">
<title>Node1</title>
<g id="a_node1"><a xlink:title="InterpScheme class methods and supporting functions.">
<polygon fill="#999999" stroke="#666666" points="127,-141 0,-141 0,-110.5 127,-110.5 127,-141"/>
<text text-anchor="start" x="8" y="-127.5" font-family="Helvetica,sans-Serif" font-size="10.00">tdms/include/interpolation</text>
<text text-anchor="middle" x="63.5" y="-116.25" font-family="Helvetica,sans-Serif" font-size="10.00">_methods.h</text>
</a>
</g>
</g>
<!-- Node2 -->
<g id="node2" class="node">
<title>Node2</title>
<g id="a_node2"><a xlink:title=" ">
<polygon fill="#e0e0e0" stroke="#999999" points="61.88,-19.25 9.13,-19.25 9.13,0 61.88,0 61.88,-19.25"/>
<text text-anchor="middle" x="35.5" y="-5.75" font-family="Helvetica,sans-Serif" font-size="10.00">complex</text>
</a>
</g>
</g>
<!-- Node1&#45;&gt;Node2 -->
<g id="edge1" class="edge">
<title>Node1&#45;&gt;Node2</title>
<path fill="none" stroke="#63b8ff" d="M59.95,-110.3C54.97,-89.97 45.87,-52.88 40.28,-30.12"/>
<polygon fill="#63b8ff" stroke="#63b8ff" points="43.51,-29.58 37.73,-20.7 36.71,-31.24 43.51,-29.58"/>
</g>
<!-- Node3 -->
<g id="node3" class="node">
<title>Node3</title>
<g id="a_node3"><a xlink:href="globals_8h.html" target="_top" xlink:title="Type definitions and global constants.">
<polygon fill="white" stroke="#666666" points="119,-74.5 64,-74.5 64,-55.25 119,-55.25 119,-74.5"/>
<text text-anchor="middle" x="91.5" y="-61" font-family="Helvetica,sans-Serif" font-size="10.00">globals.h</text>
</a>
</g>
</g>
<!-- Node1&#45;&gt;Node3 -->
<g id="edge2" class="edge">
<title>Node1&#45;&gt;Node3</title>
<path fill="none" stroke="#63b8ff" d="M70.42,-110.2C74.07,-102.53 78.59,-93.02 82.51,-84.79"/>
<polygon fill="#63b8ff" stroke="#63b8ff" points="86.05,-86.49 87.18,-75.95 79.73,-83.48 86.05,-86.49"/>
</g>
<!-- Node3&#45;&gt;Node2 -->
<g id="edge3" class="edge">
<title>Node3&#45;&gt;Node2</title>
<path fill="none" stroke="#63b8ff" d="M82,-54.84C73.99,-47.22 62.32,-36.12 52.67,-26.95"/>
<polygon fill="#63b8ff" stroke="#63b8ff" points="55.52,-24.88 45.86,-20.52 50.69,-29.95 55.52,-24.88"/>
</g>
<!-- Node4 -->
<g id="node4" class="node">
<title>Node4</title>
<g id="a_node4"><a xlink:title=" ">
<polygon fill="#e0e0e0" stroke="#999999" points="119.5,-19.25 79.5,-19.25 79.5,0 119.5,0 119.5,-19.25"/>
<text text-anchor="middle" x="99.5" y="-5.75" font-family="Helvetica,sans-Serif" font-size="10.00">string</text>
</a>
</g>
</g>
<!-- Node3&#45;&gt;Node4 -->
<g id="edge4" class="edge">
<title>Node3&#45;&gt;Node4</title>
<path fill="none" stroke="#63b8ff" d="M92.82,-55.08C93.83,-48.34 95.27,-38.77 96.55,-30.24"/>
<polygon fill="#63b8ff" stroke="#63b8ff" points="100.13,-31.02 98.15,-20.61 93.2,-29.98 100.13,-31.02"/>
</g>
</g>
</svg>
