<?xml version="1.0" encoding="UTF-8" standalone="no"?>
<!DOCTYPE svg PUBLIC "-//W3C//DTD SVG 1.1//EN"
 "http://www.w3.org/Graphics/SVG/1.1/DTD/svg11.dtd">
<!-- Generated by graphviz version 12.2.1 (20241206.2353)
 -->
<!-- Title: tdms/include/interface.h Pages: 1 -->
<svg width="188pt" height="138pt"
 viewBox="0.00 0.00 187.62 137.75" xmlns="http://www.w3.org/2000/svg" xmlns:xlink="http://www.w3.org/1999/xlink">
<g id="graph0" class="graph" transform="scale(1 1) rotate(0) translate(4 133.75)">
<title>tdms/include/interface.h</title>
<!-- Node1 -->
<g id="Node000001" class="node">
<title>Node1</title>
<g id="a_Node000001"><a xlink:title=" ">
<polygon fill="#999999" stroke="#666666" points="120.25,-129.75 0,-129.75 0,-110.5 120.25,-110.5 120.25,-129.75"/>
<text text-anchor="middle" x="60.12" y="-116.25" font-family="Helvetica,sans-Serif" font-size="10.00">tdms/include/interface.h</text>
</a>
</g>
</g>
<!-- Node2 -->
<g id="Node000002" class="node">
<title>Node2</title>
<g id="a_Node000002"><a xlink:title=" ">
<polygon fill="#e0e0e0" stroke="#999999" points="48.12,-74.5 8.12,-74.5 8.12,-55.25 48.12,-55.25 48.12,-74.5"/>
<text text-anchor="middle" x="28.12" y="-61" font-family="Helvetica,sans-Serif" font-size="10.00">string</text>
</a>
</g>
</g>
<!-- Node1&#45;&gt;Node2 -->
<g id="edge1_Node000001_Node000002" class="edge">
<title>Node1&#45;&gt;Node2</title>
<g id="a_edge1_Node000001_Node000002"><a xlink:title=" ">
<path fill="none" stroke="#63b8ff" d="M54.84,-110.33C50.65,-103.36 44.65,-93.37 39.39,-84.62"/>
<polygon fill="#63b8ff" stroke="#63b8ff" points="42.45,-82.93 34.3,-76.16 36.45,-86.53 42.45,-82.93"/>
</a>
</g>
</g>
<!-- Node3 -->
<g id="Node000003" class="node">
<title>Node3</title>
<g id="a_Node000003"><a xlink:href="mat__io_8h.html" target="_top" xlink:title="Includes MATLAB headers for I/O.">
<polygon fill="white" stroke="#666666" points="119.88,-74.5 66.38,-74.5 66.38,-55.25 119.88,-55.25 119.88,-74.5"/>
<text text-anchor="middle" x="93.12" y="-61" font-family="Helvetica,sans-Serif" font-size="10.00">mat_io.h</text>
</a>
</g>
</g>
<!-- Node1&#45;&gt;Node3 -->
<g id="edge2_Node000001_Node000003" class="edge">
<title>Node1&#45;&gt;Node3</title>
<g id="a_edge2_Node000001_Node000003"><a xlink:title=" ">
<path fill="none" stroke="#63b8ff" d="M65.57,-110.33C69.9,-103.36 76.09,-93.37 81.51,-84.62"/>
<polygon fill="#63b8ff" stroke="#63b8ff" points="84.47,-86.49 86.76,-76.15 78.52,-82.8 84.47,-86.49"/>
</a>
</g>
</g>
<!-- Node4 -->
<g id="Node000004" class="node">
<title>Node4</title>
<g id="a_Node000004"><a xlink:title=" ">
<polygon fill="#e0e0e0" stroke="#999999" points="49.5,-19.25 8.75,-19.25 8.75,0 49.5,0 49.5,-19.25"/>
<text text-anchor="middle" x="29.12" y="-5.75" font-family="Helvetica,sans-Serif" font-size="10.00">mat.h</text>
</a>
</g>
</g>
<!-- Node3&#45;&gt;Node4 -->
<g id="edge3_Node000003_Node000004" class="edge">
<title>Node3&#45;&gt;Node4</title>
<g id="a_edge3_Node000003_Node000004"><a xlink:title=" ">
<path fill="none" stroke="#63b8ff" d="M82.27,-54.84C73.02,-47.15 59.5,-35.9 48.42,-26.68"/>
<polygon fill="#63b8ff" stroke="#63b8ff" points="50.91,-24.2 40.98,-20.49 46.43,-29.58 50.91,-24.2"/>
</a>
</g>
</g>
<!-- Node5 -->
<g id="Node000005" class="node">
<title>Node5</title>
<g id="a_Node000005"><a xlink:title=" ">
<polygon fill="#e0e0e0" stroke="#999999" points="118.75,-19.25 67.5,-19.25 67.5,0 118.75,0 118.75,-19.25"/>
<text text-anchor="middle" x="93.12" y="-5.75" font-family="Helvetica,sans-Serif" font-size="10.00">matrix.h</text>
</a>
</g>
</g>
<!-- Node3&#45;&gt;Node5 -->
<g id="edge4_Node000003_Node000005" class="edge">
<title>Node3&#45;&gt;Node5</title>
<g id="a_edge4_Node000003_Node000005"><a xlink:title=" ">
<path fill="none" stroke="#63b8ff" d="M93.12,-55.08C93.12,-48.57 93.12,-39.42 93.12,-31.12"/>
<polygon fill="#63b8ff" stroke="#63b8ff" points="96.63,-31.12 93.13,-21.12 89.63,-31.12 96.63,-31.12"/>
</a>
</g>
</g>
<!-- Node6 -->
<g id="Node000006" class="node">
<title>Node6</title>
<g id="a_Node000006"><a xlink:title=" ">
<polygon fill="#e0e0e0" stroke="#999999" points="179.62,-19.25 136.62,-19.25 136.62,0 179.62,0 179.62,-19.25"/>
<text text-anchor="middle" x="158.12" y="-5.75" font-family="Helvetica,sans-Serif" font-size="10.00">mex.h</text>
</a>
</g>
</g>
<!-- Node3&#45;&gt;Node6 -->
<g id="edge5_Node000003_Node000006" class="edge">
<title>Node3&#45;&gt;Node6</title>
<g id="a_edge5_Node000003_Node000006"><a xlink:title=" ">
<path fill="none" stroke="#63b8ff" d="M104.15,-54.84C113.55,-47.15 127.27,-35.9 138.53,-26.68"/>
<polygon fill="#63b8ff" stroke="#63b8ff" points="140.57,-29.53 146.09,-20.48 136.14,-24.11 140.57,-29.53"/>
</a>
</g>
</g>
</g>
</svg>
