<?xml version="1.0" encoding="UTF-8" standalone="no"?>
<!DOCTYPE svg PUBLIC "-//W3C//DTD SVG 1.1//EN"
 "http://www.w3.org/Graphics/SVG/1.1/DTD/svg11.dtd">
<!-- Generated by graphviz version 8.0.5 (20230430.1635)
 -->
<!-- Title: tdms/include/interpolation_methods.h Pages: 1 -->
<svg width="135pt" height="149pt"
 viewBox="0.00 0.00 135.00 149.00" xmlns="http://www.w3.org/2000/svg" xmlns:xlink="http://www.w3.org/1999/xlink">
<g id="graph0" class="graph" transform="scale(1 1) rotate(0) translate(4 145)">
<title>tdms/include/interpolation_methods.h</title>
<!-- Node1 -->
<g id="node1" class="node">
<title>Node1</title>
<g id="a_node1"><a xlink:title="InterpScheme class methods and supporting functions.">
<polygon fill="#999999" stroke="#666666" points="127,-141 0,-141 0,-110.5 127,-110.5 127,-141"/>
<text text-anchor="start" x="8" y="-127.5" font-family="Helvetica,sans-Serif" font-size="10.00">tdms/include/interpolation</text>
<text text-anchor="middle" x="63.5" y="-116.25" font-family="Helvetica,sans-Serif" font-size="10.00">_methods.h</text>
</a>
</g>
</g>
<!-- Node2 -->
<g id="node2" class="node">
<title>Node2</title>
<g id="a_node2"><a xlink:title=" ">
<polygon fill="#e0e0e0" stroke="#999999" points="89.88,-19.25 37.13,-19.25 37.13,0 89.88,0 89.88,-19.25"/>
<text text-anchor="middle" x="63.5" y="-5.75" font-family="Helvetica,sans-Serif" font-size="10.00">complex</text>
</a>
</g>
</g>
<!-- Node1&#45;&gt;Node2 -->
<g id="edge1" class="edge">
<title>Node1&#45;&gt;Node2</title>
<path fill="none" stroke="#63b8ff" d="M59.65,-110.14C56.42,-96.09 52.6,-74.26 54.5,-55.25 55.33,-46.89 57.03,-37.79 58.72,-29.99"/>
<polygon fill="#63b8ff" stroke="#63b8ff" points="62.32,-30.97 61.18,-20.44 55.5,-29.38 62.32,-30.97"/>
</g>
<!-- Node3 -->
<g id="node3" class="node">
<title>Node3</title>
<g id="a_node3"><a xlink:href="globals_8h.html" target="_top" xlink:title="Type definitions and global constants.">
<polygon fill="white" stroke="#666666" points="119,-74.5 64,-74.5 64,-55.25 119,-55.25 119,-74.5"/>
<text text-anchor="middle" x="91.5" y="-61" font-family="Helvetica,sans-Serif" font-size="10.00">globals.h</text>
</a>
</g>
</g>
<!-- Node1&#45;&gt;Node3 -->
<g id="edge2" class="edge">
<title>Node1&#45;&gt;Node3</title>
<path fill="none" stroke="#63b8ff" d="M70.42,-110.2C74.07,-102.53 78.59,-93.02 82.51,-84.79"/>
<polygon fill="#63b8ff" stroke="#63b8ff" points="86.05,-86.49 87.18,-75.95 79.73,-83.48 86.05,-86.49"/>
</g>
<!-- Node3&#45;&gt;Node2 -->
<g id="edge3" class="edge">
<title>Node3&#45;&gt;Node2</title>
<path fill="none" stroke="#63b8ff" d="M86.88,-55.08C83.17,-48.03 77.84,-37.9 73.21,-29.08"/>
<polygon fill="#63b8ff" stroke="#63b8ff" points="75.98,-27.83 68.22,-20.61 69.78,-31.09 75.98,-27.83"/>
</g>
</g>
</svg>
