<?xml version="1.0" encoding="UTF-8" standalone="no"?>
<!DOCTYPE svg PUBLIC "-//W3C//DTD SVG 1.1//EN"
 "http://www.w3.org/Graphics/SVG/1.1/DTD/svg11.dtd">
<!-- Generated by graphviz version 8.0.2 (20230410.1723)
 -->
<!-- Title: tdms/include/interface.h Pages: 1 -->
<svg width="190pt" height="137pt"
 viewBox="0.00 0.00 189.50 137.00" xmlns="http://www.w3.org/2000/svg" xmlns:xlink="http://www.w3.org/1999/xlink">
<g id="graph0" class="graph" transform="scale(1 1) rotate(0) translate(4 133)">
<title>tdms/include/interface.h</title>
<!-- Node1 -->
<g id="node1" class="node">
<title>Node1</title>
<g id="a_node1"><a xlink:title=" ">
<polygon fill="#999999" stroke="#666666" points="121,-129 0,-129 0,-110 121,-110 121,-129"/>
<text text-anchor="middle" x="60.5" y="-117" font-family="Helvetica,sans-Serif" font-size="10.00">tdms/include/interface.h</text>
</a>
</g>
</g>
<!-- Node2 -->
<g id="node2" class="node">
<title>Node2</title>
<g id="a_node2"><a xlink:title=" ">
<polygon fill="#e0e0e0" stroke="#999999" points="48,-74 7,-74 7,-55 48,-55 48,-74"/>
<text text-anchor="middle" x="27.5" y="-62" font-family="Helvetica,sans-Serif" font-size="10.00">string</text>
</a>
</g>
</g>
<!-- Node1&#45;&gt;Node2 -->
<g id="edge1" class="edge">
<title>Node1&#45;&gt;Node2</title>
<path fill="none" stroke="#63b8ff" d="M55.05,-109.75C50.63,-102.66 44.26,-92.42 38.76,-83.59"/>
<polygon fill="#63b8ff" stroke="#63b8ff" points="41.32,-82.08 33.07,-75.44 35.38,-85.78 41.32,-82.08"/>
</g>
<!-- Node3 -->
<g id="node3" class="node">
<title>Node3</title>
<g id="a_node3"><a xlink:href="mat__io_8h.html" target="_top" xlink:title="Includes MATLAB headers for I/O.">
<polygon fill="white" stroke="#666666" points="120.5,-74 66.5,-74 66.5,-55 120.5,-55 120.5,-74"/>
<text text-anchor="middle" x="93.5" y="-62" font-family="Helvetica,sans-Serif" font-size="10.00">mat_io.h</text>
</a>
</g>
</g>
<!-- Node1&#45;&gt;Node3 -->
<g id="edge2" class="edge">
<title>Node1&#45;&gt;Node3</title>
<path fill="none" stroke="#63b8ff" d="M65.95,-109.75C70.37,-102.66 76.74,-92.42 82.24,-83.59"/>
<polygon fill="#63b8ff" stroke="#63b8ff" points="85.62,-85.78 87.93,-75.44 79.68,-82.08 85.62,-85.78"/>
</g>
<!-- Node4 -->
<g id="node4" class="node">
<title>Node4</title>
<g id="a_node4"><a xlink:title=" ">
<polygon fill="#e0e0e0" stroke="#999999" points="49,-19 8,-19 8,0 49,0 49,-19"/>
<text text-anchor="middle" x="28.5" y="-7" font-family="Helvetica,sans-Serif" font-size="10.00">mat.h</text>
</a>
</g>
</g>
<!-- Node3&#45;&gt;Node4 -->
<g id="edge3" class="edge">
<title>Node3&#45;&gt;Node4</title>
<path fill="none" stroke="#63b8ff" d="M82.47,-54.51C72.99,-46.77 59.08,-35.43 47.75,-26.2"/>
<polygon fill="#63b8ff" stroke="#63b8ff" points="50.33,-22.96 40.36,-19.36 45.9,-28.39 50.33,-22.96"/>
</g>
<!-- Node5 -->
<g id="node5" class="node">
<title>Node5</title>
<g id="a_node5"><a xlink:title=" ">
<polygon fill="#e0e0e0" stroke="#999999" points="119.5,-19 67.5,-19 67.5,0 119.5,0 119.5,-19"/>
<text text-anchor="middle" x="93.5" y="-7" font-family="Helvetica,sans-Serif" font-size="10.00">matrix.h</text>
</a>
</g>
</g>
<!-- Node3&#45;&gt;Node5 -->
<g id="edge4" class="edge">
<title>Node3&#45;&gt;Node5</title>
<path fill="none" stroke="#63b8ff" d="M93.5,-54.75C93.5,-48.11 93.5,-38.73 93.5,-30.31"/>
<polygon fill="#63b8ff" stroke="#63b8ff" points="97,-30.44 93.5,-20.44 90,-30.44 97,-30.44"/>
</g>
<!-- Node6 -->
<g id="node6" class="node">
<title>Node6</title>
<g id="a_node6"><a xlink:title=" ">
<polygon fill="#e0e0e0" stroke="#999999" points="181.5,-19 137.5,-19 137.5,0 181.5,0 181.5,-19"/>
<text text-anchor="middle" x="159.5" y="-7" font-family="Helvetica,sans-Serif" font-size="10.00">mex.h</text>
</a>
</g>
</g>
<!-- Node3&#45;&gt;Node6 -->
<g id="edge5" class="edge">
<title>Node3&#45;&gt;Node6</title>
<path fill="none" stroke="#63b8ff" d="M104.7,-54.51C114.33,-46.77 128.45,-35.43 139.95,-26.2"/>
<polygon fill="#63b8ff" stroke="#63b8ff" points="141.86,-28.35 147.47,-19.36 137.48,-22.89 141.86,-28.35"/>
</g>
</g>
</svg>
