<?xml version="1.0" encoding="UTF-8" standalone="no"?>
<!DOCTYPE svg PUBLIC "-//W3C//DTD SVG 1.1//EN"
 "http://www.w3.org/Graphics/SVG/1.1/DTD/svg11.dtd">
<!-- Generated by graphviz version 8.0.5 (20230430.1635)
 -->
<!-- Title: tdms/src/main.cpp Pages: 1 -->
<svg width="464pt" height="260pt"
 viewBox="0.00 0.00 463.62 259.50" xmlns="http://www.w3.org/2000/svg" xmlns:xlink="http://www.w3.org/1999/xlink">
<g id="graph0" class="graph" transform="scale(1 1) rotate(0) translate(4 255.5)">
<title>tdms/src/main.cpp</title>
<!-- Node1 -->
<g id="node1" class="node">
<title>Node1</title>
<g id="a_node1"><a xlink:title="The main function. Launches TDMS.">
<polygon fill="#999999" stroke="#666666" points="302.62,-251.5 205.62,-251.5 205.62,-232.25 302.62,-232.25 302.62,-251.5"/>
<text text-anchor="middle" x="254.12" y="-238" font-family="Helvetica,sans-Serif" font-size="10.00">tdms/src/main.cpp</text>
</a>
</g>
</g>
<!-- Node2 -->
<g id="node2" class="node">
<title>Node2</title>
<g id="a_node2"><a xlink:href="argument__parser_8h.html" target="_top" xlink:title="Parse the command line options.">
<polygon fill="white" stroke="#666666" points="96.25,-129.75 0,-129.75 0,-110.5 96.25,-110.5 96.25,-129.75"/>
<text text-anchor="middle" x="48.12" y="-116.25" font-family="Helvetica,sans-Serif" font-size="10.00">argument_parser.h</text>
</a>
</g>
</g>
<!-- Node1&#45;&gt;Node2 -->
<g id="edge1" class="edge">
<title>Node1&#45;&gt;Node2</title>
<path fill="none" stroke="#63b8ff" d="M238.64,-231.87C203.3,-211.33 116.41,-160.82 73.27,-135.74"/>
<polygon fill="#63b8ff" stroke="#63b8ff" points="75.19,-132.23 64.79,-130.23 71.67,-138.28 75.19,-132.23"/>
</g>
<!-- Node7 -->
<g id="node7" class="node">
<title>Node7</title>
<g id="a_node7"><a xlink:href="input__matrices_8h.html" target="_top" xlink:title="Class handling the input matrices that are read in from the input file.">
<polygon fill="white" stroke="#666666" points="298.12,-190.62 210.12,-190.62 210.12,-171.38 298.12,-171.38 298.12,-190.62"/>
<text text-anchor="middle" x="254.12" y="-177.12" font-family="Helvetica,sans-Serif" font-size="10.00">input_matrices.h</text>
</a>
</g>
</g>
<!-- Node1&#45;&gt;Node7 -->
<g id="edge6" class="edge">
<title>Node1&#45;&gt;Node7</title>
<path fill="none" stroke="#63b8ff" d="M254.12,-231.93C254.12,-223.98 254.12,-212.06 254.12,-201.87"/>
<polygon fill="#63b8ff" stroke="#63b8ff" points="257.63,-202.03 254.12,-192.03 250.63,-202.03 257.63,-202.03"/>
</g>
<!-- Node14 -->
<g id="node14" class="node">
<title>Node14</title>
<g id="a_node14"><a xlink:title=" ">
<polygon fill="#e0e0e0" stroke="#999999" points="429.88,-196.25 316.38,-196.25 316.38,-165.75 429.88,-165.75 429.88,-196.25"/>
<text text-anchor="start" x="324.38" y="-182.75" font-family="Helvetica,sans-Serif" font-size="10.00">simulation_manager</text>
<text text-anchor="middle" x="373.12" y="-171.5" font-family="Helvetica,sans-Serif" font-size="10.00">/simulation_manager.h</text>
</a>
</g>
</g>
<!-- Node1&#45;&gt;Node14 -->
<g id="edge19" class="edge">
<title>Node1&#45;&gt;Node14</title>
<path fill="none" stroke="#63b8ff" d="M272.46,-231.8C288.71,-223.77 312.99,-211.75 333.63,-201.54"/>
<polygon fill="#63b8ff" stroke="#63b8ff" points="335.01,-204.27 342.42,-196.69 331.91,-197.99 335.01,-204.27"/>
</g>
<!-- Node3 -->
<g id="node3" class="node">
<title>Node3</title>
<g id="a_node3"><a xlink:title=" ">
<polygon fill="#e0e0e0" stroke="#999999" points="262.12,-74.5 222.12,-74.5 222.12,-55.25 262.12,-55.25 262.12,-74.5"/>
<text text-anchor="middle" x="242.12" y="-61" font-family="Helvetica,sans-Serif" font-size="10.00">string</text>
</a>
</g>
</g>
<!-- Node2&#45;&gt;Node3 -->
<g id="edge2" class="edge">
<title>Node2&#45;&gt;Node3</title>
<path fill="none" stroke="#63b8ff" d="M81.03,-110.09C117.58,-100.06 176.08,-84 211.63,-74.25"/>
<polygon fill="#63b8ff" stroke="#63b8ff" points="212.15,-77.46 220.87,-71.44 210.3,-70.71 212.15,-77.46"/>
</g>
<!-- Node4 -->
<g id="node4" class="node">
<title>Node4</title>
<g id="a_node4"><a xlink:title=" ">
<polygon fill="#e0e0e0" stroke="#999999" points="191.62,-74.5 148.62,-74.5 148.62,-55.25 191.62,-55.25 191.62,-74.5"/>
<text text-anchor="middle" x="170.12" y="-61" font-family="Helvetica,sans-Serif" font-size="10.00">vector</text>
</a>
</g>
</g>
<!-- Node2&#45;&gt;Node4 -->
<g id="edge3" class="edge">
<title>Node2&#45;&gt;Node4</title>
<path fill="none" stroke="#63b8ff" d="M68.82,-110.09C88.19,-101.64 117.37,-88.9 139.44,-79.27"/>
<polygon fill="#63b8ff" stroke="#63b8ff" points="140.56,-82.16 148.33,-74.95 137.76,-75.75 140.56,-82.16"/>
</g>
<!-- Node5 -->
<g id="node5" class="node">
<title>Node5</title>
<g id="a_node5"><a xlink:href="globals_8h.html" target="_top" xlink:title="Type definitions and global constants.">
<polygon fill="white" stroke="#666666" points="75.62,-74.5 20.62,-74.5 20.62,-55.25 75.62,-55.25 75.62,-74.5"/>
<text text-anchor="middle" x="48.12" y="-61" font-family="Helvetica,sans-Serif" font-size="10.00">globals.h</text>
</a>
</g>
</g>
<!-- Node2&#45;&gt;Node5 -->
<g id="edge4" class="edge">
<title>Node2&#45;&gt;Node5</title>
<path fill="none" stroke="#63b8ff" d="M48.12,-110.33C48.12,-103.67 48.12,-94.24 48.12,-85.78"/>
<polygon fill="#63b8ff" stroke="#63b8ff" points="51.63,-85.86 48.12,-75.86 44.63,-85.86 51.63,-85.86"/>
</g>
<!-- Node6 -->
<g id="node6" class="node">
<title>Node6</title>
<g id="a_node6"><a xlink:title=" ">
<polygon fill="#e0e0e0" stroke="#999999" points="74.5,-19.25 21.75,-19.25 21.75,0 74.5,0 74.5,-19.25"/>
<text text-anchor="middle" x="48.12" y="-5.75" font-family="Helvetica,sans-Serif" font-size="10.00">complex</text>
</a>
</g>
</g>
<!-- Node5&#45;&gt;Node6 -->
<g id="edge5" class="edge">
<title>Node5&#45;&gt;Node6</title>
<path fill="none" stroke="#63b8ff" d="M48.12,-55.08C48.12,-48.42 48.12,-38.99 48.12,-30.53"/>
<polygon fill="#63b8ff" stroke="#63b8ff" points="51.63,-30.61 48.12,-20.61 44.63,-30.61 51.63,-30.61"/>
</g>
<!-- Node7&#45;&gt;Node3 -->
<g id="edge7" class="edge">
<title>Node7&#45;&gt;Node3</title>
<path fill="none" stroke="#63b8ff" d="M253.18,-171.04C251.26,-152.71 246.82,-110.53 244.19,-85.51"/>
<polygon fill="#63b8ff" stroke="#63b8ff" points="247.59,-85.37 243.06,-75.79 240.63,-86.1 247.59,-85.37"/>
</g>
<!-- Node8 -->
<g id="node8" class="node">
<title>Node8</title>
<g id="a_node8"><a xlink:href="input__output__names_8h.html" target="_top" xlink:title="Constant values associated with the format of the input and output files and matrices.">
<polygon fill="white" stroke="#666666" points="226.12,-129.75 114.12,-129.75 114.12,-110.5 226.12,-110.5 226.12,-129.75"/>
<text text-anchor="middle" x="170.12" y="-116.25" font-family="Helvetica,sans-Serif" font-size="10.00">input_output_names.h</text>
</a>
</g>
</g>
<!-- Node7&#45;&gt;Node8 -->
<g id="edge8" class="edge">
<title>Node7&#45;&gt;Node8</title>
<path fill="none" stroke="#63b8ff" d="M241.37,-171.06C228.17,-161.81 207.32,-147.2 191.58,-136.17"/>
<polygon fill="#63b8ff" stroke="#63b8ff" points="194.2,-133.02 184,-130.15 190.18,-138.76 194.2,-133.02"/>
</g>
<!-- Node9 -->
<g id="node9" class="node">
<title>Node9</title>
<g id="a_node9"><a xlink:href="mat__io_8h.html" target="_top" xlink:title="Includes MATLAB headers for I/O.">
<polygon fill="white" stroke="#666666" points="395.88,-74.5 342.38,-74.5 342.38,-55.25 395.88,-55.25 395.88,-74.5"/>
<text text-anchor="middle" x="369.12" y="-61" font-family="Helvetica,sans-Serif" font-size="10.00">mat_io.h</text>
</a>
</g>
</g>
<!-- Node7&#45;&gt;Node9 -->
<g id="edge11" class="edge">
<title>Node7&#45;&gt;Node9</title>
<path fill="none" stroke="#63b8ff" d="M283.92,-170.89C321.74,-159.03 382.86,-138.76 389.12,-129.75 398.73,-115.93 391.06,-97.3 382.59,-83.73"/>
<polygon fill="#63b8ff" stroke="#63b8ff" points="385.07,-82.14 376.52,-75.88 379.3,-86.1 385.07,-82.14"/>
</g>
<!-- Node13 -->
<g id="node13" class="node">
<title>Node13</title>
<g id="a_node13"><a xlink:href="matrix__collection_8h.html" target="_top" xlink:title="A collection of named MATLAB matrices.">
<polygon fill="white" stroke="#666666" points="380,-129.75 282.25,-129.75 282.25,-110.5 380,-110.5 380,-129.75"/>
<text text-anchor="middle" x="331.12" y="-116.25" font-family="Helvetica,sans-Serif" font-size="10.00">matrix_collection.h</text>
</a>
</g>
</g>
<!-- Node7&#45;&gt;Node13 -->
<g id="edge15" class="edge">
<title>Node7&#45;&gt;Node13</title>
<path fill="none" stroke="#63b8ff" d="M265.82,-171.06C277.69,-161.98 296.31,-147.74 310.64,-136.79"/>
<polygon fill="#63b8ff" stroke="#63b8ff" points="312.5,-139.01 318.32,-130.15 308.25,-133.44 312.5,-139.01"/>
</g>
<!-- Node8&#45;&gt;Node3 -->
<g id="edge9" class="edge">
<title>Node8&#45;&gt;Node3</title>
<path fill="none" stroke="#63b8ff" d="M182.34,-110.09C193.06,-102.16 208.87,-90.47 221.54,-81.1"/>
<polygon fill="#63b8ff" stroke="#63b8ff" points="223.13,-83.54 229.09,-74.77 218.97,-77.91 223.13,-83.54"/>
</g>
<!-- Node8&#45;&gt;Node4 -->
<g id="edge10" class="edge">
<title>Node8&#45;&gt;Node4</title>
<path fill="none" stroke="#63b8ff" d="M170.12,-110.33C170.12,-103.67 170.12,-94.24 170.12,-85.78"/>
<polygon fill="#63b8ff" stroke="#63b8ff" points="173.63,-85.86 170.12,-75.86 166.63,-85.86 173.63,-85.86"/>
</g>
<!-- Node10 -->
<g id="node10" class="node">
<title>Node10</title>
<g id="a_node10"><a xlink:title=" ">
<polygon fill="#e0e0e0" stroke="#999999" points="325.5,-19.25 284.75,-19.25 284.75,0 325.5,0 325.5,-19.25"/>
<text text-anchor="middle" x="305.12" y="-5.75" font-family="Helvetica,sans-Serif" font-size="10.00">mat.h</text>
</a>
</g>
</g>
<!-- Node9&#45;&gt;Node10 -->
<g id="edge12" class="edge">
<title>Node9&#45;&gt;Node10</title>
<path fill="none" stroke="#63b8ff" d="M358.27,-54.84C348.93,-47.07 335.23,-35.67 324.08,-26.4"/>
<polygon fill="#63b8ff" stroke="#63b8ff" points="326.75,-23.23 316.82,-19.52 322.27,-28.61 326.75,-23.23"/>
</g>
<!-- Node11 -->
<g id="node11" class="node">
<title>Node11</title>
<g id="a_node11"><a xlink:title=" ">
<polygon fill="#e0e0e0" stroke="#999999" points="394.75,-19.25 343.5,-19.25 343.5,0 394.75,0 394.75,-19.25"/>
<text text-anchor="middle" x="369.12" y="-5.75" font-family="Helvetica,sans-Serif" font-size="10.00">matrix.h</text>
</a>
</g>
</g>
<!-- Node9&#45;&gt;Node11 -->
<g id="edge13" class="edge">
<title>Node9&#45;&gt;Node11</title>
<path fill="none" stroke="#63b8ff" d="M369.12,-55.08C369.12,-48.42 369.12,-38.99 369.12,-30.53"/>
<polygon fill="#63b8ff" stroke="#63b8ff" points="372.63,-30.61 369.12,-20.61 365.63,-30.61 372.63,-30.61"/>
</g>
<!-- Node12 -->
<g id="node12" class="node">
<title>Node12</title>
<g id="a_node12"><a xlink:title=" ">
<polygon fill="#e0e0e0" stroke="#999999" points="455.62,-19.25 412.62,-19.25 412.62,0 455.62,0 455.62,-19.25"/>
<text text-anchor="middle" x="434.12" y="-5.75" font-family="Helvetica,sans-Serif" font-size="10.00">mex.h</text>
</a>
</g>
</g>
<!-- Node9&#45;&gt;Node12 -->
<g id="edge14" class="edge">
<title>Node9&#45;&gt;Node12</title>
<path fill="none" stroke="#63b8ff" d="M380.15,-54.84C389.64,-47.07 403.55,-35.67 414.87,-26.4"/>
<polygon fill="#63b8ff" stroke="#63b8ff" points="416.74,-28.57 422.26,-19.52 412.31,-23.15 416.74,-28.57"/>
</g>
<!-- Node13&#45;&gt;Node3 -->
<g id="edge16" class="edge">
<title>Node13&#45;&gt;Node3</title>
<path fill="none" stroke="#63b8ff" d="M316.03,-110.09C302.47,-101.98 282.34,-89.93 266.5,-80.46"/>
<polygon fill="#63b8ff" stroke="#63b8ff" points="268.68,-77.08 258.3,-74.95 265.08,-83.09 268.68,-77.08"/>
</g>
<!-- Node13&#45;&gt;Node4 -->
<g id="edge17" class="edge">
<title>Node13&#45;&gt;Node4</title>
<path fill="none" stroke="#63b8ff" d="M303.81,-110.09C275.69,-100.79 231.88,-86.3 202.14,-76.47"/>
<polygon fill="#63b8ff" stroke="#63b8ff" points="203.47,-72.89 192.88,-73.07 201.28,-79.53 203.47,-72.89"/>
</g>
<!-- Node13&#45;&gt;Node9 -->
<g id="edge18" class="edge">
<title>Node13&#45;&gt;Node9</title>
<path fill="none" stroke="#63b8ff" d="M337.4,-110.33C342.54,-103.13 349.98,-92.71 356.36,-83.76"/>
<polygon fill="#63b8ff" stroke="#63b8ff" points="359.75,-86.03 362.71,-75.86 354.06,-81.97 359.75,-86.03"/>
</g>
</g>
</svg>
