<?xml version="1.0" encoding="UTF-8" standalone="no"?>
<!DOCTYPE svg PUBLIC "-//W3C//DTD SVG 1.1//EN"
 "http://www.w3.org/Graphics/SVG/1.1/DTD/svg11.dtd">
<!-- Generated by graphviz version 8.0.2 (20230410.1723)
 -->
<!-- Title: tdms/src/main.cpp Pages: 1 -->
<svg width="468pt" height="258pt"
 viewBox="0.00 0.00 467.50 258.00" xmlns="http://www.w3.org/2000/svg" xmlns:xlink="http://www.w3.org/1999/xlink">
<g id="graph0" class="graph" transform="scale(1 1) rotate(0) translate(4 254)">
<title>tdms/src/main.cpp</title>
<!-- Node1 -->
<g id="node1" class="node">
<title>Node1</title>
<g id="a_node1"><a xlink:title="The main function. Launches TDMS.">
<polygon fill="#999999" stroke="#666666" points="305.5,-250 207.5,-250 207.5,-231 305.5,-231 305.5,-250"/>
<text text-anchor="middle" x="256.5" y="-238" font-family="Helvetica,sans-Serif" font-size="10.00">tdms/src/main.cpp</text>
</a>
</g>
</g>
<!-- Node2 -->
<g id="node2" class="node">
<title>Node2</title>
<g id="a_node2"><a xlink:href="argument__parser_8h.html" target="_top" xlink:title="Parse the command line options.">
<polygon fill="white" stroke="#666666" points="97,-129 0,-129 0,-110 97,-110 97,-129"/>
<text text-anchor="middle" x="48.5" y="-117" font-family="Helvetica,sans-Serif" font-size="10.00">argument_parser.h</text>
</a>
</g>
</g>
<!-- Node1&#45;&gt;Node2 -->
<g id="edge1" class="edge">
<title>Node1&#45;&gt;Node2</title>
<path fill="none" stroke="#63b8ff" d="M240.87,-230.56C205.09,-210.09 117.02,-159.7 73.57,-134.84"/>
<polygon fill="#63b8ff" stroke="#63b8ff" points="75.45,-131.31 65.03,-129.39 71.97,-137.39 75.45,-131.31"/>
</g>
<!-- Node7 -->
<g id="node7" class="node">
<title>Node7</title>
<g id="a_node7"><a xlink:href="input__matrices_8h.html" target="_top" xlink:title="Class handling the input matrices that are read in from the input file.">
<polygon fill="white" stroke="#666666" points="301,-189.5 212,-189.5 212,-170.5 301,-170.5 301,-189.5"/>
<text text-anchor="middle" x="256.5" y="-177.5" font-family="Helvetica,sans-Serif" font-size="10.00">input_matrices.h</text>
</a>
</g>
</g>
<!-- Node1&#45;&gt;Node7 -->
<g id="edge6" class="edge">
<title>Node1&#45;&gt;Node7</title>
<path fill="none" stroke="#63b8ff" d="M256.5,-230.87C256.5,-222.92 256.5,-210.83 256.5,-200.55"/>
<polygon fill="#63b8ff" stroke="#63b8ff" points="260,-200.67 256.5,-190.67 253,-200.67 260,-200.67"/>
</g>
<!-- Node14 -->
<g id="node14" class="node">
<title>Node14</title>
<g id="a_node14"><a xlink:title=" ">
<polygon fill="#e0e0e0" stroke="#999999" points="433.5,-195 319.5,-195 319.5,-165 433.5,-165 433.5,-195"/>
<text text-anchor="start" x="327.5" y="-183" font-family="Helvetica,sans-Serif" font-size="10.00">simulation_manager</text>
<text text-anchor="middle" x="376.5" y="-172" font-family="Helvetica,sans-Serif" font-size="10.00">/simulation_manager.h</text>
</a>
</g>
</g>
<!-- Node1&#45;&gt;Node14 -->
<g id="edge19" class="edge">
<title>Node1&#45;&gt;Node14</title>
<path fill="none" stroke="#63b8ff" d="M274.73,-230.62C291.25,-222.56 316.18,-210.41 337.22,-200.15"/>
<polygon fill="#63b8ff" stroke="#63b8ff" points="338.43,-202.97 345.88,-195.44 335.36,-196.68 338.43,-202.97"/>
</g>
<!-- Node3 -->
<g id="node3" class="node">
<title>Node3</title>
<g id="a_node3"><a xlink:title=" ">
<polygon fill="#e0e0e0" stroke="#999999" points="265,-74 224,-74 224,-55 265,-55 265,-74"/>
<text text-anchor="middle" x="244.5" y="-62" font-family="Helvetica,sans-Serif" font-size="10.00">string</text>
</a>
</g>
</g>
<!-- Node2&#45;&gt;Node3 -->
<g id="edge2" class="edge">
<title>Node2&#45;&gt;Node3</title>
<path fill="none" stroke="#63b8ff" d="M81.75,-109.51C118.57,-99.55 177.46,-83.63 213.4,-73.91"/>
<polygon fill="#63b8ff" stroke="#63b8ff" points="214.02,-77.1 222.76,-71.11 212.2,-70.34 214.02,-77.1"/>
</g>
<!-- Node4 -->
<g id="node4" class="node">
<title>Node4</title>
<g id="a_node4"><a xlink:title=" ">
<polygon fill="#e0e0e0" stroke="#999999" points="193.5,-74 149.5,-74 149.5,-55 193.5,-55 193.5,-74"/>
<text text-anchor="middle" x="171.5" y="-62" font-family="Helvetica,sans-Serif" font-size="10.00">vector</text>
</a>
</g>
</g>
<!-- Node2&#45;&gt;Node4 -->
<g id="edge3" class="edge">
<title>Node2&#45;&gt;Node4</title>
<path fill="none" stroke="#63b8ff" d="M69.37,-109.51C89.01,-101.04 118.67,-88.27 140.97,-78.66"/>
<polygon fill="#63b8ff" stroke="#63b8ff" points="142.14,-81.53 149.94,-74.36 139.37,-75.1 142.14,-81.53"/>
</g>
<!-- Node5 -->
<g id="node5" class="node">
<title>Node5</title>
<g id="a_node5"><a xlink:href="globals_8h.html" target="_top" xlink:title="Type definitions and global constants.">
<polygon fill="white" stroke="#666666" points="76.5,-74 20.5,-74 20.5,-55 76.5,-55 76.5,-74"/>
<text text-anchor="middle" x="48.5" y="-62" font-family="Helvetica,sans-Serif" font-size="10.00">globals.h</text>
</a>
</g>
</g>
<!-- Node2&#45;&gt;Node5 -->
<g id="edge4" class="edge">
<title>Node2&#45;&gt;Node5</title>
<path fill="none" stroke="#63b8ff" d="M48.5,-109.75C48.5,-103.11 48.5,-93.73 48.5,-85.31"/>
<polygon fill="#63b8ff" stroke="#63b8ff" points="52,-85.44 48.5,-75.44 45,-85.44 52,-85.44"/>
</g>
<!-- Node6 -->
<g id="node6" class="node">
<title>Node6</title>
<g id="a_node6"><a xlink:title=" ">
<polygon fill="#e0e0e0" stroke="#999999" points="75,-19 22,-19 22,0 75,0 75,-19"/>
<text text-anchor="middle" x="48.5" y="-7" font-family="Helvetica,sans-Serif" font-size="10.00">complex</text>
</a>
</g>
</g>
<!-- Node5&#45;&gt;Node6 -->
<g id="edge5" class="edge">
<title>Node5&#45;&gt;Node6</title>
<path fill="none" stroke="#63b8ff" d="M48.5,-54.75C48.5,-48.11 48.5,-38.73 48.5,-30.31"/>
<polygon fill="#63b8ff" stroke="#63b8ff" points="52,-30.44 48.5,-20.44 45,-30.44 52,-30.44"/>
</g>
<!-- Node7&#45;&gt;Node3 -->
<g id="edge7" class="edge">
<title>Node7&#45;&gt;Node3</title>
<path fill="none" stroke="#63b8ff" d="M255.56,-170.09C253.63,-151.86 249.19,-109.91 246.56,-85.03"/>
<polygon fill="#63b8ff" stroke="#63b8ff" points="249.97,-84.94 245.44,-75.36 243.01,-85.68 249.97,-84.94"/>
</g>
<!-- Node8 -->
<g id="node8" class="node">
<title>Node8</title>
<g id="a_node8"><a xlink:href="input__output__names_8h.html" target="_top" xlink:title="Constant values associated with the format of the input and output files and matrices.">
<polygon fill="white" stroke="#666666" points="228,-129 115,-129 115,-110 228,-110 228,-129"/>
<text text-anchor="middle" x="171.5" y="-117" font-family="Helvetica,sans-Serif" font-size="10.00">input_output_names.h</text>
</a>
</g>
</g>
<!-- Node7&#45;&gt;Node8 -->
<g id="edge8" class="edge">
<title>Node7&#45;&gt;Node8</title>
<path fill="none" stroke="#63b8ff" d="M243.59,-170.12C230.24,-160.92 209.14,-146.41 193.21,-135.44"/>
<polygon fill="#63b8ff" stroke="#63b8ff" points="195.75,-132.25 185.53,-129.47 191.78,-138.02 195.75,-132.25"/>
</g>
<!-- Node9 -->
<g id="node9" class="node">
<title>Node9</title>
<g id="a_node9"><a xlink:href="mat__io_8h.html" target="_top" xlink:title="Includes MATLAB headers for I/O.">
<polygon fill="white" stroke="#666666" points="398.5,-74 344.5,-74 344.5,-55 398.5,-55 398.5,-74"/>
<text text-anchor="middle" x="371.5" y="-62" font-family="Helvetica,sans-Serif" font-size="10.00">mat_io.h</text>
</a>
</g>
</g>
<!-- Node7&#45;&gt;Node9 -->
<g id="edge11" class="edge">
<title>Node7&#45;&gt;Node9</title>
<path fill="none" stroke="#63b8ff" d="M285.97,-170.05C323.77,-158.27 385.22,-138.03 391.5,-129 401.06,-115.26 393.4,-96.74 384.95,-83.25"/>
<polygon fill="#63b8ff" stroke="#63b8ff" points="387.44,-81.7 378.88,-75.45 381.68,-85.67 387.44,-81.7"/>
</g>
<!-- Node13 -->
<g id="node13" class="node">
<title>Node13</title>
<g id="a_node13"><a xlink:href="matrix__collection_8h.html" target="_top" xlink:title="A collection of named MATLAB matrices.">
<polygon fill="white" stroke="#666666" points="382.5,-129 284.5,-129 284.5,-110 382.5,-110 382.5,-129"/>
<text text-anchor="middle" x="333.5" y="-117" font-family="Helvetica,sans-Serif" font-size="10.00">matrix_collection.h</text>
</a>
</g>
</g>
<!-- Node7&#45;&gt;Node13 -->
<g id="edge15" class="edge">
<title>Node7&#45;&gt;Node13</title>
<path fill="none" stroke="#63b8ff" d="M268.19,-170.12C280.07,-161.1 298.69,-146.95 313.02,-136.06"/>
<polygon fill="#63b8ff" stroke="#63b8ff" points="314.85,-138.3 320.7,-129.47 310.62,-132.73 314.85,-138.3"/>
</g>
<!-- Node8&#45;&gt;Node3 -->
<g id="edge9" class="edge">
<title>Node8&#45;&gt;Node3</title>
<path fill="none" stroke="#63b8ff" d="M183.88,-109.51C194.75,-101.62 210.78,-89.98 223.63,-80.65"/>
<polygon fill="#63b8ff" stroke="#63b8ff" points="225.26,-83.07 231.3,-74.36 221.15,-77.4 225.26,-83.07"/>
</g>
<!-- Node8&#45;&gt;Node4 -->
<g id="edge10" class="edge">
<title>Node8&#45;&gt;Node4</title>
<path fill="none" stroke="#63b8ff" d="M171.5,-109.75C171.5,-103.11 171.5,-93.73 171.5,-85.31"/>
<polygon fill="#63b8ff" stroke="#63b8ff" points="175,-85.44 171.5,-75.44 168,-85.44 175,-85.44"/>
</g>
<!-- Node10 -->
<g id="node10" class="node">
<title>Node10</title>
<g id="a_node10"><a xlink:title=" ">
<polygon fill="#e0e0e0" stroke="#999999" points="327,-19 286,-19 286,0 327,0 327,-19"/>
<text text-anchor="middle" x="306.5" y="-7" font-family="Helvetica,sans-Serif" font-size="10.00">mat.h</text>
</a>
</g>
</g>
<!-- Node9&#45;&gt;Node10 -->
<g id="edge12" class="edge">
<title>Node9&#45;&gt;Node10</title>
<path fill="none" stroke="#63b8ff" d="M360.47,-54.51C350.99,-46.77 337.08,-35.43 325.75,-26.2"/>
<polygon fill="#63b8ff" stroke="#63b8ff" points="328.33,-22.96 318.36,-19.36 323.9,-28.39 328.33,-22.96"/>
</g>
<!-- Node11 -->
<g id="node11" class="node">
<title>Node11</title>
<g id="a_node11"><a xlink:title=" ">
<polygon fill="#e0e0e0" stroke="#999999" points="397.5,-19 345.5,-19 345.5,0 397.5,0 397.5,-19"/>
<text text-anchor="middle" x="371.5" y="-7" font-family="Helvetica,sans-Serif" font-size="10.00">matrix.h</text>
</a>
</g>
</g>
<!-- Node9&#45;&gt;Node11 -->
<g id="edge13" class="edge">
<title>Node9&#45;&gt;Node11</title>
<path fill="none" stroke="#63b8ff" d="M371.5,-54.75C371.5,-48.11 371.5,-38.73 371.5,-30.31"/>
<polygon fill="#63b8ff" stroke="#63b8ff" points="375,-30.44 371.5,-20.44 368,-30.44 375,-30.44"/>
</g>
<!-- Node12 -->
<g id="node12" class="node">
<title>Node12</title>
<g id="a_node12"><a xlink:title=" ">
<polygon fill="#e0e0e0" stroke="#999999" points="459.5,-19 415.5,-19 415.5,0 459.5,0 459.5,-19"/>
<text text-anchor="middle" x="437.5" y="-7" font-family="Helvetica,sans-Serif" font-size="10.00">mex.h</text>
</a>
</g>
</g>
<!-- Node9&#45;&gt;Node12 -->
<g id="edge14" class="edge">
<title>Node9&#45;&gt;Node12</title>
<path fill="none" stroke="#63b8ff" d="M382.7,-54.51C392.33,-46.77 406.45,-35.43 417.95,-26.2"/>
<polygon fill="#63b8ff" stroke="#63b8ff" points="419.86,-28.35 425.47,-19.36 415.48,-22.89 419.86,-28.35"/>
</g>
<!-- Node13&#45;&gt;Node3 -->
<g id="edge16" class="edge">
<title>Node13&#45;&gt;Node3</title>
<path fill="none" stroke="#63b8ff" d="M318.4,-109.51C304.77,-101.39 284.47,-89.3 268.59,-79.85"/>
<polygon fill="#63b8ff" stroke="#63b8ff" points="270.76,-76.47 260.37,-74.36 267.18,-82.48 270.76,-76.47"/>
</g>
<!-- Node13&#45;&gt;Node4 -->
<g id="edge17" class="edge">
<title>Node13&#45;&gt;Node4</title>
<path fill="none" stroke="#63b8ff" d="M306.02,-109.51C277.88,-100.3 234.14,-85.99 204.23,-76.21"/>
<polygon fill="#63b8ff" stroke="#63b8ff" points="205.48,-72.61 194.89,-72.83 203.31,-79.26 205.48,-72.61"/>
</g>
<!-- Node13&#45;&gt;Node9 -->
<g id="edge18" class="edge">
<title>Node13&#45;&gt;Node9</title>
<path fill="none" stroke="#63b8ff" d="M339.77,-109.75C344.91,-102.58 352.35,-92.2 358.74,-83.3"/>
<polygon fill="#63b8ff" stroke="#63b8ff" points="362.11,-85.61 365.09,-75.44 356.42,-81.53 362.11,-85.61"/>
</g>
</g>
</svg>
