<?xml version="1.0" encoding="UTF-8" standalone="no"?>
<!DOCTYPE svg PUBLIC "-//W3C//DTD SVG 1.1//EN"
 "http://www.w3.org/Graphics/SVG/1.1/DTD/svg11.dtd">
<!-- Generated by graphviz version 8.0.5 (20230430.1635)
 -->
<!-- Title: tdms/src/main.cpp Pages: 1 -->
<svg width="499pt" height="260pt"
 viewBox="0.00 0.00 499.00 259.50" xmlns="http://www.w3.org/2000/svg" xmlns:xlink="http://www.w3.org/1999/xlink">
<g id="graph0" class="graph" transform="scale(1 1) rotate(0) translate(4 255.5)">
<title>tdms/src/main.cpp</title>
<!-- Node1 -->
<g id="node1" class="node">
<title>Node1</title>
<g id="a_node1"><a xlink:title="The main function. Launches TDMS.">
<polygon fill="#999999" stroke="#666666" points="292,-251.5 195,-251.5 195,-232.25 292,-232.25 292,-251.5"/>
<text text-anchor="middle" x="243.5" y="-238" font-family="Helvetica,sans-Serif" font-size="10.00">tdms/src/main.cpp</text>
</a>
</g>
</g>
<!-- Node2 -->
<g id="node2" class="node">
<title>Node2</title>
<g id="a_node2"><a xlink:href="argument__parser_8h.html" target="_top" xlink:title="Parse the command line options.">
<polygon fill="white" stroke="#666666" points="156.62,-190.62 60.38,-190.62 60.38,-171.38 156.62,-171.38 156.62,-190.62"/>
<text text-anchor="middle" x="108.5" y="-177.12" font-family="Helvetica,sans-Serif" font-size="10.00">argument_parser.h</text>
</a>
</g>
</g>
<!-- Node1&#45;&gt;Node2 -->
<g id="edge1" class="edge">
<title>Node1&#45;&gt;Node2</title>
<path fill="none" stroke="#63b8ff" d="M222.7,-231.8C200.34,-222.05 164.57,-206.45 139.02,-195.31"/>
<polygon fill="#63b8ff" stroke="#63b8ff" points="140.67,-191.77 130.1,-190.98 137.87,-198.19 140.67,-191.77"/>
</g>
<!-- Node7 -->
<g id="node7" class="node">
<title>Node7</title>
<g id="a_node7"><a xlink:href="input__matrices_8h.html" target="_top" xlink:title="Class handling the input matrices that are read in from the input file.">
<polygon fill="white" stroke="#666666" points="287.5,-190.62 199.5,-190.62 199.5,-171.38 287.5,-171.38 287.5,-190.62"/>
<text text-anchor="middle" x="243.5" y="-177.12" font-family="Helvetica,sans-Serif" font-size="10.00">input_matrices.h</text>
</a>
</g>
</g>
<!-- Node1&#45;&gt;Node7 -->
<g id="edge7" class="edge">
<title>Node1&#45;&gt;Node7</title>
<path fill="none" stroke="#63b8ff" d="M243.5,-231.93C243.5,-223.98 243.5,-212.06 243.5,-201.87"/>
<polygon fill="#63b8ff" stroke="#63b8ff" points="247,-202.03 243.5,-192.03 240,-202.03 247,-202.03"/>
</g>
<!-- Node14 -->
<g id="node14" class="node">
<title>Node14</title>
<g id="a_node14"><a xlink:title=" ">
<polygon fill="#e0e0e0" stroke="#999999" points="419.25,-196.25 305.75,-196.25 305.75,-165.75 419.25,-165.75 419.25,-196.25"/>
<text text-anchor="start" x="313.75" y="-182.75" font-family="Helvetica,sans-Serif" font-size="10.00">simulation_manager</text>
<text text-anchor="middle" x="362.5" y="-171.5" font-family="Helvetica,sans-Serif" font-size="10.00">/simulation_manager.h</text>
</a>
</g>
</g>
<!-- Node1&#45;&gt;Node14 -->
<g id="edge20" class="edge">
<title>Node1&#45;&gt;Node14</title>
<path fill="none" stroke="#63b8ff" d="M261.83,-231.8C278.08,-223.77 302.36,-211.75 323.01,-201.54"/>
<polygon fill="#63b8ff" stroke="#63b8ff" points="324.39,-204.27 331.8,-196.69 321.28,-197.99 324.39,-204.27"/>
</g>
<!-- Node3 -->
<g id="node3" class="node">
<title>Node3</title>
<g id="a_node3"><a xlink:title=" ">
<polygon fill="#e0e0e0" stroke="#999999" points="141.5,-74.5 101.5,-74.5 101.5,-55.25 141.5,-55.25 141.5,-74.5"/>
<text text-anchor="middle" x="121.5" y="-61" font-family="Helvetica,sans-Serif" font-size="10.00">string</text>
</a>
</g>
</g>
<!-- Node2&#45;&gt;Node3 -->
<g id="edge2" class="edge">
<title>Node2&#45;&gt;Node3</title>
<path fill="none" stroke="#63b8ff" d="M107.42,-170.94C106.04,-157.61 104.21,-131.97 107.5,-110.5 108.81,-101.98 111.44,-92.85 114.07,-85.09"/>
<polygon fill="#63b8ff" stroke="#63b8ff" points="117.64,-86.51 117.77,-75.91 111.06,-84.11 117.64,-86.51"/>
</g>
<!-- Node4 -->
<g id="node4" class="node">
<title>Node4</title>
<g id="a_node4"><a xlink:title=" ">
<polygon fill="#e0e0e0" stroke="#999999" points="265,-74.5 222,-74.5 222,-55.25 265,-55.25 265,-74.5"/>
<text text-anchor="middle" x="243.5" y="-61" font-family="Helvetica,sans-Serif" font-size="10.00">vector</text>
</a>
</g>
</g>
<!-- Node2&#45;&gt;Node4 -->
<g id="edge3" class="edge">
<title>Node2&#45;&gt;Node4</title>
<path fill="none" stroke="#63b8ff" d="M116.65,-170.92C129.24,-157.12 154.5,-130.38 178.5,-110.5 191.52,-99.72 207.11,-88.95 219.75,-80.69"/>
<polygon fill="#63b8ff" stroke="#63b8ff" points="221.24,-83.26 227.76,-74.91 217.45,-77.37 221.24,-83.26"/>
</g>
<!-- Node5 -->
<g id="node5" class="node">
<title>Node5</title>
<g id="a_node5"><a xlink:href="globals_8h.html" target="_top" xlink:title="Type definitions and global constants.">
<polygon fill="white" stroke="#666666" points="55,-129.75 0,-129.75 0,-110.5 55,-110.5 55,-129.75"/>
<text text-anchor="middle" x="27.5" y="-116.25" font-family="Helvetica,sans-Serif" font-size="10.00">globals.h</text>
</a>
</g>
</g>
<!-- Node2&#45;&gt;Node5 -->
<g id="edge4" class="edge">
<title>Node2&#45;&gt;Node5</title>
<path fill="none" stroke="#63b8ff" d="M96.2,-171.06C83.59,-161.89 63.74,-147.47 48.62,-136.48"/>
<polygon fill="#63b8ff" stroke="#63b8ff" points="51.06,-133.2 40.92,-130.15 46.95,-138.86 51.06,-133.2"/>
</g>
<!-- Node5&#45;&gt;Node3 -->
<g id="edge6" class="edge">
<title>Node5&#45;&gt;Node3</title>
<path fill="none" stroke="#63b8ff" d="M43.45,-110.09C57.9,-101.91 79.43,-89.71 96.23,-80.19"/>
<polygon fill="#63b8ff" stroke="#63b8ff" points="97.5,-82.93 104.48,-74.95 94.05,-76.84 97.5,-82.93"/>
</g>
<!-- Node6 -->
<g id="node6" class="node">
<title>Node6</title>
<g id="a_node6"><a xlink:title=" ">
<polygon fill="#e0e0e0" stroke="#999999" points="53.88,-74.5 1.12,-74.5 1.12,-55.25 53.88,-55.25 53.88,-74.5"/>
<text text-anchor="middle" x="27.5" y="-61" font-family="Helvetica,sans-Serif" font-size="10.00">complex</text>
</a>
</g>
</g>
<!-- Node5&#45;&gt;Node6 -->
<g id="edge5" class="edge">
<title>Node5&#45;&gt;Node6</title>
<path fill="none" stroke="#63b8ff" d="M27.5,-110.33C27.5,-103.67 27.5,-94.24 27.5,-85.78"/>
<polygon fill="#63b8ff" stroke="#63b8ff" points="31,-85.86 27.5,-75.86 24,-85.86 31,-85.86"/>
</g>
<!-- Node7&#45;&gt;Node3 -->
<g id="edge8" class="edge">
<title>Node7&#45;&gt;Node3</title>
<path fill="none" stroke="#63b8ff" d="M230.48,-171.02C216.94,-161.44 195.4,-145.5 178.5,-129.75 162.6,-114.93 146.26,-96.2 135.18,-82.86"/>
<polygon fill="#63b8ff" stroke="#63b8ff" points="137.46,-81.12 128.41,-75.6 132.04,-85.55 137.46,-81.12"/>
</g>
<!-- Node8 -->
<g id="node8" class="node">
<title>Node8</title>
<g id="a_node8"><a xlink:href="input__output__names_8h.html" target="_top" xlink:title="Constant values associated with the format of the input and output files and matrices.">
<polygon fill="white" stroke="#666666" points="299.5,-129.75 187.5,-129.75 187.5,-110.5 299.5,-110.5 299.5,-129.75"/>
<text text-anchor="middle" x="243.5" y="-116.25" font-family="Helvetica,sans-Serif" font-size="10.00">input_output_names.h</text>
</a>
</g>
</g>
<!-- Node7&#45;&gt;Node8 -->
<g id="edge9" class="edge">
<title>Node7&#45;&gt;Node8</title>
<path fill="none" stroke="#63b8ff" d="M243.5,-171.06C243.5,-163.1 243.5,-151.19 243.5,-140.99"/>
<polygon fill="#63b8ff" stroke="#63b8ff" points="247,-141.15 243.5,-131.15 240,-141.15 247,-141.15"/>
</g>
<!-- Node9 -->
<g id="node9" class="node">
<title>Node9</title>
<g id="a_node9"><a xlink:href="mat__io_8h.html" target="_top" xlink:title="Includes MATLAB headers for I/O.">
<polygon fill="white" stroke="#666666" points="431.25,-74.5 377.75,-74.5 377.75,-55.25 431.25,-55.25 431.25,-74.5"/>
<text text-anchor="middle" x="404.5" y="-61" font-family="Helvetica,sans-Serif" font-size="10.00">mat_io.h</text>
</a>
</g>
</g>
<!-- Node7&#45;&gt;Node9 -->
<g id="edge12" class="edge">
<title>Node7&#45;&gt;Node9</title>
<path fill="none" stroke="#63b8ff" d="M277.28,-170.89C329.34,-156.82 423.36,-131.25 424.5,-129.75 434.8,-116.2 426.77,-97.25 418.01,-83.51"/>
<polygon fill="#63b8ff" stroke="#63b8ff" points="420.36,-81.76 411.76,-75.58 414.63,-85.78 420.36,-81.76"/>
</g>
<!-- Node13 -->
<g id="node13" class="node">
<title>Node13</title>
<g id="a_node13"><a xlink:href="matrix__collection_8h.html" target="_top" xlink:title="A collection of named MATLAB matrices.">
<polygon fill="white" stroke="#666666" points="415.38,-129.75 317.62,-129.75 317.62,-110.5 415.38,-110.5 415.38,-129.75"/>
<text text-anchor="middle" x="366.5" y="-116.25" font-family="Helvetica,sans-Serif" font-size="10.00">matrix_collection.h</text>
</a>
</g>
</g>
<!-- Node7&#45;&gt;Node13 -->
<g id="edge16" class="edge">
<title>Node7&#45;&gt;Node13</title>
<path fill="none" stroke="#63b8ff" d="M262.45,-170.93C282.64,-161.26 314.84,-145.85 338.07,-134.73"/>
<polygon fill="#63b8ff" stroke="#63b8ff" points="339.22,-137.58 346.73,-130.11 336.2,-131.27 339.22,-137.58"/>
</g>
<!-- Node8&#45;&gt;Node3 -->
<g id="edge10" class="edge">
<title>Node8&#45;&gt;Node3</title>
<path fill="none" stroke="#63b8ff" d="M222.8,-110.09C203.32,-101.59 173.91,-88.75 151.78,-79.09"/>
<polygon fill="#63b8ff" stroke="#63b8ff" points="153.46,-75.57 142.89,-74.77 150.65,-81.98 153.46,-75.57"/>
</g>
<!-- Node8&#45;&gt;Node4 -->
<g id="edge11" class="edge">
<title>Node8&#45;&gt;Node4</title>
<path fill="none" stroke="#63b8ff" d="M243.5,-110.33C243.5,-103.67 243.5,-94.24 243.5,-85.78"/>
<polygon fill="#63b8ff" stroke="#63b8ff" points="247,-85.86 243.5,-75.86 240,-85.86 247,-85.86"/>
</g>
<!-- Node10 -->
<g id="node10" class="node">
<title>Node10</title>
<g id="a_node10"><a xlink:title=" ">
<polygon fill="#e0e0e0" stroke="#999999" points="360.88,-19.25 320.12,-19.25 320.12,0 360.88,0 360.88,-19.25"/>
<text text-anchor="middle" x="340.5" y="-5.75" font-family="Helvetica,sans-Serif" font-size="10.00">mat.h</text>
</a>
</g>
</g>
<!-- Node9&#45;&gt;Node10 -->
<g id="edge13" class="edge">
<title>Node9&#45;&gt;Node10</title>
<path fill="none" stroke="#63b8ff" d="M393.64,-54.84C384.3,-47.07 370.61,-35.67 359.46,-26.4"/>
<polygon fill="#63b8ff" stroke="#63b8ff" points="362.12,-23.23 352.2,-19.52 357.64,-28.61 362.12,-23.23"/>
</g>
<!-- Node11 -->
<g id="node11" class="node">
<title>Node11</title>
<g id="a_node11"><a xlink:title=" ">
<polygon fill="#e0e0e0" stroke="#999999" points="430.12,-19.25 378.88,-19.25 378.88,0 430.12,0 430.12,-19.25"/>
<text text-anchor="middle" x="404.5" y="-5.75" font-family="Helvetica,sans-Serif" font-size="10.00">matrix.h</text>
</a>
</g>
</g>
<!-- Node9&#45;&gt;Node11 -->
<g id="edge14" class="edge">
<title>Node9&#45;&gt;Node11</title>
<path fill="none" stroke="#63b8ff" d="M404.5,-55.08C404.5,-48.42 404.5,-38.99 404.5,-30.53"/>
<polygon fill="#63b8ff" stroke="#63b8ff" points="408,-30.61 404.5,-20.61 401,-30.61 408,-30.61"/>
</g>
<!-- Node12 -->
<g id="node12" class="node">
<title>Node12</title>
<g id="a_node12"><a xlink:title=" ">
<polygon fill="#e0e0e0" stroke="#999999" points="491,-19.25 448,-19.25 448,0 491,0 491,-19.25"/>
<text text-anchor="middle" x="469.5" y="-5.75" font-family="Helvetica,sans-Serif" font-size="10.00">mex.h</text>
</a>
</g>
</g>
<!-- Node9&#45;&gt;Node12 -->
<g id="edge15" class="edge">
<title>Node9&#45;&gt;Node12</title>
<path fill="none" stroke="#63b8ff" d="M415.53,-54.84C425.01,-47.07 438.92,-35.67 450.25,-26.4"/>
<polygon fill="#63b8ff" stroke="#63b8ff" points="452.12,-28.57 457.64,-19.52 447.68,-23.15 452.12,-28.57"/>
</g>
<!-- Node13&#45;&gt;Node3 -->
<g id="edge17" class="edge">
<title>Node13&#45;&gt;Node3</title>
<path fill="none" stroke="#63b8ff" d="M324.66,-110.03C275.75,-99.4 195.97,-82.06 152.36,-72.58"/>
<polygon fill="#63b8ff" stroke="#63b8ff" points="153.35,-69 142.84,-70.3 151.87,-75.84 153.35,-69"/>
</g>
<!-- Node13&#45;&gt;Node4 -->
<g id="edge18" class="edge">
<title>Node13&#45;&gt;Node4</title>
<path fill="none" stroke="#63b8ff" d="M345.63,-110.09C326.11,-101.64 296.69,-88.9 274.44,-79.27"/>
<polygon fill="#63b8ff" stroke="#63b8ff" points="276.04,-75.71 265.47,-74.95 273.25,-82.14 276.04,-75.71"/>
</g>
<!-- Node13&#45;&gt;Node9 -->
<g id="edge19" class="edge">
<title>Node13&#45;&gt;Node9</title>
<path fill="none" stroke="#63b8ff" d="M372.77,-110.33C377.91,-103.13 385.35,-92.71 391.74,-83.76"/>
<polygon fill="#63b8ff" stroke="#63b8ff" points="395.13,-86.03 398.09,-75.86 389.43,-81.97 395.13,-86.03"/>
</g>
</g>
</svg>
