<?xml version="1.0" encoding="UTF-8" standalone="no"?>
<!DOCTYPE svg PUBLIC "-//W3C//DTD SVG 1.1//EN"
 "http://www.w3.org/Graphics/SVG/1.1/DTD/svg11.dtd">
<!-- Generated by graphviz version 9.0.0 (20230911.1827)
 -->
<!-- Title: tdms/src/main.cpp Pages: 1 -->
<svg width="689pt" height="260pt"
 viewBox="0.00 0.00 688.62 259.50" xmlns="http://www.w3.org/2000/svg" xmlns:xlink="http://www.w3.org/1999/xlink">
<g id="graph0" class="graph" transform="scale(1 1) rotate(0) translate(4 255.5)">
<title>tdms/src/main.cpp</title>
<!-- Node1 -->
<g id="Node000001" class="node">
<title>Node1</title>
<g id="a_Node000001"><a xlink:title="The main function. Launches TDMS.">
<polygon fill="#999999" stroke="#666666" points="353,-251.5 256,-251.5 256,-232.25 353,-232.25 353,-251.5"/>
<text text-anchor="middle" x="304.5" y="-238" font-family="Helvetica,sans-Serif" font-size="10.00">tdms/src/main.cpp</text>
</a>
</g>
</g>
<!-- Node2 -->
<g id="Node000002" class="node">
<title>Node2</title>
<g id="a_Node000002"><a xlink:href="argument__parser_8h.html" target="_top" xlink:title="Parse the command line options.">
<polygon fill="white" stroke="#666666" points="181.62,-190.62 85.38,-190.62 85.38,-171.38 181.62,-171.38 181.62,-190.62"/>
<text text-anchor="middle" x="133.5" y="-177.12" font-family="Helvetica,sans-Serif" font-size="10.00">argument_parser.h</text>
</a>
</g>
</g>
<!-- Node1&#45;&gt;Node2 -->
<g id="edge1_Node000001_Node000002" class="edge">
<title>Node1&#45;&gt;Node2</title>
<g id="a_edge1_Node000001_Node000002"><a xlink:title=" ">
<path fill="none" stroke="#63b8ff" d="M278.16,-231.8C249.41,-221.91 203.17,-205.99 170.72,-194.82"/>
<polygon fill="#63b8ff" stroke="#63b8ff" points="171.9,-191.52 161.31,-191.57 169.62,-198.14 171.9,-191.52"/>
</a>
</g>
</g>
<!-- Node7 -->
<g id="Node000007" class="node">
<title>Node7</title>
<g id="a_Node000007"><a xlink:href="input__flags_8h.html" target="_top" xlink:title="Organises enumerated constants, names, and classes for handling flag&#45;variables that are passed to TDM...">
<polygon fill="white" stroke="#666666" points="543.25,-129.75 471.75,-129.75 471.75,-110.5 543.25,-110.5 543.25,-129.75"/>
<text text-anchor="middle" x="507.5" y="-116.25" font-family="Helvetica,sans-Serif" font-size="10.00">input_flags.h</text>
</a>
</g>
</g>
<!-- Node1&#45;&gt;Node7 -->
<g id="edge7_Node000001_Node000007" class="edge">
<title>Node1&#45;&gt;Node7</title>
<g id="a_edge7_Node000001_Node000007"><a xlink:title=" ">
<path fill="none" stroke="#63b8ff" d="M308.71,-231.76C316.47,-215.93 334.56,-183.4 359.5,-165.75 389.45,-144.56 429.62,-133.27 460.55,-127.36"/>
<polygon fill="#63b8ff" stroke="#63b8ff" points="460.77,-130.87 470,-125.68 459.54,-123.98 460.77,-130.87"/>
</a>
</g>
</g>
<!-- Node15 -->
<g id="Node000015" class="node">
<title>Node15</title>
<g id="a_Node000015"><a xlink:href="input__matrices_8h.html" target="_top" xlink:title="Class handling the input matrices that are read in from the input file.">
<polygon fill="white" stroke="#666666" points="312.5,-190.62 224.5,-190.62 224.5,-171.38 312.5,-171.38 312.5,-190.62"/>
<text text-anchor="middle" x="268.5" y="-177.12" font-family="Helvetica,sans-Serif" font-size="10.00">input_matrices.h</text>
</a>
</g>
</g>
<!-- Node1&#45;&gt;Node15 -->
<g id="edge17_Node000001_Node000015" class="edge">
<title>Node1&#45;&gt;Node15</title>
<g id="a_edge17_Node000001_Node000015"><a xlink:title=" ">
<path fill="none" stroke="#63b8ff" d="M299.03,-231.93C293.96,-223.63 286.24,-211.02 279.84,-200.55"/>
<polygon fill="#63b8ff" stroke="#63b8ff" points="283.01,-199.02 274.81,-192.32 277.04,-202.67 283.01,-199.02"/>
</a>
</g>
</g>
<!-- Node18 -->
<g id="Node000018" class="node">
<title>Node18</title>
<g id="a_Node000018"><a xlink:title=" ">
<polygon fill="#e0e0e0" stroke="#999999" points="482.25,-196.25 368.75,-196.25 368.75,-165.75 482.25,-165.75 482.25,-196.25"/>
<text text-anchor="start" x="376.75" y="-182.75" font-family="Helvetica,sans-Serif" font-size="10.00">simulation_manager</text>
<text text-anchor="middle" x="425.5" y="-171.5" font-family="Helvetica,sans-Serif" font-size="10.00">/simulation_manager.h</text>
</a>
</g>
</g>
<!-- Node1&#45;&gt;Node18 -->
<g id="edge27_Node000001_Node000018" class="edge">
<title>Node1&#45;&gt;Node18</title>
<g id="a_edge27_Node000001_Node000018"><a xlink:title=" ">
<path fill="none" stroke="#63b8ff" d="M323.14,-231.8C339.59,-223.8 364.13,-211.86 385.06,-201.68"/>
<polygon fill="#63b8ff" stroke="#63b8ff" points="386.48,-204.88 393.94,-197.36 383.42,-198.59 386.48,-204.88"/>
</a>
</g>
</g>
<!-- Node3 -->
<g id="Node000003" class="node">
<title>Node3</title>
<g id="a_Node000003"><a xlink:title=" ">
<polygon fill="#e0e0e0" stroke="#999999" points="172.5,-74.5 132.5,-74.5 132.5,-55.25 172.5,-55.25 172.5,-74.5"/>
<text text-anchor="middle" x="152.5" y="-61" font-family="Helvetica,sans-Serif" font-size="10.00">string</text>
</a>
</g>
</g>
<!-- Node2&#45;&gt;Node3 -->
<g id="edge2_Node000002_Node000003" class="edge">
<title>Node2&#45;&gt;Node3</title>
<g id="a_edge2_Node000002_Node000003"><a xlink:title=" ">
<path fill="none" stroke="#63b8ff" d="M125.63,-170.92C115.06,-157.57 98.58,-131.91 107.5,-110.5 112.15,-99.34 121.09,-89.55 129.79,-81.99"/>
<polygon fill="#63b8ff" stroke="#63b8ff" points="131.76,-84.9 137.39,-75.92 127.39,-79.43 131.76,-84.9"/>
</a>
</g>
</g>
<!-- Node4 -->
<g id="Node000004" class="node">
<title>Node4</title>
<g id="a_Node000004"><a xlink:title=" ">
<polygon fill="#e0e0e0" stroke="#999999" points="293,-74.5 250,-74.5 250,-55.25 293,-55.25 293,-74.5"/>
<text text-anchor="middle" x="271.5" y="-61" font-family="Helvetica,sans-Serif" font-size="10.00">vector</text>
</a>
</g>
</g>
<!-- Node2&#45;&gt;Node4 -->
<g id="edge3_Node000002_Node000004" class="edge">
<title>Node2&#45;&gt;Node4</title>
<g id="a_edge3_Node000002_Node000004"><a xlink:title=" ">
<path fill="none" stroke="#63b8ff" d="M137.25,-171.22C143.77,-156.85 158.43,-128.17 178.5,-110.5 196.03,-95.07 219.83,-83.78 238.97,-76.42"/>
<polygon fill="#63b8ff" stroke="#63b8ff" points="240,-79.77 248.19,-73.05 237.6,-73.19 240,-79.77"/>
</a>
</g>
</g>
<!-- Node5 -->
<g id="Node000005" class="node">
<title>Node5</title>
<g id="a_Node000005"><a xlink:href="globals_8h.html" target="_top" xlink:title="Type definitions and global constants.">
<polygon fill="white" stroke="#666666" points="55,-129.75 0,-129.75 0,-110.5 55,-110.5 55,-129.75"/>
<text text-anchor="middle" x="27.5" y="-116.25" font-family="Helvetica,sans-Serif" font-size="10.00">globals.h</text>
</a>
</g>
</g>
<!-- Node2&#45;&gt;Node5 -->
<g id="edge4_Node000002_Node000005" class="edge">
<title>Node2&#45;&gt;Node5</title>
<g id="a_edge4_Node000002_Node000005"><a xlink:title=" ">
<path fill="none" stroke="#63b8ff" d="M117.4,-171.06C100.51,-161.68 73.7,-146.79 53.75,-135.7"/>
<polygon fill="#63b8ff" stroke="#63b8ff" points="55.52,-132.68 45.07,-130.89 52.12,-138.8 55.52,-132.68"/>
</a>
</g>
</g>
<!-- Node5&#45;&gt;Node3 -->
<g id="edge6_Node000005_Node000003" class="edge">
<title>Node5&#45;&gt;Node3</title>
<g id="a_edge6_Node000005_Node000003"><a xlink:title=" ">
<path fill="none" stroke="#63b8ff" d="M48.7,-110.09C68.7,-101.57 98.9,-88.71 121.57,-79.05"/>
<polygon fill="#63b8ff" stroke="#63b8ff" points="122.8,-82.33 130.63,-75.19 120.06,-75.89 122.8,-82.33"/>
</a>
</g>
</g>
<!-- Node6 -->
<g id="Node000006" class="node">
<title>Node6</title>
<g id="a_Node000006"><a xlink:title=" ">
<polygon fill="#e0e0e0" stroke="#999999" points="53.88,-74.5 1.12,-74.5 1.12,-55.25 53.88,-55.25 53.88,-74.5"/>
<text text-anchor="middle" x="27.5" y="-61" font-family="Helvetica,sans-Serif" font-size="10.00">complex</text>
</a>
</g>
</g>
<!-- Node5&#45;&gt;Node6 -->
<g id="edge5_Node000005_Node000006" class="edge">
<title>Node5&#45;&gt;Node6</title>
<g id="a_edge5_Node000005_Node000006"><a xlink:title=" ">
<path fill="none" stroke="#63b8ff" d="M27.5,-110.33C27.5,-103.82 27.5,-94.67 27.5,-86.37"/>
<polygon fill="#63b8ff" stroke="#63b8ff" points="31,-86.37 27.5,-76.37 24,-86.37 31,-86.37"/>
</a>
</g>
</g>
<!-- Node7&#45;&gt;Node3 -->
<g id="edge10_Node000007_Node000003" class="edge">
<title>Node7&#45;&gt;Node3</title>
<g id="a_edge10_Node000007_Node000003"><a xlink:title=" ">
<path fill="none" stroke="#63b8ff" d="M471.51,-113.73C401.98,-103.3 250.24,-80.54 184.23,-70.63"/>
<polygon fill="#63b8ff" stroke="#63b8ff" points="184.85,-67.19 174.44,-69.17 183.81,-74.11 184.85,-67.19"/>
</a>
</g>
</g>
<!-- Node7&#45;&gt;Node4 -->
<g id="edge11_Node000007_Node000004" class="edge">
<title>Node7&#45;&gt;Node4</title>
<g id="a_edge11_Node000007_Node000004"><a xlink:title=" ">
<path fill="none" stroke="#63b8ff" d="M471.4,-110.98C425.98,-100.73 348.62,-83.28 304.64,-73.35"/>
<polygon fill="#63b8ff" stroke="#63b8ff" points="305.44,-69.94 294.91,-71.16 303.9,-76.77 305.44,-69.94"/>
</a>
</g>
</g>
<!-- Node8 -->
<g id="Node000008" class="node">
<title>Node8</title>
<g id="a_Node000008"><a xlink:title=" ">
<polygon fill="#e0e0e0" stroke="#999999" points="501.38,-74.5 445.62,-74.5 445.62,-55.25 501.38,-55.25 501.38,-74.5"/>
<text text-anchor="middle" x="473.5" y="-61" font-family="Helvetica,sans-Serif" font-size="10.00">algorithm</text>
</a>
</g>
</g>
<!-- Node7&#45;&gt;Node8 -->
<g id="edge8_Node000007_Node000008" class="edge">
<title>Node7&#45;&gt;Node8</title>
<g id="a_edge8_Node000007_Node000008"><a xlink:title=" ">
<path fill="none" stroke="#63b8ff" d="M501.89,-110.33C497.38,-103.28 490.91,-93.15 485.29,-84.33"/>
<polygon fill="#63b8ff" stroke="#63b8ff" points="488.38,-82.68 480.05,-76.13 482.48,-86.45 488.38,-82.68"/>
</a>
</g>
</g>
<!-- Node9 -->
<g id="Node000009" class="node">
<title>Node9</title>
<g id="a_Node000009"><a xlink:title=" ">
<polygon fill="#e0e0e0" stroke="#999999" points="577.88,-74.5 519.12,-74.5 519.12,-55.25 577.88,-55.25 577.88,-74.5"/>
<text text-anchor="middle" x="548.5" y="-61" font-family="Helvetica,sans-Serif" font-size="10.00">stdexcept</text>
</a>
</g>
</g>
<!-- Node7&#45;&gt;Node9 -->
<g id="edge9_Node000007_Node000009" class="edge">
<title>Node7&#45;&gt;Node9</title>
<g id="a_edge9_Node000007_Node000009"><a xlink:title=" ">
<path fill="none" stroke="#63b8ff" d="M514.27,-110.33C519.82,-103.13 527.84,-92.71 534.73,-83.76"/>
<polygon fill="#63b8ff" stroke="#63b8ff" points="537.33,-86.12 540.66,-76.06 531.79,-81.85 537.33,-86.12"/>
</a>
</g>
</g>
<!-- Node10 -->
<g id="Node000010" class="node">
<title>Node10</title>
<g id="a_Node000010"><a xlink:title=" ">
<polygon fill="#e0e0e0" stroke="#999999" points="680.62,-74.5 596.38,-74.5 596.38,-55.25 680.62,-55.25 680.62,-74.5"/>
<text text-anchor="middle" x="638.5" y="-61" font-family="Helvetica,sans-Serif" font-size="10.00">spdlog/spdlog.h</text>
</a>
</g>
</g>
<!-- Node7&#45;&gt;Node10 -->
<g id="edge12_Node000007_Node000010" class="edge">
<title>Node7&#45;&gt;Node10</title>
<g id="a_edge12_Node000007_Node000010"><a xlink:title=" ">
<path fill="none" stroke="#63b8ff" d="M529.72,-110.09C550.52,-101.64 581.85,-88.9 605.55,-79.27"/>
<polygon fill="#63b8ff" stroke="#63b8ff" points="606.82,-82.53 614.77,-75.52 604.18,-76.05 606.82,-82.53"/>
</a>
</g>
</g>
<!-- Node11 -->
<g id="Node000011" class="node">
<title>Node11</title>
<g id="a_Node000011"><a xlink:href="mat__io_8h.html" target="_top" xlink:title="Includes MATLAB headers for I/O.">
<polygon fill="white" stroke="#666666" points="427.25,-74.5 373.75,-74.5 373.75,-55.25 427.25,-55.25 427.25,-74.5"/>
<text text-anchor="middle" x="400.5" y="-61" font-family="Helvetica,sans-Serif" font-size="10.00">mat_io.h</text>
</a>
</g>
</g>
<!-- Node7&#45;&gt;Node11 -->
<g id="edge13_Node000007_Node000011" class="edge">
<title>Node7&#45;&gt;Node11</title>
<g id="a_edge13_Node000007_Node000011"><a xlink:title=" ">
<path fill="none" stroke="#63b8ff" d="M489.35,-110.09C472.82,-101.87 448.16,-89.59 429,-80.06"/>
<polygon fill="#63b8ff" stroke="#63b8ff" points="430.61,-76.95 420.1,-75.63 427.49,-83.22 430.61,-76.95"/>
</a>
</g>
</g>
<!-- Node12 -->
<g id="Node000012" class="node">
<title>Node12</title>
<g id="a_Node000012"><a xlink:title=" ">
<polygon fill="#e0e0e0" stroke="#999999" points="356.88,-19.25 316.12,-19.25 316.12,0 356.88,0 356.88,-19.25"/>
<text text-anchor="middle" x="336.5" y="-5.75" font-family="Helvetica,sans-Serif" font-size="10.00">mat.h</text>
</a>
</g>
</g>
<!-- Node11&#45;&gt;Node12 -->
<g id="edge14_Node000011_Node000012" class="edge">
<title>Node11&#45;&gt;Node12</title>
<g id="a_edge14_Node000011_Node000012"><a xlink:title=" ">
<path fill="none" stroke="#63b8ff" d="M389.64,-54.84C380.39,-47.15 366.88,-35.9 355.79,-26.68"/>
<polygon fill="#63b8ff" stroke="#63b8ff" points="358.29,-24.2 348.36,-20.49 353.81,-29.58 358.29,-24.2"/>
</a>
</g>
</g>
<!-- Node13 -->
<g id="Node000013" class="node">
<title>Node13</title>
<g id="a_Node000013"><a xlink:title=" ">
<polygon fill="#e0e0e0" stroke="#999999" points="426.12,-19.25 374.88,-19.25 374.88,0 426.12,0 426.12,-19.25"/>
<text text-anchor="middle" x="400.5" y="-5.75" font-family="Helvetica,sans-Serif" font-size="10.00">matrix.h</text>
</a>
</g>
</g>
<!-- Node11&#45;&gt;Node13 -->
<g id="edge15_Node000011_Node000013" class="edge">
<title>Node11&#45;&gt;Node13</title>
<g id="a_edge15_Node000011_Node000013"><a xlink:title=" ">
<path fill="none" stroke="#63b8ff" d="M400.5,-55.08C400.5,-48.57 400.5,-39.42 400.5,-31.12"/>
<polygon fill="#63b8ff" stroke="#63b8ff" points="404,-31.12 400.5,-21.12 397,-31.12 404,-31.12"/>
</a>
</g>
</g>
<!-- Node14 -->
<g id="Node000014" class="node">
<title>Node14</title>
<g id="a_Node000014"><a xlink:title=" ">
<polygon fill="#e0e0e0" stroke="#999999" points="487,-19.25 444,-19.25 444,0 487,0 487,-19.25"/>
<text text-anchor="middle" x="465.5" y="-5.75" font-family="Helvetica,sans-Serif" font-size="10.00">mex.h</text>
</a>
</g>
</g>
<!-- Node11&#45;&gt;Node14 -->
<g id="edge16_Node000011_Node000014" class="edge">
<title>Node11&#45;&gt;Node14</title>
<g id="a_edge16_Node000011_Node000014"><a xlink:title=" ">
<path fill="none" stroke="#63b8ff" d="M411.53,-54.84C420.92,-47.15 434.65,-35.9 445.91,-26.68"/>
<polygon fill="#63b8ff" stroke="#63b8ff" points="447.95,-29.53 453.47,-20.48 443.51,-24.11 447.95,-29.53"/>
</a>
</g>
</g>
<!-- Node15&#45;&gt;Node3 -->
<g id="edge18_Node000015_Node000003" class="edge">
<title>Node15&#45;&gt;Node3</title>
<g id="a_edge18_Node000015_Node000003"><a xlink:title=" ">
<path fill="none" stroke="#63b8ff" d="M242.52,-170.98C222.65,-162.91 195.81,-149.32 178.5,-129.75 167.45,-117.25 160.72,-99.44 156.89,-85.79"/>
<polygon fill="#63b8ff" stroke="#63b8ff" points="160.31,-85.04 154.51,-76.18 153.52,-86.73 160.31,-85.04"/>
</a>
</g>
</g>
<!-- Node15&#45;&gt;Node11 -->
<g id="edge22_Node000015_Node000011" class="edge">
<title>Node15&#45;&gt;Node11</title>
<g id="a_edge22_Node000015_Node000011"><a xlink:title=" ">
<path fill="none" stroke="#63b8ff" d="M304.02,-170.92C347.76,-159.37 417.21,-139.75 424.5,-129.75 434.6,-115.88 425.59,-97.26 415.86,-83.7"/>
<polygon fill="#63b8ff" stroke="#63b8ff" points="418.78,-81.75 409.85,-76.05 413.28,-86.08 418.78,-81.75"/>
</a>
</g>
</g>
<!-- Node16 -->
<g id="Node000016" class="node">
<title>Node16</title>
<g id="a_Node000016"><a xlink:href="input__output__names_8h.html" target="_top" xlink:title="Constant values associated with the format of the input and output files and matrices.">
<polygon fill="white" stroke="#666666" points="299.5,-129.75 187.5,-129.75 187.5,-110.5 299.5,-110.5 299.5,-129.75"/>
<text text-anchor="middle" x="243.5" y="-116.25" font-family="Helvetica,sans-Serif" font-size="10.00">input_output_names.h</text>
</a>
</g>
</g>
<!-- Node15&#45;&gt;Node16 -->
<g id="edge19_Node000015_Node000016" class="edge">
<title>Node15&#45;&gt;Node16</title>
<g id="a_edge19_Node000015_Node000016"><a xlink:title=" ">
<path fill="none" stroke="#63b8ff" d="M264.7,-171.06C261.29,-163.02 256.16,-150.93 251.79,-140.66"/>
<polygon fill="#63b8ff" stroke="#63b8ff" points="255.05,-139.38 247.92,-131.54 248.61,-142.12 255.05,-139.38"/>
</a>
</g>
</g>
<!-- Node17 -->
<g id="Node000017" class="node">
<title>Node17</title>
<g id="a_Node000017"><a xlink:href="matrix__collection_8h.html" target="_top" xlink:title="A collection of named MATLAB matrices.">
<polygon fill="white" stroke="#666666" points="415.38,-129.75 317.62,-129.75 317.62,-110.5 415.38,-110.5 415.38,-129.75"/>
<text text-anchor="middle" x="366.5" y="-116.25" font-family="Helvetica,sans-Serif" font-size="10.00">matrix_collection.h</text>
</a>
</g>
</g>
<!-- Node15&#45;&gt;Node17 -->
<g id="edge23_Node000015_Node000017" class="edge">
<title>Node15&#45;&gt;Node17</title>
<g id="a_edge23_Node000015_Node000017"><a xlink:title=" ">
<path fill="none" stroke="#63b8ff" d="M283.38,-171.06C298.85,-161.76 323.33,-147.06 341.72,-136.01"/>
<polygon fill="#63b8ff" stroke="#63b8ff" points="343.41,-139.08 350.18,-130.93 339.8,-133.08 343.41,-139.08"/>
</a>
</g>
</g>
<!-- Node16&#45;&gt;Node3 -->
<g id="edge20_Node000016_Node000003" class="edge">
<title>Node16&#45;&gt;Node3</title>
<g id="a_edge20_Node000016_Node000003"><a xlink:title=" ">
<path fill="none" stroke="#63b8ff" d="M228.06,-110.09C214.34,-102.06 194,-90.16 177.88,-80.73"/>
<polygon fill="#63b8ff" stroke="#63b8ff" points="179.72,-77.75 169.32,-75.72 176.18,-83.79 179.72,-77.75"/>
</a>
</g>
</g>
<!-- Node16&#45;&gt;Node4 -->
<g id="edge21_Node000016_Node000004" class="edge">
<title>Node16&#45;&gt;Node4</title>
<g id="a_edge21_Node000016_Node000004"><a xlink:title=" ">
<path fill="none" stroke="#63b8ff" d="M248.12,-110.33C251.75,-103.44 256.93,-93.59 261.49,-84.91"/>
<polygon fill="#63b8ff" stroke="#63b8ff" points="264.52,-86.68 266.07,-76.2 258.32,-83.42 264.52,-86.68"/>
</a>
</g>
</g>
<!-- Node17&#45;&gt;Node3 -->
<g id="edge24_Node000017_Node000003" class="edge">
<title>Node17&#45;&gt;Node3</title>
<g id="a_edge24_Node000017_Node000003"><a xlink:title=" ">
<path fill="none" stroke="#63b8ff" d="M330.2,-110.09C289.13,-99.87 222.92,-83.4 183.96,-73.7"/>
<polygon fill="#63b8ff" stroke="#63b8ff" points="184.83,-70.31 174.28,-71.29 183.14,-77.1 184.83,-70.31"/>
</a>
</g>
</g>
<!-- Node17&#45;&gt;Node4 -->
<g id="edge25_Node000017_Node000004" class="edge">
<title>Node17&#45;&gt;Node4</title>
<g id="a_edge25_Node000017_Node000004"><a xlink:title=" ">
<path fill="none" stroke="#63b8ff" d="M350.38,-110.09C335.92,-101.98 314.42,-89.93 297.52,-80.46"/>
<polygon fill="#63b8ff" stroke="#63b8ff" points="299.45,-77.53 289.01,-75.69 296.03,-83.64 299.45,-77.53"/>
</a>
</g>
</g>
<!-- Node17&#45;&gt;Node11 -->
<g id="edge26_Node000017_Node000011" class="edge">
<title>Node17&#45;&gt;Node11</title>
<g id="a_edge26_Node000017_Node000011"><a xlink:title=" ">
<path fill="none" stroke="#63b8ff" d="M372.11,-110.33C376.62,-103.28 383.09,-93.15 388.71,-84.33"/>
<polygon fill="#63b8ff" stroke="#63b8ff" points="391.52,-86.45 393.95,-76.13 385.62,-82.68 391.52,-86.45"/>
</a>
</g>
</g>
</g>
</svg>
