<?xml version="1.0" encoding="UTF-8" standalone="no"?>
<!DOCTYPE svg PUBLIC "-//W3C//DTD SVG 1.1//EN"
 "http://www.w3.org/Graphics/SVG/1.1/DTD/svg11.dtd">
<!-- Generated by graphviz version 8.0.4 (20230421.1958)
 -->
<!-- Title: tdms/src/main.cpp Pages: 1 -->
<svg width="689pt" height="260pt"
 viewBox="0.00 0.00 688.62 259.50" xmlns="http://www.w3.org/2000/svg" xmlns:xlink="http://www.w3.org/1999/xlink">
<g id="graph0" class="graph" transform="scale(1 1) rotate(0) translate(4 255.5)">
<title>tdms/src/main.cpp</title>
<!-- Node1 -->
<g id="node1" class="node">
<title>Node1</title>
<g id="a_node1"><a xlink:title="The main function. Launches TDMS.">
<polygon fill="#999999" stroke="#666666" points="353,-251.5 256,-251.5 256,-232.25 353,-232.25 353,-251.5"/>
<text text-anchor="middle" x="304.5" y="-238" font-family="Helvetica,sans-Serif" font-size="10.00">tdms/src/main.cpp</text>
</a>
</g>
</g>
<!-- Node2 -->
<g id="node2" class="node">
<title>Node2</title>
<g id="a_node2"><a xlink:href="argument__parser_8h.html" target="_top" xlink:title="Parse the command line options.">
<polygon fill="white" stroke="#666666" points="181.62,-190.62 85.38,-190.62 85.38,-171.38 181.62,-171.38 181.62,-190.62"/>
<text text-anchor="middle" x="133.5" y="-177.12" font-family="Helvetica,sans-Serif" font-size="10.00">argument_parser.h</text>
</a>
</g>
</g>
<!-- Node1&#45;&gt;Node2 -->
<g id="edge1" class="edge">
<title>Node1&#45;&gt;Node2</title>
<path fill="none" stroke="#63b8ff" d="M278.16,-231.8C249.16,-221.82 202.36,-205.71 169.88,-194.52"/>
<polygon fill="#63b8ff" stroke="#63b8ff" points="171.47,-191.03 160.87,-191.08 169.19,-197.65 171.47,-191.03"/>
</g>
<!-- Node7 -->
<g id="node7" class="node">
<title>Node7</title>
<g id="a_node7"><a xlink:href="input__flags_8h.html" target="_top" xlink:title="Organises enumerated constants, names, and classes for handling flag&#45;variables that are passed to TDM...">
<polygon fill="white" stroke="#666666" points="543.25,-129.75 471.75,-129.75 471.75,-110.5 543.25,-110.5 543.25,-129.75"/>
<text text-anchor="middle" x="507.5" y="-116.25" font-family="Helvetica,sans-Serif" font-size="10.00">input_flags.h</text>
</a>
</g>
</g>
<!-- Node1&#45;&gt;Node7 -->
<g id="edge7" class="edge">
<title>Node1&#45;&gt;Node7</title>
<path fill="none" stroke="#63b8ff" d="M308.71,-231.76C316.47,-215.93 334.56,-183.4 359.5,-165.75 389.58,-144.46 429.97,-133.17 460.96,-127.28"/>
<polygon fill="#63b8ff" stroke="#63b8ff" points="461.26,-130.6 470.49,-125.41 460.04,-123.71 461.26,-130.6"/>
</g>
<!-- Node15 -->
<g id="node15" class="node">
<title>Node15</title>
<g id="a_node15"><a xlink:href="input__matrices_8h.html" target="_top" xlink:title="Class handling the input matrices that are read in from the input file.">
<polygon fill="white" stroke="#666666" points="312.5,-190.62 224.5,-190.62 224.5,-171.38 312.5,-171.38 312.5,-190.62"/>
<text text-anchor="middle" x="268.5" y="-177.12" font-family="Helvetica,sans-Serif" font-size="10.00">input_matrices.h</text>
</a>
</g>
</g>
<!-- Node1&#45;&gt;Node15 -->
<g id="edge17" class="edge">
<title>Node1&#45;&gt;Node15</title>
<path fill="none" stroke="#63b8ff" d="M299.03,-231.93C293.9,-223.55 286.08,-210.76 279.64,-200.22"/>
<polygon fill="#63b8ff" stroke="#63b8ff" points="282.22,-198.73 274.02,-192.03 276.25,-202.38 282.22,-198.73"/>
</g>
<!-- Node18 -->
<g id="node18" class="node">
<title>Node18</title>
<g id="a_node18"><a xlink:title=" ">
<polygon fill="#e0e0e0" stroke="#999999" points="482.25,-196.25 368.75,-196.25 368.75,-165.75 482.25,-165.75 482.25,-196.25"/>
<text text-anchor="start" x="376.75" y="-182.75" font-family="Helvetica,sans-Serif" font-size="10.00">simulation_manager</text>
<text text-anchor="middle" x="425.5" y="-171.5" font-family="Helvetica,sans-Serif" font-size="10.00">/simulation_manager.h</text>
</a>
</g>
</g>
<!-- Node1&#45;&gt;Node18 -->
<g id="edge27" class="edge">
<title>Node1&#45;&gt;Node18</title>
<path fill="none" stroke="#63b8ff" d="M323.14,-231.8C339.74,-223.73 364.58,-211.64 385.63,-201.4"/>
<polygon fill="#63b8ff" stroke="#63b8ff" points="386.84,-204.22 394.3,-196.69 383.78,-197.92 386.84,-204.22"/>
</g>
<!-- Node3 -->
<g id="node3" class="node">
<title>Node3</title>
<g id="a_node3"><a xlink:title=" ">
<polygon fill="#e0e0e0" stroke="#999999" points="172.5,-74.5 132.5,-74.5 132.5,-55.25 172.5,-55.25 172.5,-74.5"/>
<text text-anchor="middle" x="152.5" y="-61" font-family="Helvetica,sans-Serif" font-size="10.00">string</text>
</a>
</g>
</g>
<!-- Node2&#45;&gt;Node3 -->
<g id="edge2" class="edge">
<title>Node2&#45;&gt;Node3</title>
<path fill="none" stroke="#63b8ff" d="M125.63,-170.92C115.06,-157.57 98.58,-131.91 107.5,-110.5 112.2,-99.23 121.28,-89.34 130.06,-81.76"/>
<polygon fill="#63b8ff" stroke="#63b8ff" points="131.94,-83.94 137.57,-74.97 127.57,-78.47 131.94,-83.94"/>
</g>
<!-- Node4 -->
<g id="node4" class="node">
<title>Node4</title>
<g id="a_node4"><a xlink:title=" ">
<polygon fill="#e0e0e0" stroke="#999999" points="293,-74.5 250,-74.5 250,-55.25 293,-55.25 293,-74.5"/>
<text text-anchor="middle" x="271.5" y="-61" font-family="Helvetica,sans-Serif" font-size="10.00">vector</text>
</a>
</g>
</g>
<!-- Node2&#45;&gt;Node4 -->
<g id="edge3" class="edge">
<title>Node2&#45;&gt;Node4</title>
<path fill="none" stroke="#63b8ff" d="M137.25,-171.22C143.77,-156.85 158.43,-128.17 178.5,-110.5 196.19,-94.93 220.28,-83.57 239.5,-76.21"/>
<polygon fill="#63b8ff" stroke="#63b8ff" points="240.41,-79.24 248.61,-72.53 238.02,-72.66 240.41,-79.24"/>
</g>
<!-- Node5 -->
<g id="node5" class="node">
<title>Node5</title>
<g id="a_node5"><a xlink:href="globals_8h.html" target="_top" xlink:title="Type definitions and global constants.">
<polygon fill="white" stroke="#666666" points="55,-129.75 0,-129.75 0,-110.5 55,-110.5 55,-129.75"/>
<text text-anchor="middle" x="27.5" y="-116.25" font-family="Helvetica,sans-Serif" font-size="10.00">globals.h</text>
</a>
</g>
</g>
<!-- Node2&#45;&gt;Node5 -->
<g id="edge4" class="edge">
<title>Node2&#45;&gt;Node5</title>
<path fill="none" stroke="#63b8ff" d="M117.4,-171.06C100.36,-161.59 73.21,-146.51 53.2,-135.4"/>
<polygon fill="#63b8ff" stroke="#63b8ff" points="55.19,-131.95 44.75,-130.15 51.79,-138.07 55.19,-131.95"/>
</g>
<!-- Node5&#45;&gt;Node3 -->
<g id="edge6" class="edge">
<title>Node5&#45;&gt;Node3</title>
<path fill="none" stroke="#63b8ff" d="M48.7,-110.09C68.88,-101.5 99.44,-88.48 122.19,-78.79"/>
<polygon fill="#63b8ff" stroke="#63b8ff" points="123.19,-81.74 131.02,-74.6 120.45,-75.3 123.19,-81.74"/>
</g>
<!-- Node6 -->
<g id="node6" class="node">
<title>Node6</title>
<g id="a_node6"><a xlink:title=" ">
<polygon fill="#e0e0e0" stroke="#999999" points="53.88,-74.5 1.12,-74.5 1.12,-55.25 53.88,-55.25 53.88,-74.5"/>
<text text-anchor="middle" x="27.5" y="-61" font-family="Helvetica,sans-Serif" font-size="10.00">complex</text>
</a>
</g>
</g>
<!-- Node5&#45;&gt;Node6 -->
<g id="edge5" class="edge">
<title>Node5&#45;&gt;Node6</title>
<path fill="none" stroke="#63b8ff" d="M27.5,-110.33C27.5,-103.67 27.5,-94.24 27.5,-85.78"/>
<polygon fill="#63b8ff" stroke="#63b8ff" points="31,-85.86 27.5,-75.86 24,-85.86 31,-85.86"/>
</g>
<!-- Node7&#45;&gt;Node3 -->
<g id="edge10" class="edge">
<title>Node7&#45;&gt;Node3</title>
<path fill="none" stroke="#63b8ff" d="M471.51,-113.73C401.69,-103.25 248.98,-80.35 183.41,-70.51"/>
<polygon fill="#63b8ff" stroke="#63b8ff" points="184.35,-66.96 173.94,-68.94 183.31,-73.89 184.35,-66.96"/>
</g>
<!-- Node7&#45;&gt;Node4 -->
<g id="edge11" class="edge">
<title>Node7&#45;&gt;Node4</title>
<path fill="none" stroke="#63b8ff" d="M471.4,-110.98C425.79,-100.69 347.96,-83.13 304.08,-73.23"/>
<polygon fill="#63b8ff" stroke="#63b8ff" points="304.96,-69.61 294.44,-70.82 303.42,-76.44 304.96,-69.61"/>
</g>
<!-- Node8 -->
<g id="node8" class="node">
<title>Node8</title>
<g id="a_node8"><a xlink:title=" ">
<polygon fill="#e0e0e0" stroke="#999999" points="501.38,-74.5 445.62,-74.5 445.62,-55.25 501.38,-55.25 501.38,-74.5"/>
<text text-anchor="middle" x="473.5" y="-61" font-family="Helvetica,sans-Serif" font-size="10.00">algorithm</text>
</a>
</g>
</g>
<!-- Node7&#45;&gt;Node8 -->
<g id="edge8" class="edge">
<title>Node7&#45;&gt;Node8</title>
<path fill="none" stroke="#63b8ff" d="M501.89,-110.33C497.34,-103.21 490.77,-92.93 485.1,-84.05"/>
<polygon fill="#63b8ff" stroke="#63b8ff" points="487.57,-82.4 479.24,-75.86 481.67,-86.17 487.57,-82.4"/>
</g>
<!-- Node9 -->
<g id="node9" class="node">
<title>Node9</title>
<g id="a_node9"><a xlink:title=" ">
<polygon fill="#e0e0e0" stroke="#999999" points="577.88,-74.5 519.12,-74.5 519.12,-55.25 577.88,-55.25 577.88,-74.5"/>
<text text-anchor="middle" x="548.5" y="-61" font-family="Helvetica,sans-Serif" font-size="10.00">stdexcept</text>
</a>
</g>
</g>
<!-- Node7&#45;&gt;Node9 -->
<g id="edge9" class="edge">
<title>Node7&#45;&gt;Node9</title>
<path fill="none" stroke="#63b8ff" d="M514.27,-110.33C519.87,-103.05 528.01,-92.48 534.95,-83.48"/>
<polygon fill="#63b8ff" stroke="#63b8ff" points="538.26,-85.92 541.58,-75.86 532.71,-81.65 538.26,-85.92"/>
</g>
<!-- Node10 -->
<g id="node10" class="node">
<title>Node10</title>
<g id="a_node10"><a xlink:title=" ">
<polygon fill="#e0e0e0" stroke="#999999" points="680.62,-74.5 596.38,-74.5 596.38,-55.25 680.62,-55.25 680.62,-74.5"/>
<text text-anchor="middle" x="638.5" y="-61" font-family="Helvetica,sans-Serif" font-size="10.00">spdlog/spdlog.h</text>
</a>
</g>
</g>
<!-- Node7&#45;&gt;Node10 -->
<g id="edge12" class="edge">
<title>Node7&#45;&gt;Node10</title>
<path fill="none" stroke="#63b8ff" d="M529.72,-110.09C550.71,-101.56 582.42,-88.67 606.19,-79.01"/>
<polygon fill="#63b8ff" stroke="#63b8ff" points="607.22,-81.96 615.17,-74.95 604.59,-75.48 607.22,-81.96"/>
</g>
<!-- Node11 -->
<g id="node11" class="node">
<title>Node11</title>
<g id="a_node11"><a xlink:href="mat__io_8h.html" target="_top" xlink:title="Includes MATLAB headers for I/O.">
<polygon fill="white" stroke="#666666" points="427.25,-74.5 373.75,-74.5 373.75,-55.25 427.25,-55.25 427.25,-74.5"/>
<text text-anchor="middle" x="400.5" y="-61" font-family="Helvetica,sans-Serif" font-size="10.00">mat_io.h</text>
</a>
</g>
</g>
<!-- Node7&#45;&gt;Node11 -->
<g id="edge13" class="edge">
<title>Node7&#45;&gt;Node11</title>
<path fill="none" stroke="#63b8ff" d="M489.35,-110.09C472.67,-101.79 447.7,-89.36 428.47,-79.79"/>
<polygon fill="#63b8ff" stroke="#63b8ff" points="430.25,-76.27 419.74,-74.95 427.13,-82.54 430.25,-76.27"/>
</g>
<!-- Node12 -->
<g id="node12" class="node">
<title>Node12</title>
<g id="a_node12"><a xlink:title=" ">
<polygon fill="#e0e0e0" stroke="#999999" points="356.88,-19.25 316.12,-19.25 316.12,0 356.88,0 356.88,-19.25"/>
<text text-anchor="middle" x="336.5" y="-5.75" font-family="Helvetica,sans-Serif" font-size="10.00">mat.h</text>
</a>
</g>
</g>
<!-- Node11&#45;&gt;Node12 -->
<g id="edge14" class="edge">
<title>Node11&#45;&gt;Node12</title>
<path fill="none" stroke="#63b8ff" d="M389.64,-54.84C380.3,-47.07 366.61,-35.67 355.46,-26.4"/>
<polygon fill="#63b8ff" stroke="#63b8ff" points="358.12,-23.23 348.2,-19.52 353.64,-28.61 358.12,-23.23"/>
</g>
<!-- Node13 -->
<g id="node13" class="node">
<title>Node13</title>
<g id="a_node13"><a xlink:title=" ">
<polygon fill="#e0e0e0" stroke="#999999" points="426.12,-19.25 374.88,-19.25 374.88,0 426.12,0 426.12,-19.25"/>
<text text-anchor="middle" x="400.5" y="-5.75" font-family="Helvetica,sans-Serif" font-size="10.00">matrix.h</text>
</a>
</g>
</g>
<!-- Node11&#45;&gt;Node13 -->
<g id="edge15" class="edge">
<title>Node11&#45;&gt;Node13</title>
<path fill="none" stroke="#63b8ff" d="M400.5,-55.08C400.5,-48.42 400.5,-38.99 400.5,-30.53"/>
<polygon fill="#63b8ff" stroke="#63b8ff" points="404,-30.61 400.5,-20.61 397,-30.61 404,-30.61"/>
</g>
<!-- Node14 -->
<g id="node14" class="node">
<title>Node14</title>
<g id="a_node14"><a xlink:title=" ">
<polygon fill="#e0e0e0" stroke="#999999" points="487,-19.25 444,-19.25 444,0 487,0 487,-19.25"/>
<text text-anchor="middle" x="465.5" y="-5.75" font-family="Helvetica,sans-Serif" font-size="10.00">mex.h</text>
</a>
</g>
</g>
<!-- Node11&#45;&gt;Node14 -->
<g id="edge16" class="edge">
<title>Node11&#45;&gt;Node14</title>
<path fill="none" stroke="#63b8ff" d="M411.53,-54.84C421.01,-47.07 434.92,-35.67 446.25,-26.4"/>
<polygon fill="#63b8ff" stroke="#63b8ff" points="448.12,-28.57 453.64,-19.52 443.68,-23.15 448.12,-28.57"/>
</g>
<!-- Node15&#45;&gt;Node3 -->
<g id="edge18" class="edge">
<title>Node15&#45;&gt;Node3</title>
<path fill="none" stroke="#63b8ff" d="M242.52,-170.98C222.65,-162.91 195.81,-149.32 178.5,-129.75 167.34,-117.12 160.59,-99.07 156.78,-85.38"/>
<polygon fill="#63b8ff" stroke="#63b8ff" points="159.94,-84.58 154.14,-75.71 153.14,-86.26 159.94,-84.58"/>
</g>
<!-- Node15&#45;&gt;Node11 -->
<g id="edge22" class="edge">
<title>Node15&#45;&gt;Node11</title>
<path fill="none" stroke="#63b8ff" d="M304.02,-170.92C347.76,-159.37 417.21,-139.75 424.5,-129.75 434.7,-115.75 425.41,-96.9 415.58,-83.31"/>
<polygon fill="#63b8ff" stroke="#63b8ff" points="417.85,-81.54 408.91,-75.86 412.36,-85.88 417.85,-81.54"/>
</g>
<!-- Node16 -->
<g id="node16" class="node">
<title>Node16</title>
<g id="a_node16"><a xlink:href="input__output__names_8h.html" target="_top" xlink:title="Constant values associated with the format of the input and output files and matrices.">
<polygon fill="white" stroke="#666666" points="299.5,-129.75 187.5,-129.75 187.5,-110.5 299.5,-110.5 299.5,-129.75"/>
<text text-anchor="middle" x="243.5" y="-116.25" font-family="Helvetica,sans-Serif" font-size="10.00">input_output_names.h</text>
</a>
</g>
</g>
<!-- Node15&#45;&gt;Node16 -->
<g id="edge19" class="edge">
<title>Node15&#45;&gt;Node16</title>
<path fill="none" stroke="#63b8ff" d="M264.7,-171.06C261.22,-162.85 255.93,-150.41 251.51,-140"/>
<polygon fill="#63b8ff" stroke="#63b8ff" points="254.46,-138.99 247.33,-131.15 248.02,-141.72 254.46,-138.99"/>
</g>
<!-- Node17 -->
<g id="node17" class="node">
<title>Node17</title>
<g id="a_node17"><a xlink:href="matrix__collection_8h.html" target="_top" xlink:title="A collection of named MATLAB matrices.">
<polygon fill="white" stroke="#666666" points="415.38,-129.75 317.62,-129.75 317.62,-110.5 415.38,-110.5 415.38,-129.75"/>
<text text-anchor="middle" x="366.5" y="-116.25" font-family="Helvetica,sans-Serif" font-size="10.00">matrix_collection.h</text>
</a>
</g>
</g>
<!-- Node15&#45;&gt;Node17 -->
<g id="edge23" class="edge">
<title>Node15&#45;&gt;Node17</title>
<path fill="none" stroke="#63b8ff" d="M283.38,-171.06C299,-161.68 323.79,-146.79 342.23,-135.7"/>
<polygon fill="#63b8ff" stroke="#63b8ff" points="343.71,-138.3 350.48,-130.15 340.1,-132.3 343.71,-138.3"/>
</g>
<!-- Node16&#45;&gt;Node3 -->
<g id="edge20" class="edge">
<title>Node16&#45;&gt;Node3</title>
<path fill="none" stroke="#63b8ff" d="M228.06,-110.09C214.21,-101.98 193.61,-89.93 177.42,-80.46"/>
<polygon fill="#63b8ff" stroke="#63b8ff" points="179.41,-76.98 169.01,-74.95 175.88,-83.02 179.41,-76.98"/>
</g>
<!-- Node16&#45;&gt;Node4 -->
<g id="edge21" class="edge">
<title>Node16&#45;&gt;Node4</title>
<path fill="none" stroke="#63b8ff" d="M248.12,-110.33C251.83,-103.28 257.16,-93.15 261.79,-84.33"/>
<polygon fill="#63b8ff" stroke="#63b8ff" points="265.22,-86.34 266.78,-75.86 259.02,-83.08 265.22,-86.34"/>
</g>
<!-- Node17&#45;&gt;Node3 -->
<g id="edge24" class="edge">
<title>Node17&#45;&gt;Node3</title>
<path fill="none" stroke="#63b8ff" d="M330.2,-110.09C288.95,-99.83 222.35,-83.26 183.46,-73.58"/>
<polygon fill="#63b8ff" stroke="#63b8ff" points="184.36,-69.95 173.81,-70.93 182.67,-76.74 184.36,-69.95"/>
</g>
<!-- Node17&#45;&gt;Node4 -->
<g id="edge25" class="edge">
<title>Node17&#45;&gt;Node4</title>
<path fill="none" stroke="#63b8ff" d="M350.38,-110.09C335.78,-101.91 314.01,-89.71 297.04,-80.19"/>
<polygon fill="#63b8ff" stroke="#63b8ff" points="299.13,-76.79 288.69,-74.95 295.71,-82.9 299.13,-76.79"/>
</g>
<!-- Node17&#45;&gt;Node11 -->
<g id="edge26" class="edge">
<title>Node17&#45;&gt;Node11</title>
<path fill="none" stroke="#63b8ff" d="M372.11,-110.33C376.66,-103.21 383.23,-92.93 388.9,-84.05"/>
<polygon fill="#63b8ff" stroke="#63b8ff" points="392.33,-86.17 394.76,-75.86 386.43,-82.4 392.33,-86.17"/>
</g>
</g>
</svg>
