<?xml version="1.0" encoding="UTF-8" standalone="no"?>
<!DOCTYPE svg PUBLIC "-//W3C//DTD SVG 1.1//EN"
 "http://www.w3.org/Graphics/SVG/1.1/DTD/svg11.dtd">
<!-- Generated by graphviz version 8.0.5 (20230430.1635)
 -->
<!-- Title: tdms/include/mat_io.h Pages: 1 -->
<svg width="1025pt" height="415pt"
 viewBox="0.00 0.00 1025.12 415.00" xmlns="http://www.w3.org/2000/svg" xmlns:xlink="http://www.w3.org/1999/xlink">
<g id="graph0" class="graph" transform="scale(1 1) rotate(0) translate(4 411)">
<title>tdms/include/mat_io.h</title>
<!-- Node1 -->
<g id="node1" class="node">
<title>Node1</title>
<g id="a_node1"><a xlink:title="Includes MATLAB headers for I/O.">
<polygon fill="#999999" stroke="#666666" points="495.12,-407 383.12,-407 383.12,-387.75 495.12,-387.75 495.12,-407"/>
<text text-anchor="middle" x="439.12" y="-393.5" font-family="Helvetica,sans-Serif" font-size="10.00">tdms/include/mat_io.h</text>
</a>
</g>
</g>
<!-- Node2 -->
<g id="node2" class="node">
<title>Node2</title>
<g id="a_node2"><a xlink:href="array__init_8h.html" target="_top" xlink:title="A collection of functions for array initialisation given MATLAB pointers.">
<polygon fill="white" stroke="#666666" points="96.25,-97 0,-97 0,-66.5 96.25,-66.5 96.25,-97"/>
<text text-anchor="start" x="8" y="-83.5" font-family="Helvetica,sans-Serif" font-size="10.00">tdms/include/array</text>
<text text-anchor="middle" x="48.12" y="-72.25" font-family="Helvetica,sans-Serif" font-size="10.00">_init.h</text>
</a>
</g>
</g>
<!-- Node1&#45;&gt;Node2 -->
<g id="edge1" class="edge">
<title>Node1&#45;&gt;Node2</title>
<path fill="none" stroke="#63b8ff" d="M371.84,-390.4C252.72,-377.95 17.12,-344.1 17.12,-271 17.12,-271 17.12,-271 17.12,-202.5 17.12,-163.42 32.79,-119.38 41.85,-97.19"/>
<polygon fill="#63b8ff" stroke="#63b8ff" points="371.35,-393.97 381.65,-391.51 372.06,-387.01 371.35,-393.97"/>
</g>
<!-- Node3 -->
<g id="node3" class="node">
<title>Node3</title>
<g id="a_node3"><a xlink:href="dimensions_8h.html" target="_top" xlink:title="Defines a class that serves as an explicit converter between MATLAB pointers and array dimensions.">
<polygon fill="white" stroke="#666666" points="177.25,-279.62 45,-279.62 45,-260.38 177.25,-260.38 177.25,-279.62"/>
<text text-anchor="middle" x="111.12" y="-266.12" font-family="Helvetica,sans-Serif" font-size="10.00">tdms/include/dimensions.h</text>
</a>
</g>
</g>
<!-- Node1&#45;&gt;Node3 -->
<g id="edge2" class="edge">
<title>Node1&#45;&gt;Node3</title>
<path fill="none" stroke="#63b8ff" d="M372.04,-395.18C320.01,-391.76 247.52,-381.4 191.12,-351.75 157.41,-334.03 129.06,-297.13 117.15,-280.04"/>
<polygon fill="#63b8ff" stroke="#63b8ff" points="371.63,-398.72 381.81,-395.81 372.04,-391.73 371.63,-398.72"/>
</g>
<!-- Node4 -->
<g id="node4" class="node">
<title>Node4</title>
<g id="a_node4"><a xlink:href="field_8h.html" target="_top" xlink:title="Classes for the electric and magnetic (split) fields on a grid.">
<polygon fill="white" stroke="#666666" points="217.5,-152.25 116.75,-152.25 116.75,-133 217.5,-133 217.5,-152.25"/>
<text text-anchor="middle" x="167.12" y="-138.75" font-family="Helvetica,sans-Serif" font-size="10.00">tdms/include/field.h</text>
</a>
</g>
</g>
<!-- Node1&#45;&gt;Node4 -->
<g id="edge11" class="edge">
<title>Node1&#45;&gt;Node4</title>
<path fill="none" stroke="#63b8ff" d="M372.03,-390.77C336.81,-385.17 294.4,-374.01 262.12,-351.75 232.44,-331.27 180.42,-253 169.12,-218.75 161.61,-195.95 163.86,-167.12 165.73,-152.7"/>
<polygon fill="#63b8ff" stroke="#63b8ff" points="371.3,-394.35 381.71,-392.34 372.32,-387.42 371.3,-394.35"/>
</g>
<!-- Node10 -->
<g id="node10" class="node">
<title>Node10</title>
<g id="a_node10"><a xlink:href="fdtd__grid__initialiser_8h.html" target="_top" xlink:title="Initialisation of the FDTD grid.">
<polygon fill="white" stroke="#666666" points="617.12,-351.75 505.12,-351.75 505.12,-321.25 617.12,-321.25 617.12,-351.75"/>
<text text-anchor="start" x="513.12" y="-338.25" font-family="Helvetica,sans-Serif" font-size="10.00">tdms/include/fdtd_grid</text>
<text text-anchor="middle" x="561.12" y="-327" font-family="Helvetica,sans-Serif" font-size="10.00">_initialiser.h</text>
</a>
</g>
</g>
<!-- Node1&#45;&gt;Node10 -->
<g id="edge10" class="edge">
<title>Node1&#45;&gt;Node10</title>
<path fill="none" stroke="#63b8ff" d="M467.75,-382.56C486.66,-373.44 511.41,-361.49 530.67,-352.19"/>
<polygon fill="#63b8ff" stroke="#63b8ff" points="466.41,-379.81 458.92,-387.3 469.45,-386.11 466.41,-379.81"/>
</g>
<!-- Node11 -->
<g id="node11" class="node">
<title>Node11</title>
<g id="a_node11"><a xlink:href="grid__labels_8h.html" target="_top" xlink:title="Class to hold the labels of a Yee cell.">
<polygon fill="white" stroke="#666666" points="553.75,-152.25 424.5,-152.25 424.5,-133 553.75,-133 553.75,-152.25"/>
<text text-anchor="middle" x="489.12" y="-138.75" font-family="Helvetica,sans-Serif" font-size="10.00">tdms/include/grid_labels.h</text>
</a>
</g>
</g>
<!-- Node1&#45;&gt;Node11 -->
<g id="edge12" class="edge">
<title>Node1&#45;&gt;Node11</title>
<path fill="none" stroke="#63b8ff" d="M445.72,-377.31C448.27,-369.46 451.07,-360.23 453.12,-351.75 471.6,-275.48 484.34,-181.29 488.03,-152.43"/>
<polygon fill="#63b8ff" stroke="#63b8ff" points="442.13,-375.99 442.26,-386.58 448.77,-378.22 442.13,-375.99"/>
</g>
<!-- Node12 -->
<g id="node12" class="node">
<title>Node12</title>
<g id="a_node12"><a xlink:href="input__matrices_8h.html" target="_top" xlink:title="Class handling the input matrices that are read in from the input file.">
<polygon fill="white" stroke="#666666" points="384.88,-285.25 289.38,-285.25 289.38,-254.75 384.88,-254.75 384.88,-285.25"/>
<text text-anchor="start" x="297.38" y="-271.75" font-family="Helvetica,sans-Serif" font-size="10.00">tdms/include/input</text>
<text text-anchor="middle" x="337.12" y="-260.5" font-family="Helvetica,sans-Serif" font-size="10.00">_matrices.h</text>
</a>
</g>
</g>
<!-- Node1&#45;&gt;Node12 -->
<g id="edge15" class="edge">
<title>Node1&#45;&gt;Node12</title>
<path fill="none" stroke="#63b8ff" d="M426.47,-378.87C415.17,-363.45 398,-340.49 382.12,-321.25 371.99,-308.96 359.92,-295.55 350.84,-285.67"/>
<polygon fill="#63b8ff" stroke="#63b8ff" points="423.97,-380.38 432.68,-386.4 429.63,-376.26 423.97,-380.38"/>
</g>
<!-- Node14 -->
<g id="node14" class="node">
<title>Node14</title>
<g id="a_node14"><a xlink:href="mesh__base_8h.html" target="_top" xlink:title="Generation of orientated mesh.">
<polygon fill="white" stroke="#666666" points="406.62,-152.25 273.62,-152.25 273.62,-133 406.62,-133 406.62,-152.25"/>
<text text-anchor="middle" x="340.12" y="-138.75" font-family="Helvetica,sans-Serif" font-size="10.00">tdms/include/mesh_base.h</text>
</a>
</g>
</g>
<!-- Node1&#45;&gt;Node14 -->
<g id="edge24" class="edge">
<title>Node1&#45;&gt;Node14</title>
<path fill="none" stroke="#63b8ff" d="M442.94,-376.86C449.5,-337.58 458.76,-247.67 420.12,-188.25 408.77,-170.78 388.09,-159.51 370.6,-152.66"/>
<polygon fill="#63b8ff" stroke="#63b8ff" points="439.34,-376.07 441.01,-386.53 446.23,-377.31 439.34,-376.07"/>
</g>
<!-- Node16 -->
<g id="node16" class="node">
<title>Node16</title>
<g id="a_node16"><a xlink:href="interface_8h.html" target="_top" xlink:title=" ">
<polygon fill="white" stroke="#666666" points="755.25,-346.12 635,-346.12 635,-326.88 755.25,-326.88 755.25,-346.12"/>
<text text-anchor="middle" x="695.12" y="-332.62" font-family="Helvetica,sans-Serif" font-size="10.00">tdms/include/interface.h</text>
</a>
</g>
</g>
<!-- Node1&#45;&gt;Node16 -->
<g id="edge21" class="edge">
<title>Node1&#45;&gt;Node16</title>
<path fill="none" stroke="#63b8ff" d="M489.17,-384.86C537.88,-373.66 610.9,-356.87 655.64,-346.58"/>
<polygon fill="#63b8ff" stroke="#63b8ff" points="488.53,-381.65 479.56,-387.3 490.09,-388.47 488.53,-381.65"/>
</g>
<!-- Node17 -->
<g id="node17" class="node">
<title>Node17</title>
<g id="a_node17"><a xlink:href="matrix__collection_8h.html" target="_top" xlink:title="A collection of named MATLAB matrices.">
<polygon fill="white" stroke="#666666" points="372.88,-351.75 271.38,-351.75 271.38,-321.25 372.88,-321.25 372.88,-351.75"/>
<text text-anchor="start" x="279.38" y="-338.25" font-family="Helvetica,sans-Serif" font-size="10.00">tdms/include/matrix</text>
<text text-anchor="middle" x="322.12" y="-327" font-family="Helvetica,sans-Serif" font-size="10.00">_collection.h</text>
</a>
</g>
</g>
<!-- Node1&#45;&gt;Node17 -->
<g id="edge22" class="edge">
<title>Node1&#45;&gt;Node17</title>
<path fill="none" stroke="#63b8ff" d="M411.42,-382.43C393.32,-373.33 369.72,-361.45 351.33,-352.19"/>
<polygon fill="#63b8ff" stroke="#63b8ff" points="409.59,-385.94 420.1,-387.3 412.74,-379.68 409.59,-385.94"/>
</g>
<!-- Node18 -->
<g id="node18" class="node">
<title>Node18</title>
<g id="a_node18"><a xlink:href="shapes_8h_source.html" target="_top" xlink:title=" ">
<polygon fill="white" stroke="#666666" points="887.25,-346.12 773,-346.12 773,-326.88 887.25,-326.88 887.25,-346.12"/>
<text text-anchor="middle" x="830.12" y="-332.62" font-family="Helvetica,sans-Serif" font-size="10.00">tdms/include/shapes.h</text>
</a>
</g>
</g>
<!-- Node1&#45;&gt;Node18 -->
<g id="edge25" class="edge">
<title>Node1&#45;&gt;Node18</title>
<path fill="none" stroke="#63b8ff" d="M506.04,-388.7C571.92,-380.79 675.27,-367.42 764.12,-351.75 772.67,-350.24 781.79,-348.42 790.43,-346.58"/>
<polygon fill="#63b8ff" stroke="#63b8ff" points="505.92,-385.31 496.4,-389.97 506.75,-392.26 505.92,-385.31"/>
</g>
<!-- Node19 -->
<g id="node19" class="node">
<title>Node19</title>
<g id="a_node19"><a xlink:href="source_8h.html" target="_top" xlink:title=" ">
<polygon fill="white" stroke="#666666" points="1017.12,-346.12 905.12,-346.12 905.12,-326.88 1017.12,-326.88 1017.12,-346.12"/>
<text text-anchor="middle" x="961.12" y="-332.62" font-family="Helvetica,sans-Serif" font-size="10.00">tdms/include/source.h</text>
</a>
</g>
</g>
<!-- Node1&#45;&gt;Node19 -->
<g id="edge26" class="edge">
<title>Node1&#45;&gt;Node19</title>
<path fill="none" stroke="#63b8ff" d="M506.11,-392.33C595.46,-386.36 758.36,-373.5 896.12,-351.75 904.91,-350.36 914.29,-348.52 923.12,-346.62"/>
<polygon fill="#63b8ff" stroke="#63b8ff" points="506.07,-388.89 496.33,-393.04 506.53,-395.87 506.07,-388.89"/>
</g>
<!-- Node3&#45;&gt;Node4 -->
<g id="edge3" class="edge">
<title>Node3&#45;&gt;Node4</title>
<path fill="none" stroke="#63b8ff" d="M115,-249.49C118.78,-232.7 125.39,-208.12 135.12,-188.25 141.67,-174.89 152.12,-161.24 159.29,-152.62"/>
<polygon fill="#63b8ff" stroke="#63b8ff" points="111.39,-248.65 112.75,-259.16 118.24,-250.1 111.39,-248.65"/>
</g>
<!-- Node4&#45;&gt;Node2 -->
<g id="edge4" class="edge">
<title>Node4&#45;&gt;Node2</title>
<path fill="none" stroke="#63b8ff" d="M138.95,-127.68C120.54,-118.58 96.53,-106.7 77.83,-97.44"/>
<polygon fill="#63b8ff" stroke="#63b8ff" points="137.28,-131.26 147.79,-132.55 140.38,-124.98 137.28,-131.26"/>
</g>
<!-- Node5 -->
<g id="node5" class="node">
<title>Node5</title>
<g id="a_node5"><a xlink:href="fieldsample_8h.html" target="_top" xlink:title="Class that stores the extracted field values at user&#45;defined vertices.">
<polygon fill="white" stroke="#666666" points="265.25,-91.38 133,-91.38 133,-72.12 265.25,-72.12 265.25,-91.38"/>
<text text-anchor="middle" x="199.12" y="-77.88" font-family="Helvetica,sans-Serif" font-size="10.00">tdms/include/fieldsample.h</text>
</a>
</g>
</g>
<!-- Node4&#45;&gt;Node5 -->
<g id="edge5" class="edge">
<title>Node4&#45;&gt;Node5</title>
<path fill="none" stroke="#63b8ff" d="M177.15,-123.18C182.83,-112.73 189.69,-100.1 194.22,-91.78"/>
<polygon fill="#63b8ff" stroke="#63b8ff" points="173.69,-121.23 171.99,-131.68 179.84,-124.57 173.69,-121.23"/>
</g>
<!-- Node7 -->
<g id="node7" class="node">
<title>Node7</title>
<g id="a_node7"><a xlink:href="surface__phasors_8h.html" target="_top" xlink:title="Contains a class that handles the complex amplitude extraction.">
<polygon fill="white" stroke="#666666" points="533.5,-97 426.75,-97 426.75,-66.5 533.5,-66.5 533.5,-97"/>
<text text-anchor="start" x="434.75" y="-83.5" font-family="Helvetica,sans-Serif" font-size="10.00">tdms/include/surface</text>
<text text-anchor="middle" x="480.12" y="-72.25" font-family="Helvetica,sans-Serif" font-size="10.00">_phasors.h</text>
</a>
</g>
</g>
<!-- Node4&#45;&gt;Node7 -->
<g id="edge7" class="edge">
<title>Node4&#45;&gt;Node7</title>
<path fill="none" stroke="#63b8ff" d="M228.68,-130.66C277.84,-121.82 348.46,-108.94 410.12,-97 415.36,-95.99 420.81,-94.91 426.26,-93.82"/>
<polygon fill="#63b8ff" stroke="#63b8ff" points="228.13,-127.38 218.91,-132.59 229.37,-134.27 228.13,-127.38"/>
</g>
<!-- Node8 -->
<g id="node8" class="node">
<title>Node8</title>
<g id="a_node8"><a xlink:href="vertex__phasors_8h.html" target="_top" xlink:title="Contains a class that handles the complex amplitude extraction at the vertices.">
<polygon fill="white" stroke="#666666" points="400.88,-97 299.38,-97 299.38,-66.5 400.88,-66.5 400.88,-97"/>
<text text-anchor="start" x="307.38" y="-83.5" font-family="Helvetica,sans-Serif" font-size="10.00">tdms/include/vertex</text>
<text text-anchor="middle" x="350.12" y="-72.25" font-family="Helvetica,sans-Serif" font-size="10.00">_phasors.h</text>
</a>
</g>
</g>
<!-- Node4&#45;&gt;Node8 -->
<g id="edge8" class="edge">
<title>Node4&#45;&gt;Node8</title>
<path fill="none" stroke="#63b8ff" d="M205.42,-129.3C234.27,-120.02 273.94,-107.26 304.45,-97.44"/>
<polygon fill="#63b8ff" stroke="#63b8ff" points="204.77,-126.16 196.32,-132.55 206.91,-132.82 204.77,-126.16"/>
</g>
<!-- Node6 -->
<g id="node6" class="node">
<title>Node6</title>
<g id="a_node6"><a xlink:href="test___field_sample_8cpp.html" target="_top" xlink:title="Unit tests for the FieldSample class and its subclasses.">
<polygon fill="white" stroke="#666666" points="249.5,-30.5 148.75,-30.5 148.75,0 249.5,0 249.5,-30.5"/>
<text text-anchor="start" x="156.75" y="-17" font-family="Helvetica,sans-Serif" font-size="10.00">tdms/tests/unit/test</text>
<text text-anchor="middle" x="199.12" y="-5.75" font-family="Helvetica,sans-Serif" font-size="10.00">_FieldSample.cpp</text>
</a>
</g>
</g>
<!-- Node5&#45;&gt;Node6 -->
<g id="edge6" class="edge">
<title>Node5&#45;&gt;Node6</title>
<path fill="none" stroke="#63b8ff" d="M199.12,-61.02C199.12,-51.2 199.12,-39.55 199.12,-30.59"/>
<polygon fill="#63b8ff" stroke="#63b8ff" points="195.63,-60.78 199.12,-70.78 202.63,-60.78 195.63,-60.78"/>
</g>
<!-- Node9 -->
<g id="node9" class="node">
<title>Node9</title>
<g id="a_node9"><a xlink:href="test___vertex_phasors_8cpp.html" target="_top" xlink:title="Unit tests for the VertexPhasors class.">
<polygon fill="white" stroke="#666666" points="402.38,-30.5 297.88,-30.5 297.88,0 402.38,0 402.38,-30.5"/>
<text text-anchor="start" x="305.88" y="-17" font-family="Helvetica,sans-Serif" font-size="10.00">tdms/tests/unit/test</text>
<text text-anchor="middle" x="350.12" y="-5.75" font-family="Helvetica,sans-Serif" font-size="10.00">_VertexPhasors.cpp</text>
</a>
</g>
</g>
<!-- Node8&#45;&gt;Node9 -->
<g id="edge9" class="edge">
<title>Node8&#45;&gt;Node9</title>
<path fill="none" stroke="#63b8ff" d="M350.12,-55.38C350.12,-47.05 350.12,-38.08 350.12,-30.83"/>
<polygon fill="#63b8ff" stroke="#63b8ff" points="346.63,-55.11 350.12,-65.11 353.63,-55.11 346.63,-55.11"/>
</g>
<!-- Node11&#45;&gt;Node7 -->
<g id="edge13" class="edge">
<title>Node11&#45;&gt;Node7</title>
<path fill="none" stroke="#63b8ff" d="M486.12,-121.98C484.89,-113.91 483.49,-104.73 482.35,-97.28"/>
<polygon fill="#63b8ff" stroke="#63b8ff" points="482.79,-122.33 487.76,-131.68 489.71,-121.27 482.79,-122.33"/>
</g>
<!-- Node11&#45;&gt;Node8 -->
<g id="edge14" class="edge">
<title>Node11&#45;&gt;Node8</title>
<path fill="none" stroke="#63b8ff" d="M457.7,-128.31C436.02,-119.13 407.18,-106.92 384.82,-97.44"/>
<polygon fill="#63b8ff" stroke="#63b8ff" points="456.14,-131.88 466.71,-132.55 458.87,-125.43 456.14,-131.88"/>
</g>
<!-- Node13 -->
<g id="node13" class="node">
<title>Node13</title>
<g id="a_node13"><a xlink:href="simulation__parameters_8h.html" target="_top" xlink:title="Classes collecting parameters for the simulation.">
<polygon fill="white" stroke="#666666" points="411.5,-218.75 292.75,-218.75 292.75,-188.25 411.5,-188.25 411.5,-218.75"/>
<text text-anchor="start" x="300.75" y="-205.25" font-family="Helvetica,sans-Serif" font-size="10.00">tdms/include/simulation</text>
<text text-anchor="middle" x="352.12" y="-194" font-family="Helvetica,sans-Serif" font-size="10.00">_parameters.h</text>
</a>
</g>
</g>
<!-- Node12&#45;&gt;Node13 -->
<g id="edge16" class="edge">
<title>Node12&#45;&gt;Node13</title>
<path fill="none" stroke="#63b8ff" d="M342.96,-243.91C344.92,-235.5 347.03,-226.41 348.73,-219.08"/>
<polygon fill="#63b8ff" stroke="#63b8ff" points="339.38,-242.83 340.53,-253.36 346.2,-244.42 339.38,-242.83"/>
</g>
<!-- Node15 -->
<g id="node15" class="node">
<title>Node15</title>
<g id="a_node15"><a xlink:href="main_8cpp.html" target="_top" xlink:title="The main function. Launches TDMS.">
<polygon fill="white" stroke="#666666" points="274.62,-213.12 177.62,-213.12 177.62,-193.88 274.62,-193.88 274.62,-213.12"/>
<text text-anchor="middle" x="226.12" y="-199.62" font-family="Helvetica,sans-Serif" font-size="10.00">tdms/src/main.cpp</text>
</a>
</g>
</g>
<!-- Node12&#45;&gt;Node15 -->
<g id="edge20" class="edge">
<title>Node12&#45;&gt;Node15</title>
<path fill="none" stroke="#63b8ff" d="M302.63,-248.95C282.21,-237.09 257.35,-222.65 241.63,-213.51"/>
<polygon fill="#63b8ff" stroke="#63b8ff" points="300.53,-252.37 310.94,-254.36 304.05,-246.31 300.53,-252.37"/>
</g>
<!-- Node13&#45;&gt;Node4 -->
<g id="edge17" class="edge">
<title>Node13&#45;&gt;Node4</title>
<path fill="none" stroke="#63b8ff" d="M295.49,-184.47C262.49,-173.97 222.29,-161.18 195.77,-152.74"/>
<polygon fill="#63b8ff" stroke="#63b8ff" points="294.33,-188.1 304.92,-187.8 296.45,-181.43 294.33,-188.1"/>
</g>
<!-- Node13&#45;&gt;Node5 -->
<g id="edge18" class="edge">
<title>Node13&#45;&gt;Node5</title>
<path fill="none" stroke="#63b8ff" d="M312.84,-182.95C297.33,-174.44 279.76,-163.78 265.12,-152.25 241.08,-133.3 217.5,-105.69 206.14,-91.65"/>
<polygon fill="#63b8ff" stroke="#63b8ff" points="310.71,-186.32 321.18,-187.95 314.02,-180.15 310.71,-186.32"/>
</g>
<!-- Node13&#45;&gt;Node14 -->
<g id="edge19" class="edge">
<title>Node13&#45;&gt;Node14</title>
<path fill="none" stroke="#63b8ff" d="M347,-177.36C345.21,-168.59 343.32,-159.31 341.97,-152.7"/>
<polygon fill="#63b8ff" stroke="#63b8ff" points="343.73,-177.85 349.16,-186.95 350.59,-176.45 343.73,-177.85"/>
</g>
<!-- Node17&#45;&gt;Node12 -->
<g id="edge23" class="edge">
<title>Node17&#45;&gt;Node12</title>
<path fill="none" stroke="#63b8ff" d="M327.96,-310.41C329.92,-302 332.03,-292.91 333.73,-285.58"/>
<polygon fill="#63b8ff" stroke="#63b8ff" points="324.38,-309.33 325.53,-319.86 331.2,-310.92 324.38,-309.33"/>
</g>
</g>
</svg>
