<?xml version="1.0" encoding="UTF-8" standalone="no"?>
<!DOCTYPE svg PUBLIC "-//W3C//DTD SVG 1.1//EN"
 "http://www.w3.org/Graphics/SVG/1.1/DTD/svg11.dtd">
<!-- Generated by graphviz version 8.0.5 (20230430.1635)
 -->
<!-- Title: tdms/include/mat_io.h Pages: 1 -->
<svg width="1242pt" height="426pt"
 viewBox="0.00 0.00 1242.12 426.25" xmlns="http://www.w3.org/2000/svg" xmlns:xlink="http://www.w3.org/1999/xlink">
<g id="graph0" class="graph" transform="scale(1 1) rotate(0) translate(4 422.25)">
<title>tdms/include/mat_io.h</title>
<!-- Node1 -->
<g id="node1" class="node">
<title>Node1</title>
<g id="a_node1"><a xlink:title="Includes MATLAB headers for I/O.">
<polygon fill="#999999" stroke="#666666" points="544.12,-418.25 432.12,-418.25 432.12,-399 544.12,-399 544.12,-418.25"/>
<text text-anchor="middle" x="488.12" y="-404.75" font-family="Helvetica,sans-Serif" font-size="10.00">tdms/include/mat_io.h</text>
</a>
</g>
</g>
<!-- Node2 -->
<g id="node2" class="node">
<title>Node2</title>
<g id="a_node2"><a xlink:href="array__init_8h.html" target="_top" xlink:title="A collection of functions for array initialisation given MATLAB pointers.">
<polygon fill="white" stroke="#666666" points="96.25,-97 0,-97 0,-66.5 96.25,-66.5 96.25,-97"/>
<text text-anchor="start" x="8" y="-83.5" font-family="Helvetica,sans-Serif" font-size="10.00">tdms/include/array</text>
<text text-anchor="middle" x="48.12" y="-72.25" font-family="Helvetica,sans-Serif" font-size="10.00">_init.h</text>
</a>
</g>
</g>
<!-- Node1&#45;&gt;Node2 -->
<g id="edge1" class="edge">
<title>Node1&#45;&gt;Node2</title>
<path fill="none" stroke="#63b8ff" d="M420.91,-403.31C293.21,-393.25 28.12,-362.68 28.12,-282.25 28.12,-282.25 28.12,-282.25 28.12,-213.75 28.12,-170.96 38.68,-121.19 44.46,-97.18"/>
<polygon fill="#63b8ff" stroke="#63b8ff" points="420.48,-406.86 430.72,-404.13 421.02,-399.88 420.48,-406.86"/>
</g>
<!-- Node3 -->
<g id="node3" class="node">
<title>Node3</title>
<g id="a_node3"><a xlink:href="dimensions_8h.html" target="_top" xlink:title="Defines a class that serves as an explicit converter between MATLAB pointers and array dimensions.">
<polygon fill="white" stroke="#666666" points="188.25,-290.88 56,-290.88 56,-271.62 188.25,-271.62 188.25,-290.88"/>
<text text-anchor="middle" x="122.12" y="-277.38" font-family="Helvetica,sans-Serif" font-size="10.00">tdms/include/dimensions.h</text>
</a>
</g>
</g>
<!-- Node1&#45;&gt;Node3 -->
<g id="edge2" class="edge">
<title>Node1&#45;&gt;Node3</title>
<path fill="none" stroke="#63b8ff" d="M420.99,-402.02C348.78,-395.14 239.32,-382.01 202.12,-363 168.21,-345.67 139.96,-308.57 128.11,-291.37"/>
<polygon fill="#63b8ff" stroke="#63b8ff" points="420.52,-405.59 430.8,-403.03 421.17,-398.62 420.52,-405.59"/>
</g>
<!-- Node4 -->
<g id="node4" class="node">
<title>Node4</title>
<g id="a_node4"><a xlink:href="field_8h.html" target="_top" xlink:title="Classes for the electric and magnetic (split) fields on a grid.">
<polygon fill="white" stroke="#666666" points="210.5,-157.88 109.75,-157.88 109.75,-138.62 210.5,-138.62 210.5,-157.88"/>
<text text-anchor="middle" x="160.12" y="-144.38" font-family="Helvetica,sans-Serif" font-size="10.00">tdms/include/field.h</text>
</a>
</g>
</g>
<!-- Node1&#45;&gt;Node4 -->
<g id="edge14" class="edge">
<title>Node1&#45;&gt;Node4</title>
<path fill="none" stroke="#63b8ff" d="M420.94,-401.35C383.62,-395.54 337.53,-384.4 301.12,-363 231.97,-322.35 216.64,-300.9 179.12,-230 166.46,-206.07 162.15,-173.74 160.75,-158.25"/>
<polygon fill="#63b8ff" stroke="#63b8ff" points="420.31,-404.94 430.71,-402.91 421.32,-398.01 420.31,-404.94"/>
</g>
<!-- Node10 -->
<g id="node10" class="node">
<title>Node10</title>
<g id="a_node10"><a xlink:href="fdtd__grid__initialiser_8h.html" target="_top" xlink:title="Initialisation of the FDTD grid.">
<polygon fill="white" stroke="#666666" points="834.12,-363 722.12,-363 722.12,-332.5 834.12,-332.5 834.12,-363"/>
<text text-anchor="start" x="730.12" y="-349.5" font-family="Helvetica,sans-Serif" font-size="10.00">tdms/include/fdtd_grid</text>
<text text-anchor="middle" x="778.12" y="-338.25" font-family="Helvetica,sans-Serif" font-size="10.00">_initialiser.h</text>
</a>
</g>
</g>
<!-- Node1&#45;&gt;Node10 -->
<g id="edge10" class="edge">
<title>Node1&#45;&gt;Node10</title>
<path fill="none" stroke="#63b8ff" d="M543.38,-396.43C587.87,-387.41 652.03,-374.4 708.12,-363 712.62,-362.09 717.28,-361.14 721.96,-360.19"/>
<polygon fill="#63b8ff" stroke="#63b8ff" points="542.9,-393.16 533.79,-398.57 544.29,-400.02 542.9,-393.16"/>
</g>
<!-- Node13 -->
<g id="node13" class="node">
<title>Node13</title>
<g id="a_node13"><a xlink:href="grid__labels_8h.html" target="_top" xlink:title="Class to hold the labels of a Yee cell.">
<polygon fill="white" stroke="#666666" points="1050.75,-157.88 921.5,-157.88 921.5,-138.62 1050.75,-138.62 1050.75,-157.88"/>
<text text-anchor="middle" x="986.12" y="-144.38" font-family="Helvetica,sans-Serif" font-size="10.00">tdms/include/grid_labels.h</text>
</a>
</g>
</g>
<!-- Node1&#45;&gt;Node13 -->
<g id="edge15" class="edge">
<title>Node1&#45;&gt;Node13</title>
<path fill="none" stroke="#63b8ff" d="M510.12,-392.62C576.68,-347.27 773.34,-213.92 805.12,-199.5 848.34,-179.9 900.9,-166.34 938.22,-158.3"/>
<polygon fill="#63b8ff" stroke="#63b8ff" points="508.57,-390.12 502.28,-398.64 512.51,-395.9 508.57,-390.12"/>
</g>
<!-- Node14 -->
<g id="node14" class="node">
<title>Node14</title>
<g id="a_node14"><a xlink:href="input__flags_8h.html" target="_top" xlink:title="Organises enumerated constants, names, and classes for handling flag&#45;variables that are passed to TDM...">
<polygon fill="white" stroke="#666666" points="573.88,-296.5 478.38,-296.5 478.38,-266 573.88,-266 573.88,-296.5"/>
<text text-anchor="start" x="486.38" y="-283" font-family="Helvetica,sans-Serif" font-size="10.00">tdms/include/input</text>
<text text-anchor="middle" x="526.12" y="-271.75" font-family="Helvetica,sans-Serif" font-size="10.00">_flags.h</text>
</a>
</g>
</g>
<!-- Node1&#45;&gt;Node14 -->
<g id="edge18" class="edge">
<title>Node1&#45;&gt;Node14</title>
<path fill="none" stroke="#63b8ff" d="M494.03,-388.13C501.69,-362.86 514.87,-319.37 521.72,-296.8"/>
<polygon fill="#63b8ff" stroke="#63b8ff" points="490.41,-387.02 490.86,-397.61 497.11,-389.05 490.41,-387.02"/>
</g>
<!-- Node20 -->
<g id="node20" class="node">
<title>Node20</title>
<g id="a_node20"><a xlink:href="input__matrices_8h.html" target="_top" xlink:title="Class handling the input matrices that are read in from the input file.">
<polygon fill="white" stroke="#666666" points="379.88,-296.5 284.38,-296.5 284.38,-266 379.88,-266 379.88,-296.5"/>
<text text-anchor="start" x="292.38" y="-283" font-family="Helvetica,sans-Serif" font-size="10.00">tdms/include/input</text>
<text text-anchor="middle" x="332.12" y="-271.75" font-family="Helvetica,sans-Serif" font-size="10.00">_matrices.h</text>
</a>
</g>
</g>
<!-- Node1&#45;&gt;Node20 -->
<g id="edge28" class="edge">
<title>Node1&#45;&gt;Node20</title>
<path fill="none" stroke="#63b8ff" d="M421.26,-399.35C377.07,-392.35 324.85,-380.61 311.12,-363 295.99,-343.58 310.22,-314.34 321.48,-296.89"/>
<polygon fill="#63b8ff" stroke="#63b8ff" points="420.59,-402.94 431.01,-400.99 421.65,-396.02 420.59,-402.94"/>
</g>
<!-- Node22 -->
<g id="node22" class="node">
<title>Node22</title>
<g id="a_node22"><a xlink:href="mesh__base_8h.html" target="_top" xlink:title="Generation of orientated mesh.">
<polygon fill="white" stroke="#666666" points="399.62,-157.88 266.62,-157.88 266.62,-138.62 399.62,-138.62 399.62,-157.88"/>
<text text-anchor="middle" x="333.12" y="-144.38" font-family="Helvetica,sans-Serif" font-size="10.00">tdms/include/mesh_base.h</text>
</a>
</g>
</g>
<!-- Node1&#45;&gt;Node22 -->
<g id="edge37" class="edge">
<title>Node1&#45;&gt;Node22</title>
<path fill="none" stroke="#63b8ff" d="M484.77,-388.27C476.51,-342.46 454.12,-229.03 430.12,-199.5 413.5,-179.04 386.33,-165.98 364.97,-158.32"/>
<polygon fill="#63b8ff" stroke="#63b8ff" points="481.45,-388.58 486.63,-397.82 488.34,-387.36 481.45,-388.58"/>
</g>
<!-- Node23 -->
<g id="node23" class="node">
<title>Node23</title>
<g id="a_node23"><a xlink:href="interface_8h.html" target="_top" xlink:title=" ">
<polygon fill="white" stroke="#666666" points="972.25,-357.38 852,-357.38 852,-338.12 972.25,-338.12 972.25,-357.38"/>
<text text-anchor="middle" x="912.12" y="-343.88" font-family="Helvetica,sans-Serif" font-size="10.00">tdms/include/interface.h</text>
</a>
</g>
</g>
<!-- Node1&#45;&gt;Node23 -->
<g id="edge34" class="edge">
<title>Node1&#45;&gt;Node23</title>
<path fill="none" stroke="#63b8ff" d="M555.24,-400.78C626.79,-393.11 743.31,-379.55 843.12,-363 852.05,-361.52 861.59,-359.7 870.63,-357.87"/>
<polygon fill="#63b8ff" stroke="#63b8ff" points="555.15,-397.37 545.58,-401.91 555.9,-404.34 555.15,-397.37"/>
</g>
<!-- Node24 -->
<g id="node24" class="node">
<title>Node24</title>
<g id="a_node24"><a xlink:href="matrix__collection_8h.html" target="_top" xlink:title="A collection of named MATLAB matrices.">
<polygon fill="white" stroke="#666666" points="421.88,-363 320.38,-363 320.38,-332.5 421.88,-332.5 421.88,-363"/>
<text text-anchor="start" x="328.38" y="-349.5" font-family="Helvetica,sans-Serif" font-size="10.00">tdms/include/matrix</text>
<text text-anchor="middle" x="371.12" y="-338.25" font-family="Helvetica,sans-Serif" font-size="10.00">_collection.h</text>
</a>
</g>
</g>
<!-- Node1&#45;&gt;Node24 -->
<g id="edge35" class="edge">
<title>Node1&#45;&gt;Node24</title>
<path fill="none" stroke="#63b8ff" d="M460.42,-393.68C442.32,-384.58 418.72,-372.7 400.33,-363.44"/>
<polygon fill="#63b8ff" stroke="#63b8ff" points="458.59,-397.19 469.1,-398.55 461.74,-390.93 458.59,-397.19"/>
</g>
<!-- Node25 -->
<g id="node25" class="node">
<title>Node25</title>
<g id="a_node25"><a xlink:href="shapes_8h_source.html" target="_top" xlink:title=" ">
<polygon fill="white" stroke="#666666" points="1104.25,-357.38 990,-357.38 990,-338.12 1104.25,-338.12 1104.25,-357.38"/>
<text text-anchor="middle" x="1047.12" y="-343.88" font-family="Helvetica,sans-Serif" font-size="10.00">tdms/include/shapes.h</text>
</a>
</g>
</g>
<!-- Node1&#45;&gt;Node25 -->
<g id="edge38" class="edge">
<title>Node1&#45;&gt;Node25</title>
<path fill="none" stroke="#63b8ff" d="M555.5,-404.15C650.72,-398.63 829.94,-386.07 981.12,-363 990.16,-361.62 999.82,-359.76 1008.88,-357.84"/>
<polygon fill="#63b8ff" stroke="#63b8ff" points="555.37,-400.7 545.59,-404.77 555.77,-407.69 555.37,-400.7"/>
</g>
<!-- Node26 -->
<g id="node26" class="node">
<title>Node26</title>
<g id="a_node26"><a xlink:href="source_8h.html" target="_top" xlink:title=" ">
<polygon fill="white" stroke="#666666" points="1234.12,-357.38 1122.12,-357.38 1122.12,-338.12 1234.12,-338.12 1234.12,-357.38"/>
<text text-anchor="middle" x="1178.12" y="-343.88" font-family="Helvetica,sans-Serif" font-size="10.00">tdms/include/source.h</text>
</a>
</g>
</g>
<!-- Node1&#45;&gt;Node26 -->
<g id="edge39" class="edge">
<title>Node1&#45;&gt;Node26</title>
<path fill="none" stroke="#63b8ff" d="M555.15,-406.01C669.94,-402.55 911.3,-392.17 1113.12,-363 1122.27,-361.68 1132.05,-359.79 1141.17,-357.82"/>
<polygon fill="#63b8ff" stroke="#63b8ff" points="555.33,-402.54 545.44,-406.33 555.54,-409.53 555.33,-402.54"/>
</g>
<!-- Node3&#45;&gt;Node4 -->
<g id="edge3" class="edge">
<title>Node3&#45;&gt;Node4</title>
<path fill="none" stroke="#63b8ff" d="M127.74,-260.89C136.07,-232.17 151.38,-179.41 157.49,-158.32"/>
<polygon fill="#63b8ff" stroke="#63b8ff" points="124.16,-259.67 124.74,-270.25 130.88,-261.62 124.16,-259.67"/>
</g>
<!-- Node4&#45;&gt;Node2 -->
<g id="edge4" class="edge">
<title>Node4&#45;&gt;Node2</title>
<path fill="none" stroke="#63b8ff" d="M135.1,-132.84C116.74,-122.26 91.89,-107.96 73.46,-97.34"/>
<polygon fill="#63b8ff" stroke="#63b8ff" points="133.14,-136.32 143.55,-138.28 136.63,-130.26 133.14,-136.32"/>
</g>
<!-- Node5 -->
<g id="node5" class="node">
<title>Node5</title>
<g id="a_node5"><a xlink:href="fieldsample_8h.html" target="_top" xlink:title="Class that stores the extracted field values at user&#45;defined vertices.">
<polygon fill="white" stroke="#666666" points="265.25,-91.38 133,-91.38 133,-72.12 265.25,-72.12 265.25,-91.38"/>
<text text-anchor="middle" x="199.12" y="-77.88" font-family="Helvetica,sans-Serif" font-size="10.00">tdms/include/fieldsample.h</text>
</a>
</g>
</g>
<!-- Node4&#45;&gt;Node5 -->
<g id="edge5" class="edge">
<title>Node4&#45;&gt;Node5</title>
<path fill="none" stroke="#63b8ff" d="M171.16,-129C178.55,-116.79 187.95,-101.24 193.75,-91.64"/>
<polygon fill="#63b8ff" stroke="#63b8ff" points="167.73,-126.91 165.55,-137.28 173.72,-130.54 167.73,-126.91"/>
</g>
<!-- Node7 -->
<g id="node7" class="node">
<title>Node7</title>
<g id="a_node7"><a xlink:href="surface__phasors_8h.html" target="_top" xlink:title="Contains a class that handles the complex amplitude extraction.">
<polygon fill="white" stroke="#666666" points="906.5,-97 799.75,-97 799.75,-66.5 906.5,-66.5 906.5,-97"/>
<text text-anchor="start" x="807.75" y="-83.5" font-family="Helvetica,sans-Serif" font-size="10.00">tdms/include/surface</text>
<text text-anchor="middle" x="853.12" y="-72.25" font-family="Helvetica,sans-Serif" font-size="10.00">_phasors.h</text>
</a>
</g>
</g>
<!-- Node4&#45;&gt;Node7 -->
<g id="edge7" class="edge">
<title>Node4&#45;&gt;Node7</title>
<path fill="none" stroke="#63b8ff" d="M221.55,-137.64C233.34,-135.96 245.6,-134.33 257.12,-133 361.57,-120.94 673.7,-96.52 799.6,-86.84"/>
<polygon fill="#63b8ff" stroke="#63b8ff" points="221.29,-134.29 211.89,-139.19 222.29,-141.22 221.29,-134.29"/>
</g>
<!-- Node8 -->
<g id="node8" class="node">
<title>Node8</title>
<g id="a_node8"><a xlink:href="vertex__phasors_8h.html" target="_top" xlink:title="Contains a class that handles the complex amplitude extraction at the vertices.">
<polygon fill="white" stroke="#666666" points="649.88,-97 548.38,-97 548.38,-66.5 649.88,-66.5 649.88,-97"/>
<text text-anchor="start" x="556.38" y="-83.5" font-family="Helvetica,sans-Serif" font-size="10.00">tdms/include/vertex</text>
<text text-anchor="middle" x="599.12" y="-72.25" font-family="Helvetica,sans-Serif" font-size="10.00">_phasors.h</text>
</a>
</g>
</g>
<!-- Node4&#45;&gt;Node8 -->
<g id="edge8" class="edge">
<title>Node4&#45;&gt;Node8</title>
<path fill="none" stroke="#63b8ff" d="M221.71,-138.2C308.98,-125.38 467.03,-102.16 548.12,-90.24"/>
<polygon fill="#63b8ff" stroke="#63b8ff" points="221.3,-134.87 211.91,-139.79 222.32,-141.8 221.3,-134.87"/>
</g>
<!-- Node6 -->
<g id="node6" class="node">
<title>Node6</title>
<g id="a_node6"><a xlink:href="test___field_sample_8cpp.html" target="_top" xlink:title="Unit tests for the FieldSample class and its subclasses.">
<polygon fill="white" stroke="#666666" points="249.5,-30.5 148.75,-30.5 148.75,0 249.5,0 249.5,-30.5"/>
<text text-anchor="start" x="156.75" y="-17" font-family="Helvetica,sans-Serif" font-size="10.00">tdms/tests/unit/test</text>
<text text-anchor="middle" x="199.12" y="-5.75" font-family="Helvetica,sans-Serif" font-size="10.00">_FieldSample.cpp</text>
</a>
</g>
</g>
<!-- Node5&#45;&gt;Node6 -->
<g id="edge6" class="edge">
<title>Node5&#45;&gt;Node6</title>
<path fill="none" stroke="#63b8ff" d="M199.12,-61.02C199.12,-51.2 199.12,-39.55 199.12,-30.59"/>
<polygon fill="#63b8ff" stroke="#63b8ff" points="195.63,-60.78 199.12,-70.78 202.63,-60.78 195.63,-60.78"/>
</g>
<!-- Node9 -->
<g id="node9" class="node">
<title>Node9</title>
<g id="a_node9"><a xlink:href="test___vertex_phasors_8cpp.html" target="_top" xlink:title="Unit tests for the VertexPhasors class.">
<polygon fill="white" stroke="#666666" points="651.38,-30.5 546.88,-30.5 546.88,0 651.38,0 651.38,-30.5"/>
<text text-anchor="start" x="554.88" y="-17" font-family="Helvetica,sans-Serif" font-size="10.00">tdms/tests/unit/test</text>
<text text-anchor="middle" x="599.12" y="-5.75" font-family="Helvetica,sans-Serif" font-size="10.00">_VertexPhasors.cpp</text>
</a>
</g>
</g>
<!-- Node8&#45;&gt;Node9 -->
<g id="edge9" class="edge">
<title>Node8&#45;&gt;Node9</title>
<path fill="none" stroke="#63b8ff" d="M599.12,-55.38C599.12,-47.05 599.12,-38.08 599.12,-30.83"/>
<polygon fill="#63b8ff" stroke="#63b8ff" points="595.63,-55.11 599.12,-65.11 602.63,-55.11 595.63,-55.11"/>
</g>
<!-- Node11 -->
<g id="node11" class="node">
<title>Node11</title>
<g id="a_node11"><a xlink:href="hdf5__io_8h.html" target="_top" xlink:title="Helper classes for HDF5 file I/O.">
<polygon fill="white" stroke="#666666" points="836.25,-290.88 722,-290.88 722,-271.62 836.25,-271.62 836.25,-290.88"/>
<text text-anchor="middle" x="779.12" y="-277.38" font-family="Helvetica,sans-Serif" font-size="10.00">tdms/include/hdf5_io.h</text>
</a>
</g>
</g>
<!-- Node10&#45;&gt;Node11 -->
<g id="edge11" class="edge">
<title>Node10&#45;&gt;Node11</title>
<path fill="none" stroke="#63b8ff" d="M778.52,-321.18C778.69,-310.51 778.87,-298.83 778.99,-291.07"/>
<polygon fill="#63b8ff" stroke="#63b8ff" points="775.01,-321.06 778.35,-331.11 782.01,-321.17 775.01,-321.06"/>
</g>
<!-- Node12 -->
<g id="node12" class="node">
<title>Node12</title>
<g id="a_node12"><a xlink:href="test__hdf5__io_8cpp.html" target="_top" xlink:title="Tests of the HDF5 file I/O functionality.">
<polygon fill="white" stroke="#666666" points="914.5,-230 813.75,-230 813.75,-199.5 914.5,-199.5 914.5,-230"/>
<text text-anchor="start" x="821.75" y="-216.5" font-family="Helvetica,sans-Serif" font-size="10.00">tdms/tests/unit/test</text>
<text text-anchor="middle" x="864.12" y="-205.25" font-family="Helvetica,sans-Serif" font-size="10.00">_hdf5_io.cpp</text>
</a>
</g>
</g>
<!-- Node10&#45;&gt;Node12 -->
<g id="edge13" class="edge">
<title>Node10&#45;&gt;Node12</title>
<path fill="none" stroke="#63b8ff" d="M814.88,-326.15C826.09,-318.22 837.46,-308.21 845.12,-296.5 858.45,-276.13 862.46,-247.46 863.65,-230.33"/>
<polygon fill="#63b8ff" stroke="#63b8ff" points="813.39,-323.61 807,-332.06 817.26,-329.44 813.39,-323.61"/>
</g>
<!-- Node11&#45;&gt;Node12 -->
<g id="edge12" class="edge">
<title>Node11&#45;&gt;Node12</title>
<path fill="none" stroke="#63b8ff" d="M799.69,-264.65C813.44,-254.21 831.42,-240.56 844.9,-230.34"/>
<polygon fill="#63b8ff" stroke="#63b8ff" points="797.79,-262.45 791.94,-271.28 802.03,-268.02 797.79,-262.45"/>
</g>
<!-- Node13&#45;&gt;Node7 -->
<g id="edge16" class="edge">
<title>Node13&#45;&gt;Node7</title>
<path fill="none" stroke="#63b8ff" d="M957.64,-133.44C935.77,-122.83 905.63,-108.21 883.33,-97.4"/>
<polygon fill="#63b8ff" stroke="#63b8ff" points="955.83,-136.93 966.35,-138.15 958.88,-130.63 955.83,-136.93"/>
</g>
<!-- Node13&#45;&gt;Node8 -->
<g id="edge17" class="edge">
<title>Node13&#45;&gt;Node8</title>
<path fill="none" stroke="#63b8ff" d="M930.51,-136.19C924.65,-135.08 918.77,-134 913.12,-133 820.72,-116.59 712.57,-99.82 650.34,-90.4"/>
<polygon fill="#63b8ff" stroke="#63b8ff" points="929.52,-139.75 940,-138.19 930.83,-132.88 929.52,-139.75"/>
</g>
<!-- Node14&#45;&gt;Node4 -->
<g id="edge19" class="edge">
<title>Node14&#45;&gt;Node4</title>
<path fill="none" stroke="#63b8ff" d="M505.89,-257.69C487.87,-239.09 459.83,-213.55 430.12,-199.5 410.59,-190.26 283.37,-168.92 210.75,-157.24"/>
<polygon fill="#63b8ff" stroke="#63b8ff" points="503.02,-259.82 512.43,-264.69 508.11,-255.01 503.02,-259.82"/>
</g>
<!-- Node15 -->
<g id="node15" class="node">
<title>Node15</title>
<g id="a_node15"><a xlink:href="interpolation__methods_8h.html" target="_top" xlink:title="InterpScheme class methods and supporting functions.">
<polygon fill="white" stroke="#666666" points="681.62,-230 554.62,-230 554.62,-199.5 681.62,-199.5 681.62,-230"/>
<text text-anchor="start" x="562.62" y="-216.5" font-family="Helvetica,sans-Serif" font-size="10.00">tdms/include/interpolation</text>
<text text-anchor="middle" x="618.12" y="-205.25" font-family="Helvetica,sans-Serif" font-size="10.00">_methods.h</text>
</a>
</g>
</g>
<!-- Node14&#45;&gt;Node15 -->
<g id="edge20" class="edge">
<title>Node14&#45;&gt;Node15</title>
<path fill="none" stroke="#63b8ff" d="M555.95,-259.34C569.46,-249.87 585.11,-238.89 597.33,-230.33"/>
<polygon fill="#63b8ff" stroke="#63b8ff" points="554.18,-257.01 548,-265.61 558.2,-262.74 554.18,-257.01"/>
</g>
<!-- Node16 -->
<g id="node16" class="node">
<title>Node16</title>
<g id="a_node16"><a xlink:href="test___b_li__vs__cubic__interpolation_8cpp.html" target="_top" xlink:title="Tests the performance of bandlimited interpolation against cubic interpolation.">
<polygon fill="white" stroke="#666666" points="574.25,-163.5 418,-163.5 418,-133 574.25,-133 574.25,-163.5"/>
<text text-anchor="start" x="426" y="-150" font-family="Helvetica,sans-Serif" font-size="10.00">tdms/tests/unit/test</text>
<text text-anchor="middle" x="496.12" y="-138.75" font-family="Helvetica,sans-Serif" font-size="10.00">_BLi_vs_cubic_interpolation.cpp</text>
</a>
</g>
</g>
<!-- Node14&#45;&gt;Node16 -->
<g id="edge25" class="edge">
<title>Node14&#45;&gt;Node16</title>
<path fill="none" stroke="#63b8ff" d="M520.38,-255.16C514.18,-228.09 504.52,-185.91 499.47,-163.83"/>
<polygon fill="#63b8ff" stroke="#63b8ff" points="517.16,-255.76 522.8,-264.73 523.98,-254.2 517.16,-255.76"/>
</g>
<!-- Node17 -->
<g id="node17" class="node">
<title>Node17</title>
<g id="a_node17"><a xlink:href="test__interpolation__determination_8cpp.html" target="_top" xlink:title="Tests the logic that determines which interpolation schemes are appropriate.">
<polygon fill="white" stroke="#666666" points="748.25,-163.5 592,-163.5 592,-133 748.25,-133 748.25,-163.5"/>
<text text-anchor="start" x="600" y="-150" font-family="Helvetica,sans-Serif" font-size="10.00">tdms/tests/unit/test</text>
<text text-anchor="middle" x="670.12" y="-138.75" font-family="Helvetica,sans-Serif" font-size="10.00">_interpolation_determination.cpp</text>
</a>
</g>
</g>
<!-- Node14&#45;&gt;Node17 -->
<g id="edge26" class="edge">
<title>Node14&#45;&gt;Node17</title>
<path fill="none" stroke="#63b8ff" d="M584.89,-278.91C621.52,-274.64 666.11,-262.47 690.12,-230 704.72,-210.26 691.11,-181.13 680.32,-163.78"/>
<polygon fill="#63b8ff" stroke="#63b8ff" points="584.91,-275.49 575.3,-279.95 585.6,-282.45 584.91,-275.49"/>
</g>
<!-- Node18 -->
<g id="node18" class="node">
<title>Node18</title>
<g id="a_node18"><a xlink:href="test__interpolation__functions_8cpp.html" target="_top" xlink:title="Tests the performance of the interpolation functions, using 1D data mimicing a coordinate axes.">
<polygon fill="white" stroke="#666666" points="903.88,-163.5 766.38,-163.5 766.38,-133 903.88,-133 903.88,-163.5"/>
<text text-anchor="start" x="774.38" y="-150" font-family="Helvetica,sans-Serif" font-size="10.00">tdms/tests/unit/test</text>
<text text-anchor="middle" x="835.12" y="-138.75" font-family="Helvetica,sans-Serif" font-size="10.00">_interpolation_functions.cpp</text>
</a>
</g>
</g>
<!-- Node14&#45;&gt;Node18 -->
<g id="edge27" class="edge">
<title>Node14&#45;&gt;Node18</title>
<path fill="none" stroke="#63b8ff" d="M584.67,-268.74C621.12,-260.45 668.45,-247.62 708.12,-230 749.2,-211.76 792.41,-181.58 816.34,-163.74"/>
<polygon fill="#63b8ff" stroke="#63b8ff" points="584.22,-265.48 575.21,-271.06 585.74,-272.31 584.22,-265.48"/>
</g>
<!-- Node19 -->
<g id="node19" class="node">
<title>Node19</title>
<g id="a_node19"><a xlink:href="main_8cpp.html" target="_top" xlink:title="The main function. Launches TDMS.">
<polygon fill="white" stroke="#666666" points="421.62,-224.38 324.62,-224.38 324.62,-205.12 421.62,-205.12 421.62,-224.38"/>
<text text-anchor="middle" x="373.12" y="-210.88" font-family="Helvetica,sans-Serif" font-size="10.00">tdms/src/main.cpp</text>
</a>
</g>
</g>
<!-- Node14&#45;&gt;Node19 -->
<g id="edge24" class="edge">
<title>Node14&#45;&gt;Node19</title>
<path fill="none" stroke="#63b8ff" d="M481.6,-261.48C452.93,-249.4 416.96,-234.23 394.5,-224.76"/>
<polygon fill="#63b8ff" stroke="#63b8ff" points="479.83,-264.95 490.41,-265.61 482.55,-258.5 479.83,-264.95"/>
</g>
<!-- Node15&#45;&gt;Node16 -->
<g id="edge21" class="edge">
<title>Node15&#45;&gt;Node16</title>
<path fill="none" stroke="#63b8ff" d="M580.89,-194.06C562.46,-184.32 540.6,-172.76 523.7,-163.83"/>
<polygon fill="#63b8ff" stroke="#63b8ff" points="578.96,-197.53 589.44,-199.11 582.24,-191.35 578.96,-197.53"/>
</g>
<!-- Node15&#45;&gt;Node17 -->
<g id="edge22" class="edge">
<title>Node15&#45;&gt;Node17</title>
<path fill="none" stroke="#63b8ff" d="M636.76,-190.63C643.97,-181.69 652,-171.74 658.37,-163.83"/>
<polygon fill="#63b8ff" stroke="#63b8ff" points="633.48,-188.13 629.92,-198.11 638.93,-192.53 633.48,-188.13"/>
</g>
<!-- Node15&#45;&gt;Node18 -->
<g id="edge23" class="edge">
<title>Node15&#45;&gt;Node18</title>
<path fill="none" stroke="#63b8ff" d="M677.89,-195.99C711.83,-185.9 753.79,-173.43 785.83,-163.9"/>
<polygon fill="#63b8ff" stroke="#63b8ff" points="677.23,-192.83 668.64,-199.03 679.22,-199.54 677.23,-192.83"/>
</g>
<!-- Node20&#45;&gt;Node19 -->
<g id="edge33" class="edge">
<title>Node20&#45;&gt;Node19</title>
<path fill="none" stroke="#63b8ff" d="M347.31,-256.37C354.36,-245.27 362.32,-232.74 367.52,-224.57"/>
<polygon fill="#63b8ff" stroke="#63b8ff" points="343.84,-254.3 341.43,-264.61 349.75,-258.05 343.84,-254.3"/>
</g>
<!-- Node21 -->
<g id="node21" class="node">
<title>Node21</title>
<g id="a_node21"><a xlink:href="simulation__parameters_8h.html" target="_top" xlink:title="Classes collecting parameters for the simulation.">
<polygon fill="white" stroke="#666666" points="306.5,-230 187.75,-230 187.75,-199.5 306.5,-199.5 306.5,-230"/>
<text text-anchor="start" x="195.75" y="-216.5" font-family="Helvetica,sans-Serif" font-size="10.00">tdms/include/simulation</text>
<text text-anchor="middle" x="247.12" y="-205.25" font-family="Helvetica,sans-Serif" font-size="10.00">_parameters.h</text>
</a>
</g>
</g>
<!-- Node20&#45;&gt;Node21 -->
<g id="edge29" class="edge">
<title>Node20&#45;&gt;Node21</title>
<path fill="none" stroke="#63b8ff" d="M304.21,-259.07C291.81,-249.66 277.52,-238.81 266.34,-230.33"/>
<polygon fill="#63b8ff" stroke="#63b8ff" points="301.76,-262.36 311.84,-265.61 305.99,-256.78 301.76,-262.36"/>
</g>
<!-- Node21&#45;&gt;Node4 -->
<g id="edge30" class="edge">
<title>Node21&#45;&gt;Node4</title>
<path fill="none" stroke="#63b8ff" d="M218.94,-192.86C203.06,-181.08 184.05,-166.98 172.03,-158.07"/>
<polygon fill="#63b8ff" stroke="#63b8ff" points="216.27,-195.97 226.38,-199.11 220.43,-190.35 216.27,-195.97"/>
</g>
<!-- Node21&#45;&gt;Node5 -->
<g id="edge31" class="edge">
<title>Node21&#45;&gt;Node5</title>
<path fill="none" stroke="#63b8ff" d="M238.84,-188.93C233.41,-172.91 226.06,-151.64 219.12,-133 213.69,-118.39 206.89,-101.6 202.79,-91.6"/>
<polygon fill="#63b8ff" stroke="#63b8ff" points="235.75,-189.73 242.26,-198.09 242.39,-187.5 235.75,-189.73"/>
</g>
<!-- Node21&#45;&gt;Node22 -->
<g id="edge32" class="edge">
<title>Node21&#45;&gt;Node22</title>
<path fill="none" stroke="#63b8ff" d="M275.42,-192.53C291.03,-180.82 309.59,-166.9 321.36,-158.07"/>
<polygon fill="#63b8ff" stroke="#63b8ff" points="273.54,-190.31 267.64,-199.11 277.74,-195.91 273.54,-190.31"/>
</g>
<!-- Node24&#45;&gt;Node20 -->
<g id="edge36" class="edge">
<title>Node24&#45;&gt;Node20</title>
<path fill="none" stroke="#63b8ff" d="M356.64,-322.79C351.37,-314.07 345.57,-304.49 340.94,-296.83"/>
<polygon fill="#63b8ff" stroke="#63b8ff" points="354.11,-324.37 362.28,-331.11 360.1,-320.75 354.11,-324.37"/>
</g>
</g>
</svg>
