<?xml version="1.0" encoding="UTF-8" standalone="no"?>
<!DOCTYPE svg PUBLIC "-//W3C//DTD SVG 1.1//EN"
 "http://www.w3.org/Graphics/SVG/1.1/DTD/svg11.dtd">
<!-- Generated by graphviz version 8.0.4 (20230421.1958)
 -->
<!-- Title: tdms/include/mat_io.h Pages: 1 -->
<svg width="1125pt" height="426pt"
 viewBox="0.00 0.00 1125.12 426.25" xmlns="http://www.w3.org/2000/svg" xmlns:xlink="http://www.w3.org/1999/xlink">
<g id="graph0" class="graph" transform="scale(1 1) rotate(0) translate(4 422.25)">
<title>tdms/include/mat_io.h</title>
<!-- Node1 -->
<g id="node1" class="node">
<title>Node1</title>
<g id="a_node1"><a xlink:title="Includes MATLAB headers for I/O.">
<polygon fill="#999999" stroke="#666666" points="479.12,-418.25 367.12,-418.25 367.12,-399 479.12,-399 479.12,-418.25"/>
<text text-anchor="middle" x="423.12" y="-404.75" font-family="Helvetica,sans-Serif" font-size="10.00">tdms/include/mat_io.h</text>
</a>
</g>
</g>
<!-- Node2 -->
<g id="node2" class="node">
<title>Node2</title>
<g id="a_node2"><a xlink:href="array__init_8h.html" target="_top" xlink:title="A collection of functions for array initialisation given MATLAB pointers.">
<polygon fill="white" stroke="#666666" points="96.25,-97 0,-97 0,-66.5 96.25,-66.5 96.25,-97"/>
<text text-anchor="start" x="8" y="-83.5" font-family="Helvetica,sans-Serif" font-size="10.00">tdms/include/array</text>
<text text-anchor="middle" x="48.12" y="-72.25" font-family="Helvetica,sans-Serif" font-size="10.00">_init.h</text>
</a>
</g>
</g>
<!-- Node1&#45;&gt;Node2 -->
<g id="edge1" class="edge">
<title>Node1&#45;&gt;Node2</title>
<path fill="none" stroke="#63b8ff" d="M355.91,-400.72C241.26,-387.07 20.12,-351.72 20.12,-282.25 20.12,-282.25 20.12,-282.25 20.12,-213.75 20.12,-170.72 34.75,-121.47 42.86,-97.46"/>
<polygon fill="#63b8ff" stroke="#63b8ff" points="355.33,-404.29 365.67,-401.98 356.14,-397.34 355.33,-404.29"/>
</g>
<!-- Node3 -->
<g id="node3" class="node">
<title>Node3</title>
<g id="a_node3"><a xlink:href="dimensions_8h.html" target="_top" xlink:title="Defines a class that serves as an explicit converter between MATLAB pointers and array dimensions.">
<polygon fill="white" stroke="#666666" points="180.25,-290.88 48,-290.88 48,-271.62 180.25,-271.62 180.25,-290.88"/>
<text text-anchor="middle" x="114.12" y="-277.38" font-family="Helvetica,sans-Serif" font-size="10.00">tdms/include/dimensions.h</text>
</a>
</g>
</g>
<!-- Node1&#45;&gt;Node3 -->
<g id="edge2" class="edge">
<title>Node1&#45;&gt;Node3</title>
<path fill="none" stroke="#63b8ff" d="M356.04,-404.97C308.43,-400.67 244.32,-389.86 194.12,-363 160.54,-345.03 132.13,-308.26 120.17,-291.25"/>
<polygon fill="#63b8ff" stroke="#63b8ff" points="355.6,-408.53 365.85,-405.86 356.17,-401.55 355.6,-408.53"/>
</g>
<!-- Node4 -->
<g id="node4" class="node">
<title>Node4</title>
<g id="a_node4"><a xlink:href="field_8h.html" target="_top" xlink:title="Classes for the electric and magnetic (split) fields on a grid.">
<polygon fill="white" stroke="#666666" points="251.5,-157.88 150.75,-157.88 150.75,-138.62 251.5,-138.62 251.5,-157.88"/>
<text text-anchor="middle" x="201.12" y="-144.38" font-family="Helvetica,sans-Serif" font-size="10.00">tdms/include/field.h</text>
</a>
</g>
</g>
<!-- Node1&#45;&gt;Node4 -->
<g id="edge13" class="edge">
<title>Node1&#45;&gt;Node4</title>
<path fill="none" stroke="#63b8ff" d="M356.05,-405.13C321.95,-400.41 282.3,-389.1 256.12,-363 196.96,-304.03 198.68,-190.49 200.49,-158.08"/>
<polygon fill="#63b8ff" stroke="#63b8ff" points="355.55,-408.71 365.9,-406.44 356.39,-401.76 355.55,-408.71"/>
</g>
<!-- Node10 -->
<g id="node10" class="node">
<title>Node10</title>
<g id="a_node10"><a xlink:href="fdtd__grid__initialiser_8h.html" target="_top" xlink:title="Initialisation of the FDTD grid.">
<polygon fill="white" stroke="#666666" points="717.12,-363 605.12,-363 605.12,-332.5 717.12,-332.5 717.12,-363"/>
<text text-anchor="start" x="613.12" y="-349.5" font-family="Helvetica,sans-Serif" font-size="10.00">tdms/include/fdtd_grid</text>
<text text-anchor="middle" x="661.12" y="-338.25" font-family="Helvetica,sans-Serif" font-size="10.00">_initialiser.h</text>
</a>
</g>
</g>
<!-- Node1&#45;&gt;Node10 -->
<g id="edge10" class="edge">
<title>Node1&#45;&gt;Node10</title>
<path fill="none" stroke="#63b8ff" d="M470.26,-395.97C508.97,-386.39 563.92,-372.8 604.92,-362.65"/>
<polygon fill="#63b8ff" stroke="#63b8ff" points="469.66,-392.76 460.79,-398.55 471.34,-399.55 469.66,-392.76"/>
</g>
<!-- Node13 -->
<g id="node13" class="node">
<title>Node13</title>
<g id="a_node13"><a xlink:href="grid__labels_8h.html" target="_top" xlink:title="Class to hold the labels of a Yee cell.">
<polygon fill="white" stroke="#666666" points="1054.75,-157.88 925.5,-157.88 925.5,-138.62 1054.75,-138.62 1054.75,-157.88"/>
<text text-anchor="middle" x="990.12" y="-144.38" font-family="Helvetica,sans-Serif" font-size="10.00">tdms/include/grid_labels.h</text>
</a>
</g>
</g>
<!-- Node1&#45;&gt;Node13 -->
<g id="edge14" class="edge">
<title>Node1&#45;&gt;Node13</title>
<path fill="none" stroke="#63b8ff" d="M454.81,-394.2C520.23,-366.15 674.45,-298.24 798.12,-230 820.26,-217.79 823.38,-210.51 846.12,-199.5 882.83,-181.73 927.48,-167.16 957.24,-158.36"/>
<polygon fill="#63b8ff" stroke="#63b8ff" points="453.55,-391.36 445.73,-398.51 456.3,-397.8 453.55,-391.36"/>
</g>
<!-- Node14 -->
<g id="node14" class="node">
<title>Node14</title>
<g id="a_node14"><a xlink:href="input__flags_8h.html" target="_top" xlink:title="Organises enumerated constants, names, and classes for handling flag&#45;variables that are passed to TDM...">
<polygon fill="white" stroke="#666666" points="614.88,-296.5 519.38,-296.5 519.38,-266 614.88,-266 614.88,-296.5"/>
<text text-anchor="start" x="527.38" y="-283" font-family="Helvetica,sans-Serif" font-size="10.00">tdms/include/input</text>
<text text-anchor="middle" x="567.12" y="-271.75" font-family="Helvetica,sans-Serif" font-size="10.00">_flags.h</text>
</a>
</g>
</g>
<!-- Node1&#45;&gt;Node14 -->
<g id="edge17" class="edge">
<title>Node1&#45;&gt;Node14</title>
<path fill="none" stroke="#63b8ff" d="M441.71,-391.44C469.97,-366.84 523.32,-320.39 550.42,-296.8"/>
<polygon fill="#63b8ff" stroke="#63b8ff" points="439.72,-389.4 434.48,-398.61 444.32,-394.68 439.72,-389.4"/>
</g>
<!-- Node20 -->
<g id="node20" class="node">
<title>Node20</title>
<g id="a_node20"><a xlink:href="input__matrices_8h.html" target="_top" xlink:title="Class handling the input matrices that are read in from the input file.">
<polygon fill="white" stroke="#666666" points="354.88,-296.5 259.38,-296.5 259.38,-266 354.88,-266 354.88,-296.5"/>
<text text-anchor="start" x="267.38" y="-283" font-family="Helvetica,sans-Serif" font-size="10.00">tdms/include/input</text>
<text text-anchor="middle" x="307.12" y="-271.75" font-family="Helvetica,sans-Serif" font-size="10.00">_matrices.h</text>
</a>
</g>
</g>
<!-- Node1&#45;&gt;Node20 -->
<g id="edge27" class="edge">
<title>Node1&#45;&gt;Node20</title>
<path fill="none" stroke="#63b8ff" d="M356.28,-397.01C318.47,-389.49 276.52,-378.06 265.12,-363 249.11,-341.83 272.2,-313.67 289.97,-296.81"/>
<polygon fill="#63b8ff" stroke="#63b8ff" points="355.32,-400.58 365.8,-399.03 356.64,-393.71 355.32,-400.58"/>
</g>
<!-- Node22 -->
<g id="node22" class="node">
<title>Node22</title>
<g id="a_node22"><a xlink:href="mesh__base_8h.html" target="_top" xlink:title="Generation of orientated mesh.">
<polygon fill="white" stroke="#666666" points="402.62,-157.88 269.62,-157.88 269.62,-138.62 402.62,-138.62 402.62,-157.88"/>
<text text-anchor="middle" x="336.12" y="-144.38" font-family="Helvetica,sans-Serif" font-size="10.00">tdms/include/mesh_base.h</text>
</a>
</g>
</g>
<!-- Node1&#45;&gt;Node22 -->
<g id="edge36" class="edge">
<title>Node1&#45;&gt;Node22</title>
<path fill="none" stroke="#63b8ff" d="M417.47,-388.6C406.43,-351.81 380.92,-268.48 356.12,-199.5 350.85,-184.83 344.01,-168.06 339.85,-158.08"/>
<polygon fill="#63b8ff" stroke="#63b8ff" points="414.31,-389.25 420.53,-397.83 421.02,-387.25 414.31,-389.25"/>
</g>
<!-- Node23 -->
<g id="node23" class="node">
<title>Node23</title>
<g id="a_node23"><a xlink:href="interface_8h.html" target="_top" xlink:title=" ">
<polygon fill="white" stroke="#666666" points="855.25,-357.38 735,-357.38 735,-338.12 855.25,-338.12 855.25,-357.38"/>
<text text-anchor="middle" x="795.12" y="-343.88" font-family="Helvetica,sans-Serif" font-size="10.00">tdms/include/interface.h</text>
</a>
</g>
</g>
<!-- Node1&#45;&gt;Node23 -->
<g id="edge33" class="edge">
<title>Node1&#45;&gt;Node23</title>
<path fill="none" stroke="#63b8ff" d="M490.13,-398.88C551.64,-390.59 645.24,-377.3 726.12,-363 734.92,-361.45 744.31,-359.62 753.24,-357.8"/>
<polygon fill="#63b8ff" stroke="#63b8ff" points="489.85,-395.52 480.4,-400.32 490.78,-402.46 489.85,-395.52"/>
</g>
<!-- Node24 -->
<g id="node24" class="node">
<title>Node24</title>
<g id="a_node24"><a xlink:href="matrix__collection_8h.html" target="_top" xlink:title="A collection of named MATLAB matrices.">
<polygon fill="white" stroke="#666666" points="375.88,-363 274.38,-363 274.38,-332.5 375.88,-332.5 375.88,-363"/>
<text text-anchor="start" x="282.38" y="-349.5" font-family="Helvetica,sans-Serif" font-size="10.00">tdms/include/matrix</text>
<text text-anchor="middle" x="325.12" y="-338.25" font-family="Helvetica,sans-Serif" font-size="10.00">_collection.h</text>
</a>
</g>
</g>
<!-- Node1&#45;&gt;Node24 -->
<g id="edge34" class="edge">
<title>Node1&#45;&gt;Node24</title>
<path fill="none" stroke="#63b8ff" d="M399.01,-393.14C383.89,-384.05 364.45,-372.38 349.31,-363.28"/>
<polygon fill="#63b8ff" stroke="#63b8ff" points="396.87,-396.53 407.24,-398.68 400.47,-390.53 396.87,-396.53"/>
</g>
<!-- Node25 -->
<g id="node25" class="node">
<title>Node25</title>
<g id="a_node25"><a xlink:href="shapes_8h_source.html" target="_top" xlink:title=" ">
<polygon fill="white" stroke="#666666" points="987.25,-357.38 873,-357.38 873,-338.12 987.25,-338.12 987.25,-357.38"/>
<text text-anchor="middle" x="930.12" y="-343.88" font-family="Helvetica,sans-Serif" font-size="10.00">tdms/include/shapes.h</text>
</a>
</g>
</g>
<!-- Node1&#45;&gt;Node25 -->
<g id="edge37" class="edge">
<title>Node1&#45;&gt;Node25</title>
<path fill="none" stroke="#63b8ff" d="M490.16,-403.18C576.86,-396.91 732.37,-383.82 864.12,-363 873.04,-361.59 882.56,-359.74 891.52,-357.84"/>
<polygon fill="#63b8ff" stroke="#63b8ff" points="490.15,-399.75 480.42,-403.95 490.65,-406.73 490.15,-399.75"/>
</g>
<!-- Node26 -->
<g id="node26" class="node">
<title>Node26</title>
<g id="a_node26"><a xlink:href="source_8h.html" target="_top" xlink:title=" ">
<polygon fill="white" stroke="#666666" points="1117.12,-357.38 1005.12,-357.38 1005.12,-338.12 1117.12,-338.12 1117.12,-357.38"/>
<text text-anchor="middle" x="1061.12" y="-343.88" font-family="Helvetica,sans-Serif" font-size="10.00">tdms/include/source.h</text>
</a>
</g>
</g>
<!-- Node1&#45;&gt;Node26 -->
<g id="edge38" class="edge">
<title>Node1&#45;&gt;Node26</title>
<path fill="none" stroke="#63b8ff" d="M490.53,-405.39C597.98,-401.15 814.51,-389.85 996.12,-363 1005.15,-361.67 1014.8,-359.8 1023.82,-357.85"/>
<polygon fill="#63b8ff" stroke="#63b8ff" points="490.39,-401.93 480.53,-405.82 490.66,-408.93 490.39,-401.93"/>
</g>
<!-- Node3&#45;&gt;Node4 -->
<g id="edge3" class="edge">
<title>Node3&#45;&gt;Node4</title>
<path fill="none" stroke="#63b8ff" d="M125.98,-262.4C144.8,-234.06 180.84,-179.79 195.1,-158.32"/>
<polygon fill="#63b8ff" stroke="#63b8ff" points="122.72,-259.98 120.1,-270.25 128.55,-263.85 122.72,-259.98"/>
</g>
<!-- Node4&#45;&gt;Node2 -->
<g id="edge4" class="edge">
<title>Node4&#45;&gt;Node2</title>
<path fill="none" stroke="#63b8ff" d="M169.72,-134.01C144.45,-123.36 108.99,-108.41 82.87,-97.4"/>
<polygon fill="#63b8ff" stroke="#63b8ff" points="167.95,-137.49 178.53,-138.15 170.67,-131.04 167.95,-137.49"/>
</g>
<!-- Node5 -->
<g id="node5" class="node">
<title>Node5</title>
<g id="a_node5"><a xlink:href="fieldsample_8h.html" target="_top" xlink:title="Class that stores the extracted field values at user&#45;defined vertices.">
<polygon fill="white" stroke="#666666" points="260.25,-91.38 128,-91.38 128,-72.12 260.25,-72.12 260.25,-91.38"/>
<text text-anchor="middle" x="194.12" y="-77.88" font-family="Helvetica,sans-Serif" font-size="10.00">tdms/include/fieldsample.h</text>
</a>
</g>
</g>
<!-- Node4&#45;&gt;Node5 -->
<g id="edge5" class="edge">
<title>Node4&#45;&gt;Node5</title>
<path fill="none" stroke="#63b8ff" d="M198.98,-127.52C197.68,-115.55 196.09,-100.85 195.09,-91.64"/>
<polygon fill="#63b8ff" stroke="#63b8ff" points="195.59,-127.72 200.15,-137.28 202.55,-126.96 195.59,-127.72"/>
</g>
<!-- Node7 -->
<g id="node7" class="node">
<title>Node7</title>
<g id="a_node7"><a xlink:href="surface__phasors_8h.html" target="_top" xlink:title="Contains a class that handles the complex amplitude extraction.">
<polygon fill="white" stroke="#666666" points="903.5,-97 796.75,-97 796.75,-66.5 903.5,-66.5 903.5,-97"/>
<text text-anchor="start" x="804.75" y="-83.5" font-family="Helvetica,sans-Serif" font-size="10.00">tdms/include/surface</text>
<text text-anchor="middle" x="850.12" y="-72.25" font-family="Helvetica,sans-Serif" font-size="10.00">_phasors.h</text>
</a>
</g>
</g>
<!-- Node4&#45;&gt;Node7 -->
<g id="edge7" class="edge">
<title>Node4&#45;&gt;Node7</title>
<path fill="none" stroke="#63b8ff" d="M245.54,-135.76C250.44,-134.72 255.37,-133.77 260.12,-133 312.26,-124.53 660.88,-97.28 796.39,-86.86"/>
<polygon fill="#63b8ff" stroke="#63b8ff" points="244.94,-132.53 235.95,-138.15 246.48,-139.36 244.94,-132.53"/>
</g>
<!-- Node8 -->
<g id="node8" class="node">
<title>Node8</title>
<g id="a_node8"><a xlink:href="vertex__phasors_8h.html" target="_top" xlink:title="Contains a class that handles the complex amplitude extraction at the vertices.">
<polygon fill="white" stroke="#666666" points="645.88,-97 544.38,-97 544.38,-66.5 645.88,-66.5 645.88,-97"/>
<text text-anchor="start" x="552.38" y="-83.5" font-family="Helvetica,sans-Serif" font-size="10.00">tdms/include/vertex</text>
<text text-anchor="middle" x="595.12" y="-72.25" font-family="Helvetica,sans-Serif" font-size="10.00">_phasors.h</text>
</a>
</g>
</g>
<!-- Node4&#45;&gt;Node8 -->
<g id="edge8" class="edge">
<title>Node4&#45;&gt;Node8</title>
<path fill="none" stroke="#63b8ff" d="M247.27,-135.69C251.6,-134.73 255.94,-133.82 260.12,-133 360.12,-113.46 478.2,-97.36 544.09,-88.98"/>
<polygon fill="#63b8ff" stroke="#63b8ff" points="246.54,-132.5 237.58,-138.15 248.11,-139.32 246.54,-132.5"/>
</g>
<!-- Node6 -->
<g id="node6" class="node">
<title>Node6</title>
<g id="a_node6"><a xlink:href="test___field_sample_8cpp.html" target="_top" xlink:title="Unit tests for the FieldSample class and its subclasses.">
<polygon fill="white" stroke="#666666" points="244.5,-30.5 143.75,-30.5 143.75,0 244.5,0 244.5,-30.5"/>
<text text-anchor="start" x="151.75" y="-17" font-family="Helvetica,sans-Serif" font-size="10.00">tdms/tests/unit/test</text>
<text text-anchor="middle" x="194.12" y="-5.75" font-family="Helvetica,sans-Serif" font-size="10.00">_FieldSample.cpp</text>
</a>
</g>
</g>
<!-- Node5&#45;&gt;Node6 -->
<g id="edge6" class="edge">
<title>Node5&#45;&gt;Node6</title>
<path fill="none" stroke="#63b8ff" d="M194.12,-61.02C194.12,-51.2 194.12,-39.55 194.12,-30.59"/>
<polygon fill="#63b8ff" stroke="#63b8ff" points="190.63,-60.78 194.12,-70.78 197.63,-60.78 190.63,-60.78"/>
</g>
<!-- Node9 -->
<g id="node9" class="node">
<title>Node9</title>
<g id="a_node9"><a xlink:href="test___vertex_phasors_8cpp.html" target="_top" xlink:title="Unit tests for the VertexPhasors class.">
<polygon fill="white" stroke="#666666" points="647.38,-30.5 542.88,-30.5 542.88,0 647.38,0 647.38,-30.5"/>
<text text-anchor="start" x="550.88" y="-17" font-family="Helvetica,sans-Serif" font-size="10.00">tdms/tests/unit/test</text>
<text text-anchor="middle" x="595.12" y="-5.75" font-family="Helvetica,sans-Serif" font-size="10.00">_VertexPhasors.cpp</text>
</a>
</g>
</g>
<!-- Node8&#45;&gt;Node9 -->
<g id="edge9" class="edge">
<title>Node8&#45;&gt;Node9</title>
<path fill="none" stroke="#63b8ff" d="M595.12,-55.38C595.12,-47.05 595.12,-38.08 595.12,-30.83"/>
<polygon fill="#63b8ff" stroke="#63b8ff" points="591.63,-55.11 595.12,-65.11 598.63,-55.11 591.63,-55.11"/>
</g>
<!-- Node11 -->
<g id="node11" class="node">
<title>Node11</title>
<g id="a_node11"><a xlink:href="hdf5__io_8h.html" target="_top" xlink:title="Helper classes for HDF5 file I/O.">
<polygon fill="white" stroke="#666666" points="917.25,-290.88 803,-290.88 803,-271.62 917.25,-271.62 917.25,-290.88"/>
<text text-anchor="middle" x="860.12" y="-277.38" font-family="Helvetica,sans-Serif" font-size="10.00">tdms/include/hdf5_io.h</text>
</a>
</g>
</g>
<!-- Node10&#45;&gt;Node11 -->
<g id="edge11" class="edge">
<title>Node10&#45;&gt;Node11</title>
<path fill="none" stroke="#63b8ff" d="M716.57,-328.78C754.12,-316.61 802.16,-301.04 832.04,-291.35"/>
<polygon fill="#63b8ff" stroke="#63b8ff" points="715.71,-325.7 707.28,-332.11 717.87,-332.36 715.71,-325.7"/>
</g>
<!-- Node12 -->
<g id="node12" class="node">
<title>Node12</title>
<g id="a_node12"><a xlink:href="test__hdf5__io_8cpp.html" target="_top" xlink:title="Tests of the HDF5 file I/O functionality.">
<polygon fill="white" stroke="#666666" points="955.5,-230 854.75,-230 854.75,-199.5 955.5,-199.5 955.5,-230"/>
<text text-anchor="start" x="862.75" y="-216.5" font-family="Helvetica,sans-Serif" font-size="10.00">tdms/tests/unit/test</text>
<text text-anchor="middle" x="905.12" y="-205.25" font-family="Helvetica,sans-Serif" font-size="10.00">_hdf5_io.cpp</text>
</a>
</g>
</g>
<!-- Node11&#45;&gt;Node12 -->
<g id="edge12" class="edge">
<title>Node11&#45;&gt;Node12</title>
<path fill="none" stroke="#63b8ff" d="M872.55,-262.44C879.66,-252.25 888.46,-239.64 895.12,-230.09"/>
<polygon fill="#63b8ff" stroke="#63b8ff" points="869.23,-260.08 866.38,-270.28 874.97,-264.08 869.23,-260.08"/>
</g>
<!-- Node13&#45;&gt;Node7 -->
<g id="edge15" class="edge">
<title>Node13&#45;&gt;Node7</title>
<path fill="none" stroke="#63b8ff" d="M960.46,-133.58C937.41,-122.96 905.5,-108.26 881.92,-97.4"/>
<polygon fill="#63b8ff" stroke="#63b8ff" points="958.82,-137.14 969.36,-138.15 961.75,-130.78 958.82,-137.14"/>
</g>
<!-- Node13&#45;&gt;Node8 -->
<g id="edge16" class="edge">
<title>Node13&#45;&gt;Node8</title>
<path fill="none" stroke="#63b8ff" d="M933.75,-136.18C927.8,-135.08 921.84,-134 916.12,-133 821.1,-116.42 709.8,-99.57 646.36,-90.21"/>
<polygon fill="#63b8ff" stroke="#63b8ff" points="932.91,-139.77 943.38,-138.18 934.2,-132.89 932.91,-139.77"/>
</g>
<!-- Node14&#45;&gt;Node4 -->
<g id="edge18" class="edge">
<title>Node14&#45;&gt;Node4</title>
<path fill="none" stroke="#63b8ff" d="M556.16,-255.63C546.53,-237.05 530.68,-212.59 509.12,-199.5 413.55,-141.46 369.92,-184.65 260.12,-163.5 252.36,-162.01 244.09,-160.16 236.26,-158.31"/>
<polygon fill="#63b8ff" stroke="#63b8ff" points="553.45,-257.06 560.99,-264.5 559.74,-253.98 553.45,-257.06"/>
</g>
<!-- Node15 -->
<g id="node15" class="node">
<title>Node15</title>
<g id="a_node15"><a xlink:href="interpolation__methods_8h.html" target="_top" xlink:title="InterpScheme class methods and supporting functions.">
<polygon fill="white" stroke="#666666" points="760.62,-230 633.62,-230 633.62,-199.5 760.62,-199.5 760.62,-230"/>
<text text-anchor="start" x="641.62" y="-216.5" font-family="Helvetica,sans-Serif" font-size="10.00">tdms/include/interpolation</text>
<text text-anchor="middle" x="697.12" y="-205.25" font-family="Helvetica,sans-Serif" font-size="10.00">_methods.h</text>
</a>
</g>
</g>
<!-- Node14&#45;&gt;Node15 -->
<g id="edge19" class="edge">
<title>Node14&#45;&gt;Node15</title>
<path fill="none" stroke="#63b8ff" d="M606.26,-260.83C626.01,-251.03 649.57,-239.35 667.74,-230.33"/>
<polygon fill="#63b8ff" stroke="#63b8ff" points="605.03,-258.03 597.62,-265.61 608.14,-264.3 605.03,-258.03"/>
</g>
<!-- Node16 -->
<g id="node16" class="node">
<title>Node16</title>
<g id="a_node16"><a xlink:href="test___b_li__vs__cubic__interpolation_8cpp.html" target="_top" xlink:title="Tests the performance of bandlimited interpolation against cubic interpolation.">
<polygon fill="white" stroke="#666666" points="907.25,-163.5 751,-163.5 751,-133 907.25,-133 907.25,-163.5"/>
<text text-anchor="start" x="759" y="-150" font-family="Helvetica,sans-Serif" font-size="10.00">tdms/tests/unit/test</text>
<text text-anchor="middle" x="829.12" y="-138.75" font-family="Helvetica,sans-Serif" font-size="10.00">_BLi_vs_cubic_interpolation.cpp</text>
</a>
</g>
</g>
<!-- Node14&#45;&gt;Node16 -->
<g id="edge24" class="edge">
<title>Node14&#45;&gt;Node16</title>
<path fill="none" stroke="#63b8ff" d="M626.04,-276.39C669.06,-271.16 727.14,-258.86 770.12,-230 795.06,-213.26 813.24,-182.27 822.41,-163.93"/>
<polygon fill="#63b8ff" stroke="#63b8ff" points="625.72,-273.02 616.17,-277.6 626.49,-279.97 625.72,-273.02"/>
</g>
<!-- Node17 -->
<g id="node17" class="node">
<title>Node17</title>
<g id="a_node17"><a xlink:href="test__interpolation__determination_8cpp.html" target="_top" xlink:title="Tests the logic that determines which interpolation schemes are appropriate.">
<polygon fill="white" stroke="#666666" points="577.25,-163.5 421,-163.5 421,-133 577.25,-133 577.25,-163.5"/>
<text text-anchor="start" x="429" y="-150" font-family="Helvetica,sans-Serif" font-size="10.00">tdms/tests/unit/test</text>
<text text-anchor="middle" x="499.12" y="-138.75" font-family="Helvetica,sans-Serif" font-size="10.00">_interpolation_determination.cpp</text>
</a>
</g>
</g>
<!-- Node14&#45;&gt;Node17 -->
<g id="edge25" class="edge">
<title>Node14&#45;&gt;Node17</title>
<path fill="none" stroke="#63b8ff" d="M562.56,-255.02C558.88,-238.52 552.71,-216.88 543.12,-199.5 535.73,-186.1 524.27,-173.16 514.89,-163.76"/>
<polygon fill="#63b8ff" stroke="#63b8ff" points="559.27,-255.42 564.72,-264.51 566.13,-254.01 559.27,-255.42"/>
</g>
<!-- Node18 -->
<g id="node18" class="node">
<title>Node18</title>
<g id="a_node18"><a xlink:href="test__interpolation__functions_8cpp.html" target="_top" xlink:title="Tests the performance of the interpolation functions, using 1D data mimicing a coordinate axes.">
<polygon fill="white" stroke="#666666" points="732.88,-163.5 595.38,-163.5 595.38,-133 732.88,-133 732.88,-163.5"/>
<text text-anchor="start" x="603.38" y="-150" font-family="Helvetica,sans-Serif" font-size="10.00">tdms/tests/unit/test</text>
<text text-anchor="middle" x="664.12" y="-138.75" font-family="Helvetica,sans-Serif" font-size="10.00">_interpolation_functions.cpp</text>
</a>
</g>
</g>
<!-- Node14&#45;&gt;Node18 -->
<g id="edge26" class="edge">
<title>Node14&#45;&gt;Node18</title>
<path fill="none" stroke="#63b8ff" d="M583.05,-256.94C594.29,-240.67 609.84,-218.55 624.12,-199.5 633.36,-187.19 644.26,-173.55 652.35,-163.59"/>
<polygon fill="#63b8ff" stroke="#63b8ff" points="579.76,-254.55 576.97,-264.78 585.52,-258.52 579.76,-254.55"/>
</g>
<!-- Node19 -->
<g id="node19" class="node">
<title>Node19</title>
<g id="a_node19"><a xlink:href="main_8cpp.html" target="_top" xlink:title="The main function. Launches TDMS.">
<polygon fill="white" stroke="#666666" points="500.62,-224.38 403.62,-224.38 403.62,-205.12 500.62,-205.12 500.62,-224.38"/>
<text text-anchor="middle" x="452.12" y="-210.88" font-family="Helvetica,sans-Serif" font-size="10.00">tdms/src/main.cpp</text>
</a>
</g>
</g>
<!-- Node14&#45;&gt;Node19 -->
<g id="edge23" class="edge">
<title>Node14&#45;&gt;Node19</title>
<path fill="none" stroke="#63b8ff" d="M531.67,-260.36C510.47,-248.47 484.55,-233.94 468.19,-224.76"/>
<polygon fill="#63b8ff" stroke="#63b8ff" points="529.6,-263.77 540.03,-265.61 533.02,-257.67 529.6,-263.77"/>
</g>
<!-- Node15&#45;&gt;Node16 -->
<g id="edge20" class="edge">
<title>Node15&#45;&gt;Node16</title>
<path fill="none" stroke="#63b8ff" d="M736.87,-194.33C756.92,-184.53 780.83,-172.85 799.29,-163.83"/>
<polygon fill="#63b8ff" stroke="#63b8ff" points="735.53,-191.58 728.08,-199.11 738.6,-197.87 735.53,-191.58"/>
</g>
<!-- Node15&#45;&gt;Node17 -->
<g id="edge21" class="edge">
<title>Node15&#45;&gt;Node17</title>
<path fill="none" stroke="#63b8ff" d="M642.04,-195.81C611.21,-185.76 573.26,-173.4 544.22,-163.94"/>
<polygon fill="#63b8ff" stroke="#63b8ff" points="640.6,-199.34 651.2,-199.11 642.77,-192.69 640.6,-199.34"/>
</g>
<!-- Node15&#45;&gt;Node18 -->
<g id="edge22" class="edge">
<title>Node15&#45;&gt;Node18</title>
<path fill="none" stroke="#63b8ff" d="M684.72,-189.51C680.3,-180.87 675.46,-171.41 671.58,-163.83"/>
<polygon fill="#63b8ff" stroke="#63b8ff" points="681.97,-190.81 689.64,-198.11 688.2,-187.62 681.97,-190.81"/>
</g>
<!-- Node20&#45;&gt;Node19 -->
<g id="edge32" class="edge">
<title>Node20&#45;&gt;Node19</title>
<path fill="none" stroke="#63b8ff" d="M350.03,-261.16C377.08,-249.13 410.77,-234.15 431.87,-224.76"/>
<polygon fill="#63b8ff" stroke="#63b8ff" points="348.74,-258.35 341.03,-265.61 351.59,-264.75 348.74,-258.35"/>
</g>
<!-- Node21 -->
<g id="node21" class="node">
<title>Node21</title>
<g id="a_node21"><a xlink:href="simulation__parameters_8h.html" target="_top" xlink:title="Classes collecting parameters for the simulation.">
<polygon fill="white" stroke="#666666" points="347.5,-230 228.75,-230 228.75,-199.5 347.5,-199.5 347.5,-230"/>
<text text-anchor="start" x="236.75" y="-216.5" font-family="Helvetica,sans-Serif" font-size="10.00">tdms/include/simulation</text>
<text text-anchor="middle" x="288.12" y="-205.25" font-family="Helvetica,sans-Serif" font-size="10.00">_parameters.h</text>
</a>
</g>
</g>
<!-- Node20&#45;&gt;Node21 -->
<g id="edge28" class="edge">
<title>Node20&#45;&gt;Node21</title>
<path fill="none" stroke="#63b8ff" d="M299.73,-255.16C297.26,-246.75 294.58,-237.66 292.42,-230.33"/>
<polygon fill="#63b8ff" stroke="#63b8ff" points="296.63,-256.01 302.81,-264.61 303.35,-254.03 296.63,-256.01"/>
</g>
<!-- Node21&#45;&gt;Node4 -->
<g id="edge29" class="edge">
<title>Node21&#45;&gt;Node4</title>
<path fill="none" stroke="#63b8ff" d="M259.94,-192.86C244.06,-181.08 225.05,-166.98 213.03,-158.07"/>
<polygon fill="#63b8ff" stroke="#63b8ff" points="257.27,-195.97 267.38,-199.11 261.43,-190.35 257.27,-195.97"/>
</g>
<!-- Node21&#45;&gt;Node5 -->
<g id="edge30" class="edge">
<title>Node21&#45;&gt;Node5</title>
<path fill="none" stroke="#63b8ff" d="M217.85,-207.09C189.54,-200.55 159.52,-187.88 142.12,-163.5 124.02,-138.12 160.11,-106.73 180.88,-91.65"/>
<polygon fill="#63b8ff" stroke="#63b8ff" points="217.09,-210.71 227.59,-209.31 218.5,-203.86 217.09,-210.71"/>
</g>
<!-- Node21&#45;&gt;Node22 -->
<g id="edge31" class="edge">
<title>Node21&#45;&gt;Node22</title>
<path fill="none" stroke="#63b8ff" d="M305.4,-190.54C313.78,-179.27 323.36,-166.41 329.56,-158.07"/>
<polygon fill="#63b8ff" stroke="#63b8ff" points="302.18,-188 299.02,-198.11 307.79,-192.18 302.18,-188"/>
</g>
<!-- Node24&#45;&gt;Node20 -->
<g id="edge35" class="edge">
<title>Node24&#45;&gt;Node20</title>
<path fill="none" stroke="#63b8ff" d="M318.12,-321.66C315.78,-313.25 313.24,-304.16 311.19,-296.83"/>
<polygon fill="#63b8ff" stroke="#63b8ff" points="314.98,-322.42 321.04,-331.11 321.72,-320.54 314.98,-322.42"/>
</g>
</g>
</svg>
