<?xml version="1.0" encoding="UTF-8" standalone="no"?>
<!DOCTYPE svg PUBLIC "-//W3C//DTD SVG 1.1//EN"
 "http://www.w3.org/Graphics/SVG/1.1/DTD/svg11.dtd">
<!-- Generated by graphviz version 13.1.0 (20250701.0955)
 -->
<!-- Title: tdms/include/mat_io.h Pages: 1 -->
<svg width="1013pt" height="426pt"
 viewBox="0.00 0.00 1013.00 426.00" xmlns="http://www.w3.org/2000/svg" xmlns:xlink="http://www.w3.org/1999/xlink">
<g id="graph0" class="graph" transform="scale(1 1) rotate(0) translate(4 422.25)">
<title>tdms/include/mat_io.h</title>
<!-- Node1 -->
<g id="Node000001" class="node">
<title>Node1</title>
<g id="a_Node000001"><a xlink:title="Includes MATLAB headers for I/O.">
<polygon fill="#999999" stroke="#666666" points="458.12,-418.25 346.12,-418.25 346.12,-399 458.12,-399 458.12,-418.25"/>
<text xml:space="preserve" text-anchor="middle" x="402.12" y="-404.75" font-family="Helvetica,sans-Serif" font-size="10.00">tdms/include/mat_io.h</text>
</a>
</g>
</g>
<!-- Node2 -->
<g id="Node000002" class="node">
<title>Node2</title>
<g id="a_Node000002"><a xlink:href="array__init_8h.html" target="_top" xlink:title="A collection of functions for array initialisation given MATLAB pointers.">
<polygon fill="white" stroke="#666666" points="96.25,-97 0,-97 0,-66.5 96.25,-66.5 96.25,-97"/>
<text xml:space="preserve" text-anchor="start" x="8" y="-83.5" font-family="Helvetica,sans-Serif" font-size="10.00">tdms/include/array</text>
<text xml:space="preserve" text-anchor="middle" x="48.12" y="-72.25" font-family="Helvetica,sans-Serif" font-size="10.00">_init.h</text>
</a>
</g>
</g>
<!-- Node1&#45;&gt;Node2 -->
<g id="edge1_Node000001_Node000002" class="edge">
<title>Node1&#45;&gt;Node2</title>
<g id="a_edge1_Node000001_Node000002"><a xlink:title=" ">
<path fill="none" stroke="#63b8ff" d="M334.46,-407.52C276.06,-404.99 190.84,-395.3 124.12,-363 76.35,-339.87 36.12,-335.33 36.12,-282.25 36.12,-282.25 36.12,-282.25 36.12,-213.75 36.13,-171.27 42.46,-121.37 45.92,-97.25"/>
<polygon fill="#63b8ff" stroke="#63b8ff" points="334.13,-411.01 344.25,-407.89 334.39,-404.02 334.13,-411.01"/>
</a>
</g>
</g>
<!-- Node3 -->
<g id="Node000003" class="node">
<title>Node3</title>
<g id="a_Node000003"><a xlink:href="dimensions_8h.html" target="_top" xlink:title="Defines a class that serves as an explicit converter between MATLAB pointers and array dimensions.">
<polygon fill="white" stroke="#666666" points="240.25,-290.88 108,-290.88 108,-271.62 240.25,-271.62 240.25,-290.88"/>
<text xml:space="preserve" text-anchor="middle" x="174.12" y="-277.38" font-family="Helvetica,sans-Serif" font-size="10.00">tdms/include/dimensions.h</text>
</a>
</g>
</g>
<!-- Node1&#45;&gt;Node3 -->
<g id="edge2_Node000001_Node000003" class="edge">
<title>Node1&#45;&gt;Node3</title>
<g id="a_edge2_Node000001_Node000003"><a xlink:title=" ">
<path fill="none" stroke="#63b8ff" d="M338.82,-395.87C311.47,-388.98 279.9,-378.5 254.12,-363 221.66,-343.47 192.89,-307.81 180.54,-291.21"/>
<polygon fill="#63b8ff" stroke="#63b8ff" points="337.84,-399.23 348.38,-398.16 339.47,-392.42 337.84,-399.23"/>
</a>
</g>
</g>
<!-- Node4 -->
<g id="Node000004" class="node">
<title>Node4</title>
<g id="a_Node000004"><a xlink:href="field_8h.html" target="_top" xlink:title="Classes for the electric and magnetic (split) fields on a grid.">
<polygon fill="white" stroke="#666666" points="164.5,-157.88 63.75,-157.88 63.75,-138.62 164.5,-138.62 164.5,-157.88"/>
<text xml:space="preserve" text-anchor="middle" x="114.12" y="-144.38" font-family="Helvetica,sans-Serif" font-size="10.00">tdms/include/field.h</text>
</a>
</g>
</g>
<!-- Node1&#45;&gt;Node4 -->
<g id="edge11_Node000001_Node000004" class="edge">
<title>Node1&#45;&gt;Node4</title>
<g id="a_edge11_Node000001_Node000004"><a xlink:title=" ">
<path fill="none" stroke="#63b8ff" d="M334.58,-406.05C260.48,-400.13 145.86,-377.52 99.12,-296.5 72.54,-250.43 98.76,-182.59 109.77,-158.3"/>
<polygon fill="#63b8ff" stroke="#63b8ff" points="333.93,-409.51 344.15,-406.73 334.42,-402.53 333.93,-409.51"/>
</a>
</g>
</g>
<!-- Node10 -->
<g id="Node000010" class="node">
<title>Node10</title>
<g id="a_Node000010"><a xlink:href="fdtd__grid__initialiser_8h.html" target="_top" xlink:title="Initialisation of the FDTD grid.">
<polygon fill="white" stroke="#666666" points="665.12,-363 553.12,-363 553.12,-332.5 665.12,-332.5 665.12,-363"/>
<text xml:space="preserve" text-anchor="start" x="561.12" y="-349.5" font-family="Helvetica,sans-Serif" font-size="10.00">tdms/include/fdtd_grid</text>
<text xml:space="preserve" text-anchor="middle" x="609.12" y="-338.25" font-family="Helvetica,sans-Serif" font-size="10.00">_initialiser.h</text>
</a>
</g>
</g>
<!-- Node1&#45;&gt;Node10 -->
<g id="edge10_Node000001_Node000010" class="edge">
<title>Node1&#45;&gt;Node10</title>
<g id="a_edge10_Node000001_Node000010"><a xlink:title=" ">
<path fill="none" stroke="#63b8ff" d="M445.02,-395.43C477.69,-386.13 522.8,-373.3 557.46,-363.44"/>
<polygon fill="#63b8ff" stroke="#63b8ff" points="444.13,-392.04 435.47,-398.14 446.05,-398.77 444.13,-392.04"/>
</a>
</g>
</g>
<!-- Node11 -->
<g id="Node000011" class="node">
<title>Node11</title>
<g id="a_Node000011"><a xlink:href="grid__labels_8h.html" target="_top" xlink:title="Class to hold the labels of a Yee cell.">
<polygon fill="white" stroke="#666666" points="1004.75,-157.88 875.5,-157.88 875.5,-138.62 1004.75,-138.62 1004.75,-157.88"/>
<text xml:space="preserve" text-anchor="middle" x="940.12" y="-144.38" font-family="Helvetica,sans-Serif" font-size="10.00">tdms/include/grid_labels.h</text>
</a>
</g>
</g>
<!-- Node1&#45;&gt;Node11 -->
<g id="edge12_Node000001_Node000011" class="edge">
<title>Node1&#45;&gt;Node11</title>
<g id="a_edge12_Node000001_Node000011"><a xlink:title=" ">
<path fill="none" stroke="#63b8ff" d="M428.52,-393.12C456.87,-377.67 503.35,-352.7 544.12,-332.5 686.33,-262.04 860.99,-184.18 919.75,-158.22"/>
<polygon fill="#63b8ff" stroke="#63b8ff" points="427.02,-389.95 419.92,-397.82 430.37,-396.1 427.02,-389.95"/>
</a>
</g>
</g>
<!-- Node12 -->
<g id="Node000012" class="node">
<title>Node12</title>
<g id="a_Node000012"><a xlink:href="input__flags_8h.html" target="_top" xlink:title="Organises enumerated constants, names, and classes for handling flag&#45;variables that are passed to TDM...">
<polygon fill="white" stroke="#666666" points="525.88,-296.5 430.38,-296.5 430.38,-266 525.88,-266 525.88,-296.5"/>
<text xml:space="preserve" text-anchor="start" x="438.38" y="-283" font-family="Helvetica,sans-Serif" font-size="10.00">tdms/include/input</text>
<text xml:space="preserve" text-anchor="middle" x="478.12" y="-271.75" font-family="Helvetica,sans-Serif" font-size="10.00">_flags.h</text>
</a>
</g>
</g>
<!-- Node1&#45;&gt;Node12 -->
<g id="edge15_Node000001_Node000012" class="edge">
<title>Node1&#45;&gt;Node12</title>
<g id="a_edge15_Node000001_Node000012"><a xlink:title=" ">
<path fill="none" stroke="#63b8ff" d="M413.53,-388.81C428.78,-363.65 455.5,-319.57 469.31,-296.8"/>
<polygon fill="#63b8ff" stroke="#63b8ff" points="410.57,-386.95 408.38,-397.31 416.55,-390.58 410.57,-386.95"/>
</a>
</g>
</g>
<!-- Node18 -->
<g id="Node000018" class="node">
<title>Node18</title>
<g id="a_Node000018"><a xlink:href="input__matrices_8h.html" target="_top" xlink:title="Class handling the input matrices that are read in from the input file.">
<polygon fill="white" stroke="#666666" points="364.88,-296.5 269.38,-296.5 269.38,-266 364.88,-266 364.88,-296.5"/>
<text xml:space="preserve" text-anchor="start" x="277.38" y="-283" font-family="Helvetica,sans-Serif" font-size="10.00">tdms/include/input</text>
<text xml:space="preserve" text-anchor="middle" x="317.12" y="-271.75" font-family="Helvetica,sans-Serif" font-size="10.00">_matrices.h</text>
</a>
</g>
</g>
<!-- Node1&#45;&gt;Node18 -->
<g id="edge25_Node000001_Node000018" class="edge">
<title>Node1&#45;&gt;Node18</title>
<g id="a_edge25_Node000001_Node000018"><a xlink:title=" ">
<path fill="none" stroke="#63b8ff" d="M334.59,-402.72C307.88,-397.08 279.65,-385.67 263.12,-363 246.63,-340.38 274.23,-313.14 295.68,-296.79"/>
<polygon fill="#63b8ff" stroke="#63b8ff" points="333.95,-406.16 344.42,-404.53 335.22,-399.28 333.95,-406.16"/>
</a>
</g>
</g>
<!-- Node20 -->
<g id="Node000020" class="node">
<title>Node20</title>
<g id="a_Node000020"><a xlink:href="mesh__base_8h.html" target="_top" xlink:title="Generation of orientated mesh.">
<polygon fill="white" stroke="#666666" points="353.62,-157.88 220.62,-157.88 220.62,-138.62 353.62,-138.62 353.62,-157.88"/>
<text xml:space="preserve" text-anchor="middle" x="287.12" y="-144.38" font-family="Helvetica,sans-Serif" font-size="10.00">tdms/include/mesh_base.h</text>
</a>
</g>
</g>
<!-- Node1&#45;&gt;Node20 -->
<g id="edge34_Node000001_Node000020" class="edge">
<title>Node1&#45;&gt;Node20</title>
<g id="a_edge34_Node000001_Node000020"><a xlink:title=" ">
<path fill="none" stroke="#63b8ff" d="M406.16,-387.51C412.95,-347.8 422.37,-258.14 383.12,-199.5 369.1,-178.55 343.46,-165.77 322.2,-158.34"/>
<polygon fill="#63b8ff" stroke="#63b8ff" points="402.73,-386.78 404.35,-397.25 409.62,-388.06 402.73,-386.78"/>
</a>
</g>
</g>
<!-- Node21 -->
<g id="Node000021" class="node">
<title>Node21</title>
<g id="a_Node000021"><a xlink:href="interface_8h.html" target="_top" xlink:title=" ">
<polygon fill="white" stroke="#666666" points="803.25,-357.38 683,-357.38 683,-338.12 803.25,-338.12 803.25,-357.38"/>
<text xml:space="preserve" text-anchor="middle" x="743.12" y="-343.88" font-family="Helvetica,sans-Serif" font-size="10.00">tdms/include/interface.h</text>
</a>
</g>
</g>
<!-- Node1&#45;&gt;Node21 -->
<g id="edge31_Node000001_Node000021" class="edge">
<title>Node1&#45;&gt;Node21</title>
<g id="a_edge31_Node000001_Node000021"><a xlink:title=" ">
<path fill="none" stroke="#63b8ff" d="M469.88,-397.3C524.99,-388.71 604.72,-375.86 674.12,-363 682.66,-361.42 691.77,-359.62 700.48,-357.84"/>
<polygon fill="#63b8ff" stroke="#63b8ff" points="469.34,-393.84 460,-398.83 470.42,-400.76 469.34,-393.84"/>
</a>
</g>
</g>
<!-- Node22 -->
<g id="Node000022" class="node">
<title>Node22</title>
<g id="a_Node000022"><a xlink:href="matrix__collection_8h.html" target="_top" xlink:title="A collection of named MATLAB matrices.">
<polygon fill="white" stroke="#666666" points="373.88,-363 272.38,-363 272.38,-332.5 373.88,-332.5 373.88,-363"/>
<text xml:space="preserve" text-anchor="start" x="280.38" y="-349.5" font-family="Helvetica,sans-Serif" font-size="10.00">tdms/include/matrix</text>
<text xml:space="preserve" text-anchor="middle" x="323.12" y="-338.25" font-family="Helvetica,sans-Serif" font-size="10.00">_collection.h</text>
</a>
</g>
</g>
<!-- Node1&#45;&gt;Node22 -->
<g id="edge32_Node000001_Node000022" class="edge">
<title>Node1&#45;&gt;Node22</title>
<g id="a_edge32_Node000001_Node000022"><a xlink:title=" ">
<path fill="none" stroke="#63b8ff" d="M380.92,-391.82C369.01,-382.95 354.25,-371.94 342.62,-363.28"/>
<polygon fill="#63b8ff" stroke="#63b8ff" points="378.8,-394.61 388.91,-397.78 382.99,-389 378.8,-394.61"/>
</a>
</g>
</g>
<!-- Node23 -->
<g id="Node000023" class="node">
<title>Node23</title>
<g id="a_Node000023"><a xlink:href="source_8h.html" target="_top" xlink:title=" ">
<polygon fill="white" stroke="#666666" points="933.12,-357.38 821.12,-357.38 821.12,-338.12 933.12,-338.12 933.12,-357.38"/>
<text xml:space="preserve" text-anchor="middle" x="877.12" y="-343.88" font-family="Helvetica,sans-Serif" font-size="10.00">tdms/include/source.h</text>
</a>
</g>
</g>
<!-- Node1&#45;&gt;Node23 -->
<g id="edge35_Node000001_Node000023" class="edge">
<title>Node1&#45;&gt;Node23</title>
<g id="a_edge35_Node000001_Node000023"><a xlink:title=" ">
<path fill="none" stroke="#63b8ff" d="M469.52,-402.52C551,-395.84 692.17,-382.62 812.12,-363 820.9,-361.56 830.28,-359.7 839.11,-357.8"/>
<polygon fill="#63b8ff" stroke="#63b8ff" points="469.61,-399 459.93,-403.3 470.18,-405.98 469.61,-399"/>
</a>
</g>
</g>
<!-- Node3&#45;&gt;Node4 -->
<g id="edge3_Node000003_Node000004" class="edge">
<title>Node3&#45;&gt;Node4</title>
<g id="a_edge3_Node000003_Node000004"><a xlink:title=" ">
<path fill="none" stroke="#63b8ff" d="M155.77,-263.24C147.04,-254.17 137.21,-242.36 131.12,-230 119.22,-205.84 115.63,-173.61 114.57,-158.2"/>
<polygon fill="#63b8ff" stroke="#63b8ff" points="153.29,-265.71 162.87,-270.24 158.2,-260.73 153.29,-265.71"/>
</a>
</g>
</g>
<!-- Node4&#45;&gt;Node2 -->
<g id="edge4_Node000004_Node000002" class="edge">
<title>Node4&#45;&gt;Node2</title>
<g id="a_edge4_Node000004_Node000002"><a xlink:title=" ">
<path fill="none" stroke="#63b8ff" d="M96.86,-130.37C86.27,-120.03 72.87,-106.93 62.8,-97.09"/>
<polygon fill="#63b8ff" stroke="#63b8ff" points="94.27,-132.74 103.87,-137.22 99.16,-127.73 94.27,-132.74"/>
</a>
</g>
</g>
<!-- Node5 -->
<g id="Node000005" class="node">
<title>Node5</title>
<g id="a_Node000005"><a xlink:href="fieldsample_8h.html" target="_top" xlink:title="Class that stores the extracted field values at user&#45;defined vertices.">
<polygon fill="white" stroke="#666666" points="252.25,-91.38 120,-91.38 120,-72.12 252.25,-72.12 252.25,-91.38"/>
<text xml:space="preserve" text-anchor="middle" x="186.12" y="-77.88" font-family="Helvetica,sans-Serif" font-size="10.00">tdms/include/fieldsample.h</text>
</a>
</g>
</g>
<!-- Node4&#45;&gt;Node5 -->
<g id="edge5_Node000004_Node000005" class="edge">
<title>Node4&#45;&gt;Node5</title>
<g id="a_edge5_Node000004_Node000005"><a xlink:title=" ">
<path fill="none" stroke="#63b8ff" d="M132.48,-130.81C146.38,-118.36 164.95,-101.72 176.2,-91.64"/>
<polygon fill="#63b8ff" stroke="#63b8ff" points="130.38,-127.99 125.26,-137.27 135.05,-133.21 130.38,-127.99"/>
</a>
</g>
</g>
<!-- Node7 -->
<g id="Node000007" class="node">
<title>Node7</title>
<g id="a_Node000007"><a xlink:href="surface__phasors_8h.html" target="_top" xlink:title="Contains a class that handles the complex amplitude extraction.">
<polygon fill="white" stroke="#666666" points="624.5,-97 517.75,-97 517.75,-66.5 624.5,-66.5 624.5,-97"/>
<text xml:space="preserve" text-anchor="start" x="525.75" y="-83.5" font-family="Helvetica,sans-Serif" font-size="10.00">tdms/include/surface</text>
<text xml:space="preserve" text-anchor="middle" x="571.12" y="-72.25" font-family="Helvetica,sans-Serif" font-size="10.00">_phasors.h</text>
</a>
</g>
</g>
<!-- Node4&#45;&gt;Node7 -->
<g id="edge7_Node000004_Node000007" class="edge">
<title>Node4&#45;&gt;Node7</title>
<g id="a_edge7_Node000004_Node000007"><a xlink:title=" ">
<path fill="none" stroke="#63b8ff" d="M176.22,-138.17C188.14,-136.44 200.52,-134.66 212.12,-133 320.38,-117.55 447.06,-99.93 517.29,-90.19"/>
<polygon fill="#63b8ff" stroke="#63b8ff" points="175.87,-134.68 166.48,-139.58 176.88,-141.61 175.87,-134.68"/>
</a>
</g>
</g>
<!-- Node8 -->
<g id="Node000008" class="node">
<title>Node8</title>
<g id="a_Node000008"><a xlink:href="vertex__phasors_8h.html" target="_top" xlink:title="Contains a class that handles the complex amplitude extraction at the vertices.">
<polygon fill="white" stroke="#666666" points="866.88,-97 765.38,-97 765.38,-66.5 866.88,-66.5 866.88,-97"/>
<text xml:space="preserve" text-anchor="start" x="773.38" y="-83.5" font-family="Helvetica,sans-Serif" font-size="10.00">tdms/include/vertex</text>
<text xml:space="preserve" text-anchor="middle" x="816.12" y="-72.25" font-family="Helvetica,sans-Serif" font-size="10.00">_phasors.h</text>
</a>
</g>
</g>
<!-- Node4&#45;&gt;Node8 -->
<g id="edge8_Node000004_Node000008" class="edge">
<title>Node4&#45;&gt;Node8</title>
<g id="a_edge8_Node000004_Node000008"><a xlink:title=" ">
<path fill="none" stroke="#63b8ff" d="M176.16,-137.64C188.08,-135.96 200.47,-134.33 212.12,-133 266.36,-126.81 629.49,-97.64 765.14,-86.81"/>
<polygon fill="#63b8ff" stroke="#63b8ff" points="175.81,-134.16 166.41,-139.04 176.81,-141.09 175.81,-134.16"/>
</a>
</g>
</g>
<!-- Node6 -->
<g id="Node000006" class="node">
<title>Node6</title>
<g id="a_Node000006"><a xlink:href="test___field_sample_8cpp.html" target="_top" xlink:title="Unit tests for the FieldSample class and its subclasses.">
<polygon fill="white" stroke="#666666" points="236.5,-30.5 135.75,-30.5 135.75,0 236.5,0 236.5,-30.5"/>
<text xml:space="preserve" text-anchor="start" x="143.75" y="-17" font-family="Helvetica,sans-Serif" font-size="10.00">tdms/tests/unit/test</text>
<text xml:space="preserve" text-anchor="middle" x="186.12" y="-5.75" font-family="Helvetica,sans-Serif" font-size="10.00">_FieldSample.cpp</text>
</a>
</g>
</g>
<!-- Node5&#45;&gt;Node6 -->
<g id="edge6_Node000005_Node000006" class="edge">
<title>Node5&#45;&gt;Node6</title>
<g id="a_edge6_Node000005_Node000006"><a xlink:title=" ">
<path fill="none" stroke="#63b8ff" d="M186.12,-60.37C186.12,-50.69 186.12,-39.35 186.12,-30.59"/>
<polygon fill="#63b8ff" stroke="#63b8ff" points="182.63,-60.27 186.13,-70.27 189.63,-60.27 182.63,-60.27"/>
</a>
</g>
</g>
<!-- Node9 -->
<g id="Node000009" class="node">
<title>Node9</title>
<g id="a_Node000009"><a xlink:href="test___vertex_phasors_8cpp.html" target="_top" xlink:title="Unit tests for the VertexPhasors class.">
<polygon fill="white" stroke="#666666" points="868.38,-30.5 763.88,-30.5 763.88,0 868.38,0 868.38,-30.5"/>
<text xml:space="preserve" text-anchor="start" x="771.88" y="-17" font-family="Helvetica,sans-Serif" font-size="10.00">tdms/tests/unit/test</text>
<text xml:space="preserve" text-anchor="middle" x="816.12" y="-5.75" font-family="Helvetica,sans-Serif" font-size="10.00">_VertexPhasors.cpp</text>
</a>
</g>
</g>
<!-- Node8&#45;&gt;Node9 -->
<g id="edge9_Node000008_Node000009" class="edge">
<title>Node8&#45;&gt;Node9</title>
<g id="a_edge9_Node000008_Node000009"><a xlink:title=" ">
<path fill="none" stroke="#63b8ff" d="M816.12,-54.81C816.12,-46.64 816.12,-37.91 816.12,-30.83"/>
<polygon fill="#63b8ff" stroke="#63b8ff" points="812.63,-54.6 816.13,-64.6 819.63,-54.6 812.63,-54.6"/>
</a>
</g>
</g>
<!-- Node11&#45;&gt;Node7 -->
<g id="edge13_Node000011_Node000007" class="edge">
<title>Node11&#45;&gt;Node7</title>
<g id="a_edge13_Node000011_Node000007"><a xlink:title=" ">
<path fill="none" stroke="#63b8ff" d="M882.37,-136C876.88,-134.97 871.4,-133.96 866.12,-133 781.91,-117.72 683.91,-101.3 624.75,-91.53"/>
<polygon fill="#63b8ff" stroke="#63b8ff" points="881.61,-139.42 892.09,-137.85 882.91,-132.54 881.61,-139.42"/>
</a>
</g>
</g>
<!-- Node11&#45;&gt;Node8 -->
<g id="edge14_Node000011_Node000008" class="edge">
<title>Node11&#45;&gt;Node8</title>
<g id="a_edge14_Node000011_Node000008"><a xlink:title=" ">
<path fill="none" stroke="#63b8ff" d="M912.42,-132.84C892.05,-122.24 864.47,-107.9 844.05,-97.28"/>
<polygon fill="#63b8ff" stroke="#63b8ff" points="910.79,-135.94 921.28,-137.45 914.02,-129.73 910.79,-135.94"/>
</a>
</g>
</g>
<!-- Node12&#45;&gt;Node4 -->
<g id="edge16_Node000012_Node000004" class="edge">
<title>Node12&#45;&gt;Node4</title>
<g id="a_edge16_Node000012_Node000004"><a xlink:title=" ">
<path fill="none" stroke="#63b8ff" d="M457.9,-257.44C440.09,-238.86 412.48,-213.48 383.12,-199.5 363.72,-190.25 237.28,-168.96 164.86,-157.28"/>
<polygon fill="#63b8ff" stroke="#63b8ff" points="455.18,-259.66 464.56,-264.58 460.3,-254.88 455.18,-259.66"/>
</a>
</g>
</g>
<!-- Node13 -->
<g id="Node000013" class="node">
<title>Node13</title>
<g id="a_Node000013"><a xlink:href="interpolation__methods_8h.html" target="_top" xlink:title="InterpScheme class methods and supporting functions.">
<polygon fill="white" stroke="#666666" points="633.62,-230 506.62,-230 506.62,-199.5 633.62,-199.5 633.62,-230"/>
<text xml:space="preserve" text-anchor="start" x="514.62" y="-216.5" font-family="Helvetica,sans-Serif" font-size="10.00">tdms/include/interpolation</text>
<text xml:space="preserve" text-anchor="middle" x="570.12" y="-205.25" font-family="Helvetica,sans-Serif" font-size="10.00">_methods.h</text>
</a>
</g>
</g>
<!-- Node12&#45;&gt;Node13 -->
<g id="edge17_Node000012_Node000013" class="edge">
<title>Node12&#45;&gt;Node13</title>
<g id="a_edge17_Node000012_Node000013"><a xlink:title=" ">
<path fill="none" stroke="#63b8ff" d="M508.34,-259.07C521.76,-249.66 537.23,-238.81 549.33,-230.33"/>
<polygon fill="#63b8ff" stroke="#63b8ff" points="506.42,-256.14 500.24,-264.75 510.44,-261.87 506.42,-256.14"/>
</a>
</g>
</g>
<!-- Node14 -->
<g id="Node000014" class="node">
<title>Node14</title>
<g id="a_Node000014"><a xlink:href="test___b_li__vs__cubic__interpolation_8cpp.html" target="_top" xlink:title="Tests the performance of bandlimited interpolation against cubic interpolation.">
<polygon fill="white" stroke="#666666" points="683.25,-163.5 527,-163.5 527,-133 683.25,-133 683.25,-163.5"/>
<text xml:space="preserve" text-anchor="start" x="535" y="-150" font-family="Helvetica,sans-Serif" font-size="10.00">tdms/tests/unit/test</text>
<text xml:space="preserve" text-anchor="middle" x="605.12" y="-138.75" font-family="Helvetica,sans-Serif" font-size="10.00">_BLi_vs_cubic_interpolation.cpp</text>
</a>
</g>
</g>
<!-- Node12&#45;&gt;Node14 -->
<g id="edge22_Node000012_Node000014" class="edge">
<title>Node12&#45;&gt;Node14</title>
<g id="a_edge22_Node000012_Node000014"><a xlink:title=" ">
<path fill="none" stroke="#63b8ff" d="M537.34,-279C574.17,-274.77 618.98,-262.6 643.12,-230 658.62,-209.08 637.41,-180.84 621,-163.9"/>
<polygon fill="#63b8ff" stroke="#63b8ff" points="537.32,-275.49 527.7,-279.93 537.99,-282.45 537.32,-275.49"/>
</a>
</g>
</g>
<!-- Node15 -->
<g id="Node000015" class="node">
<title>Node15</title>
<g id="a_Node000015"><a xlink:href="test__interpolation__determination_8cpp.html" target="_top" xlink:title="Tests the logic that determines which interpolation schemes are appropriate.">
<polygon fill="white" stroke="#666666" points="857.25,-163.5 701,-163.5 701,-133 857.25,-133 857.25,-163.5"/>
<text xml:space="preserve" text-anchor="start" x="709" y="-150" font-family="Helvetica,sans-Serif" font-size="10.00">tdms/tests/unit/test</text>
<text xml:space="preserve" text-anchor="middle" x="779.12" y="-138.75" font-family="Helvetica,sans-Serif" font-size="10.00">_interpolation_determination.cpp</text>
</a>
</g>
</g>
<!-- Node12&#45;&gt;Node15 -->
<g id="edge23_Node000012_Node000015" class="edge">
<title>Node12&#45;&gt;Node15</title>
<g id="a_edge23_Node000012_Node000015"><a xlink:title=" ">
<path fill="none" stroke="#63b8ff" d="M536.95,-269.13C573.46,-261 620.75,-248.19 660.12,-230 699.11,-211.99 739.43,-181.73 761.69,-163.81"/>
<polygon fill="#63b8ff" stroke="#63b8ff" points="536.5,-265.65 527.47,-271.19 537.99,-272.49 536.5,-265.65"/>
</a>
</g>
</g>
<!-- Node16 -->
<g id="Node000016" class="node">
<title>Node16</title>
<g id="a_Node000016"><a xlink:href="test__interpolation__functions_8cpp.html" target="_top" xlink:title="Tests the performance of the interpolation functions, using 1D data mimicing a coordinate axes.">
<polygon fill="white" stroke="#666666" points="508.88,-163.5 371.38,-163.5 371.38,-133 508.88,-133 508.88,-163.5"/>
<text xml:space="preserve" text-anchor="start" x="379.38" y="-150" font-family="Helvetica,sans-Serif" font-size="10.00">tdms/tests/unit/test</text>
<text xml:space="preserve" text-anchor="middle" x="440.12" y="-138.75" font-family="Helvetica,sans-Serif" font-size="10.00">_interpolation_functions.cpp</text>
</a>
</g>
</g>
<!-- Node12&#45;&gt;Node16 -->
<g id="edge24_Node000012_Node000016" class="edge">
<title>Node12&#45;&gt;Node16</title>
<g id="a_edge24_Node000012_Node000016"><a xlink:title=" ">
<path fill="none" stroke="#63b8ff" d="M470.74,-254.79C462.88,-227.71 450.73,-185.81 444.36,-163.83"/>
<polygon fill="#63b8ff" stroke="#63b8ff" points="467.34,-255.65 473.49,-264.28 474.07,-253.7 467.34,-255.65"/>
</a>
</g>
</g>
<!-- Node17 -->
<g id="Node000017" class="node">
<title>Node17</title>
<g id="a_Node000017"><a xlink:href="main_8cpp.html" target="_top" xlink:title="The main function. Launches TDMS.">
<polygon fill="white" stroke="#666666" points="373.62,-224.38 276.62,-224.38 276.62,-205.12 373.62,-205.12 373.62,-224.38"/>
<text xml:space="preserve" text-anchor="middle" x="325.12" y="-210.88" font-family="Helvetica,sans-Serif" font-size="10.00">tdms/src/main.cpp</text>
</a>
</g>
</g>
<!-- Node12&#45;&gt;Node17 -->
<g id="edge21_Node000012_Node000017" class="edge">
<title>Node12&#45;&gt;Node17</title>
<g id="a_edge21_Node000012_Node000017"><a xlink:title=" ">
<path fill="none" stroke="#63b8ff" d="M432.85,-261.16C404.31,-249.13 368.76,-234.15 346.5,-224.76"/>
<polygon fill="#63b8ff" stroke="#63b8ff" points="431.44,-264.37 442.01,-265.03 434.16,-257.92 431.44,-264.37"/>
</a>
</g>
</g>
<!-- Node13&#45;&gt;Node14 -->
<g id="edge18_Node000013_Node000014" class="edge">
<title>Node13&#45;&gt;Node14</title>
<g id="a_edge18_Node000013_Node000014"><a xlink:title=" ">
<path fill="none" stroke="#63b8ff" d="M583.43,-189.23C588.08,-180.66 593.15,-171.32 597.21,-163.83"/>
<polygon fill="#63b8ff" stroke="#63b8ff" points="580.48,-187.32 578.79,-197.78 586.63,-190.66 580.48,-187.32"/>
</a>
</g>
</g>
<!-- Node13&#45;&gt;Node15 -->
<g id="edge19_Node000013_Node000015" class="edge">
<title>Node13&#45;&gt;Node15</title>
<g id="a_edge19_Node000013_Node000015"><a xlink:title=" ">
<path fill="none" stroke="#63b8ff" d="M628.53,-195.72C661.07,-185.68 701.05,-173.34 731.64,-163.9"/>
<polygon fill="#63b8ff" stroke="#63b8ff" points="627.78,-192.29 619.26,-198.59 629.85,-198.98 627.78,-192.29"/>
</a>
</g>
</g>
<!-- Node13&#45;&gt;Node16 -->
<g id="edge20_Node000013_Node000016" class="edge">
<title>Node13&#45;&gt;Node16</title>
<g id="a_edge20_Node000013_Node000016"><a xlink:title=" ">
<path fill="none" stroke="#63b8ff" d="M530.44,-194.06C510.81,-184.32 487.52,-172.76 469.51,-163.83"/>
<polygon fill="#63b8ff" stroke="#63b8ff" points="528.76,-197.13 539.27,-198.44 531.87,-190.86 528.76,-197.13"/>
</a>
</g>
</g>
<!-- Node18&#45;&gt;Node17 -->
<g id="edge30_Node000018_Node000017" class="edge">
<title>Node18&#45;&gt;Node17</title>
<g id="a_edge30_Node000018_Node000017"><a xlink:title=" ">
<path fill="none" stroke="#63b8ff" d="M320.34,-254.34C321.65,-243.76 323.08,-232.25 324.03,-224.57"/>
<polygon fill="#63b8ff" stroke="#63b8ff" points="316.88,-253.76 319.13,-264.11 323.83,-254.62 316.88,-253.76"/>
</a>
</g>
</g>
<!-- Node19 -->
<g id="Node000019" class="node">
<title>Node19</title>
<g id="a_Node000019"><a xlink:href="simulation__parameters_8h.html" target="_top" xlink:title="Classes collecting parameters for the simulation.">
<polygon fill="white" stroke="#666666" points="258.5,-230 139.75,-230 139.75,-199.5 258.5,-199.5 258.5,-230"/>
<text xml:space="preserve" text-anchor="start" x="147.75" y="-216.5" font-family="Helvetica,sans-Serif" font-size="10.00">tdms/include/simulation</text>
<text xml:space="preserve" text-anchor="middle" x="199.12" y="-205.25" font-family="Helvetica,sans-Serif" font-size="10.00">_parameters.h</text>
</a>
</g>
</g>
<!-- Node18&#45;&gt;Node19 -->
<g id="edge26_Node000018_Node000019" class="edge">
<title>Node18&#45;&gt;Node19</title>
<g id="a_edge26_Node000018_Node000019"><a xlink:title=" ">
<path fill="none" stroke="#63b8ff" d="M280.37,-260.16C262.7,-250.5 241.92,-239.14 225.8,-230.33"/>
<polygon fill="#63b8ff" stroke="#63b8ff" points="278.57,-263.16 289.02,-264.89 281.92,-257.02 278.57,-263.16"/>
</a>
</g>
</g>
<!-- Node19&#45;&gt;Node4 -->
<g id="edge27_Node000019_Node000004" class="edge">
<title>Node19&#45;&gt;Node4</title>
<g id="a_edge27_Node000019_Node000004"><a xlink:title=" ">
<path fill="none" stroke="#63b8ff" d="M170.73,-192.2C155.38,-180.56 137.28,-166.82 125.75,-158.07"/>
<polygon fill="#63b8ff" stroke="#63b8ff" points="168.55,-194.94 178.63,-198.2 172.78,-189.37 168.55,-194.94"/>
</a>
</g>
</g>
<!-- Node19&#45;&gt;Node5 -->
<g id="edge28_Node000019_Node000005" class="edge">
<title>Node19&#45;&gt;Node5</title>
<g id="a_edge28_Node000019_Node000005"><a xlink:title=" ">
<path fill="none" stroke="#63b8ff" d="M196.58,-188.13C193.65,-158.57 188.98,-111.51 187.03,-91.85"/>
<polygon fill="#63b8ff" stroke="#63b8ff" points="193.06,-188.12 197.53,-197.72 200.03,-187.43 193.06,-188.12"/>
</a>
</g>
</g>
<!-- Node19&#45;&gt;Node20 -->
<g id="edge29_Node000019_Node000020" class="edge">
<title>Node19&#45;&gt;Node20</title>
<g id="a_edge29_Node000019_Node000020"><a xlink:title=" ">
<path fill="none" stroke="#63b8ff" d="M228.02,-192.57C243.9,-180.93 262.76,-167.11 274.83,-158.26"/>
<polygon fill="#63b8ff" stroke="#63b8ff" points="226.31,-189.48 220.31,-198.22 230.45,-195.13 226.31,-189.48"/>
</a>
</g>
</g>
<!-- Node22&#45;&gt;Node18 -->
<g id="edge33_Node000022_Node000018" class="edge">
<title>Node22&#45;&gt;Node18</title>
<g id="a_edge33_Node000022_Node000018"><a xlink:title=" ">
<path fill="none" stroke="#63b8ff" d="M320.71,-320.81C319.95,-312.64 319.14,-303.91 318.48,-296.83"/>
<polygon fill="#63b8ff" stroke="#63b8ff" points="317.21,-320.97 321.62,-330.61 324.18,-320.33 317.21,-320.97"/>
</a>
</g>
</g>
</g>
</svg>
