<?xml version="1.0" encoding="UTF-8" standalone="no"?>
<!DOCTYPE svg PUBLIC "-//W3C//DTD SVG 1.1//EN"
 "http://www.w3.org/Graphics/SVG/1.1/DTD/svg11.dtd">
<!-- Generated by graphviz version 8.0.2 (20230410.1723)
 -->
<!-- Title: tdms/include/mat_io.h Pages: 1 -->
<svg width="1033pt" height="412pt"
 viewBox="0.00 0.00 1033.00 412.00" xmlns="http://www.w3.org/2000/svg" xmlns:xlink="http://www.w3.org/1999/xlink">
<g id="graph0" class="graph" transform="scale(1 1) rotate(0) translate(4 408)">
<title>tdms/include/mat_io.h</title>
<!-- Node1 -->
<g id="node1" class="node">
<title>Node1</title>
<g id="a_node1"><a xlink:title="Includes MATLAB headers for I/O.">
<polygon fill="#999999" stroke="#666666" points="499,-404 386,-404 386,-385 499,-385 499,-404"/>
<text text-anchor="middle" x="442.5" y="-392" font-family="Helvetica,sans-Serif" font-size="10.00">tdms/include/mat_io.h</text>
</a>
</g>
</g>
<!-- Node2 -->
<g id="node2" class="node">
<title>Node2</title>
<g id="a_node2"><a xlink:href="array__init_8h.html" target="_top" xlink:title="A collection of functions for array initialisation given MATLAB pointers.">
<polygon fill="white" stroke="#666666" points="97,-96 0,-96 0,-66 97,-66 97,-96"/>
<text text-anchor="start" x="8" y="-84" font-family="Helvetica,sans-Serif" font-size="10.00">tdms/include/array</text>
<text text-anchor="middle" x="48.5" y="-73" font-family="Helvetica,sans-Serif" font-size="10.00">_init.h</text>
</a>
</g>
</g>
<!-- Node1&#45;&gt;Node2 -->
<g id="edge1" class="edge">
<title>Node1&#45;&gt;Node2</title>
<path fill="none" stroke="#63b8ff" d="M374.74,-387.75C254.77,-375.69 17.5,-342.53 17.5,-269 17.5,-269 17.5,-269 17.5,-201 17.5,-162.14 33.17,-118.39 42.23,-96.34"/>
<polygon fill="#63b8ff" stroke="#63b8ff" points="374.33,-391.33 384.62,-388.82 375.01,-384.36 374.33,-391.33"/>
</g>
<!-- Node3 -->
<g id="node3" class="node">
<title>Node3</title>
<g id="a_node3"><a xlink:href="dimensions_8h.html" target="_top" xlink:title="Defines a class that serves as an explicit converter between MATLAB pointers and array dimensions.">
<polygon fill="white" stroke="#666666" points="179,-277.5 46,-277.5 46,-258.5 179,-258.5 179,-277.5"/>
<text text-anchor="middle" x="112.5" y="-265.5" font-family="Helvetica,sans-Serif" font-size="10.00">tdms/include/dimensions.h</text>
</a>
</g>
</g>
<!-- Node1&#45;&gt;Node3 -->
<g id="edge2" class="edge">
<title>Node1&#45;&gt;Node3</title>
<path fill="none" stroke="#63b8ff" d="M374.73,-392.19C322.59,-388.7 250.11,-378.33 193.5,-349 159.63,-331.45 130.79,-294.89 118.65,-277.96"/>
<polygon fill="#63b8ff" stroke="#63b8ff" points="374.35,-395.73 384.54,-392.83 374.76,-388.75 374.35,-395.73"/>
</g>
<!-- Node4 -->
<g id="node4" class="node">
<title>Node4</title>
<g id="a_node4"><a xlink:href="field_8h.html" target="_top" xlink:title="Classes for the electric and magnetic (split) fields on a grid.">
<polygon fill="white" stroke="#666666" points="219,-151 118,-151 118,-132 219,-132 219,-151"/>
<text text-anchor="middle" x="168.5" y="-139" font-family="Helvetica,sans-Serif" font-size="10.00">tdms/include/field.h</text>
</a>
</g>
</g>
<!-- Node1&#45;&gt;Node4 -->
<g id="edge11" class="edge">
<title>Node1&#45;&gt;Node4</title>
<path fill="none" stroke="#63b8ff" d="M375.18,-387.65C340.09,-381.99 297.86,-370.86 265.5,-349 250.47,-338.85 175.22,-234.21 169.5,-217 161.91,-194.17 164.82,-165.19 166.98,-151.04"/>
<polygon fill="#63b8ff" stroke="#63b8ff" points="374.42,-391.22 384.82,-389.23 375.45,-384.3 374.42,-391.22"/>
</g>
<!-- Node10 -->
<g id="node10" class="node">
<title>Node10</title>
<g id="a_node10"><a xlink:href="fdtd__grid__initialiser_8h.html" target="_top" xlink:title="Initialisation of the FDTD grid.">
<polygon fill="white" stroke="#666666" points="622,-349 509,-349 509,-319 622,-319 622,-349"/>
<text text-anchor="start" x="517" y="-337" font-family="Helvetica,sans-Serif" font-size="10.00">tdms/include/fdtd_grid</text>
<text text-anchor="middle" x="565.5" y="-326" font-family="Helvetica,sans-Serif" font-size="10.00">_initialiser.h</text>
</a>
</g>
</g>
<!-- Node1&#45;&gt;Node10 -->
<g id="edge10" class="edge">
<title>Node1&#45;&gt;Node10</title>
<path fill="none" stroke="#63b8ff" d="M470.88,-380C490.12,-370.85 515.5,-358.78 535.14,-349.44"/>
<polygon fill="#63b8ff" stroke="#63b8ff" points="469.71,-377.16 462.18,-384.62 472.71,-383.48 469.71,-377.16"/>
</g>
<!-- Node11 -->
<g id="node11" class="node">
<title>Node11</title>
<g id="a_node11"><a xlink:href="grid__labels_8h.html" target="_top" xlink:title="Class to hold the labels of a Yee cell.">
<polygon fill="white" stroke="#666666" points="557.5,-151 427.5,-151 427.5,-132 557.5,-132 557.5,-151"/>
<text text-anchor="middle" x="492.5" y="-139" font-family="Helvetica,sans-Serif" font-size="10.00">tdms/include/grid_labels.h</text>
</a>
</g>
</g>
<!-- Node1&#45;&gt;Node11 -->
<g id="edge12" class="edge">
<title>Node1&#45;&gt;Node11</title>
<path fill="none" stroke="#63b8ff" d="M449.09,-374.49C451.64,-366.66 454.44,-357.46 456.5,-349 474.91,-273.33 487.7,-179.87 491.4,-151.24"/>
<polygon fill="#63b8ff" stroke="#63b8ff" points="445.51,-373.14 445.64,-383.73 452.15,-375.37 445.51,-373.14"/>
</g>
<!-- Node12 -->
<g id="node12" class="node">
<title>Node12</title>
<g id="a_node12"><a xlink:href="input__matrices_8h.html" target="_top" xlink:title="Class handling the input matrices that are read in from the input file.">
<polygon fill="white" stroke="#666666" points="388.5,-283 292.5,-283 292.5,-253 388.5,-253 388.5,-283"/>
<text text-anchor="start" x="300.5" y="-271" font-family="Helvetica,sans-Serif" font-size="10.00">tdms/include/input</text>
<text text-anchor="middle" x="340.5" y="-260" font-family="Helvetica,sans-Serif" font-size="10.00">_matrices.h</text>
</a>
</g>
</g>
<!-- Node1&#45;&gt;Node12 -->
<g id="edge15" class="edge">
<title>Node1&#45;&gt;Node12</title>
<path fill="none" stroke="#63b8ff" d="M429.83,-376.15C418.53,-360.85 401.35,-338.09 385.5,-319 375.2,-306.6 362.93,-293.04 353.81,-283.17"/>
<polygon fill="#63b8ff" stroke="#63b8ff" points="427.31,-377.62 436.05,-383.61 432.95,-373.48 427.31,-377.62"/>
</g>
<!-- Node14 -->
<g id="node14" class="node">
<title>Node14</title>
<g id="a_node14"><a xlink:href="mesh__base_8h.html" target="_top" xlink:title="Generation of orientated mesh.">
<polygon fill="white" stroke="#666666" points="409.5,-151 275.5,-151 275.5,-132 409.5,-132 409.5,-151"/>
<text text-anchor="middle" x="342.5" y="-139" font-family="Helvetica,sans-Serif" font-size="10.00">tdms/include/mesh_base.h</text>
</a>
</g>
</g>
<!-- Node1&#45;&gt;Node14 -->
<g id="edge24" class="edge">
<title>Node1&#45;&gt;Node14</title>
<path fill="none" stroke="#63b8ff" d="M446.3,-374.11C452.83,-335.1 462.04,-245.82 423.5,-187 411.98,-169.42 391.04,-158.18 373.34,-151.39"/>
<polygon fill="#63b8ff" stroke="#63b8ff" points="442.72,-373.25 444.38,-383.71 449.6,-374.5 442.72,-373.25"/>
</g>
<!-- Node16 -->
<g id="node16" class="node">
<title>Node16</title>
<g id="a_node16"><a xlink:href="interface_8h.html" target="_top" xlink:title=" ">
<polygon fill="white" stroke="#666666" points="761,-343.5 640,-343.5 640,-324.5 761,-324.5 761,-343.5"/>
<text text-anchor="middle" x="700.5" y="-331.5" font-family="Helvetica,sans-Serif" font-size="10.00">tdms/include/interface.h</text>
</a>
</g>
</g>
<!-- Node1&#45;&gt;Node16 -->
<g id="edge21" class="edge">
<title>Node1&#45;&gt;Node16</title>
<path fill="none" stroke="#63b8ff" d="M492.68,-382.12C541.88,-370.97 615.9,-354.18 661.04,-343.95"/>
<polygon fill="#63b8ff" stroke="#63b8ff" points="491.94,-378.93 482.97,-384.55 493.49,-385.75 491.94,-378.93"/>
</g>
<!-- Node17 -->
<g id="node17" class="node">
<title>Node17</title>
<g id="a_node17"><a xlink:href="matrix__collection_8h.html" target="_top" xlink:title="A collection of named MATLAB matrices.">
<polygon fill="white" stroke="#666666" points="376.5,-349 274.5,-349 274.5,-319 376.5,-319 376.5,-349"/>
<text text-anchor="start" x="282.5" y="-337" font-family="Helvetica,sans-Serif" font-size="10.00">tdms/include/matrix</text>
<text text-anchor="middle" x="325.5" y="-326" font-family="Helvetica,sans-Serif" font-size="10.00">_collection.h</text>
</a>
</g>
</g>
<!-- Node1&#45;&gt;Node17 -->
<g id="edge22" class="edge">
<title>Node1&#45;&gt;Node17</title>
<path fill="none" stroke="#63b8ff" d="M414.99,-379.75C396.76,-370.63 372.88,-358.69 354.38,-349.44"/>
<polygon fill="#63b8ff" stroke="#63b8ff" points="413.22,-383.27 423.73,-384.62 416.35,-377.01 413.22,-383.27"/>
</g>
<!-- Node18 -->
<g id="node18" class="node">
<title>Node18</title>
<g id="a_node18"><a xlink:href="shapes_8h_source.html" target="_top" xlink:title=" ">
<polygon fill="white" stroke="#666666" points="894,-343.5 779,-343.5 779,-324.5 894,-324.5 894,-343.5"/>
<text text-anchor="middle" x="836.5" y="-331.5" font-family="Helvetica,sans-Serif" font-size="10.00">tdms/include/shapes.h</text>
</a>
</g>
</g>
<!-- Node1&#45;&gt;Node18 -->
<g id="edge25" class="edge">
<title>Node1&#45;&gt;Node18</title>
<path fill="none" stroke="#63b8ff" d="M510.03,-385.82C576.5,-377.92 680.8,-364.58 770.5,-349 778.92,-347.54 787.91,-345.77 796.45,-343.99"/>
<polygon fill="#63b8ff" stroke="#63b8ff" points="509.81,-382.44 500.29,-387.09 510.63,-389.39 509.81,-382.44"/>
</g>
<!-- Node19 -->
<g id="node19" class="node">
<title>Node19</title>
<g id="a_node19"><a xlink:href="source_8h.html" target="_top" xlink:title=" ">
<polygon fill="white" stroke="#666666" points="1025,-343.5 912,-343.5 912,-324.5 1025,-324.5 1025,-343.5"/>
<text text-anchor="middle" x="968.5" y="-331.5" font-family="Helvetica,sans-Serif" font-size="10.00">tdms/include/source.h</text>
</a>
</g>
</g>
<!-- Node1&#45;&gt;Node19 -->
<g id="edge26" class="edge">
<title>Node1&#45;&gt;Node19</title>
<path fill="none" stroke="#63b8ff" d="M510.06,-389.44C600.18,-383.46 764.49,-370.6 903.5,-349 912.28,-347.63 921.66,-345.82 930.49,-343.96"/>
<polygon fill="#63b8ff" stroke="#63b8ff" points="509.93,-386.01 500.18,-390.15 510.39,-392.99 509.93,-386.01"/>
</g>
<!-- Node3&#45;&gt;Node4 -->
<g id="edge3" class="edge">
<title>Node3&#45;&gt;Node4</title>
<path fill="none" stroke="#63b8ff" d="M116.4,-247.67C120.19,-231.04 126.81,-206.68 136.5,-187 143.06,-173.68 153.5,-160.07 160.67,-151.47"/>
<polygon fill="#63b8ff" stroke="#63b8ff" points="112.81,-246.73 114.13,-257.24 119.65,-248.2 112.81,-246.73"/>
</g>
<!-- Node4&#45;&gt;Node2 -->
<g id="edge4" class="edge">
<title>Node4&#45;&gt;Node2</title>
<path fill="none" stroke="#63b8ff" d="M140.55,-126.87C121.82,-117.74 97.19,-105.74 78.12,-96.44"/>
<polygon fill="#63b8ff" stroke="#63b8ff" points="138.75,-130.38 149.27,-131.62 141.82,-124.09 138.75,-130.38"/>
</g>
<!-- Node5 -->
<g id="node5" class="node">
<title>Node5</title>
<g id="a_node5"><a xlink:href="fieldsample_8h.html" target="_top" xlink:title="Class that stores the extracted field values at user&#45;defined vertices.">
<polygon fill="white" stroke="#666666" points="267,-90.5 134,-90.5 134,-71.5 267,-71.5 267,-90.5"/>
<text text-anchor="middle" x="200.5" y="-78.5" font-family="Helvetica,sans-Serif" font-size="10.00">tdms/include/fieldsample.h</text>
</a>
</g>
</g>
<!-- Node4&#45;&gt;Node5 -->
<g id="edge5" class="edge">
<title>Node4&#45;&gt;Node5</title>
<path fill="none" stroke="#63b8ff" d="M178.44,-122.32C184.21,-111.78 191.21,-98.98 195.76,-90.67"/>
<polygon fill="#63b8ff" stroke="#63b8ff" points="174.95,-120.42 173.22,-130.87 181.09,-123.77 174.95,-120.42"/>
</g>
<!-- Node7 -->
<g id="node7" class="node">
<title>Node7</title>
<g id="a_node7"><a xlink:href="surface__phasors_8h.html" target="_top" xlink:title="Contains a class that handles the complex amplitude extraction.">
<polygon fill="white" stroke="#666666" points="537,-96 430,-96 430,-66 537,-66 537,-96"/>
<text text-anchor="start" x="438" y="-84" font-family="Helvetica,sans-Serif" font-size="10.00">tdms/include/surface</text>
<text text-anchor="middle" x="483.5" y="-73" font-family="Helvetica,sans-Serif" font-size="10.00">_phasors.h</text>
</a>
</g>
</g>
<!-- Node4&#45;&gt;Node7 -->
<g id="edge7" class="edge">
<title>Node4&#45;&gt;Node7</title>
<path fill="none" stroke="#63b8ff" d="M229.82,-129.57C279.2,-120.7 350.36,-107.79 412.5,-96 418.05,-94.95 423.85,-93.83 429.63,-92.71"/>
<polygon fill="#63b8ff" stroke="#63b8ff" points="229.23,-126.3 220.01,-131.51 230.47,-133.19 229.23,-126.3"/>
</g>
<!-- Node8 -->
<g id="node8" class="node">
<title>Node8</title>
<g id="a_node8"><a xlink:href="vertex__phasors_8h.html" target="_top" xlink:title="Contains a class that handles the complex amplitude extraction at the vertices.">
<polygon fill="white" stroke="#666666" points="403.5,-96 301.5,-96 301.5,-66 403.5,-66 403.5,-96"/>
<text text-anchor="start" x="309.5" y="-84" font-family="Helvetica,sans-Serif" font-size="10.00">tdms/include/vertex</text>
<text text-anchor="middle" x="352.5" y="-73" font-family="Helvetica,sans-Serif" font-size="10.00">_phasors.h</text>
</a>
</g>
</g>
<!-- Node4&#45;&gt;Node8 -->
<g id="edge8" class="edge">
<title>Node4&#45;&gt;Node8</title>
<path fill="none" stroke="#63b8ff" d="M206.66,-128.37C235.86,-119.08 276.22,-106.25 307.08,-96.44"/>
<polygon fill="#63b8ff" stroke="#63b8ff" points="205.92,-125.25 197.45,-131.62 208.04,-131.92 205.92,-125.25"/>
</g>
<!-- Node6 -->
<g id="node6" class="node">
<title>Node6</title>
<g id="a_node6"><a xlink:href="test___field_sample_8cpp.html" target="_top" xlink:title="Unit tests for the FieldSample class and its subclasses.">
<polygon fill="white" stroke="#666666" points="251,-30 150,-30 150,0 251,0 251,-30"/>
<text text-anchor="start" x="158" y="-18" font-family="Helvetica,sans-Serif" font-size="10.00">tdms/tests/unit/test</text>
<text text-anchor="middle" x="200.5" y="-7" font-family="Helvetica,sans-Serif" font-size="10.00">_FieldSample.cpp</text>
</a>
</g>
</g>
<!-- Node5&#45;&gt;Node6 -->
<g id="edge6" class="edge">
<title>Node5&#45;&gt;Node6</title>
<path fill="none" stroke="#63b8ff" d="M200.5,-60.42C200.5,-50.68 200.5,-39.12 200.5,-30.23"/>
<polygon fill="#63b8ff" stroke="#63b8ff" points="197,-60.1 200.5,-70.1 204,-60.1 197,-60.1"/>
</g>
<!-- Node9 -->
<g id="node9" class="node">
<title>Node9</title>
<g id="a_node9"><a xlink:href="test___vertex_phasors_8cpp.html" target="_top" xlink:title="Unit tests for the VertexPhasors class.">
<polygon fill="white" stroke="#666666" points="405,-30 300,-30 300,0 405,0 405,-30"/>
<text text-anchor="start" x="308" y="-18" font-family="Helvetica,sans-Serif" font-size="10.00">tdms/tests/unit/test</text>
<text text-anchor="middle" x="352.5" y="-7" font-family="Helvetica,sans-Serif" font-size="10.00">_VertexPhasors.cpp</text>
</a>
</g>
</g>
<!-- Node8&#45;&gt;Node9 -->
<g id="edge9" class="edge">
<title>Node8&#45;&gt;Node9</title>
<path fill="none" stroke="#63b8ff" d="M352.5,-54.97C352.5,-46.55 352.5,-37.45 352.5,-30.16"/>
<polygon fill="#63b8ff" stroke="#63b8ff" points="349,-54.8 352.5,-64.8 356,-54.8 349,-54.8"/>
</g>
<!-- Node11&#45;&gt;Node7 -->
<g id="edge13" class="edge">
<title>Node11&#45;&gt;Node7</title>
<path fill="none" stroke="#63b8ff" d="M489.51,-121.08C488.26,-112.92 486.82,-103.6 485.67,-96.11"/>
<polygon fill="#63b8ff" stroke="#63b8ff" points="486.19,-121.52 491.17,-130.87 493.11,-120.45 486.19,-121.52"/>
</g>
<!-- Node11&#45;&gt;Node8 -->
<g id="edge14" class="edge">
<title>Node11&#45;&gt;Node8</title>
<path fill="none" stroke="#63b8ff" d="M461.1,-127.38C439.1,-118.19 409.71,-105.91 387.06,-96.44"/>
<polygon fill="#63b8ff" stroke="#63b8ff" points="459.66,-130.99 470.24,-131.62 462.36,-124.53 459.66,-130.99"/>
</g>
<!-- Node13 -->
<g id="node13" class="node">
<title>Node13</title>
<g id="a_node13"><a xlink:href="simulation__parameters_8h.html" target="_top" xlink:title="Classes collecting parameters for the simulation.">
<polygon fill="white" stroke="#666666" points="414,-217 295,-217 295,-187 414,-187 414,-217"/>
<text text-anchor="start" x="303" y="-205" font-family="Helvetica,sans-Serif" font-size="10.00">tdms/include/simulation</text>
<text text-anchor="middle" x="354.5" y="-194" font-family="Helvetica,sans-Serif" font-size="10.00">_parameters.h</text>
</a>
</g>
</g>
<!-- Node12&#45;&gt;Node13 -->
<g id="edge16" class="edge">
<title>Node12&#45;&gt;Node13</title>
<path fill="none" stroke="#63b8ff" d="M345.91,-242.25C347.77,-233.75 349.79,-224.53 351.4,-217.16"/>
<polygon fill="#63b8ff" stroke="#63b8ff" points="342.32,-241.28 343.61,-251.8 349.16,-242.78 342.32,-241.28"/>
</g>
<!-- Node15 -->
<g id="node15" class="node">
<title>Node15</title>
<g id="a_node15"><a xlink:href="main_8cpp.html" target="_top" xlink:title="The main function. Launches TDMS.">
<polygon fill="white" stroke="#666666" points="276.5,-211.5 178.5,-211.5 178.5,-192.5 276.5,-192.5 276.5,-211.5"/>
<text text-anchor="middle" x="227.5" y="-199.5" font-family="Helvetica,sans-Serif" font-size="10.00">tdms/src/main.cpp</text>
</a>
</g>
</g>
<!-- Node12&#45;&gt;Node15 -->
<g id="edge20" class="edge">
<title>Node12&#45;&gt;Node15</title>
<path fill="none" stroke="#63b8ff" d="M305.66,-247.27C284.86,-235.49 259.45,-221.1 243.37,-211.99"/>
<polygon fill="#63b8ff" stroke="#63b8ff" points="303.71,-250.75 314.14,-252.64 307.16,-244.66 303.71,-250.75"/>
</g>
<!-- Node13&#45;&gt;Node4 -->
<g id="edge17" class="edge">
<title>Node13&#45;&gt;Node4</title>
<path fill="none" stroke="#63b8ff" d="M298.4,-183.35C264.9,-172.82 223.78,-159.89 196.9,-151.43"/>
<polygon fill="#63b8ff" stroke="#63b8ff" points="296.93,-186.88 307.52,-186.54 299.03,-180.2 296.93,-186.88"/>
</g>
<!-- Node13&#45;&gt;Node5 -->
<g id="edge18" class="edge">
<title>Node13&#45;&gt;Node5</title>
<path fill="none" stroke="#63b8ff" d="M314.76,-181.61C299.08,-173.16 281.3,-162.54 266.5,-151 242.44,-132.25 218.87,-104.81 207.52,-90.85"/>
<polygon fill="#63b8ff" stroke="#63b8ff" points="312.74,-185.02 323.21,-186.58 315.99,-178.83 312.74,-185.02"/>
</g>
<!-- Node13&#45;&gt;Node14 -->
<g id="edge19" class="edge">
<title>Node13&#45;&gt;Node14</title>
<path fill="none" stroke="#63b8ff" d="M349.35,-175.88C347.54,-167.06 345.62,-157.72 344.28,-151.18"/>
<polygon fill="#63b8ff" stroke="#63b8ff" points="346.1,-176.45 351.53,-185.54 352.95,-175.04 346.1,-176.45"/>
</g>
<!-- Node17&#45;&gt;Node12 -->
<g id="edge23" class="edge">
<title>Node17&#45;&gt;Node12</title>
<path fill="none" stroke="#63b8ff" d="M331.3,-308.25C333.29,-299.75 335.45,-290.53 337.18,-283.16"/>
<polygon fill="#63b8ff" stroke="#63b8ff" points="327.7,-307.26 328.83,-317.8 334.52,-308.86 327.7,-307.26"/>
</g>
</g>
</svg>
