<?xml version="1.0" encoding="UTF-8" standalone="no"?>
<!DOCTYPE svg PUBLIC "-//W3C//DTD SVG 1.1//EN"
 "http://www.w3.org/Graphics/SVG/1.1/DTD/svg11.dtd">
<!-- Generated by graphviz version 8.0.5 (20230430.1635)
 -->
<!-- Title: tdms/include/mat_io.h Pages: 1 -->
<svg width="1013pt" height="426pt"
 viewBox="0.00 0.00 1012.75 426.25" xmlns="http://www.w3.org/2000/svg" xmlns:xlink="http://www.w3.org/1999/xlink">
<g id="graph0" class="graph" transform="scale(1 1) rotate(0) translate(4 422.25)">
<title>tdms/include/mat_io.h</title>
<!-- Node1 -->
<g id="node1" class="node">
<title>Node1</title>
<g id="a_node1"><a xlink:title="Includes MATLAB headers for I/O.">
<polygon fill="#999999" stroke="#666666" points="458.12,-418.25 346.12,-418.25 346.12,-399 458.12,-399 458.12,-418.25"/>
<text text-anchor="middle" x="402.12" y="-404.75" font-family="Helvetica,sans-Serif" font-size="10.00">tdms/include/mat_io.h</text>
</a>
</g>
</g>
<!-- Node2 -->
<g id="node2" class="node">
<title>Node2</title>
<g id="a_node2"><a xlink:href="array__init_8h.html" target="_top" xlink:title="A collection of functions for array initialisation given MATLAB pointers.">
<polygon fill="white" stroke="#666666" points="96.25,-97 0,-97 0,-66.5 96.25,-66.5 96.25,-97"/>
<text text-anchor="start" x="8" y="-83.5" font-family="Helvetica,sans-Serif" font-size="10.00">tdms/include/array</text>
<text text-anchor="middle" x="48.12" y="-72.25" font-family="Helvetica,sans-Serif" font-size="10.00">_init.h</text>
</a>
</g>
</g>
<!-- Node1&#45;&gt;Node2 -->
<g id="edge1" class="edge">
<title>Node1&#45;&gt;Node2</title>
<path fill="none" stroke="#63b8ff" d="M334.84,-407.39C276.68,-404.77 191.73,-395.03 125.12,-363 76.99,-339.85 36.12,-335.66 36.12,-282.25 36.12,-282.25 36.12,-282.25 36.12,-213.75 36.12,-171.27 42.46,-121.37 45.92,-97.25"/>
<polygon fill="#63b8ff" stroke="#63b8ff" points="334.61,-410.92 344.74,-407.81 334.88,-403.93 334.61,-410.92"/>
</g>
<!-- Node3 -->
<g id="node3" class="node">
<title>Node3</title>
<g id="a_node3"><a xlink:href="dimensions_8h.html" target="_top" xlink:title="Defines a class that serves as an explicit converter between MATLAB pointers and array dimensions.">
<polygon fill="white" stroke="#666666" points="240.25,-290.88 108,-290.88 108,-271.62 240.25,-271.62 240.25,-290.88"/>
<text text-anchor="middle" x="174.12" y="-277.38" font-family="Helvetica,sans-Serif" font-size="10.00">tdms/include/dimensions.h</text>
</a>
</g>
</g>
<!-- Node1&#45;&gt;Node3 -->
<g id="edge2" class="edge">
<title>Node1&#45;&gt;Node3</title>
<path fill="none" stroke="#63b8ff" d="M338.75,-396.11C311.11,-389.26 279.15,-378.73 253.12,-363 220.9,-343.52 192.57,-307.84 180.43,-291.21"/>
<polygon fill="#63b8ff" stroke="#63b8ff" points="337.57,-399.67 348.11,-398.56 339.18,-392.86 337.57,-399.67"/>
</g>
<!-- Node4 -->
<g id="node4" class="node">
<title>Node4</title>
<g id="a_node4"><a xlink:href="field_8h.html" target="_top" xlink:title="Classes for the electric and magnetic (split) fields on a grid.">
<polygon fill="white" stroke="#666666" points="164.5,-157.88 63.75,-157.88 63.75,-138.62 164.5,-138.62 164.5,-157.88"/>
<text text-anchor="middle" x="114.12" y="-144.38" font-family="Helvetica,sans-Serif" font-size="10.00">tdms/include/field.h</text>
</a>
</g>
</g>
<!-- Node1&#45;&gt;Node4 -->
<g id="edge11" class="edge">
<title>Node1&#45;&gt;Node4</title>
<path fill="none" stroke="#63b8ff" d="M335.25,-406.18C261.07,-400.41 145.72,-377.98 99.12,-296.5 72.72,-250.32 98.82,-182.55 109.78,-158.29"/>
<polygon fill="#63b8ff" stroke="#63b8ff" points="334.66,-409.71 344.88,-406.91 335.14,-402.73 334.66,-409.71"/>
</g>
<!-- Node10 -->
<g id="node10" class="node">
<title>Node10</title>
<g id="a_node10"><a xlink:href="fdtd__grid__initialiser_8h.html" target="_top" xlink:title="Initialisation of the FDTD grid.">
<polygon fill="white" stroke="#666666" points="665.12,-363 553.12,-363 553.12,-332.5 665.12,-332.5 665.12,-363"/>
<text text-anchor="start" x="561.12" y="-349.5" font-family="Helvetica,sans-Serif" font-size="10.00">tdms/include/fdtd_grid</text>
<text text-anchor="middle" x="609.12" y="-338.25" font-family="Helvetica,sans-Serif" font-size="10.00">_initialiser.h</text>
</a>
</g>
</g>
<!-- Node1&#45;&gt;Node10 -->
<g id="edge10" class="edge">
<title>Node1&#45;&gt;Node10</title>
<path fill="none" stroke="#63b8ff" d="M444.59,-395.55C477.29,-386.25 522.65,-373.35 557.46,-363.44"/>
<polygon fill="#63b8ff" stroke="#63b8ff" points="443.68,-392.45 435.02,-398.55 445.59,-399.19 443.68,-392.45"/>
</g>
<!-- Node11 -->
<g id="node11" class="node">
<title>Node11</title>
<g id="a_node11"><a xlink:href="grid__labels_8h.html" target="_top" xlink:title="Class to hold the labels of a Yee cell.">
<polygon fill="white" stroke="#666666" points="1004.75,-157.88 875.5,-157.88 875.5,-138.62 1004.75,-138.62 1004.75,-157.88"/>
<text text-anchor="middle" x="940.12" y="-144.38" font-family="Helvetica,sans-Serif" font-size="10.00">tdms/include/grid_labels.h</text>
</a>
</g>
</g>
<!-- Node1&#45;&gt;Node11 -->
<g id="edge12" class="edge">
<title>Node1&#45;&gt;Node11</title>
<path fill="none" stroke="#63b8ff" d="M428.15,-393.32C456.46,-377.89 503.17,-352.79 544.12,-332.5 686.33,-262.04 860.99,-184.18 919.75,-158.22"/>
<polygon fill="#63b8ff" stroke="#63b8ff" points="426.69,-390.68 419.59,-398.55 430.05,-396.82 426.69,-390.68"/>
</g>
<!-- Node12 -->
<g id="node12" class="node">
<title>Node12</title>
<g id="a_node12"><a xlink:href="input__flags_8h.html" target="_top" xlink:title="Organises enumerated constants, names, and classes for handling flag&#45;variables that are passed to TDM...">
<polygon fill="white" stroke="#666666" points="525.88,-296.5 430.38,-296.5 430.38,-266 525.88,-266 525.88,-296.5"/>
<text text-anchor="start" x="438.38" y="-283" font-family="Helvetica,sans-Serif" font-size="10.00">tdms/include/input</text>
<text text-anchor="middle" x="478.12" y="-271.75" font-family="Helvetica,sans-Serif" font-size="10.00">_flags.h</text>
</a>
</g>
</g>
<!-- Node1&#45;&gt;Node12 -->
<g id="edge15" class="edge">
<title>Node1&#45;&gt;Node12</title>
<path fill="none" stroke="#63b8ff" d="M413.12,-389.48C428.3,-364.44 455.38,-319.78 469.31,-296.8"/>
<polygon fill="#63b8ff" stroke="#63b8ff" points="409.78,-387.24 407.59,-397.61 415.77,-390.87 409.78,-387.24"/>
</g>
<!-- Node18 -->
<g id="node18" class="node">
<title>Node18</title>
<g id="a_node18"><a xlink:href="input__matrices_8h.html" target="_top" xlink:title="Class handling the input matrices that are read in from the input file.">
<polygon fill="white" stroke="#666666" points="364.88,-296.5 269.38,-296.5 269.38,-266 364.88,-266 364.88,-296.5"/>
<text text-anchor="start" x="277.38" y="-283" font-family="Helvetica,sans-Serif" font-size="10.00">tdms/include/input</text>
<text text-anchor="middle" x="317.12" y="-271.75" font-family="Helvetica,sans-Serif" font-size="10.00">_matrices.h</text>
</a>
</g>
</g>
<!-- Node1&#45;&gt;Node18 -->
<g id="edge25" class="edge">
<title>Node1&#45;&gt;Node18</title>
<path fill="none" stroke="#63b8ff" d="M335.3,-402.87C308.38,-397.28 279.8,-385.87 263.12,-363 246.63,-340.38 274.23,-313.14 295.68,-296.79"/>
<polygon fill="#63b8ff" stroke="#63b8ff" points="334.44,-406.46 344.91,-404.81 335.7,-399.57 334.44,-406.46"/>
</g>
<!-- Node20 -->
<g id="node20" class="node">
<title>Node20</title>
<g id="a_node20"><a xlink:href="mesh__base_8h.html" target="_top" xlink:title="Generation of orientated mesh.">
<polygon fill="white" stroke="#666666" points="353.62,-157.88 220.62,-157.88 220.62,-138.62 353.62,-138.62 353.62,-157.88"/>
<text text-anchor="middle" x="287.12" y="-144.38" font-family="Helvetica,sans-Serif" font-size="10.00">tdms/include/mesh_base.h</text>
</a>
</g>
</g>
<!-- Node1&#45;&gt;Node20 -->
<g id="edge34" class="edge">
<title>Node1&#45;&gt;Node20</title>
<path fill="none" stroke="#63b8ff" d="M406.07,-388.02C412.87,-348.58 422.54,-258.4 383.12,-199.5 369.1,-178.55 343.46,-165.77 322.2,-158.34"/>
<polygon fill="#63b8ff" stroke="#63b8ff" points="402.47,-387.27 404.07,-397.74 409.35,-388.55 402.47,-387.27"/>
</g>
<!-- Node21 -->
<g id="node21" class="node">
<title>Node21</title>
<g id="a_node21"><a xlink:href="interface_8h.html" target="_top" xlink:title=" ">
<polygon fill="white" stroke="#666666" points="803.25,-357.38 683,-357.38 683,-338.12 803.25,-338.12 803.25,-357.38"/>
<text text-anchor="middle" x="743.12" y="-343.88" font-family="Helvetica,sans-Serif" font-size="10.00">tdms/include/interface.h</text>
</a>
</g>
</g>
<!-- Node1&#45;&gt;Node21 -->
<g id="edge31" class="edge">
<title>Node1&#45;&gt;Node21</title>
<path fill="none" stroke="#63b8ff" d="M469.19,-397.41C524.32,-388.82 604.43,-375.91 674.12,-363 682.66,-361.42 691.77,-359.62 700.48,-357.84"/>
<polygon fill="#63b8ff" stroke="#63b8ff" points="468.85,-394.07 459.5,-399.07 469.92,-400.99 468.85,-394.07"/>
</g>
<!-- Node22 -->
<g id="node22" class="node">
<title>Node22</title>
<g id="a_node22"><a xlink:href="matrix__collection_8h.html" target="_top" xlink:title="A collection of named MATLAB matrices.">
<polygon fill="white" stroke="#666666" points="373.88,-363 272.38,-363 272.38,-332.5 373.88,-332.5 373.88,-363"/>
<text text-anchor="start" x="280.38" y="-349.5" font-family="Helvetica,sans-Serif" font-size="10.00">tdms/include/matrix</text>
<text text-anchor="middle" x="323.12" y="-338.25" font-family="Helvetica,sans-Serif" font-size="10.00">_collection.h</text>
</a>
</g>
</g>
<!-- Node1&#45;&gt;Node22 -->
<g id="edge32" class="edge">
<title>Node1&#45;&gt;Node22</title>
<path fill="none" stroke="#63b8ff" d="M381.63,-392.35C369.6,-383.39 354.48,-372.12 342.62,-363.28"/>
<polygon fill="#63b8ff" stroke="#63b8ff" points="379.02,-395.51 389.13,-398.68 383.2,-389.9 379.02,-395.51"/>
</g>
<!-- Node23 -->
<g id="node23" class="node">
<title>Node23</title>
<g id="a_node23"><a xlink:href="source_8h.html" target="_top" xlink:title=" ">
<polygon fill="white" stroke="#666666" points="933.12,-357.38 821.12,-357.38 821.12,-338.12 933.12,-338.12 933.12,-357.38"/>
<text text-anchor="middle" x="877.12" y="-343.88" font-family="Helvetica,sans-Serif" font-size="10.00">tdms/include/source.h</text>
</a>
</g>
</g>
<!-- Node1&#45;&gt;Node23 -->
<g id="edge35" class="edge">
<title>Node1&#45;&gt;Node23</title>
<path fill="none" stroke="#63b8ff" d="M469.02,-402.57C550.43,-395.9 691.92,-382.66 812.12,-363 820.9,-361.56 830.28,-359.7 839.11,-357.8"/>
<polygon fill="#63b8ff" stroke="#63b8ff" points="469.11,-399.13 459.42,-403.42 469.67,-406.1 469.11,-399.13"/>
</g>
<!-- Node3&#45;&gt;Node4 -->
<g id="edge3" class="edge">
<title>Node3&#45;&gt;Node4</title>
<path fill="none" stroke="#63b8ff" d="M156.31,-263.8C147.45,-254.67 137.34,-242.62 131.12,-230 119.22,-205.84 115.63,-173.61 114.57,-158.2"/>
<polygon fill="#63b8ff" stroke="#63b8ff" points="153.36,-265.79 162.94,-270.3 158.27,-260.8 153.36,-265.79"/>
</g>
<!-- Node4&#45;&gt;Node2 -->
<g id="edge4" class="edge">
<title>Node4&#45;&gt;Node2</title>
<path fill="none" stroke="#63b8ff" d="M97.17,-130.68C86.54,-120.29 72.97,-107.03 62.8,-97.09"/>
<polygon fill="#63b8ff" stroke="#63b8ff" points="94.35,-132.8 103.95,-137.28 99.24,-127.79 94.35,-132.8"/>
</g>
<!-- Node5 -->
<g id="node5" class="node">
<title>Node5</title>
<g id="a_node5"><a xlink:href="fieldsample_8h.html" target="_top" xlink:title="Class that stores the extracted field values at user&#45;defined vertices.">
<polygon fill="white" stroke="#666666" points="252.25,-91.38 120,-91.38 120,-72.12 252.25,-72.12 252.25,-91.38"/>
<text text-anchor="middle" x="186.12" y="-77.88" font-family="Helvetica,sans-Serif" font-size="10.00">tdms/include/fieldsample.h</text>
</a>
</g>
</g>
<!-- Node4&#45;&gt;Node5 -->
<g id="edge5" class="edge">
<title>Node4&#45;&gt;Node5</title>
<path fill="none" stroke="#63b8ff" d="M132.08,-131.17C146.03,-118.67 164.84,-101.81 176.2,-91.64"/>
<polygon fill="#63b8ff" stroke="#63b8ff" points="130.25,-128 125.14,-137.28 134.92,-133.22 130.25,-128"/>
</g>
<!-- Node7 -->
<g id="node7" class="node">
<title>Node7</title>
<g id="a_node7"><a xlink:href="surface__phasors_8h.html" target="_top" xlink:title="Contains a class that handles the complex amplitude extraction.">
<polygon fill="white" stroke="#666666" points="624.5,-97 517.75,-97 517.75,-66.5 624.5,-66.5 624.5,-97"/>
<text text-anchor="start" x="525.75" y="-83.5" font-family="Helvetica,sans-Serif" font-size="10.00">tdms/include/surface</text>
<text text-anchor="middle" x="571.12" y="-72.25" font-family="Helvetica,sans-Serif" font-size="10.00">_phasors.h</text>
</a>
</g>
</g>
<!-- Node4&#45;&gt;Node7 -->
<g id="edge7" class="edge">
<title>Node4&#45;&gt;Node7</title>
<path fill="none" stroke="#63b8ff" d="M175.85,-138.22C187.88,-136.48 200.4,-134.67 212.12,-133 320.38,-117.55 447.06,-99.93 517.29,-90.19"/>
<polygon fill="#63b8ff" stroke="#63b8ff" points="175.37,-134.9 165.98,-139.8 176.38,-141.83 175.37,-134.9"/>
</g>
<!-- Node8 -->
<g id="node8" class="node">
<title>Node8</title>
<g id="a_node8"><a xlink:href="vertex__phasors_8h.html" target="_top" xlink:title="Contains a class that handles the complex amplitude extraction at the vertices.">
<polygon fill="white" stroke="#666666" points="866.88,-97 765.38,-97 765.38,-66.5 866.88,-66.5 866.88,-97"/>
<text text-anchor="start" x="773.38" y="-83.5" font-family="Helvetica,sans-Serif" font-size="10.00">tdms/include/vertex</text>
<text text-anchor="middle" x="816.12" y="-72.25" font-family="Helvetica,sans-Serif" font-size="10.00">_phasors.h</text>
</a>
</g>
</g>
<!-- Node4&#45;&gt;Node8 -->
<g id="edge8" class="edge">
<title>Node4&#45;&gt;Node8</title>
<path fill="none" stroke="#63b8ff" d="M175.79,-137.7C187.82,-136 200.35,-134.34 212.12,-133 266.36,-126.81 629.49,-97.64 765.14,-86.81"/>
<polygon fill="#63b8ff" stroke="#63b8ff" points="175.31,-134.37 165.91,-139.26 176.31,-141.3 175.31,-134.37"/>
</g>
<!-- Node6 -->
<g id="node6" class="node">
<title>Node6</title>
<g id="a_node6"><a xlink:href="test___field_sample_8cpp.html" target="_top" xlink:title="Unit tests for the FieldSample class and its subclasses.">
<polygon fill="white" stroke="#666666" points="236.5,-30.5 135.75,-30.5 135.75,0 236.5,0 236.5,-30.5"/>
<text text-anchor="start" x="143.75" y="-17" font-family="Helvetica,sans-Serif" font-size="10.00">tdms/tests/unit/test</text>
<text text-anchor="middle" x="186.12" y="-5.75" font-family="Helvetica,sans-Serif" font-size="10.00">_FieldSample.cpp</text>
</a>
</g>
</g>
<!-- Node5&#45;&gt;Node6 -->
<g id="edge6" class="edge">
<title>Node5&#45;&gt;Node6</title>
<path fill="none" stroke="#63b8ff" d="M186.12,-61.02C186.12,-51.2 186.12,-39.55 186.12,-30.59"/>
<polygon fill="#63b8ff" stroke="#63b8ff" points="182.63,-60.78 186.12,-70.78 189.63,-60.78 182.63,-60.78"/>
</g>
<!-- Node9 -->
<g id="node9" class="node">
<title>Node9</title>
<g id="a_node9"><a xlink:href="test___vertex_phasors_8cpp.html" target="_top" xlink:title="Unit tests for the VertexPhasors class.">
<polygon fill="white" stroke="#666666" points="868.38,-30.5 763.88,-30.5 763.88,0 868.38,0 868.38,-30.5"/>
<text text-anchor="start" x="771.88" y="-17" font-family="Helvetica,sans-Serif" font-size="10.00">tdms/tests/unit/test</text>
<text text-anchor="middle" x="816.12" y="-5.75" font-family="Helvetica,sans-Serif" font-size="10.00">_VertexPhasors.cpp</text>
</a>
</g>
</g>
<!-- Node8&#45;&gt;Node9 -->
<g id="edge9" class="edge">
<title>Node8&#45;&gt;Node9</title>
<path fill="none" stroke="#63b8ff" d="M816.12,-55.38C816.12,-47.05 816.12,-38.08 816.12,-30.83"/>
<polygon fill="#63b8ff" stroke="#63b8ff" points="812.63,-55.11 816.12,-65.11 819.63,-55.11 812.63,-55.11"/>
</g>
<!-- Node11&#45;&gt;Node7 -->
<g id="edge13" class="edge">
<title>Node11&#45;&gt;Node7</title>
<path fill="none" stroke="#63b8ff" d="M882.8,-136.08C877.17,-135.03 871.54,-133.98 866.12,-133 781.91,-117.72 683.91,-101.3 624.75,-91.53"/>
<polygon fill="#63b8ff" stroke="#63b8ff" points="882.1,-139.7 892.57,-138.13 883.4,-132.83 882.1,-139.7"/>
</g>
<!-- Node11&#45;&gt;Node8 -->
<g id="edge14" class="edge">
<title>Node11&#45;&gt;Node8</title>
<path fill="none" stroke="#63b8ff" d="M912.98,-133.13C892.56,-122.51 864.66,-108 844.05,-97.28"/>
<polygon fill="#63b8ff" stroke="#63b8ff" points="911.14,-136.64 921.62,-138.15 914.37,-130.43 911.14,-136.64"/>
</g>
<!-- Node12&#45;&gt;Node4 -->
<g id="edge16" class="edge">
<title>Node12&#45;&gt;Node4</title>
<path fill="none" stroke="#63b8ff" d="M458.14,-257.69C440.34,-239.09 412.61,-213.55 383.12,-199.5 363.72,-190.25 237.28,-168.96 164.86,-157.28"/>
<polygon fill="#63b8ff" stroke="#63b8ff" points="455.22,-259.76 464.59,-264.69 460.34,-254.99 455.22,-259.76"/>
</g>
<!-- Node13 -->
<g id="node13" class="node">
<title>Node13</title>
<g id="a_node13"><a xlink:href="interpolation__methods_8h.html" target="_top" xlink:title="InterpScheme class methods and supporting functions.">
<polygon fill="white" stroke="#666666" points="633.62,-230 506.62,-230 506.62,-199.5 633.62,-199.5 633.62,-230"/>
<text text-anchor="start" x="514.62" y="-216.5" font-family="Helvetica,sans-Serif" font-size="10.00">tdms/include/interpolation</text>
<text text-anchor="middle" x="570.12" y="-205.25" font-family="Helvetica,sans-Serif" font-size="10.00">_methods.h</text>
</a>
</g>
</g>
<!-- Node12&#45;&gt;Node13 -->
<g id="edge17" class="edge">
<title>Node12&#45;&gt;Node13</title>
<path fill="none" stroke="#63b8ff" d="M507.95,-259.34C521.46,-249.87 537.11,-238.89 549.33,-230.33"/>
<polygon fill="#63b8ff" stroke="#63b8ff" points="506.18,-257.01 500,-265.61 510.2,-262.74 506.18,-257.01"/>
</g>
<!-- Node14 -->
<g id="node14" class="node">
<title>Node14</title>
<g id="a_node14"><a xlink:href="test___b_li__vs__cubic__interpolation_8cpp.html" target="_top" xlink:title="Tests the performance of bandlimited interpolation against cubic interpolation.">
<polygon fill="white" stroke="#666666" points="683.25,-163.5 527,-163.5 527,-133 683.25,-133 683.25,-163.5"/>
<text text-anchor="start" x="535" y="-150" font-family="Helvetica,sans-Serif" font-size="10.00">tdms/tests/unit/test</text>
<text text-anchor="middle" x="605.12" y="-138.75" font-family="Helvetica,sans-Serif" font-size="10.00">_BLi_vs_cubic_interpolation.cpp</text>
</a>
</g>
</g>
<!-- Node12&#45;&gt;Node14 -->
<g id="edge22" class="edge">
<title>Node12&#45;&gt;Node14</title>
<path fill="none" stroke="#63b8ff" d="M536.87,-279.05C573.79,-274.87 618.87,-262.74 643.12,-230 658.62,-209.08 637.41,-180.84 621,-163.9"/>
<polygon fill="#63b8ff" stroke="#63b8ff" points="536.82,-275.64 527.2,-280.07 537.49,-282.61 536.82,-275.64"/>
</g>
<!-- Node15 -->
<g id="node15" class="node">
<title>Node15</title>
<g id="a_node15"><a xlink:href="test__interpolation__determination_8cpp.html" target="_top" xlink:title="Tests the logic that determines which interpolation schemes are appropriate.">
<polygon fill="white" stroke="#666666" points="857.25,-163.5 701,-163.5 701,-133 857.25,-133 857.25,-163.5"/>
<text text-anchor="start" x="709" y="-150" font-family="Helvetica,sans-Serif" font-size="10.00">tdms/tests/unit/test</text>
<text text-anchor="middle" x="779.12" y="-138.75" font-family="Helvetica,sans-Serif" font-size="10.00">_interpolation_determination.cpp</text>
</a>
</g>
</g>
<!-- Node12&#45;&gt;Node15 -->
<g id="edge23" class="edge">
<title>Node12&#45;&gt;Node15</title>
<path fill="none" stroke="#63b8ff" d="M536.51,-269.06C572.82,-260.89 619.9,-248.06 659.12,-230 698.36,-211.93 739.04,-181.69 761.52,-163.79"/>
<polygon fill="#63b8ff" stroke="#63b8ff" points="536.11,-265.78 527.09,-271.34 537.61,-272.62 536.11,-265.78"/>
</g>
<!-- Node16 -->
<g id="node16" class="node">
<title>Node16</title>
<g id="a_node16"><a xlink:href="test__interpolation__functions_8cpp.html" target="_top" xlink:title="Tests the performance of the interpolation functions, using 1D data mimicing a coordinate axes.">
<polygon fill="white" stroke="#666666" points="508.88,-163.5 371.38,-163.5 371.38,-133 508.88,-133 508.88,-163.5"/>
<text text-anchor="start" x="379.38" y="-150" font-family="Helvetica,sans-Serif" font-size="10.00">tdms/tests/unit/test</text>
<text text-anchor="middle" x="440.12" y="-138.75" font-family="Helvetica,sans-Serif" font-size="10.00">_interpolation_functions.cpp</text>
</a>
</g>
</g>
<!-- Node12&#45;&gt;Node16 -->
<g id="edge24" class="edge">
<title>Node12&#45;&gt;Node16</title>
<path fill="none" stroke="#63b8ff" d="M470.95,-255.52C463.1,-228.46 450.79,-186.01 444.36,-163.83"/>
<polygon fill="#63b8ff" stroke="#63b8ff" points="467.77,-256.1 473.91,-264.73 474.49,-254.15 467.77,-256.1"/>
</g>
<!-- Node17 -->
<g id="node17" class="node">
<title>Node17</title>
<g id="a_node17"><a xlink:href="main_8cpp.html" target="_top" xlink:title="The main function. Launches TDMS.">
<polygon fill="white" stroke="#666666" points="373.62,-224.38 276.62,-224.38 276.62,-205.12 373.62,-205.12 373.62,-224.38"/>
<text text-anchor="middle" x="325.12" y="-210.88" font-family="Helvetica,sans-Serif" font-size="10.00">tdms/src/main.cpp</text>
</a>
</g>
</g>
<!-- Node12&#45;&gt;Node17 -->
<g id="edge21" class="edge">
<title>Node12&#45;&gt;Node17</title>
<path fill="none" stroke="#63b8ff" d="M433.6,-261.48C404.93,-249.4 368.96,-234.23 346.5,-224.76"/>
<polygon fill="#63b8ff" stroke="#63b8ff" points="431.83,-264.95 442.41,-265.61 434.55,-258.5 431.83,-264.95"/>
</g>
<!-- Node13&#45;&gt;Node14 -->
<g id="edge18" class="edge">
<title>Node13&#45;&gt;Node14</title>
<path fill="none" stroke="#63b8ff" d="M583.28,-189.51C587.97,-180.87 593.1,-171.41 597.21,-163.83"/>
<polygon fill="#63b8ff" stroke="#63b8ff" points="579.76,-187.66 578.07,-198.11 585.91,-190.99 579.76,-187.66"/>
</g>
<!-- Node13&#45;&gt;Node15 -->
<g id="edge19" class="edge">
<title>Node13&#45;&gt;Node15</title>
<path fill="none" stroke="#63b8ff" d="M628.11,-195.85C660.72,-185.79 700.92,-173.39 731.64,-163.9"/>
<polygon fill="#63b8ff" stroke="#63b8ff" points="627.34,-192.74 618.81,-199.03 629.4,-199.43 627.34,-192.74"/>
</g>
<!-- Node13&#45;&gt;Node16 -->
<g id="edge20" class="edge">
<title>Node13&#45;&gt;Node16</title>
<path fill="none" stroke="#63b8ff" d="M530.99,-194.33C511.24,-184.53 487.68,-172.85 469.51,-163.83"/>
<polygon fill="#63b8ff" stroke="#63b8ff" points="529.11,-197.8 539.63,-199.11 532.22,-191.53 529.11,-197.8"/>
</g>
<!-- Node18&#45;&gt;Node17 -->
<g id="edge30" class="edge">
<title>Node18&#45;&gt;Node17</title>
<path fill="none" stroke="#63b8ff" d="M320.25,-255.02C321.59,-244.26 323.06,-232.41 324.03,-224.57"/>
<polygon fill="#63b8ff" stroke="#63b8ff" points="316.7,-254.26 318.94,-264.61 323.64,-255.12 316.7,-254.26"/>
</g>
<!-- Node19 -->
<g id="node19" class="node">
<title>Node19</title>
<g id="a_node19"><a xlink:href="simulation__parameters_8h.html" target="_top" xlink:title="Classes collecting parameters for the simulation.">
<polygon fill="white" stroke="#666666" points="258.5,-230 139.75,-230 139.75,-199.5 258.5,-199.5 258.5,-230"/>
<text text-anchor="start" x="147.75" y="-216.5" font-family="Helvetica,sans-Serif" font-size="10.00">tdms/include/simulation</text>
<text text-anchor="middle" x="199.12" y="-205.25" font-family="Helvetica,sans-Serif" font-size="10.00">_parameters.h</text>
</a>
</g>
</g>
<!-- Node18&#45;&gt;Node19 -->
<g id="edge26" class="edge">
<title>Node18&#45;&gt;Node19</title>
<path fill="none" stroke="#63b8ff" d="M280.86,-260.43C263.09,-250.71 242.07,-239.22 225.8,-230.33"/>
<polygon fill="#63b8ff" stroke="#63b8ff" points="278.9,-263.89 289.35,-265.61 282.25,-257.75 278.9,-263.89"/>
</g>
<!-- Node19&#45;&gt;Node4 -->
<g id="edge27" class="edge">
<title>Node19&#45;&gt;Node4</title>
<path fill="none" stroke="#63b8ff" d="M171.16,-192.53C155.73,-180.82 137.39,-166.9 125.75,-158.07"/>
<polygon fill="#63b8ff" stroke="#63b8ff" points="168.76,-195.86 178.84,-199.11 172.99,-190.28 168.76,-195.86"/>
</g>
<!-- Node19&#45;&gt;Node5 -->
<g id="edge28" class="edge">
<title>Node19&#45;&gt;Node5</title>
<path fill="none" stroke="#63b8ff" d="M196.62,-188.52C193.69,-158.98 188.99,-111.6 187.03,-91.85"/>
<polygon fill="#63b8ff" stroke="#63b8ff" points="193.21,-188.62 197.68,-198.23 200.18,-187.93 193.21,-188.62"/>
</g>
<!-- Node19&#45;&gt;Node20 -->
<g id="edge29" class="edge">
<title>Node19&#45;&gt;Node20</title>
<path fill="none" stroke="#63b8ff" d="M227.58,-192.9C243.55,-181.19 262.65,-167.19 274.83,-158.26"/>
<polygon fill="#63b8ff" stroke="#63b8ff" points="226.09,-190.38 220.09,-199.11 230.23,-196.03 226.09,-190.38"/>
</g>
<!-- Node22&#45;&gt;Node18 -->
<g id="edge33" class="edge">
<title>Node22&#45;&gt;Node18</title>
<path fill="none" stroke="#63b8ff" d="M320.76,-321.38C319.99,-313.05 319.16,-304.08 318.48,-296.83"/>
<polygon fill="#63b8ff" stroke="#63b8ff" points="317.35,-321.48 321.76,-331.11 324.32,-320.83 317.35,-321.48"/>
</g>
</g>
</svg>
