<?xml version="1.0" encoding="UTF-8" standalone="no"?>
<!DOCTYPE svg PUBLIC "-//W3C//DTD SVG 1.1//EN"
 "http://www.w3.org/Graphics/SVG/1.1/DTD/svg11.dtd">
<!-- Generated by graphviz version 13.1.0 (20250701.0955)
 -->
<!-- Title: tdms/include/mat_io.h Pages: 1 -->
<svg width="179pt" height="83pt"
 viewBox="0.00 0.00 179.00 83.00" xmlns="http://www.w3.org/2000/svg" xmlns:xlink="http://www.w3.org/1999/xlink">
<g id="graph0" class="graph" transform="scale(1 1) rotate(0) translate(4 78.5)">
<title>tdms/include/mat_io.h</title>
<!-- Node1 -->
<g id="Node000001" class="node">
<title>Node1</title>
<g id="a_Node000001"><a xlink:title="Includes MATLAB headers for I/O.">
<polygon fill="#999999" stroke="#666666" points="140.38,-74.5 28.38,-74.5 28.38,-55.25 140.38,-55.25 140.38,-74.5"/>
<text xml:space="preserve" text-anchor="middle" x="84.38" y="-61" font-family="Helvetica,sans-Serif" font-size="10.00">tdms/include/mat_io.h</text>
</a>
</g>
</g>
<!-- Node2 -->
<g id="Node000002" class="node">
<title>Node2</title>
<g id="a_Node000002"><a xlink:title=" ">
<polygon fill="#e0e0e0" stroke="#999999" points="40.75,-19.25 0,-19.25 0,0 40.75,0 40.75,-19.25"/>
<text xml:space="preserve" text-anchor="middle" x="20.38" y="-5.75" font-family="Helvetica,sans-Serif" font-size="10.00">mat.h</text>
</a>
</g>
</g>
<!-- Node1&#45;&gt;Node2 -->
<g id="edge1_Node000001_Node000002" class="edge">
<title>Node1&#45;&gt;Node2</title>
<g id="a_edge1_Node000001_Node000002"><a xlink:title=" ">
<path fill="none" stroke="#63b8ff" d="M73.52,-54.84C64.27,-47.15 50.75,-35.9 39.67,-26.68"/>
<polygon fill="#63b8ff" stroke="#63b8ff" points="42.16,-24.2 32.23,-20.49 37.68,-29.58 42.16,-24.2"/>
</a>
</g>
</g>
<!-- Node3 -->
<g id="Node000003" class="node">
<title>Node3</title>
<g id="a_Node000003"><a xlink:title=" ">
<polygon fill="#e0e0e0" stroke="#999999" points="110,-19.25 58.75,-19.25 58.75,0 110,0 110,-19.25"/>
<text xml:space="preserve" text-anchor="middle" x="84.38" y="-5.75" font-family="Helvetica,sans-Serif" font-size="10.00">matrix.h</text>
</a>
</g>
</g>
<!-- Node1&#45;&gt;Node3 -->
<g id="edge2_Node000001_Node000003" class="edge">
<title>Node1&#45;&gt;Node3</title>
<g id="a_edge2_Node000001_Node000003"><a xlink:title=" ">
<path fill="none" stroke="#63b8ff" d="M84.38,-55.08C84.38,-48.57 84.38,-39.42 84.38,-31.12"/>
<polygon fill="#63b8ff" stroke="#63b8ff" points="87.88,-31.12 84.38,-21.12 80.88,-31.12 87.88,-31.12"/>
</a>
</g>
</g>
<!-- Node4 -->
<g id="Node000004" class="node">
<title>Node4</title>
<g id="a_Node000004"><a xlink:title=" ">
<polygon fill="#e0e0e0" stroke="#999999" points="170.88,-19.25 127.88,-19.25 127.88,0 170.88,0 170.88,-19.25"/>
<text xml:space="preserve" text-anchor="middle" x="149.38" y="-5.75" font-family="Helvetica,sans-Serif" font-size="10.00">mex.h</text>
</a>
</g>
</g>
<!-- Node1&#45;&gt;Node4 -->
<g id="edge3_Node000001_Node000004" class="edge">
<title>Node1&#45;&gt;Node4</title>
<g id="a_edge3_Node000001_Node000004"><a xlink:title=" ">
<path fill="none" stroke="#63b8ff" d="M95.4,-54.84C104.8,-47.15 118.52,-35.9 129.78,-26.68"/>
<polygon fill="#63b8ff" stroke="#63b8ff" points="131.82,-29.53 137.34,-20.48 127.39,-24.11 131.82,-29.53"/>
</a>
</g>
</g>
</g>
</svg>
