<?xml version="1.0" encoding="UTF-8" standalone="no"?>
<!DOCTYPE svg PUBLIC "-//W3C//DTD SVG 1.1//EN"
 "http://www.w3.org/Graphics/SVG/1.1/DTD/svg11.dtd">
<!-- Generated by graphviz version 8.0.5 (20230430.1635)
 -->
<!-- Title: tdms/include/mat_io.h Pages: 1 -->
<svg width="1026pt" height="426pt"
 viewBox="0.00 0.00 1026.12 426.25" xmlns="http://www.w3.org/2000/svg" xmlns:xlink="http://www.w3.org/1999/xlink">
<g id="graph0" class="graph" transform="scale(1 1) rotate(0) translate(4 422.25)">
<title>tdms/include/mat_io.h</title>
<!-- Node1 -->
<g id="node1" class="node">
<title>Node1</title>
<g id="a_node1"><a xlink:title="Includes MATLAB headers for I/O.">
<polygon fill="#999999" stroke="#666666" points="477.12,-418.25 365.12,-418.25 365.12,-399 477.12,-399 477.12,-418.25"/>
<text text-anchor="middle" x="421.12" y="-404.75" font-family="Helvetica,sans-Serif" font-size="10.00">tdms/include/mat_io.h</text>
</a>
</g>
</g>
<!-- Node2 -->
<g id="node2" class="node">
<title>Node2</title>
<g id="a_node2"><a xlink:href="array__init_8h.html" target="_top" xlink:title="A collection of functions for array initialisation given MATLAB pointers.">
<polygon fill="white" stroke="#666666" points="96.25,-97 0,-97 0,-66.5 96.25,-66.5 96.25,-97"/>
<text text-anchor="start" x="8" y="-83.5" font-family="Helvetica,sans-Serif" font-size="10.00">tdms/include/array</text>
<text text-anchor="middle" x="48.12" y="-72.25" font-family="Helvetica,sans-Serif" font-size="10.00">_init.h</text>
</a>
</g>
</g>
<!-- Node1&#45;&gt;Node2 -->
<g id="edge1" class="edge">
<title>Node1&#45;&gt;Node2</title>
<path fill="none" stroke="#63b8ff" d="M353.99,-407.99C292.52,-405.92 200.4,-396.65 128.12,-363 78.8,-340.04 36.12,-336.66 36.12,-282.25 36.12,-282.25 36.12,-282.25 36.12,-213.75 36.12,-171.27 42.46,-121.37 45.92,-97.25"/>
<polygon fill="#63b8ff" stroke="#63b8ff" points="353.63,-411.5 363.72,-408.28 353.82,-404.51 353.63,-411.5"/>
</g>
<!-- Node3 -->
<g id="node3" class="node">
<title>Node3</title>
<g id="a_node3"><a xlink:href="dimensions_8h.html" target="_top" xlink:title="Defines a class that serves as an explicit converter between MATLAB pointers and array dimensions.">
<polygon fill="white" stroke="#666666" points="240.25,-290.88 108,-290.88 108,-271.62 240.25,-271.62 240.25,-290.88"/>
<text text-anchor="middle" x="174.12" y="-277.38" font-family="Helvetica,sans-Serif" font-size="10.00">tdms/include/dimensions.h</text>
</a>
</g>
</g>
<!-- Node1&#45;&gt;Node3 -->
<g id="edge2" class="edge">
<title>Node1&#45;&gt;Node3</title>
<path fill="none" stroke="#63b8ff" d="M354.24,-398.37C322.08,-391.85 283.92,-380.96 253.12,-363 220.6,-344.03 192.42,-308.09 180.37,-291.31"/>
<polygon fill="#63b8ff" stroke="#63b8ff" points="353.41,-401.96 363.89,-400.41 354.73,-395.09 353.41,-401.96"/>
</g>
<!-- Node4 -->
<g id="node4" class="node">
<title>Node4</title>
<g id="a_node4"><a xlink:href="field_8h.html" target="_top" xlink:title="Classes for the electric and magnetic (split) fields on a grid.">
<polygon fill="white" stroke="#666666" points="164.5,-157.88 63.75,-157.88 63.75,-138.62 164.5,-138.62 164.5,-157.88"/>
<text text-anchor="middle" x="114.12" y="-144.38" font-family="Helvetica,sans-Serif" font-size="10.00">tdms/include/field.h</text>
</a>
</g>
</g>
<!-- Node1&#45;&gt;Node4 -->
<g id="edge11" class="edge">
<title>Node1&#45;&gt;Node4</title>
<path fill="none" stroke="#63b8ff" d="M354.09,-398.93C312.29,-392.15 257.93,-380.83 212.12,-363 157.82,-341.87 128.05,-347.09 99.12,-296.5 72.72,-250.32 98.82,-182.55 109.78,-158.29"/>
<polygon fill="#63b8ff" stroke="#63b8ff" points="353.28,-402.51 363.71,-400.6 354.37,-395.59 353.28,-402.51"/>
</g>
<!-- Node10 -->
<g id="node10" class="node">
<title>Node10</title>
<g id="a_node10"><a xlink:href="fdtd__grid__initialiser_8h.html" target="_top" xlink:title="Initialisation of the FDTD grid.">
<polygon fill="white" stroke="#666666" points="618.12,-363 506.12,-363 506.12,-332.5 618.12,-332.5 618.12,-363"/>
<text text-anchor="start" x="514.12" y="-349.5" font-family="Helvetica,sans-Serif" font-size="10.00">tdms/include/fdtd_grid</text>
<text text-anchor="middle" x="562.12" y="-338.25" font-family="Helvetica,sans-Serif" font-size="10.00">_initialiser.h</text>
</a>
</g>
</g>
<!-- Node1&#45;&gt;Node10 -->
<g id="edge10" class="edge">
<title>Node1&#45;&gt;Node10</title>
<path fill="none" stroke="#63b8ff" d="M452.7,-394.44C474.73,-385.24 504.15,-372.96 526.93,-363.44"/>
<polygon fill="#63b8ff" stroke="#63b8ff" points="451.73,-391.47 443.85,-398.55 454.42,-397.93 451.73,-391.47"/>
</g>
<!-- Node11 -->
<g id="node11" class="node">
<title>Node11</title>
<g id="a_node11"><a xlink:href="grid__labels_8h.html" target="_top" xlink:title="Class to hold the labels of a Yee cell.">
<polygon fill="white" stroke="#666666" points="1004.75,-157.88 875.5,-157.88 875.5,-138.62 1004.75,-138.62 1004.75,-157.88"/>
<text text-anchor="middle" x="940.12" y="-144.38" font-family="Helvetica,sans-Serif" font-size="10.00">tdms/include/grid_labels.h</text>
</a>
</g>
</g>
<!-- Node1&#45;&gt;Node11 -->
<g id="edge12" class="edge">
<title>Node1&#45;&gt;Node11</title>
<path fill="none" stroke="#63b8ff" d="M436.93,-390.53C455.09,-371.17 484.05,-341.17 497.12,-332.5 571.41,-283.2 831.64,-188.07 914.55,-158.35"/>
<polygon fill="#63b8ff" stroke="#63b8ff" points="434.7,-387.86 430.45,-397.57 439.82,-392.64 434.7,-387.86"/>
</g>
<!-- Node12 -->
<g id="node12" class="node">
<title>Node12</title>
<g id="a_node12"><a xlink:href="input__flags_8h.html" target="_top" xlink:title="Organises enumerated constants, names, and classes for handling flag&#45;variables that are passed to TDM...">
<polygon fill="white" stroke="#666666" points="525.88,-296.5 430.38,-296.5 430.38,-266 525.88,-266 525.88,-296.5"/>
<text text-anchor="start" x="438.38" y="-283" font-family="Helvetica,sans-Serif" font-size="10.00">tdms/include/input</text>
<text text-anchor="middle" x="478.12" y="-271.75" font-family="Helvetica,sans-Serif" font-size="10.00">_flags.h</text>
</a>
</g>
</g>
<!-- Node1&#45;&gt;Node12 -->
<g id="edge15" class="edge">
<title>Node1&#45;&gt;Node12</title>
<path fill="none" stroke="#63b8ff" d="M429.68,-388.81C441.12,-363.65 461.16,-319.57 471.51,-296.8"/>
<polygon fill="#63b8ff" stroke="#63b8ff" points="426.18,-387.06 425.22,-397.61 432.55,-389.95 426.18,-387.06"/>
</g>
<!-- Node18 -->
<g id="node18" class="node">
<title>Node18</title>
<g id="a_node18"><a xlink:href="input__matrices_8h.html" target="_top" xlink:title="Class handling the input matrices that are read in from the input file.">
<polygon fill="white" stroke="#666666" points="364.88,-296.5 269.38,-296.5 269.38,-266 364.88,-266 364.88,-296.5"/>
<text text-anchor="start" x="277.38" y="-283" font-family="Helvetica,sans-Serif" font-size="10.00">tdms/include/input</text>
<text text-anchor="middle" x="317.12" y="-271.75" font-family="Helvetica,sans-Serif" font-size="10.00">_matrices.h</text>
</a>
</g>
</g>
<!-- Node1&#45;&gt;Node18 -->
<g id="edge25" class="edge">
<title>Node1&#45;&gt;Node18</title>
<path fill="none" stroke="#63b8ff" d="M354.28,-397.01C316.47,-389.49 274.52,-378.06 263.12,-363 246.23,-340.68 273.95,-313.35 295.53,-296.9"/>
<polygon fill="#63b8ff" stroke="#63b8ff" points="353.32,-400.58 363.8,-399.03 354.64,-393.71 353.32,-400.58"/>
</g>
<!-- Node20 -->
<g id="node20" class="node">
<title>Node20</title>
<g id="a_node20"><a xlink:href="mesh__base_8h.html" target="_top" xlink:title="Generation of orientated mesh.">
<polygon fill="white" stroke="#666666" points="353.62,-157.88 220.62,-157.88 220.62,-138.62 353.62,-138.62 353.62,-157.88"/>
<text text-anchor="middle" x="287.12" y="-144.38" font-family="Helvetica,sans-Serif" font-size="10.00">tdms/include/mesh_base.h</text>
</a>
</g>
</g>
<!-- Node1&#45;&gt;Node20 -->
<g id="edge34" class="edge">
<title>Node1&#45;&gt;Node20</title>
<path fill="none" stroke="#63b8ff" d="M422.9,-387.83C425.41,-348.05 425.66,-257.28 383.12,-199.5 367.85,-178.75 341.43,-165.81 320.17,-158.28"/>
<polygon fill="#63b8ff" stroke="#63b8ff" points="419.35,-387.41 422.08,-397.65 426.33,-387.94 419.35,-387.41"/>
</g>
<!-- Node21 -->
<g id="node21" class="node">
<title>Node21</title>
<g id="a_node21"><a xlink:href="interface_8h.html" target="_top" xlink:title=" ">
<polygon fill="white" stroke="#666666" points="756.25,-357.38 636,-357.38 636,-338.12 756.25,-338.12 756.25,-357.38"/>
<text text-anchor="middle" x="696.12" y="-343.88" font-family="Helvetica,sans-Serif" font-size="10.00">tdms/include/interface.h</text>
</a>
</g>
</g>
<!-- Node1&#45;&gt;Node21 -->
<g id="edge31" class="edge">
<title>Node1&#45;&gt;Node21</title>
<path fill="none" stroke="#63b8ff" d="M474.23,-396.26C526.55,-385.06 605.44,-368.16 653.71,-357.83"/>
<polygon fill="#63b8ff" stroke="#63b8ff" points="473.54,-393.04 464.49,-398.55 475,-399.88 473.54,-393.04"/>
</g>
<!-- Node22 -->
<g id="node22" class="node">
<title>Node22</title>
<g id="a_node22"><a xlink:href="matrix__collection_8h.html" target="_top" xlink:title="A collection of named MATLAB matrices.">
<polygon fill="white" stroke="#666666" points="373.88,-363 272.38,-363 272.38,-332.5 373.88,-332.5 373.88,-363"/>
<text text-anchor="start" x="280.38" y="-349.5" font-family="Helvetica,sans-Serif" font-size="10.00">tdms/include/matrix</text>
<text text-anchor="middle" x="323.12" y="-338.25" font-family="Helvetica,sans-Serif" font-size="10.00">_collection.h</text>
</a>
</g>
</g>
<!-- Node1&#45;&gt;Node22 -->
<g id="edge32" class="edge">
<title>Node1&#45;&gt;Node22</title>
<path fill="none" stroke="#63b8ff" d="M397.01,-393.14C381.89,-384.05 362.45,-372.38 347.31,-363.28"/>
<polygon fill="#63b8ff" stroke="#63b8ff" points="394.87,-396.53 405.24,-398.68 398.47,-390.53 394.87,-396.53"/>
</g>
<!-- Node23 -->
<g id="node23" class="node">
<title>Node23</title>
<g id="a_node23"><a xlink:href="shapes_8h_source.html" target="_top" xlink:title=" ">
<polygon fill="white" stroke="#666666" points="888.25,-357.38 774,-357.38 774,-338.12 888.25,-338.12 888.25,-357.38"/>
<text text-anchor="middle" x="831.12" y="-343.88" font-family="Helvetica,sans-Serif" font-size="10.00">tdms/include/shapes.h</text>
</a>
</g>
</g>
<!-- Node1&#45;&gt;Node23 -->
<g id="edge35" class="edge">
<title>Node1&#45;&gt;Node23</title>
<path fill="none" stroke="#63b8ff" d="M488.13,-400.61C557.64,-392.94 669.36,-379.52 765.12,-363 773.79,-361.51 783.04,-359.66 791.79,-357.81"/>
<polygon fill="#63b8ff" stroke="#63b8ff" points="487.91,-397.22 478.35,-401.79 488.67,-404.18 487.91,-397.22"/>
</g>
<!-- Node24 -->
<g id="node24" class="node">
<title>Node24</title>
<g id="a_node24"><a xlink:href="source_8h.html" target="_top" xlink:title=" ">
<polygon fill="white" stroke="#666666" points="1018.12,-357.38 906.12,-357.38 906.12,-338.12 1018.12,-338.12 1018.12,-357.38"/>
<text text-anchor="middle" x="962.12" y="-343.88" font-family="Helvetica,sans-Serif" font-size="10.00">tdms/include/source.h</text>
</a>
</g>
</g>
<!-- Node1&#45;&gt;Node24 -->
<g id="edge36" class="edge">
<title>Node1&#45;&gt;Node24</title>
<path fill="none" stroke="#63b8ff" d="M488.34,-403.92C580.82,-398.24 752.32,-385.57 897.12,-363 906.03,-361.61 915.54,-359.75 924.46,-357.82"/>
<polygon fill="#63b8ff" stroke="#63b8ff" points="488.23,-400.48 478.46,-404.58 488.65,-407.47 488.23,-400.48"/>
</g>
<!-- Node3&#45;&gt;Node4 -->
<g id="edge3" class="edge">
<title>Node3&#45;&gt;Node4</title>
<path fill="none" stroke="#63b8ff" d="M156.31,-263.8C147.45,-254.67 137.34,-242.62 131.12,-230 119.22,-205.84 115.63,-173.61 114.57,-158.2"/>
<polygon fill="#63b8ff" stroke="#63b8ff" points="153.36,-265.79 162.94,-270.3 158.27,-260.8 153.36,-265.79"/>
</g>
<!-- Node4&#45;&gt;Node2 -->
<g id="edge4" class="edge">
<title>Node4&#45;&gt;Node2</title>
<path fill="none" stroke="#63b8ff" d="M97.17,-130.68C86.54,-120.29 72.97,-107.03 62.8,-97.09"/>
<polygon fill="#63b8ff" stroke="#63b8ff" points="94.35,-132.8 103.95,-137.28 99.24,-127.79 94.35,-132.8"/>
</g>
<!-- Node5 -->
<g id="node5" class="node">
<title>Node5</title>
<g id="a_node5"><a xlink:href="fieldsample_8h.html" target="_top" xlink:title="Class that stores the extracted field values at user&#45;defined vertices.">
<polygon fill="white" stroke="#666666" points="252.25,-91.38 120,-91.38 120,-72.12 252.25,-72.12 252.25,-91.38"/>
<text text-anchor="middle" x="186.12" y="-77.88" font-family="Helvetica,sans-Serif" font-size="10.00">tdms/include/fieldsample.h</text>
</a>
</g>
</g>
<!-- Node4&#45;&gt;Node5 -->
<g id="edge5" class="edge">
<title>Node4&#45;&gt;Node5</title>
<path fill="none" stroke="#63b8ff" d="M132.08,-131.17C146.03,-118.67 164.84,-101.81 176.2,-91.64"/>
<polygon fill="#63b8ff" stroke="#63b8ff" points="130.25,-128 125.14,-137.28 134.92,-133.22 130.25,-128"/>
</g>
<!-- Node7 -->
<g id="node7" class="node">
<title>Node7</title>
<g id="a_node7"><a xlink:href="surface__phasors_8h.html" target="_top" xlink:title="Contains a class that handles the complex amplitude extraction.">
<polygon fill="white" stroke="#666666" points="624.5,-97 517.75,-97 517.75,-66.5 624.5,-66.5 624.5,-97"/>
<text text-anchor="start" x="525.75" y="-83.5" font-family="Helvetica,sans-Serif" font-size="10.00">tdms/include/surface</text>
<text text-anchor="middle" x="571.12" y="-72.25" font-family="Helvetica,sans-Serif" font-size="10.00">_phasors.h</text>
</a>
</g>
</g>
<!-- Node4&#45;&gt;Node7 -->
<g id="edge7" class="edge">
<title>Node4&#45;&gt;Node7</title>
<path fill="none" stroke="#63b8ff" d="M175.85,-138.22C187.88,-136.48 200.4,-134.67 212.12,-133 320.38,-117.55 447.06,-99.93 517.29,-90.19"/>
<polygon fill="#63b8ff" stroke="#63b8ff" points="175.37,-134.9 165.98,-139.8 176.38,-141.83 175.37,-134.9"/>
</g>
<!-- Node8 -->
<g id="node8" class="node">
<title>Node8</title>
<g id="a_node8"><a xlink:href="vertex__phasors_8h.html" target="_top" xlink:title="Contains a class that handles the complex amplitude extraction at the vertices.">
<polygon fill="white" stroke="#666666" points="866.88,-97 765.38,-97 765.38,-66.5 866.88,-66.5 866.88,-97"/>
<text text-anchor="start" x="773.38" y="-83.5" font-family="Helvetica,sans-Serif" font-size="10.00">tdms/include/vertex</text>
<text text-anchor="middle" x="816.12" y="-72.25" font-family="Helvetica,sans-Serif" font-size="10.00">_phasors.h</text>
</a>
</g>
</g>
<!-- Node4&#45;&gt;Node8 -->
<g id="edge8" class="edge">
<title>Node4&#45;&gt;Node8</title>
<path fill="none" stroke="#63b8ff" d="M175.79,-137.7C187.82,-136 200.35,-134.34 212.12,-133 266.36,-126.81 629.49,-97.64 765.14,-86.81"/>
<polygon fill="#63b8ff" stroke="#63b8ff" points="175.31,-134.37 165.91,-139.26 176.31,-141.3 175.31,-134.37"/>
</g>
<!-- Node6 -->
<g id="node6" class="node">
<title>Node6</title>
<g id="a_node6"><a xlink:href="test___field_sample_8cpp.html" target="_top" xlink:title="Unit tests for the FieldSample class and its subclasses.">
<polygon fill="white" stroke="#666666" points="236.5,-30.5 135.75,-30.5 135.75,0 236.5,0 236.5,-30.5"/>
<text text-anchor="start" x="143.75" y="-17" font-family="Helvetica,sans-Serif" font-size="10.00">tdms/tests/unit/test</text>
<text text-anchor="middle" x="186.12" y="-5.75" font-family="Helvetica,sans-Serif" font-size="10.00">_FieldSample.cpp</text>
</a>
</g>
</g>
<!-- Node5&#45;&gt;Node6 -->
<g id="edge6" class="edge">
<title>Node5&#45;&gt;Node6</title>
<path fill="none" stroke="#63b8ff" d="M186.12,-61.02C186.12,-51.2 186.12,-39.55 186.12,-30.59"/>
<polygon fill="#63b8ff" stroke="#63b8ff" points="182.63,-60.78 186.12,-70.78 189.63,-60.78 182.63,-60.78"/>
</g>
<!-- Node9 -->
<g id="node9" class="node">
<title>Node9</title>
<g id="a_node9"><a xlink:href="test___vertex_phasors_8cpp.html" target="_top" xlink:title="Unit tests for the VertexPhasors class.">
<polygon fill="white" stroke="#666666" points="868.38,-30.5 763.88,-30.5 763.88,0 868.38,0 868.38,-30.5"/>
<text text-anchor="start" x="771.88" y="-17" font-family="Helvetica,sans-Serif" font-size="10.00">tdms/tests/unit/test</text>
<text text-anchor="middle" x="816.12" y="-5.75" font-family="Helvetica,sans-Serif" font-size="10.00">_VertexPhasors.cpp</text>
</a>
</g>
</g>
<!-- Node8&#45;&gt;Node9 -->
<g id="edge9" class="edge">
<title>Node8&#45;&gt;Node9</title>
<path fill="none" stroke="#63b8ff" d="M816.12,-55.38C816.12,-47.05 816.12,-38.08 816.12,-30.83"/>
<polygon fill="#63b8ff" stroke="#63b8ff" points="812.63,-55.11 816.12,-65.11 819.63,-55.11 812.63,-55.11"/>
</g>
<!-- Node11&#45;&gt;Node7 -->
<g id="edge13" class="edge">
<title>Node11&#45;&gt;Node7</title>
<path fill="none" stroke="#63b8ff" d="M882.8,-136.08C877.17,-135.03 871.54,-133.98 866.12,-133 781.91,-117.72 683.91,-101.3 624.75,-91.53"/>
<polygon fill="#63b8ff" stroke="#63b8ff" points="882.1,-139.7 892.57,-138.13 883.4,-132.83 882.1,-139.7"/>
</g>
<!-- Node11&#45;&gt;Node8 -->
<g id="edge14" class="edge">
<title>Node11&#45;&gt;Node8</title>
<path fill="none" stroke="#63b8ff" d="M912.98,-133.13C892.56,-122.51 864.66,-108 844.05,-97.28"/>
<polygon fill="#63b8ff" stroke="#63b8ff" points="911.14,-136.64 921.62,-138.15 914.37,-130.43 911.14,-136.64"/>
</g>
<!-- Node12&#45;&gt;Node4 -->
<g id="edge16" class="edge">
<title>Node12&#45;&gt;Node4</title>
<path fill="none" stroke="#63b8ff" d="M458.14,-257.69C440.34,-239.09 412.61,-213.55 383.12,-199.5 363.72,-190.25 237.28,-168.96 164.86,-157.28"/>
<polygon fill="#63b8ff" stroke="#63b8ff" points="455.22,-259.76 464.59,-264.69 460.34,-254.99 455.22,-259.76"/>
</g>
<!-- Node13 -->
<g id="node13" class="node">
<title>Node13</title>
<g id="a_node13"><a xlink:href="interpolation__methods_8h.html" target="_top" xlink:title="InterpScheme class methods and supporting functions.">
<polygon fill="white" stroke="#666666" points="633.62,-230 506.62,-230 506.62,-199.5 633.62,-199.5 633.62,-230"/>
<text text-anchor="start" x="514.62" y="-216.5" font-family="Helvetica,sans-Serif" font-size="10.00">tdms/include/interpolation</text>
<text text-anchor="middle" x="570.12" y="-205.25" font-family="Helvetica,sans-Serif" font-size="10.00">_methods.h</text>
</a>
</g>
</g>
<!-- Node12&#45;&gt;Node13 -->
<g id="edge17" class="edge">
<title>Node12&#45;&gt;Node13</title>
<path fill="none" stroke="#63b8ff" d="M507.95,-259.34C521.46,-249.87 537.11,-238.89 549.33,-230.33"/>
<polygon fill="#63b8ff" stroke="#63b8ff" points="506.18,-257.01 500,-265.61 510.2,-262.74 506.18,-257.01"/>
</g>
<!-- Node14 -->
<g id="node14" class="node">
<title>Node14</title>
<g id="a_node14"><a xlink:href="test___b_li__vs__cubic__interpolation_8cpp.html" target="_top" xlink:title="Tests the performance of bandlimited interpolation against cubic interpolation.">
<polygon fill="white" stroke="#666666" points="683.25,-163.5 527,-163.5 527,-133 683.25,-133 683.25,-163.5"/>
<text text-anchor="start" x="535" y="-150" font-family="Helvetica,sans-Serif" font-size="10.00">tdms/tests/unit/test</text>
<text text-anchor="middle" x="605.12" y="-138.75" font-family="Helvetica,sans-Serif" font-size="10.00">_BLi_vs_cubic_interpolation.cpp</text>
</a>
</g>
</g>
<!-- Node12&#45;&gt;Node14 -->
<g id="edge22" class="edge">
<title>Node12&#45;&gt;Node14</title>
<path fill="none" stroke="#63b8ff" d="M536.87,-279.05C573.79,-274.87 618.87,-262.74 643.12,-230 658.62,-209.08 637.41,-180.84 621,-163.9"/>
<polygon fill="#63b8ff" stroke="#63b8ff" points="536.82,-275.64 527.2,-280.07 537.49,-282.61 536.82,-275.64"/>
</g>
<!-- Node15 -->
<g id="node15" class="node">
<title>Node15</title>
<g id="a_node15"><a xlink:href="test__interpolation__determination_8cpp.html" target="_top" xlink:title="Tests the logic that determines which interpolation schemes are appropriate.">
<polygon fill="white" stroke="#666666" points="857.25,-163.5 701,-163.5 701,-133 857.25,-133 857.25,-163.5"/>
<text text-anchor="start" x="709" y="-150" font-family="Helvetica,sans-Serif" font-size="10.00">tdms/tests/unit/test</text>
<text text-anchor="middle" x="779.12" y="-138.75" font-family="Helvetica,sans-Serif" font-size="10.00">_interpolation_determination.cpp</text>
</a>
</g>
</g>
<!-- Node12&#45;&gt;Node15 -->
<g id="edge23" class="edge">
<title>Node12&#45;&gt;Node15</title>
<path fill="none" stroke="#63b8ff" d="M536.51,-269.06C572.82,-260.89 619.9,-248.06 659.12,-230 698.36,-211.93 739.04,-181.69 761.52,-163.79"/>
<polygon fill="#63b8ff" stroke="#63b8ff" points="536.11,-265.78 527.09,-271.34 537.61,-272.62 536.11,-265.78"/>
</g>
<!-- Node16 -->
<g id="node16" class="node">
<title>Node16</title>
<g id="a_node16"><a xlink:href="test__interpolation__functions_8cpp.html" target="_top" xlink:title="Tests the performance of the interpolation functions, using 1D data mimicing a coordinate axes.">
<polygon fill="white" stroke="#666666" points="508.88,-163.5 371.38,-163.5 371.38,-133 508.88,-133 508.88,-163.5"/>
<text text-anchor="start" x="379.38" y="-150" font-family="Helvetica,sans-Serif" font-size="10.00">tdms/tests/unit/test</text>
<text text-anchor="middle" x="440.12" y="-138.75" font-family="Helvetica,sans-Serif" font-size="10.00">_interpolation_functions.cpp</text>
</a>
</g>
</g>
<!-- Node12&#45;&gt;Node16 -->
<g id="edge24" class="edge">
<title>Node12&#45;&gt;Node16</title>
<path fill="none" stroke="#63b8ff" d="M470.95,-255.52C463.1,-228.46 450.79,-186.01 444.36,-163.83"/>
<polygon fill="#63b8ff" stroke="#63b8ff" points="467.77,-256.1 473.91,-264.73 474.49,-254.15 467.77,-256.1"/>
</g>
<!-- Node17 -->
<g id="node17" class="node">
<title>Node17</title>
<g id="a_node17"><a xlink:href="main_8cpp.html" target="_top" xlink:title="The main function. Launches TDMS.">
<polygon fill="white" stroke="#666666" points="373.62,-224.38 276.62,-224.38 276.62,-205.12 373.62,-205.12 373.62,-224.38"/>
<text text-anchor="middle" x="325.12" y="-210.88" font-family="Helvetica,sans-Serif" font-size="10.00">tdms/src/main.cpp</text>
</a>
</g>
</g>
<!-- Node12&#45;&gt;Node17 -->
<g id="edge21" class="edge">
<title>Node12&#45;&gt;Node17</title>
<path fill="none" stroke="#63b8ff" d="M433.6,-261.48C404.93,-249.4 368.96,-234.23 346.5,-224.76"/>
<polygon fill="#63b8ff" stroke="#63b8ff" points="431.83,-264.95 442.41,-265.61 434.55,-258.5 431.83,-264.95"/>
</g>
<!-- Node13&#45;&gt;Node14 -->
<g id="edge18" class="edge">
<title>Node13&#45;&gt;Node14</title>
<path fill="none" stroke="#63b8ff" d="M583.28,-189.51C587.97,-180.87 593.1,-171.41 597.21,-163.83"/>
<polygon fill="#63b8ff" stroke="#63b8ff" points="579.76,-187.66 578.07,-198.11 585.91,-190.99 579.76,-187.66"/>
</g>
<!-- Node13&#45;&gt;Node15 -->
<g id="edge19" class="edge">
<title>Node13&#45;&gt;Node15</title>
<path fill="none" stroke="#63b8ff" d="M628.11,-195.85C660.72,-185.79 700.92,-173.39 731.64,-163.9"/>
<polygon fill="#63b8ff" stroke="#63b8ff" points="627.34,-192.74 618.81,-199.03 629.4,-199.43 627.34,-192.74"/>
</g>
<!-- Node13&#45;&gt;Node16 -->
<g id="edge20" class="edge">
<title>Node13&#45;&gt;Node16</title>
<path fill="none" stroke="#63b8ff" d="M530.99,-194.33C511.24,-184.53 487.68,-172.85 469.51,-163.83"/>
<polygon fill="#63b8ff" stroke="#63b8ff" points="529.11,-197.8 539.63,-199.11 532.22,-191.53 529.11,-197.8"/>
</g>
<!-- Node18&#45;&gt;Node17 -->
<g id="edge30" class="edge">
<title>Node18&#45;&gt;Node17</title>
<path fill="none" stroke="#63b8ff" d="M320.25,-255.02C321.59,-244.26 323.06,-232.41 324.03,-224.57"/>
<polygon fill="#63b8ff" stroke="#63b8ff" points="316.7,-254.26 318.94,-264.61 323.64,-255.12 316.7,-254.26"/>
</g>
<!-- Node19 -->
<g id="node19" class="node">
<title>Node19</title>
<g id="a_node19"><a xlink:href="simulation__parameters_8h.html" target="_top" xlink:title="Classes collecting parameters for the simulation.">
<polygon fill="white" stroke="#666666" points="258.5,-230 139.75,-230 139.75,-199.5 258.5,-199.5 258.5,-230"/>
<text text-anchor="start" x="147.75" y="-216.5" font-family="Helvetica,sans-Serif" font-size="10.00">tdms/include/simulation</text>
<text text-anchor="middle" x="199.12" y="-205.25" font-family="Helvetica,sans-Serif" font-size="10.00">_parameters.h</text>
</a>
</g>
</g>
<!-- Node18&#45;&gt;Node19 -->
<g id="edge26" class="edge">
<title>Node18&#45;&gt;Node19</title>
<path fill="none" stroke="#63b8ff" d="M280.86,-260.43C263.09,-250.71 242.07,-239.22 225.8,-230.33"/>
<polygon fill="#63b8ff" stroke="#63b8ff" points="278.9,-263.89 289.35,-265.61 282.25,-257.75 278.9,-263.89"/>
</g>
<!-- Node19&#45;&gt;Node4 -->
<g id="edge27" class="edge">
<title>Node19&#45;&gt;Node4</title>
<path fill="none" stroke="#63b8ff" d="M171.16,-192.53C155.73,-180.82 137.39,-166.9 125.75,-158.07"/>
<polygon fill="#63b8ff" stroke="#63b8ff" points="168.76,-195.86 178.84,-199.11 172.99,-190.28 168.76,-195.86"/>
</g>
<!-- Node19&#45;&gt;Node5 -->
<g id="edge28" class="edge">
<title>Node19&#45;&gt;Node5</title>
<path fill="none" stroke="#63b8ff" d="M196.62,-188.52C193.69,-158.98 188.99,-111.6 187.03,-91.85"/>
<polygon fill="#63b8ff" stroke="#63b8ff" points="193.21,-188.62 197.68,-198.23 200.18,-187.93 193.21,-188.62"/>
</g>
<!-- Node19&#45;&gt;Node20 -->
<g id="edge29" class="edge">
<title>Node19&#45;&gt;Node20</title>
<path fill="none" stroke="#63b8ff" d="M227.58,-192.9C243.55,-181.19 262.65,-167.19 274.83,-158.26"/>
<polygon fill="#63b8ff" stroke="#63b8ff" points="226.09,-190.38 220.09,-199.11 230.23,-196.03 226.09,-190.38"/>
</g>
<!-- Node22&#45;&gt;Node18 -->
<g id="edge33" class="edge">
<title>Node22&#45;&gt;Node18</title>
<path fill="none" stroke="#63b8ff" d="M320.76,-321.38C319.99,-313.05 319.16,-304.08 318.48,-296.83"/>
<polygon fill="#63b8ff" stroke="#63b8ff" points="317.35,-321.48 321.76,-331.11 324.32,-320.83 317.35,-321.48"/>
</g>
</g>
</svg>
