<?xml version="1.0" encoding="UTF-8" standalone="no"?>
<!DOCTYPE svg PUBLIC "-//W3C//DTD SVG 1.1//EN"
 "http://www.w3.org/Graphics/SVG/1.1/DTD/svg11.dtd">
<!-- Generated by graphviz version 8.0.4 (20230421.1958)
 -->
<!-- Title: tdms/include/matrix_collection.h Pages: 1 -->
<svg width="241pt" height="149pt"
 viewBox="0.00 0.00 240.50 149.00" xmlns="http://www.w3.org/2000/svg" xmlns:xlink="http://www.w3.org/1999/xlink">
<g id="graph0" class="graph" transform="scale(1 1) rotate(0) translate(4 145)">
<title>tdms/include/matrix_collection.h</title>
<!-- Node1 -->
<g id="node1" class="node">
<title>Node1</title>
<g id="a_node1"><a xlink:title="A collection of named MATLAB matrices.">
<polygon fill="#999999" stroke="#666666" points="130.75,-141 29.25,-141 29.25,-110.5 130.75,-110.5 130.75,-141"/>
<text text-anchor="start" x="37.25" y="-127.5" font-family="Helvetica,sans-Serif" font-size="10.00">tdms/include/matrix</text>
<text text-anchor="middle" x="80" y="-116.25" font-family="Helvetica,sans-Serif" font-size="10.00">_collection.h</text>
</a>
</g>
</g>
<!-- Node2 -->
<g id="node2" class="node">
<title>Node2</title>
<g id="a_node2"><a xlink:title=" ">
<polygon fill="#e0e0e0" stroke="#999999" points="40,-74.5 0,-74.5 0,-55.25 40,-55.25 40,-74.5"/>
<text text-anchor="middle" x="20" y="-61" font-family="Helvetica,sans-Serif" font-size="10.00">string</text>
</a>
</g>
</g>
<!-- Node1&#45;&gt;Node2 -->
<g id="edge1" class="edge">
<title>Node1&#45;&gt;Node2</title>
<path fill="none" stroke="#63b8ff" d="M65.17,-110.2C56.65,-101.84 45.91,-91.3 37.05,-82.6"/>
<polygon fill="#63b8ff" stroke="#63b8ff" points="39.84,-80.46 30.25,-75.95 34.94,-85.45 39.84,-80.46"/>
</g>
<!-- Node3 -->
<g id="node3" class="node">
<title>Node3</title>
<g id="a_node3"><a xlink:title=" ">
<polygon fill="#e0e0e0" stroke="#999999" points="101.5,-74.5 58.5,-74.5 58.5,-55.25 101.5,-55.25 101.5,-74.5"/>
<text text-anchor="middle" x="80" y="-61" font-family="Helvetica,sans-Serif" font-size="10.00">vector</text>
</a>
</g>
</g>
<!-- Node1&#45;&gt;Node3 -->
<g id="edge2" class="edge">
<title>Node1&#45;&gt;Node3</title>
<path fill="none" stroke="#63b8ff" d="M80,-110.2C80,-102.87 80,-93.87 80,-85.91"/>
<polygon fill="#63b8ff" stroke="#63b8ff" points="83.5,-85.95 80,-75.95 76.5,-85.95 83.5,-85.95"/>
</g>
<!-- Node4 -->
<g id="node4" class="node">
<title>Node4</title>
<g id="a_node4"><a xlink:href="mat__io_8h.html" target="_top" xlink:title="Includes MATLAB headers for I/O.">
<polygon fill="white" stroke="#666666" points="172.75,-74.5 119.25,-74.5 119.25,-55.25 172.75,-55.25 172.75,-74.5"/>
<text text-anchor="middle" x="146" y="-61" font-family="Helvetica,sans-Serif" font-size="10.00">mat_io.h</text>
</a>
</g>
</g>
<!-- Node1&#45;&gt;Node4 -->
<g id="edge3" class="edge">
<title>Node1&#45;&gt;Node4</title>
<path fill="none" stroke="#63b8ff" d="M96.31,-110.2C105.88,-101.66 117.98,-90.87 127.85,-82.06"/>
<polygon fill="#63b8ff" stroke="#63b8ff" points="129.69,-85.22 134.83,-75.95 125.03,-80 129.69,-85.22"/>
</g>
<!-- Node5 -->
<g id="node5" class="node">
<title>Node5</title>
<g id="a_node5"><a xlink:title=" ">
<polygon fill="#e0e0e0" stroke="#999999" points="102.38,-19.25 61.62,-19.25 61.62,0 102.38,0 102.38,-19.25"/>
<text text-anchor="middle" x="82" y="-5.75" font-family="Helvetica,sans-Serif" font-size="10.00">mat.h</text>
</a>
</g>
</g>
<!-- Node4&#45;&gt;Node5 -->
<g id="edge4" class="edge">
<title>Node4&#45;&gt;Node5</title>
<path fill="none" stroke="#63b8ff" d="M135.14,-54.84C125.8,-47.07 112.11,-35.67 100.96,-26.4"/>
<polygon fill="#63b8ff" stroke="#63b8ff" points="103.62,-23.23 93.7,-19.52 99.14,-28.61 103.62,-23.23"/>
</g>
<!-- Node6 -->
<g id="node6" class="node">
<title>Node6</title>
<g id="a_node6"><a xlink:title=" ">
<polygon fill="#e0e0e0" stroke="#999999" points="171.62,-19.25 120.38,-19.25 120.38,0 171.62,0 171.62,-19.25"/>
<text text-anchor="middle" x="146" y="-5.75" font-family="Helvetica,sans-Serif" font-size="10.00">matrix.h</text>
</a>
</g>
</g>
<!-- Node4&#45;&gt;Node6 -->
<g id="edge5" class="edge">
<title>Node4&#45;&gt;Node6</title>
<path fill="none" stroke="#63b8ff" d="M146,-55.08C146,-48.42 146,-38.99 146,-30.53"/>
<polygon fill="#63b8ff" stroke="#63b8ff" points="149.5,-30.61 146,-20.61 142.5,-30.61 149.5,-30.61"/>
</g>
<!-- Node7 -->
<g id="node7" class="node">
<title>Node7</title>
<g id="a_node7"><a xlink:title=" ">
<polygon fill="#e0e0e0" stroke="#999999" points="232.5,-19.25 189.5,-19.25 189.5,0 232.5,0 232.5,-19.25"/>
<text text-anchor="middle" x="211" y="-5.75" font-family="Helvetica,sans-Serif" font-size="10.00">mex.h</text>
</a>
</g>
</g>
<!-- Node4&#45;&gt;Node7 -->
<g id="edge6" class="edge">
<title>Node4&#45;&gt;Node7</title>
<path fill="none" stroke="#63b8ff" d="M157.03,-54.84C166.51,-47.07 180.42,-35.67 191.75,-26.4"/>
<polygon fill="#63b8ff" stroke="#63b8ff" points="193.62,-28.57 199.14,-19.52 189.18,-23.15 193.62,-28.57"/>
</g>
</g>
</svg>
