<?xml version="1.0" encoding="UTF-8" standalone="no"?>
<!DOCTYPE svg PUBLIC "-//W3C//DTD SVG 1.1//EN"
 "http://www.w3.org/Graphics/SVG/1.1/DTD/svg11.dtd">
<!-- Generated by graphviz version 8.0.4 (20230421.1958)
 -->
<!-- Title: tdms/include/mesh_base.h Pages: 1 -->
<svg width="856pt" height="304pt"
 viewBox="0.00 0.00 856.00 303.50" xmlns="http://www.w3.org/2000/svg" xmlns:xlink="http://www.w3.org/1999/xlink">
<g id="graph0" class="graph" transform="scale(1 1) rotate(0) translate(4 299.5)">
<title>tdms/include/mesh_base.h</title>
<!-- Node1 -->
<g id="node1" class="node">
<title>Node1</title>
<g id="a_node1"><a xlink:title="Generation of orientated mesh.">
<polygon fill="#999999" stroke="#666666" points="631,-295.5 498,-295.5 498,-276.25 631,-276.25 631,-295.5"/>
<text text-anchor="middle" x="564.5" y="-282" font-family="Helvetica,sans-Serif" font-size="10.00">tdms/include/mesh_base.h</text>
</a>
</g>
</g>
<!-- Node2 -->
<g id="node2" class="node">
<title>Node2</title>
<g id="a_node2"><a xlink:href="mat__io_8h.html" target="_top" xlink:title="Includes MATLAB headers for I/O.">
<polygon fill="white" stroke="#666666" points="788.25,-74.5 734.75,-74.5 734.75,-55.25 788.25,-55.25 788.25,-74.5"/>
<text text-anchor="middle" x="761.5" y="-61" font-family="Helvetica,sans-Serif" font-size="10.00">mat_io.h</text>
</a>
</g>
</g>
<!-- Node1&#45;&gt;Node2 -->
<g id="edge1" class="edge">
<title>Node1&#45;&gt;Node2</title>
<path fill="none" stroke="#63b8ff" d="M586.08,-275.81C629.05,-256.41 724.34,-206.31 761.5,-129.75 768.17,-116 767.66,-98.54 765.77,-85.36"/>
<polygon fill="#63b8ff" stroke="#63b8ff" points="769.05,-84.88 763.8,-75.67 762.17,-86.14 769.05,-84.88"/>
</g>
<!-- Node6 -->
<g id="node6" class="node">
<title>Node6</title>
<g id="a_node6"><a xlink:href="simulation__parameters_8h.html" target="_top" xlink:title="Classes collecting parameters for the simulation.">
<polygon fill="white" stroke="#666666" points="506.75,-240.25 384.25,-240.25 384.25,-221 506.75,-221 506.75,-240.25"/>
<text text-anchor="middle" x="445.5" y="-226.75" font-family="Helvetica,sans-Serif" font-size="10.00">simulation_parameters.h</text>
</a>
</g>
</g>
<!-- Node1&#45;&gt;Node6 -->
<g id="edge5" class="edge">
<title>Node1&#45;&gt;Node6</title>
<path fill="none" stroke="#63b8ff" d="M544.31,-275.84C525.51,-267.43 497.22,-254.77 475.72,-245.15"/>
<polygon fill="#63b8ff" stroke="#63b8ff" points="477.34,-241.59 466.79,-240.7 474.48,-247.98 477.34,-241.59"/>
</g>
<!-- Node3 -->
<g id="node3" class="node">
<title>Node3</title>
<g id="a_node3"><a xlink:title=" ">
<polygon fill="#e0e0e0" stroke="#999999" points="717.88,-19.25 677.12,-19.25 677.12,0 717.88,0 717.88,-19.25"/>
<text text-anchor="middle" x="697.5" y="-5.75" font-family="Helvetica,sans-Serif" font-size="10.00">mat.h</text>
</a>
</g>
</g>
<!-- Node2&#45;&gt;Node3 -->
<g id="edge2" class="edge">
<title>Node2&#45;&gt;Node3</title>
<path fill="none" stroke="#63b8ff" d="M750.64,-54.84C741.3,-47.07 727.61,-35.67 716.46,-26.4"/>
<polygon fill="#63b8ff" stroke="#63b8ff" points="719.12,-23.23 709.2,-19.52 714.64,-28.61 719.12,-23.23"/>
</g>
<!-- Node4 -->
<g id="node4" class="node">
<title>Node4</title>
<g id="a_node4"><a xlink:title=" ">
<polygon fill="#e0e0e0" stroke="#999999" points="787.12,-19.25 735.88,-19.25 735.88,0 787.12,0 787.12,-19.25"/>
<text text-anchor="middle" x="761.5" y="-5.75" font-family="Helvetica,sans-Serif" font-size="10.00">matrix.h</text>
</a>
</g>
</g>
<!-- Node2&#45;&gt;Node4 -->
<g id="edge3" class="edge">
<title>Node2&#45;&gt;Node4</title>
<path fill="none" stroke="#63b8ff" d="M761.5,-55.08C761.5,-48.42 761.5,-38.99 761.5,-30.53"/>
<polygon fill="#63b8ff" stroke="#63b8ff" points="765,-30.61 761.5,-20.61 758,-30.61 765,-30.61"/>
</g>
<!-- Node5 -->
<g id="node5" class="node">
<title>Node5</title>
<g id="a_node5"><a xlink:title=" ">
<polygon fill="#e0e0e0" stroke="#999999" points="848,-19.25 805,-19.25 805,0 848,0 848,-19.25"/>
<text text-anchor="middle" x="826.5" y="-5.75" font-family="Helvetica,sans-Serif" font-size="10.00">mex.h</text>
</a>
</g>
</g>
<!-- Node2&#45;&gt;Node5 -->
<g id="edge4" class="edge">
<title>Node2&#45;&gt;Node5</title>
<path fill="none" stroke="#63b8ff" d="M772.53,-54.84C782.01,-47.07 795.92,-35.67 807.25,-26.4"/>
<polygon fill="#63b8ff" stroke="#63b8ff" points="809.12,-28.57 814.64,-19.52 804.68,-23.15 809.12,-28.57"/>
</g>
<!-- Node7 -->
<g id="node7" class="node">
<title>Node7</title>
<g id="a_node7"><a xlink:title=" ">
<polygon fill="#e0e0e0" stroke="#999999" points="472.5,-74.5 432.5,-74.5 432.5,-55.25 472.5,-55.25 472.5,-74.5"/>
<text text-anchor="middle" x="452.5" y="-61" font-family="Helvetica,sans-Serif" font-size="10.00">string</text>
</a>
</g>
</g>
<!-- Node6&#45;&gt;Node7 -->
<g id="edge6" class="edge">
<title>Node6&#45;&gt;Node7</title>
<path fill="none" stroke="#63b8ff" d="M384.01,-226.44C275.77,-218.67 69.09,-192.85 140.5,-110.5 176.66,-68.79 349.63,-65.11 421.3,-65.42"/>
<polygon fill="#63b8ff" stroke="#63b8ff" points="421.25,-68.93 431.28,-65.5 421.31,-61.93 421.25,-68.93"/>
</g>
<!-- Node8 -->
<g id="node8" class="node">
<title>Node8</title>
<g id="a_node8"><a xlink:href="arrays_8h.html" target="_top" xlink:title="Classes describing arrays, vertices etc.">
<polygon fill="white" stroke="#666666" points="319.12,-185 267.88,-185 267.88,-165.75 319.12,-165.75 319.12,-185"/>
<text text-anchor="middle" x="293.5" y="-171.5" font-family="Helvetica,sans-Serif" font-size="10.00">arrays.h</text>
</a>
</g>
</g>
<!-- Node6&#45;&gt;Node8 -->
<g id="edge7" class="edge">
<title>Node6&#45;&gt;Node8</title>
<path fill="none" stroke="#63b8ff" d="M419.72,-220.59C394.93,-211.91 357.25,-198.71 329.51,-188.99"/>
<polygon fill="#63b8ff" stroke="#63b8ff" points="331.01,-185.46 320.41,-185.45 328.69,-192.06 331.01,-185.46"/>
</g>
<!-- Node15 -->
<g id="node15" class="node">
<title>Node15</title>
<g id="a_node15"><a xlink:href="input__matrices_8h.html" target="_top" xlink:title="Class handling the input matrices that are read in from the input file.">
<polygon fill="white" stroke="#666666" points="605.5,-185 517.5,-185 517.5,-165.75 605.5,-165.75 605.5,-185"/>
<text text-anchor="middle" x="561.5" y="-171.5" font-family="Helvetica,sans-Serif" font-size="10.00">input_matrices.h</text>
</a>
</g>
</g>
<!-- Node6&#45;&gt;Node15 -->
<g id="edge17" class="edge">
<title>Node6&#45;&gt;Node15</title>
<path fill="none" stroke="#63b8ff" d="M465.18,-220.59C483.43,-212.22 510.83,-199.63 531.75,-190.03"/>
<polygon fill="#63b8ff" stroke="#63b8ff" points="533.1,-192.81 540.73,-185.45 530.18,-186.44 533.1,-192.81"/>
</g>
<!-- Node8&#45;&gt;Node7 -->
<g id="edge10" class="edge">
<title>Node8&#45;&gt;Node7</title>
<path fill="none" stroke="#63b8ff" d="M307.15,-165.39C320.73,-156.43 342.13,-142.25 360.5,-129.75 384.73,-113.27 412.32,-94.05 430.92,-81.03"/>
<polygon fill="#63b8ff" stroke="#63b8ff" points="432.57,-83.45 438.75,-74.84 428.56,-77.71 432.57,-83.45"/>
</g>
<!-- Node9 -->
<g id="node9" class="node">
<title>Node9</title>
<g id="a_node9"><a xlink:title=" ">
<polygon fill="#e0e0e0" stroke="#999999" points="100.88,-74.5 48.12,-74.5 48.12,-55.25 100.88,-55.25 100.88,-74.5"/>
<text text-anchor="middle" x="74.5" y="-61" font-family="Helvetica,sans-Serif" font-size="10.00">complex</text>
</a>
</g>
</g>
<!-- Node8&#45;&gt;Node9 -->
<g id="edge8" class="edge">
<title>Node8&#45;&gt;Node9</title>
<path fill="none" stroke="#63b8ff" d="M267.63,-170.75C235.93,-165.45 181.41,-153.52 140.5,-129.75 119.49,-117.54 100.11,-97.24 87.86,-82.8"/>
<polygon fill="#63b8ff" stroke="#63b8ff" points="90.26,-81.2 81.21,-75.69 84.85,-85.64 90.26,-81.2"/>
</g>
<!-- Node10 -->
<g id="node10" class="node">
<title>Node10</title>
<g id="a_node10"><a xlink:title=" ">
<polygon fill="#e0e0e0" stroke="#999999" points="287.88,-129.75 229.12,-129.75 229.12,-110.5 287.88,-110.5 287.88,-129.75"/>
<text text-anchor="middle" x="258.5" y="-116.25" font-family="Helvetica,sans-Serif" font-size="10.00">stdexcept</text>
</a>
</g>
</g>
<!-- Node8&#45;&gt;Node10 -->
<g id="edge9" class="edge">
<title>Node8&#45;&gt;Node10</title>
<path fill="none" stroke="#63b8ff" d="M287.72,-165.58C283.04,-158.46 276.28,-148.18 270.44,-139.3"/>
<polygon fill="#63b8ff" stroke="#63b8ff" points="272.82,-137.54 264.41,-131.11 266.97,-141.39 272.82,-137.54"/>
</g>
<!-- Node11 -->
<g id="node11" class="node">
<title>Node11</title>
<g id="a_node11"><a xlink:title=" ">
<polygon fill="#e0e0e0" stroke="#999999" points="351.5,-129.75 305.5,-129.75 305.5,-110.5 351.5,-110.5 351.5,-129.75"/>
<text text-anchor="middle" x="328.5" y="-116.25" font-family="Helvetica,sans-Serif" font-size="10.00">fftw3.h</text>
</a>
</g>
</g>
<!-- Node8&#45;&gt;Node11 -->
<g id="edge11" class="edge">
<title>Node8&#45;&gt;Node11</title>
<path fill="none" stroke="#63b8ff" d="M299.28,-165.58C303.96,-158.46 310.72,-148.18 316.56,-139.3"/>
<polygon fill="#63b8ff" stroke="#63b8ff" points="320.03,-141.39 322.59,-131.11 314.18,-137.54 320.03,-141.39"/>
</g>
<!-- Node12 -->
<g id="node12" class="node">
<title>Node12</title>
<g id="a_node12"><a xlink:href="globals_8h.html" target="_top" xlink:title="Type definitions and global constants.">
<polygon fill="white" stroke="#666666" points="55,-129.75 0,-129.75 0,-110.5 55,-110.5 55,-129.75"/>
<text text-anchor="middle" x="27.5" y="-116.25" font-family="Helvetica,sans-Serif" font-size="10.00">globals.h</text>
</a>
</g>
</g>
<!-- Node8&#45;&gt;Node12 -->
<g id="edge12" class="edge">
<title>Node8&#45;&gt;Node12</title>
<path fill="none" stroke="#63b8ff" d="M267.51,-169.17C220.42,-159.75 120.81,-139.8 65.87,-128.81"/>
<polygon fill="#63b8ff" stroke="#63b8ff" points="66.68,-125.2 56.19,-126.67 65.3,-132.06 66.68,-125.2"/>
</g>
<!-- Node13 -->
<g id="node13" class="node">
<title>Node13</title>
<g id="a_node13"><a xlink:title=" ">
<polygon fill="#e0e0e0" stroke="#999999" points="211,-129.75 150,-129.75 150,-110.5 211,-110.5 211,-129.75"/>
<text text-anchor="middle" x="180.5" y="-116.25" font-family="Helvetica,sans-Serif" font-size="10.00">matlabio.h</text>
</a>
</g>
</g>
<!-- Node8&#45;&gt;Node13 -->
<g id="edge14" class="edge">
<title>Node8&#45;&gt;Node13</title>
<path fill="none" stroke="#63b8ff" d="M274.33,-165.34C256.56,-156.97 229.86,-144.38 209.48,-134.78"/>
<polygon fill="#63b8ff" stroke="#63b8ff" points="211.3,-131.3 200.76,-130.2 208.32,-137.63 211.3,-131.3"/>
</g>
<!-- Node14 -->
<g id="node14" class="node">
<title>Node14</title>
<g id="a_node14"><a xlink:href="utils_8h.html" target="_top" xlink:title="Useful miscellaneous utility functions.">
<polygon fill="white" stroke="#666666" points="449.62,-129.75 407.38,-129.75 407.38,-110.5 449.62,-110.5 449.62,-129.75"/>
<text text-anchor="middle" x="428.5" y="-116.25" font-family="Helvetica,sans-Serif" font-size="10.00">utils.h</text>
</a>
</g>
</g>
<!-- Node8&#45;&gt;Node14 -->
<g id="edge15" class="edge">
<title>Node8&#45;&gt;Node14</title>
<path fill="none" stroke="#63b8ff" d="M316.4,-165.34C338.65,-156.57 372.6,-143.18 397.31,-133.43"/>
<polygon fill="#63b8ff" stroke="#63b8ff" points="398.25,-136.42 406.27,-129.5 395.68,-129.91 398.25,-136.42"/>
</g>
<!-- Node12&#45;&gt;Node9 -->
<g id="edge13" class="edge">
<title>Node12&#45;&gt;Node9</title>
<path fill="none" stroke="#63b8ff" d="M35.26,-110.33C41.82,-102.9 51.41,-92.04 59.46,-82.91"/>
<polygon fill="#63b8ff" stroke="#63b8ff" points="61.58,-85.67 65.57,-75.86 56.33,-81.04 61.58,-85.67"/>
</g>
<!-- Node14&#45;&gt;Node7 -->
<g id="edge16" class="edge">
<title>Node14&#45;&gt;Node7</title>
<path fill="none" stroke="#63b8ff" d="M432.46,-110.33C435.61,-103.36 440.11,-93.37 444.05,-84.62"/>
<polygon fill="#63b8ff" stroke="#63b8ff" points="447.53,-86.41 448.45,-75.86 441.15,-83.54 447.53,-86.41"/>
</g>
<!-- Node15&#45;&gt;Node2 -->
<g id="edge22" class="edge">
<title>Node15&#45;&gt;Node2</title>
<path fill="none" stroke="#63b8ff" d="M605.68,-168.58C652.73,-161.55 723.06,-148.29 742.5,-129.75 754.54,-118.27 759.05,-99.54 760.69,-85.33"/>
<polygon fill="#63b8ff" stroke="#63b8ff" points="764.23,-85.94 761.49,-75.7 757.25,-85.41 764.23,-85.94"/>
</g>
<!-- Node15&#45;&gt;Node7 -->
<g id="edge18" class="edge">
<title>Node15&#45;&gt;Node7</title>
<path fill="none" stroke="#63b8ff" d="M545.05,-165.38C531.11,-157.26 511.13,-144.35 496.5,-129.75 482.83,-116.1 470.67,-97.7 462.61,-84.15"/>
<polygon fill="#63b8ff" stroke="#63b8ff" points="465.31,-82.82 457.3,-75.89 459.24,-86.31 465.31,-82.82"/>
</g>
<!-- Node16 -->
<g id="node16" class="node">
<title>Node16</title>
<g id="a_node16"><a xlink:href="input__output__names_8h.html" target="_top" xlink:title="Constant values associated with the format of the input and output files and matrices.">
<polygon fill="white" stroke="#666666" points="617.5,-129.75 505.5,-129.75 505.5,-110.5 617.5,-110.5 617.5,-129.75"/>
<text text-anchor="middle" x="561.5" y="-116.25" font-family="Helvetica,sans-Serif" font-size="10.00">input_output_names.h</text>
</a>
</g>
</g>
<!-- Node15&#45;&gt;Node16 -->
<g id="edge19" class="edge">
<title>Node15&#45;&gt;Node16</title>
<path fill="none" stroke="#63b8ff" d="M561.5,-165.58C561.5,-158.92 561.5,-149.49 561.5,-141.03"/>
<polygon fill="#63b8ff" stroke="#63b8ff" points="565,-141.11 561.5,-131.11 558,-141.11 565,-141.11"/>
</g>
<!-- Node18 -->
<g id="node18" class="node">
<title>Node18</title>
<g id="a_node18"><a xlink:href="matrix__collection_8h.html" target="_top" xlink:title="A collection of named MATLAB matrices.">
<polygon fill="white" stroke="#666666" points="733.38,-129.75 635.62,-129.75 635.62,-110.5 733.38,-110.5 733.38,-129.75"/>
<text text-anchor="middle" x="684.5" y="-116.25" font-family="Helvetica,sans-Serif" font-size="10.00">matrix_collection.h</text>
</a>
</g>
</g>
<!-- Node15&#45;&gt;Node18 -->
<g id="edge23" class="edge">
<title>Node15&#45;&gt;Node18</title>
<path fill="none" stroke="#63b8ff" d="M582.37,-165.34C601.89,-156.89 631.31,-144.15 653.56,-134.52"/>
<polygon fill="#63b8ff" stroke="#63b8ff" points="654.75,-137.39 662.53,-130.2 651.96,-130.96 654.75,-137.39"/>
</g>
<!-- Node16&#45;&gt;Node7 -->
<g id="edge20" class="edge">
<title>Node16&#45;&gt;Node7</title>
<path fill="none" stroke="#63b8ff" d="M543.01,-110.09C525.94,-101.75 500.34,-89.25 480.72,-79.66"/>
<polygon fill="#63b8ff" stroke="#63b8ff" points="482.6,-76.2 472.08,-74.95 479.53,-82.49 482.6,-76.2"/>
</g>
<!-- Node17 -->
<g id="node17" class="node">
<title>Node17</title>
<g id="a_node17"><a xlink:title=" ">
<polygon fill="#e0e0e0" stroke="#999999" points="644,-74.5 601,-74.5 601,-55.25 644,-55.25 644,-74.5"/>
<text text-anchor="middle" x="622.5" y="-61" font-family="Helvetica,sans-Serif" font-size="10.00">vector</text>
</a>
</g>
</g>
<!-- Node16&#45;&gt;Node17 -->
<g id="edge21" class="edge">
<title>Node16&#45;&gt;Node17</title>
<path fill="none" stroke="#63b8ff" d="M571.85,-110.09C580.66,-102.4 593.55,-91.15 604.11,-81.93"/>
<polygon fill="#63b8ff" stroke="#63b8ff" points="606.07,-83.99 611.31,-74.77 601.47,-78.71 606.07,-83.99"/>
</g>
<!-- Node18&#45;&gt;Node2 -->
<g id="edge26" class="edge">
<title>Node18&#45;&gt;Node2</title>
<path fill="none" stroke="#63b8ff" d="M697.56,-110.09C709.07,-102.14 726.06,-90.39 739.63,-81"/>
<polygon fill="#63b8ff" stroke="#63b8ff" points="741.14,-83.52 747.37,-74.95 737.16,-77.76 741.14,-83.52"/>
</g>
<!-- Node18&#45;&gt;Node7 -->
<g id="edge24" class="edge">
<title>Node18&#45;&gt;Node7</title>
<path fill="none" stroke="#63b8ff" d="M644.88,-110.03C599.24,-99.56 525.2,-82.56 483.54,-73"/>
<polygon fill="#63b8ff" stroke="#63b8ff" points="484.47,-69.39 473.94,-70.57 482.9,-76.22 484.47,-69.39"/>
</g>
<!-- Node18&#45;&gt;Node17 -->
<g id="edge25" class="edge">
<title>Node18&#45;&gt;Node17</title>
<path fill="none" stroke="#63b8ff" d="M673.98,-110.09C665.02,-102.4 651.93,-91.15 641.19,-81.93"/>
<polygon fill="#63b8ff" stroke="#63b8ff" points="643.73,-78.64 633.86,-74.77 639.17,-83.95 643.73,-78.64"/>
</g>
</g>
</svg>
