<?xml version="1.0" encoding="UTF-8" standalone="no"?>
<!DOCTYPE svg PUBLIC "-//W3C//DTD SVG 1.1//EN"
 "http://www.w3.org/Graphics/SVG/1.1/DTD/svg11.dtd">
<!-- Generated by graphviz version 13.0.1 (20250615.1724)
 -->
<!-- Title: tdms/include/mesh_base.h Pages: 1 -->
<svg width="883pt" height="304pt"
 viewBox="0.00 0.00 883.00 304.00" xmlns="http://www.w3.org/2000/svg" xmlns:xlink="http://www.w3.org/1999/xlink">
<g id="graph0" class="graph" transform="scale(1 1) rotate(0) translate(4 299.5)">
<title>tdms/include/mesh_base.h</title>
<!-- Node1 -->
<g id="Node000001" class="node">
<title>Node1</title>
<g id="a_Node000001"><a xlink:title="Generation of orientated mesh.">
<polygon fill="#999999" stroke="#666666" points="738.88,-295.5 605.88,-295.5 605.88,-276.25 738.88,-276.25 738.88,-295.5"/>
<text xml:space="preserve" text-anchor="middle" x="672.38" y="-282" font-family="Helvetica,sans-Serif" font-size="10.00">tdms/include/mesh_base.h</text>
</a>
</g>
</g>
<!-- Node2 -->
<g id="Node000002" class="node">
<title>Node2</title>
<g id="a_Node000002"><a xlink:href="mat__io_8h.html" target="_top" xlink:title="Includes MATLAB headers for I/O.">
<polygon fill="white" stroke="#666666" points="815.12,-74.5 761.62,-74.5 761.62,-55.25 815.12,-55.25 815.12,-74.5"/>
<text xml:space="preserve" text-anchor="middle" x="788.38" y="-61" font-family="Helvetica,sans-Serif" font-size="10.00">mat_io.h</text>
</a>
</g>
</g>
<!-- Node1&#45;&gt;Node2 -->
<g id="edge1_Node000001_Node000002" class="edge">
<title>Node1&#45;&gt;Node2</title>
<g id="a_edge1_Node000001_Node000002"><a xlink:title=" ">
<path fill="none" stroke="#63b8ff" d="M682.55,-276.03C706.8,-254.18 767.63,-194.68 789.38,-129.75 794.08,-115.71 793.6,-98.94 792.07,-86.11"/>
<polygon fill="#63b8ff" stroke="#63b8ff" points="795.55,-85.69 790.57,-76.33 788.63,-86.75 795.55,-85.69"/>
</a>
</g>
</g>
<!-- Node6 -->
<g id="Node000006" class="node">
<title>Node6</title>
<g id="a_Node000006"><a xlink:href="simulation__parameters_8h.html" target="_top" xlink:title="Classes collecting parameters for the simulation.">
<polygon fill="white" stroke="#666666" points="579.62,-240.25 457.12,-240.25 457.12,-221 579.62,-221 579.62,-240.25"/>
<text xml:space="preserve" text-anchor="middle" x="518.38" y="-226.75" font-family="Helvetica,sans-Serif" font-size="10.00">simulation_parameters.h</text>
</a>
</g>
</g>
<!-- Node1&#45;&gt;Node6 -->
<g id="edge5_Node000001_Node000006" class="edge">
<title>Node1&#45;&gt;Node6</title>
<g id="a_edge5_Node000001_Node000006"><a xlink:title=" ">
<path fill="none" stroke="#63b8ff" d="M646.25,-275.84C621.25,-267.2 583.3,-254.07 555.23,-244.37"/>
<polygon fill="#63b8ff" stroke="#63b8ff" points="556.65,-241.16 546.06,-241.2 554.36,-247.77 556.65,-241.16"/>
</a>
</g>
</g>
<!-- Node3 -->
<g id="Node000003" class="node">
<title>Node3</title>
<g id="a_Node000003"><a xlink:title=" ">
<polygon fill="#e0e0e0" stroke="#999999" points="744.75,-19.25 704,-19.25 704,0 744.75,0 744.75,-19.25"/>
<text xml:space="preserve" text-anchor="middle" x="724.38" y="-5.75" font-family="Helvetica,sans-Serif" font-size="10.00">mat.h</text>
</a>
</g>
</g>
<!-- Node2&#45;&gt;Node3 -->
<g id="edge2_Node000002_Node000003" class="edge">
<title>Node2&#45;&gt;Node3</title>
<g id="a_edge2_Node000002_Node000003"><a xlink:title=" ">
<path fill="none" stroke="#63b8ff" d="M777.52,-54.84C768.27,-47.15 754.75,-35.9 743.67,-26.68"/>
<polygon fill="#63b8ff" stroke="#63b8ff" points="746.16,-24.2 736.23,-20.49 741.68,-29.58 746.16,-24.2"/>
</a>
</g>
</g>
<!-- Node4 -->
<g id="Node000004" class="node">
<title>Node4</title>
<g id="a_Node000004"><a xlink:title=" ">
<polygon fill="#e0e0e0" stroke="#999999" points="814,-19.25 762.75,-19.25 762.75,0 814,0 814,-19.25"/>
<text xml:space="preserve" text-anchor="middle" x="788.38" y="-5.75" font-family="Helvetica,sans-Serif" font-size="10.00">matrix.h</text>
</a>
</g>
</g>
<!-- Node2&#45;&gt;Node4 -->
<g id="edge3_Node000002_Node000004" class="edge">
<title>Node2&#45;&gt;Node4</title>
<g id="a_edge3_Node000002_Node000004"><a xlink:title=" ">
<path fill="none" stroke="#63b8ff" d="M788.38,-55.08C788.38,-48.57 788.38,-39.42 788.38,-31.12"/>
<polygon fill="#63b8ff" stroke="#63b8ff" points="791.88,-31.12 788.38,-21.12 784.88,-31.12 791.88,-31.12"/>
</a>
</g>
</g>
<!-- Node5 -->
<g id="Node000005" class="node">
<title>Node5</title>
<g id="a_Node000005"><a xlink:title=" ">
<polygon fill="#e0e0e0" stroke="#999999" points="874.88,-19.25 831.88,-19.25 831.88,0 874.88,0 874.88,-19.25"/>
<text xml:space="preserve" text-anchor="middle" x="853.38" y="-5.75" font-family="Helvetica,sans-Serif" font-size="10.00">mex.h</text>
</a>
</g>
</g>
<!-- Node2&#45;&gt;Node5 -->
<g id="edge4_Node000002_Node000005" class="edge">
<title>Node2&#45;&gt;Node5</title>
<g id="a_edge4_Node000002_Node000005"><a xlink:title=" ">
<path fill="none" stroke="#63b8ff" d="M799.4,-54.84C808.8,-47.15 822.52,-35.9 833.78,-26.68"/>
<polygon fill="#63b8ff" stroke="#63b8ff" points="835.82,-29.53 841.34,-20.48 831.39,-24.11 835.82,-29.53"/>
</a>
</g>
</g>
<!-- Node7 -->
<g id="Node000007" class="node">
<title>Node7</title>
<g id="a_Node000007"><a xlink:title=" ">
<polygon fill="#e0e0e0" stroke="#999999" points="448.38,-74.5 408.38,-74.5 408.38,-55.25 448.38,-55.25 448.38,-74.5"/>
<text xml:space="preserve" text-anchor="middle" x="428.38" y="-61" font-family="Helvetica,sans-Serif" font-size="10.00">string</text>
</a>
</g>
</g>
<!-- Node6&#45;&gt;Node7 -->
<g id="edge6_Node000006_Node000007" class="edge">
<title>Node6&#45;&gt;Node7</title>
<g id="a_edge6_Node000006_Node000007"><a xlink:title=" ">
<path fill="none" stroke="#63b8ff" d="M494.09,-220.61C478.22,-213.42 458.45,-201.76 447.38,-185 427.51,-154.94 425.77,-111.49 426.76,-86.22"/>
<polygon fill="#63b8ff" stroke="#63b8ff" points="430.24,-86.53 427.35,-76.34 423.26,-86.11 430.24,-86.53"/>
</a>
</g>
</g>
<!-- Node8 -->
<g id="Node000008" class="node">
<title>Node8</title>
<g id="a_Node000008"><a xlink:href="arrays_8h.html" target="_top" xlink:title="Classes describing arrays, vertices etc.">
<polygon fill="white" stroke="#666666" points="295,-185 243.75,-185 243.75,-165.75 295,-165.75 295,-185"/>
<text xml:space="preserve" text-anchor="middle" x="269.38" y="-171.5" font-family="Helvetica,sans-Serif" font-size="10.00">arrays.h</text>
</a>
</g>
</g>
<!-- Node6&#45;&gt;Node8 -->
<g id="edge7_Node000006_Node000008" class="edge">
<title>Node6&#45;&gt;Node8</title>
<g id="a_edge7_Node000006_Node000008"><a xlink:title=" ">
<path fill="none" stroke="#63b8ff" d="M475.85,-220.53C428.19,-210.34 351.68,-193.98 306.39,-184.29"/>
<polygon fill="#63b8ff" stroke="#63b8ff" points="307.3,-180.91 296.79,-182.24 305.84,-187.75 307.3,-180.91"/>
</a>
</g>
</g>
<!-- Node18 -->
<g id="Node000018" class="node">
<title>Node18</title>
<g id="a_Node000018"><a xlink:title=" ">
<polygon fill="#e0e0e0" stroke="#999999" points="580.38,-185 456.38,-185 456.38,-165.75 580.38,-165.75 580.38,-185"/>
<text xml:space="preserve" text-anchor="middle" x="518.38" y="-171.5" font-family="Helvetica,sans-Serif" font-size="10.00">arrays/vector_typedefs.h</text>
</a>
</g>
</g>
<!-- Node6&#45;&gt;Node18 -->
<g id="edge22_Node000006_Node000018" class="edge">
<title>Node6&#45;&gt;Node18</title>
<g id="a_edge22_Node000006_Node000018"><a xlink:title=" ">
<path fill="none" stroke="#63b8ff" d="M518.38,-220.83C518.38,-214.32 518.38,-205.17 518.38,-196.87"/>
<polygon fill="#63b8ff" stroke="#63b8ff" points="521.88,-196.87 518.38,-186.87 514.88,-196.87 521.88,-196.87"/>
</a>
</g>
</g>
<!-- Node19 -->
<g id="Node000019" class="node">
<title>Node19</title>
<g id="a_Node000019"><a xlink:href="input__matrices_8h.html" target="_top" xlink:title="Class handling the input matrices that are read in from the input file.">
<polygon fill="white" stroke="#666666" points="686.38,-185 598.38,-185 598.38,-165.75 686.38,-165.75 686.38,-185"/>
<text xml:space="preserve" text-anchor="middle" x="642.38" y="-171.5" font-family="Helvetica,sans-Serif" font-size="10.00">input_matrices.h</text>
</a>
</g>
</g>
<!-- Node6&#45;&gt;Node19 -->
<g id="edge23_Node000006_Node000019" class="edge">
<title>Node6&#45;&gt;Node19</title>
<g id="a_edge23_Node000006_Node000019"><a xlink:title=" ">
<path fill="none" stroke="#63b8ff" d="M539.41,-220.59C559.01,-212.18 588.48,-199.52 610.88,-189.9"/>
<polygon fill="#63b8ff" stroke="#63b8ff" points="612.04,-193.21 619.85,-186.05 609.28,-186.78 612.04,-193.21"/>
</a>
</g>
</g>
<!-- Node8&#45;&gt;Node7 -->
<g id="edge10_Node000008_Node000007" class="edge">
<title>Node8&#45;&gt;Node7</title>
<g id="a_edge10_Node000008_Node000007"><a xlink:title=" ">
<path fill="none" stroke="#63b8ff" d="M278.7,-165.43C292.56,-152.42 319.7,-127.92 345.38,-110.5 362.37,-98.97 382.65,-88.02 398.91,-79.85"/>
<polygon fill="#63b8ff" stroke="#63b8ff" points="400.16,-83.14 407.58,-75.58 397.06,-76.86 400.16,-83.14"/>
</a>
</g>
</g>
<!-- Node9 -->
<g id="Node000009" class="node">
<title>Node9</title>
<g id="a_Node000009"><a xlink:title=" ">
<polygon fill="#e0e0e0" stroke="#999999" points="52.75,-74.5 0,-74.5 0,-55.25 52.75,-55.25 52.75,-74.5"/>
<text xml:space="preserve" text-anchor="middle" x="26.38" y="-61" font-family="Helvetica,sans-Serif" font-size="10.00">complex</text>
</a>
</g>
</g>
<!-- Node8&#45;&gt;Node9 -->
<g id="edge8_Node000008_Node000009" class="edge">
<title>Node8&#45;&gt;Node9</title>
<g id="a_edge8_Node000008_Node000009"><a xlink:title=" ">
<path fill="none" stroke="#63b8ff" d="M243.45,-173.82C185.05,-171.96 46.06,-163.97 17.38,-129.75 7.14,-117.55 11.05,-99.2 16.55,-85.29"/>
<polygon fill="#63b8ff" stroke="#63b8ff" points="19.7,-86.82 20.65,-76.26 13.33,-83.93 19.7,-86.82"/>
</a>
</g>
</g>
<!-- Node10 -->
<g id="Node000010" class="node">
<title>Node10</title>
<g id="a_Node000010"><a xlink:title=" ">
<polygon fill="#e0e0e0" stroke="#999999" points="298.75,-129.75 240,-129.75 240,-110.5 298.75,-110.5 298.75,-129.75"/>
<text xml:space="preserve" text-anchor="middle" x="269.38" y="-116.25" font-family="Helvetica,sans-Serif" font-size="10.00">stdexcept</text>
</a>
</g>
</g>
<!-- Node8&#45;&gt;Node10 -->
<g id="edge9_Node000008_Node000010" class="edge">
<title>Node8&#45;&gt;Node10</title>
<g id="a_edge9_Node000008_Node000010"><a xlink:title=" ">
<path fill="none" stroke="#63b8ff" d="M269.38,-165.58C269.38,-159.07 269.38,-149.92 269.38,-141.62"/>
<polygon fill="#63b8ff" stroke="#63b8ff" points="272.88,-141.62 269.38,-131.62 265.88,-141.62 272.88,-141.62"/>
</a>
</g>
</g>
<!-- Node11 -->
<g id="Node000011" class="node">
<title>Node11</title>
<g id="a_Node000011"><a xlink:title=" ">
<polygon fill="#e0e0e0" stroke="#999999" points="567.88,-74.5 524.88,-74.5 524.88,-55.25 567.88,-55.25 567.88,-74.5"/>
<text xml:space="preserve" text-anchor="middle" x="546.38" y="-61" font-family="Helvetica,sans-Serif" font-size="10.00">vector</text>
</a>
</g>
</g>
<!-- Node8&#45;&gt;Node11 -->
<g id="edge11_Node000008_Node000011" class="edge">
<title>Node8&#45;&gt;Node11</title>
<g id="a_edge11_Node000008_Node000011"><a xlink:title=" ">
<path fill="none" stroke="#63b8ff" d="M295.26,-167.2C323.63,-159.09 370.29,-145.02 409.38,-129.75 448.22,-114.58 491.63,-93.63 518.96,-79.92"/>
<polygon fill="#63b8ff" stroke="#63b8ff" points="520.26,-83.19 527.6,-75.56 517.1,-76.94 520.26,-83.19"/>
</a>
</g>
</g>
<!-- Node12 -->
<g id="Node000012" class="node">
<title>Node12</title>
<g id="a_Node000012"><a xlink:title=" ">
<polygon fill="#e0e0e0" stroke="#999999" points="400.38,-129.75 354.38,-129.75 354.38,-110.5 400.38,-110.5 400.38,-129.75"/>
<text xml:space="preserve" text-anchor="middle" x="377.38" y="-116.25" font-family="Helvetica,sans-Serif" font-size="10.00">fftw3.h</text>
</a>
</g>
</g>
<!-- Node8&#45;&gt;Node12 -->
<g id="edge12_Node000008_Node000012" class="edge">
<title>Node8&#45;&gt;Node12</title>
<g id="a_edge12_Node000008_Node000012"><a xlink:title=" ">
<path fill="none" stroke="#63b8ff" d="M287.7,-165.34C304.45,-157.08 329.51,-144.73 348.88,-135.18"/>
<polygon fill="#63b8ff" stroke="#63b8ff" points="350.19,-138.43 357.61,-130.87 347.09,-132.15 350.19,-138.43"/>
</a>
</g>
</g>
<!-- Node13 -->
<g id="Node000013" class="node">
<title>Node13</title>
<g id="a_Node000013"><a xlink:href="globals_8h.html" target="_top" xlink:title="Type definitions and global constants.">
<polygon fill="white" stroke="#666666" points="81.88,-129.75 26.88,-129.75 26.88,-110.5 81.88,-110.5 81.88,-129.75"/>
<text xml:space="preserve" text-anchor="middle" x="54.38" y="-116.25" font-family="Helvetica,sans-Serif" font-size="10.00">globals.h</text>
</a>
</g>
</g>
<!-- Node8&#45;&gt;Node13 -->
<g id="edge13_Node000008_Node000013" class="edge">
<title>Node8&#45;&gt;Node13</title>
<g id="a_edge13_Node000008_Node000013"><a xlink:title=" ">
<path fill="none" stroke="#63b8ff" d="M243.44,-167.95C206.02,-158.68 136.61,-141.49 93.1,-130.72"/>
<polygon fill="#63b8ff" stroke="#63b8ff" points="94.12,-127.36 83.57,-128.36 92.43,-134.16 94.12,-127.36"/>
</a>
</g>
</g>
<!-- Node14 -->
<g id="Node000014" class="node">
<title>Node14</title>
<g id="a_Node000014"><a xlink:title=" ">
<polygon fill="#e0e0e0" stroke="#999999" points="160.88,-129.75 99.88,-129.75 99.88,-110.5 160.88,-110.5 160.88,-129.75"/>
<text xml:space="preserve" text-anchor="middle" x="130.38" y="-116.25" font-family="Helvetica,sans-Serif" font-size="10.00">matlabio.h</text>
</a>
</g>
</g>
<!-- Node8&#45;&gt;Node14 -->
<g id="edge16_Node000008_Node000014" class="edge">
<title>Node8&#45;&gt;Node14</title>
<g id="a_edge16_Node000008_Node000014"><a xlink:title=" ">
<path fill="none" stroke="#63b8ff" d="M245.8,-165.34C223.53,-156.81 189.88,-143.92 164.65,-134.26"/>
<polygon fill="#63b8ff" stroke="#63b8ff" points="166.07,-131.05 155.48,-130.74 163.57,-137.59 166.07,-131.05"/>
</a>
</g>
</g>
<!-- Node15 -->
<g id="Node000015" class="node">
<title>Node15</title>
<g id="a_Node000015"><a xlink:href="utils_8h.html" target="_top" xlink:title="Useful miscellaneous utility functions.">
<polygon fill="white" stroke="#666666" points="221.5,-129.75 179.25,-129.75 179.25,-110.5 221.5,-110.5 221.5,-129.75"/>
<text xml:space="preserve" text-anchor="middle" x="200.38" y="-116.25" font-family="Helvetica,sans-Serif" font-size="10.00">utils.h</text>
</a>
</g>
</g>
<!-- Node8&#45;&gt;Node15 -->
<g id="edge17_Node000008_Node000015" class="edge">
<title>Node8&#45;&gt;Node15</title>
<g id="a_edge17_Node000008_Node000015"><a xlink:title=" ">
<path fill="none" stroke="#63b8ff" d="M257.67,-165.34C247.6,-157.57 232.83,-146.17 220.81,-136.9"/>
<polygon fill="#63b8ff" stroke="#63b8ff" points="223.16,-134.29 213.11,-130.95 218.88,-139.83 223.16,-134.29"/>
</a>
</g>
</g>
<!-- Node13&#45;&gt;Node7 -->
<g id="edge15_Node000013_Node000007" class="edge">
<title>Node13&#45;&gt;Node7</title>
<g id="a_edge15_Node000013_Node000007"><a xlink:title=" ">
<path fill="none" stroke="#63b8ff" d="M82.22,-112.15C84.97,-111.55 87.72,-110.99 90.38,-110.5 202.27,-89.77 336.73,-75.01 396.75,-68.94"/>
<polygon fill="#63b8ff" stroke="#63b8ff" points="396.96,-72.44 406.56,-67.96 396.26,-65.47 396.96,-72.44"/>
</a>
</g>
</g>
<!-- Node13&#45;&gt;Node9 -->
<g id="edge14_Node000013_Node000009" class="edge">
<title>Node13&#45;&gt;Node9</title>
<g id="a_edge14_Node000013_Node000009"><a xlink:title=" ">
<path fill="none" stroke="#63b8ff" d="M49.75,-110.33C46.13,-103.44 40.95,-93.59 36.38,-84.91"/>
<polygon fill="#63b8ff" stroke="#63b8ff" points="39.56,-83.42 31.8,-76.2 33.36,-86.68 39.56,-83.42"/>
</a>
</g>
</g>
<!-- Node15&#45;&gt;Node7 -->
<g id="edge20_Node000015_Node000007" class="edge">
<title>Node15&#45;&gt;Node7</title>
<g id="a_edge20_Node000015_Node000007"><a xlink:title=" ">
<path fill="none" stroke="#63b8ff" d="M221.68,-113.05C224.92,-112.17 228.23,-111.29 231.38,-110.5 289.46,-95.85 357.75,-80.88 396.76,-72.54"/>
<polygon fill="#63b8ff" stroke="#63b8ff" points="397.35,-75.99 406.4,-70.49 395.89,-69.15 397.35,-75.99"/>
</a>
</g>
</g>
<!-- Node15&#45;&gt;Node11 -->
<g id="edge21_Node000015_Node000011" class="edge">
<title>Node15&#45;&gt;Node11</title>
<g id="a_edge21_Node000015_Node000011"><a xlink:title=" ">
<path fill="none" stroke="#63b8ff" d="M221.97,-112.73C225.11,-111.91 228.31,-111.14 231.38,-110.5 333.08,-89.24 455.41,-75.13 513.13,-69.14"/>
<polygon fill="#63b8ff" stroke="#63b8ff" points="513.34,-72.64 522.93,-68.14 512.63,-65.67 513.34,-72.64"/>
</a>
</g>
</g>
<!-- Node16 -->
<g id="Node000016" class="node">
<title>Node16</title>
<g id="a_Node000016"><a xlink:title=" ">
<polygon fill="#e0e0e0" stroke="#999999" points="262.25,-74.5 206.5,-74.5 206.5,-55.25 262.25,-55.25 262.25,-74.5"/>
<text xml:space="preserve" text-anchor="middle" x="234.38" y="-61" font-family="Helvetica,sans-Serif" font-size="10.00">algorithm</text>
</a>
</g>
</g>
<!-- Node15&#45;&gt;Node16 -->
<g id="edge18_Node000015_Node000016" class="edge">
<title>Node15&#45;&gt;Node16</title>
<g id="a_edge18_Node000015_Node000016"><a xlink:title=" ">
<path fill="none" stroke="#63b8ff" d="M205.99,-110.33C210.49,-103.28 216.96,-93.15 222.59,-84.33"/>
<polygon fill="#63b8ff" stroke="#63b8ff" points="225.39,-86.45 227.82,-76.13 219.49,-82.68 225.39,-86.45"/>
</a>
</g>
</g>
<!-- Node17 -->
<g id="Node000017" class="node">
<title>Node17</title>
<g id="a_Node000017"><a xlink:title=" ">
<polygon fill="#e0e0e0" stroke="#999999" points="188.38,-74.5 142.38,-74.5 142.38,-55.25 188.38,-55.25 188.38,-74.5"/>
<text xml:space="preserve" text-anchor="middle" x="165.38" y="-61" font-family="Helvetica,sans-Serif" font-size="10.00">iterator</text>
</a>
</g>
</g>
<!-- Node15&#45;&gt;Node17 -->
<g id="edge19_Node000015_Node000017" class="edge">
<title>Node15&#45;&gt;Node17</title>
<g id="a_edge19_Node000015_Node000017"><a xlink:title=" ">
<path fill="none" stroke="#63b8ff" d="M194.6,-110.33C189.96,-103.28 183.3,-93.15 177.51,-84.33"/>
<polygon fill="#63b8ff" stroke="#63b8ff" points="180.53,-82.56 172.11,-76.12 174.68,-86.4 180.53,-82.56"/>
</a>
</g>
</g>
<!-- Node19&#45;&gt;Node2 -->
<g id="edge28_Node000019_Node000002" class="edge">
<title>Node19&#45;&gt;Node2</title>
<g id="a_edge28_Node000019_Node000002"><a xlink:title=" ">
<path fill="none" stroke="#63b8ff" d="M686.7,-169.08C713.99,-163.59 747.78,-152.43 769.38,-129.75 780.49,-118.08 785.14,-100.19 787.06,-86.31"/>
<polygon fill="#63b8ff" stroke="#63b8ff" points="790.53,-86.78 788.02,-76.49 783.56,-86.1 790.53,-86.78"/>
</a>
</g>
</g>
<!-- Node19&#45;&gt;Node7 -->
<g id="edge24_Node000019_Node000007" class="edge">
<title>Node19&#45;&gt;Node7</title>
<g id="a_edge24_Node000019_Node000007"><a xlink:title=" ">
<path fill="none" stroke="#63b8ff" d="M612.71,-165.39C588.12,-157.44 552.61,-144.8 523.38,-129.75 496.26,-115.79 467.53,-95.62 448.85,-81.7"/>
<polygon fill="#63b8ff" stroke="#63b8ff" points="451.12,-79.03 441.03,-75.78 446.89,-84.61 451.12,-79.03"/>
</a>
</g>
</g>
<!-- Node20 -->
<g id="Node000020" class="node">
<title>Node20</title>
<g id="a_Node000020"><a xlink:href="input__output__names_8h.html" target="_top" xlink:title="Constant values associated with the format of the input and output files and matrices.">
<polygon fill="white" stroke="#666666" points="644.38,-129.75 532.38,-129.75 532.38,-110.5 644.38,-110.5 644.38,-129.75"/>
<text xml:space="preserve" text-anchor="middle" x="588.38" y="-116.25" font-family="Helvetica,sans-Serif" font-size="10.00">input_output_names.h</text>
</a>
</g>
</g>
<!-- Node19&#45;&gt;Node20 -->
<g id="edge25_Node000019_Node000020" class="edge">
<title>Node19&#45;&gt;Node20</title>
<g id="a_edge25_Node000019_Node000020"><a xlink:title=" ">
<path fill="none" stroke="#63b8ff" d="M633.46,-165.58C625.92,-158.15 614.91,-147.29 605.65,-138.16"/>
<polygon fill="#63b8ff" stroke="#63b8ff" points="608.14,-135.7 598.56,-131.17 603.23,-140.69 608.14,-135.7"/>
</a>
</g>
</g>
<!-- Node21 -->
<g id="Node000021" class="node">
<title>Node21</title>
<g id="a_Node000021"><a xlink:href="matrix__collection_8h.html" target="_top" xlink:title="A collection of named MATLAB matrices.">
<polygon fill="white" stroke="#666666" points="760.25,-129.75 662.5,-129.75 662.5,-110.5 760.25,-110.5 760.25,-129.75"/>
<text xml:space="preserve" text-anchor="middle" x="711.38" y="-116.25" font-family="Helvetica,sans-Serif" font-size="10.00">matrix_collection.h</text>
</a>
</g>
</g>
<!-- Node19&#45;&gt;Node21 -->
<g id="edge29_Node000019_Node000021" class="edge">
<title>Node19&#45;&gt;Node21</title>
<g id="a_edge29_Node000019_Node000021"><a xlink:title=" ">
<path fill="none" stroke="#63b8ff" d="M654.08,-165.34C664.15,-157.57 678.92,-146.17 690.94,-136.9"/>
<polygon fill="#63b8ff" stroke="#63b8ff" points="692.87,-139.83 698.64,-130.95 688.59,-134.29 692.87,-139.83"/>
</a>
</g>
</g>
<!-- Node20&#45;&gt;Node7 -->
<g id="edge26_Node000020_Node000007" class="edge">
<title>Node20&#45;&gt;Node7</title>
<g id="a_edge26_Node000020_Node000007"><a xlink:title=" ">
<path fill="none" stroke="#63b8ff" d="M561.23,-110.09C532.93,-100.67 488.65,-85.94 459.09,-76.1"/>
<polygon fill="#63b8ff" stroke="#63b8ff" points="460.57,-72.9 449.98,-73.06 458.36,-79.54 460.57,-72.9"/>
</a>
</g>
</g>
<!-- Node20&#45;&gt;Node11 -->
<g id="edge27_Node000020_Node000011" class="edge">
<title>Node20&#45;&gt;Node11</title>
<g id="a_edge27_Node000020_Node000011"><a xlink:title=" ">
<path fill="none" stroke="#63b8ff" d="M581.44,-110.33C575.76,-103.13 567.54,-92.71 560.48,-83.76"/>
<polygon fill="#63b8ff" stroke="#63b8ff" points="563.34,-81.73 554.4,-76.05 557.84,-86.07 563.34,-81.73"/>
</a>
</g>
</g>
<!-- Node21&#45;&gt;Node2 -->
<g id="edge32_Node000021_Node000002" class="edge">
<title>Node21&#45;&gt;Node2</title>
<g id="a_edge32_Node000021_Node000002"><a xlink:title=" ">
<path fill="none" stroke="#63b8ff" d="M724.44,-110.09C735.83,-102.21 752.6,-90.61 766.11,-81.27"/>
<polygon fill="#63b8ff" stroke="#63b8ff" points="767.77,-84.38 774,-75.81 763.79,-78.62 767.77,-84.38"/>
</a>
</g>
</g>
<!-- Node21&#45;&gt;Node7 -->
<g id="edge30_Node000021_Node000007" class="edge">
<title>Node21&#45;&gt;Node7</title>
<g id="a_edge30_Node000021_Node000007"><a xlink:title=" ">
<path fill="none" stroke="#63b8ff" d="M663.05,-110.03C605,-99.11 509.3,-81.1 459.96,-71.82"/>
<polygon fill="#63b8ff" stroke="#63b8ff" points="460.71,-68.4 450.24,-69.99 459.42,-75.28 460.71,-68.4"/>
</a>
</g>
</g>
<!-- Node21&#45;&gt;Node11 -->
<g id="edge31_Node000021_Node000011" class="edge">
<title>Node21&#45;&gt;Node11</title>
<g id="a_edge31_Node000021_Node000011"><a xlink:title=" ">
<path fill="none" stroke="#63b8ff" d="M683.38,-110.09C654.52,-100.78 609.55,-86.26 579.07,-76.43"/>
<polygon fill="#63b8ff" stroke="#63b8ff" points="580.2,-73.11 569.61,-73.37 578.05,-79.77 580.2,-73.11"/>
</a>
</g>
</g>
</g>
</svg>
