<?xml version="1.0" encoding="UTF-8" standalone="no"?>
<!DOCTYPE svg PUBLIC "-//W3C//DTD SVG 1.1//EN"
 "http://www.w3.org/Graphics/SVG/1.1/DTD/svg11.dtd">
<!-- Generated by graphviz version 8.0.5 (20230430.1635)
 -->
<!-- Title: tdms/include/mesh_base.h Pages: 1 -->
<svg width="881pt" height="304pt"
 viewBox="0.00 0.00 880.75 303.50" xmlns="http://www.w3.org/2000/svg" xmlns:xlink="http://www.w3.org/1999/xlink">
<g id="graph0" class="graph" transform="scale(1 1) rotate(0) translate(4 299.5)">
<title>tdms/include/mesh_base.h</title>
<!-- Node1 -->
<g id="node1" class="node">
<title>Node1</title>
<g id="a_node1"><a xlink:title="Generation of orientated mesh.">
<polygon fill="#999999" stroke="#666666" points="231.88,-295.5 98.88,-295.5 98.88,-276.25 231.88,-276.25 231.88,-295.5"/>
<text text-anchor="middle" x="165.38" y="-282" font-family="Helvetica,sans-Serif" font-size="10.00">tdms/include/mesh_base.h</text>
</a>
</g>
</g>
<!-- Node2 -->
<g id="node2" class="node">
<title>Node2</title>
<g id="a_node2"><a xlink:href="mat__io_8h.html" target="_top" xlink:title="Includes MATLAB headers for I/O.">
<polygon fill="white" stroke="#666666" points="111.12,-74.5 57.62,-74.5 57.62,-55.25 111.12,-55.25 111.12,-74.5"/>
<text text-anchor="middle" x="84.38" y="-61" font-family="Helvetica,sans-Serif" font-size="10.00">mat_io.h</text>
</a>
</g>
</g>
<!-- Node1&#45;&gt;Node2 -->
<g id="edge1" class="edge">
<title>Node1&#45;&gt;Node2</title>
<path fill="none" stroke="#63b8ff" d="M159.32,-275.95C144.1,-252.95 104.32,-189.29 88.38,-129.75 84.5,-115.27 83.6,-98.32 83.61,-85.52"/>
<polygon fill="#63b8ff" stroke="#63b8ff" points="87.13,-85.8 83.84,-75.73 80.13,-85.65 87.13,-85.8"/>
</g>
<!-- Node6 -->
<g id="node6" class="node">
<title>Node6</title>
<g id="a_node6"><a xlink:href="simulation__parameters_8h.html" target="_top" xlink:title="Classes collecting parameters for the simulation.">
<polygon fill="white" stroke="#666666" points="406.62,-240.25 284.12,-240.25 284.12,-221 406.62,-221 406.62,-240.25"/>
<text text-anchor="middle" x="345.38" y="-226.75" font-family="Helvetica,sans-Serif" font-size="10.00">simulation_parameters.h</text>
</a>
</g>
</g>
<!-- Node1&#45;&gt;Node6 -->
<g id="edge5" class="edge">
<title>Node1&#45;&gt;Node6</title>
<path fill="none" stroke="#63b8ff" d="M195.91,-275.84C225.78,-267.01 271.46,-253.49 304.46,-243.73"/>
<polygon fill="#63b8ff" stroke="#63b8ff" points="305.09,-246.9 313.69,-240.7 303.11,-240.18 305.09,-246.9"/>
</g>
<!-- Node3 -->
<g id="node3" class="node">
<title>Node3</title>
<g id="a_node3"><a xlink:title=" ">
<polygon fill="#e0e0e0" stroke="#999999" points="40.75,-19.25 0,-19.25 0,0 40.75,0 40.75,-19.25"/>
<text text-anchor="middle" x="20.38" y="-5.75" font-family="Helvetica,sans-Serif" font-size="10.00">mat.h</text>
</a>
</g>
</g>
<!-- Node2&#45;&gt;Node3 -->
<g id="edge2" class="edge">
<title>Node2&#45;&gt;Node3</title>
<path fill="none" stroke="#63b8ff" d="M73.52,-54.84C64.18,-47.07 50.48,-35.67 39.33,-26.4"/>
<polygon fill="#63b8ff" stroke="#63b8ff" points="42,-23.23 32.07,-19.52 37.52,-28.61 42,-23.23"/>
</g>
<!-- Node4 -->
<g id="node4" class="node">
<title>Node4</title>
<g id="a_node4"><a xlink:title=" ">
<polygon fill="#e0e0e0" stroke="#999999" points="110,-19.25 58.75,-19.25 58.75,0 110,0 110,-19.25"/>
<text text-anchor="middle" x="84.38" y="-5.75" font-family="Helvetica,sans-Serif" font-size="10.00">matrix.h</text>
</a>
</g>
</g>
<!-- Node2&#45;&gt;Node4 -->
<g id="edge3" class="edge">
<title>Node2&#45;&gt;Node4</title>
<path fill="none" stroke="#63b8ff" d="M84.38,-55.08C84.38,-48.42 84.38,-38.99 84.38,-30.53"/>
<polygon fill="#63b8ff" stroke="#63b8ff" points="87.88,-30.61 84.38,-20.61 80.88,-30.61 87.88,-30.61"/>
</g>
<!-- Node5 -->
<g id="node5" class="node">
<title>Node5</title>
<g id="a_node5"><a xlink:title=" ">
<polygon fill="#e0e0e0" stroke="#999999" points="170.88,-19.25 127.88,-19.25 127.88,0 170.88,0 170.88,-19.25"/>
<text text-anchor="middle" x="149.38" y="-5.75" font-family="Helvetica,sans-Serif" font-size="10.00">mex.h</text>
</a>
</g>
</g>
<!-- Node2&#45;&gt;Node5 -->
<g id="edge4" class="edge">
<title>Node2&#45;&gt;Node5</title>
<path fill="none" stroke="#63b8ff" d="M95.4,-54.84C104.89,-47.07 118.8,-35.67 130.12,-26.4"/>
<polygon fill="#63b8ff" stroke="#63b8ff" points="131.99,-28.57 137.51,-19.52 127.56,-23.15 131.99,-28.57"/>
</g>
<!-- Node7 -->
<g id="node7" class="node">
<title>Node7</title>
<g id="a_node7"><a xlink:title=" ">
<polygon fill="#e0e0e0" stroke="#999999" points="426.38,-74.5 386.38,-74.5 386.38,-55.25 426.38,-55.25 426.38,-74.5"/>
<text text-anchor="middle" x="406.38" y="-61" font-family="Helvetica,sans-Serif" font-size="10.00">string</text>
</a>
</g>
</g>
<!-- Node6&#45;&gt;Node7 -->
<g id="edge6" class="edge">
<title>Node6&#45;&gt;Node7</title>
<path fill="none" stroke="#63b8ff" d="M348.65,-220.82C358.21,-195.17 386.19,-120.05 399.36,-84.69"/>
<polygon fill="#63b8ff" stroke="#63b8ff" points="402.87,-86.32 403.08,-75.72 396.31,-83.87 402.87,-86.32"/>
</g>
<!-- Node8 -->
<g id="node8" class="node">
<title>Node8</title>
<g id="a_node8"><a xlink:href="arrays_8h.html" target="_top" xlink:title="Classes describing arrays, vertices etc.">
<polygon fill="white" stroke="#666666" points="653,-185 601.75,-185 601.75,-165.75 653,-165.75 653,-185"/>
<text text-anchor="middle" x="627.38" y="-171.5" font-family="Helvetica,sans-Serif" font-size="10.00">arrays.h</text>
</a>
</g>
</g>
<!-- Node6&#45;&gt;Node8 -->
<g id="edge7" class="edge">
<title>Node6&#45;&gt;Node8</title>
<path fill="none" stroke="#63b8ff" d="M393.53,-220.53C449.4,-209.98 540.27,-192.82 590.71,-183.3"/>
<polygon fill="#63b8ff" stroke="#63b8ff" points="591.25,-186.57 600.43,-181.27 589.95,-179.69 591.25,-186.57"/>
</g>
<!-- Node16 -->
<g id="node16" class="node">
<title>Node16</title>
<g id="a_node16"><a xlink:href="input__matrices_8h.html" target="_top" xlink:title="Class handling the input matrices that are read in from the input file.">
<polygon fill="white" stroke="#666666" points="328.38,-185 240.38,-185 240.38,-165.75 328.38,-165.75 328.38,-185"/>
<text text-anchor="middle" x="284.38" y="-171.5" font-family="Helvetica,sans-Serif" font-size="10.00">input_matrices.h</text>
</a>
</g>
</g>
<!-- Node6&#45;&gt;Node16 -->
<g id="edge19" class="edge">
<title>Node6&#45;&gt;Node16</title>
<path fill="none" stroke="#63b8ff" d="M335.03,-220.59C326.21,-212.9 313.33,-201.65 302.76,-192.43"/>
<polygon fill="#63b8ff" stroke="#63b8ff" points="305.41,-189.21 295.57,-185.27 300.8,-194.49 305.41,-189.21"/>
</g>
<!-- Node8&#45;&gt;Node7 -->
<g id="edge10" class="edge">
<title>Node8&#45;&gt;Node7</title>
<path fill="none" stroke="#63b8ff" d="M640.15,-165.37C656.9,-152.5 682.48,-128.4 667.38,-110.5 638.29,-76.01 500.37,-68.18 437.61,-66.4"/>
<polygon fill="#63b8ff" stroke="#63b8ff" points="437.89,-62.88 427.81,-66.13 437.72,-69.88 437.89,-62.88"/>
</g>
<!-- Node9 -->
<g id="node9" class="node">
<title>Node9</title>
<g id="a_node9"><a xlink:title=" ">
<polygon fill="#e0e0e0" stroke="#999999" points="872.75,-74.5 820,-74.5 820,-55.25 872.75,-55.25 872.75,-74.5"/>
<text text-anchor="middle" x="846.38" y="-61" font-family="Helvetica,sans-Serif" font-size="10.00">complex</text>
</a>
</g>
</g>
<!-- Node8&#45;&gt;Node9 -->
<g id="edge8" class="edge">
<title>Node8&#45;&gt;Node9</title>
<path fill="none" stroke="#63b8ff" d="M653.27,-173.29C707.48,-170.41 830,-160.58 855.38,-129.75 865.6,-117.33 861.52,-98.75 855.97,-84.82"/>
<polygon fill="#63b8ff" stroke="#63b8ff" points="858.76,-83.52 851.44,-75.86 852.39,-86.41 858.76,-83.52"/>
</g>
<!-- Node10 -->
<g id="node10" class="node">
<title>Node10</title>
<g id="a_node10"><a xlink:title=" ">
<polygon fill="#e0e0e0" stroke="#999999" points="772.75,-129.75 714,-129.75 714,-110.5 772.75,-110.5 772.75,-129.75"/>
<text text-anchor="middle" x="743.38" y="-116.25" font-family="Helvetica,sans-Serif" font-size="10.00">stdexcept</text>
</a>
</g>
</g>
<!-- Node8&#45;&gt;Node10 -->
<g id="edge9" class="edge">
<title>Node8&#45;&gt;Node10</title>
<path fill="none" stroke="#63b8ff" d="M647.05,-165.34C665.3,-156.97 692.71,-144.38 713.63,-134.78"/>
<polygon fill="#63b8ff" stroke="#63b8ff" points="714.97,-137.56 722.6,-130.2 712.05,-131.19 714.97,-137.56"/>
</g>
<!-- Node11 -->
<g id="node11" class="node">
<title>Node11</title>
<g id="a_node11"><a xlink:title=" ">
<polygon fill="#e0e0e0" stroke="#999999" points="305.88,-74.5 262.88,-74.5 262.88,-55.25 305.88,-55.25 305.88,-74.5"/>
<text text-anchor="middle" x="284.38" y="-61" font-family="Helvetica,sans-Serif" font-size="10.00">vector</text>
</a>
</g>
</g>
<!-- Node8&#45;&gt;Node11 -->
<g id="edge11" class="edge">
<title>Node8&#45;&gt;Node11</title>
<path fill="none" stroke="#63b8ff" d="M601.35,-167.95C568.85,-159.78 511.66,-144.91 463.38,-129.75 411.45,-113.45 352.13,-91.64 316.5,-78.18"/>
<polygon fill="#63b8ff" stroke="#63b8ff" points="317.83,-74.56 307.24,-74.29 315.35,-81.11 317.83,-74.56"/>
</g>
<!-- Node12 -->
<g id="node12" class="node">
<title>Node12</title>
<g id="a_node12"><a xlink:title=" ">
<polygon fill="#e0e0e0" stroke="#999999" points="518.38,-129.75 472.38,-129.75 472.38,-110.5 518.38,-110.5 518.38,-129.75"/>
<text text-anchor="middle" x="495.38" y="-116.25" font-family="Helvetica,sans-Serif" font-size="10.00">fftw3.h</text>
</a>
</g>
</g>
<!-- Node8&#45;&gt;Node12 -->
<g id="edge12" class="edge">
<title>Node8&#45;&gt;Node12</title>
<path fill="none" stroke="#63b8ff" d="M604.98,-165.34C583.84,-156.81 551.89,-143.92 527.93,-134.26"/>
<polygon fill="#63b8ff" stroke="#63b8ff" points="529.46,-130.7 518.88,-130.2 526.84,-137.19 529.46,-130.7"/>
</g>
<!-- Node13 -->
<g id="node13" class="node">
<title>Node13</title>
<g id="a_node13"><a xlink:href="globals_8h.html" target="_top" xlink:title="Type definitions and global constants.">
<polygon fill="white" stroke="#666666" points="845.88,-129.75 790.88,-129.75 790.88,-110.5 845.88,-110.5 845.88,-129.75"/>
<text text-anchor="middle" x="818.38" y="-116.25" font-family="Helvetica,sans-Serif" font-size="10.00">globals.h</text>
</a>
</g>
</g>
<!-- Node8&#45;&gt;Node13 -->
<g id="edge13" class="edge">
<title>Node8&#45;&gt;Node13</title>
<path fill="none" stroke="#63b8ff" d="M653.13,-167.19C685.76,-158.1 742.25,-142.35 779.97,-131.83"/>
<polygon fill="#63b8ff" stroke="#63b8ff" points="780.86,-134.94 789.55,-128.88 778.98,-128.2 780.86,-134.94"/>
</g>
<!-- Node14 -->
<g id="node14" class="node">
<title>Node14</title>
<g id="a_node14"><a xlink:title=" ">
<polygon fill="#e0e0e0" stroke="#999999" points="657.88,-129.75 596.88,-129.75 596.88,-110.5 657.88,-110.5 657.88,-129.75"/>
<text text-anchor="middle" x="627.38" y="-116.25" font-family="Helvetica,sans-Serif" font-size="10.00">matlabio.h</text>
</a>
</g>
</g>
<!-- Node8&#45;&gt;Node14 -->
<g id="edge16" class="edge">
<title>Node8&#45;&gt;Node14</title>
<path fill="none" stroke="#63b8ff" d="M627.38,-165.58C627.38,-158.92 627.38,-149.49 627.38,-141.03"/>
<polygon fill="#63b8ff" stroke="#63b8ff" points="630.88,-141.11 627.38,-131.11 623.88,-141.11 630.88,-141.11"/>
</g>
<!-- Node15 -->
<g id="node15" class="node">
<title>Node15</title>
<g id="a_node15"><a xlink:href="utils_8h.html" target="_top" xlink:title="Useful miscellaneous utility functions.">
<polygon fill="white" stroke="#666666" points="578.5,-129.75 536.25,-129.75 536.25,-110.5 578.5,-110.5 578.5,-129.75"/>
<text text-anchor="middle" x="557.38" y="-116.25" font-family="Helvetica,sans-Serif" font-size="10.00">utils.h</text>
</a>
</g>
</g>
<!-- Node8&#45;&gt;Node15 -->
<g id="edge17" class="edge">
<title>Node8&#45;&gt;Node15</title>
<path fill="none" stroke="#63b8ff" d="M615.5,-165.34C605.18,-157.49 590.01,-145.95 577.75,-136.62"/>
<polygon fill="#63b8ff" stroke="#63b8ff" points="580.15,-133.29 570.07,-130.02 575.91,-138.86 580.15,-133.29"/>
</g>
<!-- Node13&#45;&gt;Node7 -->
<g id="edge15" class="edge">
<title>Node13&#45;&gt;Node7</title>
<path fill="none" stroke="#63b8ff" d="M790.56,-112.29C787.47,-111.64 784.36,-111.02 781.38,-110.5 654.66,-88.26 501.89,-73.9 437.44,-68.4"/>
<polygon fill="#63b8ff" stroke="#63b8ff" points="438.07,-64.86 427.82,-67.51 437.49,-71.83 438.07,-64.86"/>
</g>
<!-- Node13&#45;&gt;Node9 -->
<g id="edge14" class="edge">
<title>Node13&#45;&gt;Node9</title>
<path fill="none" stroke="#63b8ff" d="M823,-110.33C826.71,-103.28 832.03,-93.15 836.67,-84.33"/>
<polygon fill="#63b8ff" stroke="#63b8ff" points="840.09,-86.34 841.65,-75.86 833.9,-83.08 840.09,-86.34"/>
</g>
<!-- Node15&#45;&gt;Node7 -->
<g id="edge18" class="edge">
<title>Node15&#45;&gt;Node7</title>
<path fill="none" stroke="#63b8ff" d="M536.06,-111.61C510.14,-102.47 466.21,-86.98 436.75,-76.59"/>
<polygon fill="#63b8ff" stroke="#63b8ff" points="438.21,-73.04 427.62,-73.01 435.88,-79.64 438.21,-73.04"/>
</g>
<!-- Node16&#45;&gt;Node2 -->
<g id="edge24" class="edge">
<title>Node16&#45;&gt;Node2</title>
<path fill="none" stroke="#63b8ff" d="M240.2,-168.58C193.15,-161.55 122.81,-148.29 103.38,-129.75 91.34,-118.27 86.83,-99.54 85.19,-85.33"/>
<polygon fill="#63b8ff" stroke="#63b8ff" points="88.63,-85.41 84.38,-75.7 81.65,-85.94 88.63,-85.41"/>
</g>
<!-- Node16&#45;&gt;Node7 -->
<g id="edge20" class="edge">
<title>Node16&#45;&gt;Node7</title>
<path fill="none" stroke="#63b8ff" d="M299.57,-165.4C313.25,-157 333.55,-143.68 349.38,-129.75 365.69,-115.39 381.97,-96.59 392.92,-83.11"/>
<polygon fill="#63b8ff" stroke="#63b8ff" points="396.09,-85.75 399.6,-75.75 390.62,-81.38 396.09,-85.75"/>
</g>
<!-- Node17 -->
<g id="node17" class="node">
<title>Node17</title>
<g id="a_node17"><a xlink:href="input__output__names_8h.html" target="_top" xlink:title="Constant values associated with the format of the input and output files and matrices.">
<polygon fill="white" stroke="#666666" points="340.38,-129.75 228.38,-129.75 228.38,-110.5 340.38,-110.5 340.38,-129.75"/>
<text text-anchor="middle" x="284.38" y="-116.25" font-family="Helvetica,sans-Serif" font-size="10.00">input_output_names.h</text>
</a>
</g>
</g>
<!-- Node16&#45;&gt;Node17 -->
<g id="edge21" class="edge">
<title>Node16&#45;&gt;Node17</title>
<path fill="none" stroke="#63b8ff" d="M284.38,-165.58C284.38,-158.92 284.38,-149.49 284.38,-141.03"/>
<polygon fill="#63b8ff" stroke="#63b8ff" points="287.88,-141.11 284.38,-131.11 280.88,-141.11 287.88,-141.11"/>
</g>
<!-- Node18 -->
<g id="node18" class="node">
<title>Node18</title>
<g id="a_node18"><a xlink:href="matrix__collection_8h.html" target="_top" xlink:title="A collection of named MATLAB matrices.">
<polygon fill="white" stroke="#666666" points="210.25,-129.75 112.5,-129.75 112.5,-110.5 210.25,-110.5 210.25,-129.75"/>
<text text-anchor="middle" x="161.38" y="-116.25" font-family="Helvetica,sans-Serif" font-size="10.00">matrix_collection.h</text>
</a>
</g>
</g>
<!-- Node16&#45;&gt;Node18 -->
<g id="edge25" class="edge">
<title>Node16&#45;&gt;Node18</title>
<path fill="none" stroke="#63b8ff" d="M263.51,-165.34C243.98,-156.89 214.57,-144.15 192.31,-134.52"/>
<polygon fill="#63b8ff" stroke="#63b8ff" points="193.91,-130.96 183.34,-130.2 191.13,-137.39 193.91,-130.96"/>
</g>
<!-- Node17&#45;&gt;Node7 -->
<g id="edge22" class="edge">
<title>Node17&#45;&gt;Node7</title>
<path fill="none" stroke="#63b8ff" d="M305.07,-110.09C324.56,-101.59 353.97,-88.75 376.09,-79.09"/>
<polygon fill="#63b8ff" stroke="#63b8ff" points="377.22,-81.98 384.99,-74.77 374.42,-75.57 377.22,-81.98"/>
</g>
<!-- Node17&#45;&gt;Node11 -->
<g id="edge23" class="edge">
<title>Node17&#45;&gt;Node11</title>
<path fill="none" stroke="#63b8ff" d="M284.38,-110.33C284.38,-103.67 284.38,-94.24 284.38,-85.78"/>
<polygon fill="#63b8ff" stroke="#63b8ff" points="287.88,-85.86 284.38,-75.86 280.88,-85.86 287.88,-85.86"/>
</g>
<!-- Node18&#45;&gt;Node2 -->
<g id="edge28" class="edge">
<title>Node18&#45;&gt;Node2</title>
<path fill="none" stroke="#63b8ff" d="M148.31,-110.09C136.81,-102.14 119.82,-90.39 106.24,-81"/>
<polygon fill="#63b8ff" stroke="#63b8ff" points="108.72,-77.76 98.5,-74.95 104.74,-83.52 108.72,-77.76"/>
</g>
<!-- Node18&#45;&gt;Node7 -->
<g id="edge26" class="edge">
<title>Node18&#45;&gt;Node7</title>
<path fill="none" stroke="#63b8ff" d="M203.21,-110.03C252.12,-99.4 331.91,-82.06 375.52,-72.58"/>
<polygon fill="#63b8ff" stroke="#63b8ff" points="376.01,-75.84 385.04,-70.3 374.52,-69 376.01,-75.84"/>
</g>
<!-- Node18&#45;&gt;Node11 -->
<g id="edge27" class="edge">
<title>Node18&#45;&gt;Node11</title>
<path fill="none" stroke="#63b8ff" d="M182.24,-110.09C201.77,-101.64 231.18,-88.9 253.44,-79.27"/>
<polygon fill="#63b8ff" stroke="#63b8ff" points="254.62,-82.14 262.41,-74.95 251.84,-75.71 254.62,-82.14"/>
</g>
</g>
</svg>
