<?xml version="1.0" encoding="UTF-8" standalone="no"?>
<!DOCTYPE svg PUBLIC "-//W3C//DTD SVG 1.1//EN"
 "http://www.w3.org/Graphics/SVG/1.1/DTD/svg11.dtd">
<!-- Generated by graphviz version 8.0.2 (20230410.1723)
 -->
<!-- Title: tdms/include/mesh_base.h Pages: 1 -->
<svg width="865pt" height="302pt"
 viewBox="0.00 0.00 865.00 302.00" xmlns="http://www.w3.org/2000/svg" xmlns:xlink="http://www.w3.org/1999/xlink">
<g id="graph0" class="graph" transform="scale(1 1) rotate(0) translate(4 298)">
<title>tdms/include/mesh_base.h</title>
<!-- Node1 -->
<g id="node1" class="node">
<title>Node1</title>
<g id="a_node1"><a xlink:title="Generation of orientated mesh.">
<polygon fill="#999999" stroke="#666666" points="636,-294 502,-294 502,-275 636,-275 636,-294"/>
<text text-anchor="middle" x="569" y="-282" font-family="Helvetica,sans-Serif" font-size="10.00">tdms/include/mesh_base.h</text>
</a>
</g>
</g>
<!-- Node2 -->
<g id="node2" class="node">
<title>Node2</title>
<g id="a_node2"><a xlink:href="mat__io_8h.html" target="_top" xlink:title="Includes MATLAB headers for I/O.">
<polygon fill="white" stroke="#666666" points="796,-74 742,-74 742,-55 796,-55 796,-74"/>
<text text-anchor="middle" x="769" y="-62" font-family="Helvetica,sans-Serif" font-size="10.00">mat_io.h</text>
</a>
</g>
</g>
<!-- Node1&#45;&gt;Node2 -->
<g id="edge1" class="edge">
<title>Node1&#45;&gt;Node2</title>
<path fill="none" stroke="#63b8ff" d="M590.9,-274.59C634.49,-255.49 731.19,-205.99 769,-129 775.7,-115.36 775.18,-98.01 773.28,-84.89"/>
<polygon fill="#63b8ff" stroke="#63b8ff" points="776.58,-84.45 771.31,-75.26 769.69,-85.73 776.58,-84.45"/>
</g>
<!-- Node6 -->
<g id="node6" class="node">
<title>Node6</title>
<g id="a_node6"><a xlink:href="simulation__parameters_8h.html" target="_top" xlink:title="Classes collecting parameters for the simulation.">
<polygon fill="white" stroke="#666666" points="511.5,-239 388.5,-239 388.5,-220 511.5,-220 511.5,-239"/>
<text text-anchor="middle" x="450" y="-227" font-family="Helvetica,sans-Serif" font-size="10.00">simulation_parameters.h</text>
</a>
</g>
</g>
<!-- Node1&#45;&gt;Node6 -->
<g id="edge5" class="edge">
<title>Node1&#45;&gt;Node6</title>
<path fill="none" stroke="#63b8ff" d="M548.81,-274.51C529.89,-266.08 501.38,-253.38 479.83,-243.79"/>
<polygon fill="#63b8ff" stroke="#63b8ff" points="481.45,-240.23 470.89,-239.36 478.6,-246.62 481.45,-240.23"/>
</g>
<!-- Node3 -->
<g id="node3" class="node">
<title>Node3</title>
<g id="a_node3"><a xlink:title=" ">
<polygon fill="#e0e0e0" stroke="#999999" points="724.5,-19 683.5,-19 683.5,0 724.5,0 724.5,-19"/>
<text text-anchor="middle" x="704" y="-7" font-family="Helvetica,sans-Serif" font-size="10.00">mat.h</text>
</a>
</g>
</g>
<!-- Node2&#45;&gt;Node3 -->
<g id="edge2" class="edge">
<title>Node2&#45;&gt;Node3</title>
<path fill="none" stroke="#63b8ff" d="M757.97,-54.51C748.49,-46.77 734.58,-35.43 723.25,-26.2"/>
<polygon fill="#63b8ff" stroke="#63b8ff" points="725.83,-22.96 715.86,-19.36 721.4,-28.39 725.83,-22.96"/>
</g>
<!-- Node4 -->
<g id="node4" class="node">
<title>Node4</title>
<g id="a_node4"><a xlink:title=" ">
<polygon fill="#e0e0e0" stroke="#999999" points="795,-19 743,-19 743,0 795,0 795,-19"/>
<text text-anchor="middle" x="769" y="-7" font-family="Helvetica,sans-Serif" font-size="10.00">matrix.h</text>
</a>
</g>
</g>
<!-- Node2&#45;&gt;Node4 -->
<g id="edge3" class="edge">
<title>Node2&#45;&gt;Node4</title>
<path fill="none" stroke="#63b8ff" d="M769,-54.75C769,-48.11 769,-38.73 769,-30.31"/>
<polygon fill="#63b8ff" stroke="#63b8ff" points="772.5,-30.44 769,-20.44 765.5,-30.44 772.5,-30.44"/>
</g>
<!-- Node5 -->
<g id="node5" class="node">
<title>Node5</title>
<g id="a_node5"><a xlink:title=" ">
<polygon fill="#e0e0e0" stroke="#999999" points="857,-19 813,-19 813,0 857,0 857,-19"/>
<text text-anchor="middle" x="835" y="-7" font-family="Helvetica,sans-Serif" font-size="10.00">mex.h</text>
</a>
</g>
</g>
<!-- Node2&#45;&gt;Node5 -->
<g id="edge4" class="edge">
<title>Node2&#45;&gt;Node5</title>
<path fill="none" stroke="#63b8ff" d="M780.2,-54.51C789.83,-46.77 803.95,-35.43 815.45,-26.2"/>
<polygon fill="#63b8ff" stroke="#63b8ff" points="817.36,-28.35 822.97,-19.36 812.98,-22.89 817.36,-28.35"/>
</g>
<!-- Node7 -->
<g id="node7" class="node">
<title>Node7</title>
<g id="a_node7"><a xlink:title=" ">
<polygon fill="#e0e0e0" stroke="#999999" points="478.5,-74 437.5,-74 437.5,-55 478.5,-55 478.5,-74"/>
<text text-anchor="middle" x="458" y="-62" font-family="Helvetica,sans-Serif" font-size="10.00">string</text>
</a>
</g>
</g>
<!-- Node6&#45;&gt;Node7 -->
<g id="edge6" class="edge">
<title>Node6&#45;&gt;Node7</title>
<path fill="none" stroke="#63b8ff" d="M388.15,-225.59C278.62,-218.28 68.62,-193.25 141,-110 177.77,-67.7 353.4,-64.43 426.24,-64.95"/>
<polygon fill="#63b8ff" stroke="#63b8ff" points="425.97,-68.46 436.01,-65.06 426.04,-61.46 425.97,-68.46"/>
</g>
<!-- Node8 -->
<g id="node8" class="node">
<title>Node8</title>
<g id="a_node8"><a xlink:href="arrays_8h.html" target="_top" xlink:title="Classes describing arrays, vertices etc.">
<polygon fill="white" stroke="#666666" points="322,-184 270,-184 270,-165 322,-165 322,-184"/>
<text text-anchor="middle" x="296" y="-172" font-family="Helvetica,sans-Serif" font-size="10.00">arrays.h</text>
</a>
</g>
</g>
<!-- Node6&#45;&gt;Node8 -->
<g id="edge7" class="edge">
<title>Node6&#45;&gt;Node8</title>
<path fill="none" stroke="#63b8ff" d="M423.88,-219.51C398.69,-210.84 360.36,-197.65 332.23,-187.97"/>
<polygon fill="#63b8ff" stroke="#63b8ff" points="333.59,-184.39 322.99,-184.45 331.31,-191.01 333.59,-184.39"/>
</g>
<!-- Node15 -->
<g id="node15" class="node">
<title>Node15</title>
<g id="a_node15"><a xlink:href="input__matrices_8h.html" target="_top" xlink:title="Class handling the input matrices that are read in from the input file.">
<polygon fill="white" stroke="#666666" points="612.5,-184 523.5,-184 523.5,-165 612.5,-165 612.5,-184"/>
<text text-anchor="middle" x="568" y="-172" font-family="Helvetica,sans-Serif" font-size="10.00">input_matrices.h</text>
</a>
</g>
</g>
<!-- Node6&#45;&gt;Node15 -->
<g id="edge17" class="edge">
<title>Node6&#45;&gt;Node15</title>
<path fill="none" stroke="#63b8ff" d="M470.02,-219.51C488.78,-211.08 517.06,-198.38 538.42,-188.79"/>
<polygon fill="#63b8ff" stroke="#63b8ff" points="539.59,-191.65 547.28,-184.36 536.72,-185.26 539.59,-191.65"/>
</g>
<!-- Node8&#45;&gt;Node7 -->
<g id="edge10" class="edge">
<title>Node8&#45;&gt;Node7</title>
<path fill="none" stroke="#63b8ff" d="M309.36,-164.65C322.88,-155.67 344.41,-141.39 363,-129 388,-112.34 416.66,-93.18 435.91,-80.29"/>
<polygon fill="#63b8ff" stroke="#63b8ff" points="437.43,-82.82 443.79,-74.35 433.53,-77 437.43,-82.82"/>
</g>
<!-- Node9 -->
<g id="node9" class="node">
<title>Node9</title>
<g id="a_node9"><a xlink:title=" ">
<polygon fill="#e0e0e0" stroke="#999999" points="101.5,-74 48.5,-74 48.5,-55 101.5,-55 101.5,-74"/>
<text text-anchor="middle" x="75" y="-62" font-family="Helvetica,sans-Serif" font-size="10.00">complex</text>
</a>
</g>
</g>
<!-- Node8&#45;&gt;Node9 -->
<g id="edge8" class="edge">
<title>Node8&#45;&gt;Node9</title>
<path fill="none" stroke="#63b8ff" d="M269.52,-169.9C237.38,-164.66 182.36,-152.84 141,-129 120.21,-117.02 100.99,-97.09 88.72,-82.75"/>
<polygon fill="#63b8ff" stroke="#63b8ff" points="90.78,-80.75 81.71,-75.28 85.39,-85.21 90.78,-80.75"/>
</g>
<!-- Node10 -->
<g id="node10" class="node">
<title>Node10</title>
<g id="a_node10"><a xlink:title=" ">
<polygon fill="#e0e0e0" stroke="#999999" points="289.5,-129 230.5,-129 230.5,-110 289.5,-110 289.5,-129"/>
<text text-anchor="middle" x="260" y="-117" font-family="Helvetica,sans-Serif" font-size="10.00">stdexcept</text>
</a>
</g>
</g>
<!-- Node8&#45;&gt;Node10 -->
<g id="edge9" class="edge">
<title>Node8&#45;&gt;Node10</title>
<path fill="none" stroke="#63b8ff" d="M290.06,-164.75C285.19,-157.58 278.14,-147.2 272.09,-138.3"/>
<polygon fill="#63b8ff" stroke="#63b8ff" points="274.59,-136.75 266.07,-130.44 268.8,-140.68 274.59,-136.75"/>
</g>
<!-- Node11 -->
<g id="node11" class="node">
<title>Node11</title>
<g id="a_node11"><a xlink:title=" ">
<polygon fill="#e0e0e0" stroke="#999999" points="354.5,-129 307.5,-129 307.5,-110 354.5,-110 354.5,-129"/>
<text text-anchor="middle" x="331" y="-117" font-family="Helvetica,sans-Serif" font-size="10.00">fftw3.h</text>
</a>
</g>
</g>
<!-- Node8&#45;&gt;Node11 -->
<g id="edge11" class="edge">
<title>Node8&#45;&gt;Node11</title>
<path fill="none" stroke="#63b8ff" d="M301.78,-164.75C306.46,-157.66 313.22,-147.42 319.06,-138.59"/>
<polygon fill="#63b8ff" stroke="#63b8ff" points="322.5,-140.72 325.09,-130.44 316.66,-136.86 322.5,-140.72"/>
</g>
<!-- Node12 -->
<g id="node12" class="node">
<title>Node12</title>
<g id="a_node12"><a xlink:href="globals_8h.html" target="_top" xlink:title="Type definitions and global constants.">
<polygon fill="white" stroke="#666666" points="56,-129 0,-129 0,-110 56,-110 56,-129"/>
<text text-anchor="middle" x="28" y="-117" font-family="Helvetica,sans-Serif" font-size="10.00">globals.h</text>
</a>
</g>
</g>
<!-- Node8&#45;&gt;Node12 -->
<g id="edge12" class="edge">
<title>Node8&#45;&gt;Node12</title>
<path fill="none" stroke="#63b8ff" d="M269.82,-168.32C222.4,-158.94 122.11,-139.11 66.75,-128.16"/>
<polygon fill="#63b8ff" stroke="#63b8ff" points="67.79,-124.6 57.3,-126.1 66.43,-131.47 67.79,-124.6"/>
</g>
<!-- Node13 -->
<g id="node13" class="node">
<title>Node13</title>
<g id="a_node13"><a xlink:title=" ">
<polygon fill="#e0e0e0" stroke="#999999" points="212,-129 150,-129 150,-110 212,-110 212,-129"/>
<text text-anchor="middle" x="181" y="-117" font-family="Helvetica,sans-Serif" font-size="10.00">matlabio.h</text>
</a>
</g>
</g>
<!-- Node8&#45;&gt;Node13 -->
<g id="edge14" class="edge">
<title>Node8&#45;&gt;Node13</title>
<path fill="none" stroke="#63b8ff" d="M276.49,-164.51C258.29,-156.12 230.9,-143.5 210.11,-133.92"/>
<polygon fill="#63b8ff" stroke="#63b8ff" points="211.77,-130.36 201.22,-129.36 208.84,-136.72 211.77,-130.36"/>
</g>
<!-- Node14 -->
<g id="node14" class="node">
<title>Node14</title>
<g id="a_node14"><a xlink:href="utils_8h.html" target="_top" xlink:title="Useful miscellaneous utility functions.">
<polygon fill="white" stroke="#666666" points="454.5,-129 411.5,-129 411.5,-110 454.5,-110 454.5,-129"/>
<text text-anchor="middle" x="433" y="-117" font-family="Helvetica,sans-Serif" font-size="10.00">utils.h</text>
</a>
</g>
</g>
<!-- Node8&#45;&gt;Node14 -->
<g id="edge15" class="edge">
<title>Node8&#45;&gt;Node14</title>
<path fill="none" stroke="#63b8ff" d="M319.24,-164.51C341.68,-155.83 375.86,-142.6 400.9,-132.92"/>
<polygon fill="#63b8ff" stroke="#63b8ff" points="401.94,-135.88 410.01,-129.01 399.42,-129.35 401.94,-135.88"/>
</g>
<!-- Node12&#45;&gt;Node9 -->
<g id="edge13" class="edge">
<title>Node12&#45;&gt;Node9</title>
<path fill="none" stroke="#63b8ff" d="M35.76,-109.75C42.32,-102.35 51.91,-91.54 59.96,-82.45"/>
<polygon fill="#63b8ff" stroke="#63b8ff" points="62.05,-85.25 66.07,-75.44 56.82,-80.6 62.05,-85.25"/>
</g>
<!-- Node14&#45;&gt;Node7 -->
<g id="edge16" class="edge">
<title>Node14&#45;&gt;Node7</title>
<path fill="none" stroke="#63b8ff" d="M437.13,-109.75C440.4,-102.81 445.09,-92.86 449.2,-84.16"/>
<polygon fill="#63b8ff" stroke="#63b8ff" points="452.68,-85.98 453.78,-75.44 446.35,-82.99 452.68,-85.98"/>
</g>
<!-- Node15&#45;&gt;Node2 -->
<g id="edge22" class="edge">
<title>Node15&#45;&gt;Node2</title>
<path fill="none" stroke="#63b8ff" d="M612.84,-167.7C660.14,-160.71 730.49,-147.54 750,-129 761.99,-117.6 766.51,-98.98 768.16,-84.85"/>
<polygon fill="#63b8ff" stroke="#63b8ff" points="771.7,-85.52 768.98,-75.28 764.72,-84.98 771.7,-85.52"/>
</g>
<!-- Node15&#45;&gt;Node7 -->
<g id="edge18" class="edge">
<title>Node15&#45;&gt;Node7</title>
<path fill="none" stroke="#63b8ff" d="M551.29,-164.58C537.14,-156.51 516.85,-143.66 502,-129 488.31,-115.48 476.15,-97.18 468.1,-83.69"/>
<polygon fill="#63b8ff" stroke="#63b8ff" points="470.82,-82.4 462.79,-75.48 464.75,-85.89 470.82,-82.4"/>
</g>
<!-- Node16 -->
<g id="node16" class="node">
<title>Node16</title>
<g id="a_node16"><a xlink:href="input__output__names_8h.html" target="_top" xlink:title="Constant values associated with the format of the input and output files and matrices.">
<polygon fill="white" stroke="#666666" points="624.5,-129 511.5,-129 511.5,-110 624.5,-110 624.5,-129"/>
<text text-anchor="middle" x="568" y="-117" font-family="Helvetica,sans-Serif" font-size="10.00">input_output_names.h</text>
</a>
</g>
</g>
<!-- Node15&#45;&gt;Node16 -->
<g id="edge19" class="edge">
<title>Node15&#45;&gt;Node16</title>
<path fill="none" stroke="#63b8ff" d="M568,-164.75C568,-158.11 568,-148.73 568,-140.31"/>
<polygon fill="#63b8ff" stroke="#63b8ff" points="571.5,-140.44 568,-130.44 564.5,-140.44 571.5,-140.44"/>
</g>
<!-- Node18 -->
<g id="node18" class="node">
<title>Node18</title>
<g id="a_node18"><a xlink:href="matrix__collection_8h.html" target="_top" xlink:title="A collection of named MATLAB matrices.">
<polygon fill="white" stroke="#666666" points="741,-129 643,-129 643,-110 741,-110 741,-129"/>
<text text-anchor="middle" x="692" y="-117" font-family="Helvetica,sans-Serif" font-size="10.00">matrix_collection.h</text>
</a>
</g>
</g>
<!-- Node15&#45;&gt;Node18 -->
<g id="edge23" class="edge">
<title>Node15&#45;&gt;Node18</title>
<path fill="none" stroke="#63b8ff" d="M589.03,-164.51C608.84,-156.04 638.74,-143.27 661.22,-133.66"/>
<polygon fill="#63b8ff" stroke="#63b8ff" points="662.46,-136.51 670.28,-129.36 659.7,-130.07 662.46,-136.51"/>
</g>
<!-- Node16&#45;&gt;Node7 -->
<g id="edge20" class="edge">
<title>Node16&#45;&gt;Node7</title>
<path fill="none" stroke="#63b8ff" d="M549.34,-109.51C532.01,-101.16 505.97,-88.61 486.12,-79.05"/>
<polygon fill="#63b8ff" stroke="#63b8ff" points="487.91,-75.55 477.38,-74.36 484.87,-81.85 487.91,-75.55"/>
</g>
<!-- Node17 -->
<g id="node17" class="node">
<title>Node17</title>
<g id="a_node17"><a xlink:title=" ">
<polygon fill="#e0e0e0" stroke="#999999" points="652,-74 608,-74 608,-55 652,-55 652,-74"/>
<text text-anchor="middle" x="630" y="-62" font-family="Helvetica,sans-Serif" font-size="10.00">vector</text>
</a>
</g>
</g>
<!-- Node16&#45;&gt;Node17 -->
<g id="edge21" class="edge">
<title>Node16&#45;&gt;Node17</title>
<path fill="none" stroke="#63b8ff" d="M578.52,-109.51C587.48,-101.85 600.57,-90.66 611.31,-81.47"/>
<polygon fill="#63b8ff" stroke="#63b8ff" points="613.31,-83.52 618.64,-74.36 608.76,-78.2 613.31,-83.52"/>
</g>
<!-- Node18&#45;&gt;Node2 -->
<g id="edge26" class="edge">
<title>Node18&#45;&gt;Node2</title>
<path fill="none" stroke="#63b8ff" d="M705.06,-109.51C716.64,-101.54 733.76,-89.75 747.38,-80.38"/>
<polygon fill="#63b8ff" stroke="#63b8ff" points="748.88,-82.91 755.13,-74.36 744.91,-77.14 748.88,-82.91"/>
</g>
<!-- Node18&#45;&gt;Node7 -->
<g id="edge24" class="edge">
<title>Node18&#45;&gt;Node7</title>
<path fill="none" stroke="#63b8ff" d="M652.31,-109.51C606.34,-99.1 531.57,-82.16 489.44,-72.62"/>
<polygon fill="#63b8ff" stroke="#63b8ff" points="490.5,-69.05 479.97,-70.25 488.95,-75.87 490.5,-69.05"/>
</g>
<!-- Node18&#45;&gt;Node17 -->
<g id="edge25" class="edge">
<title>Node18&#45;&gt;Node17</title>
<path fill="none" stroke="#63b8ff" d="M681.48,-109.51C672.52,-101.85 659.43,-90.66 648.69,-81.47"/>
<polygon fill="#63b8ff" stroke="#63b8ff" points="651.24,-78.2 641.36,-74.36 646.69,-83.52 651.24,-78.2"/>
</g>
</g>
</svg>
