<?xml version="1.0" encoding="UTF-8" standalone="no"?>
<!DOCTYPE svg PUBLIC "-//W3C//DTD SVG 1.1//EN"
 "http://www.w3.org/Graphics/SVG/1.1/DTD/svg11.dtd">
<!-- Generated by graphviz version 8.0.5 (20230430.1635)
 -->
<!-- Title: tdms/include/mesh_base.h Pages: 1 -->
<svg width="883pt" height="304pt"
 viewBox="0.00 0.00 882.88 303.50" xmlns="http://www.w3.org/2000/svg" xmlns:xlink="http://www.w3.org/1999/xlink">
<g id="graph0" class="graph" transform="scale(1 1) rotate(0) translate(4 299.5)">
<title>tdms/include/mesh_base.h</title>
<!-- Node1 -->
<g id="node1" class="node">
<title>Node1</title>
<g id="a_node1"><a xlink:title="Generation of orientated mesh.">
<polygon fill="#999999" stroke="#666666" points="738.88,-295.5 605.88,-295.5 605.88,-276.25 738.88,-276.25 738.88,-295.5"/>
<text text-anchor="middle" x="672.38" y="-282" font-family="Helvetica,sans-Serif" font-size="10.00">tdms/include/mesh_base.h</text>
</a>
</g>
</g>
<!-- Node2 -->
<g id="node2" class="node">
<title>Node2</title>
<g id="a_node2"><a xlink:href="mat__io_8h.html" target="_top" xlink:title="Includes MATLAB headers for I/O.">
<polygon fill="white" stroke="#666666" points="815.12,-74.5 761.62,-74.5 761.62,-55.25 815.12,-55.25 815.12,-74.5"/>
<text text-anchor="middle" x="788.38" y="-61" font-family="Helvetica,sans-Serif" font-size="10.00">mat_io.h</text>
</a>
</g>
</g>
<!-- Node1&#45;&gt;Node2 -->
<g id="edge1" class="edge">
<title>Node1&#45;&gt;Node2</title>
<path fill="none" stroke="#63b8ff" d="M682.46,-276.01C706.51,-254.11 766.83,-194.53 788.38,-129.75 793.1,-115.56 792.84,-98.59 791.54,-85.71"/>
<polygon fill="#63b8ff" stroke="#63b8ff" points="794.89,-85.29 790.11,-75.83 787.95,-86.21 794.89,-85.29"/>
</g>
<!-- Node6 -->
<g id="node6" class="node">
<title>Node6</title>
<g id="a_node6"><a xlink:href="simulation__parameters_8h.html" target="_top" xlink:title="Classes collecting parameters for the simulation.">
<polygon fill="white" stroke="#666666" points="579.62,-240.25 457.12,-240.25 457.12,-221 579.62,-221 579.62,-240.25"/>
<text text-anchor="middle" x="518.38" y="-226.75" font-family="Helvetica,sans-Serif" font-size="10.00">simulation_parameters.h</text>
</a>
</g>
</g>
<!-- Node1&#45;&gt;Node6 -->
<g id="edge5" class="edge">
<title>Node1&#45;&gt;Node6</title>
<path fill="none" stroke="#63b8ff" d="M646.25,-275.84C621.14,-267.16 582.96,-253.96 554.86,-244.24"/>
<polygon fill="#63b8ff" stroke="#63b8ff" points="556.22,-240.66 545.63,-240.7 553.93,-247.28 556.22,-240.66"/>
</g>
<!-- Node3 -->
<g id="node3" class="node">
<title>Node3</title>
<g id="a_node3"><a xlink:title=" ">
<polygon fill="#e0e0e0" stroke="#999999" points="744.75,-19.25 704,-19.25 704,0 744.75,0 744.75,-19.25"/>
<text text-anchor="middle" x="724.38" y="-5.75" font-family="Helvetica,sans-Serif" font-size="10.00">mat.h</text>
</a>
</g>
</g>
<!-- Node2&#45;&gt;Node3 -->
<g id="edge2" class="edge">
<title>Node2&#45;&gt;Node3</title>
<path fill="none" stroke="#63b8ff" d="M777.52,-54.84C768.18,-47.07 754.48,-35.67 743.33,-26.4"/>
<polygon fill="#63b8ff" stroke="#63b8ff" points="746,-23.23 736.07,-19.52 741.52,-28.61 746,-23.23"/>
</g>
<!-- Node4 -->
<g id="node4" class="node">
<title>Node4</title>
<g id="a_node4"><a xlink:title=" ">
<polygon fill="#e0e0e0" stroke="#999999" points="814,-19.25 762.75,-19.25 762.75,0 814,0 814,-19.25"/>
<text text-anchor="middle" x="788.38" y="-5.75" font-family="Helvetica,sans-Serif" font-size="10.00">matrix.h</text>
</a>
</g>
</g>
<!-- Node2&#45;&gt;Node4 -->
<g id="edge3" class="edge">
<title>Node2&#45;&gt;Node4</title>
<path fill="none" stroke="#63b8ff" d="M788.38,-55.08C788.38,-48.42 788.38,-38.99 788.38,-30.53"/>
<polygon fill="#63b8ff" stroke="#63b8ff" points="791.88,-30.61 788.38,-20.61 784.88,-30.61 791.88,-30.61"/>
</g>
<!-- Node5 -->
<g id="node5" class="node">
<title>Node5</title>
<g id="a_node5"><a xlink:title=" ">
<polygon fill="#e0e0e0" stroke="#999999" points="874.88,-19.25 831.88,-19.25 831.88,0 874.88,0 874.88,-19.25"/>
<text text-anchor="middle" x="853.38" y="-5.75" font-family="Helvetica,sans-Serif" font-size="10.00">mex.h</text>
</a>
</g>
</g>
<!-- Node2&#45;&gt;Node5 -->
<g id="edge4" class="edge">
<title>Node2&#45;&gt;Node5</title>
<path fill="none" stroke="#63b8ff" d="M799.4,-54.84C808.89,-47.07 822.8,-35.67 834.12,-26.4"/>
<polygon fill="#63b8ff" stroke="#63b8ff" points="835.99,-28.57 841.51,-19.52 831.56,-23.15 835.99,-28.57"/>
</g>
<!-- Node7 -->
<g id="node7" class="node">
<title>Node7</title>
<g id="a_node7"><a xlink:title=" ">
<polygon fill="#e0e0e0" stroke="#999999" points="448.38,-74.5 408.38,-74.5 408.38,-55.25 448.38,-55.25 448.38,-74.5"/>
<text text-anchor="middle" x="428.38" y="-61" font-family="Helvetica,sans-Serif" font-size="10.00">string</text>
</a>
</g>
</g>
<!-- Node6&#45;&gt;Node7 -->
<g id="edge6" class="edge">
<title>Node6&#45;&gt;Node7</title>
<path fill="none" stroke="#63b8ff" d="M494.09,-220.61C478.22,-213.42 458.45,-201.76 447.38,-185 427.33,-154.67 425.74,-110.7 426.78,-85.53"/>
<polygon fill="#63b8ff" stroke="#63b8ff" points="430.32,-86.02 427.44,-75.83 423.33,-85.6 430.32,-86.02"/>
</g>
<!-- Node8 -->
<g id="node8" class="node">
<title>Node8</title>
<g id="a_node8"><a xlink:href="arrays_8h.html" target="_top" xlink:title="Classes describing arrays, vertices etc.">
<polygon fill="white" stroke="#666666" points="295,-185 243.75,-185 243.75,-165.75 295,-165.75 295,-185"/>
<text text-anchor="middle" x="269.38" y="-171.5" font-family="Helvetica,sans-Serif" font-size="10.00">arrays.h</text>
</a>
</g>
</g>
<!-- Node6&#45;&gt;Node8 -->
<g id="edge7" class="edge">
<title>Node6&#45;&gt;Node8</title>
<path fill="none" stroke="#63b8ff" d="M475.85,-220.53C427.99,-210.3 351.03,-193.84 305.81,-184.17"/>
<polygon fill="#63b8ff" stroke="#63b8ff" points="306.82,-180.59 296.31,-181.92 305.36,-187.44 306.82,-180.59"/>
</g>
<!-- Node18 -->
<g id="node18" class="node">
<title>Node18</title>
<g id="a_node18"><a xlink:title=" ">
<polygon fill="#e0e0e0" stroke="#999999" points="580.38,-185 456.38,-185 456.38,-165.75 580.38,-165.75 580.38,-185"/>
<text text-anchor="middle" x="518.38" y="-171.5" font-family="Helvetica,sans-Serif" font-size="10.00">arrays/vector_typedefs.h</text>
</a>
</g>
</g>
<!-- Node6&#45;&gt;Node18 -->
<g id="edge22" class="edge">
<title>Node6&#45;&gt;Node18</title>
<path fill="none" stroke="#63b8ff" d="M518.38,-220.83C518.38,-214.17 518.38,-204.74 518.38,-196.28"/>
<polygon fill="#63b8ff" stroke="#63b8ff" points="521.88,-196.36 518.38,-186.36 514.88,-196.36 521.88,-196.36"/>
</g>
<!-- Node19 -->
<g id="node19" class="node">
<title>Node19</title>
<g id="a_node19"><a xlink:href="input__matrices_8h.html" target="_top" xlink:title="Class handling the input matrices that are read in from the input file.">
<polygon fill="white" stroke="#666666" points="686.38,-185 598.38,-185 598.38,-165.75 686.38,-165.75 686.38,-185"/>
<text text-anchor="middle" x="642.38" y="-171.5" font-family="Helvetica,sans-Serif" font-size="10.00">input_matrices.h</text>
</a>
</g>
</g>
<!-- Node6&#45;&gt;Node19 -->
<g id="edge23" class="edge">
<title>Node6&#45;&gt;Node19</title>
<path fill="none" stroke="#63b8ff" d="M539.41,-220.59C559.09,-212.14 588.75,-199.4 611.19,-189.77"/>
<polygon fill="#63b8ff" stroke="#63b8ff" points="612.43,-192.61 620.24,-185.45 609.67,-186.18 612.43,-192.61"/>
</g>
<!-- Node8&#45;&gt;Node7 -->
<g id="edge10" class="edge">
<title>Node8&#45;&gt;Node7</title>
<path fill="none" stroke="#63b8ff" d="M278.7,-165.43C292.56,-152.42 319.7,-127.92 345.38,-110.5 362.53,-98.86 383.03,-87.81 399.37,-79.62"/>
<polygon fill="#63b8ff" stroke="#63b8ff" points="400.51,-82.47 407.94,-74.91 397.42,-76.19 400.51,-82.47"/>
</g>
<!-- Node9 -->
<g id="node9" class="node">
<title>Node9</title>
<g id="a_node9"><a xlink:title=" ">
<polygon fill="#e0e0e0" stroke="#999999" points="52.75,-74.5 0,-74.5 0,-55.25 52.75,-55.25 52.75,-74.5"/>
<text text-anchor="middle" x="26.38" y="-61" font-family="Helvetica,sans-Serif" font-size="10.00">complex</text>
</a>
</g>
</g>
<!-- Node8&#45;&gt;Node9 -->
<g id="edge8" class="edge">
<title>Node8&#45;&gt;Node9</title>
<path fill="none" stroke="#63b8ff" d="M243.45,-173.82C185.05,-171.96 46.06,-163.97 17.38,-129.75 7.04,-117.43 11.13,-98.83 16.72,-84.87"/>
<polygon fill="#63b8ff" stroke="#63b8ff" points="20.31,-86.44 21.27,-75.89 13.94,-83.53 20.31,-86.44"/>
</g>
<!-- Node10 -->
<g id="node10" class="node">
<title>Node10</title>
<g id="a_node10"><a xlink:title=" ">
<polygon fill="#e0e0e0" stroke="#999999" points="298.75,-129.75 240,-129.75 240,-110.5 298.75,-110.5 298.75,-129.75"/>
<text text-anchor="middle" x="269.38" y="-116.25" font-family="Helvetica,sans-Serif" font-size="10.00">stdexcept</text>
</a>
</g>
</g>
<!-- Node8&#45;&gt;Node10 -->
<g id="edge9" class="edge">
<title>Node8&#45;&gt;Node10</title>
<path fill="none" stroke="#63b8ff" d="M269.38,-165.58C269.38,-158.92 269.38,-149.49 269.38,-141.03"/>
<polygon fill="#63b8ff" stroke="#63b8ff" points="272.88,-141.11 269.38,-131.11 265.88,-141.11 272.88,-141.11"/>
</g>
<!-- Node11 -->
<g id="node11" class="node">
<title>Node11</title>
<g id="a_node11"><a xlink:title=" ">
<polygon fill="#e0e0e0" stroke="#999999" points="567.88,-74.5 524.88,-74.5 524.88,-55.25 567.88,-55.25 567.88,-74.5"/>
<text text-anchor="middle" x="546.38" y="-61" font-family="Helvetica,sans-Serif" font-size="10.00">vector</text>
</a>
</g>
</g>
<!-- Node8&#45;&gt;Node11 -->
<g id="edge11" class="edge">
<title>Node8&#45;&gt;Node11</title>
<path fill="none" stroke="#63b8ff" d="M295.26,-167.2C323.63,-159.09 370.29,-145.02 409.38,-129.75 448.39,-114.51 492.01,-93.44 519.33,-79.74"/>
<polygon fill="#63b8ff" stroke="#63b8ff" points="520.61,-82.51 527.95,-74.88 517.45,-76.26 520.61,-82.51"/>
</g>
<!-- Node12 -->
<g id="node12" class="node">
<title>Node12</title>
<g id="a_node12"><a xlink:title=" ">
<polygon fill="#e0e0e0" stroke="#999999" points="400.38,-129.75 354.38,-129.75 354.38,-110.5 400.38,-110.5 400.38,-129.75"/>
<text text-anchor="middle" x="377.38" y="-116.25" font-family="Helvetica,sans-Serif" font-size="10.00">fftw3.h</text>
</a>
</g>
</g>
<!-- Node8&#45;&gt;Node12 -->
<g id="edge12" class="edge">
<title>Node8&#45;&gt;Node12</title>
<path fill="none" stroke="#63b8ff" d="M287.7,-165.34C304.53,-157.04 329.74,-144.61 349.15,-135.04"/>
<polygon fill="#63b8ff" stroke="#63b8ff" points="350.54,-137.76 357.96,-130.2 347.45,-131.49 350.54,-137.76"/>
</g>
<!-- Node13 -->
<g id="node13" class="node">
<title>Node13</title>
<g id="a_node13"><a xlink:href="globals_8h.html" target="_top" xlink:title="Type definitions and global constants.">
<polygon fill="white" stroke="#666666" points="81.88,-129.75 26.88,-129.75 26.88,-110.5 81.88,-110.5 81.88,-129.75"/>
<text text-anchor="middle" x="54.38" y="-116.25" font-family="Helvetica,sans-Serif" font-size="10.00">globals.h</text>
</a>
</g>
</g>
<!-- Node8&#45;&gt;Node13 -->
<g id="edge13" class="edge">
<title>Node8&#45;&gt;Node13</title>
<path fill="none" stroke="#63b8ff" d="M243.44,-167.95C205.86,-158.64 136.02,-141.35 92.55,-130.58"/>
<polygon fill="#63b8ff" stroke="#63b8ff" points="93.65,-127 83.1,-127.99 91.97,-133.79 93.65,-127"/>
</g>
<!-- Node14 -->
<g id="node14" class="node">
<title>Node14</title>
<g id="a_node14"><a xlink:title=" ">
<polygon fill="#e0e0e0" stroke="#999999" points="160.88,-129.75 99.88,-129.75 99.88,-110.5 160.88,-110.5 160.88,-129.75"/>
<text text-anchor="middle" x="130.38" y="-116.25" font-family="Helvetica,sans-Serif" font-size="10.00">matlabio.h</text>
</a>
</g>
</g>
<!-- Node8&#45;&gt;Node14 -->
<g id="edge16" class="edge">
<title>Node8&#45;&gt;Node14</title>
<path fill="none" stroke="#63b8ff" d="M245.8,-165.34C223.43,-156.77 189.58,-143.81 164.31,-134.13"/>
<polygon fill="#63b8ff" stroke="#63b8ff" points="165.66,-130.51 155.07,-130.2 163.16,-137.05 165.66,-130.51"/>
</g>
<!-- Node15 -->
<g id="node15" class="node">
<title>Node15</title>
<g id="a_node15"><a xlink:href="utils_8h.html" target="_top" xlink:title="Useful miscellaneous utility functions.">
<polygon fill="white" stroke="#666666" points="221.5,-129.75 179.25,-129.75 179.25,-110.5 221.5,-110.5 221.5,-129.75"/>
<text text-anchor="middle" x="200.38" y="-116.25" font-family="Helvetica,sans-Serif" font-size="10.00">utils.h</text>
</a>
</g>
</g>
<!-- Node8&#45;&gt;Node15 -->
<g id="edge17" class="edge">
<title>Node8&#45;&gt;Node15</title>
<path fill="none" stroke="#63b8ff" d="M257.67,-165.34C247.5,-157.49 232.54,-145.95 220.46,-136.62"/>
<polygon fill="#63b8ff" stroke="#63b8ff" points="222.96,-133.36 212.91,-130.02 218.69,-138.91 222.96,-133.36"/>
</g>
<!-- Node13&#45;&gt;Node7 -->
<g id="edge15" class="edge">
<title>Node13&#45;&gt;Node7</title>
<path fill="none" stroke="#63b8ff" d="M82.22,-112.15C84.97,-111.55 87.72,-110.99 90.38,-110.5 202.5,-89.72 337.29,-74.95 397.13,-68.9"/>
<polygon fill="#63b8ff" stroke="#63b8ff" points="397.46,-72.29 407.07,-67.81 396.77,-65.32 397.46,-72.29"/>
</g>
<!-- Node13&#45;&gt;Node9 -->
<g id="edge14" class="edge">
<title>Node13&#45;&gt;Node9</title>
<path fill="none" stroke="#63b8ff" d="M49.75,-110.33C46.04,-103.28 40.72,-93.15 36.08,-84.33"/>
<polygon fill="#63b8ff" stroke="#63b8ff" points="38.85,-83.08 31.1,-75.86 32.66,-86.34 38.85,-83.08"/>
</g>
<!-- Node15&#45;&gt;Node7 -->
<g id="edge20" class="edge">
<title>Node15&#45;&gt;Node7</title>
<path fill="none" stroke="#63b8ff" d="M221.68,-113.05C224.92,-112.17 228.23,-111.29 231.38,-110.5 289.71,-95.79 358.34,-80.75 397.26,-72.43"/>
<polygon fill="#63b8ff" stroke="#63b8ff" points="397.83,-75.68 406.88,-70.17 396.37,-68.83 397.83,-75.68"/>
</g>
<!-- Node15&#45;&gt;Node11 -->
<g id="edge21" class="edge">
<title>Node15&#45;&gt;Node11</title>
<path fill="none" stroke="#63b8ff" d="M221.97,-112.73C225.11,-111.91 228.31,-111.14 231.38,-110.5 333.51,-89.15 456.43,-75.01 513.85,-69.07"/>
<polygon fill="#63b8ff" stroke="#63b8ff" points="513.84,-72.48 523.44,-67.99 513.13,-65.52 513.84,-72.48"/>
</g>
<!-- Node16 -->
<g id="node16" class="node">
<title>Node16</title>
<g id="a_node16"><a xlink:title=" ">
<polygon fill="#e0e0e0" stroke="#999999" points="262.25,-74.5 206.5,-74.5 206.5,-55.25 262.25,-55.25 262.25,-74.5"/>
<text text-anchor="middle" x="234.38" y="-61" font-family="Helvetica,sans-Serif" font-size="10.00">algorithm</text>
</a>
</g>
</g>
<!-- Node15&#45;&gt;Node16 -->
<g id="edge18" class="edge">
<title>Node15&#45;&gt;Node16</title>
<path fill="none" stroke="#63b8ff" d="M205.99,-110.33C210.54,-103.21 217.1,-92.93 222.77,-84.05"/>
<polygon fill="#63b8ff" stroke="#63b8ff" points="226.21,-86.17 228.64,-75.86 220.31,-82.4 226.21,-86.17"/>
</g>
<!-- Node17 -->
<g id="node17" class="node">
<title>Node17</title>
<g id="a_node17"><a xlink:title=" ">
<polygon fill="#e0e0e0" stroke="#999999" points="188.38,-74.5 142.38,-74.5 142.38,-55.25 188.38,-55.25 188.38,-74.5"/>
<text text-anchor="middle" x="165.38" y="-61" font-family="Helvetica,sans-Serif" font-size="10.00">iterator</text>
</a>
</g>
</g>
<!-- Node15&#45;&gt;Node17 -->
<g id="edge19" class="edge">
<title>Node15&#45;&gt;Node17</title>
<path fill="none" stroke="#63b8ff" d="M194.6,-110.33C189.91,-103.21 183.16,-92.93 177.32,-84.05"/>
<polygon fill="#63b8ff" stroke="#63b8ff" points="179.7,-82.29 171.28,-75.86 173.85,-86.14 179.7,-82.29"/>
</g>
<!-- Node19&#45;&gt;Node2 -->
<g id="edge28" class="edge">
<title>Node19&#45;&gt;Node2</title>
<path fill="none" stroke="#63b8ff" d="M686.7,-169.08C713.99,-163.59 747.78,-152.43 769.38,-129.75 780.61,-117.96 785.23,-99.82 787.12,-85.88"/>
<polygon fill="#63b8ff" stroke="#63b8ff" points="790.69,-86.27 788.17,-75.98 783.73,-85.6 790.69,-86.27"/>
</g>
<!-- Node19&#45;&gt;Node7 -->
<g id="edge24" class="edge">
<title>Node19&#45;&gt;Node7</title>
<path fill="none" stroke="#63b8ff" d="M612.71,-165.39C588.12,-157.44 552.61,-144.8 523.38,-129.75 496.14,-115.73 467.26,-95.44 448.59,-81.51"/>
<polygon fill="#63b8ff" stroke="#63b8ff" points="450.91,-78.12 440.82,-74.87 446.68,-83.7 450.91,-78.12"/>
</g>
<!-- Node20 -->
<g id="node20" class="node">
<title>Node20</title>
<g id="a_node20"><a xlink:href="input__output__names_8h.html" target="_top" xlink:title="Constant values associated with the format of the input and output files and matrices.">
<polygon fill="white" stroke="#666666" points="644.38,-129.75 532.38,-129.75 532.38,-110.5 644.38,-110.5 644.38,-129.75"/>
<text text-anchor="middle" x="588.38" y="-116.25" font-family="Helvetica,sans-Serif" font-size="10.00">input_output_names.h</text>
</a>
</g>
</g>
<!-- Node19&#45;&gt;Node20 -->
<g id="edge25" class="edge">
<title>Node19&#45;&gt;Node20</title>
<path fill="none" stroke="#63b8ff" d="M633.46,-165.58C625.77,-158 614.45,-146.84 605.08,-137.6"/>
<polygon fill="#63b8ff" stroke="#63b8ff" points="608.06,-135.64 598.49,-131.11 603.15,-140.62 608.06,-135.64"/>
</g>
<!-- Node21 -->
<g id="node21" class="node">
<title>Node21</title>
<g id="a_node21"><a xlink:href="matrix__collection_8h.html" target="_top" xlink:title="A collection of named MATLAB matrices.">
<polygon fill="white" stroke="#666666" points="760.25,-129.75 662.5,-129.75 662.5,-110.5 760.25,-110.5 760.25,-129.75"/>
<text text-anchor="middle" x="711.38" y="-116.25" font-family="Helvetica,sans-Serif" font-size="10.00">matrix_collection.h</text>
</a>
</g>
</g>
<!-- Node19&#45;&gt;Node21 -->
<g id="edge29" class="edge">
<title>Node19&#45;&gt;Node21</title>
<path fill="none" stroke="#63b8ff" d="M654.08,-165.34C664.25,-157.49 679.21,-145.95 691.29,-136.62"/>
<polygon fill="#63b8ff" stroke="#63b8ff" points="693.06,-138.91 698.84,-130.02 688.79,-133.36 693.06,-138.91"/>
</g>
<!-- Node20&#45;&gt;Node7 -->
<g id="edge26" class="edge">
<title>Node20&#45;&gt;Node7</title>
<path fill="none" stroke="#63b8ff" d="M561.23,-110.09C532.81,-100.63 488.26,-85.81 458.7,-75.97"/>
<polygon fill="#63b8ff" stroke="#63b8ff" points="460.13,-72.42 449.54,-72.59 457.92,-79.07 460.13,-72.42"/>
</g>
<!-- Node20&#45;&gt;Node11 -->
<g id="edge27" class="edge">
<title>Node20&#45;&gt;Node11</title>
<path fill="none" stroke="#63b8ff" d="M581.44,-110.33C575.7,-103.05 567.36,-92.48 560.26,-83.48"/>
<polygon fill="#63b8ff" stroke="#63b8ff" points="562.4,-81.54 553.46,-75.86 556.91,-85.88 562.4,-81.54"/>
</g>
<!-- Node21&#45;&gt;Node2 -->
<g id="edge32" class="edge">
<title>Node21&#45;&gt;Node2</title>
<path fill="none" stroke="#63b8ff" d="M724.44,-110.09C735.94,-102.14 752.93,-90.39 766.51,-81"/>
<polygon fill="#63b8ff" stroke="#63b8ff" points="768.01,-83.52 774.25,-74.95 764.03,-77.76 768.01,-83.52"/>
</g>
<!-- Node21&#45;&gt;Node7 -->
<g id="edge30" class="edge">
<title>Node21&#45;&gt;Node7</title>
<path fill="none" stroke="#63b8ff" d="M663.05,-110.03C604.76,-99.06 508.49,-80.95 459.34,-71.7"/>
<polygon fill="#63b8ff" stroke="#63b8ff" points="460.23,-68.12 449.75,-69.71 458.93,-75 460.23,-68.12"/>
</g>
<!-- Node21&#45;&gt;Node11 -->
<g id="edge31" class="edge">
<title>Node21&#45;&gt;Node11</title>
<path fill="none" stroke="#63b8ff" d="M683.38,-110.09C654.27,-100.7 608.76,-86.01 578.27,-76.17"/>
<polygon fill="#63b8ff" stroke="#63b8ff" points="579.76,-72.65 569.17,-72.91 577.61,-79.31 579.76,-72.65"/>
</g>
</g>
</svg>
