<?xml version="1.0" encoding="UTF-8" standalone="no"?>
<!DOCTYPE svg PUBLIC "-//W3C//DTD SVG 1.1//EN"
 "http://www.w3.org/Graphics/SVG/1.1/DTD/svg11.dtd">
<!-- Generated by graphviz version 8.0.5 (20230430.1635)
 -->
<!-- Title: tdms/include/mesh_base.h Pages: 1 -->
<svg width="992pt" height="304pt"
 viewBox="0.00 0.00 991.88 303.50" xmlns="http://www.w3.org/2000/svg" xmlns:xlink="http://www.w3.org/1999/xlink">
<g id="graph0" class="graph" transform="scale(1 1) rotate(0) translate(4 299.5)">
<title>tdms/include/mesh_base.h</title>
<!-- Node1 -->
<g id="node1" class="node">
<title>Node1</title>
<g id="a_node1"><a xlink:title="Generation of orientated mesh.">
<polygon fill="#999999" stroke="#666666" points="802.88,-295.5 669.88,-295.5 669.88,-276.25 802.88,-276.25 802.88,-295.5"/>
<text text-anchor="middle" x="736.38" y="-282" font-family="Helvetica,sans-Serif" font-size="10.00">tdms/include/mesh_base.h</text>
</a>
</g>
</g>
<!-- Node2 -->
<g id="node2" class="node">
<title>Node2</title>
<g id="a_node2"><a xlink:href="mat__io_8h.html" target="_top" xlink:title="Includes MATLAB headers for I/O.">
<polygon fill="white" stroke="#666666" points="924.12,-74.5 870.62,-74.5 870.62,-55.25 924.12,-55.25 924.12,-74.5"/>
<text text-anchor="middle" x="897.38" y="-61" font-family="Helvetica,sans-Serif" font-size="10.00">mat_io.h</text>
</a>
</g>
</g>
<!-- Node1&#45;&gt;Node2 -->
<g id="edge1" class="edge">
<title>Node1&#45;&gt;Node2</title>
<path fill="none" stroke="#63b8ff" d="M752.27,-275.8C786.63,-255.14 867.15,-200.83 897.38,-129.75 903.29,-115.84 902.91,-98.64 901.25,-85.59"/>
<polygon fill="#63b8ff" stroke="#63b8ff" points="904.59,-85.3 899.53,-75.99 897.68,-86.42 904.59,-85.3"/>
</g>
<!-- Node6 -->
<g id="node6" class="node">
<title>Node6</title>
<g id="a_node6"><a xlink:href="simulation__parameters_8h.html" target="_top" xlink:title="Classes collecting parameters for the simulation.">
<polygon fill="white" stroke="#666666" points="678.62,-240.25 556.12,-240.25 556.12,-221 678.62,-221 678.62,-240.25"/>
<text text-anchor="middle" x="617.38" y="-226.75" font-family="Helvetica,sans-Serif" font-size="10.00">simulation_parameters.h</text>
</a>
</g>
</g>
<!-- Node1&#45;&gt;Node6 -->
<g id="edge5" class="edge">
<title>Node1&#45;&gt;Node6</title>
<path fill="none" stroke="#63b8ff" d="M716.19,-275.84C697.38,-267.43 669.09,-254.77 647.6,-245.15"/>
<polygon fill="#63b8ff" stroke="#63b8ff" points="649.22,-241.59 638.66,-240.7 646.36,-247.98 649.22,-241.59"/>
</g>
<!-- Node3 -->
<g id="node3" class="node">
<title>Node3</title>
<g id="a_node3"><a xlink:title=" ">
<polygon fill="#e0e0e0" stroke="#999999" points="853.75,-19.25 813,-19.25 813,0 853.75,0 853.75,-19.25"/>
<text text-anchor="middle" x="833.38" y="-5.75" font-family="Helvetica,sans-Serif" font-size="10.00">mat.h</text>
</a>
</g>
</g>
<!-- Node2&#45;&gt;Node3 -->
<g id="edge2" class="edge">
<title>Node2&#45;&gt;Node3</title>
<path fill="none" stroke="#63b8ff" d="M886.52,-54.84C877.18,-47.07 863.48,-35.67 852.33,-26.4"/>
<polygon fill="#63b8ff" stroke="#63b8ff" points="855,-23.23 845.07,-19.52 850.52,-28.61 855,-23.23"/>
</g>
<!-- Node4 -->
<g id="node4" class="node">
<title>Node4</title>
<g id="a_node4"><a xlink:title=" ">
<polygon fill="#e0e0e0" stroke="#999999" points="923,-19.25 871.75,-19.25 871.75,0 923,0 923,-19.25"/>
<text text-anchor="middle" x="897.38" y="-5.75" font-family="Helvetica,sans-Serif" font-size="10.00">matrix.h</text>
</a>
</g>
</g>
<!-- Node2&#45;&gt;Node4 -->
<g id="edge3" class="edge">
<title>Node2&#45;&gt;Node4</title>
<path fill="none" stroke="#63b8ff" d="M897.38,-55.08C897.38,-48.42 897.38,-38.99 897.38,-30.53"/>
<polygon fill="#63b8ff" stroke="#63b8ff" points="900.88,-30.61 897.38,-20.61 893.88,-30.61 900.88,-30.61"/>
</g>
<!-- Node5 -->
<g id="node5" class="node">
<title>Node5</title>
<g id="a_node5"><a xlink:title=" ">
<polygon fill="#e0e0e0" stroke="#999999" points="983.88,-19.25 940.88,-19.25 940.88,0 983.88,0 983.88,-19.25"/>
<text text-anchor="middle" x="962.38" y="-5.75" font-family="Helvetica,sans-Serif" font-size="10.00">mex.h</text>
</a>
</g>
</g>
<!-- Node2&#45;&gt;Node5 -->
<g id="edge4" class="edge">
<title>Node2&#45;&gt;Node5</title>
<path fill="none" stroke="#63b8ff" d="M908.4,-54.84C917.89,-47.07 931.8,-35.67 943.12,-26.4"/>
<polygon fill="#63b8ff" stroke="#63b8ff" points="944.99,-28.57 950.51,-19.52 940.56,-23.15 944.99,-28.57"/>
</g>
<!-- Node7 -->
<g id="node7" class="node">
<title>Node7</title>
<g id="a_node7"><a xlink:title=" ">
<polygon fill="#e0e0e0" stroke="#999999" points="557.38,-74.5 517.38,-74.5 517.38,-55.25 557.38,-55.25 557.38,-74.5"/>
<text text-anchor="middle" x="537.38" y="-61" font-family="Helvetica,sans-Serif" font-size="10.00">string</text>
</a>
</g>
</g>
<!-- Node6&#45;&gt;Node7 -->
<g id="edge6" class="edge">
<title>Node6&#45;&gt;Node7</title>
<path fill="none" stroke="#63b8ff" d="M613.07,-220.82C600.49,-195.05 563.53,-119.4 546.35,-84.24"/>
<polygon fill="#63b8ff" stroke="#63b8ff" points="549.23,-83.17 541.7,-75.72 542.94,-86.24 549.23,-83.17"/>
</g>
<!-- Node8 -->
<g id="node8" class="node">
<title>Node8</title>
<g id="a_node8"><a xlink:href="arrays_8h.html" target="_top" xlink:title="Classes describing arrays, vertices etc.">
<polygon fill="white" stroke="#666666" points="307,-185 255.75,-185 255.75,-165.75 307,-165.75 307,-185"/>
<text text-anchor="middle" x="281.38" y="-171.5" font-family="Helvetica,sans-Serif" font-size="10.00">arrays.h</text>
</a>
</g>
</g>
<!-- Node6&#45;&gt;Node8 -->
<g id="edge7" class="edge">
<title>Node6&#45;&gt;Node8</title>
<path fill="none" stroke="#63b8ff" d="M560,-220.53C490.62,-209.54 375.93,-191.36 317.71,-182.13"/>
<polygon fill="#63b8ff" stroke="#63b8ff" points="318.61,-178.57 308.18,-180.47 317.51,-185.49 318.61,-178.57"/>
</g>
<!-- Node17 -->
<g id="node17" class="node">
<title>Node17</title>
<g id="a_node17"><a xlink:href="input__matrices_8h.html" target="_top" xlink:title="Class handling the input matrices that are read in from the input file.">
<polygon fill="white" stroke="#666666" points="741.38,-185 653.38,-185 653.38,-165.75 741.38,-165.75 741.38,-185"/>
<text text-anchor="middle" x="697.38" y="-171.5" font-family="Helvetica,sans-Serif" font-size="10.00">input_matrices.h</text>
</a>
</g>
</g>
<!-- Node6&#45;&gt;Node17 -->
<g id="edge20" class="edge">
<title>Node6&#45;&gt;Node17</title>
<path fill="none" stroke="#63b8ff" d="M630.95,-220.59C642.9,-212.64 660.55,-200.89 674.65,-191.5"/>
<polygon fill="#63b8ff" stroke="#63b8ff" points="676.35,-193.91 682.74,-185.45 672.47,-188.08 676.35,-193.91"/>
</g>
<!-- Node8&#45;&gt;Node7 -->
<g id="edge10" class="edge">
<title>Node8&#45;&gt;Node7</title>
<path fill="none" stroke="#63b8ff" d="M255.28,-172.49C202.6,-167.75 91.64,-152.59 129.38,-110.5 154.44,-82.55 414.78,-70.37 506,-66.94"/>
<polygon fill="#63b8ff" stroke="#63b8ff" points="506.13,-70.41 515.99,-66.54 505.87,-63.41 506.13,-70.41"/>
</g>
<!-- Node9 -->
<g id="node9" class="node">
<title>Node9</title>
<g id="a_node9"><a xlink:title=" ">
<polygon fill="#e0e0e0" stroke="#999999" points="52.75,-74.5 0,-74.5 0,-55.25 52.75,-55.25 52.75,-74.5"/>
<text text-anchor="middle" x="26.38" y="-61" font-family="Helvetica,sans-Serif" font-size="10.00">complex</text>
</a>
</g>
</g>
<!-- Node8&#45;&gt;Node9 -->
<g id="edge8" class="edge">
<title>Node8&#45;&gt;Node9</title>
<path fill="none" stroke="#63b8ff" d="M255.58,-174.05C195.26,-172.7 47.75,-165.7 17.38,-129.75 6.99,-117.47 11.09,-98.86 16.69,-84.9"/>
<polygon fill="#63b8ff" stroke="#63b8ff" points="20.29,-86.45 21.26,-75.9 13.92,-83.54 20.29,-86.45"/>
</g>
<!-- Node10 -->
<g id="node10" class="node">
<title>Node10</title>
<g id="a_node10"><a xlink:title=" ">
<polygon fill="#e0e0e0" stroke="#999999" points="196.75,-129.75 138,-129.75 138,-110.5 196.75,-110.5 196.75,-129.75"/>
<text text-anchor="middle" x="167.38" y="-116.25" font-family="Helvetica,sans-Serif" font-size="10.00">stdexcept</text>
</a>
</g>
</g>
<!-- Node8&#45;&gt;Node10 -->
<g id="edge9" class="edge">
<title>Node8&#45;&gt;Node10</title>
<path fill="none" stroke="#63b8ff" d="M262.04,-165.34C244.1,-156.97 217.17,-144.38 196.61,-134.78"/>
<polygon fill="#63b8ff" stroke="#63b8ff" points="198.35,-131.26 187.81,-130.2 195.39,-137.61 198.35,-131.26"/>
</g>
<!-- Node11 -->
<g id="node11" class="node">
<title>Node11</title>
<g id="a_node11"><a xlink:title=" ">
<polygon fill="#e0e0e0" stroke="#999999" points="718.88,-74.5 675.88,-74.5 675.88,-55.25 718.88,-55.25 718.88,-74.5"/>
<text text-anchor="middle" x="697.38" y="-61" font-family="Helvetica,sans-Serif" font-size="10.00">vector</text>
</a>
</g>
</g>
<!-- Node8&#45;&gt;Node11 -->
<g id="edge11" class="edge">
<title>Node8&#45;&gt;Node11</title>
<path fill="none" stroke="#63b8ff" d="M307.28,-170.86C351.18,-164.59 442.8,-150.21 518.38,-129.75 570.99,-115.5 630.23,-93.05 665.65,-78.91"/>
<polygon fill="#63b8ff" stroke="#63b8ff" points="666.44,-81.96 674.41,-74.98 663.82,-75.47 666.44,-81.96"/>
</g>
<!-- Node12 -->
<g id="node12" class="node">
<title>Node12</title>
<g id="a_node12"><a xlink:title=" ">
<polygon fill="#e0e0e0" stroke="#999999" points="260.38,-129.75 214.38,-129.75 214.38,-110.5 260.38,-110.5 260.38,-129.75"/>
<text text-anchor="middle" x="237.38" y="-116.25" font-family="Helvetica,sans-Serif" font-size="10.00">fftw3.h</text>
</a>
</g>
</g>
<!-- Node8&#45;&gt;Node12 -->
<g id="edge12" class="edge">
<title>Node8&#45;&gt;Node12</title>
<path fill="none" stroke="#63b8ff" d="M274.11,-165.58C268.03,-158.23 259.18,-147.51 251.68,-138.44"/>
<polygon fill="#63b8ff" stroke="#63b8ff" points="253.87,-136.59 244.8,-131.11 248.47,-141.05 253.87,-136.59"/>
</g>
<!-- Node13 -->
<g id="node13" class="node">
<title>Node13</title>
<g id="a_node13"><a xlink:title=" ">
<polygon fill="#e0e0e0" stroke="#999999" points="370.25,-129.75 278.5,-129.75 278.5,-110.5 370.25,-110.5 370.25,-129.75"/>
<text text-anchor="middle" x="324.38" y="-116.25" font-family="Helvetica,sans-Serif" font-size="10.00">arrays/tensor3d.h</text>
</a>
</g>
</g>
<!-- Node8&#45;&gt;Node13 -->
<g id="edge13" class="edge">
<title>Node8&#45;&gt;Node13</title>
<path fill="none" stroke="#63b8ff" d="M288.48,-165.58C294.42,-158.23 303.07,-147.51 310.39,-138.44"/>
<polygon fill="#63b8ff" stroke="#63b8ff" points="313.56,-141.09 317.12,-131.11 308.11,-136.69 313.56,-141.09"/>
</g>
<!-- Node14 -->
<g id="node14" class="node">
<title>Node14</title>
<g id="a_node14"><a xlink:href="globals_8h.html" target="_top" xlink:title="Type definitions and global constants.">
<polygon fill="white" stroke="#666666" points="81.88,-129.75 26.88,-129.75 26.88,-110.5 81.88,-110.5 81.88,-129.75"/>
<text text-anchor="middle" x="54.38" y="-116.25" font-family="Helvetica,sans-Serif" font-size="10.00">globals.h</text>
</a>
</g>
</g>
<!-- Node8&#45;&gt;Node14 -->
<g id="edge14" class="edge">
<title>Node8&#45;&gt;Node14</title>
<path fill="none" stroke="#63b8ff" d="M255.34,-168.27C215.44,-158.91 138.98,-140.97 92.74,-130.12"/>
<polygon fill="#63b8ff" stroke="#63b8ff" points="93.77,-126.54 83.23,-127.66 92.17,-133.35 93.77,-126.54"/>
</g>
<!-- Node15 -->
<g id="node15" class="node">
<title>Node15</title>
<g id="a_node15"><a xlink:title=" ">
<polygon fill="#e0e0e0" stroke="#999999" points="448.88,-129.75 387.88,-129.75 387.88,-110.5 448.88,-110.5 448.88,-129.75"/>
<text text-anchor="middle" x="418.38" y="-116.25" font-family="Helvetica,sans-Serif" font-size="10.00">matlabio.h</text>
</a>
</g>
</g>
<!-- Node8&#45;&gt;Node15 -->
<g id="edge17" class="edge">
<title>Node8&#45;&gt;Node15</title>
<path fill="none" stroke="#63b8ff" d="M304.62,-165.34C326.66,-156.77 360.02,-143.81 384.92,-134.13"/>
<polygon fill="#63b8ff" stroke="#63b8ff" points="385.97,-137.09 394.02,-130.2 383.43,-130.56 385.97,-137.09"/>
</g>
<!-- Node16 -->
<g id="node16" class="node">
<title>Node16</title>
<g id="a_node16"><a xlink:href="utils_8h.html" target="_top" xlink:title="Useful miscellaneous utility functions.">
<polygon fill="white" stroke="#666666" points="509.5,-129.75 467.25,-129.75 467.25,-110.5 509.5,-110.5 509.5,-129.75"/>
<text text-anchor="middle" x="488.38" y="-116.25" font-family="Helvetica,sans-Serif" font-size="10.00">utils.h</text>
</a>
</g>
</g>
<!-- Node8&#45;&gt;Node16 -->
<g id="edge18" class="edge">
<title>Node8&#45;&gt;Node16</title>
<path fill="none" stroke="#63b8ff" d="M307.37,-167.98C339.87,-159.95 397.47,-145.57 456.75,-129.87"/>
<polygon fill="#63b8ff" stroke="#63b8ff" points="457.28,-133.08 466.05,-127.13 455.48,-126.31 457.28,-133.08"/>
</g>
<!-- Node14&#45;&gt;Node7 -->
<g id="edge16" class="edge">
<title>Node14&#45;&gt;Node7</title>
<path fill="none" stroke="#63b8ff" d="M82.32,-112.97C87,-112.06 91.81,-111.2 96.38,-110.5 249.45,-87.1 434.37,-72.91 506.48,-67.92"/>
<polygon fill="#63b8ff" stroke="#63b8ff" points="506.32,-71.37 516.06,-67.19 505.85,-64.38 506.32,-71.37"/>
</g>
<!-- Node14&#45;&gt;Node9 -->
<g id="edge15" class="edge">
<title>Node14&#45;&gt;Node9</title>
<path fill="none" stroke="#63b8ff" d="M49.75,-110.33C46.04,-103.28 40.72,-93.15 36.08,-84.33"/>
<polygon fill="#63b8ff" stroke="#63b8ff" points="38.85,-83.08 31.1,-75.86 32.66,-86.34 38.85,-83.08"/>
</g>
<!-- Node16&#45;&gt;Node7 -->
<g id="edge19" class="edge">
<title>Node16&#45;&gt;Node7</title>
<path fill="none" stroke="#63b8ff" d="M496.47,-110.33C503.31,-102.9 513.3,-92.04 521.7,-82.91"/>
<polygon fill="#63b8ff" stroke="#63b8ff" points="523.91,-85.59 528.11,-75.86 518.76,-80.85 523.91,-85.59"/>
</g>
<!-- Node17&#45;&gt;Node2 -->
<g id="edge25" class="edge">
<title>Node17&#45;&gt;Node2</title>
<path fill="none" stroke="#63b8ff" d="M741.55,-168.58C788.6,-161.55 858.94,-148.29 878.38,-129.75 890.41,-118.27 894.92,-99.54 896.56,-85.33"/>
<polygon fill="#63b8ff" stroke="#63b8ff" points="900.1,-85.94 897.37,-75.7 893.12,-85.41 900.1,-85.94"/>
</g>
<!-- Node17&#45;&gt;Node7 -->
<g id="edge21" class="edge">
<title>Node17&#45;&gt;Node7</title>
<path fill="none" stroke="#63b8ff" d="M684.01,-165.31C656.53,-146.68 593.44,-103.9 559.67,-81"/>
<polygon fill="#63b8ff" stroke="#63b8ff" points="561.83,-77.55 551.59,-74.84 557.9,-83.35 561.83,-77.55"/>
</g>
<!-- Node18 -->
<g id="node18" class="node">
<title>Node18</title>
<g id="a_node18"><a xlink:href="input__output__names_8h.html" target="_top" xlink:title="Constant values associated with the format of the input and output files and matrices.">
<polygon fill="white" stroke="#666666" points="753.38,-129.75 641.38,-129.75 641.38,-110.5 753.38,-110.5 753.38,-129.75"/>
<text text-anchor="middle" x="697.38" y="-116.25" font-family="Helvetica,sans-Serif" font-size="10.00">input_output_names.h</text>
</a>
</g>
</g>
<!-- Node17&#45;&gt;Node18 -->
<g id="edge22" class="edge">
<title>Node17&#45;&gt;Node18</title>
<path fill="none" stroke="#63b8ff" d="M697.38,-165.58C697.38,-158.92 697.38,-149.49 697.38,-141.03"/>
<polygon fill="#63b8ff" stroke="#63b8ff" points="700.88,-141.11 697.38,-131.11 693.88,-141.11 700.88,-141.11"/>
</g>
<!-- Node19 -->
<g id="node19" class="node">
<title>Node19</title>
<g id="a_node19"><a xlink:href="matrix__collection_8h.html" target="_top" xlink:title="A collection of named MATLAB matrices.">
<polygon fill="white" stroke="#666666" points="869.25,-129.75 771.5,-129.75 771.5,-110.5 869.25,-110.5 869.25,-129.75"/>
<text text-anchor="middle" x="820.38" y="-116.25" font-family="Helvetica,sans-Serif" font-size="10.00">matrix_collection.h</text>
</a>
</g>
</g>
<!-- Node17&#45;&gt;Node19 -->
<g id="edge26" class="edge">
<title>Node17&#45;&gt;Node19</title>
<path fill="none" stroke="#63b8ff" d="M718.24,-165.34C737.77,-156.89 767.18,-144.15 789.44,-134.52"/>
<polygon fill="#63b8ff" stroke="#63b8ff" points="790.62,-137.39 798.41,-130.2 787.84,-130.96 790.62,-137.39"/>
</g>
<!-- Node18&#45;&gt;Node7 -->
<g id="edge23" class="edge">
<title>Node18&#45;&gt;Node7</title>
<path fill="none" stroke="#63b8ff" d="M670.23,-110.09C641.81,-100.63 597.26,-85.81 567.7,-75.97"/>
<polygon fill="#63b8ff" stroke="#63b8ff" points="569.13,-72.42 558.54,-72.59 566.92,-79.07 569.13,-72.42"/>
</g>
<!-- Node18&#45;&gt;Node11 -->
<g id="edge24" class="edge">
<title>Node18&#45;&gt;Node11</title>
<path fill="none" stroke="#63b8ff" d="M697.38,-110.33C697.38,-103.67 697.38,-94.24 697.38,-85.78"/>
<polygon fill="#63b8ff" stroke="#63b8ff" points="700.88,-85.86 697.38,-75.86 693.88,-85.86 700.88,-85.86"/>
</g>
<!-- Node19&#45;&gt;Node2 -->
<g id="edge29" class="edge">
<title>Node19&#45;&gt;Node2</title>
<path fill="none" stroke="#63b8ff" d="M833.44,-110.09C844.94,-102.14 861.93,-90.39 875.51,-81"/>
<polygon fill="#63b8ff" stroke="#63b8ff" points="877.01,-83.52 883.25,-74.95 873.03,-77.76 877.01,-83.52"/>
</g>
<!-- Node19&#45;&gt;Node7 -->
<g id="edge27" class="edge">
<title>Node19&#45;&gt;Node7</title>
<path fill="none" stroke="#63b8ff" d="M772.05,-110.03C713.76,-99.06 617.49,-80.95 568.34,-71.7"/>
<polygon fill="#63b8ff" stroke="#63b8ff" points="569.23,-68.12 558.75,-69.71 567.93,-75 569.23,-68.12"/>
</g>
<!-- Node19&#45;&gt;Node11 -->
<g id="edge28" class="edge">
<title>Node19&#45;&gt;Node11</title>
<path fill="none" stroke="#63b8ff" d="M799.51,-110.09C779.98,-101.64 750.57,-88.9 728.31,-79.27"/>
<polygon fill="#63b8ff" stroke="#63b8ff" points="729.91,-75.71 719.34,-74.95 727.13,-82.14 729.91,-75.71"/>
</g>
</g>
</svg>
