<?xml version="1.0" encoding="UTF-8" standalone="no"?>
<!DOCTYPE svg PUBLIC "-//W3C//DTD SVG 1.1//EN"
 "http://www.w3.org/Graphics/SVG/1.1/DTD/svg11.dtd">
<!-- Generated by graphviz version 8.0.5 (20230430.1635)
 -->
<!-- Title: tdms/include/mesh_base.h Pages: 1 -->
<svg width="854pt" height="304pt"
 viewBox="0.00 0.00 853.88 303.50" xmlns="http://www.w3.org/2000/svg" xmlns:xlink="http://www.w3.org/1999/xlink">
<g id="graph0" class="graph" transform="scale(1 1) rotate(0) translate(4 299.5)">
<title>tdms/include/mesh_base.h</title>
<!-- Node1 -->
<g id="node1" class="node">
<title>Node1</title>
<g id="a_node1"><a xlink:title="Generation of orientated mesh.">
<polygon fill="#999999" stroke="#666666" points="231.88,-295.5 98.88,-295.5 98.88,-276.25 231.88,-276.25 231.88,-295.5"/>
<text text-anchor="middle" x="165.38" y="-282" font-family="Helvetica,sans-Serif" font-size="10.00">tdms/include/mesh_base.h</text>
</a>
</g>
</g>
<!-- Node2 -->
<g id="node2" class="node">
<title>Node2</title>
<g id="a_node2"><a xlink:href="mat__io_8h.html" target="_top" xlink:title="Includes MATLAB headers for I/O.">
<polygon fill="white" stroke="#666666" points="111.12,-74.5 57.62,-74.5 57.62,-55.25 111.12,-55.25 111.12,-74.5"/>
<text text-anchor="middle" x="84.38" y="-61" font-family="Helvetica,sans-Serif" font-size="10.00">mat_io.h</text>
</a>
</g>
</g>
<!-- Node1&#45;&gt;Node2 -->
<g id="edge1" class="edge">
<title>Node1&#45;&gt;Node2</title>
<path fill="none" stroke="#63b8ff" d="M159.32,-275.95C144.1,-252.95 104.32,-189.29 88.38,-129.75 84.5,-115.27 83.6,-98.32 83.61,-85.52"/>
<polygon fill="#63b8ff" stroke="#63b8ff" points="87.13,-85.8 83.84,-75.73 80.13,-85.65 87.13,-85.8"/>
</g>
<!-- Node6 -->
<g id="node6" class="node">
<title>Node6</title>
<g id="a_node6"><a xlink:href="simulation__parameters_8h.html" target="_top" xlink:title="Classes collecting parameters for the simulation.">
<polygon fill="white" stroke="#666666" points="406.62,-240.25 284.12,-240.25 284.12,-221 406.62,-221 406.62,-240.25"/>
<text text-anchor="middle" x="345.38" y="-226.75" font-family="Helvetica,sans-Serif" font-size="10.00">simulation_parameters.h</text>
</a>
</g>
</g>
<!-- Node1&#45;&gt;Node6 -->
<g id="edge5" class="edge">
<title>Node1&#45;&gt;Node6</title>
<path fill="none" stroke="#63b8ff" d="M195.91,-275.84C225.78,-267.01 271.46,-253.49 304.46,-243.73"/>
<polygon fill="#63b8ff" stroke="#63b8ff" points="305.09,-246.9 313.69,-240.7 303.11,-240.18 305.09,-246.9"/>
</g>
<!-- Node3 -->
<g id="node3" class="node">
<title>Node3</title>
<g id="a_node3"><a xlink:title=" ">
<polygon fill="#e0e0e0" stroke="#999999" points="40.75,-19.25 0,-19.25 0,0 40.75,0 40.75,-19.25"/>
<text text-anchor="middle" x="20.38" y="-5.75" font-family="Helvetica,sans-Serif" font-size="10.00">mat.h</text>
</a>
</g>
</g>
<!-- Node2&#45;&gt;Node3 -->
<g id="edge2" class="edge">
<title>Node2&#45;&gt;Node3</title>
<path fill="none" stroke="#63b8ff" d="M73.52,-54.84C64.18,-47.07 50.48,-35.67 39.33,-26.4"/>
<polygon fill="#63b8ff" stroke="#63b8ff" points="42,-23.23 32.07,-19.52 37.52,-28.61 42,-23.23"/>
</g>
<!-- Node4 -->
<g id="node4" class="node">
<title>Node4</title>
<g id="a_node4"><a xlink:title=" ">
<polygon fill="#e0e0e0" stroke="#999999" points="110,-19.25 58.75,-19.25 58.75,0 110,0 110,-19.25"/>
<text text-anchor="middle" x="84.38" y="-5.75" font-family="Helvetica,sans-Serif" font-size="10.00">matrix.h</text>
</a>
</g>
</g>
<!-- Node2&#45;&gt;Node4 -->
<g id="edge3" class="edge">
<title>Node2&#45;&gt;Node4</title>
<path fill="none" stroke="#63b8ff" d="M84.38,-55.08C84.38,-48.42 84.38,-38.99 84.38,-30.53"/>
<polygon fill="#63b8ff" stroke="#63b8ff" points="87.88,-30.61 84.38,-20.61 80.88,-30.61 87.88,-30.61"/>
</g>
<!-- Node5 -->
<g id="node5" class="node">
<title>Node5</title>
<g id="a_node5"><a xlink:title=" ">
<polygon fill="#e0e0e0" stroke="#999999" points="170.88,-19.25 127.88,-19.25 127.88,0 170.88,0 170.88,-19.25"/>
<text text-anchor="middle" x="149.38" y="-5.75" font-family="Helvetica,sans-Serif" font-size="10.00">mex.h</text>
</a>
</g>
</g>
<!-- Node2&#45;&gt;Node5 -->
<g id="edge4" class="edge">
<title>Node2&#45;&gt;Node5</title>
<path fill="none" stroke="#63b8ff" d="M95.4,-54.84C104.89,-47.07 118.8,-35.67 130.12,-26.4"/>
<polygon fill="#63b8ff" stroke="#63b8ff" points="131.99,-28.57 137.51,-19.52 127.56,-23.15 131.99,-28.57"/>
</g>
<!-- Node7 -->
<g id="node7" class="node">
<title>Node7</title>
<g id="a_node7"><a xlink:title=" ">
<polygon fill="#e0e0e0" stroke="#999999" points="426.38,-74.5 386.38,-74.5 386.38,-55.25 426.38,-55.25 426.38,-74.5"/>
<text text-anchor="middle" x="406.38" y="-61" font-family="Helvetica,sans-Serif" font-size="10.00">string</text>
</a>
</g>
</g>
<!-- Node6&#45;&gt;Node7 -->
<g id="edge6" class="edge">
<title>Node6&#45;&gt;Node7</title>
<path fill="none" stroke="#63b8ff" d="M348.65,-220.82C358.21,-195.17 386.19,-120.05 399.36,-84.69"/>
<polygon fill="#63b8ff" stroke="#63b8ff" points="402.87,-86.32 403.08,-75.72 396.31,-83.87 402.87,-86.32"/>
</g>
<!-- Node8 -->
<g id="node8" class="node">
<title>Node8</title>
<g id="a_node8"><a xlink:href="arrays_8h.html" target="_top" xlink:title="Classes describing arrays, vertices etc.">
<polygon fill="white" stroke="#666666" points="614,-185 562.75,-185 562.75,-165.75 614,-165.75 614,-185"/>
<text text-anchor="middle" x="588.38" y="-171.5" font-family="Helvetica,sans-Serif" font-size="10.00">arrays.h</text>
</a>
</g>
</g>
<!-- Node6&#45;&gt;Node8 -->
<g id="edge7" class="edge">
<title>Node6&#45;&gt;Node8</title>
<path fill="none" stroke="#63b8ff" d="M386.87,-220.53C433.23,-210.37 507.57,-194.08 551.82,-184.39"/>
<polygon fill="#63b8ff" stroke="#63b8ff" points="552.37,-187.63 561.39,-182.07 550.87,-180.79 552.37,-187.63"/>
</g>
<!-- Node15 -->
<g id="node15" class="node">
<title>Node15</title>
<g id="a_node15"><a xlink:href="input__matrices_8h.html" target="_top" xlink:title="Class handling the input matrices that are read in from the input file.">
<polygon fill="white" stroke="#666666" points="328.38,-185 240.38,-185 240.38,-165.75 328.38,-165.75 328.38,-185"/>
<text text-anchor="middle" x="284.38" y="-171.5" font-family="Helvetica,sans-Serif" font-size="10.00">input_matrices.h</text>
</a>
</g>
</g>
<!-- Node6&#45;&gt;Node15 -->
<g id="edge18" class="edge">
<title>Node6&#45;&gt;Node15</title>
<path fill="none" stroke="#63b8ff" d="M335.03,-220.59C326.21,-212.9 313.33,-201.65 302.76,-192.43"/>
<polygon fill="#63b8ff" stroke="#63b8ff" points="305.41,-189.21 295.57,-185.27 300.8,-194.49 305.41,-189.21"/>
</g>
<!-- Node8&#45;&gt;Node7 -->
<g id="edge10" class="edge">
<title>Node8&#45;&gt;Node7</title>
<path fill="none" stroke="#63b8ff" d="M562.72,-169.18C536.17,-162.93 494.34,-150.6 463.38,-129.75 444.94,-117.34 428.6,-97.64 418.19,-83.4"/>
<polygon fill="#63b8ff" stroke="#63b8ff" points="420.6,-81.73 411.98,-75.57 414.87,-85.76 420.6,-81.73"/>
</g>
<!-- Node9 -->
<g id="node9" class="node">
<title>Node9</title>
<g id="a_node9"><a xlink:title=" ">
<polygon fill="#e0e0e0" stroke="#999999" points="614.75,-74.5 562,-74.5 562,-55.25 614.75,-55.25 614.75,-74.5"/>
<text text-anchor="middle" x="588.38" y="-61" font-family="Helvetica,sans-Serif" font-size="10.00">complex</text>
</a>
</g>
</g>
<!-- Node8&#45;&gt;Node9 -->
<g id="edge8" class="edge">
<title>Node8&#45;&gt;Node9</title>
<path fill="none" stroke="#63b8ff" d="M590.69,-165.56C592.92,-156.62 596.12,-142.33 597.38,-129.75 598.86,-114.89 596.35,-98.17 593.61,-85.57"/>
<polygon fill="#63b8ff" stroke="#63b8ff" points="596.79,-84.84 591.04,-75.94 589.99,-86.49 596.79,-84.84"/>
</g>
<!-- Node10 -->
<g id="node10" class="node">
<title>Node10</title>
<g id="a_node10"><a xlink:title=" ">
<polygon fill="#e0e0e0" stroke="#999999" points="702.75,-129.75 644,-129.75 644,-110.5 702.75,-110.5 702.75,-129.75"/>
<text text-anchor="middle" x="673.38" y="-116.25" font-family="Helvetica,sans-Serif" font-size="10.00">stdexcept</text>
</a>
</g>
</g>
<!-- Node8&#45;&gt;Node10 -->
<g id="edge9" class="edge">
<title>Node8&#45;&gt;Node10</title>
<path fill="none" stroke="#63b8ff" d="M602.79,-165.34C615.62,-157.31 634.61,-145.41 649.67,-135.98"/>
<polygon fill="#63b8ff" stroke="#63b8ff" points="651.27,-138.48 657.89,-130.2 647.55,-132.55 651.27,-138.48"/>
</g>
<!-- Node11 -->
<g id="node11" class="node">
<title>Node11</title>
<g id="a_node11"><a xlink:title=" ">
<polygon fill="#e0e0e0" stroke="#999999" points="766.38,-129.75 720.38,-129.75 720.38,-110.5 766.38,-110.5 766.38,-129.75"/>
<text text-anchor="middle" x="743.38" y="-116.25" font-family="Helvetica,sans-Serif" font-size="10.00">fftw3.h</text>
</a>
</g>
</g>
<!-- Node8&#45;&gt;Node11 -->
<g id="edge11" class="edge">
<title>Node8&#45;&gt;Node11</title>
<path fill="none" stroke="#63b8ff" d="M614.32,-165.46C640.45,-156.48 680.9,-142.59 709.54,-132.75"/>
<polygon fill="#63b8ff" stroke="#63b8ff" points="710.57,-135.75 718.89,-129.19 708.29,-129.13 710.57,-135.75"/>
</g>
<!-- Node12 -->
<g id="node12" class="node">
<title>Node12</title>
<g id="a_node12"><a xlink:href="globals_8h.html" target="_top" xlink:title="Type definitions and global constants.">
<polygon fill="white" stroke="#666666" points="587.88,-129.75 532.88,-129.75 532.88,-110.5 587.88,-110.5 587.88,-129.75"/>
<text text-anchor="middle" x="560.38" y="-116.25" font-family="Helvetica,sans-Serif" font-size="10.00">globals.h</text>
</a>
</g>
</g>
<!-- Node8&#45;&gt;Node12 -->
<g id="edge12" class="edge">
<title>Node8&#45;&gt;Node12</title>
<path fill="none" stroke="#63b8ff" d="M583.75,-165.58C580.04,-158.53 574.72,-148.4 570.08,-139.58"/>
<polygon fill="#63b8ff" stroke="#63b8ff" points="572.85,-138.33 565.1,-131.11 566.66,-141.59 572.85,-138.33"/>
</g>
<!-- Node13 -->
<g id="node13" class="node">
<title>Node13</title>
<g id="a_node13"><a xlink:title=" ">
<polygon fill="#e0e0e0" stroke="#999999" points="845.88,-129.75 784.88,-129.75 784.88,-110.5 845.88,-110.5 845.88,-129.75"/>
<text text-anchor="middle" x="815.38" y="-116.25" font-family="Helvetica,sans-Serif" font-size="10.00">matlabio.h</text>
</a>
</g>
</g>
<!-- Node8&#45;&gt;Node13 -->
<g id="edge15" class="edge">
<title>Node8&#45;&gt;Node13</title>
<path fill="none" stroke="#63b8ff" d="M614.41,-168.27C653.44,-159.11 727.48,-141.74 773.97,-130.84"/>
<polygon fill="#63b8ff" stroke="#63b8ff" points="774.65,-134.04 783.59,-128.35 773.06,-127.22 774.65,-134.04"/>
</g>
<!-- Node14 -->
<g id="node14" class="node">
<title>Node14</title>
<g id="a_node14"><a xlink:href="utils_8h.html" target="_top" xlink:title="Useful miscellaneous utility functions.">
<polygon fill="white" stroke="#666666" points="514.5,-129.75 472.25,-129.75 472.25,-110.5 514.5,-110.5 514.5,-129.75"/>
<text text-anchor="middle" x="493.38" y="-116.25" font-family="Helvetica,sans-Serif" font-size="10.00">utils.h</text>
</a>
</g>
</g>
<!-- Node8&#45;&gt;Node14 -->
<g id="edge16" class="edge">
<title>Node8&#45;&gt;Node14</title>
<path fill="none" stroke="#63b8ff" d="M572.26,-165.34C557.66,-157.16 535.89,-144.96 518.92,-135.44"/>
<polygon fill="#63b8ff" stroke="#63b8ff" points="521,-132.04 510.57,-130.2 517.58,-138.15 521,-132.04"/>
</g>
<!-- Node12&#45;&gt;Node7 -->
<g id="edge14" class="edge">
<title>Node12&#45;&gt;Node7</title>
<path fill="none" stroke="#63b8ff" d="M534.25,-110.09C507.31,-100.78 465.34,-86.26 436.89,-76.43"/>
<polygon fill="#63b8ff" stroke="#63b8ff" points="438.31,-72.87 427.71,-72.91 436.02,-79.48 438.31,-72.87"/>
</g>
<!-- Node12&#45;&gt;Node9 -->
<g id="edge13" class="edge">
<title>Node12&#45;&gt;Node9</title>
<path fill="none" stroke="#63b8ff" d="M565,-110.33C568.71,-103.28 574.03,-93.15 578.67,-84.33"/>
<polygon fill="#63b8ff" stroke="#63b8ff" points="582.09,-86.34 583.65,-75.86 575.9,-83.08 582.09,-86.34"/>
</g>
<!-- Node14&#45;&gt;Node7 -->
<g id="edge17" class="edge">
<title>Node14&#45;&gt;Node7</title>
<path fill="none" stroke="#63b8ff" d="M478.62,-110.09C465.37,-101.98 445.68,-89.93 430.2,-80.46"/>
<polygon fill="#63b8ff" stroke="#63b8ff" points="432.56,-77.19 422.21,-74.95 428.91,-83.16 432.56,-77.19"/>
</g>
<!-- Node15&#45;&gt;Node2 -->
<g id="edge23" class="edge">
<title>Node15&#45;&gt;Node2</title>
<path fill="none" stroke="#63b8ff" d="M240.2,-168.58C193.15,-161.55 122.81,-148.29 103.38,-129.75 91.34,-118.27 86.83,-99.54 85.19,-85.33"/>
<polygon fill="#63b8ff" stroke="#63b8ff" points="88.63,-85.41 84.38,-75.7 81.65,-85.94 88.63,-85.41"/>
</g>
<!-- Node15&#45;&gt;Node7 -->
<g id="edge19" class="edge">
<title>Node15&#45;&gt;Node7</title>
<path fill="none" stroke="#63b8ff" d="M299.57,-165.4C313.25,-157 333.55,-143.68 349.38,-129.75 365.69,-115.39 381.97,-96.59 392.92,-83.11"/>
<polygon fill="#63b8ff" stroke="#63b8ff" points="396.09,-85.75 399.6,-75.75 390.62,-81.38 396.09,-85.75"/>
</g>
<!-- Node16 -->
<g id="node16" class="node">
<title>Node16</title>
<g id="a_node16"><a xlink:href="input__output__names_8h.html" target="_top" xlink:title="Constant values associated with the format of the input and output files and matrices.">
<polygon fill="white" stroke="#666666" points="340.38,-129.75 228.38,-129.75 228.38,-110.5 340.38,-110.5 340.38,-129.75"/>
<text text-anchor="middle" x="284.38" y="-116.25" font-family="Helvetica,sans-Serif" font-size="10.00">input_output_names.h</text>
</a>
</g>
</g>
<!-- Node15&#45;&gt;Node16 -->
<g id="edge20" class="edge">
<title>Node15&#45;&gt;Node16</title>
<path fill="none" stroke="#63b8ff" d="M284.38,-165.58C284.38,-158.92 284.38,-149.49 284.38,-141.03"/>
<polygon fill="#63b8ff" stroke="#63b8ff" points="287.88,-141.11 284.38,-131.11 280.88,-141.11 287.88,-141.11"/>
</g>
<!-- Node18 -->
<g id="node18" class="node">
<title>Node18</title>
<g id="a_node18"><a xlink:href="matrix__collection_8h.html" target="_top" xlink:title="A collection of named MATLAB matrices.">
<polygon fill="white" stroke="#666666" points="210.25,-129.75 112.5,-129.75 112.5,-110.5 210.25,-110.5 210.25,-129.75"/>
<text text-anchor="middle" x="161.38" y="-116.25" font-family="Helvetica,sans-Serif" font-size="10.00">matrix_collection.h</text>
</a>
</g>
</g>
<!-- Node15&#45;&gt;Node18 -->
<g id="edge24" class="edge">
<title>Node15&#45;&gt;Node18</title>
<path fill="none" stroke="#63b8ff" d="M263.51,-165.34C243.98,-156.89 214.57,-144.15 192.31,-134.52"/>
<polygon fill="#63b8ff" stroke="#63b8ff" points="193.91,-130.96 183.34,-130.2 191.13,-137.39 193.91,-130.96"/>
</g>
<!-- Node16&#45;&gt;Node7 -->
<g id="edge21" class="edge">
<title>Node16&#45;&gt;Node7</title>
<path fill="none" stroke="#63b8ff" d="M305.07,-110.09C324.56,-101.59 353.97,-88.75 376.09,-79.09"/>
<polygon fill="#63b8ff" stroke="#63b8ff" points="377.22,-81.98 384.99,-74.77 374.42,-75.57 377.22,-81.98"/>
</g>
<!-- Node17 -->
<g id="node17" class="node">
<title>Node17</title>
<g id="a_node17"><a xlink:title=" ">
<polygon fill="#e0e0e0" stroke="#999999" points="243.88,-74.5 200.88,-74.5 200.88,-55.25 243.88,-55.25 243.88,-74.5"/>
<text text-anchor="middle" x="222.38" y="-61" font-family="Helvetica,sans-Serif" font-size="10.00">vector</text>
</a>
</g>
</g>
<!-- Node16&#45;&gt;Node17 -->
<g id="edge22" class="edge">
<title>Node16&#45;&gt;Node17</title>
<path fill="none" stroke="#63b8ff" d="M273.86,-110.09C264.9,-102.4 251.8,-91.15 241.06,-81.93"/>
<polygon fill="#63b8ff" stroke="#63b8ff" points="243.6,-78.64 233.74,-74.77 239.04,-83.95 243.6,-78.64"/>
</g>
<!-- Node18&#45;&gt;Node2 -->
<g id="edge27" class="edge">
<title>Node18&#45;&gt;Node2</title>
<path fill="none" stroke="#63b8ff" d="M148.31,-110.09C136.81,-102.14 119.82,-90.39 106.24,-81"/>
<polygon fill="#63b8ff" stroke="#63b8ff" points="108.72,-77.76 98.5,-74.95 104.74,-83.52 108.72,-77.76"/>
</g>
<!-- Node18&#45;&gt;Node7 -->
<g id="edge25" class="edge">
<title>Node18&#45;&gt;Node7</title>
<path fill="none" stroke="#63b8ff" d="M203.21,-110.03C252.12,-99.4 331.91,-82.06 375.52,-72.58"/>
<polygon fill="#63b8ff" stroke="#63b8ff" points="376.01,-75.84 385.04,-70.3 374.52,-69 376.01,-75.84"/>
</g>
<!-- Node18&#45;&gt;Node17 -->
<g id="edge26" class="edge">
<title>Node18&#45;&gt;Node17</title>
<path fill="none" stroke="#63b8ff" d="M171.72,-110.09C180.54,-102.4 193.42,-91.15 203.99,-81.93"/>
<polygon fill="#63b8ff" stroke="#63b8ff" points="205.95,-83.99 211.18,-74.77 201.34,-78.71 205.95,-83.99"/>
</g>
</g>
</svg>
