<?xml version="1.0" encoding="UTF-8" standalone="no"?>
<!DOCTYPE svg PUBLIC "-//W3C//DTD SVG 1.1//EN"
 "http://www.w3.org/Graphics/SVG/1.1/DTD/svg11.dtd">
<!-- Generated by graphviz version 8.0.5 (20230430.1635)
 -->
<!-- Title: tdms/include/simulation_parameters.h Pages: 1 -->
<svg width="791pt" height="260pt"
 viewBox="0.00 0.00 790.68 259.50" xmlns="http://www.w3.org/2000/svg" xmlns:xlink="http://www.w3.org/1999/xlink">
<g id="graph0" class="graph" transform="scale(1 1) rotate(0) translate(4 255.5)">
<title>tdms/include/simulation_parameters.h</title>
<!-- Node1 -->
<g id="node1" class="node">
<title>Node1</title>
<g id="a_node1"><a xlink:title="Classes collecting parameters for the simulation.">
<polygon fill="#999999" stroke="#666666" points="424.75,-251.5 306,-251.5 306,-221 424.75,-221 424.75,-251.5"/>
<text text-anchor="start" x="314" y="-238" font-family="Helvetica,sans-Serif" font-size="10.00">tdms/include/simulation</text>
<text text-anchor="middle" x="365.38" y="-226.75" font-family="Helvetica,sans-Serif" font-size="10.00">_parameters.h</text>
</a>
</g>
</g>
<!-- Node2 -->
<g id="node2" class="node">
<title>Node2</title>
<g id="a_node2"><a xlink:title=" ">
<polygon fill="#e0e0e0" stroke="#999999" points="366.38,-74.5 326.38,-74.5 326.38,-55.25 366.38,-55.25 366.38,-74.5"/>
<text text-anchor="middle" x="346.38" y="-61" font-family="Helvetica,sans-Serif" font-size="10.00">string</text>
</a>
</g>
</g>
<!-- Node1&#45;&gt;Node2 -->
<g id="edge1" class="edge">
<title>Node1&#45;&gt;Node2</title>
<path fill="none" stroke="#63b8ff" d="M363.72,-220.52C360.3,-189.99 352.43,-119.83 348.58,-85.51"/>
<polygon fill="#63b8ff" stroke="#63b8ff" points="351.99,-85.53 347.4,-75.99 345.03,-86.31 351.99,-85.53"/>
</g>
<!-- Node3 -->
<g id="node3" class="node">
<title>Node3</title>
<g id="a_node3"><a xlink:href="arrays_8h.html" target="_top" xlink:title="Classes describing arrays, vertices etc.">
<polygon fill="white" stroke="#666666" points="582,-185 530.75,-185 530.75,-165.75 582,-165.75 582,-185"/>
<text text-anchor="middle" x="556.38" y="-171.5" font-family="Helvetica,sans-Serif" font-size="10.00">arrays.h</text>
</a>
</g>
</g>
<!-- Node1&#45;&gt;Node3 -->
<g id="edge2" class="edge">
<title>Node1&#45;&gt;Node3</title>
<path fill="none" stroke="#63b8ff" d="M413.08,-220.55C446.29,-210.31 489.89,-196.87 520.24,-187.51"/>
<polygon fill="#63b8ff" stroke="#63b8ff" points="520.85,-190.68 529.38,-184.39 518.79,-183.99 520.85,-190.68"/>
</g>
<!-- Node10 -->
<g id="node10" class="node">
<title>Node10</title>
<g id="a_node10"><a xlink:href="input__matrices_8h.html" target="_top" xlink:title="Class handling the input matrices that are read in from the input file.">
<polygon fill="white" stroke="#666666" points="287.38,-185 199.38,-185 199.38,-165.75 287.38,-165.75 287.38,-185"/>
<text text-anchor="middle" x="243.38" y="-171.5" font-family="Helvetica,sans-Serif" font-size="10.00">input_matrices.h</text>
</a>
</g>
</g>
<!-- Node1&#45;&gt;Node10 -->
<g id="edge12" class="edge">
<title>Node1&#45;&gt;Node10</title>
<path fill="none" stroke="#63b8ff" d="M334.9,-220.55C315.61,-211.23 290.83,-199.27 271.91,-190.15"/>
<polygon fill="#63b8ff" stroke="#63b8ff" points="273.61,-186.6 263.08,-185.4 270.57,-192.9 273.61,-186.6"/>
</g>
<!-- Node3&#45;&gt;Node2 -->
<g id="edge5" class="edge">
<title>Node3&#45;&gt;Node2</title>
<path fill="none" stroke="#63b8ff" d="M530.49,-168.84C502.59,-162.18 457.47,-149.39 422.38,-129.75 399.49,-116.94 376.97,-96.8 362.45,-82.56"/>
<polygon fill="#63b8ff" stroke="#63b8ff" points="365.43,-80.58 355.89,-75.96 360.46,-85.52 365.43,-80.58"/>
</g>
<!-- Node4 -->
<g id="node4" class="node">
<title>Node4</title>
<g id="a_node4"><a xlink:title=" ">
<polygon fill="#e0e0e0" stroke="#999999" points="683.75,-74.5 631,-74.5 631,-55.25 683.75,-55.25 683.75,-74.5"/>
<text text-anchor="middle" x="657.38" y="-61" font-family="Helvetica,sans-Serif" font-size="10.00">complex</text>
</a>
</g>
</g>
<!-- Node3&#45;&gt;Node4 -->
<g id="edge3" class="edge">
<title>Node3&#45;&gt;Node4</title>
<path fill="none" stroke="#63b8ff" d="M582.17,-173.09C634.9,-169.88 752.08,-159.47 776.38,-129.75 802.1,-98.29 738.45,-80.15 694.65,-71.71"/>
<polygon fill="#63b8ff" stroke="#63b8ff" points="695.47,-68.13 685.01,-69.78 694.22,-75.01 695.47,-68.13"/>
</g>
<!-- Node5 -->
<g id="node5" class="node">
<title>Node5</title>
<g id="a_node5"><a xlink:title=" ">
<polygon fill="#e0e0e0" stroke="#999999" points="623.75,-129.75 565,-129.75 565,-110.5 623.75,-110.5 623.75,-129.75"/>
<text text-anchor="middle" x="594.38" y="-116.25" font-family="Helvetica,sans-Serif" font-size="10.00">stdexcept</text>
</a>
</g>
</g>
<!-- Node3&#45;&gt;Node5 -->
<g id="edge4" class="edge">
<title>Node3&#45;&gt;Node5</title>
<path fill="none" stroke="#63b8ff" d="M562.65,-165.58C567.79,-158.38 575.23,-147.96 581.61,-139.01"/>
<polygon fill="#63b8ff" stroke="#63b8ff" points="585,-141.28 587.96,-131.11 579.31,-137.22 585,-141.28"/>
</g>
<!-- Node6 -->
<g id="node6" class="node">
<title>Node6</title>
<g id="a_node6"><a xlink:title=" ">
<polygon fill="#e0e0e0" stroke="#999999" points="687.38,-129.75 641.38,-129.75 641.38,-110.5 687.38,-110.5 687.38,-129.75"/>
<text text-anchor="middle" x="664.38" y="-116.25" font-family="Helvetica,sans-Serif" font-size="10.00">fftw3.h</text>
</a>
</g>
</g>
<!-- Node3&#45;&gt;Node6 -->
<g id="edge6" class="edge">
<title>Node3&#45;&gt;Node6</title>
<path fill="none" stroke="#63b8ff" d="M574.7,-165.34C591.53,-157.04 616.74,-144.61 636.15,-135.04"/>
<polygon fill="#63b8ff" stroke="#63b8ff" points="637.54,-137.76 644.96,-130.2 634.45,-131.49 637.54,-137.76"/>
</g>
<!-- Node7 -->
<g id="node7" class="node">
<title>Node7</title>
<g id="a_node7"><a xlink:href="globals_8h.html" target="_top" xlink:title="Type definitions and global constants.">
<polygon fill="white" stroke="#666666" points="546.88,-129.75 491.88,-129.75 491.88,-110.5 546.88,-110.5 546.88,-129.75"/>
<text text-anchor="middle" x="519.38" y="-116.25" font-family="Helvetica,sans-Serif" font-size="10.00">globals.h</text>
</a>
</g>
</g>
<!-- Node3&#45;&gt;Node7 -->
<g id="edge7" class="edge">
<title>Node3&#45;&gt;Node7</title>
<path fill="none" stroke="#63b8ff" d="M550.27,-165.58C545.26,-158.38 538.02,-147.96 531.8,-139.01"/>
<polygon fill="#63b8ff" stroke="#63b8ff" points="534.2,-137.32 525.62,-131.11 528.45,-141.32 534.2,-137.32"/>
</g>
<!-- Node8 -->
<g id="node8" class="node">
<title>Node8</title>
<g id="a_node8"><a xlink:title=" ">
<polygon fill="#e0e0e0" stroke="#999999" points="766.88,-129.75 705.88,-129.75 705.88,-110.5 766.88,-110.5 766.88,-129.75"/>
<text text-anchor="middle" x="736.38" y="-116.25" font-family="Helvetica,sans-Serif" font-size="10.00">matlabio.h</text>
</a>
</g>
</g>
<!-- Node3&#45;&gt;Node8 -->
<g id="edge9" class="edge">
<title>Node3&#45;&gt;Node8</title>
<path fill="none" stroke="#63b8ff" d="M582.16,-166.75C611.77,-157.99 660.7,-143.51 695.5,-133.22"/>
<polygon fill="#63b8ff" stroke="#63b8ff" points="696.22,-136.36 704.81,-130.17 694.23,-129.65 696.22,-136.36"/>
</g>
<!-- Node9 -->
<g id="node9" class="node">
<title>Node9</title>
<g id="a_node9"><a xlink:href="utils_8h.html" target="_top" xlink:title="Useful miscellaneous utility functions.">
<polygon fill="white" stroke="#666666" points="473.5,-129.75 431.25,-129.75 431.25,-110.5 473.5,-110.5 473.5,-129.75"/>
<text text-anchor="middle" x="452.38" y="-116.25" font-family="Helvetica,sans-Serif" font-size="10.00">utils.h</text>
</a>
</g>
</g>
<!-- Node3&#45;&gt;Node9 -->
<g id="edge10" class="edge">
<title>Node3&#45;&gt;Node9</title>
<path fill="none" stroke="#63b8ff" d="M538.73,-165.34C522.6,-157.08 498.47,-144.73 479.82,-135.18"/>
<polygon fill="#63b8ff" stroke="#63b8ff" points="481.6,-131.64 471.1,-130.2 478.41,-137.88 481.6,-131.64"/>
</g>
<!-- Node7&#45;&gt;Node4 -->
<g id="edge8" class="edge">
<title>Node7&#45;&gt;Node4</title>
<path fill="none" stroke="#63b8ff" d="M542.78,-110.09C564.99,-101.52 598.59,-88.56 623.68,-78.88"/>
<polygon fill="#63b8ff" stroke="#63b8ff" points="624.78,-81.82 632.85,-74.95 622.26,-75.29 624.78,-81.82"/>
</g>
<!-- Node9&#45;&gt;Node2 -->
<g id="edge11" class="edge">
<title>Node9&#45;&gt;Node2</title>
<path fill="none" stroke="#63b8ff" d="M434.39,-110.09C417.87,-101.79 393.13,-89.36 374.08,-79.79"/>
<polygon fill="#63b8ff" stroke="#63b8ff" points="375.95,-76.31 365.44,-74.95 372.81,-82.57 375.95,-76.31"/>
</g>
<!-- Node10&#45;&gt;Node2 -->
<g id="edge13" class="edge">
<title>Node10&#45;&gt;Node2</title>
<path fill="none" stroke="#63b8ff" d="M260.64,-165.3C274.7,-157.31 294.43,-144.63 308.38,-129.75 320.91,-116.38 331.23,-98.18 337.94,-84.63"/>
<polygon fill="#63b8ff" stroke="#63b8ff" points="341.41,-86.48 342.52,-75.94 335.08,-83.49 341.41,-86.48"/>
</g>
<!-- Node11 -->
<g id="node11" class="node">
<title>Node11</title>
<g id="a_node11"><a xlink:href="input__output__names_8h.html" target="_top" xlink:title="Constant values associated with the format of the input and output files and matrices.">
<polygon fill="white" stroke="#666666" points="299.38,-129.75 187.38,-129.75 187.38,-110.5 299.38,-110.5 299.38,-129.75"/>
<text text-anchor="middle" x="243.38" y="-116.25" font-family="Helvetica,sans-Serif" font-size="10.00">input_output_names.h</text>
</a>
</g>
</g>
<!-- Node10&#45;&gt;Node11 -->
<g id="edge14" class="edge">
<title>Node10&#45;&gt;Node11</title>
<path fill="none" stroke="#63b8ff" d="M243.38,-165.58C243.38,-158.92 243.38,-149.49 243.38,-141.03"/>
<polygon fill="#63b8ff" stroke="#63b8ff" points="246.88,-141.11 243.38,-131.11 239.88,-141.11 246.88,-141.11"/>
</g>
<!-- Node13 -->
<g id="node13" class="node">
<title>Node13</title>
<g id="a_node13"><a xlink:href="mat__io_8h.html" target="_top" xlink:title="Includes MATLAB headers for I/O.">
<polygon fill="white" stroke="#666666" points="111.12,-74.5 57.62,-74.5 57.62,-55.25 111.12,-55.25 111.12,-74.5"/>
<text text-anchor="middle" x="84.38" y="-61" font-family="Helvetica,sans-Serif" font-size="10.00">mat_io.h</text>
</a>
</g>
</g>
<!-- Node10&#45;&gt;Node13 -->
<g id="edge17" class="edge">
<title>Node10&#45;&gt;Node13</title>
<path fill="none" stroke="#63b8ff" d="M199,-169.66C150.99,-163.53 79.04,-151.02 62.38,-129.75 51.68,-116.1 60.68,-96.9 70.19,-83.13"/>
<polygon fill="#63b8ff" stroke="#63b8ff" points="73.4,-85.68 76.62,-75.59 67.81,-81.47 73.4,-85.68"/>
</g>
<!-- Node17 -->
<g id="node17" class="node">
<title>Node17</title>
<g id="a_node17"><a xlink:href="matrix__collection_8h.html" target="_top" xlink:title="A collection of named MATLAB matrices.">
<polygon fill="white" stroke="#666666" points="169.25,-129.75 71.5,-129.75 71.5,-110.5 169.25,-110.5 169.25,-129.75"/>
<text text-anchor="middle" x="120.38" y="-116.25" font-family="Helvetica,sans-Serif" font-size="10.00">matrix_collection.h</text>
</a>
</g>
</g>
<!-- Node10&#45;&gt;Node17 -->
<g id="edge21" class="edge">
<title>Node10&#45;&gt;Node17</title>
<path fill="none" stroke="#63b8ff" d="M222.51,-165.34C202.98,-156.89 173.57,-144.15 151.31,-134.52"/>
<polygon fill="#63b8ff" stroke="#63b8ff" points="152.91,-130.96 142.34,-130.2 150.13,-137.39 152.91,-130.96"/>
</g>
<!-- Node11&#45;&gt;Node2 -->
<g id="edge15" class="edge">
<title>Node11&#45;&gt;Node2</title>
<path fill="none" stroke="#63b8ff" d="M260.85,-110.09C276.83,-101.83 300.72,-89.48 319.2,-79.93"/>
<polygon fill="#63b8ff" stroke="#63b8ff" points="320.54,-82.65 327.82,-74.95 317.33,-76.44 320.54,-82.65"/>
</g>
<!-- Node12 -->
<g id="node12" class="node">
<title>Node12</title>
<g id="a_node12"><a xlink:title=" ">
<polygon fill="#e0e0e0" stroke="#999999" points="176.88,-74.5 133.88,-74.5 133.88,-55.25 176.88,-55.25 176.88,-74.5"/>
<text text-anchor="middle" x="155.38" y="-61" font-family="Helvetica,sans-Serif" font-size="10.00">vector</text>
</a>
</g>
</g>
<!-- Node11&#45;&gt;Node12 -->
<g id="edge16" class="edge">
<title>Node11&#45;&gt;Node12</title>
<path fill="none" stroke="#63b8ff" d="M228.45,-110.09C215.05,-101.98 195.13,-89.93 179.48,-80.46"/>
<polygon fill="#63b8ff" stroke="#63b8ff" points="181.74,-77.14 171.38,-74.95 178.12,-83.12 181.74,-77.14"/>
</g>
<!-- Node14 -->
<g id="node14" class="node">
<title>Node14</title>
<g id="a_node14"><a xlink:title=" ">
<polygon fill="#e0e0e0" stroke="#999999" points="40.75,-19.25 0,-19.25 0,0 40.75,0 40.75,-19.25"/>
<text text-anchor="middle" x="20.38" y="-5.75" font-family="Helvetica,sans-Serif" font-size="10.00">mat.h</text>
</a>
</g>
</g>
<!-- Node13&#45;&gt;Node14 -->
<g id="edge18" class="edge">
<title>Node13&#45;&gt;Node14</title>
<path fill="none" stroke="#63b8ff" d="M73.52,-54.84C64.18,-47.07 50.48,-35.67 39.33,-26.4"/>
<polygon fill="#63b8ff" stroke="#63b8ff" points="42,-23.23 32.07,-19.52 37.52,-28.61 42,-23.23"/>
</g>
<!-- Node15 -->
<g id="node15" class="node">
<title>Node15</title>
<g id="a_node15"><a xlink:title=" ">
<polygon fill="#e0e0e0" stroke="#999999" points="110,-19.25 58.75,-19.25 58.75,0 110,0 110,-19.25"/>
<text text-anchor="middle" x="84.38" y="-5.75" font-family="Helvetica,sans-Serif" font-size="10.00">matrix.h</text>
</a>
</g>
</g>
<!-- Node13&#45;&gt;Node15 -->
<g id="edge19" class="edge">
<title>Node13&#45;&gt;Node15</title>
<path fill="none" stroke="#63b8ff" d="M84.38,-55.08C84.38,-48.42 84.38,-38.99 84.38,-30.53"/>
<polygon fill="#63b8ff" stroke="#63b8ff" points="87.88,-30.61 84.38,-20.61 80.88,-30.61 87.88,-30.61"/>
</g>
<!-- Node16 -->
<g id="node16" class="node">
<title>Node16</title>
<g id="a_node16"><a xlink:title=" ">
<polygon fill="#e0e0e0" stroke="#999999" points="170.88,-19.25 127.88,-19.25 127.88,0 170.88,0 170.88,-19.25"/>
<text text-anchor="middle" x="149.38" y="-5.75" font-family="Helvetica,sans-Serif" font-size="10.00">mex.h</text>
</a>
</g>
</g>
<!-- Node13&#45;&gt;Node16 -->
<g id="edge20" class="edge">
<title>Node13&#45;&gt;Node16</title>
<path fill="none" stroke="#63b8ff" d="M95.4,-54.84C104.89,-47.07 118.8,-35.67 130.12,-26.4"/>
<polygon fill="#63b8ff" stroke="#63b8ff" points="131.99,-28.57 137.51,-19.52 127.56,-23.15 131.99,-28.57"/>
</g>
<!-- Node17&#45;&gt;Node2 -->
<g id="edge22" class="edge">
<title>Node17&#45;&gt;Node2</title>
<path fill="none" stroke="#63b8ff" d="M158.97,-110.03C203.1,-99.63 274.5,-82.81 315.24,-73.21"/>
<polygon fill="#63b8ff" stroke="#63b8ff" points="315.94,-76.41 324.88,-70.71 314.34,-69.59 315.94,-76.41"/>
</g>
<!-- Node17&#45;&gt;Node12 -->
<g id="edge23" class="edge">
<title>Node17&#45;&gt;Node12</title>
<path fill="none" stroke="#63b8ff" d="M126.15,-110.33C130.84,-103.21 137.59,-92.93 143.43,-84.05"/>
<polygon fill="#63b8ff" stroke="#63b8ff" points="146.9,-86.14 149.47,-75.86 141.05,-82.29 146.9,-86.14"/>
</g>
<!-- Node17&#45;&gt;Node13 -->
<g id="edge24" class="edge">
<title>Node17&#45;&gt;Node13</title>
<path fill="none" stroke="#63b8ff" d="M114.43,-110.33C109.56,-103.13 102.51,-92.71 96.47,-83.76"/>
<polygon fill="#63b8ff" stroke="#63b8ff" points="98.95,-82.18 90.45,-75.86 93.15,-86.1 98.95,-82.18"/>
</g>
</g>
</svg>
