<?xml version="1.0" encoding="UTF-8" standalone="no"?>
<!DOCTYPE svg PUBLIC "-//W3C//DTD SVG 1.1//EN"
 "http://www.w3.org/Graphics/SVG/1.1/DTD/svg11.dtd">
<!-- Generated by graphviz version 8.0.2 (20230410.1723)
 -->
<!-- Title: tdms/include/simulation_parameters.h Pages: 1 -->
<svg width="799pt" height="258pt"
 viewBox="0.00 0.00 798.87 258.00" xmlns="http://www.w3.org/2000/svg" xmlns:xlink="http://www.w3.org/1999/xlink">
<g id="graph0" class="graph" transform="scale(1 1) rotate(0) translate(4 254)">
<title>tdms/include/simulation_parameters.h</title>
<!-- Node1 -->
<g id="node1" class="node">
<title>Node1</title>
<g id="a_node1"><a xlink:title="Classes collecting parameters for the simulation.">
<polygon fill="#999999" stroke="#666666" points="428,-250 309,-250 309,-220 428,-220 428,-250"/>
<text text-anchor="start" x="317" y="-238" font-family="Helvetica,sans-Serif" font-size="10.00">tdms/include/simulation</text>
<text text-anchor="middle" x="368.5" y="-227" font-family="Helvetica,sans-Serif" font-size="10.00">_parameters.h</text>
</a>
</g>
</g>
<!-- Node2 -->
<g id="node2" class="node">
<title>Node2</title>
<g id="a_node2"><a xlink:title=" ">
<polygon fill="#e0e0e0" stroke="#999999" points="370,-74 329,-74 329,-55 370,-55 370,-74"/>
<text text-anchor="middle" x="349.5" y="-62" font-family="Helvetica,sans-Serif" font-size="10.00">string</text>
</a>
</g>
</g>
<!-- Node1&#45;&gt;Node2 -->
<g id="edge1" class="edge">
<title>Node1&#45;&gt;Node2</title>
<path fill="none" stroke="#63b8ff" d="M366.88,-219.63C363.48,-189.44 355.57,-119.36 351.71,-85.08"/>
<polygon fill="#63b8ff" stroke="#63b8ff" points="355.08,-84.76 350.48,-75.22 348.13,-85.54 355.08,-84.76"/>
</g>
<!-- Node3 -->
<g id="node3" class="node">
<title>Node3</title>
<g id="a_node3"><a xlink:href="arrays_8h.html" target="_top" xlink:title="Classes describing arrays, vertices etc.">
<polygon fill="white" stroke="#666666" points="588.5,-184 536.5,-184 536.5,-165 588.5,-165 588.5,-184"/>
<text text-anchor="middle" x="562.5" y="-172" font-family="Helvetica,sans-Serif" font-size="10.00">arrays.h</text>
</a>
</g>
</g>
<!-- Node1&#45;&gt;Node3 -->
<g id="edge2" class="edge">
<title>Node1&#45;&gt;Node3</title>
<path fill="none" stroke="#63b8ff" d="M416.46,-219.54C450.28,-209.34 494.9,-195.88 525.88,-186.54"/>
<polygon fill="#63b8ff" stroke="#63b8ff" points="526.67,-189.66 535.23,-183.42 524.65,-182.96 526.67,-189.66"/>
</g>
<!-- Node10 -->
<g id="node10" class="node">
<title>Node10</title>
<g id="a_node10"><a xlink:href="input__matrices_8h.html" target="_top" xlink:title="Class handling the input matrices that are read in from the input file.">
<polygon fill="white" stroke="#666666" points="290,-184 201,-184 201,-165 290,-165 290,-184"/>
<text text-anchor="middle" x="245.5" y="-172" font-family="Helvetica,sans-Serif" font-size="10.00">input_matrices.h</text>
</a>
</g>
</g>
<!-- Node1&#45;&gt;Node10 -->
<g id="edge12" class="edge">
<title>Node1&#45;&gt;Node10</title>
<path fill="none" stroke="#63b8ff" d="M338.1,-219.54C318.44,-210.19 293.03,-198.1 273.8,-188.96"/>
<polygon fill="#63b8ff" stroke="#63b8ff" points="275.63,-185.48 265.1,-184.35 272.63,-191.8 275.63,-185.48"/>
</g>
<!-- Node3&#45;&gt;Node2 -->
<g id="edge5" class="edge">
<title>Node3&#45;&gt;Node2</title>
<path fill="none" stroke="#63b8ff" d="M536,-167.94C507.69,-161.3 462.09,-148.58 426.5,-129 403.15,-116.15 380.06,-95.82 365.35,-81.64"/>
<polygon fill="#63b8ff" stroke="#63b8ff" points="368.29,-79.63 358.72,-75.1 363.37,-84.61 368.29,-79.63"/>
</g>
<!-- Node4 -->
<g id="node4" class="node">
<title>Node4</title>
<g id="a_node4"><a xlink:title=" ">
<polygon fill="#e0e0e0" stroke="#999999" points="690,-74 637,-74 637,-55 690,-55 690,-74"/>
<text text-anchor="middle" x="663.5" y="-62" font-family="Helvetica,sans-Serif" font-size="10.00">complex</text>
</a>
</g>
</g>
<!-- Node3&#45;&gt;Node4 -->
<g id="edge3" class="edge">
<title>Node3&#45;&gt;Node4</title>
<path fill="none" stroke="#63b8ff" d="M588.94,-172.25C642.32,-169.1 760.02,-158.87 784.5,-129 810.63,-97.11 745.53,-79.26 701.02,-71.08"/>
<polygon fill="#63b8ff" stroke="#63b8ff" points="701.66,-67.46 691.21,-69.2 700.47,-74.36 701.66,-67.46"/>
</g>
<!-- Node5 -->
<g id="node5" class="node">
<title>Node5</title>
<g id="a_node5"><a xlink:title=" ">
<polygon fill="#e0e0e0" stroke="#999999" points="630,-129 571,-129 571,-110 630,-110 630,-129"/>
<text text-anchor="middle" x="600.5" y="-117" font-family="Helvetica,sans-Serif" font-size="10.00">stdexcept</text>
</a>
</g>
</g>
<!-- Node3&#45;&gt;Node5 -->
<g id="edge4" class="edge">
<title>Node3&#45;&gt;Node5</title>
<path fill="none" stroke="#63b8ff" d="M568.77,-164.75C573.91,-157.58 581.35,-147.2 587.74,-138.3"/>
<polygon fill="#63b8ff" stroke="#63b8ff" points="591.11,-140.61 594.09,-130.44 585.42,-136.53 591.11,-140.61"/>
</g>
<!-- Node6 -->
<g id="node6" class="node">
<title>Node6</title>
<g id="a_node6"><a xlink:title=" ">
<polygon fill="#e0e0e0" stroke="#999999" points="695,-129 648,-129 648,-110 695,-110 695,-129"/>
<text text-anchor="middle" x="671.5" y="-117" font-family="Helvetica,sans-Serif" font-size="10.00">fftw3.h</text>
</a>
</g>
</g>
<!-- Node3&#45;&gt;Node6 -->
<g id="edge6" class="edge">
<title>Node3&#45;&gt;Node6</title>
<path fill="none" stroke="#63b8ff" d="M580.99,-164.51C598.16,-156.16 623.97,-143.61 643.64,-134.05"/>
<polygon fill="#63b8ff" stroke="#63b8ff" points="644.82,-136.88 652.28,-129.36 641.76,-130.58 644.82,-136.88"/>
</g>
<!-- Node7 -->
<g id="node7" class="node">
<title>Node7</title>
<g id="a_node7"><a xlink:href="globals_8h.html" target="_top" xlink:title="Type definitions and global constants.">
<polygon fill="white" stroke="#666666" points="552.5,-129 496.5,-129 496.5,-110 552.5,-110 552.5,-129"/>
<text text-anchor="middle" x="524.5" y="-117" font-family="Helvetica,sans-Serif" font-size="10.00">globals.h</text>
</a>
</g>
</g>
<!-- Node3&#45;&gt;Node7 -->
<g id="edge7" class="edge">
<title>Node3&#45;&gt;Node7</title>
<path fill="none" stroke="#63b8ff" d="M556.23,-164.75C551.09,-157.58 543.65,-147.2 537.26,-138.3"/>
<polygon fill="#63b8ff" stroke="#63b8ff" points="539.58,-136.53 530.91,-130.44 533.89,-140.61 539.58,-136.53"/>
</g>
<!-- Node8 -->
<g id="node8" class="node">
<title>Node8</title>
<g id="a_node8"><a xlink:title=" ">
<polygon fill="#e0e0e0" stroke="#999999" points="775.5,-129 713.5,-129 713.5,-110 775.5,-110 775.5,-129"/>
<text text-anchor="middle" x="744.5" y="-117" font-family="Helvetica,sans-Serif" font-size="10.00">matlabio.h</text>
</a>
</g>
</g>
<!-- Node3&#45;&gt;Node8 -->
<g id="edge9" class="edge">
<title>Node3&#45;&gt;Node8</title>
<path fill="none" stroke="#63b8ff" d="M588.96,-165.79C618.98,-157.05 668.31,-142.69 703.36,-132.48"/>
<polygon fill="#63b8ff" stroke="#63b8ff" points="704.12,-135.61 712.74,-129.46 702.16,-128.89 704.12,-135.61"/>
</g>
<!-- Node9 -->
<g id="node9" class="node">
<title>Node9</title>
<g id="a_node9"><a xlink:href="utils_8h.html" target="_top" xlink:title="Useful miscellaneous utility functions.">
<polygon fill="white" stroke="#666666" points="478,-129 435,-129 435,-110 478,-110 478,-129"/>
<text text-anchor="middle" x="456.5" y="-117" font-family="Helvetica,sans-Serif" font-size="10.00">utils.h</text>
</a>
</g>
</g>
<!-- Node3&#45;&gt;Node9 -->
<g id="edge10" class="edge">
<title>Node3&#45;&gt;Node9</title>
<path fill="none" stroke="#63b8ff" d="M544.52,-164.51C527.9,-156.2 502.95,-143.73 483.86,-134.18"/>
<polygon fill="#63b8ff" stroke="#63b8ff" points="485.73,-130.7 475.22,-129.36 482.59,-136.96 485.73,-130.7"/>
</g>
<!-- Node7&#45;&gt;Node4 -->
<g id="edge8" class="edge">
<title>Node7&#45;&gt;Node4</title>
<path fill="none" stroke="#63b8ff" d="M548.08,-109.51C570.58,-100.93 604.7,-87.92 630.02,-78.27"/>
<polygon fill="#63b8ff" stroke="#63b8ff" points="631.17,-81.19 639.27,-74.36 628.68,-74.65 631.17,-81.19"/>
</g>
<!-- Node9&#45;&gt;Node2 -->
<g id="edge11" class="edge">
<title>Node9&#45;&gt;Node2</title>
<path fill="none" stroke="#63b8ff" d="M438.35,-109.51C421.57,-101.2 396.39,-88.73 377.12,-79.18"/>
<polygon fill="#63b8ff" stroke="#63b8ff" points="378.9,-75.66 368.38,-74.36 375.79,-81.93 378.9,-75.66"/>
</g>
<!-- Node10&#45;&gt;Node2 -->
<g id="edge13" class="edge">
<title>Node10&#45;&gt;Node2</title>
<path fill="none" stroke="#63b8ff" d="M263.03,-164.51C277.3,-156.57 297.34,-143.95 311.5,-129 324.19,-115.61 334.6,-97.26 341.3,-83.73"/>
<polygon fill="#63b8ff" stroke="#63b8ff" points="344.74,-85.63 345.84,-75.1 338.41,-82.64 344.74,-85.63"/>
</g>
<!-- Node11 -->
<g id="node11" class="node">
<title>Node11</title>
<g id="a_node11"><a xlink:href="input__output__names_8h.html" target="_top" xlink:title="Constant values associated with the format of the input and output files and matrices.">
<polygon fill="white" stroke="#666666" points="302,-129 189,-129 189,-110 302,-110 302,-129"/>
<text text-anchor="middle" x="245.5" y="-117" font-family="Helvetica,sans-Serif" font-size="10.00">input_output_names.h</text>
</a>
</g>
</g>
<!-- Node10&#45;&gt;Node11 -->
<g id="edge14" class="edge">
<title>Node10&#45;&gt;Node11</title>
<path fill="none" stroke="#63b8ff" d="M245.5,-164.75C245.5,-158.11 245.5,-148.73 245.5,-140.31"/>
<polygon fill="#63b8ff" stroke="#63b8ff" points="249,-140.44 245.5,-130.44 242,-140.44 249,-140.44"/>
</g>
<!-- Node13 -->
<g id="node13" class="node">
<title>Node13</title>
<g id="a_node13"><a xlink:href="mat__io_8h.html" target="_top" xlink:title="Includes MATLAB headers for I/O.">
<polygon fill="white" stroke="#666666" points="112.5,-74 58.5,-74 58.5,-55 112.5,-55 112.5,-74"/>
<text text-anchor="middle" x="85.5" y="-62" font-family="Helvetica,sans-Serif" font-size="10.00">mat_io.h</text>
</a>
</g>
</g>
<!-- Node10&#45;&gt;Node13 -->
<g id="edge17" class="edge">
<title>Node10&#45;&gt;Node13</title>
<path fill="none" stroke="#63b8ff" d="M200.88,-168.85C152.61,-162.79 80.27,-150.37 63.5,-129 52.85,-115.43 61.84,-96.35 71.34,-82.65"/>
<polygon fill="#63b8ff" stroke="#63b8ff" points="74.52,-85.25 77.76,-75.16 68.94,-81.03 74.52,-85.25"/>
</g>
<!-- Node17 -->
<g id="node17" class="node">
<title>Node17</title>
<g id="a_node17"><a xlink:href="matrix__collection_8h.html" target="_top" xlink:title="A collection of named MATLAB matrices.">
<polygon fill="white" stroke="#666666" points="170.5,-129 72.5,-129 72.5,-110 170.5,-110 170.5,-129"/>
<text text-anchor="middle" x="121.5" y="-117" font-family="Helvetica,sans-Serif" font-size="10.00">matrix_collection.h</text>
</a>
</g>
</g>
<!-- Node10&#45;&gt;Node17 -->
<g id="edge21" class="edge">
<title>Node10&#45;&gt;Node17</title>
<path fill="none" stroke="#63b8ff" d="M224.47,-164.51C204.66,-156.04 174.76,-143.27 152.28,-133.66"/>
<polygon fill="#63b8ff" stroke="#63b8ff" points="153.8,-130.07 143.22,-129.36 151.04,-136.51 153.8,-130.07"/>
</g>
<!-- Node11&#45;&gt;Node2 -->
<g id="edge15" class="edge">
<title>Node11&#45;&gt;Node2</title>
<path fill="none" stroke="#63b8ff" d="M263.14,-109.51C279.38,-101.24 303.7,-88.84 322.4,-79.31"/>
<polygon fill="#63b8ff" stroke="#63b8ff" points="323.8,-82.02 331.12,-74.36 320.62,-75.78 323.8,-82.02"/>
</g>
<!-- Node12 -->
<g id="node12" class="node">
<title>Node12</title>
<g id="a_node12"><a xlink:title=" ">
<polygon fill="#e0e0e0" stroke="#999999" points="179.5,-74 135.5,-74 135.5,-55 179.5,-55 179.5,-74"/>
<text text-anchor="middle" x="157.5" y="-62" font-family="Helvetica,sans-Serif" font-size="10.00">vector</text>
</a>
</g>
</g>
<!-- Node11&#45;&gt;Node12 -->
<g id="edge16" class="edge">
<title>Node11&#45;&gt;Node12</title>
<path fill="none" stroke="#63b8ff" d="M230.57,-109.51C217.09,-101.39 197.02,-89.3 181.32,-79.85"/>
<polygon fill="#63b8ff" stroke="#63b8ff" points="183.58,-76.52 173.21,-74.36 179.97,-82.52 183.58,-76.52"/>
</g>
<!-- Node14 -->
<g id="node14" class="node">
<title>Node14</title>
<g id="a_node14"><a xlink:title=" ">
<polygon fill="#e0e0e0" stroke="#999999" points="41,-19 0,-19 0,0 41,0 41,-19"/>
<text text-anchor="middle" x="20.5" y="-7" font-family="Helvetica,sans-Serif" font-size="10.00">mat.h</text>
</a>
</g>
</g>
<!-- Node13&#45;&gt;Node14 -->
<g id="edge18" class="edge">
<title>Node13&#45;&gt;Node14</title>
<path fill="none" stroke="#63b8ff" d="M74.47,-54.51C64.99,-46.77 51.08,-35.43 39.75,-26.2"/>
<polygon fill="#63b8ff" stroke="#63b8ff" points="42.33,-22.96 32.36,-19.36 37.9,-28.39 42.33,-22.96"/>
</g>
<!-- Node15 -->
<g id="node15" class="node">
<title>Node15</title>
<g id="a_node15"><a xlink:title=" ">
<polygon fill="#e0e0e0" stroke="#999999" points="111.5,-19 59.5,-19 59.5,0 111.5,0 111.5,-19"/>
<text text-anchor="middle" x="85.5" y="-7" font-family="Helvetica,sans-Serif" font-size="10.00">matrix.h</text>
</a>
</g>
</g>
<!-- Node13&#45;&gt;Node15 -->
<g id="edge19" class="edge">
<title>Node13&#45;&gt;Node15</title>
<path fill="none" stroke="#63b8ff" d="M85.5,-54.75C85.5,-48.11 85.5,-38.73 85.5,-30.31"/>
<polygon fill="#63b8ff" stroke="#63b8ff" points="89,-30.44 85.5,-20.44 82,-30.44 89,-30.44"/>
</g>
<!-- Node16 -->
<g id="node16" class="node">
<title>Node16</title>
<g id="a_node16"><a xlink:title=" ">
<polygon fill="#e0e0e0" stroke="#999999" points="173.5,-19 129.5,-19 129.5,0 173.5,0 173.5,-19"/>
<text text-anchor="middle" x="151.5" y="-7" font-family="Helvetica,sans-Serif" font-size="10.00">mex.h</text>
</a>
</g>
</g>
<!-- Node13&#45;&gt;Node16 -->
<g id="edge20" class="edge">
<title>Node13&#45;&gt;Node16</title>
<path fill="none" stroke="#63b8ff" d="M96.7,-54.51C106.33,-46.77 120.45,-35.43 131.95,-26.2"/>
<polygon fill="#63b8ff" stroke="#63b8ff" points="133.86,-28.35 139.47,-19.36 129.48,-22.89 133.86,-28.35"/>
</g>
<!-- Node17&#45;&gt;Node2 -->
<g id="edge22" class="edge">
<title>Node17&#45;&gt;Node2</title>
<path fill="none" stroke="#63b8ff" d="M160.18,-109.51C204.75,-99.15 277.13,-82.32 318.28,-72.76"/>
<polygon fill="#63b8ff" stroke="#63b8ff" points="318.82,-75.99 327.77,-70.32 317.24,-69.17 318.82,-75.99"/>
</g>
<!-- Node17&#45;&gt;Node12 -->
<g id="edge23" class="edge">
<title>Node17&#45;&gt;Node12</title>
<path fill="none" stroke="#63b8ff" d="M127.44,-109.75C132.31,-102.58 139.36,-92.2 145.41,-83.3"/>
<polygon fill="#63b8ff" stroke="#63b8ff" points="148.7,-85.68 151.43,-75.44 142.91,-81.75 148.7,-85.68"/>
</g>
<!-- Node17&#45;&gt;Node13 -->
<g id="edge24" class="edge">
<title>Node17&#45;&gt;Node13</title>
<path fill="none" stroke="#63b8ff" d="M115.56,-109.75C110.69,-102.58 103.64,-92.2 97.59,-83.3"/>
<polygon fill="#63b8ff" stroke="#63b8ff" points="100.09,-81.75 91.57,-75.44 94.3,-85.68 100.09,-81.75"/>
</g>
</g>
</svg>
