<?xml version="1.0" encoding="UTF-8" standalone="no"?>
<!DOCTYPE svg PUBLIC "-//W3C//DTD SVG 1.1//EN"
 "http://www.w3.org/Graphics/SVG/1.1/DTD/svg11.dtd">
<!-- Generated by graphviz version 8.0.5 (20230430.1635)
 -->
<!-- Title: tdms/include/simulation_parameters.h Pages: 1 -->
<svg width="856pt" height="260pt"
 viewBox="0.00 0.00 855.50 259.50" xmlns="http://www.w3.org/2000/svg" xmlns:xlink="http://www.w3.org/1999/xlink">
<g id="graph0" class="graph" transform="scale(1 1) rotate(0) translate(4 255.5)">
<title>tdms/include/simulation_parameters.h</title>
<!-- Node1 -->
<g id="node1" class="node">
<title>Node1</title>
<g id="a_node1"><a xlink:title="Classes collecting parameters for the simulation.">
<polygon fill="#999999" stroke="#666666" points="544.38,-251.5 425.62,-251.5 425.62,-221 544.38,-221 544.38,-251.5"/>
<text text-anchor="start" x="433.62" y="-238" font-family="Helvetica,sans-Serif" font-size="10.00">tdms/include/simulation</text>
<text text-anchor="middle" x="485" y="-226.75" font-family="Helvetica,sans-Serif" font-size="10.00">_parameters.h</text>
</a>
</g>
</g>
<!-- Node2 -->
<g id="node2" class="node">
<title>Node2</title>
<g id="a_node2"><a xlink:title=" ">
<polygon fill="#e0e0e0" stroke="#999999" points="460,-74.5 420,-74.5 420,-55.25 460,-55.25 460,-74.5"/>
<text text-anchor="middle" x="440" y="-61" font-family="Helvetica,sans-Serif" font-size="10.00">string</text>
</a>
</g>
</g>
<!-- Node1&#45;&gt;Node2 -->
<g id="edge1" class="edge">
<title>Node1&#45;&gt;Node2</title>
<path fill="none" stroke="#63b8ff" d="M475.97,-220.84C470.25,-211.08 463.17,-197.69 459,-185 447.85,-151.12 443.13,-109.59 441.21,-85.59"/>
<polygon fill="#63b8ff" stroke="#63b8ff" points="444.65,-85.5 440.45,-75.77 437.66,-85.99 444.65,-85.5"/>
</g>
<!-- Node3 -->
<g id="node3" class="node">
<title>Node3</title>
<g id="a_node3"><a xlink:href="arrays_8h.html" target="_top" xlink:title="Classes describing arrays, vertices etc.">
<polygon fill="white" stroke="#666666" points="309.62,-185 258.38,-185 258.38,-165.75 309.62,-165.75 309.62,-185"/>
<text text-anchor="middle" x="284" y="-171.5" font-family="Helvetica,sans-Serif" font-size="10.00">arrays.h</text>
</a>
</g>
</g>
<!-- Node1&#45;&gt;Node3 -->
<g id="edge2" class="edge">
<title>Node1&#45;&gt;Node3</title>
<path fill="none" stroke="#63b8ff" d="M434.8,-220.55C399.17,-210.11 352.19,-196.35 320.2,-186.98"/>
<polygon fill="#63b8ff" stroke="#63b8ff" points="321.54,-183.43 310.96,-183.98 319.57,-190.15 321.54,-183.43"/>
</g>
<!-- Node13 -->
<g id="node13" class="node">
<title>Node13</title>
<g id="a_node13"><a xlink:title=" ">
<polygon fill="#e0e0e0" stroke="#999999" points="592,-185 468,-185 468,-165.75 592,-165.75 592,-185"/>
<text text-anchor="middle" x="530" y="-171.5" font-family="Helvetica,sans-Serif" font-size="10.00">arrays/vector_typedefs.h</text>
</a>
</g>
</g>
<!-- Node1&#45;&gt;Node13 -->
<g id="edge17" class="edge">
<title>Node1&#45;&gt;Node13</title>
<path fill="none" stroke="#63b8ff" d="M496.12,-220.7C502.25,-212.68 509.9,-202.67 516.39,-194.19"/>
<polygon fill="#63b8ff" stroke="#63b8ff" points="519.77,-196.52 523.06,-186.45 514.21,-192.27 519.77,-196.52"/>
</g>
<!-- Node14 -->
<g id="node14" class="node">
<title>Node14</title>
<g id="a_node14"><a xlink:href="input__matrices_8h.html" target="_top" xlink:title="Class handling the input matrices that are read in from the input file.">
<polygon fill="white" stroke="#666666" points="698,-185 610,-185 610,-165.75 698,-165.75 698,-185"/>
<text text-anchor="middle" x="654" y="-171.5" font-family="Helvetica,sans-Serif" font-size="10.00">input_matrices.h</text>
</a>
</g>
</g>
<!-- Node1&#45;&gt;Node14 -->
<g id="edge18" class="edge">
<title>Node1&#45;&gt;Node14</title>
<path fill="none" stroke="#63b8ff" d="M527.21,-220.55C555.05,-210.85 591.14,-198.27 617.7,-189.02"/>
<polygon fill="#63b8ff" stroke="#63b8ff" points="618.79,-192 627.08,-185.4 616.49,-185.39 618.79,-192"/>
</g>
<!-- Node3&#45;&gt;Node2 -->
<g id="edge5" class="edge">
<title>Node3&#45;&gt;Node2</title>
<path fill="none" stroke="#63b8ff" d="M309.98,-166.06C330.93,-158.59 360.5,-146.25 383,-129.75 400.72,-116.75 416.99,-97.46 427.57,-83.48"/>
<polygon fill="#63b8ff" stroke="#63b8ff" points="430.85,-85.93 433.93,-75.79 425.2,-81.79 430.85,-85.93"/>
</g>
<!-- Node4 -->
<g id="node4" class="node">
<title>Node4</title>
<g id="a_node4"><a xlink:title=" ">
<polygon fill="#e0e0e0" stroke="#999999" points="128.38,-74.5 75.62,-74.5 75.62,-55.25 128.38,-55.25 128.38,-74.5"/>
<text text-anchor="middle" x="102" y="-61" font-family="Helvetica,sans-Serif" font-size="10.00">complex</text>
</a>
</g>
</g>
<!-- Node3&#45;&gt;Node4 -->
<g id="edge3" class="edge">
<title>Node3&#45;&gt;Node4</title>
<path fill="none" stroke="#63b8ff" d="M257.97,-172.2C210.6,-167.66 113.32,-155.36 93,-129.75 83,-117.15 87.06,-98.59 92.54,-84.71"/>
<polygon fill="#63b8ff" stroke="#63b8ff" points="96.09,-86.35 97,-75.8 89.71,-83.48 96.09,-86.35"/>
</g>
<!-- Node5 -->
<g id="node5" class="node">
<title>Node5</title>
<g id="a_node5"><a xlink:title=" ">
<polygon fill="#e0e0e0" stroke="#999999" points="313.38,-129.75 254.62,-129.75 254.62,-110.5 313.38,-110.5 313.38,-129.75"/>
<text text-anchor="middle" x="284" y="-116.25" font-family="Helvetica,sans-Serif" font-size="10.00">stdexcept</text>
</a>
</g>
</g>
<!-- Node3&#45;&gt;Node5 -->
<g id="edge4" class="edge">
<title>Node3&#45;&gt;Node5</title>
<path fill="none" stroke="#63b8ff" d="M284,-165.58C284,-158.92 284,-149.49 284,-141.03"/>
<polygon fill="#63b8ff" stroke="#63b8ff" points="287.5,-141.11 284,-131.11 280.5,-141.11 287.5,-141.11"/>
</g>
<!-- Node6 -->
<g id="node6" class="node">
<title>Node6</title>
<g id="a_node6"><a xlink:title=" ">
<polygon fill="#e0e0e0" stroke="#999999" points="625.5,-74.5 582.5,-74.5 582.5,-55.25 625.5,-55.25 625.5,-74.5"/>
<text text-anchor="middle" x="604" y="-61" font-family="Helvetica,sans-Serif" font-size="10.00">vector</text>
</a>
</g>
</g>
<!-- Node3&#45;&gt;Node6 -->
<g id="edge6" class="edge">
<title>Node3&#45;&gt;Node6</title>
<path fill="none" stroke="#63b8ff" d="M309.86,-172.95C386.12,-168.47 606.07,-153.58 627,-129.75 638.61,-116.53 628.86,-97 618.71,-83.02"/>
<polygon fill="#63b8ff" stroke="#63b8ff" points="621.14,-81.45 612.2,-75.76 615.64,-85.78 621.14,-81.45"/>
</g>
<!-- Node7 -->
<g id="node7" class="node">
<title>Node7</title>
<g id="a_node7"><a xlink:title=" ">
<polygon fill="#e0e0e0" stroke="#999999" points="46,-129.75 0,-129.75 0,-110.5 46,-110.5 46,-129.75"/>
<text text-anchor="middle" x="23" y="-116.25" font-family="Helvetica,sans-Serif" font-size="10.00">fftw3.h</text>
</a>
</g>
</g>
<!-- Node3&#45;&gt;Node7 -->
<g id="edge7" class="edge">
<title>Node3&#45;&gt;Node7</title>
<path fill="none" stroke="#63b8ff" d="M258.07,-169.49C216.29,-161.56 131.51,-145.2 60,-129.75 59.04,-129.54 58.07,-129.33 57.09,-129.11"/>
<polygon fill="#63b8ff" stroke="#63b8ff" points="57.99,-125.5 47.46,-126.71 56.45,-132.33 57.99,-125.5"/>
</g>
<!-- Node8 -->
<g id="node8" class="node">
<title>Node8</title>
<g id="a_node8"><a xlink:href="globals_8h.html" target="_top" xlink:title="Type definitions and global constants.">
<polygon fill="white" stroke="#666666" points="157.5,-129.75 102.5,-129.75 102.5,-110.5 157.5,-110.5 157.5,-129.75"/>
<text text-anchor="middle" x="130" y="-116.25" font-family="Helvetica,sans-Serif" font-size="10.00">globals.h</text>
</a>
</g>
</g>
<!-- Node3&#45;&gt;Node8 -->
<g id="edge8" class="edge">
<title>Node3&#45;&gt;Node8</title>
<path fill="none" stroke="#63b8ff" d="M257.88,-165.34C232.77,-156.66 194.59,-143.46 166.48,-133.74"/>
<polygon fill="#63b8ff" stroke="#63b8ff" points="167.85,-130.16 157.25,-130.2 165.56,-136.78 167.85,-130.16"/>
</g>
<!-- Node9 -->
<g id="node9" class="node">
<title>Node9</title>
<g id="a_node9"><a xlink:title=" ">
<polygon fill="#e0e0e0" stroke="#999999" points="236.5,-129.75 175.5,-129.75 175.5,-110.5 236.5,-110.5 236.5,-129.75"/>
<text text-anchor="middle" x="206" y="-116.25" font-family="Helvetica,sans-Serif" font-size="10.00">matlabio.h</text>
</a>
</g>
</g>
<!-- Node3&#45;&gt;Node9 -->
<g id="edge11" class="edge">
<title>Node3&#45;&gt;Node9</title>
<path fill="none" stroke="#63b8ff" d="M270.77,-165.34C259.11,-157.39 241.9,-145.64 228.15,-136.25"/>
<polygon fill="#63b8ff" stroke="#63b8ff" points="230.53,-132.95 220.3,-130.2 226.58,-138.73 230.53,-132.95"/>
</g>
<!-- Node10 -->
<g id="node10" class="node">
<title>Node10</title>
<g id="a_node10"><a xlink:href="utils_8h.html" target="_top" xlink:title="Useful miscellaneous utility functions.">
<polygon fill="white" stroke="#666666" points="374.12,-129.75 331.88,-129.75 331.88,-110.5 374.12,-110.5 374.12,-129.75"/>
<text text-anchor="middle" x="353" y="-116.25" font-family="Helvetica,sans-Serif" font-size="10.00">utils.h</text>
</a>
</g>
</g>
<!-- Node3&#45;&gt;Node10 -->
<g id="edge12" class="edge">
<title>Node3&#45;&gt;Node10</title>
<path fill="none" stroke="#63b8ff" d="M295.7,-165.34C305.88,-157.49 320.83,-145.95 332.92,-136.62"/>
<polygon fill="#63b8ff" stroke="#63b8ff" points="334.69,-138.91 340.47,-130.02 330.41,-133.36 334.69,-138.91"/>
</g>
<!-- Node8&#45;&gt;Node2 -->
<g id="edge10" class="edge">
<title>Node8&#45;&gt;Node2</title>
<path fill="none" stroke="#63b8ff" d="M157.86,-112.21C160.6,-111.6 163.35,-111.02 166,-110.5 269.25,-90.22 296.52,-93.6 400,-74.5 402.91,-73.96 405.94,-73.37 408.96,-72.76"/>
<polygon fill="#63b8ff" stroke="#63b8ff" points="409.63,-75.98 418.7,-70.5 408.19,-69.13 409.63,-75.98"/>
</g>
<!-- Node8&#45;&gt;Node4 -->
<g id="edge9" class="edge">
<title>Node8&#45;&gt;Node4</title>
<path fill="none" stroke="#63b8ff" d="M125.38,-110.33C121.67,-103.28 116.34,-93.15 111.71,-84.33"/>
<polygon fill="#63b8ff" stroke="#63b8ff" points="114.48,-83.08 106.72,-75.86 108.28,-86.34 114.48,-83.08"/>
</g>
<!-- Node10&#45;&gt;Node2 -->
<g id="edge15" class="edge">
<title>Node10&#45;&gt;Node2</title>
<path fill="none" stroke="#63b8ff" d="M367.76,-110.09C381.01,-101.98 400.69,-89.93 416.17,-80.46"/>
<polygon fill="#63b8ff" stroke="#63b8ff" points="417.47,-83.16 424.17,-74.95 413.81,-77.19 417.47,-83.16"/>
</g>
<!-- Node10&#45;&gt;Node6 -->
<g id="edge16" class="edge">
<title>Node10&#45;&gt;Node6</title>
<path fill="none" stroke="#63b8ff" d="M374.4,-114.58C418.47,-105.24 519.57,-83.79 571.66,-72.74"/>
<polygon fill="#63b8ff" stroke="#63b8ff" points="572.24,-75.98 581.3,-70.48 570.79,-69.13 572.24,-75.98"/>
</g>
<!-- Node11 -->
<g id="node11" class="node">
<title>Node11</title>
<g id="a_node11"><a xlink:title=" ">
<polygon fill="#e0e0e0" stroke="#999999" points="390.88,-74.5 335.12,-74.5 335.12,-55.25 390.88,-55.25 390.88,-74.5"/>
<text text-anchor="middle" x="363" y="-61" font-family="Helvetica,sans-Serif" font-size="10.00">algorithm</text>
</a>
</g>
</g>
<!-- Node10&#45;&gt;Node11 -->
<g id="edge13" class="edge">
<title>Node10&#45;&gt;Node11</title>
<path fill="none" stroke="#63b8ff" d="M354.65,-110.33C355.92,-103.59 357.71,-94.02 359.32,-85.49"/>
<polygon fill="#63b8ff" stroke="#63b8ff" points="362.91,-86.33 361.31,-75.86 356.03,-85.04 362.91,-86.33"/>
</g>
<!-- Node12 -->
<g id="node12" class="node">
<title>Node12</title>
<g id="a_node12"><a xlink:title=" ">
<polygon fill="#e0e0e0" stroke="#999999" points="317,-74.5 271,-74.5 271,-55.25 317,-55.25 317,-74.5"/>
<text text-anchor="middle" x="294" y="-61" font-family="Helvetica,sans-Serif" font-size="10.00">iterator</text>
</a>
</g>
</g>
<!-- Node10&#45;&gt;Node12 -->
<g id="edge14" class="edge">
<title>Node10&#45;&gt;Node12</title>
<path fill="none" stroke="#63b8ff" d="M342.99,-110.09C334.46,-102.4 322,-91.15 311.78,-81.93"/>
<polygon fill="#63b8ff" stroke="#63b8ff" points="314.63,-79.88 304.86,-75.77 309.94,-85.07 314.63,-79.88"/>
</g>
<!-- Node14&#45;&gt;Node2 -->
<g id="edge19" class="edge">
<title>Node14&#45;&gt;Node2</title>
<path fill="none" stroke="#63b8ff" d="M612.43,-165.33C572.74,-156.21 516.21,-141.78 497,-129.75 478.17,-117.96 461.89,-98.15 451.61,-83.72"/>
<polygon fill="#63b8ff" stroke="#63b8ff" points="454.02,-82.03 445.49,-75.75 448.23,-85.98 454.02,-82.03"/>
</g>
<!-- Node15 -->
<g id="node15" class="node">
<title>Node15</title>
<g id="a_node15"><a xlink:href="input__output__names_8h.html" target="_top" xlink:title="Constant values associated with the format of the input and output files and matrices.">
<polygon fill="white" stroke="#666666" points="618,-129.75 506,-129.75 506,-110.5 618,-110.5 618,-129.75"/>
<text text-anchor="middle" x="562" y="-116.25" font-family="Helvetica,sans-Serif" font-size="10.00">input_output_names.h</text>
</a>
</g>
</g>
<!-- Node14&#45;&gt;Node15 -->
<g id="edge20" class="edge">
<title>Node14&#45;&gt;Node15</title>
<path fill="none" stroke="#63b8ff" d="M638.39,-165.34C624.38,-157.23 603.57,-145.18 587.2,-135.71"/>
<polygon fill="#63b8ff" stroke="#63b8ff" points="589.09,-132.18 578.68,-130.2 585.58,-138.24 589.09,-132.18"/>
</g>
<!-- Node16 -->
<g id="node16" class="node">
<title>Node16</title>
<g id="a_node16"><a xlink:href="mat__io_8h.html" target="_top" xlink:title="Includes MATLAB headers for I/O.">
<polygon fill="white" stroke="#666666" points="787.75,-74.5 734.25,-74.5 734.25,-55.25 787.75,-55.25 787.75,-74.5"/>
<text text-anchor="middle" x="761" y="-61" font-family="Helvetica,sans-Serif" font-size="10.00">mat_io.h</text>
</a>
</g>
</g>
<!-- Node14&#45;&gt;Node16 -->
<g id="edge23" class="edge">
<title>Node14&#45;&gt;Node16</title>
<path fill="none" stroke="#63b8ff" d="M698.19,-171.44C726.91,-166.98 762.35,-156.06 781,-129.75 790.73,-116.02 783.05,-97.38 774.54,-83.78"/>
<polygon fill="#63b8ff" stroke="#63b8ff" points="776.99,-82.16 768.44,-75.91 771.22,-86.13 776.99,-82.16"/>
</g>
<!-- Node20 -->
<g id="node20" class="node">
<title>Node20</title>
<g id="a_node20"><a xlink:href="matrix__collection_8h.html" target="_top" xlink:title="A collection of named MATLAB matrices.">
<polygon fill="white" stroke="#666666" points="771.88,-129.75 674.12,-129.75 674.12,-110.5 771.88,-110.5 771.88,-129.75"/>
<text text-anchor="middle" x="723" y="-116.25" font-family="Helvetica,sans-Serif" font-size="10.00">matrix_collection.h</text>
</a>
</g>
</g>
<!-- Node14&#45;&gt;Node20 -->
<g id="edge27" class="edge">
<title>Node14&#45;&gt;Node20</title>
<path fill="none" stroke="#63b8ff" d="M665.7,-165.34C675.88,-157.49 690.83,-145.95 702.92,-136.62"/>
<polygon fill="#63b8ff" stroke="#63b8ff" points="704.69,-138.91 710.47,-130.02 700.41,-133.36 704.69,-138.91"/>
</g>
<!-- Node15&#45;&gt;Node2 -->
<g id="edge21" class="edge">
<title>Node15&#45;&gt;Node2</title>
<path fill="none" stroke="#63b8ff" d="M541.3,-110.09C521.82,-101.59 492.41,-88.75 470.28,-79.09"/>
<polygon fill="#63b8ff" stroke="#63b8ff" points="471.96,-75.57 461.39,-74.77 469.15,-81.98 471.96,-75.57"/>
</g>
<!-- Node15&#45;&gt;Node6 -->
<g id="edge22" class="edge">
<title>Node15&#45;&gt;Node6</title>
<path fill="none" stroke="#63b8ff" d="M568.94,-110.33C574.68,-103.05 583.01,-92.48 590.12,-83.48"/>
<polygon fill="#63b8ff" stroke="#63b8ff" points="593.47,-85.88 596.91,-75.86 587.97,-81.54 593.47,-85.88"/>
</g>
<!-- Node17 -->
<g id="node17" class="node">
<title>Node17</title>
<g id="a_node17"><a xlink:title=" ">
<polygon fill="#e0e0e0" stroke="#999999" points="717.38,-19.25 676.62,-19.25 676.62,0 717.38,0 717.38,-19.25"/>
<text text-anchor="middle" x="697" y="-5.75" font-family="Helvetica,sans-Serif" font-size="10.00">mat.h</text>
</a>
</g>
</g>
<!-- Node16&#45;&gt;Node17 -->
<g id="edge24" class="edge">
<title>Node16&#45;&gt;Node17</title>
<path fill="none" stroke="#63b8ff" d="M750.14,-54.84C740.8,-47.07 727.11,-35.67 715.96,-26.4"/>
<polygon fill="#63b8ff" stroke="#63b8ff" points="718.62,-23.23 708.7,-19.52 714.14,-28.61 718.62,-23.23"/>
</g>
<!-- Node18 -->
<g id="node18" class="node">
<title>Node18</title>
<g id="a_node18"><a xlink:title=" ">
<polygon fill="#e0e0e0" stroke="#999999" points="786.62,-19.25 735.38,-19.25 735.38,0 786.62,0 786.62,-19.25"/>
<text text-anchor="middle" x="761" y="-5.75" font-family="Helvetica,sans-Serif" font-size="10.00">matrix.h</text>
</a>
</g>
</g>
<!-- Node16&#45;&gt;Node18 -->
<g id="edge25" class="edge">
<title>Node16&#45;&gt;Node18</title>
<path fill="none" stroke="#63b8ff" d="M761,-55.08C761,-48.42 761,-38.99 761,-30.53"/>
<polygon fill="#63b8ff" stroke="#63b8ff" points="764.5,-30.61 761,-20.61 757.5,-30.61 764.5,-30.61"/>
</g>
<!-- Node19 -->
<g id="node19" class="node">
<title>Node19</title>
<g id="a_node19"><a xlink:title=" ">
<polygon fill="#e0e0e0" stroke="#999999" points="847.5,-19.25 804.5,-19.25 804.5,0 847.5,0 847.5,-19.25"/>
<text text-anchor="middle" x="826" y="-5.75" font-family="Helvetica,sans-Serif" font-size="10.00">mex.h</text>
</a>
</g>
</g>
<!-- Node16&#45;&gt;Node19 -->
<g id="edge26" class="edge">
<title>Node16&#45;&gt;Node19</title>
<path fill="none" stroke="#63b8ff" d="M772.03,-54.84C781.51,-47.07 795.42,-35.67 806.75,-26.4"/>
<polygon fill="#63b8ff" stroke="#63b8ff" points="808.62,-28.57 814.14,-19.52 804.18,-23.15 808.62,-28.57"/>
</g>
<!-- Node20&#45;&gt;Node2 -->
<g id="edge28" class="edge">
<title>Node20&#45;&gt;Node2</title>
<path fill="none" stroke="#63b8ff" d="M674.67,-110.03C616.38,-99.06 520.12,-80.95 470.96,-71.7"/>
<polygon fill="#63b8ff" stroke="#63b8ff" points="471.85,-68.12 461.38,-69.71 470.56,-75 471.85,-68.12"/>
</g>
<!-- Node20&#45;&gt;Node6 -->
<g id="edge29" class="edge">
<title>Node20&#45;&gt;Node6</title>
<path fill="none" stroke="#63b8ff" d="M702.81,-110.09C684.01,-101.68 655.72,-89.02 634.22,-79.4"/>
<polygon fill="#63b8ff" stroke="#63b8ff" points="635.84,-75.84 625.29,-74.95 632.98,-82.23 635.84,-75.84"/>
</g>
<!-- Node20&#45;&gt;Node16 -->
<g id="edge30" class="edge">
<title>Node20&#45;&gt;Node16</title>
<path fill="none" stroke="#63b8ff" d="M729.27,-110.33C734.41,-103.13 741.85,-92.71 748.24,-83.76"/>
<polygon fill="#63b8ff" stroke="#63b8ff" points="751.63,-86.03 754.59,-75.86 745.93,-81.97 751.63,-86.03"/>
</g>
</g>
</svg>
