<?xml version="1.0" encoding="UTF-8" standalone="no"?>
<!DOCTYPE svg PUBLIC "-//W3C//DTD SVG 1.1//EN"
 "http://www.w3.org/Graphics/SVG/1.1/DTD/svg11.dtd">
<!-- Generated by graphviz version 8.0.5 (20230430.1635)
 -->
<!-- Title: tdms/include/simulation_parameters.h Pages: 1 -->
<svg width="855pt" height="260pt"
 viewBox="0.00 0.00 855.00 259.50" xmlns="http://www.w3.org/2000/svg" xmlns:xlink="http://www.w3.org/1999/xlink">
<g id="graph0" class="graph" transform="scale(1 1) rotate(0) translate(4 255.5)">
<title>tdms/include/simulation_parameters.h</title>
<!-- Node1 -->
<g id="node1" class="node">
<title>Node1</title>
<g id="a_node1"><a xlink:title="Classes collecting parameters for the simulation.">
<polygon fill="#999999" stroke="#666666" points="498.88,-251.5 380.12,-251.5 380.12,-221 498.88,-221 498.88,-251.5"/>
<text text-anchor="start" x="388.12" y="-238" font-family="Helvetica,sans-Serif" font-size="10.00">tdms/include/simulation</text>
<text text-anchor="middle" x="439.5" y="-226.75" font-family="Helvetica,sans-Serif" font-size="10.00">_parameters.h</text>
</a>
</g>
</g>
<!-- Node2 -->
<g id="node2" class="node">
<title>Node2</title>
<g id="a_node2"><a xlink:title=" ">
<polygon fill="#e0e0e0" stroke="#999999" points="459.5,-74.5 419.5,-74.5 419.5,-55.25 459.5,-55.25 459.5,-74.5"/>
<text text-anchor="middle" x="439.5" y="-61" font-family="Helvetica,sans-Serif" font-size="10.00">string</text>
</a>
</g>
</g>
<!-- Node1&#45;&gt;Node2 -->
<g id="edge1" class="edge">
<title>Node1&#45;&gt;Node2</title>
<path fill="none" stroke="#63b8ff" d="M439.5,-220.52C439.5,-190.12 439.5,-120.44 439.5,-85.96"/>
<polygon fill="#63b8ff" stroke="#63b8ff" points="443,-85.99 439.5,-75.99 436,-85.99 443,-85.99"/>
</g>
<!-- Node3 -->
<g id="node3" class="node">
<title>Node3</title>
<g id="a_node3"><a xlink:href="arrays_8h.html" target="_top" xlink:title="Classes describing arrays, vertices etc.">
<polygon fill="white" stroke="#666666" points="311.12,-185 259.88,-185 259.88,-165.75 311.12,-165.75 311.12,-185"/>
<text text-anchor="middle" x="285.5" y="-171.5" font-family="Helvetica,sans-Serif" font-size="10.00">arrays.h</text>
</a>
</g>
</g>
<!-- Node1&#45;&gt;Node3 -->
<g id="edge2" class="edge">
<title>Node1&#45;&gt;Node3</title>
<path fill="none" stroke="#63b8ff" d="M401.04,-220.55C375.89,-210.93 343.36,-198.5 319.23,-189.27"/>
<polygon fill="#63b8ff" stroke="#63b8ff" points="320.71,-185.71 310.12,-185.4 318.21,-192.24 320.71,-185.71"/>
</g>
<!-- Node11 -->
<g id="node11" class="node">
<title>Node11</title>
<g id="a_node11"><a xlink:href="input__matrices_8h.html" target="_top" xlink:title="Class handling the input matrices that are read in from the input file.">
<polygon fill="white" stroke="#666666" points="643.5,-185 555.5,-185 555.5,-165.75 643.5,-165.75 643.5,-185"/>
<text text-anchor="middle" x="599.5" y="-171.5" font-family="Helvetica,sans-Serif" font-size="10.00">input_matrices.h</text>
</a>
</g>
</g>
<!-- Node1&#45;&gt;Node11 -->
<g id="edge14" class="edge">
<title>Node1&#45;&gt;Node11</title>
<path fill="none" stroke="#63b8ff" d="M479.46,-220.55C505.7,-210.89 539.69,-198.38 564.79,-189.15"/>
<polygon fill="#63b8ff" stroke="#63b8ff" points="565.79,-192.14 573.96,-185.4 563.37,-185.57 565.79,-192.14"/>
</g>
<!-- Node3&#45;&gt;Node2 -->
<g id="edge5" class="edge">
<title>Node3&#45;&gt;Node2</title>
<path fill="none" stroke="#63b8ff" d="M311.36,-165.81C331.86,-158.26 360.59,-145.95 382.5,-129.75 400.17,-116.68 416.45,-97.4 427.04,-83.44"/>
<polygon fill="#63b8ff" stroke="#63b8ff" points="430.31,-85.9 433.42,-75.77 424.67,-81.75 430.31,-85.9"/>
</g>
<!-- Node4 -->
<g id="node4" class="node">
<title>Node4</title>
<g id="a_node4"><a xlink:title=" ">
<polygon fill="#e0e0e0" stroke="#999999" points="213.88,-74.5 161.12,-74.5 161.12,-55.25 213.88,-55.25 213.88,-74.5"/>
<text text-anchor="middle" x="187.5" y="-61" font-family="Helvetica,sans-Serif" font-size="10.00">complex</text>
</a>
</g>
</g>
<!-- Node3&#45;&gt;Node4 -->
<g id="edge3" class="edge">
<title>Node3&#45;&gt;Node4</title>
<path fill="none" stroke="#63b8ff" d="M259.61,-171.7C215.07,-166.51 126.96,-153.44 108.5,-129.75 92.04,-108.62 122.9,-90.09 150.74,-78.5"/>
<polygon fill="#63b8ff" stroke="#63b8ff" points="151.74,-81.47 159.76,-74.55 149.18,-74.96 151.74,-81.47"/>
</g>
<!-- Node5 -->
<g id="node5" class="node">
<title>Node5</title>
<g id="a_node5"><a xlink:title=" ">
<polygon fill="#e0e0e0" stroke="#999999" points="175.88,-129.75 117.12,-129.75 117.12,-110.5 175.88,-110.5 175.88,-129.75"/>
<text text-anchor="middle" x="146.5" y="-116.25" font-family="Helvetica,sans-Serif" font-size="10.00">stdexcept</text>
</a>
</g>
</g>
<!-- Node3&#45;&gt;Node5 -->
<g id="edge4" class="edge">
<title>Node3&#45;&gt;Node5</title>
<path fill="none" stroke="#63b8ff" d="M261.92,-165.34C239.56,-156.77 205.71,-143.81 180.44,-134.13"/>
<polygon fill="#63b8ff" stroke="#63b8ff" points="181.79,-130.51 171.2,-130.2 179.28,-137.05 181.79,-130.51"/>
</g>
<!-- Node6 -->
<g id="node6" class="node">
<title>Node6</title>
<g id="a_node6"><a xlink:title=" ">
<polygon fill="#e0e0e0" stroke="#999999" points="621,-74.5 578,-74.5 578,-55.25 621,-55.25 621,-74.5"/>
<text text-anchor="middle" x="599.5" y="-61" font-family="Helvetica,sans-Serif" font-size="10.00">vector</text>
</a>
</g>
</g>
<!-- Node3&#45;&gt;Node6 -->
<g id="edge6" class="edge">
<title>Node3&#45;&gt;Node6</title>
<path fill="none" stroke="#63b8ff" d="M311.46,-165.4C368.69,-145.63 505.52,-98.35 567.74,-76.85"/>
<polygon fill="#63b8ff" stroke="#63b8ff" points="568.45,-79.96 576.76,-73.39 566.16,-73.35 568.45,-79.96"/>
</g>
<!-- Node7 -->
<g id="node7" class="node">
<title>Node7</title>
<g id="a_node7"><a xlink:title=" ">
<polygon fill="#e0e0e0" stroke="#999999" points="239.5,-129.75 193.5,-129.75 193.5,-110.5 239.5,-110.5 239.5,-129.75"/>
<text text-anchor="middle" x="216.5" y="-116.25" font-family="Helvetica,sans-Serif" font-size="10.00">fftw3.h</text>
</a>
</g>
</g>
<!-- Node3&#45;&gt;Node7 -->
<g id="edge7" class="edge">
<title>Node3&#45;&gt;Node7</title>
<path fill="none" stroke="#63b8ff" d="M273.8,-165.34C263.62,-157.49 248.67,-145.95 236.58,-136.62"/>
<polygon fill="#63b8ff" stroke="#63b8ff" points="239.09,-133.36 229.03,-130.02 234.81,-138.91 239.09,-133.36"/>
</g>
<!-- Node8 -->
<g id="node8" class="node">
<title>Node8</title>
<g id="a_node8"><a xlink:href="globals_8h.html" target="_top" xlink:title="Type definitions and global constants.">
<polygon fill="white" stroke="#666666" points="313,-129.75 258,-129.75 258,-110.5 313,-110.5 313,-129.75"/>
<text text-anchor="middle" x="285.5" y="-116.25" font-family="Helvetica,sans-Serif" font-size="10.00">globals.h</text>
</a>
</g>
</g>
<!-- Node3&#45;&gt;Node8 -->
<g id="edge8" class="edge">
<title>Node3&#45;&gt;Node8</title>
<path fill="none" stroke="#63b8ff" d="M285.5,-165.58C285.5,-158.92 285.5,-149.49 285.5,-141.03"/>
<polygon fill="#63b8ff" stroke="#63b8ff" points="289,-141.11 285.5,-131.11 282,-141.11 289,-141.11"/>
</g>
<!-- Node9 -->
<g id="node9" class="node">
<title>Node9</title>
<g id="a_node9"><a xlink:title=" ">
<polygon fill="#e0e0e0" stroke="#999999" points="61,-129.75 0,-129.75 0,-110.5 61,-110.5 61,-129.75"/>
<text text-anchor="middle" x="30.5" y="-116.25" font-family="Helvetica,sans-Serif" font-size="10.00">matlabio.h</text>
</a>
</g>
</g>
<!-- Node3&#45;&gt;Node9 -->
<g id="edge11" class="edge">
<title>Node3&#45;&gt;Node9</title>
<path fill="none" stroke="#63b8ff" d="M259.65,-168.98C215.44,-159.74 124.96,-140.85 71.88,-129.77"/>
<polygon fill="#63b8ff" stroke="#63b8ff" points="72.65,-126.14 62.15,-127.52 71.22,-132.99 72.65,-126.14"/>
</g>
<!-- Node10 -->
<g id="node10" class="node">
<title>Node10</title>
<g id="a_node10"><a xlink:href="utils_8h.html" target="_top" xlink:title="Useful miscellaneous utility functions.">
<polygon fill="white" stroke="#666666" points="373.62,-129.75 331.38,-129.75 331.38,-110.5 373.62,-110.5 373.62,-129.75"/>
<text text-anchor="middle" x="352.5" y="-116.25" font-family="Helvetica,sans-Serif" font-size="10.00">utils.h</text>
</a>
</g>
</g>
<!-- Node3&#45;&gt;Node10 -->
<g id="edge12" class="edge">
<title>Node3&#45;&gt;Node10</title>
<path fill="none" stroke="#63b8ff" d="M296.87,-165.34C306.74,-157.49 321.27,-145.95 333,-136.62"/>
<polygon fill="#63b8ff" stroke="#63b8ff" points="334.65,-138.99 340.3,-130.02 330.3,-133.51 334.65,-138.99"/>
</g>
<!-- Node8&#45;&gt;Node2 -->
<g id="edge10" class="edge">
<title>Node8&#45;&gt;Node2</title>
<path fill="none" stroke="#63b8ff" d="M311.62,-110.09C338.56,-100.78 380.53,-86.26 408.98,-76.43"/>
<polygon fill="#63b8ff" stroke="#63b8ff" points="409.85,-79.48 418.16,-72.91 407.57,-72.87 409.85,-79.48"/>
</g>
<!-- Node8&#45;&gt;Node4 -->
<g id="edge9" class="edge">
<title>Node8&#45;&gt;Node4</title>
<path fill="none" stroke="#63b8ff" d="M268.88,-110.09C253.81,-101.91 231.36,-89.71 213.85,-80.19"/>
<polygon fill="#63b8ff" stroke="#63b8ff" points="215.66,-76.65 205.21,-74.95 212.32,-82.8 215.66,-76.65"/>
</g>
<!-- Node10&#45;&gt;Node2 -->
<g id="edge13" class="edge">
<title>Node10&#45;&gt;Node2</title>
<path fill="none" stroke="#63b8ff" d="M367.26,-110.09C380.51,-101.98 400.19,-89.93 415.67,-80.46"/>
<polygon fill="#63b8ff" stroke="#63b8ff" points="416.97,-83.16 423.67,-74.95 413.31,-77.19 416.97,-83.16"/>
</g>
<!-- Node11&#45;&gt;Node2 -->
<g id="edge15" class="edge">
<title>Node11&#45;&gt;Node2</title>
<path fill="none" stroke="#63b8ff" d="M586.13,-165.31C558.65,-146.68 495.57,-103.9 461.8,-81"/>
<polygon fill="#63b8ff" stroke="#63b8ff" points="463.96,-77.55 453.72,-74.84 460.03,-83.35 463.96,-77.55"/>
</g>
<!-- Node12 -->
<g id="node12" class="node">
<title>Node12</title>
<g id="a_node12"><a xlink:href="input__output__names_8h.html" target="_top" xlink:title="Constant values associated with the format of the input and output files and matrices.">
<polygon fill="white" stroke="#666666" points="655.5,-129.75 543.5,-129.75 543.5,-110.5 655.5,-110.5 655.5,-129.75"/>
<text text-anchor="middle" x="599.5" y="-116.25" font-family="Helvetica,sans-Serif" font-size="10.00">input_output_names.h</text>
</a>
</g>
</g>
<!-- Node11&#45;&gt;Node12 -->
<g id="edge16" class="edge">
<title>Node11&#45;&gt;Node12</title>
<path fill="none" stroke="#63b8ff" d="M599.5,-165.58C599.5,-158.92 599.5,-149.49 599.5,-141.03"/>
<polygon fill="#63b8ff" stroke="#63b8ff" points="603,-141.11 599.5,-131.11 596,-141.11 603,-141.11"/>
</g>
<!-- Node13 -->
<g id="node13" class="node">
<title>Node13</title>
<g id="a_node13"><a xlink:href="mat__io_8h.html" target="_top" xlink:title="Includes MATLAB headers for I/O.">
<polygon fill="white" stroke="#666666" points="787.25,-74.5 733.75,-74.5 733.75,-55.25 787.25,-55.25 787.25,-74.5"/>
<text text-anchor="middle" x="760.5" y="-61" font-family="Helvetica,sans-Serif" font-size="10.00">mat_io.h</text>
</a>
</g>
</g>
<!-- Node11&#45;&gt;Node13 -->
<g id="edge19" class="edge">
<title>Node11&#45;&gt;Node13</title>
<path fill="none" stroke="#63b8ff" d="M643.88,-169.66C691.89,-163.53 763.83,-151.02 780.5,-129.75 791,-116.35 782.94,-97.38 774.12,-83.59"/>
<polygon fill="#63b8ff" stroke="#63b8ff" points="776.43,-81.8 767.82,-75.63 770.7,-85.82 776.43,-81.8"/>
</g>
<!-- Node17 -->
<g id="node17" class="node">
<title>Node17</title>
<g id="a_node17"><a xlink:href="matrix__collection_8h.html" target="_top" xlink:title="A collection of named MATLAB matrices.">
<polygon fill="white" stroke="#666666" points="771.38,-129.75 673.62,-129.75 673.62,-110.5 771.38,-110.5 771.38,-129.75"/>
<text text-anchor="middle" x="722.5" y="-116.25" font-family="Helvetica,sans-Serif" font-size="10.00">matrix_collection.h</text>
</a>
</g>
</g>
<!-- Node11&#45;&gt;Node17 -->
<g id="edge23" class="edge">
<title>Node11&#45;&gt;Node17</title>
<path fill="none" stroke="#63b8ff" d="M620.37,-165.34C639.89,-156.89 669.31,-144.15 691.56,-134.52"/>
<polygon fill="#63b8ff" stroke="#63b8ff" points="692.75,-137.39 700.53,-130.2 689.96,-130.96 692.75,-137.39"/>
</g>
<!-- Node12&#45;&gt;Node2 -->
<g id="edge17" class="edge">
<title>Node12&#45;&gt;Node2</title>
<path fill="none" stroke="#63b8ff" d="M572.36,-110.09C543.93,-100.63 499.39,-85.81 469.82,-75.97"/>
<polygon fill="#63b8ff" stroke="#63b8ff" points="471.26,-72.42 460.67,-72.59 469.05,-79.07 471.26,-72.42"/>
</g>
<!-- Node12&#45;&gt;Node6 -->
<g id="edge18" class="edge">
<title>Node12&#45;&gt;Node6</title>
<path fill="none" stroke="#63b8ff" d="M599.5,-110.33C599.5,-103.67 599.5,-94.24 599.5,-85.78"/>
<polygon fill="#63b8ff" stroke="#63b8ff" points="603,-85.86 599.5,-75.86 596,-85.86 603,-85.86"/>
</g>
<!-- Node14 -->
<g id="node14" class="node">
<title>Node14</title>
<g id="a_node14"><a xlink:title=" ">
<polygon fill="#e0e0e0" stroke="#999999" points="716.88,-19.25 676.12,-19.25 676.12,0 716.88,0 716.88,-19.25"/>
<text text-anchor="middle" x="696.5" y="-5.75" font-family="Helvetica,sans-Serif" font-size="10.00">mat.h</text>
</a>
</g>
</g>
<!-- Node13&#45;&gt;Node14 -->
<g id="edge20" class="edge">
<title>Node13&#45;&gt;Node14</title>
<path fill="none" stroke="#63b8ff" d="M749.64,-54.84C740.3,-47.07 726.61,-35.67 715.46,-26.4"/>
<polygon fill="#63b8ff" stroke="#63b8ff" points="718.12,-23.23 708.2,-19.52 713.64,-28.61 718.12,-23.23"/>
</g>
<!-- Node15 -->
<g id="node15" class="node">
<title>Node15</title>
<g id="a_node15"><a xlink:title=" ">
<polygon fill="#e0e0e0" stroke="#999999" points="786.12,-19.25 734.88,-19.25 734.88,0 786.12,0 786.12,-19.25"/>
<text text-anchor="middle" x="760.5" y="-5.75" font-family="Helvetica,sans-Serif" font-size="10.00">matrix.h</text>
</a>
</g>
</g>
<!-- Node13&#45;&gt;Node15 -->
<g id="edge21" class="edge">
<title>Node13&#45;&gt;Node15</title>
<path fill="none" stroke="#63b8ff" d="M760.5,-55.08C760.5,-48.42 760.5,-38.99 760.5,-30.53"/>
<polygon fill="#63b8ff" stroke="#63b8ff" points="764,-30.61 760.5,-20.61 757,-30.61 764,-30.61"/>
</g>
<!-- Node16 -->
<g id="node16" class="node">
<title>Node16</title>
<g id="a_node16"><a xlink:title=" ">
<polygon fill="#e0e0e0" stroke="#999999" points="847,-19.25 804,-19.25 804,0 847,0 847,-19.25"/>
<text text-anchor="middle" x="825.5" y="-5.75" font-family="Helvetica,sans-Serif" font-size="10.00">mex.h</text>
</a>
</g>
</g>
<!-- Node13&#45;&gt;Node16 -->
<g id="edge22" class="edge">
<title>Node13&#45;&gt;Node16</title>
<path fill="none" stroke="#63b8ff" d="M771.53,-54.84C781.01,-47.07 794.92,-35.67 806.25,-26.4"/>
<polygon fill="#63b8ff" stroke="#63b8ff" points="808.12,-28.57 813.64,-19.52 803.68,-23.15 808.12,-28.57"/>
</g>
<!-- Node17&#45;&gt;Node2 -->
<g id="edge24" class="edge">
<title>Node17&#45;&gt;Node2</title>
<path fill="none" stroke="#63b8ff" d="M674.17,-110.03C615.88,-99.06 519.62,-80.95 470.46,-71.7"/>
<polygon fill="#63b8ff" stroke="#63b8ff" points="471.35,-68.12 460.88,-69.71 470.06,-75 471.35,-68.12"/>
</g>
<!-- Node17&#45;&gt;Node6 -->
<g id="edge25" class="edge">
<title>Node17&#45;&gt;Node6</title>
<path fill="none" stroke="#63b8ff" d="M701.63,-110.09C682.11,-101.64 652.69,-88.9 630.44,-79.27"/>
<polygon fill="#63b8ff" stroke="#63b8ff" points="632.04,-75.71 621.47,-74.95 629.25,-82.14 632.04,-75.71"/>
</g>
<!-- Node17&#45;&gt;Node13 -->
<g id="edge26" class="edge">
<title>Node17&#45;&gt;Node13</title>
<path fill="none" stroke="#63b8ff" d="M728.77,-110.33C733.91,-103.13 741.35,-92.71 747.74,-83.76"/>
<polygon fill="#63b8ff" stroke="#63b8ff" points="751.13,-86.03 754.09,-75.86 745.43,-81.97 751.13,-86.03"/>
</g>
</g>
</svg>
