<?xml version="1.0" encoding="UTF-8" standalone="no"?>
<!DOCTYPE svg PUBLIC "-//W3C//DTD SVG 1.1//EN"
 "http://www.w3.org/Graphics/SVG/1.1/DTD/svg11.dtd">
<!-- Generated by graphviz version 8.0.2 (20230410.1723)
 -->
<!-- Title: tdms/include/simulation_parameters.h Pages: 1 -->
<svg width="503pt" height="225pt"
 viewBox="0.00 0.00 503.00 225.00" xmlns="http://www.w3.org/2000/svg" xmlns:xlink="http://www.w3.org/1999/xlink">
<g id="graph0" class="graph" transform="scale(1 1) rotate(0) translate(4 221)">
<title>tdms/include/simulation_parameters.h</title>
<!-- Node1 -->
<g id="node1" class="node">
<title>Node1</title>
<g id="a_node1"><a xlink:title="Classes collecting parameters for the simulation.">
<polygon fill="#999999" stroke="#666666" points="259,-217 140,-217 140,-187 259,-187 259,-217"/>
<text text-anchor="start" x="148" y="-205" font-family="Helvetica,sans-Serif" font-size="10.00">tdms/include/simulation</text>
<text text-anchor="middle" x="199.5" y="-194" font-family="Helvetica,sans-Serif" font-size="10.00">_parameters.h</text>
</a>
</g>
</g>
<!-- Node2 -->
<g id="node2" class="node">
<title>Node2</title>
<g id="a_node2"><a xlink:href="field_8h.html" target="_top" xlink:title="Classes for the electric and magnetic (split) fields on a grid.">
<polygon fill="white" stroke="#666666" points="250,-151 149,-151 149,-132 250,-132 250,-151"/>
<text text-anchor="middle" x="199.5" y="-139" font-family="Helvetica,sans-Serif" font-size="10.00">tdms/include/field.h</text>
</a>
</g>
</g>
<!-- Node1&#45;&gt;Node2 -->
<g id="edge1" class="edge">
<title>Node1&#45;&gt;Node2</title>
<path fill="none" stroke="#63b8ff" d="M199.5,-175.59C199.5,-166.85 199.5,-157.65 199.5,-151.18"/>
<polygon fill="#63b8ff" stroke="#63b8ff" points="196,-175.54 199.5,-185.54 203,-175.54 196,-175.54"/>
</g>
<!-- Node4 -->
<g id="node4" class="node">
<title>Node4</title>
<g id="a_node4"><a xlink:href="fieldsample_8h.html" target="_top" xlink:title="Class that stores the extracted field values at user&#45;defined vertices.">
<polygon fill="white" stroke="#666666" points="133,-90.5 0,-90.5 0,-71.5 133,-71.5 133,-90.5"/>
<text text-anchor="middle" x="66.5" y="-78.5" font-family="Helvetica,sans-Serif" font-size="10.00">tdms/include/fieldsample.h</text>
</a>
</g>
</g>
<!-- Node1&#45;&gt;Node4 -->
<g id="edge8" class="edge">
<title>Node1&#45;&gt;Node4</title>
<path fill="none" stroke="#63b8ff" d="M173.22,-179.7C162.62,-170.95 150.35,-160.63 139.5,-151 115.76,-129.93 88.88,-103.94 75.32,-90.68"/>
<polygon fill="#63b8ff" stroke="#63b8ff" points="170.71,-182.99 180.66,-186.63 175.15,-177.58 170.71,-182.99"/>
</g>
<!-- Node9 -->
<g id="node9" class="node">
<title>Node9</title>
<g id="a_node9"><a xlink:href="mesh__base_8h.html" target="_top" xlink:title="Generation of orientated mesh.">
<polygon fill="white" stroke="#666666" points="402.5,-151 268.5,-151 268.5,-132 402.5,-132 402.5,-151"/>
<text text-anchor="middle" x="335.5" y="-139" font-family="Helvetica,sans-Serif" font-size="10.00">tdms/include/mesh_base.h</text>
</a>
</g>
</g>
<!-- Node1&#45;&gt;Node9 -->
<g id="edge9" class="edge">
<title>Node1&#45;&gt;Node9</title>
<path fill="none" stroke="#63b8ff" d="M243.11,-182.24C267.18,-171.89 295.97,-159.51 314.93,-151.35"/>
<polygon fill="#63b8ff" stroke="#63b8ff" points="241.92,-179.37 234.12,-186.54 244.69,-185.8 241.92,-179.37"/>
</g>
<!-- Node3 -->
<g id="node3" class="node">
<title>Node3</title>
<g id="a_node3"><a xlink:href="array__init_8h.html" target="_top" xlink:title="A collection of functions for array initialisation given MATLAB pointers.">
<polygon fill="white" stroke="#666666" points="248,-96 151,-96 151,-66 248,-66 248,-96"/>
<text text-anchor="start" x="159" y="-84" font-family="Helvetica,sans-Serif" font-size="10.00">tdms/include/array</text>
<text text-anchor="middle" x="199.5" y="-73" font-family="Helvetica,sans-Serif" font-size="10.00">_init.h</text>
</a>
</g>
</g>
<!-- Node2&#45;&gt;Node3 -->
<g id="edge2" class="edge">
<title>Node2&#45;&gt;Node3</title>
<path fill="none" stroke="#63b8ff" d="M199.5,-121.08C199.5,-112.92 199.5,-103.6 199.5,-96.11"/>
<polygon fill="#63b8ff" stroke="#63b8ff" points="196,-120.87 199.5,-130.87 203,-120.87 196,-120.87"/>
</g>
<!-- Node2&#45;&gt;Node4 -->
<g id="edge3" class="edge">
<title>Node2&#45;&gt;Node4</title>
<path fill="none" stroke="#63b8ff" d="M169.52,-127.31C144.3,-116.22 108.94,-100.67 86.89,-90.97"/>
<polygon fill="#63b8ff" stroke="#63b8ff" points="167.74,-130.79 178.3,-131.62 170.56,-124.39 167.74,-130.79"/>
</g>
<!-- Node6 -->
<g id="node6" class="node">
<title>Node6</title>
<g id="a_node6"><a xlink:href="surface__phasors_8h.html" target="_top" xlink:title="Contains a class that handles the complex amplitude extraction.">
<polygon fill="white" stroke="#666666" points="373,-96 266,-96 266,-66 373,-66 373,-96"/>
<text text-anchor="start" x="274" y="-84" font-family="Helvetica,sans-Serif" font-size="10.00">tdms/include/surface</text>
<text text-anchor="middle" x="319.5" y="-73" font-family="Helvetica,sans-Serif" font-size="10.00">_phasors.h</text>
</a>
</g>
</g>
<!-- Node2&#45;&gt;Node6 -->
<g id="edge5" class="edge">
<title>Node2&#45;&gt;Node6</title>
<path fill="none" stroke="#63b8ff" d="M227.45,-126.87C246.18,-117.74 270.81,-105.74 289.88,-96.44"/>
<polygon fill="#63b8ff" stroke="#63b8ff" points="226.18,-124.09 218.73,-131.62 229.25,-130.38 226.18,-124.09"/>
</g>
<!-- Node7 -->
<g id="node7" class="node">
<title>Node7</title>
<g id="a_node7"><a xlink:href="vertex__phasors_8h.html" target="_top" xlink:title="Contains a class that handles the complex amplitude extraction at the vertices.">
<polygon fill="white" stroke="#666666" points="493.5,-96 391.5,-96 391.5,-66 493.5,-66 493.5,-96"/>
<text text-anchor="start" x="399.5" y="-84" font-family="Helvetica,sans-Serif" font-size="10.00">tdms/include/vertex</text>
<text text-anchor="middle" x="442.5" y="-73" font-family="Helvetica,sans-Serif" font-size="10.00">_phasors.h</text>
</a>
</g>
</g>
<!-- Node2&#45;&gt;Node7 -->
<g id="edge6" class="edge">
<title>Node2&#45;&gt;Node7</title>
<path fill="none" stroke="#63b8ff" d="M247.34,-128.98C288.88,-118.98 348.88,-104.54 391.36,-94.31"/>
<polygon fill="#63b8ff" stroke="#63b8ff" points="246.57,-125.81 237.67,-131.55 248.21,-132.61 246.57,-125.81"/>
</g>
<!-- Node5 -->
<g id="node5" class="node">
<title>Node5</title>
<g id="a_node5"><a xlink:href="test___field_sample_8cpp.html" target="_top" xlink:title="Unit tests for the FieldSample class and its subclasses.">
<polygon fill="white" stroke="#666666" points="117,-30 16,-30 16,0 117,0 117,-30"/>
<text text-anchor="start" x="24" y="-18" font-family="Helvetica,sans-Serif" font-size="10.00">tdms/tests/unit/test</text>
<text text-anchor="middle" x="66.5" y="-7" font-family="Helvetica,sans-Serif" font-size="10.00">_FieldSample.cpp</text>
</a>
</g>
</g>
<!-- Node4&#45;&gt;Node5 -->
<g id="edge4" class="edge">
<title>Node4&#45;&gt;Node5</title>
<path fill="none" stroke="#63b8ff" d="M66.5,-60.42C66.5,-50.68 66.5,-39.12 66.5,-30.23"/>
<polygon fill="#63b8ff" stroke="#63b8ff" points="63,-60.1 66.5,-70.1 70,-60.1 63,-60.1"/>
</g>
<!-- Node8 -->
<g id="node8" class="node">
<title>Node8</title>
<g id="a_node8"><a xlink:href="test___vertex_phasors_8cpp.html" target="_top" xlink:title="Unit tests for the VertexPhasors class.">
<polygon fill="white" stroke="#666666" points="495,-30 390,-30 390,0 495,0 495,-30"/>
<text text-anchor="start" x="398" y="-18" font-family="Helvetica,sans-Serif" font-size="10.00">tdms/tests/unit/test</text>
<text text-anchor="middle" x="442.5" y="-7" font-family="Helvetica,sans-Serif" font-size="10.00">_VertexPhasors.cpp</text>
</a>
</g>
</g>
<!-- Node7&#45;&gt;Node8 -->
<g id="edge7" class="edge">
<title>Node7&#45;&gt;Node8</title>
<path fill="none" stroke="#63b8ff" d="M442.5,-54.97C442.5,-46.55 442.5,-37.45 442.5,-30.16"/>
<polygon fill="#63b8ff" stroke="#63b8ff" points="439,-54.8 442.5,-64.8 446,-54.8 439,-54.8"/>
</g>
</g>
</svg>
