<?xml version="1.0" encoding="UTF-8" standalone="no"?>
<!DOCTYPE svg PUBLIC "-//W3C//DTD SVG 1.1//EN"
 "http://www.w3.org/Graphics/SVG/1.1/DTD/svg11.dtd">
<!-- Generated by graphviz version 8.0.5 (20230430.1635)
 -->
<!-- Title: tdms/include/simulation_parameters.h Pages: 1 -->
<svg width="940pt" height="260pt"
 viewBox="0.00 0.00 940.27 259.50" xmlns="http://www.w3.org/2000/svg" xmlns:xlink="http://www.w3.org/1999/xlink">
<g id="graph0" class="graph" transform="scale(1 1) rotate(0) translate(4 255.5)">
<title>tdms/include/simulation_parameters.h</title>
<!-- Node1 -->
<g id="node1" class="node">
<title>Node1</title>
<g id="a_node1"><a xlink:title="Classes collecting parameters for the simulation.">
<polygon fill="#999999" stroke="#666666" points="584.14,-251.5 465.39,-251.5 465.39,-221 584.14,-221 584.14,-251.5"/>
<text text-anchor="start" x="473.39" y="-238" font-family="Helvetica,sans-Serif" font-size="10.00">tdms/include/simulation</text>
<text text-anchor="middle" x="524.77" y="-226.75" font-family="Helvetica,sans-Serif" font-size="10.00">_parameters.h</text>
</a>
</g>
</g>
<!-- Node2 -->
<g id="node2" class="node">
<title>Node2</title>
<g id="a_node2"><a xlink:title=" ">
<polygon fill="#e0e0e0" stroke="#999999" points="544.77,-74.5 504.77,-74.5 504.77,-55.25 544.77,-55.25 544.77,-74.5"/>
<text text-anchor="middle" x="524.77" y="-61" font-family="Helvetica,sans-Serif" font-size="10.00">string</text>
</a>
</g>
</g>
<!-- Node1&#45;&gt;Node2 -->
<g id="edge1" class="edge">
<title>Node1&#45;&gt;Node2</title>
<path fill="none" stroke="#63b8ff" d="M524.77,-220.52C524.77,-190.12 524.77,-120.44 524.77,-85.96"/>
<polygon fill="#63b8ff" stroke="#63b8ff" points="528.27,-85.99 524.77,-75.99 521.27,-85.99 528.27,-85.99"/>
</g>
<!-- Node3 -->
<g id="node3" class="node">
<title>Node3</title>
<g id="a_node3"><a xlink:href="arrays_8h.html" target="_top" xlink:title="Classes describing arrays, vertices etc.">
<polygon fill="white" stroke="#666666" points="304.39,-185 253.14,-185 253.14,-165.75 304.39,-165.75 304.39,-185"/>
<text text-anchor="middle" x="278.77" y="-171.5" font-family="Helvetica,sans-Serif" font-size="10.00">arrays.h</text>
</a>
</g>
</g>
<!-- Node1&#45;&gt;Node3 -->
<g id="edge2" class="edge">
<title>Node1&#45;&gt;Node3</title>
<path fill="none" stroke="#63b8ff" d="M464.91,-220.92C418.11,-209.72 354.58,-194.52 315.15,-185.08"/>
<polygon fill="#63b8ff" stroke="#63b8ff" points="316.25,-181.51 305.71,-182.58 314.62,-188.31 316.25,-181.51"/>
</g>
<!-- Node12 -->
<g id="node12" class="node">
<title>Node12</title>
<g id="a_node12"><a xlink:href="input__matrices_8h.html" target="_top" xlink:title="Class handling the input matrices that are read in from the input file.">
<polygon fill="white" stroke="#666666" points="728.77,-185 640.77,-185 640.77,-165.75 728.77,-165.75 728.77,-185"/>
<text text-anchor="middle" x="684.77" y="-171.5" font-family="Helvetica,sans-Serif" font-size="10.00">input_matrices.h</text>
</a>
</g>
</g>
<!-- Node1&#45;&gt;Node12 -->
<g id="edge15" class="edge">
<title>Node1&#45;&gt;Node12</title>
<path fill="none" stroke="#63b8ff" d="M564.73,-220.55C590.97,-210.89 624.96,-198.38 650.06,-189.15"/>
<polygon fill="#63b8ff" stroke="#63b8ff" points="651.06,-192.14 659.23,-185.4 648.64,-185.57 651.06,-192.14"/>
</g>
<!-- Node3&#45;&gt;Node2 -->
<g id="edge5" class="edge">
<title>Node3&#45;&gt;Node2</title>
<path fill="none" stroke="#63b8ff" d="M274.08,-165.35C267.76,-151.78 258.72,-126.05 271.77,-110.5 299.78,-77.12 432.44,-68.7 493.66,-66.58"/>
<polygon fill="#63b8ff" stroke="#63b8ff" points="493.68,-70.05 503.57,-66.25 493.46,-63.05 493.68,-70.05"/>
</g>
<!-- Node4 -->
<g id="node4" class="node">
<title>Node4</title>
<g id="a_node4"><a xlink:title=" ">
<polygon fill="#e0e0e0" stroke="#999999" points="80.14,-74.5 27.39,-74.5 27.39,-55.25 80.14,-55.25 80.14,-74.5"/>
<text text-anchor="middle" x="53.77" y="-61" font-family="Helvetica,sans-Serif" font-size="10.00">complex</text>
</a>
</g>
</g>
<!-- Node3&#45;&gt;Node4 -->
<g id="edge3" class="edge">
<title>Node3&#45;&gt;Node4</title>
<path fill="none" stroke="#63b8ff" d="M252.93,-174.23C190.94,-173.27 36.54,-167.11 4.77,-129.75 -8.94,-113.63 10.71,-94.23 29.05,-81.07"/>
<polygon fill="#63b8ff" stroke="#63b8ff" points="30.74,-83.48 37.07,-74.99 26.83,-77.68 30.74,-83.48"/>
</g>
<!-- Node5 -->
<g id="node5" class="node">
<title>Node5</title>
<g id="a_node5"><a xlink:title=" ">
<polygon fill="#e0e0e0" stroke="#999999" points="225.14,-129.75 166.39,-129.75 166.39,-110.5 225.14,-110.5 225.14,-129.75"/>
<text text-anchor="middle" x="195.77" y="-116.25" font-family="Helvetica,sans-Serif" font-size="10.00">stdexcept</text>
</a>
</g>
</g>
<!-- Node3&#45;&gt;Node5 -->
<g id="edge4" class="edge">
<title>Node3&#45;&gt;Node5</title>
<path fill="none" stroke="#63b8ff" d="M264.69,-165.34C252.17,-157.31 233.62,-145.41 218.92,-135.98"/>
<polygon fill="#63b8ff" stroke="#63b8ff" points="221.23,-132.66 210.92,-130.2 217.45,-138.55 221.23,-132.66"/>
</g>
<!-- Node6 -->
<g id="node6" class="node">
<title>Node6</title>
<g id="a_node6"><a xlink:title=" ">
<polygon fill="#e0e0e0" stroke="#999999" points="706.27,-74.5 663.27,-74.5 663.27,-55.25 706.27,-55.25 706.27,-74.5"/>
<text text-anchor="middle" x="684.77" y="-61" font-family="Helvetica,sans-Serif" font-size="10.00">vector</text>
</a>
</g>
</g>
<!-- Node3&#45;&gt;Node6 -->
<g id="edge6" class="edge">
<title>Node3&#45;&gt;Node6</title>
<path fill="none" stroke="#63b8ff" d="M304.59,-170.58C347.02,-164.06 433.93,-149.51 505.77,-129.75 558.32,-115.29 617.59,-92.9 653.02,-78.83"/>
<polygon fill="#63b8ff" stroke="#63b8ff" points="653.8,-81.88 661.78,-74.92 651.2,-75.38 653.8,-81.88"/>
</g>
<!-- Node7 -->
<g id="node7" class="node">
<title>Node7</title>
<g id="a_node7"><a xlink:title=" ">
<polygon fill="#e0e0e0" stroke="#999999" points="326.77,-129.75 280.77,-129.75 280.77,-110.5 326.77,-110.5 326.77,-129.75"/>
<text text-anchor="middle" x="303.77" y="-116.25" font-family="Helvetica,sans-Serif" font-size="10.00">fftw3.h</text>
</a>
</g>
</g>
<!-- Node3&#45;&gt;Node7 -->
<g id="edge7" class="edge">
<title>Node3&#45;&gt;Node7</title>
<path fill="none" stroke="#63b8ff" d="M282.9,-165.58C286.17,-158.61 290.86,-148.62 294.97,-139.87"/>
<polygon fill="#63b8ff" stroke="#63b8ff" points="298.47,-141.65 299.55,-131.11 292.13,-138.67 298.47,-141.65"/>
</g>
<!-- Node8 -->
<g id="node8" class="node">
<title>Node8</title>
<g id="a_node8"><a xlink:title=" ">
<polygon fill="#e0e0e0" stroke="#999999" points="436.64,-129.75 344.89,-129.75 344.89,-110.5 436.64,-110.5 436.64,-129.75"/>
<text text-anchor="middle" x="390.77" y="-116.25" font-family="Helvetica,sans-Serif" font-size="10.00">arrays/tensor3d.h</text>
</a>
</g>
</g>
<!-- Node3&#45;&gt;Node8 -->
<g id="edge8" class="edge">
<title>Node3&#45;&gt;Node8</title>
<path fill="none" stroke="#63b8ff" d="M297.77,-165.34C315.31,-157 341.61,-144.5 361.77,-134.91"/>
<polygon fill="#63b8ff" stroke="#63b8ff" points="363.15,-137.66 370.68,-130.2 360.14,-131.34 363.15,-137.66"/>
</g>
<!-- Node9 -->
<g id="node9" class="node">
<title>Node9</title>
<g id="a_node9"><a xlink:href="globals_8h.html" target="_top" xlink:title="Type definitions and global constants.">
<polygon fill="white" stroke="#666666" points="148.27,-129.75 93.27,-129.75 93.27,-110.5 148.27,-110.5 148.27,-129.75"/>
<text text-anchor="middle" x="120.77" y="-116.25" font-family="Helvetica,sans-Serif" font-size="10.00">globals.h</text>
</a>
</g>
</g>
<!-- Node3&#45;&gt;Node9 -->
<g id="edge9" class="edge">
<title>Node3&#45;&gt;Node9</title>
<path fill="none" stroke="#63b8ff" d="M252.68,-165.58C226.84,-156.87 187.03,-143.46 157.9,-133.64"/>
<polygon fill="#63b8ff" stroke="#63b8ff" points="159.29,-130.08 148.69,-130.2 157.05,-136.71 159.29,-130.08"/>
</g>
<!-- Node10 -->
<g id="node10" class="node">
<title>Node10</title>
<g id="a_node10"><a xlink:title=" ">
<polygon fill="#e0e0e0" stroke="#999999" points="75.27,-129.75 14.27,-129.75 14.27,-110.5 75.27,-110.5 75.27,-129.75"/>
<text text-anchor="middle" x="44.77" y="-116.25" font-family="Helvetica,sans-Serif" font-size="10.00">matlabio.h</text>
</a>
</g>
</g>
<!-- Node3&#45;&gt;Node10 -->
<g id="edge12" class="edge">
<title>Node3&#45;&gt;Node10</title>
<path fill="none" stroke="#63b8ff" d="M252.83,-168.47C212.54,-159.3 134.53,-141.55 86.33,-130.58"/>
<polygon fill="#63b8ff" stroke="#63b8ff" points="87.16,-126.95 76.63,-128.15 85.61,-133.78 87.16,-126.95"/>
</g>
<!-- Node11 -->
<g id="node11" class="node">
<title>Node11</title>
<g id="a_node11"><a xlink:href="utils_8h.html" target="_top" xlink:title="Useful miscellaneous utility functions.">
<polygon fill="white" stroke="#666666" points="496.89,-129.75 454.64,-129.75 454.64,-110.5 496.89,-110.5 496.89,-129.75"/>
<text text-anchor="middle" x="475.77" y="-116.25" font-family="Helvetica,sans-Serif" font-size="10.00">utils.h</text>
</a>
</g>
</g>
<!-- Node3&#45;&gt;Node11 -->
<g id="edge13" class="edge">
<title>Node3&#45;&gt;Node11</title>
<path fill="none" stroke="#63b8ff" d="M304.84,-167.57C335.75,-159.47 389.06,-145.38 443.6,-130.32"/>
<polygon fill="#63b8ff" stroke="#63b8ff" points="444.45,-133.44 453.15,-127.39 442.58,-126.69 444.45,-133.44"/>
</g>
<!-- Node9&#45;&gt;Node2 -->
<g id="edge11" class="edge">
<title>Node9&#45;&gt;Node2</title>
<path fill="none" stroke="#63b8ff" d="M148.58,-112.3C151.67,-111.65 154.78,-111.03 157.77,-110.5 281.23,-88.67 429.96,-74.17 493.52,-68.53"/>
<polygon fill="#63b8ff" stroke="#63b8ff" points="493.71,-71.94 503.36,-67.58 493.1,-64.96 493.71,-71.94"/>
</g>
<!-- Node9&#45;&gt;Node4 -->
<g id="edge10" class="edge">
<title>Node9&#45;&gt;Node4</title>
<path fill="none" stroke="#63b8ff" d="M109.4,-110.09C99.53,-102.24 85,-90.7 73.27,-81.37"/>
<polygon fill="#63b8ff" stroke="#63b8ff" points="75.97,-78.26 65.97,-74.77 71.62,-83.74 75.97,-78.26"/>
</g>
<!-- Node11&#45;&gt;Node2 -->
<g id="edge14" class="edge">
<title>Node11&#45;&gt;Node2</title>
<path fill="none" stroke="#63b8ff" d="M483.86,-110.33C490.7,-102.9 500.7,-92.04 509.09,-82.91"/>
<polygon fill="#63b8ff" stroke="#63b8ff" points="511.31,-85.59 515.5,-75.86 506.16,-80.85 511.31,-85.59"/>
</g>
<!-- Node12&#45;&gt;Node2 -->
<g id="edge16" class="edge">
<title>Node12&#45;&gt;Node2</title>
<path fill="none" stroke="#63b8ff" d="M671.4,-165.31C643.92,-146.68 580.84,-103.9 547.07,-81"/>
<polygon fill="#63b8ff" stroke="#63b8ff" points="549.23,-77.55 538.99,-74.84 545.3,-83.35 549.23,-77.55"/>
</g>
<!-- Node13 -->
<g id="node13" class="node">
<title>Node13</title>
<g id="a_node13"><a xlink:href="input__output__names_8h.html" target="_top" xlink:title="Constant values associated with the format of the input and output files and matrices.">
<polygon fill="white" stroke="#666666" points="740.77,-129.75 628.77,-129.75 628.77,-110.5 740.77,-110.5 740.77,-129.75"/>
<text text-anchor="middle" x="684.77" y="-116.25" font-family="Helvetica,sans-Serif" font-size="10.00">input_output_names.h</text>
</a>
</g>
</g>
<!-- Node12&#45;&gt;Node13 -->
<g id="edge17" class="edge">
<title>Node12&#45;&gt;Node13</title>
<path fill="none" stroke="#63b8ff" d="M684.77,-165.58C684.77,-158.92 684.77,-149.49 684.77,-141.03"/>
<polygon fill="#63b8ff" stroke="#63b8ff" points="688.27,-141.11 684.77,-131.11 681.27,-141.11 688.27,-141.11"/>
</g>
<!-- Node14 -->
<g id="node14" class="node">
<title>Node14</title>
<g id="a_node14"><a xlink:href="mat__io_8h.html" target="_top" xlink:title="Includes MATLAB headers for I/O.">
<polygon fill="white" stroke="#666666" points="872.52,-74.5 819.02,-74.5 819.02,-55.25 872.52,-55.25 872.52,-74.5"/>
<text text-anchor="middle" x="845.77" y="-61" font-family="Helvetica,sans-Serif" font-size="10.00">mat_io.h</text>
</a>
</g>
</g>
<!-- Node12&#45;&gt;Node14 -->
<g id="edge20" class="edge">
<title>Node12&#45;&gt;Node14</title>
<path fill="none" stroke="#63b8ff" d="M729.15,-169.66C777.16,-163.53 849.1,-151.02 865.77,-129.75 876.26,-116.35 868.21,-97.38 859.39,-83.59"/>
<polygon fill="#63b8ff" stroke="#63b8ff" points="861.7,-81.8 853.09,-75.63 855.97,-85.82 861.7,-81.8"/>
</g>
<!-- Node18 -->
<g id="node18" class="node">
<title>Node18</title>
<g id="a_node18"><a xlink:href="matrix__collection_8h.html" target="_top" xlink:title="A collection of named MATLAB matrices.">
<polygon fill="white" stroke="#666666" points="856.64,-129.75 758.89,-129.75 758.89,-110.5 856.64,-110.5 856.64,-129.75"/>
<text text-anchor="middle" x="807.77" y="-116.25" font-family="Helvetica,sans-Serif" font-size="10.00">matrix_collection.h</text>
</a>
</g>
</g>
<!-- Node12&#45;&gt;Node18 -->
<g id="edge24" class="edge">
<title>Node12&#45;&gt;Node18</title>
<path fill="none" stroke="#63b8ff" d="M705.63,-165.34C725.16,-156.89 754.58,-144.15 776.83,-134.52"/>
<polygon fill="#63b8ff" stroke="#63b8ff" points="778.02,-137.39 785.8,-130.2 775.23,-130.96 778.02,-137.39"/>
</g>
<!-- Node13&#45;&gt;Node2 -->
<g id="edge18" class="edge">
<title>Node13&#45;&gt;Node2</title>
<path fill="none" stroke="#63b8ff" d="M657.63,-110.09C629.2,-100.63 584.66,-85.81 555.09,-75.97"/>
<polygon fill="#63b8ff" stroke="#63b8ff" points="556.53,-72.42 545.93,-72.59 554.32,-79.07 556.53,-72.42"/>
</g>
<!-- Node13&#45;&gt;Node6 -->
<g id="edge19" class="edge">
<title>Node13&#45;&gt;Node6</title>
<path fill="none" stroke="#63b8ff" d="M684.77,-110.33C684.77,-103.67 684.77,-94.24 684.77,-85.78"/>
<polygon fill="#63b8ff" stroke="#63b8ff" points="688.27,-85.86 684.77,-75.86 681.27,-85.86 688.27,-85.86"/>
</g>
<!-- Node15 -->
<g id="node15" class="node">
<title>Node15</title>
<g id="a_node15"><a xlink:title=" ">
<polygon fill="#e0e0e0" stroke="#999999" points="802.14,-19.25 761.39,-19.25 761.39,0 802.14,0 802.14,-19.25"/>
<text text-anchor="middle" x="781.77" y="-5.75" font-family="Helvetica,sans-Serif" font-size="10.00">mat.h</text>
</a>
</g>
</g>
<!-- Node14&#45;&gt;Node15 -->
<g id="edge21" class="edge">
<title>Node14&#45;&gt;Node15</title>
<path fill="none" stroke="#63b8ff" d="M834.91,-54.84C825.57,-47.07 811.88,-35.67 800.73,-26.4"/>
<polygon fill="#63b8ff" stroke="#63b8ff" points="803.39,-23.23 793.47,-19.52 798.91,-28.61 803.39,-23.23"/>
</g>
<!-- Node16 -->
<g id="node16" class="node">
<title>Node16</title>
<g id="a_node16"><a xlink:title=" ">
<polygon fill="#e0e0e0" stroke="#999999" points="871.39,-19.25 820.14,-19.25 820.14,0 871.39,0 871.39,-19.25"/>
<text text-anchor="middle" x="845.77" y="-5.75" font-family="Helvetica,sans-Serif" font-size="10.00">matrix.h</text>
</a>
</g>
</g>
<!-- Node14&#45;&gt;Node16 -->
<g id="edge22" class="edge">
<title>Node14&#45;&gt;Node16</title>
<path fill="none" stroke="#63b8ff" d="M845.77,-55.08C845.77,-48.42 845.77,-38.99 845.77,-30.53"/>
<polygon fill="#63b8ff" stroke="#63b8ff" points="849.27,-30.61 845.77,-20.61 842.27,-30.61 849.27,-30.61"/>
</g>
<!-- Node17 -->
<g id="node17" class="node">
<title>Node17</title>
<g id="a_node17"><a xlink:title=" ">
<polygon fill="#e0e0e0" stroke="#999999" points="932.27,-19.25 889.27,-19.25 889.27,0 932.27,0 932.27,-19.25"/>
<text text-anchor="middle" x="910.77" y="-5.75" font-family="Helvetica,sans-Serif" font-size="10.00">mex.h</text>
</a>
</g>
</g>
<!-- Node14&#45;&gt;Node17 -->
<g id="edge23" class="edge">
<title>Node14&#45;&gt;Node17</title>
<path fill="none" stroke="#63b8ff" d="M856.8,-54.84C866.28,-47.07 880.19,-35.67 891.51,-26.4"/>
<polygon fill="#63b8ff" stroke="#63b8ff" points="893.39,-28.57 898.91,-19.52 888.95,-23.15 893.39,-28.57"/>
</g>
<!-- Node18&#45;&gt;Node2 -->
<g id="edge25" class="edge">
<title>Node18&#45;&gt;Node2</title>
<path fill="none" stroke="#63b8ff" d="M759.44,-110.03C701.15,-99.06 604.89,-80.95 555.73,-71.7"/>
<polygon fill="#63b8ff" stroke="#63b8ff" points="556.62,-68.12 546.15,-69.71 555.33,-75 556.62,-68.12"/>
</g>
<!-- Node18&#45;&gt;Node6 -->
<g id="edge26" class="edge">
<title>Node18&#45;&gt;Node6</title>
<path fill="none" stroke="#63b8ff" d="M786.9,-110.09C767.38,-101.64 737.96,-88.9 715.7,-79.27"/>
<polygon fill="#63b8ff" stroke="#63b8ff" points="717.3,-75.71 706.74,-74.95 714.52,-82.14 717.3,-75.71"/>
</g>
<!-- Node18&#45;&gt;Node14 -->
<g id="edge27" class="edge">
<title>Node18&#45;&gt;Node14</title>
<path fill="none" stroke="#63b8ff" d="M814.04,-110.33C819.18,-103.13 826.62,-92.71 833.01,-83.76"/>
<polygon fill="#63b8ff" stroke="#63b8ff" points="836.4,-86.03 839.36,-75.86 830.7,-81.97 836.4,-86.03"/>
</g>
</g>
</svg>
