<?xml version="1.0" encoding="UTF-8" standalone="no"?>
<!DOCTYPE svg PUBLIC "-//W3C//DTD SVG 1.1//EN"
 "http://www.w3.org/Graphics/SVG/1.1/DTD/svg11.dtd">
<!-- Generated by graphviz version 12.2.1 (20241206.2353)
 -->
<!-- Title: tdms/include/simulation_parameters.h Pages: 1 -->
<svg width="856pt" height="260pt"
 viewBox="0.00 0.00 855.50 259.50" xmlns="http://www.w3.org/2000/svg" xmlns:xlink="http://www.w3.org/1999/xlink">
<g id="graph0" class="graph" transform="scale(1 1) rotate(0) translate(4 255.5)">
<title>tdms/include/simulation_parameters.h</title>
<!-- Node1 -->
<g id="Node000001" class="node">
<title>Node1</title>
<g id="a_Node000001"><a xlink:title="Classes collecting parameters for the simulation.">
<polygon fill="#999999" stroke="#666666" points="544.38,-251.5 425.62,-251.5 425.62,-221 544.38,-221 544.38,-251.5"/>
<text text-anchor="start" x="433.62" y="-238" font-family="Helvetica,sans-Serif" font-size="10.00">tdms/include/simulation</text>
<text text-anchor="middle" x="485" y="-226.75" font-family="Helvetica,sans-Serif" font-size="10.00">_parameters.h</text>
</a>
</g>
</g>
<!-- Node2 -->
<g id="Node000002" class="node">
<title>Node2</title>
<g id="a_Node000002"><a xlink:title=" ">
<polygon fill="#e0e0e0" stroke="#999999" points="460,-74.5 420,-74.5 420,-55.25 460,-55.25 460,-74.5"/>
<text text-anchor="middle" x="440" y="-61" font-family="Helvetica,sans-Serif" font-size="10.00">string</text>
</a>
</g>
</g>
<!-- Node1&#45;&gt;Node2 -->
<g id="edge1_Node000001_Node000002" class="edge">
<title>Node1&#45;&gt;Node2</title>
<g id="a_edge1_Node000001_Node000002"><a xlink:title=" ">
<path fill="none" stroke="#63b8ff" d="M475.97,-220.84C470.25,-211.08 463.17,-197.69 459,-185 447.9,-151.27 443.17,-109.97 441.24,-85.92"/>
<polygon fill="#63b8ff" stroke="#63b8ff" points="444.76,-86.01 440.56,-76.28 437.77,-86.5 444.76,-86.01"/>
</a>
</g>
</g>
<!-- Node3 -->
<g id="Node000003" class="node">
<title>Node3</title>
<g id="a_Node000003"><a xlink:href="arrays_8h.html" target="_top" xlink:title="Classes describing arrays, vertices etc.">
<polygon fill="white" stroke="#666666" points="309.62,-185 258.38,-185 258.38,-165.75 309.62,-165.75 309.62,-185"/>
<text text-anchor="middle" x="284" y="-171.5" font-family="Helvetica,sans-Serif" font-size="10.00">arrays.h</text>
</a>
</g>
</g>
<!-- Node1&#45;&gt;Node3 -->
<g id="edge2_Node000001_Node000003" class="edge">
<title>Node1&#45;&gt;Node3</title>
<g id="a_edge2_Node000001_Node000003"><a xlink:title=" ">
<path fill="none" stroke="#63b8ff" d="M434.8,-220.55C399.33,-210.16 352.6,-196.47 320.61,-187.1"/>
<polygon fill="#63b8ff" stroke="#63b8ff" points="321.99,-183.86 311.41,-184.4 320.02,-190.57 321.99,-183.86"/>
</a>
</g>
</g>
<!-- Node13 -->
<g id="Node000013" class="node">
<title>Node13</title>
<g id="a_Node000013"><a xlink:title=" ">
<polygon fill="#e0e0e0" stroke="#999999" points="592,-185 468,-185 468,-165.75 592,-165.75 592,-185"/>
<text text-anchor="middle" x="530" y="-171.5" font-family="Helvetica,sans-Serif" font-size="10.00">arrays/vector_typedefs.h</text>
</a>
</g>
</g>
<!-- Node1&#45;&gt;Node13 -->
<g id="edge17_Node000001_Node000013" class="edge">
<title>Node1&#45;&gt;Node13</title>
<g id="a_edge17_Node000001_Node000013"><a xlink:title=" ">
<path fill="none" stroke="#63b8ff" d="M496.12,-220.7C502.18,-212.77 509.74,-202.88 516.18,-194.46"/>
<polygon fill="#63b8ff" stroke="#63b8ff" points="518.85,-196.72 522.14,-186.65 513.29,-192.47 518.85,-196.72"/>
</a>
</g>
</g>
<!-- Node14 -->
<g id="Node000014" class="node">
<title>Node14</title>
<g id="a_Node000014"><a xlink:href="input__matrices_8h.html" target="_top" xlink:title="Class handling the input matrices that are read in from the input file.">
<polygon fill="white" stroke="#666666" points="698,-185 610,-185 610,-165.75 698,-165.75 698,-185"/>
<text text-anchor="middle" x="654" y="-171.5" font-family="Helvetica,sans-Serif" font-size="10.00">input_matrices.h</text>
</a>
</g>
</g>
<!-- Node1&#45;&gt;Node14 -->
<g id="edge18_Node000001_Node000014" class="edge">
<title>Node1&#45;&gt;Node14</title>
<g id="a_edge18_Node000001_Node000014"><a xlink:title=" ">
<path fill="none" stroke="#63b8ff" d="M527.21,-220.55C554.93,-210.89 590.82,-198.38 617.34,-189.15"/>
<polygon fill="#63b8ff" stroke="#63b8ff" points="618.36,-192.5 626.65,-185.9 616.06,-185.89 618.36,-192.5"/>
</a>
</g>
</g>
<!-- Node3&#45;&gt;Node2 -->
<g id="edge5_Node000003_Node000002" class="edge">
<title>Node3&#45;&gt;Node2</title>
<g id="a_edge5_Node000003_Node000002"><a xlink:title=" ">
<path fill="none" stroke="#63b8ff" d="M309.98,-166.06C330.93,-158.59 360.5,-146.25 383,-129.75 400.55,-116.88 416.68,-97.83 427.26,-83.88"/>
<polygon fill="#63b8ff" stroke="#63b8ff" points="429.94,-86.14 433.04,-76.01 424.3,-82 429.94,-86.14"/>
</a>
</g>
</g>
<!-- Node4 -->
<g id="Node000004" class="node">
<title>Node4</title>
<g id="a_Node000004"><a xlink:title=" ">
<polygon fill="#e0e0e0" stroke="#999999" points="128.38,-74.5 75.62,-74.5 75.62,-55.25 128.38,-55.25 128.38,-74.5"/>
<text text-anchor="middle" x="102" y="-61" font-family="Helvetica,sans-Serif" font-size="10.00">complex</text>
</a>
</g>
</g>
<!-- Node3&#45;&gt;Node4 -->
<g id="edge3_Node000003_Node000004" class="edge">
<title>Node3&#45;&gt;Node4</title>
<g id="a_edge3_Node000003_Node000004"><a xlink:title=" ">
<path fill="none" stroke="#63b8ff" d="M257.97,-172.2C210.6,-167.66 113.32,-155.36 93,-129.75 83.1,-117.28 86.98,-98.95 92.38,-85.13"/>
<polygon fill="#63b8ff" stroke="#63b8ff" points="95.49,-86.74 96.38,-76.18 89.1,-83.88 95.49,-86.74"/>
</a>
</g>
</g>
<!-- Node5 -->
<g id="Node000005" class="node">
<title>Node5</title>
<g id="a_Node000005"><a xlink:title=" ">
<polygon fill="#e0e0e0" stroke="#999999" points="313.38,-129.75 254.62,-129.75 254.62,-110.5 313.38,-110.5 313.38,-129.75"/>
<text text-anchor="middle" x="284" y="-116.25" font-family="Helvetica,sans-Serif" font-size="10.00">stdexcept</text>
</a>
</g>
</g>
<!-- Node3&#45;&gt;Node5 -->
<g id="edge4_Node000003_Node000005" class="edge">
<title>Node3&#45;&gt;Node5</title>
<g id="a_edge4_Node000003_Node000005"><a xlink:title=" ">
<path fill="none" stroke="#63b8ff" d="M284,-165.58C284,-159.07 284,-149.92 284,-141.62"/>
<polygon fill="#63b8ff" stroke="#63b8ff" points="287.5,-141.62 284,-131.62 280.5,-141.62 287.5,-141.62"/>
</a>
</g>
</g>
<!-- Node6 -->
<g id="Node000006" class="node">
<title>Node6</title>
<g id="a_Node000006"><a xlink:title=" ">
<polygon fill="#e0e0e0" stroke="#999999" points="625.5,-74.5 582.5,-74.5 582.5,-55.25 625.5,-55.25 625.5,-74.5"/>
<text text-anchor="middle" x="604" y="-61" font-family="Helvetica,sans-Serif" font-size="10.00">vector</text>
</a>
</g>
</g>
<!-- Node3&#45;&gt;Node6 -->
<g id="edge6_Node000003_Node000006" class="edge">
<title>Node3&#45;&gt;Node6</title>
<g id="a_edge6_Node000003_Node000006"><a xlink:title=" ">
<path fill="none" stroke="#63b8ff" d="M309.86,-172.95C386.12,-168.47 606.07,-153.58 627,-129.75 638.39,-116.78 629.22,-97.75 619.29,-83.83"/>
<polygon fill="#63b8ff" stroke="#63b8ff" points="622.05,-81.68 613.13,-75.95 616.53,-85.99 622.05,-81.68"/>
</a>
</g>
</g>
<!-- Node7 -->
<g id="Node000007" class="node">
<title>Node7</title>
<g id="a_Node000007"><a xlink:title=" ">
<polygon fill="#e0e0e0" stroke="#999999" points="46,-129.75 0,-129.75 0,-110.5 46,-110.5 46,-129.75"/>
<text text-anchor="middle" x="23" y="-116.25" font-family="Helvetica,sans-Serif" font-size="10.00">fftw3.h</text>
</a>
</g>
</g>
<!-- Node3&#45;&gt;Node7 -->
<g id="edge7_Node000003_Node000007" class="edge">
<title>Node3&#45;&gt;Node7</title>
<g id="a_edge7_Node000003_Node000007"><a xlink:title=" ">
<path fill="none" stroke="#63b8ff" d="M258.07,-169.49C216.29,-161.56 131.51,-145.2 60,-129.75 59.18,-129.57 58.35,-129.39 57.51,-129.21"/>
<polygon fill="#63b8ff" stroke="#63b8ff" points="58.46,-125.83 47.94,-127.05 56.92,-132.66 58.46,-125.83"/>
</a>
</g>
</g>
<!-- Node8 -->
<g id="Node000008" class="node">
<title>Node8</title>
<g id="a_Node000008"><a xlink:href="globals_8h.html" target="_top" xlink:title="Type definitions and global constants.">
<polygon fill="white" stroke="#666666" points="157.5,-129.75 102.5,-129.75 102.5,-110.5 157.5,-110.5 157.5,-129.75"/>
<text text-anchor="middle" x="130" y="-116.25" font-family="Helvetica,sans-Serif" font-size="10.00">globals.h</text>
</a>
</g>
</g>
<!-- Node3&#45;&gt;Node8 -->
<g id="edge8_Node000003_Node000008" class="edge">
<title>Node3&#45;&gt;Node8</title>
<g id="a_edge8_Node000003_Node000008"><a xlink:title=" ">
<path fill="none" stroke="#63b8ff" d="M257.88,-165.34C232.88,-156.7 194.92,-143.57 166.85,-133.87"/>
<polygon fill="#63b8ff" stroke="#63b8ff" points="168.28,-130.66 157.68,-130.7 165.99,-137.27 168.28,-130.66"/>
</a>
</g>
</g>
<!-- Node9 -->
<g id="Node000009" class="node">
<title>Node9</title>
<g id="a_Node000009"><a xlink:title=" ">
<polygon fill="#e0e0e0" stroke="#999999" points="236.5,-129.75 175.5,-129.75 175.5,-110.5 236.5,-110.5 236.5,-129.75"/>
<text text-anchor="middle" x="206" y="-116.25" font-family="Helvetica,sans-Serif" font-size="10.00">matlabio.h</text>
</a>
</g>
</g>
<!-- Node3&#45;&gt;Node9 -->
<g id="edge11_Node000003_Node000009" class="edge">
<title>Node3&#45;&gt;Node9</title>
<g id="a_edge11_Node000003_Node000009"><a xlink:title=" ">
<path fill="none" stroke="#63b8ff" d="M270.77,-165.34C259.23,-157.46 242.23,-145.86 228.55,-136.52"/>
<polygon fill="#63b8ff" stroke="#63b8ff" points="230.78,-133.8 220.55,-131.06 226.83,-139.58 230.78,-133.8"/>
</a>
</g>
</g>
<!-- Node10 -->
<g id="Node000010" class="node">
<title>Node10</title>
<g id="a_Node000010"><a xlink:href="utils_8h.html" target="_top" xlink:title="Useful miscellaneous utility functions.">
<polygon fill="white" stroke="#666666" points="374.12,-129.75 331.88,-129.75 331.88,-110.5 374.12,-110.5 374.12,-129.75"/>
<text text-anchor="middle" x="353" y="-116.25" font-family="Helvetica,sans-Serif" font-size="10.00">utils.h</text>
</a>
</g>
</g>
<!-- Node3&#45;&gt;Node10 -->
<g id="edge12_Node000003_Node000010" class="edge">
<title>Node3&#45;&gt;Node10</title>
<g id="a_edge12_Node000003_Node000010"><a xlink:title=" ">
<path fill="none" stroke="#63b8ff" d="M295.7,-165.34C305.78,-157.57 320.54,-146.17 332.56,-136.9"/>
<polygon fill="#63b8ff" stroke="#63b8ff" points="334.49,-139.83 340.27,-130.95 330.21,-134.29 334.49,-139.83"/>
</a>
</g>
</g>
<!-- Node8&#45;&gt;Node2 -->
<g id="edge10_Node000008_Node000002" class="edge">
<title>Node8&#45;&gt;Node2</title>
<g id="a_edge10_Node000008_Node000002"><a xlink:title=" ">
<path fill="none" stroke="#63b8ff" d="M157.86,-112.21C160.6,-111.6 163.35,-111.02 166,-110.5 269.25,-90.22 296.52,-93.6 400,-74.5 402.81,-73.98 405.73,-73.41 408.65,-72.82"/>
<polygon fill="#63b8ff" stroke="#63b8ff" points="409.15,-76.29 418.22,-70.81 407.71,-69.44 409.15,-76.29"/>
</a>
</g>
</g>
<!-- Node8&#45;&gt;Node4 -->
<g id="edge9_Node000008_Node000004" class="edge">
<title>Node8&#45;&gt;Node4</title>
<g id="a_edge9_Node000008_Node000004"><a xlink:title=" ">
<path fill="none" stroke="#63b8ff" d="M125.38,-110.33C121.75,-103.44 116.57,-93.59 112.01,-84.91"/>
<polygon fill="#63b8ff" stroke="#63b8ff" points="115.18,-83.42 107.43,-76.2 108.98,-86.68 115.18,-83.42"/>
</a>
</g>
</g>
<!-- Node10&#45;&gt;Node2 -->
<g id="edge15_Node000010_Node000002" class="edge">
<title>Node10&#45;&gt;Node2</title>
<g id="a_edge15_Node000010_Node000002"><a xlink:title=" ">
<path fill="none" stroke="#63b8ff" d="M367.76,-110.09C380.88,-102.06 400.32,-90.16 415.73,-80.73"/>
<polygon fill="#63b8ff" stroke="#63b8ff" points="417.18,-83.95 423.88,-75.74 413.52,-77.98 417.18,-83.95"/>
</a>
</g>
</g>
<!-- Node10&#45;&gt;Node6 -->
<g id="edge16_Node000010_Node000006" class="edge">
<title>Node10&#45;&gt;Node6</title>
<g id="a_edge16_Node000010_Node000006"><a xlink:title=" ">
<path fill="none" stroke="#63b8ff" d="M374.4,-114.58C418.38,-105.26 519.15,-83.88 571.34,-72.8"/>
<polygon fill="#63b8ff" stroke="#63b8ff" points="571.76,-76.29 580.82,-70.79 570.31,-69.44 571.76,-76.29"/>
</a>
</g>
</g>
<!-- Node11 -->
<g id="Node000011" class="node">
<title>Node11</title>
<g id="a_Node000011"><a xlink:title=" ">
<polygon fill="#e0e0e0" stroke="#999999" points="390.88,-74.5 335.12,-74.5 335.12,-55.25 390.88,-55.25 390.88,-74.5"/>
<text text-anchor="middle" x="363" y="-61" font-family="Helvetica,sans-Serif" font-size="10.00">algorithm</text>
</a>
</g>
</g>
<!-- Node10&#45;&gt;Node11 -->
<g id="edge13_Node000010_Node000011" class="edge">
<title>Node10&#45;&gt;Node11</title>
<g id="a_edge13_Node000010_Node000011"><a xlink:title=" ">
<path fill="none" stroke="#63b8ff" d="M354.65,-110.33C355.89,-103.74 357.63,-94.46 359.21,-86.07"/>
<polygon fill="#63b8ff" stroke="#63b8ff" points="362.63,-86.82 361.03,-76.35 355.75,-85.53 362.63,-86.82"/>
</a>
</g>
</g>
<!-- Node12 -->
<g id="Node000012" class="node">
<title>Node12</title>
<g id="a_Node000012"><a xlink:title=" ">
<polygon fill="#e0e0e0" stroke="#999999" points="317,-74.5 271,-74.5 271,-55.25 317,-55.25 317,-74.5"/>
<text text-anchor="middle" x="294" y="-61" font-family="Helvetica,sans-Serif" font-size="10.00">iterator</text>
</a>
</g>
</g>
<!-- Node10&#45;&gt;Node12 -->
<g id="edge14_Node000010_Node000012" class="edge">
<title>Node10&#45;&gt;Node12</title>
<g id="a_edge14_Node000010_Node000012"><a xlink:title=" ">
<path fill="none" stroke="#63b8ff" d="M342.99,-110.09C334.63,-102.55 322.5,-91.6 312.4,-82.48"/>
<polygon fill="#63b8ff" stroke="#63b8ff" points="314.75,-79.89 304.98,-75.79 310.06,-85.09 314.75,-79.89"/>
</a>
</g>
</g>
<!-- Node14&#45;&gt;Node2 -->
<g id="edge19_Node000014_Node000002" class="edge">
<title>Node14&#45;&gt;Node2</title>
<g id="a_edge19_Node000014_Node000002"><a xlink:title=" ">
<path fill="none" stroke="#63b8ff" d="M612.43,-165.33C572.74,-156.21 516.21,-141.78 497,-129.75 478.35,-118.07 462.21,-98.53 451.91,-84.14"/>
<polygon fill="#63b8ff" stroke="#63b8ff" points="454.88,-82.28 446.34,-76 449.1,-86.23 454.88,-82.28"/>
</a>
</g>
</g>
<!-- Node15 -->
<g id="Node000015" class="node">
<title>Node15</title>
<g id="a_Node000015"><a xlink:href="input__output__names_8h.html" target="_top" xlink:title="Constant values associated with the format of the input and output files and matrices.">
<polygon fill="white" stroke="#666666" points="618,-129.75 506,-129.75 506,-110.5 618,-110.5 618,-129.75"/>
<text text-anchor="middle" x="562" y="-116.25" font-family="Helvetica,sans-Serif" font-size="10.00">input_output_names.h</text>
</a>
</g>
</g>
<!-- Node14&#45;&gt;Node15 -->
<g id="edge20_Node000014_Node000015" class="edge">
<title>Node14&#45;&gt;Node15</title>
<g id="a_edge20_Node000014_Node000015"><a xlink:title=" ">
<path fill="none" stroke="#63b8ff" d="M638.39,-165.34C624.38,-157.23 603.57,-145.18 587.2,-135.71"/>
<polygon fill="#63b8ff" stroke="#63b8ff" points="589.4,-132.94 578.99,-130.96 585.89,-139 589.4,-132.94"/>
</a>
</g>
</g>
<!-- Node16 -->
<g id="Node000016" class="node">
<title>Node16</title>
<g id="a_Node000016"><a xlink:href="mat__io_8h.html" target="_top" xlink:title="Includes MATLAB headers for I/O.">
<polygon fill="white" stroke="#666666" points="787.75,-74.5 734.25,-74.5 734.25,-55.25 787.75,-55.25 787.75,-74.5"/>
<text text-anchor="middle" x="761" y="-61" font-family="Helvetica,sans-Serif" font-size="10.00">mat_io.h</text>
</a>
</g>
</g>
<!-- Node14&#45;&gt;Node16 -->
<g id="edge23_Node000014_Node000016" class="edge">
<title>Node14&#45;&gt;Node16</title>
<g id="a_edge23_Node000014_Node000016"><a xlink:title=" ">
<path fill="none" stroke="#63b8ff" d="M698.19,-171.44C726.91,-166.98 762.35,-156.06 781,-129.75 790.64,-116.15 783.2,-97.74 774.79,-84.17"/>
<polygon fill="#63b8ff" stroke="#63b8ff" points="777.83,-82.43 769.29,-76.16 772.06,-86.38 777.83,-82.43"/>
</a>
</g>
</g>
<!-- Node20 -->
<g id="Node000020" class="node">
<title>Node20</title>
<g id="a_Node000020"><a xlink:href="matrix__collection_8h.html" target="_top" xlink:title="A collection of named MATLAB matrices.">
<polygon fill="white" stroke="#666666" points="771.88,-129.75 674.12,-129.75 674.12,-110.5 771.88,-110.5 771.88,-129.75"/>
<text text-anchor="middle" x="723" y="-116.25" font-family="Helvetica,sans-Serif" font-size="10.00">matrix_collection.h</text>
</a>
</g>
</g>
<!-- Node14&#45;&gt;Node20 -->
<g id="edge27_Node000014_Node000020" class="edge">
<title>Node14&#45;&gt;Node20</title>
<g id="a_edge27_Node000014_Node000020"><a xlink:title=" ">
<path fill="none" stroke="#63b8ff" d="M665.7,-165.34C675.78,-157.57 690.54,-146.17 702.56,-136.9"/>
<polygon fill="#63b8ff" stroke="#63b8ff" points="704.49,-139.83 710.27,-130.95 700.21,-134.29 704.49,-139.83"/>
</a>
</g>
</g>
<!-- Node15&#45;&gt;Node2 -->
<g id="edge21_Node000015_Node000002" class="edge">
<title>Node15&#45;&gt;Node2</title>
<g id="a_edge21_Node000015_Node000002"><a xlink:title=" ">
<path fill="none" stroke="#63b8ff" d="M541.3,-110.09C522,-101.66 492.94,-88.98 470.89,-79.36"/>
<polygon fill="#63b8ff" stroke="#63b8ff" points="472.34,-76.17 461.78,-75.38 469.54,-82.59 472.34,-76.17"/>
</a>
</g>
</g>
<!-- Node15&#45;&gt;Node6 -->
<g id="edge22_Node000015_Node000006" class="edge">
<title>Node15&#45;&gt;Node6</title>
<g id="a_edge22_Node000015_Node000006"><a xlink:title=" ">
<path fill="none" stroke="#63b8ff" d="M568.94,-110.33C574.62,-103.13 582.84,-92.71 589.89,-83.76"/>
<polygon fill="#63b8ff" stroke="#63b8ff" points="592.53,-86.07 595.98,-76.05 587.04,-81.73 592.53,-86.07"/>
</a>
</g>
</g>
<!-- Node17 -->
<g id="Node000017" class="node">
<title>Node17</title>
<g id="a_Node000017"><a xlink:title=" ">
<polygon fill="#e0e0e0" stroke="#999999" points="717.38,-19.25 676.62,-19.25 676.62,0 717.38,0 717.38,-19.25"/>
<text text-anchor="middle" x="697" y="-5.75" font-family="Helvetica,sans-Serif" font-size="10.00">mat.h</text>
</a>
</g>
</g>
<!-- Node16&#45;&gt;Node17 -->
<g id="edge24_Node000016_Node000017" class="edge">
<title>Node16&#45;&gt;Node17</title>
<g id="a_edge24_Node000016_Node000017"><a xlink:title=" ">
<path fill="none" stroke="#63b8ff" d="M750.14,-54.84C740.89,-47.15 727.38,-35.9 716.29,-26.68"/>
<polygon fill="#63b8ff" stroke="#63b8ff" points="718.79,-24.2 708.86,-20.49 714.31,-29.58 718.79,-24.2"/>
</a>
</g>
</g>
<!-- Node18 -->
<g id="Node000018" class="node">
<title>Node18</title>
<g id="a_Node000018"><a xlink:title=" ">
<polygon fill="#e0e0e0" stroke="#999999" points="786.62,-19.25 735.38,-19.25 735.38,0 786.62,0 786.62,-19.25"/>
<text text-anchor="middle" x="761" y="-5.75" font-family="Helvetica,sans-Serif" font-size="10.00">matrix.h</text>
</a>
</g>
</g>
<!-- Node16&#45;&gt;Node18 -->
<g id="edge25_Node000016_Node000018" class="edge">
<title>Node16&#45;&gt;Node18</title>
<g id="a_edge25_Node000016_Node000018"><a xlink:title=" ">
<path fill="none" stroke="#63b8ff" d="M761,-55.08C761,-48.57 761,-39.42 761,-31.12"/>
<polygon fill="#63b8ff" stroke="#63b8ff" points="764.5,-31.12 761,-21.12 757.5,-31.12 764.5,-31.12"/>
</a>
</g>
</g>
<!-- Node19 -->
<g id="Node000019" class="node">
<title>Node19</title>
<g id="a_Node000019"><a xlink:title=" ">
<polygon fill="#e0e0e0" stroke="#999999" points="847.5,-19.25 804.5,-19.25 804.5,0 847.5,0 847.5,-19.25"/>
<text text-anchor="middle" x="826" y="-5.75" font-family="Helvetica,sans-Serif" font-size="10.00">mex.h</text>
</a>
</g>
</g>
<!-- Node16&#45;&gt;Node19 -->
<g id="edge26_Node000016_Node000019" class="edge">
<title>Node16&#45;&gt;Node19</title>
<g id="a_edge26_Node000016_Node000019"><a xlink:title=" ">
<path fill="none" stroke="#63b8ff" d="M772.03,-54.84C781.42,-47.15 795.15,-35.9 806.41,-26.68"/>
<polygon fill="#63b8ff" stroke="#63b8ff" points="808.45,-29.53 813.97,-20.48 804.01,-24.11 808.45,-29.53"/>
</a>
</g>
</g>
<!-- Node20&#45;&gt;Node2 -->
<g id="edge28_Node000020_Node000002" class="edge">
<title>Node20&#45;&gt;Node2</title>
<g id="a_edge28_Node000020_Node000002"><a xlink:title=" ">
<path fill="none" stroke="#63b8ff" d="M674.67,-110.03C616.63,-99.11 520.93,-81.1 471.59,-71.82"/>
<polygon fill="#63b8ff" stroke="#63b8ff" points="472.34,-68.4 461.86,-69.99 471.04,-75.28 472.34,-68.4"/>
</a>
</g>
</g>
<!-- Node20&#45;&gt;Node6 -->
<g id="edge29_Node000020_Node000006" class="edge">
<title>Node20&#45;&gt;Node6</title>
<g id="a_edge29_Node000020_Node000006"><a xlink:title=" ">
<path fill="none" stroke="#63b8ff" d="M702.81,-110.09C684.09,-101.72 655.98,-89.13 634.52,-79.53"/>
<polygon fill="#63b8ff" stroke="#63b8ff" points="636.22,-76.46 625.67,-75.57 633.37,-82.85 636.22,-76.46"/>
</a>
</g>
</g>
<!-- Node20&#45;&gt;Node16 -->
<g id="edge30_Node000020_Node000016" class="edge">
<title>Node20&#45;&gt;Node16</title>
<g id="a_edge30_Node000020_Node000016"><a xlink:title=" ">
<path fill="none" stroke="#63b8ff" d="M729.27,-110.33C734.36,-103.21 741.7,-92.93 748.03,-84.05"/>
<polygon fill="#63b8ff" stroke="#63b8ff" points="750.75,-86.26 753.71,-76.09 745.05,-82.2 750.75,-86.26"/>
</a>
</g>
</g>
</g>
</svg>
