<?xml version="1.0" encoding="UTF-8" standalone="no"?>
<!DOCTYPE svg PUBLIC "-//W3C//DTD SVG 1.1//EN"
 "http://www.w3.org/Graphics/SVG/1.1/DTD/svg11.dtd">
<!-- Generated by graphviz version 8.0.5 (20230430.1635)
 -->
<!-- Title: tdms/include/simulation_parameters.h Pages: 1 -->
<svg width="818pt" height="260pt"
 viewBox="0.00 0.00 818.00 259.50" xmlns="http://www.w3.org/2000/svg" xmlns:xlink="http://www.w3.org/1999/xlink">
<g id="graph0" class="graph" transform="scale(1 1) rotate(0) translate(4 255.5)">
<title>tdms/include/simulation_parameters.h</title>
<!-- Node1 -->
<g id="node1" class="node">
<title>Node1</title>
<g id="a_node1"><a xlink:title="Classes collecting parameters for the simulation.">
<polygon fill="#999999" stroke="#666666" points="499.88,-251.5 381.12,-251.5 381.12,-221 499.88,-221 499.88,-251.5"/>
<text text-anchor="start" x="389.12" y="-238" font-family="Helvetica,sans-Serif" font-size="10.00">tdms/include/simulation</text>
<text text-anchor="middle" x="440.5" y="-226.75" font-family="Helvetica,sans-Serif" font-size="10.00">_parameters.h</text>
</a>
</g>
</g>
<!-- Node2 -->
<g id="node2" class="node">
<title>Node2</title>
<g id="a_node2"><a xlink:title=" ">
<polygon fill="#e0e0e0" stroke="#999999" points="460.5,-74.5 420.5,-74.5 420.5,-55.25 460.5,-55.25 460.5,-74.5"/>
<text text-anchor="middle" x="440.5" y="-61" font-family="Helvetica,sans-Serif" font-size="10.00">string</text>
</a>
</g>
</g>
<!-- Node1&#45;&gt;Node2 -->
<g id="edge1" class="edge">
<title>Node1&#45;&gt;Node2</title>
<path fill="none" stroke="#63b8ff" d="M440.5,-220.52C440.5,-190.12 440.5,-120.44 440.5,-85.96"/>
<polygon fill="#63b8ff" stroke="#63b8ff" points="444,-85.99 440.5,-75.99 437,-85.99 444,-85.99"/>
</g>
<!-- Node3 -->
<g id="node3" class="node">
<title>Node3</title>
<g id="a_node3"><a xlink:href="arrays_8h.html" target="_top" xlink:title="Classes describing arrays, vertices etc.">
<polygon fill="white" stroke="#666666" points="252.12,-185 200.88,-185 200.88,-165.75 252.12,-165.75 252.12,-185"/>
<text text-anchor="middle" x="226.5" y="-171.5" font-family="Helvetica,sans-Serif" font-size="10.00">arrays.h</text>
</a>
</g>
</g>
<!-- Node1&#45;&gt;Node3 -->
<g id="edge2" class="edge">
<title>Node1&#45;&gt;Node3</title>
<path fill="none" stroke="#63b8ff" d="M387.05,-220.55C348.29,-209.88 296.89,-195.74 262.81,-186.36"/>
<polygon fill="#63b8ff" stroke="#63b8ff" points="263.96,-182.78 253.39,-183.5 262.1,-189.53 263.96,-182.78"/>
</g>
<!-- Node10 -->
<g id="node10" class="node">
<title>Node10</title>
<g id="a_node10"><a xlink:href="input__matrices_8h.html" target="_top" xlink:title="Class handling the input matrices that are read in from the input file.">
<polygon fill="white" stroke="#666666" points="606.5,-185 518.5,-185 518.5,-165.75 606.5,-165.75 606.5,-185"/>
<text text-anchor="middle" x="562.5" y="-171.5" font-family="Helvetica,sans-Serif" font-size="10.00">input_matrices.h</text>
</a>
</g>
</g>
<!-- Node1&#45;&gt;Node10 -->
<g id="edge13" class="edge">
<title>Node1&#45;&gt;Node10</title>
<path fill="none" stroke="#63b8ff" d="M470.97,-220.55C490.27,-211.23 515.05,-199.27 533.96,-190.15"/>
<polygon fill="#63b8ff" stroke="#63b8ff" points="535.31,-192.9 542.79,-185.4 532.26,-186.6 535.31,-192.9"/>
</g>
<!-- Node3&#45;&gt;Node2 -->
<g id="edge5" class="edge">
<title>Node3&#45;&gt;Node2</title>
<path fill="none" stroke="#63b8ff" d="M222.07,-165.38C216.11,-151.86 207.67,-126.19 220.5,-110.5 243.99,-81.77 354.29,-71.09 409.24,-67.5"/>
<polygon fill="#63b8ff" stroke="#63b8ff" points="409.3,-70.94 419.07,-66.84 408.88,-63.96 409.3,-70.94"/>
</g>
<!-- Node4 -->
<g id="node4" class="node">
<title>Node4</title>
<g id="a_node4"><a xlink:title=" ">
<polygon fill="#e0e0e0" stroke="#999999" points="143.88,-74.5 91.12,-74.5 91.12,-55.25 143.88,-55.25 143.88,-74.5"/>
<text text-anchor="middle" x="117.5" y="-61" font-family="Helvetica,sans-Serif" font-size="10.00">complex</text>
</a>
</g>
</g>
<!-- Node3&#45;&gt;Node4 -->
<g id="edge3" class="edge">
<title>Node3&#45;&gt;Node4</title>
<path fill="none" stroke="#63b8ff" d="M200.41,-172.77C172.39,-169.49 129.11,-159.57 108.5,-129.75 99.36,-116.52 103.3,-98.03 108.53,-84.35"/>
<polygon fill="#63b8ff" stroke="#63b8ff" points="111.99,-86.16 112.77,-75.6 105.58,-83.37 111.99,-86.16"/>
</g>
<!-- Node5 -->
<g id="node5" class="node">
<title>Node5</title>
<g id="a_node5"><a xlink:title=" ">
<polygon fill="#e0e0e0" stroke="#999999" points="348.88,-129.75 290.12,-129.75 290.12,-110.5 348.88,-110.5 348.88,-129.75"/>
<text text-anchor="middle" x="319.5" y="-116.25" font-family="Helvetica,sans-Serif" font-size="10.00">stdexcept</text>
</a>
</g>
</g>
<!-- Node3&#45;&gt;Node5 -->
<g id="edge4" class="edge">
<title>Node3&#45;&gt;Node5</title>
<path fill="none" stroke="#63b8ff" d="M242.28,-165.34C256.57,-157.16 277.88,-144.96 294.49,-135.44"/>
<polygon fill="#63b8ff" stroke="#63b8ff" points="295.71,-138.21 302.65,-130.2 292.23,-132.13 295.71,-138.21"/>
</g>
<!-- Node6 -->
<g id="node6" class="node">
<title>Node6</title>
<g id="a_node6"><a xlink:title=" ">
<polygon fill="#e0e0e0" stroke="#999999" points="412.5,-129.75 366.5,-129.75 366.5,-110.5 412.5,-110.5 412.5,-129.75"/>
<text text-anchor="middle" x="389.5" y="-116.25" font-family="Helvetica,sans-Serif" font-size="10.00">fftw3.h</text>
</a>
</g>
</g>
<!-- Node3&#45;&gt;Node6 -->
<g id="edge6" class="edge">
<title>Node3&#45;&gt;Node6</title>
<path fill="none" stroke="#63b8ff" d="M252.33,-165.94C280.35,-156.78 325.2,-142.13 355.94,-132.09"/>
<polygon fill="#63b8ff" stroke="#63b8ff" points="356.75,-135.18 365.17,-128.75 354.58,-128.53 356.75,-135.18"/>
</g>
<!-- Node7 -->
<g id="node7" class="node">
<title>Node7</title>
<g id="a_node7"><a xlink:href="globals_8h.html" target="_top" xlink:title="Type definitions and global constants.">
<polygon fill="white" stroke="#666666" points="173,-129.75 118,-129.75 118,-110.5 173,-110.5 173,-129.75"/>
<text text-anchor="middle" x="145.5" y="-116.25" font-family="Helvetica,sans-Serif" font-size="10.00">globals.h</text>
</a>
</g>
</g>
<!-- Node3&#45;&gt;Node7 -->
<g id="edge7" class="edge">
<title>Node3&#45;&gt;Node7</title>
<path fill="none" stroke="#63b8ff" d="M212.76,-165.34C200.54,-157.31 182.44,-145.41 168.09,-135.98"/>
<polygon fill="#63b8ff" stroke="#63b8ff" points="170.59,-132.77 160.31,-130.2 166.74,-138.62 170.59,-132.77"/>
</g>
<!-- Node8 -->
<g id="node8" class="node">
<title>Node8</title>
<g id="a_node8"><a xlink:title=" ">
<polygon fill="#e0e0e0" stroke="#999999" points="61,-129.75 0,-129.75 0,-110.5 61,-110.5 61,-129.75"/>
<text text-anchor="middle" x="30.5" y="-116.25" font-family="Helvetica,sans-Serif" font-size="10.00">matlabio.h</text>
</a>
</g>
</g>
<!-- Node3&#45;&gt;Node8 -->
<g id="edge10" class="edge">
<title>Node3&#45;&gt;Node8</title>
<path fill="none" stroke="#63b8ff" d="M200.47,-167.3C167.63,-158.38 110.77,-142.93 71.93,-132.38"/>
<polygon fill="#63b8ff" stroke="#63b8ff" points="73.05,-128.79 62.49,-129.54 71.22,-135.54 73.05,-128.79"/>
</g>
<!-- Node9 -->
<g id="node9" class="node">
<title>Node9</title>
<g id="a_node9"><a xlink:href="utils_8h.html" target="_top" xlink:title="Useful miscellaneous utility functions.">
<polygon fill="white" stroke="#666666" points="271.62,-129.75 229.38,-129.75 229.38,-110.5 271.62,-110.5 271.62,-129.75"/>
<text text-anchor="middle" x="250.5" y="-116.25" font-family="Helvetica,sans-Serif" font-size="10.00">utils.h</text>
</a>
</g>
</g>
<!-- Node3&#45;&gt;Node9 -->
<g id="edge11" class="edge">
<title>Node3&#45;&gt;Node9</title>
<path fill="none" stroke="#63b8ff" d="M230.46,-165.58C233.61,-158.61 238.11,-148.62 242.05,-139.87"/>
<polygon fill="#63b8ff" stroke="#63b8ff" points="245.53,-141.66 246.45,-131.11 239.15,-138.79 245.53,-141.66"/>
</g>
<!-- Node7&#45;&gt;Node2 -->
<g id="edge9" class="edge">
<title>Node7&#45;&gt;Node2</title>
<path fill="none" stroke="#63b8ff" d="M173.49,-113.26C178.17,-112.32 182.97,-111.37 187.5,-110.5 267.23,-95.28 361.47,-79.15 409.28,-71.09"/>
<polygon fill="#63b8ff" stroke="#63b8ff" points="409.85,-74.38 419.13,-69.27 408.69,-67.47 409.85,-74.38"/>
</g>
<!-- Node7&#45;&gt;Node4 -->
<g id="edge8" class="edge">
<title>Node7&#45;&gt;Node4</title>
<path fill="none" stroke="#63b8ff" d="M140.88,-110.33C137.17,-103.28 131.84,-93.15 127.21,-84.33"/>
<polygon fill="#63b8ff" stroke="#63b8ff" points="129.98,-83.08 122.22,-75.86 123.78,-86.34 129.98,-83.08"/>
</g>
<!-- Node9&#45;&gt;Node2 -->
<g id="edge12" class="edge">
<title>Node9&#45;&gt;Node2</title>
<path fill="none" stroke="#63b8ff" d="M271.93,-113.12C305.64,-103.67 371.19,-85.3 409.87,-74.46"/>
<polygon fill="#63b8ff" stroke="#63b8ff" points="410.33,-77.68 419.02,-71.62 408.44,-70.94 410.33,-77.68"/>
</g>
<!-- Node10&#45;&gt;Node2 -->
<g id="edge14" class="edge">
<title>Node10&#45;&gt;Node2</title>
<path fill="none" stroke="#63b8ff" d="M547.3,-165.4C533.63,-157 513.32,-143.68 497.5,-129.75 481.19,-115.39 464.91,-96.59 453.95,-83.11"/>
<polygon fill="#63b8ff" stroke="#63b8ff" points="456.25,-81.38 447.28,-75.75 450.78,-85.75 456.25,-81.38"/>
</g>
<!-- Node11 -->
<g id="node11" class="node">
<title>Node11</title>
<g id="a_node11"><a xlink:href="input__output__names_8h.html" target="_top" xlink:title="Constant values associated with the format of the input and output files and matrices.">
<polygon fill="white" stroke="#666666" points="618.5,-129.75 506.5,-129.75 506.5,-110.5 618.5,-110.5 618.5,-129.75"/>
<text text-anchor="middle" x="562.5" y="-116.25" font-family="Helvetica,sans-Serif" font-size="10.00">input_output_names.h</text>
</a>
</g>
</g>
<!-- Node10&#45;&gt;Node11 -->
<g id="edge15" class="edge">
<title>Node10&#45;&gt;Node11</title>
<path fill="none" stroke="#63b8ff" d="M562.5,-165.58C562.5,-158.92 562.5,-149.49 562.5,-141.03"/>
<polygon fill="#63b8ff" stroke="#63b8ff" points="566,-141.11 562.5,-131.11 559,-141.11 566,-141.11"/>
</g>
<!-- Node13 -->
<g id="node13" class="node">
<title>Node13</title>
<g id="a_node13"><a xlink:href="mat__io_8h.html" target="_top" xlink:title="Includes MATLAB headers for I/O.">
<polygon fill="white" stroke="#666666" points="750.25,-74.5 696.75,-74.5 696.75,-55.25 750.25,-55.25 750.25,-74.5"/>
<text text-anchor="middle" x="723.5" y="-61" font-family="Helvetica,sans-Serif" font-size="10.00">mat_io.h</text>
</a>
</g>
</g>
<!-- Node10&#45;&gt;Node13 -->
<g id="edge18" class="edge">
<title>Node10&#45;&gt;Node13</title>
<path fill="none" stroke="#63b8ff" d="M606.88,-169.66C654.89,-163.53 726.83,-151.02 743.5,-129.75 754,-116.35 745.94,-97.38 737.12,-83.59"/>
<polygon fill="#63b8ff" stroke="#63b8ff" points="739.43,-81.8 730.82,-75.63 733.7,-85.82 739.43,-81.8"/>
</g>
<!-- Node17 -->
<g id="node17" class="node">
<title>Node17</title>
<g id="a_node17"><a xlink:href="matrix__collection_8h.html" target="_top" xlink:title="A collection of named MATLAB matrices.">
<polygon fill="white" stroke="#666666" points="734.38,-129.75 636.62,-129.75 636.62,-110.5 734.38,-110.5 734.38,-129.75"/>
<text text-anchor="middle" x="685.5" y="-116.25" font-family="Helvetica,sans-Serif" font-size="10.00">matrix_collection.h</text>
</a>
</g>
</g>
<!-- Node10&#45;&gt;Node17 -->
<g id="edge22" class="edge">
<title>Node10&#45;&gt;Node17</title>
<path fill="none" stroke="#63b8ff" d="M583.37,-165.34C602.89,-156.89 632.31,-144.15 654.56,-134.52"/>
<polygon fill="#63b8ff" stroke="#63b8ff" points="655.75,-137.39 663.53,-130.2 652.96,-130.96 655.75,-137.39"/>
</g>
<!-- Node11&#45;&gt;Node2 -->
<g id="edge16" class="edge">
<title>Node11&#45;&gt;Node2</title>
<path fill="none" stroke="#63b8ff" d="M541.8,-110.09C522.32,-101.59 492.91,-88.75 470.78,-79.09"/>
<polygon fill="#63b8ff" stroke="#63b8ff" points="472.46,-75.57 461.89,-74.77 469.65,-81.98 472.46,-75.57"/>
</g>
<!-- Node12 -->
<g id="node12" class="node">
<title>Node12</title>
<g id="a_node12"><a xlink:title=" ">
<polygon fill="#e0e0e0" stroke="#999999" points="612,-74.5 569,-74.5 569,-55.25 612,-55.25 612,-74.5"/>
<text text-anchor="middle" x="590.5" y="-61" font-family="Helvetica,sans-Serif" font-size="10.00">vector</text>
</a>
</g>
</g>
<!-- Node11&#45;&gt;Node12 -->
<g id="edge17" class="edge">
<title>Node11&#45;&gt;Node12</title>
<path fill="none" stroke="#63b8ff" d="M567.12,-110.33C570.83,-103.28 576.16,-93.15 580.79,-84.33"/>
<polygon fill="#63b8ff" stroke="#63b8ff" points="584.22,-86.34 585.78,-75.86 578.02,-83.08 584.22,-86.34"/>
</g>
<!-- Node14 -->
<g id="node14" class="node">
<title>Node14</title>
<g id="a_node14"><a xlink:title=" ">
<polygon fill="#e0e0e0" stroke="#999999" points="679.88,-19.25 639.12,-19.25 639.12,0 679.88,0 679.88,-19.25"/>
<text text-anchor="middle" x="659.5" y="-5.75" font-family="Helvetica,sans-Serif" font-size="10.00">mat.h</text>
</a>
</g>
</g>
<!-- Node13&#45;&gt;Node14 -->
<g id="edge19" class="edge">
<title>Node13&#45;&gt;Node14</title>
<path fill="none" stroke="#63b8ff" d="M712.64,-54.84C703.3,-47.07 689.61,-35.67 678.46,-26.4"/>
<polygon fill="#63b8ff" stroke="#63b8ff" points="681.12,-23.23 671.2,-19.52 676.64,-28.61 681.12,-23.23"/>
</g>
<!-- Node15 -->
<g id="node15" class="node">
<title>Node15</title>
<g id="a_node15"><a xlink:title=" ">
<polygon fill="#e0e0e0" stroke="#999999" points="749.12,-19.25 697.88,-19.25 697.88,0 749.12,0 749.12,-19.25"/>
<text text-anchor="middle" x="723.5" y="-5.75" font-family="Helvetica,sans-Serif" font-size="10.00">matrix.h</text>
</a>
</g>
</g>
<!-- Node13&#45;&gt;Node15 -->
<g id="edge20" class="edge">
<title>Node13&#45;&gt;Node15</title>
<path fill="none" stroke="#63b8ff" d="M723.5,-55.08C723.5,-48.42 723.5,-38.99 723.5,-30.53"/>
<polygon fill="#63b8ff" stroke="#63b8ff" points="727,-30.61 723.5,-20.61 720,-30.61 727,-30.61"/>
</g>
<!-- Node16 -->
<g id="node16" class="node">
<title>Node16</title>
<g id="a_node16"><a xlink:title=" ">
<polygon fill="#e0e0e0" stroke="#999999" points="810,-19.25 767,-19.25 767,0 810,0 810,-19.25"/>
<text text-anchor="middle" x="788.5" y="-5.75" font-family="Helvetica,sans-Serif" font-size="10.00">mex.h</text>
</a>
</g>
</g>
<!-- Node13&#45;&gt;Node16 -->
<g id="edge21" class="edge">
<title>Node13&#45;&gt;Node16</title>
<path fill="none" stroke="#63b8ff" d="M734.53,-54.84C744.01,-47.07 757.92,-35.67 769.25,-26.4"/>
<polygon fill="#63b8ff" stroke="#63b8ff" points="771.12,-28.57 776.64,-19.52 766.68,-23.15 771.12,-28.57"/>
</g>
<!-- Node17&#45;&gt;Node2 -->
<g id="edge23" class="edge">
<title>Node17&#45;&gt;Node2</title>
<path fill="none" stroke="#63b8ff" d="M643.66,-110.03C594.75,-99.4 514.97,-82.06 471.36,-72.58"/>
<polygon fill="#63b8ff" stroke="#63b8ff" points="472.35,-69 461.84,-70.3 470.87,-75.84 472.35,-69"/>
</g>
<!-- Node17&#45;&gt;Node12 -->
<g id="edge24" class="edge">
<title>Node17&#45;&gt;Node12</title>
<path fill="none" stroke="#63b8ff" d="M669.38,-110.09C654.78,-101.91 633.01,-89.71 616.04,-80.19"/>
<polygon fill="#63b8ff" stroke="#63b8ff" points="618.13,-76.79 607.69,-74.95 614.71,-82.9 618.13,-76.79"/>
</g>
<!-- Node17&#45;&gt;Node13 -->
<g id="edge25" class="edge">
<title>Node17&#45;&gt;Node13</title>
<path fill="none" stroke="#63b8ff" d="M691.77,-110.33C696.91,-103.13 704.35,-92.71 710.74,-83.76"/>
<polygon fill="#63b8ff" stroke="#63b8ff" points="714.13,-86.03 717.09,-75.86 708.43,-81.97 714.13,-86.03"/>
</g>
</g>
</svg>
