<?xml version="1.0" encoding="UTF-8" standalone="no"?>
<!DOCTYPE svg PUBLIC "-//W3C//DTD SVG 1.1//EN"
 "http://www.w3.org/Graphics/SVG/1.1/DTD/svg11.dtd">
<!-- Generated by graphviz version 13.1.2 (20250808.2320)
 -->
<!-- Title: tdms/include/source.h Pages: 1 -->
<svg width="398pt" height="138pt"
 viewBox="0.00 0.00 398.00 138.00" xmlns="http://www.w3.org/2000/svg" xmlns:xlink="http://www.w3.org/1999/xlink">
<g id="graph0" class="graph" transform="scale(1 1) rotate(0) translate(4 133.75)">
<title>tdms/include/source.h</title>
<!-- Node1 -->
<g id="Node000001" class="node">
<title>Node1</title>
<g id="a_Node000001"><a xlink:title=" ">
<polygon fill="#999999" stroke="#666666" points="187.38,-129.75 75.38,-129.75 75.38,-110.5 187.38,-110.5 187.38,-129.75"/>
<text xml:space="preserve" text-anchor="middle" x="131.38" y="-116.25" font-family="Helvetica,sans-Serif" font-size="10.00">tdms/include/source.h</text>
</a>
</g>
</g>
<!-- Node2 -->
<g id="Node000002" class="node">
<title>Node2</title>
<g id="a_Node000002"><a xlink:title=" ">
<polygon fill="#e0e0e0" stroke="#999999" points="52.75,-74.5 0,-74.5 0,-55.25 52.75,-55.25 52.75,-74.5"/>
<text xml:space="preserve" text-anchor="middle" x="26.38" y="-61" font-family="Helvetica,sans-Serif" font-size="10.00">complex</text>
</a>
</g>
</g>
<!-- Node1&#45;&gt;Node2 -->
<g id="edge1_Node000001_Node000002" class="edge">
<title>Node1&#45;&gt;Node2</title>
<g id="a_edge1_Node000001_Node000002"><a xlink:title=" ">
<path fill="none" stroke="#63b8ff" d="M113.56,-110.09C97.35,-101.87 73.14,-89.59 54.34,-80.06"/>
<polygon fill="#63b8ff" stroke="#63b8ff" points="56.13,-77.04 45.62,-75.64 52.96,-83.28 56.13,-77.04"/>
</a>
</g>
</g>
<!-- Node3 -->
<g id="Node000003" class="node">
<title>Node3</title>
<g id="a_Node000003"><a xlink:title=" ">
<polygon fill="#e0e0e0" stroke="#999999" points="110.38,-74.5 70.38,-74.5 70.38,-55.25 110.38,-55.25 110.38,-74.5"/>
<text xml:space="preserve" text-anchor="middle" x="90.38" y="-61" font-family="Helvetica,sans-Serif" font-size="10.00">string</text>
</a>
</g>
</g>
<!-- Node1&#45;&gt;Node3 -->
<g id="edge2_Node000001_Node000003" class="edge">
<title>Node1&#45;&gt;Node3</title>
<g id="a_edge2_Node000001_Node000003"><a xlink:title=" ">
<path fill="none" stroke="#63b8ff" d="M124.6,-110.33C119.06,-103.13 111.03,-92.71 104.15,-83.76"/>
<polygon fill="#63b8ff" stroke="#63b8ff" points="107.09,-81.85 98.22,-76.06 101.54,-86.12 107.09,-81.85"/>
</a>
</g>
</g>
<!-- Node4 -->
<g id="Node000004" class="node">
<title>Node4</title>
<g id="a_Node000004"><a xlink:href="cell__coordinate_8h.html" target="_top" xlink:title="Container for {ijk} or {IJK} grouped variables.">
<polygon fill="white" stroke="#666666" points="218.12,-74.5 128.62,-74.5 128.62,-55.25 218.12,-55.25 218.12,-74.5"/>
<text xml:space="preserve" text-anchor="middle" x="173.38" y="-61" font-family="Helvetica,sans-Serif" font-size="10.00">cell_coordinate.h</text>
</a>
</g>
</g>
<!-- Node1&#45;&gt;Node4 -->
<g id="edge3_Node000001_Node000004" class="edge">
<title>Node1&#45;&gt;Node4</title>
<g id="a_edge3_Node000001_Node000004"><a xlink:title=" ">
<path fill="none" stroke="#63b8ff" d="M138.31,-110.33C143.99,-103.13 152.21,-92.71 159.27,-83.76"/>
<polygon fill="#63b8ff" stroke="#63b8ff" points="161.91,-86.07 165.35,-76.05 156.41,-81.73 161.91,-86.07"/>
</a>
</g>
</g>
<!-- Node7 -->
<g id="Node000007" class="node">
<title>Node7</title>
<g id="a_Node000007"><a xlink:href="mat__io_8h.html" target="_top" xlink:title="Includes MATLAB headers for I/O.">
<polygon fill="white" stroke="#666666" points="310.12,-74.5 256.62,-74.5 256.62,-55.25 310.12,-55.25 310.12,-74.5"/>
<text xml:space="preserve" text-anchor="middle" x="283.38" y="-61" font-family="Helvetica,sans-Serif" font-size="10.00">mat_io.h</text>
</a>
</g>
</g>
<!-- Node1&#45;&gt;Node7 -->
<g id="edge6_Node000001_Node000007" class="edge">
<title>Node1&#45;&gt;Node7</title>
<g id="a_edge6_Node000001_Node000007"><a xlink:title=" ">
<path fill="none" stroke="#63b8ff" d="M157.16,-110.09C181.73,-101.49 218.96,-88.44 246.63,-78.75"/>
<polygon fill="#63b8ff" stroke="#63b8ff" points="247.75,-82.06 256.04,-75.45 245.44,-75.46 247.75,-82.06"/>
</a>
</g>
</g>
<!-- Node5 -->
<g id="Node000005" class="node">
<title>Node5</title>
<g id="a_Node000005"><a xlink:title=" ">
<polygon fill="#e0e0e0" stroke="#999999" points="127.5,-19.25 43.25,-19.25 43.25,0 127.5,0 127.5,-19.25"/>
<text xml:space="preserve" text-anchor="middle" x="85.38" y="-5.75" font-family="Helvetica,sans-Serif" font-size="10.00">spdlog/spdlog.h</text>
</a>
</g>
</g>
<!-- Node4&#45;&gt;Node5 -->
<g id="edge4_Node000004_Node000005" class="edge">
<title>Node4&#45;&gt;Node5</title>
<g id="a_edge4_Node000004_Node000005"><a xlink:title=" ">
<path fill="none" stroke="#63b8ff" d="M158.45,-54.84C145.17,-46.81 125.51,-34.91 109.92,-25.48"/>
<polygon fill="#63b8ff" stroke="#63b8ff" points="112.04,-22.67 101.67,-20.49 108.41,-28.66 112.04,-22.67"/>
</a>
</g>
</g>
<!-- Node6 -->
<g id="Node000006" class="node">
<title>Node6</title>
<g id="a_Node000006"><a xlink:title=" ">
<polygon fill="#e0e0e0" stroke="#999999" points="201.25,-19.25 145.5,-19.25 145.5,0 201.25,0 201.25,-19.25"/>
<text xml:space="preserve" text-anchor="middle" x="173.38" y="-5.75" font-family="Helvetica,sans-Serif" font-size="10.00">algorithm</text>
</a>
</g>
</g>
<!-- Node4&#45;&gt;Node6 -->
<g id="edge5_Node000004_Node000006" class="edge">
<title>Node4&#45;&gt;Node6</title>
<g id="a_edge5_Node000004_Node000006"><a xlink:title=" ">
<path fill="none" stroke="#63b8ff" d="M173.38,-55.08C173.38,-48.57 173.38,-39.42 173.38,-31.12"/>
<polygon fill="#63b8ff" stroke="#63b8ff" points="176.88,-31.12 173.38,-21.12 169.88,-31.12 176.88,-31.12"/>
</a>
</g>
</g>
<!-- Node8 -->
<g id="Node000008" class="node">
<title>Node8</title>
<g id="a_Node000008"><a xlink:title=" ">
<polygon fill="#e0e0e0" stroke="#999999" points="259.75,-19.25 219,-19.25 219,0 259.75,0 259.75,-19.25"/>
<text xml:space="preserve" text-anchor="middle" x="239.38" y="-5.75" font-family="Helvetica,sans-Serif" font-size="10.00">mat.h</text>
</a>
</g>
</g>
<!-- Node7&#45;&gt;Node8 -->
<g id="edge7_Node000007_Node000008" class="edge">
<title>Node7&#45;&gt;Node8</title>
<g id="a_edge7_Node000007_Node000008"><a xlink:title=" ">
<path fill="none" stroke="#63b8ff" d="M276.11,-55.08C270.09,-47.8 261.36,-37.23 253.92,-28.23"/>
<polygon fill="#63b8ff" stroke="#63b8ff" points="256.83,-26.26 247.76,-20.78 251.43,-30.71 256.83,-26.26"/>
</a>
</g>
</g>
<!-- Node9 -->
<g id="Node000009" class="node">
<title>Node9</title>
<g id="a_Node000009"><a xlink:title=" ">
<polygon fill="#e0e0e0" stroke="#999999" points="329,-19.25 277.75,-19.25 277.75,0 329,0 329,-19.25"/>
<text xml:space="preserve" text-anchor="middle" x="303.38" y="-5.75" font-family="Helvetica,sans-Serif" font-size="10.00">matrix.h</text>
</a>
</g>
</g>
<!-- Node7&#45;&gt;Node9 -->
<g id="edge8_Node000007_Node000009" class="edge">
<title>Node7&#45;&gt;Node9</title>
<g id="a_edge8_Node000007_Node000009"><a xlink:title=" ">
<path fill="none" stroke="#63b8ff" d="M286.68,-55.08C289.21,-48.34 292.8,-38.77 296.01,-30.24"/>
<polygon fill="#63b8ff" stroke="#63b8ff" points="299.23,-31.62 299.47,-21.03 292.68,-29.16 299.23,-31.62"/>
</a>
</g>
</g>
<!-- Node10 -->
<g id="Node000010" class="node">
<title>Node10</title>
<g id="a_Node000010"><a xlink:title=" ">
<polygon fill="#e0e0e0" stroke="#999999" points="389.88,-19.25 346.88,-19.25 346.88,0 389.88,0 389.88,-19.25"/>
<text xml:space="preserve" text-anchor="middle" x="368.38" y="-5.75" font-family="Helvetica,sans-Serif" font-size="10.00">mex.h</text>
</a>
</g>
</g>
<!-- Node7&#45;&gt;Node10 -->
<g id="edge9_Node000007_Node000010" class="edge">
<title>Node7&#45;&gt;Node10</title>
<g id="a_edge9_Node000007_Node000010"><a xlink:title=" ">
<path fill="none" stroke="#63b8ff" d="M297.79,-54.84C310.49,-46.89 329.25,-35.14 344.23,-25.75"/>
<polygon fill="#63b8ff" stroke="#63b8ff" points="345.99,-28.78 352.6,-20.51 342.27,-22.85 345.99,-28.78"/>
</a>
</g>
</g>
</g>
</svg>
