<?xml version="1.0" encoding="UTF-8" standalone="no"?>
<!DOCTYPE svg PUBLIC "-//W3C//DTD SVG 1.1//EN"
 "http://www.w3.org/Graphics/SVG/1.1/DTD/svg11.dtd">
<!-- Generated by graphviz version 8.0.4 (20230421.1958)
 -->
<!-- Title: tdms/include/source.h Pages: 1 -->
<svg width="398pt" height="138pt"
 viewBox="0.00 0.00 397.88 137.75" xmlns="http://www.w3.org/2000/svg" xmlns:xlink="http://www.w3.org/1999/xlink">
<g id="graph0" class="graph" transform="scale(1 1) rotate(0) translate(4 133.75)">
<title>tdms/include/source.h</title>
<!-- Node1 -->
<g id="node1" class="node">
<title>Node1</title>
<g id="a_node1"><a xlink:title=" ">
<polygon fill="#999999" stroke="#666666" points="187.38,-129.75 75.38,-129.75 75.38,-110.5 187.38,-110.5 187.38,-129.75"/>
<text text-anchor="middle" x="131.38" y="-116.25" font-family="Helvetica,sans-Serif" font-size="10.00">tdms/include/source.h</text>
</a>
</g>
</g>
<!-- Node2 -->
<g id="node2" class="node">
<title>Node2</title>
<g id="a_node2"><a xlink:title=" ">
<polygon fill="#e0e0e0" stroke="#999999" points="52.75,-74.5 0,-74.5 0,-55.25 52.75,-55.25 52.75,-74.5"/>
<text text-anchor="middle" x="26.38" y="-61" font-family="Helvetica,sans-Serif" font-size="10.00">complex</text>
</a>
</g>
</g>
<!-- Node1&#45;&gt;Node2 -->
<g id="edge1" class="edge">
<title>Node1&#45;&gt;Node2</title>
<path fill="none" stroke="#63b8ff" d="M113.56,-110.09C97.27,-101.83 72.91,-89.48 54.08,-79.93"/>
<polygon fill="#63b8ff" stroke="#63b8ff" points="55.78,-76.35 45.27,-74.95 52.61,-82.6 55.78,-76.35"/>
</g>
<!-- Node3 -->
<g id="node3" class="node">
<title>Node3</title>
<g id="a_node3"><a xlink:title=" ">
<polygon fill="#e0e0e0" stroke="#999999" points="110.38,-74.5 70.38,-74.5 70.38,-55.25 110.38,-55.25 110.38,-74.5"/>
<text text-anchor="middle" x="90.38" y="-61" font-family="Helvetica,sans-Serif" font-size="10.00">string</text>
</a>
</g>
</g>
<!-- Node1&#45;&gt;Node3 -->
<g id="edge2" class="edge">
<title>Node1&#45;&gt;Node3</title>
<path fill="none" stroke="#63b8ff" d="M124.6,-110.33C119,-103.05 110.86,-92.48 103.93,-83.48"/>
<polygon fill="#63b8ff" stroke="#63b8ff" points="106.17,-81.65 97.29,-75.86 100.62,-85.92 106.17,-81.65"/>
</g>
<!-- Node4 -->
<g id="node4" class="node">
<title>Node4</title>
<g id="a_node4"><a xlink:href="cell__coordinate_8h.html" target="_top" xlink:title="Container for {ijk} or {IJK} grouped variables.">
<polygon fill="white" stroke="#666666" points="218.12,-74.5 128.62,-74.5 128.62,-55.25 218.12,-55.25 218.12,-74.5"/>
<text text-anchor="middle" x="173.38" y="-61" font-family="Helvetica,sans-Serif" font-size="10.00">cell_coordinate.h</text>
</a>
</g>
</g>
<!-- Node1&#45;&gt;Node4 -->
<g id="edge3" class="edge">
<title>Node1&#45;&gt;Node4</title>
<path fill="none" stroke="#63b8ff" d="M138.31,-110.33C144.05,-103.05 152.39,-92.48 159.49,-83.48"/>
<polygon fill="#63b8ff" stroke="#63b8ff" points="162.84,-85.88 166.29,-75.86 157.35,-81.54 162.84,-85.88"/>
</g>
<!-- Node7 -->
<g id="node7" class="node">
<title>Node7</title>
<g id="a_node7"><a xlink:href="mat__io_8h.html" target="_top" xlink:title="Includes MATLAB headers for I/O.">
<polygon fill="white" stroke="#666666" points="310.12,-74.5 256.62,-74.5 256.62,-55.25 310.12,-55.25 310.12,-74.5"/>
<text text-anchor="middle" x="283.38" y="-61" font-family="Helvetica,sans-Serif" font-size="10.00">mat_io.h</text>
</a>
</g>
</g>
<!-- Node1&#45;&gt;Node7 -->
<g id="edge6" class="edge">
<title>Node1&#45;&gt;Node7</title>
<path fill="none" stroke="#63b8ff" d="M157.16,-110.09C181.94,-101.41 219.63,-88.21 247.37,-78.49"/>
<polygon fill="#63b8ff" stroke="#63b8ff" points="248.18,-81.56 256.46,-74.95 245.87,-74.96 248.18,-81.56"/>
</g>
<!-- Node5 -->
<g id="node5" class="node">
<title>Node5</title>
<g id="a_node5"><a xlink:title=" ">
<polygon fill="#e0e0e0" stroke="#999999" points="127.5,-19.25 43.25,-19.25 43.25,0 127.5,0 127.5,-19.25"/>
<text text-anchor="middle" x="85.38" y="-5.75" font-family="Helvetica,sans-Serif" font-size="10.00">spdlog/spdlog.h</text>
</a>
</g>
</g>
<!-- Node4&#45;&gt;Node5 -->
<g id="edge4" class="edge">
<title>Node4&#45;&gt;Node5</title>
<path fill="none" stroke="#63b8ff" d="M158.45,-54.84C145.05,-46.73 125.13,-34.68 109.48,-25.21"/>
<polygon fill="#63b8ff" stroke="#63b8ff" points="111.74,-21.89 101.38,-19.7 108.12,-27.87 111.74,-21.89"/>
</g>
<!-- Node6 -->
<g id="node6" class="node">
<title>Node6</title>
<g id="a_node6"><a xlink:title=" ">
<polygon fill="#e0e0e0" stroke="#999999" points="201.25,-19.25 145.5,-19.25 145.5,0 201.25,0 201.25,-19.25"/>
<text text-anchor="middle" x="173.38" y="-5.75" font-family="Helvetica,sans-Serif" font-size="10.00">algorithm</text>
</a>
</g>
</g>
<!-- Node4&#45;&gt;Node6 -->
<g id="edge5" class="edge">
<title>Node4&#45;&gt;Node6</title>
<path fill="none" stroke="#63b8ff" d="M173.38,-55.08C173.38,-48.42 173.38,-38.99 173.38,-30.53"/>
<polygon fill="#63b8ff" stroke="#63b8ff" points="176.88,-30.61 173.38,-20.61 169.88,-30.61 176.88,-30.61"/>
</g>
<!-- Node8 -->
<g id="node8" class="node">
<title>Node8</title>
<g id="a_node8"><a xlink:title=" ">
<polygon fill="#e0e0e0" stroke="#999999" points="259.75,-19.25 219,-19.25 219,0 259.75,0 259.75,-19.25"/>
<text text-anchor="middle" x="239.38" y="-5.75" font-family="Helvetica,sans-Serif" font-size="10.00">mat.h</text>
</a>
</g>
</g>
<!-- Node7&#45;&gt;Node8 -->
<g id="edge7" class="edge">
<title>Node7&#45;&gt;Node8</title>
<path fill="none" stroke="#63b8ff" d="M276.11,-55.08C270.03,-47.73 261.18,-37.01 253.68,-27.94"/>
<polygon fill="#63b8ff" stroke="#63b8ff" points="255.87,-26.09 246.8,-20.61 250.47,-30.55 255.87,-26.09"/>
</g>
<!-- Node9 -->
<g id="node9" class="node">
<title>Node9</title>
<g id="a_node9"><a xlink:title=" ">
<polygon fill="#e0e0e0" stroke="#999999" points="329,-19.25 277.75,-19.25 277.75,0 329,0 329,-19.25"/>
<text text-anchor="middle" x="303.38" y="-5.75" font-family="Helvetica,sans-Serif" font-size="10.00">matrix.h</text>
</a>
</g>
</g>
<!-- Node7&#45;&gt;Node9 -->
<g id="edge8" class="edge">
<title>Node7&#45;&gt;Node9</title>
<path fill="none" stroke="#63b8ff" d="M286.68,-55.08C289.27,-48.19 292.97,-38.34 296.23,-29.66"/>
<polygon fill="#63b8ff" stroke="#63b8ff" points="299.76,-31.2 300,-20.61 293.21,-28.74 299.76,-31.2"/>
</g>
<!-- Node10 -->
<g id="node10" class="node">
<title>Node10</title>
<g id="a_node10"><a xlink:title=" ">
<polygon fill="#e0e0e0" stroke="#999999" points="389.88,-19.25 346.88,-19.25 346.88,0 389.88,0 389.88,-19.25"/>
<text text-anchor="middle" x="368.38" y="-5.75" font-family="Helvetica,sans-Serif" font-size="10.00">mex.h</text>
</a>
</g>
</g>
<!-- Node7&#45;&gt;Node10 -->
<g id="edge9" class="edge">
<title>Node7&#45;&gt;Node10</title>
<path fill="none" stroke="#63b8ff" d="M297.79,-54.84C310.62,-46.81 329.61,-34.91 344.67,-25.48"/>
<polygon fill="#63b8ff" stroke="#63b8ff" points="346.27,-27.98 352.89,-19.7 342.55,-22.05 346.27,-27.98"/>
</g>
</g>
</svg>
