<?xml version="1.0" encoding="UTF-8" standalone="no"?>
<!DOCTYPE svg PUBLIC "-//W3C//DTD SVG 1.1//EN"
 "http://www.w3.org/Graphics/SVG/1.1/DTD/svg11.dtd">
<!-- Generated by graphviz version 8.0.2 (20230410.1723)
 -->
<!-- Title: tdms/include/source.h Pages: 1 -->
<svg width="404pt" height="137pt"
 viewBox="0.00 0.00 403.50 137.00" xmlns="http://www.w3.org/2000/svg" xmlns:xlink="http://www.w3.org/1999/xlink">
<g id="graph0" class="graph" transform="scale(1 1) rotate(0) translate(4 133)">
<title>tdms/include/source.h</title>
<!-- Node1 -->
<g id="node1" class="node">
<title>Node1</title>
<g id="a_node1"><a xlink:title=" ">
<polygon fill="#999999" stroke="#666666" points="190,-129 77,-129 77,-110 190,-110 190,-129"/>
<text text-anchor="middle" x="133.5" y="-117" font-family="Helvetica,sans-Serif" font-size="10.00">tdms/include/source.h</text>
</a>
</g>
</g>
<!-- Node2 -->
<g id="node2" class="node">
<title>Node2</title>
<g id="a_node2"><a xlink:title=" ">
<polygon fill="#e0e0e0" stroke="#999999" points="53,-74 0,-74 0,-55 53,-55 53,-74"/>
<text text-anchor="middle" x="26.5" y="-62" font-family="Helvetica,sans-Serif" font-size="10.00">complex</text>
</a>
</g>
</g>
<!-- Node1&#45;&gt;Node2 -->
<g id="edge1" class="edge">
<title>Node1&#45;&gt;Node2</title>
<path fill="none" stroke="#63b8ff" d="M115.35,-109.51C98.57,-101.2 73.39,-88.73 54.12,-79.18"/>
<polygon fill="#63b8ff" stroke="#63b8ff" points="55.9,-75.66 45.38,-74.36 52.79,-81.93 55.9,-75.66"/>
</g>
<!-- Node3 -->
<g id="node3" class="node">
<title>Node3</title>
<g id="a_node3"><a xlink:title=" ">
<polygon fill="#e0e0e0" stroke="#999999" points="112,-74 71,-74 71,-55 112,-55 112,-74"/>
<text text-anchor="middle" x="91.5" y="-62" font-family="Helvetica,sans-Serif" font-size="10.00">string</text>
</a>
</g>
</g>
<!-- Node1&#45;&gt;Node3 -->
<g id="edge2" class="edge">
<title>Node1&#45;&gt;Node3</title>
<path fill="none" stroke="#63b8ff" d="M126.56,-109.75C120.82,-102.5 112.49,-91.98 105.38,-83.02"/>
<polygon fill="#63b8ff" stroke="#63b8ff" points="107.54,-81.11 98.59,-75.44 102.05,-85.45 107.54,-81.11"/>
</g>
<!-- Node4 -->
<g id="node4" class="node">
<title>Node4</title>
<g id="a_node4"><a xlink:href="cell__coordinate_8h.html" target="_top" xlink:title="Container for {ijk} or {IJK} grouped variables.">
<polygon fill="white" stroke="#666666" points="220.5,-74 130.5,-74 130.5,-55 220.5,-55 220.5,-74"/>
<text text-anchor="middle" x="175.5" y="-62" font-family="Helvetica,sans-Serif" font-size="10.00">cell_coordinate.h</text>
</a>
</g>
</g>
<!-- Node1&#45;&gt;Node4 -->
<g id="edge3" class="edge">
<title>Node1&#45;&gt;Node4</title>
<path fill="none" stroke="#63b8ff" d="M140.44,-109.75C146.18,-102.5 154.51,-91.98 161.62,-83.02"/>
<polygon fill="#63b8ff" stroke="#63b8ff" points="164.95,-85.45 168.41,-75.44 159.46,-81.11 164.95,-85.45"/>
</g>
<!-- Node7 -->
<g id="node7" class="node">
<title>Node7</title>
<g id="a_node7"><a xlink:href="mat__io_8h.html" target="_top" xlink:title="Includes MATLAB headers for I/O.">
<polygon fill="white" stroke="#666666" points="313.5,-74 259.5,-74 259.5,-55 313.5,-55 313.5,-74"/>
<text text-anchor="middle" x="286.5" y="-62" font-family="Helvetica,sans-Serif" font-size="10.00">mat_io.h</text>
</a>
</g>
</g>
<!-- Node1&#45;&gt;Node7 -->
<g id="edge6" class="edge">
<title>Node1&#45;&gt;Node7</title>
<path fill="none" stroke="#63b8ff" d="M159.45,-109.51C184.48,-100.84 222.56,-87.65 250.51,-77.97"/>
<polygon fill="#63b8ff" stroke="#63b8ff" points="251.37,-81.03 259.67,-74.45 249.08,-74.41 251.37,-81.03"/>
</g>
<!-- Node5 -->
<g id="node5" class="node">
<title>Node5</title>
<g id="a_node5"><a xlink:title=" ">
<polygon fill="#e0e0e0" stroke="#999999" points="129,-19 44,-19 44,0 129,0 129,-19"/>
<text text-anchor="middle" x="86.5" y="-7" font-family="Helvetica,sans-Serif" font-size="10.00">spdlog/spdlog.h</text>
</a>
</g>
</g>
<!-- Node4&#45;&gt;Node5 -->
<g id="edge4" class="edge">
<title>Node4&#45;&gt;Node5</title>
<path fill="none" stroke="#63b8ff" d="M160.4,-54.51C146.77,-46.39 126.47,-34.3 110.59,-24.85"/>
<polygon fill="#63b8ff" stroke="#63b8ff" points="112.76,-21.47 102.37,-19.36 109.18,-27.48 112.76,-21.47"/>
</g>
<!-- Node6 -->
<g id="node6" class="node">
<title>Node6</title>
<g id="a_node6"><a xlink:title=" ">
<polygon fill="#e0e0e0" stroke="#999999" points="203.5,-19 147.5,-19 147.5,0 203.5,0 203.5,-19"/>
<text text-anchor="middle" x="175.5" y="-7" font-family="Helvetica,sans-Serif" font-size="10.00">algorithm</text>
</a>
</g>
</g>
<!-- Node4&#45;&gt;Node6 -->
<g id="edge5" class="edge">
<title>Node4&#45;&gt;Node6</title>
<path fill="none" stroke="#63b8ff" d="M175.5,-54.75C175.5,-48.11 175.5,-38.73 175.5,-30.31"/>
<polygon fill="#63b8ff" stroke="#63b8ff" points="179,-30.44 175.5,-20.44 172,-30.44 179,-30.44"/>
</g>
<!-- Node8 -->
<g id="node8" class="node">
<title>Node8</title>
<g id="a_node8"><a xlink:title=" ">
<polygon fill="#e0e0e0" stroke="#999999" points="263,-19 222,-19 222,0 263,0 263,-19"/>
<text text-anchor="middle" x="242.5" y="-7" font-family="Helvetica,sans-Serif" font-size="10.00">mat.h</text>
</a>
</g>
</g>
<!-- Node7&#45;&gt;Node8 -->
<g id="edge7" class="edge">
<title>Node7&#45;&gt;Node8</title>
<path fill="none" stroke="#63b8ff" d="M279.23,-54.75C273.16,-47.43 264.3,-36.76 256.81,-27.74"/>
<polygon fill="#63b8ff" stroke="#63b8ff" points="259,-25.9 249.92,-20.44 253.62,-30.37 259,-25.9"/>
</g>
<!-- Node9 -->
<g id="node9" class="node">
<title>Node9</title>
<g id="a_node9"><a xlink:title=" ">
<polygon fill="#e0e0e0" stroke="#999999" points="333.5,-19 281.5,-19 281.5,0 333.5,0 333.5,-19"/>
<text text-anchor="middle" x="307.5" y="-7" font-family="Helvetica,sans-Serif" font-size="10.00">matrix.h</text>
</a>
</g>
</g>
<!-- Node7&#45;&gt;Node9 -->
<g id="edge8" class="edge">
<title>Node7&#45;&gt;Node9</title>
<path fill="none" stroke="#63b8ff" d="M289.97,-54.75C292.69,-47.88 296.57,-38.08 299.99,-29.45"/>
<polygon fill="#63b8ff" stroke="#63b8ff" points="303.53,-31.03 303.96,-20.44 297.02,-28.45 303.53,-31.03"/>
</g>
<!-- Node10 -->
<g id="node10" class="node">
<title>Node10</title>
<g id="a_node10"><a xlink:title=" ">
<polygon fill="#e0e0e0" stroke="#999999" points="395.5,-19 351.5,-19 351.5,0 395.5,0 395.5,-19"/>
<text text-anchor="middle" x="373.5" y="-7" font-family="Helvetica,sans-Serif" font-size="10.00">mex.h</text>
</a>
</g>
</g>
<!-- Node7&#45;&gt;Node10 -->
<g id="edge9" class="edge">
<title>Node7&#45;&gt;Node10</title>
<path fill="none" stroke="#63b8ff" d="M301.26,-54.51C314.59,-46.39 334.43,-34.3 349.95,-24.85"/>
<polygon fill="#63b8ff" stroke="#63b8ff" points="351.24,-27.55 357.96,-19.36 347.6,-21.57 351.24,-27.55"/>
</g>
</g>
</svg>
