<?xml version="1.0" encoding="UTF-8" standalone="no"?>
<!DOCTYPE svg PUBLIC "-//W3C//DTD SVG 1.1//EN"
 "http://www.w3.org/Graphics/SVG/1.1/DTD/svg11.dtd">
<!-- Generated by graphviz version 12.2.1 (20241206.2353)
 -->
<!-- Title: tdms/include/surface_phasors.h Pages: 1 -->
<svg width="1130pt" height="370pt"
 viewBox="0.00 0.00 1130.19 370.00" xmlns="http://www.w3.org/2000/svg" xmlns:xlink="http://www.w3.org/1999/xlink">
<g id="graph0" class="graph" transform="scale(1 1) rotate(0) translate(4 366)">
<title>tdms/include/surface_phasors.h</title>
<!-- Node1 -->
<g id="Node000001" class="node">
<title>Node1</title>
<g id="a_Node000001"><a xlink:title="Contains a class that handles the complex amplitude extraction.">
<polygon fill="#999999" stroke="#666666" points="368.19,-362 261.44,-362 261.44,-331.5 368.19,-331.5 368.19,-362"/>
<text text-anchor="start" x="269.44" y="-348.5" font-family="Helvetica,sans-Serif" font-size="10.00">tdms/include/surface</text>
<text text-anchor="middle" x="314.82" y="-337.25" font-family="Helvetica,sans-Serif" font-size="10.00">_phasors.h</text>
</a>
</g>
</g>
<!-- Node2 -->
<g id="Node000002" class="node">
<title>Node2</title>
<g id="a_Node000002"><a xlink:href="arrays_8h.html" target="_top" xlink:title="Classes describing arrays, vertices etc.">
<polygon fill="white" stroke="#666666" points="881.44,-185 830.19,-185 830.19,-165.75 881.44,-165.75 881.44,-185"/>
<text text-anchor="middle" x="855.82" y="-171.5" font-family="Helvetica,sans-Serif" font-size="10.00">arrays.h</text>
</a>
</g>
</g>
<!-- Node1&#45;&gt;Node2 -->
<g id="edge1_Node000001_Node000002" class="edge">
<title>Node1&#45;&gt;Node2</title>
<g id="a_edge1_Node000001_Node000002"><a xlink:title=" ">
<path fill="none" stroke="#63b8ff" d="M368.69,-333.18C443.7,-315.18 583.53,-279.83 699.82,-240.25 744.43,-225.07 794.63,-203.71 825.75,-189.96"/>
<polygon fill="#63b8ff" stroke="#63b8ff" points="826.82,-193.31 834.54,-186.05 823.98,-186.92 826.82,-193.31"/>
</a>
</g>
</g>
<!-- Node13 -->
<g id="Node000013" class="node">
<title>Node13</title>
<g id="a_Node000013"><a xlink:href="field_8h.html" target="_top" xlink:title="Classes for the electric and magnetic (split) fields on a grid.">
<polygon fill="white" stroke="#666666" points="335.94,-295.5 293.69,-295.5 293.69,-276.25 335.94,-276.25 335.94,-295.5"/>
<text text-anchor="middle" x="314.82" y="-282" font-family="Helvetica,sans-Serif" font-size="10.00">field.h</text>
</a>
</g>
</g>
<!-- Node1&#45;&gt;Node13 -->
<g id="edge16_Node000001_Node000013" class="edge">
<title>Node1&#45;&gt;Node13</title>
<g id="a_edge16_Node000001_Node000013"><a xlink:title=" ">
<path fill="none" stroke="#63b8ff" d="M314.82,-331.2C314.82,-323.96 314.82,-315.09 314.82,-307.19"/>
<polygon fill="#63b8ff" stroke="#63b8ff" points="318.32,-307.46 314.82,-297.46 311.32,-307.46 318.32,-307.46"/>
</a>
</g>
</g>
<!-- Node29 -->
<g id="Node000029" class="node">
<title>Node29</title>
<g id="a_Node000029"><a xlink:href="grid__labels_8h.html" target="_top" xlink:title="Class to hold the labels of a Yee cell.">
<polygon fill="white" stroke="#666666" points="149.19,-295.5 78.44,-295.5 78.44,-276.25 149.19,-276.25 149.19,-295.5"/>
<text text-anchor="middle" x="113.82" y="-282" font-family="Helvetica,sans-Serif" font-size="10.00">grid_labels.h</text>
</a>
</g>
</g>
<!-- Node1&#45;&gt;Node29 -->
<g id="edge51_Node000001_Node000029" class="edge">
<title>Node1&#45;&gt;Node29</title>
<g id="a_edge51_Node000001_Node000029"><a xlink:title=" ">
<path fill="none" stroke="#63b8ff" d="M264.61,-331.05C231.02,-321.2 187.32,-308.4 155.62,-299.12"/>
<polygon fill="#63b8ff" stroke="#63b8ff" points="156.97,-295.87 146.39,-296.42 155,-302.59 156.97,-295.87"/>
</a>
</g>
</g>
<!-- Node3 -->
<g id="Node000003" class="node">
<title>Node3</title>
<g id="a_Node000003"><a xlink:title=" ">
<polygon fill="#e0e0e0" stroke="#999999" points="1122.19,-74.5 1069.44,-74.5 1069.44,-55.25 1122.19,-55.25 1122.19,-74.5"/>
<text text-anchor="middle" x="1095.82" y="-61" font-family="Helvetica,sans-Serif" font-size="10.00">complex</text>
</a>
</g>
</g>
<!-- Node2&#45;&gt;Node3 -->
<g id="edge2_Node000002_Node000003" class="edge">
<title>Node2&#45;&gt;Node3</title>
<g id="a_edge2_Node000002_Node000003"><a xlink:title=" ">
<path fill="none" stroke="#63b8ff" d="M881.88,-172.43C934,-168.04 1048.5,-155.63 1076.82,-129.75 1088.97,-118.64 1093.48,-100.14 1095.09,-85.91"/>
<polygon fill="#63b8ff" stroke="#63b8ff" points="1098.56,-86.51 1095.78,-76.29 1091.58,-86.02 1098.56,-86.51"/>
</a>
</g>
</g>
<!-- Node4 -->
<g id="Node000004" class="node">
<title>Node4</title>
<g id="a_Node000004"><a xlink:title=" ">
<polygon fill="#e0e0e0" stroke="#999999" points="475.19,-74.5 416.44,-74.5 416.44,-55.25 475.19,-55.25 475.19,-74.5"/>
<text text-anchor="middle" x="445.82" y="-61" font-family="Helvetica,sans-Serif" font-size="10.00">stdexcept</text>
</a>
</g>
</g>
<!-- Node2&#45;&gt;Node4 -->
<g id="edge3_Node000002_Node000004" class="edge">
<title>Node2&#45;&gt;Node4</title>
<g id="a_edge3_Node000002_Node000004"><a xlink:title=" ">
<path fill="none" stroke="#63b8ff" d="M829.7,-172.94C760.28,-168.8 572.69,-155.49 516.82,-129.75 493.62,-119.06 472.64,-98.11 459.6,-83.12"/>
<polygon fill="#63b8ff" stroke="#63b8ff" points="462.63,-81.28 453.53,-75.86 457.26,-85.77 462.63,-81.28"/>
</a>
</g>
</g>
<!-- Node5 -->
<g id="Node000005" class="node">
<title>Node5</title>
<g id="a_Node000005"><a xlink:title=" ">
<polygon fill="#e0e0e0" stroke="#999999" points="783.82,-74.5 743.82,-74.5 743.82,-55.25 783.82,-55.25 783.82,-74.5"/>
<text text-anchor="middle" x="763.82" y="-61" font-family="Helvetica,sans-Serif" font-size="10.00">string</text>
</a>
</g>
</g>
<!-- Node2&#45;&gt;Node5 -->
<g id="edge4_Node000002_Node000005" class="edge">
<title>Node2&#45;&gt;Node5</title>
<g id="a_edge4_Node000002_Node000005"><a xlink:title=" ">
<path fill="none" stroke="#63b8ff" d="M881.86,-169.73C921.61,-161.52 990.28,-142.23 964.82,-110.5 943.95,-84.49 846.77,-72.69 795.57,-68.2"/>
<polygon fill="#63b8ff" stroke="#63b8ff" points="795.97,-64.73 785.71,-67.39 795.39,-71.7 795.97,-64.73"/>
</a>
</g>
</g>
<!-- Node6 -->
<g id="Node000006" class="node">
<title>Node6</title>
<g id="a_Node000006"><a xlink:title=" ">
<polygon fill="#e0e0e0" stroke="#999999" points="603.32,-74.5 560.32,-74.5 560.32,-55.25 603.32,-55.25 603.32,-74.5"/>
<text text-anchor="middle" x="581.82" y="-61" font-family="Helvetica,sans-Serif" font-size="10.00">vector</text>
</a>
</g>
</g>
<!-- Node2&#45;&gt;Node6 -->
<g id="edge5_Node000002_Node000006" class="edge">
<title>Node2&#45;&gt;Node6</title>
<g id="a_edge5_Node000002_Node000006"><a xlink:title=" ">
<path fill="none" stroke="#63b8ff" d="M829.82,-170.1C795.6,-163.92 734.02,-150.85 684.82,-129.75 654.54,-116.77 622.78,-95.77 602.67,-81.43"/>
<polygon fill="#63b8ff" stroke="#63b8ff" points="604.91,-78.73 594.76,-75.68 600.79,-84.39 604.91,-78.73"/>
</a>
</g>
</g>
<!-- Node7 -->
<g id="Node000007" class="node">
<title>Node7</title>
<g id="a_Node000007"><a xlink:title=" ">
<polygon fill="#e0e0e0" stroke="#999999" points="875.82,-129.75 829.82,-129.75 829.82,-110.5 875.82,-110.5 875.82,-129.75"/>
<text text-anchor="middle" x="852.82" y="-116.25" font-family="Helvetica,sans-Serif" font-size="10.00">fftw3.h</text>
</a>
</g>
</g>
<!-- Node2&#45;&gt;Node7 -->
<g id="edge6_Node000002_Node000007" class="edge">
<title>Node2&#45;&gt;Node7</title>
<g id="a_edge6_Node000002_Node000007"><a xlink:title=" ">
<path fill="none" stroke="#63b8ff" d="M855.32,-165.58C854.95,-158.99 854.43,-149.71 853.96,-141.32"/>
<polygon fill="#63b8ff" stroke="#63b8ff" points="857.47,-141.41 853.41,-131.62 850.48,-141.8 857.47,-141.41"/>
</a>
</g>
</g>
<!-- Node8 -->
<g id="Node000008" class="node">
<title>Node8</title>
<g id="a_Node000008"><a xlink:href="globals_8h.html" target="_top" xlink:title="Type definitions and global constants.">
<polygon fill="white" stroke="#666666" points="1067.32,-129.75 1012.32,-129.75 1012.32,-110.5 1067.32,-110.5 1067.32,-129.75"/>
<text text-anchor="middle" x="1039.82" y="-116.25" font-family="Helvetica,sans-Serif" font-size="10.00">globals.h</text>
</a>
</g>
</g>
<!-- Node2&#45;&gt;Node8 -->
<g id="edge7_Node000002_Node000008" class="edge">
<title>Node2&#45;&gt;Node8</title>
<g id="a_edge7_Node000002_Node000008"><a xlink:title=" ">
<path fill="none" stroke="#63b8ff" d="M881.79,-166.86C912.81,-157.88 964.99,-142.78 1000.85,-132.4"/>
<polygon fill="#63b8ff" stroke="#63b8ff" points="1001.78,-135.78 1010.42,-129.63 999.84,-129.05 1001.78,-135.78"/>
</a>
</g>
</g>
<!-- Node9 -->
<g id="Node000009" class="node">
<title>Node9</title>
<g id="a_Node000009"><a xlink:title=" ">
<polygon fill="#e0e0e0" stroke="#999999" points="955.32,-129.75 894.32,-129.75 894.32,-110.5 955.32,-110.5 955.32,-129.75"/>
<text text-anchor="middle" x="924.82" y="-116.25" font-family="Helvetica,sans-Serif" font-size="10.00">matlabio.h</text>
</a>
</g>
</g>
<!-- Node2&#45;&gt;Node9 -->
<g id="edge10_Node000002_Node000009" class="edge">
<title>Node2&#45;&gt;Node9</title>
<g id="a_edge10_Node000002_Node000009"><a xlink:title=" ">
<path fill="none" stroke="#63b8ff" d="M867.52,-165.34C877.59,-157.57 892.36,-146.17 904.38,-136.9"/>
<polygon fill="#63b8ff" stroke="#63b8ff" points="906.31,-139.83 912.09,-130.95 902.03,-134.29 906.31,-139.83"/>
</a>
</g>
</g>
<!-- Node10 -->
<g id="Node000010" class="node">
<title>Node10</title>
<g id="a_Node000010"><a xlink:href="utils_8h.html" target="_top" xlink:title="Useful miscellaneous utility functions.">
<polygon fill="white" stroke="#666666" points="735.94,-129.75 693.69,-129.75 693.69,-110.5 735.94,-110.5 735.94,-129.75"/>
<text text-anchor="middle" x="714.82" y="-116.25" font-family="Helvetica,sans-Serif" font-size="10.00">utils.h</text>
</a>
</g>
</g>
<!-- Node2&#45;&gt;Node10 -->
<g id="edge11_Node000002_Node000010" class="edge">
<title>Node2&#45;&gt;Node10</title>
<g id="a_edge11_Node000002_Node000010"><a xlink:title=" ">
<path fill="none" stroke="#63b8ff" d="M831.9,-165.34C808.49,-156.5 772.68,-142.98 746.83,-133.22"/>
<polygon fill="#63b8ff" stroke="#63b8ff" points="748.09,-129.95 737.5,-129.69 745.62,-136.5 748.09,-129.95"/>
</a>
</g>
</g>
<!-- Node8&#45;&gt;Node3 -->
<g id="edge8_Node000008_Node000003" class="edge">
<title>Node8&#45;&gt;Node3</title>
<g id="a_edge8_Node000008_Node000003"><a xlink:title=" ">
<path fill="none" stroke="#63b8ff" d="M1049.32,-110.09C1057.25,-102.55 1068.77,-91.6 1078.35,-82.48"/>
<polygon fill="#63b8ff" stroke="#63b8ff" points="1080.53,-85.24 1085.36,-75.82 1075.7,-80.17 1080.53,-85.24"/>
</a>
</g>
</g>
<!-- Node8&#45;&gt;Node5 -->
<g id="edge9_Node000008_Node000005" class="edge">
<title>Node8&#45;&gt;Node5</title>
<g id="a_edge9_Node000008_Node000005"><a xlink:title=" ">
<path fill="none" stroke="#63b8ff" d="M1012.27,-113.41C1007.45,-112.43 1002.49,-111.43 997.82,-110.5 925.38,-96.16 840.16,-80.11 795.23,-71.72"/>
<polygon fill="#63b8ff" stroke="#63b8ff" points="796.14,-68.33 785.67,-69.94 794.86,-75.21 796.14,-68.33"/>
</a>
</g>
</g>
<!-- Node10&#45;&gt;Node5 -->
<g id="edge14_Node000010_Node000005" class="edge">
<title>Node10&#45;&gt;Node5</title>
<g id="a_edge14_Node000010_Node000005"><a xlink:title=" ">
<path fill="none" stroke="#63b8ff" d="M722.91,-110.33C729.68,-102.98 739.54,-92.26 747.88,-83.19"/>
<polygon fill="#63b8ff" stroke="#63b8ff" points="750.33,-85.7 754.53,-75.97 745.18,-80.96 750.33,-85.7"/>
</a>
</g>
</g>
<!-- Node10&#45;&gt;Node6 -->
<g id="edge15_Node000010_Node000006" class="edge">
<title>Node10&#45;&gt;Node6</title>
<g id="a_edge15_Node000010_Node000006"><a xlink:title=" ">
<path fill="none" stroke="#63b8ff" d="M693.45,-110.57C672.05,-102 638.86,-88.71 614.22,-78.85"/>
<polygon fill="#63b8ff" stroke="#63b8ff" points="615.56,-75.62 604.98,-75.15 612.96,-82.12 615.56,-75.62"/>
</a>
</g>
</g>
<!-- Node11 -->
<g id="Node000011" class="node">
<title>Node11</title>
<g id="a_Node000011"><a xlink:title=" ">
<polygon fill="#e0e0e0" stroke="#999999" points="345.69,-74.5 289.94,-74.5 289.94,-55.25 345.69,-55.25 345.69,-74.5"/>
<text text-anchor="middle" x="317.82" y="-61" font-family="Helvetica,sans-Serif" font-size="10.00">algorithm</text>
</a>
</g>
</g>
<!-- Node10&#45;&gt;Node11 -->
<g id="edge12_Node000010_Node000011" class="edge">
<title>Node10&#45;&gt;Node11</title>
<g id="a_edge12_Node000010_Node000011"><a xlink:title=" ">
<path fill="none" stroke="#63b8ff" d="M693.47,-116.26C629.7,-107.71 439.9,-82.25 357.14,-71.15"/>
<polygon fill="#63b8ff" stroke="#63b8ff" points="357.84,-67.71 347.46,-69.85 356.91,-74.65 357.84,-67.71"/>
</a>
</g>
</g>
<!-- Node12 -->
<g id="Node000012" class="node">
<title>Node12</title>
<g id="a_Node000012"><a xlink:title=" ">
<polygon fill="#e0e0e0" stroke="#999999" points="725.82,-74.5 679.82,-74.5 679.82,-55.25 725.82,-55.25 725.82,-74.5"/>
<text text-anchor="middle" x="702.82" y="-61" font-family="Helvetica,sans-Serif" font-size="10.00">iterator</text>
</a>
</g>
</g>
<!-- Node10&#45;&gt;Node12 -->
<g id="edge13_Node000010_Node000012" class="edge">
<title>Node10&#45;&gt;Node12</title>
<g id="a_edge13_Node000010_Node000012"><a xlink:title=" ">
<path fill="none" stroke="#63b8ff" d="M712.84,-110.33C711.35,-103.74 709.26,-94.46 707.37,-86.07"/>
<polygon fill="#63b8ff" stroke="#63b8ff" points="710.79,-85.32 705.17,-76.34 703.96,-86.86 710.79,-85.32"/>
</a>
</g>
</g>
<!-- Node13&#45;&gt;Node2 -->
<g id="edge18_Node000013_Node000002" class="edge">
<title>Node13&#45;&gt;Node2</title>
<g id="a_edge18_Node000013_Node000002"><a xlink:title=" ">
<path fill="none" stroke="#63b8ff" d="M336.33,-283.32C390.06,-279.14 534.26,-266.24 651.82,-240.25 712.3,-226.88 780.64,-203.79 820.87,-189.34"/>
<polygon fill="#63b8ff" stroke="#63b8ff" points="822.06,-192.63 830.27,-185.93 819.67,-186.05 822.06,-192.63"/>
</a>
</g>
</g>
<!-- Node13&#45;&gt;Node3 -->
<g id="edge17_Node000013_Node000003" class="edge">
<title>Node13&#45;&gt;Node3</title>
<g id="a_edge17_Node000013_Node000003"><a xlink:title=" ">
<path fill="none" stroke="#63b8ff" d="M336.28,-283.57C394.96,-279.74 562.8,-267.09 699.82,-240.25 879.55,-205.04 986.03,-275.59 1096.82,-129.75 1106.26,-117.32 1105.02,-99.25 1101.98,-85.49"/>
<polygon fill="#63b8ff" stroke="#63b8ff" points="1105.47,-84.97 1099.48,-76.23 1098.71,-86.8 1105.47,-84.97"/>
</a>
</g>
</g>
<!-- Node14 -->
<g id="Node000014" class="node">
<title>Node14</title>
<g id="a_Node000014"><a xlink:title=" ">
<polygon fill="#e0e0e0" stroke="#999999" points="138.69,-240.25 52.94,-240.25 52.94,-221 138.69,-221 138.69,-240.25"/>
<text text-anchor="middle" x="95.82" y="-226.75" font-family="Helvetica,sans-Serif" font-size="10.00">arrays/eh_vec.h</text>
</a>
</g>
</g>
<!-- Node13&#45;&gt;Node14 -->
<g id="edge19_Node000013_Node000014" class="edge">
<title>Node13&#45;&gt;Node14</title>
<g id="a_edge19_Node000013_Node000014"><a xlink:title=" ">
<path fill="none" stroke="#63b8ff" d="M293.42,-279.67C259.12,-271.33 190.95,-254.76 144.37,-243.43"/>
<polygon fill="#63b8ff" stroke="#63b8ff" points="145.33,-240.06 134.79,-241.1 143.68,-246.87 145.33,-240.06"/>
</a>
</g>
</g>
<!-- Node15 -->
<g id="Node000015" class="node">
<title>Node15</title>
<g id="a_Node000015"><a xlink:title=" ">
<polygon fill="#e0e0e0" stroke="#999999" points="248.69,-240.25 156.94,-240.25 156.94,-221 248.69,-221 248.69,-240.25"/>
<text text-anchor="middle" x="202.82" y="-226.75" font-family="Helvetica,sans-Serif" font-size="10.00">arrays/tensor3d.h</text>
</a>
</g>
</g>
<!-- Node13&#45;&gt;Node15 -->
<g id="edge20_Node000013_Node000015" class="edge">
<title>Node13&#45;&gt;Node15</title>
<g id="a_edge20_Node000013_Node000015"><a xlink:title=" ">
<path fill="none" stroke="#63b8ff" d="M295.82,-275.84C278.36,-267.54 252.22,-255.11 232.09,-245.54"/>
<polygon fill="#63b8ff" stroke="#63b8ff" points="233.81,-242.49 223.28,-241.35 230.8,-248.81 233.81,-242.49"/>
</a>
</g>
</g>
<!-- Node16 -->
<g id="Node000016" class="node">
<title>Node16</title>
<g id="a_Node000016"><a xlink:href="cell__coordinate_8h.html" target="_top" xlink:title="Container for {ijk} or {IJK} grouped variables.">
<polygon fill="white" stroke="#666666" points="149.57,-129.75 60.07,-129.75 60.07,-110.5 149.57,-110.5 149.57,-129.75"/>
<text text-anchor="middle" x="104.82" y="-116.25" font-family="Helvetica,sans-Serif" font-size="10.00">cell_coordinate.h</text>
</a>
</g>
</g>
<!-- Node13&#45;&gt;Node16 -->
<g id="edge21_Node000013_Node000016" class="edge">
<title>Node13&#45;&gt;Node16</title>
<g id="a_edge21_Node000013_Node000016"><a xlink:title=" ">
<path fill="none" stroke="#63b8ff" d="M293.19,-284.74C234.75,-283.89 75.91,-278.06 43.82,-240.25 16.53,-208.1 58.59,-161.67 85.39,-137.36"/>
<polygon fill="#63b8ff" stroke="#63b8ff" points="87.41,-140.23 92.63,-131.01 82.8,-134.97 87.41,-140.23"/>
</a>
</g>
</g>
<!-- Node18 -->
<g id="Node000018" class="node">
<title>Node18</title>
<g id="a_Node000018"><a xlink:href="dimensions_8h.html" target="_top" xlink:title="Defines a class that serves as an explicit converter between MATLAB pointers and array dimensions.">
<polygon fill="white" stroke="#666666" points="294.69,-185 220.94,-185 220.94,-165.75 294.69,-165.75 294.69,-185"/>
<text text-anchor="middle" x="257.82" y="-171.5" font-family="Helvetica,sans-Serif" font-size="10.00">dimensions.h</text>
</a>
</g>
</g>
<!-- Node13&#45;&gt;Node18 -->
<g id="edge24_Node000013_Node000018" class="edge">
<title>Node13&#45;&gt;Node18</title>
<g id="a_edge24_Node000013_Node000018"><a xlink:title=" ">
<path fill="none" stroke="#63b8ff" d="M312.3,-275.86C308.56,-263.17 300.89,-239.52 290.82,-221 285.77,-211.72 278.99,-202.19 272.89,-194.34"/>
<polygon fill="#63b8ff" stroke="#63b8ff" points="275.65,-192.2 266.65,-186.62 270.21,-196.6 275.65,-192.2"/>
</a>
</g>
</g>
<!-- Node19 -->
<g id="Node000019" class="node">
<title>Node19</title>
<g id="a_Node000019"><a xlink:href="mat__io_8h.html" target="_top" xlink:title="Includes MATLAB headers for I/O.">
<polygon fill="white" stroke="#666666" points="256.57,-74.5 203.07,-74.5 203.07,-55.25 256.57,-55.25 256.57,-74.5"/>
<text text-anchor="middle" x="229.82" y="-61" font-family="Helvetica,sans-Serif" font-size="10.00">mat_io.h</text>
</a>
</g>
</g>
<!-- Node13&#45;&gt;Node19 -->
<g id="edge36_Node000013_Node000019" class="edge">
<title>Node13&#45;&gt;Node19</title>
<g id="a_edge36_Node000013_Node000019"><a xlink:title=" ">
<path fill="none" stroke="#63b8ff" d="M307.89,-276.17C297.59,-263.44 277.33,-239.3 257.82,-221 238.88,-203.24 223.19,-208.34 211.82,-185 195.99,-152.52 209.72,-109.64 220.32,-85.18"/>
<polygon fill="#63b8ff" stroke="#63b8ff" points="223.48,-86.69 224.5,-76.15 217.12,-83.76 223.48,-86.69"/>
</a>
</g>
</g>
<!-- Node23 -->
<g id="Node000023" class="node">
<title>Node23</title>
<g id="a_Node000023"><a xlink:href="input__flags_8h.html" target="_top" xlink:title="Organises enumerated constants, names, and classes for handling flag&#45;variables that are passed to TDM...">
<polygon fill="white" stroke="#666666" points="353.57,-129.75 282.07,-129.75 282.07,-110.5 353.57,-110.5 353.57,-129.75"/>
<text text-anchor="middle" x="317.82" y="-116.25" font-family="Helvetica,sans-Serif" font-size="10.00">input_flags.h</text>
</a>
</g>
</g>
<!-- Node13&#45;&gt;Node23 -->
<g id="edge29_Node000013_Node000023" class="edge">
<title>Node13&#45;&gt;Node23</title>
<g id="a_edge29_Node000013_Node000023"><a xlink:title=" ">
<path fill="none" stroke="#63b8ff" d="M314.98,-276.07C315.44,-250.75 316.79,-177.25 317.45,-141.34"/>
<polygon fill="#63b8ff" stroke="#63b8ff" points="320.94,-141.55 317.63,-131.49 313.94,-141.42 320.94,-141.55"/>
</a>
</g>
</g>
<!-- Node24 -->
<g id="Node000024" class="node">
<title>Node24</title>
<g id="a_Node000024"><a xlink:href="simulation__parameters_8h.html" target="_top" xlink:title="Classes collecting parameters for the simulation.">
<polygon fill="white" stroke="#666666" points="643.07,-240.25 520.57,-240.25 520.57,-221 643.07,-221 643.07,-240.25"/>
<text text-anchor="middle" x="581.82" y="-226.75" font-family="Helvetica,sans-Serif" font-size="10.00">simulation_parameters.h</text>
</a>
</g>
</g>
<!-- Node13&#45;&gt;Node24 -->
<g id="edge37_Node000013_Node000024" class="edge">
<title>Node13&#45;&gt;Node24</title>
<g id="a_edge37_Node000013_Node000024"><a xlink:title=" ">
<path fill="none" stroke="#63b8ff" d="M336.22,-280.61C376.79,-272.52 466.11,-254.7 525.11,-242.93"/>
<polygon fill="#63b8ff" stroke="#63b8ff" points="525.51,-246.42 534.64,-241.03 524.15,-239.56 525.51,-246.42"/>
</a>
</g>
</g>
<!-- Node16&#45;&gt;Node11 -->
<g id="edge23_Node000016_Node000011" class="edge">
<title>Node16&#45;&gt;Node11</title>
<g id="a_edge23_Node000016_Node000011"><a xlink:title=" ">
<path fill="none" stroke="#63b8ff" d="M140.95,-110.09C179.19,-100.53 239.34,-85.49 278.69,-75.66"/>
<polygon fill="#63b8ff" stroke="#63b8ff" points="279.37,-79.1 288.22,-73.27 277.67,-72.3 279.37,-79.1"/>
</a>
</g>
</g>
<!-- Node17 -->
<g id="Node000017" class="node">
<title>Node17</title>
<g id="a_Node000017"><a xlink:title=" ">
<polygon fill="#e0e0e0" stroke="#999999" points="172.94,-74.5 88.69,-74.5 88.69,-55.25 172.94,-55.25 172.94,-74.5"/>
<text text-anchor="middle" x="130.82" y="-61" font-family="Helvetica,sans-Serif" font-size="10.00">spdlog/spdlog.h</text>
</a>
</g>
</g>
<!-- Node16&#45;&gt;Node17 -->
<g id="edge22_Node000016_Node000017" class="edge">
<title>Node16&#45;&gt;Node17</title>
<g id="a_edge22_Node000016_Node000017"><a xlink:title=" ">
<path fill="none" stroke="#63b8ff" d="M109.11,-110.33C112.44,-103.51 117.18,-93.81 121.38,-85.2"/>
<polygon fill="#63b8ff" stroke="#63b8ff" points="124.52,-86.74 125.77,-76.22 118.23,-83.67 124.52,-86.74"/>
</a>
</g>
</g>
<!-- Node18&#45;&gt;Node19 -->
<g id="edge25_Node000018_Node000019" class="edge">
<title>Node18&#45;&gt;Node19</title>
<g id="a_edge25_Node000018_Node000019"><a xlink:title=" ">
<path fill="none" stroke="#63b8ff" d="M253.47,-165.36C249.36,-156.49 243.33,-142.47 239.82,-129.75 235.83,-115.31 233.28,-98.56 231.76,-85.83"/>
<polygon fill="#63b8ff" stroke="#63b8ff" points="235.27,-85.76 230.72,-76.19 228.31,-86.51 235.27,-85.76"/>
</a>
</g>
</g>
<!-- Node20 -->
<g id="Node000020" class="node">
<title>Node20</title>
<g id="a_Node000020"><a xlink:title=" ">
<polygon fill="#e0e0e0" stroke="#999999" points="186.19,-19.25 145.44,-19.25 145.44,0 186.19,0 186.19,-19.25"/>
<text text-anchor="middle" x="165.82" y="-5.75" font-family="Helvetica,sans-Serif" font-size="10.00">mat.h</text>
</a>
</g>
</g>
<!-- Node19&#45;&gt;Node20 -->
<g id="edge26_Node000019_Node000020" class="edge">
<title>Node19&#45;&gt;Node20</title>
<g id="a_edge26_Node000019_Node000020"><a xlink:title=" ">
<path fill="none" stroke="#63b8ff" d="M218.96,-54.84C209.71,-47.15 196.19,-35.9 185.11,-26.68"/>
<polygon fill="#63b8ff" stroke="#63b8ff" points="187.6,-24.2 177.68,-20.49 183.13,-29.58 187.6,-24.2"/>
</a>
</g>
</g>
<!-- Node21 -->
<g id="Node000021" class="node">
<title>Node21</title>
<g id="a_Node000021"><a xlink:title=" ">
<polygon fill="#e0e0e0" stroke="#999999" points="255.44,-19.25 204.19,-19.25 204.19,0 255.44,0 255.44,-19.25"/>
<text text-anchor="middle" x="229.82" y="-5.75" font-family="Helvetica,sans-Serif" font-size="10.00">matrix.h</text>
</a>
</g>
</g>
<!-- Node19&#45;&gt;Node21 -->
<g id="edge27_Node000019_Node000021" class="edge">
<title>Node19&#45;&gt;Node21</title>
<g id="a_edge27_Node000019_Node000021"><a xlink:title=" ">
<path fill="none" stroke="#63b8ff" d="M229.82,-55.08C229.82,-48.57 229.82,-39.42 229.82,-31.12"/>
<polygon fill="#63b8ff" stroke="#63b8ff" points="233.32,-31.12 229.82,-21.12 226.32,-31.12 233.32,-31.12"/>
</a>
</g>
</g>
<!-- Node22 -->
<g id="Node000022" class="node">
<title>Node22</title>
<g id="a_Node000022"><a xlink:title=" ">
<polygon fill="#e0e0e0" stroke="#999999" points="316.32,-19.25 273.32,-19.25 273.32,0 316.32,0 316.32,-19.25"/>
<text text-anchor="middle" x="294.82" y="-5.75" font-family="Helvetica,sans-Serif" font-size="10.00">mex.h</text>
</a>
</g>
</g>
<!-- Node19&#45;&gt;Node22 -->
<g id="edge28_Node000019_Node000022" class="edge">
<title>Node19&#45;&gt;Node22</title>
<g id="a_edge28_Node000019_Node000022"><a xlink:title=" ">
<path fill="none" stroke="#63b8ff" d="M240.84,-54.84C250.24,-47.15 263.97,-35.9 275.23,-26.68"/>
<polygon fill="#63b8ff" stroke="#63b8ff" points="277.27,-29.53 282.78,-20.48 272.83,-24.11 277.27,-29.53"/>
</a>
</g>
</g>
<!-- Node23&#45;&gt;Node4 -->
<g id="edge31_Node000023_Node000004" class="edge">
<title>Node23&#45;&gt;Node4</title>
<g id="a_edge31_Node000023_Node000004"><a xlink:title=" ">
<path fill="none" stroke="#63b8ff" d="M339.53,-110.09C359.85,-101.64 390.46,-88.9 413.62,-79.27"/>
<polygon fill="#63b8ff" stroke="#63b8ff" points="414.71,-82.61 422.6,-75.53 412.02,-76.14 414.71,-82.61"/>
</a>
</g>
</g>
<!-- Node23&#45;&gt;Node5 -->
<g id="edge32_Node000023_Node000005" class="edge">
<title>Node23&#45;&gt;Node5</title>
<g id="a_edge32_Node000023_Node000005"><a xlink:title=" ">
<path fill="none" stroke="#63b8ff" d="M353.63,-111.95C356.73,-111.42 359.83,-110.93 362.82,-110.5 523.7,-87.35 569.82,-105.51 732.46,-74.6"/>
<polygon fill="#63b8ff" stroke="#63b8ff" points="732.71,-78.12 741.86,-72.78 731.37,-71.25 732.71,-78.12"/>
</a>
</g>
</g>
<!-- Node23&#45;&gt;Node6 -->
<g id="edge33_Node000023_Node000006" class="edge">
<title>Node23&#45;&gt;Node6</title>
<g id="a_edge33_Node000023_Node000006"><a xlink:title=" ">
<path fill="none" stroke="#63b8ff" d="M353.97,-111.83C405.48,-101.44 499.24,-82.53 548.9,-72.51"/>
<polygon fill="#63b8ff" stroke="#63b8ff" points="549.36,-75.99 558.47,-70.58 547.98,-69.13 549.36,-75.99"/>
</a>
</g>
</g>
<!-- Node23&#45;&gt;Node11 -->
<g id="edge30_Node000023_Node000011" class="edge">
<title>Node23&#45;&gt;Node11</title>
<g id="a_edge30_Node000023_Node000011"><a xlink:title=" ">
<path fill="none" stroke="#63b8ff" d="M317.82,-110.33C317.82,-103.82 317.82,-94.67 317.82,-86.37"/>
<polygon fill="#63b8ff" stroke="#63b8ff" points="321.32,-86.37 317.82,-76.37 314.32,-86.37 321.32,-86.37"/>
</a>
</g>
</g>
<!-- Node23&#45;&gt;Node17 -->
<g id="edge34_Node000023_Node000017" class="edge">
<title>Node23&#45;&gt;Node17</title>
<g id="a_edge34_Node000023_Node000017"><a xlink:title=" ">
<path fill="none" stroke="#63b8ff" d="M286.1,-110.09C255.07,-101.26 207.61,-87.74 173.32,-77.98"/>
<polygon fill="#63b8ff" stroke="#63b8ff" points="174.73,-74.74 164.15,-75.37 172.81,-81.47 174.73,-74.74"/>
</a>
</g>
</g>
<!-- Node23&#45;&gt;Node19 -->
<g id="edge35_Node000023_Node000019" class="edge">
<title>Node23&#45;&gt;Node19</title>
<g id="a_edge35_Node000023_Node000019"><a xlink:title=" ">
<path fill="none" stroke="#63b8ff" d="M302.89,-110.09C289.61,-102.06 269.95,-90.16 254.36,-80.73"/>
<polygon fill="#63b8ff" stroke="#63b8ff" points="256.48,-77.92 246.11,-75.74 252.86,-83.91 256.48,-77.92"/>
</a>
</g>
</g>
<!-- Node24&#45;&gt;Node2 -->
<g id="edge39_Node000024_Node000002" class="edge">
<title>Node24&#45;&gt;Node2</title>
<g id="a_edge39_Node000024_Node000002"><a xlink:title=" ">
<path fill="none" stroke="#63b8ff" d="M631.19,-220.56C678.59,-211.78 752.19,-197.93 815.82,-185 816.82,-184.8 817.84,-184.59 818.87,-184.38"/>
<polygon fill="#63b8ff" stroke="#63b8ff" points="819.47,-187.83 828.53,-182.34 818.03,-180.98 819.47,-187.83"/>
</a>
</g>
</g>
<!-- Node24&#45;&gt;Node5 -->
<g id="edge38_Node000024_Node000005" class="edge">
<title>Node24&#45;&gt;Node5</title>
<g id="a_edge38_Node000024_Node000005"><a xlink:title=" ">
<path fill="none" stroke="#63b8ff" d="M622,-220.54C665.9,-208.23 734.06,-181.57 764.82,-129.75 772.62,-116.61 771.73,-99.1 769.25,-85.74"/>
<polygon fill="#63b8ff" stroke="#63b8ff" points="772.74,-85.3 767.07,-76.36 765.92,-86.89 772.74,-85.3"/>
</a>
</g>
</g>
<!-- Node25 -->
<g id="Node000025" class="node">
<title>Node25</title>
<g id="a_Node000025"><a xlink:title=" ">
<polygon fill="#e0e0e0" stroke="#999999" points="519.82,-185 395.82,-185 395.82,-165.75 519.82,-165.75 519.82,-185"/>
<text text-anchor="middle" x="457.82" y="-171.5" font-family="Helvetica,sans-Serif" font-size="10.00">arrays/vector_typedefs.h</text>
</a>
</g>
</g>
<!-- Node24&#45;&gt;Node25 -->
<g id="edge40_Node000024_Node000025" class="edge">
<title>Node24&#45;&gt;Node25</title>
<g id="a_edge40_Node000024_Node000025"><a xlink:title=" ">
<path fill="none" stroke="#63b8ff" d="M560.78,-220.59C541.19,-212.18 511.71,-199.52 489.31,-189.9"/>
<polygon fill="#63b8ff" stroke="#63b8ff" points="490.92,-186.78 480.35,-186.05 488.15,-193.21 490.92,-186.78"/>
</a>
</g>
</g>
<!-- Node26 -->
<g id="Node000026" class="node">
<title>Node26</title>
<g id="a_Node000026"><a xlink:href="input__matrices_8h.html" target="_top" xlink:title="Class handling the input matrices that are read in from the input file.">
<polygon fill="white" stroke="#666666" points="625.82,-185 537.82,-185 537.82,-165.75 625.82,-165.75 625.82,-185"/>
<text text-anchor="middle" x="581.82" y="-171.5" font-family="Helvetica,sans-Serif" font-size="10.00">input_matrices.h</text>
</a>
</g>
</g>
<!-- Node24&#45;&gt;Node26 -->
<g id="edge41_Node000024_Node000026" class="edge">
<title>Node24&#45;&gt;Node26</title>
<g id="a_edge41_Node000024_Node000026"><a xlink:title=" ">
<path fill="none" stroke="#63b8ff" d="M581.82,-220.83C581.82,-214.32 581.82,-205.17 581.82,-196.87"/>
<polygon fill="#63b8ff" stroke="#63b8ff" points="585.32,-196.87 581.82,-186.87 578.32,-196.87 585.32,-196.87"/>
</a>
</g>
</g>
<!-- Node26&#45;&gt;Node5 -->
<g id="edge42_Node000026_Node000005" class="edge">
<title>Node26&#45;&gt;Node5</title>
<g id="a_edge42_Node000026_Node000005"><a xlink:title=" ">
<path fill="none" stroke="#63b8ff" d="M625.97,-173.62C662.47,-170.62 713.25,-160.63 744.82,-129.75 756.47,-118.35 761.05,-100.16 762.81,-86.09"/>
<polygon fill="#63b8ff" stroke="#63b8ff" points="766.3,-86.42 763.64,-76.17 759.32,-85.84 766.3,-86.42"/>
</a>
</g>
</g>
<!-- Node26&#45;&gt;Node19 -->
<g id="edge46_Node000026_Node000019" class="edge">
<title>Node26&#45;&gt;Node19</title>
<g id="a_edge46_Node000026_Node000019"><a xlink:title=" ">
<path fill="none" stroke="#63b8ff" d="M537.58,-167.1C534.62,-166.64 531.67,-166.18 528.82,-165.75 415.22,-148.52 370.23,-190.68 272.82,-129.75 256.18,-119.34 244.49,-99.88 237.54,-85.16"/>
<polygon fill="#63b8ff" stroke="#63b8ff" points="240.77,-83.8 233.58,-76.02 234.34,-86.59 240.77,-83.8"/>
</a>
</g>
</g>
<!-- Node27 -->
<g id="Node000027" class="node">
<title>Node27</title>
<g id="a_Node000027"><a xlink:href="input__output__names_8h.html" target="_top" xlink:title="Constant values associated with the format of the input and output files and matrices.">
<polygon fill="white" stroke="#666666" points="637.82,-129.75 525.82,-129.75 525.82,-110.5 637.82,-110.5 637.82,-129.75"/>
<text text-anchor="middle" x="581.82" y="-116.25" font-family="Helvetica,sans-Serif" font-size="10.00">input_output_names.h</text>
</a>
</g>
</g>
<!-- Node26&#45;&gt;Node27 -->
<g id="edge43_Node000026_Node000027" class="edge">
<title>Node26&#45;&gt;Node27</title>
<g id="a_edge43_Node000026_Node000027"><a xlink:title=" ">
<path fill="none" stroke="#63b8ff" d="M581.82,-165.58C581.82,-159.07 581.82,-149.92 581.82,-141.62"/>
<polygon fill="#63b8ff" stroke="#63b8ff" points="585.32,-141.62 581.82,-131.62 578.32,-141.62 585.32,-141.62"/>
</a>
</g>
</g>
<!-- Node28 -->
<g id="Node000028" class="node">
<title>Node28</title>
<g id="a_Node000028"><a xlink:href="matrix__collection_8h.html" target="_top" xlink:title="A collection of named MATLAB matrices.">
<polygon fill="white" stroke="#666666" points="469.69,-129.75 371.94,-129.75 371.94,-110.5 469.69,-110.5 469.69,-129.75"/>
<text text-anchor="middle" x="420.82" y="-116.25" font-family="Helvetica,sans-Serif" font-size="10.00">matrix_collection.h</text>
</a>
</g>
</g>
<!-- Node26&#45;&gt;Node28 -->
<g id="edge47_Node000026_Node000028" class="edge">
<title>Node26&#45;&gt;Node28</title>
<g id="a_edge47_Node000026_Node000028"><a xlink:title=" ">
<path fill="none" stroke="#63b8ff" d="M554.51,-165.34C528.25,-156.66 488.34,-143.46 458.96,-133.74"/>
<polygon fill="#63b8ff" stroke="#63b8ff" points="460.29,-130.49 449.7,-130.68 458.09,-137.14 460.29,-130.49"/>
</a>
</g>
</g>
<!-- Node27&#45;&gt;Node5 -->
<g id="edge44_Node000027_Node000005" class="edge">
<title>Node27&#45;&gt;Node5</title>
<g id="a_edge44_Node000027_Node000005"><a xlink:title=" ">
<path fill="none" stroke="#63b8ff" d="M613.19,-110.03C641.89,-101.69 685.81,-88.91 732.57,-75.15"/>
<polygon fill="#63b8ff" stroke="#63b8ff" points="733.48,-78.53 742.09,-72.35 731.51,-71.82 733.48,-78.53"/>
</a>
</g>
</g>
<!-- Node27&#45;&gt;Node6 -->
<g id="edge45_Node000027_Node000006" class="edge">
<title>Node27&#45;&gt;Node6</title>
<g id="a_edge45_Node000027_Node000006"><a xlink:title=" ">
<path fill="none" stroke="#63b8ff" d="M581.82,-110.33C581.82,-103.82 581.82,-94.67 581.82,-86.37"/>
<polygon fill="#63b8ff" stroke="#63b8ff" points="585.32,-86.37 581.82,-76.37 578.32,-86.37 585.32,-86.37"/>
</a>
</g>
</g>
<!-- Node28&#45;&gt;Node5 -->
<g id="edge48_Node000028_Node000005" class="edge">
<title>Node28&#45;&gt;Node5</title>
<g id="a_edge48_Node000028_Node000005"><a xlink:title=" ">
<path fill="none" stroke="#63b8ff" d="M470.17,-114.39C530.11,-108.15 634.41,-95.66 732.34,-74.77"/>
<polygon fill="#63b8ff" stroke="#63b8ff" points="732.81,-78.24 741.84,-72.7 731.33,-71.4 732.81,-78.24"/>
</a>
</g>
</g>
<!-- Node28&#45;&gt;Node6 -->
<g id="edge49_Node000028_Node000006" class="edge">
<title>Node28&#45;&gt;Node6</title>
<g id="a_edge49_Node000028_Node000006"><a xlink:title=" ">
<path fill="none" stroke="#63b8ff" d="M448.13,-110.09C476.13,-100.83 519.68,-86.43 549.41,-76.6"/>
<polygon fill="#63b8ff" stroke="#63b8ff" points="550.23,-80.01 558.63,-73.55 548.03,-73.36 550.23,-80.01"/>
</a>
</g>
</g>
<!-- Node28&#45;&gt;Node19 -->
<g id="edge50_Node000028_Node000019" class="edge">
<title>Node28&#45;&gt;Node19</title>
<g id="a_edge50_Node000028_Node000019"><a xlink:title=" ">
<path fill="none" stroke="#63b8ff" d="M388.42,-110.09C355,-100.77 302.91,-86.25 267.63,-76.42"/>
<polygon fill="#63b8ff" stroke="#63b8ff" points="268.84,-73.12 258.27,-73.81 266.96,-79.86 268.84,-73.12"/>
</a>
</g>
</g>
<!-- Node29&#45;&gt;Node19 -->
<g id="edge52_Node000029_Node000019" class="edge">
<title>Node29&#45;&gt;Node19</title>
<g id="a_edge52_Node000029_Node000019"><a xlink:title=" ">
<path fill="none" stroke="#63b8ff" d="M79.95,-275.89C61.99,-269.21 41.48,-258.08 30.82,-240.25 11.1,-207.26 -36.01,-203.19 50.82,-110.5 60.47,-100.19 141.78,-82.91 191.43,-73.15"/>
<polygon fill="#63b8ff" stroke="#63b8ff" points="192.07,-76.59 201.22,-71.25 190.74,-69.72 192.07,-76.59"/>
</a>
</g>
</g>
</g>
</svg>
