<?xml version="1.0" encoding="UTF-8" standalone="no"?>
<!DOCTYPE svg PUBLIC "-//W3C//DTD SVG 1.1//EN"
 "http://www.w3.org/Graphics/SVG/1.1/DTD/svg11.dtd">
<!-- Generated by graphviz version 8.0.5 (20230430.1635)
 -->
<!-- Title: tdms/include/surface_phasors.h Pages: 1 -->
<svg width="1339pt" height="370pt"
 viewBox="0.00 0.00 1339.22 370.00" xmlns="http://www.w3.org/2000/svg" xmlns:xlink="http://www.w3.org/1999/xlink">
<g id="graph0" class="graph" transform="scale(1 1) rotate(0) translate(4 366)">
<title>tdms/include/surface_phasors.h</title>
<!-- Node1 -->
<g id="node1" class="node">
<title>Node1</title>
<g id="a_node1"><a xlink:title="Contains a class that handles the complex amplitude extraction.">
<polygon fill="#999999" stroke="#666666" points="416.22,-362 309.47,-362 309.47,-331.5 416.22,-331.5 416.22,-362"/>
<text text-anchor="start" x="317.47" y="-348.5" font-family="Helvetica,sans-Serif" font-size="10.00">tdms/include/surface</text>
<text text-anchor="middle" x="362.85" y="-337.25" font-family="Helvetica,sans-Serif" font-size="10.00">_phasors.h</text>
</a>
</g>
</g>
<!-- Node2 -->
<g id="node2" class="node">
<title>Node2</title>
<g id="a_node2"><a xlink:href="arrays_8h.html" target="_top" xlink:title="Classes describing arrays, vertices etc.">
<polygon fill="white" stroke="#666666" points="891.47,-185 840.22,-185 840.22,-165.75 891.47,-165.75 891.47,-185"/>
<text text-anchor="middle" x="865.85" y="-171.5" font-family="Helvetica,sans-Serif" font-size="10.00">arrays.h</text>
</a>
</g>
</g>
<!-- Node1&#45;&gt;Node2 -->
<g id="edge1" class="edge">
<title>Node1&#45;&gt;Node2</title>
<path fill="none" stroke="#63b8ff" d="M416.59,-333.16C488.87,-315.58 620.94,-281.18 729.85,-240.25 769.04,-225.52 812.54,-204.15 839.55,-190.26"/>
<polygon fill="#63b8ff" stroke="#63b8ff" points="840.78,-193.05 848.05,-185.33 837.56,-186.83 840.78,-193.05"/>
</g>
<!-- Node12 -->
<g id="node12" class="node">
<title>Node12</title>
<g id="a_node12"><a xlink:href="field_8h.html" target="_top" xlink:title="Classes for the electric and magnetic (split) fields on a grid.">
<polygon fill="white" stroke="#666666" points="383.97,-295.5 341.72,-295.5 341.72,-276.25 383.97,-276.25 383.97,-295.5"/>
<text text-anchor="middle" x="362.85" y="-282" font-family="Helvetica,sans-Serif" font-size="10.00">field.h</text>
</a>
</g>
</g>
<!-- Node1&#45;&gt;Node12 -->
<g id="edge14" class="edge">
<title>Node1&#45;&gt;Node12</title>
<path fill="none" stroke="#63b8ff" d="M362.85,-331.2C362.85,-323.87 362.85,-314.87 362.85,-306.91"/>
<polygon fill="#63b8ff" stroke="#63b8ff" points="366.35,-306.95 362.85,-296.95 359.35,-306.95 366.35,-306.95"/>
</g>
<!-- Node27 -->
<g id="node27" class="node">
<title>Node27</title>
<g id="a_node27"><a xlink:href="grid__labels_8h.html" target="_top" xlink:title="Class to hold the labels of a Yee cell.">
<polygon fill="white" stroke="#666666" points="201.22,-295.5 130.47,-295.5 130.47,-276.25 201.22,-276.25 201.22,-295.5"/>
<text text-anchor="middle" x="165.85" y="-282" font-family="Helvetica,sans-Serif" font-size="10.00">grid_labels.h</text>
</a>
</g>
</g>
<!-- Node1&#45;&gt;Node27 -->
<g id="edge47" class="edge">
<title>Node1&#45;&gt;Node27</title>
<path fill="none" stroke="#63b8ff" d="M313.64,-331.05C280.72,-321.2 237.88,-308.4 206.81,-299.12"/>
<polygon fill="#63b8ff" stroke="#63b8ff" points="207.93,-295.5 197.35,-295.99 205.93,-302.21 207.93,-295.5"/>
</g>
<!-- Node3 -->
<g id="node3" class="node">
<title>Node3</title>
<g id="a_node3"><a xlink:title=" ">
<polygon fill="#e0e0e0" stroke="#999999" points="1331.22,-74.5 1278.47,-74.5 1278.47,-55.25 1331.22,-55.25 1331.22,-74.5"/>
<text text-anchor="middle" x="1304.85" y="-61" font-family="Helvetica,sans-Serif" font-size="10.00">complex</text>
</a>
</g>
</g>
<!-- Node2&#45;&gt;Node3 -->
<g id="edge2" class="edge">
<title>Node2&#45;&gt;Node3</title>
<path fill="none" stroke="#63b8ff" d="M891.78,-173.27C978.62,-169.36 1255.47,-155.01 1285.85,-129.75 1298.63,-119.12 1303.05,-100.28 1304.47,-85.81"/>
<polygon fill="#63b8ff" stroke="#63b8ff" points="1308.01,-86.14 1305.07,-75.96 1301.02,-85.75 1308.01,-86.14"/>
</g>
<!-- Node4 -->
<g id="node4" class="node">
<title>Node4</title>
<g id="a_node4"><a xlink:title=" ">
<polygon fill="#e0e0e0" stroke="#999999" points="738.22,-129.75 679.47,-129.75 679.47,-110.5 738.22,-110.5 738.22,-129.75"/>
<text text-anchor="middle" x="708.85" y="-116.25" font-family="Helvetica,sans-Serif" font-size="10.00">stdexcept</text>
</a>
</g>
</g>
<!-- Node2&#45;&gt;Node4 -->
<g id="edge3" class="edge">
<title>Node2&#45;&gt;Node4</title>
<path fill="none" stroke="#63b8ff" d="M839.92,-165.58C814.25,-156.87 774.68,-143.46 745.74,-133.64"/>
<polygon fill="#63b8ff" stroke="#63b8ff" points="747.19,-130.1 736.6,-130.2 744.95,-136.73 747.19,-130.1"/>
</g>
<!-- Node5 -->
<g id="node5" class="node">
<title>Node5</title>
<g id="a_node5"><a xlink:title=" ">
<polygon fill="#e0e0e0" stroke="#999999" points="823.85,-74.5 783.85,-74.5 783.85,-55.25 823.85,-55.25 823.85,-74.5"/>
<text text-anchor="middle" x="803.85" y="-61" font-family="Helvetica,sans-Serif" font-size="10.00">string</text>
</a>
</g>
</g>
<!-- Node2&#45;&gt;Node5 -->
<g id="edge4" class="edge">
<title>Node2&#45;&gt;Node5</title>
<path fill="none" stroke="#63b8ff" d="M860.77,-165.5C850.65,-147.77 827.74,-107.69 814.28,-84.13"/>
<polygon fill="#63b8ff" stroke="#63b8ff" points="816.99,-82.82 808.99,-75.88 810.91,-86.3 816.99,-82.82"/>
</g>
<!-- Node6 -->
<g id="node6" class="node">
<title>Node6</title>
<g id="a_node6"><a xlink:title=" ">
<polygon fill="#e0e0e0" stroke="#999999" points="527.35,-74.5 484.35,-74.5 484.35,-55.25 527.35,-55.25 527.35,-74.5"/>
<text text-anchor="middle" x="505.85" y="-61" font-family="Helvetica,sans-Serif" font-size="10.00">vector</text>
</a>
</g>
</g>
<!-- Node2&#45;&gt;Node6 -->
<g id="edge5" class="edge">
<title>Node2&#45;&gt;Node6</title>
<path fill="none" stroke="#63b8ff" d="M852.56,-165.45C831.22,-151.54 787.55,-124.8 746.85,-110.5 674.9,-85.22 585.57,-73.47 538.46,-68.69"/>
<polygon fill="#63b8ff" stroke="#63b8ff" points="538.99,-65.13 528.7,-67.64 538.32,-72.09 538.99,-65.13"/>
</g>
<!-- Node7 -->
<g id="node7" class="node">
<title>Node7</title>
<g id="a_node7"><a xlink:title=" ">
<polygon fill="#e0e0e0" stroke="#999999" points="975.85,-129.75 929.85,-129.75 929.85,-110.5 975.85,-110.5 975.85,-129.75"/>
<text text-anchor="middle" x="952.85" y="-116.25" font-family="Helvetica,sans-Serif" font-size="10.00">fftw3.h</text>
</a>
</g>
</g>
<!-- Node2&#45;&gt;Node7 -->
<g id="edge6" class="edge">
<title>Node2&#45;&gt;Node7</title>
<path fill="none" stroke="#63b8ff" d="M880.61,-165.34C893.85,-157.23 913.54,-145.18 929.02,-135.71"/>
<polygon fill="#63b8ff" stroke="#63b8ff" points="930.32,-138.41 937.02,-130.2 926.66,-132.44 930.32,-138.41"/>
</g>
<!-- Node8 -->
<g id="node8" class="node">
<title>Node8</title>
<g id="a_node8"><a xlink:title=" ">
<polygon fill="#e0e0e0" stroke="#999999" points="1085.72,-129.75 993.97,-129.75 993.97,-110.5 1085.72,-110.5 1085.72,-129.75"/>
<text text-anchor="middle" x="1039.85" y="-116.25" font-family="Helvetica,sans-Serif" font-size="10.00">arrays/tensor3d.h</text>
</a>
</g>
</g>
<!-- Node2&#45;&gt;Node8 -->
<g id="edge7" class="edge">
<title>Node2&#45;&gt;Node8</title>
<path fill="none" stroke="#63b8ff" d="M891.9,-166.4C920.47,-157.66 966.67,-143.52 999.84,-133.37"/>
<polygon fill="#63b8ff" stroke="#63b8ff" points="1000.58,-136.5 1009.12,-130.22 998.53,-129.8 1000.58,-136.5"/>
</g>
<!-- Node9 -->
<g id="node9" class="node">
<title>Node9</title>
<g id="a_node9"><a xlink:href="globals_8h.html" target="_top" xlink:title="Type definitions and global constants.">
<polygon fill="white" stroke="#666666" points="1276.35,-129.75 1221.35,-129.75 1221.35,-110.5 1276.35,-110.5 1276.35,-129.75"/>
<text text-anchor="middle" x="1248.85" y="-116.25" font-family="Helvetica,sans-Serif" font-size="10.00">globals.h</text>
</a>
</g>
</g>
<!-- Node2&#45;&gt;Node9 -->
<g id="edge8" class="edge">
<title>Node2&#45;&gt;Node9</title>
<path fill="none" stroke="#63b8ff" d="M891.87,-170.76C957.91,-161.58 1132.25,-137.34 1210.21,-126.5"/>
<polygon fill="#63b8ff" stroke="#63b8ff" points="1210.57,-129.84 1219.99,-125 1209.61,-122.91 1210.57,-129.84"/>
</g>
<!-- Node10 -->
<g id="node10" class="node">
<title>Node10</title>
<g id="a_node10"><a xlink:title=" ">
<polygon fill="#e0e0e0" stroke="#999999" points="1164.35,-129.75 1103.35,-129.75 1103.35,-110.5 1164.35,-110.5 1164.35,-129.75"/>
<text text-anchor="middle" x="1133.85" y="-116.25" font-family="Helvetica,sans-Serif" font-size="10.00">matlabio.h</text>
</a>
</g>
</g>
<!-- Node2&#45;&gt;Node10 -->
<g id="edge11" class="edge">
<title>Node2&#45;&gt;Node10</title>
<path fill="none" stroke="#63b8ff" d="M891.65,-169.57C932.27,-161.95 1013.88,-146.46 1092.62,-130.17"/>
<polygon fill="#63b8ff" stroke="#63b8ff" points="1093.13,-133.44 1102.21,-127.98 1091.7,-126.58 1093.13,-133.44"/>
</g>
<!-- Node11 -->
<g id="node11" class="node">
<title>Node11</title>
<g id="a_node11"><a xlink:href="utils_8h.html" target="_top" xlink:title="Useful miscellaneous utility functions.">
<polygon fill="white" stroke="#666666" points="911.97,-129.75 869.72,-129.75 869.72,-110.5 911.97,-110.5 911.97,-129.75"/>
<text text-anchor="middle" x="890.85" y="-116.25" font-family="Helvetica,sans-Serif" font-size="10.00">utils.h</text>
</a>
</g>
</g>
<!-- Node2&#45;&gt;Node11 -->
<g id="edge12" class="edge">
<title>Node2&#45;&gt;Node11</title>
<path fill="none" stroke="#63b8ff" d="M869.98,-165.58C873.25,-158.61 877.94,-148.62 882.05,-139.87"/>
<polygon fill="#63b8ff" stroke="#63b8ff" points="885.55,-141.65 886.63,-131.11 879.21,-138.67 885.55,-141.65"/>
</g>
<!-- Node9&#45;&gt;Node3 -->
<g id="edge9" class="edge">
<title>Node9&#45;&gt;Node3</title>
<path fill="none" stroke="#63b8ff" d="M1258.35,-110.09C1266.36,-102.47 1278.03,-91.37 1287.68,-82.2"/>
<polygon fill="#63b8ff" stroke="#63b8ff" points="1289.65,-85.2 1294.49,-75.77 1284.83,-80.13 1289.65,-85.2"/>
</g>
<!-- Node9&#45;&gt;Node5 -->
<g id="edge10" class="edge">
<title>Node9&#45;&gt;Node5</title>
<path fill="none" stroke="#63b8ff" d="M1220.9,-113.01C1216.22,-112.1 1211.41,-111.22 1206.85,-110.5 1068.81,-88.73 902.52,-73.89 834.8,-68.32"/>
<polygon fill="#63b8ff" stroke="#63b8ff" points="835.31,-64.77 825.06,-67.45 834.75,-71.75 835.31,-64.77"/>
</g>
<!-- Node11&#45;&gt;Node5 -->
<g id="edge13" class="edge">
<title>Node11&#45;&gt;Node5</title>
<path fill="none" stroke="#63b8ff" d="M876.09,-110.09C862.84,-101.98 843.15,-89.93 827.68,-80.46"/>
<polygon fill="#63b8ff" stroke="#63b8ff" points="830.03,-77.19 819.68,-74.95 826.38,-83.16 830.03,-77.19"/>
</g>
<!-- Node12&#45;&gt;Node2 -->
<g id="edge16" class="edge">
<title>Node12&#45;&gt;Node2</title>
<path fill="none" stroke="#63b8ff" d="M365.27,-276.04C369.7,-261.75 380.58,-233.85 400.85,-221 436.75,-198.25 725.69,-182.83 829.16,-178"/>
<polygon fill="#63b8ff" stroke="#63b8ff" points="829.16,-181.45 838.99,-177.5 828.84,-174.46 829.16,-181.45"/>
</g>
<!-- Node12&#45;&gt;Node3 -->
<g id="edge15" class="edge">
<title>Node12&#45;&gt;Node3</title>
<path fill="none" stroke="#63b8ff" d="M384.38,-282.46C441.03,-276.08 598.82,-258 729.85,-240.25 988.16,-205.27 1147.19,-336.57 1305.85,-129.75 1315.45,-117.24 1314.07,-98.92 1310.96,-85.11"/>
<polygon fill="#63b8ff" stroke="#63b8ff" points="1314.15,-84.51 1308.13,-75.79 1307.4,-86.36 1314.15,-84.51"/>
</g>
<!-- Node13 -->
<g id="node13" class="node">
<title>Node13</title>
<g id="a_node13"><a xlink:title=" ">
<polygon fill="#e0e0e0" stroke="#999999" points="495.72,-240.25 409.97,-240.25 409.97,-221 495.72,-221 495.72,-240.25"/>
<text text-anchor="middle" x="452.85" y="-226.75" font-family="Helvetica,sans-Serif" font-size="10.00">arrays/eh_vec.h</text>
</a>
</g>
</g>
<!-- Node12&#45;&gt;Node13 -->
<g id="edge17" class="edge">
<title>Node12&#45;&gt;Node13</title>
<path fill="none" stroke="#63b8ff" d="M378.12,-275.84C391.82,-267.73 412.19,-255.68 428.2,-246.21"/>
<polygon fill="#63b8ff" stroke="#63b8ff" points="429.68,-248.81 436.51,-240.7 426.12,-242.78 429.68,-248.81"/>
</g>
<!-- Node14 -->
<g id="node14" class="node">
<title>Node14</title>
<g id="a_node14"><a xlink:href="cell__coordinate_8h.html" target="_top" xlink:title="Container for {ijk} or {IJK} grouped variables.">
<polygon fill="white" stroke="#666666" points="266.6,-185 177.1,-185 177.1,-165.75 266.6,-165.75 266.6,-185"/>
<text text-anchor="middle" x="221.85" y="-171.5" font-family="Helvetica,sans-Serif" font-size="10.00">cell_coordinate.h</text>
</a>
</g>
</g>
<!-- Node12&#45;&gt;Node14 -->
<g id="edge18" class="edge">
<title>Node12&#45;&gt;Node14</title>
<path fill="none" stroke="#63b8ff" d="M351.31,-276C327.35,-257.56 271.94,-214.92 241.97,-191.86"/>
<polygon fill="#63b8ff" stroke="#63b8ff" points="244.61,-188.7 234.55,-185.38 240.34,-194.25 244.61,-188.7"/>
</g>
<!-- Node17 -->
<g id="node17" class="node">
<title>Node17</title>
<g id="a_node17"><a xlink:href="dimensions_8h.html" target="_top" xlink:title="Defines a class that serves as an explicit converter between MATLAB pointers and array dimensions.">
<polygon fill="white" stroke="#666666" points="209.72,-240.25 135.97,-240.25 135.97,-221 209.72,-221 209.72,-240.25"/>
<text text-anchor="middle" x="172.85" y="-226.75" font-family="Helvetica,sans-Serif" font-size="10.00">dimensions.h</text>
</a>
</g>
</g>
<!-- Node12&#45;&gt;Node17 -->
<g id="edge21" class="edge">
<title>Node12&#45;&gt;Node17</title>
<path fill="none" stroke="#63b8ff" d="M341.42,-278.87C311.08,-270.37 254.95,-254.63 215.83,-243.67"/>
<polygon fill="#63b8ff" stroke="#63b8ff" points="216.86,-240.04 206.28,-240.72 214.97,-246.78 216.86,-240.04"/>
</g>
<!-- Node18 -->
<g id="node18" class="node">
<title>Node18</title>
<g id="a_node18"><a xlink:href="mat__io_8h.html" target="_top" xlink:title="Includes MATLAB headers for I/O.">
<polygon fill="white" stroke="#666666" points="211.6,-74.5 158.1,-74.5 158.1,-55.25 211.6,-55.25 211.6,-74.5"/>
<text text-anchor="middle" x="184.85" y="-61" font-family="Helvetica,sans-Serif" font-size="10.00">mat_io.h</text>
</a>
</g>
</g>
<!-- Node12&#45;&gt;Node18 -->
<g id="edge33" class="edge">
<title>Node12&#45;&gt;Node18</title>
<path fill="none" stroke="#63b8ff" d="M341.42,-283.23C289.89,-278.9 160.77,-265.73 126.85,-240.25 78.5,-203.92 53.03,-161.3 85.85,-110.5 99.33,-89.64 125.15,-78.43 147.04,-72.46"/>
<polygon fill="#63b8ff" stroke="#63b8ff" points="147.84,-75.63 156.73,-69.87 146.18,-68.83 147.84,-75.63"/>
</g>
<!-- Node22 -->
<g id="node22" class="node">
<title>Node22</title>
<g id="a_node22"><a xlink:href="input__flags_8h.html" target="_top" xlink:title="Organises enumerated constants, names, and classes for handling flag&#45;variables that are passed to TDM...">
<polygon fill="white" stroke="#666666" points="379.6,-185 308.1,-185 308.1,-165.75 379.6,-165.75 379.6,-185"/>
<text text-anchor="middle" x="343.85" y="-171.5" font-family="Helvetica,sans-Serif" font-size="10.00">input_flags.h</text>
</a>
</g>
</g>
<!-- Node12&#45;&gt;Node22 -->
<g id="edge26" class="edge">
<title>Node12&#45;&gt;Node22</title>
<path fill="none" stroke="#63b8ff" d="M361.29,-276C358.25,-258.59 351.42,-219.62 347.27,-195.91"/>
<polygon fill="#63b8ff" stroke="#63b8ff" points="350.6,-195.62 345.42,-186.38 343.7,-196.83 350.6,-195.62"/>
</g>
<!-- Node23 -->
<g id="node23" class="node">
<title>Node23</title>
<g id="a_node23"><a xlink:href="simulation__parameters_8h.html" target="_top" xlink:title="Classes collecting parameters for the simulation.">
<polygon fill="white" stroke="#666666" points="721.1,-240.25 598.6,-240.25 598.6,-221 721.1,-221 721.1,-240.25"/>
<text text-anchor="middle" x="659.85" y="-226.75" font-family="Helvetica,sans-Serif" font-size="10.00">simulation_parameters.h</text>
</a>
</g>
</g>
<!-- Node12&#45;&gt;Node23 -->
<g id="edge34" class="edge">
<title>Node12&#45;&gt;Node23</title>
<path fill="none" stroke="#63b8ff" d="M384.21,-281.05C428.43,-273.12 531.46,-254.64 598.27,-242.67"/>
<polygon fill="#63b8ff" stroke="#63b8ff" points="598.85,-245.94 608.07,-240.73 597.61,-239.05 598.85,-245.94"/>
</g>
<!-- Node15 -->
<g id="node15" class="node">
<title>Node15</title>
<g id="a_node15"><a xlink:title=" ">
<polygon fill="#e0e0e0" stroke="#999999" points="263.97,-129.75 179.72,-129.75 179.72,-110.5 263.97,-110.5 263.97,-129.75"/>
<text text-anchor="middle" x="221.85" y="-116.25" font-family="Helvetica,sans-Serif" font-size="10.00">spdlog/spdlog.h</text>
</a>
</g>
</g>
<!-- Node14&#45;&gt;Node15 -->
<g id="edge19" class="edge">
<title>Node14&#45;&gt;Node15</title>
<path fill="none" stroke="#63b8ff" d="M221.85,-165.58C221.85,-158.92 221.85,-149.49 221.85,-141.03"/>
<polygon fill="#63b8ff" stroke="#63b8ff" points="225.35,-141.11 221.85,-131.11 218.35,-141.11 225.35,-141.11"/>
</g>
<!-- Node16 -->
<g id="node16" class="node">
<title>Node16</title>
<g id="a_node16"><a xlink:title=" ">
<polygon fill="#e0e0e0" stroke="#999999" points="161.72,-129.75 105.97,-129.75 105.97,-110.5 161.72,-110.5 161.72,-129.75"/>
<text text-anchor="middle" x="133.85" y="-116.25" font-family="Helvetica,sans-Serif" font-size="10.00">algorithm</text>
</a>
</g>
</g>
<!-- Node14&#45;&gt;Node16 -->
<g id="edge20" class="edge">
<title>Node14&#45;&gt;Node16</title>
<path fill="none" stroke="#63b8ff" d="M206.92,-165.34C193.52,-157.23 173.61,-145.18 157.95,-135.71"/>
<polygon fill="#63b8ff" stroke="#63b8ff" points="160.22,-132.39 149.85,-130.2 156.59,-138.37 160.22,-132.39"/>
</g>
<!-- Node17&#45;&gt;Node18 -->
<g id="edge22" class="edge">
<title>Node17&#45;&gt;Node18</title>
<path fill="none" stroke="#63b8ff" d="M159.42,-220.72C131.4,-201.01 71.3,-152.1 96.85,-110.5 107.91,-92.48 128.77,-81.46 147.41,-74.88"/>
<polygon fill="#63b8ff" stroke="#63b8ff" points="148.28,-77.96 156.74,-71.59 146.15,-71.29 148.28,-77.96"/>
</g>
<!-- Node19 -->
<g id="node19" class="node">
<title>Node19</title>
<g id="a_node19"><a xlink:title=" ">
<polygon fill="#e0e0e0" stroke="#999999" points="141.22,-19.25 100.47,-19.25 100.47,0 141.22,0 141.22,-19.25"/>
<text text-anchor="middle" x="120.85" y="-5.75" font-family="Helvetica,sans-Serif" font-size="10.00">mat.h</text>
</a>
</g>
</g>
<!-- Node18&#45;&gt;Node19 -->
<g id="edge23" class="edge">
<title>Node18&#45;&gt;Node19</title>
<path fill="none" stroke="#63b8ff" d="M173.99,-54.84C164.65,-47.07 150.95,-35.67 139.81,-26.4"/>
<polygon fill="#63b8ff" stroke="#63b8ff" points="142.47,-23.23 132.54,-19.52 137.99,-28.61 142.47,-23.23"/>
</g>
<!-- Node20 -->
<g id="node20" class="node">
<title>Node20</title>
<g id="a_node20"><a xlink:title=" ">
<polygon fill="#e0e0e0" stroke="#999999" points="210.47,-19.25 159.22,-19.25 159.22,0 210.47,0 210.47,-19.25"/>
<text text-anchor="middle" x="184.85" y="-5.75" font-family="Helvetica,sans-Serif" font-size="10.00">matrix.h</text>
</a>
</g>
</g>
<!-- Node18&#45;&gt;Node20 -->
<g id="edge24" class="edge">
<title>Node18&#45;&gt;Node20</title>
<path fill="none" stroke="#63b8ff" d="M184.85,-55.08C184.85,-48.42 184.85,-38.99 184.85,-30.53"/>
<polygon fill="#63b8ff" stroke="#63b8ff" points="188.35,-30.61 184.85,-20.61 181.35,-30.61 188.35,-30.61"/>
</g>
<!-- Node21 -->
<g id="node21" class="node">
<title>Node21</title>
<g id="a_node21"><a xlink:title=" ">
<polygon fill="#e0e0e0" stroke="#999999" points="271.35,-19.25 228.35,-19.25 228.35,0 271.35,0 271.35,-19.25"/>
<text text-anchor="middle" x="249.85" y="-5.75" font-family="Helvetica,sans-Serif" font-size="10.00">mex.h</text>
</a>
</g>
</g>
<!-- Node18&#45;&gt;Node21 -->
<g id="edge25" class="edge">
<title>Node18&#45;&gt;Node21</title>
<path fill="none" stroke="#63b8ff" d="M195.87,-54.84C205.36,-47.07 219.27,-35.67 230.59,-26.4"/>
<polygon fill="#63b8ff" stroke="#63b8ff" points="232.47,-28.57 237.98,-19.52 228.03,-23.15 232.47,-28.57"/>
</g>
<!-- Node22&#45;&gt;Node4 -->
<g id="edge28" class="edge">
<title>Node22&#45;&gt;Node4</title>
<path fill="none" stroke="#63b8ff" d="M379.69,-170.12C439.27,-162.9 562.35,-147.29 665.85,-129.75 666.8,-129.59 667.76,-129.42 668.74,-129.25"/>
<polygon fill="#63b8ff" stroke="#63b8ff" points="669.09,-132.56 678.28,-127.3 667.81,-125.68 669.09,-132.56"/>
</g>
<!-- Node22&#45;&gt;Node5 -->
<g id="edge29" class="edge">
<title>Node22&#45;&gt;Node5</title>
<path fill="none" stroke="#63b8ff" d="M379.82,-172.46C435.32,-168.71 544.64,-158.11 632.85,-129.75 650.87,-123.96 653.38,-117.81 670.85,-110.5 705.21,-96.12 745.98,-83 773.24,-74.76"/>
<polygon fill="#63b8ff" stroke="#63b8ff" points="774.1,-77.86 782.69,-71.64 772.1,-71.15 774.1,-77.86"/>
</g>
<!-- Node22&#45;&gt;Node6 -->
<g id="edge30" class="edge">
<title>Node22&#45;&gt;Node6</title>
<path fill="none" stroke="#63b8ff" d="M347.56,-165.68C353.78,-152.07 367.55,-125.75 386.85,-110.5 412.34,-90.37 447.86,-78.63 473.45,-72.29"/>
<polygon fill="#63b8ff" stroke="#63b8ff" points="474.15,-75.49 483.1,-69.83 472.56,-68.68 474.15,-75.49"/>
</g>
<!-- Node22&#45;&gt;Node15 -->
<g id="edge31" class="edge">
<title>Node22&#45;&gt;Node15</title>
<path fill="none" stroke="#63b8ff" d="M323.15,-165.34C303.79,-156.89 274.61,-144.15 252.53,-134.52"/>
<polygon fill="#63b8ff" stroke="#63b8ff" points="254.21,-131 243.64,-130.2 251.41,-137.41 254.21,-131"/>
</g>
<!-- Node22&#45;&gt;Node16 -->
<g id="edge27" class="edge">
<title>Node22&#45;&gt;Node16</title>
<path fill="none" stroke="#63b8ff" d="M308.22,-165.34C270.47,-155.77 211.04,-140.7 172.26,-130.87"/>
<polygon fill="#63b8ff" stroke="#63b8ff" points="173.46,-127.3 162.9,-128.24 171.74,-134.09 173.46,-127.3"/>
</g>
<!-- Node22&#45;&gt;Node18 -->
<g id="edge32" class="edge">
<title>Node22&#45;&gt;Node18</title>
<path fill="none" stroke="#63b8ff" d="M335.3,-165.29C322.56,-152.1 297.46,-127.38 272.85,-110.5 255.01,-98.27 233.37,-87.26 216.01,-79.23"/>
<polygon fill="#63b8ff" stroke="#63b8ff" points="217.9,-75.79 207.35,-74.86 215.02,-82.17 217.9,-75.79"/>
</g>
<!-- Node23&#45;&gt;Node2 -->
<g id="edge36" class="edge">
<title>Node23&#45;&gt;Node2</title>
<path fill="none" stroke="#63b8ff" d="M694.79,-220.59C732.2,-210.92 791.27,-195.65 829.28,-185.83"/>
<polygon fill="#63b8ff" stroke="#63b8ff" points="830.08,-188.98 838.88,-183.09 828.33,-182.2 830.08,-188.98"/>
</g>
<!-- Node23&#45;&gt;Node5 -->
<g id="edge35" class="edge">
<title>Node23&#45;&gt;Node5</title>
<path fill="none" stroke="#63b8ff" d="M721.55,-227.13C845.42,-220.68 1117.37,-198.8 1173.85,-129.75 1217.87,-75.93 931.59,-67.45 834.93,-66.12"/>
<polygon fill="#63b8ff" stroke="#63b8ff" points="835.16,-62.61 825.12,-65.99 835.08,-69.61 835.16,-62.61"/>
</g>
<!-- Node24 -->
<g id="node24" class="node">
<title>Node24</title>
<g id="a_node24"><a xlink:href="input__matrices_8h.html" target="_top" xlink:title="Class handling the input matrices that are read in from the input file.">
<polygon fill="white" stroke="#666666" points="611.85,-185 523.85,-185 523.85,-165.75 611.85,-165.75 611.85,-185"/>
<text text-anchor="middle" x="567.85" y="-171.5" font-family="Helvetica,sans-Serif" font-size="10.00">input_matrices.h</text>
</a>
</g>
</g>
<!-- Node23&#45;&gt;Node24 -->
<g id="edge37" class="edge">
<title>Node23&#45;&gt;Node24</title>
<path fill="none" stroke="#63b8ff" d="M644.24,-220.59C630.23,-212.48 609.41,-200.43 593.05,-190.96"/>
<polygon fill="#63b8ff" stroke="#63b8ff" points="594.94,-187.43 584.53,-185.45 591.43,-193.49 594.94,-187.43"/>
</g>
<!-- Node24&#45;&gt;Node5 -->
<g id="edge38" class="edge">
<title>Node24&#45;&gt;Node5</title>
<path fill="none" stroke="#63b8ff" d="M612.21,-170.68C650.25,-165.86 705.31,-154.83 746.85,-129.75 765.87,-118.26 782.11,-98.41 792.34,-83.88"/>
<polygon fill="#63b8ff" stroke="#63b8ff" points="795.74,-86.09 798.41,-75.84 789.93,-82.18 795.74,-86.09"/>
</g>
<!-- Node24&#45;&gt;Node18 -->
<g id="edge42" class="edge">
<title>Node24&#45;&gt;Node18</title>
<path fill="none" stroke="#63b8ff" d="M527.75,-165.27C490.95,-156.73 434.99,-143.28 386.85,-129.75 328.79,-113.43 262.24,-91.81 221.89,-78.38"/>
<polygon fill="#63b8ff" stroke="#63b8ff" points="223.07,-74.75 212.48,-74.9 220.85,-81.39 223.07,-74.75"/>
</g>
<!-- Node25 -->
<g id="node25" class="node">
<title>Node25</title>
<g id="a_node25"><a xlink:href="input__output__names_8h.html" target="_top" xlink:title="Constant values associated with the format of the input and output files and matrices.">
<polygon fill="white" stroke="#666666" points="623.85,-129.75 511.85,-129.75 511.85,-110.5 623.85,-110.5 623.85,-129.75"/>
<text text-anchor="middle" x="567.85" y="-116.25" font-family="Helvetica,sans-Serif" font-size="10.00">input_output_names.h</text>
</a>
</g>
</g>
<!-- Node24&#45;&gt;Node25 -->
<g id="edge39" class="edge">
<title>Node24&#45;&gt;Node25</title>
<path fill="none" stroke="#63b8ff" d="M567.85,-165.58C567.85,-158.92 567.85,-149.49 567.85,-141.03"/>
<polygon fill="#63b8ff" stroke="#63b8ff" points="571.35,-141.11 567.85,-131.11 564.35,-141.11 571.35,-141.11"/>
</g>
<!-- Node26 -->
<g id="node26" class="node">
<title>Node26</title>
<g id="a_node26"><a xlink:href="matrix__collection_8h.html" target="_top" xlink:title="A collection of named MATLAB matrices.">
<polygon fill="white" stroke="#666666" points="493.72,-129.75 395.97,-129.75 395.97,-110.5 493.72,-110.5 493.72,-129.75"/>
<text text-anchor="middle" x="444.85" y="-116.25" font-family="Helvetica,sans-Serif" font-size="10.00">matrix_collection.h</text>
</a>
</g>
</g>
<!-- Node24&#45;&gt;Node26 -->
<g id="edge43" class="edge">
<title>Node24&#45;&gt;Node26</title>
<path fill="none" stroke="#63b8ff" d="M546.98,-165.34C527.46,-156.89 498.04,-144.15 475.78,-134.52"/>
<polygon fill="#63b8ff" stroke="#63b8ff" points="477.38,-130.96 466.82,-130.2 474.6,-137.39 477.38,-130.96"/>
</g>
<!-- Node25&#45;&gt;Node5 -->
<g id="edge40" class="edge">
<title>Node25&#45;&gt;Node5</title>
<path fill="none" stroke="#63b8ff" d="M608.15,-110.03C654.8,-99.51 730.61,-82.4 772.88,-72.86"/>
<polygon fill="#63b8ff" stroke="#63b8ff" points="773.37,-76.11 782.36,-70.5 771.83,-69.29 773.37,-76.11"/>
</g>
<!-- Node25&#45;&gt;Node6 -->
<g id="edge41" class="edge">
<title>Node25&#45;&gt;Node6</title>
<path fill="none" stroke="#63b8ff" d="M557.33,-110.09C548.37,-102.4 535.28,-91.15 524.54,-81.93"/>
<polygon fill="#63b8ff" stroke="#63b8ff" points="527.08,-78.64 517.21,-74.77 522.52,-83.95 527.08,-78.64"/>
</g>
<!-- Node26&#45;&gt;Node5 -->
<g id="edge44" class="edge">
<title>Node26&#45;&gt;Node5</title>
<path fill="none" stroke="#63b8ff" d="M494.21,-111.78C497.13,-111.35 500.03,-110.92 502.85,-110.5 601.39,-95.87 718.09,-78.58 772.72,-70.48"/>
<polygon fill="#63b8ff" stroke="#63b8ff" points="773.03,-73.83 782.41,-68.9 772,-66.91 773.03,-73.83"/>
</g>
<!-- Node26&#45;&gt;Node6 -->
<g id="edge45" class="edge">
<title>Node26&#45;&gt;Node6</title>
<path fill="none" stroke="#63b8ff" d="M455.2,-110.09C464.01,-102.4 476.9,-91.15 487.46,-81.93"/>
<polygon fill="#63b8ff" stroke="#63b8ff" points="489.42,-83.99 494.65,-74.77 484.82,-78.71 489.42,-83.99"/>
</g>
<!-- Node26&#45;&gt;Node18 -->
<g id="edge46" class="edge">
<title>Node26&#45;&gt;Node18</title>
<path fill="none" stroke="#63b8ff" d="M400.45,-110.03C350.36,-99.77 269.77,-83.27 222.6,-73.61"/>
<polygon fill="#63b8ff" stroke="#63b8ff" points="223.43,-70 212.93,-71.42 222.02,-76.86 223.43,-70"/>
</g>
<!-- Node27&#45;&gt;Node18 -->
<g id="edge48" class="edge">
<title>Node27&#45;&gt;Node18</title>
<path fill="none" stroke="#63b8ff" d="M130.15,-284.55C97.08,-282.1 49.56,-272.69 25.85,-240.25 -8.18,-193.69 -8.99,-156.46 25.85,-110.5 40.43,-91.26 104.67,-78.02 146.89,-71.21"/>
<polygon fill="#63b8ff" stroke="#63b8ff" points="147.29,-74.54 156.64,-69.54 146.22,-67.62 147.29,-74.54"/>
</g>
</g>
</svg>
