<?xml version="1.0" encoding="UTF-8" standalone="no"?>
<!DOCTYPE svg PUBLIC "-//W3C//DTD SVG 1.1//EN"
 "http://www.w3.org/Graphics/SVG/1.1/DTD/svg11.dtd">
<!-- Generated by graphviz version 8.0.5 (20230430.1635)
 -->
<!-- Title: tdms/include/surface_phasors.h Pages: 1 -->
<svg width="1259pt" height="370pt"
 viewBox="0.00 0.00 1258.79 370.00" xmlns="http://www.w3.org/2000/svg" xmlns:xlink="http://www.w3.org/1999/xlink">
<g id="graph0" class="graph" transform="scale(1 1) rotate(0) translate(4 366)">
<title>tdms/include/surface_phasors.h</title>
<!-- Node1 -->
<g id="node1" class="node">
<title>Node1</title>
<g id="a_node1"><a xlink:title="Contains a class that handles the complex amplitude extraction.">
<polygon fill="#999999" stroke="#666666" points="494.79,-362 388.04,-362 388.04,-331.5 494.79,-331.5 494.79,-362"/>
<text text-anchor="start" x="396.04" y="-348.5" font-family="Helvetica,sans-Serif" font-size="10.00">tdms/include/surface</text>
<text text-anchor="middle" x="441.41" y="-337.25" font-family="Helvetica,sans-Serif" font-size="10.00">_phasors.h</text>
</a>
</g>
</g>
<!-- Node2 -->
<g id="node2" class="node">
<title>Node2</title>
<g id="a_node2"><a xlink:href="arrays_8h.html" target="_top" xlink:title="Classes describing arrays, vertices etc.">
<polygon fill="white" stroke="#666666" points="950.04,-185 898.79,-185 898.79,-165.75 950.04,-165.75 950.04,-185"/>
<text text-anchor="middle" x="924.41" y="-171.5" font-family="Helvetica,sans-Serif" font-size="10.00">arrays.h</text>
</a>
</g>
</g>
<!-- Node1&#45;&gt;Node2 -->
<g id="edge1" class="edge">
<title>Node1&#45;&gt;Node2</title>
<path fill="none" stroke="#63b8ff" d="M483.44,-331.11C541.8,-310.78 650.66,-272.82 743.41,-240.25 793.78,-222.57 851.98,-202 888.49,-189.09"/>
<polygon fill="#63b8ff" stroke="#63b8ff" points="889.38,-192.13 897.64,-185.5 887.05,-185.53 889.38,-192.13"/>
</g>
<!-- Node11 -->
<g id="node11" class="node">
<title>Node11</title>
<g id="a_node11"><a xlink:href="field_8h.html" target="_top" xlink:title="Classes for the electric and magnetic (split) fields on a grid.">
<polygon fill="white" stroke="#666666" points="369.54,-295.5 327.29,-295.5 327.29,-276.25 369.54,-276.25 369.54,-295.5"/>
<text text-anchor="middle" x="348.41" y="-282" font-family="Helvetica,sans-Serif" font-size="10.00">field.h</text>
</a>
</g>
</g>
<!-- Node1&#45;&gt;Node11 -->
<g id="edge13" class="edge">
<title>Node1&#45;&gt;Node11</title>
<path fill="none" stroke="#63b8ff" d="M418.42,-331.2C404.26,-322.23 386.16,-310.77 371.9,-301.75"/>
<polygon fill="#63b8ff" stroke="#63b8ff" points="374.07,-298.34 363.75,-295.95 370.33,-304.26 374.07,-298.34"/>
</g>
<!-- Node27 -->
<g id="node27" class="node">
<title>Node27</title>
<g id="a_node27"><a xlink:href="grid__labels_8h.html" target="_top" xlink:title="Class to hold the labels of a Yee cell.">
<polygon fill="white" stroke="#666666" points="476.79,-295.5 406.04,-295.5 406.04,-276.25 476.79,-276.25 476.79,-295.5"/>
<text text-anchor="middle" x="441.41" y="-282" font-family="Helvetica,sans-Serif" font-size="10.00">grid_labels.h</text>
</a>
</g>
</g>
<!-- Node1&#45;&gt;Node27 -->
<g id="edge47" class="edge">
<title>Node1&#45;&gt;Node27</title>
<path fill="none" stroke="#63b8ff" d="M441.41,-331.2C441.41,-323.87 441.41,-314.87 441.41,-306.91"/>
<polygon fill="#63b8ff" stroke="#63b8ff" points="444.91,-306.95 441.41,-296.95 437.91,-306.95 444.91,-306.95"/>
</g>
<!-- Node3 -->
<g id="node3" class="node">
<title>Node3</title>
<g id="a_node3"><a xlink:title=" ">
<polygon fill="#e0e0e0" stroke="#999999" points="1250.79,-74.5 1198.04,-74.5 1198.04,-55.25 1250.79,-55.25 1250.79,-74.5"/>
<text text-anchor="middle" x="1224.41" y="-61" font-family="Helvetica,sans-Serif" font-size="10.00">complex</text>
</a>
</g>
</g>
<!-- Node2&#45;&gt;Node3 -->
<g id="edge2" class="edge">
<title>Node2&#45;&gt;Node3</title>
<path fill="none" stroke="#63b8ff" d="M950.25,-173.69C1012.34,-171.54 1167.61,-162.88 1205.41,-129.75 1217.92,-118.79 1222.37,-100 1223.87,-85.63"/>
<polygon fill="#63b8ff" stroke="#63b8ff" points="1227.41,-86.06 1224.55,-75.86 1220.43,-85.62 1227.41,-86.06"/>
</g>
<!-- Node4 -->
<g id="node4" class="node">
<title>Node4</title>
<g id="a_node4"><a xlink:title=" ">
<polygon fill="#e0e0e0" stroke="#999999" points="766.79,-129.75 708.04,-129.75 708.04,-110.5 766.79,-110.5 766.79,-129.75"/>
<text text-anchor="middle" x="737.41" y="-116.25" font-family="Helvetica,sans-Serif" font-size="10.00">stdexcept</text>
</a>
</g>
</g>
<!-- Node2&#45;&gt;Node4 -->
<g id="edge3" class="edge">
<title>Node2&#45;&gt;Node4</title>
<path fill="none" stroke="#63b8ff" d="M898.41,-166.97C867.08,-158.05 814.1,-142.96 777.52,-132.55"/>
<polygon fill="#63b8ff" stroke="#63b8ff" points="778.78,-128.98 768.2,-129.61 776.86,-135.71 778.78,-128.98"/>
</g>
<!-- Node5 -->
<g id="node5" class="node">
<title>Node5</title>
<g id="a_node5"><a xlink:title=" ">
<polygon fill="#e0e0e0" stroke="#999999" points="871.41,-74.5 831.41,-74.5 831.41,-55.25 871.41,-55.25 871.41,-74.5"/>
<text text-anchor="middle" x="851.41" y="-61" font-family="Helvetica,sans-Serif" font-size="10.00">string</text>
</a>
</g>
</g>
<!-- Node2&#45;&gt;Node5 -->
<g id="edge4" class="edge">
<title>Node2&#45;&gt;Node5</title>
<path fill="none" stroke="#63b8ff" d="M950.37,-169.79C990.01,-161.67 1058.52,-142.51 1033.41,-110.5 1015,-87.03 929.58,-74.29 882.59,-68.94"/>
<polygon fill="#63b8ff" stroke="#63b8ff" points="883.14,-65.37 872.82,-67.77 882.38,-72.33 883.14,-65.37"/>
</g>
<!-- Node6 -->
<g id="node6" class="node">
<title>Node6</title>
<g id="a_node6"><a xlink:title=" ">
<polygon fill="#e0e0e0" stroke="#999999" points="555.91,-74.5 512.91,-74.5 512.91,-55.25 555.91,-55.25 555.91,-74.5"/>
<text text-anchor="middle" x="534.41" y="-61" font-family="Helvetica,sans-Serif" font-size="10.00">vector</text>
</a>
</g>
</g>
<!-- Node2&#45;&gt;Node6 -->
<g id="edge5" class="edge">
<title>Node2&#45;&gt;Node6</title>
<path fill="none" stroke="#63b8ff" d="M907,-165.4C879.66,-151.65 824.71,-125.43 775.41,-110.5 702.61,-88.45 613.97,-75.44 567.11,-69.59"/>
<polygon fill="#63b8ff" stroke="#63b8ff" points="567.75,-66.02 557.4,-68.29 566.91,-72.97 567.75,-66.02"/>
</g>
<!-- Node7 -->
<g id="node7" class="node">
<title>Node7</title>
<g id="a_node7"><a xlink:title=" ">
<polygon fill="#e0e0e0" stroke="#999999" points="944.41,-129.75 898.41,-129.75 898.41,-110.5 944.41,-110.5 944.41,-129.75"/>
<text text-anchor="middle" x="921.41" y="-116.25" font-family="Helvetica,sans-Serif" font-size="10.00">fftw3.h</text>
</a>
</g>
</g>
<!-- Node2&#45;&gt;Node7 -->
<g id="edge6" class="edge">
<title>Node2&#45;&gt;Node7</title>
<path fill="none" stroke="#63b8ff" d="M923.92,-165.58C923.54,-158.92 923.01,-149.49 922.53,-141.03"/>
<polygon fill="#63b8ff" stroke="#63b8ff" points="925.98,-140.9 921.92,-131.11 918.99,-141.29 925.98,-140.9"/>
</g>
<!-- Node8 -->
<g id="node8" class="node">
<title>Node8</title>
<g id="a_node8"><a xlink:href="globals_8h.html" target="_top" xlink:title="Type definitions and global constants.">
<polygon fill="white" stroke="#666666" points="1195.91,-129.75 1140.91,-129.75 1140.91,-110.5 1195.91,-110.5 1195.91,-129.75"/>
<text text-anchor="middle" x="1168.41" y="-116.25" font-family="Helvetica,sans-Serif" font-size="10.00">globals.h</text>
</a>
</g>
</g>
<!-- Node2&#45;&gt;Node8 -->
<g id="edge7" class="edge">
<title>Node2&#45;&gt;Node8</title>
<path fill="none" stroke="#63b8ff" d="M950.26,-168.95C987.63,-161.07 1059.18,-145.87 1130.09,-130.02"/>
<polygon fill="#63b8ff" stroke="#63b8ff" points="1130.55,-133.28 1139.54,-127.67 1129.02,-126.45 1130.55,-133.28"/>
</g>
<!-- Node9 -->
<g id="node9" class="node">
<title>Node9</title>
<g id="a_node9"><a xlink:title=" ">
<polygon fill="#e0e0e0" stroke="#999999" points="1023.91,-129.75 962.91,-129.75 962.91,-110.5 1023.91,-110.5 1023.91,-129.75"/>
<text text-anchor="middle" x="993.41" y="-116.25" font-family="Helvetica,sans-Serif" font-size="10.00">matlabio.h</text>
</a>
</g>
</g>
<!-- Node2&#45;&gt;Node9 -->
<g id="edge10" class="edge">
<title>Node2&#45;&gt;Node9</title>
<path fill="none" stroke="#63b8ff" d="M936.12,-165.34C946.29,-157.49 961.25,-145.95 973.33,-136.62"/>
<polygon fill="#63b8ff" stroke="#63b8ff" points="975.1,-138.91 980.88,-130.02 970.82,-133.36 975.1,-138.91"/>
</g>
<!-- Node10 -->
<g id="node10" class="node">
<title>Node10</title>
<g id="a_node10"><a xlink:href="utils_8h.html" target="_top" xlink:title="Useful miscellaneous utility functions.">
<polygon fill="white" stroke="#666666" points="1122.54,-129.75 1080.29,-129.75 1080.29,-110.5 1122.54,-110.5 1122.54,-129.75"/>
<text text-anchor="middle" x="1101.41" y="-116.25" font-family="Helvetica,sans-Serif" font-size="10.00">utils.h</text>
</a>
</g>
</g>
<!-- Node2&#45;&gt;Node10 -->
<g id="edge11" class="edge">
<title>Node2&#45;&gt;Node10</title>
<path fill="none" stroke="#63b8ff" d="M950.53,-166.52C982.2,-156.99 1035.56,-140.94 1069.6,-130.7"/>
<polygon fill="#63b8ff" stroke="#63b8ff" points="1070.35,-133.82 1078.92,-127.59 1068.34,-127.12 1070.35,-133.82"/>
</g>
<!-- Node8&#45;&gt;Node3 -->
<g id="edge8" class="edge">
<title>Node8&#45;&gt;Node3</title>
<path fill="none" stroke="#63b8ff" d="M1177.91,-110.09C1185.92,-102.47 1197.6,-91.37 1207.24,-82.2"/>
<polygon fill="#63b8ff" stroke="#63b8ff" points="1209.22,-85.2 1214.05,-75.77 1204.39,-80.13 1209.22,-85.2"/>
</g>
<!-- Node8&#45;&gt;Node5 -->
<g id="edge9" class="edge">
<title>Node8&#45;&gt;Node5</title>
<path fill="none" stroke="#63b8ff" d="M1140.58,-112.41C1137.49,-111.74 1134.39,-111.08 1131.41,-110.5 1041.59,-92.9 934.54,-77.32 882.67,-70.12"/>
<polygon fill="#63b8ff" stroke="#63b8ff" points="883.26,-66.53 872.88,-68.63 882.3,-73.46 883.26,-66.53"/>
</g>
<!-- Node10&#45;&gt;Node5 -->
<g id="edge12" class="edge">
<title>Node10&#45;&gt;Node5</title>
<path fill="none" stroke="#63b8ff" d="M1079.97,-113.71C1075.5,-112.62 1070.81,-111.5 1066.41,-110.5 1001.03,-95.66 924.01,-80.15 882.2,-71.89"/>
<polygon fill="#63b8ff" stroke="#63b8ff" points="883.11,-68.31 872.62,-69.81 881.76,-75.18 883.11,-68.31"/>
</g>
<!-- Node11&#45;&gt;Node2 -->
<g id="edge15" class="edge">
<title>Node11&#45;&gt;Node2</title>
<path fill="none" stroke="#63b8ff" d="M369.84,-280.85C378.4,-279.31 388.36,-277.6 397.41,-276.25 527.61,-256.83 562.26,-265.72 691.41,-240.25 762.08,-226.31 842.79,-202.33 888.27,-188.05"/>
<polygon fill="#63b8ff" stroke="#63b8ff" points="889.02,-191.17 897.5,-184.81 886.91,-184.49 889.02,-191.17"/>
</g>
<!-- Node11&#45;&gt;Node3 -->
<g id="edge14" class="edge">
<title>Node11&#45;&gt;Node3</title>
<path fill="none" stroke="#63b8ff" d="M369.83,-280.77C378.38,-279.21 388.34,-277.52 397.41,-276.25 550.53,-254.84 590.89,-265.57 743.41,-240.25 960.22,-204.26 1088.46,-301.65 1225.41,-129.75 1235.24,-117.42 1233.84,-99.08 1230.66,-85.21"/>
<polygon fill="#63b8ff" stroke="#63b8ff" points="1233.82,-84.54 1227.77,-75.84 1227.08,-86.42 1233.82,-84.54"/>
</g>
<!-- Node12 -->
<g id="node12" class="node">
<title>Node12</title>
<g id="a_node12"><a xlink:title=" ">
<polygon fill="#e0e0e0" stroke="#999999" points="265.29,-240.25 179.54,-240.25 179.54,-221 265.29,-221 265.29,-240.25"/>
<text text-anchor="middle" x="222.41" y="-226.75" font-family="Helvetica,sans-Serif" font-size="10.00">arrays/eh_vec.h</text>
</a>
</g>
</g>
<!-- Node11&#45;&gt;Node12 -->
<g id="edge16" class="edge">
<title>Node11&#45;&gt;Node12</title>
<path fill="none" stroke="#63b8ff" d="M327.04,-275.84C306.95,-267.35 276.63,-254.54 253.79,-244.89"/>
<polygon fill="#63b8ff" stroke="#63b8ff" points="255.46,-241.37 244.89,-240.7 252.74,-247.82 255.46,-241.37"/>
</g>
<!-- Node13 -->
<g id="node13" class="node">
<title>Node13</title>
<g id="a_node13"><a xlink:title=" ">
<polygon fill="#e0e0e0" stroke="#999999" points="375.29,-240.25 283.54,-240.25 283.54,-221 375.29,-221 375.29,-240.25"/>
<text text-anchor="middle" x="329.41" y="-226.75" font-family="Helvetica,sans-Serif" font-size="10.00">arrays/tensor3d.h</text>
</a>
</g>
</g>
<!-- Node11&#45;&gt;Node13 -->
<g id="edge17" class="edge">
<title>Node11&#45;&gt;Node13</title>
<path fill="none" stroke="#63b8ff" d="M345.27,-276.08C342.84,-269.26 339.38,-259.56 336.31,-250.95"/>
<polygon fill="#63b8ff" stroke="#63b8ff" points="339.27,-249.85 332.62,-241.61 332.68,-252.2 339.27,-249.85"/>
</g>
<!-- Node14 -->
<g id="node14" class="node">
<title>Node14</title>
<g id="a_node14"><a xlink:href="cell__coordinate_8h.html" target="_top" xlink:title="Container for {ijk} or {IJK} grouped variables.">
<polygon fill="white" stroke="#666666" points="196.16,-185 106.66,-185 106.66,-165.75 196.16,-165.75 196.16,-185"/>
<text text-anchor="middle" x="151.41" y="-171.5" font-family="Helvetica,sans-Serif" font-size="10.00">cell_coordinate.h</text>
</a>
</g>
</g>
<!-- Node11&#45;&gt;Node14 -->
<g id="edge18" class="edge">
<title>Node11&#45;&gt;Node14</title>
<path fill="none" stroke="#63b8ff" d="M327.06,-282.18C284.85,-276.45 192.91,-261.79 170.41,-240.25 158.4,-228.75 153.89,-210.02 152.24,-195.81"/>
<polygon fill="#63b8ff" stroke="#63b8ff" points="155.68,-195.9 151.43,-186.2 148.7,-196.43 155.68,-195.9"/>
</g>
<!-- Node17 -->
<g id="node17" class="node">
<title>Node17</title>
<g id="a_node17"><a xlink:href="dimensions_8h.html" target="_top" xlink:title="Defines a class that serves as an explicit converter between MATLAB pointers and array dimensions.">
<polygon fill="white" stroke="#666666" points="123.29,-240.25 49.54,-240.25 49.54,-221 123.29,-221 123.29,-240.25"/>
<text text-anchor="middle" x="86.41" y="-226.75" font-family="Helvetica,sans-Serif" font-size="10.00">dimensions.h</text>
</a>
</g>
</g>
<!-- Node11&#45;&gt;Node17 -->
<g id="edge21" class="edge">
<title>Node11&#45;&gt;Node17</title>
<path fill="none" stroke="#63b8ff" d="M326.97,-280.52C285.06,-272 191.39,-252.96 134.09,-241.31"/>
<polygon fill="#63b8ff" stroke="#63b8ff" points="134.98,-237.72 124.48,-239.16 133.59,-244.58 134.98,-237.72"/>
</g>
<!-- Node18 -->
<g id="node18" class="node">
<title>Node18</title>
<g id="a_node18"><a xlink:href="mat__io_8h.html" target="_top" xlink:title="Includes MATLAB headers for I/O.">
<polygon fill="white" stroke="#666666" points="328.16,-74.5 274.66,-74.5 274.66,-55.25 328.16,-55.25 328.16,-74.5"/>
<text text-anchor="middle" x="301.41" y="-61" font-family="Helvetica,sans-Serif" font-size="10.00">mat_io.h</text>
</a>
</g>
</g>
<!-- Node11&#45;&gt;Node18 -->
<g id="edge33" class="edge">
<title>Node11&#45;&gt;Node18</title>
<path fill="none" stroke="#63b8ff" d="M327.12,-285.21C263.64,-285.73 77.81,-283.45 40.41,-240.25 12.04,-207.47 -48.13,-220.88 74.41,-110.5 101.76,-85.87 206.3,-73.63 263.49,-68.67"/>
<polygon fill="#63b8ff" stroke="#63b8ff" points="263.58,-72.09 273.26,-67.77 263,-65.11 263.58,-72.09"/>
</g>
<!-- Node22 -->
<g id="node22" class="node">
<title>Node22</title>
<g id="a_node22"><a xlink:href="input__flags_8h.html" target="_top" xlink:title="Organises enumerated constants, names, and classes for handling flag&#45;variables that are passed to TDM...">
<polygon fill="white" stroke="#666666" points="413.16,-185 341.66,-185 341.66,-165.75 413.16,-165.75 413.16,-185"/>
<text text-anchor="middle" x="377.41" y="-171.5" font-family="Helvetica,sans-Serif" font-size="10.00">input_flags.h</text>
</a>
</g>
</g>
<!-- Node11&#45;&gt;Node22 -->
<g id="edge26" class="edge">
<title>Node11&#45;&gt;Node22</title>
<path fill="none" stroke="#63b8ff" d="M358.91,-275.83C367.63,-267.57 379.37,-254.52 384.41,-240.25 389.47,-225.91 387.16,-208.74 383.89,-195.81"/>
<polygon fill="#63b8ff" stroke="#63b8ff" points="386.99,-194.94 380.81,-186.34 380.28,-196.92 386.99,-194.94"/>
</g>
<!-- Node23 -->
<g id="node23" class="node">
<title>Node23</title>
<g id="a_node23"><a xlink:href="simulation__parameters_8h.html" target="_top" xlink:title="Classes collecting parameters for the simulation.">
<polygon fill="white" stroke="#666666" points="682.66,-240.25 560.16,-240.25 560.16,-221 682.66,-221 682.66,-240.25"/>
<text text-anchor="middle" x="621.41" y="-226.75" font-family="Helvetica,sans-Serif" font-size="10.00">simulation_parameters.h</text>
</a>
</g>
</g>
<!-- Node11&#45;&gt;Node23 -->
<g id="edge34" class="edge">
<title>Node11&#45;&gt;Node23</title>
<path fill="none" stroke="#63b8ff" d="M369.83,-280.7C411.28,-272.61 503.67,-254.59 564.21,-242.78"/>
<polygon fill="#63b8ff" stroke="#63b8ff" points="564.6,-246.08 573.75,-240.73 563.26,-239.21 564.6,-246.08"/>
</g>
<!-- Node15 -->
<g id="node15" class="node">
<title>Node15</title>
<g id="a_node15"><a xlink:title=" ">
<polygon fill="#e0e0e0" stroke="#999999" points="254.54,-129.75 170.29,-129.75 170.29,-110.5 254.54,-110.5 254.54,-129.75"/>
<text text-anchor="middle" x="212.41" y="-116.25" font-family="Helvetica,sans-Serif" font-size="10.00">spdlog/spdlog.h</text>
</a>
</g>
</g>
<!-- Node14&#45;&gt;Node15 -->
<g id="edge19" class="edge">
<title>Node14&#45;&gt;Node15</title>
<path fill="none" stroke="#63b8ff" d="M161.76,-165.34C170.58,-157.65 183.46,-146.4 194.03,-137.18"/>
<polygon fill="#63b8ff" stroke="#63b8ff" points="195.99,-139.24 201.22,-130.02 191.38,-133.96 195.99,-139.24"/>
</g>
<!-- Node16 -->
<g id="node16" class="node">
<title>Node16</title>
<g id="a_node16"><a xlink:title=" ">
<polygon fill="#e0e0e0" stroke="#999999" points="152.29,-129.75 96.54,-129.75 96.54,-110.5 152.29,-110.5 152.29,-129.75"/>
<text text-anchor="middle" x="124.41" y="-116.25" font-family="Helvetica,sans-Serif" font-size="10.00">algorithm</text>
</a>
</g>
</g>
<!-- Node14&#45;&gt;Node16 -->
<g id="edge20" class="edge">
<title>Node14&#45;&gt;Node16</title>
<path fill="none" stroke="#63b8ff" d="M146.95,-165.58C143.42,-158.61 138.35,-148.62 133.92,-139.87"/>
<polygon fill="#63b8ff" stroke="#63b8ff" points="136.61,-138.45 128.97,-131.11 130.37,-141.61 136.61,-138.45"/>
</g>
<!-- Node17&#45;&gt;Node18 -->
<g id="edge22" class="edge">
<title>Node17&#45;&gt;Node18</title>
<path fill="none" stroke="#63b8ff" d="M83.1,-220.6C75.76,-198.85 60.79,-142.97 87.41,-110.5 109.31,-83.8 208.2,-72.51 263.56,-68.21"/>
<polygon fill="#63b8ff" stroke="#63b8ff" points="263.63,-71.64 273.35,-67.42 263.12,-64.66 263.63,-71.64"/>
</g>
<!-- Node19 -->
<g id="node19" class="node">
<title>Node19</title>
<g id="a_node19"><a xlink:title=" ">
<polygon fill="#e0e0e0" stroke="#999999" points="257.79,-19.25 217.04,-19.25 217.04,0 257.79,0 257.79,-19.25"/>
<text text-anchor="middle" x="237.41" y="-5.75" font-family="Helvetica,sans-Serif" font-size="10.00">mat.h</text>
</a>
</g>
</g>
<!-- Node18&#45;&gt;Node19 -->
<g id="edge23" class="edge">
<title>Node18&#45;&gt;Node19</title>
<path fill="none" stroke="#63b8ff" d="M290.56,-54.84C281.21,-47.07 267.52,-35.67 256.37,-26.4"/>
<polygon fill="#63b8ff" stroke="#63b8ff" points="259.03,-23.23 249.11,-19.52 254.56,-28.61 259.03,-23.23"/>
</g>
<!-- Node20 -->
<g id="node20" class="node">
<title>Node20</title>
<g id="a_node20"><a xlink:title=" ">
<polygon fill="#e0e0e0" stroke="#999999" points="327.04,-19.25 275.79,-19.25 275.79,0 327.04,0 327.04,-19.25"/>
<text text-anchor="middle" x="301.41" y="-5.75" font-family="Helvetica,sans-Serif" font-size="10.00">matrix.h</text>
</a>
</g>
</g>
<!-- Node18&#45;&gt;Node20 -->
<g id="edge24" class="edge">
<title>Node18&#45;&gt;Node20</title>
<path fill="none" stroke="#63b8ff" d="M301.41,-55.08C301.41,-48.42 301.41,-38.99 301.41,-30.53"/>
<polygon fill="#63b8ff" stroke="#63b8ff" points="304.91,-30.61 301.41,-20.61 297.91,-30.61 304.91,-30.61"/>
</g>
<!-- Node21 -->
<g id="node21" class="node">
<title>Node21</title>
<g id="a_node21"><a xlink:title=" ">
<polygon fill="#e0e0e0" stroke="#999999" points="387.91,-19.25 344.91,-19.25 344.91,0 387.91,0 387.91,-19.25"/>
<text text-anchor="middle" x="366.41" y="-5.75" font-family="Helvetica,sans-Serif" font-size="10.00">mex.h</text>
</a>
</g>
</g>
<!-- Node18&#45;&gt;Node21 -->
<g id="edge25" class="edge">
<title>Node18&#45;&gt;Node21</title>
<path fill="none" stroke="#63b8ff" d="M312.44,-54.84C321.93,-47.07 335.84,-35.67 347.16,-26.4"/>
<polygon fill="#63b8ff" stroke="#63b8ff" points="349.03,-28.57 354.55,-19.52 344.59,-23.15 349.03,-28.57"/>
</g>
<!-- Node22&#45;&gt;Node4 -->
<g id="edge28" class="edge">
<title>Node22&#45;&gt;Node4</title>
<path fill="none" stroke="#63b8ff" d="M413.65,-169.97C472.64,-162.64 593.06,-147.03 694.41,-129.75 695.36,-129.59 696.33,-129.42 697.3,-129.25"/>
<polygon fill="#63b8ff" stroke="#63b8ff" points="697.65,-132.56 706.85,-127.29 696.37,-125.67 697.65,-132.56"/>
</g>
<!-- Node22&#45;&gt;Node5 -->
<g id="edge29" class="edge">
<title>Node22&#45;&gt;Node5</title>
<path fill="none" stroke="#63b8ff" d="M413.22,-172.34C467.9,-168.44 574.97,-157.67 661.41,-129.75 679.43,-123.93 681.81,-117.47 699.41,-110.5 740.4,-94.26 789.66,-80.86 820.76,-73.11"/>
<polygon fill="#63b8ff" stroke="#63b8ff" points="821.47,-76.3 830.35,-70.52 819.8,-69.5 821.47,-76.3"/>
</g>
<!-- Node22&#45;&gt;Node6 -->
<g id="edge30" class="edge">
<title>Node22&#45;&gt;Node6</title>
<path fill="none" stroke="#63b8ff" d="M380.42,-165.67C385.54,-152.07 397.2,-125.73 415.41,-110.5 440.33,-89.66 475.94,-78.03 501.71,-71.91"/>
<polygon fill="#63b8ff" stroke="#63b8ff" points="502.42,-75.12 511.43,-69.55 500.91,-68.28 502.42,-75.12"/>
</g>
<!-- Node22&#45;&gt;Node15 -->
<g id="edge31" class="edge">
<title>Node22&#45;&gt;Node15</title>
<path fill="none" stroke="#63b8ff" d="M349.42,-165.34C322.28,-156.58 280.89,-143.23 250.71,-133.48"/>
<polygon fill="#63b8ff" stroke="#63b8ff" points="252.13,-129.94 241.54,-130.2 249.98,-136.6 252.13,-129.94"/>
</g>
<!-- Node22&#45;&gt;Node16 -->
<g id="edge27" class="edge">
<title>Node22&#45;&gt;Node16</title>
<path fill="none" stroke="#63b8ff" d="M341.43,-167.23C300.6,-159.06 231.76,-145.09 163.23,-130.11"/>
<polygon fill="#63b8ff" stroke="#63b8ff" points="164.19,-126.52 153.68,-127.79 162.69,-133.35 164.19,-126.52"/>
</g>
<!-- Node22&#45;&gt;Node18 -->
<g id="edge32" class="edge">
<title>Node22&#45;&gt;Node18</title>
<path fill="none" stroke="#63b8ff" d="M351.99,-165.32C336.06,-158.23 316.66,-146.69 306.41,-129.75 298.48,-116.63 297.64,-99.13 298.55,-85.76"/>
<polygon fill="#63b8ff" stroke="#63b8ff" points="302.13,-86.21 299.73,-75.89 295.17,-85.46 302.13,-86.21"/>
</g>
<!-- Node23&#45;&gt;Node2 -->
<g id="edge36" class="edge">
<title>Node23&#45;&gt;Node2</title>
<path fill="none" stroke="#63b8ff" d="M679.52,-220.52C732.9,-211.98 814.15,-198.53 884.41,-185 885.56,-184.78 886.73,-184.55 887.91,-184.32"/>
<polygon fill="#63b8ff" stroke="#63b8ff" points="888.54,-187.55 897.63,-182.11 887.13,-180.7 888.54,-187.55"/>
</g>
<!-- Node23&#45;&gt;Node5 -->
<g id="edge35" class="edge">
<title>Node23&#45;&gt;Node5</title>
<path fill="none" stroke="#63b8ff" d="M644.43,-220.59C680.74,-205.57 752.35,-172.81 802.41,-129.75 817.93,-116.4 831.73,-97.42 840.7,-83.62"/>
<polygon fill="#63b8ff" stroke="#63b8ff" points="843.98,-85.97 846.33,-75.64 838.05,-82.25 843.98,-85.97"/>
</g>
<!-- Node24 -->
<g id="node24" class="node">
<title>Node24</title>
<g id="a_node24"><a xlink:href="input__matrices_8h.html" target="_top" xlink:title="Class handling the input matrices that are read in from the input file.">
<polygon fill="white" stroke="#666666" points="640.41,-185 552.41,-185 552.41,-165.75 640.41,-165.75 640.41,-185"/>
<text text-anchor="middle" x="596.41" y="-171.5" font-family="Helvetica,sans-Serif" font-size="10.00">input_matrices.h</text>
</a>
</g>
</g>
<!-- Node23&#45;&gt;Node24 -->
<g id="edge37" class="edge">
<title>Node23&#45;&gt;Node24</title>
<path fill="none" stroke="#63b8ff" d="M617.28,-220.83C614.01,-213.86 609.32,-203.87 605.21,-195.12"/>
<polygon fill="#63b8ff" stroke="#63b8ff" points="608.05,-193.92 600.63,-186.36 601.71,-196.9 608.05,-193.92"/>
</g>
<!-- Node24&#45;&gt;Node5 -->
<g id="edge38" class="edge">
<title>Node24&#45;&gt;Node5</title>
<path fill="none" stroke="#63b8ff" d="M640.68,-169.04C678.16,-163.22 732.47,-151.65 775.41,-129.75 799.03,-117.71 821.7,-97.08 836.04,-82.53"/>
<polygon fill="#63b8ff" stroke="#63b8ff" points="838.08,-85.42 842.46,-75.77 833.02,-80.57 838.08,-85.42"/>
</g>
<!-- Node24&#45;&gt;Node18 -->
<g id="edge42" class="edge">
<title>Node24&#45;&gt;Node18</title>
<path fill="none" stroke="#63b8ff" d="M552.24,-166.93C514.94,-159.84 460.56,-147.59 415.41,-129.75 381.96,-116.54 346.22,-95.19 323.85,-80.85"/>
<polygon fill="#63b8ff" stroke="#63b8ff" points="326.15,-77.52 315.86,-75 322.33,-83.39 326.15,-77.52"/>
</g>
<!-- Node25 -->
<g id="node25" class="node">
<title>Node25</title>
<g id="a_node25"><a xlink:href="input__output__names_8h.html" target="_top" xlink:title="Constant values associated with the format of the input and output files and matrices.">
<polygon fill="white" stroke="#666666" points="652.41,-129.75 540.41,-129.75 540.41,-110.5 652.41,-110.5 652.41,-129.75"/>
<text text-anchor="middle" x="596.41" y="-116.25" font-family="Helvetica,sans-Serif" font-size="10.00">input_output_names.h</text>
</a>
</g>
</g>
<!-- Node24&#45;&gt;Node25 -->
<g id="edge39" class="edge">
<title>Node24&#45;&gt;Node25</title>
<path fill="none" stroke="#63b8ff" d="M596.41,-165.58C596.41,-158.92 596.41,-149.49 596.41,-141.03"/>
<polygon fill="#63b8ff" stroke="#63b8ff" points="599.91,-141.11 596.41,-131.11 592.91,-141.11 599.91,-141.11"/>
</g>
<!-- Node26 -->
<g id="node26" class="node">
<title>Node26</title>
<g id="a_node26"><a xlink:href="matrix__collection_8h.html" target="_top" xlink:title="A collection of named MATLAB matrices.">
<polygon fill="white" stroke="#666666" points="522.29,-129.75 424.54,-129.75 424.54,-110.5 522.29,-110.5 522.29,-129.75"/>
<text text-anchor="middle" x="473.41" y="-116.25" font-family="Helvetica,sans-Serif" font-size="10.00">matrix_collection.h</text>
</a>
</g>
</g>
<!-- Node24&#45;&gt;Node26 -->
<g id="edge43" class="edge">
<title>Node24&#45;&gt;Node26</title>
<path fill="none" stroke="#63b8ff" d="M575.55,-165.34C556.02,-156.89 526.6,-144.15 504.35,-134.52"/>
<polygon fill="#63b8ff" stroke="#63b8ff" points="505.95,-130.96 495.38,-130.2 503.17,-137.39 505.95,-130.96"/>
</g>
<!-- Node25&#45;&gt;Node5 -->
<g id="edge40" class="edge">
<title>Node25&#45;&gt;Node5</title>
<path fill="none" stroke="#63b8ff" d="M639.96,-110.03C691.36,-99.3 775.54,-81.72 820.62,-72.3"/>
<polygon fill="#63b8ff" stroke="#63b8ff" points="821.13,-75.57 830.2,-70.1 819.7,-68.71 821.13,-75.57"/>
</g>
<!-- Node25&#45;&gt;Node6 -->
<g id="edge41" class="edge">
<title>Node25&#45;&gt;Node6</title>
<path fill="none" stroke="#63b8ff" d="M585.89,-110.09C576.93,-102.4 563.84,-91.15 553.1,-81.93"/>
<polygon fill="#63b8ff" stroke="#63b8ff" points="555.64,-78.64 545.77,-74.77 551.08,-83.95 555.64,-78.64"/>
</g>
<!-- Node26&#45;&gt;Node5 -->
<g id="edge44" class="edge">
<title>Node26&#45;&gt;Node5</title>
<path fill="none" stroke="#63b8ff" d="M522.77,-111.75C525.69,-111.33 528.59,-110.91 531.41,-110.5 637.37,-95.23 763.2,-77.93 820.37,-70.11"/>
<polygon fill="#63b8ff" stroke="#63b8ff" points="820.75,-73.45 830.19,-68.63 819.8,-66.52 820.75,-73.45"/>
</g>
<!-- Node26&#45;&gt;Node6 -->
<g id="edge45" class="edge">
<title>Node26&#45;&gt;Node6</title>
<path fill="none" stroke="#63b8ff" d="M483.76,-110.09C492.58,-102.4 505.46,-91.15 516.03,-81.93"/>
<polygon fill="#63b8ff" stroke="#63b8ff" points="517.99,-83.99 523.22,-74.77 513.38,-78.71 517.99,-83.99"/>
</g>
<!-- Node26&#45;&gt;Node18 -->
<g id="edge46" class="edge">
<title>Node26&#45;&gt;Node18</title>
<path fill="none" stroke="#63b8ff" d="M444.23,-110.09C415.13,-101.08 370.31,-87.2 338.65,-77.4"/>
<polygon fill="#63b8ff" stroke="#63b8ff" points="340.05,-73.86 329.46,-74.25 337.98,-80.55 340.05,-73.86"/>
</g>
<!-- Node27&#45;&gt;Node18 -->
<g id="edge48" class="edge">
<title>Node27&#45;&gt;Node18</title>
<path fill="none" stroke="#63b8ff" d="M442.2,-276.02C443.61,-255.11 444.61,-201.76 422.41,-165.75 408.04,-142.44 393.73,-146.93 372.41,-129.75 353.38,-114.41 332.73,-95.56 318.63,-82.33"/>
<polygon fill="#63b8ff" stroke="#63b8ff" points="321.44,-80.22 311.77,-75.89 316.63,-85.31 321.44,-80.22"/>
</g>
</g>
</svg>
