<?xml version="1.0" encoding="UTF-8" standalone="no"?>
<!DOCTYPE svg PUBLIC "-//W3C//DTD SVG 1.1//EN"
 "http://www.w3.org/Graphics/SVG/1.1/DTD/svg11.dtd">
<!-- Generated by graphviz version 8.0.4 (20230421.1958)
 -->
<!-- Title: tdms/include/surface_phasors.h Pages: 1 -->
<svg width="1056pt" height="370pt"
 viewBox="0.00 0.00 1056.49 370.00" xmlns="http://www.w3.org/2000/svg" xmlns:xlink="http://www.w3.org/1999/xlink">
<g id="graph0" class="graph" transform="scale(1 1) rotate(0) translate(4 366)">
<title>tdms/include/surface_phasors.h</title>
<!-- Node1 -->
<g id="node1" class="node">
<title>Node1</title>
<g id="a_node1"><a xlink:title="Contains a class that handles the complex amplitude extraction.">
<polygon fill="#999999" stroke="#666666" points="506.07,-362 399.32,-362 399.32,-331.5 506.07,-331.5 506.07,-362"/>
<text text-anchor="start" x="407.32" y="-348.5" font-family="Helvetica,sans-Serif" font-size="10.00">tdms/include/surface</text>
<text text-anchor="middle" x="452.7" y="-337.25" font-family="Helvetica,sans-Serif" font-size="10.00">_phasors.h</text>
</a>
</g>
</g>
<!-- Node2 -->
<g id="node2" class="node">
<title>Node2</title>
<g id="a_node2"><a xlink:href="arrays_8h.html" target="_top" xlink:title="Classes describing arrays, vertices etc.">
<polygon fill="white" stroke="#666666" points="240.32,-185 189.07,-185 189.07,-165.75 240.32,-165.75 240.32,-185"/>
<text text-anchor="middle" x="214.7" y="-171.5" font-family="Helvetica,sans-Serif" font-size="10.00">arrays.h</text>
</a>
</g>
</g>
<!-- Node1&#45;&gt;Node2 -->
<g id="edge1" class="edge">
<title>Node1&#45;&gt;Node2</title>
<path fill="none" stroke="#63b8ff" d="M431.99,-331.02C387.23,-299.16 281.8,-224.13 236.26,-191.72"/>
<polygon fill="#63b8ff" stroke="#63b8ff" points="238.68,-188.43 228.5,-185.49 234.62,-194.13 238.68,-188.43"/>
</g>
<!-- Node10 -->
<g id="node10" class="node">
<title>Node10</title>
<g id="a_node10"><a xlink:href="field_8h.html" target="_top" xlink:title="Classes for the electric and magnetic (split) fields on a grid.">
<polygon fill="white" stroke="#666666" points="473.82,-295.5 431.57,-295.5 431.57,-276.25 473.82,-276.25 473.82,-295.5"/>
<text text-anchor="middle" x="452.7" y="-282" font-family="Helvetica,sans-Serif" font-size="10.00">field.h</text>
</a>
</g>
</g>
<!-- Node1&#45;&gt;Node10 -->
<g id="edge11" class="edge">
<title>Node1&#45;&gt;Node10</title>
<path fill="none" stroke="#63b8ff" d="M452.7,-331.2C452.7,-323.87 452.7,-314.87 452.7,-306.91"/>
<polygon fill="#63b8ff" stroke="#63b8ff" points="456.2,-306.95 452.7,-296.95 449.2,-306.95 456.2,-306.95"/>
</g>
<!-- Node24 -->
<g id="node24" class="node">
<title>Node24</title>
<g id="a_node24"><a xlink:href="grid__labels_8h.html" target="_top" xlink:title="Class to hold the labels of a Yee cell.">
<polygon fill="white" stroke="#666666" points="831.07,-295.5 760.32,-295.5 760.32,-276.25 831.07,-276.25 831.07,-295.5"/>
<text text-anchor="middle" x="795.7" y="-282" font-family="Helvetica,sans-Serif" font-size="10.00">grid_labels.h</text>
</a>
</g>
</g>
<!-- Node1&#45;&gt;Node24 -->
<g id="edge37" class="edge">
<title>Node1&#45;&gt;Node24</title>
<path fill="none" stroke="#63b8ff" d="M506.29,-336.55C573.12,-325.08 686.25,-305.66 749.46,-294.81"/>
<polygon fill="#63b8ff" stroke="#63b8ff" points="750.02,-298.1 759.28,-292.95 748.83,-291.2 750.02,-298.1"/>
</g>
<!-- Node3 -->
<g id="node3" class="node">
<title>Node3</title>
<g id="a_node3"><a xlink:title=" ">
<polygon fill="#e0e0e0" stroke="#999999" points="67.07,-74.5 14.32,-74.5 14.32,-55.25 67.07,-55.25 67.07,-74.5"/>
<text text-anchor="middle" x="40.7" y="-61" font-family="Helvetica,sans-Serif" font-size="10.00">complex</text>
</a>
</g>
</g>
<!-- Node2&#45;&gt;Node3 -->
<g id="edge2" class="edge">
<title>Node2&#45;&gt;Node3</title>
<path fill="none" stroke="#63b8ff" d="M191.9,-165.31C172.38,-157.13 143.83,-144.21 120.7,-129.75 97.81,-115.45 73.92,-95.63 58.28,-81.88"/>
<polygon fill="#63b8ff" stroke="#63b8ff" points="61.28,-79.98 51.49,-75.94 56.62,-85.21 61.28,-79.98"/>
</g>
<!-- Node4 -->
<g id="node4" class="node">
<title>Node4</title>
<g id="a_node4"><a xlink:title=" ">
<polygon fill="#e0e0e0" stroke="#999999" points="425.07,-129.75 366.32,-129.75 366.32,-110.5 425.07,-110.5 425.07,-129.75"/>
<text text-anchor="middle" x="395.7" y="-116.25" font-family="Helvetica,sans-Serif" font-size="10.00">stdexcept</text>
</a>
</g>
</g>
<!-- Node2&#45;&gt;Node4 -->
<g id="edge3" class="edge">
<title>Node2&#45;&gt;Node4</title>
<path fill="none" stroke="#63b8ff" d="M240.63,-166.75C270.66,-157.91 320.48,-143.25 355.53,-132.94"/>
<polygon fill="#63b8ff" stroke="#63b8ff" points="356.29,-136.07 364.9,-129.89 354.32,-129.36 356.29,-136.07"/>
</g>
<!-- Node5 -->
<g id="node5" class="node">
<title>Node5</title>
<g id="a_node5"><a xlink:title=" ">
<polygon fill="#e0e0e0" stroke="#999999" points="491.7,-74.5 451.7,-74.5 451.7,-55.25 491.7,-55.25 491.7,-74.5"/>
<text text-anchor="middle" x="471.7" y="-61" font-family="Helvetica,sans-Serif" font-size="10.00">string</text>
</a>
</g>
</g>
<!-- Node2&#45;&gt;Node5 -->
<g id="edge4" class="edge">
<title>Node2&#45;&gt;Node5</title>
<path fill="none" stroke="#63b8ff" d="M194.95,-165.32C171.06,-153.16 136.09,-130.75 153.7,-110.5 190.76,-67.87 368.43,-64.77 440.86,-65.33"/>
<polygon fill="#63b8ff" stroke="#63b8ff" points="440.51,-68.83 450.54,-65.44 440.58,-61.83 440.51,-68.83"/>
</g>
<!-- Node6 -->
<g id="node6" class="node">
<title>Node6</title>
<g id="a_node6"><a xlink:title=" ">
<polygon fill="#e0e0e0" stroke="#999999" points="268.7,-129.75 222.7,-129.75 222.7,-110.5 268.7,-110.5 268.7,-129.75"/>
<text text-anchor="middle" x="245.7" y="-116.25" font-family="Helvetica,sans-Serif" font-size="10.00">fftw3.h</text>
</a>
</g>
</g>
<!-- Node2&#45;&gt;Node6 -->
<g id="edge5" class="edge">
<title>Node2&#45;&gt;Node6</title>
<path fill="none" stroke="#63b8ff" d="M219.82,-165.58C223.92,-158.53 229.82,-148.4 234.95,-139.58"/>
<polygon fill="#63b8ff" stroke="#63b8ff" points="238.46,-141.51 240.47,-131.11 232.41,-137.99 238.46,-141.51"/>
</g>
<!-- Node7 -->
<g id="node7" class="node">
<title>Node7</title>
<g id="a_node7"><a xlink:href="globals_8h.html" target="_top" xlink:title="Type definitions and global constants.">
<polygon fill="white" stroke="#666666" points="68.2,-129.75 13.2,-129.75 13.2,-110.5 68.2,-110.5 68.2,-129.75"/>
<text text-anchor="middle" x="40.7" y="-116.25" font-family="Helvetica,sans-Serif" font-size="10.00">globals.h</text>
</a>
</g>
</g>
<!-- Node2&#45;&gt;Node7 -->
<g id="edge6" class="edge">
<title>Node2&#45;&gt;Node7</title>
<path fill="none" stroke="#63b8ff" d="M188.65,-166.4C159.56,-157.5 112.21,-143.01 78.93,-132.82"/>
<polygon fill="#63b8ff" stroke="#63b8ff" points="80.24,-129.26 69.66,-129.68 78.2,-135.95 80.24,-129.26"/>
</g>
<!-- Node8 -->
<g id="node8" class="node">
<title>Node8</title>
<g id="a_node8"><a xlink:title=" ">
<polygon fill="#e0e0e0" stroke="#999999" points="348.2,-129.75 287.2,-129.75 287.2,-110.5 348.2,-110.5 348.2,-129.75"/>
<text text-anchor="middle" x="317.7" y="-116.25" font-family="Helvetica,sans-Serif" font-size="10.00">matlabio.h</text>
</a>
</g>
</g>
<!-- Node2&#45;&gt;Node8 -->
<g id="edge8" class="edge">
<title>Node2&#45;&gt;Node8</title>
<path fill="none" stroke="#63b8ff" d="M232.17,-165.34C248.15,-157.08 272.05,-144.73 290.52,-135.18"/>
<polygon fill="#63b8ff" stroke="#63b8ff" points="291.86,-137.9 299.14,-130.2 288.65,-131.69 291.86,-137.9"/>
</g>
<!-- Node9 -->
<g id="node9" class="node">
<title>Node9</title>
<g id="a_node9"><a xlink:href="utils_8h.html" target="_top" xlink:title="Useful miscellaneous utility functions.">
<polygon fill="white" stroke="#666666" points="204.82,-129.75 162.57,-129.75 162.57,-110.5 204.82,-110.5 204.82,-129.75"/>
<text text-anchor="middle" x="183.7" y="-116.25" font-family="Helvetica,sans-Serif" font-size="10.00">utils.h</text>
</a>
</g>
</g>
<!-- Node2&#45;&gt;Node9 -->
<g id="edge9" class="edge">
<title>Node2&#45;&gt;Node9</title>
<path fill="none" stroke="#63b8ff" d="M209.58,-165.58C205.48,-158.53 199.58,-148.4 194.44,-139.58"/>
<polygon fill="#63b8ff" stroke="#63b8ff" points="196.98,-137.99 188.93,-131.11 190.93,-141.51 196.98,-137.99"/>
</g>
<!-- Node7&#45;&gt;Node3 -->
<g id="edge7" class="edge">
<title>Node7&#45;&gt;Node3</title>
<path fill="none" stroke="#63b8ff" d="M40.7,-110.33C40.7,-103.67 40.7,-94.24 40.7,-85.78"/>
<polygon fill="#63b8ff" stroke="#63b8ff" points="44.2,-85.86 40.7,-75.86 37.2,-85.86 44.2,-85.86"/>
</g>
<!-- Node9&#45;&gt;Node5 -->
<g id="edge10" class="edge">
<title>Node9&#45;&gt;Node5</title>
<path fill="none" stroke="#63b8ff" d="M205.26,-112.62C208.08,-111.86 210.95,-111.13 213.7,-110.5 294.91,-91.86 392.1,-77.03 440.75,-70.12"/>
<polygon fill="#63b8ff" stroke="#63b8ff" points="441.06,-73.47 450.48,-68.61 440.09,-66.54 441.06,-73.47"/>
</g>
<!-- Node10&#45;&gt;Node2 -->
<g id="edge13" class="edge">
<title>Node10&#45;&gt;Node2</title>
<path fill="none" stroke="#63b8ff" d="M432.82,-275.81C390.99,-256.74 293.71,-212.4 244.44,-189.93"/>
<polygon fill="#63b8ff" stroke="#63b8ff" points="246.24,-186.45 235.69,-185.49 243.34,-192.82 246.24,-186.45"/>
</g>
<!-- Node10&#45;&gt;Node3 -->
<g id="edge12" class="edge">
<title>Node10&#45;&gt;Node3</title>
<path fill="none" stroke="#63b8ff" d="M431.22,-285.57C355.78,-286.69 102.23,-278.91 3.7,-129.75 -6.75,-113.93 7.24,-95.06 20.91,-81.95"/>
<polygon fill="#63b8ff" stroke="#63b8ff" points="22.6,-85.23 27.73,-75.96 17.94,-80.01 22.6,-85.23"/>
</g>
<!-- Node10&#45;&gt;Node7 -->
<g id="edge22" class="edge">
<title>Node10&#45;&gt;Node7</title>
<path fill="none" stroke="#63b8ff" d="M431.18,-278.38C404.06,-270.09 356.11,-255.02 315.7,-240.25 223.77,-206.65 118.45,-158.11 69.06,-134.72"/>
<polygon fill="#63b8ff" stroke="#63b8ff" points="70.93,-131.26 60.39,-130.13 67.92,-137.58 70.93,-131.26"/>
</g>
<!-- Node11 -->
<g id="node11" class="node">
<title>Node11</title>
<g id="a_node11"><a xlink:href="cell__coordinate_8h.html" target="_top" xlink:title="Container for {ijk} or {IJK} grouped variables.">
<polygon fill="white" stroke="#666666" points="1002.45,-240.25 912.95,-240.25 912.95,-221 1002.45,-221 1002.45,-240.25"/>
<text text-anchor="middle" x="957.7" y="-226.75" font-family="Helvetica,sans-Serif" font-size="10.00">cell_coordinate.h</text>
</a>
</g>
</g>
<!-- Node10&#45;&gt;Node11 -->
<g id="edge14" class="edge">
<title>Node10&#45;&gt;Node11</title>
<path fill="none" stroke="#63b8ff" d="M473.88,-283.23C537.16,-278.23 730.51,-262.25 901.91,-240.41"/>
<polygon fill="#63b8ff" stroke="#63b8ff" points="902.17,-243.77 911.65,-239.03 901.28,-236.83 902.17,-243.77"/>
</g>
<!-- Node14 -->
<g id="node14" class="node">
<title>Node14</title>
<g id="a_node14"><a xlink:href="dimensions_8h.html" target="_top" xlink:title="Defines a class that serves as an explicit converter between MATLAB pointers and array dimensions.">
<polygon fill="white" stroke="#666666" points="894.57,-240.25 820.82,-240.25 820.82,-221 894.57,-221 894.57,-240.25"/>
<text text-anchor="middle" x="857.7" y="-226.75" font-family="Helvetica,sans-Serif" font-size="10.00">dimensions.h</text>
</a>
</g>
</g>
<!-- Node10&#45;&gt;Node14 -->
<g id="edge17" class="edge">
<title>Node10&#45;&gt;Node14</title>
<path fill="none" stroke="#63b8ff" d="M474.29,-282.47C529.64,-276.25 681.07,-258.78 806.7,-240.25 807.67,-240.11 808.65,-239.96 809.64,-239.81"/>
<polygon fill="#63b8ff" stroke="#63b8ff" points="810.07,-243.13 819.4,-238.12 808.98,-236.21 810.07,-243.13"/>
</g>
<!-- Node15 -->
<g id="node15" class="node">
<title>Node15</title>
<g id="a_node15"><a xlink:href="mat__io_8h.html" target="_top" xlink:title="Includes MATLAB headers for I/O.">
<polygon fill="white" stroke="#666666" points="839.45,-74.5 785.95,-74.5 785.95,-55.25 839.45,-55.25 839.45,-74.5"/>
<text text-anchor="middle" x="812.7" y="-61" font-family="Helvetica,sans-Serif" font-size="10.00">mat_io.h</text>
</a>
</g>
</g>
<!-- Node10&#45;&gt;Node15 -->
<g id="edge23" class="edge">
<title>Node10&#45;&gt;Node15</title>
<path fill="none" stroke="#63b8ff" d="M474.03,-280.1C531.01,-266.36 688.75,-221.66 781.7,-129.75 794.16,-117.43 802.34,-99.09 807.15,-85.22"/>
<polygon fill="#63b8ff" stroke="#63b8ff" points="810.75,-86.44 810.42,-75.85 804.08,-84.33 810.75,-86.44"/>
</g>
<!-- Node19 -->
<g id="node19" class="node">
<title>Node19</title>
<g id="a_node19"><a xlink:href="simulation__parameters_8h.html" target="_top" xlink:title="Classes collecting parameters for the simulation.">
<polygon fill="white" stroke="#666666" points="513.95,-240.25 391.45,-240.25 391.45,-221 513.95,-221 513.95,-240.25"/>
<text text-anchor="middle" x="452.7" y="-226.75" font-family="Helvetica,sans-Serif" font-size="10.00">simulation_parameters.h</text>
</a>
</g>
</g>
<!-- Node10&#45;&gt;Node19 -->
<g id="edge24" class="edge">
<title>Node10&#45;&gt;Node19</title>
<path fill="none" stroke="#63b8ff" d="M452.7,-276.08C452.7,-269.42 452.7,-259.99 452.7,-251.53"/>
<polygon fill="#63b8ff" stroke="#63b8ff" points="456.2,-251.61 452.7,-241.61 449.2,-251.61 456.2,-251.61"/>
</g>
<!-- Node12 -->
<g id="node12" class="node">
<title>Node12</title>
<g id="a_node12"><a xlink:title=" ">
<polygon fill="#e0e0e0" stroke="#999999" points="962.82,-185 878.57,-185 878.57,-165.75 962.82,-165.75 962.82,-185"/>
<text text-anchor="middle" x="920.7" y="-171.5" font-family="Helvetica,sans-Serif" font-size="10.00">spdlog/spdlog.h</text>
</a>
</g>
</g>
<!-- Node11&#45;&gt;Node12 -->
<g id="edge15" class="edge">
<title>Node11&#45;&gt;Node12</title>
<path fill="none" stroke="#63b8ff" d="M951.59,-220.83C946.58,-213.63 939.34,-203.21 933.13,-194.26"/>
<polygon fill="#63b8ff" stroke="#63b8ff" points="935.52,-192.57 926.94,-186.36 929.77,-196.57 935.52,-192.57"/>
</g>
<!-- Node13 -->
<g id="node13" class="node">
<title>Node13</title>
<g id="a_node13"><a xlink:title=" ">
<polygon fill="#e0e0e0" stroke="#999999" points="1036.57,-185 980.82,-185 980.82,-165.75 1036.57,-165.75 1036.57,-185"/>
<text text-anchor="middle" x="1008.7" y="-171.5" font-family="Helvetica,sans-Serif" font-size="10.00">algorithm</text>
</a>
</g>
</g>
<!-- Node11&#45;&gt;Node13 -->
<g id="edge16" class="edge">
<title>Node11&#45;&gt;Node13</title>
<path fill="none" stroke="#63b8ff" d="M966.12,-220.83C973.31,-213.32 983.86,-202.31 992.65,-193.13"/>
<polygon fill="#63b8ff" stroke="#63b8ff" points="994.7,-196 999.09,-186.36 989.65,-191.16 994.7,-196"/>
</g>
<!-- Node14&#45;&gt;Node15 -->
<g id="edge18" class="edge">
<title>Node14&#45;&gt;Node15</title>
<path fill="none" stroke="#63b8ff" d="M855.52,-220.62C850.65,-200.69 838.42,-151.38 826.7,-110.5 824.29,-102.11 821.44,-92.9 818.94,-85.03"/>
<polygon fill="#63b8ff" stroke="#63b8ff" points="822.01,-84.17 815.62,-75.73 815.35,-86.32 822.01,-84.17"/>
</g>
<!-- Node16 -->
<g id="node16" class="node">
<title>Node16</title>
<g id="a_node16"><a xlink:title=" ">
<polygon fill="#e0e0e0" stroke="#999999" points="769.07,-19.25 728.32,-19.25 728.32,0 769.07,0 769.07,-19.25"/>
<text text-anchor="middle" x="748.7" y="-5.75" font-family="Helvetica,sans-Serif" font-size="10.00">mat.h</text>
</a>
</g>
</g>
<!-- Node15&#45;&gt;Node16 -->
<g id="edge19" class="edge">
<title>Node15&#45;&gt;Node16</title>
<path fill="none" stroke="#63b8ff" d="M801.84,-54.84C792.5,-47.07 778.8,-35.67 767.66,-26.4"/>
<polygon fill="#63b8ff" stroke="#63b8ff" points="770.32,-23.23 760.39,-19.52 765.84,-28.61 770.32,-23.23"/>
</g>
<!-- Node17 -->
<g id="node17" class="node">
<title>Node17</title>
<g id="a_node17"><a xlink:title=" ">
<polygon fill="#e0e0e0" stroke="#999999" points="838.32,-19.25 787.07,-19.25 787.07,0 838.32,0 838.32,-19.25"/>
<text text-anchor="middle" x="812.7" y="-5.75" font-family="Helvetica,sans-Serif" font-size="10.00">matrix.h</text>
</a>
</g>
</g>
<!-- Node15&#45;&gt;Node17 -->
<g id="edge20" class="edge">
<title>Node15&#45;&gt;Node17</title>
<path fill="none" stroke="#63b8ff" d="M812.7,-55.08C812.7,-48.42 812.7,-38.99 812.7,-30.53"/>
<polygon fill="#63b8ff" stroke="#63b8ff" points="816.2,-30.61 812.7,-20.61 809.2,-30.61 816.2,-30.61"/>
</g>
<!-- Node18 -->
<g id="node18" class="node">
<title>Node18</title>
<g id="a_node18"><a xlink:title=" ">
<polygon fill="#e0e0e0" stroke="#999999" points="899.2,-19.25 856.2,-19.25 856.2,0 899.2,0 899.2,-19.25"/>
<text text-anchor="middle" x="877.7" y="-5.75" font-family="Helvetica,sans-Serif" font-size="10.00">mex.h</text>
</a>
</g>
</g>
<!-- Node15&#45;&gt;Node18 -->
<g id="edge21" class="edge">
<title>Node15&#45;&gt;Node18</title>
<path fill="none" stroke="#63b8ff" d="M823.72,-54.84C833.21,-47.07 847.12,-35.67 858.44,-26.4"/>
<polygon fill="#63b8ff" stroke="#63b8ff" points="860.32,-28.57 865.83,-19.52 855.88,-23.15 860.32,-28.57"/>
</g>
<!-- Node19&#45;&gt;Node2 -->
<g id="edge26" class="edge">
<title>Node19&#45;&gt;Node2</title>
<path fill="none" stroke="#63b8ff" d="M412.05,-220.53C366.99,-210.45 294.93,-194.33 251.48,-184.6"/>
<polygon fill="#63b8ff" stroke="#63b8ff" points="252.34,-180.99 241.82,-182.22 250.81,-187.82 252.34,-180.99"/>
</g>
<!-- Node19&#45;&gt;Node5 -->
<g id="edge25" class="edge">
<title>Node19&#45;&gt;Node5</title>
<path fill="none" stroke="#63b8ff" d="M453.72,-220.82C456.67,-195.39 465.26,-121.35 469.41,-85.62"/>
<polygon fill="#63b8ff" stroke="#63b8ff" points="473,-86.06 470.67,-75.72 466.04,-85.25 473,-86.06"/>
</g>
<!-- Node20 -->
<g id="node20" class="node">
<title>Node20</title>
<g id="a_node20"><a xlink:href="input__matrices_8h.html" target="_top" xlink:title="Class handling the input matrices that are read in from the input file.">
<polygon fill="white" stroke="#666666" points="618.7,-185 530.7,-185 530.7,-165.75 618.7,-165.75 618.7,-185"/>
<text text-anchor="middle" x="574.7" y="-171.5" font-family="Helvetica,sans-Serif" font-size="10.00">input_matrices.h</text>
</a>
</g>
</g>
<!-- Node19&#45;&gt;Node20 -->
<g id="edge27" class="edge">
<title>Node19&#45;&gt;Node20</title>
<path fill="none" stroke="#63b8ff" d="M473.39,-220.59C492.76,-212.14 521.94,-199.4 544.01,-189.77"/>
<polygon fill="#63b8ff" stroke="#63b8ff" points="545.14,-192.66 552.9,-185.45 542.34,-186.25 545.14,-192.66"/>
</g>
<!-- Node20&#45;&gt;Node5 -->
<g id="edge28" class="edge">
<title>Node20&#45;&gt;Node5</title>
<path fill="none" stroke="#63b8ff" d="M557.43,-165.3C543.38,-157.31 523.64,-144.63 509.7,-129.75 497.17,-116.38 486.84,-98.18 480.14,-84.63"/>
<polygon fill="#63b8ff" stroke="#63b8ff" points="482.99,-83.49 475.56,-75.94 476.66,-86.48 482.99,-83.49"/>
</g>
<!-- Node20&#45;&gt;Node15 -->
<g id="edge32" class="edge">
<title>Node20&#45;&gt;Node15</title>
<path fill="none" stroke="#63b8ff" d="M619.18,-170.83C657.65,-166.1 713.55,-155.13 755.7,-129.75 774.73,-118.29 790.98,-98.43 801.19,-83.89"/>
<polygon fill="#63b8ff" stroke="#63b8ff" points="804.6,-86.1 807.27,-75.84 798.79,-82.2 804.6,-86.1"/>
</g>
<!-- Node21 -->
<g id="node21" class="node">
<title>Node21</title>
<g id="a_node21"><a xlink:href="input__output__names_8h.html" target="_top" xlink:title="Constant values associated with the format of the input and output files and matrices.">
<polygon fill="white" stroke="#666666" points="630.7,-129.75 518.7,-129.75 518.7,-110.5 630.7,-110.5 630.7,-129.75"/>
<text text-anchor="middle" x="574.7" y="-116.25" font-family="Helvetica,sans-Serif" font-size="10.00">input_output_names.h</text>
</a>
</g>
</g>
<!-- Node20&#45;&gt;Node21 -->
<g id="edge29" class="edge">
<title>Node20&#45;&gt;Node21</title>
<path fill="none" stroke="#63b8ff" d="M574.7,-165.58C574.7,-158.92 574.7,-149.49 574.7,-141.03"/>
<polygon fill="#63b8ff" stroke="#63b8ff" points="578.2,-141.11 574.7,-131.11 571.2,-141.11 578.2,-141.11"/>
</g>
<!-- Node23 -->
<g id="node23" class="node">
<title>Node23</title>
<g id="a_node23"><a xlink:href="matrix__collection_8h.html" target="_top" xlink:title="A collection of named MATLAB matrices.">
<polygon fill="white" stroke="#666666" points="746.57,-129.75 648.82,-129.75 648.82,-110.5 746.57,-110.5 746.57,-129.75"/>
<text text-anchor="middle" x="697.7" y="-116.25" font-family="Helvetica,sans-Serif" font-size="10.00">matrix_collection.h</text>
</a>
</g>
</g>
<!-- Node20&#45;&gt;Node23 -->
<g id="edge33" class="edge">
<title>Node20&#45;&gt;Node23</title>
<path fill="none" stroke="#63b8ff" d="M595.56,-165.34C615.09,-156.89 644.51,-144.15 666.76,-134.52"/>
<polygon fill="#63b8ff" stroke="#63b8ff" points="667.94,-137.39 675.73,-130.2 665.16,-130.96 667.94,-137.39"/>
</g>
<!-- Node21&#45;&gt;Node5 -->
<g id="edge30" class="edge">
<title>Node21&#45;&gt;Node5</title>
<path fill="none" stroke="#63b8ff" d="M557.23,-110.09C541.24,-101.83 517.35,-89.48 498.88,-79.93"/>
<polygon fill="#63b8ff" stroke="#63b8ff" points="500.75,-76.44 490.26,-74.95 497.53,-82.65 500.75,-76.44"/>
</g>
<!-- Node22 -->
<g id="node22" class="node">
<title>Node22</title>
<g id="a_node22"><a xlink:title=" ">
<polygon fill="#e0e0e0" stroke="#999999" points="657.2,-74.5 614.2,-74.5 614.2,-55.25 657.2,-55.25 657.2,-74.5"/>
<text text-anchor="middle" x="635.7" y="-61" font-family="Helvetica,sans-Serif" font-size="10.00">vector</text>
</a>
</g>
</g>
<!-- Node21&#45;&gt;Node22 -->
<g id="edge31" class="edge">
<title>Node21&#45;&gt;Node22</title>
<path fill="none" stroke="#63b8ff" d="M585.05,-110.09C593.86,-102.4 606.75,-91.15 617.31,-81.93"/>
<polygon fill="#63b8ff" stroke="#63b8ff" points="619.27,-83.99 624.5,-74.77 614.67,-78.71 619.27,-83.99"/>
</g>
<!-- Node23&#45;&gt;Node5 -->
<g id="edge34" class="edge">
<title>Node23&#45;&gt;Node5</title>
<path fill="none" stroke="#63b8ff" d="M659.1,-110.03C614.97,-99.63 543.57,-82.81 502.83,-73.21"/>
<polygon fill="#63b8ff" stroke="#63b8ff" points="503.73,-69.59 493.2,-70.71 502.13,-76.41 503.73,-69.59"/>
</g>
<!-- Node23&#45;&gt;Node15 -->
<g id="edge36" class="edge">
<title>Node23&#45;&gt;Node15</title>
<path fill="none" stroke="#63b8ff" d="M717.21,-110.09C735.3,-101.72 762.47,-89.13 783.21,-79.53"/>
<polygon fill="#63b8ff" stroke="#63b8ff" points="784.49,-82.33 792.09,-74.95 781.55,-75.98 784.49,-82.33"/>
</g>
<!-- Node23&#45;&gt;Node22 -->
<g id="edge35" class="edge">
<title>Node23&#45;&gt;Node22</title>
<path fill="none" stroke="#63b8ff" d="M687.18,-110.09C678.22,-102.4 665.13,-91.15 654.39,-81.93"/>
<polygon fill="#63b8ff" stroke="#63b8ff" points="656.93,-78.64 647.06,-74.77 652.37,-83.95 656.93,-78.64"/>
</g>
<!-- Node24&#45;&gt;Node15 -->
<g id="edge38" class="edge">
<title>Node24&#45;&gt;Node15</title>
<path fill="none" stroke="#63b8ff" d="M831.19,-285.85C876.96,-285.37 957.14,-278.5 1011.7,-240.25 1035.31,-223.7 1037.85,-212.74 1045.7,-185 1069.77,-99.94 922.63,-75.36 850.65,-68.47"/>
<polygon fill="#63b8ff" stroke="#63b8ff" points="851.05,-64.9 840.78,-67.5 850.43,-71.87 851.05,-64.9"/>
</g>
</g>
</svg>
