<?xml version="1.0" encoding="UTF-8" standalone="no"?>
<!DOCTYPE svg PUBLIC "-//W3C//DTD SVG 1.1//EN"
 "http://www.w3.org/Graphics/SVG/1.1/DTD/svg11.dtd">
<!-- Generated by graphviz version 8.0.2 (20230410.1723)
 -->
<!-- Title: tdms/include/surface_phasors.h Pages: 1 -->
<svg width="1066pt" height="368pt"
 viewBox="0.00 0.00 1065.78 368.00" xmlns="http://www.w3.org/2000/svg" xmlns:xlink="http://www.w3.org/1999/xlink">
<g id="graph0" class="graph" transform="scale(1 1) rotate(0) translate(4 364)">
<title>tdms/include/surface_phasors.h</title>
<!-- Node1 -->
<g id="node1" class="node">
<title>Node1</title>
<g id="a_node1"><a xlink:title="Contains a class that handles the complex amplitude extraction.">
<polygon fill="#999999" stroke="#666666" points="511.21,-360 404.21,-360 404.21,-330 511.21,-330 511.21,-360"/>
<text text-anchor="start" x="412.21" y="-348" font-family="Helvetica,sans-Serif" font-size="10.00">tdms/include/surface</text>
<text text-anchor="middle" x="457.71" y="-337" font-family="Helvetica,sans-Serif" font-size="10.00">_phasors.h</text>
</a>
</g>
</g>
<!-- Node2 -->
<g id="node2" class="node">
<title>Node2</title>
<g id="a_node2"><a xlink:href="arrays_8h.html" target="_top" xlink:title="Classes describing arrays, vertices etc.">
<polygon fill="white" stroke="#666666" points="242.71,-184 190.71,-184 190.71,-165 242.71,-165 242.71,-184"/>
<text text-anchor="middle" x="216.71" y="-172" font-family="Helvetica,sans-Serif" font-size="10.00">arrays.h</text>
</a>
</g>
</g>
<!-- Node1&#45;&gt;Node2 -->
<g id="edge1" class="edge">
<title>Node1&#45;&gt;Node2</title>
<path fill="none" stroke="#63b8ff" d="M437.17,-329.63C392,-298.06 284.44,-222.85 238.32,-190.61"/>
<polygon fill="#63b8ff" stroke="#63b8ff" points="240.66,-187.27 230.46,-184.41 236.65,-193.01 240.66,-187.27"/>
</g>
<!-- Node10 -->
<g id="node10" class="node">
<title>Node10</title>
<g id="a_node10"><a xlink:href="field_8h.html" target="_top" xlink:title="Classes for the electric and magnetic (split) fields on a grid.">
<polygon fill="white" stroke="#666666" points="479.21,-294 436.21,-294 436.21,-275 479.21,-275 479.21,-294"/>
<text text-anchor="middle" x="457.71" y="-282" font-family="Helvetica,sans-Serif" font-size="10.00">field.h</text>
</a>
</g>
</g>
<!-- Node1&#45;&gt;Node10 -->
<g id="edge11" class="edge">
<title>Node1&#45;&gt;Node10</title>
<path fill="none" stroke="#63b8ff" d="M457.71,-329.54C457.71,-322.17 457.71,-313.1 457.71,-305.11"/>
<polygon fill="#63b8ff" stroke="#63b8ff" points="461.21,-305.18 457.71,-295.18 454.21,-305.18 461.21,-305.18"/>
</g>
<!-- Node24 -->
<g id="node24" class="node">
<title>Node24</title>
<g id="a_node24"><a xlink:href="grid__labels_8h.html" target="_top" xlink:title="Class to hold the labels of a Yee cell.">
<polygon fill="white" stroke="#666666" points="838.21,-294 767.21,-294 767.21,-275 838.21,-275 838.21,-294"/>
<text text-anchor="middle" x="802.71" y="-282" font-family="Helvetica,sans-Serif" font-size="10.00">grid_labels.h</text>
</a>
</g>
</g>
<!-- Node1&#45;&gt;Node24 -->
<g id="edge37" class="edge">
<title>Node1&#45;&gt;Node24</title>
<path fill="none" stroke="#63b8ff" d="M511.62,-334.86C578.98,-323.44 693.1,-304.09 756.6,-293.32"/>
<polygon fill="#63b8ff" stroke="#63b8ff" points="756.82,-296.66 766.09,-291.54 755.65,-289.76 756.82,-296.66"/>
</g>
<!-- Node3 -->
<g id="node3" class="node">
<title>Node3</title>
<g id="a_node3"><a xlink:title=" ">
<polygon fill="#e0e0e0" stroke="#999999" points="67.21,-74 14.21,-74 14.21,-55 67.21,-55 67.21,-74"/>
<text text-anchor="middle" x="40.71" y="-62" font-family="Helvetica,sans-Serif" font-size="10.00">complex</text>
</a>
</g>
</g>
<!-- Node2&#45;&gt;Node3 -->
<g id="edge2" class="edge">
<title>Node2&#45;&gt;Node3</title>
<path fill="none" stroke="#63b8ff" d="M193.43,-164.53C173.48,-156.42 144.33,-143.56 120.71,-129 97.75,-114.84 73.83,-95.08 58.19,-81.38"/>
<polygon fill="#63b8ff" stroke="#63b8ff" points="60.81,-79.14 51.02,-75.1 56.16,-84.37 60.81,-79.14"/>
</g>
<!-- Node4 -->
<g id="node4" class="node">
<title>Node4</title>
<g id="a_node4"><a xlink:title=" ">
<polygon fill="#e0e0e0" stroke="#999999" points="429.21,-129 370.21,-129 370.21,-110 429.21,-110 429.21,-129"/>
<text text-anchor="middle" x="399.71" y="-117" font-family="Helvetica,sans-Serif" font-size="10.00">stdexcept</text>
</a>
</g>
</g>
<!-- Node2&#45;&gt;Node4 -->
<g id="edge3" class="edge">
<title>Node2&#45;&gt;Node4</title>
<path fill="none" stroke="#63b8ff" d="M242.93,-165.91C273.39,-157.09 323.97,-142.44 359.42,-132.17"/>
<polygon fill="#63b8ff" stroke="#63b8ff" points="360.27,-135.28 368.9,-129.14 358.32,-128.56 360.27,-135.28"/>
</g>
<!-- Node5 -->
<g id="node5" class="node">
<title>Node5</title>
<g id="a_node5"><a xlink:title=" ">
<polygon fill="#e0e0e0" stroke="#999999" points="497.21,-74 456.21,-74 456.21,-55 497.21,-55 497.21,-74"/>
<text text-anchor="middle" x="476.71" y="-62" font-family="Helvetica,sans-Serif" font-size="10.00">string</text>
</a>
</g>
</g>
<!-- Node2&#45;&gt;Node5 -->
<g id="edge4" class="edge">
<title>Node2&#45;&gt;Node5</title>
<path fill="none" stroke="#63b8ff" d="M196.42,-164.6C171.85,-152.64 135.86,-130.49 153.71,-110 191.32,-66.86 371,-64.11 444.88,-64.85"/>
<polygon fill="#63b8ff" stroke="#63b8ff" points="444.74,-68.37 454.79,-65 444.84,-61.37 444.74,-68.37"/>
</g>
<!-- Node6 -->
<g id="node6" class="node">
<title>Node6</title>
<g id="a_node6"><a xlink:title=" ">
<polygon fill="#e0e0e0" stroke="#999999" points="271.21,-129 224.21,-129 224.21,-110 271.21,-110 271.21,-129"/>
<text text-anchor="middle" x="247.71" y="-117" font-family="Helvetica,sans-Serif" font-size="10.00">fftw3.h</text>
</a>
</g>
</g>
<!-- Node2&#45;&gt;Node6 -->
<g id="edge5" class="edge">
<title>Node2&#45;&gt;Node6</title>
<path fill="none" stroke="#63b8ff" d="M221.83,-164.75C225.94,-157.73 231.84,-147.64 236.97,-138.87"/>
<polygon fill="#63b8ff" stroke="#63b8ff" points="240.46,-140.84 242.48,-130.44 234.41,-137.31 240.46,-140.84"/>
</g>
<!-- Node7 -->
<g id="node7" class="node">
<title>Node7</title>
<g id="a_node7"><a xlink:href="globals_8h.html" target="_top" xlink:title="Type definitions and global constants.">
<polygon fill="white" stroke="#666666" points="68.71,-129 12.71,-129 12.71,-110 68.71,-110 68.71,-129"/>
<text text-anchor="middle" x="40.71" y="-117" font-family="Helvetica,sans-Serif" font-size="10.00">globals.h</text>
</a>
</g>
</g>
<!-- Node2&#45;&gt;Node7 -->
<g id="edge6" class="edge">
<title>Node2&#45;&gt;Node7</title>
<path fill="none" stroke="#63b8ff" d="M190.37,-165.57C160.95,-156.71 113.05,-142.28 79.38,-132.14"/>
<polygon fill="#63b8ff" stroke="#63b8ff" points="80.58,-128.55 70,-129.02 78.56,-135.25 80.58,-128.55"/>
</g>
<!-- Node8 -->
<g id="node8" class="node">
<title>Node8</title>
<g id="a_node8"><a xlink:title=" ">
<polygon fill="#e0e0e0" stroke="#999999" points="351.71,-129 289.71,-129 289.71,-110 351.71,-110 351.71,-129"/>
<text text-anchor="middle" x="320.71" y="-117" font-family="Helvetica,sans-Serif" font-size="10.00">matlabio.h</text>
</a>
</g>
</g>
<!-- Node2&#45;&gt;Node8 -->
<g id="edge8" class="edge">
<title>Node2&#45;&gt;Node8</title>
<path fill="none" stroke="#63b8ff" d="M234.36,-164.51C250.59,-156.24 274.91,-143.84 293.61,-134.31"/>
<polygon fill="#63b8ff" stroke="#63b8ff" points="295.01,-137.02 302.33,-129.36 291.83,-130.78 295.01,-137.02"/>
</g>
<!-- Node9 -->
<g id="node9" class="node">
<title>Node9</title>
<g id="a_node9"><a xlink:href="utils_8h.html" target="_top" xlink:title="Useful miscellaneous utility functions.">
<polygon fill="white" stroke="#666666" points="206.21,-129 163.21,-129 163.21,-110 206.21,-110 206.21,-129"/>
<text text-anchor="middle" x="184.71" y="-117" font-family="Helvetica,sans-Serif" font-size="10.00">utils.h</text>
</a>
</g>
</g>
<!-- Node2&#45;&gt;Node9 -->
<g id="edge9" class="edge">
<title>Node2&#45;&gt;Node9</title>
<path fill="none" stroke="#63b8ff" d="M211.43,-164.75C207.15,-157.66 200.97,-147.42 195.64,-138.59"/>
<polygon fill="#63b8ff" stroke="#63b8ff" points="198.28,-137.19 190.11,-130.44 192.29,-140.81 198.28,-137.19"/>
</g>
<!-- Node7&#45;&gt;Node3 -->
<g id="edge7" class="edge">
<title>Node7&#45;&gt;Node3</title>
<path fill="none" stroke="#63b8ff" d="M40.71,-109.75C40.71,-103.11 40.71,-93.73 40.71,-85.31"/>
<polygon fill="#63b8ff" stroke="#63b8ff" points="44.21,-85.44 40.71,-75.44 37.21,-85.44 44.21,-85.44"/>
</g>
<!-- Node9&#45;&gt;Node5 -->
<g id="edge10" class="edge">
<title>Node9&#45;&gt;Node5</title>
<path fill="none" stroke="#63b8ff" d="M206.6,-112C209.32,-111.28 212.07,-110.6 214.71,-110 297.17,-91.37 395.81,-76.61 445.23,-69.73"/>
<polygon fill="#63b8ff" stroke="#63b8ff" points="445.42,-73.1 454.85,-68.26 444.46,-66.16 445.42,-73.1"/>
</g>
<!-- Node10&#45;&gt;Node2 -->
<g id="edge13" class="edge">
<title>Node10&#45;&gt;Node2</title>
<path fill="none" stroke="#63b8ff" d="M437.99,-274.66C395.8,-255.75 296.57,-211.29 246.59,-188.89"/>
<polygon fill="#63b8ff" stroke="#63b8ff" points="248.27,-185.36 237.71,-184.46 245.4,-191.74 248.27,-185.36"/>
</g>
<!-- Node10&#45;&gt;Node3 -->
<g id="edge12" class="edge">
<title>Node10&#45;&gt;Node3</title>
<path fill="none" stroke="#63b8ff" d="M435.76,-284.32C359.25,-285.8 103.6,-279.05 3.71,-129 -6.81,-113.2 7.4,-94.31 21.15,-81.27"/>
<polygon fill="#63b8ff" stroke="#63b8ff" points="22.82,-84.57 28,-75.33 18.19,-79.33 22.82,-84.57"/>
</g>
<!-- Node10&#45;&gt;Node7 -->
<g id="edge22" class="edge">
<title>Node10&#45;&gt;Node7</title>
<path fill="none" stroke="#63b8ff" d="M436.05,-277.01C408.74,-268.71 360.45,-253.67 319.71,-239 226.57,-205.46 119.66,-157.23 69.51,-134"/>
<polygon fill="#63b8ff" stroke="#63b8ff" points="71.24,-130.48 60.7,-129.44 68.29,-136.83 71.24,-130.48"/>
</g>
<!-- Node11 -->
<g id="node11" class="node">
<title>Node11</title>
<g id="a_node11"><a xlink:href="cell__coordinate_8h.html" target="_top" xlink:title="Container for {ijk} or {IJK} grouped variables.">
<polygon fill="white" stroke="#666666" points="1009.71,-239 919.71,-239 919.71,-220 1009.71,-220 1009.71,-239"/>
<text text-anchor="middle" x="964.71" y="-227" font-family="Helvetica,sans-Serif" font-size="10.00">cell_coordinate.h</text>
</a>
</g>
</g>
<!-- Node10&#45;&gt;Node11 -->
<g id="edge14" class="edge">
<title>Node10&#45;&gt;Node11</title>
<path fill="none" stroke="#63b8ff" d="M479.45,-281.82C543.49,-276.76 737.15,-260.8 908.63,-239.2"/>
<polygon fill="#63b8ff" stroke="#63b8ff" points="908.89,-242.57 918.37,-237.83 908.01,-235.62 908.89,-242.57"/>
</g>
<!-- Node14 -->
<g id="node14" class="node">
<title>Node14</title>
<g id="a_node14"><a xlink:href="dimensions_8h.html" target="_top" xlink:title="Defines a class that serves as an explicit converter between MATLAB pointers and array dimensions.">
<polygon fill="white" stroke="#666666" points="901.71,-239 827.71,-239 827.71,-220 901.71,-220 901.71,-239"/>
<text text-anchor="middle" x="864.71" y="-227" font-family="Helvetica,sans-Serif" font-size="10.00">dimensions.h</text>
</a>
</g>
</g>
<!-- Node10&#45;&gt;Node14 -->
<g id="edge17" class="edge">
<title>Node10&#45;&gt;Node14</title>
<path fill="none" stroke="#63b8ff" d="M479.43,-281.1C535.09,-274.87 687.36,-257.42 813.71,-239 814.69,-238.86 815.67,-238.71 816.66,-238.57"/>
<polygon fill="#63b8ff" stroke="#63b8ff" points="817.07,-241.89 826.42,-236.9 816,-234.97 817.07,-241.89"/>
</g>
<!-- Node15 -->
<g id="node15" class="node">
<title>Node15</title>
<g id="a_node15"><a xlink:href="mat__io_8h.html" target="_top" xlink:title="Includes MATLAB headers for I/O.">
<polygon fill="white" stroke="#666666" points="846.71,-74 792.71,-74 792.71,-55 846.71,-55 846.71,-74"/>
<text text-anchor="middle" x="819.71" y="-62" font-family="Helvetica,sans-Serif" font-size="10.00">mat_io.h</text>
</a>
</g>
</g>
<!-- Node10&#45;&gt;Node15 -->
<g id="edge23" class="edge">
<title>Node10&#45;&gt;Node15</title>
<path fill="none" stroke="#63b8ff" d="M479.58,-278.7C537.22,-265.02 695.31,-220.79 788.71,-129 801.16,-116.77 809.34,-98.54 814.16,-84.74"/>
<polygon fill="#63b8ff" stroke="#63b8ff" points="817.74,-86.02 817.43,-75.43 811.07,-83.9 817.74,-86.02"/>
</g>
<!-- Node19 -->
<g id="node19" class="node">
<title>Node19</title>
<g id="a_node19"><a xlink:href="simulation__parameters_8h.html" target="_top" xlink:title="Classes collecting parameters for the simulation.">
<polygon fill="white" stroke="#666666" points="519.21,-239 396.21,-239 396.21,-220 519.21,-220 519.21,-239"/>
<text text-anchor="middle" x="457.71" y="-227" font-family="Helvetica,sans-Serif" font-size="10.00">simulation_parameters.h</text>
</a>
</g>
</g>
<!-- Node10&#45;&gt;Node19 -->
<g id="edge24" class="edge">
<title>Node10&#45;&gt;Node19</title>
<path fill="none" stroke="#63b8ff" d="M457.71,-274.75C457.71,-268.11 457.71,-258.73 457.71,-250.31"/>
<polygon fill="#63b8ff" stroke="#63b8ff" points="461.21,-250.44 457.71,-240.44 454.21,-250.44 461.21,-250.44"/>
</g>
<!-- Node12 -->
<g id="node12" class="node">
<title>Node12</title>
<g id="a_node12"><a xlink:title=" ">
<polygon fill="#e0e0e0" stroke="#999999" points="971.21,-184 886.21,-184 886.21,-165 971.21,-165 971.21,-184"/>
<text text-anchor="middle" x="928.71" y="-172" font-family="Helvetica,sans-Serif" font-size="10.00">spdlog/spdlog.h</text>
</a>
</g>
</g>
<!-- Node11&#45;&gt;Node12 -->
<g id="edge15" class="edge">
<title>Node11&#45;&gt;Node12</title>
<path fill="none" stroke="#63b8ff" d="M958.77,-219.75C953.9,-212.58 946.85,-202.2 940.81,-193.3"/>
<polygon fill="#63b8ff" stroke="#63b8ff" points="943.3,-191.75 934.79,-185.44 937.51,-195.68 943.3,-191.75"/>
</g>
<!-- Node13 -->
<g id="node13" class="node">
<title>Node13</title>
<g id="a_node13"><a xlink:title=" ">
<polygon fill="#e0e0e0" stroke="#999999" points="1045.71,-184 989.71,-184 989.71,-165 1045.71,-165 1045.71,-184"/>
<text text-anchor="middle" x="1017.71" y="-172" font-family="Helvetica,sans-Serif" font-size="10.00">algorithm</text>
</a>
</g>
</g>
<!-- Node11&#45;&gt;Node13 -->
<g id="edge16" class="edge">
<title>Node11&#45;&gt;Node13</title>
<path fill="none" stroke="#63b8ff" d="M973.47,-219.75C980.94,-212.27 991.9,-201.32 1001.04,-192.17"/>
<polygon fill="#63b8ff" stroke="#63b8ff" points="1003.18,-194.99 1007.77,-185.44 998.23,-190.04 1003.18,-194.99"/>
</g>
<!-- Node14&#45;&gt;Node15 -->
<g id="edge18" class="edge">
<title>Node14&#45;&gt;Node15</title>
<path fill="none" stroke="#63b8ff" d="M862.53,-219.54C857.66,-199.71 845.42,-150.67 833.71,-110 831.31,-101.63 828.45,-92.45 825.95,-84.6"/>
<polygon fill="#63b8ff" stroke="#63b8ff" points="829.04,-83.77 822.63,-75.33 822.37,-85.92 829.04,-83.77"/>
</g>
<!-- Node16 -->
<g id="node16" class="node">
<title>Node16</title>
<g id="a_node16"><a xlink:title=" ">
<polygon fill="#e0e0e0" stroke="#999999" points="775.21,-19 734.21,-19 734.21,0 775.21,0 775.21,-19"/>
<text text-anchor="middle" x="754.71" y="-7" font-family="Helvetica,sans-Serif" font-size="10.00">mat.h</text>
</a>
</g>
</g>
<!-- Node15&#45;&gt;Node16 -->
<g id="edge19" class="edge">
<title>Node15&#45;&gt;Node16</title>
<path fill="none" stroke="#63b8ff" d="M808.69,-54.51C799.2,-46.77 785.29,-35.43 773.97,-26.2"/>
<polygon fill="#63b8ff" stroke="#63b8ff" points="776.54,-22.96 766.58,-19.36 772.12,-28.39 776.54,-22.96"/>
</g>
<!-- Node17 -->
<g id="node17" class="node">
<title>Node17</title>
<g id="a_node17"><a xlink:title=" ">
<polygon fill="#e0e0e0" stroke="#999999" points="845.71,-19 793.71,-19 793.71,0 845.71,0 845.71,-19"/>
<text text-anchor="middle" x="819.71" y="-7" font-family="Helvetica,sans-Serif" font-size="10.00">matrix.h</text>
</a>
</g>
</g>
<!-- Node15&#45;&gt;Node17 -->
<g id="edge20" class="edge">
<title>Node15&#45;&gt;Node17</title>
<path fill="none" stroke="#63b8ff" d="M819.71,-54.75C819.71,-48.11 819.71,-38.73 819.71,-30.31"/>
<polygon fill="#63b8ff" stroke="#63b8ff" points="823.21,-30.44 819.71,-20.44 816.21,-30.44 823.21,-30.44"/>
</g>
<!-- Node18 -->
<g id="node18" class="node">
<title>Node18</title>
<g id="a_node18"><a xlink:title=" ">
<polygon fill="#e0e0e0" stroke="#999999" points="907.71,-19 863.71,-19 863.71,0 907.71,0 907.71,-19"/>
<text text-anchor="middle" x="885.71" y="-7" font-family="Helvetica,sans-Serif" font-size="10.00">mex.h</text>
</a>
</g>
</g>
<!-- Node15&#45;&gt;Node18 -->
<g id="edge21" class="edge">
<title>Node15&#45;&gt;Node18</title>
<path fill="none" stroke="#63b8ff" d="M830.91,-54.51C840.55,-46.77 854.67,-35.43 866.16,-26.2"/>
<polygon fill="#63b8ff" stroke="#63b8ff" points="868.08,-28.35 873.68,-19.36 863.7,-22.89 868.08,-28.35"/>
</g>
<!-- Node19&#45;&gt;Node2 -->
<g id="edge26" class="edge">
<title>Node19&#45;&gt;Node2</title>
<path fill="none" stroke="#63b8ff" d="M416.83,-219.51C371.03,-209.44 297.44,-193.25 253.41,-183.57"/>
<polygon fill="#63b8ff" stroke="#63b8ff" points="254.41,-179.99 243.89,-181.26 252.9,-186.82 254.41,-179.99"/>
</g>
<!-- Node19&#45;&gt;Node5 -->
<g id="edge25" class="edge">
<title>Node19&#45;&gt;Node5</title>
<path fill="none" stroke="#63b8ff" d="M458.74,-219.74C461.69,-194.42 470.28,-120.72 474.42,-85.16"/>
<polygon fill="#63b8ff" stroke="#63b8ff" points="478.01,-85.64 475.69,-75.31 471.05,-84.83 478.01,-85.64"/>
</g>
<!-- Node20 -->
<g id="node20" class="node">
<title>Node20</title>
<g id="a_node20"><a xlink:href="input__matrices_8h.html" target="_top" xlink:title="Class handling the input matrices that are read in from the input file.">
<polygon fill="white" stroke="#666666" points="625.21,-184 536.21,-184 536.21,-165 625.21,-165 625.21,-184"/>
<text text-anchor="middle" x="580.71" y="-172" font-family="Helvetica,sans-Serif" font-size="10.00">input_matrices.h</text>
</a>
</g>
</g>
<!-- Node19&#45;&gt;Node20 -->
<g id="edge27" class="edge">
<title>Node19&#45;&gt;Node20</title>
<path fill="none" stroke="#63b8ff" d="M478.58,-219.51C498.22,-211.04 527.88,-198.27 550.18,-188.66"/>
<polygon fill="#63b8ff" stroke="#63b8ff" points="551.36,-191.53 559.16,-184.36 548.59,-185.1 551.36,-191.53"/>
</g>
<!-- Node20&#45;&gt;Node5 -->
<g id="edge28" class="edge">
<title>Node20&#45;&gt;Node5</title>
<path fill="none" stroke="#63b8ff" d="M563.19,-164.51C548.91,-156.57 528.88,-143.95 514.71,-129 502.03,-115.61 491.61,-97.26 484.92,-83.73"/>
<polygon fill="#63b8ff" stroke="#63b8ff" points="487.81,-82.64 480.37,-75.1 481.48,-85.63 487.81,-82.64"/>
</g>
<!-- Node20&#45;&gt;Node15 -->
<g id="edge32" class="edge">
<title>Node20&#45;&gt;Node15</title>
<path fill="none" stroke="#63b8ff" d="M625.42,-170.01C664.09,-165.33 720.3,-154.4 762.71,-129 781.72,-117.62 797.96,-97.88 808.19,-83.42"/>
<polygon fill="#63b8ff" stroke="#63b8ff" points="811.57,-85.67 814.27,-75.42 805.77,-81.75 811.57,-85.67"/>
</g>
<!-- Node21 -->
<g id="node21" class="node">
<title>Node21</title>
<g id="a_node21"><a xlink:href="input__output__names_8h.html" target="_top" xlink:title="Constant values associated with the format of the input and output files and matrices.">
<polygon fill="white" stroke="#666666" points="637.21,-129 524.21,-129 524.21,-110 637.21,-110 637.21,-129"/>
<text text-anchor="middle" x="580.71" y="-117" font-family="Helvetica,sans-Serif" font-size="10.00">input_output_names.h</text>
</a>
</g>
</g>
<!-- Node20&#45;&gt;Node21 -->
<g id="edge29" class="edge">
<title>Node20&#45;&gt;Node21</title>
<path fill="none" stroke="#63b8ff" d="M580.71,-164.75C580.71,-158.11 580.71,-148.73 580.71,-140.31"/>
<polygon fill="#63b8ff" stroke="#63b8ff" points="584.21,-140.44 580.71,-130.44 577.21,-140.44 584.21,-140.44"/>
</g>
<!-- Node23 -->
<g id="node23" class="node">
<title>Node23</title>
<g id="a_node23"><a xlink:href="matrix__collection_8h.html" target="_top" xlink:title="A collection of named MATLAB matrices.">
<polygon fill="white" stroke="#666666" points="753.71,-129 655.71,-129 655.71,-110 753.71,-110 753.71,-129"/>
<text text-anchor="middle" x="704.71" y="-117" font-family="Helvetica,sans-Serif" font-size="10.00">matrix_collection.h</text>
</a>
</g>
</g>
<!-- Node20&#45;&gt;Node23 -->
<g id="edge33" class="edge">
<title>Node20&#45;&gt;Node23</title>
<path fill="none" stroke="#63b8ff" d="M601.75,-164.51C621.55,-156.04 651.45,-143.27 673.93,-133.66"/>
<polygon fill="#63b8ff" stroke="#63b8ff" points="675.17,-136.51 682.99,-129.36 672.42,-130.07 675.17,-136.51"/>
</g>
<!-- Node21&#45;&gt;Node5 -->
<g id="edge30" class="edge">
<title>Node21&#45;&gt;Node5</title>
<path fill="none" stroke="#63b8ff" d="M563.07,-109.51C546.84,-101.24 522.52,-88.84 503.82,-79.31"/>
<polygon fill="#63b8ff" stroke="#63b8ff" points="505.6,-75.78 495.1,-74.36 502.42,-82.02 505.6,-75.78"/>
</g>
<!-- Node22 -->
<g id="node22" class="node">
<title>Node22</title>
<g id="a_node22"><a xlink:title=" ">
<polygon fill="#e0e0e0" stroke="#999999" points="664.71,-74 620.71,-74 620.71,-55 664.71,-55 664.71,-74"/>
<text text-anchor="middle" x="642.71" y="-62" font-family="Helvetica,sans-Serif" font-size="10.00">vector</text>
</a>
</g>
</g>
<!-- Node21&#45;&gt;Node22 -->
<g id="edge31" class="edge">
<title>Node21&#45;&gt;Node22</title>
<path fill="none" stroke="#63b8ff" d="M591.23,-109.51C600.19,-101.85 613.29,-90.66 624.03,-81.47"/>
<polygon fill="#63b8ff" stroke="#63b8ff" points="626.03,-83.52 631.35,-74.36 621.48,-78.2 626.03,-83.52"/>
</g>
<!-- Node23&#45;&gt;Node5 -->
<g id="edge34" class="edge">
<title>Node23&#45;&gt;Node5</title>
<path fill="none" stroke="#63b8ff" d="M666.04,-109.51C621.46,-99.15 549.08,-82.32 507.93,-72.76"/>
<polygon fill="#63b8ff" stroke="#63b8ff" points="508.98,-69.17 498.45,-70.32 507.39,-75.99 508.98,-69.17"/>
</g>
<!-- Node23&#45;&gt;Node15 -->
<g id="edge36" class="edge">
<title>Node23&#45;&gt;Node15</title>
<path fill="none" stroke="#63b8ff" d="M724.22,-109.51C742.42,-101.12 769.82,-88.5 790.6,-78.92"/>
<polygon fill="#63b8ff" stroke="#63b8ff" points="791.88,-81.72 799.49,-74.36 788.95,-75.36 791.88,-81.72"/>
</g>
<!-- Node23&#45;&gt;Node22 -->
<g id="edge35" class="edge">
<title>Node23&#45;&gt;Node22</title>
<path fill="none" stroke="#63b8ff" d="M694.2,-109.51C685.24,-101.85 672.14,-90.66 661.4,-81.47"/>
<polygon fill="#63b8ff" stroke="#63b8ff" points="663.95,-78.2 654.08,-74.36 659.4,-83.52 663.95,-78.2"/>
</g>
<!-- Node24&#45;&gt;Node15 -->
<g id="edge38" class="edge">
<title>Node24&#45;&gt;Node15</title>
<path fill="none" stroke="#63b8ff" d="M838.44,-284.25C884.1,-283.52 963.78,-276.36 1018.71,-239 1042.87,-222.57 1046.37,-212 1054.71,-184 1080.17,-98.62 930.51,-74.56 857.73,-67.94"/>
<polygon fill="#63b8ff" stroke="#63b8ff" points="858.42,-64.4 848.17,-67.05 857.84,-71.37 858.42,-64.4"/>
</g>
</g>
</svg>
