<?xml version="1.0" encoding="UTF-8" standalone="no"?>
<!DOCTYPE svg PUBLIC "-//W3C//DTD SVG 1.1//EN"
 "http://www.w3.org/Graphics/SVG/1.1/DTD/svg11.dtd">
<!-- Generated by graphviz version 8.0.5 (20230430.1635)
 -->
<!-- Title: tdms/include/surface_phasors.h Pages: 1 -->
<svg width="1228pt" height="370pt"
 viewBox="0.00 0.00 1228.38 370.00" xmlns="http://www.w3.org/2000/svg" xmlns:xlink="http://www.w3.org/1999/xlink">
<g id="graph0" class="graph" transform="scale(1 1) rotate(0) translate(4 366)">
<title>tdms/include/surface_phasors.h</title>
<!-- Node1 -->
<g id="node1" class="node">
<title>Node1</title>
<g id="a_node1"><a xlink:title="Contains a class that handles the complex amplitude extraction.">
<polygon fill="#999999" stroke="#666666" points="400.38,-362 293.63,-362 293.63,-331.5 400.38,-331.5 400.38,-362"/>
<text text-anchor="start" x="301.63" y="-348.5" font-family="Helvetica,sans-Serif" font-size="10.00">tdms/include/surface</text>
<text text-anchor="middle" x="347" y="-337.25" font-family="Helvetica,sans-Serif" font-size="10.00">_phasors.h</text>
</a>
</g>
</g>
<!-- Node2 -->
<g id="node2" class="node">
<title>Node2</title>
<g id="a_node2"><a xlink:href="arrays_8h.html" target="_top" xlink:title="Classes describing arrays, vertices etc.">
<polygon fill="white" stroke="#666666" points="920.63,-185 869.38,-185 869.38,-165.75 920.63,-165.75 920.63,-185"/>
<text text-anchor="middle" x="895" y="-171.5" font-family="Helvetica,sans-Serif" font-size="10.00">arrays.h</text>
</a>
</g>
</g>
<!-- Node1&#45;&gt;Node2 -->
<g id="edge1" class="edge">
<title>Node1&#45;&gt;Node2</title>
<path fill="none" stroke="#63b8ff" d="M400.6,-339.66C487.45,-328.4 663.02,-299.85 800,-240.25 828.53,-227.84 857.69,-206.72 876.05,-192.18"/>
<polygon fill="#63b8ff" stroke="#63b8ff" points="877.79,-194.46 883.37,-185.46 873.39,-189.02 877.79,-194.46"/>
</g>
<!-- Node11 -->
<g id="node11" class="node">
<title>Node11</title>
<g id="a_node11"><a xlink:href="field_8h.html" target="_top" xlink:title="Classes for the electric and magnetic (split) fields on a grid.">
<polygon fill="white" stroke="#666666" points="368.13,-295.5 325.88,-295.5 325.88,-276.25 368.13,-276.25 368.13,-295.5"/>
<text text-anchor="middle" x="347" y="-282" font-family="Helvetica,sans-Serif" font-size="10.00">field.h</text>
</a>
</g>
</g>
<!-- Node1&#45;&gt;Node11 -->
<g id="edge13" class="edge">
<title>Node1&#45;&gt;Node11</title>
<path fill="none" stroke="#63b8ff" d="M347,-331.2C347,-323.87 347,-314.87 347,-306.91"/>
<polygon fill="#63b8ff" stroke="#63b8ff" points="350.5,-306.95 347,-296.95 343.5,-306.95 350.5,-306.95"/>
</g>
<!-- Node25 -->
<g id="node25" class="node">
<title>Node25</title>
<g id="a_node25"><a xlink:href="grid__labels_8h.html" target="_top" xlink:title="Class to hold the labels of a Yee cell.">
<polygon fill="white" stroke="#666666" points="162.38,-295.5 91.63,-295.5 91.63,-276.25 162.38,-276.25 162.38,-295.5"/>
<text text-anchor="middle" x="127" y="-282" font-family="Helvetica,sans-Serif" font-size="10.00">grid_labels.h</text>
</a>
</g>
</g>
<!-- Node1&#45;&gt;Node25 -->
<g id="edge45" class="edge">
<title>Node1&#45;&gt;Node25</title>
<path fill="none" stroke="#63b8ff" d="M293.18,-331.35C255.83,-321.35 206.67,-308.19 171.52,-298.79"/>
<polygon fill="#63b8ff" stroke="#63b8ff" points="172.66,-295.2 162.09,-296 170.85,-301.96 172.66,-295.2"/>
</g>
<!-- Node3 -->
<g id="node3" class="node">
<title>Node3</title>
<g id="a_node3"><a xlink:title=" ">
<polygon fill="#e0e0e0" stroke="#999999" points="1220.38,-74.5 1167.63,-74.5 1167.63,-55.25 1220.38,-55.25 1220.38,-74.5"/>
<text text-anchor="middle" x="1194" y="-61" font-family="Helvetica,sans-Serif" font-size="10.00">complex</text>
</a>
</g>
</g>
<!-- Node2&#45;&gt;Node3 -->
<g id="edge2" class="edge">
<title>Node2&#45;&gt;Node3</title>
<path fill="none" stroke="#63b8ff" d="M920.75,-173.68C982.62,-171.49 1137.34,-162.77 1175,-129.75 1187.51,-118.79 1191.96,-99.99 1193.46,-85.62"/>
<polygon fill="#63b8ff" stroke="#63b8ff" points="1197,-86.06 1194.14,-75.86 1190.01,-85.62 1197,-86.06"/>
</g>
<!-- Node4 -->
<g id="node4" class="node">
<title>Node4</title>
<g id="a_node4"><a xlink:title=" ">
<polygon fill="#e0e0e0" stroke="#999999" points="607.38,-129.75 548.63,-129.75 548.63,-110.5 607.38,-110.5 607.38,-129.75"/>
<text text-anchor="middle" x="578" y="-116.25" font-family="Helvetica,sans-Serif" font-size="10.00">stdexcept</text>
</a>
</g>
</g>
<!-- Node2&#45;&gt;Node4 -->
<g id="edge3" class="edge">
<title>Node2&#45;&gt;Node4</title>
<path fill="none" stroke="#63b8ff" d="M869.13,-170.81C821.49,-164.11 716.44,-148.79 618.51,-130.14"/>
<polygon fill="#63b8ff" stroke="#63b8ff" points="619.31,-126.54 608.83,-128.09 617.99,-133.41 619.31,-126.54"/>
</g>
<!-- Node5 -->
<g id="node5" class="node">
<title>Node5</title>
<g id="a_node5"><a xlink:title=" ">
<polygon fill="#e0e0e0" stroke="#999999" points="823,-74.5 783,-74.5 783,-55.25 823,-55.25 823,-74.5"/>
<text text-anchor="middle" x="803" y="-61" font-family="Helvetica,sans-Serif" font-size="10.00">string</text>
</a>
</g>
</g>
<!-- Node2&#45;&gt;Node5 -->
<g id="edge4" class="edge">
<title>Node2&#45;&gt;Node5</title>
<path fill="none" stroke="#63b8ff" d="M890.58,-165.55C883.9,-152.68 870.36,-128.35 855,-110.5 845.85,-99.87 834.1,-89.56 824.08,-81.54"/>
<polygon fill="#63b8ff" stroke="#63b8ff" points="826.54,-78.24 816.5,-74.87 822.25,-83.77 826.54,-78.24"/>
</g>
<!-- Node6 -->
<g id="node6" class="node">
<title>Node6</title>
<g id="a_node6"><a xlink:title=" ">
<polygon fill="#e0e0e0" stroke="#999999" points="583.5,-74.5 540.5,-74.5 540.5,-55.25 583.5,-55.25 583.5,-74.5"/>
<text text-anchor="middle" x="562" y="-61" font-family="Helvetica,sans-Serif" font-size="10.00">vector</text>
</a>
</g>
</g>
<!-- Node2&#45;&gt;Node6 -->
<g id="edge5" class="edge">
<title>Node2&#45;&gt;Node6</title>
<path fill="none" stroke="#63b8ff" d="M876.57,-165.28C848.81,-151.86 794.33,-126.6 746,-110.5 694,-93.18 631.67,-79.49 594.54,-72.05"/>
<polygon fill="#63b8ff" stroke="#63b8ff" points="595.35,-68.45 584.86,-69.94 593.99,-75.31 595.35,-68.45"/>
</g>
<!-- Node7 -->
<g id="node7" class="node">
<title>Node7</title>
<g id="a_node7"><a xlink:title=" ">
<polygon fill="#e0e0e0" stroke="#999999" points="953,-129.75 907,-129.75 907,-110.5 953,-110.5 953,-129.75"/>
<text text-anchor="middle" x="930" y="-116.25" font-family="Helvetica,sans-Serif" font-size="10.00">fftw3.h</text>
</a>
</g>
</g>
<!-- Node2&#45;&gt;Node7 -->
<g id="edge6" class="edge">
<title>Node2&#45;&gt;Node7</title>
<path fill="none" stroke="#63b8ff" d="M900.78,-165.58C905.46,-158.46 912.22,-148.18 918.06,-139.3"/>
<polygon fill="#63b8ff" stroke="#63b8ff" points="921.53,-141.39 924.1,-131.11 915.68,-137.54 921.53,-141.39"/>
</g>
<!-- Node8 -->
<g id="node8" class="node">
<title>Node8</title>
<g id="a_node8"><a xlink:href="globals_8h.html" target="_top" xlink:title="Type definitions and global constants.">
<polygon fill="white" stroke="#666666" points="1165.5,-129.75 1110.5,-129.75 1110.5,-110.5 1165.5,-110.5 1165.5,-129.75"/>
<text text-anchor="middle" x="1138" y="-116.25" font-family="Helvetica,sans-Serif" font-size="10.00">globals.h</text>
</a>
</g>
</g>
<!-- Node2&#45;&gt;Node8 -->
<g id="edge7" class="edge">
<title>Node2&#45;&gt;Node8</title>
<path fill="none" stroke="#63b8ff" d="M920.86,-169C958.24,-161.18 1029.82,-146.06 1099.8,-130.22"/>
<polygon fill="#63b8ff" stroke="#63b8ff" points="1100.13,-133.5 1109.11,-127.87 1098.58,-126.68 1100.13,-133.5"/>
</g>
<!-- Node9 -->
<g id="node9" class="node">
<title>Node9</title>
<g id="a_node9"><a xlink:title=" ">
<polygon fill="#e0e0e0" stroke="#999999" points="1092.5,-129.75 1031.5,-129.75 1031.5,-110.5 1092.5,-110.5 1092.5,-129.75"/>
<text text-anchor="middle" x="1062" y="-116.25" font-family="Helvetica,sans-Serif" font-size="10.00">matlabio.h</text>
</a>
</g>
</g>
<!-- Node2&#45;&gt;Node9 -->
<g id="edge10" class="edge">
<title>Node2&#45;&gt;Node9</title>
<path fill="none" stroke="#63b8ff" d="M921.1,-166.05C948.54,-157.3 992.02,-143.44 1023.43,-133.42"/>
<polygon fill="#63b8ff" stroke="#63b8ff" points="1024.11,-136.56 1032.58,-130.19 1021.99,-129.89 1024.11,-136.56"/>
</g>
<!-- Node10 -->
<g id="node10" class="node">
<title>Node10</title>
<g id="a_node10"><a xlink:href="utils_8h.html" target="_top" xlink:title="Useful miscellaneous utility functions.">
<polygon fill="white" stroke="#666666" points="1013.13,-129.75 970.88,-129.75 970.88,-110.5 1013.13,-110.5 1013.13,-129.75"/>
<text text-anchor="middle" x="992" y="-116.25" font-family="Helvetica,sans-Serif" font-size="10.00">utils.h</text>
</a>
</g>
</g>
<!-- Node2&#45;&gt;Node10 -->
<g id="edge11" class="edge">
<title>Node2&#45;&gt;Node10</title>
<path fill="none" stroke="#63b8ff" d="M911.46,-165.34C926.37,-157.16 948.59,-144.96 965.92,-135.44"/>
<polygon fill="#63b8ff" stroke="#63b8ff" points="967.38,-138.08 974.47,-130.2 964.02,-131.95 967.38,-138.08"/>
</g>
<!-- Node8&#45;&gt;Node3 -->
<g id="edge8" class="edge">
<title>Node8&#45;&gt;Node3</title>
<path fill="none" stroke="#63b8ff" d="M1147.5,-110.09C1155.51,-102.47 1167.19,-91.37 1176.83,-82.2"/>
<polygon fill="#63b8ff" stroke="#63b8ff" points="1178.81,-85.2 1183.64,-75.77 1173.98,-80.13 1178.81,-85.2"/>
</g>
<!-- Node8&#45;&gt;Node5 -->
<g id="edge9" class="edge">
<title>Node8&#45;&gt;Node5</title>
<path fill="none" stroke="#63b8ff" d="M1110.15,-112.2C1107.4,-111.59 1104.65,-111.01 1102,-110.5 1004.83,-91.65 888.57,-76.35 834.07,-69.61"/>
<polygon fill="#63b8ff" stroke="#63b8ff" points="834.76,-66.04 824.41,-68.3 833.91,-72.99 834.76,-66.04"/>
</g>
<!-- Node10&#45;&gt;Node5 -->
<g id="edge12" class="edge">
<title>Node10&#45;&gt;Node5</title>
<path fill="none" stroke="#63b8ff" d="M970.7,-112.98C967.78,-112.15 964.82,-111.3 962,-110.5 917.35,-97.81 865.58,-83.33 833.55,-74.39"/>
<polygon fill="#63b8ff" stroke="#63b8ff" points="834.67,-70.79 824.09,-71.47 832.78,-77.53 834.67,-70.79"/>
</g>
<!-- Node11&#45;&gt;Node2 -->
<g id="edge15" class="edge">
<title>Node11&#45;&gt;Node2</title>
<path fill="none" stroke="#63b8ff" d="M368.21,-285.11C430.15,-285.26 615.65,-281.93 762,-240.25 802.24,-228.79 845.27,-205.96 871.15,-190.92"/>
<polygon fill="#63b8ff" stroke="#63b8ff" points="872.67,-193.5 879.5,-185.39 869.11,-187.47 872.67,-193.5"/>
</g>
<!-- Node11&#45;&gt;Node3 -->
<g id="edge14" class="edge">
<title>Node11&#45;&gt;Node3</title>
<path fill="none" stroke="#63b8ff" d="M368.42,-284.09C433.69,-281.43 635.73,-271.07 800,-240.25 979.17,-206.63 1084.82,-274.98 1195,-129.75 1204.53,-117.19 1203.17,-98.87 1200.07,-85.07"/>
<polygon fill="#63b8ff" stroke="#63b8ff" points="1203.27,-84.5 1197.26,-75.77 1196.51,-86.34 1203.27,-84.5"/>
</g>
<!-- Node12 -->
<g id="node12" class="node">
<title>Node12</title>
<g id="a_node12"><a xlink:href="cell__coordinate_8h.html" target="_top" xlink:title="Container for {ijk} or {IJK} grouped variables.">
<polygon fill="white" stroke="#666666" points="265.75,-185 176.25,-185 176.25,-165.75 265.75,-165.75 265.75,-185"/>
<text text-anchor="middle" x="221" y="-171.5" font-family="Helvetica,sans-Serif" font-size="10.00">cell_coordinate.h</text>
</a>
</g>
</g>
<!-- Node11&#45;&gt;Node12 -->
<g id="edge16" class="edge">
<title>Node11&#45;&gt;Node12</title>
<path fill="none" stroke="#63b8ff" d="M336.69,-276C315.46,-257.72 266.62,-215.65 239.68,-192.46"/>
<polygon fill="#63b8ff" stroke="#63b8ff" points="242.32,-189.25 232.46,-185.38 237.75,-194.55 242.32,-189.25"/>
</g>
<!-- Node15 -->
<g id="node15" class="node">
<title>Node15</title>
<g id="a_node15"><a xlink:href="dimensions_8h.html" target="_top" xlink:title="Defines a class that serves as an explicit converter between MATLAB pointers and array dimensions.">
<polygon fill="white" stroke="#666666" points="160.88,-240.25 87.13,-240.25 87.13,-221 160.88,-221 160.88,-240.25"/>
<text text-anchor="middle" x="124" y="-226.75" font-family="Helvetica,sans-Serif" font-size="10.00">dimensions.h</text>
</a>
</g>
</g>
<!-- Node11&#45;&gt;Node15 -->
<g id="edge19" class="edge">
<title>Node11&#45;&gt;Node15</title>
<path fill="none" stroke="#63b8ff" d="M325.62,-279.77C290.42,-271.36 219.45,-254.42 171.81,-243.04"/>
<polygon fill="#63b8ff" stroke="#63b8ff" points="172.67,-239.41 162.13,-240.49 171.04,-246.22 172.67,-239.41"/>
</g>
<!-- Node16 -->
<g id="node16" class="node">
<title>Node16</title>
<g id="a_node16"><a xlink:href="mat__io_8h.html" target="_top" xlink:title="Includes MATLAB headers for I/O.">
<polygon fill="white" stroke="#666666" points="210.75,-74.5 157.25,-74.5 157.25,-55.25 210.75,-55.25 210.75,-74.5"/>
<text text-anchor="middle" x="184" y="-61" font-family="Helvetica,sans-Serif" font-size="10.00">mat_io.h</text>
</a>
</g>
</g>
<!-- Node11&#45;&gt;Node16 -->
<g id="edge31" class="edge">
<title>Node11&#45;&gt;Node16</title>
<path fill="none" stroke="#63b8ff" d="M325.53,-284.72C267.52,-283.79 109.84,-277.8 78,-240.25 59.06,-217.91 -16.43,-256.47 84,-110.5 98.26,-89.77 124.5,-78.55 146.53,-72.54"/>
<polygon fill="#63b8ff" stroke="#63b8ff" points="147.05,-75.77 155.93,-70 145.38,-68.98 147.05,-75.77"/>
</g>
<!-- Node20 -->
<g id="node20" class="node">
<title>Node20</title>
<g id="a_node20"><a xlink:href="input__flags_8h.html" target="_top" xlink:title="Organises enumerated constants, names, and classes for handling flag&#45;variables that are passed to TDM...">
<polygon fill="white" stroke="#666666" points="382.75,-185 311.25,-185 311.25,-165.75 382.75,-165.75 382.75,-185"/>
<text text-anchor="middle" x="347" y="-171.5" font-family="Helvetica,sans-Serif" font-size="10.00">input_flags.h</text>
</a>
</g>
</g>
<!-- Node11&#45;&gt;Node20 -->
<g id="edge24" class="edge">
<title>Node11&#45;&gt;Node20</title>
<path fill="none" stroke="#63b8ff" d="M347,-276C347,-258.67 347,-219.98 347,-196.24"/>
<polygon fill="#63b8ff" stroke="#63b8ff" points="350.5,-196.38 347,-186.38 343.5,-196.38 350.5,-196.38"/>
</g>
<!-- Node21 -->
<g id="node21" class="node">
<title>Node21</title>
<g id="a_node21"><a xlink:href="simulation__parameters_8h.html" target="_top" xlink:title="Classes collecting parameters for the simulation.">
<polygon fill="white" stroke="#666666" points="753.25,-240.25 630.75,-240.25 630.75,-221 753.25,-221 753.25,-240.25"/>
<text text-anchor="middle" x="692" y="-226.75" font-family="Helvetica,sans-Serif" font-size="10.00">simulation_parameters.h</text>
</a>
</g>
</g>
<!-- Node11&#45;&gt;Node21 -->
<g id="edge32" class="edge">
<title>Node11&#45;&gt;Node21</title>
<path fill="none" stroke="#63b8ff" d="M368.58,-281.54C418.39,-273.86 543.14,-254.6 622.34,-242.38"/>
<polygon fill="#63b8ff" stroke="#63b8ff" points="622.85,-245.69 632.2,-240.7 621.78,-238.77 622.85,-245.69"/>
</g>
<!-- Node13 -->
<g id="node13" class="node">
<title>Node13</title>
<g id="a_node13"><a xlink:title=" ">
<polygon fill="#e0e0e0" stroke="#999999" points="263.13,-129.75 178.88,-129.75 178.88,-110.5 263.13,-110.5 263.13,-129.75"/>
<text text-anchor="middle" x="221" y="-116.25" font-family="Helvetica,sans-Serif" font-size="10.00">spdlog/spdlog.h</text>
</a>
</g>
</g>
<!-- Node12&#45;&gt;Node13 -->
<g id="edge17" class="edge">
<title>Node12&#45;&gt;Node13</title>
<path fill="none" stroke="#63b8ff" d="M221,-165.58C221,-158.92 221,-149.49 221,-141.03"/>
<polygon fill="#63b8ff" stroke="#63b8ff" points="224.5,-141.11 221,-131.11 217.5,-141.11 224.5,-141.11"/>
</g>
<!-- Node14 -->
<g id="node14" class="node">
<title>Node14</title>
<g id="a_node14"><a xlink:title=" ">
<polygon fill="#e0e0e0" stroke="#999999" points="160.88,-129.75 105.13,-129.75 105.13,-110.5 160.88,-110.5 160.88,-129.75"/>
<text text-anchor="middle" x="133" y="-116.25" font-family="Helvetica,sans-Serif" font-size="10.00">algorithm</text>
</a>
</g>
</g>
<!-- Node12&#45;&gt;Node14 -->
<g id="edge18" class="edge">
<title>Node12&#45;&gt;Node14</title>
<path fill="none" stroke="#63b8ff" d="M206.07,-165.34C192.67,-157.23 172.76,-145.18 157.1,-135.71"/>
<polygon fill="#63b8ff" stroke="#63b8ff" points="159.37,-132.39 149,-130.2 155.75,-138.37 159.37,-132.39"/>
</g>
<!-- Node15&#45;&gt;Node16 -->
<g id="edge20" class="edge">
<title>Node15&#45;&gt;Node16</title>
<path fill="none" stroke="#63b8ff" d="M117.59,-220.53C103.66,-199.57 73.65,-146.89 96,-110.5 107.07,-92.48 127.93,-81.46 146.56,-74.88"/>
<polygon fill="#63b8ff" stroke="#63b8ff" points="147.43,-77.96 155.89,-71.59 145.3,-71.29 147.43,-77.96"/>
</g>
<!-- Node17 -->
<g id="node17" class="node">
<title>Node17</title>
<g id="a_node17"><a xlink:title=" ">
<polygon fill="#e0e0e0" stroke="#999999" points="140.38,-19.25 99.63,-19.25 99.63,0 140.38,0 140.38,-19.25"/>
<text text-anchor="middle" x="120" y="-5.75" font-family="Helvetica,sans-Serif" font-size="10.00">mat.h</text>
</a>
</g>
</g>
<!-- Node16&#45;&gt;Node17 -->
<g id="edge21" class="edge">
<title>Node16&#45;&gt;Node17</title>
<path fill="none" stroke="#63b8ff" d="M173.14,-54.84C163.8,-47.07 150.11,-35.67 138.96,-26.4"/>
<polygon fill="#63b8ff" stroke="#63b8ff" points="141.62,-23.23 131.7,-19.52 137.15,-28.61 141.62,-23.23"/>
</g>
<!-- Node18 -->
<g id="node18" class="node">
<title>Node18</title>
<g id="a_node18"><a xlink:title=" ">
<polygon fill="#e0e0e0" stroke="#999999" points="209.63,-19.25 158.38,-19.25 158.38,0 209.63,0 209.63,-19.25"/>
<text text-anchor="middle" x="184" y="-5.75" font-family="Helvetica,sans-Serif" font-size="10.00">matrix.h</text>
</a>
</g>
</g>
<!-- Node16&#45;&gt;Node18 -->
<g id="edge22" class="edge">
<title>Node16&#45;&gt;Node18</title>
<path fill="none" stroke="#63b8ff" d="M184,-55.08C184,-48.42 184,-38.99 184,-30.53"/>
<polygon fill="#63b8ff" stroke="#63b8ff" points="187.5,-30.61 184,-20.61 180.5,-30.61 187.5,-30.61"/>
</g>
<!-- Node19 -->
<g id="node19" class="node">
<title>Node19</title>
<g id="a_node19"><a xlink:title=" ">
<polygon fill="#e0e0e0" stroke="#999999" points="270.5,-19.25 227.5,-19.25 227.5,0 270.5,0 270.5,-19.25"/>
<text text-anchor="middle" x="249" y="-5.75" font-family="Helvetica,sans-Serif" font-size="10.00">mex.h</text>
</a>
</g>
</g>
<!-- Node16&#45;&gt;Node19 -->
<g id="edge23" class="edge">
<title>Node16&#45;&gt;Node19</title>
<path fill="none" stroke="#63b8ff" d="M195.03,-54.84C204.52,-47.07 218.43,-35.67 229.75,-26.4"/>
<polygon fill="#63b8ff" stroke="#63b8ff" points="231.62,-28.57 237.14,-19.52 227.18,-23.15 231.62,-28.57"/>
</g>
<!-- Node20&#45;&gt;Node4 -->
<g id="edge26" class="edge">
<title>Node20&#45;&gt;Node4</title>
<path fill="none" stroke="#63b8ff" d="M383.1,-166.05C425.09,-156.37 494.23,-140.44 537.88,-130.37"/>
<polygon fill="#63b8ff" stroke="#63b8ff" points="538.43,-133.61 547.39,-127.95 536.86,-126.79 538.43,-133.61"/>
</g>
<!-- Node20&#45;&gt;Node5 -->
<g id="edge27" class="edge">
<title>Node20&#45;&gt;Node5</title>
<path fill="none" stroke="#63b8ff" d="M383.03,-166.05C414.86,-158.22 462.26,-145.38 502,-129.75 519.62,-122.82 522.02,-116.43 540,-110.5 621.2,-83.73 722.07,-72.36 772,-68.1"/>
<polygon fill="#63b8ff" stroke="#63b8ff" points="772.03,-71.53 781.71,-67.23 771.46,-64.56 772.03,-71.53"/>
</g>
<!-- Node20&#45;&gt;Node6 -->
<g id="edge28" class="edge">
<title>Node20&#45;&gt;Node6</title>
<path fill="none" stroke="#63b8ff" d="M349.96,-165.43C355.03,-151.48 366.76,-124.69 386,-110.5 428.65,-79.05 491.18,-69.66 529.09,-66.92"/>
<polygon fill="#63b8ff" stroke="#63b8ff" points="529.24,-70.36 539.02,-66.27 528.83,-63.37 529.24,-70.36"/>
</g>
<!-- Node20&#45;&gt;Node13 -->
<g id="edge29" class="edge">
<title>Node20&#45;&gt;Node13</title>
<path fill="none" stroke="#63b8ff" d="M325.63,-165.34C305.53,-156.85 275.22,-144.04 252.38,-134.39"/>
<polygon fill="#63b8ff" stroke="#63b8ff" points="254.05,-130.87 243.48,-130.2 251.33,-137.32 254.05,-130.87"/>
</g>
<!-- Node20&#45;&gt;Node14 -->
<g id="edge25" class="edge">
<title>Node20&#45;&gt;Node14</title>
<path fill="none" stroke="#63b8ff" d="M311.18,-165.46C272.57,-155.85 211.33,-140.62 171.66,-130.74"/>
<polygon fill="#63b8ff" stroke="#63b8ff" points="172.62,-127.13 162.07,-128.11 170.93,-133.92 172.62,-127.13"/>
</g>
<!-- Node20&#45;&gt;Node16 -->
<g id="edge30" class="edge">
<title>Node20&#45;&gt;Node16</title>
<path fill="none" stroke="#63b8ff" d="M337.87,-165.34C324.3,-152.21 297.63,-127.56 272,-110.5 253.88,-98.44 232.07,-87.36 214.7,-79.25"/>
<polygon fill="#63b8ff" stroke="#63b8ff" points="216.59,-75.81 206.04,-74.84 213.68,-82.18 216.59,-75.81"/>
</g>
<!-- Node21&#45;&gt;Node2 -->
<g id="edge34" class="edge">
<title>Node21&#45;&gt;Node2</title>
<path fill="none" stroke="#63b8ff" d="M726.44,-220.59C763.19,-210.95 821.18,-195.74 858.66,-185.91"/>
<polygon fill="#63b8ff" stroke="#63b8ff" points="859.33,-189.09 868.11,-183.17 857.55,-182.32 859.33,-189.09"/>
</g>
<!-- Node21&#45;&gt;Node5 -->
<g id="edge33" class="edge">
<title>Node21&#45;&gt;Node5</title>
<path fill="none" stroke="#63b8ff" d="M701.56,-220.52C710.46,-211.82 723.83,-198.11 734,-185 759.54,-152.09 782.29,-108.77 794.21,-84.47"/>
<polygon fill="#63b8ff" stroke="#63b8ff" points="797.7,-86.28 798.89,-75.75 791.4,-83.24 797.7,-86.28"/>
</g>
<!-- Node22 -->
<g id="node22" class="node">
<title>Node22</title>
<g id="a_node22"><a xlink:href="input__matrices_8h.html" target="_top" xlink:title="Class handling the input matrices that are read in from the input file.">
<polygon fill="white" stroke="#666666" points="725,-185 637,-185 637,-165.75 725,-165.75 725,-185"/>
<text text-anchor="middle" x="681" y="-171.5" font-family="Helvetica,sans-Serif" font-size="10.00">input_matrices.h</text>
</a>
</g>
</g>
<!-- Node21&#45;&gt;Node22 -->
<g id="edge35" class="edge">
<title>Node21&#45;&gt;Node22</title>
<path fill="none" stroke="#63b8ff" d="M690.19,-220.83C688.79,-214.09 686.82,-204.52 685.05,-195.99"/>
<polygon fill="#63b8ff" stroke="#63b8ff" points="688.31,-195.44 682.86,-186.36 681.45,-196.86 688.31,-195.44"/>
</g>
<!-- Node22&#45;&gt;Node5 -->
<g id="edge36" class="edge">
<title>Node22&#45;&gt;Node5</title>
<path fill="none" stroke="#63b8ff" d="M696.2,-165.4C709.87,-157 730.18,-143.68 746,-129.75 762.32,-115.39 778.59,-96.59 789.55,-83.11"/>
<polygon fill="#63b8ff" stroke="#63b8ff" points="792.72,-85.75 796.22,-75.75 787.25,-81.38 792.72,-85.75"/>
</g>
<!-- Node22&#45;&gt;Node16 -->
<g id="edge40" class="edge">
<title>Node22&#45;&gt;Node16</title>
<path fill="none" stroke="#63b8ff" d="M636.61,-169.85C578.53,-163.43 473.79,-150.14 386,-129.75 326.11,-115.84 258.3,-92.86 218.45,-78.58"/>
<polygon fill="#63b8ff" stroke="#63b8ff" points="219.82,-75 209.22,-74.89 217.44,-81.58 219.82,-75"/>
</g>
<!-- Node23 -->
<g id="node23" class="node">
<title>Node23</title>
<g id="a_node23"><a xlink:href="input__output__names_8h.html" target="_top" xlink:title="Constant values associated with the format of the input and output files and matrices.">
<polygon fill="white" stroke="#666666" points="737,-129.75 625,-129.75 625,-110.5 737,-110.5 737,-129.75"/>
<text text-anchor="middle" x="681" y="-116.25" font-family="Helvetica,sans-Serif" font-size="10.00">input_output_names.h</text>
</a>
</g>
</g>
<!-- Node22&#45;&gt;Node23 -->
<g id="edge37" class="edge">
<title>Node22&#45;&gt;Node23</title>
<path fill="none" stroke="#63b8ff" d="M681,-165.58C681,-158.92 681,-149.49 681,-141.03"/>
<polygon fill="#63b8ff" stroke="#63b8ff" points="684.5,-141.11 681,-131.11 677.5,-141.11 684.5,-141.11"/>
</g>
<!-- Node24 -->
<g id="node24" class="node">
<title>Node24</title>
<g id="a_node24"><a xlink:href="matrix__collection_8h.html" target="_top" xlink:title="A collection of named MATLAB matrices.">
<polygon fill="white" stroke="#666666" points="492.88,-129.75 395.13,-129.75 395.13,-110.5 492.88,-110.5 492.88,-129.75"/>
<text text-anchor="middle" x="444" y="-116.25" font-family="Helvetica,sans-Serif" font-size="10.00">matrix_collection.h</text>
</a>
</g>
</g>
<!-- Node22&#45;&gt;Node24 -->
<g id="edge41" class="edge">
<title>Node22&#45;&gt;Node24</title>
<path fill="none" stroke="#63b8ff" d="M640.53,-165.28C600.31,-156.24 538.5,-142.36 494.96,-132.57"/>
<polygon fill="#63b8ff" stroke="#63b8ff" points="495.83,-128.96 485.31,-130.18 494.3,-135.79 495.83,-128.96"/>
</g>
<!-- Node23&#45;&gt;Node5 -->
<g id="edge38" class="edge">
<title>Node23&#45;&gt;Node5</title>
<path fill="none" stroke="#63b8ff" d="M701.7,-110.09C721.18,-101.59 750.6,-88.75 772.72,-79.09"/>
<polygon fill="#63b8ff" stroke="#63b8ff" points="773.85,-81.98 781.61,-74.77 771.05,-75.57 773.85,-81.98"/>
</g>
<!-- Node23&#45;&gt;Node6 -->
<g id="edge39" class="edge">
<title>Node23&#45;&gt;Node6</title>
<path fill="none" stroke="#63b8ff" d="M660.81,-110.09C642.01,-101.68 613.72,-89.02 592.22,-79.4"/>
<polygon fill="#63b8ff" stroke="#63b8ff" points="593.84,-75.84 583.29,-74.95 590.99,-82.23 593.84,-75.84"/>
</g>
<!-- Node24&#45;&gt;Node5 -->
<g id="edge42" class="edge">
<title>Node24&#45;&gt;Node5</title>
<path fill="none" stroke="#63b8ff" d="M493.17,-111.83C568.37,-100.68 709.8,-79.7 772.15,-70.45"/>
<polygon fill="#63b8ff" stroke="#63b8ff" points="772.46,-73.8 781.83,-68.87 771.43,-66.87 772.46,-73.8"/>
</g>
<!-- Node24&#45;&gt;Node6 -->
<g id="edge43" class="edge">
<title>Node24&#45;&gt;Node6</title>
<path fill="none" stroke="#63b8ff" d="M464.02,-110.09C482.67,-101.68 510.72,-89.02 532.03,-79.4"/>
<polygon fill="#63b8ff" stroke="#63b8ff" points="533.21,-82.26 540.89,-74.95 530.33,-75.88 533.21,-82.26"/>
</g>
<!-- Node24&#45;&gt;Node16 -->
<g id="edge44" class="edge">
<title>Node24&#45;&gt;Node16</title>
<path fill="none" stroke="#63b8ff" d="M399.6,-110.03C349.52,-99.77 268.92,-83.27 221.75,-73.61"/>
<polygon fill="#63b8ff" stroke="#63b8ff" points="222.58,-70 212.08,-71.42 221.18,-76.86 222.58,-70"/>
</g>
<!-- Node25&#45;&gt;Node16 -->
<g id="edge46" class="edge">
<title>Node25&#45;&gt;Node16</title>
<path fill="none" stroke="#63b8ff" d="M91.27,-279.4C68.1,-273.8 39.6,-262.57 25,-240.25 -6.56,-191.99 -9.83,-156.46 25,-110.5 39.59,-91.26 103.82,-78.02 146.05,-71.21"/>
<polygon fill="#63b8ff" stroke="#63b8ff" points="146.45,-74.54 155.79,-69.54 145.37,-67.62 146.45,-74.54"/>
</g>
</g>
</svg>
