<?xml version="1.0" encoding="UTF-8" standalone="no"?>
<!DOCTYPE svg PUBLIC "-//W3C//DTD SVG 1.1//EN"
 "http://www.w3.org/Graphics/SVG/1.1/DTD/svg11.dtd">
<!-- Generated by graphviz version 8.0.5 (20230430.1635)
 -->
<!-- Title: tdms/include/surface_phasors.h Pages: 1 -->
<svg width="1130pt" height="370pt"
 viewBox="0.00 0.00 1129.63 370.00" xmlns="http://www.w3.org/2000/svg" xmlns:xlink="http://www.w3.org/1999/xlink">
<g id="graph0" class="graph" transform="scale(1 1) rotate(0) translate(4 366)">
<title>tdms/include/surface_phasors.h</title>
<!-- Node1 -->
<g id="node1" class="node">
<title>Node1</title>
<g id="a_node1"><a xlink:title="Contains a class that handles the complex amplitude extraction.">
<polygon fill="#999999" stroke="#666666" points="367.63,-362 260.88,-362 260.88,-331.5 367.63,-331.5 367.63,-362"/>
<text text-anchor="start" x="268.88" y="-348.5" font-family="Helvetica,sans-Serif" font-size="10.00">tdms/include/surface</text>
<text text-anchor="middle" x="314.25" y="-337.25" font-family="Helvetica,sans-Serif" font-size="10.00">_phasors.h</text>
</a>
</g>
</g>
<!-- Node2 -->
<g id="node2" class="node">
<title>Node2</title>
<g id="a_node2"><a xlink:href="arrays_8h.html" target="_top" xlink:title="Classes describing arrays, vertices etc.">
<polygon fill="white" stroke="#666666" points="880.88,-185 829.63,-185 829.63,-165.75 880.88,-165.75 880.88,-185"/>
<text text-anchor="middle" x="855.25" y="-171.5" font-family="Helvetica,sans-Serif" font-size="10.00">arrays.h</text>
</a>
</g>
</g>
<!-- Node1&#45;&gt;Node2 -->
<g id="edge1" class="edge">
<title>Node1&#45;&gt;Node2</title>
<path fill="none" stroke="#63b8ff" d="M368.12,-333.18C443.14,-315.18 582.96,-279.83 699.25,-240.25 744.06,-225 794.51,-203.53 825.59,-189.78"/>
<polygon fill="#63b8ff" stroke="#63b8ff" points="826.64,-192.7 834.36,-185.43 823.8,-186.3 826.64,-192.7"/>
</g>
<!-- Node13 -->
<g id="node13" class="node">
<title>Node13</title>
<g id="a_node13"><a xlink:href="field_8h.html" target="_top" xlink:title="Classes for the electric and magnetic (split) fields on a grid.">
<polygon fill="white" stroke="#666666" points="335.38,-295.5 293.13,-295.5 293.13,-276.25 335.38,-276.25 335.38,-295.5"/>
<text text-anchor="middle" x="314.25" y="-282" font-family="Helvetica,sans-Serif" font-size="10.00">field.h</text>
</a>
</g>
</g>
<!-- Node1&#45;&gt;Node13 -->
<g id="edge16" class="edge">
<title>Node1&#45;&gt;Node13</title>
<path fill="none" stroke="#63b8ff" d="M314.25,-331.2C314.25,-323.87 314.25,-314.87 314.25,-306.91"/>
<polygon fill="#63b8ff" stroke="#63b8ff" points="317.75,-306.95 314.25,-296.95 310.75,-306.95 317.75,-306.95"/>
</g>
<!-- Node29 -->
<g id="node29" class="node">
<title>Node29</title>
<g id="a_node29"><a xlink:href="grid__labels_8h.html" target="_top" xlink:title="Class to hold the labels of a Yee cell.">
<polygon fill="white" stroke="#666666" points="148.63,-295.5 77.88,-295.5 77.88,-276.25 148.63,-276.25 148.63,-295.5"/>
<text text-anchor="middle" x="113.25" y="-282" font-family="Helvetica,sans-Serif" font-size="10.00">grid_labels.h</text>
</a>
</g>
</g>
<!-- Node1&#45;&gt;Node29 -->
<g id="edge51" class="edge">
<title>Node1&#45;&gt;Node29</title>
<path fill="none" stroke="#63b8ff" d="M264.05,-331.05C230.31,-321.16 186.37,-308.29 154.64,-299"/>
<polygon fill="#63b8ff" stroke="#63b8ff" points="155.96,-295.44 145.38,-295.99 153.99,-302.16 155.96,-295.44"/>
</g>
<!-- Node3 -->
<g id="node3" class="node">
<title>Node3</title>
<g id="a_node3"><a xlink:title=" ">
<polygon fill="#e0e0e0" stroke="#999999" points="1121.63,-74.5 1068.88,-74.5 1068.88,-55.25 1121.63,-55.25 1121.63,-74.5"/>
<text text-anchor="middle" x="1095.25" y="-61" font-family="Helvetica,sans-Serif" font-size="10.00">complex</text>
</a>
</g>
</g>
<!-- Node2&#45;&gt;Node3 -->
<g id="edge2" class="edge">
<title>Node2&#45;&gt;Node3</title>
<path fill="none" stroke="#63b8ff" d="M881.32,-172.43C933.43,-168.04 1047.94,-155.63 1076.25,-129.75 1088.53,-118.53 1093.01,-99.77 1094.58,-85.48"/>
<polygon fill="#63b8ff" stroke="#63b8ff" points="1098.12,-86 1095.32,-75.78 1091.14,-85.52 1098.12,-86"/>
</g>
<!-- Node4 -->
<g id="node4" class="node">
<title>Node4</title>
<g id="a_node4"><a xlink:title=" ">
<polygon fill="#e0e0e0" stroke="#999999" points="474.63,-74.5 415.88,-74.5 415.88,-55.25 474.63,-55.25 474.63,-74.5"/>
<text text-anchor="middle" x="445.25" y="-61" font-family="Helvetica,sans-Serif" font-size="10.00">stdexcept</text>
</a>
</g>
</g>
<!-- Node2&#45;&gt;Node4 -->
<g id="edge3" class="edge">
<title>Node2&#45;&gt;Node4</title>
<path fill="none" stroke="#63b8ff" d="M829.13,-172.94C759.71,-168.8 572.12,-155.49 516.25,-129.75 493.06,-119.06 472.07,-98.11 459.03,-83.12"/>
<polygon fill="#63b8ff" stroke="#63b8ff" points="461.09,-81.12 451.99,-75.7 455.72,-85.61 461.09,-81.12"/>
</g>
<!-- Node5 -->
<g id="node5" class="node">
<title>Node5</title>
<g id="a_node5"><a xlink:title=" ">
<polygon fill="#e0e0e0" stroke="#999999" points="783.25,-74.5 743.25,-74.5 743.25,-55.25 783.25,-55.25 783.25,-74.5"/>
<text text-anchor="middle" x="763.25" y="-61" font-family="Helvetica,sans-Serif" font-size="10.00">string</text>
</a>
</g>
</g>
<!-- Node2&#45;&gt;Node5 -->
<g id="edge4" class="edge">
<title>Node2&#45;&gt;Node5</title>
<path fill="none" stroke="#63b8ff" d="M881.29,-169.73C921.05,-161.52 989.72,-142.23 964.25,-110.5 943.3,-84.39 845.38,-72.59 794.36,-68.15"/>
<polygon fill="#63b8ff" stroke="#63b8ff" points="794.89,-64.6 784.64,-67.26 794.32,-71.57 794.89,-64.6"/>
</g>
<!-- Node6 -->
<g id="node6" class="node">
<title>Node6</title>
<g id="a_node6"><a xlink:title=" ">
<polygon fill="#e0e0e0" stroke="#999999" points="602.75,-74.5 559.75,-74.5 559.75,-55.25 602.75,-55.25 602.75,-74.5"/>
<text text-anchor="middle" x="581.25" y="-61" font-family="Helvetica,sans-Serif" font-size="10.00">vector</text>
</a>
</g>
</g>
<!-- Node2&#45;&gt;Node6 -->
<g id="edge5" class="edge">
<title>Node2&#45;&gt;Node6</title>
<path fill="none" stroke="#63b8ff" d="M829.26,-170.1C795.04,-163.92 733.46,-150.85 684.25,-129.75 653.84,-116.71 621.92,-95.58 601.83,-81.23"/>
<polygon fill="#63b8ff" stroke="#63b8ff" points="604.12,-77.84 593.97,-74.79 600,-83.5 604.12,-77.84"/>
</g>
<!-- Node7 -->
<g id="node7" class="node">
<title>Node7</title>
<g id="a_node7"><a xlink:title=" ">
<polygon fill="#e0e0e0" stroke="#999999" points="875.25,-129.75 829.25,-129.75 829.25,-110.5 875.25,-110.5 875.25,-129.75"/>
<text text-anchor="middle" x="852.25" y="-116.25" font-family="Helvetica,sans-Serif" font-size="10.00">fftw3.h</text>
</a>
</g>
</g>
<!-- Node2&#45;&gt;Node7 -->
<g id="edge6" class="edge">
<title>Node2&#45;&gt;Node7</title>
<path fill="none" stroke="#63b8ff" d="M854.76,-165.58C854.38,-158.92 853.85,-149.49 853.38,-141.03"/>
<polygon fill="#63b8ff" stroke="#63b8ff" points="856.82,-140.9 852.76,-131.11 849.83,-141.29 856.82,-140.9"/>
</g>
<!-- Node8 -->
<g id="node8" class="node">
<title>Node8</title>
<g id="a_node8"><a xlink:href="globals_8h.html" target="_top" xlink:title="Type definitions and global constants.">
<polygon fill="white" stroke="#666666" points="1066.75,-129.75 1011.75,-129.75 1011.75,-110.5 1066.75,-110.5 1066.75,-129.75"/>
<text text-anchor="middle" x="1039.25" y="-116.25" font-family="Helvetica,sans-Serif" font-size="10.00">globals.h</text>
</a>
</g>
</g>
<!-- Node2&#45;&gt;Node8 -->
<g id="edge7" class="edge">
<title>Node2&#45;&gt;Node8</title>
<path fill="none" stroke="#63b8ff" d="M881.23,-166.86C912.38,-157.84 964.88,-142.65 1000.75,-132.27"/>
<polygon fill="#63b8ff" stroke="#63b8ff" points="1001.67,-135.36 1010.31,-129.21 999.73,-128.63 1001.67,-135.36"/>
</g>
<!-- Node9 -->
<g id="node9" class="node">
<title>Node9</title>
<g id="a_node9"><a xlink:title=" ">
<polygon fill="#e0e0e0" stroke="#999999" points="954.75,-129.75 893.75,-129.75 893.75,-110.5 954.75,-110.5 954.75,-129.75"/>
<text text-anchor="middle" x="924.25" y="-116.25" font-family="Helvetica,sans-Serif" font-size="10.00">matlabio.h</text>
</a>
</g>
</g>
<!-- Node2&#45;&gt;Node9 -->
<g id="edge10" class="edge">
<title>Node2&#45;&gt;Node9</title>
<path fill="none" stroke="#63b8ff" d="M866.96,-165.34C877.13,-157.49 892.09,-145.95 904.17,-136.62"/>
<polygon fill="#63b8ff" stroke="#63b8ff" points="905.94,-138.91 911.72,-130.02 901.67,-133.36 905.94,-138.91"/>
</g>
<!-- Node10 -->
<g id="node10" class="node">
<title>Node10</title>
<g id="a_node10"><a xlink:href="utils_8h.html" target="_top" xlink:title="Useful miscellaneous utility functions.">
<polygon fill="white" stroke="#666666" points="735.38,-129.75 693.13,-129.75 693.13,-110.5 735.38,-110.5 735.38,-129.75"/>
<text text-anchor="middle" x="714.25" y="-116.25" font-family="Helvetica,sans-Serif" font-size="10.00">utils.h</text>
</a>
</g>
</g>
<!-- Node2&#45;&gt;Node10 -->
<g id="edge11" class="edge">
<title>Node2&#45;&gt;Node10</title>
<path fill="none" stroke="#63b8ff" d="M831.34,-165.34C807.72,-156.42 771.48,-142.74 745.58,-132.95"/>
<polygon fill="#63b8ff" stroke="#63b8ff" points="747.11,-129.41 736.52,-129.16 744.64,-135.96 747.11,-129.41"/>
</g>
<!-- Node8&#45;&gt;Node3 -->
<g id="edge8" class="edge">
<title>Node8&#45;&gt;Node3</title>
<path fill="none" stroke="#63b8ff" d="M1048.75,-110.09C1056.77,-102.47 1068.44,-91.37 1078.08,-82.2"/>
<polygon fill="#63b8ff" stroke="#63b8ff" points="1080.06,-85.2 1084.89,-75.77 1075.24,-80.13 1080.06,-85.2"/>
</g>
<!-- Node8&#45;&gt;Node5 -->
<g id="edge9" class="edge">
<title>Node8&#45;&gt;Node5</title>
<path fill="none" stroke="#63b8ff" d="M1011.7,-113.41C1006.89,-112.43 1001.93,-111.43 997.25,-110.5 924.67,-96.13 839.24,-80.05 794.38,-71.67"/>
<polygon fill="#63b8ff" stroke="#63b8ff" points="795.09,-68.05 784.62,-69.66 793.81,-74.93 795.09,-68.05"/>
</g>
<!-- Node10&#45;&gt;Node5 -->
<g id="edge14" class="edge">
<title>Node10&#45;&gt;Node5</title>
<path fill="none" stroke="#63b8ff" d="M722.35,-110.33C729.18,-102.9 739.18,-92.04 747.58,-82.91"/>
<polygon fill="#63b8ff" stroke="#63b8ff" points="749.79,-85.59 753.99,-75.86 744.64,-80.85 749.79,-85.59"/>
</g>
<!-- Node10&#45;&gt;Node6 -->
<g id="edge15" class="edge">
<title>Node10&#45;&gt;Node6</title>
<path fill="none" stroke="#63b8ff" d="M692.89,-110.57C671.3,-101.93 637.69,-88.47 612.99,-78.58"/>
<polygon fill="#63b8ff" stroke="#63b8ff" points="614.6,-75.05 604.01,-74.59 611.99,-81.55 614.6,-75.05"/>
</g>
<!-- Node11 -->
<g id="node11" class="node">
<title>Node11</title>
<g id="a_node11"><a xlink:title=" ">
<polygon fill="#e0e0e0" stroke="#999999" points="345.13,-74.5 289.38,-74.5 289.38,-55.25 345.13,-55.25 345.13,-74.5"/>
<text text-anchor="middle" x="317.25" y="-61" font-family="Helvetica,sans-Serif" font-size="10.00">algorithm</text>
</a>
</g>
</g>
<!-- Node10&#45;&gt;Node11 -->
<g id="edge12" class="edge">
<title>Node10&#45;&gt;Node11</title>
<path fill="none" stroke="#63b8ff" d="M692.91,-116.26C629.01,-107.69 438.56,-82.15 356.07,-71.08"/>
<polygon fill="#63b8ff" stroke="#63b8ff" points="356.77,-67.51 346.4,-69.65 355.84,-74.45 356.77,-67.51"/>
</g>
<!-- Node12 -->
<g id="node12" class="node">
<title>Node12</title>
<g id="a_node12"><a xlink:title=" ">
<polygon fill="#e0e0e0" stroke="#999999" points="725.25,-74.5 679.25,-74.5 679.25,-55.25 725.25,-55.25 725.25,-74.5"/>
<text text-anchor="middle" x="702.25" y="-61" font-family="Helvetica,sans-Serif" font-size="10.00">iterator</text>
</a>
</g>
</g>
<!-- Node10&#45;&gt;Node12 -->
<g id="edge13" class="edge">
<title>Node10&#45;&gt;Node12</title>
<path fill="none" stroke="#63b8ff" d="M712.27,-110.33C710.75,-103.59 708.6,-94.02 706.67,-85.49"/>
<polygon fill="#63b8ff" stroke="#63b8ff" points="709.89,-84.85 704.28,-75.86 703.06,-86.38 709.89,-84.85"/>
</g>
<!-- Node13&#45;&gt;Node2 -->
<g id="edge18" class="edge">
<title>Node13&#45;&gt;Node2</title>
<path fill="none" stroke="#63b8ff" d="M335.77,-283.32C389.5,-279.14 533.7,-266.24 651.25,-240.25 712,-226.82 780.66,-203.59 820.83,-189.15"/>
<polygon fill="#63b8ff" stroke="#63b8ff" points="821.92,-192.12 830.13,-185.42 819.53,-185.54 821.92,-192.12"/>
</g>
<!-- Node13&#45;&gt;Node3 -->
<g id="edge17" class="edge">
<title>Node13&#45;&gt;Node3</title>
<path fill="none" stroke="#63b8ff" d="M335.72,-283.57C394.4,-279.74 562.24,-267.09 699.25,-240.25 878.99,-205.04 985.46,-275.59 1096.25,-129.75 1105.79,-117.19 1104.43,-98.88 1101.33,-85.08"/>
<polygon fill="#63b8ff" stroke="#63b8ff" points="1104.52,-84.5 1098.52,-75.77 1097.77,-86.34 1104.52,-84.5"/>
</g>
<!-- Node14 -->
<g id="node14" class="node">
<title>Node14</title>
<g id="a_node14"><a xlink:title=" ">
<polygon fill="#e0e0e0" stroke="#999999" points="138.13,-240.25 52.38,-240.25 52.38,-221 138.13,-221 138.13,-240.25"/>
<text text-anchor="middle" x="95.25" y="-226.75" font-family="Helvetica,sans-Serif" font-size="10.00">arrays/eh_vec.h</text>
</a>
</g>
</g>
<!-- Node13&#45;&gt;Node14 -->
<g id="edge19" class="edge">
<title>Node13&#45;&gt;Node14</title>
<path fill="none" stroke="#63b8ff" d="M292.86,-279.67C258.41,-271.3 189.81,-254.62 143.22,-243.29"/>
<polygon fill="#63b8ff" stroke="#63b8ff" points="144.3,-239.71 133.76,-240.74 142.65,-246.51 144.3,-239.71"/>
</g>
<!-- Node15 -->
<g id="node15" class="node">
<title>Node15</title>
<g id="a_node15"><a xlink:title=" ">
<polygon fill="#e0e0e0" stroke="#999999" points="248.13,-240.25 156.38,-240.25 156.38,-221 248.13,-221 248.13,-240.25"/>
<text text-anchor="middle" x="202.25" y="-226.75" font-family="Helvetica,sans-Serif" font-size="10.00">arrays/tensor3d.h</text>
</a>
</g>
</g>
<!-- Node13&#45;&gt;Node15 -->
<g id="edge20" class="edge">
<title>Node13&#45;&gt;Node15</title>
<path fill="none" stroke="#63b8ff" d="M295.25,-275.84C277.72,-267.5 251.41,-255 231.25,-245.41"/>
<polygon fill="#63b8ff" stroke="#63b8ff" points="232.88,-241.84 222.35,-240.7 229.87,-248.16 232.88,-241.84"/>
</g>
<!-- Node16 -->
<g id="node16" class="node">
<title>Node16</title>
<g id="a_node16"><a xlink:href="cell__coordinate_8h.html" target="_top" xlink:title="Container for {ijk} or {IJK} grouped variables.">
<polygon fill="white" stroke="#666666" points="149,-129.75 59.5,-129.75 59.5,-110.5 149,-110.5 149,-129.75"/>
<text text-anchor="middle" x="104.25" y="-116.25" font-family="Helvetica,sans-Serif" font-size="10.00">cell_coordinate.h</text>
</a>
</g>
</g>
<!-- Node13&#45;&gt;Node16 -->
<g id="edge21" class="edge">
<title>Node13&#45;&gt;Node16</title>
<path fill="none" stroke="#63b8ff" d="M292.63,-284.74C234.19,-283.89 75.34,-278.06 43.25,-240.25 15.85,-207.96 58.39,-161.26 85.17,-137.04"/>
<polygon fill="#63b8ff" stroke="#63b8ff" points="86.98,-139.23 92.2,-130.01 82.37,-133.96 86.98,-139.23"/>
</g>
<!-- Node18 -->
<g id="node18" class="node">
<title>Node18</title>
<g id="a_node18"><a xlink:href="dimensions_8h.html" target="_top" xlink:title="Defines a class that serves as an explicit converter between MATLAB pointers and array dimensions.">
<polygon fill="white" stroke="#666666" points="294.13,-185 220.38,-185 220.38,-165.75 294.13,-165.75 294.13,-185"/>
<text text-anchor="middle" x="257.25" y="-171.5" font-family="Helvetica,sans-Serif" font-size="10.00">dimensions.h</text>
</a>
</g>
</g>
<!-- Node13&#45;&gt;Node18 -->
<g id="edge24" class="edge">
<title>Node13&#45;&gt;Node18</title>
<path fill="none" stroke="#63b8ff" d="M311.73,-275.86C308,-263.17 300.33,-239.52 290.25,-221 285.09,-211.51 278.12,-201.77 271.92,-193.82"/>
<polygon fill="#63b8ff" stroke="#63b8ff" points="274.15,-192.01 265.14,-186.44 268.7,-196.42 274.15,-192.01"/>
</g>
<!-- Node19 -->
<g id="node19" class="node">
<title>Node19</title>
<g id="a_node19"><a xlink:href="mat__io_8h.html" target="_top" xlink:title="Includes MATLAB headers for I/O.">
<polygon fill="white" stroke="#666666" points="256,-74.5 202.5,-74.5 202.5,-55.25 256,-55.25 256,-74.5"/>
<text text-anchor="middle" x="229.25" y="-61" font-family="Helvetica,sans-Serif" font-size="10.00">mat_io.h</text>
</a>
</g>
</g>
<!-- Node13&#45;&gt;Node19 -->
<g id="edge36" class="edge">
<title>Node13&#45;&gt;Node19</title>
<path fill="none" stroke="#63b8ff" d="M307.33,-276.17C297.02,-263.44 276.77,-239.3 257.25,-221 238.31,-203.24 222.62,-208.34 211.25,-185 195.29,-152.23 209.41,-108.86 220.05,-84.51"/>
<polygon fill="#63b8ff" stroke="#63b8ff" points="223.53,-86.32 224.57,-75.77 217.18,-83.37 223.53,-86.32"/>
</g>
<!-- Node23 -->
<g id="node23" class="node">
<title>Node23</title>
<g id="a_node23"><a xlink:href="input__flags_8h.html" target="_top" xlink:title="Organises enumerated constants, names, and classes for handling flag&#45;variables that are passed to TDM...">
<polygon fill="white" stroke="#666666" points="353,-129.75 281.5,-129.75 281.5,-110.5 353,-110.5 353,-129.75"/>
<text text-anchor="middle" x="317.25" y="-116.25" font-family="Helvetica,sans-Serif" font-size="10.00">input_flags.h</text>
</a>
</g>
</g>
<!-- Node13&#45;&gt;Node23 -->
<g id="edge29" class="edge">
<title>Node13&#45;&gt;Node23</title>
<path fill="none" stroke="#63b8ff" d="M314.42,-276.07C314.88,-250.64 316.24,-176.6 316.89,-140.87"/>
<polygon fill="#63b8ff" stroke="#63b8ff" points="320.41,-141.03 317.09,-130.97 313.41,-140.91 320.41,-141.03"/>
</g>
<!-- Node24 -->
<g id="node24" class="node">
<title>Node24</title>
<g id="a_node24"><a xlink:href="simulation__parameters_8h.html" target="_top" xlink:title="Classes collecting parameters for the simulation.">
<polygon fill="white" stroke="#666666" points="642.5,-240.25 520,-240.25 520,-221 642.5,-221 642.5,-240.25"/>
<text text-anchor="middle" x="581.25" y="-226.75" font-family="Helvetica,sans-Serif" font-size="10.00">simulation_parameters.h</text>
</a>
</g>
</g>
<!-- Node13&#45;&gt;Node24 -->
<g id="edge37" class="edge">
<title>Node13&#45;&gt;Node24</title>
<path fill="none" stroke="#63b8ff" d="M335.65,-280.61C376.31,-272.5 465.92,-254.63 524.92,-242.86"/>
<polygon fill="#63b8ff" stroke="#63b8ff" points="525.44,-246.13 534.56,-240.74 524.07,-239.26 525.44,-246.13"/>
</g>
<!-- Node16&#45;&gt;Node11 -->
<g id="edge23" class="edge">
<title>Node16&#45;&gt;Node11</title>
<path fill="none" stroke="#63b8ff" d="M140.39,-110.09C178.79,-100.49 239.3,-85.36 278.63,-75.53"/>
<polygon fill="#63b8ff" stroke="#63b8ff" points="279.27,-78.73 288.12,-72.91 277.57,-71.94 279.27,-78.73"/>
</g>
<!-- Node17 -->
<g id="node17" class="node">
<title>Node17</title>
<g id="a_node17"><a xlink:title=" ">
<polygon fill="#e0e0e0" stroke="#999999" points="172.38,-74.5 88.13,-74.5 88.13,-55.25 172.38,-55.25 172.38,-74.5"/>
<text text-anchor="middle" x="130.25" y="-61" font-family="Helvetica,sans-Serif" font-size="10.00">spdlog/spdlog.h</text>
</a>
</g>
</g>
<!-- Node16&#45;&gt;Node17 -->
<g id="edge22" class="edge">
<title>Node16&#45;&gt;Node17</title>
<path fill="none" stroke="#63b8ff" d="M108.55,-110.33C111.95,-103.36 116.83,-93.37 121.1,-84.62"/>
<polygon fill="#63b8ff" stroke="#63b8ff" points="124.62,-86.38 125.87,-75.86 118.33,-83.31 124.62,-86.38"/>
</g>
<!-- Node18&#45;&gt;Node19 -->
<g id="edge25" class="edge">
<title>Node18&#45;&gt;Node19</title>
<path fill="none" stroke="#63b8ff" d="M252.9,-165.36C248.8,-156.49 242.77,-142.47 239.25,-129.75 235.22,-115.16 232.67,-98.21 231.15,-85.44"/>
<polygon fill="#63b8ff" stroke="#63b8ff" points="234.54,-85.26 229.99,-75.69 227.58,-86 234.54,-85.26"/>
</g>
<!-- Node20 -->
<g id="node20" class="node">
<title>Node20</title>
<g id="a_node20"><a xlink:title=" ">
<polygon fill="#e0e0e0" stroke="#999999" points="185.63,-19.25 144.88,-19.25 144.88,0 185.63,0 185.63,-19.25"/>
<text text-anchor="middle" x="165.25" y="-5.75" font-family="Helvetica,sans-Serif" font-size="10.00">mat.h</text>
</a>
</g>
</g>
<!-- Node19&#45;&gt;Node20 -->
<g id="edge26" class="edge">
<title>Node19&#45;&gt;Node20</title>
<path fill="none" stroke="#63b8ff" d="M218.4,-54.84C209.05,-47.07 195.36,-35.67 184.21,-26.4"/>
<polygon fill="#63b8ff" stroke="#63b8ff" points="186.88,-23.23 176.95,-19.52 182.4,-28.61 186.88,-23.23"/>
</g>
<!-- Node21 -->
<g id="node21" class="node">
<title>Node21</title>
<g id="a_node21"><a xlink:title=" ">
<polygon fill="#e0e0e0" stroke="#999999" points="254.88,-19.25 203.63,-19.25 203.63,0 254.88,0 254.88,-19.25"/>
<text text-anchor="middle" x="229.25" y="-5.75" font-family="Helvetica,sans-Serif" font-size="10.00">matrix.h</text>
</a>
</g>
</g>
<!-- Node19&#45;&gt;Node21 -->
<g id="edge27" class="edge">
<title>Node19&#45;&gt;Node21</title>
<path fill="none" stroke="#63b8ff" d="M229.25,-55.08C229.25,-48.42 229.25,-38.99 229.25,-30.53"/>
<polygon fill="#63b8ff" stroke="#63b8ff" points="232.75,-30.61 229.25,-20.61 225.75,-30.61 232.75,-30.61"/>
</g>
<!-- Node22 -->
<g id="node22" class="node">
<title>Node22</title>
<g id="a_node22"><a xlink:title=" ">
<polygon fill="#e0e0e0" stroke="#999999" points="315.75,-19.25 272.75,-19.25 272.75,0 315.75,0 315.75,-19.25"/>
<text text-anchor="middle" x="294.25" y="-5.75" font-family="Helvetica,sans-Serif" font-size="10.00">mex.h</text>
</a>
</g>
</g>
<!-- Node19&#45;&gt;Node22 -->
<g id="edge28" class="edge">
<title>Node19&#45;&gt;Node22</title>
<path fill="none" stroke="#63b8ff" d="M240.28,-54.84C249.77,-47.07 263.68,-35.67 275,-26.4"/>
<polygon fill="#63b8ff" stroke="#63b8ff" points="276.87,-28.57 282.39,-19.52 272.44,-23.15 276.87,-28.57"/>
</g>
<!-- Node23&#45;&gt;Node4 -->
<g id="edge31" class="edge">
<title>Node23&#45;&gt;Node4</title>
<path fill="none" stroke="#63b8ff" d="M338.97,-110.09C359.38,-101.6 390.18,-88.79 413.38,-79.14"/>
<polygon fill="#63b8ff" stroke="#63b8ff" points="414.55,-82.03 422.43,-74.95 411.86,-75.56 414.55,-82.03"/>
</g>
<!-- Node23&#45;&gt;Node5 -->
<g id="edge32" class="edge">
<title>Node23&#45;&gt;Node5</title>
<path fill="none" stroke="#63b8ff" d="M353.06,-111.95C356.17,-111.42 359.26,-110.93 362.25,-110.5 523.29,-87.33 569.35,-105.54 732.38,-74.51"/>
<polygon fill="#63b8ff" stroke="#63b8ff" points="732.63,-77.83 741.78,-72.5 731.3,-70.96 732.63,-77.83"/>
</g>
<!-- Node23&#45;&gt;Node6 -->
<g id="edge33" class="edge">
<title>Node23&#45;&gt;Node6</title>
<path fill="none" stroke="#63b8ff" d="M353.41,-111.83C405.03,-101.42 499.07,-82.45 548.66,-72.45"/>
<polygon fill="#63b8ff" stroke="#63b8ff" points="549.28,-75.69 558.39,-70.28 547.9,-68.83 549.28,-75.69"/>
</g>
<!-- Node23&#45;&gt;Node11 -->
<g id="edge30" class="edge">
<title>Node23&#45;&gt;Node11</title>
<path fill="none" stroke="#63b8ff" d="M317.25,-110.33C317.25,-103.67 317.25,-94.24 317.25,-85.78"/>
<polygon fill="#63b8ff" stroke="#63b8ff" points="320.75,-85.86 317.25,-75.86 313.75,-85.86 320.75,-85.86"/>
</g>
<!-- Node23&#45;&gt;Node17 -->
<g id="edge34" class="edge">
<title>Node23&#45;&gt;Node17</title>
<path fill="none" stroke="#63b8ff" d="M285.53,-110.09C254.37,-101.22 206.63,-87.62 172.32,-77.85"/>
<polygon fill="#63b8ff" stroke="#63b8ff" points="173.71,-74.33 163.13,-74.95 171.79,-81.06 173.71,-74.33"/>
</g>
<!-- Node23&#45;&gt;Node19 -->
<g id="edge35" class="edge">
<title>Node23&#45;&gt;Node19</title>
<path fill="none" stroke="#63b8ff" d="M302.33,-110.09C288.93,-101.98 269.01,-89.93 253.36,-80.46"/>
<polygon fill="#63b8ff" stroke="#63b8ff" points="255.62,-77.14 245.26,-74.95 252,-83.12 255.62,-77.14"/>
</g>
<!-- Node24&#45;&gt;Node2 -->
<g id="edge39" class="edge">
<title>Node24&#45;&gt;Node2</title>
<path fill="none" stroke="#63b8ff" d="M630.62,-220.56C678.03,-211.78 751.62,-197.93 815.25,-185 816.4,-184.77 817.57,-184.53 818.75,-184.28"/>
<polygon fill="#63b8ff" stroke="#63b8ff" points="819.39,-187.52 828.45,-182.03 817.95,-180.67 819.39,-187.52"/>
</g>
<!-- Node24&#45;&gt;Node5 -->
<g id="edge38" class="edge">
<title>Node24&#45;&gt;Node5</title>
<path fill="none" stroke="#63b8ff" d="M620.83,-220.59C664.49,-208.27 732.59,-181.55 763.25,-129.75 771.12,-116.46 770.43,-98.74 768.16,-85.33"/>
<polygon fill="#63b8ff" stroke="#63b8ff" points="771.44,-84.93 765.94,-75.88 764.6,-86.39 771.44,-84.93"/>
</g>
<!-- Node25 -->
<g id="node25" class="node">
<title>Node25</title>
<g id="a_node25"><a xlink:title=" ">
<polygon fill="#e0e0e0" stroke="#999999" points="519.25,-185 395.25,-185 395.25,-165.75 519.25,-165.75 519.25,-185"/>
<text text-anchor="middle" x="457.25" y="-171.5" font-family="Helvetica,sans-Serif" font-size="10.00">arrays/vector_typedefs.h</text>
</a>
</g>
</g>
<!-- Node24&#45;&gt;Node25 -->
<g id="edge40" class="edge">
<title>Node24&#45;&gt;Node25</title>
<path fill="none" stroke="#63b8ff" d="M560.22,-220.59C540.53,-212.14 510.88,-199.4 488.44,-189.77"/>
<polygon fill="#63b8ff" stroke="#63b8ff" points="489.96,-186.18 479.39,-185.45 487.2,-192.61 489.96,-186.18"/>
</g>
<!-- Node26 -->
<g id="node26" class="node">
<title>Node26</title>
<g id="a_node26"><a xlink:href="input__matrices_8h.html" target="_top" xlink:title="Class handling the input matrices that are read in from the input file.">
<polygon fill="white" stroke="#666666" points="625.25,-185 537.25,-185 537.25,-165.75 625.25,-165.75 625.25,-185"/>
<text text-anchor="middle" x="581.25" y="-171.5" font-family="Helvetica,sans-Serif" font-size="10.00">input_matrices.h</text>
</a>
</g>
</g>
<!-- Node24&#45;&gt;Node26 -->
<g id="edge41" class="edge">
<title>Node24&#45;&gt;Node26</title>
<path fill="none" stroke="#63b8ff" d="M581.25,-220.83C581.25,-214.17 581.25,-204.74 581.25,-196.28"/>
<polygon fill="#63b8ff" stroke="#63b8ff" points="584.75,-196.36 581.25,-186.36 577.75,-196.36 584.75,-196.36"/>
</g>
<!-- Node26&#45;&gt;Node5 -->
<g id="edge42" class="edge">
<title>Node26&#45;&gt;Node5</title>
<path fill="none" stroke="#63b8ff" d="M625.4,-173.62C661.9,-170.62 712.69,-160.63 744.25,-129.75 756.14,-118.12 760.67,-99.41 762.36,-85.24"/>
<polygon fill="#63b8ff" stroke="#63b8ff" points="765.89,-85.91 763.2,-75.66 758.92,-85.35 765.89,-85.91"/>
</g>
<!-- Node26&#45;&gt;Node19 -->
<g id="edge46" class="edge">
<title>Node26&#45;&gt;Node19</title>
<path fill="none" stroke="#63b8ff" d="M537.02,-167.1C534.05,-166.64 531.11,-166.18 528.25,-165.75 414.66,-148.52 369.66,-190.68 272.25,-129.75 255.46,-119.24 243.69,-99.49 236.77,-84.72"/>
<polygon fill="#63b8ff" stroke="#63b8ff" points="239.59,-83.43 232.41,-75.63 233.16,-86.2 239.59,-83.43"/>
</g>
<!-- Node27 -->
<g id="node27" class="node">
<title>Node27</title>
<g id="a_node27"><a xlink:href="input__output__names_8h.html" target="_top" xlink:title="Constant values associated with the format of the input and output files and matrices.">
<polygon fill="white" stroke="#666666" points="637.25,-129.75 525.25,-129.75 525.25,-110.5 637.25,-110.5 637.25,-129.75"/>
<text text-anchor="middle" x="581.25" y="-116.25" font-family="Helvetica,sans-Serif" font-size="10.00">input_output_names.h</text>
</a>
</g>
</g>
<!-- Node26&#45;&gt;Node27 -->
<g id="edge43" class="edge">
<title>Node26&#45;&gt;Node27</title>
<path fill="none" stroke="#63b8ff" d="M581.25,-165.58C581.25,-158.92 581.25,-149.49 581.25,-141.03"/>
<polygon fill="#63b8ff" stroke="#63b8ff" points="584.75,-141.11 581.25,-131.11 577.75,-141.11 584.75,-141.11"/>
</g>
<!-- Node28 -->
<g id="node28" class="node">
<title>Node28</title>
<g id="a_node28"><a xlink:href="matrix__collection_8h.html" target="_top" xlink:title="A collection of named MATLAB matrices.">
<polygon fill="white" stroke="#666666" points="469.13,-129.75 371.38,-129.75 371.38,-110.5 469.13,-110.5 469.13,-129.75"/>
<text text-anchor="middle" x="420.25" y="-116.25" font-family="Helvetica,sans-Serif" font-size="10.00">matrix_collection.h</text>
</a>
</g>
</g>
<!-- Node26&#45;&gt;Node28 -->
<g id="edge47" class="edge">
<title>Node26&#45;&gt;Node28</title>
<path fill="none" stroke="#63b8ff" d="M553.94,-165.34C527.57,-156.62 487.43,-143.34 458.01,-133.61"/>
<polygon fill="#63b8ff" stroke="#63b8ff" points="459.29,-130.02 448.7,-130.2 457.09,-136.67 459.29,-130.02"/>
</g>
<!-- Node27&#45;&gt;Node5 -->
<g id="edge44" class="edge">
<title>Node27&#45;&gt;Node5</title>
<path fill="none" stroke="#63b8ff" d="M612.62,-110.03C641.44,-101.66 685.62,-88.8 732.6,-74.98"/>
<polygon fill="#63b8ff" stroke="#63b8ff" points="733.37,-78.1 741.98,-71.92 731.4,-71.39 733.37,-78.1"/>
</g>
<!-- Node27&#45;&gt;Node6 -->
<g id="edge45" class="edge">
<title>Node27&#45;&gt;Node6</title>
<path fill="none" stroke="#63b8ff" d="M581.25,-110.33C581.25,-103.67 581.25,-94.24 581.25,-85.78"/>
<polygon fill="#63b8ff" stroke="#63b8ff" points="584.75,-85.86 581.25,-75.86 577.75,-85.86 584.75,-85.86"/>
</g>
<!-- Node28&#45;&gt;Node5 -->
<g id="edge48" class="edge">
<title>Node28&#45;&gt;Node5</title>
<path fill="none" stroke="#63b8ff" d="M469.6,-114.39C529.6,-108.14 634.06,-95.64 732.07,-74.7"/>
<polygon fill="#63b8ff" stroke="#63b8ff" points="732.73,-77.92 741.76,-72.38 731.24,-71.08 732.73,-77.92"/>
</g>
<!-- Node28&#45;&gt;Node6 -->
<g id="edge49" class="edge">
<title>Node28&#45;&gt;Node6</title>
<path fill="none" stroke="#63b8ff" d="M447.57,-110.09C475.69,-100.79 519.5,-86.3 549.23,-76.47"/>
<polygon fill="#63b8ff" stroke="#63b8ff" points="550.1,-79.53 558.5,-73.07 547.91,-72.89 550.1,-79.53"/>
</g>
<!-- Node28&#45;&gt;Node19 -->
<g id="edge50" class="edge">
<title>Node28&#45;&gt;Node19</title>
<path fill="none" stroke="#63b8ff" d="M387.85,-110.09C354.29,-100.73 301.9,-86.13 266.61,-76.29"/>
<polygon fill="#63b8ff" stroke="#63b8ff" points="267.82,-72.71 257.25,-73.4 265.94,-79.46 267.82,-72.71"/>
</g>
<!-- Node29&#45;&gt;Node19 -->
<g id="edge52" class="edge">
<title>Node29&#45;&gt;Node19</title>
<path fill="none" stroke="#63b8ff" d="M79.78,-275.78C62.03,-269.07 41.77,-257.94 31.25,-240.25 11.79,-207.5 -36.32,-203.73 50.25,-110.5 59.9,-100.11 141.87,-82.74 191.48,-73.02"/>
<polygon fill="#63b8ff" stroke="#63b8ff" points="191.98,-76.29 201.13,-70.95 190.65,-69.42 191.98,-76.29"/>
</g>
</g>
</svg>
