<?xml version="1.0" encoding="UTF-8" standalone="no"?>
<!DOCTYPE svg PUBLIC "-//W3C//DTD SVG 1.1//EN"
 "http://www.w3.org/Graphics/SVG/1.1/DTD/svg11.dtd">
<!-- Generated by graphviz version 8.0.5 (20230430.1635)
 -->
<!-- Title: tdms/include/surface_phasors.h Pages: 1 -->
<svg width="1230pt" height="370pt"
 viewBox="0.00 0.00 1230.38 370.00" xmlns="http://www.w3.org/2000/svg" xmlns:xlink="http://www.w3.org/1999/xlink">
<g id="graph0" class="graph" transform="scale(1 1) rotate(0) translate(4 366)">
<title>tdms/include/surface_phasors.h</title>
<!-- Node1 -->
<g id="node1" class="node">
<title>Node1</title>
<g id="a_node1"><a xlink:title="Contains a class that handles the complex amplitude extraction.">
<polygon fill="#999999" stroke="#666666" points="548.38,-362 441.63,-362 441.63,-331.5 548.38,-331.5 548.38,-362"/>
<text text-anchor="start" x="449.63" y="-348.5" font-family="Helvetica,sans-Serif" font-size="10.00">tdms/include/surface</text>
<text text-anchor="middle" x="495" y="-337.25" font-family="Helvetica,sans-Serif" font-size="10.00">_phasors.h</text>
</a>
</g>
</g>
<!-- Node2 -->
<g id="node2" class="node">
<title>Node2</title>
<g id="a_node2"><a xlink:href="arrays_8h.html" target="_top" xlink:title="Classes describing arrays, vertices etc.">
<polygon fill="white" stroke="#666666" points="922.63,-185 871.38,-185 871.38,-165.75 922.63,-165.75 922.63,-185"/>
<text text-anchor="middle" x="897" y="-171.5" font-family="Helvetica,sans-Serif" font-size="10.00">arrays.h</text>
</a>
</g>
</g>
<!-- Node1&#45;&gt;Node2 -->
<g id="edge1" class="edge">
<title>Node1&#45;&gt;Node2</title>
<path fill="none" stroke="#63b8ff" d="M533.13,-331.13C584.52,-311.28 678.68,-274.36 758,-240.25 796.51,-223.69 840.37,-203.27 868.35,-190.04"/>
<polygon fill="#63b8ff" stroke="#63b8ff" points="869.71,-192.8 877.25,-185.35 866.71,-186.47 869.71,-192.8"/>
</g>
<!-- Node11 -->
<g id="node11" class="node">
<title>Node11</title>
<g id="a_node11"><a xlink:href="field_8h.html" target="_top" xlink:title="Classes for the electric and magnetic (split) fields on a grid.">
<polygon fill="white" stroke="#666666" points="516.13,-295.5 473.88,-295.5 473.88,-276.25 516.13,-276.25 516.13,-295.5"/>
<text text-anchor="middle" x="495" y="-282" font-family="Helvetica,sans-Serif" font-size="10.00">field.h</text>
</a>
</g>
</g>
<!-- Node1&#45;&gt;Node11 -->
<g id="edge13" class="edge">
<title>Node1&#45;&gt;Node11</title>
<path fill="none" stroke="#63b8ff" d="M495,-331.2C495,-323.87 495,-314.87 495,-306.91"/>
<polygon fill="#63b8ff" stroke="#63b8ff" points="498.5,-306.95 495,-296.95 491.5,-306.95 498.5,-306.95"/>
</g>
<!-- Node26 -->
<g id="node26" class="node">
<title>Node26</title>
<g id="a_node26"><a xlink:href="grid__labels_8h.html" target="_top" xlink:title="Class to hold the labels of a Yee cell.">
<polygon fill="white" stroke="#666666" points="310.38,-295.5 239.63,-295.5 239.63,-276.25 310.38,-276.25 310.38,-295.5"/>
<text text-anchor="middle" x="275" y="-282" font-family="Helvetica,sans-Serif" font-size="10.00">grid_labels.h</text>
</a>
</g>
</g>
<!-- Node1&#45;&gt;Node26 -->
<g id="edge46" class="edge">
<title>Node1&#45;&gt;Node26</title>
<path fill="none" stroke="#63b8ff" d="M441.18,-331.35C403.83,-321.35 354.67,-308.19 319.52,-298.79"/>
<polygon fill="#63b8ff" stroke="#63b8ff" points="320.66,-295.2 310.09,-296 318.85,-301.96 320.66,-295.2"/>
</g>
<!-- Node3 -->
<g id="node3" class="node">
<title>Node3</title>
<g id="a_node3"><a xlink:title=" ">
<polygon fill="#e0e0e0" stroke="#999999" points="1222.38,-74.5 1169.63,-74.5 1169.63,-55.25 1222.38,-55.25 1222.38,-74.5"/>
<text text-anchor="middle" x="1196" y="-61" font-family="Helvetica,sans-Serif" font-size="10.00">complex</text>
</a>
</g>
</g>
<!-- Node2&#45;&gt;Node3 -->
<g id="edge2" class="edge">
<title>Node2&#45;&gt;Node3</title>
<path fill="none" stroke="#63b8ff" d="M922.75,-173.68C984.62,-171.49 1139.34,-162.77 1177,-129.75 1189.51,-118.79 1193.96,-99.99 1195.46,-85.62"/>
<polygon fill="#63b8ff" stroke="#63b8ff" points="1199,-86.06 1196.14,-75.86 1192.01,-85.62 1199,-86.06"/>
</g>
<!-- Node4 -->
<g id="node4" class="node">
<title>Node4</title>
<g id="a_node4"><a xlink:title=" ">
<polygon fill="#e0e0e0" stroke="#999999" points="455.38,-129.75 396.63,-129.75 396.63,-110.5 455.38,-110.5 455.38,-129.75"/>
<text text-anchor="middle" x="426" y="-116.25" font-family="Helvetica,sans-Serif" font-size="10.00">stdexcept</text>
</a>
</g>
</g>
<!-- Node2&#45;&gt;Node4 -->
<g id="edge3" class="edge">
<title>Node2&#45;&gt;Node4</title>
<path fill="none" stroke="#63b8ff" d="M870.99,-172.79C804.93,-168.54 625.19,-155.52 466.24,-129.95"/>
<polygon fill="#63b8ff" stroke="#63b8ff" points="467.24,-126.4 456.81,-128.25 466.11,-133.31 467.24,-126.4"/>
</g>
<!-- Node5 -->
<g id="node5" class="node">
<title>Node5</title>
<g id="a_node5"><a xlink:title=" ">
<polygon fill="#e0e0e0" stroke="#999999" points="825,-74.5 785,-74.5 785,-55.25 825,-55.25 825,-74.5"/>
<text text-anchor="middle" x="805" y="-61" font-family="Helvetica,sans-Serif" font-size="10.00">string</text>
</a>
</g>
</g>
<!-- Node2&#45;&gt;Node5 -->
<g id="edge4" class="edge">
<title>Node2&#45;&gt;Node5</title>
<path fill="none" stroke="#63b8ff" d="M892.58,-165.55C885.9,-152.68 872.36,-128.35 857,-110.5 847.85,-99.87 836.1,-89.56 826.08,-81.54"/>
<polygon fill="#63b8ff" stroke="#63b8ff" points="828.54,-78.24 818.5,-74.87 824.25,-83.77 828.54,-78.24"/>
</g>
<!-- Node6 -->
<g id="node6" class="node">
<title>Node6</title>
<g id="a_node6"><a xlink:title=" ">
<polygon fill="#e0e0e0" stroke="#999999" points="623.5,-74.5 580.5,-74.5 580.5,-55.25 623.5,-55.25 623.5,-74.5"/>
<text text-anchor="middle" x="602" y="-61" font-family="Helvetica,sans-Serif" font-size="10.00">vector</text>
</a>
</g>
</g>
<!-- Node2&#45;&gt;Node6 -->
<g id="edge5" class="edge">
<title>Node2&#45;&gt;Node6</title>
<path fill="none" stroke="#63b8ff" d="M877.98,-165.43C849.91,-152.42 795.58,-127.91 748,-110.5 709.21,-96.3 663.53,-82.85 633.74,-74.5"/>
<polygon fill="#63b8ff" stroke="#63b8ff" points="635.09,-70.97 624.52,-71.66 633.22,-77.71 635.09,-70.97"/>
</g>
<!-- Node7 -->
<g id="node7" class="node">
<title>Node7</title>
<g id="a_node7"><a xlink:title=" ">
<polygon fill="#e0e0e0" stroke="#999999" points="955,-129.75 909,-129.75 909,-110.5 955,-110.5 955,-129.75"/>
<text text-anchor="middle" x="932" y="-116.25" font-family="Helvetica,sans-Serif" font-size="10.00">fftw3.h</text>
</a>
</g>
</g>
<!-- Node2&#45;&gt;Node7 -->
<g id="edge6" class="edge">
<title>Node2&#45;&gt;Node7</title>
<path fill="none" stroke="#63b8ff" d="M902.78,-165.58C907.46,-158.46 914.22,-148.18 920.06,-139.3"/>
<polygon fill="#63b8ff" stroke="#63b8ff" points="923.53,-141.39 926.1,-131.11 917.68,-137.54 923.53,-141.39"/>
</g>
<!-- Node8 -->
<g id="node8" class="node">
<title>Node8</title>
<g id="a_node8"><a xlink:href="globals_8h.html" target="_top" xlink:title="Type definitions and global constants.">
<polygon fill="white" stroke="#666666" points="1167.5,-129.75 1112.5,-129.75 1112.5,-110.5 1167.5,-110.5 1167.5,-129.75"/>
<text text-anchor="middle" x="1140" y="-116.25" font-family="Helvetica,sans-Serif" font-size="10.00">globals.h</text>
</a>
</g>
</g>
<!-- Node2&#45;&gt;Node8 -->
<g id="edge7" class="edge">
<title>Node2&#45;&gt;Node8</title>
<path fill="none" stroke="#63b8ff" d="M922.86,-169C960.24,-161.18 1031.82,-146.06 1101.8,-130.22"/>
<polygon fill="#63b8ff" stroke="#63b8ff" points="1102.13,-133.5 1111.11,-127.87 1100.58,-126.68 1102.13,-133.5"/>
</g>
<!-- Node9 -->
<g id="node9" class="node">
<title>Node9</title>
<g id="a_node9"><a xlink:title=" ">
<polygon fill="#e0e0e0" stroke="#999999" points="1094.5,-129.75 1033.5,-129.75 1033.5,-110.5 1094.5,-110.5 1094.5,-129.75"/>
<text text-anchor="middle" x="1064" y="-116.25" font-family="Helvetica,sans-Serif" font-size="10.00">matlabio.h</text>
</a>
</g>
</g>
<!-- Node2&#45;&gt;Node9 -->
<g id="edge10" class="edge">
<title>Node2&#45;&gt;Node9</title>
<path fill="none" stroke="#63b8ff" d="M923.1,-166.05C950.54,-157.3 994.02,-143.44 1025.43,-133.42"/>
<polygon fill="#63b8ff" stroke="#63b8ff" points="1026.11,-136.56 1034.58,-130.19 1023.99,-129.89 1026.11,-136.56"/>
</g>
<!-- Node10 -->
<g id="node10" class="node">
<title>Node10</title>
<g id="a_node10"><a xlink:href="utils_8h.html" target="_top" xlink:title="Useful miscellaneous utility functions.">
<polygon fill="white" stroke="#666666" points="1015.13,-129.75 972.88,-129.75 972.88,-110.5 1015.13,-110.5 1015.13,-129.75"/>
<text text-anchor="middle" x="994" y="-116.25" font-family="Helvetica,sans-Serif" font-size="10.00">utils.h</text>
</a>
</g>
</g>
<!-- Node2&#45;&gt;Node10 -->
<g id="edge11" class="edge">
<title>Node2&#45;&gt;Node10</title>
<path fill="none" stroke="#63b8ff" d="M913.46,-165.34C928.37,-157.16 950.59,-144.96 967.92,-135.44"/>
<polygon fill="#63b8ff" stroke="#63b8ff" points="969.38,-138.08 976.47,-130.2 966.02,-131.95 969.38,-138.08"/>
</g>
<!-- Node8&#45;&gt;Node3 -->
<g id="edge8" class="edge">
<title>Node8&#45;&gt;Node3</title>
<path fill="none" stroke="#63b8ff" d="M1149.5,-110.09C1157.51,-102.47 1169.19,-91.37 1178.83,-82.2"/>
<polygon fill="#63b8ff" stroke="#63b8ff" points="1180.81,-85.2 1185.64,-75.77 1175.98,-80.13 1180.81,-85.2"/>
</g>
<!-- Node8&#45;&gt;Node5 -->
<g id="edge9" class="edge">
<title>Node8&#45;&gt;Node5</title>
<path fill="none" stroke="#63b8ff" d="M1112.15,-112.2C1109.4,-111.59 1106.65,-111.01 1104,-110.5 1006.83,-91.65 890.57,-76.35 836.07,-69.61"/>
<polygon fill="#63b8ff" stroke="#63b8ff" points="836.76,-66.04 826.41,-68.3 835.91,-72.99 836.76,-66.04"/>
</g>
<!-- Node10&#45;&gt;Node5 -->
<g id="edge12" class="edge">
<title>Node10&#45;&gt;Node5</title>
<path fill="none" stroke="#63b8ff" d="M972.7,-112.98C969.78,-112.15 966.82,-111.3 964,-110.5 919.35,-97.81 867.58,-83.33 835.55,-74.39"/>
<polygon fill="#63b8ff" stroke="#63b8ff" points="836.67,-70.79 826.09,-71.47 834.78,-77.53 836.67,-70.79"/>
</g>
<!-- Node11&#45;&gt;Node2 -->
<g id="edge15" class="edge">
<title>Node11&#45;&gt;Node2</title>
<path fill="none" stroke="#63b8ff" d="M516.37,-281.51C555.81,-275.07 642.54,-259.91 714,-240.25 767.45,-225.55 827.89,-203.32 864.19,-189.33"/>
<polygon fill="#63b8ff" stroke="#63b8ff" points="865.15,-192.33 873.21,-185.45 862.62,-185.8 865.15,-192.33"/>
</g>
<!-- Node11&#45;&gt;Node3 -->
<g id="edge14" class="edge">
<title>Node11&#45;&gt;Node3</title>
<path fill="none" stroke="#63b8ff" d="M516.59,-281.8C561.65,-275.25 668.95,-258.98 758,-240.25 954.89,-198.83 1073.31,-288.43 1197,-129.75 1206.7,-117.31 1205.31,-98.99 1202.17,-85.15"/>
<polygon fill="#63b8ff" stroke="#63b8ff" points="1205.35,-84.52 1199.31,-75.81 1198.6,-86.38 1205.35,-84.52"/>
</g>
<!-- Node12 -->
<g id="node12" class="node">
<title>Node12</title>
<g id="a_node12"><a xlink:title=" ">
<polygon fill="#e0e0e0" stroke="#999999" points="704.88,-240.25 619.13,-240.25 619.13,-221 704.88,-221 704.88,-240.25"/>
<text text-anchor="middle" x="662" y="-226.75" font-family="Helvetica,sans-Serif" font-size="10.00">arrays/eh_vec.h</text>
</a>
</g>
</g>
<!-- Node11&#45;&gt;Node12 -->
<g id="edge16" class="edge">
<title>Node11&#45;&gt;Node12</title>
<path fill="none" stroke="#63b8ff" d="M516.49,-278.02C543.44,-269.43 590.13,-254.54 623.35,-243.95"/>
<polygon fill="#63b8ff" stroke="#63b8ff" points="624.15,-247.05 632.62,-240.68 622.03,-240.38 624.15,-247.05"/>
</g>
<!-- Node13 -->
<g id="node13" class="node">
<title>Node13</title>
<g id="a_node13"><a xlink:href="cell__coordinate_8h.html" target="_top" xlink:title="Container for {ijk} or {IJK} grouped variables.">
<polygon fill="white" stroke="#666666" points="281.75,-185 192.25,-185 192.25,-165.75 281.75,-165.75 281.75,-185"/>
<text text-anchor="middle" x="237" y="-171.5" font-family="Helvetica,sans-Serif" font-size="10.00">cell_coordinate.h</text>
</a>
</g>
</g>
<!-- Node11&#45;&gt;Node13 -->
<g id="edge17" class="edge">
<title>Node11&#45;&gt;Node13</title>
<path fill="none" stroke="#63b8ff" d="M473.45,-275.81C427.92,-256.66 321.77,-212.03 268.58,-189.65"/>
<polygon fill="#63b8ff" stroke="#63b8ff" points="270.25,-186.14 259.67,-185.49 267.54,-192.59 270.25,-186.14"/>
</g>
<!-- Node16 -->
<g id="node16" class="node">
<title>Node16</title>
<g id="a_node16"><a xlink:href="dimensions_8h.html" target="_top" xlink:title="Defines a class that serves as an explicit converter between MATLAB pointers and array dimensions.">
<polygon fill="white" stroke="#666666" points="222.88,-240.25 149.13,-240.25 149.13,-221 222.88,-221 222.88,-240.25"/>
<text text-anchor="middle" x="186" y="-226.75" font-family="Helvetica,sans-Serif" font-size="10.00">dimensions.h</text>
</a>
</g>
</g>
<!-- Node11&#45;&gt;Node16 -->
<g id="edge20" class="edge">
<title>Node11&#45;&gt;Node16</title>
<path fill="none" stroke="#63b8ff" d="M473.76,-281.21C424.58,-272.74 301.87,-251.59 233.65,-239.84"/>
<polygon fill="#63b8ff" stroke="#63b8ff" points="234.64,-236.28 224.19,-238.03 233.45,-243.18 234.64,-236.28"/>
</g>
<!-- Node17 -->
<g id="node17" class="node">
<title>Node17</title>
<g id="a_node17"><a xlink:href="mat__io_8h.html" target="_top" xlink:title="Includes MATLAB headers for I/O.">
<polygon fill="white" stroke="#666666" points="212.75,-74.5 159.25,-74.5 159.25,-55.25 212.75,-55.25 212.75,-74.5"/>
<text text-anchor="middle" x="186" y="-61" font-family="Helvetica,sans-Serif" font-size="10.00">mat_io.h</text>
</a>
</g>
</g>
<!-- Node11&#45;&gt;Node17 -->
<g id="edge32" class="edge">
<title>Node11&#45;&gt;Node17</title>
<path fill="none" stroke="#63b8ff" d="M473.58,-284.44C405.72,-282.73 196.65,-274.72 140,-240.25 86.93,-207.95 54.39,-162.74 88,-110.5 101.33,-89.79 126.89,-78.58 148.57,-72.57"/>
<polygon fill="#63b8ff" stroke="#63b8ff" points="149.28,-75.75 158.15,-69.95 147.6,-68.96 149.28,-75.75"/>
</g>
<!-- Node21 -->
<g id="node21" class="node">
<title>Node21</title>
<g id="a_node21"><a xlink:href="input__flags_8h.html" target="_top" xlink:title="Organises enumerated constants, names, and classes for handling flag&#45;variables that are passed to TDM...">
<polygon fill="white" stroke="#666666" points="404.75,-185 333.25,-185 333.25,-165.75 404.75,-165.75 404.75,-185"/>
<text text-anchor="middle" x="369" y="-171.5" font-family="Helvetica,sans-Serif" font-size="10.00">input_flags.h</text>
</a>
</g>
</g>
<!-- Node11&#45;&gt;Node21 -->
<g id="edge25" class="edge">
<title>Node11&#45;&gt;Node21</title>
<path fill="none" stroke="#63b8ff" d="M484.69,-276C463.46,-257.72 414.62,-215.65 387.68,-192.46"/>
<polygon fill="#63b8ff" stroke="#63b8ff" points="390.32,-189.25 380.46,-185.38 385.75,-194.55 390.32,-189.25"/>
</g>
<!-- Node22 -->
<g id="node22" class="node">
<title>Node22</title>
<g id="a_node22"><a xlink:href="simulation__parameters_8h.html" target="_top" xlink:title="Classes collecting parameters for the simulation.">
<polygon fill="white" stroke="#666666" points="601.25,-240.25 478.75,-240.25 478.75,-221 601.25,-221 601.25,-240.25"/>
<text text-anchor="middle" x="540" y="-226.75" font-family="Helvetica,sans-Serif" font-size="10.00">simulation_parameters.h</text>
</a>
</g>
</g>
<!-- Node11&#45;&gt;Node22 -->
<g id="edge33" class="edge">
<title>Node11&#45;&gt;Node22</title>
<path fill="none" stroke="#63b8ff" d="M502.43,-276.08C508.65,-268.73 517.7,-258.01 525.37,-248.94"/>
<polygon fill="#63b8ff" stroke="#63b8ff" points="528.63,-251.51 532.41,-241.61 523.28,-246.99 528.63,-251.51"/>
</g>
<!-- Node14 -->
<g id="node14" class="node">
<title>Node14</title>
<g id="a_node14"><a xlink:title=" ">
<polygon fill="#e0e0e0" stroke="#999999" points="191.13,-129.75 106.88,-129.75 106.88,-110.5 191.13,-110.5 191.13,-129.75"/>
<text text-anchor="middle" x="149" y="-116.25" font-family="Helvetica,sans-Serif" font-size="10.00">spdlog/spdlog.h</text>
</a>
</g>
</g>
<!-- Node13&#45;&gt;Node14 -->
<g id="edge18" class="edge">
<title>Node13&#45;&gt;Node14</title>
<path fill="none" stroke="#63b8ff" d="M222.07,-165.34C208.67,-157.23 188.76,-145.18 173.1,-135.71"/>
<polygon fill="#63b8ff" stroke="#63b8ff" points="175.37,-132.39 165,-130.2 171.75,-138.37 175.37,-132.39"/>
</g>
<!-- Node15 -->
<g id="node15" class="node">
<title>Node15</title>
<g id="a_node15"><a xlink:title=" ">
<polygon fill="#e0e0e0" stroke="#999999" points="264.88,-129.75 209.13,-129.75 209.13,-110.5 264.88,-110.5 264.88,-129.75"/>
<text text-anchor="middle" x="237" y="-116.25" font-family="Helvetica,sans-Serif" font-size="10.00">algorithm</text>
</a>
</g>
</g>
<!-- Node13&#45;&gt;Node15 -->
<g id="edge19" class="edge">
<title>Node13&#45;&gt;Node15</title>
<path fill="none" stroke="#63b8ff" d="M237,-165.58C237,-158.92 237,-149.49 237,-141.03"/>
<polygon fill="#63b8ff" stroke="#63b8ff" points="240.5,-141.11 237,-131.11 233.5,-141.11 240.5,-141.11"/>
</g>
<!-- Node16&#45;&gt;Node17 -->
<g id="edge21" class="edge">
<title>Node16&#45;&gt;Node17</title>
<path fill="none" stroke="#63b8ff" d="M170.39,-220.73C138.57,-201.42 71.36,-153.88 98,-110.5 109.07,-92.48 129.93,-81.46 148.56,-74.88"/>
<polygon fill="#63b8ff" stroke="#63b8ff" points="149.43,-77.96 157.89,-71.59 147.3,-71.29 149.43,-77.96"/>
</g>
<!-- Node18 -->
<g id="node18" class="node">
<title>Node18</title>
<g id="a_node18"><a xlink:title=" ">
<polygon fill="#e0e0e0" stroke="#999999" points="142.38,-19.25 101.63,-19.25 101.63,0 142.38,0 142.38,-19.25"/>
<text text-anchor="middle" x="122" y="-5.75" font-family="Helvetica,sans-Serif" font-size="10.00">mat.h</text>
</a>
</g>
</g>
<!-- Node17&#45;&gt;Node18 -->
<g id="edge22" class="edge">
<title>Node17&#45;&gt;Node18</title>
<path fill="none" stroke="#63b8ff" d="M175.14,-54.84C165.8,-47.07 152.11,-35.67 140.96,-26.4"/>
<polygon fill="#63b8ff" stroke="#63b8ff" points="143.62,-23.23 133.7,-19.52 139.15,-28.61 143.62,-23.23"/>
</g>
<!-- Node19 -->
<g id="node19" class="node">
<title>Node19</title>
<g id="a_node19"><a xlink:title=" ">
<polygon fill="#e0e0e0" stroke="#999999" points="211.63,-19.25 160.38,-19.25 160.38,0 211.63,0 211.63,-19.25"/>
<text text-anchor="middle" x="186" y="-5.75" font-family="Helvetica,sans-Serif" font-size="10.00">matrix.h</text>
</a>
</g>
</g>
<!-- Node17&#45;&gt;Node19 -->
<g id="edge23" class="edge">
<title>Node17&#45;&gt;Node19</title>
<path fill="none" stroke="#63b8ff" d="M186,-55.08C186,-48.42 186,-38.99 186,-30.53"/>
<polygon fill="#63b8ff" stroke="#63b8ff" points="189.5,-30.61 186,-20.61 182.5,-30.61 189.5,-30.61"/>
</g>
<!-- Node20 -->
<g id="node20" class="node">
<title>Node20</title>
<g id="a_node20"><a xlink:title=" ">
<polygon fill="#e0e0e0" stroke="#999999" points="272.5,-19.25 229.5,-19.25 229.5,0 272.5,0 272.5,-19.25"/>
<text text-anchor="middle" x="251" y="-5.75" font-family="Helvetica,sans-Serif" font-size="10.00">mex.h</text>
</a>
</g>
</g>
<!-- Node17&#45;&gt;Node20 -->
<g id="edge24" class="edge">
<title>Node17&#45;&gt;Node20</title>
<path fill="none" stroke="#63b8ff" d="M197.03,-54.84C206.52,-47.07 220.43,-35.67 231.75,-26.4"/>
<polygon fill="#63b8ff" stroke="#63b8ff" points="233.62,-28.57 239.14,-19.52 229.18,-23.15 233.62,-28.57"/>
</g>
<!-- Node21&#45;&gt;Node4 -->
<g id="edge27" class="edge">
<title>Node21&#45;&gt;Node4</title>
<path fill="none" stroke="#63b8ff" d="M378.67,-165.34C386.83,-157.72 398.71,-146.62 408.52,-137.45"/>
<polygon fill="#63b8ff" stroke="#63b8ff" points="410.56,-140.41 415.47,-131.02 405.78,-135.29 410.56,-140.41"/>
</g>
<!-- Node21&#45;&gt;Node5 -->
<g id="edge28" class="edge">
<title>Node21&#45;&gt;Node5</title>
<path fill="none" stroke="#63b8ff" d="M405.25,-169.64C447.91,-163.41 520.49,-150.71 580,-129.75 597.86,-123.46 600.23,-117.02 618,-110.5 671.25,-90.97 736.2,-77.7 773.85,-70.99"/>
<polygon fill="#63b8ff" stroke="#63b8ff" points="774.37,-74.28 783.62,-69.12 773.17,-67.39 774.37,-74.28"/>
</g>
<!-- Node21&#45;&gt;Node6 -->
<g id="edge29" class="edge">
<title>Node21&#45;&gt;Node6</title>
<path fill="none" stroke="#63b8ff" d="M368.95,-165.48C369.37,-151.6 372.33,-124.91 388,-110.5 414.09,-86.5 516.04,-73.77 569.26,-68.63"/>
<polygon fill="#63b8ff" stroke="#63b8ff" points="569.5,-72.03 579.14,-67.63 568.86,-65.06 569.5,-72.03"/>
</g>
<!-- Node21&#45;&gt;Node14 -->
<g id="edge30" class="edge">
<title>Node21&#45;&gt;Node14</title>
<path fill="none" stroke="#63b8ff" d="M333.17,-165.7C296.17,-156.75 238.22,-142.72 197.22,-132.8"/>
<polygon fill="#63b8ff" stroke="#63b8ff" points="198.21,-129.19 187.67,-130.24 196.56,-136 198.21,-129.19"/>
</g>
<!-- Node21&#45;&gt;Node15 -->
<g id="edge26" class="edge">
<title>Node21&#45;&gt;Node15</title>
<path fill="none" stroke="#63b8ff" d="M346.61,-165.34C325.47,-156.81 293.51,-143.92 269.55,-134.26"/>
<polygon fill="#63b8ff" stroke="#63b8ff" points="271.09,-130.7 260.5,-130.2 268.47,-137.19 271.09,-130.7"/>
</g>
<!-- Node21&#45;&gt;Node17 -->
<g id="edge31" class="edge">
<title>Node21&#45;&gt;Node17</title>
<path fill="none" stroke="#63b8ff" d="M356.72,-165.4C338.91,-152.56 304.68,-128.5 274,-110.5 254.86,-99.27 232.55,-87.97 215.18,-79.56"/>
<polygon fill="#63b8ff" stroke="#63b8ff" points="217.12,-76.13 206.59,-74.96 214.1,-82.44 217.12,-76.13"/>
</g>
<!-- Node22&#45;&gt;Node2 -->
<g id="edge35" class="edge">
<title>Node22&#45;&gt;Node2</title>
<path fill="none" stroke="#63b8ff" d="M601.75,-221.47C679.69,-211.09 809.33,-193.48 857,-185 858.16,-184.79 859.33,-184.58 860.51,-184.36"/>
<polygon fill="#63b8ff" stroke="#63b8ff" points="861.11,-187.61 870.23,-182.22 859.74,-180.74 861.11,-187.61"/>
</g>
<!-- Node22&#45;&gt;Node5 -->
<g id="edge34" class="edge">
<title>Node22&#45;&gt;Node5</title>
<path fill="none" stroke="#63b8ff" d="M583.68,-220.53C634.66,-207.94 718.87,-180.76 773,-129.75 785.84,-117.66 794.29,-99.29 799.26,-85.35"/>
<polygon fill="#63b8ff" stroke="#63b8ff" points="802.89,-86.51 802.64,-75.92 796.23,-84.35 802.89,-86.51"/>
</g>
<!-- Node23 -->
<g id="node23" class="node">
<title>Node23</title>
<g id="a_node23"><a xlink:href="input__matrices_8h.html" target="_top" xlink:title="Class handling the input matrices that are read in from the input file.">
<polygon fill="white" stroke="#666666" points="584,-185 496,-185 496,-165.75 584,-165.75 584,-185"/>
<text text-anchor="middle" x="540" y="-171.5" font-family="Helvetica,sans-Serif" font-size="10.00">input_matrices.h</text>
</a>
</g>
</g>
<!-- Node22&#45;&gt;Node23 -->
<g id="edge36" class="edge">
<title>Node22&#45;&gt;Node23</title>
<path fill="none" stroke="#63b8ff" d="M540,-220.83C540,-214.17 540,-204.74 540,-196.28"/>
<polygon fill="#63b8ff" stroke="#63b8ff" points="543.5,-196.36 540,-186.36 536.5,-196.36 543.5,-196.36"/>
</g>
<!-- Node23&#45;&gt;Node5 -->
<g id="edge37" class="edge">
<title>Node23&#45;&gt;Node5</title>
<path fill="none" stroke="#63b8ff" d="M584.26,-172.79C628.44,-169.46 696.92,-159.46 748,-129.75 767.21,-118.58 783.42,-98.67 793.59,-84.04"/>
<polygon fill="#63b8ff" stroke="#63b8ff" points="797.02,-86.2 799.62,-75.93 791.18,-82.33 797.02,-86.2"/>
</g>
<!-- Node23&#45;&gt;Node17 -->
<g id="edge41" class="edge">
<title>Node23&#45;&gt;Node17</title>
<path fill="none" stroke="#63b8ff" d="M508.5,-165.33C477.72,-156.45 429.57,-142.42 388,-129.75 330.48,-112.21 264.03,-91.02 223.52,-78"/>
<polygon fill="#63b8ff" stroke="#63b8ff" points="224.66,-74.36 214.06,-74.63 222.51,-81.02 224.66,-74.36"/>
</g>
<!-- Node24 -->
<g id="node24" class="node">
<title>Node24</title>
<g id="a_node24"><a xlink:href="input__output__names_8h.html" target="_top" xlink:title="Constant values associated with the format of the input and output files and matrices.">
<polygon fill="white" stroke="#666666" points="739,-129.75 627,-129.75 627,-110.5 739,-110.5 739,-129.75"/>
<text text-anchor="middle" x="683" y="-116.25" font-family="Helvetica,sans-Serif" font-size="10.00">input_output_names.h</text>
</a>
</g>
</g>
<!-- Node23&#45;&gt;Node24 -->
<g id="edge38" class="edge">
<title>Node23&#45;&gt;Node24</title>
<path fill="none" stroke="#63b8ff" d="M564.26,-165.34C587.37,-156.74 622.4,-143.69 648.43,-134"/>
<polygon fill="#63b8ff" stroke="#63b8ff" points="649.47,-136.97 657.62,-130.2 647.03,-130.41 649.47,-136.97"/>
</g>
<!-- Node25 -->
<g id="node25" class="node">
<title>Node25</title>
<g id="a_node25"><a xlink:href="matrix__collection_8h.html" target="_top" xlink:title="A collection of named MATLAB matrices.">
<polygon fill="white" stroke="#666666" points="570.88,-129.75 473.13,-129.75 473.13,-110.5 570.88,-110.5 570.88,-129.75"/>
<text text-anchor="middle" x="522" y="-116.25" font-family="Helvetica,sans-Serif" font-size="10.00">matrix_collection.h</text>
</a>
</g>
</g>
<!-- Node23&#45;&gt;Node25 -->
<g id="edge42" class="edge">
<title>Node23&#45;&gt;Node25</title>
<path fill="none" stroke="#63b8ff" d="M537.03,-165.58C534.72,-158.76 531.44,-149.06 528.53,-140.45"/>
<polygon fill="#63b8ff" stroke="#63b8ff" points="531.56,-139.46 525.04,-131.11 524.93,-141.7 531.56,-139.46"/>
</g>
<!-- Node24&#45;&gt;Node5 -->
<g id="edge39" class="edge">
<title>Node24&#45;&gt;Node5</title>
<path fill="none" stroke="#63b8ff" d="M703.7,-110.09C723.18,-101.59 752.6,-88.75 774.72,-79.09"/>
<polygon fill="#63b8ff" stroke="#63b8ff" points="775.85,-81.98 783.61,-74.77 773.05,-75.57 775.85,-81.98"/>
</g>
<!-- Node24&#45;&gt;Node6 -->
<g id="edge40" class="edge">
<title>Node24&#45;&gt;Node6</title>
<path fill="none" stroke="#63b8ff" d="M669.26,-110.09C657.04,-102.06 638.94,-90.16 624.6,-80.73"/>
<polygon fill="#63b8ff" stroke="#63b8ff" points="627.09,-77.52 616.81,-74.95 623.24,-83.37 627.09,-77.52"/>
</g>
<!-- Node25&#45;&gt;Node5 -->
<g id="edge43" class="edge">
<title>Node25&#45;&gt;Node5</title>
<path fill="none" stroke="#63b8ff" d="M570.33,-110.03C628.62,-99.06 724.89,-80.95 774.04,-71.7"/>
<polygon fill="#63b8ff" stroke="#63b8ff" points="774.44,-75 783.62,-69.71 773.15,-68.12 774.44,-75"/>
</g>
<!-- Node25&#45;&gt;Node6 -->
<g id="edge44" class="edge">
<title>Node25&#45;&gt;Node6</title>
<path fill="none" stroke="#63b8ff" d="M535.57,-110.09C547.53,-102.14 565.18,-90.39 579.28,-81"/>
<polygon fill="#63b8ff" stroke="#63b8ff" points="580.98,-83.41 587.36,-74.95 577.1,-77.58 580.98,-83.41"/>
</g>
<!-- Node25&#45;&gt;Node17 -->
<g id="edge45" class="edge">
<title>Node25&#45;&gt;Node17</title>
<path fill="none" stroke="#63b8ff" d="M472.78,-111.32C405.17,-100.61 285.02,-81.57 223.93,-71.89"/>
<polygon fill="#63b8ff" stroke="#63b8ff" points="224.66,-68.3 214.23,-70.19 223.56,-75.21 224.66,-68.3"/>
</g>
<!-- Node26&#45;&gt;Node17 -->
<g id="edge47" class="edge">
<title>Node26&#45;&gt;Node17</title>
<path fill="none" stroke="#63b8ff" d="M239.37,-283.86C177.36,-281.27 53.66,-272.13 27,-240.25 -9.99,-196.01 -7.83,-156.46 27,-110.5 41.59,-91.26 105.82,-78.02 148.05,-71.21"/>
<polygon fill="#63b8ff" stroke="#63b8ff" points="148.45,-74.54 157.79,-69.54 147.37,-67.62 148.45,-74.54"/>
</g>
</g>
</svg>
