<?xml version="1.0" encoding="UTF-8" standalone="no"?>
<!DOCTYPE svg PUBLIC "-//W3C//DTD SVG 1.1//EN"
 "http://www.w3.org/Graphics/SVG/1.1/DTD/svg11.dtd">
<!-- Generated by graphviz version 8.0.4 (20230421.1958)
 -->
<!-- Title: tdms/include/surface_phasors.h Pages: 1 -->
<svg width="1201pt" height="370pt"
 viewBox="0.00 0.00 1201.27 370.00" xmlns="http://www.w3.org/2000/svg" xmlns:xlink="http://www.w3.org/1999/xlink">
<g id="graph0" class="graph" transform="scale(1 1) rotate(0) translate(4 366)">
<title>tdms/include/surface_phasors.h</title>
<!-- Node1 -->
<g id="node1" class="node">
<title>Node1</title>
<g id="a_node1"><a xlink:title="Contains a class that handles the complex amplitude extraction.">
<polygon fill="#999999" stroke="#666666" points="911.75,-362 805,-362 805,-331.5 911.75,-331.5 911.75,-362"/>
<text text-anchor="start" x="813" y="-348.5" font-family="Helvetica,sans-Serif" font-size="10.00">tdms/include/surface</text>
<text text-anchor="middle" x="858.38" y="-337.25" font-family="Helvetica,sans-Serif" font-size="10.00">_phasors.h</text>
</a>
</g>
</g>
<!-- Node2 -->
<g id="node2" class="node">
<title>Node2</title>
<g id="a_node2"><a xlink:href="arrays_8h.html" target="_top" xlink:title="Classes describing arrays, vertices etc.">
<polygon fill="white" stroke="#666666" points="244,-185 192.75,-185 192.75,-165.75 244,-165.75 244,-185"/>
<text text-anchor="middle" x="218.38" y="-171.5" font-family="Helvetica,sans-Serif" font-size="10.00">arrays.h</text>
</a>
</g>
</g>
<!-- Node1&#45;&gt;Node2 -->
<g id="edge1" class="edge">
<title>Node1&#45;&gt;Node2</title>
<path fill="none" stroke="#63b8ff" d="M804.76,-341.34C706.57,-331.94 492.52,-305.21 324.38,-240.25 292.54,-227.95 259.4,-206.32 238.83,-191.68"/>
<polygon fill="#63b8ff" stroke="#63b8ff" points="241.21,-188.35 231.06,-185.31 237.1,-194.02 241.21,-188.35"/>
</g>
<!-- Node10 -->
<g id="node10" class="node">
<title>Node10</title>
<g id="a_node10"><a xlink:href="field_8h.html" target="_top" xlink:title="Classes for the electric and magnetic (split) fields on a grid.">
<polygon fill="white" stroke="#666666" points="879.5,-295.5 837.25,-295.5 837.25,-276.25 879.5,-276.25 879.5,-295.5"/>
<text text-anchor="middle" x="858.38" y="-282" font-family="Helvetica,sans-Serif" font-size="10.00">field.h</text>
</a>
</g>
</g>
<!-- Node1&#45;&gt;Node10 -->
<g id="edge12" class="edge">
<title>Node1&#45;&gt;Node10</title>
<path fill="none" stroke="#63b8ff" d="M858.38,-331.2C858.38,-323.87 858.38,-314.87 858.38,-306.91"/>
<polygon fill="#63b8ff" stroke="#63b8ff" points="861.88,-306.95 858.38,-296.95 854.88,-306.95 861.88,-306.95"/>
</g>
<!-- Node25 -->
<g id="node25" class="node">
<title>Node25</title>
<g id="a_node25"><a xlink:href="grid__labels_8h.html" target="_top" xlink:title="Class to hold the labels of a Yee cell.">
<polygon fill="white" stroke="#666666" points="1106.75,-295.5 1036,-295.5 1036,-276.25 1106.75,-276.25 1106.75,-295.5"/>
<text text-anchor="middle" x="1071.38" y="-282" font-family="Helvetica,sans-Serif" font-size="10.00">grid_labels.h</text>
</a>
</g>
</g>
<!-- Node1&#45;&gt;Node25 -->
<g id="edge44" class="edge">
<title>Node1&#45;&gt;Node25</title>
<path fill="none" stroke="#63b8ff" d="M911.57,-331.05C947.49,-321.12 994.3,-308.18 1027.96,-298.88"/>
<polygon fill="#63b8ff" stroke="#63b8ff" points="1028.69,-302.03 1037.4,-295.99 1026.82,-295.28 1028.69,-302.03"/>
</g>
<!-- Node3 -->
<g id="node3" class="node">
<title>Node3</title>
<g id="a_node3"><a xlink:title=" ">
<polygon fill="#e0e0e0" stroke="#999999" points="52.75,-74.5 0,-74.5 0,-55.25 52.75,-55.25 52.75,-74.5"/>
<text text-anchor="middle" x="26.38" y="-61" font-family="Helvetica,sans-Serif" font-size="10.00">complex</text>
</a>
</g>
</g>
<!-- Node2&#45;&gt;Node3 -->
<g id="edge2" class="edge">
<title>Node2&#45;&gt;Node3</title>
<path fill="none" stroke="#63b8ff" d="M192.31,-175.16C154.77,-174.82 85.57,-168.5 45.38,-129.75 33.4,-118.21 28.88,-99.49 27.22,-85.29"/>
<polygon fill="#63b8ff" stroke="#63b8ff" points="30.66,-85.38 26.4,-75.68 23.69,-85.93 30.66,-85.38"/>
</g>
<!-- Node4 -->
<g id="node4" class="node">
<title>Node4</title>
<g id="a_node4"><a xlink:title=" ">
<polygon fill="#e0e0e0" stroke="#999999" points="788.75,-129.75 730,-129.75 730,-110.5 788.75,-110.5 788.75,-129.75"/>
<text text-anchor="middle" x="759.38" y="-116.25" font-family="Helvetica,sans-Serif" font-size="10.00">stdexcept</text>
</a>
</g>
</g>
<!-- Node2&#45;&gt;Node4 -->
<g id="edge3" class="edge">
<title>Node2&#45;&gt;Node4</title>
<path fill="none" stroke="#63b8ff" d="M244.44,-173.3C317.7,-170.03 531.78,-158.67 718.72,-129.98"/>
<polygon fill="#63b8ff" stroke="#63b8ff" points="719.24,-133.28 728.58,-128.29 718.16,-126.37 719.24,-133.28"/>
</g>
<!-- Node5 -->
<g id="node5" class="node">
<title>Node5</title>
<g id="a_node5"><a xlink:title=" ">
<polygon fill="#e0e0e0" stroke="#999999" points="419.38,-74.5 379.38,-74.5 379.38,-55.25 419.38,-55.25 419.38,-74.5"/>
<text text-anchor="middle" x="399.38" y="-61" font-family="Helvetica,sans-Serif" font-size="10.00">string</text>
</a>
</g>
</g>
<!-- Node2&#45;&gt;Node5 -->
<g id="edge4" class="edge">
<title>Node2&#45;&gt;Node5</title>
<path fill="none" stroke="#63b8ff" d="M198.76,-165.43C175.02,-153.4 140.21,-131.12 157.38,-110.5 183.83,-78.72 308.67,-69.48 367.96,-66.87"/>
<polygon fill="#63b8ff" stroke="#63b8ff" points="368.04,-70.33 377.9,-66.43 367.76,-63.34 368.04,-70.33"/>
</g>
<!-- Node6 -->
<g id="node6" class="node">
<title>Node6</title>
<g id="a_node6"><a xlink:title=" ">
<polygon fill="#e0e0e0" stroke="#999999" points="272.38,-129.75 226.38,-129.75 226.38,-110.5 272.38,-110.5 272.38,-129.75"/>
<text text-anchor="middle" x="249.38" y="-116.25" font-family="Helvetica,sans-Serif" font-size="10.00">fftw3.h</text>
</a>
</g>
</g>
<!-- Node2&#45;&gt;Node6 -->
<g id="edge5" class="edge">
<title>Node2&#45;&gt;Node6</title>
<path fill="none" stroke="#63b8ff" d="M223.49,-165.58C227.6,-158.53 233.5,-148.4 238.63,-139.58"/>
<polygon fill="#63b8ff" stroke="#63b8ff" points="242.14,-141.51 244.14,-131.11 236.09,-137.99 242.14,-141.51"/>
</g>
<!-- Node7 -->
<g id="node7" class="node">
<title>Node7</title>
<g id="a_node7"><a xlink:href="globals_8h.html" target="_top" xlink:title="Type definitions and global constants.">
<polygon fill="white" stroke="#666666" points="109.88,-129.75 54.88,-129.75 54.88,-110.5 109.88,-110.5 109.88,-129.75"/>
<text text-anchor="middle" x="82.38" y="-116.25" font-family="Helvetica,sans-Serif" font-size="10.00">globals.h</text>
</a>
</g>
</g>
<!-- Node2&#45;&gt;Node7 -->
<g id="edge6" class="edge">
<title>Node2&#45;&gt;Node7</title>
<path fill="none" stroke="#63b8ff" d="M195.3,-165.34C173.42,-156.77 140.3,-143.81 115.58,-134.13"/>
<polygon fill="#63b8ff" stroke="#63b8ff" points="117.15,-130.59 106.56,-130.2 114.59,-137.11 117.15,-130.59"/>
</g>
<!-- Node8 -->
<g id="node8" class="node">
<title>Node8</title>
<g id="a_node8"><a xlink:title=" ">
<polygon fill="#e0e0e0" stroke="#999999" points="351.88,-129.75 290.88,-129.75 290.88,-110.5 351.88,-110.5 351.88,-129.75"/>
<text text-anchor="middle" x="321.38" y="-116.25" font-family="Helvetica,sans-Serif" font-size="10.00">matlabio.h</text>
</a>
</g>
</g>
<!-- Node2&#45;&gt;Node8 -->
<g id="edge9" class="edge">
<title>Node2&#45;&gt;Node8</title>
<path fill="none" stroke="#63b8ff" d="M235.85,-165.34C251.83,-157.08 275.72,-144.73 294.2,-135.18"/>
<polygon fill="#63b8ff" stroke="#63b8ff" points="295.54,-137.9 302.82,-130.2 292.33,-131.69 295.54,-137.9"/>
</g>
<!-- Node9 -->
<g id="node9" class="node">
<title>Node9</title>
<g id="a_node9"><a xlink:href="utils_8h.html" target="_top" xlink:title="Useful miscellaneous utility functions.">
<polygon fill="white" stroke="#666666" points="208.5,-129.75 166.25,-129.75 166.25,-110.5 208.5,-110.5 208.5,-129.75"/>
<text text-anchor="middle" x="187.38" y="-116.25" font-family="Helvetica,sans-Serif" font-size="10.00">utils.h</text>
</a>
</g>
</g>
<!-- Node2&#45;&gt;Node9 -->
<g id="edge10" class="edge">
<title>Node2&#45;&gt;Node9</title>
<path fill="none" stroke="#63b8ff" d="M213.26,-165.58C209.15,-158.53 203.25,-148.4 198.12,-139.58"/>
<polygon fill="#63b8ff" stroke="#63b8ff" points="200.66,-137.99 192.61,-131.11 194.61,-141.51 200.66,-137.99"/>
</g>
<!-- Node7&#45;&gt;Node3 -->
<g id="edge7" class="edge">
<title>Node7&#45;&gt;Node3</title>
<path fill="none" stroke="#63b8ff" d="M72.88,-110.09C64.86,-102.47 53.19,-91.37 43.55,-82.2"/>
<polygon fill="#63b8ff" stroke="#63b8ff" points="46.39,-80.13 36.73,-75.77 41.57,-85.2 46.39,-80.13"/>
</g>
<!-- Node7&#45;&gt;Node5 -->
<g id="edge8" class="edge">
<title>Node7&#45;&gt;Node5</title>
<path fill="none" stroke="#63b8ff" d="M110.36,-113.21C115.03,-112.27 119.84,-111.33 124.38,-110.5 212.61,-94.29 317.34,-78.14 368.35,-70.48"/>
<polygon fill="#63b8ff" stroke="#63b8ff" points="368.6,-73.83 377.97,-68.89 367.56,-66.91 368.6,-73.83"/>
</g>
<!-- Node9&#45;&gt;Node5 -->
<g id="edge11" class="edge">
<title>Node9&#45;&gt;Node5</title>
<path fill="none" stroke="#63b8ff" d="M208.98,-112.8C211.8,-112.01 214.65,-111.23 217.38,-110.5 270.37,-96.39 332.48,-81.52 368.73,-73"/>
<polygon fill="#63b8ff" stroke="#63b8ff" points="369.17,-76.26 378.11,-70.57 367.57,-69.44 369.17,-76.26"/>
</g>
<!-- Node10&#45;&gt;Node2 -->
<g id="edge14" class="edge">
<title>Node10&#45;&gt;Node2</title>
<path fill="none" stroke="#63b8ff" d="M837.07,-284.8C770.29,-284.17 559.43,-279 390.38,-240.25 338.46,-228.35 280.99,-204.75 247.36,-189.8"/>
<polygon fill="#63b8ff" stroke="#63b8ff" points="249.28,-186.38 238.73,-185.47 246.41,-192.76 249.28,-186.38"/>
</g>
<!-- Node10&#45;&gt;Node3 -->
<g id="edge13" class="edge">
<title>Node10&#45;&gt;Node3</title>
<path fill="none" stroke="#63b8ff" d="M836.94,-285.19C764.1,-285.8 519.74,-284.23 324.38,-240.25 188.19,-209.59 113.39,-241.97 30.38,-129.75 21.07,-117.18 20.79,-99.12 22.42,-85.41"/>
<polygon fill="#63b8ff" stroke="#63b8ff" points="26.01,-86.16 24.17,-75.73 19.1,-85.03 26.01,-86.16"/>
</g>
<!-- Node11 -->
<g id="node11" class="node">
<title>Node11</title>
<g id="a_node11"><a xlink:href="cell__coordinate_8h.html" target="_top" xlink:title="Container for {ijk} or {IJK} grouped variables.">
<polygon fill="white" stroke="#666666" points="1007.12,-185 917.62,-185 917.62,-165.75 1007.12,-165.75 1007.12,-185"/>
<text text-anchor="middle" x="962.38" y="-171.5" font-family="Helvetica,sans-Serif" font-size="10.00">cell_coordinate.h</text>
</a>
</g>
</g>
<!-- Node10&#45;&gt;Node11 -->
<g id="edge15" class="edge">
<title>Node10&#45;&gt;Node11</title>
<path fill="none" stroke="#63b8ff" d="M866.89,-276C884.25,-257.88 924.03,-216.38 946.37,-193.07"/>
<polygon fill="#63b8ff" stroke="#63b8ff" points="948.35,-196.02 952.75,-186.38 943.3,-191.17 948.35,-196.02"/>
</g>
<!-- Node14 -->
<g id="node14" class="node">
<title>Node14</title>
<g id="a_node14"><a xlink:href="dimensions_8h.html" target="_top" xlink:title="Defines a class that serves as an explicit converter between MATLAB pointers and array dimensions.">
<polygon fill="white" stroke="#666666" points="1181.25,-240.25 1107.5,-240.25 1107.5,-221 1181.25,-221 1181.25,-240.25"/>
<text text-anchor="middle" x="1144.38" y="-226.75" font-family="Helvetica,sans-Serif" font-size="10.00">dimensions.h</text>
</a>
</g>
</g>
<!-- Node10&#45;&gt;Node14 -->
<g id="edge18" class="edge">
<title>Node10&#45;&gt;Node14</title>
<path fill="none" stroke="#63b8ff" d="M879.87,-280.87C925.68,-272.34 1033.84,-252.21 1096.75,-240.49"/>
<polygon fill="#63b8ff" stroke="#63b8ff" points="1097,-243.82 1106.19,-238.55 1095.72,-236.94 1097,-243.82"/>
</g>
<!-- Node15 -->
<g id="node15" class="node">
<title>Node15</title>
<g id="a_node15"><a xlink:href="mat__io_8h.html" target="_top" xlink:title="Includes MATLAB headers for I/O.">
<polygon fill="white" stroke="#666666" points="1026.12,-74.5 972.62,-74.5 972.62,-55.25 1026.12,-55.25 1026.12,-74.5"/>
<text text-anchor="middle" x="999.38" y="-61" font-family="Helvetica,sans-Serif" font-size="10.00">mat_io.h</text>
</a>
</g>
</g>
<!-- Node10&#45;&gt;Node15 -->
<g id="edge30" class="edge">
<title>Node10&#45;&gt;Node15</title>
<path fill="none" stroke="#63b8ff" d="M879.67,-278.48C927.99,-262.64 1044.98,-216.46 1087.38,-129.75 1100.1,-103.73 1065.97,-85.96 1036.57,-75.89"/>
<polygon fill="#63b8ff" stroke="#63b8ff" points="1038.05,-72.37 1027.46,-72.65 1035.91,-79.04 1038.05,-72.37"/>
</g>
<!-- Node19 -->
<g id="node19" class="node">
<title>Node19</title>
<g id="a_node19"><a xlink:href="input__flags_8h.html" target="_top" xlink:title="Organises enumerated constants, names, and classes for handling flag&#45;variables that are passed to TDM...">
<polygon fill="white" stroke="#666666" points="894.12,-185 822.62,-185 822.62,-165.75 894.12,-165.75 894.12,-185"/>
<text text-anchor="middle" x="858.38" y="-171.5" font-family="Helvetica,sans-Serif" font-size="10.00">input_flags.h</text>
</a>
</g>
</g>
<!-- Node10&#45;&gt;Node19 -->
<g id="edge23" class="edge">
<title>Node10&#45;&gt;Node19</title>
<path fill="none" stroke="#63b8ff" d="M858.38,-276C858.38,-258.67 858.38,-219.98 858.38,-196.24"/>
<polygon fill="#63b8ff" stroke="#63b8ff" points="861.88,-196.38 858.38,-186.38 854.88,-196.38 861.88,-196.38"/>
</g>
<!-- Node21 -->
<g id="node21" class="node">
<title>Node21</title>
<g id="a_node21"><a xlink:href="simulation__parameters_8h.html" target="_top" xlink:title="Classes collecting parameters for the simulation.">
<polygon fill="white" stroke="#666666" points="521.62,-240.25 399.12,-240.25 399.12,-221 521.62,-221 521.62,-240.25"/>
<text text-anchor="middle" x="460.38" y="-226.75" font-family="Helvetica,sans-Serif" font-size="10.00">simulation_parameters.h</text>
</a>
</g>
</g>
<!-- Node10&#45;&gt;Node21 -->
<g id="edge31" class="edge">
<title>Node10&#45;&gt;Node21</title>
<path fill="none" stroke="#63b8ff" d="M836.98,-282.01C780.44,-274.45 625.11,-253.67 532.54,-241.28"/>
<polygon fill="#63b8ff" stroke="#63b8ff" points="533.23,-237.71 522.85,-239.85 532.3,-244.65 533.23,-237.71"/>
</g>
<!-- Node12 -->
<g id="node12" class="node">
<title>Node12</title>
<g id="a_node12"><a xlink:title=" ">
<polygon fill="#e0e0e0" stroke="#999999" points="1004.5,-129.75 920.25,-129.75 920.25,-110.5 1004.5,-110.5 1004.5,-129.75"/>
<text text-anchor="middle" x="962.38" y="-116.25" font-family="Helvetica,sans-Serif" font-size="10.00">spdlog/spdlog.h</text>
</a>
</g>
</g>
<!-- Node11&#45;&gt;Node12 -->
<g id="edge16" class="edge">
<title>Node11&#45;&gt;Node12</title>
<path fill="none" stroke="#63b8ff" d="M962.38,-165.58C962.38,-158.92 962.38,-149.49 962.38,-141.03"/>
<polygon fill="#63b8ff" stroke="#63b8ff" points="965.88,-141.11 962.38,-131.11 958.88,-141.11 965.88,-141.11"/>
</g>
<!-- Node13 -->
<g id="node13" class="node">
<title>Node13</title>
<g id="a_node13"><a xlink:title=" ">
<polygon fill="#e0e0e0" stroke="#999999" points="1078.25,-129.75 1022.5,-129.75 1022.5,-110.5 1078.25,-110.5 1078.25,-129.75"/>
<text text-anchor="middle" x="1050.38" y="-116.25" font-family="Helvetica,sans-Serif" font-size="10.00">algorithm</text>
</a>
</g>
</g>
<!-- Node11&#45;&gt;Node13 -->
<g id="edge17" class="edge">
<title>Node11&#45;&gt;Node13</title>
<path fill="none" stroke="#63b8ff" d="M977.3,-165.34C990.7,-157.23 1010.62,-145.18 1026.27,-135.71"/>
<polygon fill="#63b8ff" stroke="#63b8ff" points="1027.63,-138.37 1034.37,-130.2 1024.01,-132.39 1027.63,-138.37"/>
</g>
<!-- Node14&#45;&gt;Node15 -->
<g id="edge19" class="edge">
<title>Node14&#45;&gt;Node15</title>
<path fill="none" stroke="#63b8ff" d="M1145.3,-220.6C1147,-198.88 1148.23,-143.03 1120.38,-110.5 1099.58,-86.21 1064.32,-75.13 1037.22,-70.09"/>
<polygon fill="#63b8ff" stroke="#63b8ff" points="1037.97,-66.5 1027.54,-68.33 1036.83,-73.41 1037.97,-66.5"/>
</g>
<!-- Node16 -->
<g id="node16" class="node">
<title>Node16</title>
<g id="a_node16"><a xlink:title=" ">
<polygon fill="#e0e0e0" stroke="#999999" points="955.75,-19.25 915,-19.25 915,0 955.75,0 955.75,-19.25"/>
<text text-anchor="middle" x="935.38" y="-5.75" font-family="Helvetica,sans-Serif" font-size="10.00">mat.h</text>
</a>
</g>
</g>
<!-- Node15&#45;&gt;Node16 -->
<g id="edge20" class="edge">
<title>Node15&#45;&gt;Node16</title>
<path fill="none" stroke="#63b8ff" d="M988.52,-54.84C979.18,-47.07 965.48,-35.67 954.33,-26.4"/>
<polygon fill="#63b8ff" stroke="#63b8ff" points="957,-23.23 947.07,-19.52 952.52,-28.61 957,-23.23"/>
</g>
<!-- Node17 -->
<g id="node17" class="node">
<title>Node17</title>
<g id="a_node17"><a xlink:title=" ">
<polygon fill="#e0e0e0" stroke="#999999" points="1025,-19.25 973.75,-19.25 973.75,0 1025,0 1025,-19.25"/>
<text text-anchor="middle" x="999.38" y="-5.75" font-family="Helvetica,sans-Serif" font-size="10.00">matrix.h</text>
</a>
</g>
</g>
<!-- Node15&#45;&gt;Node17 -->
<g id="edge21" class="edge">
<title>Node15&#45;&gt;Node17</title>
<path fill="none" stroke="#63b8ff" d="M999.38,-55.08C999.38,-48.42 999.38,-38.99 999.38,-30.53"/>
<polygon fill="#63b8ff" stroke="#63b8ff" points="1002.88,-30.61 999.38,-20.61 995.88,-30.61 1002.88,-30.61"/>
</g>
<!-- Node18 -->
<g id="node18" class="node">
<title>Node18</title>
<g id="a_node18"><a xlink:title=" ">
<polygon fill="#e0e0e0" stroke="#999999" points="1085.88,-19.25 1042.88,-19.25 1042.88,0 1085.88,0 1085.88,-19.25"/>
<text text-anchor="middle" x="1064.38" y="-5.75" font-family="Helvetica,sans-Serif" font-size="10.00">mex.h</text>
</a>
</g>
</g>
<!-- Node15&#45;&gt;Node18 -->
<g id="edge22" class="edge">
<title>Node15&#45;&gt;Node18</title>
<path fill="none" stroke="#63b8ff" d="M1010.4,-54.84C1019.89,-47.07 1033.8,-35.67 1045.12,-26.4"/>
<polygon fill="#63b8ff" stroke="#63b8ff" points="1046.99,-28.57 1052.51,-19.52 1042.56,-23.15 1046.99,-28.57"/>
</g>
<!-- Node19&#45;&gt;Node4 -->
<g id="edge25" class="edge">
<title>Node19&#45;&gt;Node4</title>
<path fill="none" stroke="#63b8ff" d="M841.58,-165.34C826.22,-157.08 803.26,-144.73 785.5,-135.18"/>
<polygon fill="#63b8ff" stroke="#63b8ff" points="787.72,-131.86 777.25,-130.2 784.4,-138.02 787.72,-131.86"/>
</g>
<!-- Node19&#45;&gt;Node5 -->
<g id="edge26" class="edge">
<title>Node19&#45;&gt;Node5</title>
<path fill="none" stroke="#63b8ff" d="M822.42,-172.82C739.53,-168.81 537.38,-156.51 475.38,-129.75 450.77,-119.13 428.02,-97.85 413.94,-82.77"/>
<polygon fill="#63b8ff" stroke="#63b8ff" points="417,-80.83 407.71,-75.74 411.8,-85.51 417,-80.83"/>
</g>
<!-- Node19&#45;&gt;Node12 -->
<g id="edge28" class="edge">
<title>Node19&#45;&gt;Node12</title>
<path fill="none" stroke="#63b8ff" d="M876.02,-165.34C892.15,-157.08 916.28,-144.73 934.93,-135.18"/>
<polygon fill="#63b8ff" stroke="#63b8ff" points="936.34,-137.88 943.65,-130.2 933.15,-131.64 936.34,-137.88"/>
</g>
<!-- Node19&#45;&gt;Node13 -->
<g id="edge24" class="edge">
<title>Node19&#45;&gt;Node13</title>
<path fill="none" stroke="#63b8ff" d="M890.95,-165.34C924.3,-156.09 976.14,-141.71 1011.59,-131.88"/>
<polygon fill="#63b8ff" stroke="#63b8ff" points="1012.33,-135.03 1021.03,-128.99 1010.46,-128.29 1012.33,-135.03"/>
</g>
<!-- Node19&#45;&gt;Node15 -->
<g id="edge29" class="edge">
<title>Node19&#45;&gt;Node15</title>
<path fill="none" stroke="#63b8ff" d="M863.96,-165.55C872.74,-152.24 890.88,-126.86 911.38,-110.5 927.71,-97.46 948.47,-86.71 965.73,-79.03"/>
<polygon fill="#63b8ff" stroke="#63b8ff" points="966.61,-82.03 974.42,-74.87 963.85,-75.6 966.61,-82.03"/>
</g>
<!-- Node20 -->
<g id="node20" class="node">
<title>Node20</title>
<g id="a_node20"><a xlink:title=" ">
<polygon fill="#e0e0e0" stroke="#999999" points="684.88,-74.5 641.88,-74.5 641.88,-55.25 684.88,-55.25 684.88,-74.5"/>
<text text-anchor="middle" x="663.38" y="-61" font-family="Helvetica,sans-Serif" font-size="10.00">vector</text>
</a>
</g>
</g>
<!-- Node19&#45;&gt;Node20 -->
<g id="edge27" class="edge">
<title>Node19&#45;&gt;Node20</title>
<path fill="none" stroke="#63b8ff" d="M852.27,-165.64C842.29,-151.99 821.21,-125.61 797.38,-110.5 765.75,-90.45 724.16,-78.44 695.76,-72.01"/>
<polygon fill="#63b8ff" stroke="#63b8ff" points="696.71,-68.42 686.2,-69.74 695.24,-75.27 696.71,-68.42"/>
</g>
<!-- Node21&#45;&gt;Node2 -->
<g id="edge33" class="edge">
<title>Node21&#45;&gt;Node2</title>
<path fill="none" stroke="#63b8ff" d="M419.05,-220.53C372.88,-210.37 298.85,-194.08 254.78,-184.39"/>
<polygon fill="#63b8ff" stroke="#63b8ff" points="255.77,-180.8 245.25,-182.07 254.27,-187.64 255.77,-180.8"/>
</g>
<!-- Node21&#45;&gt;Node5 -->
<g id="edge32" class="edge">
<title>Node21&#45;&gt;Node5</title>
<path fill="none" stroke="#63b8ff" d="M456.7,-220.58C449.64,-203.11 433.76,-163.47 421.38,-129.75 415.86,-114.75 409.99,-97.61 405.69,-84.87"/>
<polygon fill="#63b8ff" stroke="#63b8ff" points="408.75,-83.97 402.25,-75.59 402.11,-86.19 408.75,-83.97"/>
</g>
<!-- Node22 -->
<g id="node22" class="node">
<title>Node22</title>
<g id="a_node22"><a xlink:href="input__matrices_8h.html" target="_top" xlink:title="Class handling the input matrices that are read in from the input file.">
<polygon fill="white" stroke="#666666" points="584.38,-185 496.38,-185 496.38,-165.75 584.38,-165.75 584.38,-185"/>
<text text-anchor="middle" x="540.38" y="-171.5" font-family="Helvetica,sans-Serif" font-size="10.00">input_matrices.h</text>
</a>
</g>
</g>
<!-- Node21&#45;&gt;Node22 -->
<g id="edge34" class="edge">
<title>Node21&#45;&gt;Node22</title>
<path fill="none" stroke="#63b8ff" d="M473.95,-220.59C485.9,-212.64 503.55,-200.89 517.65,-191.5"/>
<polygon fill="#63b8ff" stroke="#63b8ff" points="519.35,-193.91 525.74,-185.45 515.47,-188.08 519.35,-193.91"/>
</g>
<!-- Node22&#45;&gt;Node5 -->
<g id="edge35" class="edge">
<title>Node22&#45;&gt;Node5</title>
<path fill="none" stroke="#63b8ff" d="M509.65,-165.3C489,-158.09 462.06,-146.43 442.38,-129.75 427.58,-117.22 415.75,-98.39 408.27,-84.41"/>
<polygon fill="#63b8ff" stroke="#63b8ff" points="411.07,-83.19 403.42,-75.86 404.83,-86.36 411.07,-83.19"/>
</g>
<!-- Node22&#45;&gt;Node15 -->
<g id="edge39" class="edge">
<title>Node22&#45;&gt;Node15</title>
<path fill="none" stroke="#63b8ff" d="M584.86,-168.5C636.4,-161.27 723.68,-147.71 797.38,-129.75 856.79,-115.27 924.23,-92.66 964.21,-78.58"/>
<polygon fill="#63b8ff" stroke="#63b8ff" points="965.23,-81.58 973.49,-74.94 962.89,-74.98 965.23,-81.58"/>
</g>
<!-- Node23 -->
<g id="node23" class="node">
<title>Node23</title>
<g id="a_node23"><a xlink:href="input__output__names_8h.html" target="_top" xlink:title="Constant values associated with the format of the input and output files and matrices.">
<polygon fill="white" stroke="#666666" points="596.38,-129.75 484.38,-129.75 484.38,-110.5 596.38,-110.5 596.38,-129.75"/>
<text text-anchor="middle" x="540.38" y="-116.25" font-family="Helvetica,sans-Serif" font-size="10.00">input_output_names.h</text>
</a>
</g>
</g>
<!-- Node22&#45;&gt;Node23 -->
<g id="edge36" class="edge">
<title>Node22&#45;&gt;Node23</title>
<path fill="none" stroke="#63b8ff" d="M540.38,-165.58C540.38,-158.92 540.38,-149.49 540.38,-141.03"/>
<polygon fill="#63b8ff" stroke="#63b8ff" points="543.88,-141.11 540.38,-131.11 536.88,-141.11 543.88,-141.11"/>
</g>
<!-- Node24 -->
<g id="node24" class="node">
<title>Node24</title>
<g id="a_node24"><a xlink:href="matrix__collection_8h.html" target="_top" xlink:title="A collection of named MATLAB matrices.">
<polygon fill="white" stroke="#666666" points="712.25,-129.75 614.5,-129.75 614.5,-110.5 712.25,-110.5 712.25,-129.75"/>
<text text-anchor="middle" x="663.38" y="-116.25" font-family="Helvetica,sans-Serif" font-size="10.00">matrix_collection.h</text>
</a>
</g>
</g>
<!-- Node22&#45;&gt;Node24 -->
<g id="edge40" class="edge">
<title>Node22&#45;&gt;Node24</title>
<path fill="none" stroke="#63b8ff" d="M561.24,-165.34C580.77,-156.89 610.18,-144.15 632.44,-134.52"/>
<polygon fill="#63b8ff" stroke="#63b8ff" points="633.62,-137.39 641.41,-130.2 630.84,-130.96 633.62,-137.39"/>
</g>
<!-- Node23&#45;&gt;Node5 -->
<g id="edge37" class="edge">
<title>Node23&#45;&gt;Node5</title>
<path fill="none" stroke="#63b8ff" d="M516.46,-110.09C492.56,-101.07 455.75,-87.17 429.79,-77.36"/>
<polygon fill="#63b8ff" stroke="#63b8ff" points="431.34,-73.83 420.74,-73.57 428.86,-80.37 431.34,-73.83"/>
</g>
<!-- Node23&#45;&gt;Node20 -->
<g id="edge38" class="edge">
<title>Node23&#45;&gt;Node20</title>
<path fill="none" stroke="#63b8ff" d="M561.24,-110.09C580.77,-101.64 610.18,-88.9 632.44,-79.27"/>
<polygon fill="#63b8ff" stroke="#63b8ff" points="633.62,-82.14 641.41,-74.95 630.84,-75.71 633.62,-82.14"/>
</g>
<!-- Node24&#45;&gt;Node5 -->
<g id="edge41" class="edge">
<title>Node24&#45;&gt;Node5</title>
<path fill="none" stroke="#63b8ff" d="M618.29,-110.03C564.69,-99.22 476.66,-81.46 430.24,-72.1"/>
<polygon fill="#63b8ff" stroke="#63b8ff" points="431.15,-68.51 420.65,-69.97 429.76,-75.37 431.15,-68.51"/>
</g>
<!-- Node24&#45;&gt;Node15 -->
<g id="edge43" class="edge">
<title>Node24&#45;&gt;Node15</title>
<path fill="none" stroke="#63b8ff" d="M712.59,-111.32C780.2,-100.61 900.36,-81.57 961.45,-71.89"/>
<polygon fill="#63b8ff" stroke="#63b8ff" points="961.81,-75.21 971.14,-70.19 960.72,-68.3 961.81,-75.21"/>
</g>
<!-- Node24&#45;&gt;Node20 -->
<g id="edge42" class="edge">
<title>Node24&#45;&gt;Node20</title>
<path fill="none" stroke="#63b8ff" d="M663.38,-110.33C663.38,-103.67 663.38,-94.24 663.38,-85.78"/>
<polygon fill="#63b8ff" stroke="#63b8ff" points="666.88,-85.86 663.38,-75.86 659.88,-85.86 666.88,-85.86"/>
</g>
<!-- Node25&#45;&gt;Node15 -->
<g id="edge45" class="edge">
<title>Node25&#45;&gt;Node15</title>
<path fill="none" stroke="#63b8ff" d="M1107.11,-282.08C1134.91,-277.81 1171.77,-267.09 1190.38,-240.25 1195.25,-233.22 1192.21,-229.36 1190.38,-221 1178.77,-168.17 1179.92,-146.31 1139.38,-110.5 1110.85,-85.31 1068.03,-74.32 1037.26,-69.54"/>
<polygon fill="#63b8ff" stroke="#63b8ff" points="1037.91,-65.96 1027.52,-68.05 1036.94,-72.89 1037.91,-65.96"/>
</g>
</g>
</svg>
