<?xml version="1.0" encoding="UTF-8" standalone="no"?>
<!DOCTYPE svg PUBLIC "-//W3C//DTD SVG 1.1//EN"
 "http://www.w3.org/Graphics/SVG/1.1/DTD/svg11.dtd">
<!-- Generated by graphviz version 8.0.5 (20230430.1635)
 -->
<!-- Title: tdms/include/surface_phasors.h Pages: 1 -->
<svg width="1101pt" height="370pt"
 viewBox="0.00 0.00 1101.25 370.00" xmlns="http://www.w3.org/2000/svg" xmlns:xlink="http://www.w3.org/1999/xlink">
<g id="graph0" class="graph" transform="scale(1 1) rotate(0) translate(4 366)">
<title>tdms/include/surface_phasors.h</title>
<!-- Node1 -->
<g id="node1" class="node">
<title>Node1</title>
<g id="a_node1"><a xlink:title="Contains a class that handles the complex amplitude extraction.">
<polygon fill="#999999" stroke="#666666" points="510.75,-362 404,-362 404,-331.5 510.75,-331.5 510.75,-362"/>
<text text-anchor="start" x="412" y="-348.5" font-family="Helvetica,sans-Serif" font-size="10.00">tdms/include/surface</text>
<text text-anchor="middle" x="457.38" y="-337.25" font-family="Helvetica,sans-Serif" font-size="10.00">_phasors.h</text>
</a>
</g>
</g>
<!-- Node2 -->
<g id="node2" class="node">
<title>Node2</title>
<g id="a_node2"><a xlink:href="arrays_8h.html" target="_top" xlink:title="Classes describing arrays, vertices etc.">
<polygon fill="white" stroke="#666666" points="248,-185 196.75,-185 196.75,-165.75 248,-165.75 248,-185"/>
<text text-anchor="middle" x="222.38" y="-171.5" font-family="Helvetica,sans-Serif" font-size="10.00">arrays.h</text>
</a>
</g>
</g>
<!-- Node1&#45;&gt;Node2 -->
<g id="edge1" class="edge">
<title>Node1&#45;&gt;Node2</title>
<path fill="none" stroke="#63b8ff" d="M436.93,-331.02C392.73,-299.16 288.63,-224.13 243.67,-191.72"/>
<polygon fill="#63b8ff" stroke="#63b8ff" points="246.17,-188.49 236.01,-185.49 242.08,-194.17 246.17,-188.49"/>
</g>
<!-- Node10 -->
<g id="node10" class="node">
<title>Node10</title>
<g id="a_node10"><a xlink:href="field_8h.html" target="_top" xlink:title="Classes for the electric and magnetic (split) fields on a grid.">
<polygon fill="white" stroke="#666666" points="478.5,-295.5 436.25,-295.5 436.25,-276.25 478.5,-276.25 478.5,-295.5"/>
<text text-anchor="middle" x="457.38" y="-282" font-family="Helvetica,sans-Serif" font-size="10.00">field.h</text>
</a>
</g>
</g>
<!-- Node1&#45;&gt;Node10 -->
<g id="edge12" class="edge">
<title>Node1&#45;&gt;Node10</title>
<path fill="none" stroke="#63b8ff" d="M457.38,-331.2C457.38,-323.87 457.38,-314.87 457.38,-306.91"/>
<polygon fill="#63b8ff" stroke="#63b8ff" points="460.88,-306.95 457.38,-296.95 453.88,-306.95 460.88,-306.95"/>
</g>
<!-- Node24 -->
<g id="node24" class="node">
<title>Node24</title>
<g id="a_node24"><a xlink:href="grid__labels_8h.html" target="_top" xlink:title="Class to hold the labels of a Yee cell.">
<polygon fill="white" stroke="#666666" points="754.75,-295.5 684,-295.5 684,-276.25 754.75,-276.25 754.75,-295.5"/>
<text text-anchor="middle" x="719.38" y="-282" font-family="Helvetica,sans-Serif" font-size="10.00">grid_labels.h</text>
</a>
</g>
</g>
<!-- Node1&#45;&gt;Node24 -->
<g id="edge38" class="edge">
<title>Node1&#45;&gt;Node24</title>
<path fill="none" stroke="#63b8ff" d="M511.03,-333.69C558.74,-322.97 627.79,-307.46 673.12,-297.27"/>
<polygon fill="#63b8ff" stroke="#63b8ff" points="673.83,-300.47 682.82,-294.86 672.3,-293.64 673.83,-300.47"/>
</g>
<!-- Node3 -->
<g id="node3" class="node">
<title>Node3</title>
<g id="a_node3"><a xlink:title=" ">
<polygon fill="#e0e0e0" stroke="#999999" points="52.75,-74.5 0,-74.5 0,-55.25 52.75,-55.25 52.75,-74.5"/>
<text text-anchor="middle" x="26.38" y="-61" font-family="Helvetica,sans-Serif" font-size="10.00">complex</text>
</a>
</g>
</g>
<!-- Node2&#45;&gt;Node3 -->
<g id="edge2" class="edge">
<title>Node2&#45;&gt;Node3</title>
<path fill="none" stroke="#63b8ff" d="M196.44,-171.01C152.71,-164.85 66.94,-150.42 45.38,-129.75 33.37,-118.24 28.86,-99.52 27.21,-85.31"/>
<polygon fill="#63b8ff" stroke="#63b8ff" points="30.65,-85.4 26.39,-75.69 23.67,-85.93 30.65,-85.4"/>
</g>
<!-- Node4 -->
<g id="node4" class="node">
<title>Node4</title>
<g id="a_node4"><a xlink:title=" ">
<polygon fill="#e0e0e0" stroke="#999999" points="285.75,-129.75 227,-129.75 227,-110.5 285.75,-110.5 285.75,-129.75"/>
<text text-anchor="middle" x="256.38" y="-116.25" font-family="Helvetica,sans-Serif" font-size="10.00">stdexcept</text>
</a>
</g>
</g>
<!-- Node2&#45;&gt;Node4 -->
<g id="edge3" class="edge">
<title>Node2&#45;&gt;Node4</title>
<path fill="none" stroke="#63b8ff" d="M227.99,-165.58C232.54,-158.46 239.1,-148.18 244.77,-139.3"/>
<polygon fill="#63b8ff" stroke="#63b8ff" points="248.21,-141.42 250.64,-131.11 242.31,-137.65 248.21,-141.42"/>
</g>
<!-- Node5 -->
<g id="node5" class="node">
<title>Node5</title>
<g id="a_node5"><a xlink:title=" ">
<polygon fill="#e0e0e0" stroke="#999999" points="477.38,-74.5 437.38,-74.5 437.38,-55.25 477.38,-55.25 477.38,-74.5"/>
<text text-anchor="middle" x="457.38" y="-61" font-family="Helvetica,sans-Serif" font-size="10.00">string</text>
</a>
</g>
</g>
<!-- Node2&#45;&gt;Node5 -->
<g id="edge4" class="edge">
<title>Node2&#45;&gt;Node5</title>
<path fill="none" stroke="#63b8ff" d="M201.11,-165.33C175.89,-153.37 139.4,-131.35 157.38,-110.5 191.9,-70.46 356.87,-65.78 426.38,-65.62"/>
<polygon fill="#63b8ff" stroke="#63b8ff" points="426.06,-69.12 436.06,-65.63 426.07,-62.12 426.06,-69.12"/>
</g>
<!-- Node6 -->
<g id="node6" class="node">
<title>Node6</title>
<g id="a_node6"><a xlink:title=" ">
<polygon fill="#e0e0e0" stroke="#999999" points="349.38,-129.75 303.38,-129.75 303.38,-110.5 349.38,-110.5 349.38,-129.75"/>
<text text-anchor="middle" x="326.38" y="-116.25" font-family="Helvetica,sans-Serif" font-size="10.00">fftw3.h</text>
</a>
</g>
</g>
<!-- Node2&#45;&gt;Node6 -->
<g id="edge5" class="edge">
<title>Node2&#45;&gt;Node6</title>
<path fill="none" stroke="#63b8ff" d="M240.02,-165.34C256.15,-157.08 280.28,-144.73 298.93,-135.18"/>
<polygon fill="#63b8ff" stroke="#63b8ff" points="300.34,-137.88 307.65,-130.2 297.15,-131.64 300.34,-137.88"/>
</g>
<!-- Node7 -->
<g id="node7" class="node">
<title>Node7</title>
<g id="a_node7"><a xlink:href="globals_8h.html" target="_top" xlink:title="Type definitions and global constants.">
<polygon fill="white" stroke="#666666" points="109.88,-129.75 54.88,-129.75 54.88,-110.5 109.88,-110.5 109.88,-129.75"/>
<text text-anchor="middle" x="82.38" y="-116.25" font-family="Helvetica,sans-Serif" font-size="10.00">globals.h</text>
</a>
</g>
</g>
<!-- Node2&#45;&gt;Node7 -->
<g id="edge6" class="edge">
<title>Node2&#45;&gt;Node7</title>
<path fill="none" stroke="#63b8ff" d="M198.63,-165.34C176,-156.74 141.7,-143.69 116.22,-134"/>
<polygon fill="#63b8ff" stroke="#63b8ff" points="117.83,-130.49 107.24,-130.2 115.34,-137.03 117.83,-130.49"/>
</g>
<!-- Node8 -->
<g id="node8" class="node">
<title>Node8</title>
<g id="a_node8"><a xlink:title=" ">
<polygon fill="#e0e0e0" stroke="#999999" points="428.88,-129.75 367.88,-129.75 367.88,-110.5 428.88,-110.5 428.88,-129.75"/>
<text text-anchor="middle" x="398.38" y="-116.25" font-family="Helvetica,sans-Serif" font-size="10.00">matlabio.h</text>
</a>
</g>
</g>
<!-- Node2&#45;&gt;Node8 -->
<g id="edge9" class="edge">
<title>Node2&#45;&gt;Node8</title>
<path fill="none" stroke="#63b8ff" d="M248.34,-166.52C277.25,-157.77 324.32,-143.53 358.03,-133.33"/>
<polygon fill="#63b8ff" stroke="#63b8ff" points="358.91,-136.42 367.47,-130.17 356.88,-129.72 358.91,-136.42"/>
</g>
<!-- Node9 -->
<g id="node9" class="node">
<title>Node9</title>
<g id="a_node9"><a xlink:href="utils_8h.html" target="_top" xlink:title="Useful miscellaneous utility functions.">
<polygon fill="white" stroke="#666666" points="208.5,-129.75 166.25,-129.75 166.25,-110.5 208.5,-110.5 208.5,-129.75"/>
<text text-anchor="middle" x="187.38" y="-116.25" font-family="Helvetica,sans-Serif" font-size="10.00">utils.h</text>
</a>
</g>
</g>
<!-- Node2&#45;&gt;Node9 -->
<g id="edge10" class="edge">
<title>Node2&#45;&gt;Node9</title>
<path fill="none" stroke="#63b8ff" d="M216.6,-165.58C211.91,-158.46 205.16,-148.18 199.32,-139.3"/>
<polygon fill="#63b8ff" stroke="#63b8ff" points="201.7,-137.54 193.28,-131.11 195.85,-141.39 201.7,-137.54"/>
</g>
<!-- Node7&#45;&gt;Node3 -->
<g id="edge7" class="edge">
<title>Node7&#45;&gt;Node3</title>
<path fill="none" stroke="#63b8ff" d="M72.88,-110.09C64.86,-102.47 53.19,-91.37 43.55,-82.2"/>
<polygon fill="#63b8ff" stroke="#63b8ff" points="46.39,-80.13 36.73,-75.77 41.57,-85.2 46.39,-80.13"/>
</g>
<!-- Node7&#45;&gt;Node5 -->
<g id="edge8" class="edge">
<title>Node7&#45;&gt;Node5</title>
<path fill="none" stroke="#63b8ff" d="M110.34,-113.1C115.01,-112.17 119.82,-111.27 124.38,-110.5 234.9,-91.77 367.15,-76.01 426.22,-69.32"/>
<polygon fill="#63b8ff" stroke="#63b8ff" points="426.48,-72.7 436.03,-68.1 425.7,-65.74 426.48,-72.7"/>
</g>
<!-- Node9&#45;&gt;Node5 -->
<g id="edge11" class="edge">
<title>Node9&#45;&gt;Node5</title>
<path fill="none" stroke="#63b8ff" d="M208.99,-112.85C212.13,-112.02 215.33,-111.21 218.38,-110.5 292.48,-93.31 380.7,-78.2 426.43,-70.77"/>
<polygon fill="#63b8ff" stroke="#63b8ff" points="426.79,-74.1 436.11,-69.05 425.68,-67.19 426.79,-74.1"/>
</g>
<!-- Node10&#45;&gt;Node2 -->
<g id="edge14" class="edge">
<title>Node10&#45;&gt;Node2</title>
<path fill="none" stroke="#63b8ff" d="M437.74,-275.81C396.53,-256.78 300.8,-212.58 252.05,-190.08"/>
<polygon fill="#63b8ff" stroke="#63b8ff" points="253.66,-186.5 243.12,-185.49 250.73,-192.86 253.66,-186.5"/>
</g>
<!-- Node10&#45;&gt;Node3 -->
<g id="edge13" class="edge">
<title>Node10&#45;&gt;Node3</title>
<path fill="none" stroke="#63b8ff" d="M435.77,-284.71C363.81,-282.87 131.07,-266.19 30.38,-129.75 21.09,-117.17 20.8,-99.11 22.43,-85.4"/>
<polygon fill="#63b8ff" stroke="#63b8ff" points="26.02,-86.16 24.17,-75.72 19.11,-85.03 26.02,-86.16"/>
</g>
<!-- Node10&#45;&gt;Node7 -->
<g id="edge23" class="edge">
<title>Node10&#45;&gt;Node7</title>
<path fill="none" stroke="#63b8ff" d="M436.03,-278.79C389.49,-265.13 275.94,-229.71 187.38,-185 157.78,-170.06 125.42,-149.72 104.57,-136.04"/>
<polygon fill="#63b8ff" stroke="#63b8ff" points="106.85,-132.7 96.58,-130.09 102.98,-138.53 106.85,-132.7"/>
</g>
<!-- Node11 -->
<g id="node11" class="node">
<title>Node11</title>
<g id="a_node11"><a xlink:href="cell__coordinate_8h.html" target="_top" xlink:title="Container for {ijk} or {IJK} grouped variables.">
<polygon fill="white" stroke="#666666" points="1024.12,-240.25 934.62,-240.25 934.62,-221 1024.12,-221 1024.12,-240.25"/>
<text text-anchor="middle" x="979.38" y="-226.75" font-family="Helvetica,sans-Serif" font-size="10.00">cell_coordinate.h</text>
</a>
</g>
</g>
<!-- Node10&#45;&gt;Node11 -->
<g id="edge15" class="edge">
<title>Node10&#45;&gt;Node11</title>
<path fill="none" stroke="#63b8ff" d="M478.81,-282.69C554.28,-274.99 809.3,-248.97 923.39,-237.34"/>
<polygon fill="#63b8ff" stroke="#63b8ff" points="923.71,-240.72 933.31,-236.22 923,-233.76 923.71,-240.72"/>
</g>
<!-- Node14 -->
<g id="node14" class="node">
<title>Node14</title>
<g id="a_node14"><a xlink:href="dimensions_8h.html" target="_top" xlink:title="Defines a class that serves as an explicit converter between MATLAB pointers and array dimensions.">
<polygon fill="white" stroke="#666666" points="878.25,-240.25 804.5,-240.25 804.5,-221 878.25,-221 878.25,-240.25"/>
<text text-anchor="middle" x="841.38" y="-226.75" font-family="Helvetica,sans-Serif" font-size="10.00">dimensions.h</text>
</a>
</g>
</g>
<!-- Node10&#45;&gt;Node14 -->
<g id="edge18" class="edge">
<title>Node10&#45;&gt;Node14</title>
<path fill="none" stroke="#63b8ff" d="M478.84,-282.26C531.82,-275.74 673.01,-258.03 790.38,-240.25 791.35,-240.1 792.33,-239.95 793.32,-239.8"/>
<polygon fill="#63b8ff" stroke="#63b8ff" points="793.75,-243.12 803.08,-238.08 792.65,-236.2 793.75,-243.12"/>
</g>
<!-- Node15 -->
<g id="node15" class="node">
<title>Node15</title>
<g id="a_node15"><a xlink:href="mat__io_8h.html" target="_top" xlink:title="Includes MATLAB headers for I/O.">
<polygon fill="white" stroke="#666666" points="844.12,-74.5 790.62,-74.5 790.62,-55.25 844.12,-55.25 844.12,-74.5"/>
<text text-anchor="middle" x="817.38" y="-61" font-family="Helvetica,sans-Serif" font-size="10.00">mat_io.h</text>
</a>
</g>
</g>
<!-- Node10&#45;&gt;Node15 -->
<g id="edge24" class="edge">
<title>Node10&#45;&gt;Node15</title>
<path fill="none" stroke="#63b8ff" d="M478.7,-280.1C535.68,-266.36 693.43,-221.66 786.38,-129.75 798.84,-117.43 807.02,-99.09 811.83,-85.22"/>
<polygon fill="#63b8ff" stroke="#63b8ff" points="815.43,-86.44 815.1,-75.85 808.76,-84.33 815.43,-86.44"/>
</g>
<!-- Node19 -->
<g id="node19" class="node">
<title>Node19</title>
<g id="a_node19"><a xlink:href="simulation__parameters_8h.html" target="_top" xlink:title="Classes collecting parameters for the simulation.">
<polygon fill="white" stroke="#666666" points="518.62,-240.25 396.12,-240.25 396.12,-221 518.62,-221 518.62,-240.25"/>
<text text-anchor="middle" x="457.38" y="-226.75" font-family="Helvetica,sans-Serif" font-size="10.00">simulation_parameters.h</text>
</a>
</g>
</g>
<!-- Node10&#45;&gt;Node19 -->
<g id="edge25" class="edge">
<title>Node10&#45;&gt;Node19</title>
<path fill="none" stroke="#63b8ff" d="M457.38,-276.08C457.38,-269.42 457.38,-259.99 457.38,-251.53"/>
<polygon fill="#63b8ff" stroke="#63b8ff" points="460.88,-251.61 457.38,-241.61 453.88,-251.61 460.88,-251.61"/>
</g>
<!-- Node12 -->
<g id="node12" class="node">
<title>Node12</title>
<g id="a_node12"><a xlink:title=" ">
<polygon fill="#e0e0e0" stroke="#999999" points="1019.5,-185 935.25,-185 935.25,-165.75 1019.5,-165.75 1019.5,-185"/>
<text text-anchor="middle" x="977.38" y="-171.5" font-family="Helvetica,sans-Serif" font-size="10.00">spdlog/spdlog.h</text>
</a>
</g>
</g>
<!-- Node11&#45;&gt;Node12 -->
<g id="edge16" class="edge">
<title>Node11&#45;&gt;Node12</title>
<path fill="none" stroke="#63b8ff" d="M979.04,-220.83C978.79,-214.17 978.44,-204.74 978.12,-196.28"/>
<polygon fill="#63b8ff" stroke="#63b8ff" points="981.59,-196.22 977.71,-186.36 974.59,-196.48 981.59,-196.22"/>
</g>
<!-- Node13 -->
<g id="node13" class="node">
<title>Node13</title>
<g id="a_node13"><a xlink:title=" ">
<polygon fill="#e0e0e0" stroke="#999999" points="1093.25,-185 1037.5,-185 1037.5,-165.75 1093.25,-165.75 1093.25,-185"/>
<text text-anchor="middle" x="1065.38" y="-171.5" font-family="Helvetica,sans-Serif" font-size="10.00">algorithm</text>
</a>
</g>
</g>
<!-- Node11&#45;&gt;Node13 -->
<g id="edge17" class="edge">
<title>Node11&#45;&gt;Node13</title>
<path fill="none" stroke="#63b8ff" d="M993.96,-220.59C1006.94,-212.56 1026.15,-200.66 1041.39,-191.23"/>
<polygon fill="#63b8ff" stroke="#63b8ff" points="1043.06,-193.69 1049.71,-185.45 1039.37,-187.74 1043.06,-193.69"/>
</g>
<!-- Node14&#45;&gt;Node15 -->
<g id="edge19" class="edge">
<title>Node14&#45;&gt;Node15</title>
<path fill="none" stroke="#63b8ff" d="M841.29,-220.57C840.96,-200.53 839.33,-151.03 831.38,-110.5 829.71,-102.04 827.02,-92.93 824.44,-85.15"/>
<polygon fill="#63b8ff" stroke="#63b8ff" points="827.48,-84.23 820.87,-75.95 820.87,-86.55 827.48,-84.23"/>
</g>
<!-- Node16 -->
<g id="node16" class="node">
<title>Node16</title>
<g id="a_node16"><a xlink:title=" ">
<polygon fill="#e0e0e0" stroke="#999999" points="773.75,-19.25 733,-19.25 733,0 773.75,0 773.75,-19.25"/>
<text text-anchor="middle" x="753.38" y="-5.75" font-family="Helvetica,sans-Serif" font-size="10.00">mat.h</text>
</a>
</g>
</g>
<!-- Node15&#45;&gt;Node16 -->
<g id="edge20" class="edge">
<title>Node15&#45;&gt;Node16</title>
<path fill="none" stroke="#63b8ff" d="M806.52,-54.84C797.18,-47.07 783.48,-35.67 772.33,-26.4"/>
<polygon fill="#63b8ff" stroke="#63b8ff" points="775,-23.23 765.07,-19.52 770.52,-28.61 775,-23.23"/>
</g>
<!-- Node17 -->
<g id="node17" class="node">
<title>Node17</title>
<g id="a_node17"><a xlink:title=" ">
<polygon fill="#e0e0e0" stroke="#999999" points="843,-19.25 791.75,-19.25 791.75,0 843,0 843,-19.25"/>
<text text-anchor="middle" x="817.38" y="-5.75" font-family="Helvetica,sans-Serif" font-size="10.00">matrix.h</text>
</a>
</g>
</g>
<!-- Node15&#45;&gt;Node17 -->
<g id="edge21" class="edge">
<title>Node15&#45;&gt;Node17</title>
<path fill="none" stroke="#63b8ff" d="M817.38,-55.08C817.38,-48.42 817.38,-38.99 817.38,-30.53"/>
<polygon fill="#63b8ff" stroke="#63b8ff" points="820.88,-30.61 817.38,-20.61 813.88,-30.61 820.88,-30.61"/>
</g>
<!-- Node18 -->
<g id="node18" class="node">
<title>Node18</title>
<g id="a_node18"><a xlink:title=" ">
<polygon fill="#e0e0e0" stroke="#999999" points="903.88,-19.25 860.88,-19.25 860.88,0 903.88,0 903.88,-19.25"/>
<text text-anchor="middle" x="882.38" y="-5.75" font-family="Helvetica,sans-Serif" font-size="10.00">mex.h</text>
</a>
</g>
</g>
<!-- Node15&#45;&gt;Node18 -->
<g id="edge22" class="edge">
<title>Node15&#45;&gt;Node18</title>
<path fill="none" stroke="#63b8ff" d="M828.4,-54.84C837.89,-47.07 851.8,-35.67 863.12,-26.4"/>
<polygon fill="#63b8ff" stroke="#63b8ff" points="864.99,-28.57 870.51,-19.52 860.56,-23.15 864.99,-28.57"/>
</g>
<!-- Node19&#45;&gt;Node2 -->
<g id="edge27" class="edge">
<title>Node19&#45;&gt;Node2</title>
<path fill="none" stroke="#63b8ff" d="M417.24,-220.53C372.87,-210.48 301.98,-194.41 259.04,-184.68"/>
<polygon fill="#63b8ff" stroke="#63b8ff" points="260.03,-181.09 249.5,-182.29 258.48,-187.92 260.03,-181.09"/>
</g>
<!-- Node19&#45;&gt;Node5 -->
<g id="edge26" class="edge">
<title>Node19&#45;&gt;Node5</title>
<path fill="none" stroke="#63b8ff" d="M457.38,-220.82C457.38,-195.39 457.38,-121.35 457.38,-85.62"/>
<polygon fill="#63b8ff" stroke="#63b8ff" points="460.88,-85.72 457.38,-75.72 453.88,-85.72 460.88,-85.72"/>
</g>
<!-- Node20 -->
<g id="node20" class="node">
<title>Node20</title>
<g id="a_node20"><a xlink:href="input__matrices_8h.html" target="_top" xlink:title="Class handling the input matrices that are read in from the input file.">
<polygon fill="white" stroke="#666666" points="623.38,-185 535.38,-185 535.38,-165.75 623.38,-165.75 623.38,-185"/>
<text text-anchor="middle" x="579.38" y="-171.5" font-family="Helvetica,sans-Serif" font-size="10.00">input_matrices.h</text>
</a>
</g>
</g>
<!-- Node19&#45;&gt;Node20 -->
<g id="edge28" class="edge">
<title>Node19&#45;&gt;Node20</title>
<path fill="none" stroke="#63b8ff" d="M478.07,-220.59C497.44,-212.14 526.62,-199.4 548.69,-189.77"/>
<polygon fill="#63b8ff" stroke="#63b8ff" points="549.81,-192.66 557.58,-185.45 547.01,-186.25 549.81,-192.66"/>
</g>
<!-- Node20&#45;&gt;Node5 -->
<g id="edge29" class="edge">
<title>Node20&#45;&gt;Node5</title>
<path fill="none" stroke="#63b8ff" d="M564.18,-165.4C550.5,-157 530.2,-143.68 514.38,-129.75 498.06,-115.39 481.78,-96.59 470.83,-83.11"/>
<polygon fill="#63b8ff" stroke="#63b8ff" points="473.13,-81.38 464.15,-75.75 467.66,-85.75 473.13,-81.38"/>
</g>
<!-- Node20&#45;&gt;Node15 -->
<g id="edge33" class="edge">
<title>Node20&#45;&gt;Node15</title>
<path fill="none" stroke="#63b8ff" d="M623.85,-170.83C662.32,-166.1 718.23,-155.13 760.38,-129.75 779.41,-118.29 795.65,-98.43 805.87,-83.89"/>
<polygon fill="#63b8ff" stroke="#63b8ff" points="809.28,-86.1 811.94,-75.84 803.47,-82.2 809.28,-86.1"/>
</g>
<!-- Node21 -->
<g id="node21" class="node">
<title>Node21</title>
<g id="a_node21"><a xlink:href="input__output__names_8h.html" target="_top" xlink:title="Constant values associated with the format of the input and output files and matrices.">
<polygon fill="white" stroke="#666666" points="635.38,-129.75 523.38,-129.75 523.38,-110.5 635.38,-110.5 635.38,-129.75"/>
<text text-anchor="middle" x="579.38" y="-116.25" font-family="Helvetica,sans-Serif" font-size="10.00">input_output_names.h</text>
</a>
</g>
</g>
<!-- Node20&#45;&gt;Node21 -->
<g id="edge30" class="edge">
<title>Node20&#45;&gt;Node21</title>
<path fill="none" stroke="#63b8ff" d="M579.38,-165.58C579.38,-158.92 579.38,-149.49 579.38,-141.03"/>
<polygon fill="#63b8ff" stroke="#63b8ff" points="582.88,-141.11 579.38,-131.11 575.88,-141.11 582.88,-141.11"/>
</g>
<!-- Node23 -->
<g id="node23" class="node">
<title>Node23</title>
<g id="a_node23"><a xlink:href="matrix__collection_8h.html" target="_top" xlink:title="A collection of named MATLAB matrices.">
<polygon fill="white" stroke="#666666" points="751.25,-129.75 653.5,-129.75 653.5,-110.5 751.25,-110.5 751.25,-129.75"/>
<text text-anchor="middle" x="702.38" y="-116.25" font-family="Helvetica,sans-Serif" font-size="10.00">matrix_collection.h</text>
</a>
</g>
</g>
<!-- Node20&#45;&gt;Node23 -->
<g id="edge34" class="edge">
<title>Node20&#45;&gt;Node23</title>
<path fill="none" stroke="#63b8ff" d="M600.24,-165.34C619.77,-156.89 649.18,-144.15 671.44,-134.52"/>
<polygon fill="#63b8ff" stroke="#63b8ff" points="672.62,-137.39 680.41,-130.2 669.84,-130.96 672.62,-137.39"/>
</g>
<!-- Node21&#45;&gt;Node5 -->
<g id="edge31" class="edge">
<title>Node21&#45;&gt;Node5</title>
<path fill="none" stroke="#63b8ff" d="M558.68,-110.09C539.19,-101.59 509.78,-88.75 487.66,-79.09"/>
<polygon fill="#63b8ff" stroke="#63b8ff" points="489.33,-75.57 478.76,-74.77 486.53,-81.98 489.33,-75.57"/>
</g>
<!-- Node22 -->
<g id="node22" class="node">
<title>Node22</title>
<g id="a_node22"><a xlink:title=" ">
<polygon fill="#e0e0e0" stroke="#999999" points="661.88,-74.5 618.88,-74.5 618.88,-55.25 661.88,-55.25 661.88,-74.5"/>
<text text-anchor="middle" x="640.38" y="-61" font-family="Helvetica,sans-Serif" font-size="10.00">vector</text>
</a>
</g>
</g>
<!-- Node21&#45;&gt;Node22 -->
<g id="edge32" class="edge">
<title>Node21&#45;&gt;Node22</title>
<path fill="none" stroke="#63b8ff" d="M589.72,-110.09C598.54,-102.4 611.42,-91.15 621.99,-81.93"/>
<polygon fill="#63b8ff" stroke="#63b8ff" points="623.95,-83.99 629.18,-74.77 619.34,-78.71 623.95,-83.99"/>
</g>
<!-- Node23&#45;&gt;Node5 -->
<g id="edge35" class="edge">
<title>Node23&#45;&gt;Node5</title>
<path fill="none" stroke="#63b8ff" d="M660.54,-110.03C611.63,-99.4 531.84,-82.06 488.23,-72.58"/>
<polygon fill="#63b8ff" stroke="#63b8ff" points="489.23,-69 478.71,-70.3 487.74,-75.84 489.23,-69"/>
</g>
<!-- Node23&#45;&gt;Node15 -->
<g id="edge37" class="edge">
<title>Node23&#45;&gt;Node15</title>
<path fill="none" stroke="#63b8ff" d="M721.88,-110.09C739.97,-101.72 767.15,-89.13 787.89,-79.53"/>
<polygon fill="#63b8ff" stroke="#63b8ff" points="789.17,-82.33 796.77,-74.95 786.23,-75.98 789.17,-82.33"/>
</g>
<!-- Node23&#45;&gt;Node22 -->
<g id="edge36" class="edge">
<title>Node23&#45;&gt;Node22</title>
<path fill="none" stroke="#63b8ff" d="M691.86,-110.09C682.9,-102.4 669.8,-91.15 659.06,-81.93"/>
<polygon fill="#63b8ff" stroke="#63b8ff" points="661.6,-78.64 651.74,-74.77 657.04,-83.95 661.6,-78.64"/>
</g>
<!-- Node24&#45;&gt;Node15 -->
<g id="edge39" class="edge">
<title>Node24&#45;&gt;Node15</title>
<path fill="none" stroke="#63b8ff" d="M755.12,-280.48C799.51,-274.2 871.37,-261.06 887.38,-240.25 926.08,-189.93 865.48,-115.34 834.2,-82.47"/>
<polygon fill="#63b8ff" stroke="#63b8ff" points="837.1,-80.4 827.6,-75.7 832.09,-85.3 837.1,-80.4"/>
</g>
</g>
</svg>
