<?xml version="1.0" encoding="UTF-8" standalone="no"?>
<!DOCTYPE svg PUBLIC "-//W3C//DTD SVG 1.1//EN"
 "http://www.w3.org/Graphics/SVG/1.1/DTD/svg11.dtd">
<!-- Generated by graphviz version 9.0.0 (20230911.1827)
 -->
<!-- Title: tdms/include/surface_phasors.h Pages: 1 -->
<svg width="1130pt" height="370pt"
 viewBox="0.00 0.00 1129.63 370.00" xmlns="http://www.w3.org/2000/svg" xmlns:xlink="http://www.w3.org/1999/xlink">
<g id="graph0" class="graph" transform="scale(1 1) rotate(0) translate(4 366)">
<title>tdms/include/surface_phasors.h</title>
<!-- Node1 -->
<g id="Node000001" class="node">
<title>Node1</title>
<g id="a_Node000001"><a xlink:title="Contains a class that handles the complex amplitude extraction.">
<polygon fill="#999999" stroke="#666666" points="367.63,-362 260.88,-362 260.88,-331.5 367.63,-331.5 367.63,-362"/>
<text text-anchor="start" x="268.88" y="-348.5" font-family="Helvetica,sans-Serif" font-size="10.00">tdms/include/surface</text>
<text text-anchor="middle" x="314.25" y="-337.25" font-family="Helvetica,sans-Serif" font-size="10.00">_phasors.h</text>
</a>
</g>
</g>
<!-- Node2 -->
<g id="Node000002" class="node">
<title>Node2</title>
<g id="a_Node000002"><a xlink:href="arrays_8h.html" target="_top" xlink:title="Classes describing arrays, vertices etc.">
<polygon fill="white" stroke="#666666" points="880.88,-185 829.63,-185 829.63,-165.75 880.88,-165.75 880.88,-185"/>
<text text-anchor="middle" x="855.25" y="-171.5" font-family="Helvetica,sans-Serif" font-size="10.00">arrays.h</text>
</a>
</g>
</g>
<!-- Node1&#45;&gt;Node2 -->
<g id="edge1_Node000001_Node000002" class="edge">
<title>Node1&#45;&gt;Node2</title>
<g id="a_edge1_Node000001_Node000002"><a xlink:title=" ">
<path fill="none" stroke="#63b8ff" d="M368.12,-333.18C443.14,-315.18 582.96,-279.83 699.25,-240.25 743.86,-225.07 794.07,-203.71 825.19,-189.96"/>
<polygon fill="#63b8ff" stroke="#63b8ff" points="826.26,-193.31 833.97,-186.05 823.41,-186.92 826.26,-193.31"/>
</a>
</g>
</g>
<!-- Node13 -->
<g id="Node000013" class="node">
<title>Node13</title>
<g id="a_Node000013"><a xlink:href="field_8h.html" target="_top" xlink:title="Classes for the electric and magnetic (split) fields on a grid.">
<polygon fill="white" stroke="#666666" points="335.38,-295.5 293.13,-295.5 293.13,-276.25 335.38,-276.25 335.38,-295.5"/>
<text text-anchor="middle" x="314.25" y="-282" font-family="Helvetica,sans-Serif" font-size="10.00">field.h</text>
</a>
</g>
</g>
<!-- Node1&#45;&gt;Node13 -->
<g id="edge16_Node000001_Node000013" class="edge">
<title>Node1&#45;&gt;Node13</title>
<g id="a_edge16_Node000001_Node000013"><a xlink:title=" ">
<path fill="none" stroke="#63b8ff" d="M314.25,-331.2C314.25,-323.96 314.25,-315.09 314.25,-307.19"/>
<polygon fill="#63b8ff" stroke="#63b8ff" points="317.75,-307.46 314.25,-297.46 310.75,-307.46 317.75,-307.46"/>
</a>
</g>
</g>
<!-- Node29 -->
<g id="Node000029" class="node">
<title>Node29</title>
<g id="a_Node000029"><a xlink:href="grid__labels_8h.html" target="_top" xlink:title="Class to hold the labels of a Yee cell.">
<polygon fill="white" stroke="#666666" points="148.63,-295.5 77.88,-295.5 77.88,-276.25 148.63,-276.25 148.63,-295.5"/>
<text text-anchor="middle" x="113.25" y="-282" font-family="Helvetica,sans-Serif" font-size="10.00">grid_labels.h</text>
</a>
</g>
</g>
<!-- Node1&#45;&gt;Node29 -->
<g id="edge51_Node000001_Node000029" class="edge">
<title>Node1&#45;&gt;Node29</title>
<g id="a_edge51_Node000001_Node000029"><a xlink:title=" ">
<path fill="none" stroke="#63b8ff" d="M264.05,-331.05C230.45,-321.2 186.75,-308.4 155.05,-299.12"/>
<polygon fill="#63b8ff" stroke="#63b8ff" points="156.41,-295.87 145.83,-296.42 154.44,-302.59 156.41,-295.87"/>
</a>
</g>
</g>
<!-- Node3 -->
<g id="Node000003" class="node">
<title>Node3</title>
<g id="a_Node000003"><a xlink:title=" ">
<polygon fill="#e0e0e0" stroke="#999999" points="1121.63,-74.5 1068.88,-74.5 1068.88,-55.25 1121.63,-55.25 1121.63,-74.5"/>
<text text-anchor="middle" x="1095.25" y="-61" font-family="Helvetica,sans-Serif" font-size="10.00">complex</text>
</a>
</g>
</g>
<!-- Node2&#45;&gt;Node3 -->
<g id="edge2_Node000002_Node000003" class="edge">
<title>Node2&#45;&gt;Node3</title>
<g id="a_edge2_Node000002_Node000003"><a xlink:title=" ">
<path fill="none" stroke="#63b8ff" d="M881.32,-172.43C933.43,-168.04 1047.94,-155.63 1076.25,-129.75 1088.41,-118.64 1092.92,-100.14 1094.53,-85.91"/>
<polygon fill="#63b8ff" stroke="#63b8ff" points="1098,-86.51 1095.21,-76.29 1091.01,-86.02 1098,-86.51"/>
</a>
</g>
</g>
<!-- Node4 -->
<g id="Node000004" class="node">
<title>Node4</title>
<g id="a_Node000004"><a xlink:title=" ">
<polygon fill="#e0e0e0" stroke="#999999" points="474.63,-74.5 415.88,-74.5 415.88,-55.25 474.63,-55.25 474.63,-74.5"/>
<text text-anchor="middle" x="445.25" y="-61" font-family="Helvetica,sans-Serif" font-size="10.00">stdexcept</text>
</a>
</g>
</g>
<!-- Node2&#45;&gt;Node4 -->
<g id="edge3_Node000002_Node000004" class="edge">
<title>Node2&#45;&gt;Node4</title>
<g id="a_edge3_Node000002_Node000004"><a xlink:title=" ">
<path fill="none" stroke="#63b8ff" d="M829.13,-172.94C759.71,-168.8 572.12,-155.49 516.25,-129.75 493.06,-119.06 472.07,-98.11 459.03,-83.12"/>
<polygon fill="#63b8ff" stroke="#63b8ff" points="462.06,-81.28 452.96,-75.86 456.69,-85.77 462.06,-81.28"/>
</a>
</g>
</g>
<!-- Node5 -->
<g id="Node000005" class="node">
<title>Node5</title>
<g id="a_Node000005"><a xlink:title=" ">
<polygon fill="#e0e0e0" stroke="#999999" points="783.25,-74.5 743.25,-74.5 743.25,-55.25 783.25,-55.25 783.25,-74.5"/>
<text text-anchor="middle" x="763.25" y="-61" font-family="Helvetica,sans-Serif" font-size="10.00">string</text>
</a>
</g>
</g>
<!-- Node2&#45;&gt;Node5 -->
<g id="edge4_Node000002_Node000005" class="edge">
<title>Node2&#45;&gt;Node5</title>
<g id="a_edge4_Node000002_Node000005"><a xlink:title=" ">
<path fill="none" stroke="#63b8ff" d="M881.29,-169.73C921.05,-161.52 989.72,-142.23 964.25,-110.5 943.39,-84.49 846.2,-72.69 795,-68.2"/>
<polygon fill="#63b8ff" stroke="#63b8ff" points="795.4,-64.73 785.15,-67.39 794.83,-71.7 795.4,-64.73"/>
</a>
</g>
</g>
<!-- Node6 -->
<g id="Node000006" class="node">
<title>Node6</title>
<g id="a_Node000006"><a xlink:title=" ">
<polygon fill="#e0e0e0" stroke="#999999" points="602.75,-74.5 559.75,-74.5 559.75,-55.25 602.75,-55.25 602.75,-74.5"/>
<text text-anchor="middle" x="581.25" y="-61" font-family="Helvetica,sans-Serif" font-size="10.00">vector</text>
</a>
</g>
</g>
<!-- Node2&#45;&gt;Node6 -->
<g id="edge5_Node000002_Node000006" class="edge">
<title>Node2&#45;&gt;Node6</title>
<g id="a_edge5_Node000002_Node000006"><a xlink:title=" ">
<path fill="none" stroke="#63b8ff" d="M829.26,-170.1C795.04,-163.92 733.46,-150.85 684.25,-129.75 653.98,-116.77 622.21,-95.77 602.1,-81.43"/>
<polygon fill="#63b8ff" stroke="#63b8ff" points="604.34,-78.73 594.2,-75.68 600.23,-84.39 604.34,-78.73"/>
</a>
</g>
</g>
<!-- Node7 -->
<g id="Node000007" class="node">
<title>Node7</title>
<g id="a_Node000007"><a xlink:title=" ">
<polygon fill="#e0e0e0" stroke="#999999" points="875.25,-129.75 829.25,-129.75 829.25,-110.5 875.25,-110.5 875.25,-129.75"/>
<text text-anchor="middle" x="852.25" y="-116.25" font-family="Helvetica,sans-Serif" font-size="10.00">fftw3.h</text>
</a>
</g>
</g>
<!-- Node2&#45;&gt;Node7 -->
<g id="edge6_Node000002_Node000007" class="edge">
<title>Node2&#45;&gt;Node7</title>
<g id="a_edge6_Node000002_Node000007"><a xlink:title=" ">
<path fill="none" stroke="#63b8ff" d="M854.76,-165.58C854.39,-158.99 853.86,-149.71 853.39,-141.32"/>
<polygon fill="#63b8ff" stroke="#63b8ff" points="856.9,-141.41 852.85,-131.62 849.91,-141.8 856.9,-141.41"/>
</a>
</g>
</g>
<!-- Node8 -->
<g id="Node000008" class="node">
<title>Node8</title>
<g id="a_Node000008"><a xlink:href="globals_8h.html" target="_top" xlink:title="Type definitions and global constants.">
<polygon fill="white" stroke="#666666" points="1066.75,-129.75 1011.75,-129.75 1011.75,-110.5 1066.75,-110.5 1066.75,-129.75"/>
<text text-anchor="middle" x="1039.25" y="-116.25" font-family="Helvetica,sans-Serif" font-size="10.00">globals.h</text>
</a>
</g>
</g>
<!-- Node2&#45;&gt;Node8 -->
<g id="edge7_Node000002_Node000008" class="edge">
<title>Node2&#45;&gt;Node8</title>
<g id="a_edge7_Node000002_Node000008"><a xlink:title=" ">
<path fill="none" stroke="#63b8ff" d="M881.23,-166.86C912.24,-157.88 964.43,-142.78 1000.28,-132.4"/>
<polygon fill="#63b8ff" stroke="#63b8ff" points="1001.22,-135.78 1009.85,-129.63 999.27,-129.05 1001.22,-135.78"/>
</a>
</g>
</g>
<!-- Node9 -->
<g id="Node000009" class="node">
<title>Node9</title>
<g id="a_Node000009"><a xlink:title=" ">
<polygon fill="#e0e0e0" stroke="#999999" points="954.75,-129.75 893.75,-129.75 893.75,-110.5 954.75,-110.5 954.75,-129.75"/>
<text text-anchor="middle" x="924.25" y="-116.25" font-family="Helvetica,sans-Serif" font-size="10.00">matlabio.h</text>
</a>
</g>
</g>
<!-- Node2&#45;&gt;Node9 -->
<g id="edge10_Node000002_Node000009" class="edge">
<title>Node2&#45;&gt;Node9</title>
<g id="a_edge10_Node000002_Node000009"><a xlink:title=" ">
<path fill="none" stroke="#63b8ff" d="M866.96,-165.34C877.03,-157.57 891.8,-146.17 903.81,-136.9"/>
<polygon fill="#63b8ff" stroke="#63b8ff" points="905.75,-139.83 911.52,-130.95 901.47,-134.29 905.75,-139.83"/>
</a>
</g>
</g>
<!-- Node10 -->
<g id="Node000010" class="node">
<title>Node10</title>
<g id="a_Node000010"><a xlink:href="utils_8h.html" target="_top" xlink:title="Useful miscellaneous utility functions.">
<polygon fill="white" stroke="#666666" points="735.38,-129.75 693.13,-129.75 693.13,-110.5 735.38,-110.5 735.38,-129.75"/>
<text text-anchor="middle" x="714.25" y="-116.25" font-family="Helvetica,sans-Serif" font-size="10.00">utils.h</text>
</a>
</g>
</g>
<!-- Node2&#45;&gt;Node10 -->
<g id="edge11_Node000002_Node000010" class="edge">
<title>Node2&#45;&gt;Node10</title>
<g id="a_edge11_Node000002_Node000010"><a xlink:title=" ">
<path fill="none" stroke="#63b8ff" d="M831.34,-165.34C807.93,-156.5 772.12,-142.98 746.27,-133.22"/>
<polygon fill="#63b8ff" stroke="#63b8ff" points="747.53,-129.95 736.93,-129.69 745.05,-136.5 747.53,-129.95"/>
</a>
</g>
</g>
<!-- Node8&#45;&gt;Node3 -->
<g id="edge8_Node000008_Node000003" class="edge">
<title>Node8&#45;&gt;Node3</title>
<g id="a_edge8_Node000008_Node000003"><a xlink:title=" ">
<path fill="none" stroke="#63b8ff" d="M1048.75,-110.09C1056.69,-102.55 1068.2,-91.6 1077.79,-82.48"/>
<polygon fill="#63b8ff" stroke="#63b8ff" points="1079.96,-85.24 1084.8,-75.82 1075.14,-80.17 1079.96,-85.24"/>
</a>
</g>
</g>
<!-- Node8&#45;&gt;Node5 -->
<g id="edge9_Node000008_Node000005" class="edge">
<title>Node8&#45;&gt;Node5</title>
<g id="a_edge9_Node000008_Node000005"><a xlink:title=" ">
<path fill="none" stroke="#63b8ff" d="M1011.7,-113.41C1006.89,-112.43 1001.93,-111.43 997.25,-110.5 924.82,-96.16 839.6,-80.11 794.66,-71.72"/>
<polygon fill="#63b8ff" stroke="#63b8ff" points="795.58,-68.33 785.11,-69.94 794.29,-75.21 795.58,-68.33"/>
</a>
</g>
</g>
<!-- Node10&#45;&gt;Node5 -->
<g id="edge14_Node000010_Node000005" class="edge">
<title>Node10&#45;&gt;Node5</title>
<g id="a_edge14_Node000010_Node000005"><a xlink:title=" ">
<path fill="none" stroke="#63b8ff" d="M722.35,-110.33C729.11,-102.98 738.97,-92.26 747.32,-83.19"/>
<polygon fill="#63b8ff" stroke="#63b8ff" points="749.77,-85.7 753.96,-75.97 744.62,-80.96 749.77,-85.7"/>
</a>
</g>
</g>
<!-- Node10&#45;&gt;Node6 -->
<g id="edge15_Node000010_Node000006" class="edge">
<title>Node10&#45;&gt;Node6</title>
<g id="a_edge15_Node000010_Node000006"><a xlink:title=" ">
<path fill="none" stroke="#63b8ff" d="M692.89,-110.57C671.49,-102 638.29,-88.71 613.66,-78.85"/>
<polygon fill="#63b8ff" stroke="#63b8ff" points="615,-75.62 604.42,-75.15 612.4,-82.12 615,-75.62"/>
</a>
</g>
</g>
<!-- Node11 -->
<g id="Node000011" class="node">
<title>Node11</title>
<g id="a_Node000011"><a xlink:title=" ">
<polygon fill="#e0e0e0" stroke="#999999" points="345.13,-74.5 289.38,-74.5 289.38,-55.25 345.13,-55.25 345.13,-74.5"/>
<text text-anchor="middle" x="317.25" y="-61" font-family="Helvetica,sans-Serif" font-size="10.00">algorithm</text>
</a>
</g>
</g>
<!-- Node10&#45;&gt;Node11 -->
<g id="edge12_Node000010_Node000011" class="edge">
<title>Node10&#45;&gt;Node11</title>
<g id="a_edge12_Node000010_Node000011"><a xlink:title=" ">
<path fill="none" stroke="#63b8ff" d="M692.91,-116.26C629.14,-107.71 439.34,-82.25 356.57,-71.15"/>
<polygon fill="#63b8ff" stroke="#63b8ff" points="357.27,-67.71 346.9,-69.85 356.34,-74.65 357.27,-67.71"/>
</a>
</g>
</g>
<!-- Node12 -->
<g id="Node000012" class="node">
<title>Node12</title>
<g id="a_Node000012"><a xlink:title=" ">
<polygon fill="#e0e0e0" stroke="#999999" points="725.25,-74.5 679.25,-74.5 679.25,-55.25 725.25,-55.25 725.25,-74.5"/>
<text text-anchor="middle" x="702.25" y="-61" font-family="Helvetica,sans-Serif" font-size="10.00">iterator</text>
</a>
</g>
</g>
<!-- Node10&#45;&gt;Node12 -->
<g id="edge13_Node000010_Node000012" class="edge">
<title>Node10&#45;&gt;Node12</title>
<g id="a_edge13_Node000010_Node000012"><a xlink:title=" ">
<path fill="none" stroke="#63b8ff" d="M712.27,-110.33C710.79,-103.74 708.69,-94.46 706.81,-86.07"/>
<polygon fill="#63b8ff" stroke="#63b8ff" points="710.22,-85.32 704.61,-76.34 703.4,-86.86 710.22,-85.32"/>
</a>
</g>
</g>
<!-- Node13&#45;&gt;Node2 -->
<g id="edge18_Node000013_Node000002" class="edge">
<title>Node13&#45;&gt;Node2</title>
<g id="a_edge18_Node000013_Node000002"><a xlink:title=" ">
<path fill="none" stroke="#63b8ff" d="M335.77,-283.32C389.5,-279.14 533.7,-266.24 651.25,-240.25 711.74,-226.88 780.08,-203.79 820.31,-189.34"/>
<polygon fill="#63b8ff" stroke="#63b8ff" points="821.5,-192.63 829.7,-185.93 819.11,-186.05 821.5,-192.63"/>
</a>
</g>
</g>
<!-- Node13&#45;&gt;Node3 -->
<g id="edge17_Node000013_Node000003" class="edge">
<title>Node13&#45;&gt;Node3</title>
<g id="a_edge17_Node000013_Node000003"><a xlink:title=" ">
<path fill="none" stroke="#63b8ff" d="M335.72,-283.57C394.4,-279.74 562.24,-267.09 699.25,-240.25 878.99,-205.04 985.46,-275.59 1096.25,-129.75 1105.7,-117.32 1104.45,-99.25 1101.42,-85.49"/>
<polygon fill="#63b8ff" stroke="#63b8ff" points="1104.9,-84.97 1098.91,-76.23 1098.15,-86.8 1104.9,-84.97"/>
</a>
</g>
</g>
<!-- Node14 -->
<g id="Node000014" class="node">
<title>Node14</title>
<g id="a_Node000014"><a xlink:title=" ">
<polygon fill="#e0e0e0" stroke="#999999" points="138.13,-240.25 52.38,-240.25 52.38,-221 138.13,-221 138.13,-240.25"/>
<text text-anchor="middle" x="95.25" y="-226.75" font-family="Helvetica,sans-Serif" font-size="10.00">arrays/eh_vec.h</text>
</a>
</g>
</g>
<!-- Node13&#45;&gt;Node14 -->
<g id="edge19_Node000013_Node000014" class="edge">
<title>Node13&#45;&gt;Node14</title>
<g id="a_edge19_Node000013_Node000014"><a xlink:title=" ">
<path fill="none" stroke="#63b8ff" d="M292.86,-279.67C258.55,-271.33 190.38,-254.76 143.81,-243.43"/>
<polygon fill="#63b8ff" stroke="#63b8ff" points="144.77,-240.06 134.23,-241.1 143.12,-246.87 144.77,-240.06"/>
</a>
</g>
</g>
<!-- Node15 -->
<g id="Node000015" class="node">
<title>Node15</title>
<g id="a_Node000015"><a xlink:title=" ">
<polygon fill="#e0e0e0" stroke="#999999" points="248.13,-240.25 156.38,-240.25 156.38,-221 248.13,-221 248.13,-240.25"/>
<text text-anchor="middle" x="202.25" y="-226.75" font-family="Helvetica,sans-Serif" font-size="10.00">arrays/tensor3d.h</text>
</a>
</g>
</g>
<!-- Node13&#45;&gt;Node15 -->
<g id="edge20_Node000013_Node000015" class="edge">
<title>Node13&#45;&gt;Node15</title>
<g id="a_edge20_Node000013_Node000015"><a xlink:title=" ">
<path fill="none" stroke="#63b8ff" d="M295.25,-275.84C277.8,-267.54 251.66,-255.11 231.53,-245.54"/>
<polygon fill="#63b8ff" stroke="#63b8ff" points="233.25,-242.49 222.71,-241.35 230.24,-248.81 233.25,-242.49"/>
</a>
</g>
</g>
<!-- Node16 -->
<g id="Node000016" class="node">
<title>Node16</title>
<g id="a_Node000016"><a xlink:href="cell__coordinate_8h.html" target="_top" xlink:title="Container for {ijk} or {IJK} grouped variables.">
<polygon fill="white" stroke="#666666" points="149,-129.75 59.5,-129.75 59.5,-110.5 149,-110.5 149,-129.75"/>
<text text-anchor="middle" x="104.25" y="-116.25" font-family="Helvetica,sans-Serif" font-size="10.00">cell_coordinate.h</text>
</a>
</g>
</g>
<!-- Node13&#45;&gt;Node16 -->
<g id="edge21_Node000013_Node000016" class="edge">
<title>Node13&#45;&gt;Node16</title>
<g id="a_edge21_Node000013_Node000016"><a xlink:title=" ">
<path fill="none" stroke="#63b8ff" d="M292.63,-284.74C234.19,-283.89 75.34,-278.06 43.25,-240.25 15.97,-208.1 58.03,-161.67 84.82,-137.36"/>
<polygon fill="#63b8ff" stroke="#63b8ff" points="86.85,-140.23 92.06,-131.01 82.24,-134.97 86.85,-140.23"/>
</a>
</g>
</g>
<!-- Node18 -->
<g id="Node000018" class="node">
<title>Node18</title>
<g id="a_Node000018"><a xlink:href="dimensions_8h.html" target="_top" xlink:title="Defines a class that serves as an explicit converter between MATLAB pointers and array dimensions.">
<polygon fill="white" stroke="#666666" points="294.13,-185 220.38,-185 220.38,-165.75 294.13,-165.75 294.13,-185"/>
<text text-anchor="middle" x="257.25" y="-171.5" font-family="Helvetica,sans-Serif" font-size="10.00">dimensions.h</text>
</a>
</g>
</g>
<!-- Node13&#45;&gt;Node18 -->
<g id="edge24_Node000013_Node000018" class="edge">
<title>Node13&#45;&gt;Node18</title>
<g id="a_edge24_Node000013_Node000018"><a xlink:title=" ">
<path fill="none" stroke="#63b8ff" d="M311.73,-275.86C308,-263.17 300.33,-239.52 290.25,-221 285.2,-211.72 278.42,-202.19 272.32,-194.34"/>
<polygon fill="#63b8ff" stroke="#63b8ff" points="275.09,-192.2 266.09,-186.62 269.64,-196.6 275.09,-192.2"/>
</a>
</g>
</g>
<!-- Node19 -->
<g id="Node000019" class="node">
<title>Node19</title>
<g id="a_Node000019"><a xlink:href="mat__io_8h.html" target="_top" xlink:title="Includes MATLAB headers for I/O.">
<polygon fill="white" stroke="#666666" points="256,-74.5 202.5,-74.5 202.5,-55.25 256,-55.25 256,-74.5"/>
<text text-anchor="middle" x="229.25" y="-61" font-family="Helvetica,sans-Serif" font-size="10.00">mat_io.h</text>
</a>
</g>
</g>
<!-- Node13&#45;&gt;Node19 -->
<g id="edge36_Node000013_Node000019" class="edge">
<title>Node13&#45;&gt;Node19</title>
<g id="a_edge36_Node000013_Node000019"><a xlink:title=" ">
<path fill="none" stroke="#63b8ff" d="M307.33,-276.17C297.02,-263.44 276.77,-239.3 257.25,-221 238.31,-203.24 222.62,-208.34 211.25,-185 195.43,-152.52 209.15,-109.64 219.76,-85.18"/>
<polygon fill="#63b8ff" stroke="#63b8ff" points="222.91,-86.69 223.93,-76.15 216.56,-83.76 222.91,-86.69"/>
</a>
</g>
</g>
<!-- Node23 -->
<g id="Node000023" class="node">
<title>Node23</title>
<g id="a_Node000023"><a xlink:href="input__flags_8h.html" target="_top" xlink:title="Organises enumerated constants, names, and classes for handling flag&#45;variables that are passed to TDM...">
<polygon fill="white" stroke="#666666" points="353,-129.75 281.5,-129.75 281.5,-110.5 353,-110.5 353,-129.75"/>
<text text-anchor="middle" x="317.25" y="-116.25" font-family="Helvetica,sans-Serif" font-size="10.00">input_flags.h</text>
</a>
</g>
</g>
<!-- Node13&#45;&gt;Node23 -->
<g id="edge29_Node000013_Node000023" class="edge">
<title>Node13&#45;&gt;Node23</title>
<g id="a_edge29_Node000013_Node000023"><a xlink:title=" ">
<path fill="none" stroke="#63b8ff" d="M314.42,-276.07C314.88,-250.75 316.23,-177.25 316.88,-141.34"/>
<polygon fill="#63b8ff" stroke="#63b8ff" points="320.38,-141.55 317.06,-131.49 313.38,-141.42 320.38,-141.55"/>
</a>
</g>
</g>
<!-- Node24 -->
<g id="Node000024" class="node">
<title>Node24</title>
<g id="a_Node000024"><a xlink:href="simulation__parameters_8h.html" target="_top" xlink:title="Classes collecting parameters for the simulation.">
<polygon fill="white" stroke="#666666" points="642.5,-240.25 520,-240.25 520,-221 642.5,-221 642.5,-240.25"/>
<text text-anchor="middle" x="581.25" y="-226.75" font-family="Helvetica,sans-Serif" font-size="10.00">simulation_parameters.h</text>
</a>
</g>
</g>
<!-- Node13&#45;&gt;Node24 -->
<g id="edge37_Node000013_Node000024" class="edge">
<title>Node13&#45;&gt;Node24</title>
<g id="a_edge37_Node000013_Node000024"><a xlink:title=" ">
<path fill="none" stroke="#63b8ff" d="M335.65,-280.61C376.22,-272.52 465.55,-254.7 524.55,-242.93"/>
<polygon fill="#63b8ff" stroke="#63b8ff" points="524.95,-246.42 534.07,-241.03 523.58,-239.56 524.95,-246.42"/>
</a>
</g>
</g>
<!-- Node16&#45;&gt;Node11 -->
<g id="edge23_Node000016_Node000011" class="edge">
<title>Node16&#45;&gt;Node11</title>
<g id="a_edge23_Node000016_Node000011"><a xlink:title=" ">
<path fill="none" stroke="#63b8ff" d="M140.39,-110.09C178.63,-100.53 238.78,-85.49 278.12,-75.66"/>
<polygon fill="#63b8ff" stroke="#63b8ff" points="278.8,-79.1 287.66,-73.27 277.11,-72.3 278.8,-79.1"/>
</a>
</g>
</g>
<!-- Node17 -->
<g id="Node000017" class="node">
<title>Node17</title>
<g id="a_Node000017"><a xlink:title=" ">
<polygon fill="#e0e0e0" stroke="#999999" points="172.38,-74.5 88.13,-74.5 88.13,-55.25 172.38,-55.25 172.38,-74.5"/>
<text text-anchor="middle" x="130.25" y="-61" font-family="Helvetica,sans-Serif" font-size="10.00">spdlog/spdlog.h</text>
</a>
</g>
</g>
<!-- Node16&#45;&gt;Node17 -->
<g id="edge22_Node000016_Node000017" class="edge">
<title>Node16&#45;&gt;Node17</title>
<g id="a_edge22_Node000016_Node000017"><a xlink:title=" ">
<path fill="none" stroke="#63b8ff" d="M108.55,-110.33C111.88,-103.51 116.62,-93.81 120.82,-85.2"/>
<polygon fill="#63b8ff" stroke="#63b8ff" points="123.96,-86.74 125.2,-76.22 117.67,-83.67 123.96,-86.74"/>
</a>
</g>
</g>
<!-- Node18&#45;&gt;Node19 -->
<g id="edge25_Node000018_Node000019" class="edge">
<title>Node18&#45;&gt;Node19</title>
<g id="a_edge25_Node000018_Node000019"><a xlink:title=" ">
<path fill="none" stroke="#63b8ff" d="M252.9,-165.36C248.8,-156.49 242.77,-142.47 239.25,-129.75 235.27,-115.31 232.72,-98.56 231.19,-85.83"/>
<polygon fill="#63b8ff" stroke="#63b8ff" points="234.71,-85.76 230.15,-76.19 227.75,-86.51 234.71,-85.76"/>
</a>
</g>
</g>
<!-- Node20 -->
<g id="Node000020" class="node">
<title>Node20</title>
<g id="a_Node000020"><a xlink:title=" ">
<polygon fill="#e0e0e0" stroke="#999999" points="185.63,-19.25 144.88,-19.25 144.88,0 185.63,0 185.63,-19.25"/>
<text text-anchor="middle" x="165.25" y="-5.75" font-family="Helvetica,sans-Serif" font-size="10.00">mat.h</text>
</a>
</g>
</g>
<!-- Node19&#45;&gt;Node20 -->
<g id="edge26_Node000019_Node000020" class="edge">
<title>Node19&#45;&gt;Node20</title>
<g id="a_edge26_Node000019_Node000020"><a xlink:title=" ">
<path fill="none" stroke="#63b8ff" d="M218.4,-54.84C209.15,-47.15 195.63,-35.9 184.54,-26.68"/>
<polygon fill="#63b8ff" stroke="#63b8ff" points="187.04,-24.2 177.11,-20.49 182.56,-29.58 187.04,-24.2"/>
</a>
</g>
</g>
<!-- Node21 -->
<g id="Node000021" class="node">
<title>Node21</title>
<g id="a_Node000021"><a xlink:title=" ">
<polygon fill="#e0e0e0" stroke="#999999" points="254.88,-19.25 203.63,-19.25 203.63,0 254.88,0 254.88,-19.25"/>
<text text-anchor="middle" x="229.25" y="-5.75" font-family="Helvetica,sans-Serif" font-size="10.00">matrix.h</text>
</a>
</g>
</g>
<!-- Node19&#45;&gt;Node21 -->
<g id="edge27_Node000019_Node000021" class="edge">
<title>Node19&#45;&gt;Node21</title>
<g id="a_edge27_Node000019_Node000021"><a xlink:title=" ">
<path fill="none" stroke="#63b8ff" d="M229.25,-55.08C229.25,-48.57 229.25,-39.42 229.25,-31.12"/>
<polygon fill="#63b8ff" stroke="#63b8ff" points="232.75,-31.12 229.25,-21.12 225.75,-31.12 232.75,-31.12"/>
</a>
</g>
</g>
<!-- Node22 -->
<g id="Node000022" class="node">
<title>Node22</title>
<g id="a_Node000022"><a xlink:title=" ">
<polygon fill="#e0e0e0" stroke="#999999" points="315.75,-19.25 272.75,-19.25 272.75,0 315.75,0 315.75,-19.25"/>
<text text-anchor="middle" x="294.25" y="-5.75" font-family="Helvetica,sans-Serif" font-size="10.00">mex.h</text>
</a>
</g>
</g>
<!-- Node19&#45;&gt;Node22 -->
<g id="edge28_Node000019_Node000022" class="edge">
<title>Node19&#45;&gt;Node22</title>
<g id="a_edge28_Node000019_Node000022"><a xlink:title=" ">
<path fill="none" stroke="#63b8ff" d="M240.28,-54.84C249.67,-47.15 263.4,-35.9 274.66,-26.68"/>
<polygon fill="#63b8ff" stroke="#63b8ff" points="276.7,-29.53 282.22,-20.48 272.27,-24.11 276.7,-29.53"/>
</a>
</g>
</g>
<!-- Node23&#45;&gt;Node4 -->
<g id="edge31_Node000023_Node000004" class="edge">
<title>Node23&#45;&gt;Node4</title>
<g id="a_edge31_Node000023_Node000004"><a xlink:title=" ">
<path fill="none" stroke="#63b8ff" d="M338.97,-110.09C359.29,-101.64 389.9,-88.9 413.06,-79.27"/>
<polygon fill="#63b8ff" stroke="#63b8ff" points="414.15,-82.61 422.04,-75.53 411.46,-76.14 414.15,-82.61"/>
</a>
</g>
</g>
<!-- Node23&#45;&gt;Node5 -->
<g id="edge32_Node000023_Node000005" class="edge">
<title>Node23&#45;&gt;Node5</title>
<g id="a_edge32_Node000023_Node000005"><a xlink:title=" ">
<path fill="none" stroke="#63b8ff" d="M353.06,-111.95C356.17,-111.42 359.26,-110.93 362.25,-110.5 523.13,-87.35 569.26,-105.51 731.9,-74.6"/>
<polygon fill="#63b8ff" stroke="#63b8ff" points="732.14,-78.12 741.29,-72.78 730.81,-71.25 732.14,-78.12"/>
</a>
</g>
</g>
<!-- Node23&#45;&gt;Node6 -->
<g id="edge33_Node000023_Node000006" class="edge">
<title>Node23&#45;&gt;Node6</title>
<g id="a_edge33_Node000023_Node000006"><a xlink:title=" ">
<path fill="none" stroke="#63b8ff" d="M353.41,-111.83C404.92,-101.44 498.68,-82.53 548.34,-72.51"/>
<polygon fill="#63b8ff" stroke="#63b8ff" points="548.8,-75.99 557.91,-70.58 547.41,-69.13 548.8,-75.99"/>
</a>
</g>
</g>
<!-- Node23&#45;&gt;Node11 -->
<g id="edge30_Node000023_Node000011" class="edge">
<title>Node23&#45;&gt;Node11</title>
<g id="a_edge30_Node000023_Node000011"><a xlink:title=" ">
<path fill="none" stroke="#63b8ff" d="M317.25,-110.33C317.25,-103.82 317.25,-94.67 317.25,-86.37"/>
<polygon fill="#63b8ff" stroke="#63b8ff" points="320.75,-86.37 317.25,-76.37 313.75,-86.37 320.75,-86.37"/>
</a>
</g>
</g>
<!-- Node23&#45;&gt;Node17 -->
<g id="edge34_Node000023_Node000017" class="edge">
<title>Node23&#45;&gt;Node17</title>
<g id="a_edge34_Node000023_Node000017"><a xlink:title=" ">
<path fill="none" stroke="#63b8ff" d="M285.53,-110.09C254.5,-101.26 207.04,-87.74 172.76,-77.98"/>
<polygon fill="#63b8ff" stroke="#63b8ff" points="174.16,-74.74 163.59,-75.37 172.25,-81.47 174.16,-74.74"/>
</a>
</g>
</g>
<!-- Node23&#45;&gt;Node19 -->
<g id="edge35_Node000023_Node000019" class="edge">
<title>Node23&#45;&gt;Node19</title>
<g id="a_edge35_Node000023_Node000019"><a xlink:title=" ">
<path fill="none" stroke="#63b8ff" d="M302.33,-110.09C289.05,-102.06 269.39,-90.16 253.8,-80.73"/>
<polygon fill="#63b8ff" stroke="#63b8ff" points="255.92,-77.92 245.55,-75.74 252.29,-83.91 255.92,-77.92"/>
</a>
</g>
</g>
<!-- Node24&#45;&gt;Node2 -->
<g id="edge39_Node000024_Node000002" class="edge">
<title>Node24&#45;&gt;Node2</title>
<g id="a_edge39_Node000024_Node000002"><a xlink:title=" ">
<path fill="none" stroke="#63b8ff" d="M630.62,-220.56C678.03,-211.78 751.62,-197.93 815.25,-185 816.26,-184.8 817.28,-184.59 818.31,-184.38"/>
<polygon fill="#63b8ff" stroke="#63b8ff" points="818.9,-187.83 827.97,-182.34 817.46,-180.98 818.9,-187.83"/>
</a>
</g>
</g>
<!-- Node24&#45;&gt;Node5 -->
<g id="edge38_Node000024_Node000005" class="edge">
<title>Node24&#45;&gt;Node5</title>
<g id="a_edge38_Node000024_Node000005"><a xlink:title=" ">
<path fill="none" stroke="#63b8ff" d="M620.83,-220.59C664.49,-208.27 732.59,-181.55 763.25,-129.75 770.96,-116.73 770.45,-99.45 768.3,-86.15"/>
<polygon fill="#63b8ff" stroke="#63b8ff" points="771.72,-85.43 766.25,-76.36 764.87,-86.87 771.72,-85.43"/>
</a>
</g>
</g>
<!-- Node25 -->
<g id="Node000025" class="node">
<title>Node25</title>
<g id="a_Node000025"><a xlink:title=" ">
<polygon fill="#e0e0e0" stroke="#999999" points="519.25,-185 395.25,-185 395.25,-165.75 519.25,-165.75 519.25,-185"/>
<text text-anchor="middle" x="457.25" y="-171.5" font-family="Helvetica,sans-Serif" font-size="10.00">arrays/vector_typedefs.h</text>
</a>
</g>
</g>
<!-- Node24&#45;&gt;Node25 -->
<g id="edge40_Node000024_Node000025" class="edge">
<title>Node24&#45;&gt;Node25</title>
<g id="a_edge40_Node000024_Node000025"><a xlink:title=" ">
<path fill="none" stroke="#63b8ff" d="M560.22,-220.59C540.62,-212.18 511.15,-199.52 488.75,-189.9"/>
<polygon fill="#63b8ff" stroke="#63b8ff" points="490.35,-186.78 479.78,-186.05 487.59,-193.21 490.35,-186.78"/>
</a>
</g>
</g>
<!-- Node26 -->
<g id="Node000026" class="node">
<title>Node26</title>
<g id="a_Node000026"><a xlink:href="input__matrices_8h.html" target="_top" xlink:title="Class handling the input matrices that are read in from the input file.">
<polygon fill="white" stroke="#666666" points="625.25,-185 537.25,-185 537.25,-165.75 625.25,-165.75 625.25,-185"/>
<text text-anchor="middle" x="581.25" y="-171.5" font-family="Helvetica,sans-Serif" font-size="10.00">input_matrices.h</text>
</a>
</g>
</g>
<!-- Node24&#45;&gt;Node26 -->
<g id="edge41_Node000024_Node000026" class="edge">
<title>Node24&#45;&gt;Node26</title>
<g id="a_edge41_Node000024_Node000026"><a xlink:title=" ">
<path fill="none" stroke="#63b8ff" d="M581.25,-220.83C581.25,-214.32 581.25,-205.17 581.25,-196.87"/>
<polygon fill="#63b8ff" stroke="#63b8ff" points="584.75,-196.87 581.25,-186.87 577.75,-196.87 584.75,-196.87"/>
</a>
</g>
</g>
<!-- Node26&#45;&gt;Node5 -->
<g id="edge42_Node000026_Node000005" class="edge">
<title>Node26&#45;&gt;Node5</title>
<g id="a_edge42_Node000026_Node000005"><a xlink:title=" ">
<path fill="none" stroke="#63b8ff" d="M625.4,-173.62C661.9,-170.62 712.69,-160.63 744.25,-129.75 755.9,-118.35 760.49,-100.16 762.25,-86.09"/>
<polygon fill="#63b8ff" stroke="#63b8ff" points="765.74,-86.42 763.08,-76.17 758.76,-85.84 765.74,-86.42"/>
</a>
</g>
</g>
<!-- Node26&#45;&gt;Node19 -->
<g id="edge46_Node000026_Node000019" class="edge">
<title>Node26&#45;&gt;Node19</title>
<g id="a_edge46_Node000026_Node000019"><a xlink:title=" ">
<path fill="none" stroke="#63b8ff" d="M537.02,-167.1C534.05,-166.64 531.11,-166.18 528.25,-165.75 414.66,-148.52 369.66,-190.68 272.25,-129.75 255.62,-119.34 243.93,-99.88 236.97,-85.16"/>
<polygon fill="#63b8ff" stroke="#63b8ff" points="240.2,-83.8 233.01,-76.02 233.78,-86.59 240.2,-83.8"/>
</a>
</g>
</g>
<!-- Node27 -->
<g id="Node000027" class="node">
<title>Node27</title>
<g id="a_Node000027"><a xlink:href="input__output__names_8h.html" target="_top" xlink:title="Constant values associated with the format of the input and output files and matrices.">
<polygon fill="white" stroke="#666666" points="637.25,-129.75 525.25,-129.75 525.25,-110.5 637.25,-110.5 637.25,-129.75"/>
<text text-anchor="middle" x="581.25" y="-116.25" font-family="Helvetica,sans-Serif" font-size="10.00">input_output_names.h</text>
</a>
</g>
</g>
<!-- Node26&#45;&gt;Node27 -->
<g id="edge43_Node000026_Node000027" class="edge">
<title>Node26&#45;&gt;Node27</title>
<g id="a_edge43_Node000026_Node000027"><a xlink:title=" ">
<path fill="none" stroke="#63b8ff" d="M581.25,-165.58C581.25,-159.07 581.25,-149.92 581.25,-141.62"/>
<polygon fill="#63b8ff" stroke="#63b8ff" points="584.75,-141.62 581.25,-131.62 577.75,-141.62 584.75,-141.62"/>
</a>
</g>
</g>
<!-- Node28 -->
<g id="Node000028" class="node">
<title>Node28</title>
<g id="a_Node000028"><a xlink:href="matrix__collection_8h.html" target="_top" xlink:title="A collection of named MATLAB matrices.">
<polygon fill="white" stroke="#666666" points="469.13,-129.75 371.38,-129.75 371.38,-110.5 469.13,-110.5 469.13,-129.75"/>
<text text-anchor="middle" x="420.25" y="-116.25" font-family="Helvetica,sans-Serif" font-size="10.00">matrix_collection.h</text>
</a>
</g>
</g>
<!-- Node26&#45;&gt;Node28 -->
<g id="edge47_Node000026_Node000028" class="edge">
<title>Node26&#45;&gt;Node28</title>
<g id="a_edge47_Node000026_Node000028"><a xlink:title=" ">
<path fill="none" stroke="#63b8ff" d="M553.94,-165.34C527.69,-156.66 487.78,-143.46 458.39,-133.74"/>
<polygon fill="#63b8ff" stroke="#63b8ff" points="459.73,-130.49 449.14,-130.68 457.53,-137.14 459.73,-130.49"/>
</a>
</g>
</g>
<!-- Node27&#45;&gt;Node5 -->
<g id="edge44_Node000027_Node000005" class="edge">
<title>Node27&#45;&gt;Node5</title>
<g id="a_edge44_Node000027_Node000005"><a xlink:title=" ">
<path fill="none" stroke="#63b8ff" d="M612.62,-110.03C641.32,-101.69 685.25,-88.91 732,-75.15"/>
<polygon fill="#63b8ff" stroke="#63b8ff" points="732.92,-78.53 741.52,-72.35 730.94,-71.82 732.92,-78.53"/>
</a>
</g>
</g>
<!-- Node27&#45;&gt;Node6 -->
<g id="edge45_Node000027_Node000006" class="edge">
<title>Node27&#45;&gt;Node6</title>
<g id="a_edge45_Node000027_Node000006"><a xlink:title=" ">
<path fill="none" stroke="#63b8ff" d="M581.25,-110.33C581.25,-103.82 581.25,-94.67 581.25,-86.37"/>
<polygon fill="#63b8ff" stroke="#63b8ff" points="584.75,-86.37 581.25,-76.37 577.75,-86.37 584.75,-86.37"/>
</a>
</g>
</g>
<!-- Node28&#45;&gt;Node5 -->
<g id="edge48_Node000028_Node000005" class="edge">
<title>Node28&#45;&gt;Node5</title>
<g id="a_edge48_Node000028_Node000005"><a xlink:title=" ">
<path fill="none" stroke="#63b8ff" d="M469.6,-114.39C529.54,-108.15 633.85,-95.66 731.77,-74.77"/>
<polygon fill="#63b8ff" stroke="#63b8ff" points="732.25,-78.24 741.28,-72.7 730.76,-71.4 732.25,-78.24"/>
</a>
</g>
</g>
<!-- Node28&#45;&gt;Node6 -->
<g id="edge49_Node000028_Node000006" class="edge">
<title>Node28&#45;&gt;Node6</title>
<g id="a_edge49_Node000028_Node000006"><a xlink:title=" ">
<path fill="none" stroke="#63b8ff" d="M447.57,-110.09C475.57,-100.83 519.11,-86.43 548.84,-76.6"/>
<polygon fill="#63b8ff" stroke="#63b8ff" points="549.67,-80.01 558.06,-73.55 547.47,-73.36 549.67,-80.01"/>
</a>
</g>
</g>
<!-- Node28&#45;&gt;Node19 -->
<g id="edge50_Node000028_Node000019" class="edge">
<title>Node28&#45;&gt;Node19</title>
<g id="a_edge50_Node000028_Node000019"><a xlink:title=" ">
<path fill="none" stroke="#63b8ff" d="M387.85,-110.09C354.43,-100.77 302.35,-86.25 267.07,-76.42"/>
<polygon fill="#63b8ff" stroke="#63b8ff" points="268.28,-73.12 257.7,-73.81 266.4,-79.86 268.28,-73.12"/>
</a>
</g>
</g>
<!-- Node29&#45;&gt;Node19 -->
<g id="edge52_Node000029_Node000019" class="edge">
<title>Node29&#45;&gt;Node19</title>
<g id="a_edge52_Node000029_Node000019"><a xlink:title=" ">
<path fill="none" stroke="#63b8ff" d="M79.78,-275.78C62.03,-269.07 41.77,-257.94 31.25,-240.25 11.79,-207.5 -36.32,-203.73 50.25,-110.5 59.86,-100.15 141.19,-82.88 190.85,-73.14"/>
<polygon fill="#63b8ff" stroke="#63b8ff" points="191.5,-76.58 200.65,-71.24 190.16,-69.71 191.5,-76.58"/>
</a>
</g>
</g>
</g>
</svg>
