<?xml version="1.0" encoding="UTF-8" standalone="no"?>
<!DOCTYPE svg PUBLIC "-//W3C//DTD SVG 1.1//EN"
 "http://www.w3.org/Graphics/SVG/1.1/DTD/svg11.dtd">
<!-- Generated by graphviz version 8.0.5 (20230430.1635)
 -->
<!-- Title: tdms/include/utils.h Pages: 1 -->
<svg width="247pt" height="83pt"
 viewBox="0.00 0.00 247.38 82.50" xmlns="http://www.w3.org/2000/svg" xmlns:xlink="http://www.w3.org/1999/xlink">
<g id="graph0" class="graph" transform="scale(1 1) rotate(0) translate(4 78.5)">
<title>tdms/include/utils.h</title>
<!-- Node1 -->
<g id="node1" class="node">
<title>Node1</title>
<g id="a_node1"><a xlink:title="Useful miscellaneous utility functions.">
<polygon fill="#999999" stroke="#666666" points="177.25,-74.5 76.5,-74.5 76.5,-55.25 177.25,-55.25 177.25,-74.5"/>
<text text-anchor="middle" x="126.88" y="-61" font-family="Helvetica,sans-Serif" font-size="10.00">tdms/include/utils.h</text>
</a>
</g>
</g>
<!-- Node2 -->
<g id="node2" class="node">
<title>Node2</title>
<g id="a_node2"><a xlink:title=" ">
<polygon fill="#e0e0e0" stroke="#999999" points="55.75,-19.25 0,-19.25 0,0 55.75,0 55.75,-19.25"/>
<text text-anchor="middle" x="27.88" y="-5.75" font-family="Helvetica,sans-Serif" font-size="10.00">algorithm</text>
</a>
</g>
</g>
<!-- Node1&#45;&gt;Node2 -->
<g id="edge1" class="edge">
<title>Node1&#45;&gt;Node2</title>
<path fill="none" stroke="#63b8ff" d="M110.08,-54.84C94.72,-46.58 71.76,-34.23 54,-24.68"/>
<polygon fill="#63b8ff" stroke="#63b8ff" points="56.22,-21.36 45.75,-19.7 52.9,-27.52 56.22,-21.36"/>
</g>
<!-- Node3 -->
<g id="node3" class="node">
<title>Node3</title>
<g id="a_node3"><a xlink:title=" ">
<polygon fill="#e0e0e0" stroke="#999999" points="119.88,-19.25 73.88,-19.25 73.88,0 119.88,0 119.88,-19.25"/>
<text text-anchor="middle" x="96.88" y="-5.75" font-family="Helvetica,sans-Serif" font-size="10.00">iterator</text>
</a>
</g>
</g>
<!-- Node1&#45;&gt;Node3 -->
<g id="edge2" class="edge">
<title>Node1&#45;&gt;Node3</title>
<path fill="none" stroke="#63b8ff" d="M121.92,-55.08C117.95,-48.03 112.24,-37.9 107.27,-29.08"/>
<polygon fill="#63b8ff" stroke="#63b8ff" points="109.89,-27.6 101.94,-20.61 103.8,-31.04 109.89,-27.6"/>
</g>
<!-- Node4 -->
<g id="node4" class="node">
<title>Node4</title>
<g id="a_node4"><a xlink:title=" ">
<polygon fill="#e0e0e0" stroke="#999999" points="177.88,-19.25 137.88,-19.25 137.88,0 177.88,0 177.88,-19.25"/>
<text text-anchor="middle" x="157.88" y="-5.75" font-family="Helvetica,sans-Serif" font-size="10.00">string</text>
</a>
</g>
</g>
<!-- Node1&#45;&gt;Node4 -->
<g id="edge3" class="edge">
<title>Node1&#45;&gt;Node4</title>
<path fill="none" stroke="#63b8ff" d="M131.99,-55.08C136.1,-48.03 142,-37.9 147.13,-29.08"/>
<polygon fill="#63b8ff" stroke="#63b8ff" points="150.64,-31.01 152.64,-20.61 144.59,-27.49 150.64,-31.01"/>
</g>
<!-- Node5 -->
<g id="node5" class="node">
<title>Node5</title>
<g id="a_node5"><a xlink:title=" ">
<polygon fill="#e0e0e0" stroke="#999999" points="239.38,-19.25 196.38,-19.25 196.38,0 239.38,0 239.38,-19.25"/>
<text text-anchor="middle" x="217.88" y="-5.75" font-family="Helvetica,sans-Serif" font-size="10.00">vector</text>
</a>
</g>
</g>
<!-- Node1&#45;&gt;Node5 -->
<g id="edge4" class="edge">
<title>Node1&#45;&gt;Node5</title>
<path fill="none" stroke="#63b8ff" d="M142.31,-54.84C156.17,-46.73 176.76,-34.68 192.95,-25.21"/>
<polygon fill="#63b8ff" stroke="#63b8ff" points="194.5,-27.77 201.36,-19.7 190.96,-21.73 194.5,-27.77"/>
</g>
</g>
</svg>
