<?xml version="1.0" encoding="UTF-8" standalone="no"?>
<!DOCTYPE svg PUBLIC "-//W3C//DTD SVG 1.1//EN"
 "http://www.w3.org/Graphics/SVG/1.1/DTD/svg11.dtd">
<!-- Generated by graphviz version 8.0.2 (20230410.1723)
 -->
<!-- Title: tdms/include/utils.h Pages: 1 -->
<svg width="503pt" height="335pt"
 viewBox="0.00 0.00 503.00 335.00" xmlns="http://www.w3.org/2000/svg" xmlns:xlink="http://www.w3.org/1999/xlink">
<g id="graph0" class="graph" transform="scale(1 1) rotate(0) translate(4 331)">
<title>tdms/include/utils.h</title>
<!-- Node1 -->
<g id="node1" class="node">
<title>Node1</title>
<g id="a_node1"><a xlink:title="Useful miscellaneous utility functions.">
<polygon fill="#999999" stroke="#666666" points="359,-327 258,-327 258,-308 359,-308 359,-327"/>
<text text-anchor="middle" x="308.5" y="-315" font-family="Helvetica,sans-Serif" font-size="10.00">tdms/include/utils.h</text>
</a>
</g>
</g>
<!-- Node2 -->
<g id="node2" class="node">
<title>Node2</title>
<g id="a_node2"><a xlink:href="arrays_8h.html" target="_top" xlink:title="Classes describing arrays, vertices etc.">
<polygon fill="white" stroke="#666666" points="363.5,-272 253.5,-272 253.5,-253 363.5,-253 363.5,-272"/>
<text text-anchor="middle" x="308.5" y="-260" font-family="Helvetica,sans-Serif" font-size="10.00">tdms/include/arrays.h</text>
</a>
</g>
</g>
<!-- Node1&#45;&gt;Node2 -->
<g id="edge1" class="edge">
<title>Node1&#45;&gt;Node2</title>
<path fill="none" stroke="#63b8ff" d="M308.5,-296.93C308.5,-288.53 308.5,-279.13 308.5,-272.44"/>
<polygon fill="#63b8ff" stroke="#63b8ff" points="305,-296.75 308.5,-306.75 312,-296.75 305,-296.75"/>
</g>
<!-- Node3 -->
<g id="node3" class="node">
<title>Node3</title>
<g id="a_node3"><a xlink:href="field_8h.html" target="_top" xlink:title="Classes for the electric and magnetic (split) fields on a grid.">
<polygon fill="white" stroke="#666666" points="359,-151 258,-151 258,-132 359,-132 359,-151"/>
<text text-anchor="middle" x="308.5" y="-139" font-family="Helvetica,sans-Serif" font-size="10.00">tdms/include/field.h</text>
</a>
</g>
</g>
<!-- Node2&#45;&gt;Node3 -->
<g id="edge2" class="edge">
<title>Node2&#45;&gt;Node3</title>
<path fill="none" stroke="#63b8ff" d="M308.5,-241.68C308.5,-215.4 308.5,-170.15 308.5,-151.22"/>
<polygon fill="#63b8ff" stroke="#63b8ff" points="305,-241.56 308.5,-251.56 312,-241.56 305,-241.56"/>
</g>
<!-- Node5 -->
<g id="node5" class="node">
<title>Node5</title>
<g id="a_node5"><a xlink:href="fieldsample_8h.html" target="_top" xlink:title="Class that stores the extracted field values at user&#45;defined vertices.">
<polygon fill="white" stroke="#666666" points="133,-90.5 0,-90.5 0,-71.5 133,-71.5 133,-90.5"/>
<text text-anchor="middle" x="66.5" y="-78.5" font-family="Helvetica,sans-Serif" font-size="10.00">tdms/include/fieldsample.h</text>
</a>
</g>
</g>
<!-- Node2&#45;&gt;Node5 -->
<g id="edge9" class="edge">
<title>Node2&#45;&gt;Node5</title>
<path fill="none" stroke="#63b8ff" d="M242.81,-256.57C206.29,-251.21 161.49,-240.08 127.5,-217 97.71,-196.77 94.84,-184.03 80.5,-151 71.64,-130.59 68.3,-104.33 67.11,-90.85"/>
<polygon fill="#63b8ff" stroke="#63b8ff" points="241.99,-260.13 252.37,-258 242.92,-253.19 241.99,-260.13"/>
</g>
<!-- Node7 -->
<g id="node7" class="node">
<title>Node7</title>
<g id="a_node7"><a xlink:href="surface__phasors_8h.html" target="_top" xlink:title="Contains a class that handles the complex amplitude extraction.">
<polygon fill="white" stroke="#666666" points="373,-96 266,-96 266,-66 373,-66 373,-96"/>
<text text-anchor="start" x="274" y="-84" font-family="Helvetica,sans-Serif" font-size="10.00">tdms/include/surface</text>
<text text-anchor="middle" x="319.5" y="-73" font-family="Helvetica,sans-Serif" font-size="10.00">_phasors.h</text>
</a>
</g>
</g>
<!-- Node2&#45;&gt;Node7 -->
<g id="edge14" class="edge">
<title>Node2&#45;&gt;Node7</title>
<path fill="none" stroke="#63b8ff" d="M321.39,-244C335.9,-223.1 358.61,-186.51 367.5,-151 369.55,-142.81 370.65,-139.83 367.5,-132 361.75,-117.71 349.75,-105.21 339.19,-96.28"/>
<polygon fill="#63b8ff" stroke="#63b8ff" points="318.16,-241.5 315.2,-251.68 323.86,-245.57 318.16,-241.5"/>
</g>
<!-- Node8 -->
<g id="node8" class="node">
<title>Node8</title>
<g id="a_node8"><a xlink:href="vertex__phasors_8h.html" target="_top" xlink:title="Contains a class that handles the complex amplitude extraction at the vertices.">
<polygon fill="white" stroke="#666666" points="493.5,-96 391.5,-96 391.5,-66 493.5,-66 493.5,-96"/>
<text text-anchor="start" x="399.5" y="-84" font-family="Helvetica,sans-Serif" font-size="10.00">tdms/include/vertex</text>
<text text-anchor="middle" x="442.5" y="-73" font-family="Helvetica,sans-Serif" font-size="10.00">_phasors.h</text>
</a>
</g>
</g>
<!-- Node2&#45;&gt;Node8 -->
<g id="edge15" class="edge">
<title>Node2&#45;&gt;Node8</title>
<path fill="none" stroke="#63b8ff" d="M330.1,-246.03C340.34,-238.07 352.3,-227.78 361.5,-217 395.21,-177.49 423.5,-122.27 435.85,-96.42"/>
<polygon fill="#63b8ff" stroke="#63b8ff" points="328.2,-243.83 322.32,-252.64 332.41,-249.42 328.2,-243.83"/>
</g>
<!-- Node10 -->
<g id="node10" class="node">
<title>Node10</title>
<g id="a_node10"><a xlink:href="simulation__parameters_8h.html" target="_top" xlink:title="Classes collecting parameters for the simulation.">
<polygon fill="white" stroke="#666666" points="256,-217 137,-217 137,-187 256,-187 256,-217"/>
<text text-anchor="start" x="145" y="-205" font-family="Helvetica,sans-Serif" font-size="10.00">tdms/include/simulation</text>
<text text-anchor="middle" x="196.5" y="-194" font-family="Helvetica,sans-Serif" font-size="10.00">_parameters.h</text>
</a>
</g>
</g>
<!-- Node2&#45;&gt;Node10 -->
<g id="edge10" class="edge">
<title>Node2&#45;&gt;Node10</title>
<path fill="none" stroke="#63b8ff" d="M281.92,-247.62C264.5,-238.52 241.78,-226.65 224.14,-217.44"/>
<polygon fill="#63b8ff" stroke="#63b8ff" points="280.01,-251.09 290.49,-252.62 283.25,-244.88 280.01,-251.09"/>
</g>
<!-- Node4 -->
<g id="node4" class="node">
<title>Node4</title>
<g id="a_node4"><a xlink:href="array__init_8h.html" target="_top" xlink:title="A collection of functions for array initialisation given MATLAB pointers.">
<polygon fill="white" stroke="#666666" points="248,-96 151,-96 151,-66 248,-66 248,-96"/>
<text text-anchor="start" x="159" y="-84" font-family="Helvetica,sans-Serif" font-size="10.00">tdms/include/array</text>
<text text-anchor="middle" x="199.5" y="-73" font-family="Helvetica,sans-Serif" font-size="10.00">_init.h</text>
</a>
</g>
</g>
<!-- Node3&#45;&gt;Node4 -->
<g id="edge3" class="edge">
<title>Node3&#45;&gt;Node4</title>
<path fill="none" stroke="#63b8ff" d="M282.64,-126.62C265.68,-117.52 243.56,-105.65 226.4,-96.44"/>
<polygon fill="#63b8ff" stroke="#63b8ff" points="280.48,-129.97 290.95,-131.62 283.79,-123.8 280.48,-129.97"/>
</g>
<!-- Node3&#45;&gt;Node5 -->
<g id="edge4" class="edge">
<title>Node3&#45;&gt;Node5</title>
<path fill="none" stroke="#63b8ff" d="M260.85,-128.98C214.7,-117.82 145.68,-101.14 103.51,-90.95"/>
<polygon fill="#63b8ff" stroke="#63b8ff" points="259.94,-132.6 270.48,-131.55 261.58,-125.8 259.94,-132.6"/>
</g>
<!-- Node3&#45;&gt;Node7 -->
<g id="edge6" class="edge">
<title>Node3&#45;&gt;Node7</title>
<path fill="none" stroke="#63b8ff" d="M312.15,-121.08C313.69,-112.92 315.44,-103.6 316.85,-96.11"/>
<polygon fill="#63b8ff" stroke="#63b8ff" points="308.53,-120.39 310.12,-130.87 315.41,-121.69 308.53,-120.39"/>
</g>
<!-- Node3&#45;&gt;Node8 -->
<g id="edge7" class="edge">
<title>Node3&#45;&gt;Node8</title>
<path fill="none" stroke="#63b8ff" d="M338.85,-127.25C359.86,-118.08 387.84,-105.86 409.42,-96.44"/>
<polygon fill="#63b8ff" stroke="#63b8ff" points="337.62,-124.41 329.85,-131.62 340.42,-130.82 337.62,-124.41"/>
</g>
<!-- Node6 -->
<g id="node6" class="node">
<title>Node6</title>
<g id="a_node6"><a xlink:href="test___field_sample_8cpp.html" target="_top" xlink:title="Unit tests for the FieldSample class and its subclasses.">
<polygon fill="white" stroke="#666666" points="117,-30 16,-30 16,0 117,0 117,-30"/>
<text text-anchor="start" x="24" y="-18" font-family="Helvetica,sans-Serif" font-size="10.00">tdms/tests/unit/test</text>
<text text-anchor="middle" x="66.5" y="-7" font-family="Helvetica,sans-Serif" font-size="10.00">_FieldSample.cpp</text>
</a>
</g>
</g>
<!-- Node5&#45;&gt;Node6 -->
<g id="edge5" class="edge">
<title>Node5&#45;&gt;Node6</title>
<path fill="none" stroke="#63b8ff" d="M66.5,-60.42C66.5,-50.68 66.5,-39.12 66.5,-30.23"/>
<polygon fill="#63b8ff" stroke="#63b8ff" points="63,-60.1 66.5,-70.1 70,-60.1 63,-60.1"/>
</g>
<!-- Node9 -->
<g id="node9" class="node">
<title>Node9</title>
<g id="a_node9"><a xlink:href="test___vertex_phasors_8cpp.html" target="_top" xlink:title="Unit tests for the VertexPhasors class.">
<polygon fill="white" stroke="#666666" points="495,-30 390,-30 390,0 495,0 495,-30"/>
<text text-anchor="start" x="398" y="-18" font-family="Helvetica,sans-Serif" font-size="10.00">tdms/tests/unit/test</text>
<text text-anchor="middle" x="442.5" y="-7" font-family="Helvetica,sans-Serif" font-size="10.00">_VertexPhasors.cpp</text>
</a>
</g>
</g>
<!-- Node8&#45;&gt;Node9 -->
<g id="edge8" class="edge">
<title>Node8&#45;&gt;Node9</title>
<path fill="none" stroke="#63b8ff" d="M442.5,-54.97C442.5,-46.55 442.5,-37.45 442.5,-30.16"/>
<polygon fill="#63b8ff" stroke="#63b8ff" points="439,-54.8 442.5,-64.8 446,-54.8 439,-54.8"/>
</g>
<!-- Node10&#45;&gt;Node3 -->
<g id="edge11" class="edge">
<title>Node10&#45;&gt;Node3</title>
<path fill="none" stroke="#63b8ff" d="M233.74,-181.55C253.29,-171.34 276.29,-159.32 291.56,-151.35"/>
<polygon fill="#63b8ff" stroke="#63b8ff" points="232.43,-178.81 225.19,-186.54 235.67,-185.01 232.43,-178.81"/>
</g>
<!-- Node10&#45;&gt;Node5 -->
<g id="edge12" class="edge">
<title>Node10&#45;&gt;Node5</title>
<path fill="none" stroke="#63b8ff" d="M141.91,-182.08C125.72,-174.41 109,-164.18 96.5,-151 79.79,-133.37 71.52,-104.93 68.25,-90.7"/>
<polygon fill="#63b8ff" stroke="#63b8ff" points="140.32,-185.65 150.88,-186.53 143.17,-179.26 140.32,-185.65"/>
</g>
<!-- Node11 -->
<g id="node11" class="node">
<title>Node11</title>
<g id="a_node11"><a xlink:href="mesh__base_8h.html" target="_top" xlink:title="Generation of orientated mesh.">
<polygon fill="white" stroke="#666666" points="239.5,-151 105.5,-151 105.5,-132 239.5,-132 239.5,-151"/>
<text text-anchor="middle" x="172.5" y="-139" font-family="Helvetica,sans-Serif" font-size="10.00">tdms/include/mesh_base.h</text>
</a>
</g>
</g>
<!-- Node10&#45;&gt;Node11 -->
<g id="edge13" class="edge">
<title>Node10&#45;&gt;Node11</title>
<path fill="none" stroke="#63b8ff" d="M186.44,-176.47C182.75,-167.48 178.81,-157.87 176.06,-151.18"/>
<polygon fill="#63b8ff" stroke="#63b8ff" points="183.53,-177.62 190.57,-185.54 190.01,-174.96 183.53,-177.62"/>
</g>
</g>
</svg>
