<?xml version="1.0" encoding="UTF-8" standalone="no"?>
<!DOCTYPE svg PUBLIC "-//W3C//DTD SVG 1.1//EN"
 "http://www.w3.org/Graphics/SVG/1.1/DTD/svg11.dtd">
<!-- Generated by graphviz version 12.2.1 (20241206.2353)
 -->
<!-- Title: tdms/include/utils.h Pages: 1 -->
<svg width="563pt" height="349pt"
 viewBox="0.00 0.00 562.50 348.50" xmlns="http://www.w3.org/2000/svg" xmlns:xlink="http://www.w3.org/1999/xlink">
<g id="graph0" class="graph" transform="scale(1 1) rotate(0) translate(4 344.5)">
<title>tdms/include/utils.h</title>
<!-- Node1 -->
<g id="Node000001" class="node">
<title>Node1</title>
<g id="a_Node000001"><a xlink:title="Useful miscellaneous utility functions.">
<polygon fill="#999999" stroke="#666666" points="476.5,-340.5 375.75,-340.5 375.75,-321.25 476.5,-321.25 476.5,-340.5"/>
<text text-anchor="middle" x="426.12" y="-327" font-family="Helvetica,sans-Serif" font-size="10.00">tdms/include/utils.h</text>
</a>
</g>
</g>
<!-- Node2 -->
<g id="Node000002" class="node">
<title>Node2</title>
<g id="a_Node000002"><a xlink:href="arrays_8h.html" target="_top" xlink:title="Classes describing arrays, vertices etc.">
<polygon fill="white" stroke="#666666" points="362,-279.62 252.25,-279.62 252.25,-260.38 362,-260.38 362,-279.62"/>
<text text-anchor="middle" x="307.12" y="-266.12" font-family="Helvetica,sans-Serif" font-size="10.00">tdms/include/arrays.h</text>
</a>
</g>
</g>
<!-- Node1&#45;&gt;Node2 -->
<g id="edge1_Node000001_Node000002" class="edge">
<title>Node1&#45;&gt;Node2</title>
<g id="a_edge1_Node000001_Node000002"><a xlink:title=" ">
<path fill="none" stroke="#63b8ff" d="M397.51,-315.72C375.06,-304.61 344.49,-289.49 325.28,-279.98"/>
<polygon fill="#63b8ff" stroke="#63b8ff" points="395.92,-318.84 406.44,-320.13 399.02,-312.56 395.92,-318.84"/>
</a>
</g>
</g>
<!-- Node8 -->
<g id="Node000008" class="node">
<title>Node8</title>
<g id="a_Node000008"><a xlink:href="vertex__phasors_8h.html" target="_top" xlink:title="Contains a class that handles the complex amplitude extraction at the vertices.">
<polygon fill="white" stroke="#666666" points="490.88,-97 389.38,-97 389.38,-66.5 490.88,-66.5 490.88,-97"/>
<text text-anchor="start" x="397.38" y="-83.5" font-family="Helvetica,sans-Serif" font-size="10.00">tdms/include/vertex</text>
<text text-anchor="middle" x="440.12" y="-72.25" font-family="Helvetica,sans-Serif" font-size="10.00">_phasors.h</text>
</a>
</g>
</g>
<!-- Node1&#45;&gt;Node8 -->
<g id="edge15_Node000001_Node000008" class="edge">
<title>Node1&#45;&gt;Node8</title>
<g id="a_edge15_Node000001_Node000008"><a xlink:title=" ">
<path fill="none" stroke="#63b8ff" d="M427.29,-309.34C430.05,-260.64 436.94,-139.04 439.31,-97.18"/>
<polygon fill="#63b8ff" stroke="#63b8ff" points="423.8,-309.09 426.73,-319.28 430.79,-309.49 423.8,-309.09"/>
</a>
</g>
</g>
<!-- Node12 -->
<g id="Node000012" class="node">
<title>Node12</title>
<g id="a_Node000012"><a xlink:href="test__utils_8cpp.html" target="_top" xlink:title="Tests of the utility functions.">
<polygon fill="white" stroke="#666666" points="554.5,-285.25 453.75,-285.25 453.75,-254.75 554.5,-254.75 554.5,-285.25"/>
<text text-anchor="start" x="461.75" y="-271.75" font-family="Helvetica,sans-Serif" font-size="10.00">tdms/tests/unit/test</text>
<text text-anchor="middle" x="504.12" y="-260.5" font-family="Helvetica,sans-Serif" font-size="10.00">_utils.cpp</text>
</a>
</g>
</g>
<!-- Node1&#45;&gt;Node12 -->
<g id="edge16_Node000001_Node000012" class="edge">
<title>Node1&#45;&gt;Node12</title>
<g id="a_edge16_Node000001_Node000012"><a xlink:title=" ">
<path fill="none" stroke="#63b8ff" d="M447.06,-314.07C458.82,-305.2 473.4,-294.19 484.87,-285.53"/>
<polygon fill="#63b8ff" stroke="#63b8ff" points="445.05,-311.2 439.18,-320.02 449.27,-316.79 445.05,-311.2"/>
</a>
</g>
</g>
<!-- Node3 -->
<g id="Node000003" class="node">
<title>Node3</title>
<g id="a_Node000003"><a xlink:href="field_8h.html" target="_top" xlink:title="Classes for the electric and magnetic (split) fields on a grid.">
<polygon fill="white" stroke="#666666" points="357.5,-152.25 256.75,-152.25 256.75,-133 357.5,-133 357.5,-152.25"/>
<text text-anchor="middle" x="307.12" y="-138.75" font-family="Helvetica,sans-Serif" font-size="10.00">tdms/include/field.h</text>
</a>
</g>
</g>
<!-- Node2&#45;&gt;Node3 -->
<g id="edge2_Node000002_Node000003" class="edge">
<title>Node2&#45;&gt;Node3</title>
<g id="a_edge2_Node000002_Node000003"><a xlink:title=" ">
<path fill="none" stroke="#63b8ff" d="M307.12,-248.55C307.12,-220.82 307.12,-172.45 307.12,-152.56"/>
<polygon fill="#63b8ff" stroke="#63b8ff" points="303.63,-248.47 307.13,-258.47 310.63,-248.47 303.63,-248.47"/>
</a>
</g>
</g>
<!-- Node5 -->
<g id="Node000005" class="node">
<title>Node5</title>
<g id="a_Node000005"><a xlink:href="fieldsample_8h.html" target="_top" xlink:title="Class that stores the extracted field values at user&#45;defined vertices.">
<polygon fill="white" stroke="#666666" points="132.25,-91.38 0,-91.38 0,-72.12 132.25,-72.12 132.25,-91.38"/>
<text text-anchor="middle" x="66.12" y="-77.88" font-family="Helvetica,sans-Serif" font-size="10.00">tdms/include/fieldsample.h</text>
</a>
</g>
</g>
<!-- Node2&#45;&gt;Node5 -->
<g id="edge9_Node000002_Node000005" class="edge">
<title>Node2&#45;&gt;Node5</title>
<g id="a_edge9_Node000002_Node000005"><a xlink:title=" ">
<path fill="none" stroke="#63b8ff" d="M240.53,-261.01C204.75,-254.2 161.31,-241.68 128.12,-218.75 97.92,-197.88 93.76,-185.92 79.12,-152.25 70.22,-131.76 67.41,-105.28 66.52,-91.68"/>
<polygon fill="#63b8ff" stroke="#63b8ff" points="239.91,-264.45 250.37,-262.76 241.13,-257.56 239.91,-264.45"/>
</a>
</g>
</g>
<!-- Node7 -->
<g id="Node000007" class="node">
<title>Node7</title>
<g id="a_Node000007"><a xlink:href="surface__phasors_8h.html" target="_top" xlink:title="Contains a class that handles the complex amplitude extraction.">
<polygon fill="white" stroke="#666666" points="371.5,-97 264.75,-97 264.75,-66.5 371.5,-66.5 371.5,-97"/>
<text text-anchor="start" x="272.75" y="-83.5" font-family="Helvetica,sans-Serif" font-size="10.00">tdms/include/surface</text>
<text text-anchor="middle" x="318.12" y="-72.25" font-family="Helvetica,sans-Serif" font-size="10.00">_phasors.h</text>
</a>
</g>
</g>
<!-- Node2&#45;&gt;Node7 -->
<g id="edge14_Node000002_Node000007" class="edge">
<title>Node2&#45;&gt;Node7</title>
<g id="a_edge14_Node000002_Node000007"><a xlink:title=" ">
<path fill="none" stroke="#63b8ff" d="M320,-250.43C334.52,-228.25 357.26,-189.46 366.12,-152.25 368.11,-143.93 369.31,-140.94 366.12,-133 360.38,-118.67 348.38,-106.1 337.82,-97.12"/>
<polygon fill="#63b8ff" stroke="#63b8ff" points="317.15,-248.39 314.47,-258.65 322.96,-252.3 317.15,-248.39"/>
</a>
</g>
</g>
<!-- Node10 -->
<g id="Node000010" class="node">
<title>Node10</title>
<g id="a_Node000010"><a xlink:href="simulation__parameters_8h.html" target="_top" xlink:title="Classes collecting parameters for the simulation.">
<polygon fill="white" stroke="#666666" points="255.5,-218.75 136.75,-218.75 136.75,-188.25 255.5,-188.25 255.5,-218.75"/>
<text text-anchor="start" x="144.75" y="-205.25" font-family="Helvetica,sans-Serif" font-size="10.00">tdms/include/simulation</text>
<text text-anchor="middle" x="196.12" y="-194" font-family="Helvetica,sans-Serif" font-size="10.00">_parameters.h</text>
</a>
</g>
</g>
<!-- Node2&#45;&gt;Node10 -->
<g id="edge10_Node000002_Node000010" class="edge">
<title>Node2&#45;&gt;Node10</title>
<g id="a_edge10_Node000002_Node000010"><a xlink:title=" ">
<path fill="none" stroke="#63b8ff" d="M281.82,-254.29C263.67,-243.75 239.33,-229.61 221.23,-219.09"/>
<polygon fill="#63b8ff" stroke="#63b8ff" points="279.98,-257.27 290.38,-259.27 283.49,-251.22 279.98,-257.27"/>
</a>
</g>
</g>
<!-- Node4 -->
<g id="Node000004" class="node">
<title>Node4</title>
<g id="a_Node000004"><a xlink:href="array__init_8h.html" target="_top" xlink:title="A collection of functions for array initialisation given MATLAB pointers.">
<polygon fill="white" stroke="#666666" points="246.25,-97 150,-97 150,-66.5 246.25,-66.5 246.25,-97"/>
<text text-anchor="start" x="158" y="-83.5" font-family="Helvetica,sans-Serif" font-size="10.00">tdms/include/array</text>
<text text-anchor="middle" x="198.12" y="-72.25" font-family="Helvetica,sans-Serif" font-size="10.00">_init.h</text>
</a>
</g>
</g>
<!-- Node3&#45;&gt;Node4 -->
<g id="edge3_Node000003_Node000004" class="edge">
<title>Node3&#45;&gt;Node4</title>
<g id="a_edge3_Node000003_Node000004"><a xlink:title=" ">
<path fill="none" stroke="#63b8ff" d="M280.78,-127.4C263.89,-118.27 242.03,-106.46 225.03,-97.28"/>
<polygon fill="#63b8ff" stroke="#63b8ff" points="278.78,-130.29 289.24,-131.96 282.1,-124.13 278.78,-130.29"/>
</a>
</g>
</g>
<!-- Node3&#45;&gt;Node5 -->
<g id="edge4_Node000003_Node000005" class="edge">
<title>Node3&#45;&gt;Node5</title>
<g id="a_edge4_Node000003_Node000005"><a xlink:title=" ">
<path fill="none" stroke="#63b8ff" d="M258.85,-129.83C213.01,-118.63 145.06,-102.03 103.3,-91.83"/>
<polygon fill="#63b8ff" stroke="#63b8ff" points="257.98,-133.22 268.53,-132.2 259.64,-126.42 257.98,-133.22"/>
</a>
</g>
</g>
<!-- Node3&#45;&gt;Node7 -->
<g id="edge6_Node000003_Node000007" class="edge">
<title>Node3&#45;&gt;Node7</title>
<g id="a_edge6_Node000003_Node000007"><a xlink:title=" ">
<path fill="none" stroke="#63b8ff" d="M310.9,-121.42C312.38,-113.49 314.05,-104.56 315.41,-97.28"/>
<polygon fill="#63b8ff" stroke="#63b8ff" points="307.47,-120.72 309.07,-131.2 314.35,-122.01 307.47,-120.72"/>
</a>
</g>
</g>
<!-- Node3&#45;&gt;Node8 -->
<g id="edge7_Node000003_Node000008" class="edge">
<title>Node3&#45;&gt;Node8</title>
<g id="a_edge7_Node000003_Node000008"><a xlink:title=" ">
<path fill="none" stroke="#63b8ff" d="M338.05,-127.94C358.69,-118.8 385.83,-106.79 406.93,-97.44"/>
<polygon fill="#63b8ff" stroke="#63b8ff" points="336.73,-124.69 329,-131.94 339.56,-131.09 336.73,-124.69"/>
</a>
</g>
</g>
<!-- Node6 -->
<g id="Node000006" class="node">
<title>Node6</title>
<g id="a_Node000006"><a xlink:href="test___field_sample_8cpp.html" target="_top" xlink:title="Unit tests for the FieldSample class and its subclasses.">
<polygon fill="white" stroke="#666666" points="116.5,-30.5 15.75,-30.5 15.75,0 116.5,0 116.5,-30.5"/>
<text text-anchor="start" x="23.75" y="-17" font-family="Helvetica,sans-Serif" font-size="10.00">tdms/tests/unit/test</text>
<text text-anchor="middle" x="66.12" y="-5.75" font-family="Helvetica,sans-Serif" font-size="10.00">_FieldSample.cpp</text>
</a>
</g>
</g>
<!-- Node5&#45;&gt;Node6 -->
<g id="edge5_Node000005_Node000006" class="edge">
<title>Node5&#45;&gt;Node6</title>
<g id="a_edge5_Node000005_Node000006"><a xlink:title=" ">
<path fill="none" stroke="#63b8ff" d="M66.12,-60.37C66.12,-50.69 66.12,-39.35 66.12,-30.59"/>
<polygon fill="#63b8ff" stroke="#63b8ff" points="62.63,-60.27 66.13,-70.27 69.63,-60.27 62.63,-60.27"/>
</a>
</g>
</g>
<!-- Node9 -->
<g id="Node000009" class="node">
<title>Node9</title>
<g id="a_Node000009"><a xlink:href="test___vertex_phasors_8cpp.html" target="_top" xlink:title="Unit tests for the VertexPhasors class.">
<polygon fill="white" stroke="#666666" points="492.38,-30.5 387.88,-30.5 387.88,0 492.38,0 492.38,-30.5"/>
<text text-anchor="start" x="395.88" y="-17" font-family="Helvetica,sans-Serif" font-size="10.00">tdms/tests/unit/test</text>
<text text-anchor="middle" x="440.12" y="-5.75" font-family="Helvetica,sans-Serif" font-size="10.00">_VertexPhasors.cpp</text>
</a>
</g>
</g>
<!-- Node8&#45;&gt;Node9 -->
<g id="edge8_Node000008_Node000009" class="edge">
<title>Node8&#45;&gt;Node9</title>
<g id="a_edge8_Node000008_Node000009"><a xlink:title=" ">
<path fill="none" stroke="#63b8ff" d="M440.12,-54.81C440.12,-46.64 440.12,-37.91 440.12,-30.83"/>
<polygon fill="#63b8ff" stroke="#63b8ff" points="436.63,-54.6 440.13,-64.6 443.63,-54.6 436.63,-54.6"/>
</a>
</g>
</g>
<!-- Node10&#45;&gt;Node3 -->
<g id="edge11_Node000010_Node000003" class="edge">
<title>Node10&#45;&gt;Node3</title>
<g id="a_edge11_Node000010_Node000003"><a xlink:title=" ">
<path fill="none" stroke="#63b8ff" d="M233.78,-182.52C252.89,-172.39 275.16,-160.58 290.1,-152.65"/>
<polygon fill="#63b8ff" stroke="#63b8ff" points="232.38,-179.31 225.19,-187.09 235.66,-185.49 232.38,-179.31"/>
</a>
</g>
</g>
<!-- Node10&#45;&gt;Node5 -->
<g id="edge12_Node000010_Node000005" class="edge">
<title>Node10&#45;&gt;Node5</title>
<g id="a_edge12_Node000010_Node000005"><a xlink:title=" ">
<path fill="none" stroke="#63b8ff" d="M140.84,-183.13C124.86,-175.46 108.43,-165.29 96.12,-152.25 79.35,-134.47 71.11,-105.84 67.86,-91.51"/>
<polygon fill="#63b8ff" stroke="#63b8ff" points="139.29,-186.28 149.85,-187.2 142.17,-179.9 139.29,-186.28"/>
</a>
</g>
</g>
<!-- Node11 -->
<g id="Node000011" class="node">
<title>Node11</title>
<g id="a_Node000011"><a xlink:href="mesh__base_8h.html" target="_top" xlink:title="Generation of orientated mesh.">
<polygon fill="white" stroke="#666666" points="238.62,-152.25 105.62,-152.25 105.62,-133 238.62,-133 238.62,-152.25"/>
<text text-anchor="middle" x="172.12" y="-138.75" font-family="Helvetica,sans-Serif" font-size="10.00">tdms/include/mesh_base.h</text>
</a>
</g>
</g>
<!-- Node10&#45;&gt;Node11 -->
<g id="edge13_Node000010_Node000011" class="edge">
<title>Node10&#45;&gt;Node11</title>
<g id="a_edge13_Node000010_Node000011"><a xlink:title=" ">
<path fill="none" stroke="#63b8ff" d="M185.88,-177.36C182.3,-168.59 178.52,-159.31 175.82,-152.7"/>
<polygon fill="#63b8ff" stroke="#63b8ff" points="182.61,-178.61 189.62,-186.55 189.09,-175.96 182.61,-178.61"/>
</a>
</g>
</g>
</g>
</svg>
