<?xml version="1.0" encoding="UTF-8" standalone="no"?>
<!DOCTYPE svg PUBLIC "-//W3C//DTD SVG 1.1//EN"
 "http://www.w3.org/Graphics/SVG/1.1/DTD/svg11.dtd">
<!-- Generated by graphviz version 8.0.5 (20230430.1635)
 -->
<!-- Title: tdms/include/utils.h Pages: 1 -->
<svg width="500pt" height="349pt"
 viewBox="0.00 0.00 499.50 348.50" xmlns="http://www.w3.org/2000/svg" xmlns:xlink="http://www.w3.org/1999/xlink">
<g id="graph0" class="graph" transform="scale(1 1) rotate(0) translate(4 344.5)">
<title>tdms/include/utils.h</title>
<!-- Node1 -->
<g id="node1" class="node">
<title>Node1</title>
<g id="a_node1"><a xlink:title="Useful miscellaneous utility functions.">
<polygon fill="#999999" stroke="#666666" points="373.5,-340.5 272.75,-340.5 272.75,-321.25 373.5,-321.25 373.5,-340.5"/>
<text text-anchor="middle" x="323.12" y="-327" font-family="Helvetica,sans-Serif" font-size="10.00">tdms/include/utils.h</text>
</a>
</g>
</g>
<!-- Node2 -->
<g id="node2" class="node">
<title>Node2</title>
<g id="a_node2"><a xlink:href="arrays_8h.html" target="_top" xlink:title="Classes describing arrays, vertices etc.">
<polygon fill="white" stroke="#666666" points="317,-279.62 207.25,-279.62 207.25,-260.38 317,-260.38 317,-279.62"/>
<text text-anchor="middle" x="262.12" y="-266.12" font-family="Helvetica,sans-Serif" font-size="10.00">tdms/include/arrays.h</text>
</a>
</g>
</g>
<!-- Node1&#45;&gt;Node2 -->
<g id="edge1" class="edge">
<title>Node1&#45;&gt;Node2</title>
<path fill="none" stroke="#63b8ff" d="M306.02,-313.37C294.83,-302.57 280.65,-288.87 271.48,-280.03"/>
<polygon fill="#63b8ff" stroke="#63b8ff" points="303.23,-315.51 312.86,-319.93 308.1,-310.47 303.23,-315.51"/>
</g>
<!-- Node12 -->
<g id="node12" class="node">
<title>Node12</title>
<g id="a_node12"><a xlink:href="test__utils_8cpp.html" target="_top" xlink:title="Tests of the utility functions.">
<polygon fill="white" stroke="#666666" points="435.5,-285.25 334.75,-285.25 334.75,-254.75 435.5,-254.75 435.5,-285.25"/>
<text text-anchor="start" x="342.75" y="-271.75" font-family="Helvetica,sans-Serif" font-size="10.00">tdms/tests/unit/test</text>
<text text-anchor="middle" x="385.12" y="-260.5" font-family="Helvetica,sans-Serif" font-size="10.00">_utils.cpp</text>
</a>
</g>
</g>
<!-- Node1&#45;&gt;Node12 -->
<g id="edge15" class="edge">
<title>Node1&#45;&gt;Node12</title>
<path fill="none" stroke="#63b8ff" d="M340.33,-313.54C349.58,-304.76 360.88,-294.02 369.82,-285.53"/>
<polygon fill="#63b8ff" stroke="#63b8ff" points="338.38,-310.51 333.54,-319.93 343.2,-315.59 338.38,-310.51"/>
</g>
<!-- Node3 -->
<g id="node3" class="node">
<title>Node3</title>
<g id="a_node3"><a xlink:href="field_8h.html" target="_top" xlink:title="Classes for the electric and magnetic (split) fields on a grid.">
<polygon fill="white" stroke="#666666" points="368.5,-152.25 267.75,-152.25 267.75,-133 368.5,-133 368.5,-152.25"/>
<text text-anchor="middle" x="318.12" y="-138.75" font-family="Helvetica,sans-Serif" font-size="10.00">tdms/include/field.h</text>
</a>
</g>
</g>
<!-- Node2&#45;&gt;Node3 -->
<g id="edge2" class="edge">
<title>Node2&#45;&gt;Node3</title>
<path fill="none" stroke="#63b8ff" d="M270.59,-250.04C282.86,-222.58 305.09,-172.81 314.13,-152.56"/>
<polygon fill="#63b8ff" stroke="#63b8ff" points="267.03,-248.43 266.15,-258.98 273.43,-251.28 267.03,-248.43"/>
</g>
<!-- Node5 -->
<g id="node5" class="node">
<title>Node5</title>
<g id="a_node5"><a xlink:href="fieldsample_8h.html" target="_top" xlink:title="Class that stores the extracted field values at user&#45;defined vertices.">
<polygon fill="white" stroke="#666666" points="132.25,-91.38 0,-91.38 0,-72.12 132.25,-72.12 132.25,-91.38"/>
<text text-anchor="middle" x="66.12" y="-77.88" font-family="Helvetica,sans-Serif" font-size="10.00">tdms/include/fieldsample.h</text>
</a>
</g>
</g>
<!-- Node2&#45;&gt;Node5 -->
<g id="edge9" class="edge">
<title>Node2&#45;&gt;Node5</title>
<path fill="none" stroke="#63b8ff" d="M204.81,-257C178.93,-249.38 149.26,-237.33 127.12,-218.75 85.9,-184.14 71.4,-115.99 67.41,-91.65"/>
<polygon fill="#63b8ff" stroke="#63b8ff" points="203.69,-260.6 214.26,-259.91 205.57,-253.86 203.69,-260.6"/>
</g>
<!-- Node7 -->
<g id="node7" class="node">
<title>Node7</title>
<g id="a_node7"><a xlink:href="surface__phasors_8h.html" target="_top" xlink:title="Contains a class that handles the complex amplitude extraction.">
<polygon fill="white" stroke="#666666" points="491.5,-97 384.75,-97 384.75,-66.5 491.5,-66.5 491.5,-97"/>
<text text-anchor="start" x="392.75" y="-83.5" font-family="Helvetica,sans-Serif" font-size="10.00">tdms/include/surface</text>
<text text-anchor="middle" x="438.12" y="-72.25" font-family="Helvetica,sans-Serif" font-size="10.00">_phasors.h</text>
</a>
</g>
</g>
<!-- Node2&#45;&gt;Node7 -->
<g id="edge14" class="edge">
<title>Node2&#45;&gt;Node7</title>
<path fill="none" stroke="#63b8ff" d="M278.97,-252.5C301.66,-230.15 343.11,-188.83 377.12,-152.25 394.4,-133.67 413.59,-111.55 425.75,-97.34"/>
<polygon fill="#63b8ff" stroke="#63b8ff" points="276.93,-249.58 272.25,-259.09 281.84,-254.58 276.93,-249.58"/>
</g>
<!-- Node10 -->
<g id="node10" class="node">
<title>Node10</title>
<g id="a_node10"><a xlink:href="simulation__parameters_8h.html" target="_top" xlink:title="Classes collecting parameters for the simulation.">
<polygon fill="white" stroke="#666666" points="254.5,-218.75 135.75,-218.75 135.75,-188.25 254.5,-188.25 254.5,-218.75"/>
<text text-anchor="start" x="143.75" y="-205.25" font-family="Helvetica,sans-Serif" font-size="10.00">tdms/include/simulation</text>
<text text-anchor="middle" x="195.12" y="-194" font-family="Helvetica,sans-Serif" font-size="10.00">_parameters.h</text>
</a>
</g>
</g>
<!-- Node2&#45;&gt;Node10 -->
<g id="edge10" class="edge">
<title>Node2&#45;&gt;Node10</title>
<path fill="none" stroke="#63b8ff" d="M244.97,-252.49C234.26,-242.17 220.59,-229.02 210.28,-219.09"/>
<polygon fill="#63b8ff" stroke="#63b8ff" points="242.18,-254.62 251.81,-259.03 247.03,-249.57 242.18,-254.62"/>
</g>
<!-- Node4 -->
<g id="node4" class="node">
<title>Node4</title>
<g id="a_node4"><a xlink:href="array__init_8h.html" target="_top" xlink:title="A collection of functions for array initialisation given MATLAB pointers.">
<polygon fill="white" stroke="#666666" points="366.25,-97 270,-97 270,-66.5 366.25,-66.5 366.25,-97"/>
<text text-anchor="start" x="278" y="-83.5" font-family="Helvetica,sans-Serif" font-size="10.00">tdms/include/array</text>
<text text-anchor="middle" x="318.12" y="-72.25" font-family="Helvetica,sans-Serif" font-size="10.00">_init.h</text>
</a>
</g>
</g>
<!-- Node3&#45;&gt;Node4 -->
<g id="edge3" class="edge">
<title>Node3&#45;&gt;Node4</title>
<path fill="none" stroke="#63b8ff" d="M318.12,-121.7C318.12,-113.7 318.12,-104.65 318.12,-97.28"/>
<polygon fill="#63b8ff" stroke="#63b8ff" points="314.63,-121.68 318.12,-131.68 321.63,-121.68 314.63,-121.68"/>
</g>
<!-- Node3&#45;&gt;Node5 -->
<g id="edge4" class="edge">
<title>Node3&#45;&gt;Node5</title>
<path fill="none" stroke="#63b8ff" d="M268.86,-130.11C220.92,-118.91 149.04,-102.12 104.99,-91.83"/>
<polygon fill="#63b8ff" stroke="#63b8ff" points="267.77,-133.69 278.3,-132.55 269.36,-126.87 267.77,-133.69"/>
</g>
<!-- Node3&#45;&gt;Node7 -->
<g id="edge6" class="edge">
<title>Node3&#45;&gt;Node7</title>
<path fill="none" stroke="#63b8ff" d="M346.28,-127.81C364.88,-118.69 389.22,-106.74 408.17,-97.44"/>
<polygon fill="#63b8ff" stroke="#63b8ff" points="345.05,-125.01 337.61,-132.55 348.13,-131.29 345.05,-125.01"/>
</g>
<!-- Node8 -->
<g id="node8" class="node">
<title>Node8</title>
<g id="a_node8"><a xlink:href="vertex__phasors_8h.html" target="_top" xlink:title="Contains a class that handles the complex amplitude extraction at the vertices.">
<polygon fill="white" stroke="#666666" points="251.88,-97 150.38,-97 150.38,-66.5 251.88,-66.5 251.88,-97"/>
<text text-anchor="start" x="158.38" y="-83.5" font-family="Helvetica,sans-Serif" font-size="10.00">tdms/include/vertex</text>
<text text-anchor="middle" x="201.12" y="-72.25" font-family="Helvetica,sans-Serif" font-size="10.00">_phasors.h</text>
</a>
</g>
</g>
<!-- Node3&#45;&gt;Node8 -->
<g id="edge7" class="edge">
<title>Node3&#45;&gt;Node8</title>
<path fill="none" stroke="#63b8ff" d="M290.42,-127.68C272.32,-118.58 248.72,-106.7 230.33,-97.44"/>
<polygon fill="#63b8ff" stroke="#63b8ff" points="288.59,-131.19 299.1,-132.55 291.74,-124.93 288.59,-131.19"/>
</g>
<!-- Node6 -->
<g id="node6" class="node">
<title>Node6</title>
<g id="a_node6"><a xlink:href="test___field_sample_8cpp.html" target="_top" xlink:title="Unit tests for the FieldSample class and its subclasses.">
<polygon fill="white" stroke="#666666" points="116.5,-30.5 15.75,-30.5 15.75,0 116.5,0 116.5,-30.5"/>
<text text-anchor="start" x="23.75" y="-17" font-family="Helvetica,sans-Serif" font-size="10.00">tdms/tests/unit/test</text>
<text text-anchor="middle" x="66.12" y="-5.75" font-family="Helvetica,sans-Serif" font-size="10.00">_FieldSample.cpp</text>
</a>
</g>
</g>
<!-- Node5&#45;&gt;Node6 -->
<g id="edge5" class="edge">
<title>Node5&#45;&gt;Node6</title>
<path fill="none" stroke="#63b8ff" d="M66.12,-61.02C66.12,-51.2 66.12,-39.55 66.12,-30.59"/>
<polygon fill="#63b8ff" stroke="#63b8ff" points="62.63,-60.78 66.12,-70.78 69.63,-60.78 62.63,-60.78"/>
</g>
<!-- Node9 -->
<g id="node9" class="node">
<title>Node9</title>
<g id="a_node9"><a xlink:href="test___vertex_phasors_8cpp.html" target="_top" xlink:title="Unit tests for the VertexPhasors class.">
<polygon fill="white" stroke="#666666" points="253.38,-30.5 148.88,-30.5 148.88,0 253.38,0 253.38,-30.5"/>
<text text-anchor="start" x="156.88" y="-17" font-family="Helvetica,sans-Serif" font-size="10.00">tdms/tests/unit/test</text>
<text text-anchor="middle" x="201.12" y="-5.75" font-family="Helvetica,sans-Serif" font-size="10.00">_VertexPhasors.cpp</text>
</a>
</g>
</g>
<!-- Node8&#45;&gt;Node9 -->
<g id="edge8" class="edge">
<title>Node8&#45;&gt;Node9</title>
<path fill="none" stroke="#63b8ff" d="M201.12,-55.38C201.12,-47.05 201.12,-38.08 201.12,-30.83"/>
<polygon fill="#63b8ff" stroke="#63b8ff" points="197.63,-55.11 201.12,-65.11 204.63,-55.11 197.63,-55.11"/>
</g>
<!-- Node10&#45;&gt;Node3 -->
<g id="edge11" class="edge">
<title>Node10&#45;&gt;Node3</title>
<path fill="none" stroke="#63b8ff" d="M235.69,-183.08C257.12,-172.83 282.4,-160.72 299.26,-152.65"/>
<polygon fill="#63b8ff" stroke="#63b8ff" points="234.35,-180.32 226.85,-187.8 237.38,-186.63 234.35,-180.32"/>
</g>
<!-- Node10&#45;&gt;Node5 -->
<g id="edge12" class="edge">
<title>Node10&#45;&gt;Node5</title>
<path fill="none" stroke="#63b8ff" d="M150.54,-182.84C135.58,-174.82 119.56,-164.51 107.12,-152.25 88.77,-134.15 75.62,-106.17 69.67,-91.86"/>
<polygon fill="#63b8ff" stroke="#63b8ff" points="148.67,-186.33 159.17,-187.78 151.87,-180.1 148.67,-186.33"/>
</g>
<!-- Node11 -->
<g id="node11" class="node">
<title>Node11</title>
<g id="a_node11"><a xlink:href="mesh__base_8h.html" target="_top" xlink:title="Generation of orientated mesh.">
<polygon fill="white" stroke="#666666" points="249.62,-152.25 116.62,-152.25 116.62,-133 249.62,-133 249.62,-152.25"/>
<text text-anchor="middle" x="183.12" y="-138.75" font-family="Helvetica,sans-Serif" font-size="10.00">tdms/include/mesh_base.h</text>
</a>
</g>
</g>
<!-- Node10&#45;&gt;Node11 -->
<g id="edge13" class="edge">
<title>Node10&#45;&gt;Node11</title>
<path fill="none" stroke="#63b8ff" d="M190,-177.36C188.21,-168.59 186.32,-159.31 184.97,-152.7"/>
<polygon fill="#63b8ff" stroke="#63b8ff" points="186.73,-177.85 192.16,-186.95 193.59,-176.45 186.73,-177.85"/>
</g>
</g>
</svg>
