<?xml version="1.0" encoding="UTF-8" standalone="no"?>
<!DOCTYPE svg PUBLIC "-//W3C//DTD SVG 1.1//EN"
 "http://www.w3.org/Graphics/SVG/1.1/DTD/svg11.dtd">
<!-- Generated by graphviz version 8.0.4 (20230421.1958)
 -->
<!-- Title: tdms/include/utils.h Pages: 1 -->
<svg width="582pt" height="360pt"
 viewBox="0.00 0.00 581.50 359.75" xmlns="http://www.w3.org/2000/svg" xmlns:xlink="http://www.w3.org/1999/xlink">
<g id="graph0" class="graph" transform="scale(1 1) rotate(0) translate(4 355.75)">
<title>tdms/include/utils.h</title>
<!-- Node1 -->
<g id="node1" class="node">
<title>Node1</title>
<g id="a_node1"><a xlink:title="Useful miscellaneous utility functions.">
<polygon fill="#999999" stroke="#666666" points="468.5,-351.75 367.75,-351.75 367.75,-332.5 468.5,-332.5 468.5,-351.75"/>
<text text-anchor="middle" x="418.12" y="-338.25" font-family="Helvetica,sans-Serif" font-size="10.00">tdms/include/utils.h</text>
</a>
</g>
</g>
<!-- Node2 -->
<g id="node2" class="node">
<title>Node2</title>
<g id="a_node2"><a xlink:href="arrays_8h.html" target="_top" xlink:title="Classes describing arrays, vertices etc.">
<polygon fill="white" stroke="#666666" points="412,-290.88 302.25,-290.88 302.25,-271.62 412,-271.62 412,-290.88"/>
<text text-anchor="middle" x="357.12" y="-277.38" font-family="Helvetica,sans-Serif" font-size="10.00">tdms/include/arrays.h</text>
</a>
</g>
</g>
<!-- Node1&#45;&gt;Node2 -->
<g id="edge1" class="edge">
<title>Node1&#45;&gt;Node2</title>
<path fill="none" stroke="#63b8ff" d="M401.02,-324.62C389.83,-313.82 375.65,-300.12 366.48,-291.28"/>
<polygon fill="#63b8ff" stroke="#63b8ff" points="398.23,-326.76 407.86,-331.18 403.1,-321.72 398.23,-326.76"/>
</g>
<!-- Node14 -->
<g id="node14" class="node">
<title>Node14</title>
<g id="a_node14"><a xlink:href="test__utils_8cpp.html" target="_top" xlink:title="Tests of the utility functions.">
<polygon fill="white" stroke="#666666" points="530.5,-296.5 429.75,-296.5 429.75,-266 530.5,-266 530.5,-296.5"/>
<text text-anchor="start" x="437.75" y="-283" font-family="Helvetica,sans-Serif" font-size="10.00">tdms/tests/unit/test</text>
<text text-anchor="middle" x="480.12" y="-271.75" font-family="Helvetica,sans-Serif" font-size="10.00">_utils.cpp</text>
</a>
</g>
</g>
<!-- Node1&#45;&gt;Node14 -->
<g id="edge19" class="edge">
<title>Node1&#45;&gt;Node14</title>
<path fill="none" stroke="#63b8ff" d="M435.33,-324.79C444.58,-316.01 455.88,-305.27 464.82,-296.78"/>
<polygon fill="#63b8ff" stroke="#63b8ff" points="433.38,-321.76 428.54,-331.18 438.2,-326.84 433.38,-321.76"/>
</g>
<!-- Node3 -->
<g id="node3" class="node">
<title>Node3</title>
<g id="a_node3"><a xlink:href="field_8h.html" target="_top" xlink:title="Classes for the electric and magnetic (split) fields on a grid.">
<polygon fill="white" stroke="#666666" points="329.5,-157.88 228.75,-157.88 228.75,-138.62 329.5,-138.62 329.5,-157.88"/>
<text text-anchor="middle" x="279.12" y="-144.38" font-family="Helvetica,sans-Serif" font-size="10.00">tdms/include/field.h</text>
</a>
</g>
</g>
<!-- Node2&#45;&gt;Node3 -->
<g id="edge2" class="edge">
<title>Node2&#45;&gt;Node3</title>
<path fill="none" stroke="#63b8ff" d="M346.27,-262.03C329.34,-233.59 297.25,-179.7 284.52,-158.32"/>
<polygon fill="#63b8ff" stroke="#63b8ff" points="343.64,-263.44 351.76,-270.25 349.65,-259.86 343.64,-263.44"/>
</g>
<!-- Node5 -->
<g id="node5" class="node">
<title>Node5</title>
<g id="a_node5"><a xlink:href="fieldsample_8h.html" target="_top" xlink:title="Class that stores the extracted field values at user&#45;defined vertices.">
<polygon fill="white" stroke="#666666" points="132.25,-91.38 0,-91.38 0,-72.12 132.25,-72.12 132.25,-91.38"/>
<text text-anchor="middle" x="66.12" y="-77.88" font-family="Helvetica,sans-Serif" font-size="10.00">tdms/include/fieldsample.h</text>
</a>
</g>
</g>
<!-- Node2&#45;&gt;Node5 -->
<g id="edge9" class="edge">
<title>Node2&#45;&gt;Node5</title>
<path fill="none" stroke="#63b8ff" d="M291,-279.92C211.15,-275.38 81.21,-253.66 30.12,-163.5 15.9,-138.39 41.98,-106.61 56.84,-91.5"/>
<polygon fill="#63b8ff" stroke="#63b8ff" points="290.76,-283.46 300.92,-280.45 291.1,-276.47 290.76,-283.46"/>
</g>
<!-- Node7 -->
<g id="node7" class="node">
<title>Node7</title>
<g id="a_node7"><a xlink:href="surface__phasors_8h.html" target="_top" xlink:title="Contains a class that handles the complex amplitude extraction.">
<polygon fill="white" stroke="#666666" points="371.5,-97 264.75,-97 264.75,-66.5 371.5,-66.5 371.5,-97"/>
<text text-anchor="start" x="272.75" y="-83.5" font-family="Helvetica,sans-Serif" font-size="10.00">tdms/include/surface</text>
<text text-anchor="middle" x="318.12" y="-72.25" font-family="Helvetica,sans-Serif" font-size="10.00">_phasors.h</text>
</a>
</g>
</g>
<!-- Node2&#45;&gt;Node7 -->
<g id="edge16" class="edge">
<title>Node2&#45;&gt;Node7</title>
<path fill="none" stroke="#63b8ff" d="M356.13,-260.22C354.35,-231.6 349.67,-177.56 338.12,-133 334.92,-120.64 329.48,-107.23 325.08,-97.37"/>
<polygon fill="#63b8ff" stroke="#63b8ff" points="352.69,-260.35 356.74,-270.14 359.68,-259.96 352.69,-260.35"/>
</g>
<!-- Node8 -->
<g id="node8" class="node">
<title>Node8</title>
<g id="a_node8"><a xlink:href="vertex__phasors_8h.html" target="_top" xlink:title="Contains a class that handles the complex amplitude extraction at the vertices.">
<polygon fill="white" stroke="#666666" points="490.88,-97 389.38,-97 389.38,-66.5 490.88,-66.5 490.88,-97"/>
<text text-anchor="start" x="397.38" y="-83.5" font-family="Helvetica,sans-Serif" font-size="10.00">tdms/include/vertex</text>
<text text-anchor="middle" x="440.12" y="-72.25" font-family="Helvetica,sans-Serif" font-size="10.00">_phasors.h</text>
</a>
</g>
</g>
<!-- Node2&#45;&gt;Node8 -->
<g id="edge17" class="edge">
<title>Node2&#45;&gt;Node8</title>
<path fill="none" stroke="#63b8ff" d="M365.14,-261.17C381.67,-221.86 419.19,-132.57 433.97,-97.39"/>
<polygon fill="#63b8ff" stroke="#63b8ff" points="361.55,-259.68 360.91,-270.25 368.01,-262.39 361.55,-259.68"/>
</g>
<!-- Node10 -->
<g id="node10" class="node">
<title>Node10</title>
<g id="a_node10"><a xlink:href="hdf5__io_8h.html" target="_top" xlink:title="Helper classes for HDF5 file I/O.">
<polygon fill="white" stroke="#666666" points="537.25,-224.38 423,-224.38 423,-205.12 537.25,-205.12 537.25,-224.38"/>
<text text-anchor="middle" x="480.12" y="-210.88" font-family="Helvetica,sans-Serif" font-size="10.00">tdms/include/hdf5_io.h</text>
</a>
</g>
</g>
<!-- Node2&#45;&gt;Node10 -->
<g id="edge10" class="edge">
<title>Node2&#45;&gt;Node10</title>
<path fill="none" stroke="#63b8ff" d="M384.05,-266.13C408.03,-253.56 442.38,-235.54 462.85,-224.81"/>
<polygon fill="#63b8ff" stroke="#63b8ff" points="382.72,-263.4 375.49,-271.15 385.97,-269.6 382.72,-263.4"/>
</g>
<!-- Node11 -->
<g id="node11" class="node">
<title>Node11</title>
<g id="a_node11"><a xlink:href="test__hdf5__io_8cpp.html" target="_top" xlink:title="Tests of the HDF5 file I/O functionality.">
<polygon fill="white" stroke="#666666" points="573.5,-163.5 472.75,-163.5 472.75,-133 573.5,-133 573.5,-163.5"/>
<text text-anchor="start" x="480.75" y="-150" font-family="Helvetica,sans-Serif" font-size="10.00">tdms/tests/unit/test</text>
<text text-anchor="middle" x="523.12" y="-138.75" font-family="Helvetica,sans-Serif" font-size="10.00">_hdf5_io.cpp</text>
</a>
</g>
</g>
<!-- Node2&#45;&gt;Node11 -->
<g id="edge18" class="edge">
<title>Node2&#45;&gt;Node11</title>
<path fill="none" stroke="#63b8ff" d="M406.5,-268.7C461.03,-255.7 541.76,-235.68 546.12,-230 561.23,-210.36 546.13,-181.19 534.28,-163.82"/>
<polygon fill="#63b8ff" stroke="#63b8ff" points="405.9,-265.48 396.98,-271.19 407.51,-272.29 405.9,-265.48"/>
</g>
<!-- Node12 -->
<g id="node12" class="node">
<title>Node12</title>
<g id="a_node12"><a xlink:href="simulation__parameters_8h.html" target="_top" xlink:title="Classes collecting parameters for the simulation.">
<polygon fill="white" stroke="#666666" points="268.5,-230 149.75,-230 149.75,-199.5 268.5,-199.5 268.5,-230"/>
<text text-anchor="start" x="157.75" y="-216.5" font-family="Helvetica,sans-Serif" font-size="10.00">tdms/include/simulation</text>
<text text-anchor="middle" x="209.12" y="-205.25" font-family="Helvetica,sans-Serif" font-size="10.00">_parameters.h</text>
</a>
</g>
</g>
<!-- Node2&#45;&gt;Node12 -->
<g id="edge12" class="edge">
<title>Node2&#45;&gt;Node12</title>
<path fill="none" stroke="#63b8ff" d="M326.42,-266.87C302,-256.23 267.88,-241.36 242.74,-230.4"/>
<polygon fill="#63b8ff" stroke="#63b8ff" points="324.67,-270.36 335.23,-271.15 327.47,-263.94 324.67,-270.36"/>
</g>
<!-- Node4 -->
<g id="node4" class="node">
<title>Node4</title>
<g id="a_node4"><a xlink:href="array__init_8h.html" target="_top" xlink:title="A collection of functions for array initialisation given MATLAB pointers.">
<polygon fill="white" stroke="#666666" points="246.25,-97 150,-97 150,-66.5 246.25,-66.5 246.25,-97"/>
<text text-anchor="start" x="158" y="-83.5" font-family="Helvetica,sans-Serif" font-size="10.00">tdms/include/array</text>
<text text-anchor="middle" x="198.12" y="-72.25" font-family="Helvetica,sans-Serif" font-size="10.00">_init.h</text>
</a>
</g>
</g>
<!-- Node3&#45;&gt;Node4 -->
<g id="edge3" class="edge">
<title>Node3&#45;&gt;Node4</title>
<path fill="none" stroke="#63b8ff" d="M259.53,-131.65C246.42,-121.21 229.29,-107.56 216.45,-97.34"/>
<polygon fill="#63b8ff" stroke="#63b8ff" points="256.86,-134.79 266.86,-138.28 261.22,-129.31 256.86,-134.79"/>
</g>
<!-- Node3&#45;&gt;Node5 -->
<g id="edge4" class="edge">
<title>Node3&#45;&gt;Node5</title>
<path fill="none" stroke="#63b8ff" d="M238.74,-135.02C197.15,-122.43 133.31,-103.09 96.04,-91.81"/>
<polygon fill="#63b8ff" stroke="#63b8ff" points="237.47,-138.6 248.06,-138.15 239.5,-131.9 237.47,-138.6"/>
</g>
<!-- Node3&#45;&gt;Node7 -->
<g id="edge6" class="edge">
<title>Node3&#45;&gt;Node7</title>
<path fill="none" stroke="#63b8ff" d="M290.09,-129.12C296.21,-118.99 303.74,-106.54 309.45,-97.09"/>
<polygon fill="#63b8ff" stroke="#63b8ff" points="286.73,-126.91 284.55,-137.28 292.72,-130.54 286.73,-126.91"/>
</g>
<!-- Node3&#45;&gt;Node8 -->
<g id="edge7" class="edge">
<title>Node3&#45;&gt;Node8</title>
<path fill="none" stroke="#63b8ff" d="M311.82,-134.15C338.43,-123.49 375.96,-108.46 403.56,-97.4"/>
<polygon fill="#63b8ff" stroke="#63b8ff" points="310.83,-131.18 302.85,-138.15 313.44,-137.68 310.83,-131.18"/>
</g>
<!-- Node6 -->
<g id="node6" class="node">
<title>Node6</title>
<g id="a_node6"><a xlink:href="test___field_sample_8cpp.html" target="_top" xlink:title="Unit tests for the FieldSample class and its subclasses.">
<polygon fill="white" stroke="#666666" points="116.5,-30.5 15.75,-30.5 15.75,0 116.5,0 116.5,-30.5"/>
<text text-anchor="start" x="23.75" y="-17" font-family="Helvetica,sans-Serif" font-size="10.00">tdms/tests/unit/test</text>
<text text-anchor="middle" x="66.12" y="-5.75" font-family="Helvetica,sans-Serif" font-size="10.00">_FieldSample.cpp</text>
</a>
</g>
</g>
<!-- Node5&#45;&gt;Node6 -->
<g id="edge5" class="edge">
<title>Node5&#45;&gt;Node6</title>
<path fill="none" stroke="#63b8ff" d="M66.12,-61.02C66.12,-51.2 66.12,-39.55 66.12,-30.59"/>
<polygon fill="#63b8ff" stroke="#63b8ff" points="62.63,-60.78 66.12,-70.78 69.63,-60.78 62.63,-60.78"/>
</g>
<!-- Node9 -->
<g id="node9" class="node">
<title>Node9</title>
<g id="a_node9"><a xlink:href="test___vertex_phasors_8cpp.html" target="_top" xlink:title="Unit tests for the VertexPhasors class.">
<polygon fill="white" stroke="#666666" points="492.38,-30.5 387.88,-30.5 387.88,0 492.38,0 492.38,-30.5"/>
<text text-anchor="start" x="395.88" y="-17" font-family="Helvetica,sans-Serif" font-size="10.00">tdms/tests/unit/test</text>
<text text-anchor="middle" x="440.12" y="-5.75" font-family="Helvetica,sans-Serif" font-size="10.00">_VertexPhasors.cpp</text>
</a>
</g>
</g>
<!-- Node8&#45;&gt;Node9 -->
<g id="edge8" class="edge">
<title>Node8&#45;&gt;Node9</title>
<path fill="none" stroke="#63b8ff" d="M440.12,-55.38C440.12,-47.05 440.12,-38.08 440.12,-30.83"/>
<polygon fill="#63b8ff" stroke="#63b8ff" points="436.63,-55.11 440.12,-65.11 443.63,-55.11 436.63,-55.11"/>
</g>
<!-- Node10&#45;&gt;Node11 -->
<g id="edge11" class="edge">
<title>Node10&#45;&gt;Node11</title>
<path fill="none" stroke="#63b8ff" d="M492,-195.94C498.79,-185.75 507.2,-173.14 513.56,-163.59"/>
<polygon fill="#63b8ff" stroke="#63b8ff" points="488.74,-193.52 486.1,-203.78 494.56,-197.4 488.74,-193.52"/>
</g>
<!-- Node12&#45;&gt;Node3 -->
<g id="edge13" class="edge">
<title>Node12&#45;&gt;Node3</title>
<path fill="none" stroke="#63b8ff" d="M232.87,-191.87C245.43,-180.3 260.15,-166.74 269.55,-158.07"/>
<polygon fill="#63b8ff" stroke="#63b8ff" points="230.99,-188.76 226.01,-198.11 235.73,-193.91 230.99,-188.76"/>
</g>
<!-- Node12&#45;&gt;Node5 -->
<g id="edge14" class="edge">
<title>Node12&#45;&gt;Node5</title>
<path fill="none" stroke="#63b8ff" d="M205.8,-188.53C202.31,-171.06 195.26,-148.28 181.12,-133 161.6,-111.88 131.63,-99.18 107.19,-91.84"/>
<polygon fill="#63b8ff" stroke="#63b8ff" points="202.47,-188.85 207.61,-198.12 209.37,-187.67 202.47,-188.85"/>
</g>
<!-- Node13 -->
<g id="node13" class="node">
<title>Node13</title>
<g id="a_node13"><a xlink:href="mesh__base_8h.html" target="_top" xlink:title="Generation of orientated mesh.">
<polygon fill="white" stroke="#666666" points="172.62,-157.88 39.62,-157.88 39.62,-138.62 172.62,-138.62 172.62,-157.88"/>
<text text-anchor="middle" x="106.12" y="-144.38" font-family="Helvetica,sans-Serif" font-size="10.00">tdms/include/mesh_base.h</text>
</a>
</g>
</g>
<!-- Node12&#45;&gt;Node13 -->
<g id="edge15" class="edge">
<title>Node12&#45;&gt;Node13</title>
<path fill="none" stroke="#63b8ff" d="M176.6,-193.38C157.76,-181.58 134.97,-167.31 120.51,-158.26"/>
<polygon fill="#63b8ff" stroke="#63b8ff" points="174.42,-196.77 184.75,-199.11 178.13,-190.84 174.42,-196.77"/>
</g>
</g>
</svg>
