<?xml version="1.0" encoding="UTF-8" standalone="no"?>
<!DOCTYPE svg PUBLIC "-//W3C//DTD SVG 1.1//EN"
 "http://www.w3.org/Graphics/SVG/1.1/DTD/svg11.dtd">
<!-- Generated by graphviz version 8.0.4 (20230421.1958)
 -->
<!-- Title: tdms/include/vertex_phasors.h Pages: 1 -->
<svg width="1150pt" height="370pt"
 viewBox="0.00 0.00 1149.88 370.00" xmlns="http://www.w3.org/2000/svg" xmlns:xlink="http://www.w3.org/1999/xlink">
<g id="graph0" class="graph" transform="scale(1 1) rotate(0) translate(4 366)">
<title>tdms/include/vertex_phasors.h</title>
<!-- Node1 -->
<g id="node1" class="node">
<title>Node1</title>
<g id="a_node1"><a xlink:title="Contains a class that handles the complex amplitude extraction at the vertices.">
<polygon fill="#999999" stroke="#666666" points="201.75,-362 100.25,-362 100.25,-331.5 201.75,-331.5 201.75,-362"/>
<text text-anchor="start" x="108.25" y="-348.5" font-family="Helvetica,sans-Serif" font-size="10.00">tdms/include/vertex</text>
<text text-anchor="middle" x="151" y="-337.25" font-family="Helvetica,sans-Serif" font-size="10.00">_phasors.h</text>
</a>
</g>
</g>
<!-- Node2 -->
<g id="node2" class="node">
<title>Node2</title>
<g id="a_node2"><a xlink:title=" ">
<polygon fill="#e0e0e0" stroke="#999999" points="110.38,-74.5 57.62,-74.5 57.62,-55.25 110.38,-55.25 110.38,-74.5"/>
<text text-anchor="middle" x="84" y="-61" font-family="Helvetica,sans-Serif" font-size="10.00">complex</text>
</a>
</g>
</g>
<!-- Node1&#45;&gt;Node2 -->
<g id="edge1" class="edge">
<title>Node1&#45;&gt;Node2</title>
<path fill="none" stroke="#63b8ff" d="M101.14,-331.05C57.16,-314.65 0,-283.38 0,-231.62 0,-231.62 0,-231.62 0,-174.38 0,-144.76 1.57,-134.45 19,-110.5 28.24,-97.8 42.26,-87.52 54.91,-80.04"/>
<polygon fill="#63b8ff" stroke="#63b8ff" points="56.18,-82.79 63.22,-74.87 52.78,-76.67 56.18,-82.79"/>
</g>
<!-- Node3 -->
<g id="node3" class="node">
<title>Node3</title>
<g id="a_node3"><a xlink:href="arrays_8h.html" target="_top" xlink:title="Classes describing arrays, vertices etc.">
<polygon fill="white" stroke="#666666" points="313.62,-185 262.38,-185 262.38,-165.75 313.62,-165.75 313.62,-185"/>
<text text-anchor="middle" x="288" y="-171.5" font-family="Helvetica,sans-Serif" font-size="10.00">arrays.h</text>
</a>
</g>
</g>
<!-- Node1&#45;&gt;Node3 -->
<g id="edge2" class="edge">
<title>Node1&#45;&gt;Node3</title>
<path fill="none" stroke="#63b8ff" d="M162.92,-331.02C188.15,-299.82 246.85,-227.25 273.9,-193.81"/>
<polygon fill="#63b8ff" stroke="#63b8ff" points="277.06,-196.46 280.63,-186.49 271.62,-192.06 277.06,-196.46"/>
</g>
<!-- Node10 -->
<g id="node10" class="node">
<title>Node10</title>
<g id="a_node10"><a xlink:href="field_8h.html" target="_top" xlink:title="Classes for the electric and magnetic (split) fields on a grid.">
<polygon fill="white" stroke="#666666" points="443.12,-295.5 400.88,-295.5 400.88,-276.25 443.12,-276.25 443.12,-295.5"/>
<text text-anchor="middle" x="422" y="-282" font-family="Helvetica,sans-Serif" font-size="10.00">field.h</text>
</a>
</g>
</g>
<!-- Node1&#45;&gt;Node10 -->
<g id="edge12" class="edge">
<title>Node1&#45;&gt;Node10</title>
<path fill="none" stroke="#63b8ff" d="M201.97,-334.68C257.21,-322.67 343.66,-303.89 390.05,-293.82"/>
<polygon fill="#63b8ff" stroke="#63b8ff" points="390.63,-297.05 399.66,-291.51 389.15,-290.21 390.63,-297.05"/>
</g>
<!-- Node24 -->
<g id="node24" class="node">
<title>Node24</title>
<g id="a_node24"><a xlink:href="grid__labels_8h.html" target="_top" xlink:title="Class to hold the labels of a Yee cell.">
<polygon fill="white" stroke="#666666" points="833.38,-295.5 762.62,-295.5 762.62,-276.25 833.38,-276.25 833.38,-295.5"/>
<text text-anchor="middle" x="798" y="-282" font-family="Helvetica,sans-Serif" font-size="10.00">grid_labels.h</text>
</a>
</g>
</g>
<!-- Node1&#45;&gt;Node24 -->
<g id="edge38" class="edge">
<title>Node1&#45;&gt;Node24</title>
<path fill="none" stroke="#63b8ff" d="M202.04,-341.11C324.6,-329.95 634.07,-301.79 751.68,-291.09"/>
<polygon fill="#63b8ff" stroke="#63b8ff" points="751.81,-294.5 761.45,-290.11 751.17,-287.53 751.81,-294.5"/>
</g>
<!-- Node3&#45;&gt;Node2 -->
<g id="edge3" class="edge">
<title>Node3&#45;&gt;Node2</title>
<path fill="none" stroke="#63b8ff" d="M262,-166.99C237.25,-159.42 199.37,-146.41 169,-129.75 144.28,-116.19 118.81,-96.08 102.27,-82.06"/>
<polygon fill="#63b8ff" stroke="#63b8ff" points="104.92,-78.86 95.07,-74.97 100.35,-84.16 104.92,-78.86"/>
</g>
<!-- Node4 -->
<g id="node4" class="node">
<title>Node4</title>
<g id="a_node4"><a xlink:title=" ">
<polygon fill="#e0e0e0" stroke="#999999" points="236.38,-129.75 177.62,-129.75 177.62,-110.5 236.38,-110.5 236.38,-129.75"/>
<text text-anchor="middle" x="207" y="-116.25" font-family="Helvetica,sans-Serif" font-size="10.00">stdexcept</text>
</a>
</g>
</g>
<!-- Node3&#45;&gt;Node4 -->
<g id="edge4" class="edge">
<title>Node3&#45;&gt;Node4</title>
<path fill="none" stroke="#63b8ff" d="M274.26,-165.34C262.04,-157.31 243.94,-145.41 229.59,-135.98"/>
<polygon fill="#63b8ff" stroke="#63b8ff" points="232.09,-132.77 221.81,-130.2 228.24,-138.62 232.09,-132.77"/>
</g>
<!-- Node5 -->
<g id="node5" class="node">
<title>Node5</title>
<g id="a_node5"><a xlink:title=" ">
<polygon fill="#e0e0e0" stroke="#999999" points="545,-74.5 505,-74.5 505,-55.25 545,-55.25 545,-74.5"/>
<text text-anchor="middle" x="525" y="-61" font-family="Helvetica,sans-Serif" font-size="10.00">string</text>
</a>
</g>
</g>
<!-- Node3&#45;&gt;Node5 -->
<g id="edge5" class="edge">
<title>Node3&#45;&gt;Node5</title>
<path fill="none" stroke="#63b8ff" d="M283.74,-165.35C278.04,-151.78 270.05,-126.06 283,-110.5 309.46,-78.72 434.29,-69.48 493.59,-66.87"/>
<polygon fill="#63b8ff" stroke="#63b8ff" points="493.67,-70.33 503.52,-66.43 493.39,-63.34 493.67,-70.33"/>
</g>
<!-- Node6 -->
<g id="node6" class="node">
<title>Node6</title>
<g id="a_node6"><a xlink:title=" ">
<polygon fill="#e0e0e0" stroke="#999999" points="398,-129.75 352,-129.75 352,-110.5 398,-110.5 398,-129.75"/>
<text text-anchor="middle" x="375" y="-116.25" font-family="Helvetica,sans-Serif" font-size="10.00">fftw3.h</text>
</a>
</g>
</g>
<!-- Node3&#45;&gt;Node6 -->
<g id="edge6" class="edge">
<title>Node3&#45;&gt;Node6</title>
<path fill="none" stroke="#63b8ff" d="M302.76,-165.34C316.01,-157.23 335.69,-145.18 351.17,-135.71"/>
<polygon fill="#63b8ff" stroke="#63b8ff" points="352.47,-138.41 359.17,-130.2 348.81,-132.44 352.47,-138.41"/>
</g>
<!-- Node7 -->
<g id="node7" class="node">
<title>Node7</title>
<g id="a_node7"><a xlink:href="globals_8h.html" target="_top" xlink:title="Type definitions and global constants.">
<polygon fill="white" stroke="#666666" points="83.5,-129.75 28.5,-129.75 28.5,-110.5 83.5,-110.5 83.5,-129.75"/>
<text text-anchor="middle" x="56" y="-116.25" font-family="Helvetica,sans-Serif" font-size="10.00">globals.h</text>
</a>
</g>
</g>
<!-- Node3&#45;&gt;Node7 -->
<g id="edge7" class="edge">
<title>Node3&#45;&gt;Node7</title>
<path fill="none" stroke="#63b8ff" d="M262.29,-168.47C221.57,-159.13 142.02,-140.87 94.48,-129.96"/>
<polygon fill="#63b8ff" stroke="#63b8ff" points="95.52,-126.38 84.99,-127.55 93.96,-133.2 95.52,-126.38"/>
</g>
<!-- Node8 -->
<g id="node8" class="node">
<title>Node8</title>
<g id="a_node8"><a xlink:title=" ">
<polygon fill="#e0e0e0" stroke="#999999" points="477.5,-129.75 416.5,-129.75 416.5,-110.5 477.5,-110.5 477.5,-129.75"/>
<text text-anchor="middle" x="447" y="-116.25" font-family="Helvetica,sans-Serif" font-size="10.00">matlabio.h</text>
</a>
</g>
</g>
<!-- Node3&#45;&gt;Node8 -->
<g id="edge9" class="edge">
<title>Node3&#45;&gt;Node8</title>
<path fill="none" stroke="#63b8ff" d="M313.9,-165.7C339.84,-157.01 380.03,-143.55 409.47,-133.69"/>
<polygon fill="#63b8ff" stroke="#63b8ff" points="410.41,-136.74 418.78,-130.24 408.19,-130.1 410.41,-136.74"/>
</g>
<!-- Node9 -->
<g id="node9" class="node">
<title>Node9</title>
<g id="a_node9"><a xlink:href="utils_8h.html" target="_top" xlink:title="Useful miscellaneous utility functions.">
<polygon fill="white" stroke="#666666" points="334.12,-129.75 291.88,-129.75 291.88,-110.5 334.12,-110.5 334.12,-129.75"/>
<text text-anchor="middle" x="313" y="-116.25" font-family="Helvetica,sans-Serif" font-size="10.00">utils.h</text>
</a>
</g>
</g>
<!-- Node3&#45;&gt;Node9 -->
<g id="edge10" class="edge">
<title>Node3&#45;&gt;Node9</title>
<path fill="none" stroke="#63b8ff" d="M292.13,-165.58C295.4,-158.61 300.09,-148.62 304.2,-139.87"/>
<polygon fill="#63b8ff" stroke="#63b8ff" points="307.7,-141.65 308.78,-131.11 301.36,-138.67 307.7,-141.65"/>
</g>
<!-- Node7&#45;&gt;Node2 -->
<g id="edge8" class="edge">
<title>Node7&#45;&gt;Node2</title>
<path fill="none" stroke="#63b8ff" d="M60.62,-110.33C64.33,-103.28 69.66,-93.15 74.29,-84.33"/>
<polygon fill="#63b8ff" stroke="#63b8ff" points="77.72,-86.34 79.28,-75.86 71.52,-83.08 77.72,-86.34"/>
</g>
<!-- Node9&#45;&gt;Node5 -->
<g id="edge11" class="edge">
<title>Node9&#45;&gt;Node5</title>
<path fill="none" stroke="#63b8ff" d="M334.6,-112.8C337.42,-112.01 340.28,-111.23 343,-110.5 395.99,-96.39 458.11,-81.52 494.35,-73"/>
<polygon fill="#63b8ff" stroke="#63b8ff" points="494.8,-76.26 503.73,-70.57 493.2,-69.44 494.8,-76.26"/>
</g>
<!-- Node10&#45;&gt;Node2 -->
<g id="edge13" class="edge">
<title>Node10&#45;&gt;Node2</title>
<path fill="none" stroke="#63b8ff" d="M400.42,-276.73C350.09,-257.02 222.56,-202.95 135,-129.75 119.05,-116.42 104.66,-97.44 95.26,-83.63"/>
<polygon fill="#63b8ff" stroke="#63b8ff" points="97.77,-82.08 89.35,-75.65 91.93,-85.93 97.77,-82.08"/>
</g>
<!-- Node10&#45;&gt;Node3 -->
<g id="edge14" class="edge">
<title>Node10&#45;&gt;Node3</title>
<path fill="none" stroke="#63b8ff" d="M411.03,-276C388.36,-257.64 336.06,-215.29 307.49,-192.16"/>
<polygon fill="#63b8ff" stroke="#63b8ff" points="310.09,-188.95 300.12,-185.38 305.69,-194.39 310.09,-188.95"/>
</g>
<!-- Node10&#45;&gt;Node7 -->
<g id="edge23" class="edge">
<title>Node10&#45;&gt;Node7</title>
<path fill="none" stroke="#63b8ff" d="M400.41,-284.69C335.95,-283.71 146.51,-277.65 100,-240.25 69.46,-215.69 60.12,-167.79 57.26,-140.82"/>
<polygon fill="#63b8ff" stroke="#63b8ff" points="60.68,-140.72 56.35,-131.05 53.7,-141.31 60.68,-140.72"/>
</g>
<!-- Node11 -->
<g id="node11" class="node">
<title>Node11</title>
<g id="a_node11"><a xlink:href="cell__coordinate_8h.html" target="_top" xlink:title="Container for {ijk} or {IJK} grouped variables.">
<polygon fill="white" stroke="#666666" points="1072.75,-240.25 983.25,-240.25 983.25,-221 1072.75,-221 1072.75,-240.25"/>
<text text-anchor="middle" x="1028" y="-226.75" font-family="Helvetica,sans-Serif" font-size="10.00">cell_coordinate.h</text>
</a>
</g>
</g>
<!-- Node10&#45;&gt;Node11 -->
<g id="edge15" class="edge">
<title>Node10&#45;&gt;Node11</title>
<path fill="none" stroke="#63b8ff" d="M443.55,-283.06C514.18,-277.09 745.09,-257.49 936,-240.25 947.74,-239.19 960.33,-238.03 972.3,-236.91"/>
<polygon fill="#63b8ff" stroke="#63b8ff" points="972.45,-240.32 982.08,-235.9 971.8,-233.35 972.45,-240.32"/>
</g>
<!-- Node14 -->
<g id="node14" class="node">
<title>Node14</title>
<g id="a_node14"><a xlink:href="dimensions_8h.html" target="_top" xlink:title="Defines a class that serves as an explicit converter between MATLAB pointers and array dimensions.">
<polygon fill="white" stroke="#666666" points="926.88,-240.25 853.12,-240.25 853.12,-221 926.88,-221 926.88,-240.25"/>
<text text-anchor="middle" x="890" y="-226.75" font-family="Helvetica,sans-Serif" font-size="10.00">dimensions.h</text>
</a>
</g>
</g>
<!-- Node10&#45;&gt;Node14 -->
<g id="edge18" class="edge">
<title>Node10&#45;&gt;Node14</title>
<path fill="none" stroke="#63b8ff" d="M443.32,-283.06C504.84,-277.71 687.9,-261.09 839,-240.25 839.97,-240.12 840.96,-239.98 841.95,-239.84"/>
<polygon fill="#63b8ff" stroke="#63b8ff" points="842.36,-243.16 851.72,-238.2 841.3,-236.24 842.36,-243.16"/>
</g>
<!-- Node15 -->
<g id="node15" class="node">
<title>Node15</title>
<g id="a_node15"><a xlink:href="mat__io_8h.html" target="_top" xlink:title="Includes MATLAB headers for I/O.">
<polygon fill="white" stroke="#666666" points="892.75,-74.5 839.25,-74.5 839.25,-55.25 892.75,-55.25 892.75,-74.5"/>
<text text-anchor="middle" x="866" y="-61" font-family="Helvetica,sans-Serif" font-size="10.00">mat_io.h</text>
</a>
</g>
</g>
<!-- Node10&#45;&gt;Node15 -->
<g id="edge24" class="edge">
<title>Node10&#45;&gt;Node15</title>
<path fill="none" stroke="#63b8ff" d="M443.24,-282.43C509.31,-273.8 713.92,-239.11 834,-129.75 847.17,-117.76 855.63,-99.12 860.53,-85.06"/>
<polygon fill="#63b8ff" stroke="#63b8ff" points="864.03,-86.58 863.71,-75.99 857.36,-84.47 864.03,-86.58"/>
</g>
<!-- Node19 -->
<g id="node19" class="node">
<title>Node19</title>
<g id="a_node19"><a xlink:href="simulation__parameters_8h.html" target="_top" xlink:title="Classes collecting parameters for the simulation.">
<polygon fill="white" stroke="#666666" points="541.25,-240.25 418.75,-240.25 418.75,-221 541.25,-221 541.25,-240.25"/>
<text text-anchor="middle" x="480" y="-226.75" font-family="Helvetica,sans-Serif" font-size="10.00">simulation_parameters.h</text>
</a>
</g>
</g>
<!-- Node10&#45;&gt;Node19 -->
<g id="edge25" class="edge">
<title>Node10&#45;&gt;Node19</title>
<path fill="none" stroke="#63b8ff" d="M431.84,-275.84C440.14,-268.22 452.23,-257.12 462.22,-247.95"/>
<polygon fill="#63b8ff" stroke="#63b8ff" points="464.31,-250.87 469.31,-241.52 459.57,-245.71 464.31,-250.87"/>
</g>
<!-- Node12 -->
<g id="node12" class="node">
<title>Node12</title>
<g id="a_node12"><a xlink:title=" ">
<polygon fill="#e0e0e0" stroke="#999999" points="1068.12,-185 983.88,-185 983.88,-165.75 1068.12,-165.75 1068.12,-185"/>
<text text-anchor="middle" x="1026" y="-171.5" font-family="Helvetica,sans-Serif" font-size="10.00">spdlog/spdlog.h</text>
</a>
</g>
</g>
<!-- Node11&#45;&gt;Node12 -->
<g id="edge16" class="edge">
<title>Node11&#45;&gt;Node12</title>
<path fill="none" stroke="#63b8ff" d="M1027.67,-220.83C1027.42,-214.17 1027.07,-204.74 1026.75,-196.28"/>
<polygon fill="#63b8ff" stroke="#63b8ff" points="1030.21,-196.22 1026.34,-186.36 1023.22,-196.48 1030.21,-196.22"/>
</g>
<!-- Node13 -->
<g id="node13" class="node">
<title>Node13</title>
<g id="a_node13"><a xlink:title=" ">
<polygon fill="#e0e0e0" stroke="#999999" points="1141.88,-185 1086.12,-185 1086.12,-165.75 1141.88,-165.75 1141.88,-185"/>
<text text-anchor="middle" x="1114" y="-171.5" font-family="Helvetica,sans-Serif" font-size="10.00">algorithm</text>
</a>
</g>
</g>
<!-- Node11&#45;&gt;Node13 -->
<g id="edge17" class="edge">
<title>Node11&#45;&gt;Node13</title>
<path fill="none" stroke="#63b8ff" d="M1042.59,-220.59C1055.56,-212.56 1074.78,-200.66 1090.01,-191.23"/>
<polygon fill="#63b8ff" stroke="#63b8ff" points="1091.68,-193.69 1098.34,-185.45 1088,-187.74 1091.68,-193.69"/>
</g>
<!-- Node14&#45;&gt;Node15 -->
<g id="edge19" class="edge">
<title>Node14&#45;&gt;Node15</title>
<path fill="none" stroke="#63b8ff" d="M889.92,-220.57C889.59,-200.53 887.96,-151.03 880,-110.5 878.34,-102.04 875.65,-92.93 873.07,-85.15"/>
<polygon fill="#63b8ff" stroke="#63b8ff" points="876.11,-84.23 869.5,-75.95 869.5,-86.55 876.11,-84.23"/>
</g>
<!-- Node16 -->
<g id="node16" class="node">
<title>Node16</title>
<g id="a_node16"><a xlink:title=" ">
<polygon fill="#e0e0e0" stroke="#999999" points="822.38,-19.25 781.62,-19.25 781.62,0 822.38,0 822.38,-19.25"/>
<text text-anchor="middle" x="802" y="-5.75" font-family="Helvetica,sans-Serif" font-size="10.00">mat.h</text>
</a>
</g>
</g>
<!-- Node15&#45;&gt;Node16 -->
<g id="edge20" class="edge">
<title>Node15&#45;&gt;Node16</title>
<path fill="none" stroke="#63b8ff" d="M855.14,-54.84C845.8,-47.07 832.11,-35.67 820.96,-26.4"/>
<polygon fill="#63b8ff" stroke="#63b8ff" points="823.62,-23.23 813.7,-19.52 819.14,-28.61 823.62,-23.23"/>
</g>
<!-- Node17 -->
<g id="node17" class="node">
<title>Node17</title>
<g id="a_node17"><a xlink:title=" ">
<polygon fill="#e0e0e0" stroke="#999999" points="891.62,-19.25 840.38,-19.25 840.38,0 891.62,0 891.62,-19.25"/>
<text text-anchor="middle" x="866" y="-5.75" font-family="Helvetica,sans-Serif" font-size="10.00">matrix.h</text>
</a>
</g>
</g>
<!-- Node15&#45;&gt;Node17 -->
<g id="edge21" class="edge">
<title>Node15&#45;&gt;Node17</title>
<path fill="none" stroke="#63b8ff" d="M866,-55.08C866,-48.42 866,-38.99 866,-30.53"/>
<polygon fill="#63b8ff" stroke="#63b8ff" points="869.5,-30.61 866,-20.61 862.5,-30.61 869.5,-30.61"/>
</g>
<!-- Node18 -->
<g id="node18" class="node">
<title>Node18</title>
<g id="a_node18"><a xlink:title=" ">
<polygon fill="#e0e0e0" stroke="#999999" points="952.5,-19.25 909.5,-19.25 909.5,0 952.5,0 952.5,-19.25"/>
<text text-anchor="middle" x="931" y="-5.75" font-family="Helvetica,sans-Serif" font-size="10.00">mex.h</text>
</a>
</g>
</g>
<!-- Node15&#45;&gt;Node18 -->
<g id="edge22" class="edge">
<title>Node15&#45;&gt;Node18</title>
<path fill="none" stroke="#63b8ff" d="M877.03,-54.84C886.51,-47.07 900.42,-35.67 911.75,-26.4"/>
<polygon fill="#63b8ff" stroke="#63b8ff" points="913.62,-28.57 919.14,-19.52 909.18,-23.15 913.62,-28.57"/>
</g>
<!-- Node19&#45;&gt;Node3 -->
<g id="edge27" class="edge">
<title>Node19&#45;&gt;Node3</title>
<path fill="none" stroke="#63b8ff" d="M447.43,-220.59C413.3,-211.13 359.81,-196.29 324.33,-186.45"/>
<polygon fill="#63b8ff" stroke="#63b8ff" points="325.52,-182.87 314.94,-183.57 323.64,-189.62 325.52,-182.87"/>
</g>
<!-- Node19&#45;&gt;Node5 -->
<g id="edge26" class="edge">
<title>Node19&#45;&gt;Node5</title>
<path fill="none" stroke="#63b8ff" d="M482.42,-220.82C489.44,-195.28 509.93,-120.7 519.7,-85.15"/>
<polygon fill="#63b8ff" stroke="#63b8ff" points="523.29,-86.29 522.57,-75.72 516.54,-84.44 523.29,-86.29"/>
</g>
<!-- Node20 -->
<g id="node20" class="node">
<title>Node20</title>
<g id="a_node20"><a xlink:href="input__matrices_8h.html" target="_top" xlink:title="Class handling the input matrices that are read in from the input file.">
<polygon fill="white" stroke="#666666" points="672,-185 584,-185 584,-165.75 672,-165.75 672,-185"/>
<text text-anchor="middle" x="628" y="-171.5" font-family="Helvetica,sans-Serif" font-size="10.00">input_matrices.h</text>
</a>
</g>
</g>
<!-- Node19&#45;&gt;Node20 -->
<g id="edge28" class="edge">
<title>Node19&#45;&gt;Node20</title>
<path fill="none" stroke="#63b8ff" d="M505.11,-220.59C529.13,-211.95 565.6,-198.82 592.58,-189.12"/>
<polygon fill="#63b8ff" stroke="#63b8ff" points="593.55,-192.13 601.77,-185.45 591.18,-185.54 593.55,-192.13"/>
</g>
<!-- Node20&#45;&gt;Node5 -->
<g id="edge29" class="edge">
<title>Node20&#45;&gt;Node5</title>
<path fill="none" stroke="#63b8ff" d="M610.74,-165.3C596.68,-157.31 576.95,-144.63 563,-129.75 550.47,-116.38 540.15,-98.18 533.44,-84.63"/>
<polygon fill="#63b8ff" stroke="#63b8ff" points="536.3,-83.49 528.86,-75.94 529.97,-86.48 536.3,-83.49"/>
</g>
<!-- Node20&#45;&gt;Node15 -->
<g id="edge33" class="edge">
<title>Node20&#45;&gt;Node15</title>
<path fill="none" stroke="#63b8ff" d="M672.48,-170.83C710.95,-166.1 766.86,-155.13 809,-129.75 828.04,-118.29 844.28,-98.43 854.5,-83.89"/>
<polygon fill="#63b8ff" stroke="#63b8ff" points="857.9,-86.1 860.57,-75.84 852.09,-82.2 857.9,-86.1"/>
</g>
<!-- Node21 -->
<g id="node21" class="node">
<title>Node21</title>
<g id="a_node21"><a xlink:href="input__output__names_8h.html" target="_top" xlink:title="Constant values associated with the format of the input and output files and matrices.">
<polygon fill="white" stroke="#666666" points="684,-129.75 572,-129.75 572,-110.5 684,-110.5 684,-129.75"/>
<text text-anchor="middle" x="628" y="-116.25" font-family="Helvetica,sans-Serif" font-size="10.00">input_output_names.h</text>
</a>
</g>
</g>
<!-- Node20&#45;&gt;Node21 -->
<g id="edge30" class="edge">
<title>Node20&#45;&gt;Node21</title>
<path fill="none" stroke="#63b8ff" d="M628,-165.58C628,-158.92 628,-149.49 628,-141.03"/>
<polygon fill="#63b8ff" stroke="#63b8ff" points="631.5,-141.11 628,-131.11 624.5,-141.11 631.5,-141.11"/>
</g>
<!-- Node23 -->
<g id="node23" class="node">
<title>Node23</title>
<g id="a_node23"><a xlink:href="matrix__collection_8h.html" target="_top" xlink:title="A collection of named MATLAB matrices.">
<polygon fill="white" stroke="#666666" points="799.88,-129.75 702.12,-129.75 702.12,-110.5 799.88,-110.5 799.88,-129.75"/>
<text text-anchor="middle" x="751" y="-116.25" font-family="Helvetica,sans-Serif" font-size="10.00">matrix_collection.h</text>
</a>
</g>
</g>
<!-- Node20&#45;&gt;Node23 -->
<g id="edge34" class="edge">
<title>Node20&#45;&gt;Node23</title>
<path fill="none" stroke="#63b8ff" d="M648.87,-165.34C668.39,-156.89 697.81,-144.15 720.06,-134.52"/>
<polygon fill="#63b8ff" stroke="#63b8ff" points="721.25,-137.39 729.03,-130.2 718.46,-130.96 721.25,-137.39"/>
</g>
<!-- Node21&#45;&gt;Node5 -->
<g id="edge31" class="edge">
<title>Node21&#45;&gt;Node5</title>
<path fill="none" stroke="#63b8ff" d="M610.53,-110.09C594.55,-101.83 570.65,-89.48 552.18,-79.93"/>
<polygon fill="#63b8ff" stroke="#63b8ff" points="554.05,-76.44 543.56,-74.95 550.83,-82.65 554.05,-76.44"/>
</g>
<!-- Node22 -->
<g id="node22" class="node">
<title>Node22</title>
<g id="a_node22"><a xlink:title=" ">
<polygon fill="#e0e0e0" stroke="#999999" points="710.5,-74.5 667.5,-74.5 667.5,-55.25 710.5,-55.25 710.5,-74.5"/>
<text text-anchor="middle" x="689" y="-61" font-family="Helvetica,sans-Serif" font-size="10.00">vector</text>
</a>
</g>
</g>
<!-- Node21&#45;&gt;Node22 -->
<g id="edge32" class="edge">
<title>Node21&#45;&gt;Node22</title>
<path fill="none" stroke="#63b8ff" d="M638.35,-110.09C647.16,-102.4 660.05,-91.15 670.61,-81.93"/>
<polygon fill="#63b8ff" stroke="#63b8ff" points="672.57,-83.99 677.81,-74.77 667.97,-78.71 672.57,-83.99"/>
</g>
<!-- Node23&#45;&gt;Node5 -->
<g id="edge35" class="edge">
<title>Node23&#45;&gt;Node5</title>
<path fill="none" stroke="#63b8ff" d="M712.41,-110.03C668.27,-99.63 596.87,-82.81 556.13,-73.21"/>
<polygon fill="#63b8ff" stroke="#63b8ff" points="557.04,-69.59 546.5,-70.71 555.43,-76.41 557.04,-69.59"/>
</g>
<!-- Node23&#45;&gt;Node15 -->
<g id="edge37" class="edge">
<title>Node23&#45;&gt;Node15</title>
<path fill="none" stroke="#63b8ff" d="M770.51,-110.09C788.6,-101.72 815.77,-89.13 836.51,-79.53"/>
<polygon fill="#63b8ff" stroke="#63b8ff" points="837.79,-82.33 845.4,-74.95 834.85,-75.98 837.79,-82.33"/>
</g>
<!-- Node23&#45;&gt;Node22 -->
<g id="edge36" class="edge">
<title>Node23&#45;&gt;Node22</title>
<path fill="none" stroke="#63b8ff" d="M740.48,-110.09C731.52,-102.4 718.43,-91.15 707.69,-81.93"/>
<polygon fill="#63b8ff" stroke="#63b8ff" points="710.23,-78.64 700.36,-74.77 705.67,-83.95 710.23,-78.64"/>
</g>
<!-- Node24&#45;&gt;Node15 -->
<g id="edge39" class="edge">
<title>Node24&#45;&gt;Node15</title>
<path fill="none" stroke="#63b8ff" d="M833.83,-284.33C866.4,-281.7 912.82,-272.11 936,-240.25 973.18,-189.16 914.02,-115.56 883.03,-82.76"/>
<polygon fill="#63b8ff" stroke="#63b8ff" points="885.96,-80.72 876.48,-75.99 880.94,-85.6 885.96,-80.72"/>
</g>
</g>
</svg>
