<?xml version="1.0" encoding="UTF-8" standalone="no"?>
<!DOCTYPE svg PUBLIC "-//W3C//DTD SVG 1.1//EN"
 "http://www.w3.org/Graphics/SVG/1.1/DTD/svg11.dtd">
<!-- Generated by graphviz version 8.0.5 (20230430.1635)
 -->
<!-- Title: tdms/include/vertex_phasors.h Pages: 1 -->
<svg width="1282pt" height="370pt"
 viewBox="0.00 0.00 1281.84 370.00" xmlns="http://www.w3.org/2000/svg" xmlns:xlink="http://www.w3.org/1999/xlink">
<g id="graph0" class="graph" transform="scale(1 1) rotate(0) translate(4 366)">
<title>tdms/include/vertex_phasors.h</title>
<!-- Node1 -->
<g id="node1" class="node">
<title>Node1</title>
<g id="a_node1"><a xlink:title="Contains a class that handles the complex amplitude extraction at the vertices.">
<polygon fill="#999999" stroke="#666666" points="975.59,-362 874.09,-362 874.09,-331.5 975.59,-331.5 975.59,-362"/>
<text text-anchor="start" x="882.09" y="-348.5" font-family="Helvetica,sans-Serif" font-size="10.00">tdms/include/vertex</text>
<text text-anchor="middle" x="924.84" y="-337.25" font-family="Helvetica,sans-Serif" font-size="10.00">_phasors.h</text>
</a>
</g>
</g>
<!-- Node2 -->
<g id="node2" class="node">
<title>Node2</title>
<g id="a_node2"><a xlink:title=" ">
<polygon fill="#e0e0e0" stroke="#999999" points="1243.21,-74.5 1190.46,-74.5 1190.46,-55.25 1243.21,-55.25 1243.21,-74.5"/>
<text text-anchor="middle" x="1216.84" y="-61" font-family="Helvetica,sans-Serif" font-size="10.00">complex</text>
</a>
</g>
</g>
<!-- Node1&#45;&gt;Node2 -->
<g id="edge1" class="edge">
<title>Node1&#45;&gt;Node2</title>
<path fill="none" stroke="#63b8ff" d="M975.96,-339.84C1072.9,-327.2 1273.84,-293.54 1273.84,-231.62 1273.84,-231.62 1273.84,-231.62 1273.84,-174.38 1273.84,-138.76 1249.47,-103.34 1232.6,-83.08"/>
<polygon fill="#63b8ff" stroke="#63b8ff" points="1234.69,-81.15 1225.49,-75.89 1229.41,-85.74 1234.69,-81.15"/>
</g>
<!-- Node3 -->
<g id="node3" class="node">
<title>Node3</title>
<g id="a_node3"><a xlink:href="arrays_8h.html" target="_top" xlink:title="Classes describing arrays, vertices etc.">
<polygon fill="white" stroke="#666666" points="1028.46,-185 977.21,-185 977.21,-165.75 1028.46,-165.75 1028.46,-185"/>
<text text-anchor="middle" x="1002.84" y="-171.5" font-family="Helvetica,sans-Serif" font-size="10.00">arrays.h</text>
</a>
</g>
</g>
<!-- Node1&#45;&gt;Node3 -->
<g id="edge2" class="edge">
<title>Node1&#45;&gt;Node3</title>
<path fill="none" stroke="#63b8ff" d="M931.62,-331.02C945.8,-300.22 978.56,-229.1 994.21,-195.12"/>
<polygon fill="#63b8ff" stroke="#63b8ff" points="997.64,-197.03 998.64,-186.49 991.28,-194.1 997.64,-197.03"/>
</g>
<!-- Node10 -->
<g id="node10" class="node">
<title>Node10</title>
<g id="a_node10"><a xlink:href="field_8h.html" target="_top" xlink:title="Classes for the electric and magnetic (split) fields on a grid.">
<polygon fill="white" stroke="#666666" points="705.96,-295.5 663.71,-295.5 663.71,-276.25 705.96,-276.25 705.96,-295.5"/>
<text text-anchor="middle" x="684.84" y="-282" font-family="Helvetica,sans-Serif" font-size="10.00">field.h</text>
</a>
</g>
</g>
<!-- Node1&#45;&gt;Node10 -->
<g id="edge13" class="edge">
<title>Node1&#45;&gt;Node10</title>
<path fill="none" stroke="#63b8ff" d="M873.65,-333.19C826.08,-321.52 756.73,-304.51 716.66,-294.68"/>
<polygon fill="#63b8ff" stroke="#63b8ff" points="717.72,-291.09 707.17,-292.11 716.05,-297.89 717.72,-291.09"/>
</g>
<!-- Node25 -->
<g id="node25" class="node">
<title>Node25</title>
<g id="a_node25"><a xlink:href="grid__labels_8h.html" target="_top" xlink:title="Class to hold the labels of a Yee cell.">
<polygon fill="white" stroke="#666666" points="313.21,-295.5 242.46,-295.5 242.46,-276.25 313.21,-276.25 313.21,-295.5"/>
<text text-anchor="middle" x="277.84" y="-282" font-family="Helvetica,sans-Serif" font-size="10.00">grid_labels.h</text>
</a>
</g>
</g>
<!-- Node1&#45;&gt;Node25 -->
<g id="edge45" class="edge">
<title>Node1&#45;&gt;Node25</title>
<path fill="none" stroke="#63b8ff" d="M873.8,-341.11C751.23,-329.95 441.76,-301.79 324.16,-291.09"/>
<polygon fill="#63b8ff" stroke="#63b8ff" points="324.67,-287.53 314.39,-290.11 324.03,-294.5 324.67,-287.53"/>
</g>
<!-- Node3&#45;&gt;Node2 -->
<g id="edge3" class="edge">
<title>Node3&#45;&gt;Node2</title>
<path fill="none" stroke="#63b8ff" d="M1028.86,-173.72C1065.5,-171.58 1132.82,-163 1177.84,-129.75 1193.16,-118.43 1203.73,-99.12 1209.96,-84.69"/>
<polygon fill="#63b8ff" stroke="#63b8ff" points="1213.44,-86.41 1213.88,-75.82 1206.93,-83.82 1213.44,-86.41"/>
</g>
<!-- Node4 -->
<g id="node4" class="node">
<title>Node4</title>
<g id="a_node4"><a xlink:title=" ">
<polygon fill="#e0e0e0" stroke="#999999" points="648.21,-129.75 589.46,-129.75 589.46,-110.5 648.21,-110.5 648.21,-129.75"/>
<text text-anchor="middle" x="618.84" y="-116.25" font-family="Helvetica,sans-Serif" font-size="10.00">stdexcept</text>
</a>
</g>
</g>
<!-- Node3&#45;&gt;Node4 -->
<g id="edge4" class="edge">
<title>Node3&#45;&gt;Node4</title>
<path fill="none" stroke="#63b8ff" d="M977.1,-171.9C921.05,-166.33 783.6,-151.7 659.12,-130.02"/>
<polygon fill="#63b8ff" stroke="#63b8ff" points="660.11,-126.46 649.65,-128.17 658.89,-133.36 660.11,-126.46"/>
</g>
<!-- Node5 -->
<g id="node5" class="node">
<title>Node5</title>
<g id="a_node5"><a xlink:title=" ">
<polygon fill="#e0e0e0" stroke="#999999" points="844.84,-74.5 804.84,-74.5 804.84,-55.25 844.84,-55.25 844.84,-74.5"/>
<text text-anchor="middle" x="824.84" y="-61" font-family="Helvetica,sans-Serif" font-size="10.00">string</text>
</a>
</g>
</g>
<!-- Node3&#45;&gt;Node5 -->
<g id="edge5" class="edge">
<title>Node3&#45;&gt;Node5</title>
<path fill="none" stroke="#63b8ff" d="M1006.78,-165.44C1012.03,-151.98 1019.32,-126.41 1006.84,-110.5 988.43,-87.03 903,-74.29 856.02,-68.94"/>
<polygon fill="#63b8ff" stroke="#63b8ff" points="856.56,-65.37 846.24,-67.77 855.81,-72.33 856.56,-65.37"/>
</g>
<!-- Node6 -->
<g id="node6" class="node">
<title>Node6</title>
<g id="a_node6"><a xlink:title=" ">
<polygon fill="#e0e0e0" stroke="#999999" points="997.84,-129.75 951.84,-129.75 951.84,-110.5 997.84,-110.5 997.84,-129.75"/>
<text text-anchor="middle" x="974.84" y="-116.25" font-family="Helvetica,sans-Serif" font-size="10.00">fftw3.h</text>
</a>
</g>
</g>
<!-- Node3&#45;&gt;Node6 -->
<g id="edge6" class="edge">
<title>Node3&#45;&gt;Node6</title>
<path fill="none" stroke="#63b8ff" d="M998.21,-165.58C994.51,-158.53 989.18,-148.4 984.54,-139.58"/>
<polygon fill="#63b8ff" stroke="#63b8ff" points="987.31,-138.33 979.56,-131.11 981.12,-141.59 987.31,-138.33"/>
</g>
<!-- Node7 -->
<g id="node7" class="node">
<title>Node7</title>
<g id="a_node7"><a xlink:href="globals_8h.html" target="_top" xlink:title="Type definitions and global constants.">
<polygon fill="white" stroke="#666666" points="1169.34,-129.75 1114.34,-129.75 1114.34,-110.5 1169.34,-110.5 1169.34,-129.75"/>
<text text-anchor="middle" x="1141.84" y="-116.25" font-family="Helvetica,sans-Serif" font-size="10.00">globals.h</text>
</a>
</g>
</g>
<!-- Node3&#45;&gt;Node7 -->
<g id="edge7" class="edge">
<title>Node3&#45;&gt;Node7</title>
<path fill="none" stroke="#63b8ff" d="M1026.42,-165.34C1048.78,-156.77 1082.63,-143.81 1107.9,-134.13"/>
<polygon fill="#63b8ff" stroke="#63b8ff" points="1109.06,-137.05 1117.14,-130.2 1106.55,-130.51 1109.06,-137.05"/>
</g>
<!-- Node8 -->
<g id="node8" class="node">
<title>Node8</title>
<g id="a_node8"><a xlink:title=" ">
<polygon fill="#e0e0e0" stroke="#999999" points="933.34,-129.75 872.34,-129.75 872.34,-110.5 933.34,-110.5 933.34,-129.75"/>
<text text-anchor="middle" x="902.84" y="-116.25" font-family="Helvetica,sans-Serif" font-size="10.00">matlabio.h</text>
</a>
</g>
</g>
<!-- Node3&#45;&gt;Node8 -->
<g id="edge10" class="edge">
<title>Node3&#45;&gt;Node8</title>
<path fill="none" stroke="#63b8ff" d="M985.87,-165.34C970.43,-157.12 947.38,-144.84 929.47,-135.31"/>
<polygon fill="#63b8ff" stroke="#63b8ff" points="931.36,-131.81 920.88,-130.2 928.07,-137.99 931.36,-131.81"/>
</g>
<!-- Node9 -->
<g id="node9" class="node">
<title>Node9</title>
<g id="a_node9"><a xlink:href="utils_8h.html" target="_top" xlink:title="Useful miscellaneous utility functions.">
<polygon fill="white" stroke="#666666" points="1095.96,-129.75 1053.71,-129.75 1053.71,-110.5 1095.96,-110.5 1095.96,-129.75"/>
<text text-anchor="middle" x="1074.84" y="-116.25" font-family="Helvetica,sans-Serif" font-size="10.00">utils.h</text>
</a>
</g>
</g>
<!-- Node3&#45;&gt;Node9 -->
<g id="edge11" class="edge">
<title>Node3&#45;&gt;Node9</title>
<path fill="none" stroke="#63b8ff" d="M1015.05,-165.34C1025.77,-157.41 1041.58,-145.72 1054.25,-136.35"/>
<polygon fill="#63b8ff" stroke="#63b8ff" points="1055.85,-138.79 1061.8,-130.02 1051.68,-133.16 1055.85,-138.79"/>
</g>
<!-- Node7&#45;&gt;Node2 -->
<g id="edge8" class="edge">
<title>Node7&#45;&gt;Node2</title>
<path fill="none" stroke="#63b8ff" d="M1154.56,-110.09C1165.66,-102.21 1182,-90.61 1195.15,-81.27"/>
<polygon fill="#63b8ff" stroke="#63b8ff" points="1196.92,-83.6 1203.05,-74.95 1192.87,-77.89 1196.92,-83.6"/>
</g>
<!-- Node7&#45;&gt;Node5 -->
<g id="edge9" class="edge">
<title>Node7&#45;&gt;Node5</title>
<path fill="none" stroke="#63b8ff" d="M1114,-112.41C1110.92,-111.74 1107.81,-111.08 1104.84,-110.5 1015.02,-92.9 907.96,-77.32 856.09,-70.12"/>
<polygon fill="#63b8ff" stroke="#63b8ff" points="856.69,-66.53 846.3,-68.63 855.73,-73.46 856.69,-66.53"/>
</g>
<!-- Node9&#45;&gt;Node5 -->
<g id="edge12" class="edge">
<title>Node9&#45;&gt;Node5</title>
<path fill="none" stroke="#63b8ff" d="M1053.4,-113.71C1048.92,-112.62 1044.23,-111.5 1039.84,-110.5 974.45,-95.66 897.43,-80.15 855.62,-71.89"/>
<polygon fill="#63b8ff" stroke="#63b8ff" points="856.54,-68.31 846.05,-69.81 855.18,-75.18 856.54,-68.31"/>
</g>
<!-- Node10&#45;&gt;Node2 -->
<g id="edge14" class="edge">
<title>Node10&#45;&gt;Node2</title>
<path fill="none" stroke="#63b8ff" d="M706.34,-281.35C744.77,-274.82 827.61,-259.72 895.84,-240.25 1034.48,-200.68 1104.23,-236.77 1200.84,-129.75 1211.62,-117.8 1215.38,-99.68 1216.59,-85.79"/>
<polygon fill="#63b8ff" stroke="#63b8ff" points="1220.12,-86.08 1217.09,-75.93 1213.13,-85.75 1220.12,-86.08"/>
</g>
<!-- Node10&#45;&gt;Node3 -->
<g id="edge15" class="edge">
<title>Node10&#45;&gt;Node3</title>
<path fill="none" stroke="#63b8ff" d="M706.34,-280.45C739.23,-273.42 803.78,-258.61 856.84,-240.25 898.99,-225.67 945.94,-204.12 974.94,-190.16"/>
<polygon fill="#63b8ff" stroke="#63b8ff" points="976.3,-192.91 983.77,-185.39 973.25,-186.61 976.3,-192.91"/>
</g>
<!-- Node11 -->
<g id="node11" class="node">
<title>Node11</title>
<g id="a_node11"><a xlink:href="cell__coordinate_8h.html" target="_top" xlink:title="Container for {ijk} or {IJK} grouped variables.">
<polygon fill="white" stroke="#666666" points="306.59,-185 217.09,-185 217.09,-165.75 306.59,-165.75 306.59,-185"/>
<text text-anchor="middle" x="261.84" y="-171.5" font-family="Helvetica,sans-Serif" font-size="10.00">cell_coordinate.h</text>
</a>
</g>
</g>
<!-- Node10&#45;&gt;Node11 -->
<g id="edge16" class="edge">
<title>Node10&#45;&gt;Node11</title>
<path fill="none" stroke="#63b8ff" d="M663.28,-279.35C597.52,-262.48 398.43,-211.41 307.74,-188.15"/>
<polygon fill="#63b8ff" stroke="#63b8ff" points="308.79,-184.55 298.23,-185.45 307.05,-191.33 308.79,-184.55"/>
</g>
<!-- Node14 -->
<g id="node14" class="node">
<title>Node14</title>
<g id="a_node14"><a xlink:href="dimensions_8h.html" target="_top" xlink:title="Defines a class that serves as an explicit converter between MATLAB pointers and array dimensions.">
<polygon fill="white" stroke="#666666" points="116.71,-240.25 42.96,-240.25 42.96,-221 116.71,-221 116.71,-240.25"/>
<text text-anchor="middle" x="79.84" y="-226.75" font-family="Helvetica,sans-Serif" font-size="10.00">dimensions.h</text>
</a>
</g>
</g>
<!-- Node10&#45;&gt;Node14 -->
<g id="edge19" class="edge">
<title>Node10&#45;&gt;Node14</title>
<path fill="none" stroke="#63b8ff" d="M663.38,-283.82C589.29,-280.04 337.42,-265.99 130.84,-240.25 129.86,-240.13 128.88,-240 127.89,-239.87"/>
<polygon fill="#63b8ff" stroke="#63b8ff" points="128.5,-236.28 118.11,-238.31 127.5,-243.21 128.5,-236.28"/>
</g>
<!-- Node15 -->
<g id="node15" class="node">
<title>Node15</title>
<g id="a_node15"><a xlink:href="mat__io_8h.html" target="_top" xlink:title="Includes MATLAB headers for I/O.">
<polygon fill="white" stroke="#666666" points="251.59,-74.5 198.09,-74.5 198.09,-55.25 251.59,-55.25 251.59,-74.5"/>
<text text-anchor="middle" x="224.84" y="-61" font-family="Helvetica,sans-Serif" font-size="10.00">mat_io.h</text>
</a>
</g>
</g>
<!-- Node10&#45;&gt;Node15 -->
<g id="edge31" class="edge">
<title>Node10&#45;&gt;Node15</title>
<path fill="none" stroke="#63b8ff" d="M663.24,-283.96C593.74,-280.29 370.87,-262.78 207.84,-185 166.56,-165.3 112.9,-149.48 136.84,-110.5 147.9,-92.48 168.76,-81.46 187.4,-74.88"/>
<polygon fill="#63b8ff" stroke="#63b8ff" points="188.27,-77.96 196.73,-71.59 186.14,-71.29 188.27,-77.96"/>
</g>
<!-- Node19 -->
<g id="node19" class="node">
<title>Node19</title>
<g id="a_node19"><a xlink:href="input__flags_8h.html" target="_top" xlink:title="Organises enumerated constants, names, and classes for handling flag&#45;variables that are passed to TDM...">
<polygon fill="white" stroke="#666666" points="443.59,-185 372.09,-185 372.09,-165.75 443.59,-165.75 443.59,-185"/>
<text text-anchor="middle" x="407.84" y="-171.5" font-family="Helvetica,sans-Serif" font-size="10.00">input_flags.h</text>
</a>
</g>
</g>
<!-- Node10&#45;&gt;Node19 -->
<g id="edge24" class="edge">
<title>Node10&#45;&gt;Node19</title>
<path fill="none" stroke="#63b8ff" d="M663.56,-276.54C615.62,-257.76 498.84,-212.02 441.17,-189.43"/>
<polygon fill="#63b8ff" stroke="#63b8ff" points="442.71,-185.88 432.12,-185.5 440.16,-192.4 442.71,-185.88"/>
</g>
<!-- Node21 -->
<g id="node21" class="node">
<title>Node21</title>
<g id="a_node21"><a xlink:href="simulation__parameters_8h.html" target="_top" xlink:title="Classes collecting parameters for the simulation.">
<polygon fill="white" stroke="#666666" points="848.09,-240.25 725.59,-240.25 725.59,-221 848.09,-221 848.09,-240.25"/>
<text text-anchor="middle" x="786.84" y="-226.75" font-family="Helvetica,sans-Serif" font-size="10.00">simulation_parameters.h</text>
</a>
</g>
</g>
<!-- Node10&#45;&gt;Node21 -->
<g id="edge32" class="edge">
<title>Node10&#45;&gt;Node21</title>
<path fill="none" stroke="#63b8ff" d="M702.14,-275.84C717.97,-267.58 741.63,-255.23 759.92,-245.68"/>
<polygon fill="#63b8ff" stroke="#63b8ff" points="761.2,-248.43 768.45,-240.7 757.97,-242.23 761.2,-248.43"/>
</g>
<!-- Node12 -->
<g id="node12" class="node">
<title>Node12</title>
<g id="a_node12"><a xlink:title=" ">
<polygon fill="#e0e0e0" stroke="#999999" points="303.96,-129.75 219.71,-129.75 219.71,-110.5 303.96,-110.5 303.96,-129.75"/>
<text text-anchor="middle" x="261.84" y="-116.25" font-family="Helvetica,sans-Serif" font-size="10.00">spdlog/spdlog.h</text>
</a>
</g>
</g>
<!-- Node11&#45;&gt;Node12 -->
<g id="edge17" class="edge">
<title>Node11&#45;&gt;Node12</title>
<path fill="none" stroke="#63b8ff" d="M261.84,-165.58C261.84,-158.92 261.84,-149.49 261.84,-141.03"/>
<polygon fill="#63b8ff" stroke="#63b8ff" points="265.34,-141.11 261.84,-131.11 258.34,-141.11 265.34,-141.11"/>
</g>
<!-- Node13 -->
<g id="node13" class="node">
<title>Node13</title>
<g id="a_node13"><a xlink:title=" ">
<polygon fill="#e0e0e0" stroke="#999999" points="201.71,-129.75 145.96,-129.75 145.96,-110.5 201.71,-110.5 201.71,-129.75"/>
<text text-anchor="middle" x="173.84" y="-116.25" font-family="Helvetica,sans-Serif" font-size="10.00">algorithm</text>
</a>
</g>
</g>
<!-- Node11&#45;&gt;Node13 -->
<g id="edge18" class="edge">
<title>Node11&#45;&gt;Node13</title>
<path fill="none" stroke="#63b8ff" d="M246.91,-165.34C233.51,-157.23 213.6,-145.18 197.94,-135.71"/>
<polygon fill="#63b8ff" stroke="#63b8ff" points="200.21,-132.39 189.84,-130.2 196.58,-138.37 200.21,-132.39"/>
</g>
<!-- Node14&#45;&gt;Node15 -->
<g id="edge20" class="edge">
<title>Node14&#45;&gt;Node15</title>
<path fill="none" stroke="#63b8ff" d="M78.92,-220.6C77.21,-198.88 75.98,-143.03 103.84,-110.5 124.64,-86.21 159.89,-75.13 187,-70.09"/>
<polygon fill="#63b8ff" stroke="#63b8ff" points="187.38,-73.41 196.68,-68.33 186.24,-66.5 187.38,-73.41"/>
</g>
<!-- Node16 -->
<g id="node16" class="node">
<title>Node16</title>
<g id="a_node16"><a xlink:title=" ">
<polygon fill="#e0e0e0" stroke="#999999" points="181.21,-19.25 140.46,-19.25 140.46,0 181.21,0 181.21,-19.25"/>
<text text-anchor="middle" x="160.84" y="-5.75" font-family="Helvetica,sans-Serif" font-size="10.00">mat.h</text>
</a>
</g>
</g>
<!-- Node15&#45;&gt;Node16 -->
<g id="edge21" class="edge">
<title>Node15&#45;&gt;Node16</title>
<path fill="none" stroke="#63b8ff" d="M213.98,-54.84C204.64,-47.07 190.94,-35.67 179.8,-26.4"/>
<polygon fill="#63b8ff" stroke="#63b8ff" points="182.46,-23.23 172.53,-19.52 177.98,-28.61 182.46,-23.23"/>
</g>
<!-- Node17 -->
<g id="node17" class="node">
<title>Node17</title>
<g id="a_node17"><a xlink:title=" ">
<polygon fill="#e0e0e0" stroke="#999999" points="250.46,-19.25 199.21,-19.25 199.21,0 250.46,0 250.46,-19.25"/>
<text text-anchor="middle" x="224.84" y="-5.75" font-family="Helvetica,sans-Serif" font-size="10.00">matrix.h</text>
</a>
</g>
</g>
<!-- Node15&#45;&gt;Node17 -->
<g id="edge22" class="edge">
<title>Node15&#45;&gt;Node17</title>
<path fill="none" stroke="#63b8ff" d="M224.84,-55.08C224.84,-48.42 224.84,-38.99 224.84,-30.53"/>
<polygon fill="#63b8ff" stroke="#63b8ff" points="228.34,-30.61 224.84,-20.61 221.34,-30.61 228.34,-30.61"/>
</g>
<!-- Node18 -->
<g id="node18" class="node">
<title>Node18</title>
<g id="a_node18"><a xlink:title=" ">
<polygon fill="#e0e0e0" stroke="#999999" points="311.34,-19.25 268.34,-19.25 268.34,0 311.34,0 311.34,-19.25"/>
<text text-anchor="middle" x="289.84" y="-5.75" font-family="Helvetica,sans-Serif" font-size="10.00">mex.h</text>
</a>
</g>
</g>
<!-- Node15&#45;&gt;Node18 -->
<g id="edge23" class="edge">
<title>Node15&#45;&gt;Node18</title>
<path fill="none" stroke="#63b8ff" d="M235.86,-54.84C245.35,-47.07 259.26,-35.67 270.58,-26.4"/>
<polygon fill="#63b8ff" stroke="#63b8ff" points="272.46,-28.57 277.97,-19.52 268.02,-23.15 272.46,-28.57"/>
</g>
<!-- Node19&#45;&gt;Node4 -->
<g id="edge26" class="edge">
<title>Node19&#45;&gt;Node4</title>
<path fill="none" stroke="#63b8ff" d="M443.63,-165.34C481.03,-155.9 539.59,-141.13 578.58,-131.29"/>
<polygon fill="#63b8ff" stroke="#63b8ff" points="579.18,-134.49 588.02,-128.65 577.47,-127.7 579.18,-134.49"/>
</g>
<!-- Node19&#45;&gt;Node5 -->
<g id="edge27" class="edge">
<title>Node19&#45;&gt;Node5</title>
<path fill="none" stroke="#63b8ff" d="M439.7,-165.32C467.37,-157.1 508.31,-144.11 542.84,-129.75 560.32,-122.48 562.9,-116.54 580.84,-110.5 654.92,-85.55 746.63,-73.54 793.72,-68.67"/>
<polygon fill="#63b8ff" stroke="#63b8ff" points="793.81,-72.08 803.42,-67.61 793.12,-65.11 793.81,-72.08"/>
</g>
<!-- Node19&#45;&gt;Node12 -->
<g id="edge29" class="edge">
<title>Node19&#45;&gt;Node12</title>
<path fill="none" stroke="#63b8ff" d="M383.07,-165.34C359.37,-156.7 323.39,-143.57 296.78,-133.87"/>
<polygon fill="#63b8ff" stroke="#63b8ff" points="298.32,-130.34 287.73,-130.2 295.92,-136.92 298.32,-130.34"/>
</g>
<!-- Node19&#45;&gt;Node13 -->
<g id="edge25" class="edge">
<title>Node19&#45;&gt;Node13</title>
<path fill="none" stroke="#63b8ff" d="M371.87,-166.3C334.53,-157.9 274.12,-144.27 212.77,-130.18"/>
<polygon fill="#63b8ff" stroke="#63b8ff" points="213.64,-126.56 203.12,-127.74 212.08,-133.39 213.64,-126.56"/>
</g>
<!-- Node19&#45;&gt;Node15 -->
<g id="edge30" class="edge">
<title>Node19&#45;&gt;Node15</title>
<path fill="none" stroke="#63b8ff" d="M395.55,-165.4C377.74,-152.56 343.52,-128.5 312.84,-110.5 293.69,-99.27 271.39,-87.97 254.02,-79.56"/>
<polygon fill="#63b8ff" stroke="#63b8ff" points="255.96,-76.13 245.43,-74.96 252.93,-82.44 255.96,-76.13"/>
</g>
<!-- Node20 -->
<g id="node20" class="node">
<title>Node20</title>
<g id="a_node20"><a xlink:title=" ">
<polygon fill="#e0e0e0" stroke="#999999" points="506.34,-74.5 463.34,-74.5 463.34,-55.25 506.34,-55.25 506.34,-74.5"/>
<text text-anchor="middle" x="484.84" y="-61" font-family="Helvetica,sans-Serif" font-size="10.00">vector</text>
</a>
</g>
</g>
<!-- Node19&#45;&gt;Node20 -->
<g id="edge28" class="edge">
<title>Node19&#45;&gt;Node20</title>
<path fill="none" stroke="#63b8ff" d="M408.75,-165.37C410.44,-152.27 415.04,-127.66 426.84,-110.5 435.1,-98.47 447.62,-88.26 458.92,-80.65"/>
<polygon fill="#63b8ff" stroke="#63b8ff" points="460.43,-83.2 467,-74.88 456.68,-77.29 460.43,-83.2"/>
</g>
<!-- Node21&#45;&gt;Node3 -->
<g id="edge34" class="edge">
<title>Node21&#45;&gt;Node3</title>
<path fill="none" stroke="#63b8ff" d="M823.48,-220.59C863.31,-210.77 926.57,-195.18 966.34,-185.37"/>
<polygon fill="#63b8ff" stroke="#63b8ff" points="967.02,-188.56 975.89,-182.77 965.35,-181.77 967.02,-188.56"/>
</g>
<!-- Node21&#45;&gt;Node5 -->
<g id="edge33" class="edge">
<title>Node21&#45;&gt;Node5</title>
<path fill="none" stroke="#63b8ff" d="M788.88,-220.82C794.81,-195.28 812.11,-120.7 820.36,-85.15"/>
<polygon fill="#63b8ff" stroke="#63b8ff" points="823.93,-86.25 822.78,-75.72 817.11,-84.67 823.93,-86.25"/>
</g>
<!-- Node22 -->
<g id="node22" class="node">
<title>Node22</title>
<g id="a_node22"><a xlink:href="input__matrices_8h.html" target="_top" xlink:title="Class handling the input matrices that are read in from the input file.">
<polygon fill="white" stroke="#666666" points="765.84,-185 677.84,-185 677.84,-165.75 765.84,-165.75 765.84,-185"/>
<text text-anchor="middle" x="721.84" y="-171.5" font-family="Helvetica,sans-Serif" font-size="10.00">input_matrices.h</text>
</a>
</g>
</g>
<!-- Node21&#45;&gt;Node22 -->
<g id="edge35" class="edge">
<title>Node21&#45;&gt;Node22</title>
<path fill="none" stroke="#63b8ff" d="M775.81,-220.59C766.32,-212.82 752.41,-201.42 741.09,-192.15"/>
<polygon fill="#63b8ff" stroke="#63b8ff" points="743.65,-188.9 733.7,-185.27 739.22,-194.32 743.65,-188.9"/>
</g>
<!-- Node22&#45;&gt;Node5 -->
<g id="edge36" class="edge">
<title>Node22&#45;&gt;Node5</title>
<path fill="none" stroke="#63b8ff" d="M739.1,-165.3C753.16,-157.31 772.89,-144.63 786.84,-129.75 799.37,-116.38 809.69,-98.18 816.4,-84.63"/>
<polygon fill="#63b8ff" stroke="#63b8ff" points="819.87,-86.48 820.98,-75.94 813.54,-83.49 819.87,-86.48"/>
</g>
<!-- Node22&#45;&gt;Node15 -->
<g id="edge40" class="edge">
<title>Node22&#45;&gt;Node15</title>
<path fill="none" stroke="#63b8ff" d="M677.45,-169.85C619.36,-163.43 514.63,-150.14 426.84,-129.75 366.94,-115.84 299.13,-92.86 259.29,-78.58"/>
<polygon fill="#63b8ff" stroke="#63b8ff" points="260.65,-75 250.06,-74.89 258.28,-81.58 260.65,-75"/>
</g>
<!-- Node23 -->
<g id="node23" class="node">
<title>Node23</title>
<g id="a_node23"><a xlink:href="input__output__names_8h.html" target="_top" xlink:title="Constant values associated with the format of the input and output files and matrices.">
<polygon fill="white" stroke="#666666" points="777.84,-129.75 665.84,-129.75 665.84,-110.5 777.84,-110.5 777.84,-129.75"/>
<text text-anchor="middle" x="721.84" y="-116.25" font-family="Helvetica,sans-Serif" font-size="10.00">input_output_names.h</text>
</a>
</g>
</g>
<!-- Node22&#45;&gt;Node23 -->
<g id="edge37" class="edge">
<title>Node22&#45;&gt;Node23</title>
<path fill="none" stroke="#63b8ff" d="M721.84,-165.58C721.84,-158.92 721.84,-149.49 721.84,-141.03"/>
<polygon fill="#63b8ff" stroke="#63b8ff" points="725.34,-141.11 721.84,-131.11 718.34,-141.11 725.34,-141.11"/>
</g>
<!-- Node24 -->
<g id="node24" class="node">
<title>Node24</title>
<g id="a_node24"><a xlink:href="matrix__collection_8h.html" target="_top" xlink:title="A collection of named MATLAB matrices.">
<polygon fill="white" stroke="#666666" points="533.71,-129.75 435.96,-129.75 435.96,-110.5 533.71,-110.5 533.71,-129.75"/>
<text text-anchor="middle" x="484.84" y="-116.25" font-family="Helvetica,sans-Serif" font-size="10.00">matrix_collection.h</text>
</a>
</g>
</g>
<!-- Node22&#45;&gt;Node24 -->
<g id="edge41" class="edge">
<title>Node22&#45;&gt;Node24</title>
<path fill="none" stroke="#63b8ff" d="M681.37,-165.28C641.15,-156.24 579.34,-142.36 535.8,-132.57"/>
<polygon fill="#63b8ff" stroke="#63b8ff" points="536.67,-128.96 526.14,-130.18 535.13,-135.79 536.67,-128.96"/>
</g>
<!-- Node23&#45;&gt;Node5 -->
<g id="edge38" class="edge">
<title>Node23&#45;&gt;Node5</title>
<path fill="none" stroke="#63b8ff" d="M739.31,-110.09C755.29,-101.83 779.18,-89.48 797.66,-79.93"/>
<polygon fill="#63b8ff" stroke="#63b8ff" points="799,-82.65 806.28,-74.95 795.79,-76.44 799,-82.65"/>
</g>
<!-- Node23&#45;&gt;Node20 -->
<g id="edge39" class="edge">
<title>Node23&#45;&gt;Node20</title>
<path fill="none" stroke="#63b8ff" d="M681.37,-110.03C635,-99.62 559.96,-82.75 517.27,-73.16"/>
<polygon fill="#63b8ff" stroke="#63b8ff" points="518.17,-69.55 507.65,-70.77 516.63,-76.38 518.17,-69.55"/>
</g>
<!-- Node24&#45;&gt;Node5 -->
<g id="edge42" class="edge">
<title>Node24&#45;&gt;Node5</title>
<path fill="none" stroke="#63b8ff" d="M533.91,-111.44C605.09,-100.29 734.91,-79.96 794.03,-70.7"/>
<polygon fill="#63b8ff" stroke="#63b8ff" points="794.21,-74.06 803.55,-69.05 793.13,-67.14 794.21,-74.06"/>
</g>
<!-- Node24&#45;&gt;Node15 -->
<g id="edge44" class="edge">
<title>Node24&#45;&gt;Node15</title>
<path fill="none" stroke="#63b8ff" d="M440.44,-110.03C390.35,-99.77 309.76,-83.27 262.59,-73.61"/>
<polygon fill="#63b8ff" stroke="#63b8ff" points="263.42,-70 252.92,-71.42 262.01,-76.86 263.42,-70"/>
</g>
<!-- Node24&#45;&gt;Node20 -->
<g id="edge43" class="edge">
<title>Node24&#45;&gt;Node20</title>
<path fill="none" stroke="#63b8ff" d="M484.84,-110.33C484.84,-103.67 484.84,-94.24 484.84,-85.78"/>
<polygon fill="#63b8ff" stroke="#63b8ff" points="488.34,-85.86 484.84,-75.86 481.34,-85.86 488.34,-85.86"/>
</g>
<!-- Node25&#45;&gt;Node15 -->
<g id="edge46" class="edge">
<title>Node25&#45;&gt;Node15</title>
<path fill="none" stroke="#63b8ff" d="M242.29,-283.75C181.11,-280.98 59.97,-271.59 33.84,-240.25 1.5,-201.46 -41.38,-223.11 88.84,-110.5 116.5,-86.57 157.32,-75.41 187.01,-70.24"/>
<polygon fill="#63b8ff" stroke="#63b8ff" points="187.47,-73.55 196.8,-68.54 186.38,-66.64 187.47,-73.55"/>
</g>
</g>
</svg>
