<?xml version="1.0" encoding="UTF-8" standalone="no"?>
<!DOCTYPE svg PUBLIC "-//W3C//DTD SVG 1.1//EN"
 "http://www.w3.org/Graphics/SVG/1.1/DTD/svg11.dtd">
<!-- Generated by graphviz version 8.0.5 (20230430.1635)
 -->
<!-- Title: tdms/include/vertex_phasors.h Pages: 1 -->
<svg width="1279pt" height="370pt"
 viewBox="0.00 0.00 1278.94 370.00" xmlns="http://www.w3.org/2000/svg" xmlns:xlink="http://www.w3.org/1999/xlink">
<g id="graph0" class="graph" transform="scale(1 1) rotate(0) translate(4 366)">
<title>tdms/include/vertex_phasors.h</title>
<!-- Node1 -->
<g id="node1" class="node">
<title>Node1</title>
<g id="a_node1"><a xlink:title="Contains a class that handles the complex amplitude extraction at the vertices.">
<polygon fill="#999999" stroke="#666666" points="1041.69,-362 940.19,-362 940.19,-331.5 1041.69,-331.5 1041.69,-362"/>
<text text-anchor="start" x="948.19" y="-348.5" font-family="Helvetica,sans-Serif" font-size="10.00">tdms/include/vertex</text>
<text text-anchor="middle" x="990.94" y="-337.25" font-family="Helvetica,sans-Serif" font-size="10.00">_phasors.h</text>
</a>
</g>
</g>
<!-- Node2 -->
<g id="node2" class="node">
<title>Node2</title>
<g id="a_node2"><a xlink:title=" ">
<polygon fill="#e0e0e0" stroke="#999999" points="1240.31,-74.5 1187.56,-74.5 1187.56,-55.25 1240.31,-55.25 1240.31,-74.5"/>
<text text-anchor="middle" x="1213.94" y="-61" font-family="Helvetica,sans-Serif" font-size="10.00">complex</text>
</a>
</g>
</g>
<!-- Node1&#45;&gt;Node2 -->
<g id="edge1" class="edge">
<title>Node1&#45;&gt;Node2</title>
<path fill="none" stroke="#63b8ff" d="M1041.97,-335.84C1122.73,-318.67 1270.94,-280.51 1270.94,-231.62 1270.94,-231.62 1270.94,-231.62 1270.94,-174.38 1270.94,-138.76 1246.58,-103.34 1229.71,-83.08"/>
<polygon fill="#63b8ff" stroke="#63b8ff" points="1231.8,-81.15 1222.6,-75.89 1226.51,-85.74 1231.8,-81.15"/>
</g>
<!-- Node3 -->
<g id="node3" class="node">
<title>Node3</title>
<g id="a_node3"><a xlink:href="arrays_8h.html" target="_top" xlink:title="Classes describing arrays, vertices etc.">
<polygon fill="white" stroke="#666666" points="926.56,-185 875.31,-185 875.31,-165.75 926.56,-165.75 926.56,-185"/>
<text text-anchor="middle" x="900.94" y="-171.5" font-family="Helvetica,sans-Serif" font-size="10.00">arrays.h</text>
</a>
</g>
</g>
<!-- Node1&#45;&gt;Node3 -->
<g id="edge2" class="edge">
<title>Node1&#45;&gt;Node3</title>
<path fill="none" stroke="#63b8ff" d="M983.11,-331.02C966.75,-300.22 928.96,-229.1 910.9,-195.12"/>
<polygon fill="#63b8ff" stroke="#63b8ff" points="913.56,-193.67 905.78,-186.49 907.38,-196.96 913.56,-193.67"/>
</g>
<!-- Node11 -->
<g id="node11" class="node">
<title>Node11</title>
<g id="a_node11"><a xlink:href="field_8h.html" target="_top" xlink:title="Classes for the electric and magnetic (split) fields on a grid.">
<polygon fill="white" stroke="#666666" points="721.06,-295.5 678.81,-295.5 678.81,-276.25 721.06,-276.25 721.06,-295.5"/>
<text text-anchor="middle" x="699.94" y="-282" font-family="Helvetica,sans-Serif" font-size="10.00">field.h</text>
</a>
</g>
</g>
<!-- Node1&#45;&gt;Node11 -->
<g id="edge14" class="edge">
<title>Node1&#45;&gt;Node11</title>
<path fill="none" stroke="#63b8ff" d="M939.92,-335.43C879.91,-323.29 782.12,-303.5 731.91,-293.34"/>
<polygon fill="#63b8ff" stroke="#63b8ff" points="732.87,-289.76 722.37,-291.21 731.48,-296.62 732.87,-289.76"/>
</g>
<!-- Node25 -->
<g id="node25" class="node">
<title>Node25</title>
<g id="a_node25"><a xlink:href="grid__labels_8h.html" target="_top" xlink:title="Class to hold the labels of a Yee cell.">
<polygon fill="white" stroke="#666666" points="373.31,-295.5 302.56,-295.5 302.56,-276.25 373.31,-276.25 373.31,-295.5"/>
<text text-anchor="middle" x="337.94" y="-282" font-family="Helvetica,sans-Serif" font-size="10.00">grid_labels.h</text>
</a>
</g>
</g>
<!-- Node1&#45;&gt;Node25 -->
<g id="edge46" class="edge">
<title>Node1&#45;&gt;Node25</title>
<path fill="none" stroke="#63b8ff" d="M939.7,-341.13C816.06,-329.98 502.83,-301.74 384.32,-291.06"/>
<polygon fill="#63b8ff" stroke="#63b8ff" points="384.75,-287.49 374.48,-290.08 384.12,-294.46 384.75,-287.49"/>
</g>
<!-- Node3&#45;&gt;Node2 -->
<g id="edge3" class="edge">
<title>Node3&#45;&gt;Node2</title>
<path fill="none" stroke="#63b8ff" d="M926.98,-172.88C987.3,-168.99 1134.55,-156.92 1174.94,-129.75 1190.92,-119 1201.47,-99.29 1207.52,-84.59"/>
<polygon fill="#63b8ff" stroke="#63b8ff" points="1211.05,-86.16 1211.28,-75.57 1204.49,-83.7 1211.05,-86.16"/>
</g>
<!-- Node4 -->
<g id="node4" class="node">
<title>Node4</title>
<g id="a_node4"><a xlink:title=" ">
<polygon fill="#e0e0e0" stroke="#999999" points="775.31,-129.75 716.56,-129.75 716.56,-110.5 775.31,-110.5 775.31,-129.75"/>
<text text-anchor="middle" x="745.94" y="-116.25" font-family="Helvetica,sans-Serif" font-size="10.00">stdexcept</text>
</a>
</g>
</g>
<!-- Node3&#45;&gt;Node4 -->
<g id="edge4" class="edge">
<title>Node3&#45;&gt;Node4</title>
<path fill="none" stroke="#63b8ff" d="M875,-165.46C849.78,-156.8 811.23,-143.56 782.83,-133.8"/>
<polygon fill="#63b8ff" stroke="#63b8ff" points="784.08,-130.18 773.49,-130.25 781.81,-136.8 784.08,-130.18"/>
</g>
<!-- Node5 -->
<g id="node5" class="node">
<title>Node5</title>
<g id="a_node5"><a xlink:title=" ">
<polygon fill="#e0e0e0" stroke="#999999" points="789.94,-74.5 749.94,-74.5 749.94,-55.25 789.94,-55.25 789.94,-74.5"/>
<text text-anchor="middle" x="769.94" y="-61" font-family="Helvetica,sans-Serif" font-size="10.00">string</text>
</a>
</g>
</g>
<!-- Node3&#45;&gt;Node5 -->
<g id="edge5" class="edge">
<title>Node3&#45;&gt;Node5</title>
<path fill="none" stroke="#63b8ff" d="M900.66,-165.35C899.75,-151.77 896.14,-126.04 881.94,-110.5 860.78,-87.35 826.03,-76.01 800.84,-70.59"/>
<polygon fill="#63b8ff" stroke="#63b8ff" points="801.84,-67.02 791.36,-68.55 800.51,-73.9 801.84,-67.02"/>
</g>
<!-- Node6 -->
<g id="node6" class="node">
<title>Node6</title>
<g id="a_node6"><a xlink:title=" ">
<polygon fill="#e0e0e0" stroke="#999999" points="523.44,-74.5 480.44,-74.5 480.44,-55.25 523.44,-55.25 523.44,-74.5"/>
<text text-anchor="middle" x="501.94" y="-61" font-family="Helvetica,sans-Serif" font-size="10.00">vector</text>
</a>
</g>
</g>
<!-- Node3&#45;&gt;Node6 -->
<g id="edge6" class="edge">
<title>Node3&#45;&gt;Node6</title>
<path fill="none" stroke="#63b8ff" d="M885.09,-165.33C855.64,-148.58 794.51,-114.1 783.94,-110.5 696.95,-80.87 588.06,-70.75 534.61,-67.42"/>
<polygon fill="#63b8ff" stroke="#63b8ff" points="534.95,-63.88 524.77,-66.8 534.55,-70.87 534.95,-63.88"/>
</g>
<!-- Node7 -->
<g id="node7" class="node">
<title>Node7</title>
<g id="a_node7"><a xlink:title=" ">
<polygon fill="#e0e0e0" stroke="#999999" points="974.94,-129.75 928.94,-129.75 928.94,-110.5 974.94,-110.5 974.94,-129.75"/>
<text text-anchor="middle" x="951.94" y="-116.25" font-family="Helvetica,sans-Serif" font-size="10.00">fftw3.h</text>
</a>
</g>
</g>
<!-- Node3&#45;&gt;Node7 -->
<g id="edge7" class="edge">
<title>Node3&#45;&gt;Node7</title>
<path fill="none" stroke="#63b8ff" d="M909.36,-165.58C916.55,-158.07 927.1,-147.06 935.89,-137.88"/>
<polygon fill="#63b8ff" stroke="#63b8ff" points="937.95,-140.75 942.33,-131.11 932.89,-135.91 937.95,-140.75"/>
</g>
<!-- Node8 -->
<g id="node8" class="node">
<title>Node8</title>
<g id="a_node8"><a xlink:href="globals_8h.html" target="_top" xlink:title="Type definitions and global constants.">
<polygon fill="white" stroke="#666666" points="1166.44,-129.75 1111.44,-129.75 1111.44,-110.5 1166.44,-110.5 1166.44,-129.75"/>
<text text-anchor="middle" x="1138.94" y="-116.25" font-family="Helvetica,sans-Serif" font-size="10.00">globals.h</text>
</a>
</g>
</g>
<!-- Node3&#45;&gt;Node8 -->
<g id="edge8" class="edge">
<title>Node3&#45;&gt;Node8</title>
<path fill="none" stroke="#63b8ff" d="M926.86,-168.57C968.87,-159.18 1052,-140.58 1100.77,-129.66"/>
<polygon fill="#63b8ff" stroke="#63b8ff" points="1101.22,-132.93 1110.22,-127.33 1099.69,-126.1 1101.22,-132.93"/>
</g>
<!-- Node9 -->
<g id="node9" class="node">
<title>Node9</title>
<g id="a_node9"><a xlink:title=" ">
<polygon fill="#e0e0e0" stroke="#999999" points="1054.44,-129.75 993.44,-129.75 993.44,-110.5 1054.44,-110.5 1054.44,-129.75"/>
<text text-anchor="middle" x="1023.94" y="-116.25" font-family="Helvetica,sans-Serif" font-size="10.00">matlabio.h</text>
</a>
</g>
</g>
<!-- Node3&#45;&gt;Node9 -->
<g id="edge11" class="edge">
<title>Node3&#45;&gt;Node9</title>
<path fill="none" stroke="#63b8ff" d="M921.8,-165.34C941.33,-156.89 970.75,-144.15 993,-134.52"/>
<polygon fill="#63b8ff" stroke="#63b8ff" points="994.19,-137.39 1001.97,-130.2 991.4,-130.96 994.19,-137.39"/>
</g>
<!-- Node10 -->
<g id="node10" class="node">
<title>Node10</title>
<g id="a_node10"><a xlink:href="utils_8h.html" target="_top" xlink:title="Useful miscellaneous utility functions.">
<polygon fill="white" stroke="#666666" points="873.06,-129.75 830.81,-129.75 830.81,-110.5 873.06,-110.5 873.06,-129.75"/>
<text text-anchor="middle" x="851.94" y="-116.25" font-family="Helvetica,sans-Serif" font-size="10.00">utils.h</text>
</a>
</g>
</g>
<!-- Node3&#45;&gt;Node10 -->
<g id="edge12" class="edge">
<title>Node3&#45;&gt;Node10</title>
<path fill="none" stroke="#63b8ff" d="M892.85,-165.58C886.01,-158.15 876.01,-147.29 867.61,-138.16"/>
<polygon fill="#63b8ff" stroke="#63b8ff" points="870.55,-136.1 861.21,-131.11 865.4,-140.84 870.55,-136.1"/>
</g>
<!-- Node8&#45;&gt;Node2 -->
<g id="edge9" class="edge">
<title>Node8&#45;&gt;Node2</title>
<path fill="none" stroke="#63b8ff" d="M1151.66,-110.09C1162.76,-102.21 1179.1,-90.61 1192.26,-81.27"/>
<polygon fill="#63b8ff" stroke="#63b8ff" points="1194.03,-83.6 1200.15,-74.95 1189.97,-77.89 1194.03,-83.6"/>
</g>
<!-- Node8&#45;&gt;Node5 -->
<g id="edge10" class="edge">
<title>Node8&#45;&gt;Node5</title>
<path fill="none" stroke="#63b8ff" d="M1110.97,-113.11C1106.3,-112.18 1101.49,-111.28 1096.94,-110.5 988.66,-92.01 859.16,-76.19 800.96,-69.41"/>
<polygon fill="#63b8ff" stroke="#63b8ff" points="801.63,-65.85 791.29,-68.17 800.82,-72.8 801.63,-65.85"/>
</g>
<!-- Node10&#45;&gt;Node5 -->
<g id="edge13" class="edge">
<title>Node10&#45;&gt;Node5</title>
<path fill="none" stroke="#63b8ff" d="M838.03,-110.09C825.66,-102.06 807.34,-90.16 792.81,-80.73"/>
<polygon fill="#63b8ff" stroke="#63b8ff" points="795.21,-77.46 784.92,-74.95 791.4,-83.33 795.21,-77.46"/>
</g>
<!-- Node11&#45;&gt;Node2 -->
<g id="edge15" class="edge">
<title>Node11&#45;&gt;Node2</title>
<path fill="none" stroke="#63b8ff" d="M721.36,-281.4C759.64,-274.96 842.12,-260 909.94,-240.25 1041.97,-201.81 1108.89,-233.68 1198.94,-129.75 1209.44,-117.63 1212.93,-99.53 1213.94,-85.68"/>
<polygon fill="#63b8ff" stroke="#63b8ff" points="1217.47,-85.99 1214.31,-75.87 1210.47,-85.75 1217.47,-85.99"/>
</g>
<!-- Node11&#45;&gt;Node3 -->
<g id="edge16" class="edge">
<title>Node11&#45;&gt;Node3</title>
<path fill="none" stroke="#63b8ff" d="M707.64,-275.77C719.66,-262.1 744.17,-236.24 769.94,-221 799.57,-203.48 837.06,-191.59 864.34,-184.52"/>
<polygon fill="#63b8ff" stroke="#63b8ff" points="865.12,-187.68 873.98,-181.87 863.43,-180.89 865.12,-187.68"/>
</g>
<!-- Node12 -->
<g id="node12" class="node">
<title>Node12</title>
<g id="a_node12"><a xlink:href="cell__coordinate_8h.html" target="_top" xlink:title="Container for {ijk} or {IJK} grouped variables.">
<polygon fill="white" stroke="#666666" points="610.69,-185 521.19,-185 521.19,-165.75 610.69,-165.75 610.69,-185"/>
<text text-anchor="middle" x="565.94" y="-171.5" font-family="Helvetica,sans-Serif" font-size="10.00">cell_coordinate.h</text>
</a>
</g>
</g>
<!-- Node11&#45;&gt;Node12 -->
<g id="edge17" class="edge">
<title>Node11&#45;&gt;Node12</title>
<path fill="none" stroke="#63b8ff" d="M688.97,-276C666.3,-257.64 614,-215.29 585.43,-192.16"/>
<polygon fill="#63b8ff" stroke="#63b8ff" points="588.03,-188.95 578.06,-185.38 583.63,-194.39 588.03,-188.95"/>
</g>
<!-- Node15 -->
<g id="node15" class="node">
<title>Node15</title>
<g id="a_node15"><a xlink:href="dimensions_8h.html" target="_top" xlink:title="Defines a class that serves as an explicit converter between MATLAB pointers and array dimensions.">
<polygon fill="white" stroke="#666666" points="376.81,-240.25 303.06,-240.25 303.06,-221 376.81,-221 376.81,-240.25"/>
<text text-anchor="middle" x="339.94" y="-226.75" font-family="Helvetica,sans-Serif" font-size="10.00">dimensions.h</text>
</a>
</g>
</g>
<!-- Node11&#45;&gt;Node15 -->
<g id="edge20" class="edge">
<title>Node11&#45;&gt;Node15</title>
<path fill="none" stroke="#63b8ff" d="M678.5,-281.7C621.83,-273.32 467.01,-250.42 387.88,-238.72"/>
<polygon fill="#63b8ff" stroke="#63b8ff" points="388.64,-235.14 378.24,-237.14 387.62,-242.07 388.64,-235.14"/>
</g>
<!-- Node16 -->
<g id="node16" class="node">
<title>Node16</title>
<g id="a_node16"><a xlink:href="mat__io_8h.html" target="_top" xlink:title="Includes MATLAB headers for I/O.">
<polygon fill="white" stroke="#666666" points="122.69,-74.5 69.19,-74.5 69.19,-55.25 122.69,-55.25 122.69,-74.5"/>
<text text-anchor="middle" x="95.94" y="-61" font-family="Helvetica,sans-Serif" font-size="10.00">mat_io.h</text>
</a>
</g>
</g>
<!-- Node11&#45;&gt;Node16 -->
<g id="edge32" class="edge">
<title>Node11&#45;&gt;Node16</title>
<path fill="none" stroke="#63b8ff" d="M678.45,-284.55C617.34,-283.2 437.71,-276.22 293.94,-240.25 198.05,-216.26 142.2,-219.57 100.94,-129.75 94.54,-115.82 93.58,-98.38 94.06,-85.24"/>
<polygon fill="#63b8ff" stroke="#63b8ff" points="97.6,-85.83 94.79,-75.61 90.61,-85.35 97.6,-85.83"/>
</g>
<!-- Node20 -->
<g id="node20" class="node">
<title>Node20</title>
<g id="a_node20"><a xlink:href="input__flags_8h.html" target="_top" xlink:title="Organises enumerated constants, names, and classes for handling flag&#45;variables that are passed to TDM...">
<polygon fill="white" stroke="#666666" points="700.69,-185 629.19,-185 629.19,-165.75 700.69,-165.75 700.69,-185"/>
<text text-anchor="middle" x="664.94" y="-171.5" font-family="Helvetica,sans-Serif" font-size="10.00">input_flags.h</text>
</a>
</g>
</g>
<!-- Node11&#45;&gt;Node20 -->
<g id="edge25" class="edge">
<title>Node11&#45;&gt;Node20</title>
<path fill="none" stroke="#63b8ff" d="M697.08,-276C691.44,-258.51 678.78,-219.27 671.14,-195.59"/>
<polygon fill="#63b8ff" stroke="#63b8ff" points="674.24,-194.82 667.84,-186.38 667.58,-196.97 674.24,-194.82"/>
</g>
<!-- Node21 -->
<g id="node21" class="node">
<title>Node21</title>
<g id="a_node21"><a xlink:href="simulation__parameters_8h.html" target="_top" xlink:title="Classes collecting parameters for the simulation.">
<polygon fill="white" stroke="#666666" points="901.19,-240.25 778.69,-240.25 778.69,-221 901.19,-221 901.19,-240.25"/>
<text text-anchor="middle" x="839.94" y="-226.75" font-family="Helvetica,sans-Serif" font-size="10.00">simulation_parameters.h</text>
</a>
</g>
</g>
<!-- Node11&#45;&gt;Node21 -->
<g id="edge33" class="edge">
<title>Node11&#45;&gt;Node21</title>
<path fill="none" stroke="#63b8ff" d="M721.51,-276.67C744.12,-268.07 779.97,-254.43 806.31,-244.42"/>
<polygon fill="#63b8ff" stroke="#63b8ff" points="807.14,-247.47 815.24,-240.64 804.65,-240.92 807.14,-247.47"/>
</g>
<!-- Node13 -->
<g id="node13" class="node">
<title>Node13</title>
<g id="a_node13"><a xlink:title=" ">
<polygon fill="#e0e0e0" stroke="#999999" points="623.06,-129.75 538.81,-129.75 538.81,-110.5 623.06,-110.5 623.06,-129.75"/>
<text text-anchor="middle" x="580.94" y="-116.25" font-family="Helvetica,sans-Serif" font-size="10.00">spdlog/spdlog.h</text>
</a>
</g>
</g>
<!-- Node12&#45;&gt;Node13 -->
<g id="edge18" class="edge">
<title>Node12&#45;&gt;Node13</title>
<path fill="none" stroke="#63b8ff" d="M568.42,-165.58C570.34,-158.76 573.07,-149.06 575.5,-140.45"/>
<polygon fill="#63b8ff" stroke="#63b8ff" points="579.07,-141.68 578.41,-131.11 572.33,-139.79 579.07,-141.68"/>
</g>
<!-- Node14 -->
<g id="node14" class="node">
<title>Node14</title>
<g id="a_node14"><a xlink:title=" ">
<polygon fill="#e0e0e0" stroke="#999999" points="520.81,-129.75 465.06,-129.75 465.06,-110.5 520.81,-110.5 520.81,-129.75"/>
<text text-anchor="middle" x="492.94" y="-116.25" font-family="Helvetica,sans-Serif" font-size="10.00">algorithm</text>
</a>
</g>
</g>
<!-- Node12&#45;&gt;Node14 -->
<g id="edge19" class="edge">
<title>Node12&#45;&gt;Node14</title>
<path fill="none" stroke="#63b8ff" d="M553.56,-165.34C542.69,-157.41 526.66,-145.72 513.81,-136.35"/>
<polygon fill="#63b8ff" stroke="#63b8ff" points="516.28,-133.09 506.14,-130.02 512.16,-138.75 516.28,-133.09"/>
</g>
<!-- Node15&#45;&gt;Node16 -->
<g id="edge21" class="edge">
<title>Node15&#45;&gt;Node16</title>
<path fill="none" stroke="#63b8ff" d="M302.59,-222.86C252.96,-211.94 165.77,-185.72 115.94,-129.75 105.06,-117.53 100.1,-99.44 97.84,-85.62"/>
<polygon fill="#63b8ff" stroke="#63b8ff" points="101.2,-85.32 96.46,-75.84 94.26,-86.2 101.2,-85.32"/>
</g>
<!-- Node17 -->
<g id="node17" class="node">
<title>Node17</title>
<g id="a_node17"><a xlink:title=" ">
<polygon fill="#e0e0e0" stroke="#999999" points="52.31,-19.25 11.56,-19.25 11.56,0 52.31,0 52.31,-19.25"/>
<text text-anchor="middle" x="31.94" y="-5.75" font-family="Helvetica,sans-Serif" font-size="10.00">mat.h</text>
</a>
</g>
</g>
<!-- Node16&#45;&gt;Node17 -->
<g id="edge22" class="edge">
<title>Node16&#45;&gt;Node17</title>
<path fill="none" stroke="#63b8ff" d="M85.08,-54.84C75.74,-47.07 62.05,-35.67 50.9,-26.4"/>
<polygon fill="#63b8ff" stroke="#63b8ff" points="53.56,-23.23 43.64,-19.52 49.08,-28.61 53.56,-23.23"/>
</g>
<!-- Node18 -->
<g id="node18" class="node">
<title>Node18</title>
<g id="a_node18"><a xlink:title=" ">
<polygon fill="#e0e0e0" stroke="#999999" points="121.56,-19.25 70.31,-19.25 70.31,0 121.56,0 121.56,-19.25"/>
<text text-anchor="middle" x="95.94" y="-5.75" font-family="Helvetica,sans-Serif" font-size="10.00">matrix.h</text>
</a>
</g>
</g>
<!-- Node16&#45;&gt;Node18 -->
<g id="edge23" class="edge">
<title>Node16&#45;&gt;Node18</title>
<path fill="none" stroke="#63b8ff" d="M95.94,-55.08C95.94,-48.42 95.94,-38.99 95.94,-30.53"/>
<polygon fill="#63b8ff" stroke="#63b8ff" points="99.44,-30.61 95.94,-20.61 92.44,-30.61 99.44,-30.61"/>
</g>
<!-- Node19 -->
<g id="node19" class="node">
<title>Node19</title>
<g id="a_node19"><a xlink:title=" ">
<polygon fill="#e0e0e0" stroke="#999999" points="182.44,-19.25 139.44,-19.25 139.44,0 182.44,0 182.44,-19.25"/>
<text text-anchor="middle" x="160.94" y="-5.75" font-family="Helvetica,sans-Serif" font-size="10.00">mex.h</text>
</a>
</g>
</g>
<!-- Node16&#45;&gt;Node19 -->
<g id="edge24" class="edge">
<title>Node16&#45;&gt;Node19</title>
<path fill="none" stroke="#63b8ff" d="M106.97,-54.84C116.45,-47.07 130.36,-35.67 141.68,-26.4"/>
<polygon fill="#63b8ff" stroke="#63b8ff" points="143.56,-28.57 149.08,-19.52 139.12,-23.15 143.56,-28.57"/>
</g>
<!-- Node20&#45;&gt;Node4 -->
<g id="edge27" class="edge">
<title>Node20&#45;&gt;Node4</title>
<path fill="none" stroke="#63b8ff" d="M678.68,-165.34C690.9,-157.31 709,-145.41 723.35,-135.98"/>
<polygon fill="#63b8ff" stroke="#63b8ff" points="724.7,-138.62 731.13,-130.2 720.85,-132.77 724.7,-138.62"/>
</g>
<!-- Node20&#45;&gt;Node5 -->
<g id="edge28" class="edge">
<title>Node20&#45;&gt;Node5</title>
<path fill="none" stroke="#63b8ff" d="M669.63,-165.4C676.74,-152.34 691.19,-127.78 707.94,-110.5 718.94,-99.15 733.13,-88.7 745.16,-80.77"/>
<polygon fill="#63b8ff" stroke="#63b8ff" points="746.69,-83.31 753.24,-74.98 742.92,-77.4 746.69,-83.31"/>
</g>
<!-- Node20&#45;&gt;Node6 -->
<g id="edge29" class="edge">
<title>Node20&#45;&gt;Node6</title>
<path fill="none" stroke="#63b8ff" d="M662.7,-165.62C658.77,-151.94 649.32,-125.51 631.94,-110.5 604.2,-86.54 562.94,-75.27 534.38,-70.08"/>
<polygon fill="#63b8ff" stroke="#63b8ff" points="535.17,-66.5 524.74,-68.32 534.03,-73.41 535.17,-66.5"/>
</g>
<!-- Node20&#45;&gt;Node13 -->
<g id="edge30" class="edge">
<title>Node20&#45;&gt;Node13</title>
<path fill="none" stroke="#63b8ff" d="M650.69,-165.34C638.02,-157.31 619.25,-145.41 604.37,-135.98"/>
<polygon fill="#63b8ff" stroke="#63b8ff" points="606.58,-132.6 596.26,-130.2 602.83,-138.51 606.58,-132.6"/>
</g>
<!-- Node20&#45;&gt;Node14 -->
<g id="edge26" class="edge">
<title>Node20&#45;&gt;Node14</title>
<path fill="none" stroke="#63b8ff" d="M635.76,-165.34C607,-156.44 562.89,-142.78 531.31,-133"/>
<polygon fill="#63b8ff" stroke="#63b8ff" points="532.7,-129.46 522.12,-129.85 530.63,-136.15 532.7,-129.46"/>
</g>
<!-- Node20&#45;&gt;Node16 -->
<g id="edge31" class="edge">
<title>Node20&#45;&gt;Node16</title>
<path fill="none" stroke="#63b8ff" d="M629.14,-167.15C626.03,-166.63 622.93,-166.16 619.94,-165.75 520.97,-152.33 264.33,-167.68 171.94,-129.75 147.15,-119.57 124.44,-98.2 110.42,-82.98"/>
<polygon fill="#63b8ff" stroke="#63b8ff" points="113.48,-81.02 104.23,-75.86 108.24,-85.66 113.48,-81.02"/>
</g>
<!-- Node21&#45;&gt;Node3 -->
<g id="edge35" class="edge">
<title>Node21&#45;&gt;Node3</title>
<path fill="none" stroke="#63b8ff" d="M850.29,-220.59C859.1,-212.9 871.99,-201.65 882.55,-192.43"/>
<polygon fill="#63b8ff" stroke="#63b8ff" points="884.51,-194.49 889.74,-185.27 879.91,-189.21 884.51,-194.49"/>
</g>
<!-- Node21&#45;&gt;Node5 -->
<g id="edge34" class="edge">
<title>Node21&#45;&gt;Node5</title>
<path fill="none" stroke="#63b8ff" d="M899.14,-220.52C981.43,-205.45 1114.79,-170.84 1062.94,-110.5 1029.42,-71.49 869.54,-66.19 801.12,-65.74"/>
<polygon fill="#63b8ff" stroke="#63b8ff" points="801.22,-62.24 791.21,-65.71 801.2,-69.24 801.22,-62.24"/>
</g>
<!-- Node22 -->
<g id="node22" class="node">
<title>Node22</title>
<g id="a_node22"><a xlink:href="input__matrices_8h.html" target="_top" xlink:title="Class handling the input matrices that are read in from the input file.">
<polygon fill="white" stroke="#666666" points="396.94,-185 308.94,-185 308.94,-165.75 396.94,-165.75 396.94,-185"/>
<text text-anchor="middle" x="352.94" y="-171.5" font-family="Helvetica,sans-Serif" font-size="10.00">input_matrices.h</text>
</a>
</g>
</g>
<!-- Node21&#45;&gt;Node22 -->
<g id="edge36" class="edge">
<title>Node21&#45;&gt;Node22</title>
<path fill="none" stroke="#63b8ff" d="M778.26,-222.88C682.46,-212.41 499.44,-192.39 407.91,-182.39"/>
<polygon fill="#63b8ff" stroke="#63b8ff" points="408.53,-178.82 398.21,-181.22 407.77,-185.78 408.53,-178.82"/>
</g>
<!-- Node22&#45;&gt;Node5 -->
<g id="edge37" class="edge">
<title>Node22&#45;&gt;Node5</title>
<path fill="none" stroke="#63b8ff" d="M365.84,-165.44C389.01,-149.54 437.05,-117.36 455.94,-110.5 554.96,-74.56 681.35,-67.42 738.9,-66.1"/>
<polygon fill="#63b8ff" stroke="#63b8ff" points="738.85,-69.58 748.78,-65.9 738.72,-62.58 738.85,-69.58"/>
</g>
<!-- Node22&#45;&gt;Node16 -->
<g id="edge41" class="edge">
<title>Node22&#45;&gt;Node16</title>
<path fill="none" stroke="#63b8ff" d="M308.63,-174.64C262.55,-172.87 190.12,-164.16 138.94,-129.75 122.67,-118.81 110.93,-99.45 103.87,-84.9"/>
<polygon fill="#63b8ff" stroke="#63b8ff" points="106.68,-83.62 99.39,-75.93 100.3,-86.49 106.68,-83.62"/>
</g>
<!-- Node23 -->
<g id="node23" class="node">
<title>Node23</title>
<g id="a_node23"><a xlink:href="input__output__names_8h.html" target="_top" xlink:title="Constant values associated with the format of the input and output files and matrices.">
<polygon fill="white" stroke="#666666" points="408.94,-129.75 296.94,-129.75 296.94,-110.5 408.94,-110.5 408.94,-129.75"/>
<text text-anchor="middle" x="352.94" y="-116.25" font-family="Helvetica,sans-Serif" font-size="10.00">input_output_names.h</text>
</a>
</g>
</g>
<!-- Node22&#45;&gt;Node23 -->
<g id="edge38" class="edge">
<title>Node22&#45;&gt;Node23</title>
<path fill="none" stroke="#63b8ff" d="M352.94,-165.58C352.94,-158.92 352.94,-149.49 352.94,-141.03"/>
<polygon fill="#63b8ff" stroke="#63b8ff" points="356.44,-141.11 352.94,-131.11 349.44,-141.11 356.44,-141.11"/>
</g>
<!-- Node24 -->
<g id="node24" class="node">
<title>Node24</title>
<g id="a_node24"><a xlink:href="matrix__collection_8h.html" target="_top" xlink:title="A collection of named MATLAB matrices.">
<polygon fill="white" stroke="#666666" points="278.81,-129.75 181.06,-129.75 181.06,-110.5 278.81,-110.5 278.81,-129.75"/>
<text text-anchor="middle" x="229.94" y="-116.25" font-family="Helvetica,sans-Serif" font-size="10.00">matrix_collection.h</text>
</a>
</g>
</g>
<!-- Node22&#45;&gt;Node24 -->
<g id="edge42" class="edge">
<title>Node22&#45;&gt;Node24</title>
<path fill="none" stroke="#63b8ff" d="M332.07,-165.34C312.55,-156.89 283.13,-144.15 260.87,-134.52"/>
<polygon fill="#63b8ff" stroke="#63b8ff" points="262.47,-130.96 251.91,-130.2 259.69,-137.39 262.47,-130.96"/>
</g>
<!-- Node23&#45;&gt;Node5 -->
<g id="edge39" class="edge">
<title>Node23&#45;&gt;Node5</title>
<path fill="none" stroke="#63b8ff" d="M409.18,-111.94C498.26,-100.57 668.86,-78.78 738.83,-69.85"/>
<polygon fill="#63b8ff" stroke="#63b8ff" points="739.08,-73.22 748.55,-68.48 738.19,-66.27 739.08,-73.22"/>
</g>
<!-- Node23&#45;&gt;Node6 -->
<g id="edge40" class="edge">
<title>Node23&#45;&gt;Node6</title>
<path fill="none" stroke="#63b8ff" d="M378.22,-110.09C403.43,-101.08 442.26,-87.2 469.68,-77.4"/>
<polygon fill="#63b8ff" stroke="#63b8ff" points="470.71,-80.4 478.94,-73.74 468.35,-73.81 470.71,-80.4"/>
</g>
<!-- Node24&#45;&gt;Node5 -->
<g id="edge43" class="edge">
<title>Node24&#45;&gt;Node5</title>
<path fill="none" stroke="#63b8ff" d="M279.28,-111.6C282.2,-111.21 285.11,-110.84 287.94,-110.5 457.77,-90.03 662.26,-73.9 738.92,-68.15"/>
<polygon fill="#63b8ff" stroke="#63b8ff" points="738.98,-71.58 748.69,-67.35 738.46,-64.6 738.98,-71.58"/>
</g>
<!-- Node24&#45;&gt;Node6 -->
<g id="edge44" class="edge">
<title>Node24&#45;&gt;Node6</title>
<path fill="none" stroke="#63b8ff" d="M276.39,-110.03C331.31,-99.28 421.31,-81.66 469.34,-72.26"/>
<polygon fill="#63b8ff" stroke="#63b8ff" points="469.9,-75.52 479.04,-70.16 468.56,-68.65 469.9,-75.52"/>
</g>
<!-- Node24&#45;&gt;Node16 -->
<g id="edge45" class="edge">
<title>Node24&#45;&gt;Node16</title>
<path fill="none" stroke="#63b8ff" d="M207.21,-110.09C185.74,-101.56 153.31,-88.67 128.99,-79.01"/>
<polygon fill="#63b8ff" stroke="#63b8ff" points="130.37,-75.39 119.78,-74.95 127.78,-81.9 130.37,-75.39"/>
</g>
<!-- Node25&#45;&gt;Node16 -->
<g id="edge47" class="edge">
<title>Node25&#45;&gt;Node16</title>
<path fill="none" stroke="#63b8ff" d="M302.22,-285.36C227.89,-285.53 60.5,-281.25 24.94,-240.25 -12.85,-196.69 -2.95,-160.97 24.94,-110.5 32.53,-96.76 46.33,-86.68 59.75,-79.61"/>
<polygon fill="#63b8ff" stroke="#63b8ff" points="60.87,-82.47 68.36,-74.99 57.83,-76.17 60.87,-82.47"/>
</g>
</g>
</svg>
