<?xml version="1.0" encoding="UTF-8" standalone="no"?>
<!DOCTYPE svg PUBLIC "-//W3C//DTD SVG 1.1//EN"
 "http://www.w3.org/Graphics/SVG/1.1/DTD/svg11.dtd">
<!-- Generated by graphviz version 8.0.2 (20230410.1723)
 -->
<!-- Title: tdms/include/vertex_phasors.h Pages: 1 -->
<svg width="1159pt" height="368pt"
 viewBox="0.00 0.00 1159.00 368.00" xmlns="http://www.w3.org/2000/svg" xmlns:xlink="http://www.w3.org/1999/xlink">
<g id="graph0" class="graph" transform="scale(1 1) rotate(0) translate(4 364)">
<title>tdms/include/vertex_phasors.h</title>
<!-- Node1 -->
<g id="node1" class="node">
<title>Node1</title>
<g id="a_node1"><a xlink:title="Contains a class that handles the complex amplitude extraction at the vertices.">
<polygon fill="#999999" stroke="#666666" points="203,-360 101,-360 101,-330 203,-330 203,-360"/>
<text text-anchor="start" x="109" y="-348" font-family="Helvetica,sans-Serif" font-size="10.00">tdms/include/vertex</text>
<text text-anchor="middle" x="152" y="-337" font-family="Helvetica,sans-Serif" font-size="10.00">_phasors.h</text>
</a>
</g>
</g>
<!-- Node2 -->
<g id="node2" class="node">
<title>Node2</title>
<g id="a_node2"><a xlink:title=" ">
<polygon fill="#e0e0e0" stroke="#999999" points="110.5,-74 57.5,-74 57.5,-55 110.5,-55 110.5,-74"/>
<text text-anchor="middle" x="84" y="-62" font-family="Helvetica,sans-Serif" font-size="10.00">complex</text>
</a>
</g>
</g>
<!-- Node1&#45;&gt;Node2 -->
<g id="edge1" class="edge">
<title>Node1&#45;&gt;Node2</title>
<path fill="none" stroke="#63b8ff" d="M101.81,-329.56C57.53,-313.38 0,-282.37 0,-230.5 0,-230.5 0,-230.5 0,-173.5 0,-144.04 1.63,-133.79 19,-110 28.25,-97.33 42.27,-87.07 54.92,-79.62"/>
<polygon fill="#63b8ff" stroke="#63b8ff" points="56.17,-82.37 63.23,-74.47 52.79,-76.25 56.17,-82.37"/>
</g>
<!-- Node3 -->
<g id="node3" class="node">
<title>Node3</title>
<g id="a_node3"><a xlink:href="arrays_8h.html" target="_top" xlink:title="Classes describing arrays, vertices etc.">
<polygon fill="white" stroke="#666666" points="317,-184 265,-184 265,-165 317,-165 317,-184"/>
<text text-anchor="middle" x="291" y="-172" font-family="Helvetica,sans-Serif" font-size="10.00">arrays.h</text>
</a>
</g>
</g>
<!-- Node1&#45;&gt;Node3 -->
<g id="edge2" class="edge">
<title>Node1&#45;&gt;Node3</title>
<path fill="none" stroke="#63b8ff" d="M163.85,-329.63C189.42,-298.64 249.64,-225.64 277.02,-192.45"/>
<polygon fill="#63b8ff" stroke="#63b8ff" points="280.15,-195.16 283.81,-185.22 274.75,-190.7 280.15,-195.16"/>
</g>
<!-- Node10 -->
<g id="node10" class="node">
<title>Node10</title>
<g id="a_node10"><a xlink:href="field_8h.html" target="_top" xlink:title="Classes for the electric and magnetic (split) fields on a grid.">
<polygon fill="white" stroke="#666666" points="447.5,-294 404.5,-294 404.5,-275 447.5,-275 447.5,-294"/>
<text text-anchor="middle" x="426" y="-282" font-family="Helvetica,sans-Serif" font-size="10.00">field.h</text>
</a>
</g>
</g>
<!-- Node1&#45;&gt;Node10 -->
<g id="edge12" class="edge">
<title>Node1&#45;&gt;Node10</title>
<path fill="none" stroke="#63b8ff" d="M203.22,-333.07C259,-321.16 346.53,-302.47 393.55,-292.43"/>
<polygon fill="#63b8ff" stroke="#63b8ff" points="393.99,-295.7 403.04,-290.19 392.53,-288.85 393.99,-295.7"/>
</g>
<!-- Node24 -->
<g id="node24" class="node">
<title>Node24</title>
<g id="a_node24"><a xlink:href="grid__labels_8h.html" target="_top" xlink:title="Class to hold the labels of a Yee cell.">
<polygon fill="white" stroke="#666666" points="840.5,-294 769.5,-294 769.5,-275 840.5,-275 840.5,-294"/>
<text text-anchor="middle" x="805" y="-282" font-family="Helvetica,sans-Serif" font-size="10.00">grid_labels.h</text>
</a>
</g>
</g>
<!-- Node1&#45;&gt;Node24 -->
<g id="edge38" class="edge">
<title>Node1&#45;&gt;Node24</title>
<path fill="none" stroke="#63b8ff" d="M203.24,-339.41C326.74,-328.35 639.38,-300.34 758.2,-289.69"/>
<polygon fill="#63b8ff" stroke="#63b8ff" points="758.43,-293.1 768.08,-288.72 757.81,-286.12 758.43,-293.1"/>
</g>
<!-- Node3&#45;&gt;Node2 -->
<g id="edge3" class="edge">
<title>Node3&#45;&gt;Node2</title>
<path fill="none" stroke="#63b8ff" d="M264.59,-166.16C239.44,-158.63 200.94,-145.67 170,-129 144.91,-115.48 118.98,-95.33 102.24,-81.37"/>
<polygon fill="#63b8ff" stroke="#63b8ff" points="104.84,-78.14 94.95,-74.33 100.31,-83.47 104.84,-78.14"/>
</g>
<!-- Node4 -->
<g id="node4" class="node">
<title>Node4</title>
<g id="a_node4"><a xlink:title=" ">
<polygon fill="#e0e0e0" stroke="#999999" points="237.5,-129 178.5,-129 178.5,-110 237.5,-110 237.5,-129"/>
<text text-anchor="middle" x="208" y="-117" font-family="Helvetica,sans-Serif" font-size="10.00">stdexcept</text>
</a>
</g>
</g>
<!-- Node3&#45;&gt;Node4 -->
<g id="edge4" class="edge">
<title>Node3&#45;&gt;Node4</title>
<path fill="none" stroke="#63b8ff" d="M276.92,-164.51C264.32,-156.47 245.63,-144.53 230.89,-135.11"/>
<polygon fill="#63b8ff" stroke="#63b8ff" points="233.18,-131.79 222.87,-129.36 229.42,-137.69 233.18,-131.79"/>
</g>
<!-- Node5 -->
<g id="node5" class="node">
<title>Node5</title>
<g id="a_node5"><a xlink:title=" ">
<polygon fill="#e0e0e0" stroke="#999999" points="550.5,-74 509.5,-74 509.5,-55 550.5,-55 550.5,-74"/>
<text text-anchor="middle" x="530" y="-62" font-family="Helvetica,sans-Serif" font-size="10.00">string</text>
</a>
</g>
</g>
<!-- Node3&#45;&gt;Node5 -->
<g id="edge5" class="edge">
<title>Node3&#45;&gt;Node5</title>
<path fill="none" stroke="#63b8ff" d="M286.76,-164.52C281.07,-151.03 273.11,-125.46 286,-110 312.75,-77.93 439.08,-68.91 498.7,-66.42"/>
<polygon fill="#63b8ff" stroke="#63b8ff" points="498.49,-69.89 508.35,-66.02 498.23,-62.9 498.49,-69.89"/>
</g>
<!-- Node6 -->
<g id="node6" class="node">
<title>Node6</title>
<g id="a_node6"><a xlink:title=" ">
<polygon fill="#e0e0e0" stroke="#999999" points="402.5,-129 355.5,-129 355.5,-110 402.5,-110 402.5,-129"/>
<text text-anchor="middle" x="379" y="-117" font-family="Helvetica,sans-Serif" font-size="10.00">fftw3.h</text>
</a>
</g>
</g>
<!-- Node3&#45;&gt;Node6 -->
<g id="edge6" class="edge">
<title>Node3&#45;&gt;Node6</title>
<path fill="none" stroke="#63b8ff" d="M305.93,-164.51C319.41,-156.39 339.48,-144.3 355.18,-134.85"/>
<polygon fill="#63b8ff" stroke="#63b8ff" points="356.53,-137.52 363.29,-129.36 352.92,-131.52 356.53,-137.52"/>
</g>
<!-- Node7 -->
<g id="node7" class="node">
<title>Node7</title>
<g id="a_node7"><a xlink:href="globals_8h.html" target="_top" xlink:title="Type definitions and global constants.">
<polygon fill="white" stroke="#666666" points="84,-129 28,-129 28,-110 84,-110 84,-129"/>
<text text-anchor="middle" x="56" y="-117" font-family="Helvetica,sans-Serif" font-size="10.00">globals.h</text>
</a>
</g>
</g>
<!-- Node3&#45;&gt;Node7 -->
<g id="edge7" class="edge">
<title>Node3&#45;&gt;Node7</title>
<path fill="none" stroke="#63b8ff" d="M264.95,-167.63C223.71,-158.32 143.13,-140.15 94.98,-129.29"/>
<polygon fill="#63b8ff" stroke="#63b8ff" points="95.88,-125.68 85.35,-126.89 94.34,-132.51 95.88,-125.68"/>
</g>
<!-- Node8 -->
<g id="node8" class="node">
<title>Node8</title>
<g id="a_node8"><a xlink:title=" ">
<polygon fill="#e0e0e0" stroke="#999999" points="483,-129 421,-129 421,-110 483,-110 483,-129"/>
<text text-anchor="middle" x="452" y="-117" font-family="Helvetica,sans-Serif" font-size="10.00">matlabio.h</text>
</a>
</g>
</g>
<!-- Node3&#45;&gt;Node8 -->
<g id="edge9" class="edge">
<title>Node3&#45;&gt;Node8</title>
<path fill="none" stroke="#63b8ff" d="M317.23,-164.87C343.57,-156.19 384.44,-142.74 414.27,-132.92"/>
<polygon fill="#63b8ff" stroke="#63b8ff" points="415.3,-135.94 423.71,-129.48 413.12,-129.29 415.3,-135.94"/>
</g>
<!-- Node9 -->
<g id="node9" class="node">
<title>Node9</title>
<g id="a_node9"><a xlink:href="utils_8h.html" target="_top" xlink:title="Useful miscellaneous utility functions.">
<polygon fill="white" stroke="#666666" points="337.5,-129 294.5,-129 294.5,-110 337.5,-110 337.5,-129"/>
<text text-anchor="middle" x="316" y="-117" font-family="Helvetica,sans-Serif" font-size="10.00">utils.h</text>
</a>
</g>
</g>
<!-- Node3&#45;&gt;Node9 -->
<g id="edge10" class="edge">
<title>Node3&#45;&gt;Node9</title>
<path fill="none" stroke="#63b8ff" d="M295.13,-164.75C298.4,-157.81 303.09,-147.86 307.2,-139.16"/>
<polygon fill="#63b8ff" stroke="#63b8ff" points="310.68,-140.98 311.78,-130.44 304.35,-137.99 310.68,-140.98"/>
</g>
<!-- Node7&#45;&gt;Node2 -->
<g id="edge8" class="edge">
<title>Node7&#45;&gt;Node2</title>
<path fill="none" stroke="#63b8ff" d="M60.62,-109.75C64.29,-102.81 69.54,-92.86 74.14,-84.16"/>
<polygon fill="#63b8ff" stroke="#63b8ff" points="77.7,-85.92 79.28,-75.44 71.51,-82.65 77.7,-85.92"/>
</g>
<!-- Node9&#45;&gt;Node5 -->
<g id="edge11" class="edge">
<title>Node9&#45;&gt;Node5</title>
<path fill="none" stroke="#63b8ff" d="M337.99,-112.38C341.02,-111.57 344.08,-110.75 347,-110 400.07,-96.27 462.12,-81.44 498.62,-72.84"/>
<polygon fill="#63b8ff" stroke="#63b8ff" points="499.16,-76.07 508.09,-70.38 497.56,-69.26 499.16,-76.07"/>
</g>
<!-- Node10&#45;&gt;Node2 -->
<g id="edge13" class="edge">
<title>Node10&#45;&gt;Node2</title>
<path fill="none" stroke="#63b8ff" d="M404.25,-275.39C353.51,-255.76 224.87,-201.91 136,-129 119.87,-115.76 105.17,-96.89 95.55,-83.16"/>
<polygon fill="#63b8ff" stroke="#63b8ff" points="98.01,-81.54 89.5,-75.23 92.21,-85.47 98.01,-81.54"/>
</g>
<!-- Node10&#45;&gt;Node3 -->
<g id="edge14" class="edge">
<title>Node10&#45;&gt;Node3</title>
<path fill="none" stroke="#63b8ff" d="M414.95,-274.66C392.11,-256.39 339.42,-214.23 310.64,-191.21"/>
<polygon fill="#63b8ff" stroke="#63b8ff" points="313.2,-187.97 303.2,-184.46 308.82,-193.44 313.2,-187.97"/>
</g>
<!-- Node10&#45;&gt;Node7 -->
<g id="edge23" class="edge">
<title>Node10&#45;&gt;Node7</title>
<path fill="none" stroke="#63b8ff" d="M404.15,-283.36C338.9,-282.5 147.14,-276.77 100,-239 69.55,-214.61 60.17,-166.95 57.29,-140.1"/>
<polygon fill="#63b8ff" stroke="#63b8ff" points="60.71,-140.05 56.36,-130.39 53.73,-140.65 60.71,-140.05"/>
</g>
<!-- Node11 -->
<g id="node11" class="node">
<title>Node11</title>
<g id="a_node11"><a xlink:href="cell__coordinate_8h.html" target="_top" xlink:title="Container for {ijk} or {IJK} grouped variables.">
<polygon fill="white" stroke="#666666" points="1080,-239 990,-239 990,-220 1080,-220 1080,-239"/>
<text text-anchor="middle" x="1035" y="-227" font-family="Helvetica,sans-Serif" font-size="10.00">cell_coordinate.h</text>
</a>
</g>
</g>
<!-- Node10&#45;&gt;Node11 -->
<g id="edge15" class="edge">
<title>Node10&#45;&gt;Node11</title>
<path fill="none" stroke="#63b8ff" d="M447.92,-281.66C519.26,-275.67 751.2,-256.11 943,-239 954.62,-237.96 967.06,-236.83 978.93,-235.74"/>
<polygon fill="#63b8ff" stroke="#63b8ff" points="978.98,-239.15 988.61,-234.75 978.34,-232.18 978.98,-239.15"/>
</g>
<!-- Node14 -->
<g id="node14" class="node">
<title>Node14</title>
<g id="a_node14"><a xlink:href="dimensions_8h.html" target="_top" xlink:title="Defines a class that serves as an explicit converter between MATLAB pointers and array dimensions.">
<polygon fill="white" stroke="#666666" points="934,-239 860,-239 860,-220 934,-220 934,-239"/>
<text text-anchor="middle" x="897" y="-227" font-family="Helvetica,sans-Serif" font-size="10.00">dimensions.h</text>
</a>
</g>
</g>
<!-- Node10&#45;&gt;Node14 -->
<g id="edge18" class="edge">
<title>Node10&#45;&gt;Node14</title>
<path fill="none" stroke="#63b8ff" d="M447.92,-281.64C510.31,-276.25 694.15,-259.68 846,-239 846.97,-238.87 847.96,-238.73 848.95,-238.59"/>
<polygon fill="#63b8ff" stroke="#63b8ff" points="849.34,-241.92 858.72,-236.98 848.31,-235 849.34,-241.92"/>
</g>
<!-- Node15 -->
<g id="node15" class="node">
<title>Node15</title>
<g id="a_node15"><a xlink:href="mat__io_8h.html" target="_top" xlink:title="Includes MATLAB headers for I/O.">
<polygon fill="white" stroke="#666666" points="900,-74 846,-74 846,-55 900,-55 900,-74"/>
<text text-anchor="middle" x="873" y="-62" font-family="Helvetica,sans-Serif" font-size="10.00">mat_io.h</text>
</a>
</g>
</g>
<!-- Node10&#45;&gt;Node15 -->
<g id="edge24" class="edge">
<title>Node10&#45;&gt;Node15</title>
<path fill="none" stroke="#63b8ff" d="M447.86,-281.08C514.88,-272.57 720.22,-238.44 841,-129 854.15,-117.08 862.62,-98.53 867.52,-84.55"/>
<polygon fill="#63b8ff" stroke="#63b8ff" points="871.14,-85.71 870.82,-75.12 864.47,-83.6 871.14,-85.71"/>
</g>
<!-- Node19 -->
<g id="node19" class="node">
<title>Node19</title>
<g id="a_node19"><a xlink:href="simulation__parameters_8h.html" target="_top" xlink:title="Classes collecting parameters for the simulation.">
<polygon fill="white" stroke="#666666" points="546.5,-239 423.5,-239 423.5,-220 546.5,-220 546.5,-239"/>
<text text-anchor="middle" x="485" y="-227" font-family="Helvetica,sans-Serif" font-size="10.00">simulation_parameters.h</text>
</a>
</g>
</g>
<!-- Node10&#45;&gt;Node19 -->
<g id="edge25" class="edge">
<title>Node10&#45;&gt;Node19</title>
<path fill="none" stroke="#63b8ff" d="M436.01,-274.51C444.54,-266.85 457,-255.66 467.22,-246.47"/>
<polygon fill="#63b8ff" stroke="#63b8ff" points="469.04,-249.64 474.14,-240.36 464.36,-244.44 469.04,-249.64"/>
</g>
<!-- Node12 -->
<g id="node12" class="node">
<title>Node12</title>
<g id="a_node12"><a xlink:title=" ">
<polygon fill="#e0e0e0" stroke="#999999" points="1076.5,-184 991.5,-184 991.5,-165 1076.5,-165 1076.5,-184"/>
<text text-anchor="middle" x="1034" y="-172" font-family="Helvetica,sans-Serif" font-size="10.00">spdlog/spdlog.h</text>
</a>
</g>
</g>
<!-- Node11&#45;&gt;Node12 -->
<g id="edge16" class="edge">
<title>Node11&#45;&gt;Node12</title>
<path fill="none" stroke="#63b8ff" d="M1034.83,-219.75C1034.71,-213.11 1034.53,-203.73 1034.37,-195.31"/>
<polygon fill="#63b8ff" stroke="#63b8ff" points="1037.86,-195.37 1034.17,-185.44 1030.86,-195.51 1037.86,-195.37"/>
</g>
<!-- Node13 -->
<g id="node13" class="node">
<title>Node13</title>
<g id="a_node13"><a xlink:title=" ">
<polygon fill="#e0e0e0" stroke="#999999" points="1151,-184 1095,-184 1095,-165 1151,-165 1151,-184"/>
<text text-anchor="middle" x="1123" y="-172" font-family="Helvetica,sans-Serif" font-size="10.00">algorithm</text>
</a>
</g>
</g>
<!-- Node11&#45;&gt;Node13 -->
<g id="edge17" class="edge">
<title>Node11&#45;&gt;Node13</title>
<path fill="none" stroke="#63b8ff" d="M1049.93,-219.51C1063.41,-211.39 1083.48,-199.3 1099.18,-189.85"/>
<polygon fill="#63b8ff" stroke="#63b8ff" points="1100.53,-192.52 1107.29,-184.36 1096.92,-186.52 1100.53,-192.52"/>
</g>
<!-- Node14&#45;&gt;Node15 -->
<g id="edge19" class="edge">
<title>Node14&#45;&gt;Node15</title>
<path fill="none" stroke="#63b8ff" d="M896.92,-219.79C896.6,-200.05 894.98,-150.51 887,-110 885.32,-101.46 882.58,-92.24 879.97,-84.43"/>
<polygon fill="#63b8ff" stroke="#63b8ff" points="883,-83.49 876.37,-75.22 876.39,-85.81 883,-83.49"/>
</g>
<!-- Node16 -->
<g id="node16" class="node">
<title>Node16</title>
<g id="a_node16"><a xlink:title=" ">
<polygon fill="#e0e0e0" stroke="#999999" points="828.5,-19 787.5,-19 787.5,0 828.5,0 828.5,-19"/>
<text text-anchor="middle" x="808" y="-7" font-family="Helvetica,sans-Serif" font-size="10.00">mat.h</text>
</a>
</g>
</g>
<!-- Node15&#45;&gt;Node16 -->
<g id="edge20" class="edge">
<title>Node15&#45;&gt;Node16</title>
<path fill="none" stroke="#63b8ff" d="M861.97,-54.51C852.49,-46.77 838.58,-35.43 827.25,-26.2"/>
<polygon fill="#63b8ff" stroke="#63b8ff" points="829.83,-22.96 819.86,-19.36 825.4,-28.39 829.83,-22.96"/>
</g>
<!-- Node17 -->
<g id="node17" class="node">
<title>Node17</title>
<g id="a_node17"><a xlink:title=" ">
<polygon fill="#e0e0e0" stroke="#999999" points="899,-19 847,-19 847,0 899,0 899,-19"/>
<text text-anchor="middle" x="873" y="-7" font-family="Helvetica,sans-Serif" font-size="10.00">matrix.h</text>
</a>
</g>
</g>
<!-- Node15&#45;&gt;Node17 -->
<g id="edge21" class="edge">
<title>Node15&#45;&gt;Node17</title>
<path fill="none" stroke="#63b8ff" d="M873,-54.75C873,-48.11 873,-38.73 873,-30.31"/>
<polygon fill="#63b8ff" stroke="#63b8ff" points="876.5,-30.44 873,-20.44 869.5,-30.44 876.5,-30.44"/>
</g>
<!-- Node18 -->
<g id="node18" class="node">
<title>Node18</title>
<g id="a_node18"><a xlink:title=" ">
<polygon fill="#e0e0e0" stroke="#999999" points="961,-19 917,-19 917,0 961,0 961,-19"/>
<text text-anchor="middle" x="939" y="-7" font-family="Helvetica,sans-Serif" font-size="10.00">mex.h</text>
</a>
</g>
</g>
<!-- Node15&#45;&gt;Node18 -->
<g id="edge22" class="edge">
<title>Node15&#45;&gt;Node18</title>
<path fill="none" stroke="#63b8ff" d="M884.2,-54.51C893.83,-46.77 907.95,-35.43 919.45,-26.2"/>
<polygon fill="#63b8ff" stroke="#63b8ff" points="921.36,-28.35 926.97,-19.36 916.98,-22.89 921.36,-28.35"/>
</g>
<!-- Node19&#45;&gt;Node3 -->
<g id="edge27" class="edge">
<title>Node19&#45;&gt;Node3</title>
<path fill="none" stroke="#63b8ff" d="M452.09,-219.51C417.61,-210.09 363.56,-195.32 327.71,-185.53"/>
<polygon fill="#63b8ff" stroke="#63b8ff" points="328.78,-181.92 318.21,-182.66 326.94,-188.67 328.78,-181.92"/>
</g>
<!-- Node19&#45;&gt;Node5 -->
<g id="edge26" class="edge">
<title>Node19&#45;&gt;Node5</title>
<path fill="none" stroke="#63b8ff" d="M487.42,-219.74C494.44,-194.31 514.93,-120.08 524.7,-84.69"/>
<polygon fill="#63b8ff" stroke="#63b8ff" points="528.28,-85.88 527.57,-75.31 521.53,-84.01 528.28,-85.88"/>
</g>
<!-- Node20 -->
<g id="node20" class="node">
<title>Node20</title>
<g id="a_node20"><a xlink:href="input__matrices_8h.html" target="_top" xlink:title="Class handling the input matrices that are read in from the input file.">
<polygon fill="white" stroke="#666666" points="678.5,-184 589.5,-184 589.5,-165 678.5,-165 678.5,-184"/>
<text text-anchor="middle" x="634" y="-172" font-family="Helvetica,sans-Serif" font-size="10.00">input_matrices.h</text>
</a>
</g>
</g>
<!-- Node19&#45;&gt;Node20 -->
<g id="edge28" class="edge">
<title>Node19&#45;&gt;Node20</title>
<path fill="none" stroke="#63b8ff" d="M510.28,-219.51C534.61,-210.85 571.63,-197.69 598.83,-188.01"/>
<polygon fill="#63b8ff" stroke="#63b8ff" points="599.85,-191.01 608.1,-184.36 597.5,-184.41 599.85,-191.01"/>
</g>
<!-- Node20&#45;&gt;Node5 -->
<g id="edge29" class="edge">
<title>Node20&#45;&gt;Node5</title>
<path fill="none" stroke="#63b8ff" d="M617.07,-164.57C603.03,-156.58 583.14,-143.86 569,-129 556.19,-115.54 545.48,-97.2 538.54,-83.69"/>
<polygon fill="#63b8ff" stroke="#63b8ff" points="541.37,-82.51 533.82,-75.07 535.09,-85.59 541.37,-82.51"/>
</g>
<!-- Node20&#45;&gt;Node15 -->
<g id="edge33" class="edge">
<title>Node20&#45;&gt;Node15</title>
<path fill="none" stroke="#63b8ff" d="M678.7,-170.01C717.37,-165.33 773.58,-154.4 816,-129 835,-117.62 851.25,-97.88 861.48,-83.42"/>
<polygon fill="#63b8ff" stroke="#63b8ff" points="864.86,-85.67 867.56,-75.42 859.06,-81.75 864.86,-85.67"/>
</g>
<!-- Node21 -->
<g id="node21" class="node">
<title>Node21</title>
<g id="a_node21"><a xlink:href="input__output__names_8h.html" target="_top" xlink:title="Constant values associated with the format of the input and output files and matrices.">
<polygon fill="white" stroke="#666666" points="690.5,-129 577.5,-129 577.5,-110 690.5,-110 690.5,-129"/>
<text text-anchor="middle" x="634" y="-117" font-family="Helvetica,sans-Serif" font-size="10.00">input_output_names.h</text>
</a>
</g>
</g>
<!-- Node20&#45;&gt;Node21 -->
<g id="edge30" class="edge">
<title>Node20&#45;&gt;Node21</title>
<path fill="none" stroke="#63b8ff" d="M634,-164.75C634,-158.11 634,-148.73 634,-140.31"/>
<polygon fill="#63b8ff" stroke="#63b8ff" points="637.5,-140.44 634,-130.44 630.5,-140.44 637.5,-140.44"/>
</g>
<!-- Node23 -->
<g id="node23" class="node">
<title>Node23</title>
<g id="a_node23"><a xlink:href="matrix__collection_8h.html" target="_top" xlink:title="A collection of named MATLAB matrices.">
<polygon fill="white" stroke="#666666" points="807,-129 709,-129 709,-110 807,-110 807,-129"/>
<text text-anchor="middle" x="758" y="-117" font-family="Helvetica,sans-Serif" font-size="10.00">matrix_collection.h</text>
</a>
</g>
</g>
<!-- Node20&#45;&gt;Node23 -->
<g id="edge34" class="edge">
<title>Node20&#45;&gt;Node23</title>
<path fill="none" stroke="#63b8ff" d="M655.03,-164.51C674.84,-156.04 704.74,-143.27 727.22,-133.66"/>
<polygon fill="#63b8ff" stroke="#63b8ff" points="728.46,-136.51 736.28,-129.36 725.7,-130.07 728.46,-136.51"/>
</g>
<!-- Node21&#45;&gt;Node5 -->
<g id="edge31" class="edge">
<title>Node21&#45;&gt;Node5</title>
<path fill="none" stroke="#63b8ff" d="M616.36,-109.51C600.12,-101.24 575.8,-88.84 557.1,-79.31"/>
<polygon fill="#63b8ff" stroke="#63b8ff" points="558.88,-75.78 548.38,-74.36 555.7,-82.02 558.88,-75.78"/>
</g>
<!-- Node22 -->
<g id="node22" class="node">
<title>Node22</title>
<g id="a_node22"><a xlink:title=" ">
<polygon fill="#e0e0e0" stroke="#999999" points="718,-74 674,-74 674,-55 718,-55 718,-74"/>
<text text-anchor="middle" x="696" y="-62" font-family="Helvetica,sans-Serif" font-size="10.00">vector</text>
</a>
</g>
</g>
<!-- Node21&#45;&gt;Node22 -->
<g id="edge32" class="edge">
<title>Node21&#45;&gt;Node22</title>
<path fill="none" stroke="#63b8ff" d="M644.52,-109.51C653.48,-101.85 666.57,-90.66 677.31,-81.47"/>
<polygon fill="#63b8ff" stroke="#63b8ff" points="679.31,-83.52 684.64,-74.36 674.76,-78.2 679.31,-83.52"/>
</g>
<!-- Node23&#45;&gt;Node5 -->
<g id="edge35" class="edge">
<title>Node23&#45;&gt;Node5</title>
<path fill="none" stroke="#63b8ff" d="M719.32,-109.51C674.75,-99.15 602.37,-82.32 561.22,-72.76"/>
<polygon fill="#63b8ff" stroke="#63b8ff" points="562.26,-69.17 551.73,-70.32 560.68,-75.99 562.26,-69.17"/>
</g>
<!-- Node23&#45;&gt;Node15 -->
<g id="edge37" class="edge">
<title>Node23&#45;&gt;Node15</title>
<path fill="none" stroke="#63b8ff" d="M777.51,-109.51C795.71,-101.12 823.1,-88.5 843.89,-78.92"/>
<polygon fill="#63b8ff" stroke="#63b8ff" points="845.16,-81.72 852.78,-74.36 842.23,-75.36 845.16,-81.72"/>
</g>
<!-- Node23&#45;&gt;Node22 -->
<g id="edge36" class="edge">
<title>Node23&#45;&gt;Node22</title>
<path fill="none" stroke="#63b8ff" d="M747.48,-109.51C738.52,-101.85 725.43,-90.66 714.69,-81.47"/>
<polygon fill="#63b8ff" stroke="#63b8ff" points="717.24,-78.2 707.36,-74.36 712.69,-83.52 717.24,-78.2"/>
</g>
<!-- Node24&#45;&gt;Node15 -->
<g id="edge39" class="edge">
<title>Node24&#45;&gt;Node15</title>
<path fill="none" stroke="#63b8ff" d="M840.83,-282.99C873.4,-280.39 919.81,-270.85 943,-239 980.21,-187.9 920.39,-114.23 889.57,-81.83"/>
<polygon fill="#63b8ff" stroke="#63b8ff" points="892.58,-79.88 883.09,-75.18 887.57,-84.78 892.58,-79.88"/>
</g>
</g>
</svg>
