<?xml version="1.0" encoding="UTF-8" standalone="no"?>
<!DOCTYPE svg PUBLIC "-//W3C//DTD SVG 1.1//EN"
 "http://www.w3.org/Graphics/SVG/1.1/DTD/svg11.dtd">
<!-- Generated by graphviz version 8.0.5 (20230430.1635)
 -->
<!-- Title: tdms/include/vertex_phasors.h Pages: 1 -->
<svg width="1273pt" height="370pt"
 viewBox="0.00 0.00 1272.82 370.00" xmlns="http://www.w3.org/2000/svg" xmlns:xlink="http://www.w3.org/1999/xlink">
<g id="graph0" class="graph" transform="scale(1 1) rotate(0) translate(4 366)">
<title>tdms/include/vertex_phasors.h</title>
<!-- Node1 -->
<g id="node1" class="node">
<title>Node1</title>
<g id="a_node1"><a xlink:title="Contains a class that handles the complex amplitude extraction at the vertices.">
<polygon fill="#999999" stroke="#666666" points="314.57,-362 213.07,-362 213.07,-331.5 314.57,-331.5 314.57,-362"/>
<text text-anchor="start" x="221.07" y="-348.5" font-family="Helvetica,sans-Serif" font-size="10.00">tdms/include/vertex</text>
<text text-anchor="middle" x="263.82" y="-337.25" font-family="Helvetica,sans-Serif" font-size="10.00">_phasors.h</text>
</a>
</g>
</g>
<!-- Node2 -->
<g id="node2" class="node">
<title>Node2</title>
<g id="a_node2"><a xlink:title=" ">
<polygon fill="#e0e0e0" stroke="#999999" points="1234.19,-74.5 1181.44,-74.5 1181.44,-55.25 1234.19,-55.25 1234.19,-74.5"/>
<text text-anchor="middle" x="1207.82" y="-61" font-family="Helvetica,sans-Serif" font-size="10.00">complex</text>
</a>
</g>
</g>
<!-- Node1&#45;&gt;Node2 -->
<g id="edge1" class="edge">
<title>Node1&#45;&gt;Node2</title>
<path fill="none" stroke="#63b8ff" d="M314.83,-345.35C518.82,-343.1 1264.82,-328.26 1264.82,-231.62 1264.82,-231.62 1264.82,-231.62 1264.82,-174.38 1264.82,-138.76 1240.45,-103.34 1223.58,-83.08"/>
<polygon fill="#63b8ff" stroke="#63b8ff" points="1225.67,-81.15 1216.48,-75.89 1220.39,-85.74 1225.67,-81.15"/>
</g>
<!-- Node3 -->
<g id="node3" class="node">
<title>Node3</title>
<g id="a_node3"><a xlink:title=" ">
<polygon fill="#e0e0e0" stroke="#999999" points="271.94,-295.5 163.69,-295.5 163.69,-276.25 271.94,-276.25 271.94,-295.5"/>
<text text-anchor="middle" x="217.82" y="-282" font-family="Helvetica,sans-Serif" font-size="10.00">arrays/tdms_matrix.h</text>
</a>
</g>
</g>
<!-- Node1&#45;&gt;Node3 -->
<g id="edge2" class="edge">
<title>Node1&#45;&gt;Node3</title>
<path fill="none" stroke="#63b8ff" d="M252.45,-331.2C246.12,-323.09 238.19,-312.95 231.52,-304.41"/>
<polygon fill="#63b8ff" stroke="#63b8ff" points="233.82,-302.68 224.91,-296.95 228.31,-306.99 233.82,-302.68"/>
</g>
<!-- Node4 -->
<g id="node4" class="node">
<title>Node4</title>
<g id="a_node4"><a xlink:href="field_8h.html" target="_top" xlink:title="Classes for the electric and magnetic (split) fields on a grid.">
<polygon fill="white" stroke="#666666" points="331.94,-295.5 289.69,-295.5 289.69,-276.25 331.94,-276.25 331.94,-295.5"/>
<text text-anchor="middle" x="310.82" y="-282" font-family="Helvetica,sans-Serif" font-size="10.00">field.h</text>
</a>
</g>
</g>
<!-- Node1&#45;&gt;Node4 -->
<g id="edge3" class="edge">
<title>Node1&#45;&gt;Node4</title>
<path fill="none" stroke="#63b8ff" d="M275.44,-331.2C281.9,-323.09 290,-312.95 296.82,-304.41"/>
<polygon fill="#63b8ff" stroke="#63b8ff" points="300.07,-306.95 303.57,-296.95 294.6,-302.58 300.07,-306.95"/>
</g>
<!-- Node28 -->
<g id="node28" class="node">
<title>Node28</title>
<g id="a_node28"><a xlink:href="grid__labels_8h.html" target="_top" xlink:title="Class to hold the labels of a Yee cell.">
<polygon fill="white" stroke="#666666" points="88.19,-295.5 17.44,-295.5 17.44,-276.25 88.19,-276.25 88.19,-295.5"/>
<text text-anchor="middle" x="52.82" y="-282" font-family="Helvetica,sans-Serif" font-size="10.00">grid_labels.h</text>
</a>
</g>
</g>
<!-- Node1&#45;&gt;Node28 -->
<g id="edge48" class="edge">
<title>Node1&#45;&gt;Node28</title>
<path fill="none" stroke="#63b8ff" d="M212.74,-331.5C176.97,-321.52 129.71,-308.33 95.86,-298.88"/>
<polygon fill="#63b8ff" stroke="#63b8ff" points="96.94,-295.27 86.37,-295.96 95.06,-302.02 96.94,-295.27"/>
</g>
<!-- Node4&#45;&gt;Node2 -->
<g id="edge4" class="edge">
<title>Node4&#45;&gt;Node2</title>
<path fill="none" stroke="#63b8ff" d="M332.25,-284.42C401.42,-282.63 624.79,-274.4 805.82,-240.25 892.24,-223.95 911.91,-211.32 995.82,-185 1069.21,-161.98 1097.47,-174.79 1159.82,-129.75 1176.47,-117.72 1189.91,-98.24 1198.29,-83.95"/>
<polygon fill="#63b8ff" stroke="#63b8ff" points="1201.67,-86.08 1203.47,-75.64 1195.55,-82.68 1201.67,-86.08"/>
</g>
<!-- Node5 -->
<g id="node5" class="node">
<title>Node5</title>
<g id="a_node5"><a xlink:href="arrays_8h.html" target="_top" xlink:title="Classes describing arrays, vertices etc.">
<polygon fill="white" stroke="#666666" points="909.44,-185 858.19,-185 858.19,-165.75 909.44,-165.75 909.44,-185"/>
<text text-anchor="middle" x="883.82" y="-171.5" font-family="Helvetica,sans-Serif" font-size="10.00">arrays.h</text>
</a>
</g>
</g>
<!-- Node4&#45;&gt;Node5 -->
<g id="edge5" class="edge">
<title>Node4&#45;&gt;Node5</title>
<path fill="none" stroke="#63b8ff" d="M332.44,-284.69C388.47,-283.68 542.45,-277.44 663.82,-240.25 681.92,-234.7 684.06,-227.57 701.82,-221 750.97,-202.8 810.33,-189.83 847.59,-182.72"/>
<polygon fill="#63b8ff" stroke="#63b8ff" points="847.76,-186.06 856.95,-180.79 846.47,-179.18 847.76,-186.06"/>
</g>
<!-- Node13 -->
<g id="node13" class="node">
<title>Node13</title>
<g id="a_node13"><a xlink:title=" ">
<polygon fill="#e0e0e0" stroke="#999999" points="796.69,-240.25 710.94,-240.25 710.94,-221 796.69,-221 796.69,-240.25"/>
<text text-anchor="middle" x="753.82" y="-226.75" font-family="Helvetica,sans-Serif" font-size="10.00">arrays/eh_vec.h</text>
</a>
</g>
</g>
<!-- Node4&#45;&gt;Node13 -->
<g id="edge17" class="edge">
<title>Node4&#45;&gt;Node13</title>
<path fill="none" stroke="#63b8ff" d="M332.19,-282.67C390.65,-276.58 558.07,-258.76 696.82,-240.25 697.79,-240.12 698.78,-239.99 699.77,-239.85"/>
<polygon fill="#63b8ff" stroke="#63b8ff" points="700.17,-243.19 709.58,-238.33 699.19,-236.26 700.17,-243.19"/>
</g>
<!-- Node14 -->
<g id="node14" class="node">
<title>Node14</title>
<g id="a_node14"><a xlink:title=" ">
<polygon fill="#e0e0e0" stroke="#999999" points="114.69,-240.25 22.94,-240.25 22.94,-221 114.69,-221 114.69,-240.25"/>
<text text-anchor="middle" x="68.82" y="-226.75" font-family="Helvetica,sans-Serif" font-size="10.00">arrays/tensor3d.h</text>
</a>
</g>
</g>
<!-- Node4&#45;&gt;Node14 -->
<g id="edge18" class="edge">
<title>Node4&#45;&gt;Node14</title>
<path fill="none" stroke="#63b8ff" d="M289.24,-278.47C286.41,-277.69 283.55,-276.93 280.82,-276.25 228.6,-263.27 168.55,-250.86 125.72,-242.44"/>
<polygon fill="#63b8ff" stroke="#63b8ff" points="126.43,-238.82 115.94,-240.33 125.08,-245.69 126.43,-238.82"/>
</g>
<!-- Node15 -->
<g id="node15" class="node">
<title>Node15</title>
<g id="a_node15"><a xlink:href="cell__coordinate_8h.html" target="_top" xlink:title="Container for {ijk} or {IJK} grouped variables.">
<polygon fill="white" stroke="#666666" points="192.57,-185 103.07,-185 103.07,-165.75 192.57,-165.75 192.57,-185"/>
<text text-anchor="middle" x="147.82" y="-171.5" font-family="Helvetica,sans-Serif" font-size="10.00">cell_coordinate.h</text>
</a>
</g>
</g>
<!-- Node4&#45;&gt;Node15 -->
<g id="edge19" class="edge">
<title>Node4&#45;&gt;Node15</title>
<path fill="none" stroke="#63b8ff" d="M297.63,-275.94C279.32,-263.55 245.12,-240.46 215.82,-221 200.77,-211 183.78,-199.85 170.54,-191.2"/>
<polygon fill="#63b8ff" stroke="#63b8ff" points="172.94,-187.93 162.65,-185.39 169.11,-193.79 172.94,-187.93"/>
</g>
<!-- Node18 -->
<g id="node18" class="node">
<title>Node18</title>
<g id="a_node18"><a xlink:href="dimensions_8h.html" target="_top" xlink:title="Defines a class that serves as an explicit converter between MATLAB pointers and array dimensions.">
<polygon fill="white" stroke="#666666" points="206.69,-240.25 132.94,-240.25 132.94,-221 206.69,-221 206.69,-240.25"/>
<text text-anchor="middle" x="169.82" y="-226.75" font-family="Helvetica,sans-Serif" font-size="10.00">dimensions.h</text>
</a>
</g>
</g>
<!-- Node4&#45;&gt;Node18 -->
<g id="edge22" class="edge">
<title>Node4&#45;&gt;Node18</title>
<path fill="none" stroke="#63b8ff" d="M289.4,-276.79C266.69,-268.21 230.47,-254.53 203.84,-244.48"/>
<polygon fill="#63b8ff" stroke="#63b8ff" points="205.39,-240.94 194.8,-240.68 202.92,-247.49 205.39,-240.94"/>
</g>
<!-- Node19 -->
<g id="node19" class="node">
<title>Node19</title>
<g id="a_node19"><a xlink:href="mat__io_8h.html" target="_top" xlink:title="Includes MATLAB headers for I/O.">
<polygon fill="white" stroke="#666666" points="292.57,-74.5 239.07,-74.5 239.07,-55.25 292.57,-55.25 292.57,-74.5"/>
<text text-anchor="middle" x="265.82" y="-61" font-family="Helvetica,sans-Serif" font-size="10.00">mat_io.h</text>
</a>
</g>
</g>
<!-- Node4&#45;&gt;Node19 -->
<g id="edge34" class="edge">
<title>Node4&#45;&gt;Node19</title>
<path fill="none" stroke="#63b8ff" d="M309.68,-275.85C307.1,-255.9 300.36,-206.54 291.82,-165.75 285.92,-137.59 277.19,-105.46 271.5,-85.42"/>
<polygon fill="#63b8ff" stroke="#63b8ff" points="274.61,-84.54 268.48,-75.89 267.88,-86.47 274.61,-84.54"/>
</g>
<!-- Node23 -->
<g id="node23" class="node">
<title>Node23</title>
<g id="a_node23"><a xlink:href="input__flags_8h.html" target="_top" xlink:title="Organises enumerated constants, names, and classes for handling flag&#45;variables that are passed to TDM...">
<polygon fill="white" stroke="#666666" points="282.57,-185 211.07,-185 211.07,-165.75 282.57,-165.75 282.57,-185"/>
<text text-anchor="middle" x="246.82" y="-171.5" font-family="Helvetica,sans-Serif" font-size="10.00">input_flags.h</text>
</a>
</g>
</g>
<!-- Node4&#45;&gt;Node23 -->
<g id="edge27" class="edge">
<title>Node4&#45;&gt;Node23</title>
<path fill="none" stroke="#63b8ff" d="M305.58,-276C295.13,-258.27 271.48,-218.19 257.58,-194.63"/>
<polygon fill="#63b8ff" stroke="#63b8ff" points="260.22,-193.21 252.13,-186.38 254.19,-196.77 260.22,-193.21"/>
</g>
<!-- Node24 -->
<g id="node24" class="node">
<title>Node24</title>
<g id="a_node24"><a xlink:href="simulation__parameters_8h.html" target="_top" xlink:title="Classes collecting parameters for the simulation.">
<polygon fill="white" stroke="#666666" points="655.07,-240.25 532.57,-240.25 532.57,-221 655.07,-221 655.07,-240.25"/>
<text text-anchor="middle" x="593.82" y="-226.75" font-family="Helvetica,sans-Serif" font-size="10.00">simulation_parameters.h</text>
</a>
</g>
</g>
<!-- Node4&#45;&gt;Node24 -->
<g id="edge35" class="edge">
<title>Node4&#45;&gt;Node24</title>
<path fill="none" stroke="#63b8ff" d="M332.09,-280.87C374.68,-272.86 471.75,-254.59 534.96,-242.7"/>
<polygon fill="#63b8ff" stroke="#63b8ff" points="535.39,-245.99 544.57,-240.7 534.1,-239.11 535.39,-245.99"/>
</g>
<!-- Node5&#45;&gt;Node2 -->
<g id="edge6" class="edge">
<title>Node5&#45;&gt;Node2</title>
<path fill="none" stroke="#63b8ff" d="M909.76,-174.04C956.41,-172.53 1056.56,-165.04 1131.82,-129.75 1155.82,-118.49 1178.42,-97.71 1192.63,-82.9"/>
<polygon fill="#63b8ff" stroke="#63b8ff" points="1194.73,-85.7 1198.98,-76 1189.61,-80.94 1194.73,-85.7"/>
</g>
<!-- Node6 -->
<g id="node6" class="node">
<title>Node6</title>
<g id="a_node6"><a xlink:title=" ">
<polygon fill="#e0e0e0" stroke="#999999" points="447.19,-129.75 388.44,-129.75 388.44,-110.5 447.19,-110.5 447.19,-129.75"/>
<text text-anchor="middle" x="417.82" y="-116.25" font-family="Helvetica,sans-Serif" font-size="10.00">stdexcept</text>
</a>
</g>
</g>
<!-- Node5&#45;&gt;Node6 -->
<g id="edge7" class="edge">
<title>Node5&#45;&gt;Node6</title>
<path fill="none" stroke="#63b8ff" d="M858.11,-172.77C792.88,-168.47 615.51,-155.35 458.42,-130.01"/>
<polygon fill="#63b8ff" stroke="#63b8ff" points="459.06,-126.4 448.62,-128.24 457.93,-133.31 459.06,-126.4"/>
</g>
<!-- Node7 -->
<g id="node7" class="node">
<title>Node7</title>
<g id="a_node7"><a xlink:title=" ">
<polygon fill="#e0e0e0" stroke="#999999" points="912.82,-74.5 872.82,-74.5 872.82,-55.25 912.82,-55.25 912.82,-74.5"/>
<text text-anchor="middle" x="892.82" y="-61" font-family="Helvetica,sans-Serif" font-size="10.00">string</text>
</a>
</g>
</g>
<!-- Node5&#45;&gt;Node7 -->
<g id="edge8" class="edge">
<title>Node5&#45;&gt;Node7</title>
<path fill="none" stroke="#63b8ff" d="M909.76,-174.31C941.66,-172.66 994.67,-164.47 1019.82,-129.75 1046.38,-93.08 969.65,-76.17 924.03,-69.52"/>
<polygon fill="#63b8ff" stroke="#63b8ff" points="924.57,-65.93 914.19,-68.05 923.63,-72.86 924.57,-65.93"/>
</g>
<!-- Node8 -->
<g id="node8" class="node">
<title>Node8</title>
<g id="a_node8"><a xlink:title=" ">
<polygon fill="#e0e0e0" stroke="#999999" points="573.32,-74.5 530.32,-74.5 530.32,-55.25 573.32,-55.25 573.32,-74.5"/>
<text text-anchor="middle" x="551.82" y="-61" font-family="Helvetica,sans-Serif" font-size="10.00">vector</text>
</a>
</g>
</g>
<!-- Node5&#45;&gt;Node8 -->
<g id="edge9" class="edge">
<title>Node5&#45;&gt;Node8</title>
<path fill="none" stroke="#63b8ff" d="M858.1,-172.36C798.46,-167.33 652.6,-152.98 609.82,-129.75 589.73,-118.84 572.99,-98.25 562.73,-83.39"/>
<polygon fill="#63b8ff" stroke="#63b8ff" points="565.38,-82.04 556.96,-75.61 559.53,-85.89 565.38,-82.04"/>
</g>
<!-- Node9 -->
<g id="node9" class="node">
<title>Node9</title>
<g id="a_node9"><a xlink:title=" ">
<polygon fill="#e0e0e0" stroke="#999999" points="870.82,-129.75 824.82,-129.75 824.82,-110.5 870.82,-110.5 870.82,-129.75"/>
<text text-anchor="middle" x="847.82" y="-116.25" font-family="Helvetica,sans-Serif" font-size="10.00">fftw3.h</text>
</a>
</g>
</g>
<!-- Node5&#45;&gt;Node9 -->
<g id="edge10" class="edge">
<title>Node5&#45;&gt;Node9</title>
<path fill="none" stroke="#63b8ff" d="M877.87,-165.58C873,-158.38 865.96,-147.96 859.91,-139.01"/>
<polygon fill="#63b8ff" stroke="#63b8ff" points="862.39,-137.43 853.89,-131.11 856.59,-141.35 862.39,-137.43"/>
</g>
<!-- Node10 -->
<g id="node10" class="node">
<title>Node10</title>
<g id="a_node10"><a xlink:href="globals_8h.html" target="_top" xlink:title="Type definitions and global constants.">
<polygon fill="white" stroke="#666666" points="1122.32,-129.75 1067.32,-129.75 1067.32,-110.5 1122.32,-110.5 1122.32,-129.75"/>
<text text-anchor="middle" x="1094.82" y="-116.25" font-family="Helvetica,sans-Serif" font-size="10.00">globals.h</text>
</a>
</g>
</g>
<!-- Node5&#45;&gt;Node10 -->
<g id="edge11" class="edge">
<title>Node5&#45;&gt;Node10</title>
<path fill="none" stroke="#63b8ff" d="M909.69,-167.85C946.44,-158.57 1014,-141.52 1056.55,-130.78"/>
<polygon fill="#63b8ff" stroke="#63b8ff" points="1057.22,-133.97 1066.06,-128.13 1055.5,-127.18 1057.22,-133.97"/>
</g>
<!-- Node11 -->
<g id="node11" class="node">
<title>Node11</title>
<g id="a_node11"><a xlink:title=" ">
<polygon fill="#e0e0e0" stroke="#999999" points="950.32,-129.75 889.32,-129.75 889.32,-110.5 950.32,-110.5 950.32,-129.75"/>
<text text-anchor="middle" x="919.82" y="-116.25" font-family="Helvetica,sans-Serif" font-size="10.00">matlabio.h</text>
</a>
</g>
</g>
<!-- Node5&#45;&gt;Node11 -->
<g id="edge14" class="edge">
<title>Node5&#45;&gt;Node11</title>
<path fill="none" stroke="#63b8ff" d="M889.76,-165.58C894.63,-158.38 901.68,-147.96 907.73,-139.01"/>
<polygon fill="#63b8ff" stroke="#63b8ff" points="911.04,-141.35 913.74,-131.11 905.24,-137.43 911.04,-141.35"/>
</g>
<!-- Node12 -->
<g id="node12" class="node">
<title>Node12</title>
<g id="a_node12"><a xlink:href="utils_8h.html" target="_top" xlink:title="Useful miscellaneous utility functions.">
<polygon fill="white" stroke="#666666" points="1010.94,-129.75 968.69,-129.75 968.69,-110.5 1010.94,-110.5 1010.94,-129.75"/>
<text text-anchor="middle" x="989.82" y="-116.25" font-family="Helvetica,sans-Serif" font-size="10.00">utils.h</text>
</a>
</g>
</g>
<!-- Node5&#45;&gt;Node12 -->
<g id="edge15" class="edge">
<title>Node5&#45;&gt;Node12</title>
<path fill="none" stroke="#63b8ff" d="M901.8,-165.34C918.32,-157.04 943.06,-144.61 962.11,-135.04"/>
<polygon fill="#63b8ff" stroke="#63b8ff" points="963.38,-137.82 970.75,-130.2 960.24,-131.56 963.38,-137.82"/>
</g>
<!-- Node10&#45;&gt;Node2 -->
<g id="edge12" class="edge">
<title>Node10&#45;&gt;Node2</title>
<path fill="none" stroke="#63b8ff" d="M1113.99,-110.09C1131.76,-101.72 1158.46,-89.13 1178.84,-79.53"/>
<polygon fill="#63b8ff" stroke="#63b8ff" points="1180,-82.38 1187.56,-74.95 1177.02,-76.05 1180,-82.38"/>
</g>
<!-- Node10&#45;&gt;Node7 -->
<g id="edge13" class="edge">
<title>Node10&#45;&gt;Node7</title>
<path fill="none" stroke="#63b8ff" d="M1067.15,-111.83C1029.6,-101.93 962.71,-84.3 923.61,-73.99"/>
<polygon fill="#63b8ff" stroke="#63b8ff" points="924.69,-70.39 914.13,-71.23 922.91,-77.16 924.69,-70.39"/>
</g>
<!-- Node12&#45;&gt;Node7 -->
<g id="edge16" class="edge">
<title>Node12&#45;&gt;Node7</title>
<path fill="none" stroke="#63b8ff" d="M973.36,-110.09C958.45,-101.91 936.23,-89.71 918.9,-80.19"/>
<polygon fill="#63b8ff" stroke="#63b8ff" points="920.8,-76.7 910.35,-74.95 917.44,-82.83 920.8,-76.7"/>
</g>
<!-- Node16 -->
<g id="node16" class="node">
<title>Node16</title>
<g id="a_node16"><a xlink:title=" ">
<polygon fill="#e0e0e0" stroke="#999999" points="218.94,-129.75 134.69,-129.75 134.69,-110.5 218.94,-110.5 218.94,-129.75"/>
<text text-anchor="middle" x="176.82" y="-116.25" font-family="Helvetica,sans-Serif" font-size="10.00">spdlog/spdlog.h</text>
</a>
</g>
</g>
<!-- Node15&#45;&gt;Node16 -->
<g id="edge20" class="edge">
<title>Node15&#45;&gt;Node16</title>
<path fill="none" stroke="#63b8ff" d="M152.61,-165.58C156.45,-158.53 161.97,-148.4 166.77,-139.58"/>
<polygon fill="#63b8ff" stroke="#63b8ff" points="170.22,-141.57 171.93,-131.11 164.07,-138.22 170.22,-141.57"/>
</g>
<!-- Node17 -->
<g id="node17" class="node">
<title>Node17</title>
<g id="a_node17"><a xlink:title=" ">
<polygon fill="#e0e0e0" stroke="#999999" points="116.69,-129.75 60.94,-129.75 60.94,-110.5 116.69,-110.5 116.69,-129.75"/>
<text text-anchor="middle" x="88.82" y="-116.25" font-family="Helvetica,sans-Serif" font-size="10.00">algorithm</text>
</a>
</g>
</g>
<!-- Node15&#45;&gt;Node17 -->
<g id="edge21" class="edge">
<title>Node15&#45;&gt;Node17</title>
<path fill="none" stroke="#63b8ff" d="M137.81,-165.34C129.28,-157.65 116.82,-146.4 106.6,-137.18"/>
<polygon fill="#63b8ff" stroke="#63b8ff" points="109.45,-135.13 99.68,-131.02 104.76,-140.32 109.45,-135.13"/>
</g>
<!-- Node18&#45;&gt;Node19 -->
<g id="edge23" class="edge">
<title>Node18&#45;&gt;Node19</title>
<path fill="none" stroke="#63b8ff" d="M147.81,-220.5C104.57,-201.32 15.73,-154.88 51.82,-110.5 73.6,-83.71 172.54,-72.46 227.94,-68.19"/>
<polygon fill="#63b8ff" stroke="#63b8ff" points="228.01,-71.62 237.73,-67.41 227.5,-64.64 228.01,-71.62"/>
</g>
<!-- Node20 -->
<g id="node20" class="node">
<title>Node20</title>
<g id="a_node20"><a xlink:title=" ">
<polygon fill="#e0e0e0" stroke="#999999" points="222.19,-19.25 181.44,-19.25 181.44,0 222.19,0 222.19,-19.25"/>
<text text-anchor="middle" x="201.82" y="-5.75" font-family="Helvetica,sans-Serif" font-size="10.00">mat.h</text>
</a>
</g>
</g>
<!-- Node19&#45;&gt;Node20 -->
<g id="edge24" class="edge">
<title>Node19&#45;&gt;Node20</title>
<path fill="none" stroke="#63b8ff" d="M254.96,-54.84C245.62,-47.07 231.92,-35.67 220.78,-26.4"/>
<polygon fill="#63b8ff" stroke="#63b8ff" points="223.44,-23.23 213.51,-19.52 218.96,-28.61 223.44,-23.23"/>
</g>
<!-- Node21 -->
<g id="node21" class="node">
<title>Node21</title>
<g id="a_node21"><a xlink:title=" ">
<polygon fill="#e0e0e0" stroke="#999999" points="291.44,-19.25 240.19,-19.25 240.19,0 291.44,0 291.44,-19.25"/>
<text text-anchor="middle" x="265.82" y="-5.75" font-family="Helvetica,sans-Serif" font-size="10.00">matrix.h</text>
</a>
</g>
</g>
<!-- Node19&#45;&gt;Node21 -->
<g id="edge25" class="edge">
<title>Node19&#45;&gt;Node21</title>
<path fill="none" stroke="#63b8ff" d="M265.82,-55.08C265.82,-48.42 265.82,-38.99 265.82,-30.53"/>
<polygon fill="#63b8ff" stroke="#63b8ff" points="269.32,-30.61 265.82,-20.61 262.32,-30.61 269.32,-30.61"/>
</g>
<!-- Node22 -->
<g id="node22" class="node">
<title>Node22</title>
<g id="a_node22"><a xlink:title=" ">
<polygon fill="#e0e0e0" stroke="#999999" points="352.32,-19.25 309.32,-19.25 309.32,0 352.32,0 352.32,-19.25"/>
<text text-anchor="middle" x="330.82" y="-5.75" font-family="Helvetica,sans-Serif" font-size="10.00">mex.h</text>
</a>
</g>
</g>
<!-- Node19&#45;&gt;Node22 -->
<g id="edge26" class="edge">
<title>Node19&#45;&gt;Node22</title>
<path fill="none" stroke="#63b8ff" d="M276.84,-54.84C286.33,-47.07 300.24,-35.67 311.56,-26.4"/>
<polygon fill="#63b8ff" stroke="#63b8ff" points="313.44,-28.57 318.95,-19.52 309,-23.15 313.44,-28.57"/>
</g>
<!-- Node23&#45;&gt;Node6 -->
<g id="edge29" class="edge">
<title>Node23&#45;&gt;Node6</title>
<path fill="none" stroke="#63b8ff" d="M275.83,-165.34C304.08,-156.54 347.22,-143.11 378.54,-133.36"/>
<polygon fill="#63b8ff" stroke="#63b8ff" points="379.16,-136.52 387.67,-130.2 377.08,-129.83 379.16,-136.52"/>
</g>
<!-- Node23&#45;&gt;Node7 -->
<g id="edge30" class="edge">
<title>Node23&#45;&gt;Node7</title>
<path fill="none" stroke="#63b8ff" d="M282.98,-173.14C381.78,-169.44 654.58,-156.98 739.82,-129.75 755.99,-124.58 757.47,-117.76 772.82,-110.5 802.39,-96.5 837.64,-83.85 862.25,-75.62"/>
<polygon fill="#63b8ff" stroke="#63b8ff" points="863.02,-78.72 871.42,-72.27 860.83,-72.07 863.02,-78.72"/>
</g>
<!-- Node23&#45;&gt;Node8 -->
<g id="edge31" class="edge">
<title>Node23&#45;&gt;Node8</title>
<path fill="none" stroke="#63b8ff" d="M262.76,-165.46C287.29,-152.05 336.04,-126.52 379.82,-110.5 427.27,-93.14 484.4,-79.73 519.41,-72.32"/>
<polygon fill="#63b8ff" stroke="#63b8ff" points="519.88,-75.59 528.96,-70.12 518.45,-68.73 519.88,-75.59"/>
</g>
<!-- Node23&#45;&gt;Node16 -->
<g id="edge32" class="edge">
<title>Node23&#45;&gt;Node16</title>
<path fill="none" stroke="#63b8ff" d="M234.94,-165.34C224.62,-157.49 209.45,-145.95 197.19,-136.62"/>
<polygon fill="#63b8ff" stroke="#63b8ff" points="199.6,-133.29 189.52,-130.02 195.36,-138.86 199.6,-133.29"/>
</g>
<!-- Node23&#45;&gt;Node17 -->
<g id="edge28" class="edge">
<title>Node23&#45;&gt;Node17</title>
<path fill="none" stroke="#63b8ff" d="M220.02,-165.34C194.14,-156.62 154.74,-143.34 125.87,-133.61"/>
<polygon fill="#63b8ff" stroke="#63b8ff" points="127.35,-130.08 116.75,-130.2 125.11,-136.71 127.35,-130.08"/>
</g>
<!-- Node23&#45;&gt;Node19 -->
<g id="edge33" class="edge">
<title>Node23&#45;&gt;Node19</title>
<path fill="none" stroke="#63b8ff" d="M248.37,-165.5C251.42,-148.09 258.24,-109.12 262.4,-85.41"/>
<polygon fill="#63b8ff" stroke="#63b8ff" points="265.96,-86.33 264.24,-75.88 259.07,-85.12 265.96,-86.33"/>
</g>
<!-- Node24&#45;&gt;Node5 -->
<g id="edge37" class="edge">
<title>Node24&#45;&gt;Node5</title>
<path fill="none" stroke="#63b8ff" d="M643.34,-220.53C701.22,-209.9 795.62,-192.57 847.25,-183.09"/>
<polygon fill="#63b8ff" stroke="#63b8ff" points="847.69,-186.38 856.89,-181.14 846.42,-179.5 847.69,-186.38"/>
</g>
<!-- Node24&#45;&gt;Node7 -->
<g id="edge36" class="edge">
<title>Node24&#45;&gt;Node7</title>
<path fill="none" stroke="#63b8ff" d="M655.36,-222.8C790.34,-207.19 1102.73,-167.34 1131.82,-129.75 1137.05,-122.98 1137.28,-117.08 1131.82,-110.5 1105.71,-79.07 982.41,-69.66 923.85,-66.93"/>
<polygon fill="#63b8ff" stroke="#63b8ff" points="924.19,-63.4 914.05,-66.47 923.89,-70.4 924.19,-63.4"/>
</g>
<!-- Node25 -->
<g id="node25" class="node">
<title>Node25</title>
<g id="a_node25"><a xlink:href="input__matrices_8h.html" target="_top" xlink:title="Class handling the input matrices that are read in from the input file.">
<polygon fill="white" stroke="#666666" points="637.82,-185 549.82,-185 549.82,-165.75 637.82,-165.75 637.82,-185"/>
<text text-anchor="middle" x="593.82" y="-171.5" font-family="Helvetica,sans-Serif" font-size="10.00">input_matrices.h</text>
</a>
</g>
</g>
<!-- Node24&#45;&gt;Node25 -->
<g id="edge38" class="edge">
<title>Node24&#45;&gt;Node25</title>
<path fill="none" stroke="#63b8ff" d="M593.82,-220.83C593.82,-214.17 593.82,-204.74 593.82,-196.28"/>
<polygon fill="#63b8ff" stroke="#63b8ff" points="597.32,-196.36 593.82,-186.36 590.32,-196.36 597.32,-196.36"/>
</g>
<!-- Node25&#45;&gt;Node7 -->
<g id="edge39" class="edge">
<title>Node25&#45;&gt;Node7</title>
<path fill="none" stroke="#63b8ff" d="M638.14,-166.47C674.94,-159.17 728.27,-146.86 772.82,-129.75 807.9,-116.27 845.77,-94.85 869.39,-80.57"/>
<polygon fill="#63b8ff" stroke="#63b8ff" points="870.89,-83.15 877.59,-74.94 867.23,-77.18 870.89,-83.15"/>
</g>
<!-- Node25&#45;&gt;Node19 -->
<g id="edge43" class="edge">
<title>Node25&#45;&gt;Node19</title>
<path fill="none" stroke="#63b8ff" d="M549.69,-169.18C505.63,-163.07 436.51,-150.97 379.82,-129.75 345.95,-117.07 310.06,-95.42 287.79,-80.88"/>
<polygon fill="#63b8ff" stroke="#63b8ff" points="290.12,-77.56 279.86,-74.94 286.25,-83.39 290.12,-77.56"/>
</g>
<!-- Node26 -->
<g id="node26" class="node">
<title>Node26</title>
<g id="a_node26"><a xlink:href="input__output__names_8h.html" target="_top" xlink:title="Constant values associated with the format of the input and output files and matrices.">
<polygon fill="white" stroke="#666666" points="730.82,-129.75 618.82,-129.75 618.82,-110.5 730.82,-110.5 730.82,-129.75"/>
<text text-anchor="middle" x="674.82" y="-116.25" font-family="Helvetica,sans-Serif" font-size="10.00">input_output_names.h</text>
</a>
</g>
</g>
<!-- Node25&#45;&gt;Node26 -->
<g id="edge40" class="edge">
<title>Node25&#45;&gt;Node26</title>
<path fill="none" stroke="#63b8ff" d="M607.56,-165.34C619.78,-157.31 637.88,-145.41 652.22,-135.98"/>
<polygon fill="#63b8ff" stroke="#63b8ff" points="653.58,-138.62 660.01,-130.2 649.73,-132.77 653.58,-138.62"/>
</g>
<!-- Node27 -->
<g id="node27" class="node">
<title>Node27</title>
<g id="a_node27"><a xlink:href="matrix__collection_8h.html" target="_top" xlink:title="A collection of named MATLAB matrices.">
<polygon fill="white" stroke="#666666" points="562.69,-129.75 464.94,-129.75 464.94,-110.5 562.69,-110.5 562.69,-129.75"/>
<text text-anchor="middle" x="513.82" y="-116.25" font-family="Helvetica,sans-Serif" font-size="10.00">matrix_collection.h</text>
</a>
</g>
</g>
<!-- Node25&#45;&gt;Node27 -->
<g id="edge44" class="edge">
<title>Node25&#45;&gt;Node27</title>
<path fill="none" stroke="#63b8ff" d="M580.25,-165.34C568.29,-157.39 550.64,-145.64 536.54,-136.25"/>
<polygon fill="#63b8ff" stroke="#63b8ff" points="538.72,-132.83 528.46,-130.2 534.84,-138.66 538.72,-132.83"/>
</g>
<!-- Node26&#45;&gt;Node7 -->
<g id="edge41" class="edge">
<title>Node26&#45;&gt;Node7</title>
<path fill="none" stroke="#63b8ff" d="M711.8,-110.09C754.01,-99.78 822.32,-83.1 861.84,-73.44"/>
<polygon fill="#63b8ff" stroke="#63b8ff" points="862.54,-76.63 871.42,-70.86 860.88,-69.83 862.54,-76.63"/>
</g>
<!-- Node26&#45;&gt;Node8 -->
<g id="edge42" class="edge">
<title>Node26&#45;&gt;Node8</title>
<path fill="none" stroke="#63b8ff" d="M653.95,-110.09C634.43,-101.64 605.01,-88.9 582.75,-79.27"/>
<polygon fill="#63b8ff" stroke="#63b8ff" points="584.35,-75.71 573.79,-74.95 581.57,-82.14 584.35,-75.71"/>
</g>
<!-- Node27&#45;&gt;Node7 -->
<g id="edge45" class="edge">
<title>Node27&#45;&gt;Node7</title>
<path fill="none" stroke="#63b8ff" d="M562.98,-112.22C642.15,-101.09 795.66,-79.53 861.55,-70.27"/>
<polygon fill="#63b8ff" stroke="#63b8ff" points="862.01,-73.6 871.43,-68.74 861.04,-66.66 862.01,-73.6"/>
</g>
<!-- Node27&#45;&gt;Node8 -->
<g id="edge46" class="edge">
<title>Node27&#45;&gt;Node8</title>
<path fill="none" stroke="#63b8ff" d="M520.09,-110.33C525.23,-103.13 532.67,-92.71 539.05,-83.76"/>
<polygon fill="#63b8ff" stroke="#63b8ff" points="542.45,-86.03 545.41,-75.86 536.75,-81.97 542.45,-86.03"/>
</g>
<!-- Node27&#45;&gt;Node19 -->
<g id="edge47" class="edge">
<title>Node27&#45;&gt;Node19</title>
<path fill="none" stroke="#63b8ff" d="M471.47,-110.03C424.31,-99.91 348.78,-83.69 303.57,-73.98"/>
<polygon fill="#63b8ff" stroke="#63b8ff" points="304.55,-70.4 294.04,-71.72 303.08,-77.24 304.55,-70.4"/>
</g>
<!-- Node28&#45;&gt;Node19 -->
<g id="edge49" class="edge">
<title>Node28&#45;&gt;Node19</title>
<path fill="none" stroke="#63b8ff" d="M41.46,-276.01C32.03,-267.88 19.31,-254.89 13.82,-240.25 -1.54,-199.35 -14.1,-162.51 39.82,-110.5 66.2,-85.06 170.65,-73.17 227.86,-68.47"/>
<polygon fill="#63b8ff" stroke="#63b8ff" points="227.94,-71.9 237.63,-67.63 227.39,-64.92 227.94,-71.9"/>
</g>
</g>
</svg>
