<?xml version="1.0" encoding="UTF-8" standalone="no"?>
<!DOCTYPE svg PUBLIC "-//W3C//DTD SVG 1.1//EN"
 "http://www.w3.org/Graphics/SVG/1.1/DTD/svg11.dtd">
<!-- Generated by graphviz version 9.0.0 (20230911.1827)
 -->
<!-- Title: tdms/include/vertex_phasors.h Pages: 1 -->
<svg width="1374pt" height="370pt"
 viewBox="0.00 0.00 1373.88 370.00" xmlns="http://www.w3.org/2000/svg" xmlns:xlink="http://www.w3.org/1999/xlink">
<g id="graph0" class="graph" transform="scale(1 1) rotate(0) translate(4 366)">
<title>tdms/include/vertex_phasors.h</title>
<!-- Node1 -->
<g id="Node000001" class="node">
<title>Node1</title>
<g id="a_Node000001"><a xlink:title="Contains a class that handles the complex amplitude extraction at the vertices.">
<polygon fill="#999999" stroke="#666666" points="1062.5,-362 961,-362 961,-331.5 1062.5,-331.5 1062.5,-362"/>
<text text-anchor="start" x="969" y="-348.5" font-family="Helvetica,sans-Serif" font-size="10.00">tdms/include/vertex</text>
<text text-anchor="middle" x="1011.75" y="-337.25" font-family="Helvetica,sans-Serif" font-size="10.00">_phasors.h</text>
</a>
</g>
</g>
<!-- Node2 -->
<g id="Node000002" class="node">
<title>Node2</title>
<g id="a_Node000002"><a xlink:title=" ">
<polygon fill="#e0e0e0" stroke="#999999" points="182.12,-74.5 129.38,-74.5 129.38,-55.25 182.12,-55.25 182.12,-74.5"/>
<text text-anchor="middle" x="155.75" y="-61" font-family="Helvetica,sans-Serif" font-size="10.00">complex</text>
</a>
</g>
</g>
<!-- Node1&#45;&gt;Node2 -->
<g id="edge1_Node000001_Node000002" class="edge">
<title>Node1&#45;&gt;Node2</title>
<g id="a_edge1_Node000001_Node000002"><a xlink:title=" ">
<path fill="none" stroke="#63b8ff" d="M960.8,-344.65C771.26,-339.88 117.75,-317.24 117.75,-231.62 117.75,-231.62 117.75,-231.62 117.75,-174.38 117.75,-141.38 133.59,-105.76 144.82,-84.66"/>
<polygon fill="#63b8ff" stroke="#63b8ff" points="147.77,-86.55 149.57,-76.11 141.65,-83.15 147.77,-86.55"/>
</a>
</g>
</g>
<!-- Node3 -->
<g id="Node000003" class="node">
<title>Node3</title>
<g id="a_Node000003"><a xlink:title=" ">
<polygon fill="#e0e0e0" stroke="#999999" points="1365.88,-295.5 1257.62,-295.5 1257.62,-276.25 1365.88,-276.25 1365.88,-295.5"/>
<text text-anchor="middle" x="1311.75" y="-282" font-family="Helvetica,sans-Serif" font-size="10.00">arrays/tdms_matrix.h</text>
</a>
</g>
</g>
<!-- Node1&#45;&gt;Node3 -->
<g id="edge2_Node000001_Node000003" class="edge">
<title>Node1&#45;&gt;Node3</title>
<g id="a_edge2_Node000001_Node000003"><a xlink:title=" ">
<path fill="none" stroke="#63b8ff" d="M1062.98,-335.7C1116.21,-325.25 1199.32,-308.94 1254.63,-298.08"/>
<polygon fill="#63b8ff" stroke="#63b8ff" points="1255.03,-301.57 1264.17,-296.21 1253.68,-294.7 1255.03,-301.57"/>
</a>
</g>
</g>
<!-- Node4 -->
<g id="Node000004" class="node">
<title>Node4</title>
<g id="a_Node000004"><a xlink:title=" ">
<polygon fill="#e0e0e0" stroke="#999999" points="1045.75,-185 921.75,-185 921.75,-165.75 1045.75,-165.75 1045.75,-185"/>
<text text-anchor="middle" x="983.75" y="-171.5" font-family="Helvetica,sans-Serif" font-size="10.00">arrays/vector_typedefs.h</text>
</a>
</g>
</g>
<!-- Node1&#45;&gt;Node4 -->
<g id="edge3_Node000001_Node000004" class="edge">
<title>Node1&#45;&gt;Node4</title>
<g id="a_edge3_Node000001_Node000004"><a xlink:title=" ">
<path fill="none" stroke="#63b8ff" d="M1022.26,-331.2C1038.21,-307.18 1064.79,-258.16 1045.75,-221 1039.14,-208.09 1026.86,-198.07 1014.96,-190.82"/>
<polygon fill="#63b8ff" stroke="#63b8ff" points="1016.95,-187.92 1006.51,-186.12 1013.55,-194.04 1016.95,-187.92"/>
</a>
</g>
</g>
<!-- Node5 -->
<g id="Node000005" class="node">
<title>Node5</title>
<g id="a_Node000005"><a xlink:href="field_8h.html" target="_top" xlink:title="Classes for the electric and magnetic (split) fields on a grid.">
<polygon fill="white" stroke="#666666" points="843.88,-295.5 801.62,-295.5 801.62,-276.25 843.88,-276.25 843.88,-295.5"/>
<text text-anchor="middle" x="822.75" y="-282" font-family="Helvetica,sans-Serif" font-size="10.00">field.h</text>
</a>
</g>
</g>
<!-- Node1&#45;&gt;Node5 -->
<g id="edge4_Node000001_Node000005" class="edge">
<title>Node1&#45;&gt;Node5</title>
<g id="a_edge4_Node000001_Node000005"><a xlink:title=" ">
<path fill="none" stroke="#63b8ff" d="M964.54,-331.05C930.42,-320.41 885.2,-306.33 855.1,-296.95"/>
<polygon fill="#63b8ff" stroke="#63b8ff" points="856.4,-293.69 845.81,-294.06 854.31,-300.37 856.4,-293.69"/>
</a>
</g>
</g>
<!-- Node13 -->
<g id="Node000013" class="node">
<title>Node13</title>
<g id="a_Node000013"><a xlink:href="utils_8h.html" target="_top" xlink:title="Useful miscellaneous utility functions.">
<polygon fill="white" stroke="#666666" points="263.88,-129.75 221.62,-129.75 221.62,-110.5 263.88,-110.5 263.88,-129.75"/>
<text text-anchor="middle" x="242.75" y="-116.25" font-family="Helvetica,sans-Serif" font-size="10.00">utils.h</text>
</a>
</g>
</g>
<!-- Node1&#45;&gt;Node13 -->
<g id="edge55_Node000001_Node000013" class="edge">
<title>Node1&#45;&gt;Node13</title>
<g id="a_edge55_Node000001_Node000013"><a xlink:title=" ">
<path fill="none" stroke="#63b8ff" d="M960.81,-334.28C916.4,-324.22 850.26,-309.13 792.75,-295.5 692.13,-271.66 665.65,-270.42 566.75,-240.25 457.92,-207.06 332.32,-157.58 274.68,-134.23"/>
<polygon fill="#63b8ff" stroke="#63b8ff" points="276.06,-131.01 265.48,-130.49 273.42,-137.5 276.06,-131.01"/>
</a>
</g>
</g>
<!-- Node30 -->
<g id="Node000030" class="node">
<title>Node30</title>
<g id="a_Node000030"><a xlink:href="grid__labels_8h.html" target="_top" xlink:title="Class to hold the labels of a Yee cell.">
<polygon fill="white" stroke="#666666" points="1239.12,-295.5 1168.38,-295.5 1168.38,-276.25 1239.12,-276.25 1239.12,-295.5"/>
<text text-anchor="middle" x="1203.75" y="-282" font-family="Helvetica,sans-Serif" font-size="10.00">grid_labels.h</text>
</a>
</g>
</g>
<!-- Node1&#45;&gt;Node30 -->
<g id="edge53_Node000001_Node000030" class="edge">
<title>Node1&#45;&gt;Node30</title>
<g id="a_edge53_Node000001_Node000030"><a xlink:title=" ">
<path fill="none" stroke="#63b8ff" d="M1059.7,-331.05C1091.52,-321.29 1132.81,-308.63 1163.03,-299.36"/>
<polygon fill="#63b8ff" stroke="#63b8ff" points="1164.04,-302.71 1172.58,-296.43 1161.99,-296.02 1164.04,-302.71"/>
</a>
</g>
</g>
<!-- Node5&#45;&gt;Node2 -->
<g id="edge5_Node000005_Node000002" class="edge">
<title>Node5&#45;&gt;Node2</title>
<g id="a_edge5_Node000005_Node000002"><a xlink:title=" ">
<path fill="none" stroke="#63b8ff" d="M801.35,-281.96C757.19,-275.75 652.9,-260.19 566.75,-240.25 394.98,-200.5 319.8,-244.27 185.75,-129.75 172.49,-118.42 164.7,-99.95 160.4,-85.78"/>
<polygon fill="#63b8ff" stroke="#63b8ff" points="163.8,-84.95 157.86,-76.18 157.04,-86.74 163.8,-84.95"/>
</a>
</g>
</g>
<!-- Node6 -->
<g id="Node000006" class="node">
<title>Node6</title>
<g id="a_Node000006"><a xlink:href="arrays_8h.html" target="_top" xlink:title="Classes describing arrays, vertices etc.">
<polygon fill="white" stroke="#666666" points="535.38,-185 484.12,-185 484.12,-165.75 535.38,-165.75 535.38,-185"/>
<text text-anchor="middle" x="509.75" y="-171.5" font-family="Helvetica,sans-Serif" font-size="10.00">arrays.h</text>
</a>
</g>
</g>
<!-- Node5&#45;&gt;Node6 -->
<g id="edge6_Node000005_Node000006" class="edge">
<title>Node5&#45;&gt;Node6</title>
<g id="a_edge6_Node000005_Node000006"><a xlink:title=" ">
<path fill="none" stroke="#63b8ff" d="M801.4,-277.67C775.45,-268.9 730.35,-253.6 691.75,-240.25 641.13,-222.75 582.71,-202.18 546.01,-189.21"/>
<polygon fill="#63b8ff" stroke="#63b8ff" points="547.37,-185.98 536.77,-185.95 545.03,-192.58 547.37,-185.98"/>
</a>
</g>
</g>
<!-- Node16 -->
<g id="Node000016" class="node">
<title>Node16</title>
<g id="a_Node000016"><a xlink:title=" ">
<polygon fill="#e0e0e0" stroke="#999999" points="926.62,-240.25 840.88,-240.25 840.88,-221 926.62,-221 926.62,-240.25"/>
<text text-anchor="middle" x="883.75" y="-226.75" font-family="Helvetica,sans-Serif" font-size="10.00">arrays/eh_vec.h</text>
</a>
</g>
</g>
<!-- Node5&#45;&gt;Node16 -->
<g id="edge21_Node000005_Node000016" class="edge">
<title>Node5&#45;&gt;Node16</title>
<g id="a_edge21_Node000005_Node000016"><a xlink:title=" ">
<path fill="none" stroke="#63b8ff" d="M833.1,-275.84C841.83,-268.22 854.54,-257.12 865.05,-247.95"/>
<polygon fill="#63b8ff" stroke="#63b8ff" points="867.18,-250.73 872.41,-241.52 862.58,-245.46 867.18,-250.73"/>
</a>
</g>
</g>
<!-- Node17 -->
<g id="Node000017" class="node">
<title>Node17</title>
<g id="a_Node000017"><a xlink:title=" ">
<polygon fill="#e0e0e0" stroke="#999999" points="1036.62,-240.25 944.88,-240.25 944.88,-221 1036.62,-221 1036.62,-240.25"/>
<text text-anchor="middle" x="990.75" y="-226.75" font-family="Helvetica,sans-Serif" font-size="10.00">arrays/tensor3d.h</text>
</a>
</g>
</g>
<!-- Node5&#45;&gt;Node17 -->
<g id="edge22_Node000005_Node000017" class="edge">
<title>Node5&#45;&gt;Node17</title>
<g id="a_edge22_Node000005_Node000017"><a xlink:title=" ">
<path fill="none" stroke="#63b8ff" d="M844.37,-278.02C871.36,-269.47 918.04,-254.67 951.43,-244.09"/>
<polygon fill="#63b8ff" stroke="#63b8ff" points="952.28,-247.49 960.75,-241.13 950.16,-240.82 952.28,-247.49"/>
</a>
</g>
</g>
<!-- Node18 -->
<g id="Node000018" class="node">
<title>Node18</title>
<g id="a_Node000018"><a xlink:href="cell__coordinate_8h.html" target="_top" xlink:title="Container for {ijk} or {IJK} grouped variables.">
<polygon fill="white" stroke="#666666" points="89.5,-129.75 0,-129.75 0,-110.5 89.5,-110.5 89.5,-129.75"/>
<text text-anchor="middle" x="44.75" y="-116.25" font-family="Helvetica,sans-Serif" font-size="10.00">cell_coordinate.h</text>
</a>
</g>
</g>
<!-- Node5&#45;&gt;Node18 -->
<g id="edge23_Node000005_Node000018" class="edge">
<title>Node5&#45;&gt;Node18</title>
<g id="a_edge23_Node000005_Node000018"><a xlink:title=" ">
<path fill="none" stroke="#63b8ff" d="M801.34,-284.79C707.08,-284.18 328.77,-279.31 217.75,-240.25 153.81,-217.75 91.51,-165.12 62.18,-137.98"/>
<polygon fill="#63b8ff" stroke="#63b8ff" points="64.64,-135.48 54.96,-131.17 59.84,-140.57 64.64,-135.48"/>
</a>
</g>
</g>
<!-- Node20 -->
<g id="Node000020" class="node">
<title>Node20</title>
<g id="a_Node000020"><a xlink:href="dimensions_8h.html" target="_top" xlink:title="Defines a class that serves as an explicit converter between MATLAB pointers and array dimensions.">
<polygon fill="white" stroke="#666666" points="1175.62,-185 1101.88,-185 1101.88,-165.75 1175.62,-165.75 1175.62,-185"/>
<text text-anchor="middle" x="1138.75" y="-171.5" font-family="Helvetica,sans-Serif" font-size="10.00">dimensions.h</text>
</a>
</g>
</g>
<!-- Node5&#45;&gt;Node20 -->
<g id="edge26_Node000005_Node000020" class="edge">
<title>Node5&#45;&gt;Node20</title>
<g id="a_edge26_Node000005_Node000020"><a xlink:title=" ">
<path fill="none" stroke="#63b8ff" d="M844.11,-285.57C889.98,-286.16 1000.13,-282.65 1078.75,-240.25 1098.99,-229.34 1116.24,-209.05 1126.98,-194.26"/>
<polygon fill="#63b8ff" stroke="#63b8ff" points="1129.66,-196.54 1132.47,-186.32 1123.9,-192.55 1129.66,-196.54"/>
</a>
</g>
</g>
<!-- Node21 -->
<g id="Node000021" class="node">
<title>Node21</title>
<g id="a_Node000021"><a xlink:href="mat__io_8h.html" target="_top" xlink:title="Includes MATLAB headers for I/O.">
<polygon fill="white" stroke="#666666" points="1062.5,-74.5 1009,-74.5 1009,-55.25 1062.5,-55.25 1062.5,-74.5"/>
<text text-anchor="middle" x="1035.75" y="-61" font-family="Helvetica,sans-Serif" font-size="10.00">mat_io.h</text>
</a>
</g>
</g>
<!-- Node5&#45;&gt;Node21 -->
<g id="edge38_Node000005_Node000021" class="edge">
<title>Node5&#45;&gt;Node21</title>
<g id="a_edge38_Node000005_Node000021"><a xlink:title=" ">
<path fill="none" stroke="#63b8ff" d="M844.26,-283.61C894.62,-280.2 1018,-269.02 1045.75,-240.25 1086.23,-198.29 1060.26,-121 1044.83,-85.12"/>
<polygon fill="#63b8ff" stroke="#63b8ff" points="1048.03,-83.7 1040.73,-76.02 1041.65,-86.58 1048.03,-83.7"/>
</a>
</g>
</g>
<!-- Node25 -->
<g id="Node000025" class="node">
<title>Node25</title>
<g id="a_Node000025"><a xlink:href="input__flags_8h.html" target="_top" xlink:title="Organises enumerated constants, names, and classes for handling flag&#45;variables that are passed to TDM...">
<polygon fill="white" stroke="#666666" points="353.5,-129.75 282,-129.75 282,-110.5 353.5,-110.5 353.5,-129.75"/>
<text text-anchor="middle" x="317.75" y="-116.25" font-family="Helvetica,sans-Serif" font-size="10.00">input_flags.h</text>
</a>
</g>
</g>
<!-- Node5&#45;&gt;Node25 -->
<g id="edge31_Node000005_Node000025" class="edge">
<title>Node5&#45;&gt;Node25</title>
<g id="a_edge31_Node000005_Node000025"><a xlink:title=" ">
<path fill="none" stroke="#63b8ff" d="M801.36,-280.67C765.83,-273.51 692.55,-257.99 631.75,-240.25 560.74,-219.53 543.92,-211.22 474.75,-185 431.06,-168.44 381.17,-147.85 349.58,-134.6"/>
<polygon fill="#63b8ff" stroke="#63b8ff" points="351.18,-131.47 340.6,-130.82 348.46,-137.93 351.18,-131.47"/>
</a>
</g>
</g>
<!-- Node26 -->
<g id="Node000026" class="node">
<title>Node26</title>
<g id="a_Node000026"><a xlink:href="simulation__parameters_8h.html" target="_top" xlink:title="Classes collecting parameters for the simulation.">
<polygon fill="white" stroke="#666666" points="823,-240.25 700.5,-240.25 700.5,-221 823,-221 823,-240.25"/>
<text text-anchor="middle" x="761.75" y="-226.75" font-family="Helvetica,sans-Serif" font-size="10.00">simulation_parameters.h</text>
</a>
</g>
</g>
<!-- Node5&#45;&gt;Node26 -->
<g id="edge39_Node000005_Node000026" class="edge">
<title>Node5&#45;&gt;Node26</title>
<g id="a_edge39_Node000005_Node000026"><a xlink:title=" ">
<path fill="none" stroke="#63b8ff" d="M812.4,-275.84C803.67,-268.22 790.96,-257.12 780.45,-247.95"/>
<polygon fill="#63b8ff" stroke="#63b8ff" points="782.92,-245.46 773.09,-241.52 778.32,-250.73 782.92,-245.46"/>
</a>
</g>
</g>
<!-- Node6&#45;&gt;Node2 -->
<g id="edge7_Node000006_Node000002" class="edge">
<title>Node6&#45;&gt;Node2</title>
<g id="a_edge7_Node000006_Node000002"><a xlink:title=" ">
<path fill="none" stroke="#63b8ff" d="M483.76,-172.73C420.35,-168.36 259.53,-155.05 212.75,-129.75 193.18,-119.17 177.01,-99.13 166.95,-84.3"/>
<polygon fill="#63b8ff" stroke="#63b8ff" points="169.92,-82.44 161.57,-75.91 164.03,-86.22 169.92,-82.44"/>
</a>
</g>
</g>
<!-- Node7 -->
<g id="Node000007" class="node">
<title>Node7</title>
<g id="a_Node000007"><a xlink:title=" ">
<polygon fill="#e0e0e0" stroke="#999999" points="396.12,-74.5 337.38,-74.5 337.38,-55.25 396.12,-55.25 396.12,-74.5"/>
<text text-anchor="middle" x="366.75" y="-61" font-family="Helvetica,sans-Serif" font-size="10.00">stdexcept</text>
</a>
</g>
</g>
<!-- Node6&#45;&gt;Node7 -->
<g id="edge8_Node000006_Node000007" class="edge">
<title>Node6&#45;&gt;Node7</title>
<g id="a_edge8_Node000006_Node000007"><a xlink:title=" ">
<path fill="none" stroke="#63b8ff" d="M489.44,-165.27C472.41,-157.17 447.89,-144.36 428.75,-129.75 410.78,-116.04 393.11,-97.15 381.26,-83.47"/>
<polygon fill="#63b8ff" stroke="#63b8ff" points="384.16,-81.48 375.03,-76.11 378.82,-86.01 384.16,-81.48"/>
</a>
</g>
</g>
<!-- Node8 -->
<g id="Node000008" class="node">
<title>Node8</title>
<g id="a_Node000008"><a xlink:title=" ">
<polygon fill="#e0e0e0" stroke="#999999" points="737.75,-74.5 697.75,-74.5 697.75,-55.25 737.75,-55.25 737.75,-74.5"/>
<text text-anchor="middle" x="717.75" y="-61" font-family="Helvetica,sans-Serif" font-size="10.00">string</text>
</a>
</g>
</g>
<!-- Node6&#45;&gt;Node8 -->
<g id="edge9_Node000006_Node000008" class="edge">
<title>Node6&#45;&gt;Node8</title>
<g id="a_edge9_Node000006_Node000008"><a xlink:title=" ">
<path fill="none" stroke="#63b8ff" d="M535.84,-170.6C566.59,-165.25 618.36,-153.37 656.75,-129.75 676.27,-117.74 693.8,-97.97 705,-83.6"/>
<polygon fill="#63b8ff" stroke="#63b8ff" points="707.58,-85.99 710.78,-75.89 701.98,-81.79 707.58,-85.99"/>
</a>
</g>
</g>
<!-- Node9 -->
<g id="Node000009" class="node">
<title>Node9</title>
<g id="a_Node000009"><a xlink:title=" ">
<polygon fill="#e0e0e0" stroke="#999999" points="457.25,-74.5 414.25,-74.5 414.25,-55.25 457.25,-55.25 457.25,-74.5"/>
<text text-anchor="middle" x="435.75" y="-61" font-family="Helvetica,sans-Serif" font-size="10.00">vector</text>
</a>
</g>
</g>
<!-- Node6&#45;&gt;Node9 -->
<g id="edge10_Node000006_Node000009" class="edge">
<title>Node6&#45;&gt;Node9</title>
<g id="a_edge10_Node000006_Node000009"><a xlink:title=" ">
<path fill="none" stroke="#63b8ff" d="M484.59,-165.28C468.84,-158.17 449.71,-146.63 439.75,-129.75 432.05,-116.7 431.42,-99.42 432.51,-86.12"/>
<polygon fill="#63b8ff" stroke="#63b8ff" points="435.96,-86.72 433.72,-76.37 429.02,-85.86 435.96,-86.72"/>
</a>
</g>
</g>
<!-- Node10 -->
<g id="Node000010" class="node">
<title>Node10</title>
<g id="a_Node000010"><a xlink:title=" ">
<polygon fill="#e0e0e0" stroke="#999999" points="567.75,-129.75 521.75,-129.75 521.75,-110.5 567.75,-110.5 567.75,-129.75"/>
<text text-anchor="middle" x="544.75" y="-116.25" font-family="Helvetica,sans-Serif" font-size="10.00">fftw3.h</text>
</a>
</g>
</g>
<!-- Node6&#45;&gt;Node10 -->
<g id="edge11_Node000006_Node000010" class="edge">
<title>Node6&#45;&gt;Node10</title>
<g id="a_edge11_Node000006_Node000010"><a xlink:title=" ">
<path fill="none" stroke="#63b8ff" d="M515.53,-165.58C520.16,-158.53 526.82,-148.4 532.62,-139.58"/>
<polygon fill="#63b8ff" stroke="#63b8ff" points="535.45,-141.65 538.01,-131.37 529.6,-137.81 535.45,-141.65"/>
</a>
</g>
</g>
<!-- Node11 -->
<g id="Node000011" class="node">
<title>Node11</title>
<g id="a_Node000011"><a xlink:href="globals_8h.html" target="_top" xlink:title="Type definitions and global constants.">
<polygon fill="white" stroke="#666666" points="503.25,-129.75 448.25,-129.75 448.25,-110.5 503.25,-110.5 503.25,-129.75"/>
<text text-anchor="middle" x="475.75" y="-116.25" font-family="Helvetica,sans-Serif" font-size="10.00">globals.h</text>
</a>
</g>
</g>
<!-- Node6&#45;&gt;Node11 -->
<g id="edge12_Node000006_Node000011" class="edge">
<title>Node6&#45;&gt;Node11</title>
<g id="a_edge12_Node000006_Node000011"><a xlink:title=" ">
<path fill="none" stroke="#63b8ff" d="M504.14,-165.58C499.63,-158.53 493.16,-148.4 487.54,-139.58"/>
<polygon fill="#63b8ff" stroke="#63b8ff" points="490.63,-137.93 482.3,-131.38 484.73,-141.7 490.63,-137.93"/>
</a>
</g>
</g>
<!-- Node12 -->
<g id="Node000012" class="node">
<title>Node12</title>
<g id="a_Node000012"><a xlink:title=" ">
<polygon fill="#e0e0e0" stroke="#999999" points="647.25,-129.75 586.25,-129.75 586.25,-110.5 647.25,-110.5 647.25,-129.75"/>
<text text-anchor="middle" x="616.75" y="-116.25" font-family="Helvetica,sans-Serif" font-size="10.00">matlabio.h</text>
</a>
</g>
</g>
<!-- Node6&#45;&gt;Node12 -->
<g id="edge15_Node000006_Node000012" class="edge">
<title>Node6&#45;&gt;Node12</title>
<g id="a_edge15_Node000006_Node000012"><a xlink:title=" ">
<path fill="none" stroke="#63b8ff" d="M527.9,-165.34C544.43,-157.12 569.09,-144.84 588.25,-135.31"/>
<polygon fill="#63b8ff" stroke="#63b8ff" points="589.76,-138.47 597.15,-130.88 586.64,-132.2 589.76,-138.47"/>
</a>
</g>
</g>
<!-- Node6&#45;&gt;Node13 -->
<g id="edge16_Node000006_Node000013" class="edge">
<title>Node6&#45;&gt;Node13</title>
<g id="a_edge16_Node000006_Node000013"><a xlink:title=" ">
<path fill="none" stroke="#63b8ff" d="M483.63,-170.28C441.67,-163.53 356.46,-149.09 275.23,-130.16"/>
<polygon fill="#63b8ff" stroke="#63b8ff" points="276.33,-126.83 265.79,-127.94 274.72,-133.64 276.33,-126.83"/>
</a>
</g>
</g>
<!-- Node11&#45;&gt;Node2 -->
<g id="edge13_Node000011_Node000002" class="edge">
<title>Node11&#45;&gt;Node2</title>
<g id="a_edge13_Node000011_Node000002"><a xlink:title=" ">
<path fill="none" stroke="#63b8ff" d="M448.1,-115.6C398.86,-109.16 292.58,-94.47 193.55,-74.92"/>
<polygon fill="#63b8ff" stroke="#63b8ff" points="194.43,-71.53 183.93,-73 193.05,-78.39 194.43,-71.53"/>
</a>
</g>
</g>
<!-- Node11&#45;&gt;Node8 -->
<g id="edge14_Node000011_Node000008" class="edge">
<title>Node11&#45;&gt;Node8</title>
<g id="a_edge14_Node000011_Node000008"><a xlink:title=" ">
<path fill="none" stroke="#63b8ff" d="M503.62,-112.58C506.7,-111.87 509.79,-111.17 512.75,-110.5 574.06,-96.68 645.86,-81.22 686.15,-72.6"/>
<polygon fill="#63b8ff" stroke="#63b8ff" points="686.83,-76.04 695.88,-70.53 685.37,-69.19 686.83,-76.04"/>
</a>
</g>
</g>
<!-- Node13&#45;&gt;Node8 -->
<g id="edge19_Node000013_Node000008" class="edge">
<title>Node13&#45;&gt;Node8</title>
<g id="a_edge19_Node000013_Node000008"><a xlink:title=" ">
<path fill="none" stroke="#63b8ff" d="M264.27,-112.44C267.1,-111.7 269.98,-111.03 272.75,-110.5 426.23,-80.99 613.48,-70.3 686.5,-67.07"/>
<polygon fill="#63b8ff" stroke="#63b8ff" points="686.25,-70.59 696.09,-66.67 685.95,-63.59 686.25,-70.59"/>
</a>
</g>
</g>
<!-- Node13&#45;&gt;Node9 -->
<g id="edge20_Node000013_Node000009" class="edge">
<title>Node13&#45;&gt;Node9</title>
<g id="a_edge20_Node000013_Node000009"><a xlink:title=" ">
<path fill="none" stroke="#63b8ff" d="M264.37,-112.87C267.19,-112.07 270.04,-111.26 272.75,-110.5 327.99,-95.03 344.31,-91.08 403.02,-74.96"/>
<polygon fill="#63b8ff" stroke="#63b8ff" points="403.9,-78.35 412.61,-72.32 402.04,-71.6 403.9,-78.35"/>
</a>
</g>
</g>
<!-- Node14 -->
<g id="Node000014" class="node">
<title>Node14</title>
<g id="a_Node000014"><a xlink:title=" ">
<polygon fill="#e0e0e0" stroke="#999999" points="319.62,-74.5 263.88,-74.5 263.88,-55.25 319.62,-55.25 319.62,-74.5"/>
<text text-anchor="middle" x="291.75" y="-61" font-family="Helvetica,sans-Serif" font-size="10.00">algorithm</text>
</a>
</g>
</g>
<!-- Node13&#45;&gt;Node14 -->
<g id="edge17_Node000013_Node000014" class="edge">
<title>Node13&#45;&gt;Node14</title>
<g id="a_edge17_Node000013_Node000014"><a xlink:title=" ">
<path fill="none" stroke="#63b8ff" d="M250.84,-110.33C257.61,-102.98 267.47,-92.26 275.81,-83.19"/>
<polygon fill="#63b8ff" stroke="#63b8ff" points="278.26,-85.7 282.46,-75.97 273.11,-80.96 278.26,-85.7"/>
</a>
</g>
</g>
<!-- Node15 -->
<g id="Node000015" class="node">
<title>Node15</title>
<g id="a_Node000015"><a xlink:title=" ">
<polygon fill="#e0e0e0" stroke="#999999" points="245.75,-74.5 199.75,-74.5 199.75,-55.25 245.75,-55.25 245.75,-74.5"/>
<text text-anchor="middle" x="222.75" y="-61" font-family="Helvetica,sans-Serif" font-size="10.00">iterator</text>
</a>
</g>
</g>
<!-- Node13&#45;&gt;Node15 -->
<g id="edge18_Node000013_Node000015" class="edge">
<title>Node13&#45;&gt;Node15</title>
<g id="a_edge18_Node000013_Node000015"><a xlink:title=" ">
<path fill="none" stroke="#63b8ff" d="M239.45,-110.33C236.92,-103.59 233.32,-94.02 230.12,-85.49"/>
<polygon fill="#63b8ff" stroke="#63b8ff" points="233.45,-84.41 226.66,-76.28 226.9,-86.87 233.45,-84.41"/>
</a>
</g>
</g>
<!-- Node18&#45;&gt;Node14 -->
<g id="edge25_Node000018_Node000014" class="edge">
<title>Node18&#45;&gt;Node14</title>
<g id="a_edge25_Node000018_Node000014"><a xlink:title=" ">
<path fill="none" stroke="#63b8ff" d="M88.65,-110.06C128.76,-101.72 190.02,-88.83 252.26,-75.02"/>
<polygon fill="#63b8ff" stroke="#63b8ff" points="253,-78.44 262,-72.85 251.48,-71.61 253,-78.44"/>
</a>
</g>
</g>
<!-- Node19 -->
<g id="Node000019" class="node">
<title>Node19</title>
<g id="a_Node000019"><a xlink:title=" ">
<polygon fill="#e0e0e0" stroke="#999999" points="98.88,-74.5 14.62,-74.5 14.62,-55.25 98.88,-55.25 98.88,-74.5"/>
<text text-anchor="middle" x="56.75" y="-61" font-family="Helvetica,sans-Serif" font-size="10.00">spdlog/spdlog.h</text>
</a>
</g>
</g>
<!-- Node18&#45;&gt;Node19 -->
<g id="edge24_Node000018_Node000019" class="edge">
<title>Node18&#45;&gt;Node19</title>
<g id="a_edge24_Node000018_Node000019"><a xlink:title=" ">
<path fill="none" stroke="#63b8ff" d="M46.73,-110.33C48.22,-103.74 50.31,-94.46 52.2,-86.07"/>
<polygon fill="#63b8ff" stroke="#63b8ff" points="55.61,-86.86 54.39,-76.34 48.78,-85.32 55.61,-86.86"/>
</a>
</g>
</g>
<!-- Node20&#45;&gt;Node21 -->
<g id="edge27_Node000020_Node000021" class="edge">
<title>Node20&#45;&gt;Node21</title>
<g id="a_edge27_Node000020_Node000021"><a xlink:title=" ">
<path fill="none" stroke="#63b8ff" d="M1132.32,-165.26C1123.1,-152.46 1105.29,-128.67 1087.75,-110.5 1077.98,-100.38 1066.15,-90.09 1056.24,-81.95"/>
<polygon fill="#63b8ff" stroke="#63b8ff" points="1058.62,-79.37 1048.63,-75.82 1054.22,-84.82 1058.62,-79.37"/>
</a>
</g>
</g>
<!-- Node22 -->
<g id="Node000022" class="node">
<title>Node22</title>
<g id="a_Node000022"><a xlink:title=" ">
<polygon fill="#e0e0e0" stroke="#999999" points="992.12,-19.25 951.38,-19.25 951.38,0 992.12,0 992.12,-19.25"/>
<text text-anchor="middle" x="971.75" y="-5.75" font-family="Helvetica,sans-Serif" font-size="10.00">mat.h</text>
</a>
</g>
</g>
<!-- Node21&#45;&gt;Node22 -->
<g id="edge28_Node000021_Node000022" class="edge">
<title>Node21&#45;&gt;Node22</title>
<g id="a_edge28_Node000021_Node000022"><a xlink:title=" ">
<path fill="none" stroke="#63b8ff" d="M1024.89,-54.84C1015.64,-47.15 1002.13,-35.9 991.04,-26.68"/>
<polygon fill="#63b8ff" stroke="#63b8ff" points="993.54,-24.2 983.61,-20.49 989.06,-29.58 993.54,-24.2"/>
</a>
</g>
</g>
<!-- Node23 -->
<g id="Node000023" class="node">
<title>Node23</title>
<g id="a_Node000023"><a xlink:title=" ">
<polygon fill="#e0e0e0" stroke="#999999" points="1061.38,-19.25 1010.12,-19.25 1010.12,0 1061.38,0 1061.38,-19.25"/>
<text text-anchor="middle" x="1035.75" y="-5.75" font-family="Helvetica,sans-Serif" font-size="10.00">matrix.h</text>
</a>
</g>
</g>
<!-- Node21&#45;&gt;Node23 -->
<g id="edge29_Node000021_Node000023" class="edge">
<title>Node21&#45;&gt;Node23</title>
<g id="a_edge29_Node000021_Node000023"><a xlink:title=" ">
<path fill="none" stroke="#63b8ff" d="M1035.75,-55.08C1035.75,-48.57 1035.75,-39.42 1035.75,-31.12"/>
<polygon fill="#63b8ff" stroke="#63b8ff" points="1039.25,-31.12 1035.75,-21.12 1032.25,-31.12 1039.25,-31.12"/>
</a>
</g>
</g>
<!-- Node24 -->
<g id="Node000024" class="node">
<title>Node24</title>
<g id="a_Node000024"><a xlink:title=" ">
<polygon fill="#e0e0e0" stroke="#999999" points="1122.25,-19.25 1079.25,-19.25 1079.25,0 1122.25,0 1122.25,-19.25"/>
<text text-anchor="middle" x="1100.75" y="-5.75" font-family="Helvetica,sans-Serif" font-size="10.00">mex.h</text>
</a>
</g>
</g>
<!-- Node21&#45;&gt;Node24 -->
<g id="edge30_Node000021_Node000024" class="edge">
<title>Node21&#45;&gt;Node24</title>
<g id="a_edge30_Node000021_Node000024"><a xlink:title=" ">
<path fill="none" stroke="#63b8ff" d="M1046.78,-54.84C1056.17,-47.15 1069.9,-35.9 1081.16,-26.68"/>
<polygon fill="#63b8ff" stroke="#63b8ff" points="1083.2,-29.53 1088.72,-20.48 1078.76,-24.11 1083.2,-29.53"/>
</a>
</g>
</g>
<!-- Node25&#45;&gt;Node7 -->
<g id="edge33_Node000025_Node000007" class="edge">
<title>Node25&#45;&gt;Node7</title>
<g id="a_edge33_Node000025_Node000007"><a xlink:title=" ">
<path fill="none" stroke="#63b8ff" d="M325.84,-110.33C332.61,-102.98 342.47,-92.26 350.81,-83.19"/>
<polygon fill="#63b8ff" stroke="#63b8ff" points="353.26,-85.7 357.46,-75.97 348.11,-80.96 353.26,-85.7"/>
</a>
</g>
</g>
<!-- Node25&#45;&gt;Node8 -->
<g id="edge34_Node000025_Node000008" class="edge">
<title>Node25&#45;&gt;Node8</title>
<g id="a_edge34_Node000025_Node000008"><a xlink:title=" ">
<path fill="none" stroke="#63b8ff" d="M353.95,-114.31C431.56,-103.97 612.82,-79.84 686.14,-70.08"/>
<polygon fill="#63b8ff" stroke="#63b8ff" points="686.39,-73.58 695.84,-68.79 685.47,-66.64 686.39,-73.58"/>
</a>
</g>
</g>
<!-- Node25&#45;&gt;Node9 -->
<g id="edge35_Node000025_Node000009" class="edge">
<title>Node25&#45;&gt;Node9</title>
<g id="a_edge35_Node000025_Node000009"><a xlink:title=" ">
<path fill="none" stroke="#63b8ff" d="M337.77,-110.09C356.24,-101.75 383.96,-89.25 405.2,-79.66"/>
<polygon fill="#63b8ff" stroke="#63b8ff" points="406.58,-82.88 414.26,-75.58 403.7,-76.5 406.58,-82.88"/>
</a>
</g>
</g>
<!-- Node25&#45;&gt;Node14 -->
<g id="edge32_Node000025_Node000014" class="edge">
<title>Node25&#45;&gt;Node14</title>
<g id="a_edge32_Node000025_Node000014"><a xlink:title=" ">
<path fill="none" stroke="#63b8ff" d="M313.46,-110.33C310.13,-103.51 305.39,-93.81 301.19,-85.2"/>
<polygon fill="#63b8ff" stroke="#63b8ff" points="304.33,-83.67 296.8,-76.22 298.04,-86.74 304.33,-83.67"/>
</a>
</g>
</g>
<!-- Node25&#45;&gt;Node19 -->
<g id="edge36_Node000025_Node000019" class="edge">
<title>Node25&#45;&gt;Node19</title>
<g id="a_edge36_Node000025_Node000019"><a xlink:title=" ">
<path fill="none" stroke="#63b8ff" d="M281.73,-111.78C237.4,-102.73 161.71,-87.29 110.49,-76.84"/>
<polygon fill="#63b8ff" stroke="#63b8ff" points="111.3,-73.43 100.8,-74.86 109.9,-80.29 111.3,-73.43"/>
</a>
</g>
</g>
<!-- Node25&#45;&gt;Node21 -->
<g id="edge37_Node000025_Node000021" class="edge">
<title>Node25&#45;&gt;Node21</title>
<g id="a_edge37_Node000025_Node000021"><a xlink:title=" ">
<path fill="none" stroke="#63b8ff" d="M353.85,-116.45C475.89,-107.4 872.43,-77.99 997.55,-68.71"/>
<polygon fill="#63b8ff" stroke="#63b8ff" points="997.58,-72.22 1007.29,-67.99 997.06,-65.24 997.58,-72.22"/>
</a>
</g>
</g>
<!-- Node26&#45;&gt;Node4 -->
<g id="edge42_Node000026_Node000004" class="edge">
<title>Node26&#45;&gt;Node4</title>
<g id="a_edge42_Node000026_Node000004"><a xlink:title=" ">
<path fill="none" stroke="#63b8ff" d="M799.66,-220.53C837.02,-211.57 894.25,-197.84 934.98,-188.07"/>
<polygon fill="#63b8ff" stroke="#63b8ff" points="935.62,-191.52 944.52,-185.78 933.98,-184.71 935.62,-191.52"/>
</a>
</g>
</g>
<!-- Node26&#45;&gt;Node6 -->
<g id="edge41_Node000026_Node000006" class="edge">
<title>Node26&#45;&gt;Node6</title>
<g id="a_edge41_Node000026_Node000006"><a xlink:title=" ">
<path fill="none" stroke="#63b8ff" d="M718.72,-220.53C670.35,-210.31 592.63,-193.89 546.84,-184.21"/>
<polygon fill="#63b8ff" stroke="#63b8ff" points="547.64,-180.8 537.13,-182.16 546.19,-187.65 547.64,-180.8"/>
</a>
</g>
</g>
<!-- Node26&#45;&gt;Node8 -->
<g id="edge40_Node000026_Node000008" class="edge">
<title>Node26&#45;&gt;Node8</title>
<g id="a_edge40_Node000026_Node000008"><a xlink:title=" ">
<path fill="none" stroke="#63b8ff" d="M786.78,-220.66C809.9,-212.17 845.06,-198.69 874.75,-185 877.72,-183.63 977.06,-132.55 978.75,-129.75 983.16,-122.42 984.27,-117.04 978.75,-110.5 949.72,-76.09 812.31,-68.21 749.37,-66.41"/>
<polygon fill="#63b8ff" stroke="#63b8ff" points="749.78,-62.92 739.69,-66.17 749.6,-69.92 749.78,-62.92"/>
</a>
</g>
</g>
<!-- Node27 -->
<g id="Node000027" class="node">
<title>Node27</title>
<g id="a_Node000027"><a xlink:href="input__matrices_8h.html" target="_top" xlink:title="Class handling the input matrices that are read in from the input file.">
<polygon fill="white" stroke="#666666" points="865.75,-185 777.75,-185 777.75,-165.75 865.75,-165.75 865.75,-185"/>
<text text-anchor="middle" x="821.75" y="-171.5" font-family="Helvetica,sans-Serif" font-size="10.00">input_matrices.h</text>
</a>
</g>
</g>
<!-- Node26&#45;&gt;Node27 -->
<g id="edge43_Node000026_Node000027" class="edge">
<title>Node26&#45;&gt;Node27</title>
<g id="a_edge43_Node000026_Node000027"><a xlink:title=" ">
<path fill="none" stroke="#63b8ff" d="M771.93,-220.59C780.51,-212.97 793.02,-201.87 803.35,-192.7"/>
<polygon fill="#63b8ff" stroke="#63b8ff" points="805.43,-195.54 810.59,-186.28 800.79,-190.3 805.43,-195.54"/>
</a>
</g>
</g>
<!-- Node27&#45;&gt;Node8 -->
<g id="edge44_Node000027_Node000008" class="edge">
<title>Node27&#45;&gt;Node8</title>
<g id="a_edge44_Node000027_Node000008"><a xlink:title=" ">
<path fill="none" stroke="#63b8ff" d="M825.17,-165.66C829.71,-152.5 835.95,-127.31 824.75,-110.5 808.08,-85.49 774.44,-74.47 749.31,-69.63"/>
<polygon fill="#63b8ff" stroke="#63b8ff" points="750.04,-66.21 739.6,-68.02 748.89,-73.11 750.04,-66.21"/>
</a>
</g>
</g>
<!-- Node27&#45;&gt;Node21 -->
<g id="edge48_Node000027_Node000021" class="edge">
<title>Node27&#45;&gt;Node21</title>
<g id="a_edge48_Node000027_Node000021"><a xlink:title=" ">
<path fill="none" stroke="#63b8ff" d="M866.1,-168.6C899.13,-162.74 944.29,-151.33 978.75,-129.75 997.4,-118.07 1013.54,-98.53 1023.84,-84.14"/>
<polygon fill="#63b8ff" stroke="#63b8ff" points="1026.65,-86.23 1029.41,-76 1020.87,-82.28 1026.65,-86.23"/>
</a>
</g>
</g>
<!-- Node28 -->
<g id="Node000028" class="node">
<title>Node28</title>
<g id="a_Node000028"><a xlink:href="input__output__names_8h.html" target="_top" xlink:title="Constant values associated with the format of the input and output files and matrices.">
<polygon fill="white" stroke="#666666" points="815.75,-129.75 703.75,-129.75 703.75,-110.5 815.75,-110.5 815.75,-129.75"/>
<text text-anchor="middle" x="759.75" y="-116.25" font-family="Helvetica,sans-Serif" font-size="10.00">input_output_names.h</text>
</a>
</g>
</g>
<!-- Node27&#45;&gt;Node28 -->
<g id="edge45_Node000027_Node000028" class="edge">
<title>Node27&#45;&gt;Node28</title>
<g id="a_edge45_Node000027_Node000028"><a xlink:title=" ">
<path fill="none" stroke="#63b8ff" d="M811.23,-165.34C802.36,-157.72 789.44,-146.62 778.76,-137.45"/>
<polygon fill="#63b8ff" stroke="#63b8ff" points="781.13,-134.87 771.26,-131.01 776.57,-140.18 781.13,-134.87"/>
</a>
</g>
</g>
<!-- Node29 -->
<g id="Node000029" class="node">
<title>Node29</title>
<g id="a_Node000029"><a xlink:href="matrix__collection_8h.html" target="_top" xlink:title="A collection of named MATLAB matrices.">
<polygon fill="white" stroke="#666666" points="969.62,-129.75 871.88,-129.75 871.88,-110.5 969.62,-110.5 969.62,-129.75"/>
<text text-anchor="middle" x="920.75" y="-116.25" font-family="Helvetica,sans-Serif" font-size="10.00">matrix_collection.h</text>
</a>
</g>
</g>
<!-- Node27&#45;&gt;Node29 -->
<g id="edge49_Node000027_Node000029" class="edge">
<title>Node27&#45;&gt;Node29</title>
<g id="a_edge49_Node000027_Node000029"><a xlink:title=" ">
<path fill="none" stroke="#63b8ff" d="M838.54,-165.34C853.76,-157.16 876.45,-144.96 894.13,-135.44"/>
<polygon fill="#63b8ff" stroke="#63b8ff" points="895.39,-138.74 902.54,-130.92 892.08,-132.57 895.39,-138.74"/>
</a>
</g>
</g>
<!-- Node28&#45;&gt;Node8 -->
<g id="edge46_Node000028_Node000008" class="edge">
<title>Node28&#45;&gt;Node8</title>
<g id="a_edge46_Node000028_Node000008"><a xlink:title=" ">
<path fill="none" stroke="#63b8ff" d="M752.81,-110.33C747.13,-103.13 738.91,-92.71 731.86,-83.76"/>
<polygon fill="#63b8ff" stroke="#63b8ff" points="734.71,-81.73 725.77,-76.05 729.22,-86.07 734.71,-81.73"/>
</a>
</g>
</g>
<!-- Node28&#45;&gt;Node9 -->
<g id="edge47_Node000028_Node000009" class="edge">
<title>Node28&#45;&gt;Node9</title>
<g id="a_edge47_Node000028_Node000009"><a xlink:title=" ">
<path fill="none" stroke="#63b8ff" d="M704.42,-110.03C636.73,-98.91 524.31,-80.43 468.82,-71.31"/>
<polygon fill="#63b8ff" stroke="#63b8ff" points="469.49,-67.87 459.06,-69.71 468.36,-74.78 469.49,-67.87"/>
</a>
</g>
</g>
<!-- Node29&#45;&gt;Node8 -->
<g id="edge50_Node000029_Node000008" class="edge">
<title>Node29&#45;&gt;Node8</title>
<g id="a_edge50_Node000029_Node000008"><a xlink:title=" ">
<path fill="none" stroke="#63b8ff" d="M886.31,-110.09C847.77,-99.98 785.87,-83.74 748.77,-74.01"/>
<polygon fill="#63b8ff" stroke="#63b8ff" points="750.13,-70.75 739.57,-71.6 748.36,-77.52 750.13,-70.75"/>
</a>
</g>
</g>
<!-- Node29&#45;&gt;Node9 -->
<g id="edge51_Node000029_Node000009" class="edge">
<title>Node29&#45;&gt;Node9</title>
<g id="a_edge51_Node000029_Node000009"><a xlink:title=" ">
<path fill="none" stroke="#63b8ff" d="M871.58,-113.73C772.88,-102.89 552.93,-78.74 469.09,-69.54"/>
<polygon fill="#63b8ff" stroke="#63b8ff" points="469.56,-66.07 459.24,-68.45 468.8,-73.02 469.56,-66.07"/>
</a>
</g>
</g>
<!-- Node29&#45;&gt;Node21 -->
<g id="edge52_Node000029_Node000021" class="edge">
<title>Node29&#45;&gt;Node21</title>
<g id="a_edge52_Node000029_Node000021"><a xlink:title=" ">
<path fill="none" stroke="#63b8ff" d="M940.26,-110.09C958.27,-101.75 985.27,-89.25 1005.98,-79.66"/>
<polygon fill="#63b8ff" stroke="#63b8ff" points="1007.17,-82.97 1014.77,-75.59 1004.23,-76.61 1007.17,-82.97"/>
</a>
</g>
</g>
<!-- Node30&#45;&gt;Node21 -->
<g id="edge54_Node000030_Node000021" class="edge">
<title>Node30&#45;&gt;Node21</title>
<g id="a_edge54_Node000030_Node000021"><a xlink:title=" ">
<path fill="none" stroke="#63b8ff" d="M1204.51,-276.03C1205.86,-255.16 1206.75,-201.88 1184.75,-165.75 1158.69,-122.97 1106.55,-94.51 1071.4,-79.28"/>
<polygon fill="#63b8ff" stroke="#63b8ff" points="1073.05,-76.18 1062.47,-75.55 1070.36,-82.64 1073.05,-76.18"/>
</a>
</g>
</g>
</g>
</svg>
