<?xml version="1.0" encoding="UTF-8" standalone="no"?>
<!DOCTYPE svg PUBLIC "-//W3C//DTD SVG 1.1//EN"
 "http://www.w3.org/Graphics/SVG/1.1/DTD/svg11.dtd">
<!-- Generated by graphviz version 8.0.5 (20230430.1635)
 -->
<!-- Title: tdms/include/vertex_phasors.h Pages: 1 -->
<svg width="1374pt" height="370pt"
 viewBox="0.00 0.00 1373.88 370.00" xmlns="http://www.w3.org/2000/svg" xmlns:xlink="http://www.w3.org/1999/xlink">
<g id="graph0" class="graph" transform="scale(1 1) rotate(0) translate(4 366)">
<title>tdms/include/vertex_phasors.h</title>
<!-- Node1 -->
<g id="node1" class="node">
<title>Node1</title>
<g id="a_node1"><a xlink:title="Contains a class that handles the complex amplitude extraction at the vertices.">
<polygon fill="#999999" stroke="#666666" points="1062.5,-362 961,-362 961,-331.5 1062.5,-331.5 1062.5,-362"/>
<text text-anchor="start" x="969" y="-348.5" font-family="Helvetica,sans-Serif" font-size="10.00">tdms/include/vertex</text>
<text text-anchor="middle" x="1011.75" y="-337.25" font-family="Helvetica,sans-Serif" font-size="10.00">_phasors.h</text>
</a>
</g>
</g>
<!-- Node2 -->
<g id="node2" class="node">
<title>Node2</title>
<g id="a_node2"><a xlink:title=" ">
<polygon fill="#e0e0e0" stroke="#999999" points="182.12,-74.5 129.38,-74.5 129.38,-55.25 182.12,-55.25 182.12,-74.5"/>
<text text-anchor="middle" x="155.75" y="-61" font-family="Helvetica,sans-Serif" font-size="10.00">complex</text>
</a>
</g>
</g>
<!-- Node1&#45;&gt;Node2 -->
<g id="edge1" class="edge">
<title>Node1&#45;&gt;Node2</title>
<path fill="none" stroke="#63b8ff" d="M960.8,-344.65C771.26,-339.88 117.75,-317.24 117.75,-231.62 117.75,-231.62 117.75,-231.62 117.75,-174.38 117.75,-141.23 133.74,-105.43 144.97,-84.37"/>
<polygon fill="#63b8ff" stroke="#63b8ff" points="148.5,-86.23 150.31,-75.79 142.38,-82.83 148.5,-86.23"/>
</g>
<!-- Node3 -->
<g id="node3" class="node">
<title>Node3</title>
<g id="a_node3"><a xlink:title=" ">
<polygon fill="#e0e0e0" stroke="#999999" points="1365.88,-295.5 1257.62,-295.5 1257.62,-276.25 1365.88,-276.25 1365.88,-295.5"/>
<text text-anchor="middle" x="1311.75" y="-282" font-family="Helvetica,sans-Serif" font-size="10.00">arrays/tdms_matrix.h</text>
</a>
</g>
</g>
<!-- Node1&#45;&gt;Node3 -->
<g id="edge2" class="edge">
<title>Node1&#45;&gt;Node3</title>
<path fill="none" stroke="#63b8ff" d="M1062.98,-335.7C1116.32,-325.23 1199.67,-308.87 1254.98,-298.02"/>
<polygon fill="#63b8ff" stroke="#63b8ff" points="1255.51,-301.28 1264.65,-295.92 1254.17,-294.41 1255.51,-301.28"/>
</g>
<!-- Node4 -->
<g id="node4" class="node">
<title>Node4</title>
<g id="a_node4"><a xlink:title=" ">
<polygon fill="#e0e0e0" stroke="#999999" points="1045.75,-185 921.75,-185 921.75,-165.75 1045.75,-165.75 1045.75,-185"/>
<text text-anchor="middle" x="983.75" y="-171.5" font-family="Helvetica,sans-Serif" font-size="10.00">arrays/vector_typedefs.h</text>
</a>
</g>
</g>
<!-- Node1&#45;&gt;Node4 -->
<g id="edge3" class="edge">
<title>Node1&#45;&gt;Node4</title>
<path fill="none" stroke="#63b8ff" d="M1022.26,-331.2C1038.21,-307.18 1064.79,-258.16 1045.75,-221 1039.07,-207.96 1026.61,-197.87 1014.6,-190.6"/>
<polygon fill="#63b8ff" stroke="#63b8ff" points="1016.63,-187.17 1006.19,-185.38 1013.24,-193.29 1016.63,-187.17"/>
</g>
<!-- Node5 -->
<g id="node5" class="node">
<title>Node5</title>
<g id="a_node5"><a xlink:href="field_8h.html" target="_top" xlink:title="Classes for the electric and magnetic (split) fields on a grid.">
<polygon fill="white" stroke="#666666" points="843.88,-295.5 801.62,-295.5 801.62,-276.25 843.88,-276.25 843.88,-295.5"/>
<text text-anchor="middle" x="822.75" y="-282" font-family="Helvetica,sans-Serif" font-size="10.00">field.h</text>
</a>
</g>
</g>
<!-- Node1&#45;&gt;Node5 -->
<g id="edge4" class="edge">
<title>Node1&#45;&gt;Node5</title>
<path fill="none" stroke="#63b8ff" d="M964.54,-331.05C930.27,-320.37 884.81,-306.21 854.71,-296.83"/>
<polygon fill="#63b8ff" stroke="#63b8ff" points="855.95,-293.24 845.36,-293.61 853.87,-299.92 855.95,-293.24"/>
</g>
<!-- Node13 -->
<g id="node13" class="node">
<title>Node13</title>
<g id="a_node13"><a xlink:href="utils_8h.html" target="_top" xlink:title="Useful miscellaneous utility functions.">
<polygon fill="white" stroke="#666666" points="263.88,-129.75 221.62,-129.75 221.62,-110.5 263.88,-110.5 263.88,-129.75"/>
<text text-anchor="middle" x="242.75" y="-116.25" font-family="Helvetica,sans-Serif" font-size="10.00">utils.h</text>
</a>
</g>
</g>
<!-- Node1&#45;&gt;Node13 -->
<g id="edge55" class="edge">
<title>Node1&#45;&gt;Node13</title>
<path fill="none" stroke="#63b8ff" d="M960.81,-334.28C916.4,-324.22 850.26,-309.13 792.75,-295.5 692.13,-271.66 665.65,-270.42 566.75,-240.25 457.47,-206.92 331.28,-157.17 273.96,-133.94"/>
<polygon fill="#63b8ff" stroke="#63b8ff" points="275.66,-130.45 265.08,-129.92 273.02,-136.93 275.66,-130.45"/>
</g>
<!-- Node30 -->
<g id="node30" class="node">
<title>Node30</title>
<g id="a_node30"><a xlink:href="grid__labels_8h.html" target="_top" xlink:title="Class to hold the labels of a Yee cell.">
<polygon fill="white" stroke="#666666" points="1239.12,-295.5 1168.38,-295.5 1168.38,-276.25 1239.12,-276.25 1239.12,-295.5"/>
<text text-anchor="middle" x="1203.75" y="-282" font-family="Helvetica,sans-Serif" font-size="10.00">grid_labels.h</text>
</a>
</g>
</g>
<!-- Node1&#45;&gt;Node30 -->
<g id="edge53" class="edge">
<title>Node1&#45;&gt;Node30</title>
<path fill="none" stroke="#63b8ff" d="M1059.7,-331.05C1091.8,-321.2 1133.54,-308.4 1163.82,-299.12"/>
<polygon fill="#63b8ff" stroke="#63b8ff" points="1164.49,-302.27 1173.02,-295.99 1162.44,-295.58 1164.49,-302.27"/>
</g>
<!-- Node5&#45;&gt;Node2 -->
<g id="edge5" class="edge">
<title>Node5&#45;&gt;Node2</title>
<path fill="none" stroke="#63b8ff" d="M801.35,-281.96C757.19,-275.75 652.9,-260.19 566.75,-240.25 394.98,-200.5 319.8,-244.27 185.75,-129.75 172.36,-118.31 164.55,-99.58 160.27,-85.35"/>
<polygon fill="#63b8ff" stroke="#63b8ff" points="163.4,-84.49 157.47,-75.72 156.63,-86.28 163.4,-84.49"/>
</g>
<!-- Node6 -->
<g id="node6" class="node">
<title>Node6</title>
<g id="a_node6"><a xlink:href="arrays_8h.html" target="_top" xlink:title="Classes describing arrays, vertices etc.">
<polygon fill="white" stroke="#666666" points="535.38,-185 484.12,-185 484.12,-165.75 535.38,-165.75 535.38,-185"/>
<text text-anchor="middle" x="509.75" y="-171.5" font-family="Helvetica,sans-Serif" font-size="10.00">arrays.h</text>
</a>
</g>
</g>
<!-- Node5&#45;&gt;Node6 -->
<g id="edge6" class="edge">
<title>Node5&#45;&gt;Node6</title>
<path fill="none" stroke="#63b8ff" d="M801.4,-277.67C775.45,-268.9 730.35,-253.6 691.75,-240.25 640.91,-222.67 582.21,-202 545.53,-189.04"/>
<polygon fill="#63b8ff" stroke="#63b8ff" points="546.94,-185.47 536.34,-185.44 544.61,-192.07 546.94,-185.47"/>
</g>
<!-- Node16 -->
<g id="node16" class="node">
<title>Node16</title>
<g id="a_node16"><a xlink:title=" ">
<polygon fill="#e0e0e0" stroke="#999999" points="926.62,-240.25 840.88,-240.25 840.88,-221 926.62,-221 926.62,-240.25"/>
<text text-anchor="middle" x="883.75" y="-226.75" font-family="Helvetica,sans-Serif" font-size="10.00">arrays/eh_vec.h</text>
</a>
</g>
</g>
<!-- Node5&#45;&gt;Node16 -->
<g id="edge21" class="edge">
<title>Node5&#45;&gt;Node16</title>
<path fill="none" stroke="#63b8ff" d="M833.1,-275.84C841.91,-268.15 854.8,-256.9 865.36,-247.68"/>
<polygon fill="#63b8ff" stroke="#63b8ff" points="867.32,-249.74 872.56,-240.52 862.72,-244.46 867.32,-249.74"/>
</g>
<!-- Node17 -->
<g id="node17" class="node">
<title>Node17</title>
<g id="a_node17"><a xlink:title=" ">
<polygon fill="#e0e0e0" stroke="#999999" points="1036.62,-240.25 944.88,-240.25 944.88,-221 1036.62,-221 1036.62,-240.25"/>
<text text-anchor="middle" x="990.75" y="-226.75" font-family="Helvetica,sans-Serif" font-size="10.00">arrays/tensor3d.h</text>
</a>
</g>
</g>
<!-- Node5&#45;&gt;Node17 -->
<g id="edge22" class="edge">
<title>Node5&#45;&gt;Node17</title>
<path fill="none" stroke="#63b8ff" d="M844.37,-278.02C871.48,-269.43 918.44,-254.54 951.86,-243.95"/>
<polygon fill="#63b8ff" stroke="#63b8ff" points="952.72,-247.03 961.2,-240.68 950.61,-240.36 952.72,-247.03"/>
</g>
<!-- Node18 -->
<g id="node18" class="node">
<title>Node18</title>
<g id="a_node18"><a xlink:href="cell__coordinate_8h.html" target="_top" xlink:title="Container for {ijk} or {IJK} grouped variables.">
<polygon fill="white" stroke="#666666" points="89.5,-129.75 0,-129.75 0,-110.5 89.5,-110.5 89.5,-129.75"/>
<text text-anchor="middle" x="44.75" y="-116.25" font-family="Helvetica,sans-Serif" font-size="10.00">cell_coordinate.h</text>
</a>
</g>
</g>
<!-- Node5&#45;&gt;Node18 -->
<g id="edge23" class="edge">
<title>Node5&#45;&gt;Node18</title>
<path fill="none" stroke="#63b8ff" d="M801.34,-284.79C707.08,-284.18 328.77,-279.31 217.75,-240.25 153.53,-217.65 90.97,-164.66 61.81,-137.62"/>
<polygon fill="#63b8ff" stroke="#63b8ff" points="64.54,-135.45 54.86,-131.13 59.73,-140.54 64.54,-135.45"/>
</g>
<!-- Node20 -->
<g id="node20" class="node">
<title>Node20</title>
<g id="a_node20"><a xlink:href="dimensions_8h.html" target="_top" xlink:title="Defines a class that serves as an explicit converter between MATLAB pointers and array dimensions.">
<polygon fill="white" stroke="#666666" points="1175.62,-185 1101.88,-185 1101.88,-165.75 1175.62,-165.75 1175.62,-185"/>
<text text-anchor="middle" x="1138.75" y="-171.5" font-family="Helvetica,sans-Serif" font-size="10.00">dimensions.h</text>
</a>
</g>
</g>
<!-- Node5&#45;&gt;Node20 -->
<g id="edge26" class="edge">
<title>Node5&#45;&gt;Node20</title>
<path fill="none" stroke="#63b8ff" d="M844.11,-285.57C889.98,-286.16 1000.13,-282.65 1078.75,-240.25 1099.18,-229.23 1116.57,-208.66 1127.29,-193.83"/>
<polygon fill="#63b8ff" stroke="#63b8ff" points="1130.53,-196.3 1133.33,-186.08 1124.77,-192.32 1130.53,-196.3"/>
</g>
<!-- Node21 -->
<g id="node21" class="node">
<title>Node21</title>
<g id="a_node21"><a xlink:href="mat__io_8h.html" target="_top" xlink:title="Includes MATLAB headers for I/O.">
<polygon fill="white" stroke="#666666" points="1062.5,-74.5 1009,-74.5 1009,-55.25 1062.5,-55.25 1062.5,-74.5"/>
<text text-anchor="middle" x="1035.75" y="-61" font-family="Helvetica,sans-Serif" font-size="10.00">mat_io.h</text>
</a>
</g>
</g>
<!-- Node5&#45;&gt;Node21 -->
<g id="edge38" class="edge">
<title>Node5&#45;&gt;Node21</title>
<path fill="none" stroke="#63b8ff" d="M844.26,-283.61C894.62,-280.2 1018,-269.02 1045.75,-240.25 1086.4,-198.11 1060.04,-120.33 1044.63,-84.65"/>
<polygon fill="#63b8ff" stroke="#63b8ff" points="1047.41,-83.32 1040.11,-75.64 1041.03,-86.2 1047.41,-83.32"/>
</g>
<!-- Node25 -->
<g id="node25" class="node">
<title>Node25</title>
<g id="a_node25"><a xlink:href="input__flags_8h.html" target="_top" xlink:title="Organises enumerated constants, names, and classes for handling flag&#45;variables that are passed to TDM...">
<polygon fill="white" stroke="#666666" points="353.5,-129.75 282,-129.75 282,-110.5 353.5,-110.5 353.5,-129.75"/>
<text text-anchor="middle" x="317.75" y="-116.25" font-family="Helvetica,sans-Serif" font-size="10.00">input_flags.h</text>
</a>
</g>
</g>
<!-- Node5&#45;&gt;Node25 -->
<g id="edge31" class="edge">
<title>Node5&#45;&gt;Node25</title>
<path fill="none" stroke="#63b8ff" d="M801.36,-280.67C765.83,-273.51 692.55,-257.99 631.75,-240.25 560.74,-219.53 543.92,-211.22 474.75,-185 430.87,-168.36 380.74,-147.67 349.17,-134.43"/>
<polygon fill="#63b8ff" stroke="#63b8ff" points="350.78,-130.89 340.21,-130.24 348.07,-137.34 350.78,-130.89"/>
</g>
<!-- Node26 -->
<g id="node26" class="node">
<title>Node26</title>
<g id="a_node26"><a xlink:href="simulation__parameters_8h.html" target="_top" xlink:title="Classes collecting parameters for the simulation.">
<polygon fill="white" stroke="#666666" points="823,-240.25 700.5,-240.25 700.5,-221 823,-221 823,-240.25"/>
<text text-anchor="middle" x="761.75" y="-226.75" font-family="Helvetica,sans-Serif" font-size="10.00">simulation_parameters.h</text>
</a>
</g>
</g>
<!-- Node5&#45;&gt;Node26 -->
<g id="edge39" class="edge">
<title>Node5&#45;&gt;Node26</title>
<path fill="none" stroke="#63b8ff" d="M812.4,-275.84C803.59,-268.15 790.7,-256.9 780.14,-247.68"/>
<polygon fill="#63b8ff" stroke="#63b8ff" points="782.78,-244.46 772.94,-240.52 778.18,-249.74 782.78,-244.46"/>
</g>
<!-- Node6&#45;&gt;Node2 -->
<g id="edge7" class="edge">
<title>Node6&#45;&gt;Node2</title>
<path fill="none" stroke="#63b8ff" d="M483.76,-172.73C420.35,-168.36 259.53,-155.05 212.75,-129.75 192.99,-119.07 176.7,-98.74 166.66,-83.87"/>
<polygon fill="#63b8ff" stroke="#63b8ff" points="169.09,-82.17 160.75,-75.64 163.2,-85.95 169.09,-82.17"/>
</g>
<!-- Node7 -->
<g id="node7" class="node">
<title>Node7</title>
<g id="a_node7"><a xlink:title=" ">
<polygon fill="#e0e0e0" stroke="#999999" points="396.12,-74.5 337.38,-74.5 337.38,-55.25 396.12,-55.25 396.12,-74.5"/>
<text text-anchor="middle" x="366.75" y="-61" font-family="Helvetica,sans-Serif" font-size="10.00">stdexcept</text>
</a>
</g>
</g>
<!-- Node6&#45;&gt;Node7 -->
<g id="edge8" class="edge">
<title>Node6&#45;&gt;Node7</title>
<path fill="none" stroke="#63b8ff" d="M489.44,-165.27C472.41,-157.17 447.89,-144.36 428.75,-129.75 410.61,-115.91 392.77,-96.78 380.92,-83.07"/>
<polygon fill="#63b8ff" stroke="#63b8ff" points="383.18,-81.33 374.05,-75.96 377.84,-85.85 383.18,-81.33"/>
</g>
<!-- Node8 -->
<g id="node8" class="node">
<title>Node8</title>
<g id="a_node8"><a xlink:title=" ">
<polygon fill="#e0e0e0" stroke="#999999" points="737.75,-74.5 697.75,-74.5 697.75,-55.25 737.75,-55.25 737.75,-74.5"/>
<text text-anchor="middle" x="717.75" y="-61" font-family="Helvetica,sans-Serif" font-size="10.00">string</text>
</a>
</g>
</g>
<!-- Node6&#45;&gt;Node8 -->
<g id="edge9" class="edge">
<title>Node6&#45;&gt;Node8</title>
<path fill="none" stroke="#63b8ff" d="M535.84,-170.6C566.59,-165.25 618.36,-153.37 656.75,-129.75 676.46,-117.62 694.14,-97.59 705.32,-83.19"/>
<polygon fill="#63b8ff" stroke="#63b8ff" points="708.5,-85.79 711.69,-75.68 702.9,-81.59 708.5,-85.79"/>
</g>
<!-- Node9 -->
<g id="node9" class="node">
<title>Node9</title>
<g id="a_node9"><a xlink:title=" ">
<polygon fill="#e0e0e0" stroke="#999999" points="457.25,-74.5 414.25,-74.5 414.25,-55.25 457.25,-55.25 457.25,-74.5"/>
<text text-anchor="middle" x="435.75" y="-61" font-family="Helvetica,sans-Serif" font-size="10.00">vector</text>
</a>
</g>
</g>
<!-- Node6&#45;&gt;Node9 -->
<g id="edge10" class="edge">
<title>Node6&#45;&gt;Node9</title>
<path fill="none" stroke="#63b8ff" d="M484.59,-165.28C468.84,-158.17 449.71,-146.63 439.75,-129.75 431.97,-116.56 431.41,-99.06 432.55,-85.71"/>
<polygon fill="#63b8ff" stroke="#63b8ff" points="436.14,-86.23 433.91,-75.87 429.19,-85.35 436.14,-86.23"/>
</g>
<!-- Node10 -->
<g id="node10" class="node">
<title>Node10</title>
<g id="a_node10"><a xlink:title=" ">
<polygon fill="#e0e0e0" stroke="#999999" points="567.75,-129.75 521.75,-129.75 521.75,-110.5 567.75,-110.5 567.75,-129.75"/>
<text text-anchor="middle" x="544.75" y="-116.25" font-family="Helvetica,sans-Serif" font-size="10.00">fftw3.h</text>
</a>
</g>
</g>
<!-- Node6&#45;&gt;Node10 -->
<g id="edge11" class="edge">
<title>Node6&#45;&gt;Node10</title>
<path fill="none" stroke="#63b8ff" d="M515.53,-165.58C520.21,-158.46 526.97,-148.18 532.81,-139.3"/>
<polygon fill="#63b8ff" stroke="#63b8ff" points="536.28,-141.39 538.84,-131.11 530.43,-137.54 536.28,-141.39"/>
</g>
<!-- Node11 -->
<g id="node11" class="node">
<title>Node11</title>
<g id="a_node11"><a xlink:href="globals_8h.html" target="_top" xlink:title="Type definitions and global constants.">
<polygon fill="white" stroke="#666666" points="503.25,-129.75 448.25,-129.75 448.25,-110.5 503.25,-110.5 503.25,-129.75"/>
<text text-anchor="middle" x="475.75" y="-116.25" font-family="Helvetica,sans-Serif" font-size="10.00">globals.h</text>
</a>
</g>
</g>
<!-- Node6&#45;&gt;Node11 -->
<g id="edge12" class="edge">
<title>Node6&#45;&gt;Node11</title>
<path fill="none" stroke="#63b8ff" d="M504.14,-165.58C499.59,-158.46 493.02,-148.18 487.35,-139.3"/>
<polygon fill="#63b8ff" stroke="#63b8ff" points="489.82,-137.65 481.49,-131.11 483.92,-141.42 489.82,-137.65"/>
</g>
<!-- Node12 -->
<g id="node12" class="node">
<title>Node12</title>
<g id="a_node12"><a xlink:title=" ">
<polygon fill="#e0e0e0" stroke="#999999" points="647.25,-129.75 586.25,-129.75 586.25,-110.5 647.25,-110.5 647.25,-129.75"/>
<text text-anchor="middle" x="616.75" y="-116.25" font-family="Helvetica,sans-Serif" font-size="10.00">matlabio.h</text>
</a>
</g>
</g>
<!-- Node6&#45;&gt;Node12 -->
<g id="edge15" class="edge">
<title>Node6&#45;&gt;Node12</title>
<path fill="none" stroke="#63b8ff" d="M527.9,-165.34C544.58,-157.04 569.55,-144.61 588.78,-135.04"/>
<polygon fill="#63b8ff" stroke="#63b8ff" points="590.12,-137.79 597.51,-130.2 587,-131.52 590.12,-137.79"/>
</g>
<!-- Node6&#45;&gt;Node13 -->
<g id="edge16" class="edge">
<title>Node6&#45;&gt;Node13</title>
<path fill="none" stroke="#63b8ff" d="M483.63,-170.28C441.58,-163.51 356.12,-149.03 274.73,-130.05"/>
<polygon fill="#63b8ff" stroke="#63b8ff" points="275.85,-126.48 265.32,-127.59 274.24,-133.29 275.85,-126.48"/>
</g>
<!-- Node11&#45;&gt;Node2 -->
<g id="edge13" class="edge">
<title>Node11&#45;&gt;Node2</title>
<path fill="none" stroke="#63b8ff" d="M448.1,-115.6C398.76,-109.15 292.15,-94.41 192.95,-74.81"/>
<polygon fill="#63b8ff" stroke="#63b8ff" points="193.94,-71.24 183.45,-72.71 192.57,-78.1 193.94,-71.24"/>
</g>
<!-- Node11&#45;&gt;Node8 -->
<g id="edge14" class="edge">
<title>Node11&#45;&gt;Node8</title>
<path fill="none" stroke="#63b8ff" d="M503.62,-112.58C506.7,-111.87 509.79,-111.17 512.75,-110.5 574.33,-96.62 646.48,-81.08 686.67,-72.49"/>
<polygon fill="#63b8ff" stroke="#63b8ff" points="687.31,-75.72 696.36,-70.21 685.85,-68.87 687.31,-75.72"/>
</g>
<!-- Node13&#45;&gt;Node8 -->
<g id="edge19" class="edge">
<title>Node13&#45;&gt;Node8</title>
<path fill="none" stroke="#63b8ff" d="M264.27,-112.44C267.1,-111.7 269.98,-111.03 272.75,-110.5 426.55,-80.93 614.25,-70.25 686.95,-67.05"/>
<polygon fill="#63b8ff" stroke="#63b8ff" points="686.76,-70.52 696.61,-66.6 686.47,-63.53 686.76,-70.52"/>
</g>
<!-- Node13&#45;&gt;Node9 -->
<g id="edge20" class="edge">
<title>Node13&#45;&gt;Node9</title>
<path fill="none" stroke="#63b8ff" d="M264.37,-112.87C267.19,-112.07 270.04,-111.26 272.75,-110.5 328.22,-94.96 344.44,-91.05 403.75,-74.76"/>
<polygon fill="#63b8ff" stroke="#63b8ff" points="404.36,-77.95 413.07,-71.92 402.5,-71.2 404.36,-77.95"/>
</g>
<!-- Node14 -->
<g id="node14" class="node">
<title>Node14</title>
<g id="a_node14"><a xlink:title=" ">
<polygon fill="#e0e0e0" stroke="#999999" points="319.62,-74.5 263.88,-74.5 263.88,-55.25 319.62,-55.25 319.62,-74.5"/>
<text text-anchor="middle" x="291.75" y="-61" font-family="Helvetica,sans-Serif" font-size="10.00">algorithm</text>
</a>
</g>
</g>
<!-- Node13&#45;&gt;Node14 -->
<g id="edge17" class="edge">
<title>Node13&#45;&gt;Node14</title>
<path fill="none" stroke="#63b8ff" d="M250.84,-110.33C257.68,-102.9 267.68,-92.04 276.07,-82.91"/>
<polygon fill="#63b8ff" stroke="#63b8ff" points="278.29,-85.59 282.48,-75.86 273.14,-80.85 278.29,-85.59"/>
</g>
<!-- Node15 -->
<g id="node15" class="node">
<title>Node15</title>
<g id="a_node15"><a xlink:title=" ">
<polygon fill="#e0e0e0" stroke="#999999" points="245.75,-74.5 199.75,-74.5 199.75,-55.25 245.75,-55.25 245.75,-74.5"/>
<text text-anchor="middle" x="222.75" y="-61" font-family="Helvetica,sans-Serif" font-size="10.00">iterator</text>
</a>
</g>
</g>
<!-- Node13&#45;&gt;Node15 -->
<g id="edge18" class="edge">
<title>Node13&#45;&gt;Node15</title>
<path fill="none" stroke="#63b8ff" d="M239.45,-110.33C236.86,-103.44 233.16,-93.59 229.9,-84.91"/>
<polygon fill="#63b8ff" stroke="#63b8ff" points="232.92,-83.99 226.12,-75.86 226.36,-86.45 232.92,-83.99"/>
</g>
<!-- Node18&#45;&gt;Node14 -->
<g id="edge25" class="edge">
<title>Node18&#45;&gt;Node14</title>
<path fill="none" stroke="#63b8ff" d="M88.65,-110.06C128.93,-101.68 190.53,-88.72 253.04,-74.85"/>
<polygon fill="#63b8ff" stroke="#63b8ff" points="253.48,-78.11 262.48,-72.52 251.96,-71.28 253.48,-78.11"/>
</g>
<!-- Node19 -->
<g id="node19" class="node">
<title>Node19</title>
<g id="a_node19"><a xlink:title=" ">
<polygon fill="#e0e0e0" stroke="#999999" points="98.88,-74.5 14.62,-74.5 14.62,-55.25 98.88,-55.25 98.88,-74.5"/>
<text text-anchor="middle" x="56.75" y="-61" font-family="Helvetica,sans-Serif" font-size="10.00">spdlog/spdlog.h</text>
</a>
</g>
</g>
<!-- Node18&#45;&gt;Node19 -->
<g id="edge24" class="edge">
<title>Node18&#45;&gt;Node19</title>
<path fill="none" stroke="#63b8ff" d="M46.73,-110.33C48.25,-103.59 50.41,-94.02 52.33,-85.49"/>
<polygon fill="#63b8ff" stroke="#63b8ff" points="55.94,-86.38 54.73,-75.86 49.11,-84.85 55.94,-86.38"/>
</g>
<!-- Node20&#45;&gt;Node21 -->
<g id="edge27" class="edge">
<title>Node20&#45;&gt;Node21</title>
<path fill="none" stroke="#63b8ff" d="M1132.32,-165.26C1123.1,-152.46 1105.29,-128.67 1087.75,-110.5 1077.88,-100.28 1065.9,-89.88 1055.93,-81.7"/>
<polygon fill="#63b8ff" stroke="#63b8ff" points="1058.44,-78.42 1048.46,-74.87 1054.05,-83.87 1058.44,-78.42"/>
</g>
<!-- Node22 -->
<g id="node22" class="node">
<title>Node22</title>
<g id="a_node22"><a xlink:title=" ">
<polygon fill="#e0e0e0" stroke="#999999" points="992.12,-19.25 951.38,-19.25 951.38,0 992.12,0 992.12,-19.25"/>
<text text-anchor="middle" x="971.75" y="-5.75" font-family="Helvetica,sans-Serif" font-size="10.00">mat.h</text>
</a>
</g>
</g>
<!-- Node21&#45;&gt;Node22 -->
<g id="edge28" class="edge">
<title>Node21&#45;&gt;Node22</title>
<path fill="none" stroke="#63b8ff" d="M1024.89,-54.84C1015.55,-47.07 1001.86,-35.67 990.71,-26.4"/>
<polygon fill="#63b8ff" stroke="#63b8ff" points="993.37,-23.23 983.45,-19.52 988.89,-28.61 993.37,-23.23"/>
</g>
<!-- Node23 -->
<g id="node23" class="node">
<title>Node23</title>
<g id="a_node23"><a xlink:title=" ">
<polygon fill="#e0e0e0" stroke="#999999" points="1061.38,-19.25 1010.12,-19.25 1010.12,0 1061.38,0 1061.38,-19.25"/>
<text text-anchor="middle" x="1035.75" y="-5.75" font-family="Helvetica,sans-Serif" font-size="10.00">matrix.h</text>
</a>
</g>
</g>
<!-- Node21&#45;&gt;Node23 -->
<g id="edge29" class="edge">
<title>Node21&#45;&gt;Node23</title>
<path fill="none" stroke="#63b8ff" d="M1035.75,-55.08C1035.75,-48.42 1035.75,-38.99 1035.75,-30.53"/>
<polygon fill="#63b8ff" stroke="#63b8ff" points="1039.25,-30.61 1035.75,-20.61 1032.25,-30.61 1039.25,-30.61"/>
</g>
<!-- Node24 -->
<g id="node24" class="node">
<title>Node24</title>
<g id="a_node24"><a xlink:title=" ">
<polygon fill="#e0e0e0" stroke="#999999" points="1122.25,-19.25 1079.25,-19.25 1079.25,0 1122.25,0 1122.25,-19.25"/>
<text text-anchor="middle" x="1100.75" y="-5.75" font-family="Helvetica,sans-Serif" font-size="10.00">mex.h</text>
</a>
</g>
</g>
<!-- Node21&#45;&gt;Node24 -->
<g id="edge30" class="edge">
<title>Node21&#45;&gt;Node24</title>
<path fill="none" stroke="#63b8ff" d="M1046.78,-54.84C1056.26,-47.07 1070.17,-35.67 1081.5,-26.4"/>
<polygon fill="#63b8ff" stroke="#63b8ff" points="1083.37,-28.57 1088.89,-19.52 1078.93,-23.15 1083.37,-28.57"/>
</g>
<!-- Node25&#45;&gt;Node7 -->
<g id="edge33" class="edge">
<title>Node25&#45;&gt;Node7</title>
<path fill="none" stroke="#63b8ff" d="M325.84,-110.33C332.68,-102.9 342.68,-92.04 351.07,-82.91"/>
<polygon fill="#63b8ff" stroke="#63b8ff" points="353.29,-85.59 357.48,-75.86 348.14,-80.85 353.29,-85.59"/>
</g>
<!-- Node25&#45;&gt;Node8 -->
<g id="edge34" class="edge">
<title>Node25&#45;&gt;Node8</title>
<path fill="none" stroke="#63b8ff" d="M353.95,-114.31C431.72,-103.95 613.57,-79.74 686.59,-70.02"/>
<polygon fill="#63b8ff" stroke="#63b8ff" points="686.89,-73.38 696.34,-68.59 685.97,-66.44 686.89,-73.38"/>
</g>
<!-- Node25&#45;&gt;Node9 -->
<g id="edge35" class="edge">
<title>Node25&#45;&gt;Node9</title>
<path fill="none" stroke="#63b8ff" d="M337.77,-110.09C356.41,-101.68 384.47,-89.02 405.78,-79.4"/>
<polygon fill="#63b8ff" stroke="#63b8ff" points="406.96,-82.26 414.63,-74.95 404.08,-75.88 406.96,-82.26"/>
</g>
<!-- Node25&#45;&gt;Node14 -->
<g id="edge32" class="edge">
<title>Node25&#45;&gt;Node14</title>
<path fill="none" stroke="#63b8ff" d="M313.46,-110.33C310.05,-103.36 305.17,-93.37 300.9,-84.62"/>
<polygon fill="#63b8ff" stroke="#63b8ff" points="303.67,-83.31 296.14,-75.86 297.38,-86.38 303.67,-83.31"/>
</g>
<!-- Node25&#45;&gt;Node19 -->
<g id="edge36" class="edge">
<title>Node25&#45;&gt;Node19</title>
<path fill="none" stroke="#63b8ff" d="M281.73,-111.78C237.21,-102.69 161.07,-87.16 109.85,-76.71"/>
<polygon fill="#63b8ff" stroke="#63b8ff" points="110.81,-73.13 100.32,-74.56 109.42,-79.99 110.81,-73.13"/>
</g>
<!-- Node25&#45;&gt;Node21 -->
<g id="edge37" class="edge">
<title>Node25&#45;&gt;Node21</title>
<path fill="none" stroke="#63b8ff" d="M353.85,-116.45C476.01,-107.39 873.23,-77.93 997.93,-68.68"/>
<polygon fill="#63b8ff" stroke="#63b8ff" points="998.08,-72.1 1007.8,-67.87 997.57,-65.12 998.08,-72.1"/>
</g>
<!-- Node26&#45;&gt;Node4 -->
<g id="edge42" class="edge">
<title>Node26&#45;&gt;Node4</title>
<path fill="none" stroke="#63b8ff" d="M799.66,-220.53C837.18,-211.53 894.74,-197.73 935.5,-187.95"/>
<polygon fill="#63b8ff" stroke="#63b8ff" points="936.09,-191.17 945,-185.43 934.45,-184.36 936.09,-191.17"/>
</g>
<!-- Node26&#45;&gt;Node6 -->
<g id="edge41" class="edge">
<title>Node26&#45;&gt;Node6</title>
<path fill="none" stroke="#63b8ff" d="M718.72,-220.53C670.15,-210.27 591.97,-193.75 546.26,-184.09"/>
<polygon fill="#63b8ff" stroke="#63b8ff" points="547.16,-180.49 536.65,-181.85 545.71,-187.34 547.16,-180.49"/>
</g>
<!-- Node26&#45;&gt;Node8 -->
<g id="edge40" class="edge">
<title>Node26&#45;&gt;Node8</title>
<path fill="none" stroke="#63b8ff" d="M786.78,-220.66C809.9,-212.17 845.06,-198.69 874.75,-185 877.72,-183.63 977.06,-132.55 978.75,-129.75 983.16,-122.42 984.27,-117.04 978.75,-110.5 949.66,-76.01 811.74,-68.18 748.98,-66.4"/>
<polygon fill="#63b8ff" stroke="#63b8ff" points="749.26,-62.88 739.18,-66.13 749.09,-69.88 749.26,-62.88"/>
</g>
<!-- Node27 -->
<g id="node27" class="node">
<title>Node27</title>
<g id="a_node27"><a xlink:href="input__matrices_8h.html" target="_top" xlink:title="Class handling the input matrices that are read in from the input file.">
<polygon fill="white" stroke="#666666" points="865.75,-185 777.75,-185 777.75,-165.75 865.75,-165.75 865.75,-185"/>
<text text-anchor="middle" x="821.75" y="-171.5" font-family="Helvetica,sans-Serif" font-size="10.00">input_matrices.h</text>
</a>
</g>
</g>
<!-- Node26&#45;&gt;Node27 -->
<g id="edge43" class="edge">
<title>Node26&#45;&gt;Node27</title>
<path fill="none" stroke="#63b8ff" d="M771.93,-220.59C780.6,-212.9 793.27,-201.65 803.67,-192.43"/>
<polygon fill="#63b8ff" stroke="#63b8ff" points="805.57,-195.53 810.72,-186.27 800.92,-190.29 805.57,-195.53"/>
</g>
<!-- Node27&#45;&gt;Node8 -->
<g id="edge44" class="edge">
<title>Node27&#45;&gt;Node8</title>
<path fill="none" stroke="#63b8ff" d="M825.17,-165.66C829.71,-152.5 835.95,-127.31 824.75,-110.5 807.93,-85.26 773.83,-74.27 748.63,-69.5"/>
<polygon fill="#63b8ff" stroke="#63b8ff" points="749.55,-65.94 739.11,-67.77 748.41,-72.85 749.55,-65.94"/>
</g>
<!-- Node27&#45;&gt;Node21 -->
<g id="edge48" class="edge">
<title>Node27&#45;&gt;Node21</title>
<path fill="none" stroke="#63b8ff" d="M866.1,-168.6C899.13,-162.74 944.29,-151.33 978.75,-129.75 997.58,-117.96 1013.86,-98.15 1024.14,-83.72"/>
<polygon fill="#63b8ff" stroke="#63b8ff" points="1027.52,-85.98 1030.26,-75.75 1021.73,-82.03 1027.52,-85.98"/>
</g>
<!-- Node28 -->
<g id="node28" class="node">
<title>Node28</title>
<g id="a_node28"><a xlink:href="input__output__names_8h.html" target="_top" xlink:title="Constant values associated with the format of the input and output files and matrices.">
<polygon fill="white" stroke="#666666" points="815.75,-129.75 703.75,-129.75 703.75,-110.5 815.75,-110.5 815.75,-129.75"/>
<text text-anchor="middle" x="759.75" y="-116.25" font-family="Helvetica,sans-Serif" font-size="10.00">input_output_names.h</text>
</a>
</g>
</g>
<!-- Node27&#45;&gt;Node28 -->
<g id="edge45" class="edge">
<title>Node27&#45;&gt;Node28</title>
<path fill="none" stroke="#63b8ff" d="M811.23,-165.34C802.27,-157.65 789.18,-146.4 778.44,-137.18"/>
<polygon fill="#63b8ff" stroke="#63b8ff" points="780.98,-133.89 771.11,-130.02 776.42,-139.2 780.98,-133.89"/>
</g>
<!-- Node29 -->
<g id="node29" class="node">
<title>Node29</title>
<g id="a_node29"><a xlink:href="matrix__collection_8h.html" target="_top" xlink:title="A collection of named MATLAB matrices.">
<polygon fill="white" stroke="#666666" points="969.62,-129.75 871.88,-129.75 871.88,-110.5 969.62,-110.5 969.62,-129.75"/>
<text text-anchor="middle" x="920.75" y="-116.25" font-family="Helvetica,sans-Serif" font-size="10.00">matrix_collection.h</text>
</a>
</g>
</g>
<!-- Node27&#45;&gt;Node29 -->
<g id="edge49" class="edge">
<title>Node27&#45;&gt;Node29</title>
<path fill="none" stroke="#63b8ff" d="M838.54,-165.34C853.9,-157.08 876.87,-144.73 894.63,-135.18"/>
<polygon fill="#63b8ff" stroke="#63b8ff" points="895.72,-138.02 902.87,-130.2 892.41,-131.86 895.72,-138.02"/>
</g>
<!-- Node28&#45;&gt;Node8 -->
<g id="edge46" class="edge">
<title>Node28&#45;&gt;Node8</title>
<path fill="none" stroke="#63b8ff" d="M752.81,-110.33C747.07,-103.05 738.74,-92.48 731.63,-83.48"/>
<polygon fill="#63b8ff" stroke="#63b8ff" points="733.78,-81.54 724.84,-75.86 728.28,-85.88 733.78,-81.54"/>
</g>
<!-- Node28&#45;&gt;Node9 -->
<g id="edge47" class="edge">
<title>Node28&#45;&gt;Node9</title>
<path fill="none" stroke="#63b8ff" d="M704.42,-110.03C636.45,-98.86 523.37,-80.28 468.12,-71.2"/>
<polygon fill="#63b8ff" stroke="#63b8ff" points="469,-67.63 458.56,-69.46 467.86,-74.54 469,-67.63"/>
</g>
<!-- Node29&#45;&gt;Node8 -->
<g id="edge50" class="edge">
<title>Node29&#45;&gt;Node8</title>
<path fill="none" stroke="#63b8ff" d="M886.31,-110.09C847.6,-99.94 785.33,-83.6 748.29,-73.89"/>
<polygon fill="#63b8ff" stroke="#63b8ff" points="749.67,-70.37 739.11,-71.22 747.89,-77.14 749.67,-70.37"/>
</g>
<!-- Node29&#45;&gt;Node9 -->
<g id="edge51" class="edge">
<title>Node29&#45;&gt;Node9</title>
<path fill="none" stroke="#63b8ff" d="M871.58,-113.73C772.67,-102.87 552.03,-78.64 468.58,-69.48"/>
<polygon fill="#63b8ff" stroke="#63b8ff" points="469.06,-65.9 458.74,-68.29 468.3,-72.86 469.06,-65.9"/>
</g>
<!-- Node29&#45;&gt;Node21 -->
<g id="edge52" class="edge">
<title>Node29&#45;&gt;Node21</title>
<path fill="none" stroke="#63b8ff" d="M940.26,-110.09C958.35,-101.72 985.52,-89.13 1006.26,-79.53"/>
<polygon fill="#63b8ff" stroke="#63b8ff" points="1007.54,-82.33 1015.15,-74.95 1004.6,-75.98 1007.54,-82.33"/>
</g>
<!-- Node30&#45;&gt;Node21 -->
<g id="edge54" class="edge">
<title>Node30&#45;&gt;Node21</title>
<path fill="none" stroke="#63b8ff" d="M1204.51,-276.03C1205.86,-255.16 1206.75,-201.88 1184.75,-165.75 1158.58,-122.78 1106.1,-94.27 1070.94,-79.08"/>
<polygon fill="#63b8ff" stroke="#63b8ff" points="1072.65,-75.59 1062.08,-74.97 1069.96,-82.05 1072.65,-75.59"/>
</g>
</g>
</svg>
