<?xml version="1.0" encoding="UTF-8" standalone="no"?>
<!DOCTYPE svg PUBLIC "-//W3C//DTD SVG 1.1//EN"
 "http://www.w3.org/Graphics/SVG/1.1/DTD/svg11.dtd">
<!-- Generated by graphviz version 8.0.5 (20230430.1635)
 -->
<!-- Title: tdms/include/vertex_phasors.h Pages: 1 -->
<svg width="972pt" height="370pt"
 viewBox="0.00 0.00 972.43 370.00" xmlns="http://www.w3.org/2000/svg" xmlns:xlink="http://www.w3.org/1999/xlink">
<g id="graph0" class="graph" transform="scale(1 1) rotate(0) translate(4 366)">
<title>tdms/include/vertex_phasors.h</title>
<!-- Node1 -->
<g id="node1" class="node">
<title>Node1</title>
<g id="a_node1"><a xlink:title="Contains a class that handles the complex amplitude extraction at the vertices.">
<polygon fill="#999999" stroke="#666666" points="337.75,-362 236.25,-362 236.25,-331.5 337.75,-331.5 337.75,-362"/>
<text text-anchor="start" x="244.25" y="-348.5" font-family="Helvetica,sans-Serif" font-size="10.00">tdms/include/vertex</text>
<text text-anchor="middle" x="287" y="-337.25" font-family="Helvetica,sans-Serif" font-size="10.00">_phasors.h</text>
</a>
</g>
</g>
<!-- Node2 -->
<g id="node2" class="node">
<title>Node2</title>
<g id="a_node2"><a xlink:title=" ">
<polygon fill="#e0e0e0" stroke="#999999" points="92.38,-74.5 39.62,-74.5 39.62,-55.25 92.38,-55.25 92.38,-74.5"/>
<text text-anchor="middle" x="66" y="-61" font-family="Helvetica,sans-Serif" font-size="10.00">complex</text>
</a>
</g>
</g>
<!-- Node1&#45;&gt;Node2 -->
<g id="edge1" class="edge">
<title>Node1&#45;&gt;Node2</title>
<path fill="none" stroke="#63b8ff" d="M236.02,-336.34C153.55,-319.65 0,-281.83 0,-231.62 0,-231.62 0,-231.62 0,-174.38 0,-137.33 28.42,-102.18 47.97,-82.39"/>
<polygon fill="#63b8ff" stroke="#63b8ff" points="49.95,-85.37 54.69,-75.89 45.08,-80.35 49.95,-85.37"/>
</g>
<!-- Node3 -->
<g id="node3" class="node">
<title>Node3</title>
<g id="a_node3"><a xlink:href="arrays_8h.html" target="_top" xlink:title="Classes describing arrays, vertices etc.">
<polygon fill="white" stroke="#666666" points="376.62,-185 325.38,-185 325.38,-165.75 376.62,-165.75 376.62,-185"/>
<text text-anchor="middle" x="351" y="-171.5" font-family="Helvetica,sans-Serif" font-size="10.00">arrays.h</text>
</a>
</g>
</g>
<!-- Node1&#45;&gt;Node3 -->
<g id="edge2" class="edge">
<title>Node1&#45;&gt;Node3</title>
<path fill="none" stroke="#63b8ff" d="M289.39,-331.11C291.95,-316.86 296.53,-294.71 303,-276.25 313.31,-246.84 329.79,-214.66 340.51,-194.99"/>
<polygon fill="#63b8ff" stroke="#63b8ff" points="344.01,-196.89 345.79,-186.44 337.89,-193.5 344.01,-196.89"/>
</g>
<!-- Node10 -->
<g id="node10" class="node">
<title>Node10</title>
<g id="a_node10"><a xlink:href="field_8h.html" target="_top" xlink:title="Classes for the electric and magnetic (split) fields on a grid.">
<polygon fill="white" stroke="#666666" points="354.12,-295.5 311.88,-295.5 311.88,-276.25 354.12,-276.25 354.12,-295.5"/>
<text text-anchor="middle" x="333" y="-282" font-family="Helvetica,sans-Serif" font-size="10.00">field.h</text>
</a>
</g>
</g>
<!-- Node1&#45;&gt;Node10 -->
<g id="edge13" class="edge">
<title>Node1&#45;&gt;Node10</title>
<path fill="none" stroke="#63b8ff" d="M298.37,-331.2C304.7,-323.09 312.63,-312.95 319.3,-304.41"/>
<polygon fill="#63b8ff" stroke="#63b8ff" points="322.51,-306.99 325.91,-296.95 316.99,-302.68 322.51,-306.99"/>
</g>
<!-- Node24 -->
<g id="node24" class="node">
<title>Node24</title>
<g id="a_node24"><a xlink:href="grid__labels_8h.html" target="_top" xlink:title="Class to hold the labels of a Yee cell.">
<polygon fill="white" stroke="#666666" points="726.38,-295.5 655.62,-295.5 655.62,-276.25 726.38,-276.25 726.38,-295.5"/>
<text text-anchor="middle" x="691" y="-282" font-family="Helvetica,sans-Serif" font-size="10.00">grid_labels.h</text>
</a>
</g>
</g>
<!-- Node1&#45;&gt;Node24 -->
<g id="edge39" class="edge">
<title>Node1&#45;&gt;Node24</title>
<path fill="none" stroke="#63b8ff" d="M338.17,-338.29C417.4,-326.75 568.55,-304.72 644.71,-293.62"/>
<polygon fill="#63b8ff" stroke="#63b8ff" points="644.99,-296.97 654.38,-292.07 643.98,-290.04 644.99,-296.97"/>
</g>
<!-- Node3&#45;&gt;Node2 -->
<g id="edge3" class="edge">
<title>Node3&#45;&gt;Node2</title>
<path fill="none" stroke="#63b8ff" d="M324.9,-168.45C278.08,-157.76 183.36,-135.78 169,-129.75 138.49,-116.93 106.6,-95.76 86.53,-81.33"/>
<polygon fill="#63b8ff" stroke="#63b8ff" points="88.83,-77.94 78.69,-74.86 84.69,-83.59 88.83,-77.94"/>
</g>
<!-- Node4 -->
<g id="node4" class="node">
<title>Node4</title>
<g id="a_node4"><a xlink:title=" ">
<polygon fill="#e0e0e0" stroke="#999999" points="380.38,-129.75 321.62,-129.75 321.62,-110.5 380.38,-110.5 380.38,-129.75"/>
<text text-anchor="middle" x="351" y="-116.25" font-family="Helvetica,sans-Serif" font-size="10.00">stdexcept</text>
</a>
</g>
</g>
<!-- Node3&#45;&gt;Node4 -->
<g id="edge4" class="edge">
<title>Node3&#45;&gt;Node4</title>
<path fill="none" stroke="#63b8ff" d="M351,-165.58C351,-158.92 351,-149.49 351,-141.03"/>
<polygon fill="#63b8ff" stroke="#63b8ff" points="354.5,-141.11 351,-131.11 347.5,-141.11 354.5,-141.11"/>
</g>
<!-- Node5 -->
<g id="node5" class="node">
<title>Node5</title>
<g id="a_node5"><a xlink:title=" ">
<polygon fill="#e0e0e0" stroke="#999999" points="527,-74.5 487,-74.5 487,-55.25 527,-55.25 527,-74.5"/>
<text text-anchor="middle" x="507" y="-61" font-family="Helvetica,sans-Serif" font-size="10.00">string</text>
</a>
</g>
</g>
<!-- Node3&#45;&gt;Node5 -->
<g id="edge5" class="edge">
<title>Node3&#45;&gt;Node5</title>
<path fill="none" stroke="#63b8ff" d="M376.98,-166.06C397.93,-158.59 427.5,-146.25 450,-129.75 467.72,-116.75 483.99,-97.46 494.57,-83.48"/>
<polygon fill="#63b8ff" stroke="#63b8ff" points="497.85,-85.93 500.93,-75.79 492.2,-81.79 497.85,-85.93"/>
</g>
<!-- Node6 -->
<g id="node6" class="node">
<title>Node6</title>
<g id="a_node6"><a xlink:title=" ">
<polygon fill="#e0e0e0" stroke="#999999" points="224,-129.75 178,-129.75 178,-110.5 224,-110.5 224,-129.75"/>
<text text-anchor="middle" x="201" y="-116.25" font-family="Helvetica,sans-Serif" font-size="10.00">fftw3.h</text>
</a>
</g>
</g>
<!-- Node3&#45;&gt;Node6 -->
<g id="edge6" class="edge">
<title>Node3&#45;&gt;Node6</title>
<path fill="none" stroke="#63b8ff" d="M325.55,-165.34C300.47,-156.44 261.99,-142.78 234.44,-133"/>
<polygon fill="#63b8ff" stroke="#63b8ff" points="235.7,-129.37 225.1,-129.33 233.36,-135.97 235.7,-129.37"/>
</g>
<!-- Node7 -->
<g id="node7" class="node">
<title>Node7</title>
<g id="a_node7"><a xlink:href="globals_8h.html" target="_top" xlink:title="Type definitions and global constants.">
<polygon fill="white" stroke="#666666" points="121.5,-129.75 66.5,-129.75 66.5,-110.5 121.5,-110.5 121.5,-129.75"/>
<text text-anchor="middle" x="94" y="-116.25" font-family="Helvetica,sans-Serif" font-size="10.00">globals.h</text>
</a>
</g>
</g>
<!-- Node3&#45;&gt;Node7 -->
<g id="edge7" class="edge">
<title>Node3&#45;&gt;Node7</title>
<path fill="none" stroke="#63b8ff" d="M325.19,-168.77C320.47,-167.76 315.59,-166.72 311,-165.75 302.28,-163.91 192.31,-141.32 132.36,-129"/>
<polygon fill="#63b8ff" stroke="#63b8ff" points="133.29,-125.42 122.79,-126.83 131.88,-132.27 133.29,-125.42"/>
</g>
<!-- Node8 -->
<g id="node8" class="node">
<title>Node8</title>
<g id="a_node8"><a xlink:title=" ">
<polygon fill="#e0e0e0" stroke="#999999" points="303.5,-129.75 242.5,-129.75 242.5,-110.5 303.5,-110.5 303.5,-129.75"/>
<text text-anchor="middle" x="273" y="-116.25" font-family="Helvetica,sans-Serif" font-size="10.00">matlabio.h</text>
</a>
</g>
</g>
<!-- Node3&#45;&gt;Node8 -->
<g id="edge10" class="edge">
<title>Node3&#45;&gt;Node8</title>
<path fill="none" stroke="#63b8ff" d="M337.77,-165.34C326.11,-157.39 308.9,-145.64 295.15,-136.25"/>
<polygon fill="#63b8ff" stroke="#63b8ff" points="297.53,-132.95 287.3,-130.2 293.58,-138.73 297.53,-132.95"/>
</g>
<!-- Node9 -->
<g id="node9" class="node">
<title>Node9</title>
<g id="a_node9"><a xlink:href="utils_8h.html" target="_top" xlink:title="Useful miscellaneous utility functions.">
<polygon fill="white" stroke="#666666" points="441.12,-129.75 398.88,-129.75 398.88,-110.5 441.12,-110.5 441.12,-129.75"/>
<text text-anchor="middle" x="420" y="-116.25" font-family="Helvetica,sans-Serif" font-size="10.00">utils.h</text>
</a>
</g>
</g>
<!-- Node3&#45;&gt;Node9 -->
<g id="edge11" class="edge">
<title>Node3&#45;&gt;Node9</title>
<path fill="none" stroke="#63b8ff" d="M362.7,-165.34C372.88,-157.49 387.83,-145.95 399.92,-136.62"/>
<polygon fill="#63b8ff" stroke="#63b8ff" points="401.69,-138.91 407.47,-130.02 397.41,-133.36 401.69,-138.91"/>
</g>
<!-- Node7&#45;&gt;Node2 -->
<g id="edge8" class="edge">
<title>Node7&#45;&gt;Node2</title>
<path fill="none" stroke="#63b8ff" d="M89.38,-110.33C85.67,-103.28 80.34,-93.15 75.71,-84.33"/>
<polygon fill="#63b8ff" stroke="#63b8ff" points="78.48,-83.08 70.72,-75.86 72.28,-86.34 78.48,-83.08"/>
</g>
<!-- Node7&#45;&gt;Node5 -->
<g id="edge9" class="edge">
<title>Node7&#45;&gt;Node5</title>
<path fill="none" stroke="#63b8ff" d="M121.74,-115.55C195.86,-105.99 398.18,-79.91 475.96,-69.88"/>
<polygon fill="#63b8ff" stroke="#63b8ff" points="476.03,-73.27 485.5,-68.52 475.14,-66.33 476.03,-73.27"/>
</g>
<!-- Node9&#45;&gt;Node5 -->
<g id="edge12" class="edge">
<title>Node9&#45;&gt;Node5</title>
<path fill="none" stroke="#63b8ff" d="M434.76,-110.09C448.01,-101.98 467.69,-89.93 483.17,-80.46"/>
<polygon fill="#63b8ff" stroke="#63b8ff" points="484.47,-83.16 491.17,-74.95 480.81,-77.19 484.47,-83.16"/>
</g>
<!-- Node10&#45;&gt;Node2 -->
<g id="edge14" class="edge">
<title>Node10&#45;&gt;Node2</title>
<path fill="none" stroke="#63b8ff" d="M311.47,-283.95C273.66,-281.5 193.85,-272.59 136,-240.25 83.31,-210.79 69.73,-188.76 57,-129.75 53.78,-114.83 56.54,-97.69 59.82,-84.93"/>
<polygon fill="#63b8ff" stroke="#63b8ff" points="63.39,-86.2 62.83,-75.62 56.67,-84.24 63.39,-86.2"/>
</g>
<!-- Node10&#45;&gt;Node3 -->
<g id="edge15" class="edge">
<title>Node10&#45;&gt;Node3</title>
<path fill="none" stroke="#63b8ff" d="M334.47,-276C337.36,-258.59 343.83,-219.62 347.76,-195.91"/>
<polygon fill="#63b8ff" stroke="#63b8ff" points="351.32,-196.81 349.51,-186.38 344.42,-195.67 351.32,-196.81"/>
</g>
<!-- Node10&#45;&gt;Node7 -->
<g id="edge24" class="edge">
<title>Node10&#45;&gt;Node7</title>
<path fill="none" stroke="#63b8ff" d="M329.93,-275.8C321.9,-253.45 298.07,-195.41 258,-165.75 252.84,-161.93 178.97,-142.7 132.15,-130.76"/>
<polygon fill="#63b8ff" stroke="#63b8ff" points="133.3,-127.19 122.75,-128.12 131.58,-133.97 133.3,-127.19"/>
</g>
<!-- Node11 -->
<g id="node11" class="node">
<title>Node11</title>
<g id="a_node11"><a xlink:href="cell__coordinate_8h.html" target="_top" xlink:title="Container for {ijk} or {IJK} grouped variables.">
<polygon fill="white" stroke="#666666" points="234.75,-240.25 145.25,-240.25 145.25,-221 234.75,-221 234.75,-240.25"/>
<text text-anchor="middle" x="190" y="-226.75" font-family="Helvetica,sans-Serif" font-size="10.00">cell_coordinate.h</text>
</a>
</g>
</g>
<!-- Node10&#45;&gt;Node11 -->
<g id="edge16" class="edge">
<title>Node10&#45;&gt;Node11</title>
<path fill="none" stroke="#63b8ff" d="M311.59,-276.9C288.62,-268.35 251.78,-254.63 224.66,-244.53"/>
<polygon fill="#63b8ff" stroke="#63b8ff" points="226.03,-240.93 215.43,-240.72 223.58,-247.49 226.03,-240.93"/>
</g>
<!-- Node14 -->
<g id="node14" class="node">
<title>Node14</title>
<g id="a_node14"><a xlink:href="dimensions_8h.html" target="_top" xlink:title="Defines a class that serves as an explicit converter between MATLAB pointers and array dimensions.">
<polygon fill="white" stroke="#666666" points="941.88,-240.25 868.12,-240.25 868.12,-221 941.88,-221 941.88,-240.25"/>
<text text-anchor="middle" x="905" y="-226.75" font-family="Helvetica,sans-Serif" font-size="10.00">dimensions.h</text>
</a>
</g>
</g>
<!-- Node10&#45;&gt;Node14 -->
<g id="edge19" class="edge">
<title>Node10&#45;&gt;Node14</title>
<path fill="none" stroke="#63b8ff" d="M354.41,-283.67C425.6,-279.54 660.83,-264.82 854,-240.25 854.97,-240.13 855.96,-240 856.95,-239.86"/>
<polygon fill="#63b8ff" stroke="#63b8ff" points="857.34,-243.2 866.73,-238.29 856.33,-236.27 857.34,-243.2"/>
</g>
<!-- Node15 -->
<g id="node15" class="node">
<title>Node15</title>
<g id="a_node15"><a xlink:href="mat__io_8h.html" target="_top" xlink:title="Includes MATLAB headers for I/O.">
<polygon fill="white" stroke="#666666" points="893.75,-74.5 840.25,-74.5 840.25,-55.25 893.75,-55.25 893.75,-74.5"/>
<text text-anchor="middle" x="867" y="-61" font-family="Helvetica,sans-Serif" font-size="10.00">mat_io.h</text>
</a>
</g>
</g>
<!-- Node10&#45;&gt;Node15 -->
<g id="edge25" class="edge">
<title>Node10&#45;&gt;Node15</title>
<path fill="none" stroke="#63b8ff" d="M354.54,-281.45C393.01,-275.09 475.92,-260.24 544,-240.25 676.74,-201.27 732.34,-222.48 835,-129.75 848.23,-117.8 856.69,-99.13 861.57,-85.05"/>
<polygon fill="#63b8ff" stroke="#63b8ff" points="865.21,-86.15 864.85,-75.56 858.53,-84.06 865.21,-86.15"/>
</g>
<!-- Node19 -->
<g id="node19" class="node">
<title>Node19</title>
<g id="a_node19"><a xlink:href="simulation__parameters_8h.html" target="_top" xlink:title="Classes collecting parameters for the simulation.">
<polygon fill="white" stroke="#666666" points="535.25,-240.25 412.75,-240.25 412.75,-221 535.25,-221 535.25,-240.25"/>
<text text-anchor="middle" x="474" y="-226.75" font-family="Helvetica,sans-Serif" font-size="10.00">simulation_parameters.h</text>
</a>
</g>
</g>
<!-- Node10&#45;&gt;Node19 -->
<g id="edge26" class="edge">
<title>Node10&#45;&gt;Node19</title>
<path fill="none" stroke="#63b8ff" d="M354.41,-276.79C377.13,-268.21 413.34,-254.53 439.97,-244.48"/>
<polygon fill="#63b8ff" stroke="#63b8ff" points="440.9,-247.49 449.02,-240.68 438.43,-240.94 440.9,-247.49"/>
</g>
<!-- Node12 -->
<g id="node12" class="node">
<title>Node12</title>
<g id="a_node12"><a xlink:title=" ">
<polygon fill="#e0e0e0" stroke="#999999" points="249.12,-185 164.88,-185 164.88,-165.75 249.12,-165.75 249.12,-185"/>
<text text-anchor="middle" x="207" y="-171.5" font-family="Helvetica,sans-Serif" font-size="10.00">spdlog/spdlog.h</text>
</a>
</g>
</g>
<!-- Node11&#45;&gt;Node12 -->
<g id="edge17" class="edge">
<title>Node11&#45;&gt;Node12</title>
<path fill="none" stroke="#63b8ff" d="M192.81,-220.83C194.98,-214.01 198.08,-204.31 200.83,-195.7"/>
<polygon fill="#63b8ff" stroke="#63b8ff" points="204.42,-196.95 204.13,-186.36 197.76,-194.82 204.42,-196.95"/>
</g>
<!-- Node13 -->
<g id="node13" class="node">
<title>Node13</title>
<g id="a_node13"><a xlink:title=" ">
<polygon fill="#e0e0e0" stroke="#999999" points="146.88,-185 91.12,-185 91.12,-165.75 146.88,-165.75 146.88,-185"/>
<text text-anchor="middle" x="119" y="-171.5" font-family="Helvetica,sans-Serif" font-size="10.00">algorithm</text>
</a>
</g>
</g>
<!-- Node11&#45;&gt;Node13 -->
<g id="edge18" class="edge">
<title>Node11&#45;&gt;Node13</title>
<path fill="none" stroke="#63b8ff" d="M177.96,-220.59C167.49,-212.74 152.1,-201.2 139.67,-191.87"/>
<polygon fill="#63b8ff" stroke="#63b8ff" points="141.97,-188.47 131.87,-185.27 137.77,-194.07 141.97,-188.47"/>
</g>
<!-- Node14&#45;&gt;Node15 -->
<g id="edge20" class="edge">
<title>Node14&#45;&gt;Node15</title>
<path fill="none" stroke="#63b8ff" d="M903.51,-220.59C900.15,-200.59 891.44,-151.16 881,-110.5 878.83,-102.05 876.01,-92.82 873.48,-84.97"/>
<polygon fill="#63b8ff" stroke="#63b8ff" points="876.54,-84.08 870.07,-75.69 869.89,-86.28 876.54,-84.08"/>
</g>
<!-- Node16 -->
<g id="node16" class="node">
<title>Node16</title>
<g id="a_node16"><a xlink:title=" ">
<polygon fill="#e0e0e0" stroke="#999999" points="823.38,-19.25 782.62,-19.25 782.62,0 823.38,0 823.38,-19.25"/>
<text text-anchor="middle" x="803" y="-5.75" font-family="Helvetica,sans-Serif" font-size="10.00">mat.h</text>
</a>
</g>
</g>
<!-- Node15&#45;&gt;Node16 -->
<g id="edge21" class="edge">
<title>Node15&#45;&gt;Node16</title>
<path fill="none" stroke="#63b8ff" d="M856.14,-54.84C846.8,-47.07 833.11,-35.67 821.96,-26.4"/>
<polygon fill="#63b8ff" stroke="#63b8ff" points="824.62,-23.23 814.7,-19.52 820.14,-28.61 824.62,-23.23"/>
</g>
<!-- Node17 -->
<g id="node17" class="node">
<title>Node17</title>
<g id="a_node17"><a xlink:title=" ">
<polygon fill="#e0e0e0" stroke="#999999" points="892.62,-19.25 841.38,-19.25 841.38,0 892.62,0 892.62,-19.25"/>
<text text-anchor="middle" x="867" y="-5.75" font-family="Helvetica,sans-Serif" font-size="10.00">matrix.h</text>
</a>
</g>
</g>
<!-- Node15&#45;&gt;Node17 -->
<g id="edge22" class="edge">
<title>Node15&#45;&gt;Node17</title>
<path fill="none" stroke="#63b8ff" d="M867,-55.08C867,-48.42 867,-38.99 867,-30.53"/>
<polygon fill="#63b8ff" stroke="#63b8ff" points="870.5,-30.61 867,-20.61 863.5,-30.61 870.5,-30.61"/>
</g>
<!-- Node18 -->
<g id="node18" class="node">
<title>Node18</title>
<g id="a_node18"><a xlink:title=" ">
<polygon fill="#e0e0e0" stroke="#999999" points="953.5,-19.25 910.5,-19.25 910.5,0 953.5,0 953.5,-19.25"/>
<text text-anchor="middle" x="932" y="-5.75" font-family="Helvetica,sans-Serif" font-size="10.00">mex.h</text>
</a>
</g>
</g>
<!-- Node15&#45;&gt;Node18 -->
<g id="edge23" class="edge">
<title>Node15&#45;&gt;Node18</title>
<path fill="none" stroke="#63b8ff" d="M878.03,-54.84C887.51,-47.07 901.42,-35.67 912.75,-26.4"/>
<polygon fill="#63b8ff" stroke="#63b8ff" points="914.62,-28.57 920.14,-19.52 910.18,-23.15 914.62,-28.57"/>
</g>
<!-- Node19&#45;&gt;Node3 -->
<g id="edge28" class="edge">
<title>Node19&#45;&gt;Node3</title>
<path fill="none" stroke="#63b8ff" d="M453.13,-220.59C433.61,-212.14 404.19,-199.4 381.94,-189.77"/>
<polygon fill="#63b8ff" stroke="#63b8ff" points="383.54,-186.21 372.97,-185.45 380.75,-192.64 383.54,-186.21"/>
</g>
<!-- Node19&#45;&gt;Node5 -->
<g id="edge27" class="edge">
<title>Node19&#45;&gt;Node5</title>
<path fill="none" stroke="#63b8ff" d="M475.77,-220.82C480.92,-195.28 495.95,-120.7 503.11,-85.15"/>
<polygon fill="#63b8ff" stroke="#63b8ff" points="506.67,-86.22 505.22,-75.72 499.81,-84.83 506.67,-86.22"/>
</g>
<!-- Node20 -->
<g id="node20" class="node">
<title>Node20</title>
<g id="a_node20"><a xlink:href="input__matrices_8h.html" target="_top" xlink:title="Class handling the input matrices that are read in from the input file.">
<polygon fill="white" stroke="#666666" points="673,-185 585,-185 585,-165.75 673,-165.75 673,-185"/>
<text text-anchor="middle" x="629" y="-171.5" font-family="Helvetica,sans-Serif" font-size="10.00">input_matrices.h</text>
</a>
</g>
</g>
<!-- Node19&#45;&gt;Node20 -->
<g id="edge29" class="edge">
<title>Node19&#45;&gt;Node20</title>
<path fill="none" stroke="#63b8ff" d="M500.29,-220.59C525.57,-211.91 563.99,-198.71 592.28,-188.99"/>
<polygon fill="#63b8ff" stroke="#63b8ff" points="593.26,-192.01 601.58,-185.45 590.98,-185.39 593.26,-192.01"/>
</g>
<!-- Node20&#45;&gt;Node5 -->
<g id="edge30" class="edge">
<title>Node20&#45;&gt;Node5</title>
<path fill="none" stroke="#63b8ff" d="M613.8,-165.4C600.13,-157 579.82,-143.68 564,-129.75 547.69,-115.39 531.41,-96.59 520.45,-83.11"/>
<polygon fill="#63b8ff" stroke="#63b8ff" points="522.75,-81.38 513.78,-75.75 517.28,-85.75 522.75,-81.38"/>
</g>
<!-- Node20&#45;&gt;Node15 -->
<g id="edge34" class="edge">
<title>Node20&#45;&gt;Node15</title>
<path fill="none" stroke="#63b8ff" d="M673.48,-170.83C711.95,-166.1 767.86,-155.13 810,-129.75 829.04,-118.29 845.28,-98.43 855.5,-83.89"/>
<polygon fill="#63b8ff" stroke="#63b8ff" points="858.9,-86.1 861.57,-75.84 853.09,-82.2 858.9,-86.1"/>
</g>
<!-- Node21 -->
<g id="node21" class="node">
<title>Node21</title>
<g id="a_node21"><a xlink:href="input__output__names_8h.html" target="_top" xlink:title="Constant values associated with the format of the input and output files and matrices.">
<polygon fill="white" stroke="#666666" points="685,-129.75 573,-129.75 573,-110.5 685,-110.5 685,-129.75"/>
<text text-anchor="middle" x="629" y="-116.25" font-family="Helvetica,sans-Serif" font-size="10.00">input_output_names.h</text>
</a>
</g>
</g>
<!-- Node20&#45;&gt;Node21 -->
<g id="edge31" class="edge">
<title>Node20&#45;&gt;Node21</title>
<path fill="none" stroke="#63b8ff" d="M629,-165.58C629,-158.92 629,-149.49 629,-141.03"/>
<polygon fill="#63b8ff" stroke="#63b8ff" points="632.5,-141.11 629,-131.11 625.5,-141.11 632.5,-141.11"/>
</g>
<!-- Node23 -->
<g id="node23" class="node">
<title>Node23</title>
<g id="a_node23"><a xlink:href="matrix__collection_8h.html" target="_top" xlink:title="A collection of named MATLAB matrices.">
<polygon fill="white" stroke="#666666" points="800.88,-129.75 703.12,-129.75 703.12,-110.5 800.88,-110.5 800.88,-129.75"/>
<text text-anchor="middle" x="752" y="-116.25" font-family="Helvetica,sans-Serif" font-size="10.00">matrix_collection.h</text>
</a>
</g>
</g>
<!-- Node20&#45;&gt;Node23 -->
<g id="edge35" class="edge">
<title>Node20&#45;&gt;Node23</title>
<path fill="none" stroke="#63b8ff" d="M649.87,-165.34C669.39,-156.89 698.81,-144.15 721.06,-134.52"/>
<polygon fill="#63b8ff" stroke="#63b8ff" points="722.25,-137.39 730.03,-130.2 719.46,-130.96 722.25,-137.39"/>
</g>
<!-- Node21&#45;&gt;Node5 -->
<g id="edge32" class="edge">
<title>Node21&#45;&gt;Node5</title>
<path fill="none" stroke="#63b8ff" d="M608.3,-110.09C588.82,-101.59 559.41,-88.75 537.28,-79.09"/>
<polygon fill="#63b8ff" stroke="#63b8ff" points="538.96,-75.57 528.39,-74.77 536.15,-81.98 538.96,-75.57"/>
</g>
<!-- Node22 -->
<g id="node22" class="node">
<title>Node22</title>
<g id="a_node22"><a xlink:title=" ">
<polygon fill="#e0e0e0" stroke="#999999" points="711.5,-74.5 668.5,-74.5 668.5,-55.25 711.5,-55.25 711.5,-74.5"/>
<text text-anchor="middle" x="690" y="-61" font-family="Helvetica,sans-Serif" font-size="10.00">vector</text>
</a>
</g>
</g>
<!-- Node21&#45;&gt;Node22 -->
<g id="edge33" class="edge">
<title>Node21&#45;&gt;Node22</title>
<path fill="none" stroke="#63b8ff" d="M639.35,-110.09C648.16,-102.4 661.05,-91.15 671.61,-81.93"/>
<polygon fill="#63b8ff" stroke="#63b8ff" points="673.57,-83.99 678.81,-74.77 668.97,-78.71 673.57,-83.99"/>
</g>
<!-- Node23&#45;&gt;Node5 -->
<g id="edge36" class="edge">
<title>Node23&#45;&gt;Node5</title>
<path fill="none" stroke="#63b8ff" d="M710.16,-110.03C661.25,-99.4 581.47,-82.06 537.86,-72.58"/>
<polygon fill="#63b8ff" stroke="#63b8ff" points="538.85,-69 528.34,-70.3 537.37,-75.84 538.85,-69"/>
</g>
<!-- Node23&#45;&gt;Node15 -->
<g id="edge38" class="edge">
<title>Node23&#45;&gt;Node15</title>
<path fill="none" stroke="#63b8ff" d="M771.51,-110.09C789.6,-101.72 816.77,-89.13 837.51,-79.53"/>
<polygon fill="#63b8ff" stroke="#63b8ff" points="838.79,-82.33 846.4,-74.95 835.85,-75.98 838.79,-82.33"/>
</g>
<!-- Node23&#45;&gt;Node22 -->
<g id="edge37" class="edge">
<title>Node23&#45;&gt;Node22</title>
<path fill="none" stroke="#63b8ff" d="M741.48,-110.09C732.52,-102.4 719.43,-91.15 708.69,-81.93"/>
<polygon fill="#63b8ff" stroke="#63b8ff" points="711.23,-78.64 701.36,-74.77 706.67,-83.95 711.23,-78.64"/>
</g>
<!-- Node24&#45;&gt;Node15 -->
<g id="edge40" class="edge">
<title>Node24&#45;&gt;Node15</title>
<path fill="none" stroke="#63b8ff" d="M726.82,-284.19C791.27,-282.12 922.74,-273.78 951,-240.25 993.51,-189.83 921.46,-114.23 885.53,-81.69"/>
<polygon fill="#63b8ff" stroke="#63b8ff" points="888.47,-79.73 878.66,-75.73 883.83,-84.98 888.47,-79.73"/>
</g>
</g>
</svg>
