<?xml version="1.0" encoding="UTF-8" standalone="no"?>
<!DOCTYPE svg PUBLIC "-//W3C//DTD SVG 1.1//EN"
 "http://www.w3.org/Graphics/SVG/1.1/DTD/svg11.dtd">
<!-- Generated by graphviz version 8.0.5 (20230430.1635)
 -->
<!-- Title: tdms/include/vertex_phasors.h Pages: 1 -->
<svg width="1389pt" height="370pt"
 viewBox="0.00 0.00 1388.87 370.00" xmlns="http://www.w3.org/2000/svg" xmlns:xlink="http://www.w3.org/1999/xlink">
<g id="graph0" class="graph" transform="scale(1 1) rotate(0) translate(4 366)">
<title>tdms/include/vertex_phasors.h</title>
<!-- Node1 -->
<g id="node1" class="node">
<title>Node1</title>
<g id="a_node1"><a xlink:title="Contains a class that handles the complex amplitude extraction at the vertices.">
<polygon fill="#999999" stroke="#666666" points="1079.62,-362 978.12,-362 978.12,-331.5 1079.62,-331.5 1079.62,-362"/>
<text text-anchor="start" x="986.12" y="-348.5" font-family="Helvetica,sans-Serif" font-size="10.00">tdms/include/vertex</text>
<text text-anchor="middle" x="1028.87" y="-337.25" font-family="Helvetica,sans-Serif" font-size="10.00">_phasors.h</text>
</a>
</g>
</g>
<!-- Node2 -->
<g id="node2" class="node">
<title>Node2</title>
<g id="a_node2"><a xlink:title=" ">
<polygon fill="#e0e0e0" stroke="#999999" points="1350.24,-74.5 1297.49,-74.5 1297.49,-55.25 1350.24,-55.25 1350.24,-74.5"/>
<text text-anchor="middle" x="1323.87" y="-61" font-family="Helvetica,sans-Serif" font-size="10.00">complex</text>
</a>
</g>
</g>
<!-- Node1&#45;&gt;Node2 -->
<g id="edge1" class="edge">
<title>Node1&#45;&gt;Node2</title>
<path fill="none" stroke="#63b8ff" d="M1080.05,-339.97C1177.68,-327.52 1380.87,-294.1 1380.87,-231.62 1380.87,-231.62 1380.87,-231.62 1380.87,-174.38 1380.87,-138.76 1356.51,-103.34 1339.64,-83.08"/>
<polygon fill="#63b8ff" stroke="#63b8ff" points="1341.72,-81.15 1332.53,-75.89 1336.44,-85.74 1341.72,-81.15"/>
</g>
<!-- Node3 -->
<g id="node3" class="node">
<title>Node3</title>
<g id="a_node3"><a xlink:href="arrays_8h.html" target="_top" xlink:title="Classes describing arrays, vertices etc.">
<polygon fill="white" stroke="#666666" points="1043.49,-185 992.24,-185 992.24,-165.75 1043.49,-165.75 1043.49,-185"/>
<text text-anchor="middle" x="1017.87" y="-171.5" font-family="Helvetica,sans-Serif" font-size="10.00">arrays.h</text>
</a>
</g>
</g>
<!-- Node1&#45;&gt;Node3 -->
<g id="edge2" class="edge">
<title>Node1&#45;&gt;Node3</title>
<path fill="none" stroke="#63b8ff" d="M1027.91,-331.02C1025.94,-300.62 1021.41,-230.94 1019.17,-196.46"/>
<polygon fill="#63b8ff" stroke="#63b8ff" points="1022.6,-196.24 1018.46,-186.49 1015.62,-196.69 1022.6,-196.24"/>
</g>
<!-- Node12 -->
<g id="node12" class="node">
<title>Node12</title>
<g id="a_node12"><a xlink:href="field_8h.html" target="_top" xlink:title="Classes for the electric and magnetic (split) fields on a grid.">
<polygon fill="white" stroke="#666666" points="703.99,-295.5 661.74,-295.5 661.74,-276.25 703.99,-276.25 703.99,-295.5"/>
<text text-anchor="middle" x="682.87" y="-282" font-family="Helvetica,sans-Serif" font-size="10.00">field.h</text>
</a>
</g>
</g>
<!-- Node1&#45;&gt;Node12 -->
<g id="edge15" class="edge">
<title>Node1&#45;&gt;Node12</title>
<path fill="none" stroke="#63b8ff" d="M977.82,-337.06C905.41,-324.74 775.02,-302.56 714.87,-292.32"/>
<polygon fill="#63b8ff" stroke="#63b8ff" points="715.59,-288.72 705.15,-290.5 714.42,-295.62 715.59,-288.72"/>
</g>
<!-- Node27 -->
<g id="node27" class="node">
<title>Node27</title>
<g id="a_node27"><a xlink:href="grid__labels_8h.html" target="_top" xlink:title="Class to hold the labels of a Yee cell.">
<polygon fill="white" stroke="#666666" points="356.24,-295.5 285.49,-295.5 285.49,-276.25 356.24,-276.25 356.24,-295.5"/>
<text text-anchor="middle" x="320.87" y="-282" font-family="Helvetica,sans-Serif" font-size="10.00">grid_labels.h</text>
</a>
</g>
</g>
<!-- Node1&#45;&gt;Node27 -->
<g id="edge48" class="edge">
<title>Node1&#45;&gt;Node27</title>
<path fill="none" stroke="#63b8ff" d="M977.67,-341.49C845.55,-330.51 494.62,-301.32 367.59,-290.76"/>
<polygon fill="#63b8ff" stroke="#63b8ff" points="367.97,-287.2 357.72,-289.86 367.39,-294.17 367.97,-287.2"/>
</g>
<!-- Node3&#45;&gt;Node2 -->
<g id="edge3" class="edge">
<title>Node3&#45;&gt;Node2</title>
<path fill="none" stroke="#63b8ff" d="M1043.68,-172.77C1102.75,-168.68 1245.63,-156.26 1284.87,-129.75 1300.83,-118.97 1311.38,-99.26 1317.44,-84.58"/>
<polygon fill="#63b8ff" stroke="#63b8ff" points="1320.96,-86.15 1321.21,-75.56 1314.41,-83.68 1320.96,-86.15"/>
</g>
<!-- Node4 -->
<g id="node4" class="node">
<title>Node4</title>
<g id="a_node4"><a xlink:title=" ">
<polygon fill="#e0e0e0" stroke="#999999" points="775.24,-129.75 716.49,-129.75 716.49,-110.5 775.24,-110.5 775.24,-129.75"/>
<text text-anchor="middle" x="745.87" y="-116.25" font-family="Helvetica,sans-Serif" font-size="10.00">stdexcept</text>
</a>
</g>
</g>
<!-- Node3&#45;&gt;Node4 -->
<g id="edge4" class="edge">
<title>Node3&#45;&gt;Node4</title>
<path fill="none" stroke="#63b8ff" d="M991.76,-169.34C949.24,-161.12 862.38,-144.28 788.87,-129.75 787.92,-129.56 786.96,-129.37 785.99,-129.18"/>
<polygon fill="#63b8ff" stroke="#63b8ff" points="786.96,-125.61 776.47,-127.09 785.6,-132.47 786.96,-125.61"/>
</g>
<!-- Node5 -->
<g id="node5" class="node">
<title>Node5</title>
<g id="a_node5"><a xlink:title=" ">
<polygon fill="#e0e0e0" stroke="#999999" points="784.87,-74.5 744.87,-74.5 744.87,-55.25 784.87,-55.25 784.87,-74.5"/>
<text text-anchor="middle" x="764.87" y="-61" font-family="Helvetica,sans-Serif" font-size="10.00">string</text>
</a>
</g>
</g>
<!-- Node3&#45;&gt;Node5 -->
<g id="edge5" class="edge">
<title>Node3&#45;&gt;Node5</title>
<path fill="none" stroke="#63b8ff" d="M1013.71,-165.33C1006.75,-151.25 991.35,-124.28 969.87,-110.5 915.67,-75.73 838.56,-67.7 796.03,-66.06"/>
<polygon fill="#63b8ff" stroke="#63b8ff" points="796.35,-62.54 786.25,-65.76 796.15,-69.54 796.35,-62.54"/>
</g>
<!-- Node6 -->
<g id="node6" class="node">
<title>Node6</title>
<g id="a_node6"><a xlink:title=" ">
<polygon fill="#e0e0e0" stroke="#999999" points="523.37,-74.5 480.37,-74.5 480.37,-55.25 523.37,-55.25 523.37,-74.5"/>
<text text-anchor="middle" x="501.87" y="-61" font-family="Helvetica,sans-Serif" font-size="10.00">vector</text>
</a>
</g>
</g>
<!-- Node3&#45;&gt;Node6 -->
<g id="edge6" class="edge">
<title>Node3&#45;&gt;Node6</title>
<path fill="none" stroke="#63b8ff" d="M991.98,-166.92C939.95,-152.01 824.22,-119.17 783.87,-110.5 694.25,-91.24 586.95,-76.52 534.28,-69.83"/>
<polygon fill="#63b8ff" stroke="#63b8ff" points="534.96,-66.26 524.6,-68.49 534.08,-73.21 534.96,-66.26"/>
</g>
<!-- Node7 -->
<g id="node7" class="node">
<title>Node7</title>
<g id="a_node7"><a xlink:title=" ">
<polygon fill="#e0e0e0" stroke="#999999" points="1202.87,-129.75 1156.87,-129.75 1156.87,-110.5 1202.87,-110.5 1202.87,-129.75"/>
<text text-anchor="middle" x="1179.87" y="-116.25" font-family="Helvetica,sans-Serif" font-size="10.00">fftw3.h</text>
</a>
</g>
</g>
<!-- Node3&#45;&gt;Node7 -->
<g id="edge7" class="edge">
<title>Node3&#45;&gt;Node7</title>
<path fill="none" stroke="#63b8ff" d="M1043.9,-165.82C1071.74,-156.67 1115.99,-142.12 1146.4,-132.13"/>
<polygon fill="#63b8ff" stroke="#63b8ff" points="1147.13,-135.24 1155.53,-128.8 1144.94,-128.59 1147.13,-135.24"/>
</g>
<!-- Node8 -->
<g id="node8" class="node">
<title>Node8</title>
<g id="a_node8"><a xlink:title=" ">
<polygon fill="#e0e0e0" stroke="#999999" points="960.74,-129.75 868.99,-129.75 868.99,-110.5 960.74,-110.5 960.74,-129.75"/>
<text text-anchor="middle" x="914.87" y="-116.25" font-family="Helvetica,sans-Serif" font-size="10.00">arrays/tensor3d.h</text>
</a>
</g>
</g>
<!-- Node3&#45;&gt;Node8 -->
<g id="edge8" class="edge">
<title>Node3&#45;&gt;Node8</title>
<path fill="none" stroke="#63b8ff" d="M1000.4,-165.34C984.41,-157.08 960.52,-144.73 942.05,-135.18"/>
<polygon fill="#63b8ff" stroke="#63b8ff" points="943.92,-131.69 933.43,-130.2 940.7,-137.9 943.92,-131.69"/>
</g>
<!-- Node9 -->
<g id="node9" class="node">
<title>Node9</title>
<g id="a_node9"><a xlink:href="globals_8h.html" target="_top" xlink:title="Type definitions and global constants.">
<polygon fill="white" stroke="#666666" points="1276.37,-129.75 1221.37,-129.75 1221.37,-110.5 1276.37,-110.5 1276.37,-129.75"/>
<text text-anchor="middle" x="1248.87" y="-116.25" font-family="Helvetica,sans-Serif" font-size="10.00">globals.h</text>
</a>
</g>
</g>
<!-- Node3&#45;&gt;Node9 -->
<g id="edge9" class="edge">
<title>Node3&#45;&gt;Node9</title>
<path fill="none" stroke="#63b8ff" d="M1043.92,-168.41C1079.27,-160.31 1144.68,-145.29 1210.44,-130.08"/>
<polygon fill="#63b8ff" stroke="#63b8ff" points="1211.04,-133.3 1219.99,-127.63 1209.46,-126.48 1211.04,-133.3"/>
</g>
<!-- Node10 -->
<g id="node10" class="node">
<title>Node10</title>
<g id="a_node10"><a xlink:title=" ">
<polygon fill="#e0e0e0" stroke="#999999" points="1078.37,-129.75 1017.37,-129.75 1017.37,-110.5 1078.37,-110.5 1078.37,-129.75"/>
<text text-anchor="middle" x="1047.87" y="-116.25" font-family="Helvetica,sans-Serif" font-size="10.00">matlabio.h</text>
</a>
</g>
</g>
<!-- Node3&#45;&gt;Node10 -->
<g id="edge12" class="edge">
<title>Node3&#45;&gt;Node10</title>
<path fill="none" stroke="#63b8ff" d="M1022.82,-165.58C1026.79,-158.53 1032.5,-148.4 1037.47,-139.58"/>
<polygon fill="#63b8ff" stroke="#63b8ff" points="1040.95,-141.54 1042.81,-131.11 1034.85,-138.1 1040.95,-141.54"/>
</g>
<!-- Node11 -->
<g id="node11" class="node">
<title>Node11</title>
<g id="a_node11"><a xlink:href="utils_8h.html" target="_top" xlink:title="Useful miscellaneous utility functions.">
<polygon fill="white" stroke="#666666" points="1138.99,-129.75 1096.74,-129.75 1096.74,-110.5 1138.99,-110.5 1138.99,-129.75"/>
<text text-anchor="middle" x="1117.87" y="-116.25" font-family="Helvetica,sans-Serif" font-size="10.00">utils.h</text>
</a>
</g>
</g>
<!-- Node3&#45;&gt;Node11 -->
<g id="edge13" class="edge">
<title>Node3&#45;&gt;Node11</title>
<path fill="none" stroke="#63b8ff" d="M1034.83,-165.34C1050.28,-157.12 1073.33,-144.84 1091.23,-135.31"/>
<polygon fill="#63b8ff" stroke="#63b8ff" points="1092.64,-137.99 1099.82,-130.2 1089.35,-131.81 1092.64,-137.99"/>
</g>
<!-- Node9&#45;&gt;Node2 -->
<g id="edge10" class="edge">
<title>Node9&#45;&gt;Node2</title>
<path fill="none" stroke="#63b8ff" d="M1261.59,-110.09C1272.69,-102.21 1289.03,-90.61 1302.19,-81.27"/>
<polygon fill="#63b8ff" stroke="#63b8ff" points="1303.96,-83.6 1310.08,-74.95 1299.9,-77.89 1303.96,-83.6"/>
</g>
<!-- Node9&#45;&gt;Node5 -->
<g id="edge11" class="edge">
<title>Node9&#45;&gt;Node5</title>
<path fill="none" stroke="#63b8ff" d="M1221.07,-112.24C1217.97,-111.59 1214.86,-111 1211.87,-110.5 1056.67,-84.78 868.53,-71.88 795.71,-67.57"/>
<polygon fill="#63b8ff" stroke="#63b8ff" points="796.23,-64.04 786.04,-66.96 795.82,-71.03 796.23,-64.04"/>
</g>
<!-- Node11&#45;&gt;Node5 -->
<g id="edge14" class="edge">
<title>Node11&#45;&gt;Node5</title>
<path fill="none" stroke="#63b8ff" d="M1096.28,-112.72C1093.14,-111.91 1089.93,-111.14 1086.87,-110.5 981.14,-88.57 853.6,-74.49 795.9,-68.78"/>
<polygon fill="#63b8ff" stroke="#63b8ff" points="796.29,-65.21 786,-67.72 795.61,-72.17 796.29,-65.21"/>
</g>
<!-- Node12&#45;&gt;Node2 -->
<g id="edge16" class="edge">
<title>Node12&#45;&gt;Node2</title>
<path fill="none" stroke="#63b8ff" d="M704.42,-280.96C743.8,-273.7 829.95,-257.32 901.87,-240.25 1084.24,-196.96 1178.63,-264.55 1308.87,-129.75 1320.13,-118.09 1323.51,-99.66 1324.29,-85.58"/>
<polygon fill="#63b8ff" stroke="#63b8ff" points="1327.8,-85.66 1324.43,-75.61 1320.8,-85.57 1327.8,-85.66"/>
</g>
<!-- Node12&#45;&gt;Node3 -->
<g id="edge17" class="edge">
<title>Node12&#45;&gt;Node3</title>
<path fill="none" stroke="#63b8ff" d="M704.24,-280.54C737.94,-273.47 805.3,-258.42 860.87,-240.25 906.35,-225.38 957.4,-203.63 988.59,-189.74"/>
<polygon fill="#63b8ff" stroke="#63b8ff" points="989.68,-192.63 997.37,-185.35 986.82,-186.25 989.68,-192.63"/>
</g>
<!-- Node13 -->
<g id="node13" class="node">
<title>Node13</title>
<g id="a_node13"><a xlink:title=" ">
<polygon fill="#e0e0e0" stroke="#999999" points="616.74,-240.25 530.99,-240.25 530.99,-221 616.74,-221 616.74,-240.25"/>
<text text-anchor="middle" x="573.87" y="-226.75" font-family="Helvetica,sans-Serif" font-size="10.00">arrays/eh_vec.h</text>
</a>
</g>
</g>
<!-- Node12&#45;&gt;Node13 -->
<g id="edge18" class="edge">
<title>Node12&#45;&gt;Node13</title>
<path fill="none" stroke="#63b8ff" d="M664.38,-275.84C647.31,-267.5 621.71,-255 602.09,-245.41"/>
<polygon fill="#63b8ff" stroke="#63b8ff" points="603.97,-241.95 593.45,-240.7 600.9,-248.24 603.97,-241.95"/>
</g>
<!-- Node14 -->
<g id="node14" class="node">
<title>Node14</title>
<g id="a_node14"><a xlink:href="cell__coordinate_8h.html" target="_top" xlink:title="Container for {ijk} or {IJK} grouped variables.">
<polygon fill="white" stroke="#666666" points="610.62,-185 521.12,-185 521.12,-165.75 610.62,-165.75 610.62,-185"/>
<text text-anchor="middle" x="565.87" y="-171.5" font-family="Helvetica,sans-Serif" font-size="10.00">cell_coordinate.h</text>
</a>
</g>
</g>
<!-- Node12&#45;&gt;Node14 -->
<g id="edge19" class="edge">
<title>Node12&#45;&gt;Node14</title>
<path fill="none" stroke="#63b8ff" d="M676,-276.1C665.77,-263.3 645.61,-239.06 625.87,-221 614.08,-210.21 599.75,-199.48 588.06,-191.25"/>
<polygon fill="#63b8ff" stroke="#63b8ff" points="590.56,-188.03 580.34,-185.23 586.58,-193.79 590.56,-188.03"/>
</g>
<!-- Node17 -->
<g id="node17" class="node">
<title>Node17</title>
<g id="a_node17"><a xlink:href="dimensions_8h.html" target="_top" xlink:title="Defines a class that serves as an explicit converter between MATLAB pointers and array dimensions.">
<polygon fill="white" stroke="#666666" points="342.74,-240.25 268.99,-240.25 268.99,-221 342.74,-221 342.74,-240.25"/>
<text text-anchor="middle" x="305.87" y="-226.75" font-family="Helvetica,sans-Serif" font-size="10.00">dimensions.h</text>
</a>
</g>
</g>
<!-- Node12&#45;&gt;Node17 -->
<g id="edge22" class="edge">
<title>Node12&#45;&gt;Node17</title>
<path fill="none" stroke="#63b8ff" d="M661.25,-281.82C602.08,-273.46 436.48,-250.07 353.92,-238.41"/>
<polygon fill="#63b8ff" stroke="#63b8ff" points="354.47,-234.81 344.08,-236.88 353.49,-241.75 354.47,-234.81"/>
</g>
<!-- Node18 -->
<g id="node18" class="node">
<title>Node18</title>
<g id="a_node18"><a xlink:href="mat__io_8h.html" target="_top" xlink:title="Includes MATLAB headers for I/O.">
<polygon fill="white" stroke="#666666" points="122.62,-74.5 69.12,-74.5 69.12,-55.25 122.62,-55.25 122.62,-74.5"/>
<text text-anchor="middle" x="95.87" y="-61" font-family="Helvetica,sans-Serif" font-size="10.00">mat_io.h</text>
</a>
</g>
</g>
<!-- Node12&#45;&gt;Node18 -->
<g id="edge34" class="edge">
<title>Node12&#45;&gt;Node18</title>
<path fill="none" stroke="#63b8ff" d="M661.65,-285.35C598.83,-286.17 408.87,-284.55 259.87,-240.25 177.73,-215.83 136.39,-208.18 101.87,-129.75 95.75,-115.86 94.45,-98.65 94.57,-85.6"/>
<polygon fill="#63b8ff" stroke="#63b8ff" points="98.09,-86.12 94.98,-76 91.09,-85.85 98.09,-86.12"/>
</g>
<!-- Node22 -->
<g id="node22" class="node">
<title>Node22</title>
<g id="a_node22"><a xlink:href="input__flags_8h.html" target="_top" xlink:title="Organises enumerated constants, names, and classes for handling flag&#45;variables that are passed to TDM...">
<polygon fill="white" stroke="#666666" points="700.62,-185 629.12,-185 629.12,-165.75 700.62,-165.75 700.62,-185"/>
<text text-anchor="middle" x="664.87" y="-171.5" font-family="Helvetica,sans-Serif" font-size="10.00">input_flags.h</text>
</a>
</g>
</g>
<!-- Node12&#45;&gt;Node22 -->
<g id="edge27" class="edge">
<title>Node12&#45;&gt;Node22</title>
<path fill="none" stroke="#63b8ff" d="M681.4,-276C678.51,-258.59 672.04,-219.62 668.11,-195.91"/>
<polygon fill="#63b8ff" stroke="#63b8ff" points="671.45,-195.67 666.36,-186.38 664.55,-196.81 671.45,-195.67"/>
</g>
<!-- Node23 -->
<g id="node23" class="node">
<title>Node23</title>
<g id="a_node23"><a xlink:href="simulation__parameters_8h.html" target="_top" xlink:title="Classes collecting parameters for the simulation.">
<polygon fill="white" stroke="#666666" points="852.12,-240.25 729.62,-240.25 729.62,-221 852.12,-221 852.12,-240.25"/>
<text text-anchor="middle" x="790.87" y="-226.75" font-family="Helvetica,sans-Serif" font-size="10.00">simulation_parameters.h</text>
</a>
</g>
</g>
<!-- Node12&#45;&gt;Node23 -->
<g id="edge35" class="edge">
<title>Node12&#45;&gt;Node23</title>
<path fill="none" stroke="#63b8ff" d="M701.19,-275.84C718.02,-267.54 743.23,-255.11 762.64,-245.54"/>
<polygon fill="#63b8ff" stroke="#63b8ff" points="764.04,-248.26 771.46,-240.7 760.94,-241.99 764.04,-248.26"/>
</g>
<!-- Node15 -->
<g id="node15" class="node">
<title>Node15</title>
<g id="a_node15"><a xlink:title=" ">
<polygon fill="#e0e0e0" stroke="#999999" points="622.99,-129.75 538.74,-129.75 538.74,-110.5 622.99,-110.5 622.99,-129.75"/>
<text text-anchor="middle" x="580.87" y="-116.25" font-family="Helvetica,sans-Serif" font-size="10.00">spdlog/spdlog.h</text>
</a>
</g>
</g>
<!-- Node14&#45;&gt;Node15 -->
<g id="edge20" class="edge">
<title>Node14&#45;&gt;Node15</title>
<path fill="none" stroke="#63b8ff" d="M568.35,-165.58C570.27,-158.76 573,-149.06 575.42,-140.45"/>
<polygon fill="#63b8ff" stroke="#63b8ff" points="579,-141.68 578.34,-131.11 572.26,-139.79 579,-141.68"/>
</g>
<!-- Node16 -->
<g id="node16" class="node">
<title>Node16</title>
<g id="a_node16"><a xlink:title=" ">
<polygon fill="#e0e0e0" stroke="#999999" points="520.74,-129.75 464.99,-129.75 464.99,-110.5 520.74,-110.5 520.74,-129.75"/>
<text text-anchor="middle" x="492.87" y="-116.25" font-family="Helvetica,sans-Serif" font-size="10.00">algorithm</text>
</a>
</g>
</g>
<!-- Node14&#45;&gt;Node16 -->
<g id="edge21" class="edge">
<title>Node14&#45;&gt;Node16</title>
<path fill="none" stroke="#63b8ff" d="M553.49,-165.34C542.62,-157.41 526.59,-145.72 513.74,-136.35"/>
<polygon fill="#63b8ff" stroke="#63b8ff" points="516.21,-133.09 506.07,-130.02 512.09,-138.75 516.21,-133.09"/>
</g>
<!-- Node17&#45;&gt;Node18 -->
<g id="edge23" class="edge">
<title>Node17&#45;&gt;Node18</title>
<path fill="none" stroke="#63b8ff" d="M271.92,-220.55C229.41,-207.47 157.16,-179.26 115.87,-129.75 105.39,-117.19 100.39,-99.13 98.01,-85.41"/>
<polygon fill="#63b8ff" stroke="#63b8ff" points="101.37,-85.15 96.52,-75.73 94.43,-86.12 101.37,-85.15"/>
</g>
<!-- Node19 -->
<g id="node19" class="node">
<title>Node19</title>
<g id="a_node19"><a xlink:title=" ">
<polygon fill="#e0e0e0" stroke="#999999" points="52.24,-19.25 11.49,-19.25 11.49,0 52.24,0 52.24,-19.25"/>
<text text-anchor="middle" x="31.87" y="-5.75" font-family="Helvetica,sans-Serif" font-size="10.00">mat.h</text>
</a>
</g>
</g>
<!-- Node18&#45;&gt;Node19 -->
<g id="edge24" class="edge">
<title>Node18&#45;&gt;Node19</title>
<path fill="none" stroke="#63b8ff" d="M85.01,-54.84C75.67,-47.07 61.97,-35.67 50.83,-26.4"/>
<polygon fill="#63b8ff" stroke="#63b8ff" points="53.49,-23.23 43.56,-19.52 49.01,-28.61 53.49,-23.23"/>
</g>
<!-- Node20 -->
<g id="node20" class="node">
<title>Node20</title>
<g id="a_node20"><a xlink:title=" ">
<polygon fill="#e0e0e0" stroke="#999999" points="121.49,-19.25 70.24,-19.25 70.24,0 121.49,0 121.49,-19.25"/>
<text text-anchor="middle" x="95.87" y="-5.75" font-family="Helvetica,sans-Serif" font-size="10.00">matrix.h</text>
</a>
</g>
</g>
<!-- Node18&#45;&gt;Node20 -->
<g id="edge25" class="edge">
<title>Node18&#45;&gt;Node20</title>
<path fill="none" stroke="#63b8ff" d="M95.87,-55.08C95.87,-48.42 95.87,-38.99 95.87,-30.53"/>
<polygon fill="#63b8ff" stroke="#63b8ff" points="99.37,-30.61 95.87,-20.61 92.37,-30.61 99.37,-30.61"/>
</g>
<!-- Node21 -->
<g id="node21" class="node">
<title>Node21</title>
<g id="a_node21"><a xlink:title=" ">
<polygon fill="#e0e0e0" stroke="#999999" points="182.37,-19.25 139.37,-19.25 139.37,0 182.37,0 182.37,-19.25"/>
<text text-anchor="middle" x="160.87" y="-5.75" font-family="Helvetica,sans-Serif" font-size="10.00">mex.h</text>
</a>
</g>
</g>
<!-- Node18&#45;&gt;Node21 -->
<g id="edge26" class="edge">
<title>Node18&#45;&gt;Node21</title>
<path fill="none" stroke="#63b8ff" d="M106.89,-54.84C116.38,-47.07 130.29,-35.67 141.61,-26.4"/>
<polygon fill="#63b8ff" stroke="#63b8ff" points="143.49,-28.57 149,-19.52 139.05,-23.15 143.49,-28.57"/>
</g>
<!-- Node22&#45;&gt;Node4 -->
<g id="edge29" class="edge">
<title>Node22&#45;&gt;Node4</title>
<path fill="none" stroke="#63b8ff" d="M678.61,-165.34C690.83,-157.31 708.93,-145.41 723.27,-135.98"/>
<polygon fill="#63b8ff" stroke="#63b8ff" points="724.63,-138.62 731.06,-130.2 720.78,-132.77 724.63,-138.62"/>
</g>
<!-- Node22&#45;&gt;Node5 -->
<g id="edge30" class="edge">
<title>Node22&#45;&gt;Node5</title>
<path fill="none" stroke="#63b8ff" d="M669.65,-165.49C676.88,-152.54 691.47,-128.11 707.87,-110.5 718.17,-99.43 731.38,-88.91 742.49,-80.87"/>
<polygon fill="#63b8ff" stroke="#63b8ff" points="744.04,-83.35 750.21,-74.74 740.02,-77.62 744.04,-83.35"/>
</g>
<!-- Node22&#45;&gt;Node6 -->
<g id="edge31" class="edge">
<title>Node22&#45;&gt;Node6</title>
<path fill="none" stroke="#63b8ff" d="M662.63,-165.62C658.69,-151.94 649.25,-125.51 631.87,-110.5 604.13,-86.54 562.87,-75.27 534.31,-70.08"/>
<polygon fill="#63b8ff" stroke="#63b8ff" points="535.1,-66.5 524.67,-68.32 533.96,-73.41 535.1,-66.5"/>
</g>
<!-- Node22&#45;&gt;Node15 -->
<g id="edge32" class="edge">
<title>Node22&#45;&gt;Node15</title>
<path fill="none" stroke="#63b8ff" d="M650.62,-165.34C637.95,-157.31 619.18,-145.41 604.3,-135.98"/>
<polygon fill="#63b8ff" stroke="#63b8ff" points="606.51,-132.6 596.19,-130.2 602.76,-138.51 606.51,-132.6"/>
</g>
<!-- Node22&#45;&gt;Node16 -->
<g id="edge28" class="edge">
<title>Node22&#45;&gt;Node16</title>
<path fill="none" stroke="#63b8ff" d="M635.69,-165.34C606.93,-156.44 562.82,-142.78 531.24,-133"/>
<polygon fill="#63b8ff" stroke="#63b8ff" points="532.63,-129.46 522.05,-129.85 530.56,-136.15 532.63,-129.46"/>
</g>
<!-- Node22&#45;&gt;Node18 -->
<g id="edge33" class="edge">
<title>Node22&#45;&gt;Node18</title>
<path fill="none" stroke="#63b8ff" d="M629.07,-167.15C625.96,-166.63 622.86,-166.16 619.87,-165.75 520.9,-152.33 264.26,-167.68 171.87,-129.75 147.08,-119.57 124.37,-98.2 110.35,-82.98"/>
<polygon fill="#63b8ff" stroke="#63b8ff" points="113.41,-81.02 104.16,-75.86 108.17,-85.66 113.41,-81.02"/>
</g>
<!-- Node23&#45;&gt;Node3 -->
<g id="edge37" class="edge">
<title>Node23&#45;&gt;Node3</title>
<path fill="none" stroke="#63b8ff" d="M829.63,-220.53C872.18,-210.55 939.94,-194.66 981.51,-184.9"/>
<polygon fill="#63b8ff" stroke="#63b8ff" points="982.05,-188.14 990.99,-182.45 980.45,-181.32 982.05,-188.14"/>
</g>
<!-- Node23&#45;&gt;Node5 -->
<g id="edge36" class="edge">
<title>Node23&#45;&gt;Node5</title>
<path fill="none" stroke="#63b8ff" d="M791.38,-220.51C792.29,-200.36 793.29,-150.64 783.87,-110.5 781.8,-101.7 778.13,-92.43 774.55,-84.63"/>
<polygon fill="#63b8ff" stroke="#63b8ff" points="777.28,-83.24 769.75,-75.79 770.99,-86.31 777.28,-83.24"/>
</g>
<!-- Node24 -->
<g id="node24" class="node">
<title>Node24</title>
<g id="a_node24"><a xlink:href="input__matrices_8h.html" target="_top" xlink:title="Class handling the input matrices that are read in from the input file.">
<polygon fill="white" stroke="#666666" points="396.87,-185 308.87,-185 308.87,-165.75 396.87,-165.75 396.87,-185"/>
<text text-anchor="middle" x="352.87" y="-171.5" font-family="Helvetica,sans-Serif" font-size="10.00">input_matrices.h</text>
</a>
</g>
</g>
<!-- Node23&#45;&gt;Node24 -->
<g id="edge38" class="edge">
<title>Node23&#45;&gt;Node24</title>
<path fill="none" stroke="#63b8ff" d="M729.51,-222.16C643.97,-211.77 490.19,-193.07 408.08,-183.09"/>
<polygon fill="#63b8ff" stroke="#63b8ff" points="408.57,-179.5 398.22,-181.77 407.73,-186.45 408.57,-179.5"/>
</g>
<!-- Node24&#45;&gt;Node5 -->
<g id="edge39" class="edge">
<title>Node24&#45;&gt;Node5</title>
<path fill="none" stroke="#63b8ff" d="M365.77,-165.44C388.94,-149.55 436.99,-117.38 455.87,-110.5 553.07,-75.1 677.08,-67.68 733.9,-66.2"/>
<polygon fill="#63b8ff" stroke="#63b8ff" points="733.74,-69.68 743.66,-65.97 733.59,-62.68 733.74,-69.68"/>
</g>
<!-- Node24&#45;&gt;Node18 -->
<g id="edge43" class="edge">
<title>Node24&#45;&gt;Node18</title>
<path fill="none" stroke="#63b8ff" d="M308.56,-174.64C262.48,-172.87 190.05,-164.16 138.87,-129.75 122.6,-118.81 110.86,-99.45 103.8,-84.9"/>
<polygon fill="#63b8ff" stroke="#63b8ff" points="106.61,-83.62 99.32,-75.93 100.23,-86.49 106.61,-83.62"/>
</g>
<!-- Node25 -->
<g id="node25" class="node">
<title>Node25</title>
<g id="a_node25"><a xlink:href="input__output__names_8h.html" target="_top" xlink:title="Constant values associated with the format of the input and output files and matrices.">
<polygon fill="white" stroke="#666666" points="408.87,-129.75 296.87,-129.75 296.87,-110.5 408.87,-110.5 408.87,-129.75"/>
<text text-anchor="middle" x="352.87" y="-116.25" font-family="Helvetica,sans-Serif" font-size="10.00">input_output_names.h</text>
</a>
</g>
</g>
<!-- Node24&#45;&gt;Node25 -->
<g id="edge40" class="edge">
<title>Node24&#45;&gt;Node25</title>
<path fill="none" stroke="#63b8ff" d="M352.87,-165.58C352.87,-158.92 352.87,-149.49 352.87,-141.03"/>
<polygon fill="#63b8ff" stroke="#63b8ff" points="356.37,-141.11 352.87,-131.11 349.37,-141.11 356.37,-141.11"/>
</g>
<!-- Node26 -->
<g id="node26" class="node">
<title>Node26</title>
<g id="a_node26"><a xlink:href="matrix__collection_8h.html" target="_top" xlink:title="A collection of named MATLAB matrices.">
<polygon fill="white" stroke="#666666" points="278.74,-129.75 180.99,-129.75 180.99,-110.5 278.74,-110.5 278.74,-129.75"/>
<text text-anchor="middle" x="229.87" y="-116.25" font-family="Helvetica,sans-Serif" font-size="10.00">matrix_collection.h</text>
</a>
</g>
</g>
<!-- Node24&#45;&gt;Node26 -->
<g id="edge44" class="edge">
<title>Node24&#45;&gt;Node26</title>
<path fill="none" stroke="#63b8ff" d="M332,-165.34C312.48,-156.89 283.06,-144.15 260.8,-134.52"/>
<polygon fill="#63b8ff" stroke="#63b8ff" points="262.4,-130.96 251.84,-130.2 259.62,-137.39 262.4,-130.96"/>
</g>
<!-- Node25&#45;&gt;Node5 -->
<g id="edge41" class="edge">
<title>Node25&#45;&gt;Node5</title>
<path fill="none" stroke="#63b8ff" d="M409.29,-111.83C497.39,-100.45 664.67,-78.83 733.79,-69.89"/>
<polygon fill="#63b8ff" stroke="#63b8ff" points="733.92,-73.27 743.39,-68.52 733.02,-66.33 733.92,-73.27"/>
</g>
<!-- Node25&#45;&gt;Node6 -->
<g id="edge42" class="edge">
<title>Node25&#45;&gt;Node6</title>
<path fill="none" stroke="#63b8ff" d="M378.14,-110.09C403.36,-101.08 442.19,-87.2 469.61,-77.4"/>
<polygon fill="#63b8ff" stroke="#63b8ff" points="470.63,-80.4 478.87,-73.74 468.28,-73.81 470.63,-80.4"/>
</g>
<!-- Node26&#45;&gt;Node5 -->
<g id="edge45" class="edge">
<title>Node26&#45;&gt;Node5</title>
<path fill="none" stroke="#63b8ff" d="M279.2,-111.6C282.13,-111.21 285.04,-110.84 287.87,-110.5 455.55,-90.2 657.36,-74.03 733.64,-68.21"/>
<polygon fill="#63b8ff" stroke="#63b8ff" points="733.66,-71.64 743.37,-67.39 733.13,-64.66 733.66,-71.64"/>
</g>
<!-- Node26&#45;&gt;Node6 -->
<g id="edge46" class="edge">
<title>Node26&#45;&gt;Node6</title>
<path fill="none" stroke="#63b8ff" d="M276.32,-110.03C331.24,-99.28 421.24,-81.66 469.27,-72.26"/>
<polygon fill="#63b8ff" stroke="#63b8ff" points="469.83,-75.52 478.97,-70.16 468.49,-68.65 469.83,-75.52"/>
</g>
<!-- Node26&#45;&gt;Node18 -->
<g id="edge47" class="edge">
<title>Node26&#45;&gt;Node18</title>
<path fill="none" stroke="#63b8ff" d="M207.14,-110.09C185.67,-101.56 153.24,-88.67 128.91,-79.01"/>
<polygon fill="#63b8ff" stroke="#63b8ff" points="130.3,-75.39 119.71,-74.95 127.71,-81.9 130.3,-75.39"/>
</g>
<!-- Node27&#45;&gt;Node18 -->
<g id="edge49" class="edge">
<title>Node27&#45;&gt;Node18</title>
<path fill="none" stroke="#63b8ff" d="M285.19,-285.03C213.95,-284.5 58.09,-278.85 24.87,-240.25 -12.75,-196.54 -3.02,-160.97 24.87,-110.5 32.46,-96.76 46.25,-86.68 59.68,-79.61"/>
<polygon fill="#63b8ff" stroke="#63b8ff" points="60.8,-82.47 68.29,-74.99 57.76,-76.17 60.8,-82.47"/>
</g>
</g>
</svg>
