<?xml version="1.0" encoding="UTF-8" standalone="no"?>
<!DOCTYPE svg PUBLIC "-//W3C//DTD SVG 1.1//EN"
 "http://www.w3.org/Graphics/SVG/1.1/DTD/svg11.dtd">
<!-- Generated by graphviz version 8.0.5 (20230430.1635)
 -->
<!-- Title: tdms/include/vertex_phasors.h Pages: 1 -->
<svg width="1309pt" height="370pt"
 viewBox="0.00 0.00 1308.88 370.00" xmlns="http://www.w3.org/2000/svg" xmlns:xlink="http://www.w3.org/1999/xlink">
<g id="graph0" class="graph" transform="scale(1 1) rotate(0) translate(4 366)">
<title>tdms/include/vertex_phasors.h</title>
<!-- Node1 -->
<g id="node1" class="node">
<title>Node1</title>
<g id="a_node1"><a xlink:title="Contains a class that handles the complex amplitude extraction at the vertices.">
<polygon fill="#999999" stroke="#666666" points="1049.62,-362 948.12,-362 948.12,-331.5 1049.62,-331.5 1049.62,-362"/>
<text text-anchor="start" x="956.12" y="-348.5" font-family="Helvetica,sans-Serif" font-size="10.00">tdms/include/vertex</text>
<text text-anchor="middle" x="998.88" y="-337.25" font-family="Helvetica,sans-Serif" font-size="10.00">_phasors.h</text>
</a>
</g>
</g>
<!-- Node2 -->
<g id="node2" class="node">
<title>Node2</title>
<g id="a_node2"><a xlink:title=" ">
<polygon fill="#e0e0e0" stroke="#999999" points="1270.25,-74.5 1217.5,-74.5 1217.5,-55.25 1270.25,-55.25 1270.25,-74.5"/>
<text text-anchor="middle" x="1243.88" y="-61" font-family="Helvetica,sans-Serif" font-size="10.00">complex</text>
</a>
</g>
</g>
<!-- Node1&#45;&gt;Node2 -->
<g id="edge1" class="edge">
<title>Node1&#45;&gt;Node2</title>
<path fill="none" stroke="#63b8ff" d="M1050.11,-337.27C1136.27,-321.55 1300.88,-284.59 1300.88,-231.62 1300.88,-231.62 1300.88,-231.62 1300.88,-174.38 1300.88,-138.76 1276.51,-103.34 1259.64,-83.08"/>
<polygon fill="#63b8ff" stroke="#63b8ff" points="1261.73,-81.15 1252.53,-75.89 1256.45,-85.74 1261.73,-81.15"/>
</g>
<!-- Node3 -->
<g id="node3" class="node">
<title>Node3</title>
<g id="a_node3"><a xlink:href="arrays_8h.html" target="_top" xlink:title="Classes describing arrays, vertices etc.">
<polygon fill="white" stroke="#666666" points="981.5,-185 930.25,-185 930.25,-165.75 981.5,-165.75 981.5,-185"/>
<text text-anchor="middle" x="955.88" y="-171.5" font-family="Helvetica,sans-Serif" font-size="10.00">arrays.h</text>
</a>
</g>
</g>
<!-- Node1&#45;&gt;Node3 -->
<g id="edge2" class="edge">
<title>Node1&#45;&gt;Node3</title>
<path fill="none" stroke="#63b8ff" d="M1016.46,-331.34C1043.37,-307.5 1089.13,-258.76 1063.88,-221 1048.06,-197.35 1017.16,-186.22 992.45,-180.99"/>
<polygon fill="#63b8ff" stroke="#63b8ff" points="993.43,-177.42 982.95,-179.03 992.14,-184.31 993.43,-177.42"/>
</g>
<!-- Node11 -->
<g id="node11" class="node">
<title>Node11</title>
<g id="a_node11"><a xlink:href="field_8h.html" target="_top" xlink:title="Classes for the electric and magnetic (split) fields on a grid.">
<polygon fill="white" stroke="#666666" points="822,-295.5 779.75,-295.5 779.75,-276.25 822,-276.25 822,-295.5"/>
<text text-anchor="middle" x="800.88" y="-282" font-family="Helvetica,sans-Serif" font-size="10.00">field.h</text>
</a>
</g>
</g>
<!-- Node1&#45;&gt;Node11 -->
<g id="edge14" class="edge">
<title>Node1&#45;&gt;Node11</title>
<path fill="none" stroke="#63b8ff" d="M949.42,-331.05C912.95,-320.2 864.38,-305.76 832.87,-296.39"/>
<polygon fill="#63b8ff" stroke="#63b8ff" points="834.07,-292.8 823.49,-293.3 832.07,-299.51 834.07,-292.8"/>
</g>
<!-- Node26 -->
<g id="node26" class="node">
<title>Node26</title>
<g id="a_node26"><a xlink:href="grid__labels_8h.html" target="_top" xlink:title="Class to hold the labels of a Yee cell.">
<polygon fill="white" stroke="#666666" points="419.25,-295.5 348.5,-295.5 348.5,-276.25 419.25,-276.25 419.25,-295.5"/>
<text text-anchor="middle" x="383.88" y="-282" font-family="Helvetica,sans-Serif" font-size="10.00">grid_labels.h</text>
</a>
</g>
</g>
<!-- Node1&#45;&gt;Node26 -->
<g id="edge47" class="edge">
<title>Node1&#45;&gt;Node26</title>
<path fill="none" stroke="#63b8ff" d="M947.76,-340.86C830.32,-329.61 542.71,-302.08 430.13,-291.3"/>
<polygon fill="#63b8ff" stroke="#63b8ff" points="430.77,-287.75 420.48,-290.28 430.1,-294.72 430.77,-287.75"/>
</g>
<!-- Node3&#45;&gt;Node2 -->
<g id="edge3" class="edge">
<title>Node3&#45;&gt;Node2</title>
<path fill="none" stroke="#63b8ff" d="M981.62,-172.43C1037.7,-167.77 1168.72,-154.49 1204.88,-129.75 1220.6,-118.99 1231.1,-99.6 1237.21,-85"/>
<polygon fill="#63b8ff" stroke="#63b8ff" points="1240.74,-86.58 1241.04,-75.99 1234.2,-84.08 1240.74,-86.58"/>
</g>
<!-- Node4 -->
<g id="node4" class="node">
<title>Node4</title>
<g id="a_node4"><a xlink:title=" ">
<polygon fill="#e0e0e0" stroke="#999999" points="483.25,-129.75 424.5,-129.75 424.5,-110.5 483.25,-110.5 483.25,-129.75"/>
<text text-anchor="middle" x="453.88" y="-116.25" font-family="Helvetica,sans-Serif" font-size="10.00">stdexcept</text>
</a>
</g>
</g>
<!-- Node3&#45;&gt;Node4 -->
<g id="edge4" class="edge">
<title>Node3&#45;&gt;Node4</title>
<path fill="none" stroke="#63b8ff" d="M929.82,-173.04C860.5,-169.22 665.68,-156.91 494.4,-129.98"/>
<polygon fill="#63b8ff" stroke="#63b8ff" points="495.1,-126.39 484.68,-128.27 494,-133.3 495.1,-126.39"/>
</g>
<!-- Node5 -->
<g id="node5" class="node">
<title>Node5</title>
<g id="a_node5"><a xlink:title=" ">
<polygon fill="#e0e0e0" stroke="#999999" points="948.88,-74.5 908.88,-74.5 908.88,-55.25 948.88,-55.25 948.88,-74.5"/>
<text text-anchor="middle" x="928.88" y="-61" font-family="Helvetica,sans-Serif" font-size="10.00">string</text>
</a>
</g>
</g>
<!-- Node3&#45;&gt;Node5 -->
<g id="edge5" class="edge">
<title>Node3&#45;&gt;Node5</title>
<path fill="none" stroke="#63b8ff" d="M981.84,-169.05C1018.19,-160.36 1077.49,-141.01 1055.88,-110.5 1034.19,-79.9 989.78,-70.13 959.66,-67.1"/>
<polygon fill="#63b8ff" stroke="#63b8ff" points="960.14,-63.54 949.89,-66.23 959.58,-70.52 960.14,-63.54"/>
</g>
<!-- Node6 -->
<g id="node6" class="node">
<title>Node6</title>
<g id="a_node6"><a xlink:title=" ">
<polygon fill="#e0e0e0" stroke="#999999" points="609.38,-74.5 566.38,-74.5 566.38,-55.25 609.38,-55.25 609.38,-74.5"/>
<text text-anchor="middle" x="587.88" y="-61" font-family="Helvetica,sans-Serif" font-size="10.00">vector</text>
</a>
</g>
</g>
<!-- Node3&#45;&gt;Node6 -->
<g id="edge6" class="edge">
<title>Node3&#45;&gt;Node6</title>
<path fill="none" stroke="#63b8ff" d="M930.2,-172.91C865.1,-168.85 695.22,-155.96 645.88,-129.75 625.69,-119.03 608.96,-98.4 598.74,-83.48"/>
<polygon fill="#63b8ff" stroke="#63b8ff" points="601.39,-82.13 592.99,-75.66 595.52,-85.95 601.39,-82.13"/>
</g>
<!-- Node7 -->
<g id="node7" class="node">
<title>Node7</title>
<g id="a_node7"><a xlink:title=" ">
<polygon fill="#e0e0e0" stroke="#999999" points="906.88,-129.75 860.88,-129.75 860.88,-110.5 906.88,-110.5 906.88,-129.75"/>
<text text-anchor="middle" x="883.88" y="-116.25" font-family="Helvetica,sans-Serif" font-size="10.00">fftw3.h</text>
</a>
</g>
</g>
<!-- Node3&#45;&gt;Node7 -->
<g id="edge7" class="edge">
<title>Node3&#45;&gt;Node7</title>
<path fill="none" stroke="#63b8ff" d="M943.66,-165.34C932.94,-157.41 917.13,-145.72 904.46,-136.35"/>
<polygon fill="#63b8ff" stroke="#63b8ff" points="907.03,-133.16 896.91,-130.02 902.87,-138.79 907.03,-133.16"/>
</g>
<!-- Node8 -->
<g id="node8" class="node">
<title>Node8</title>
<g id="a_node8"><a xlink:href="globals_8h.html" target="_top" xlink:title="Type definitions and global constants.">
<polygon fill="white" stroke="#666666" points="1196.38,-129.75 1141.38,-129.75 1141.38,-110.5 1196.38,-110.5 1196.38,-129.75"/>
<text text-anchor="middle" x="1168.88" y="-116.25" font-family="Helvetica,sans-Serif" font-size="10.00">globals.h</text>
</a>
</g>
</g>
<!-- Node3&#45;&gt;Node8 -->
<g id="edge8" class="edge">
<title>Node3&#45;&gt;Node8</title>
<path fill="none" stroke="#63b8ff" d="M981.99,-167.85C1019.19,-158.55 1087.67,-141.43 1130.6,-130.69"/>
<polygon fill="#63b8ff" stroke="#63b8ff" points="1131.34,-133.87 1140.19,-128.05 1129.64,-127.08 1131.34,-133.87"/>
</g>
<!-- Node9 -->
<g id="node9" class="node">
<title>Node9</title>
<g id="a_node9"><a xlink:title=" ">
<polygon fill="#e0e0e0" stroke="#999999" points="986.38,-129.75 925.38,-129.75 925.38,-110.5 986.38,-110.5 986.38,-129.75"/>
<text text-anchor="middle" x="955.88" y="-116.25" font-family="Helvetica,sans-Serif" font-size="10.00">matlabio.h</text>
</a>
</g>
</g>
<!-- Node3&#45;&gt;Node9 -->
<g id="edge11" class="edge">
<title>Node3&#45;&gt;Node9</title>
<path fill="none" stroke="#63b8ff" d="M955.88,-165.58C955.88,-158.92 955.88,-149.49 955.88,-141.03"/>
<polygon fill="#63b8ff" stroke="#63b8ff" points="959.38,-141.11 955.88,-131.11 952.38,-141.11 959.38,-141.11"/>
</g>
<!-- Node10 -->
<g id="node10" class="node">
<title>Node10</title>
<g id="a_node10"><a xlink:href="utils_8h.html" target="_top" xlink:title="Useful miscellaneous utility functions.">
<polygon fill="white" stroke="#666666" points="1047,-129.75 1004.75,-129.75 1004.75,-110.5 1047,-110.5 1047,-129.75"/>
<text text-anchor="middle" x="1025.88" y="-116.25" font-family="Helvetica,sans-Serif" font-size="10.00">utils.h</text>
</a>
</g>
</g>
<!-- Node3&#45;&gt;Node10 -->
<g id="edge12" class="edge">
<title>Node3&#45;&gt;Node10</title>
<path fill="none" stroke="#63b8ff" d="M967.75,-165.34C978.07,-157.49 993.24,-145.95 1005.5,-136.62"/>
<polygon fill="#63b8ff" stroke="#63b8ff" points="1007.34,-138.86 1013.18,-130.02 1003.1,-133.29 1007.34,-138.86"/>
</g>
<!-- Node8&#45;&gt;Node2 -->
<g id="edge9" class="edge">
<title>Node8&#45;&gt;Node2</title>
<path fill="none" stroke="#63b8ff" d="M1181.6,-110.09C1192.7,-102.21 1209.03,-90.61 1222.19,-81.27"/>
<polygon fill="#63b8ff" stroke="#63b8ff" points="1223.96,-83.6 1230.09,-74.95 1219.91,-77.89 1223.96,-83.6"/>
</g>
<!-- Node8&#45;&gt;Node5 -->
<g id="edge10" class="edge">
<title>Node8&#45;&gt;Node5</title>
<path fill="none" stroke="#63b8ff" d="M1141.34,-113.02C1096.2,-103 1006.77,-83.16 959.62,-72.7"/>
<polygon fill="#63b8ff" stroke="#63b8ff" points="960.66,-69.12 950.14,-70.37 959.15,-75.96 960.66,-69.12"/>
</g>
<!-- Node10&#45;&gt;Node5 -->
<g id="edge13" class="edge">
<title>Node10&#45;&gt;Node5</title>
<path fill="none" stroke="#63b8ff" d="M1009.42,-110.09C994.51,-101.91 972.28,-89.71 954.96,-80.19"/>
<polygon fill="#63b8ff" stroke="#63b8ff" points="956.86,-76.7 946.41,-74.95 953.49,-82.83 956.86,-76.7"/>
</g>
<!-- Node11&#45;&gt;Node2 -->
<g id="edge15" class="edge">
<title>Node11&#45;&gt;Node2</title>
<path fill="none" stroke="#63b8ff" d="M822.49,-284.25C868.51,-282.28 978.9,-274.1 1063.88,-240.25 1145.87,-207.59 1178.63,-202.31 1228.88,-129.75 1237.81,-116.84 1241.47,-99.32 1242.95,-85.89"/>
<polygon fill="#63b8ff" stroke="#63b8ff" points="1246.51,-86.2 1243.78,-75.96 1239.53,-85.67 1246.51,-86.2"/>
</g>
<!-- Node11&#45;&gt;Node3 -->
<g id="edge16" class="edge">
<title>Node11&#45;&gt;Node3</title>
<path fill="none" stroke="#63b8ff" d="M801.02,-276.18C801.71,-262.58 805.03,-236.26 819.88,-221 846.03,-194.11 888.63,-183.41 919.18,-179.17"/>
<polygon fill="#63b8ff" stroke="#63b8ff" points="919.34,-182.55 928.84,-177.87 918.5,-175.6 919.34,-182.55"/>
</g>
<!-- Node12 -->
<g id="node12" class="node">
<title>Node12</title>
<g id="a_node12"><a xlink:title=" ">
<polygon fill="#e0e0e0" stroke="#999999" points="1054.75,-240.25 969,-240.25 969,-221 1054.75,-221 1054.75,-240.25"/>
<text text-anchor="middle" x="1011.88" y="-226.75" font-family="Helvetica,sans-Serif" font-size="10.00">arrays/eh_vec.h</text>
</a>
</g>
</g>
<!-- Node11&#45;&gt;Node12 -->
<g id="edge17" class="edge">
<title>Node11&#45;&gt;Node12</title>
<path fill="none" stroke="#63b8ff" d="M822.27,-279.48C855.66,-271.05 920.95,-254.57 965.49,-243.33"/>
<polygon fill="#63b8ff" stroke="#63b8ff" points="966.22,-246.51 975.05,-240.66 964.5,-239.72 966.22,-246.51"/>
</g>
<!-- Node13 -->
<g id="node13" class="node">
<title>Node13</title>
<g id="a_node13"><a xlink:href="cell__coordinate_8h.html" target="_top" xlink:title="Container for {ijk} or {IJK} grouped variables.">
<polygon fill="white" stroke="#666666" points="307.62,-185 218.12,-185 218.12,-165.75 307.62,-165.75 307.62,-185"/>
<text text-anchor="middle" x="262.88" y="-171.5" font-family="Helvetica,sans-Serif" font-size="10.00">cell_coordinate.h</text>
</a>
</g>
</g>
<!-- Node11&#45;&gt;Node13 -->
<g id="edge18" class="edge">
<title>Node11&#45;&gt;Node13</title>
<path fill="none" stroke="#63b8ff" d="M779.5,-281.34C736.37,-274.15 635.85,-257.05 551.88,-240.25 467.38,-223.35 369.58,-201.18 312.15,-187.9"/>
<polygon fill="#63b8ff" stroke="#63b8ff" points="313.1,-184.29 302.57,-185.45 311.52,-191.11 313.1,-184.29"/>
</g>
<!-- Node16 -->
<g id="node16" class="node">
<title>Node16</title>
<g id="a_node16"><a xlink:href="dimensions_8h.html" target="_top" xlink:title="Defines a class that serves as an explicit converter between MATLAB pointers and array dimensions.">
<polygon fill="white" stroke="#666666" points="73.75,-240.25 0,-240.25 0,-221 73.75,-221 73.75,-240.25"/>
<text text-anchor="middle" x="36.88" y="-226.75" font-family="Helvetica,sans-Serif" font-size="10.00">dimensions.h</text>
</a>
</g>
</g>
<!-- Node11&#45;&gt;Node16 -->
<g id="edge21" class="edge">
<title>Node11&#45;&gt;Node16</title>
<path fill="none" stroke="#63b8ff" d="M779.46,-283.64C696.18,-278.82 385.96,-260.44 130.88,-240.25 115.9,-239.06 99.61,-237.62 84.85,-236.26"/>
<polygon fill="#63b8ff" stroke="#63b8ff" points="85.19,-232.68 74.91,-235.24 84.54,-239.65 85.19,-232.68"/>
</g>
<!-- Node17 -->
<g id="node17" class="node">
<title>Node17</title>
<g id="a_node17"><a xlink:href="mat__io_8h.html" target="_top" xlink:title="Includes MATLAB headers for I/O.">
<polygon fill="white" stroke="#666666" points="240.62,-74.5 187.12,-74.5 187.12,-55.25 240.62,-55.25 240.62,-74.5"/>
<text text-anchor="middle" x="213.88" y="-61" font-family="Helvetica,sans-Serif" font-size="10.00">mat_io.h</text>
</a>
</g>
</g>
<!-- Node11&#45;&gt;Node17 -->
<g id="edge33" class="edge">
<title>Node11&#45;&gt;Node17</title>
<path fill="none" stroke="#63b8ff" d="M779.44,-284.8C700.26,-283.79 418.02,-273.81 208.88,-185 163.25,-165.63 99.93,-152.74 125.88,-110.5 136.94,-92.48 157.8,-81.46 176.43,-74.88"/>
<polygon fill="#63b8ff" stroke="#63b8ff" points="177.3,-77.96 185.77,-71.59 175.18,-71.29 177.3,-77.96"/>
</g>
<!-- Node21 -->
<g id="node21" class="node">
<title>Node21</title>
<g id="a_node21"><a xlink:href="input__flags_8h.html" target="_top" xlink:title="Organises enumerated constants, names, and classes for handling flag&#45;variables that are passed to TDM...">
<polygon fill="white" stroke="#666666" points="397.62,-185 326.12,-185 326.12,-165.75 397.62,-165.75 397.62,-185"/>
<text text-anchor="middle" x="361.88" y="-171.5" font-family="Helvetica,sans-Serif" font-size="10.00">input_flags.h</text>
</a>
</g>
</g>
<!-- Node11&#45;&gt;Node21 -->
<g id="edge26" class="edge">
<title>Node11&#45;&gt;Node21</title>
<path fill="none" stroke="#63b8ff" d="M779.4,-279.57C711.84,-262.87 502.53,-211.14 408.48,-187.89"/>
<polygon fill="#63b8ff" stroke="#63b8ff" points="409.41,-184.27 398.86,-185.27 407.73,-191.07 409.41,-184.27"/>
</g>
<!-- Node22 -->
<g id="node22" class="node">
<title>Node22</title>
<g id="a_node22"><a xlink:href="simulation__parameters_8h.html" target="_top" xlink:title="Classes collecting parameters for the simulation.">
<polygon fill="white" stroke="#666666" points="951.12,-240.25 828.62,-240.25 828.62,-221 951.12,-221 951.12,-240.25"/>
<text text-anchor="middle" x="889.88" y="-226.75" font-family="Helvetica,sans-Serif" font-size="10.00">simulation_parameters.h</text>
</a>
</g>
</g>
<!-- Node11&#45;&gt;Node22 -->
<g id="edge34" class="edge">
<title>Node11&#45;&gt;Node22</title>
<path fill="none" stroke="#63b8ff" d="M815.97,-275.84C829.53,-267.73 849.66,-255.68 865.5,-246.21"/>
<polygon fill="#63b8ff" stroke="#63b8ff" points="866.92,-248.84 873.7,-240.7 863.32,-242.83 866.92,-248.84"/>
</g>
<!-- Node14 -->
<g id="node14" class="node">
<title>Node14</title>
<g id="a_node14"><a xlink:title=" ">
<polygon fill="#e0e0e0" stroke="#999999" points="219,-129.75 134.75,-129.75 134.75,-110.5 219,-110.5 219,-129.75"/>
<text text-anchor="middle" x="176.88" y="-116.25" font-family="Helvetica,sans-Serif" font-size="10.00">spdlog/spdlog.h</text>
</a>
</g>
</g>
<!-- Node13&#45;&gt;Node14 -->
<g id="edge19" class="edge">
<title>Node13&#45;&gt;Node14</title>
<path fill="none" stroke="#63b8ff" d="M248.29,-165.34C235.31,-157.31 216.1,-145.41 200.86,-135.98"/>
<polygon fill="#63b8ff" stroke="#63b8ff" points="202.88,-132.49 192.54,-130.2 199.19,-138.44 202.88,-132.49"/>
</g>
<!-- Node15 -->
<g id="node15" class="node">
<title>Node15</title>
<g id="a_node15"><a xlink:title=" ">
<polygon fill="#e0e0e0" stroke="#999999" points="292.75,-129.75 237,-129.75 237,-110.5 292.75,-110.5 292.75,-129.75"/>
<text text-anchor="middle" x="264.88" y="-116.25" font-family="Helvetica,sans-Serif" font-size="10.00">algorithm</text>
</a>
</g>
</g>
<!-- Node13&#45;&gt;Node15 -->
<g id="edge20" class="edge">
<title>Node13&#45;&gt;Node15</title>
<path fill="none" stroke="#63b8ff" d="M263.21,-165.58C263.46,-158.92 263.81,-149.49 264.13,-141.03"/>
<polygon fill="#63b8ff" stroke="#63b8ff" points="267.66,-141.23 264.54,-131.11 260.66,-140.97 267.66,-141.23"/>
</g>
<!-- Node16&#45;&gt;Node17 -->
<g id="edge22" class="edge">
<title>Node16&#45;&gt;Node17</title>
<path fill="none" stroke="#63b8ff" d="M35.26,-220.51C31.92,-198.58 26.76,-142.32 54.88,-110.5 85.15,-76.23 139.42,-67.34 176.04,-65.51"/>
<polygon fill="#63b8ff" stroke="#63b8ff" points="175.91,-68.98 185.79,-65.15 175.67,-61.98 175.91,-68.98"/>
</g>
<!-- Node18 -->
<g id="node18" class="node">
<title>Node18</title>
<g id="a_node18"><a xlink:title=" ">
<polygon fill="#e0e0e0" stroke="#999999" points="170.25,-19.25 129.5,-19.25 129.5,0 170.25,0 170.25,-19.25"/>
<text text-anchor="middle" x="149.88" y="-5.75" font-family="Helvetica,sans-Serif" font-size="10.00">mat.h</text>
</a>
</g>
</g>
<!-- Node17&#45;&gt;Node18 -->
<g id="edge23" class="edge">
<title>Node17&#45;&gt;Node18</title>
<path fill="none" stroke="#63b8ff" d="M203.02,-54.84C193.68,-47.07 179.98,-35.67 168.83,-26.4"/>
<polygon fill="#63b8ff" stroke="#63b8ff" points="171.5,-23.23 161.57,-19.52 167.02,-28.61 171.5,-23.23"/>
</g>
<!-- Node19 -->
<g id="node19" class="node">
<title>Node19</title>
<g id="a_node19"><a xlink:title=" ">
<polygon fill="#e0e0e0" stroke="#999999" points="239.5,-19.25 188.25,-19.25 188.25,0 239.5,0 239.5,-19.25"/>
<text text-anchor="middle" x="213.88" y="-5.75" font-family="Helvetica,sans-Serif" font-size="10.00">matrix.h</text>
</a>
</g>
</g>
<!-- Node17&#45;&gt;Node19 -->
<g id="edge24" class="edge">
<title>Node17&#45;&gt;Node19</title>
<path fill="none" stroke="#63b8ff" d="M213.88,-55.08C213.88,-48.42 213.88,-38.99 213.88,-30.53"/>
<polygon fill="#63b8ff" stroke="#63b8ff" points="217.38,-30.61 213.88,-20.61 210.38,-30.61 217.38,-30.61"/>
</g>
<!-- Node20 -->
<g id="node20" class="node">
<title>Node20</title>
<g id="a_node20"><a xlink:title=" ">
<polygon fill="#e0e0e0" stroke="#999999" points="300.38,-19.25 257.38,-19.25 257.38,0 300.38,0 300.38,-19.25"/>
<text text-anchor="middle" x="278.88" y="-5.75" font-family="Helvetica,sans-Serif" font-size="10.00">mex.h</text>
</a>
</g>
</g>
<!-- Node17&#45;&gt;Node20 -->
<g id="edge25" class="edge">
<title>Node17&#45;&gt;Node20</title>
<path fill="none" stroke="#63b8ff" d="M224.9,-54.84C234.39,-47.07 248.3,-35.67 259.62,-26.4"/>
<polygon fill="#63b8ff" stroke="#63b8ff" points="261.49,-28.57 267.01,-19.52 257.06,-23.15 261.49,-28.57"/>
</g>
<!-- Node21&#45;&gt;Node4 -->
<g id="edge28" class="edge">
<title>Node21&#45;&gt;Node4</title>
<path fill="none" stroke="#63b8ff" d="M377.48,-165.34C391.49,-157.23 412.31,-145.18 428.68,-135.71"/>
<polygon fill="#63b8ff" stroke="#63b8ff" points="430.29,-138.24 437.19,-130.2 426.78,-132.18 430.29,-138.24"/>
</g>
<!-- Node21&#45;&gt;Node5 -->
<g id="edge29" class="edge">
<title>Node21&#45;&gt;Node5</title>
<path fill="none" stroke="#63b8ff" d="M397.83,-172.43C485.07,-167.41 705.91,-152.76 775.88,-129.75 792,-124.45 793.53,-117.76 808.88,-110.5 838.45,-96.5 873.69,-83.85 898.31,-75.62"/>
<polygon fill="#63b8ff" stroke="#63b8ff" points="899.08,-78.72 907.48,-72.27 896.89,-72.07 899.08,-78.72"/>
</g>
<!-- Node21&#45;&gt;Node6 -->
<g id="edge30" class="edge">
<title>Node21&#45;&gt;Node6</title>
<path fill="none" stroke="#63b8ff" d="M366.92,-165.43C375.26,-151.5 393.26,-124.72 415.88,-110.5 459.42,-83.11 519.21,-72.47 555.61,-68.38"/>
<polygon fill="#63b8ff" stroke="#63b8ff" points="555.52,-71.8 565.11,-67.31 554.81,-64.84 555.52,-71.8"/>
</g>
<!-- Node21&#45;&gt;Node14 -->
<g id="edge31" class="edge">
<title>Node21&#45;&gt;Node14</title>
<path fill="none" stroke="#63b8ff" d="M330.49,-165.34C299.8,-156.51 252.84,-142.99 218.93,-133.23"/>
<polygon fill="#63b8ff" stroke="#63b8ff" points="219.99,-129.61 209.41,-130.2 218.05,-136.33 219.99,-129.61"/>
</g>
<!-- Node21&#45;&gt;Node15 -->
<g id="edge27" class="edge">
<title>Node21&#45;&gt;Node15</title>
<path fill="none" stroke="#63b8ff" d="M345.42,-165.34C330.51,-157.16 308.28,-144.96 290.96,-135.44"/>
<polygon fill="#63b8ff" stroke="#63b8ff" points="292.86,-131.95 282.41,-130.2 289.49,-138.08 292.86,-131.95"/>
</g>
<!-- Node21&#45;&gt;Node17 -->
<g id="edge32" class="edge">
<title>Node21&#45;&gt;Node17</title>
<path fill="none" stroke="#63b8ff" d="M355.29,-165.61C345.01,-152.38 324.04,-127.1 301.88,-110.5 284.91,-97.79 263.79,-86.95 246.5,-79.13"/>
<polygon fill="#63b8ff" stroke="#63b8ff" points="248.38,-75.69 237.81,-74.88 245.57,-82.1 248.38,-75.69"/>
</g>
<!-- Node22&#45;&gt;Node3 -->
<g id="edge36" class="edge">
<title>Node22&#45;&gt;Node3</title>
<path fill="none" stroke="#63b8ff" d="M901.07,-220.59C910.71,-212.82 924.83,-201.42 936.32,-192.15"/>
<polygon fill="#63b8ff" stroke="#63b8ff" points="938.26,-194.28 943.84,-185.27 933.86,-188.83 938.26,-194.28"/>
</g>
<!-- Node22&#45;&gt;Node5 -->
<g id="edge35" class="edge">
<title>Node22&#45;&gt;Node5</title>
<path fill="none" stroke="#63b8ff" d="M932.99,-220.5C977.73,-208.4 1044.99,-182.15 1072.88,-129.75 1096.89,-84.61 1009.05,-71.34 959.9,-67.46"/>
<polygon fill="#63b8ff" stroke="#63b8ff" points="960.41,-63.92 950.19,-66.71 959.93,-70.9 960.41,-63.92"/>
</g>
<!-- Node23 -->
<g id="node23" class="node">
<title>Node23</title>
<g id="a_node23"><a xlink:href="input__matrices_8h.html" target="_top" xlink:title="Class handling the input matrices that are read in from the input file.">
<polygon fill="white" stroke="#666666" points="754.88,-185 666.88,-185 666.88,-165.75 754.88,-165.75 754.88,-185"/>
<text text-anchor="middle" x="710.88" y="-171.5" font-family="Helvetica,sans-Serif" font-size="10.00">input_matrices.h</text>
</a>
</g>
</g>
<!-- Node22&#45;&gt;Node23 -->
<g id="edge37" class="edge">
<title>Node22&#45;&gt;Node23</title>
<path fill="none" stroke="#63b8ff" d="M859.51,-220.59C829.81,-211.76 784.38,-198.24 751.56,-188.48"/>
<polygon fill="#63b8ff" stroke="#63b8ff" points="752.97,-184.95 742.39,-185.45 750.98,-191.66 752.97,-184.95"/>
</g>
<!-- Node23&#45;&gt;Node5 -->
<g id="edge38" class="edge">
<title>Node23&#45;&gt;Node5</title>
<path fill="none" stroke="#63b8ff" d="M731.7,-165.34C751.66,-156.58 782.55,-142.73 808.88,-129.75 841.84,-113.49 879.11,-93.37 903.25,-80.11"/>
<polygon fill="#63b8ff" stroke="#63b8ff" points="904.67,-82.77 911.74,-74.88 901.29,-76.64 904.67,-82.77"/>
</g>
<!-- Node23&#45;&gt;Node17 -->
<g id="edge42" class="edge">
<title>Node23&#45;&gt;Node17</title>
<path fill="none" stroke="#63b8ff" d="M666.49,-169.85C608.4,-163.43 503.67,-150.14 415.88,-129.75 355.98,-115.84 288.17,-92.86 248.32,-78.58"/>
<polygon fill="#63b8ff" stroke="#63b8ff" points="249.69,-75 239.1,-74.89 247.31,-81.58 249.69,-75"/>
</g>
<!-- Node24 -->
<g id="node24" class="node">
<title>Node24</title>
<g id="a_node24"><a xlink:href="input__output__names_8h.html" target="_top" xlink:title="Constant values associated with the format of the input and output files and matrices.">
<polygon fill="white" stroke="#666666" points="766.88,-129.75 654.88,-129.75 654.88,-110.5 766.88,-110.5 766.88,-129.75"/>
<text text-anchor="middle" x="710.88" y="-116.25" font-family="Helvetica,sans-Serif" font-size="10.00">input_output_names.h</text>
</a>
</g>
</g>
<!-- Node23&#45;&gt;Node24 -->
<g id="edge39" class="edge">
<title>Node23&#45;&gt;Node24</title>
<path fill="none" stroke="#63b8ff" d="M710.88,-165.58C710.88,-158.92 710.88,-149.49 710.88,-141.03"/>
<polygon fill="#63b8ff" stroke="#63b8ff" points="714.38,-141.11 710.88,-131.11 707.38,-141.11 714.38,-141.11"/>
</g>
<!-- Node25 -->
<g id="node25" class="node">
<title>Node25</title>
<g id="a_node25"><a xlink:href="matrix__collection_8h.html" target="_top" xlink:title="A collection of named MATLAB matrices.">
<polygon fill="white" stroke="#666666" points="598.75,-129.75 501,-129.75 501,-110.5 598.75,-110.5 598.75,-129.75"/>
<text text-anchor="middle" x="549.88" y="-116.25" font-family="Helvetica,sans-Serif" font-size="10.00">matrix_collection.h</text>
</a>
</g>
</g>
<!-- Node23&#45;&gt;Node25 -->
<g id="edge43" class="edge">
<title>Node23&#45;&gt;Node25</title>
<path fill="none" stroke="#63b8ff" d="M683.56,-165.34C657.2,-156.62 617.05,-143.34 587.63,-133.61"/>
<polygon fill="#63b8ff" stroke="#63b8ff" points="588.91,-130.02 578.32,-130.2 586.72,-136.67 588.91,-130.02"/>
</g>
<!-- Node24&#45;&gt;Node5 -->
<g id="edge40" class="edge">
<title>Node24&#45;&gt;Node5</title>
<path fill="none" stroke="#63b8ff" d="M747.86,-110.09C790.07,-99.78 858.37,-83.1 897.9,-73.44"/>
<polygon fill="#63b8ff" stroke="#63b8ff" points="898.59,-76.63 907.48,-70.86 896.93,-69.83 898.59,-76.63"/>
</g>
<!-- Node24&#45;&gt;Node6 -->
<g id="edge41" class="edge">
<title>Node24&#45;&gt;Node6</title>
<path fill="none" stroke="#63b8ff" d="M690.01,-110.09C670.48,-101.64 641.07,-88.9 618.81,-79.27"/>
<polygon fill="#63b8ff" stroke="#63b8ff" points="620.41,-75.71 609.84,-74.95 617.63,-82.14 620.41,-75.71"/>
</g>
<!-- Node25&#45;&gt;Node5 -->
<g id="edge44" class="edge">
<title>Node25&#45;&gt;Node5</title>
<path fill="none" stroke="#63b8ff" d="M599.03,-112.22C678.2,-101.09 831.72,-79.53 897.6,-70.27"/>
<polygon fill="#63b8ff" stroke="#63b8ff" points="898.07,-73.6 907.49,-68.74 897.1,-66.66 898.07,-73.6"/>
</g>
<!-- Node25&#45;&gt;Node6 -->
<g id="edge45" class="edge">
<title>Node25&#45;&gt;Node6</title>
<path fill="none" stroke="#63b8ff" d="M556.15,-110.33C561.29,-103.13 568.73,-92.71 575.11,-83.76"/>
<polygon fill="#63b8ff" stroke="#63b8ff" points="578.5,-86.03 581.46,-75.86 572.81,-81.97 578.5,-86.03"/>
</g>
<!-- Node25&#45;&gt;Node17 -->
<g id="edge46" class="edge">
<title>Node25&#45;&gt;Node17</title>
<path fill="none" stroke="#63b8ff" d="M500.66,-111.32C433.05,-100.61 312.89,-81.57 251.8,-71.89"/>
<polygon fill="#63b8ff" stroke="#63b8ff" points="252.53,-68.3 242.11,-70.19 251.44,-75.21 252.53,-68.3"/>
</g>
<!-- Node26&#45;&gt;Node17 -->
<g id="edge48" class="edge">
<title>Node26&#45;&gt;Node17</title>
<path fill="none" stroke="#63b8ff" d="M348.28,-276.05C289.04,-259.19 172.15,-216.13 125.88,-129.75 112.16,-104.15 146.72,-86.25 176.48,-76.04"/>
<polygon fill="#63b8ff" stroke="#63b8ff" points="177.27,-79.14 185.72,-72.75 175.13,-72.47 177.27,-79.14"/>
</g>
</g>
</svg>
