<?xml version="1.0" encoding="UTF-8" standalone="no"?>
<!DOCTYPE svg PUBLIC "-//W3C//DTD SVG 1.1//EN"
 "http://www.w3.org/Graphics/SVG/1.1/DTD/svg11.dtd">
<!-- Generated by graphviz version 8.0.5 (20230430.1635)
 -->
<!-- Title: tdms/include/vertex_phasors.h Pages: 1 -->
<svg width="1377pt" height="370pt"
 viewBox="0.00 0.00 1377.45 370.00" xmlns="http://www.w3.org/2000/svg" xmlns:xlink="http://www.w3.org/1999/xlink">
<g id="graph0" class="graph" transform="scale(1 1) rotate(0) translate(4 366)">
<title>tdms/include/vertex_phasors.h</title>
<!-- Node1 -->
<g id="node1" class="node">
<title>Node1</title>
<g id="a_node1"><a xlink:title="Contains a class that handles the complex amplitude extraction at the vertices.">
<polygon fill="#999999" stroke="#666666" points="303.2,-362 201.7,-362 201.7,-331.5 303.2,-331.5 303.2,-362"/>
<text text-anchor="start" x="209.7" y="-348.5" font-family="Helvetica,sans-Serif" font-size="10.00">tdms/include/vertex</text>
<text text-anchor="middle" x="252.45" y="-337.25" font-family="Helvetica,sans-Serif" font-size="10.00">_phasors.h</text>
</a>
</g>
</g>
<!-- Node2 -->
<g id="node2" class="node">
<title>Node2</title>
<g id="a_node2"><a xlink:title=" ">
<polygon fill="#e0e0e0" stroke="#999999" points="1338.82,-74.5 1286.07,-74.5 1286.07,-55.25 1338.82,-55.25 1338.82,-74.5"/>
<text text-anchor="middle" x="1312.45" y="-61" font-family="Helvetica,sans-Serif" font-size="10.00">complex</text>
</a>
</g>
</g>
<!-- Node1&#45;&gt;Node2 -->
<g id="edge1" class="edge">
<title>Node1&#45;&gt;Node2</title>
<path fill="none" stroke="#63b8ff" d="M303.35,-345.97C521.86,-346.24 1369.45,-340.3 1369.45,-231.62 1369.45,-231.62 1369.45,-231.62 1369.45,-174.38 1369.45,-138.76 1345.09,-103.34 1328.22,-83.08"/>
<polygon fill="#63b8ff" stroke="#63b8ff" points="1330.31,-81.15 1321.11,-75.89 1325.02,-85.74 1330.31,-81.15"/>
</g>
<!-- Node3 -->
<g id="node3" class="node">
<title>Node3</title>
<g id="a_node3"><a xlink:title=" ">
<polygon fill="#e0e0e0" stroke="#999999" points="260.57,-295.5 152.32,-295.5 152.32,-276.25 260.57,-276.25 260.57,-295.5"/>
<text text-anchor="middle" x="206.45" y="-282" font-family="Helvetica,sans-Serif" font-size="10.00">arrays/tdms_matrix.h</text>
</a>
</g>
</g>
<!-- Node1&#45;&gt;Node3 -->
<g id="edge2" class="edge">
<title>Node1&#45;&gt;Node3</title>
<path fill="none" stroke="#63b8ff" d="M241.08,-331.2C234.75,-323.09 226.82,-312.95 220.15,-304.41"/>
<polygon fill="#63b8ff" stroke="#63b8ff" points="222.46,-302.68 213.54,-296.95 216.94,-306.99 222.46,-302.68"/>
</g>
<!-- Node4 -->
<g id="node4" class="node">
<title>Node4</title>
<g id="a_node4"><a xlink:href="field_8h.html" target="_top" xlink:title="Classes for the electric and magnetic (split) fields on a grid.">
<polygon fill="white" stroke="#666666" points="320.57,-295.5 278.32,-295.5 278.32,-276.25 320.57,-276.25 320.57,-295.5"/>
<text text-anchor="middle" x="299.45" y="-282" font-family="Helvetica,sans-Serif" font-size="10.00">field.h</text>
</a>
</g>
</g>
<!-- Node1&#45;&gt;Node4 -->
<g id="edge3" class="edge">
<title>Node1&#45;&gt;Node4</title>
<path fill="none" stroke="#63b8ff" d="M264.07,-331.2C270.53,-323.09 278.63,-312.95 285.45,-304.41"/>
<polygon fill="#63b8ff" stroke="#63b8ff" points="288.7,-306.95 292.2,-296.95 283.23,-302.58 288.7,-306.95"/>
</g>
<!-- Node28 -->
<g id="node28" class="node">
<title>Node28</title>
<g id="a_node28"><a xlink:href="grid__labels_8h.html" target="_top" xlink:title="Class to hold the labels of a Yee cell.">
<polygon fill="white" stroke="#666666" points="89.82,-295.5 19.07,-295.5 19.07,-276.25 89.82,-276.25 89.82,-295.5"/>
<text text-anchor="middle" x="54.45" y="-282" font-family="Helvetica,sans-Serif" font-size="10.00">grid_labels.h</text>
</a>
</g>
</g>
<!-- Node1&#45;&gt;Node28 -->
<g id="edge48" class="edge">
<title>Node1&#45;&gt;Node28</title>
<path fill="none" stroke="#63b8ff" d="M203,-331.05C169.9,-321.2 126.85,-308.4 95.62,-299.12"/>
<polygon fill="#63b8ff" stroke="#63b8ff" points="96.69,-295.49 86.11,-295.99 94.69,-302.2 96.69,-295.49"/>
</g>
<!-- Node4&#45;&gt;Node2 -->
<g id="edge4" class="edge">
<title>Node4&#45;&gt;Node2</title>
<path fill="none" stroke="#63b8ff" d="M320.88,-284.12C392.13,-281.39 627.46,-270.52 819.45,-240.25 1034.83,-206.29 1143,-283.66 1297.45,-129.75 1309.05,-118.19 1312.35,-99.47 1313.02,-85.28"/>
<polygon fill="#63b8ff" stroke="#63b8ff" points="1316.52,-85.7 1313.08,-75.68 1309.52,-85.66 1316.52,-85.7"/>
</g>
<!-- Node5 -->
<g id="node5" class="node">
<title>Node5</title>
<g id="a_node5"><a xlink:href="arrays_8h.html" target="_top" xlink:title="Classes describing arrays, vertices etc.">
<polygon fill="white" stroke="#666666" points="943.07,-185 891.82,-185 891.82,-165.75 943.07,-165.75 943.07,-185"/>
<text text-anchor="middle" x="917.45" y="-171.5" font-family="Helvetica,sans-Serif" font-size="10.00">arrays.h</text>
</a>
</g>
</g>
<!-- Node4&#45;&gt;Node5 -->
<g id="edge5" class="edge">
<title>Node4&#45;&gt;Node5</title>
<path fill="none" stroke="#63b8ff" d="M321.01,-285.47C389.54,-286.82 608.02,-286.93 780.45,-240.25 822,-229 866.56,-205.94 893.2,-190.82"/>
<polygon fill="#63b8ff" stroke="#63b8ff" points="894.58,-193.49 901.49,-185.46 891.08,-187.43 894.58,-193.49"/>
</g>
<!-- Node14 -->
<g id="node14" class="node">
<title>Node14</title>
<g id="a_node14"><a xlink:title=" ">
<polygon fill="#e0e0e0" stroke="#999999" points="214.32,-240.25 128.57,-240.25 128.57,-221 214.32,-221 214.32,-240.25"/>
<text text-anchor="middle" x="171.45" y="-226.75" font-family="Helvetica,sans-Serif" font-size="10.00">arrays/eh_vec.h</text>
</a>
</g>
</g>
<!-- Node4&#45;&gt;Node14 -->
<g id="edge18" class="edge">
<title>Node4&#45;&gt;Node14</title>
<path fill="none" stroke="#63b8ff" d="M278.02,-275.96C257.66,-267.49 226.76,-254.64 203.47,-244.95"/>
<polygon fill="#63b8ff" stroke="#63b8ff" points="204.95,-241.35 194.37,-240.75 202.26,-247.82 204.95,-241.35"/>
</g>
<!-- Node15 -->
<g id="node15" class="node">
<title>Node15</title>
<g id="a_node15"><a xlink:href="cell__coordinate_8h.html" target="_top" xlink:title="Container for {ijk} or {IJK} grouped variables.">
<polygon fill="white" stroke="#666666" points="200.2,-185 110.7,-185 110.7,-165.75 200.2,-165.75 200.2,-185"/>
<text text-anchor="middle" x="155.45" y="-171.5" font-family="Helvetica,sans-Serif" font-size="10.00">cell_coordinate.h</text>
</a>
</g>
</g>
<!-- Node4&#45;&gt;Node15 -->
<g id="edge19" class="edge">
<title>Node4&#45;&gt;Node15</title>
<path fill="none" stroke="#63b8ff" d="M289.44,-275.8C275.19,-263.04 248.06,-239.32 223.45,-221 209.23,-210.42 192.6,-199.48 179.35,-191.09"/>
<polygon fill="#63b8ff" stroke="#63b8ff" points="181.71,-187.81 171.38,-185.46 178,-193.74 181.71,-187.81"/>
</g>
<!-- Node18 -->
<g id="node18" class="node">
<title>Node18</title>
<g id="a_node18"><a xlink:href="dimensions_8h.html" target="_top" xlink:title="Defines a class that serves as an explicit converter between MATLAB pointers and array dimensions.">
<polygon fill="white" stroke="#666666" points="101.32,-240.25 27.57,-240.25 27.57,-221 101.32,-221 101.32,-240.25"/>
<text text-anchor="middle" x="64.45" y="-226.75" font-family="Helvetica,sans-Serif" font-size="10.00">dimensions.h</text>
</a>
</g>
</g>
<!-- Node4&#45;&gt;Node18 -->
<g id="edge22" class="edge">
<title>Node4&#45;&gt;Node18</title>
<path fill="none" stroke="#63b8ff" d="M277.86,-278.49C275.04,-277.7 272.18,-276.94 269.45,-276.25 215.96,-262.75 154,-249.61 112.32,-241.12"/>
<polygon fill="#63b8ff" stroke="#63b8ff" points="113.15,-237.51 102.65,-238.96 111.76,-244.37 113.15,-237.51"/>
</g>
<!-- Node19 -->
<g id="node19" class="node">
<title>Node19</title>
<g id="a_node19"><a xlink:href="mat__io_8h.html" target="_top" xlink:title="Includes MATLAB headers for I/O.">
<polygon fill="white" stroke="#666666" points="307.2,-74.5 253.7,-74.5 253.7,-55.25 307.2,-55.25 307.2,-74.5"/>
<text text-anchor="middle" x="280.45" y="-61" font-family="Helvetica,sans-Serif" font-size="10.00">mat_io.h</text>
</a>
</g>
</g>
<!-- Node4&#45;&gt;Node19 -->
<g id="edge34" class="edge">
<title>Node4&#45;&gt;Node19</title>
<path fill="none" stroke="#63b8ff" d="M300.02,-275.88C301.17,-255.98 303.31,-206.72 299.45,-165.75 296.79,-137.53 289.99,-105.42 285.29,-85.4"/>
<polygon fill="#63b8ff" stroke="#63b8ff" points="288.5,-84.78 282.75,-75.88 281.7,-86.42 288.5,-84.78"/>
</g>
<!-- Node23 -->
<g id="node23" class="node">
<title>Node23</title>
<g id="a_node23"><a xlink:href="input__flags_8h.html" target="_top" xlink:title="Organises enumerated constants, names, and classes for handling flag&#45;variables that are passed to TDM...">
<polygon fill="white" stroke="#666666" points="290.2,-185 218.7,-185 218.7,-165.75 290.2,-165.75 290.2,-185"/>
<text text-anchor="middle" x="254.45" y="-171.5" font-family="Helvetica,sans-Serif" font-size="10.00">input_flags.h</text>
</a>
</g>
</g>
<!-- Node4&#45;&gt;Node23 -->
<g id="edge27" class="edge">
<title>Node4&#45;&gt;Node23</title>
<path fill="none" stroke="#63b8ff" d="M295.77,-276C288.48,-258.43 272.09,-218.91 262.28,-195.27"/>
<polygon fill="#63b8ff" stroke="#63b8ff" points="265.25,-194.27 258.18,-186.38 258.78,-196.95 265.25,-194.27"/>
</g>
<!-- Node24 -->
<g id="node24" class="node">
<title>Node24</title>
<g id="a_node24"><a xlink:href="simulation__parameters_8h.html" target="_top" xlink:title="Classes collecting parameters for the simulation.">
<polygon fill="white" stroke="#666666" points="771.7,-240.25 649.2,-240.25 649.2,-221 771.7,-221 771.7,-240.25"/>
<text text-anchor="middle" x="710.45" y="-226.75" font-family="Helvetica,sans-Serif" font-size="10.00">simulation_parameters.h</text>
</a>
</g>
</g>
<!-- Node4&#45;&gt;Node24 -->
<g id="edge35" class="edge">
<title>Node4&#45;&gt;Node24</title>
<path fill="none" stroke="#63b8ff" d="M320.97,-282.09C379.33,-274.52 542.67,-253.36 638.27,-240.98"/>
<polygon fill="#63b8ff" stroke="#63b8ff" points="638.55,-244.34 648.01,-239.58 637.65,-237.4 638.55,-244.34"/>
</g>
<!-- Node5&#45;&gt;Node2 -->
<g id="edge6" class="edge">
<title>Node5&#45;&gt;Node2</title>
<path fill="none" stroke="#63b8ff" d="M943.35,-174.03C1015.96,-172.63 1219.76,-165.52 1274.45,-129.75 1290.45,-119.28 1300.66,-99.52 1306.42,-84.74"/>
<polygon fill="#63b8ff" stroke="#63b8ff" points="1309.96,-86.24 1309.98,-75.64 1303.36,-83.91 1309.96,-86.24"/>
</g>
<!-- Node6 -->
<g id="node6" class="node">
<title>Node6</title>
<g id="a_node6"><a xlink:title=" ">
<polygon fill="#e0e0e0" stroke="#999999" points="596.82,-129.75 538.07,-129.75 538.07,-110.5 596.82,-110.5 596.82,-129.75"/>
<text text-anchor="middle" x="567.45" y="-116.25" font-family="Helvetica,sans-Serif" font-size="10.00">stdexcept</text>
</a>
</g>
</g>
<!-- Node5&#45;&gt;Node6 -->
<g id="edge7" class="edge">
<title>Node5&#45;&gt;Node6</title>
<path fill="none" stroke="#63b8ff" d="M891.45,-171.38C839.45,-165.24 718.77,-150.21 607.96,-130.1"/>
<polygon fill="#63b8ff" stroke="#63b8ff" points="608.74,-126.5 598.27,-128.13 607.48,-133.38 608.74,-126.5"/>
</g>
<!-- Node7 -->
<g id="node7" class="node">
<title>Node7</title>
<g id="a_node7"><a xlink:title=" ">
<polygon fill="#e0e0e0" stroke="#999999" points="812.45,-74.5 772.45,-74.5 772.45,-55.25 812.45,-55.25 812.45,-74.5"/>
<text text-anchor="middle" x="792.45" y="-61" font-family="Helvetica,sans-Serif" font-size="10.00">string</text>
</a>
</g>
</g>
<!-- Node5&#45;&gt;Node7 -->
<g id="edge8" class="edge">
<title>Node5&#45;&gt;Node7</title>
<path fill="none" stroke="#63b8ff" d="M907.56,-165.67C893.55,-153.34 867.1,-130.13 844.45,-110.5 833.44,-100.96 821.06,-90.33 811.14,-81.84"/>
<polygon fill="#63b8ff" stroke="#63b8ff" points="813.71,-78.58 803.83,-74.74 809.16,-83.9 813.71,-78.58"/>
</g>
<!-- Node8 -->
<g id="node8" class="node">
<title>Node8</title>
<g id="a_node8"><a xlink:title=" ">
<polygon fill="#e0e0e0" stroke="#999999" points="572.95,-74.5 529.95,-74.5 529.95,-55.25 572.95,-55.25 572.95,-74.5"/>
<text text-anchor="middle" x="551.45" y="-61" font-family="Helvetica,sans-Serif" font-size="10.00">vector</text>
</a>
</g>
</g>
<!-- Node5&#45;&gt;Node8 -->
<g id="edge9" class="edge">
<title>Node5&#45;&gt;Node8</title>
<path fill="none" stroke="#63b8ff" d="M894.13,-165.35C859.74,-152.23 793.25,-127.61 735.45,-110.5 683.03,-94.99 621.07,-80.8 584.09,-72.76"/>
<polygon fill="#63b8ff" stroke="#63b8ff" points="584.96,-69.15 574.45,-70.47 583.48,-75.99 584.96,-69.15"/>
</g>
<!-- Node9 -->
<g id="node9" class="node">
<title>Node9</title>
<g id="a_node9"><a xlink:title=" ">
<polygon fill="#e0e0e0" stroke="#999999" points="1076.45,-129.75 1030.45,-129.75 1030.45,-110.5 1076.45,-110.5 1076.45,-129.75"/>
<text text-anchor="middle" x="1053.45" y="-116.25" font-family="Helvetica,sans-Serif" font-size="10.00">fftw3.h</text>
</a>
</g>
</g>
<!-- Node5&#45;&gt;Node9 -->
<g id="edge10" class="edge">
<title>Node5&#45;&gt;Node9</title>
<path fill="none" stroke="#63b8ff" d="M940.52,-165.34C962.4,-156.77 995.52,-143.81 1020.24,-134.13"/>
<polygon fill="#63b8ff" stroke="#63b8ff" points="1021.23,-137.11 1029.27,-130.2 1018.68,-130.59 1021.23,-137.11"/>
</g>
<!-- Node10 -->
<g id="node10" class="node">
<title>Node10</title>
<g id="a_node10"><a xlink:title=" ">
<polygon fill="#e0e0e0" stroke="#999999" points="1186.32,-129.75 1094.57,-129.75 1094.57,-110.5 1186.32,-110.5 1186.32,-129.75"/>
<text text-anchor="middle" x="1140.45" y="-116.25" font-family="Helvetica,sans-Serif" font-size="10.00">arrays/tensor3d.h</text>
</a>
</g>
</g>
<!-- Node5&#45;&gt;Node10 -->
<g id="edge11" class="edge">
<title>Node5&#45;&gt;Node10</title>
<path fill="none" stroke="#63b8ff" d="M943.47,-168.16C979.74,-159.5 1046.17,-143.64 1091.78,-132.75"/>
<polygon fill="#63b8ff" stroke="#63b8ff" points="1092.41,-135.96 1101.32,-130.23 1090.78,-129.15 1092.41,-135.96"/>
</g>
<!-- Node11 -->
<g id="node11" class="node">
<title>Node11</title>
<g id="a_node11"><a xlink:href="globals_8h.html" target="_top" xlink:title="Type definitions and global constants.">
<polygon fill="white" stroke="#666666" points="1011.95,-129.75 956.95,-129.75 956.95,-110.5 1011.95,-110.5 1011.95,-129.75"/>
<text text-anchor="middle" x="984.45" y="-116.25" font-family="Helvetica,sans-Serif" font-size="10.00">globals.h</text>
</a>
</g>
</g>
<!-- Node5&#45;&gt;Node11 -->
<g id="edge12" class="edge">
<title>Node5&#45;&gt;Node11</title>
<path fill="none" stroke="#63b8ff" d="M928.81,-165.34C938.69,-157.49 953.22,-145.95 964.95,-136.62"/>
<polygon fill="#63b8ff" stroke="#63b8ff" points="966.6,-138.99 972.25,-130.02 962.24,-133.51 966.6,-138.99"/>
</g>
<!-- Node12 -->
<g id="node12" class="node">
<title>Node12</title>
<g id="a_node12"><a xlink:title=" ">
<polygon fill="#e0e0e0" stroke="#999999" points="1264.95,-129.75 1203.95,-129.75 1203.95,-110.5 1264.95,-110.5 1264.95,-129.75"/>
<text text-anchor="middle" x="1234.45" y="-116.25" font-family="Helvetica,sans-Serif" font-size="10.00">matlabio.h</text>
</a>
</g>
</g>
<!-- Node5&#45;&gt;Node12 -->
<g id="edge15" class="edge">
<title>Node5&#45;&gt;Node12</title>
<path fill="none" stroke="#63b8ff" d="M943.22,-170.75C990.67,-163.97 1095.32,-148.51 1193.16,-130.1"/>
<polygon fill="#63b8ff" stroke="#63b8ff" points="1193.66,-133.38 1202.83,-128.07 1192.35,-126.5 1193.66,-133.38"/>
</g>
<!-- Node13 -->
<g id="node13" class="node">
<title>Node13</title>
<g id="a_node13"><a xlink:href="utils_8h.html" target="_top" xlink:title="Useful miscellaneous utility functions.">
<polygon fill="white" stroke="#666666" points="938.57,-129.75 896.32,-129.75 896.32,-110.5 938.57,-110.5 938.57,-129.75"/>
<text text-anchor="middle" x="917.45" y="-116.25" font-family="Helvetica,sans-Serif" font-size="10.00">utils.h</text>
</a>
</g>
</g>
<!-- Node5&#45;&gt;Node13 -->
<g id="edge16" class="edge">
<title>Node5&#45;&gt;Node13</title>
<path fill="none" stroke="#63b8ff" d="M917.45,-165.58C917.45,-158.92 917.45,-149.49 917.45,-141.03"/>
<polygon fill="#63b8ff" stroke="#63b8ff" points="920.95,-141.11 917.45,-131.11 913.95,-141.11 920.95,-141.11"/>
</g>
<!-- Node11&#45;&gt;Node2 -->
<g id="edge13" class="edge">
<title>Node11&#45;&gt;Node2</title>
<path fill="none" stroke="#63b8ff" d="M1012.28,-112.4C1015.37,-111.72 1018.47,-111.07 1021.45,-110.5 1112.06,-93.02 1219.62,-78 1275.14,-70.66"/>
<polygon fill="#63b8ff" stroke="#63b8ff" points="1275.39,-74.03 1284.85,-69.26 1274.48,-67.09 1275.39,-74.03"/>
</g>
<!-- Node11&#45;&gt;Node7 -->
<g id="edge14" class="edge">
<title>Node11&#45;&gt;Node7</title>
<path fill="none" stroke="#63b8ff" d="M956.53,-111.38C921.09,-101.55 860.15,-84.65 823.34,-74.44"/>
<polygon fill="#63b8ff" stroke="#63b8ff" points="824.32,-70.81 813.75,-71.51 822.45,-77.55 824.32,-70.81"/>
</g>
<!-- Node13&#45;&gt;Node7 -->
<g id="edge17" class="edge">
<title>Node13&#45;&gt;Node7</title>
<path fill="none" stroke="#63b8ff" d="M896.24,-110.09C876.07,-101.5 845.5,-88.48 822.76,-78.79"/>
<polygon fill="#63b8ff" stroke="#63b8ff" points="824.5,-75.3 813.93,-74.6 821.75,-81.74 824.5,-75.3"/>
</g>
<!-- Node16 -->
<g id="node16" class="node">
<title>Node16</title>
<g id="a_node16"><a xlink:title=" ">
<polygon fill="#e0e0e0" stroke="#999999" points="140.57,-129.75 56.32,-129.75 56.32,-110.5 140.57,-110.5 140.57,-129.75"/>
<text text-anchor="middle" x="98.45" y="-116.25" font-family="Helvetica,sans-Serif" font-size="10.00">spdlog/spdlog.h</text>
</a>
</g>
</g>
<!-- Node15&#45;&gt;Node16 -->
<g id="edge20" class="edge">
<title>Node15&#45;&gt;Node16</title>
<path fill="none" stroke="#63b8ff" d="M145.78,-165.34C137.62,-157.72 125.74,-146.62 115.93,-137.45"/>
<polygon fill="#63b8ff" stroke="#63b8ff" points="118.67,-135.29 108.98,-131.02 113.89,-140.41 118.67,-135.29"/>
</g>
<!-- Node17 -->
<g id="node17" class="node">
<title>Node17</title>
<g id="a_node17"><a xlink:title=" ">
<polygon fill="#e0e0e0" stroke="#999999" points="214.32,-129.75 158.57,-129.75 158.57,-110.5 214.32,-110.5 214.32,-129.75"/>
<text text-anchor="middle" x="186.45" y="-116.25" font-family="Helvetica,sans-Serif" font-size="10.00">algorithm</text>
</a>
</g>
</g>
<!-- Node15&#45;&gt;Node17 -->
<g id="edge21" class="edge">
<title>Node15&#45;&gt;Node17</title>
<path fill="none" stroke="#63b8ff" d="M160.57,-165.58C164.67,-158.53 170.57,-148.4 175.7,-139.58"/>
<polygon fill="#63b8ff" stroke="#63b8ff" points="179.21,-141.51 181.22,-131.11 173.16,-137.99 179.21,-141.51"/>
</g>
<!-- Node18&#45;&gt;Node19 -->
<g id="edge23" class="edge">
<title>Node18&#45;&gt;Node19</title>
<path fill="none" stroke="#63b8ff" d="M59.09,-220.62C46.95,-198.94 20.43,-143.19 47.45,-110.5 71.79,-81.05 183.24,-70.85 242.75,-67.46"/>
<polygon fill="#63b8ff" stroke="#63b8ff" points="242.77,-70.91 252.57,-66.89 242.4,-63.92 242.77,-70.91"/>
</g>
<!-- Node20 -->
<g id="node20" class="node">
<title>Node20</title>
<g id="a_node20"><a xlink:title=" ">
<polygon fill="#e0e0e0" stroke="#999999" points="236.82,-19.25 196.07,-19.25 196.07,0 236.82,0 236.82,-19.25"/>
<text text-anchor="middle" x="216.45" y="-5.75" font-family="Helvetica,sans-Serif" font-size="10.00">mat.h</text>
</a>
</g>
</g>
<!-- Node19&#45;&gt;Node20 -->
<g id="edge24" class="edge">
<title>Node19&#45;&gt;Node20</title>
<path fill="none" stroke="#63b8ff" d="M269.59,-54.84C260.25,-47.07 246.55,-35.67 235.41,-26.4"/>
<polygon fill="#63b8ff" stroke="#63b8ff" points="238.07,-23.23 228.15,-19.52 233.59,-28.61 238.07,-23.23"/>
</g>
<!-- Node21 -->
<g id="node21" class="node">
<title>Node21</title>
<g id="a_node21"><a xlink:title=" ">
<polygon fill="#e0e0e0" stroke="#999999" points="306.07,-19.25 254.82,-19.25 254.82,0 306.07,0 306.07,-19.25"/>
<text text-anchor="middle" x="280.45" y="-5.75" font-family="Helvetica,sans-Serif" font-size="10.00">matrix.h</text>
</a>
</g>
</g>
<!-- Node19&#45;&gt;Node21 -->
<g id="edge25" class="edge">
<title>Node19&#45;&gt;Node21</title>
<path fill="none" stroke="#63b8ff" d="M280.45,-55.08C280.45,-48.42 280.45,-38.99 280.45,-30.53"/>
<polygon fill="#63b8ff" stroke="#63b8ff" points="283.95,-30.61 280.45,-20.61 276.95,-30.61 283.95,-30.61"/>
</g>
<!-- Node22 -->
<g id="node22" class="node">
<title>Node22</title>
<g id="a_node22"><a xlink:title=" ">
<polygon fill="#e0e0e0" stroke="#999999" points="366.95,-19.25 323.95,-19.25 323.95,0 366.95,0 366.95,-19.25"/>
<text text-anchor="middle" x="345.45" y="-5.75" font-family="Helvetica,sans-Serif" font-size="10.00">mex.h</text>
</a>
</g>
</g>
<!-- Node19&#45;&gt;Node22 -->
<g id="edge26" class="edge">
<title>Node19&#45;&gt;Node22</title>
<path fill="none" stroke="#63b8ff" d="M291.48,-54.84C300.96,-47.07 314.87,-35.67 326.19,-26.4"/>
<polygon fill="#63b8ff" stroke="#63b8ff" points="328.07,-28.57 333.59,-19.52 323.63,-23.15 328.07,-28.57"/>
</g>
<!-- Node23&#45;&gt;Node6 -->
<g id="edge29" class="edge">
<title>Node23&#45;&gt;Node6</title>
<path fill="none" stroke="#63b8ff" d="M290.33,-168.84C342.12,-160.77 440.79,-145.05 524.45,-129.75 525.4,-129.58 526.36,-129.4 527.33,-129.22"/>
<polygon fill="#63b8ff" stroke="#63b8ff" points="527.7,-132.52 536.87,-127.2 526.39,-125.64 527.7,-132.52"/>
</g>
<!-- Node23&#45;&gt;Node7 -->
<g id="edge30" class="edge">
<title>Node23&#45;&gt;Node7</title>
<path fill="none" stroke="#63b8ff" d="M290.59,-170.79C337.77,-165.38 422.47,-153.19 491.45,-129.75 509.37,-123.66 511.47,-116.43 529.45,-110.5 610.65,-83.73 711.51,-72.36 761.45,-68.1"/>
<polygon fill="#63b8ff" stroke="#63b8ff" points="761.47,-71.53 771.16,-67.23 760.91,-64.56 761.47,-71.53"/>
</g>
<!-- Node23&#45;&gt;Node8 -->
<g id="edge31" class="edge">
<title>Node23&#45;&gt;Node8</title>
<path fill="none" stroke="#63b8ff" d="M268.82,-165.34C290.96,-151.75 335.1,-126.01 375.45,-110.5 423.9,-91.87 482.85,-78.74 518.74,-71.75"/>
<polygon fill="#63b8ff" stroke="#63b8ff" points="519.37,-75 528.53,-69.69 518.06,-68.12 519.37,-75"/>
</g>
<!-- Node23&#45;&gt;Node16 -->
<g id="edge32" class="edge">
<title>Node23&#45;&gt;Node16</title>
<path fill="none" stroke="#63b8ff" d="M227.99,-165.34C202.55,-156.66 163.88,-143.46 135.41,-133.74"/>
<polygon fill="#63b8ff" stroke="#63b8ff" points="136.64,-130.12 126.04,-130.2 134.38,-136.75 136.64,-130.12"/>
</g>
<!-- Node23&#45;&gt;Node17 -->
<g id="edge28" class="edge">
<title>Node23&#45;&gt;Node17</title>
<path fill="none" stroke="#63b8ff" d="M242.91,-165.34C232.89,-157.49 218.15,-145.95 206.24,-136.62"/>
<polygon fill="#63b8ff" stroke="#63b8ff" points="208.85,-133.43 198.81,-130.02 204.53,-138.95 208.85,-133.43"/>
</g>
<!-- Node23&#45;&gt;Node19 -->
<g id="edge33" class="edge">
<title>Node23&#45;&gt;Node19</title>
<path fill="none" stroke="#63b8ff" d="M255.76,-165.63C257.68,-153.25 261.58,-129.99 266.45,-110.5 268.56,-102.03 271.37,-92.81 273.92,-84.95"/>
<polygon fill="#63b8ff" stroke="#63b8ff" points="277.5,-86.27 277.35,-75.68 270.86,-84.05 277.5,-86.27"/>
</g>
<!-- Node24&#45;&gt;Node5 -->
<g id="edge37" class="edge">
<title>Node24&#45;&gt;Node5</title>
<path fill="none" stroke="#63b8ff" d="M745.56,-220.59C783.15,-210.92 842.51,-195.65 880.71,-185.83"/>
<polygon fill="#63b8ff" stroke="#63b8ff" points="881.55,-188.97 890.36,-183.09 879.8,-182.19 881.55,-188.97"/>
</g>
<!-- Node24&#45;&gt;Node7 -->
<g id="edge36" class="edge">
<title>Node24&#45;&gt;Node7</title>
<path fill="none" stroke="#63b8ff" d="M714.86,-220.82C727.76,-195.05 765.64,-119.4 783.25,-84.24"/>
<polygon fill="#63b8ff" stroke="#63b8ff" points="786.67,-86.23 788.02,-75.72 780.41,-83.1 786.67,-86.23"/>
</g>
<!-- Node25 -->
<g id="node25" class="node">
<title>Node25</title>
<g id="a_node25"><a xlink:href="input__matrices_8h.html" target="_top" xlink:title="Class handling the input matrices that are read in from the input file.">
<polygon fill="white" stroke="#666666" points="714.45,-185 626.45,-185 626.45,-165.75 714.45,-165.75 714.45,-185"/>
<text text-anchor="middle" x="670.45" y="-171.5" font-family="Helvetica,sans-Serif" font-size="10.00">input_matrices.h</text>
</a>
</g>
</g>
<!-- Node24&#45;&gt;Node25 -->
<g id="edge38" class="edge">
<title>Node24&#45;&gt;Node25</title>
<path fill="none" stroke="#63b8ff" d="M703.84,-220.83C698.38,-213.55 690.44,-202.98 683.67,-193.98"/>
<polygon fill="#63b8ff" stroke="#63b8ff" points="686,-192.25 677.2,-186.36 680.41,-196.46 686,-192.25"/>
</g>
<!-- Node25&#45;&gt;Node7 -->
<g id="edge39" class="edge">
<title>Node25&#45;&gt;Node7</title>
<path fill="none" stroke="#63b8ff" d="M685.65,-165.4C699.32,-157 719.63,-143.68 735.45,-129.75 751.76,-115.39 768.04,-96.59 779,-83.11"/>
<polygon fill="#63b8ff" stroke="#63b8ff" points="782.17,-85.75 785.67,-75.75 776.7,-81.38 782.17,-85.75"/>
</g>
<!-- Node25&#45;&gt;Node19 -->
<g id="edge43" class="edge">
<title>Node25&#45;&gt;Node19</title>
<path fill="none" stroke="#63b8ff" d="M626.16,-173.68C567.07,-171.43 460.05,-162.66 375.45,-129.75 346,-118.29 316.49,-96.43 298.35,-81.51"/>
<polygon fill="#63b8ff" stroke="#63b8ff" points="301.31,-78.58 291.41,-74.81 296.8,-83.93 301.31,-78.58"/>
</g>
<!-- Node26 -->
<g id="node26" class="node">
<title>Node26</title>
<g id="a_node26"><a xlink:href="input__output__names_8h.html" target="_top" xlink:title="Constant values associated with the format of the input and output files and matrices.">
<polygon fill="white" stroke="#666666" points="726.45,-129.75 614.45,-129.75 614.45,-110.5 726.45,-110.5 726.45,-129.75"/>
<text text-anchor="middle" x="670.45" y="-116.25" font-family="Helvetica,sans-Serif" font-size="10.00">input_output_names.h</text>
</a>
</g>
</g>
<!-- Node25&#45;&gt;Node26 -->
<g id="edge40" class="edge">
<title>Node25&#45;&gt;Node26</title>
<path fill="none" stroke="#63b8ff" d="M670.45,-165.58C670.45,-158.92 670.45,-149.49 670.45,-141.03"/>
<polygon fill="#63b8ff" stroke="#63b8ff" points="673.95,-141.11 670.45,-131.11 666.95,-141.11 673.95,-141.11"/>
</g>
<!-- Node27 -->
<g id="node27" class="node">
<title>Node27</title>
<g id="a_node27"><a xlink:href="matrix__collection_8h.html" target="_top" xlink:title="A collection of named MATLAB matrices.">
<polygon fill="white" stroke="#666666" points="482.32,-129.75 384.57,-129.75 384.57,-110.5 482.32,-110.5 482.32,-129.75"/>
<text text-anchor="middle" x="433.45" y="-116.25" font-family="Helvetica,sans-Serif" font-size="10.00">matrix_collection.h</text>
</a>
</g>
</g>
<!-- Node25&#45;&gt;Node27 -->
<g id="edge44" class="edge">
<title>Node25&#45;&gt;Node27</title>
<path fill="none" stroke="#63b8ff" d="M629.98,-165.28C589.76,-156.24 527.95,-142.36 484.41,-132.57"/>
<polygon fill="#63b8ff" stroke="#63b8ff" points="485.28,-128.96 474.75,-130.18 483.74,-135.79 485.28,-128.96"/>
</g>
<!-- Node26&#45;&gt;Node7 -->
<g id="edge41" class="edge">
<title>Node26&#45;&gt;Node7</title>
<path fill="none" stroke="#63b8ff" d="M691.14,-110.09C710.63,-101.59 740.04,-88.75 762.17,-79.09"/>
<polygon fill="#63b8ff" stroke="#63b8ff" points="763.29,-81.98 771.06,-74.77 760.49,-75.57 763.29,-81.98"/>
</g>
<!-- Node26&#45;&gt;Node8 -->
<g id="edge42" class="edge">
<title>Node26&#45;&gt;Node8</title>
<path fill="none" stroke="#63b8ff" d="M650.26,-110.09C631.46,-101.68 603.17,-89.02 581.67,-79.4"/>
<polygon fill="#63b8ff" stroke="#63b8ff" points="583.29,-75.84 572.73,-74.95 580.43,-82.23 583.29,-75.84"/>
</g>
<!-- Node27&#45;&gt;Node7 -->
<g id="edge45" class="edge">
<title>Node27&#45;&gt;Node7</title>
<path fill="none" stroke="#63b8ff" d="M482.61,-111.83C557.82,-100.68 699.25,-79.7 761.59,-70.45"/>
<polygon fill="#63b8ff" stroke="#63b8ff" points="761.9,-73.8 771.28,-68.87 760.88,-66.87 761.9,-73.8"/>
</g>
<!-- Node27&#45;&gt;Node8 -->
<g id="edge46" class="edge">
<title>Node27&#45;&gt;Node8</title>
<path fill="none" stroke="#63b8ff" d="M453.47,-110.09C472.11,-101.68 500.16,-89.02 521.48,-79.4"/>
<polygon fill="#63b8ff" stroke="#63b8ff" points="522.66,-82.26 530.33,-74.95 519.78,-75.88 522.66,-82.26"/>
</g>
<!-- Node27&#45;&gt;Node19 -->
<g id="edge47" class="edge">
<title>Node27&#45;&gt;Node19</title>
<path fill="none" stroke="#63b8ff" d="M407.49,-110.09C382.55,-101.41 344.62,-88.21 316.69,-78.49"/>
<polygon fill="#63b8ff" stroke="#63b8ff" points="318.13,-74.93 307.53,-74.95 315.82,-81.55 318.13,-74.93"/>
</g>
<!-- Node28&#45;&gt;Node19 -->
<g id="edge49" class="edge">
<title>Node28&#45;&gt;Node19</title>
<path fill="none" stroke="#63b8ff" d="M43.95,-275.83C35.23,-267.57 23.49,-254.52 18.45,-240.25 4.89,-201.84 -21.64,-168.63 34.45,-110.5 62.61,-81.32 180.74,-70.96 242.48,-67.5"/>
<polygon fill="#63b8ff" stroke="#63b8ff" points="242.52,-70.95 252.32,-66.93 242.15,-63.96 242.52,-70.95"/>
</g>
</g>
</svg>
